<?xml version="1.0" encoding="utf-8"?>
<!-- Generator: Adobe Illustrator 24.2.0, SVG Export Plug-In . SVG Version: 6.00 Build 0)  -->
<svg version="1.0" id="Ebene_1" xmlns="http://www.w3.org/2000/svg" xmlns:xlink="http://www.w3.org/1999/xlink" x="0px" y="0px"
	 viewBox="0 0 400 400.001" enable-background="new 0 0 400 400.001" xml:space="preserve">
<rect id="background-blue" fill="#2D327D" width="400" height="400"/>
<g id="content">
	<path id="frameWhite" fill="#FFFFFF" d="M340,40c11,0,20,9,20,20v280c0,11-9,20-20,20H60c-11,0-20-9-20-20V60c0-11,9-20,20-20H340
		 M340,35H60c-13.785,0-25,11.215-25,25v280c0,13.785,11.215,25,25,25h280c13.785,0,25-11.215,25-25V60
		C365,46.215,353.785,35,340,35L340,35z"/>
	<g>
		<path fill="#FFFFFF" d="M216.317,210.065L186.54,320h-24.062l-19.024-78.504L125.03,320h-24.363L71.341,210.065h24.138
			l17.671,80.76l19.325-80.76h22.709l19.325,80.158l17.896-80.158H216.317z"/>
		<path fill="#FFFFFF" d="M322.944,277.59c-0.803,11.38-4.612,21.105-11.43,29.176c-8.924,10.578-21.557,15.866-37.898,15.866
			c-17.396,0-30.931-6.141-40.605-18.423c-8.271-10.477-12.407-23.561-12.407-39.252c0-16.442,4.912-30.153,14.738-41.132
			c9.825-10.928,22.884-16.393,39.177-16.393c15.189,0,27.421,5.014,36.695,15.039c6.617,7.068,10.276,15.215,10.979,24.438h-23.687
			c-1.304-6.216-4.086-11.016-8.347-14.4c-4.262-3.383-9.65-5.075-16.167-5.075c-10.428,0-18.223,4.387-23.386,13.159
			c-3.86,6.668-5.79,14.839-5.79,24.514c0,9.926,2.03,18.197,6.091,24.814c5.163,8.473,12.808,12.708,22.935,12.708
			c7.219,0,12.971-2.13,17.258-6.392c4.285-4.261,6.93-10.477,7.933-18.648H322.944z"/>
	</g>
</g>
</svg>
