<?xml version="1.0" encoding="utf-8"?>
<!-- Generator: Adobe Illustrator 24.2.0, SVG Export Plug-In . SVG Version: 6.00 Build 0)  -->
<svg version="1.0" id="Ebene_1" xmlns="http://www.w3.org/2000/svg" xmlns:xlink="http://www.w3.org/1999/xlink" x="0px" y="0px"
	 viewBox="0 0 400 400.001" enable-background="new 0 0 400 400.001" xml:space="preserve">
<rect id="background-blue" fill="#2D327D" width="400" height="400"/>
<g id="content">
	<path id="frameWhite" fill="#FFFFFF" d="M340,40c11,0,20,9,20,20v280c0,11-9,20-20,20H60c-11,0-20-9-20-20V60c0-11,9-20,20-20H340
		 M340,35H60c-13.785,0-25,11.215-25,25v280c0,13.785,11.215,25,25,25h280c13.785,0,25-11.215,25-25V60
		C365,46.215,353.785,35,340,35L340,35z"/>
	<g>
		<path fill="#FFFFFF" d="M279.632,88.878c0,4.937-3.966,8.926-8.886,8.926c-4.943,0-8.926-3.989-8.926-8.926
			c0-4.904,3.982-8.878,8.926-8.878C275.666,80,279.632,83.974,279.632,88.878"/>
		<path fill="#FFFFFF" d="M319.571,163.913l-12.038-28.328c-0.837-1.963-2.739-3.237-4.905-3.237h-20.551l-1.109-8.855h17.036
			c1.777,0,3.236-1.444,3.236-3.26c0-1.769-1.459-3.228-3.236-3.228h-17.835l-1.35-10.851c-0.505-4.035-4.183-6.907-8.251-6.41
			c-4.027,0.504-6.899,4.198-6.402,8.243l3.547,28.351c0.046,0.333,0.178,1.202,0.178,1.311c0,2.95,2.39,5.332,5.316,5.332h25.93
			l10.68,25.084c0.831,2.01,2.81,3.219,4.874,3.219c0.699,0,1.389-0.139,2.088-0.419
			C319.463,169.724,320.727,166.582,319.571,163.913"/>
		<path fill="#FFFFFF" d="M303.396,160.281c-4.385,7.436-12.463,12.41-21.692,12.41c-13.923,0-25.185-11.261-25.185-25.185
			c0-6.969,2.856-13.302,7.45-17.858l-1.001-8.654c-8.312,5.883-13.745,15.554-13.745,26.512c0,17.944,14.537,32.494,32.48,32.494
			c10.137,0,19.186-4.655,25.131-11.934L303.396,160.281z"/>
	</g>
	<g>
		<path fill="#FFFFFF" d="M216.317,210.065L186.54,320h-24.062l-19.024-78.504L125.03,320h-24.363L71.341,210.065h24.138
			l17.671,80.76l19.325-80.76h22.709l19.325,80.158l17.896-80.158H216.317z"/>
		<path fill="#FFFFFF" d="M322.944,277.59c-0.803,11.38-4.612,21.105-11.43,29.176c-8.924,10.578-21.557,15.866-37.898,15.866
			c-17.396,0-30.931-6.141-40.605-18.423c-8.271-10.477-12.407-23.561-12.407-39.252c0-16.442,4.912-30.153,14.738-41.132
			c9.825-10.928,22.884-16.393,39.177-16.393c15.189,0,27.421,5.014,36.695,15.039c6.617,7.068,10.276,15.215,10.979,24.438h-23.687
			c-1.304-6.216-4.086-11.016-8.347-14.4c-4.262-3.383-9.65-5.075-16.167-5.075c-10.428,0-18.223,4.387-23.386,13.159
			c-3.86,6.668-5.79,14.839-5.79,24.514c0,9.926,2.03,18.197,6.091,24.814c5.163,8.473,12.808,12.708,22.935,12.708
			c7.219,0,12.971-2.13,17.258-6.392c4.285-4.261,6.93-10.477,7.933-18.648H322.944z"/>
	</g>
</g>
</svg>
