<?xml version="1.0" encoding="utf-8"?>
<!-- Generator: Adobe Illustrator 24.2.0, SVG Export Plug-In . SVG Version: 6.00 Build 0)  -->
<svg version="1.0" id="Ebene_1" xmlns="http://www.w3.org/2000/svg" xmlns:xlink="http://www.w3.org/1999/xlink" x="0px" y="0px"
	 viewBox="0 0 400 400.001" enable-background="new 0 0 400 400.001" xml:space="preserve">
<rect id="background-blue" fill="#2D327D" width="400" height="400"/>
<g id="content">
	<path id="frameWhite" fill="#FFFFFF" d="M340,40c11,0,20,9,20,20v280c0,11-9,20-20,20H60c-11,0-20-9-20-20V60c0-11,9-20,20-20H340
		 M340,35H60c-13.785,0-25,11.215-25,25v280c0,13.785,11.215,25,25,25h280c13.785,0,25-11.215,25-25V60
		C365,46.215,353.785,35,340,35L340,35z"/>
	<path fill="#FFFFFF" d="M176.162,209.385c1.03,2.802,3.7,4.663,6.683,4.663c3.934,0,7.124-3.192,7.124-7.126
		c0-0.839-0.148-1.674-0.438-2.463l0,0l-24.453-66.377c-2.898-7.863-10.39-13.086-18.769-13.086h-22.631
		c-8.378,0-15.868,5.222-18.769,13.086l0,0l-24.453,66.377c-0.293,0.789-0.438,1.624-0.438,2.463c0,3.934,3.19,7.126,7.125,7.126
		c2.984,0,5.65-1.862,6.683-4.663h0.003l20.037-54.389h6.659l-34.999,95h25.714v59.75c0,5.658,4.596,10.249,10.253,10.249
		c5.66,0,10.249-4.59,10.249-10.249v-59.75h6.501v59.75c0,5.658,4.592,10.249,10.249,10.249c5.66,0,10.252-4.59,10.252-10.249
		v-59.75h25.718l-35.002-95h6.663L176.162,209.385L176.162,209.385z"/>
	<path fill="#FFFFFF" d="M154.586,99.843c0-11.04-8.961-20.001-20.003-20.001c-11.038,0-19.999,8.961-19.999,20.001
		c0,11.04,8.961,19.999,19.999,19.999C145.625,119.842,154.586,110.883,154.586,99.843L154.586,99.843z"/>
</g>
</svg>
