<?xml version="1.0" encoding="utf-8"?>
<!-- Generator: Adobe Illustrator 24.2.0, SVG Export Plug-In . SVG Version: 6.00 Build 0)  -->
<svg version="1.0" id="Ebene_1" xmlns="http://www.w3.org/2000/svg" xmlns:xlink="http://www.w3.org/1999/xlink" x="0px" y="0px"
	 viewBox="0 0 400 400.001" enable-background="new 0 0 400 400.001" xml:space="preserve">
<rect id="background-blue" fill="#2D327D" width="400" height="400"/>
<g id="content">
	<path id="frameWhite" fill="#FFFFFF" d="M340,40c11,0,20,9,20,20v280c0,11-9,20-20,20H60c-11,0-20-9-20-20V60c0-11,9-20,20-20H340
		 M340,35H60c-13.785,0-25,11.215-25,25v280c0,13.785,11.215,25,25,25h280c13.785,0,25-11.215,25-25V60
		C365,46.215,353.785,35,340,35L340,35z"/>
	<path fill="#FFFFFF" d="M143.825,99.844c0-11.04-8.961-20-20.002-20c-11.038,0-19.999,8.96-19.999,20c0,11.04,8.961,20,19.999,20
		C134.865,119.844,143.825,110.884,143.825,99.844L143.825,99.844z"/>
	<path fill="#FFFFFF" d="M79.998,144.997v67.875c0,3.933,3.19,7.124,7.124,7.124c3.934,0,7.124-3.192,7.124-7.124v-57.876h6.249
		v154.75c0,5.657,4.593,10.249,10.253,10.249c5.657,0,10.249-4.592,10.249-10.249v-90h6.497v90c0,5.657,4.592,10.249,10.253,10.249
		c5.657,0,10.249-4.592,10.249-10.249v-154.75h6.249v57.876c0,3.933,3.19,7.124,7.128,7.124c3.931,0,7.121-3.192,7.121-7.124l0,0
		v-67.875c0-11.04-8.957-20-19.999-20h-48.5C88.955,124.997,79.998,133.957,79.998,144.997L79.998,144.997z"/>
</g>
</svg>
