<?xml version="1.0" encoding="utf-8"?>
<!-- Generator: Adobe Illustrator 24.2.0, SVG Export Plug-In . SVG Version: 6.00 Build 0)  -->
<svg version="1.0" xmlns="http://www.w3.org/2000/svg" xmlns:xlink="http://www.w3.org/1999/xlink" x="0px" y="0px"
	 viewBox="0 0 400 400.001" enable-background="new 0 0 400 400.001" xml:space="preserve">
<rect id="background-blue" fill="#2D327D" width="400" height="400"/>
<g id="content">
	<path id="frameWhite" fill="#FFFFFF" d="M340,40c11,0,20,9,20,20v280c0,11-9,20-20,20H60c-11,0-20-9-20-20V60c0-11,9-20,20-20H340
		 M340,35H60c-13.785,0-25,11.215-25,25v280c0,13.785,11.215,25,25,25h280c13.785,0,25-11.215,25-25V60
		C365,46.215,353.785,35,340,35L340,35z"/>
	<g>
		<path fill="#FFFFFF" d="M178.749,258.241c4.351-4.351,10.111-6.779,16.251-6.862v-10.456l-50.314,21.221
			c2.404,3.726,3.699,8.064,3.713,12.601h23.484C171.902,268.51,174.338,262.651,178.749,258.241z"/>
	</g>
	<g>
		<path fill="#FFFFFF" d="M141.534,258.241c0.053,0.053,0.105,0.108,0.158,0.162l25.176-10.619L125,235.759v15.616
			C131.246,251.386,137.116,253.823,141.534,258.241z"/>
	</g>
	<g>
		<polygon fill="#FFFFFF" points="195,235.919 195,228.241 125,228.241 125,230.963 173.633,244.931 		"/>
	</g>
	<path fill="#FFFFFF" d="M207.821,272.243l0.013-0.005l-14.567-16.75c-4.415,0.462-8.515,2.405-11.691,5.581
		c-3.396,3.396-5.359,7.836-5.637,12.593l6.865,7.895l0.007-0.003l-16.749,19.96c-3.833,4.568-2.996,11.58,1.87,15.663
		c4.865,4.083,11.916,3.689,15.749-0.878l24.808-29.566l0,0C211.981,282.575,211.588,276.398,207.821,272.243z"/>
	<path fill="#FFFFFF" d="M126.732,255.488l-14.567,16.75l0.013,0.005c-3.767,4.155-4.16,10.333-0.671,14.491l0,0l24.808,29.566
		c3.833,4.568,10.884,4.961,15.749,0.878c4.865-4.082,5.702-11.095,1.87-15.663l-16.749-19.96l0.007,0.003l6.865-7.895
		c-0.278-4.758-2.241-9.197-5.637-12.593C135.247,257.893,131.147,255.95,126.732,255.488z"/>
	<path fill="#FFFFFF" d="M230,175.67h-40h-60H90c-5.523,0-10,4.477-10,10c0,5.523,4.477,10,10,10h40v28.071h60V195.67h40
		c5.523,0,10-4.477,10-10C240,180.148,235.523,175.67,230,175.67z"/>
	<circle fill="#FFFFFF" cx="160" cy="140.67" r="30"/>
</g>
</svg>
