<?xml version="1.0" encoding="utf-8"?>
<!-- Generator: Adobe Illustrator 24.2.0, SVG Export Plug-In . SVG Version: 6.00 Build 0)  -->
<svg version="1.0" id="Ebene_1" xmlns="http://www.w3.org/2000/svg" xmlns:xlink="http://www.w3.org/1999/xlink" x="0px" y="0px"
	 viewBox="0 0 400 400.001" enable-background="new 0 0 400 400.001" xml:space="preserve">
<rect id="background-blue" fill="#2D327D" width="400" height="400"/>
<g id="content">
	<path id="frameWhite" fill="#FFFFFF" d="M340,40c11,0,20,9,20,20v280c0,11-9,20-20,20H60c-11,0-20-9-20-20V60c0-11,9-20,20-20H340
		 M340,35H60c-13.785,0-25,11.215-25,25v280c0,13.785,11.215,25,25,25h280c13.785,0,25-11.215,25-25V60
		C365,46.215,353.785,35,340,35L340,35z"/>
	<path fill="#FFFFFF" d="M160.151,126.203l21.926-21.913l-25.109-25.108c-0.941-0.927-2.205-1.473-3.518-1.473
		c-1.338,0-2.601,0.546-3.555,1.473l-14.852,14.857c-0.917,0.929-1.462,2.217-1.462,3.528c0,1.339,0.546,2.601,1.462,3.542
		L160.151,126.203L160.151,126.203z"/>
	<path fill="#FFFFFF" d="M210.01,140.008l-24.749-24.762l-14.146,14.151l10.602,10.611h-46.699
		c-13.812,0-25.022,11.192-25.022,24.982v15.005h19.992V164.99c0-2.747,2.255-4.988,5.03-4.988h124.985v-19.994H210.01
		L210.01,140.008z"/>
	<path fill="#FFFFFF" d="M156.51,200H83.513c-1.933,0-3.517,1.561-3.517,3.518v96.49c0,11.042,8.968,19.992,20.018,19.992h39.998
		c11.036,0,19.992-8.95,19.992-19.992v-96.49C160.003,201.561,158.442,200,156.51,200L156.51,200z M151.01,248.011
		c-4.842,2.301-10.144,3.49-15.496,3.49c-5.374,0-10.664-1.189-15.508-3.49c-4.83-2.301-10.132-3.517-15.508-3.517
		c-5.364,0-10.652,1.216-15.484,3.517v-10.015c4.832-2.305,10.12-3.493,15.484-3.493c5.376,0,10.678,1.189,15.508,3.493
		c4.844,2.315,10.134,3.504,15.508,3.504c5.352,0,10.654-1.189,15.496-3.504V248.011L151.01,248.011z M151.01,229.008
		c-4.842,2.301-10.144,3.49-15.496,3.49c-5.374,0-10.664-1.189-15.508-3.49c-4.83-2.301-10.132-3.504-15.508-3.504
		c-5.364,0-10.652,1.202-15.484,3.504v-10.015c4.832-2.305,10.12-3.493,15.484-3.493c5.376,0,10.678,1.189,15.508,3.493
		c4.844,2.301,10.134,3.514,15.508,3.514c5.352,0,10.654-1.213,15.496-3.514V229.008L151.01,229.008z"/>
</g>
</svg>
