<?xml version="1.0" encoding="utf-8"?>
<!-- Generator: Adobe Illustrator 24.2.0, SVG Export Plug-In . SVG Version: 6.00 Build 0)  -->
<svg version="1.0" id="Ebene_1" xmlns="http://www.w3.org/2000/svg" xmlns:xlink="http://www.w3.org/1999/xlink" x="0px" y="0px"
	 viewBox="0 0 400 400.001" enable-background="new 0 0 400 400.001" xml:space="preserve">
<rect id="background-blue" fill="#2D327D" width="400" height="400"/>
<g id="content">
	<path id="frameWhite" fill="#FFFFFF" d="M340,40c11,0,20,9,20,20v280c0,11-9,20-20,20H60c-11,0-20-9-20-20V60c0-11,9-20,20-20H340
		 M340,35H60c-13.785,0-25,11.215-25,25v280c0,13.785,11.215,25,25,25h280c13.785,0,25-11.215,25-25V60
		C365,46.215,353.785,35,340,35L340,35z"/>
	<path fill="#FFFFFF" d="M160.15,126.202l21.926-21.913l-25.109-25.108c-0.941-0.927-2.205-1.473-3.518-1.473
		c-1.338,0-2.601,0.546-3.555,1.473l-14.852,14.857c-0.916,0.928-1.462,2.217-1.462,3.528c0,1.338,0.546,2.601,1.462,3.542
		L160.15,126.202L160.15,126.202z"/>
	<path fill="#FFFFFF" d="M210.01,140.007l-24.75-24.762l-14.146,14.151l10.602,10.611h-46.698
		c-13.812,0-25.022,11.191-25.022,24.982v15.005h19.992v-15.005c0-2.747,2.255-4.988,5.03-4.988h124.985v-19.994H210.01
		L210.01,140.007z"/>
	<path fill="#FFFFFF" d="M160.002,230.604l20.1-20.1l-10.608-10.606l-9.493,9.493v-5.875c0-1.957-1.561-3.518-3.493-3.518H83.513
		c-1.933,0-3.518,1.561-3.518,3.518v5.876l-9.495-9.494l-10.607,10.606l20.102,20.101v58.793l-20.102,20.102L70.5,320.107
		l11.476-11.475c3.228,6.717,10.083,11.366,18.037,11.366h39.998c7.943,0,14.788-4.648,18.012-11.364l11.472,11.473l10.608-10.606
		l-20.1-20.102V230.604z M120.005,248.01c-0.795-0.379-1.607-0.717-2.426-1.037l-12.455-12.454
		c5.161,0.089,10.239,1.261,14.881,3.476c2.737,1.308,5.618,2.243,8.574,2.82l-7.617,7.617
		C120.642,248.292,120.32,248.16,120.005,248.01z M151.009,248.01c-3.692,1.755-7.652,2.857-11.697,3.284l11.697-11.697V248.01z
		 M104.497,215.498c5.376,0,10.678,1.189,15.508,3.493c4.844,2.301,10.134,3.514,15.508,3.514c4.956,0,9.864-1.053,14.409-3.034
		l-12.985,12.985c-0.474,0.019-0.949,0.039-1.424,0.039c-5.374,0-10.664-1.189-15.508-3.49c-4.83-2.301-10.132-3.504-15.508-3.504
		c-2.556,0-5.093,0.281-7.574,0.816l-7.507-7.506C94.139,216.632,99.28,215.498,104.497,215.498z M95.142,245.751
		c-2.101,0.569-4.155,1.318-6.129,2.259v-8.388L95.142,245.751z"/>
	<polygon fill="#EB0000" points="120,249.394 70.5,199.899 59.893,210.504 109.392,260 59.893,309.501 70.5,320.107 120,270.61 
		169.495,320.107 180.103,309.501 130.605,260 180.103,210.504 169.495,199.899 120,249.394 	"/>
</g>
</svg>
