<?xml version="1.0" encoding="utf-8"?>
<!-- Generator: Adobe Illustrator 24.2.0, SVG Export Plug-In . SVG Version: 6.00 Build 0)  -->
<svg version="1.0" id="Ebene_1" xmlns="http://www.w3.org/2000/svg" xmlns:xlink="http://www.w3.org/1999/xlink" x="0px" y="0px"
	 viewBox="0 0 400 400.001" enable-background="new 0 0 400 400.001" xml:space="preserve">
<rect id="background-blue" fill="#2D327D" width="400" height="400"/>
<g id="content">
	<path id="frameWhite" fill="#FFFFFF" d="M340,40c11,0,20,9,20,20v280c0,11-9,20-20,20H60c-11,0-20-9-20-20V60c0-11,9-20,20-20H340
		 M340,35H60c-13.785,0-25,11.215-25,25v280c0,13.785,11.215,25,25,25h280c13.785,0,25-11.215,25-25V60
		C365,46.215,353.785,35,340,35L340,35z"/>
	<path fill="#FFFFFF" d="M85.131,289.977c-1.235,0-2.291,0.903-2.475,2.129l-3.753,25.06c-0.024,0.121-0.024,0.234-0.024,0.369
		c0,1.364,1.113,2.501,2.501,2.501c1.227,0,2.277-0.916,2.463-2.129l3.766-25.056c0.014-0.124,0.028-0.248,0.028-0.372
		C87.636,291.103,86.506,289.977,85.131,289.977L85.131,289.977z"/>
	<path fill="#FFFFFF" d="M92.624,239.985c-1.223,0-2.277,0.892-2.463,2.105l-3.765,25.084c-0.014,0.1-0.024,0.234-0.024,0.372
		c0,1.361,1.127,2.474,2.501,2.474c1.24,0,2.291-0.903,2.467-2.105l3.766-25.08c0.024-0.1,0.024-0.234,0.024-0.372
		C95.129,241.101,94.013,239.985,92.624,239.985L92.624,239.985z"/>
	<path fill="#FFFFFF" d="M99.377,194.971c-1.24,0-2.289,0.906-2.467,2.129l-3.766,25.06c-0.01,0.124-0.022,0.248-0.022,0.372
		c0,1.385,1.116,2.498,2.504,2.498c1.235,0,2.275-0.913,2.475-2.129l3.753-25.056c0.024-0.122,0.036-0.248,0.036-0.37
		C101.892,196.098,100.766,194.971,99.377,194.971L99.377,194.971z"/>
	<path fill="#FFFFFF" d="M101.621,185.032c1.235,0,2.29-0.904,2.476-2.141l3.753-25.046c0.012-0.136,0.022-0.234,0.022-0.369
		c0-1.376-1.113-2.517-2.488-2.517c-1.24,0-2.289,0.917-2.475,2.143l-3.755,25.042c-0.012,0.138-0.026,0.248-0.026,0.372
		C99.129,183.907,100.245,185.032,101.621,185.032L101.621,185.032z"/>
	<path fill="#FFFFFF" d="M107.788,254.992c-1.276,0-2.341,0.965-2.479,2.229l-2.825,25.032c-0.011,0.086-0.011,0.172-0.011,0.272
		c0,1.375,1.114,2.487,2.491,2.487c1.276,0,2.355-0.954,2.487-2.215l2.811-25.032c0.029-0.086,0.029-0.176,0.029-0.272
		C110.293,256.104,109.176,254.992,107.788,254.992L107.788,254.992z"/>
	<path fill="#FFFFFF" d="M112.84,209.988c-1.265,0-2.329,0.954-2.477,2.219l-2.809,25.032c-0.015,0.086-0.015,0.172-0.015,0.272
		c0,1.385,1.116,2.501,2.49,2.501c1.275,0,2.343-0.944,2.491-2.229l2.823-25.032c0-0.09,0-0.176,0-0.272
		C115.343,211.105,114.229,209.988,112.84,209.988L112.84,209.988z"/>
	<path fill="#FFFFFF" d="M119.853,172.478c0-1.375-1.128-2.487-2.503-2.487c-1.275,0-2.351,0.94-2.49,2.201l-2.811,25.032
		c-0.01,0.102-0.022,0.2-0.022,0.286c0,1.399,1.125,2.511,2.499,2.511c1.278,0,2.343-0.965,2.491-2.224l2.811-25.032
		C119.841,172.664,119.853,172.564,119.853,172.478L119.853,172.478z"/>
	<path fill="#FFFFFF" d="M122.566,289.99c-1.316,0-2.391,1.027-2.491,2.315l-1.885,25.018c0,0.063,0,0.138,0,0.187
		c0,1.375,1.116,2.501,2.507,2.501c1.297,0,2.389-1.016,2.475-2.315l1.881-25.018c0.014-0.052,0.014-0.124,0.014-0.176
		C125.067,291.117,123.951,289.99,122.566,289.99L122.566,289.99z"/>
	<path fill="#FFFFFF" d="M126.317,239.999c-1.312,0-2.401,1.003-2.499,2.301l-1.872,25.022c0,0.076,0,0.124,0,0.172
		c0,1.399,1.113,2.515,2.49,2.515c1.313,0,2.403-1.003,2.501-2.305l1.871-25.032c0.01-0.062,0.01-0.11,0.01-0.186
		C128.819,241.111,127.692,239.999,126.317,239.999L126.317,239.999z"/>
	<path fill="#FFFFFF" d="M129.687,194.985c-1.311,0-2.391,1.027-2.489,2.315l-1.872,25.018c-0.009,0.062-0.009,0.138-0.009,0.186
		c0,1.375,1.125,2.501,2.499,2.501c1.303,0,2.391-1.013,2.491-2.315l1.871-25.018c0.01-0.052,0.01-0.124,0.01-0.176
		C132.188,196.112,131.077,194.985,129.687,194.985L129.687,194.985z"/>
	<path fill="#FFFFFF" d="M132.684,154.984c-1.299,0-2.391,1.016-2.477,2.33l-1.885,25.006c-0.009,0.048-0.009,0.124-0.009,0.188
		c0,1.373,1.125,2.51,2.499,2.51c1.313,0,2.391-1.025,2.491-2.325l1.881-25.008c0-0.06,0-0.138,0-0.2
		C135.185,156.126,134.074,154.984,132.684,154.984L132.684,154.984z"/>
	<path fill="#FFFFFF" d="M142.592,255.002c-1.337,0-2.439,1.054-2.501,2.391l-0.941,25.018c0,0.038,0,0.062,0,0.09
		c0,1.385,1.128,2.511,2.501,2.511c1.351,0,2.453-1.078,2.501-2.415l0.944-24.994c0-0.038,0-0.076,0-0.11
		C145.097,256.118,143.981,255.002,142.592,255.002L142.592,255.002z"/>
	<path fill="#FFFFFF" d="M144.277,209.988c-1.337,0-2.449,1.078-2.487,2.415l-0.944,25.008c0,0.024,0,0.062,0,0.1
		c0,1.375,1.116,2.487,2.504,2.487c1.351,0,2.44-1.051,2.488-2.391l0.944-25.018c0-0.038,0-0.062,0-0.086
		C146.781,211.115,145.665,209.988,144.277,209.988L144.277,209.988z"/>
	<path fill="#FFFFFF" d="M145.775,169.991c-1.337,0-2.437,1.075-2.487,2.411l-0.941,24.997c0,0.035,0,0.074,0,0.11
		c0,1.375,1.113,2.487,2.501,2.487c1.338,0,2.454-1.064,2.487-2.401l0.944-25.008c0-0.038,0-0.048,0-0.1
		C148.28,171.128,147.164,169.991,145.775,169.991L145.775,169.991z"/>
	<path fill="#FFFFFF" d="M106.055,149.982h107.909c3.297,0,5.994-2.673,5.994-5.991c0-0.544-0.071-1.075-0.218-1.594
		c-6.482-23.291-25.892-40.695-49.746-44.583V80h-19.995v17.815c-23.854,3.888-43.253,21.292-49.728,44.583
		c-0.148,0.519-0.225,1.049-0.225,1.594C100.045,147.308,102.733,149.982,106.055,149.982L106.055,149.982z"/>
	<path fill="#FFFFFF" d="M160.011,155.008c-1.388,0-2.505,1.118-2.505,2.477v25.023c0,1.373,1.116,2.486,2.505,2.486
		c1.361,0,2.489-1.113,2.489-2.486v-25.023C162.5,156.126,161.371,155.008,160.011,155.008L160.011,155.008z"/>
	<path fill="#FFFFFF" d="M160.011,194.999c-1.388,0-2.505,1.113-2.505,2.498v25.008c0,1.375,1.116,2.491,2.505,2.491
		c1.361,0,2.489-1.116,2.489-2.491v-25.008C162.5,196.112,161.371,194.999,160.011,194.999L160.011,194.999z"/>
	<path fill="#FFFFFF" d="M160.011,239.999c-1.388,0-2.505,1.113-2.505,2.515v24.98c0,1.388,1.116,2.515,2.505,2.515
		c1.361,0,2.489-1.127,2.489-2.515v-24.98C162.5,241.111,161.371,239.999,160.011,239.999L160.011,239.999z"/>
	<path fill="#FFFFFF" d="M160.011,290.001c-1.388,0-2.505,1.116-2.505,2.501v25.008c0,1.375,1.116,2.487,2.505,2.487
		c1.361,0,2.489-1.113,2.489-2.487v-25.008C162.5,291.117,161.371,290.001,160.011,290.001L160.011,290.001z"/>
	<path fill="#FFFFFF" d="M175.158,199.998c1.375,0,2.489-1.113,2.489-2.487c0-0.036,0-0.076,0-0.11l-0.928-24.997
		c-0.052-1.337-1.154-2.411-2.501-2.411c-1.378,0-2.504,1.137-2.504,2.497c0,0.051,0,0.062,0,0.1h0.014l0.93,25.008
		C172.716,198.933,173.818,199.998,175.158,199.998L175.158,199.998z"/>
	<path fill="#FFFFFF" d="M176.657,239.999c1.374,0,2.501-1.113,2.501-2.487c0-0.038,0-0.076,0-0.1l-0.941-25.008
		c-0.052-1.337-1.154-2.415-2.501-2.415c-1.378,0-2.491,1.127-2.491,2.515c0,0.024,0,0.048,0,0.086l0.93,25.018
		C174.206,238.948,175.322,239.999,176.657,239.999L176.657,239.999z"/>
	<path fill="#FFFFFF" d="M177.413,255.002c-1.388,0-2.517,1.116-2.517,2.491c0,0.034,0.014,0.072,0.014,0.11l0.942,24.994
		c0.05,1.337,1.152,2.415,2.499,2.415c1.38,0,2.491-1.127,2.491-2.511c0-0.028,0-0.052,0-0.09l-0.939-25.018
		C179.851,256.056,178.748,255.002,177.413,255.002L177.413,255.002z"/>
	<path fill="#FFFFFF" d="M191.697,182.509c0-0.064,0-0.139-0.015-0.188l-1.871-25.006c-0.1-1.314-1.188-2.33-2.499-2.33
		c-1.375,0-2.491,1.142-2.491,2.501c0,0.062,0,0.139,0.012,0.2l1.857,25.008c0.1,1.3,1.19,2.325,2.503,2.325
		C190.569,185.018,191.697,183.882,191.697,182.509L191.697,182.509z"/>
	<path fill="#FFFFFF" d="M194.694,222.504c0-0.048,0-0.124-0.015-0.186l-1.871-25.018c-0.097-1.288-1.189-2.315-2.487-2.315
		c-1.387,0-2.503,1.127-2.503,2.511c0,0.052,0,0.124,0,0.176l1.869,25.018c0.114,1.302,1.19,2.315,2.505,2.315
		C193.566,225.006,194.694,223.879,194.694,222.504L194.694,222.504z"/>
	<path fill="#FFFFFF" d="M198.061,267.494c0-0.048,0-0.096,0-0.172l-1.884-25.022c-0.1-1.299-1.175-2.301-2.488-2.301
		c-1.377,0-2.505,1.113-2.505,2.487c0,0.076,0,0.124,0.014,0.186l1.881,25.032c0.091,1.302,1.178,2.305,2.477,2.305
		C196.945,270.009,198.061,268.893,198.061,267.494L198.061,267.494z"/>
	<path fill="#FFFFFF" d="M199.932,292.306c-0.088-1.288-1.178-2.315-2.491-2.315c-1.389,0-2.501,1.127-2.501,2.511
		c0,0.052,0,0.124,0,0.176l1.881,25.018c0.1,1.299,1.19,2.315,2.501,2.315c1.366,0,2.491-1.127,2.491-2.501
		c0-0.048,0-0.124-0.008-0.187L199.932,292.306L199.932,292.306z"/>
	<path fill="#FFFFFF" d="M207.97,197.51c0-0.086,0-0.185-0.014-0.286l-2.811-25.032c-0.148-1.261-1.213-2.201-2.487-2.201
		c-1.375,0-2.504,1.113-2.504,2.487c0,0.086,0.014,0.186,0.014,0.288l2.825,25.032c0.134,1.259,1.213,2.224,2.477,2.224
		C206.853,200.022,207.97,198.909,207.97,197.51L207.97,197.51z"/>
	<path fill="#FFFFFF" d="M212.481,237.511c0-0.1-0.015-0.186-0.023-0.272l-2.817-25.032c-0.132-1.264-1.211-2.219-2.487-2.219
		c-1.375,0-2.491,1.116-2.491,2.491c0,0.096,0,0.183,0.014,0.272l2.811,25.032c0.148,1.285,1.213,2.229,2.491,2.229
		C211.353,240.012,212.481,238.896,212.481,237.511L212.481,237.511z"/>
	<path fill="#FFFFFF" d="M214.708,257.221c-0.148-1.264-1.213-2.229-2.491-2.229c-1.375,0-2.487,1.113-2.487,2.501
		c0,0.096,0,0.186,0,0.272l2.822,25.032c0.152,1.261,1.218,2.215,2.477,2.215c1.388,0,2.505-1.113,2.505-2.487
		c0-0.1,0-0.186-0.014-0.272L214.708,257.221L214.708,257.221z"/>
	<path fill="#FFFFFF" d="M214.622,154.96c-1.375,0-2.499,1.141-2.499,2.517c0,0.134,0.008,0.232,0.022,0.369l3.765,25.046
		c0.186,1.237,1.239,2.141,2.463,2.141c1.388,0,2.505-1.125,2.505-2.515c0-0.124,0-0.235-0.028-0.372l-3.75-25.042
		C216.915,155.876,215.86,154.96,214.622,154.96L214.622,154.96z"/>
	<path fill="#FFFFFF" d="M226.883,222.532c0-0.124-0.01-0.248-0.032-0.372l-3.756-25.06c-0.187-1.223-1.238-2.129-2.478-2.129
		c-1.375,0-2.491,1.127-2.491,2.503c0,0.122,0,0.248,0.029,0.37l3.764,25.056c0.172,1.216,1.223,2.129,2.465,2.129
		C225.757,225.03,226.883,223.917,226.883,222.532L226.883,222.532z"/>
	<path fill="#FFFFFF" d="M233.636,267.546c0-0.138-0.012-0.272-0.024-0.372l-3.765-25.084c-0.186-1.213-1.24-2.105-2.477-2.105
		c-1.378,0-2.491,1.116-2.491,2.477c0,0.138,0.012,0.272,0.024,0.372l3.752,25.08c0.186,1.202,1.24,2.105,2.48,2.105
		C232.509,270.019,233.636,268.906,233.636,267.546L233.636,267.546z"/>
	<path fill="#FFFFFF" d="M241.105,317.165l-3.765-25.06c-0.176-1.226-1.224-2.129-2.467-2.129c-1.373,0-2.501,1.127-2.501,2.501
		c0,0.124,0.014,0.248,0.024,0.372l3.765,25.056c0.176,1.213,1.24,2.129,2.477,2.129c1.364,0,2.491-1.137,2.491-2.501
		C241.129,317.4,241.116,317.286,241.105,317.165L241.105,317.165z"/>
</g>
</svg>
