<?xml version="1.0" encoding="utf-8"?>
<!-- Generator: Adobe Illustrator 24.2.0, SVG Export Plug-In . SVG Version: 6.00 Build 0)  -->
<svg version="1.0" id="Ebene_1" xmlns="http://www.w3.org/2000/svg" xmlns:xlink="http://www.w3.org/1999/xlink" x="0px" y="0px"
	 viewBox="0 0 400 400.001" enable-background="new 0 0 400 400.001" xml:space="preserve">
<rect id="background-blue" fill="#2D327D" width="400" height="400"/>
<g id="content">
	<path id="frameWhite" fill="#FFFFFF" d="M340,40c11,0,20,9,20,20v280c0,11-9,20-20,20H60c-11,0-20-9-20-20V60c0-11,9-20,20-20H340
		 M340,35H60c-13.785,0-25,11.215-25,25v280c0,13.785,11.215,25,25,25h280c13.785,0,25-11.215,25-25V60
		C365,46.215,353.785,35,340,35L340,35z"/>
	<path fill="#FFFFFF" d="M222.095,288.658l29.304,29.282h69.552V230.3c0-3.865-3.145-6.98-6.967-6.98c-0.168,0-0.331,0-0.508,0.007
		c-0.615,0.008-1.235,0.115-1.806,0.344c-4.428,1.627-7.391,5.854-7.391,10.583v0.202v24.335c0,2.994-2.434,5.419-5.417,5.419
		h-14.101c-2.22,0-4.32-0.886-5.888-2.452l-45.414-45.38c-2.991-3.034-7.873-3.034-10.901-0.013c-3.006,3.007-3.006,7.91,0,10.917
		l48.287,48.261l-2.648,2.651l-43.166-43.13l-2.935,2.921c-1.236,1.259-1.942,2.954-1.942,4.723c0,1.775,0.706,3.46,1.942,4.706
		l38.604,38.585l-2.672,2.658L225.03,255.67l-2.935,2.934c-1.236,1.262-1.942,2.941-1.942,4.711c0,1.778,0.706,3.466,1.942,4.723
		l28.263,28.259l-2.628,2.666l-22.7-22.685l-2.935,2.937c-1.236,1.266-1.942,2.944-1.942,4.711
		C220.153,285.699,220.859,287.393,222.095,288.658L222.095,288.658z"/>
	<path fill="#FFFFFF" d="M179.808,288.658l-29.319,29.282H80.95V230.3c0-3.865,3.134-6.98,6.968-6.98c0.17,0,0.333,0,0.51,0.007
		c0.601,0.008,1.22,0.115,1.795,0.344c4.436,1.627,7.389,5.854,7.389,10.583v0.202v24.335c0,2.994,2.432,5.419,5.412,5.419h14.121
		c2.216,0,4.318-0.886,5.873-2.452l45.408-45.38c2.996-3.034,7.892-3.034,10.916-0.013c3.005,3.007,3.005,7.91,0,10.917
		l-48.282,48.261l2.637,2.651l43.15-43.13l2.959,2.921c1.235,1.259,1.944,2.954,1.944,4.723c0,1.775-0.71,3.46-1.944,4.706
		l-38.589,38.585l2.648,2.658l32.982-32.988l2.959,2.934c1.235,1.262,1.944,2.941,1.944,4.711c0,1.778-0.71,3.466-1.944,4.723
		l-28.278,28.259l2.646,2.666l22.673-22.685l2.959,2.937c1.235,1.266,1.944,2.944,1.944,4.711
		C181.752,285.699,181.043,287.393,179.808,288.658L179.808,288.658z"/>
	<path fill="#FFFFFF" d="M90.776,173.598c0-3.097-2.004-5.835-3.164-7.54c-1.028-1.51-1.562-2.359-1.562-3.544
		c0-3.142,2.963-5.259,3.873-5.827c3.933-2.473,6.102-5.897,6.102-9.628c0-3.738-2.169-7.159-6.102-9.642
		c-2.499-1.574-3.873-3.561-3.873-5.595c0-2.034,1.374-4.021,3.868-5.595c3.939-2.477,6.108-5.899,6.108-9.635
		c0-3.732-2.169-7.16-6.108-9.638c-2.493-1.575-3.868-3.562-3.868-5.601c0-2.035,1.374-4.021,3.868-5.594
		c3.939-2.48,6.108-5.905,6.108-9.644c0-3.73-2.169-7.155-6.108-9.63l-2.54,4.045c2.495,1.567,3.872,3.55,3.872,5.588
		c0,2.036-1.376,4.029-3.877,5.604c-3.933,2.475-6.106,5.892-6.106,9.63c0,3.735,2.173,7.157,6.106,9.642
		c2.501,1.575,3.877,3.558,3.877,5.597c0,2.036-1.376,4.02-3.872,5.594c-3.939,2.48-6.112,5.9-6.112,9.636
		c0,3.734,2.173,7.153,6.112,9.633c2.495,1.575,3.872,3.562,3.872,5.599c0,2.035-1.376,4.016-3.872,5.586
		c-1.436,0.902-6.112,4.285-6.112,9.873c0,2.712,1.279,4.583,2.395,6.228c0.957,1.41,1.86,2.791,2.305,4.856h-6.872l9.52,16.496
		l9.525-16.496H90.776L90.776,173.598z"/>
	<path fill="#FFFFFF" d="M122.865,173.598c0-3.097-1.996-5.835-3.162-7.54c-1.028-1.51-1.564-2.359-1.564-3.544
		c0-3.142,2.961-5.259,3.875-5.827c3.931-2.473,6.108-5.897,6.108-9.628c0-3.738-2.177-7.159-6.108-9.642
		c-2.503-1.574-3.875-3.561-3.875-5.595c0-2.034,1.372-4.021,3.87-5.595c3.937-2.477,6.114-5.899,6.114-9.635
		c0-3.732-2.177-7.16-6.114-9.638c-2.497-1.575-3.87-3.562-3.87-5.601c0-2.035,1.372-4.021,3.87-5.594
		c3.937-2.48,6.114-5.905,6.114-9.644c0-3.73-2.177-7.155-6.114-9.63l-2.542,4.045c2.497,1.567,3.879,3.55,3.879,5.588
		c0,2.036-1.382,4.029-3.883,5.604c-3.933,2.475-6.101,5.892-6.101,9.63c0,3.735,2.168,7.157,6.101,9.642
		c2.501,1.575,3.883,3.558,3.883,5.597c0,2.036-1.382,4.02-3.879,5.594c-3.937,2.48-6.104,5.9-6.104,9.636
		c0,3.734,2.168,7.153,6.104,9.633c2.497,1.575,3.879,3.562,3.879,5.599c0,2.035-1.382,4.016-3.879,5.586
		c-1.432,0.902-6.104,4.285-6.104,9.873c0,2.712,1.274,4.583,2.395,6.228c0.957,1.41,1.86,2.791,2.3,4.856h-6.866l9.52,16.496
		l9.52-16.496H122.865L122.865,173.598z"/>
	<path fill="#FFFFFF" d="M251.235,173.598c0-3.097-1.998-5.835-3.164-7.54c-1.021-1.51-1.561-2.359-1.561-3.544
		c0-3.142,2.967-5.259,3.872-5.827c3.94-2.473,6.104-5.897,6.104-9.628c0-3.738-2.164-7.159-6.104-9.642
		c-2.493-1.574-3.872-3.561-3.872-5.595c0-2.034,1.378-4.021,3.866-5.595c3.946-2.477,6.11-5.899,6.11-9.635
		c0-3.732-2.164-7.16-6.11-9.638c-2.488-1.575-3.866-3.562-3.866-5.601c0-2.035,1.378-4.021,3.866-5.594
		c3.946-2.48,6.11-5.905,6.11-9.644c0-3.73-2.164-7.155-6.11-9.63l-2.534,4.045c2.497,1.567,3.87,3.55,3.87,5.588
		c0,2.036-1.373,4.029-3.874,5.604c-3.939,2.475-6.106,5.892-6.106,9.63c0,3.735,2.168,7.157,6.106,9.642
		c2.501,1.575,3.874,3.558,3.874,5.597c0,2.036-1.373,4.02-3.87,5.594c-3.942,2.48-6.11,5.9-6.11,9.636
		c0,3.734,2.168,7.153,6.11,9.633c2.497,1.575,3.87,3.562,3.87,5.599c0,2.035-1.373,4.016-3.87,5.586
		c-1.441,0.902-6.11,4.285-6.11,9.873c0,2.712,1.279,4.583,2.397,6.228c0.953,1.41,1.857,2.791,2.298,4.856h-6.868l9.522,16.496
		l9.52-16.496H251.235L251.235,173.598z"/>
	<path fill="#FFFFFF" d="M315.422,173.598c0-3.097-1.998-5.835-3.164-7.54c-1.02-1.51-1.56-2.359-1.56-3.544
		c0-3.142,2.966-5.259,3.879-5.827c3.935-2.473,6.101-5.897,6.101-9.628c0-3.738-2.166-7.159-6.101-9.642
		c-2.499-1.574-3.879-3.561-3.879-5.595c0-2.034,1.38-4.021,3.873-5.595c3.94-2.477,6.106-5.899,6.106-9.635
		c0-3.732-2.166-7.16-6.106-9.638c-2.493-1.575-3.873-3.562-3.873-5.601c0-2.035,1.38-4.021,3.873-5.594
		c3.94-2.48,6.106-5.905,6.106-9.644c0-3.73-2.166-7.155-6.106-9.63l-2.54,4.045c2.497,1.567,3.87,3.55,3.87,5.588
		c0,2.036-1.372,4.029-3.875,5.604c-3.935,2.475-6.104,5.892-6.104,9.63c0,3.735,2.169,7.157,6.104,9.642
		c2.503,1.575,3.875,3.558,3.875,5.597c0,2.036-1.372,4.02-3.87,5.594c-3.94,2.48-6.11,5.9-6.11,9.636
		c0,3.734,2.169,7.153,6.11,9.633c2.497,1.575,3.87,3.562,3.87,5.599c0,2.035-1.372,4.016-3.87,5.586
		c-1.441,0.902-6.11,4.285-6.11,9.873c0,2.712,1.279,4.583,2.397,6.228c0.955,1.41,1.857,2.791,2.296,4.856h-6.868l9.521,16.496
		l9.523-16.496H315.422L315.422,173.598z"/>
	<path fill="#FFFFFF" d="M283.332,173.598c0-3.097-2.004-5.835-3.164-7.54c-1.028-1.51-1.561-2.359-1.561-3.544
		c0-3.142,2.959-5.259,3.874-5.827c3.931-2.473,6.099-5.897,6.099-9.628c0-3.738-2.168-7.159-6.099-9.642
		c-2.503-1.574-3.874-3.561-3.874-5.595c0-2.034,1.371-4.021,3.866-5.595c3.939-2.477,6.106-5.899,6.106-9.635
		c0-3.732-2.168-7.16-6.106-9.638c-2.495-1.575-3.866-3.562-3.866-5.601c0-2.035,1.371-4.021,3.866-5.594
		c3.939-2.48,6.106-5.905,6.106-9.644c0-3.73-2.168-7.155-6.106-9.63l-2.538,4.045c2.493,1.567,3.868,3.55,3.868,5.588
		c0,2.036-1.375,4.029-3.874,5.604c-3.933,2.475-6.101,5.892-6.101,9.63c0,3.735,2.168,7.157,6.101,9.642
		c2.499,1.575,3.874,3.558,3.874,5.597c0,2.036-1.375,4.02-3.868,5.594c-3.939,2.48-6.106,5.9-6.106,9.636
		c0,3.734,2.168,7.153,6.106,9.633c2.493,1.575,3.868,3.562,3.868,5.599c0,2.035-1.375,4.016-3.868,5.586
		c-1.438,0.902-6.106,4.285-6.106,9.873c0,2.712,1.274,4.583,2.397,6.228c0.95,1.41,1.849,2.791,2.3,4.856h-6.877l9.527,16.496
		l9.522-16.496H283.332L283.332,173.598z"/>
	<path fill="#FFFFFF" d="M187.052,173.598c0-3.097-1.998-5.835-3.16-7.54c-1.028-1.51-1.566-2.359-1.566-3.544
		c0-3.142,2.963-5.259,3.877-5.827c3.937-2.473,6.104-5.897,6.104-9.628c0-3.738-2.168-7.159-6.104-9.642
		c-2.503-1.574-3.877-3.561-3.877-5.595c0-2.034,1.374-4.021,3.872-5.595c3.942-2.477,6.11-5.899,6.11-9.635
		c0-3.732-2.168-7.16-6.11-9.638c-2.497-1.575-3.872-3.562-3.872-5.601c0-2.035,1.374-4.021,3.872-5.594
		c3.942-2.48,6.11-5.905,6.11-9.644c0-3.73-2.168-7.155-6.11-9.63l-2.54,4.045c2.493,1.567,3.873,3.55,3.873,5.588
		c0,2.036-1.38,4.029-3.873,5.604c-3.94,2.475-6.108,5.892-6.108,9.63c0,3.735,2.168,7.157,6.108,9.642
		c2.493,1.575,3.873,3.558,3.873,5.597c0,2.036-1.38,4.02-3.873,5.594c-3.94,2.48-6.108,5.9-6.108,9.636
		c0,3.734,2.168,7.153,6.108,9.633c2.493,1.575,3.873,3.562,3.873,5.599c0,2.035-1.38,4.016-3.873,5.586
		c-1.436,0.902-6.108,4.285-6.108,9.873c0,2.712,1.276,4.583,2.397,6.228c0.955,1.41,1.857,2.791,2.298,4.856h-6.868l9.522,16.496
		l9.521-16.496H187.052L187.052,173.598z"/>
	<path fill="#FFFFFF" d="M154.962,173.598c0-3.097-2.005-5.835-3.162-7.54c-1.028-1.51-1.564-2.359-1.564-3.544
		c0-3.142,2.961-5.259,3.875-5.827c3.931-2.473,6.099-5.897,6.099-9.628c0-3.738-2.168-7.159-6.099-9.642
		c-2.503-1.574-3.875-3.561-3.875-5.595c0-2.034,1.372-4.021,3.87-5.595c3.937-2.477,6.104-5.899,6.104-9.635
		c0-3.732-2.168-7.16-6.104-9.638c-2.497-1.575-3.87-3.562-3.87-5.601c0-2.035,1.372-4.021,3.87-5.594
		c3.937-2.48,6.104-5.905,6.104-9.644c0-3.73-2.168-7.155-6.104-9.63l-2.54,4.045c2.495,1.567,3.871,3.55,3.871,5.588
		c0,2.036-1.376,4.029-3.877,5.604c-3.933,2.475-6.108,5.892-6.108,9.63c0,3.735,2.175,7.157,6.108,9.642
		c2.501,1.575,3.877,3.558,3.877,5.597c0,2.036-1.376,4.02-3.871,5.594c-3.939,2.48-6.114,5.9-6.114,9.636
		c0,3.734,2.175,7.153,6.114,9.633c2.495,1.575,3.871,3.562,3.871,5.599c0,2.035-1.376,4.016-3.871,5.586
		c-1.436,0.902-6.114,4.285-6.114,9.873c0,2.712,1.281,4.583,2.4,6.228c0.952,1.41,1.857,2.791,2.302,4.856h-6.873l9.52,16.496
		l9.527-16.496H154.962L154.962,173.598z"/>
	<path fill="#FFFFFF" d="M219.142,173.598c0-3.097-2-5.835-3.162-7.54c-1.026-1.51-1.564-2.359-1.564-3.544
		c0-3.142,2.964-5.259,3.877-5.827c3.933-2.473,6.097-5.897,6.097-9.628c0-3.738-2.164-7.159-6.097-9.642
		c-2.503-1.574-3.877-3.561-3.877-5.595c0-2.034,1.374-4.021,3.87-5.595c3.94-2.477,6.104-5.899,6.104-9.635
		c0-3.732-2.164-7.16-6.104-9.638c-2.495-1.575-3.87-3.562-3.87-5.601c0-2.035,1.374-4.021,3.87-5.594
		c3.94-2.48,6.104-5.905,6.104-9.644c0-3.73-2.164-7.155-6.104-9.63l-2.54,4.045c2.497,1.567,3.87,3.55,3.87,5.588
		c0,2.036-1.372,4.029-3.873,5.604c-3.933,2.475-6.099,5.892-6.099,9.63c0,3.735,2.166,7.157,6.099,9.642
		c2.501,1.575,3.873,3.558,3.873,5.597c0,2.036-1.372,4.02-3.87,5.594c-3.937,2.48-6.102,5.9-6.102,9.636
		c0,3.734,2.166,7.153,6.102,9.633c2.497,1.575,3.87,3.562,3.87,5.599c0,2.035-1.372,4.016-3.87,5.586
		c-1.436,0.902-6.102,4.285-6.102,9.873c0,2.712,1.272,4.583,2.393,6.228c0.953,1.41,1.853,2.791,2.298,4.856h-6.872l9.527,16.496
		l9.521-16.496H219.142L219.142,173.598z"/>
</g>
</svg>
