<?xml version="1.0" encoding="utf-8"?>
<!-- Generator: Adobe Illustrator 25.3.1, SVG Export Plug-In . SVG Version: 6.00 Build 0)  -->
<svg version="1.0" xmlns="http://www.w3.org/2000/svg" xmlns:xlink="http://www.w3.org/1999/xlink" x="0px" y="0px"
	 viewBox="0 0 400 400" enable-background="new 0 0 400 400" xml:space="preserve">
<rect id="background-blue_7_" x="0.028" fill="#2D327D" width="400" height="400"/>
<g id="content">
	<path id="frameWhite" fill="#FFFFFF" d="M340.028,40c11,0,20,9,20,20v280c0,11-9,20-20,20h-280c-11,0-20-9-20-20V60
		c0-11,9-20,20-20H340.028 M340.028,35h-280c-13.785,0-25,11.215-25,25v280c0,13.785,11.215,25,25,25h280c13.785,0,25-11.215,25-25
		V60C365.028,46.215,353.813,35,340.028,35L340.028,35z"/>
	<path fill="#FFFFFF" d="M243.5,154c9.098,0,16.5-7.402,16.5-16.5s-7.402-16.5-16.5-16.5v6c5.79,0,10.5,4.71,10.5,10.5
		s-4.71,10.5-10.5,10.5s-10.5-4.71-10.5-10.5V80h-6v57.5C227,146.598,234.403,154,243.5,154z"/>
	<path fill="#FFFFFF" d="M156.5,154c9.098,0,16.5-7.402,16.5-16.5V80h-6v57.5c0,5.79-4.71,10.5-10.5,10.5s-10.5-4.71-10.5-10.5
		s4.71-10.5,10.5-10.5v-6c-9.098,0-16.5,7.402-16.5,16.5S147.403,154,156.5,154z"/>
	<path fill="#FFFFFF" d="M230,174.5c0-9.098-7.402-16.5-16.5-16.5v6c5.79,0,10.5,4.71,10.5,10.5s-4.71,10.5-10.5,10.5
		s-10.5-4.71-10.5-10.5V80h-6v94.5c0,9.098,7.402,16.5,16.5,16.5S230,183.598,230,174.5z"/>
	<path fill="#FFFFFF" d="M182.592,221.761c0-4.371-3.538-7.907-7.913-7.907c-2.087,0-4.108,0.825-5.59,2.313l-46.967,46.961
		c-1.577,1.59-3.728,2.488-5.983,2.488h-13.406c-3.274,0-5.929-2.656-5.926-5.925v-24.049c-0.004-5.386-3.38-10.175-8.464-11.97
		c-0.67-0.235-1.38-0.361-2.119-0.361c-3.486,0-6.337,2.845-6.337,6.346v90.317L149.841,320v-0.026l29.32-29.285
		c1.432-1.434,2.236-3.382,2.233-5.393c0.004-2.019-0.801-3.959-2.233-5.393l-2.389-2.387l-22.609,22.611l-2.588-2.592
		l27.689-27.687c1.432-1.419,2.233-3.365,2.233-5.386c0-2.028-0.801-3.959-2.233-5.385l-2.389-2.397l-33.08,33.078l-2.588-2.589
		l38.16-38.158c1.434-1.436,2.233-3.354,2.233-5.395c0-2.002-0.799-3.957-2.233-5.367l-2.393-2.406l-43.546,43.55l-2.59-2.592
		l49.443-49.442C181.765,225.873,182.592,223.851,182.592,221.761z"/>
	<path fill="#FFFFFF" d="M313.552,223.311c-0.741,0-1.449,0.127-2.119,0.361c-5.084,1.795-8.462,6.585-8.466,11.97v24.049
		c0.004,3.27-2.652,5.925-5.926,5.925h-13.404c-2.257,0-4.406-0.898-5.985-2.488l-46.965-46.961
		c-1.482-1.488-3.505-2.313-5.59-2.313c-4.376,0-7.914,3.536-7.914,7.907c0,2.089,0.827,4.112,2.313,5.598l49.442,49.442
		l-2.589,2.592l-43.546-43.55l-2.395,2.406c-1.434,1.41-2.231,3.365-2.231,5.367c0,2.041,0.797,3.959,2.231,5.395l38.16,38.158
		l-2.589,2.589l-33.08-33.078l-2.387,2.397c-1.434,1.427-2.235,3.358-2.235,5.385c0,2.021,0.801,3.966,2.235,5.386l27.687,27.687
		l-2.589,2.592l-22.607-22.611l-2.391,2.387c-1.43,1.434-2.235,3.374-2.231,5.393c-0.004,2.011,0.801,3.959,2.231,5.393
		l29.322,29.285V320l69.952-0.026v-90.317C319.887,226.156,317.038,223.311,313.552,223.311z"/>
</g>
</svg>
