<?xml version="1.0" encoding="utf-8"?>
<!-- Generator: Adobe Illustrator 25.3.1, SVG Export Plug-In . SVG Version: 6.00 Build 0)  -->
<svg version="1.0" xmlns="http://www.w3.org/2000/svg" xmlns:xlink="http://www.w3.org/1999/xlink" x="0px" y="0px"
	 viewBox="0 0 400 400" enable-background="new 0 0 400 400" xml:space="preserve">
<rect id="background-blue_7_" x="0.028" fill="#2D327D" width="400" height="400"/>
<g id="content">
	<path id="frameWhite" fill="#FFFFFF" d="M340.028,40c11,0,20,9,20,20v280c0,11-9,20-20,20h-280c-11,0-20-9-20-20V60
		c0-11,9-20,20-20H340.028 M340.028,35h-280c-13.785,0-25,11.215-25,25v280c0,13.785,11.215,25,25,25h280c13.785,0,25-11.215,25-25
		V60C365.028,46.215,353.813,35,340.028,35L340.028,35z"/>
	<path fill="#FFFFFF" d="M191.582,207.344c-0.196,0-0.393,0-0.6,0.01c-0.739,0.013-1.463,0.149-2.137,0.407
		c-5.291,1.94-8.803,6.977-8.803,12.603v0.246v28.966c0,3.561-2.897,6.461-6.445,6.461h-16.809c-2.626,0-5.145-1.056-6.998-2.925
		l-54.05-54.028c-3.579-3.61-9.398-3.61-12.988-0.02c-3.59,3.59-3.59,9.41,0,12.999l57.473,57.461l-3.155,3.157l-51.356-51.36
		l-3.525,3.49c-1.473,1.498-2.308,3.514-2.308,5.613c0,2.113,0.835,4.127,2.308,5.613l45.954,45.943l-3.167,3.145l-39.263-39.26
		l-3.525,3.489c-1.473,1.5-2.308,3.512-2.308,5.613c0,2.114,0.835,4.127,2.308,5.616l33.665,33.656l-3.142,3.156l-26.998-26.987
		l-3.525,3.488c-1.473,1.499-2.308,3.514-2.308,5.615c0.001,2.112,0.837,4.128,2.309,5.614L117.083,320h82.798V215.659
		C199.88,211.052,196.149,207.344,191.582,207.344z"/>
	<rect x="117" y="95" fill="#FFFFFF" width="166" height="44"/>
	<polygon fill="#FFFFFF" points="80,80 80,109.999 112,110 112,105 85,105 85,85 315,85 315,105 288,105 288,110 320,109.999 
		320,80 	"/>
	<polygon fill="#FFFFFF" points="117,188 256.5,188 256.5,161.5 283,161.5 283,144 117,144 	"/>
	<polygon fill="#FFFFFF" points="261.5,188 261.51,188 283,166.51 283,166.5 261.5,166.5 	"/>
</g>
</svg>
