<?xml version="1.0" encoding="utf-8"?>
<!-- Generator: Adobe Illustrator 24.2.0, SVG Export Plug-In . SVG Version: 6.00 Build 0)  -->
<svg version="1.0" id="Ebene_4" xmlns="http://www.w3.org/2000/svg" xmlns:xlink="http://www.w3.org/1999/xlink" x="0px" y="0px"
	 viewBox="0 0 400 400.001" enable-background="new 0 0 400 400.001" xml:space="preserve">
<rect id="background-blue" fill="#2D327D" width="400" height="400"/>
<g id="content">
	<path id="frameWhite" fill="#FFFFFF" d="M340,40c11,0,20,9,20,20v280c0,11-9,20-20,20H60c-11,0-20-9-20-20V60c0-11,9-20,20-20H340
		 M340,35H60c-13.785,0-25,11.215-25,25v280c0,13.785,11.215,25,25,25h280c13.785,0,25-11.215,25-25V60
		C365,46.215,353.785,35,340,35L340,35z"/>
	<path fill="#FFFFFF" d="M295.258,80.042H120.014c0,0,24.621,36.471,24.621,153.937h25.307c0.003-0.007,0.006-0.015,0.009-0.022
		h6.453c0.639-7.302,5.496-13.67,12.526-16.164c1.228-0.421,2.502-0.635,3.792-0.635c6.307,0,11.436,5.134,11.436,11.445v5.376
		h28.74h86.988C320.178,116.512,295.258,80.042,295.258,80.042z"/>
	<g>
		<path fill="#FFFFFF" d="M104.291,319.994l-20.109-20.103c-1.679-1.68-2.615-3.951-2.615-6.3c0-2.359,0.936-4.622,2.615-6.302
			l2.788-2.788l26.405,26.408l3.025-3.026l-32.339-32.339c-1.679-1.659-2.606-3.931-2.613-6.289c0-2.367,0.934-4.622,2.613-6.29
			l2.79-2.797l38.641,38.634l3.018-3.022l-44.566-44.568c-1.68-1.676-2.61-3.916-2.61-6.303c0-2.337,0.93-4.616,2.61-6.265
			l2.793-2.814l50.855,50.865l3.029-3.026l-57.753-57.749c-1.73-1.739-2.696-4.097-2.69-6.542c0-5.104,4.132-9.233,9.23-9.233
			c2.441,0,4.806,0.965,6.531,2.708l54.86,54.85c1.847,1.855,4.356,2.905,6.989,2.905h15.659c3.822-0.002,6.922-3.106,6.922-6.924
			v-28.088c0-6.291,3.952-11.885,9.877-13.985c0.79-0.27,1.622-0.417,2.475-0.417c4.084-0.004,7.408,3.324,7.408,7.41v91.392
			H104.291L104.291,319.994z"/>
	</g>
</g>
</svg>
