<?xml version="1.0" encoding="utf-8"?>
<!-- Generator: Adobe Illustrator 24.2.0, SVG Export Plug-In . SVG Version: 6.00 Build 0)  -->
<svg version="1.0" id="Ebene_5" xmlns="http://www.w3.org/2000/svg" xmlns:xlink="http://www.w3.org/1999/xlink" x="0px" y="0px"
	 viewBox="0 0 400 400.001" enable-background="new 0 0 400 400.001" xml:space="preserve">
<rect id="background-blue" fill="#2D327D" width="400" height="400"/>
<g id="content">
	<path id="frameWhite" fill="#FFFFFF" d="M340,40c11,0,20,9,20,20v280c0,11-9,20-20,20H60c-11,0-20-9-20-20V60c0-11,9-20,20-20H340
		 M340,35H60c-13.785,0-25,11.215-25,25v280c0,13.785,11.215,25,25,25h280c13.785,0,25-11.215,25-25V60
		C365,46.215,353.785,35,340,35L340,35z"/>
	<path fill="#FFFFFF" d="M233.362,261.388c0-6.814-5.523-12.341-12.339-12.341c-2.205,0-4.268,0.587-6.063,1.6
		c-1.899-4.933-6.674-8.44-12.28-8.44c-2.832,0-5.45,0.903-7.598,2.427c0.001-0.054,0.008-0.108,0.008-0.164
		c0-8.2-6.647-14.848-14.847-14.848c-8.2,0-14.848,6.648-14.848,14.848c0,1.449,0.217,2.842,0.603,4.166
		c-1.037-0.263-2.118-0.417-3.238-0.417c-7.273,0-13.169,5.897-13.169,13.169c0,2,0.459,3.888,1.258,5.587
		c-2.549,1.188-4.326,3.754-4.326,6.752c0,4.117,3.34,7.46,7.461,7.46c2.059,0,3.924-0.834,5.273-2.184
		c1.546,6.147,7.091,10.704,13.718,10.704c3.992,0,7.593-1.657,10.168-4.317c1.305,4.985,5.826,8.669,11.22,8.669
		c5.218,0,9.631-3.443,11.095-8.179c1.561,0.711,3.285,1.119,5.114,1.119c6.812,0,12.335-5.525,12.335-12.337
		c0-0.367-0.022-0.728-0.052-1.088C228.799,272.688,233.362,267.578,233.362,261.388z"/>
	<path fill="#FFFFFF" d="M174.727,224.434l-38.213-66.365l-4.767,2.762c-2.847,1.604-4.924,4.334-5.767,7.474
		c-0.86,3.196-0.42,6.541,1.227,9.395l33.856,58.801C163.502,230.649,168.536,226.146,174.727,224.434z"/>
	<path fill="#FFFFFF" d="M157.899,242.902l-30.025-52.125l-4.757,2.747c-2.856,1.633-4.926,4.322-5.779,7.499
		c-0.842,3.169-0.421,6.553,1.236,9.384l26.007,45.166C146.56,249.394,151.587,244.567,157.899,242.902z"/>
	<path fill="#FFFFFF" d="M284.066,176.716c-1.142-0.306-2.317-0.413-3.471-0.336c-8.712,0.676-16.037,6.758-18.309,15.201
		l-10.149,37.699c-1.378,5.129-6.663,8.171-11.792,6.793l-21.023-5.656c-3.533-0.955-6.523-3.268-8.328-6.426l-53.829-93.445
		c-1.687-2.96-4.508-5.11-7.786-5.992c-6.849-1.84-13.885,2.208-15.73,9.062c-0.888,3.279-0.443,6.792,1.25,9.752l46.276,80.343
		c8.258,0.363,15.283,5.551,18.297,12.821c1.056-0.181,2.131-0.272,3.219-0.272c5.847,0,11.32,2.739,14.896,7.171
		c1.134-0.22,2.289-0.331,3.447-0.331c10.082,0,18.283,8.203,18.283,18.287c0,7.265-4.386,13.736-10.764,16.643
		c-1.587,8.477-9.041,14.915-17.972,14.915c-0.683,0-1.359-0.037-2.032-0.114c-3.233,4.436-8.427,7.173-14.176,7.173
		c-5.213,0-10.002-2.305-13.257-6.058c-2.525,1.117-5.279,1.706-8.13,1.706c-6.785,0-12.914-3.384-16.576-8.736
		c-0.789,0.143-1.596,0.216-2.414,0.216c-7.393,0-13.407-6.013-13.407-13.406c0-3.026,1.048-5.903,2.854-8.218l-24.203-42.025
		l-4.747,2.734c-2.859,1.646-4.935,4.346-5.787,7.512c-0.851,3.155-0.412,6.544,1.233,9.404l15.629,27.918l27.437,49.034h102.992
		l35.337-130.752C292.807,183.853,289.552,178.184,284.066,176.716z"/>
</g>
</svg>
