<?xml version="1.0" encoding="utf-8"?>
<!-- Generator: Adobe Illustrator 25.3.1, SVG Export Plug-In . SVG Version: 6.00 Build 0)  -->
<svg version="1.0" id="_x3C_Ebene_x3E_" xmlns="http://www.w3.org/2000/svg" xmlns:xlink="http://www.w3.org/1999/xlink" x="0px"
	 y="0px" viewBox="0 0 400 400" enable-background="new 0 0 400 400" xml:space="preserve">
<rect id="background-blue_7_" x="0.028" fill="#2D327D" width="400" height="400"/>
<g id="content">
	<path id="frameWhite" fill="#FFFFFF" d="M340.028,40c11,0,20,9,20,20v280c0,11-9,20-20,20h-280c-11,0-20-9-20-20V60
		c0-11,9-20,20-20H340.028 M340.028,35h-280c-13.785,0-25,11.215-25,25v280c0,13.785,11.215,25,25,25h280c13.785,0,25-11.215,25-25
		V60C365.028,46.215,353.813,35,340.028,35L340.028,35z"/>
	<g>
		<circle fill="#FFFFFF" cx="225.739" cy="91.798" r="12.024"/>
	</g>
	<g>
		<circle fill="#FFFFFF" cx="199.742" cy="128.798" r="12.024"/>
	</g>
	<g>
		<circle fill="#FFFFFF" cx="235.79" cy="170.798" r="12.024"/>
	</g>
	<g>
		
			<rect x="111.877" y="255.733" transform="matrix(0.7071 -0.7071 0.7071 0.7071 -166.0802 173.5109)" fill="#FFFFFF" width="29.058" height="62.999"/>
	</g>
	<g>
		<path fill="#FFFFFF" d="M276.089,226.731l-19.23,19.23c0,0.005,0.001,0.011,0.001,0.016c0.031,0.246,0.056,0.493,0.076,0.743
			c0.037,0.416,0.064,0.835,0.064,1.261c0,8.837-7.163,16-16,16h-46v-5h46c6.075,0,11-4.925,11-11c0-6.061-4.944-10.977-11-11
			h-30.696c-6.185,0-10.123-1.795-13.817-3.668c-0.213-0.108-0.426-0.216-0.638-0.325l-0.791-0.403
			c-0.398-0.214-0.809-0.401-1.212-0.604c-7.125-3.59-15.011-4.266-22.976-4.266c-13.773,0-23.964,4.159-33.59,13.927
			l-14.491,14.425l34.683,34.683l6.722-6.751l76.853-0.068c5.801,0,11.02-2.192,15.015-5.791l8.546-8.408l38.722-38.722l1.297-1.297
			C307.921,225.407,288.611,214.209,276.089,226.731z"/>
	</g>
	<g>
		<path fill="#FFFFFF" d="M170.87,222.73c7.76,0,16.83,0.57,25.23,4.81c0.13,0.06,0.26,0.12,0.39,0.19
			c0.29,0.14,0.59,0.29,0.88,0.44l0.75,0.39l0.63,0.31c3.49,1.77,6.56,3.13,11.55,3.13h30.72c3.16,0.01,6.11,0.94,8.59,2.54
			c1.78-1.91,3.1-4.29,3.74-7.01c1.97-8.36-3.22-16.74-11.58-18.71c-3.36-0.79-6.71-0.42-9.66,0.84
			c-1.23-6.71-7.1-11.81-14.18-11.81c-0.5,0-1.01,0.03-1.5,0.08c-1.85-6.47-7.04-11.78-14.06-13.44
			c-10.33-2.43-20.68,3.97-23.12,14.3c-0.16,0.71-0.27,1.42-0.35,2.12c-0.93-0.16-1.88-0.26-2.85-0.26
			c-8.99,0-16.28,7.29-16.28,16.28c0,2.33,0.49,4.54,1.38,6.54C164.22,222.97,167.45,222.73,170.87,222.73z"/>
	</g>
</g>
</svg>
