<?xml version="1.0" encoding="utf-8"?>
<!-- Generator: Adobe Illustrator 24.2.0, SVG Export Plug-In . SVG Version: 6.00 Build 0)  -->
<svg version="1.0" id="Ebene_1" xmlns="http://www.w3.org/2000/svg" xmlns:xlink="http://www.w3.org/1999/xlink" x="0px" y="0px"
	 viewBox="0 0 400 400.001" enable-background="new 0 0 400 400.001" xml:space="preserve">
<rect id="background-blue" fill="#2D327D" width="400" height="400"/>
<g id="content">
	<path id="frameWhite" fill="#FFFFFF" d="M340,40c11,0,20,9,20,20v280c0,11-9,20-20,20H60c-11,0-20-9-20-20V60c0-11,9-20,20-20H340
		 M340,35H60c-13.785,0-25,11.215-25,25v280c0,13.785,11.215,25,25,25h280c13.785,0,25-11.215,25-25V60
		C365,46.215,353.785,35,340,35L340,35z"/>
	<g>
		<path fill="#FFFFFF" d="M237.185,225.58H115.37c-1.59-2.369-4.294-3.933-7.363-3.933c-4.898,0-8.868,3.97-8.868,8.868
			c0,4.898,3.97,8.868,8.868,8.868c3.236,0,6.037-1.751,7.587-4.343h26.995v29.605h-37.46v9.46h132.057
			c13.378,0,24.261-10.887,24.261-24.265C261.446,236.463,250.563,225.58,237.185,225.58z M237.185,264.646h-85.137V235.04h85.137
			c8.16,0,14.801,6.641,14.801,14.801C251.986,258.005,245.345,264.646,237.185,264.646z"/>
	</g>
	<rect x="80" y="80" fill="#FFFFFF" width="9.5" height="240"/>
	<path fill="#FFFFFF" d="M230.525,218.494l-9.478-9.473v-7.662l6.465,6.508c-1.572-30.654-26.228-55.311-56.882-56.882l6.507,6.463
		h-7.659L160,147.974l9.478-9.478h7.659l-6.654,6.61c34.003,1.513,61.394,28.904,62.907,62.908l6.61-6.655v7.662L230.525,218.494z"
		/>
	<path fill="#FFFFFF" d="M104.508,214.959V101.308c0-12.596,10.248-22.843,22.844-22.843c12.598,0,22.847,10.248,22.847,22.843
		v117.186h2.835V101.308c0-14.159-11.521-25.678-25.682-25.678c-14.159,0-25.679,11.52-25.679,25.678v114.571
		C102.578,215.486,103.527,215.18,104.508,214.959z"/>
	<path fill="#FFFFFF" d="M111.134,214.878c0.975,0.195,1.922,0.481,2.835,0.85v-18.406h26.771v21.172h2.835v-24.006h-32.44V214.878z
		"/>
	<path fill="#FFFFFF" d="M127.352,85.09c-8.943,0-16.218,7.275-16.218,16.218v86.554h32.44v-86.554
		C143.574,92.365,136.297,85.09,127.352,85.09z M140.739,185.027h-26.771v-83.719c0-7.38,6.003-13.383,13.383-13.383
		c7.382,0,13.387,6.003,13.387,13.383V185.027z"/>
</g>
</svg>
