<?xml version="1.0" encoding="utf-8"?>
<!-- Generator: Adobe Illustrator 24.2.0, SVG Export Plug-In . SVG Version: 6.00 Build 0)  -->
<svg version="1.0" xmlns="http://www.w3.org/2000/svg" xmlns:xlink="http://www.w3.org/1999/xlink" x="0px" y="0px"
	 viewBox="0 0 400 400.001" enable-background="new 0 0 400 400.001" xml:space="preserve">
<rect id="background-blue" x="0" fill="#2D327D" width="400" height="400"/>
<g id="content_1_">
	<path id="frameWhite" fill="#FFFFFF" d="M60,40h280c11,0,20,9,20,20v280c0,11-9,20-20,20H60c-11,0-20-9-20-20V60C40,49,49,40,60,40
		 M60,35c-13.785,0-25,11.215-25,25v280c0,13.785,11.215,25,25,25h280c13.785,0,25-11.215,25-25V60c0-13.785-11.215-25-25-25H60
		L60,35z"/>
	<path fill="#FFFFFF" d="M249.294,158.88l-15.207,22.454l-20.564,30.344c-7.352,1.179-14.704,2.358-22.177,2.549
		c-7.681,0.208-15.467-0.624-22.836-2.826c-5.843-1.734-11.409-4.352-16.611-7.543c-4.647-2.844-9.016-6.155-12.848-10.005
		c-2.722-2.74-5.184-5.774-7.595-8.826c-1.404-1.769-2.792-3.555-4.127-5.375c-1.318-1.821-2.584-3.676-3.745-5.601
		c-2.202-3.624-4.04-7.473-5.861-11.323c1.717-0.52,3.451-1.058,5.098-1.751c2.532-1.04,4.907-2.462,7.248-3.919
		c2.705-1.665,5.375-3.364,7.733-5.462c1.058-0.936,2.046-1.942,2.982-3l32.823,32.823c4.89,4.89,12.796,4.89,17.669,0.017
		c4.872-4.872,4.89-12.796,0-17.669l-3.589-3.589l2.375-2.375c4.872-4.89,4.872-12.779,0-17.669l-2.48-2.462l2.375-2.393
		c1.162-1.144,2.063-2.514,2.705-4.023c5.046,4.075,10.195,8.028,15.64,11.565c5.514,3.607,11.323,6.797,17.391,9.433
		c4.872,2.133,9.935,3.884,15.102,5.063C243.607,157.961,246.45,158.429,249.294,158.88z"/>
	<path fill="#FFFFFF" d="M135.024,113.08l53.483,53.475c3.342,3.346,3.342,8.764-0.002,12.105
		c-3.344,3.341-8.763,3.338-12.102-0.004l-50.996-50.987c-1.567-1.567-3.692-2.448-5.908-2.448h-14.82
		c-3.529,0-6.39,2.861-6.39,6.39v26.363c0,5.841-3.819,10.995-9.407,12.696c-0.649,0.197-1.324,0.298-2.003,0.298
		c-3.801,0-6.881-3.081-6.881-6.881V80h89.195l17.86,17.858c3.339,3.339,3.339,8.754,0,12.094l-2.364,2.363l-24.454-24.451
		l-2.8,2.801l29.753,29.749c3.339,3.34,3.339,8.755,0,12.095l-2.362,2.363l-35.802-35.796l-2.801,2.801l41.061,41.055
		c3.341,3.34,3.341,8.754,0.002,12.095l-2.355,2.354l-47.108-47.101L135.024,113.08z"/>
	<path fill="#FFFFFF" d="M274.245,179.236c-8.253-2.774-17.703-5.08-27.986-6.797l-8.011,11.721
		c4.352,0.642,8.496,1.387,12.415,2.219c23.122,4.992,35.375,12.758,35.353,20.631c-0.014,5.198-5.376,10.443-16.505,14.966
		c-27.986,11.375-81.789,13.871-120.178,5.583c-23.053-4.975-35.305-12.704-35.369-20.549c-0.043-5.225,5.316-10.501,16.504-15.048
		c-1.006-1.196-1.977-2.41-2.913-3.607c-1.474-1.838-2.93-3.745-4.369-5.705c-0.485-0.659-0.954-1.318-1.422-1.994
		c-19.83,7.404-29.656,16.888-29.631,26.353c0.026,10.109,11.287,20.198,33.602,27.71c43.209,14.53,111.474,13.906,152.481-1.422
		c19.793-7.387,29.618-16.844,29.636-26.289C307.871,196.881,296.607,186.765,274.245,179.236z"/>
	<path fill="#FFFFFF" d="M307.173,218.861c-0.069,0-0.135,0.01-0.197,0.029c-0.188,0.057-0.34,0.195-0.421,0.371
		c-0.004,0.01-0.009,0.02-0.013,0.029c-0.217,0.491-0.462,0.98-0.733,1.467c-0.06,0.108-0.132,0.215-0.195,0.323
		c-0.215,0.371-0.438,0.742-0.685,1.112c-0.113,0.169-0.24,0.337-0.36,0.505c-0.216,0.305-0.433,0.609-0.671,0.912
		c-0.157,0.201-0.328,0.4-0.495,0.601c-0.222,0.266-0.445,0.533-0.684,0.797c-0.202,0.225-0.416,0.448-0.631,0.672
		c-0.225,0.234-0.452,0.469-0.69,0.702c-0.252,0.247-0.514,0.493-0.781,0.738c-0.219,0.202-0.443,0.404-0.673,0.605
		c-0.31,0.271-0.628,0.542-0.957,0.811c-0.201,0.165-0.408,0.33-0.617,0.494c-0.381,0.3-0.769,0.6-1.173,0.897
		c-0.162,0.119-0.329,0.238-0.495,0.357c-0.471,0.338-0.95,0.675-1.452,1.009c-0.086,0.058-0.177,0.115-0.264,0.172
		c-4.437,2.919-10.021,5.681-16.773,8.2c-16.612,6.209-37.697,10.004-59.776,11.357c-0.07,0.004-0.139,0.01-0.208,0.014
		c-1.469,0.089-2.944,0.162-4.421,0.23c-0.253,0.011-0.505,0.027-0.758,0.038c-1.287,0.055-2.578,0.095-3.869,0.134
		c-0.447,0.013-0.893,0.033-1.34,0.044c-1.087,0.028-2.176,0.042-3.264,0.058c-0.656,0.01-1.311,0.026-1.966,0.032
		c-0.873,0.008-1.746,0.002-2.62,0.002c-0.873,0-1.747,0.005-2.62-0.002c-0.656-0.006-1.311-0.022-1.966-0.032
		c-1.089-0.016-2.177-0.03-3.264-0.058c-0.447-0.011-0.893-0.031-1.34-0.044c-1.291-0.039-2.582-0.079-3.869-0.134
		c-0.253-0.011-0.505-0.027-0.758-0.038c-1.477-0.067-2.952-0.141-4.421-0.23c-0.07-0.004-0.139-0.01-0.208-0.014
		c-22.08-1.354-43.165-5.148-59.776-11.357c-6.752-2.52-12.336-5.281-16.773-8.2c-0.087-0.058-0.178-0.115-0.264-0.172
		c-0.501-0.334-0.98-0.671-1.452-1.009c-0.165-0.119-0.333-0.237-0.495-0.357c-0.404-0.297-0.792-0.597-1.173-0.897
		c-0.208-0.164-0.415-0.329-0.617-0.494c-0.329-0.269-0.647-0.54-0.957-0.811c-0.229-0.201-0.453-0.403-0.673-0.605
		c-0.267-0.245-0.529-0.492-0.781-0.738c-0.238-0.233-0.465-0.467-0.69-0.702c-0.214-0.223-0.429-0.447-0.631-0.672
		c-0.238-0.265-0.462-0.531-0.684-0.797c-0.167-0.2-0.338-0.4-0.495-0.601c-0.237-0.303-0.455-0.608-0.671-0.912
		c-0.119-0.168-0.247-0.336-0.36-0.505c-0.247-0.369-0.469-0.74-0.685-1.112c-0.062-0.108-0.135-0.215-0.195-0.323
		c-0.27-0.488-0.516-0.977-0.733-1.467c-0.004-0.01-0.009-0.02-0.013-0.029c-0.081-0.177-0.233-0.314-0.421-0.371
		c-0.062-0.019-0.128-0.029-0.197-0.029c-0.357,0-0.641,0.277-0.671,0.626c0.022,1.86,0.136,3.704,0.346,5.53
		c1.281,7.843,2.67,11.248,5.035,16.439c2.219,4.924,5.341,9.45,8.635,13.819c2.465,3.245,5.043,6.385,7.871,9.253
		c0.64,0.591,1.295,1.175,1.959,1.752c0.234,0.203,0.475,0.402,0.712,0.604c0.035,0.03,0.07,0.059,0.105,0.089
		c0.156,0.132,0.31,0.265,0.467,0.396c0.246,0.206,0.49,0.412,0.739,0.616c0.299,0.245,0.604,0.485,0.907,0.727
		c0.39,0.311,0.78,0.622,1.177,0.929c0.341,0.263,0.687,0.523,1.033,0.783c0.366,0.275,0.734,0.549,1.106,0.82
		c0.379,0.276,0.762,0.55,1.148,0.823c0.343,0.242,0.687,0.483,1.035,0.721c0.421,0.29,0.844,0.578,1.272,0.863
		c0.31,0.206,0.623,0.41,0.936,0.614c0.472,0.307,0.946,0.614,1.426,0.915c0.251,0.158,0.507,0.312,0.76,0.468
		c0.549,0.338,1.098,0.675,1.657,1.006c0.111,0.065,0.224,0.129,0.335,0.194c1.642,0.963,3.324,1.894,5.047,2.788
		c6.432,3.604,11.481,9.374,14.163,16.326c0.325,1.028,0.768,2.035,1.315,3.019c0.01,0.017,0.018,0.035,0.028,0.053
		c1.465,2.617,3.691,5.064,6.541,7.275c0.01,0.008,0.02,0.016,0.031,0.024c1.084,0.839,2.256,1.643,3.513,2.41
		c0.031,0.019,0.063,0.038,0.094,0.056c1.244,0.754,2.566,1.472,3.964,2.149c0.055,0.027,0.111,0.052,0.166,0.079
		c0.644,0.309,1.302,0.609,1.976,0.9c0.067,0.029,0.132,0.059,0.199,0.087c0.714,0.306,1.444,0.602,2.19,0.887
		c0.078,0.03,0.158,0.058,0.236,0.088c0.663,0.251,1.339,0.492,2.026,0.726c0.131,0.045,0.262,0.09,0.394,0.135
		c0.758,0.253,1.527,0.497,2.311,0.729c0.09,0.027,0.183,0.051,0.273,0.078c0.694,0.202,1.4,0.396,2.114,0.581
		c0.182,0.047,0.363,0.095,0.546,0.141c0.801,0.202,1.611,0.396,2.435,0.577c0.069,0.015,0.14,0.028,0.209,0.043
		c0.756,0.164,1.523,0.316,2.298,0.461c0.214,0.04,0.428,0.08,0.643,0.118c0.847,0.152,1.7,0.296,2.567,0.425
		c0.051,0.008,0.101,0.018,0.152,0.026c0.255,0.041,0.512,0.078,0.769,0.116c0.36,0.053,0.72,0.106,1.084,0.154
		c0.278,0.037,0.558,0.069,0.838,0.103c0.351,0.042,0.701,0.084,1.055,0.122c0.303,0.032,0.609,0.06,0.915,0.088
		c0.339,0.032,0.676,0.065,1.018,0.093c0.331,0.027,0.666,0.049,1,0.072c0.323,0.023,0.645,0.047,0.97,0.066
		c0.371,0.022,0.747,0.038,1.121,0.056c0.294,0.014,0.586,0.03,0.882,0.042c0.439,0.017,0.883,0.027,1.327,0.038
		c0.237,0.006,0.472,0.015,0.711,0.019c0.682,0.013,1.369,0.019,2.06,0.019c0.003,0,0.005,0,0.008,0h0h0c0.003,0,0.005,0,0.008,0
		c0.691,0,1.377-0.007,2.06-0.019c0.238-0.004,0.473-0.013,0.711-0.019c0.443-0.011,0.887-0.022,1.327-0.038
		c0.296-0.011,0.588-0.028,0.882-0.042c0.374-0.018,0.75-0.034,1.121-0.056c0.326-0.019,0.647-0.044,0.97-0.066
		c0.334-0.023,0.669-0.045,1-0.072c0.342-0.028,0.68-0.061,1.018-0.093c0.306-0.029,0.612-0.056,0.915-0.088
		c0.354-0.037,0.704-0.08,1.055-0.122c0.28-0.034,0.561-0.066,0.838-0.103c0.364-0.048,0.724-0.101,1.084-0.154
		c0.257-0.038,0.514-0.076,0.769-0.116c0.051-0.008,0.101-0.018,0.152-0.026c0.867-0.129,1.72-0.273,2.567-0.425
		c0.215-0.039,0.429-0.078,0.643-0.118c0.774-0.145,1.541-0.297,2.298-0.461c0.069-0.015,0.14-0.028,0.209-0.043
		c0.824-0.18,1.634-0.375,2.435-0.577c0.183-0.046,0.364-0.094,0.546-0.141c0.714-0.186,1.419-0.379,2.114-0.581
		c0.091-0.026,0.183-0.051,0.273-0.078c0.784-0.232,1.554-0.476,2.311-0.729c0.132-0.044,0.262-0.09,0.394-0.135
		c0.687-0.234,1.363-0.476,2.026-0.726c0.078-0.03,0.158-0.058,0.236-0.088c0.746-0.285,1.476-0.581,2.19-0.887
		c0.067-0.029,0.133-0.058,0.199-0.087c0.674-0.291,1.333-0.592,1.976-0.9c0.055-0.026,0.111-0.052,0.166-0.079
		c1.398-0.677,2.72-1.395,3.964-2.149c0.031-0.019,0.063-0.038,0.094-0.056c1.257-0.767,2.429-1.571,3.513-2.41
		c0.01-0.008,0.02-0.016,0.031-0.024c2.85-2.211,5.076-4.658,6.541-7.275c0.01-0.017,0.018-0.035,0.028-0.053
		c0.547-0.984,0.99-1.991,1.315-3.019c2.682-6.952,7.731-12.722,14.163-16.326c1.723-0.895,3.405-1.825,5.047-2.788
		c0.111-0.065,0.224-0.128,0.335-0.194c0.559-0.33,1.108-0.668,1.657-1.006c0.254-0.156,0.509-0.311,0.76-0.468
		c0.48-0.302,0.954-0.608,1.426-0.915c0.313-0.204,0.626-0.407,0.936-0.614c0.428-0.285,0.851-0.573,1.272-0.863
		c0.347-0.239,0.692-0.479,1.035-0.721c0.385-0.272,0.768-0.546,1.148-0.823c0.372-0.271,0.74-0.545,1.106-0.82
		c0.346-0.26,0.692-0.519,1.033-0.783c0.397-0.307,0.787-0.618,1.177-0.929c0.303-0.242,0.609-0.482,0.907-0.727
		c0.249-0.204,0.493-0.411,0.739-0.616c0.157-0.131,0.311-0.264,0.467-0.396c0.035-0.03,0.07-0.059,0.105-0.089
		c0.237-0.202,0.478-0.4,0.712-0.604c0.664-0.577,1.319-1.161,1.959-1.752c2.828-2.868,5.406-6.008,7.871-9.253
		c3.294-4.37,6.416-8.895,8.635-13.819c2.365-5.191,3.754-8.596,5.035-16.439c0.21-1.826,0.325-3.67,0.346-5.53
		C307.813,219.138,307.529,218.861,307.173,218.861z"/>
</g>
</svg>
