<?xml version="1.0" encoding="utf-8"?>
<!-- Generator: Adobe Illustrator 25.3.1, SVG Export Plug-In . SVG Version: 6.00 Build 0)  -->
<svg version="1.0" id="_x3C_Ebene_x3E_" xmlns="http://www.w3.org/2000/svg" xmlns:xlink="http://www.w3.org/1999/xlink" x="0px"
	 y="0px" viewBox="0 0 400 400" enable-background="new 0 0 400 400" xml:space="preserve">
<rect id="background-blue_7_" x="0.028" fill="#2D327D" width="400" height="400"/>
<g id="content">
	<path id="frameWhite" fill="#FFFFFF" d="M340.028,40c11,0,20,9,20,20v280c0,11-9,20-20,20h-280c-11,0-20-9-20-20V60
		c0-11,9-20,20-20H340.028 M340.028,35h-280c-13.785,0-25,11.215-25,25v280c0,13.785,11.215,25,25,25h280c13.785,0,25-11.215,25-25
		V60C365.028,46.215,353.813,35,340.028,35L340.028,35z"/>
	
		<rect x="97.877" y="255.733" transform="matrix(0.7071 -0.7071 0.7071 0.7071 -170.1807 163.6114)" fill="#FFFFFF" width="29.058" height="62.999"/>
	<path fill="#FFFFFF" d="M242.92,246.55c0.01,0.06,0.02,0.11,0.02,0.17c0.03,0.42,0.06,0.84,0.06,1.26c0,8.84-7.16,16-16,16h-46v-5
		h46c6.08,0,11-4.92,11-11c0-0.47-0.03-0.94-0.1-1.39c-0.22-1.84-0.92-3.55-1.95-4.98c0,0,0-0.01-0.01-0.01
		c-2.021-2.858-5.421-4.636-8.94-4.62h-30.7c-6.18,0-10.12-1.79-13.81-3.67c-0.86-0.42-1.78-0.92-2.64-1.33
		c-7.13-3.59-15.01-4.26-22.98-4.26c-8.56-0.07-17.25,1.82-24.5,6.5c-3.14,1.97-6.14,4.43-9.09,7.42l-14.49,14.43l34.68,34.68
		l6.72-6.75l76.86-0.07c5.8,0,11.02-2.19,15.01-5.79l7.29-7.17l1.26-1.24l23.01-23.01c-5.72-0.18-11.6-0.24-17.71-0.24
		C251.64,246.48,247.35,246.51,242.92,246.55z"/>
	<path fill="#FFFFFF" d="M274.6,209.49c-32.92-6.37-77.76-6.59-106.27-4.84c-29.52,1.82-45.49,3.3-69.09,7.46
		c11.28,5.41,20.51,10.94,29.31,18.62c2.56-1.72,5.21-3.15,7.99-4.3c6.08-2.52,12.74-3.71,20.33-3.71c7.76,0,16.83,0.57,25.23,4.8
		c0.86,0.4,1.79,0.91,2.65,1.33c3.49,1.78,6.56,3.13,11.55,3.13h30.72c6.52,0.02,12.15,3.97,14.62,9.58
		c1.21-0.01,2.42-0.02,3.61-0.03c3.559-0.026,7.111-0.055,10.66-0.05c7.64,0,15.12,0.1,22.53,0.42c13.79,0.57,27.38,1.92,41.56,4.81
		C300.77,227.04,290.27,219.43,274.6,209.49z"/>
	<path fill="#FFFFFF" d="M181.806,139.96c0.19,0.03,0.38,0.04,0.57,0.04c1.96,0,3.67-1.44,3.96-3.43c0.31-2.19-1.2-4.21-3.39-4.53
		c-2.19-0.31-4.21,1.2-4.53,3.39C178.107,137.62,179.616,139.64,181.806,139.96z"/>
	<path fill="#FFFFFF" d="M185.556,113.96c0.19,0.03,0.39,0.04,0.58,0.04c1.95,0,3.66-1.44,3.95-3.43c0.31-2.19-1.2-4.21-3.39-4.53
		c-2.18-0.31-4.21,1.2-4.53,3.39C181.857,111.62,183.366,113.64,185.556,113.96z"/>
	<path fill="#FFFFFF" d="M178.056,165.96c0.19,0.03,0.38,0.04,0.57,0.04c1.96,0,3.67-1.44,3.96-3.43c0.31-2.18-1.2-4.21-3.39-4.53
		c-2.19-0.31-4.21,1.2-4.53,3.39C174.357,163.61,175.866,165.64,178.056,165.96z"/>
	<path fill="#FFFFFF" d="M217.346,132.04c-2.19,0.29-3.73,2.3-3.43,4.49c0.27,2.01,1.98,3.47,3.95,3.47c0.18,0,0.36-0.01,0.54-0.04
		c2.19-0.29,3.73-2.3,3.43-4.49C221.546,133.28,219.536,131.74,217.346,132.04z"/>
	<path fill="#FFFFFF" d="M213.846,106.04c-2.19,0.29-3.73,2.3-3.43,4.49c0.27,2.01,1.98,3.47,3.96,3.47c0.17,0,0.35-0.01,0.53-0.04
		c2.19-0.29,3.73-2.3,3.43-4.49C218.046,107.28,216.036,105.74,213.846,106.04z"/>
	<path fill="#FFFFFF" d="M220.846,158.04c-2.19,0.29-3.73,2.3-3.43,4.49c0.27,2.01,1.98,3.47,3.95,3.47c0.18,0,0.36-0.01,0.54-0.04
		c2.19-0.29,3.73-2.3,3.43-4.49C225.046,159.28,223.036,157.74,220.846,158.04z"/>
	<circle fill="#FFFFFF" cx="199.877" cy="175.51" r="4"/>
	<circle fill="#FFFFFF" cx="199.877" cy="124.53" r="4"/>
	<circle fill="#FFFFFF" cx="199.877" cy="150.02" r="4"/>
	<circle fill="#FFFFFF" cx="210.877" cy="84" r="4"/>
	<circle fill="#FFFFFF" cx="189.877" cy="84" r="4"/>
	<circle fill="#FFFFFF" cx="199.877" cy="99" r="4"/>
</g>
</svg>
