<?xml version="1.0" encoding="utf-8"?>
<!-- Generator: Adobe Illustrator 24.2.0, SVG Export Plug-In . SVG Version: 6.00 Build 0)  -->
<svg version="1.0" xmlns="http://www.w3.org/2000/svg" xmlns:xlink="http://www.w3.org/1999/xlink" x="0px" y="0px"
	 viewBox="0 0 400 400.001" enable-background="new 0 0 400 400.001" xml:space="preserve">
<rect id="background-blue" fill="#2D327D" width="400" height="400"/>
<g id="content">
	<path id="frameWhite" fill="#FFFFFF" d="M340,40c11,0,20,9,20,20v280c0,11-9,20-20,20H60c-11,0-20-9-20-20V60c0-11,9-20,20-20H340
		 M340,35H60c-13.785,0-25,11.215-25,25v280c0,13.785,11.215,25,25,25h280c13.785,0,25-11.215,25-25V60
		C365,46.215,353.785,35,340,35L340,35z"/>
	<path fill="#FFFFFF" d="M200,319.891c-1.366,0-2.473-1.106-2.473-2.473v-235c0-1.366,1.107-2.473,2.473-2.473
		c1.366,0,2.473,1.107,2.473,2.473v235C202.473,318.785,201.366,319.891,200,319.891z"/>
	<path fill="#FFFFFF" d="M256.174,99.844c0-11.039,8.961-20,20.004-20c11.037,0,19.998,8.961,19.998,20c0,11.039-8.961,20-19.998,20
		C265.134,119.844,256.174,110.883,256.174,99.844L256.174,99.844z"/>
	<path fill="#FFFFFF" d="M320.002,144.996v67.876c0,3.933-3.192,7.123-7.125,7.123c-3.935,0-7.125-3.19-7.125-7.123v-57.876h-6.25
		v154.749c0,5.656-4.592,10.249-10.253,10.249c-5.657,0-10.25-4.593-10.25-10.249v-90h-6.495v90c0,5.656-4.592,10.249-10.253,10.249
		c-5.657,0-10.25-4.593-10.25-10.249V154.997h-6.25v57.876c0,3.933-3.19,7.123-7.127,7.123c-3.931,0-7.123-3.19-7.123-7.123l0,0
		v-67.876c0-11.039,8.959-20,20-20h48.499C311.045,124.996,320.002,133.957,320.002,144.996L320.002,144.996z"/>
	<path fill="#FFFFFF" d="M170.142,209.384c1.032,2.801,3.7,4.663,6.684,4.663c3.935,0,7.125-3.192,7.125-7.125
		c0-0.842-0.147-1.676-0.438-2.466l0,0l-24.453-66.376c-2.898-7.864-10.391-13.086-18.769-13.086h-22.631
		c-8.378,0-15.868,5.222-18.768,13.086l0,0l-24.454,66.376c-0.292,0.79-0.438,1.624-0.438,2.466c0,3.933,3.19,7.125,7.125,7.125
		c2.983,0,5.65-1.862,6.683-4.663h0.004l20.036-54.389h6.659l-34.998,94.999h25.713v59.751c0,5.657,4.596,10.245,10.253,10.245
		c5.66,0,10.25-4.588,10.25-10.245v-59.751h6.5v59.751c0,5.657,4.592,10.245,10.25,10.245c5.661,0,10.253-4.588,10.253-10.245
		v-59.751h25.717l-35.002-94.999h6.663L170.142,209.384L170.142,209.384z"/>
	<path fill="#FFFFFF" d="M148.566,99.843c0-11.041-8.963-20.002-20.003-20.002c-11.038,0-19.999,8.961-19.999,20.002
		c0,11.039,8.961,19.998,19.999,19.998C139.604,119.841,148.566,110.882,148.566,99.843L148.566,99.843z"/>
</g>
</svg>
