<?xml version="1.0" encoding="utf-8"?>
<!-- Generator: Adobe Illustrator 24.2.0, SVG Export Plug-In . SVG Version: 6.00 Build 0)  -->
<svg version="1.0" xmlns="http://www.w3.org/2000/svg" xmlns:xlink="http://www.w3.org/1999/xlink" x="0px" y="0px"
	 viewBox="0 0 400 400.001" enable-background="new 0 0 400 400.001" xml:space="preserve">
<rect id="background-blue" x="0" fill="#2D327D" width="400" height="400"/>
<g id="content">
	<path id="frameWhite" fill="#FFFFFF" d="M60,40h280c11,0,20,9,20,20v280c0,11-9,20-20,20H60c-11,0-20-9-20-20V60C40,49,49,40,60,40
		 M60,35c-13.785,0-25,11.215-25,25v280c0,13.785,11.215,25,25,25h280c13.785,0,25-11.215,25-25V60c0-13.785-11.215-25-25-25H60
		L60,35z"/>
	<path fill="#FFFFFF" d="M220,99.842c0-11.04-8.961-20-20.002-20c-11.038,0-19.999,8.96-19.999,20c0,11.04,8.961,20,19.999,20
		C211.04,119.842,220,110.882,220,99.842L220,99.842z"/>
	<path fill="#FFFFFF" d="M155.751,144.997v67.875c0,3.933,3.19,7.124,7.124,7.124c3.934,0,7.124-3.192,7.124-7.124v-57.876h6.249
		v154.75c0,5.657,4.593,10.249,10.253,10.249c5.657,0,10.249-4.592,10.249-10.249v-90h6.497v90c0,5.657,4.592,10.249,10.253,10.249
		c5.657,0,10.249-4.592,10.249-10.249v-154.75H230v57.876c0,3.933,3.19,7.124,7.128,7.124c3.931,0,7.121-3.192,7.121-7.124l0,0
		v-67.875c0-11.04-8.957-20-19.999-20h-48.5C164.708,124.997,155.751,133.957,155.751,144.997L155.751,144.997z"/>
	<path fill="#FFFFFF" d="M320,79.946c-1.366,0-2.473,1.107-2.473,2.473v76.822c-0.41,0.117-0.768,0.358-1.027,0.685l0-0.003
		l-11.289,12.037l0.005,0.001c-1.109,1.05-1.907,1.918-2.213,3.477c-0.119,0.554-0.194,1.701-0.218,2.424
		c-1.131,34.126-13.34,45.772-18.162,47.778c-0.712,0.296-4.43,2.055-4.141,6.861c1.606,26.659,16.114,48.567,31.83,48.567h5.213
		v36.351c0,1.366,1.106,2.473,2.473,2.473c1.366,0,2.473-1.106,2.473-2.473v-235C322.473,81.053,321.366,79.946,320,79.946z"/>
</g>
</svg>
