<?xml version="1.0" encoding="utf-8"?>
<!-- Generator: Adobe Illustrator 24.2.0, SVG Export Plug-In . SVG Version: 6.00 Build 0)  -->
<svg version="1.0" xmlns="http://www.w3.org/2000/svg" xmlns:xlink="http://www.w3.org/1999/xlink" x="0px" y="0px"
	 viewBox="0 0 400 400.001" enable-background="new 0 0 400 400.001" xml:space="preserve">
<rect id="background-blue" x="0" fill="#2D327D" width="400" height="400"/>
<g id="content">
	<path id="frameWhite" fill="#FFFFFF" d="M60,40h280c11,0,20,9,20,20v280c0,11-9,20-20,20H60c-11,0-20-9-20-20V60C40,49,49,40,60,40
		 M60,35c-13.785,0-25,11.215-25,25v280c0,13.785,11.215,25,25,25h280c13.785,0,25-11.215,25-25V60c0-13.785-11.215-25-25-25H60
		L60,35z"/>
	<circle fill="#FFFFFF" cx="129.708" cy="180.858" r="2.75"/>
	<circle fill="#FFFFFF" cx="136.337" cy="171.391" r="2.75"/>
	<circle fill="#FFFFFF" cx="142.966" cy="161.924" r="2.75"/>
	<circle fill="#FFFFFF" cx="149.595" cy="152.456" r="2.75"/>
	<circle fill="#FFFFFF" cx="156.224" cy="142.989" r="2.75"/>
	<circle fill="#FFFFFF" cx="162.853" cy="133.522" r="2.75"/>
	<circle fill="#FFFFFF" cx="169.482" cy="124.055" r="2.75"/>
	<circle fill="#FFFFFF" cx="176.111" cy="114.588" r="2.75"/>
	<circle fill="#FFFFFF" cx="182.74" cy="105.121" r="2.75"/>
	<circle fill="#FFFFFF" cx="189.869" cy="93.921" r="2.75"/>
	<circle fill="#FFFFFF" cx="190.228" cy="85.908" r="2.75"/>
	<circle fill="#FFFFFF" cx="117.094" cy="174.745" r="2.75"/>
	<circle fill="#FFFFFF" cx="124.302" cy="166.154" r="2.75"/>
	<circle fill="#FFFFFF" cx="131.511" cy="157.563" r="2.75"/>
	<circle fill="#FFFFFF" cx="138.72" cy="148.972" r="2.75"/>
	<circle fill="#FFFFFF" cx="145.928" cy="140.381" r="2.75"/>
	<circle fill="#FFFFFF" cx="153.137" cy="131.79" r="2.75"/>
	<circle fill="#FFFFFF" cx="160.346" cy="123.199" r="2.75"/>
	<circle fill="#FFFFFF" cx="167.554" cy="114.608" r="2.75"/>
	<circle fill="#FFFFFF" cx="174.763" cy="106.017" r="2.75"/>
	<circle fill="#FFFFFF" cx="182.472" cy="96.56" r="2.75"/>
	<circle fill="#FFFFFF" cx="165.12" cy="192.965" r="2.75"/>
	<circle fill="#FFFFFF" cx="169.011" cy="182.273" r="2.75"/>
	<circle fill="#FFFFFF" cx="172.902" cy="171.582" r="2.75"/>
	<circle fill="#FFFFFF" cx="176.794" cy="160.891" r="2.75"/>
	<circle fill="#FFFFFF" cx="180.685" cy="150.2" r="2.75"/>
	<circle fill="#FFFFFF" cx="184.576" cy="139.509" r="2.75"/>
	<circle fill="#FFFFFF" cx="188.467" cy="128.817" r="2.75"/>
	<circle fill="#FFFFFF" cx="192.359" cy="118.126" r="2.75"/>
	<circle fill="#FFFFFF" cx="200" cy="83.32" r="2.75"/>
	<circle fill="#FFFFFF" cx="156.081" cy="184.236" r="2.75"/>
	<circle fill="#FFFFFF" cx="161.007" cy="173.67" r="2.75"/>
	<circle fill="#FFFFFF" cx="165.934" cy="163.105" r="2.75"/>
	<circle fill="#FFFFFF" cx="170.861" cy="152.539" r="2.75"/>
	<circle fill="#FFFFFF" cx="175.788" cy="141.973" r="2.75"/>
	<circle fill="#FFFFFF" cx="180.715" cy="131.408" r="2.75"/>
	<circle fill="#FFFFFF" cx="185.642" cy="120.842" r="2.75"/>
	<circle fill="#FFFFFF" cx="196.495" cy="97.979" r="2.75"/>
	<circle fill="#FFFFFF" cx="191.069" cy="109.41" r="2.75"/>
	<circle fill="#FFFFFF" cx="183.446" cy="112.384" r="2.75"/>
	<circle fill="#FFFFFF" cx="189.73" cy="101.5" r="2.75"/>
	<circle fill="#FFFFFF" cx="131.394" cy="202.541" r="2.75"/>
	<circle fill="#FFFFFF" cx="137.178" cy="192.523" r="2.75"/>
	<circle fill="#FFFFFF" cx="142.961" cy="182.506" r="2.75"/>
	<circle fill="#FFFFFF" cx="148.745" cy="172.488" r="2.75"/>
	<circle fill="#FFFFFF" cx="154.528" cy="162.471" r="2.75"/>
	<circle fill="#FFFFFF" cx="160.312" cy="152.454" r="2.75"/>
	<circle fill="#FFFFFF" cx="166.096" cy="142.436" r="2.75"/>
	<circle fill="#FFFFFF" cx="171.879" cy="132.419" r="2.75"/>
	<circle fill="#FFFFFF" cx="177.663" cy="122.401" r="2.75"/>
	<circle fill="#FFFFFF" cx="196.513" cy="89.751" r="2.75"/>
	<circle fill="#FFFFFF" cx="209.772" cy="85.908" r="2.75"/>
	<circle fill="#FFFFFF" cx="270.292" cy="180.858" r="2.75"/>
	<circle fill="#FFFFFF" cx="263.663" cy="171.391" r="2.75"/>
	<circle fill="#FFFFFF" cx="257.034" cy="161.924" r="2.75"/>
	<circle fill="#FFFFFF" cx="250.405" cy="152.456" r="2.75"/>
	<circle fill="#FFFFFF" cx="243.776" cy="142.989" r="2.75"/>
	<circle fill="#FFFFFF" cx="237.147" cy="133.522" r="2.75"/>
	<circle fill="#FFFFFF" cx="230.518" cy="124.055" r="2.75"/>
	<circle fill="#FFFFFF" cx="223.889" cy="114.588" r="2.75"/>
	<circle fill="#FFFFFF" cx="217.26" cy="105.121" r="2.75"/>
	<circle fill="#FFFFFF" cx="210.131" cy="93.921" r="2.75"/>
	<circle fill="#FFFFFF" cx="282.906" cy="174.745" r="2.75"/>
	<circle fill="#FFFFFF" cx="275.698" cy="166.154" r="2.75"/>
	<circle fill="#FFFFFF" cx="268.489" cy="157.563" r="2.75"/>
	<circle fill="#FFFFFF" cx="261.28" cy="148.972" r="2.75"/>
	<circle fill="#FFFFFF" cx="254.072" cy="140.381" r="2.75"/>
	<circle fill="#FFFFFF" cx="246.863" cy="131.79" r="2.75"/>
	<circle fill="#FFFFFF" cx="239.654" cy="123.199" r="2.75"/>
	<circle fill="#FFFFFF" cx="232.446" cy="114.608" r="2.75"/>
	<circle fill="#FFFFFF" cx="225.237" cy="106.017" r="2.75"/>
	<circle fill="#FFFFFF" cx="217.528" cy="96.56" r="2.75"/>
	<circle fill="#FFFFFF" cx="234.88" cy="192.965" r="2.75"/>
	<circle fill="#FFFFFF" cx="230.989" cy="182.273" r="2.75"/>
	<circle fill="#FFFFFF" cx="227.098" cy="171.582" r="2.75"/>
	<circle fill="#FFFFFF" cx="223.206" cy="160.891" r="2.75"/>
	<circle fill="#FFFFFF" cx="219.315" cy="150.2" r="2.75"/>
	<circle fill="#FFFFFF" cx="215.424" cy="139.509" r="2.75"/>
	<circle fill="#FFFFFF" cx="211.533" cy="128.817" r="2.75"/>
	<circle fill="#FFFFFF" cx="207.641" cy="118.126" r="2.75"/>
	<circle fill="#FFFFFF" cx="200" cy="105.703" r="2.75"/>
	<circle fill="#FFFFFF" cx="243.919" cy="184.236" r="2.75"/>
	<circle fill="#FFFFFF" cx="238.993" cy="173.67" r="2.75"/>
	<circle fill="#FFFFFF" cx="234.066" cy="163.105" r="2.75"/>
	<circle fill="#FFFFFF" cx="229.139" cy="152.539" r="2.75"/>
	<circle fill="#FFFFFF" cx="224.212" cy="141.973" r="2.75"/>
	<circle fill="#FFFFFF" cx="219.285" cy="131.408" r="2.75"/>
	<circle fill="#FFFFFF" cx="214.358" cy="120.842" r="2.75"/>
	<circle fill="#FFFFFF" cx="203.505" cy="97.979" r="2.75"/>
	<circle fill="#FFFFFF" cx="208.931" cy="109.41" r="2.75"/>
	<circle fill="#FFFFFF" cx="216.554" cy="112.384" r="2.75"/>
	<circle fill="#FFFFFF" cx="210.27" cy="101.5" r="2.75"/>
	<circle fill="#FFFFFF" cx="268.606" cy="202.541" r="2.75"/>
	<circle fill="#FFFFFF" cx="262.822" cy="192.523" r="2.75"/>
	<circle fill="#FFFFFF" cx="257.039" cy="182.506" r="2.75"/>
	<circle fill="#FFFFFF" cx="251.255" cy="172.488" r="2.75"/>
	<circle fill="#FFFFFF" cx="245.472" cy="162.471" r="2.75"/>
	<circle fill="#FFFFFF" cx="239.688" cy="152.454" r="2.75"/>
	<circle fill="#FFFFFF" cx="233.904" cy="142.436" r="2.75"/>
	<circle fill="#FFFFFF" cx="228.121" cy="132.419" r="2.75"/>
	<circle fill="#FFFFFF" cx="222.337" cy="122.401" r="2.75"/>
	<circle fill="#FFFFFF" cx="203.487" cy="89.751" r="2.75"/>
	<circle fill="#FFFFFF" cx="200" cy="72.75" r="2.75"/>
	<circle fill="#FFFFFF" cx="194.813" cy="78.451" r="2.75"/>
	<circle fill="#FFFFFF" cx="205.187" cy="78.451" r="2.75"/>
	<path fill="#FFFFFF" d="M149.954,319.974l29.32-29.285c1.432-1.434,2.236-3.382,2.233-5.393c0.004-2.019-0.801-3.959-2.233-5.393
		l-2.389-2.387l-22.609,22.611l-2.588-2.592l27.689-27.687c1.432-1.419,2.233-3.365,2.233-5.386c0-2.028-0.801-3.959-2.233-5.385
		l-2.389-2.397l-33.08,33.078l-2.588-2.589l38.16-38.158c1.434-1.436,2.233-3.354,2.233-5.395c0-2.002-0.799-3.957-2.233-5.367
		l-2.393-2.406l-43.546,43.55l-2.59-2.592l49.443-49.442c1.484-1.486,2.311-3.508,2.311-5.598c0-4.371-3.538-7.907-7.912-7.907
		c-2.087,0-4.108,0.825-5.59,2.313l-46.967,46.961c-1.577,1.59-3.728,2.488-5.983,2.488h-13.406c-3.274,0-5.929-2.656-5.926-5.926
		v-24.048c-0.004-5.386-3.38-10.175-8.464-11.97c-0.67-0.235-1.38-0.361-2.119-0.361c-3.486,0-6.337,2.845-6.337,6.346v90.317
		L149.954,320V319.974z"/>
	<path fill="#FFFFFF" d="M250.048,319.974l-29.322-29.285c-1.43-1.434-2.235-3.382-2.231-5.393
		c-0.004-2.019,0.801-3.959,2.231-5.393l2.391-2.387l22.607,22.611l2.589-2.592l-27.687-27.687
		c-1.434-1.419-2.234-3.365-2.234-5.386c0-2.028,0.801-3.959,2.234-5.385l2.387-2.397l33.08,33.078l2.589-2.589l-38.16-38.158
		c-1.434-1.436-2.231-3.354-2.231-5.395c0-2.002,0.797-3.957,2.231-5.367l2.395-2.406l43.546,43.55l2.589-2.592l-49.442-49.442
		c-1.486-1.486-2.313-3.508-2.313-5.598c0-4.371,3.538-7.907,7.914-7.907c2.086,0,4.108,0.825,5.59,2.313l46.965,46.961
		c1.579,1.59,3.728,2.488,5.985,2.488h13.404c3.274,0,5.929-2.656,5.926-5.926v-24.048c0.004-5.386,3.382-10.175,8.465-11.97
		c0.67-0.235,1.378-0.361,2.119-0.361c3.486,0,6.335,2.845,6.335,6.346v90.317L250.048,320V319.974z"/>
</g>
</svg>
