<?xml version="1.0" encoding="utf-8"?>
<!-- Generator: Adobe Illustrator 25.3.1, SVG Export Plug-In . SVG Version: 6.00 Build 0)  -->
<svg version="1.0" id="_x3C_Ebene_x3E_" xmlns="http://www.w3.org/2000/svg" xmlns:xlink="http://www.w3.org/1999/xlink" x="0px"
	 y="0px" viewBox="0 0 400 400" enable-background="new 0 0 400 400" xml:space="preserve">
<rect id="background-blue_7_" x="0.028" fill="#2D327D" width="400" height="400"/>
<g id="content">
	<path id="frameWhite" fill="#FFFFFF" d="M340.028,40c11,0,20,9,20,20v280c0,11-9,20-20,20h-280c-11,0-20-9-20-20V60
		c0-11,9-20,20-20H340.028 M340.028,35h-280c-13.785,0-25,11.215-25,25v280c0,13.785,11.215,25,25,25h280c13.785,0,25-11.215,25-25
		V60C365.028,46.215,353.813,35,340.028,35L340.028,35z"/>
	<polygon fill="#FFFFFF" points="136.173,163.68 136.173,136.166 163.687,136.166 163.687,107.5 136.173,107.5 136.173,79.986 
		107.506,79.986 107.506,107.5 79.992,107.5 79.992,136.166 107.506,136.166 107.506,163.68 	"/>
	
		<rect x="126.877" y="255.954" transform="matrix(0.7071 -0.7071 0.7071 0.7071 -161.8432 184.1823)" fill="#FFFFFF" width="29.058" height="62.999"/>
	<path fill="#FFFFFF" d="M291.089,226.952l-19.23,19.23c0,0.005,0.001,0.011,0.001,0.016c0.031,0.246,0.056,0.493,0.076,0.743
		c0.037,0.416,0.064,0.835,0.064,1.261c0,8.837-7.163,16-16,16h-46v-5h46c6.075,0,11-4.925,11-11c0-6.061-4.944-10.977-11-11
		h-30.696c-6.185,0-10.123-1.795-13.817-3.668c-0.213-0.108-0.426-0.216-0.638-0.325l-0.791-0.403
		c-0.398-0.214-0.809-0.401-1.212-0.604c-7.125-3.59-15.011-4.266-22.976-4.266c-13.773,0-23.964,4.159-33.59,13.927l-14.491,14.425
		l34.683,34.683l6.722-6.751l76.853-0.068c5.801,0,11.02-2.192,15.015-5.791l8.546-8.408l38.722-38.722l1.297-1.297
		C322.921,225.628,303.611,214.43,291.089,226.952z"/>
	<path fill="#FFFFFF" d="M218.93,139.96c0.19,0.03,0.38,0.04,0.57,0.04c1.96,0,3.67-1.44,3.96-3.43c0.31-2.19-1.2-4.21-3.39-4.53
		c-2.19-0.31-4.21,1.2-4.53,3.39C215.23,137.62,216.74,139.64,218.93,139.96z"/>
	<path fill="#FFFFFF" d="M222.68,113.96c0.19,0.03,0.39,0.04,0.58,0.04c1.95,0,3.66-1.44,3.95-3.43c0.31-2.19-1.2-4.21-3.39-4.53
		c-2.18-0.31-4.21,1.2-4.53,3.39C218.98,111.62,220.49,113.64,222.68,113.96z"/>
	<path fill="#FFFFFF" d="M215.18,165.96c0.19,0.03,0.38,0.04,0.57,0.04c1.96,0,3.67-1.44,3.96-3.43c0.31-2.18-1.2-4.21-3.39-4.53
		c-2.19-0.31-4.21,1.2-4.53,3.39C211.48,163.61,212.99,165.64,215.18,165.96z"/>
	<path fill="#FFFFFF" d="M254.47,132.04c-2.19,0.29-3.73,2.3-3.43,4.49c0.27,2.01,1.98,3.47,3.95,3.47c0.18,0,0.36-0.01,0.54-0.04
		c2.19-0.29,3.73-2.3,3.43-4.49C258.67,133.28,256.66,131.74,254.47,132.04z"/>
	<path fill="#FFFFFF" d="M250.97,106.04c-2.19,0.29-3.73,2.3-3.43,4.49c0.27,2.01,1.98,3.47,3.96,3.47c0.17,0,0.35-0.01,0.53-0.04
		c2.19-0.29,3.73-2.3,3.43-4.49C255.17,107.28,253.16,105.74,250.97,106.04z"/>
	<path fill="#FFFFFF" d="M257.97,158.04c-2.19,0.29-3.73,2.3-3.43,4.49c0.27,2.01,1.98,3.47,3.95,3.47c0.18,0,0.36-0.01,0.54-0.04
		c2.19-0.29,3.73-2.3,3.43-4.49C262.17,159.28,260.16,157.74,257.97,158.04z"/>
	<circle fill="#FFFFFF" cx="237" cy="175.51" r="4"/>
	<circle fill="#FFFFFF" cx="237" cy="124.53" r="4"/>
	<circle fill="#FFFFFF" cx="237" cy="150.02" r="4"/>
	<circle fill="#FFFFFF" cx="248" cy="84" r="4"/>
	<circle fill="#FFFFFF" cx="227" cy="84" r="4"/>
	<circle fill="#FFFFFF" cx="237" cy="99" r="4"/>
	<circle fill="#FFFFFF" cx="212" cy="188" r="4"/>
	<circle fill="#FFFFFF" cx="237" cy="201" r="4"/>
	<circle fill="#FFFFFF" cx="262" cy="188" r="4"/>
</g>
</svg>
