<?xml version="1.0" encoding="utf-8"?>
<!-- Generator: Adobe Illustrator 26.5.0, SVG Export Plug-In . SVG Version: 6.00 Build 0)  -->
<svg version="1.0" xmlns="http://www.w3.org/2000/svg" xmlns:xlink="http://www.w3.org/1999/xlink" x="0px" y="0px"
	 viewBox="0 0 400 400" enable-background="new 0 0 400 400" xml:space="preserve">
<rect id="background-blue" fill="#2D327D" width="400" height="400"/>
<g id="content">
	<path id="frameWhite" fill="#FFFFFF" d="M340,40c11,0,20,9,20,20v280c0,11-9,20-20,20H60c-11,0-20-9-20-20V60c0-11,9-20,20-20H340
		 M340,35H60c-13.785,0-25,11.215-25,25v280c0,13.785,11.215,25,25,25h280c13.785,0,25-11.215,25-25V60
		C365,46.215,353.785,35,340,35L340,35z"/>
	<g>
		<path fill="#FFFFFF" d="M250.86,200l17.277,24.188c3.21,4.494,2.169,10.74-2.325,13.95c-1.762,1.258-3.792,1.864-5.804,1.864
			c-3.12,0-6.194-1.456-8.146-4.188L226.282,200H200l18.607,111.644c0.804,4.822,4.976,8.356,9.864,8.356h63.057
			c4.888,0,9.06-3.534,9.864-8.356L320,200H250.86z"/>
	</g>
	<path fill="#FFFFFF" d="M260.004,235c-1.56,0-3.097-0.728-4.073-2.094l-50-70c-1.605-2.247-1.084-5.37,1.163-6.975
		c2.248-1.604,5.37-1.084,6.975,1.163l50,70c1.605,2.247,1.084,5.37-1.163,6.975C262.025,234.698,261.01,235,260.004,235z"/>
	<g>
		<path fill="#FFFFFF" d="M247.289,195h67.596c-0.645-5.055-4.335-9.423-9.586-10.661c-2.717-0.639-5.425-0.34-7.811,0.679
			c-0.995-5.425-5.741-9.549-11.465-9.549c-0.404,0-0.817,0.024-1.213,0.065c-1.496-5.231-5.692-9.525-11.368-10.867
			c-8.352-1.965-16.721,3.21-18.694,11.562c-0.129,0.574-0.218,1.148-0.283,1.714c-0.752-0.129-1.52-0.21-2.304-0.21
			c-5.232,0-9.738,3.062-11.861,7.484L247.289,195z"/>
	</g>
	<g>
		<circle fill="#FFFFFF" cx="300.465" cy="153.597" r="9.722"/>
	</g>
	<g>
		<circle fill="#FFFFFF" cx="271.318" cy="119.638" r="9.722"/>
	</g>
	<g>
		<circle fill="#FFFFFF" cx="292.337" cy="89.722" r="9.722"/>
	</g>
	<path fill="#FFFFFF" d="M102.082,307.19c0.171-1.37,1.423-2.339,2.791-2.17c1.37,0.171,2.342,1.42,2.17,2.791L105.519,320H127.5
		v-12.5c0-1.381,1.119-2.5,2.5-2.5s2.5,1.119,2.5,2.5V320h21.981l-1.524-12.19c-0.171-1.37,0.8-2.62,2.17-2.791
		c1.371-0.168,2.62,0.801,2.791,2.17l1.601,12.81H180l-6.25-25h-87.5L80,320h20.481L102.082,307.19z"/>
	<path fill="#FFFFFF" d="M172.5,290l-0.606-2.425c-1.113-4.452-5.113-7.575-9.701-7.575H97.808c-4.589,0-8.589,3.123-9.701,7.575
		L87.5,290H172.5z"/>
	<path fill="#FFFFFF" d="M135.649,275h-10V85c0-2.761,2.239-5,5-5l0,0c2.761,0,5,2.239,5,5V275z"/>
</g>
</svg>
