<?xml version="1.0" encoding="utf-8"?>
<!-- Generator: Adobe Illustrator 24.2.0, SVG Export Plug-In . SVG Version: 6.00 Build 0)  -->
<svg version="1.0" id="Ebene_1" xmlns="http://www.w3.org/2000/svg" xmlns:xlink="http://www.w3.org/1999/xlink" x="0px" y="0px"
	 viewBox="0 0 400 400" enable-background="new 0 0 400 400" xml:space="preserve">
<rect id="background-blue" fill="#2D327D" width="400" height="400"/>
<g id="content_1_">
	<path id="frameWhite" fill="#FFFFFF" d="M340,40c11,0,20,9,20,20v280c0,11-9,20-20,20H60c-11,0-20-9-20-20V60c0-11,9-20,20-20H340
		 M340,35H60c-13.785,0-25,11.215-25,25v280c0,13.785,11.215,25,25,25h280c13.785,0,25-11.215,25-25V60
		C365,46.215,353.785,35,340,35L340,35z"/>
	<g>
		<path fill="#FFFFFF" d="M283.641,250.626c-1.313,18.622-7.549,34.536-18.703,47.742c-14.603,17.31-35.274,25.963-62.016,25.963
			c-28.466,0-50.615-10.048-66.445-30.146c-13.535-17.144-20.303-38.554-20.303-64.23c0-26.904,8.039-49.342,24.117-67.307
			c16.077-17.882,37.446-26.824,64.107-26.824c24.855,0,44.869,8.204,60.047,24.609c10.828,11.566,16.814,24.898,17.965,39.99
			h-38.76c-2.135-10.17-6.688-18.026-13.658-23.563c-6.974-5.537-15.792-8.306-26.455-8.306c-17.063,0-29.82,7.179-38.268,21.533
			c-6.318,10.911-9.475,24.282-9.475,40.113c0,16.242,3.322,29.777,9.967,40.605c8.448,13.864,20.958,20.795,37.529,20.795
			c11.812,0,21.226-3.485,28.239-10.459c7.014-6.972,11.339-17.144,12.981-30.516H283.641z"/>
	</g>
	<g>
		<path fill="#FFFFFF" d="M104.16,88.88h-6.234c-0.123-1.463-0.667-2.581-1.63-3.353s-2.314-1.159-4.05-1.159
			c-1.545,0-2.745,0.304-3.599,0.913s-1.282,1.459-1.282,2.553c0,0.984,0.41,1.695,1.23,2.133c0.793,0.438,2.803,1.053,6.029,1.846
			c3.404,0.848,5.763,1.702,7.075,2.563c2.42,1.586,3.63,3.794,3.63,6.624c0,3.104-1.217,5.551-3.65,7.342
			c-2.146,1.572-5.052,2.358-8.716,2.358c-4.074,0-7.239-0.93-9.495-2.789s-3.425-4.505-3.507-7.937h6.521
			c0.096,1.668,0.526,2.905,1.292,3.712c1.203,1.285,3.015,1.928,5.435,1.928c1.641,0,2.939-0.321,3.896-0.964
			c1.08-0.738,1.62-1.743,1.62-3.015s-0.759-2.201-2.276-2.789c-0.834-0.328-2.803-0.923-5.906-1.784
			c-1.941-0.533-3.459-1.039-4.553-1.518s-1.969-1.012-2.625-1.6c-1.531-1.367-2.297-3.254-2.297-5.66
			c0-2.885,1.196-5.168,3.589-6.85c2.037-1.436,4.683-2.153,7.937-2.153c2.857,0,5.25,0.567,7.178,1.702
			C102.547,82.611,104.01,85.243,104.16,88.88z"/>
		<path fill="#FFFFFF" d="M129.282,103.01c-0.314,1.258-0.882,2.44-1.702,3.548c-1.969,2.693-4.799,4.04-8.49,4.04
			c-3.336,0-6.009-1.053-8.019-3.158c-0.984-1.025-1.736-2.263-2.256-3.712c-0.561-1.545-0.841-3.158-0.841-4.84
			c0-3.254,0.937-5.988,2.81-8.203c2.092-2.475,4.799-3.712,8.121-3.712c2.68,0,4.963,0.827,6.85,2.481
			c1.354,1.189,2.338,2.656,2.953,4.399s0.923,3.934,0.923,6.573h-15.606c0.055,1.094,0.226,2.003,0.513,2.728
			c0.807,1.955,2.338,2.933,4.594,2.933c1.107,0,2.01-0.243,2.707-0.728s1.271-1.268,1.723-2.348H129.282z M123.561,96.427
			c-0.109-1.08-0.355-1.976-0.738-2.687c-0.383-0.697-0.926-1.251-1.63-1.661s-1.473-0.615-2.307-0.615
			c-1.326,0-2.42,0.444-3.281,1.333s-1.374,2.099-1.538,3.63H123.561z"/>
		<path fill="#FFFFFF" d="M153.953,101.389c-0.287,2.229-1.032,4.088-2.235,5.578c-1.941,2.42-4.683,3.63-8.224,3.63
			c-3.637,0-6.467-1.244-8.49-3.732c-1.709-2.119-2.563-4.737-2.563-7.854c0-3.855,1.142-6.897,3.425-9.126
			c1.996-1.941,4.573-2.912,7.731-2.912c2.912,0,5.277,0.755,7.096,2.266s2.857,3.579,3.117,6.204h-5.845
			c-0.219-1.189-0.704-2.112-1.456-2.769s-1.702-0.984-2.851-0.984c-1.654,0-2.936,0.625-3.845,1.876s-1.364,3.004-1.364,5.26
			c0,1.996,0.362,3.603,1.087,4.819c0.889,1.49,2.222,2.235,3.999,2.235c2.625,0,4.163-1.497,4.614-4.491H153.953z"/>
		<path fill="#FFFFFF" d="M169.437,87.547v4.204h-4.45v10.521c0,1.258,0.116,2.058,0.349,2.399c0.342,0.492,1.107,0.738,2.297,0.738
			c0.465,0,1.066-0.034,1.805-0.103v4.758c-1.34,0.15-2.57,0.226-3.691,0.226c-1.695,0-2.987-0.191-3.876-0.574
			c-1.381-0.615-2.242-1.736-2.584-3.363c-0.15-0.697-0.226-2.14-0.226-4.327V91.751h-3.63v-4.204h3.63v-5.25h5.927v5.25H169.437z"
			/>
		<path fill="#FFFFFF" d="M192.529,103.01c-0.314,1.258-0.882,2.44-1.702,3.548c-1.969,2.693-4.799,4.04-8.49,4.04
			c-3.336,0-6.009-1.053-8.019-3.158c-0.984-1.025-1.736-2.263-2.256-3.712c-0.561-1.545-0.841-3.158-0.841-4.84
			c0-3.254,0.937-5.988,2.81-8.203c2.092-2.475,4.799-3.712,8.121-3.712c2.68,0,4.963,0.827,6.85,2.481
			c1.354,1.189,2.338,2.656,2.953,4.399s0.923,3.934,0.923,6.573h-15.606c0.055,1.094,0.226,2.003,0.513,2.728
			c0.807,1.955,2.338,2.933,4.594,2.933c1.107,0,2.01-0.243,2.707-0.728s1.271-1.268,1.723-2.348H192.529z M186.807,96.427
			c-0.109-1.08-0.355-1.976-0.738-2.687c-0.383-0.697-0.926-1.251-1.63-1.661s-1.473-0.615-2.307-0.615
			c-1.326,0-2.42,0.444-3.281,1.333s-1.374,2.099-1.538,3.63H186.807z"/>
		<path fill="#FFFFFF" d="M216.769,87.588v22.395h-5.66v-3.261c-1.709,2.584-4.102,3.876-7.178,3.876
			c-2.68,0-4.704-0.896-6.071-2.687c-0.52-0.697-0.892-1.518-1.118-2.461s-0.338-2.174-0.338-3.691V87.588h5.948v12.325
			c0,1.285,0.037,2.194,0.112,2.728s0.229,0.984,0.462,1.354c0.629,0.998,1.702,1.497,3.22,1.497c1.873,0,3.233-0.827,4.081-2.481
			c0.41-0.807,0.615-2.263,0.615-4.368V87.588H216.769z"/>
		<path fill="#FFFFFF" d="M235.288,87.219v5.763c-0.957-0.178-1.729-0.267-2.317-0.267c-2.215,0-3.842,0.93-4.881,2.789
			c-0.588,1.039-0.882,2.775-0.882,5.209v9.27h-5.947V87.588h5.66v4.081c1.613-3.035,3.958-4.553,7.034-4.553
			C234.338,87.116,234.782,87.15,235.288,87.219z"/>
	</g>
</g>
</svg>
