<?xml version="1.0" encoding="utf-8"?>
<!-- Generator: Adobe Illustrator 24.2.0, SVG Export Plug-In . SVG Version: 6.00 Build 0)  -->
<svg version="1.0" id="Ebene_1" xmlns="http://www.w3.org/2000/svg" xmlns:xlink="http://www.w3.org/1999/xlink" x="0px" y="0px"
	 viewBox="0 0 400 400" enable-background="new 0 0 400 400" xml:space="preserve">
<rect id="background-blue" fill="#2D327D" width="400" height="400"/>
<g id="content_1_">
	<path id="frameWhite" fill="#FFFFFF" d="M340,40c11,0,20,9,20,20v280c0,11-9,20-20,20H60c-11,0-20-9-20-20V60c0-11,9-20,20-20H340
		 M340,35H60c-13.785,0-25,11.215-25,25v280c0,13.785,11.215,25,25,25h280c13.785,0,25-11.215,25-25V60
		C365,46.215,353.785,35,340,35L340,35z"/>
	<g>
		<path fill="#FFFFFF" d="M123.68,140.131h72.721c13.535,0,25.121,1.559,34.761,4.676c9.638,3.118,18.149,8.04,25.532,14.766
			c17.965,16.407,26.947,39.171,26.947,68.291c0,30.845-8.49,54.675-25.471,71.49c-7.466,7.466-15.873,12.777-25.225,15.935
			c-9.352,3.159-21.247,4.737-35.684,4.737H123.68V140.131z M162.932,173.353v113.449h30.27c9.269,0,16.651-0.923,22.148-2.769
			c5.494-1.846,10.293-4.983,14.396-9.413c9.515-10.336,14.273-25.471,14.273-45.404c0-18.374-4.411-32.278-13.228-41.713
			c-8.819-9.432-21.841-14.15-39.067-14.15H162.932z"/>
	</g>
	<g id="Sektor">
		<path fill="#FFFFFF" d="M104.16,88.88h-6.234c-0.123-1.463-0.667-2.581-1.63-3.353s-2.314-1.159-4.05-1.159
			c-1.545,0-2.745,0.304-3.599,0.913s-1.282,1.459-1.282,2.553c0,0.984,0.41,1.695,1.23,2.133c0.793,0.438,2.803,1.053,6.029,1.846
			c3.404,0.848,5.763,1.702,7.075,2.563c2.42,1.586,3.63,3.794,3.63,6.624c0,3.104-1.217,5.551-3.65,7.342
			c-2.146,1.572-5.052,2.358-8.716,2.358c-4.074,0-7.239-0.93-9.495-2.789s-3.425-4.505-3.507-7.937h6.521
			c0.096,1.668,0.526,2.905,1.292,3.712c1.203,1.285,3.015,1.928,5.435,1.928c1.641,0,2.939-0.321,3.896-0.964
			c1.08-0.738,1.62-1.743,1.62-3.015s-0.759-2.201-2.276-2.789c-0.834-0.328-2.803-0.923-5.906-1.784
			c-1.941-0.533-3.459-1.039-4.553-1.518s-1.969-1.012-2.625-1.6c-1.531-1.367-2.297-3.254-2.297-5.66
			c0-2.885,1.196-5.168,3.589-6.85c2.037-1.436,4.683-2.153,7.937-2.153c2.857,0,5.25,0.567,7.178,1.702
			C102.547,82.611,104.01,85.243,104.16,88.88z"/>
		<path fill="#FFFFFF" d="M129.282,103.01c-0.314,1.258-0.882,2.44-1.702,3.548c-1.969,2.693-4.799,4.04-8.49,4.04
			c-3.336,0-6.009-1.053-8.019-3.158c-0.984-1.025-1.736-2.263-2.256-3.712c-0.561-1.545-0.841-3.158-0.841-4.84
			c0-3.254,0.937-5.988,2.81-8.203c2.092-2.475,4.799-3.712,8.121-3.712c2.68,0,4.963,0.827,6.85,2.481
			c1.354,1.189,2.338,2.656,2.953,4.399s0.923,3.934,0.923,6.573h-15.606c0.055,1.094,0.226,2.003,0.513,2.728
			c0.807,1.955,2.338,2.933,4.594,2.933c1.107,0,2.01-0.243,2.707-0.728s1.271-1.268,1.723-2.348H129.282z M123.561,96.427
			c-0.109-1.08-0.355-1.976-0.738-2.687c-0.383-0.697-0.926-1.251-1.63-1.661s-1.473-0.615-2.307-0.615
			c-1.326,0-2.42,0.444-3.281,1.333s-1.374,2.099-1.538,3.63H123.561z"/>
		<path fill="#FFFFFF" d="M154.302,87.588l-8.183,8.265l9.126,14.13h-7.219l-5.988-9.905l-2.44,2.317v7.588h-5.947V80h5.947v15.565
			l7.629-7.978H154.302z"/>
		<path fill="#FFFFFF" d="M170.175,87.547v4.204h-4.45v10.521c0,1.258,0.116,2.058,0.349,2.399c0.342,0.492,1.107,0.738,2.297,0.738
			c0.465,0,1.066-0.034,1.805-0.103v4.758c-1.34,0.15-2.57,0.226-3.691,0.226c-1.695,0-2.987-0.191-3.876-0.574
			c-1.381-0.615-2.242-1.736-2.584-3.363c-0.15-0.697-0.226-2.14-0.226-4.327V91.751h-3.63v-4.204h3.63v-5.25h5.927v5.25H170.175z"
			/>
		<path fill="#FFFFFF" d="M183.587,86.972c3.254,0,5.913,1.08,7.978,3.24c2.037,2.133,3.056,4.977,3.056,8.531
			c0,3.678-1.087,6.61-3.261,8.798c-2.037,2.037-4.689,3.056-7.957,3.056c-3.486,0-6.262-1.135-8.326-3.404
			c-1.969-2.16-2.953-4.963-2.953-8.408c0-3.391,0.957-6.146,2.871-8.265C177.113,88.155,179.978,86.972,183.587,86.972z
			 M183.279,91.607c-1.572,0-2.823,0.636-3.753,1.907c-0.943,1.285-1.415,3.042-1.415,5.271c0,2.311,0.465,4.081,1.395,5.312
			c0.957,1.244,2.263,1.866,3.917,1.866c1.545,0,2.769-0.567,3.671-1.702c1.025-1.258,1.538-3.083,1.538-5.476
			c0-2.242-0.451-3.985-1.354-5.229C186.335,92.257,185.002,91.607,183.279,91.607z"/>
		<path fill="#FFFFFF" d="M212.463,87.219v5.763c-0.957-0.178-1.729-0.267-2.317-0.267c-2.215,0-3.842,0.93-4.881,2.789
			c-0.588,1.039-0.882,2.775-0.882,5.209v9.27h-5.948V87.588h5.661v4.081c1.613-3.035,3.958-4.553,7.034-4.553
			C211.512,87.116,211.957,87.15,212.463,87.219z"/>
	</g>
</g>
</svg>
