<svg xmlns="http://www.w3.org/2000/svg" width="24" height="24" viewBox="0 0 24 24">
  <g fill="none" fill-rule="evenodd">
    <path fill="#2D327D" d="M22.5,0 L1.5,0 C0.675000003,0 0,0.675000003 0,1.5 L0,22.5 C0,23.3250009 0.675000003,24 1.5,24 L22.5,24 C23.3250009,24 24,23.3250009 24,22.5 L24,1.5 C24,0.675000003 23.3250009,0 22.5,0 Z"/>
    <g fill="#FFF" transform="translate(2 3)">
      <g transform="translate(13)">
        <path d="M2.97000121.667500003C2.97000121 1.0350003 2.67000011 1.33500001 2.30250171 1.33500001 1.93500141 1.33500001 1.63500221 1.0350003 1.63500221.667500003 1.63500221.299999701 1.93500141 0 2.30250171 0 2.67750171 0 2.97000121.300000001 2.97000121.667500003M5.97000122 6.29249953L5.06999972 4.16999912C5.01000212 4.01999952 4.86750032 3.92999932 4.70250132 3.92999932L3.15750121 3.92999932 3.07500071 3.26249931 4.35000032 3.26249931C4.48499862 3.26249931 4.59000012 3.15749931 4.59000012 3.01499941 4.59000012 2.87999921 4.47750092 2.77499961 4.35000032 2.77499961L3.01500121 2.77499961 2.91000171 1.95749951C2.87250131 1.65749931 2.59500121 1.43999911 2.28750221 1.47749901 1.98750301 1.51499941 1.77000231 1.79249911 1.80750271 2.09249881L2.07000351 4.22249892C2.07000351 4.24499942 2.08500291 4.31249912 2.08500291 4.31999922 2.08500291 4.53749892 2.26500321 4.71749972 2.48250201 4.71749972L4.42500312 4.71749972 5.22750292 6.60000033C5.28750232 6.75000003 5.43750192 6.84000023 5.59500312 6.84000023 5.64750292 6.84000023 5.70000262 6.83249963 5.75250242 6.81000053 5.96249962 6.72750003 6.05250173 6.49500083 5.97000122 6.29249953"/>
        <path d="M4.75499922,6.02250003 C4.42499932,6.57749943 3.81749922,6.95249943 3.12749871,6.95249943 C2.08499921,6.95249943 1.23749741,6.10499963 1.23749741,5.06250002 C1.23749741,4.53749992 1.45499811,4.06499962 1.79999741,3.72000032 L1.72499851,3.06750061 C1.1024971,3.51000071 0.697498303,4.23750122 0.697498303,5.05500032 C0.697498303,6.39750003 1.78499981,7.49250033 3.13499831,7.49250033 C3.89249992,7.49250033 4.57500072,7.14000133 5.01749992,6.60000133 L4.75499922,6.02250003 Z"/>
      </g>
      <g transform="translate(0 9)">
        <polygon points="11.222 .758 8.988 9 7.18 9 5.755 3.113 4.375 9 2.545 9 .348 .758 2.155 .758 3.483 6.818 4.93 .758 6.633 .758 8.08 6.773 9.423 .758 11.222 .758 11.222 .758"/>
        <path d="M19.2174989,5.81999972 C19.1575013,6.67499923 18.8724996,7.40250023 18.3624994,8.01000213 C17.6949999,8.80500224 16.7425005,9.20250134 15.5200006,9.20250134 C14.2150003,9.20250134 13.2025014,8.74500084 12.4750005,7.82250213 C11.8525,7.03500173 11.5450001,6.05250163 11.5450001,4.87500192 C11.5450001,3.64500242 11.9125004,2.61000251 12.6475002,1.79250141 C13.3825008,0.975002204 14.3650018,0.562501902 15.5874998,0.562501902 C16.7275011,0.562501902 17.6425001,0.937501904 18.3400003,1.68750191 C18.8350011,2.22000311 19.1124994,2.82750221 19.1650011,3.51750181 L17.3875009,3.51750181 C17.2900011,3.05250161 17.0800001,2.69250201 16.7650014,2.43750191 C16.4425012,2.18250271 16.0450001,2.05500221 15.5499993,2.05500221 C14.7700005,2.05500221 14.1849995,2.38500121 13.7950001,3.04500201 C13.5025006,3.54750161 13.3600006,4.15500262 13.3600006,4.88250352 C13.3600006,5.62500192 13.5100002,6.24750333 13.8175011,6.74250223 C14.2075005,7.38000113 14.7775002,7.69500353 15.5350018,7.69500353 C16.0750027,7.69500353 16.5100022,7.53750233 16.8325005,7.21500403 C17.1549988,6.89250383 17.3500004,6.42750363 17.4249993,5.82000352 L19.2174989,5.81999972 L19.2174989,5.81999972 Z"/>
      </g>
    </g>
  </g>
</svg>
