<svg xmlns="http://www.w3.org/2000/svg" width="24" height="24" viewBox="0 0 24 24">
  <g fill="none" fill-rule="evenodd">
    <path fill="#2D327D" d="M22.5,0 L1.5,0 C0.675000003,0 0,0.675000003 0,1.5 L0,22.5 C0,23.3250009 0.675000003,24 1.5,24 L22.5,24 C23.3250009,24 24,23.3250009 24,22.5 L24,1.5 C24,0.675000003 23.3250009,0 22.5,0 Z"/>
    <path fill="#FFF" d="M7.21500023 10.7049999C7.29000003 10.9149999 7.49249943 11.0574989 7.71749983 11.0574989 8.00999933 11.0574989 8.25000013 10.8174991 8.25000013 10.5249986 8.25000013 10.4649982 8.24249953 10.397499 8.22000043 10.3374986L8.22000043 10.3374986 6.38250063 5.35749822C6.16500093 4.76499842 5.60250092 4.37499812 4.97250032 4.37499812L3.27750021 4.37499812C2.64750011 4.37499812 2.08500011 4.76499842 1.86750081 5.35749822L1.86750081 5.35749822.0300007001 10.3374977C.00750040003 10.3974981 5.00000001e-7 10.4574985 5.00000001e-7 10.5249977 5.00000001e-7 10.8174972.240000301 11.057498.532500502 11.057498.757500403 11.057498.960000304 10.914999 1.0350003 10.704998L1.0350003 10.704998 2.53500031 6.62499813 3.03749991 6.62499813.412499902 13.7499982 2.33999971 13.7499982 2.33999971 18.2349969C2.33999971 18.6624986 2.68499951 19.0000001 3.11250021 19.0000001 3.54000001 19.0000001 3.87749962 18.654997 3.87749962 18.2349969L3.87749962 13.7500001 4.36499982 13.7500001 4.36499982 18.2349988C4.36499982 18.6625005 4.71000002 19.0000001 5.12999922 19.0000001 5.55749902 19.0000001 5.90250022 18.6549989 5.90250022 18.2349988L5.90250022 13.7500001 7.83000003 13.7500001 5.20500002 6.62500003 5.70749962 6.62500003 7.21500023 10.7049999 7.21500023 10.7049999zM5.59500031 2.4850001C5.59500031 1.66000031 4.92000062.985000104 4.09500031.985000104 3.27000001.985000104 2.59500031 1.66000031 2.59500031 2.4850001 2.59500031 3.30999991 3.27000051 3.9850001 4.09500031 3.9850001 4.92000012 3.9850001 5.59500031 3.31750011 5.59500031 2.4850001L5.59500031 2.4850001z" transform="translate(3 2)"/>
  </g>
</svg>
