<svg xmlns="http://www.w3.org/2000/svg" width="24" height="24" viewBox="0 0 24 24">
  <g fill="none" fill-rule="evenodd">
    <path fill="#2D327D" d="M22.5,0 L1.5,0 C0.675000003,0 0,0.675000003 0,1.5 L0,22.5 C0,23.3250009 0.675000003,24 1.5,24 L22.5,24 C23.3250009,24 24,23.3250009 24,22.5 L24,1.5 C24,0.675000003 23.3250009,0 22.5,0 Z"/>
    <g fill="#FFF" transform="translate(3 5)">
      <path d="M7.40250023 11.3650017C7.73249923 11.0350018 8.15999993 10.8550005 8.62500004 10.8475018L8.62500004 10.0600014 4.85250002 11.6500016C5.03249942 11.9275037 5.12999922 12.2575037 5.12999922 12.5950033L6.89250003 12.5950033C6.89249993 12.1375009 7.07250023 11.7025013 7.40250023 11.3650017zM4.61250022 11.3650017C4.62000042 11.3725014 4.62000042 11.3725014 4.62749962 11.3800011L6.51749993 10.585001 3.37499951 9.68500144 3.37499951 10.8550015C3.83999972 10.8549995 4.28250032 11.0349998 4.61250022 11.3650017z"/>
      <polygon points="8.625 9.692 8.625 9.115 3.375 9.115 3.375 9.325 7.02 10.367"/>
      <path d="M9.58500004 12.415001L9.58500004 12.415001 8.48999974 11.1550007C8.15999983 11.1925011 7.85249993 11.335001 7.61250013 11.5750008 7.35750003 11.83 7.20750043 12.16 7.19249913 12.5200006L7.70999903 13.1124994 7.70999903 13.1124994 6.45749943 14.6124994C6.17249863 14.9575006 6.23249903 15.4825002 6.59999843 15.7900011 6.96749873 16.0975019 7.49249833 16.0675013 7.77749823 15.7225019L9.63749884 13.5025007 9.63749884 13.5025007C9.89999964 13.1949998 9.87000084 12.7299996 9.58500004 12.415001zM3.50249961 11.1625004L2.40749981 12.4224988 2.40749981 12.4224988C2.12249951 12.7374993 2.09250021 13.1949979 2.35500001 13.5099984L2.35500001 13.5099984 4.21499972 15.7299996C4.50000002 16.0750008 5.03249932 16.1049996 5.39249992 15.7974988 5.75999932 15.489998 5.81999972 14.9649983 5.53499892 14.619999L4.28249932 13.119999 4.28249932 13.119999 4.79999872 12.5274983C4.77749872 12.1674996 4.63499922 11.8374977 4.37999812 11.5824985 4.13999992 11.3424988 3.83250052 11.1924992 3.50249961 11.1625004zM11.25 5.17749982L8.25000003 5.17749982 3.75000002 5.17749982.750000003 5.17749982C.337500101 5.17749982 0 5.51499942 0 5.92749982 0 6.34000023.337500101 6.67749982.750000003 6.67749982L3.75000002 6.67749982 3.75000002 8.78499994 8.25000003 8.78499994 8.25000003 6.67749982 11.25 6.67749982C11.6625004 6.67749982 12 6.34000023 12 5.92749982 12 5.50750062 11.6625004 5.17749982 11.25 5.17749982z"/>
      <circle cx="6" cy="2.552" r="2.25"/>
    </g>
  </g>
</svg>
