<svg xmlns="http://www.w3.org/2000/svg" width="24" height="24" viewBox="0 0 24 24">
  <g fill="none" fill-rule="evenodd">
    <path fill="#2D327D" d="M22.5,0 L1.5,0 C0.675000003,0 0,0.675000003 0,1.5 L0,22.5 C0,23.3250009 0.675000003,24 1.5,24 L22.5,24 C23.3250009,24 24,23.3250009 24,22.5 L24,1.5 C24,0.675000003 23.3250009,0 22.5,0 Z"/>
    <g fill="#FFF" transform="translate(3 2)">
      <path d="M6.01499943,4.46499972 L7.65749933,2.82249981 L5.77499962,0.939999804 C5.70750042,0.872499704 5.61000062,0.827499803 5.51249982,0.827499803 C5.41500002,0.827499803 5.31749922,0.864999704 5.24249932,0.939999804 L4.12500002,2.05000021 C4.05750042,2.11750031 4.01249982,2.21499971 4.01249982,2.31250001 C4.01249982,2.41000031 4.05000022,2.50749971 4.12500002,2.57499981 L6.01499943,4.46499972 L6.01499943,4.46499972 Z"/>
      <path d="M9.75000001,5.50000002 L7.89750003,3.63999992 L6.84000023,4.70499942 L7.63500023,5.50000002 L4.12500002,5.50000002 C3.08999971,5.50000002 2.25000001,6.34000023 2.25000001,7.37500003 L2.25000001,8.50000004 L3.75000001,8.50000004 L3.75000001,7.37500003 C3.75000001,7.17250063 3.92250012,7.00000003 4.12500002,7.00000003 L13.5000001,7.00000003 L13.5000001,5.50000002 L9.75000001,5.50000002 L9.75000001,5.50000002 Z"/>
      <path fill-rule="nonzero" d="M5.73750022,10 L0.262500001,10 C0.1199999,10 0,10.1200008 0,10.2624998 L0,17.5 C0,18.3250009 0.675000003,19 1.5,19 L4.5,19 C5.32499982,19 6,18.3250009 6,17.5 L6,10.2624998 C6,10.1200008 5.87999922,10 5.73750022,10 L5.73750022,10 Z M5.32499982,13.6000005 C4.96499972,13.7725001 4.56749962,13.8625003 4.16249992,13.8625003 C3.75750062,13.8625003 3.36000011,13.7725001 3.00000001,13.6000005 C2.63999991,13.4274999 2.24250031,13.3374997 1.83750011,13.3374997 C1.43249991,13.3374997 1.0350003,13.4274999 0.675000003,13.6000005 L0.675000003,12.8500005 C1.0350004,12.6774999 1.43249991,12.5874997 1.83750011,12.5874997 C2.24250031,12.5874997 2.63999991,12.6774999 3.00000001,12.8500005 C3.36000011,13.0225002 3.75750062,13.1125003 4.16249992,13.1125003 C4.56749962,13.1125003 4.96499972,13.0225001 5.32499982,12.8500005 L5.32499982,13.6000005 L5.32499982,13.6000005 Z M5.32499982,12.1750003 C4.96499972,12.3474999 4.56749962,12.4375001 4.16249992,12.4375001 C3.75750062,12.4375001 3.36000011,12.3474999 3.00000001,12.1750003 C2.63999991,12.0024997 2.24250031,11.9125004 1.83750011,11.9125004 C1.43249991,11.9125004 1.0350003,12.0024997 0.675000003,12.1750003 L0.675000003,11.4250002 C1.0350004,11.2524996 1.43249991,11.1625004 1.83750011,11.1625004 C2.24250031,11.1625004 2.63999991,11.2524996 3.00000001,11.4250002 C3.36000011,11.5974998 3.75750062,11.6875 4.16249992,11.6875 C4.56749962,11.6875 4.96499972,11.5974998 5.32499982,11.4250002 L5.32499982,12.1750003 L5.32499982,12.1750003 Z"/>
    </g>
  </g>
</svg>
