<svg xmlns="http://www.w3.org/2000/svg" width="24" height="24" viewBox="0 0 24 24">
  <g fill="none" fill-rule="evenodd">
    <path fill="#2D327D" d="M22.5,0 L1.5,0 C0.675000003,0 0,0.675000003 0,1.5 L0,22.5 C0,23.3250009 0.675000003,24 1.5,24 L22.5,24 C23.3250009,24 24,23.3250009 24,22.5 L24,1.5 C24,0.675000003 23.3250009,0 22.5,0 Z"/>
    <g transform="translate(1 2)">
      <path fill="#FFF" d="M8.00750063,4.46499972 L9.64999964,2.82249981 L7.77499963,0.939999904 C7.70750043,0.872499804 7.61000063,0.827499903 7.51249983,0.827499903 C7.41500003,0.827499903 7.31749923,0.864999804 7.24249933,0.939999904 L6.12500003,2.05000021 C6.05750043,2.11750031 6.01249983,2.21499971 6.01249983,2.31250001 C6.01249983,2.41000031 6.05000023,2.50749971 6.12500003,2.57499981 L8.00750063,4.46499972 L8.00750063,4.46499972 Z"/>
      <path fill="#FFF" d="M11.75,5.50000002 L9.88999944,3.63999992 L8.83249954,4.70499942 L9.62749964,5.50000002 L6.12500003,5.50000002 C5.08999972,5.50000002 4.25000002,6.34000023 4.25000002,7.37500003 L4.25000002,8.50000004 L5.75000002,8.50000004 L5.75000002,7.37500003 C5.75000002,7.17250063 5.92250012,7.00000003 6.12500003,7.00000003 L15.5000001,7.00000003 L15.5000001,5.50000002 L11.75,5.50000002 L11.75,5.50000002 Z"/>
      <path fill="#FFF" fill-rule="nonzero" d="M8.00000003,12.2950002 L9.50750064,10.7875004 L8.71249964,9.99249934 L8.00000003,10.7049999 L8.00000003,10.2624998 C8.00000003,10.1125002 7.87999923,10 7.73750023,10 L2.26250001,10 C2.11999991,10 2.00000001,10.1200008 2.00000001,10.2624998 L2.00000001,10.7049999 L1.28749991,9.99249934 L0.492500102,10.7875003 L2.00000001,12.2950002 L2.00000001,16.705 L0.492500102,18.2124997 L1.28749991,19.0074998 L2.15000011,18.1450006 C2.38999991,18.6475011 2.90749981,19.0000001 3.50000001,19.0000001 L6.50000003,19.0000001 C7.09249973,19.0000001 7.61000063,18.6549989 7.85000043,18.1450006 L8.71249964,19.0074998 L9.50750064,18.2124997 L8.00000003,16.705 L8.00000003,12.2950002 L8.00000003,12.2950002 Z M5.00000002,13.6000005 C4.93999962,13.5700008 4.88000012,13.5475007 4.81999972,13.5249997 L3.88249972,12.5874997 C4.27249962,12.5950004 4.64749962,12.6850005 5.00000002,12.8500005 C5.20249992,12.9475003 5.42000012,13.0149995 5.64500052,13.0600005 L5.07500082,13.6300011 C5.04500012,13.6225005 5.02250002,13.6149999 5.00000002,13.6000005 Z M7.32499983,13.6000005 C7.04750063,13.7350007 6.74750043,13.8174993 6.44750023,13.8475 L7.32499983,12.9700004 L7.32499983,13.6000005 Z M3.83750012,11.1625004 C4.24250032,11.1625004 4.63999992,11.2524996 5.00000002,11.4250002 C5.36000012,11.5974998 5.75750062,11.6875 6.16249993,11.6875 C6.53749993,11.6875 6.90499973,11.6049995 7.24249933,11.4624996 L6.26749943,12.4375001 C6.22999953,12.4375001 6.19999983,12.4375001 6.16249993,12.4375001 C5.75750062,12.4375001 5.36000012,12.3474999 5.00000002,12.1750003 C4.63999992,12.0024997 4.24250032,11.9125004 3.83750012,11.9125004 C3.64249992,11.9125004 3.45499991,11.9350004 3.26749991,11.9724999 L2.70500011,11.4099999 C3.05749991,11.2450008 3.44750021,11.1625004 3.83750012,11.1625004 Z M3.13249971,13.4350005 C2.97499991,13.4800006 2.81750011,13.5325004 2.67500001,13.6075002 L2.67500001,12.977501 L3.13249971,13.4350005 Z"/>
      <polygon fill="#EB0000" points="5 13.705 1.287 9.992 .493 10.788 4.205 14.5 .493 18.212 1.287 19.007 5 15.295 8.712 19.007 9.508 18.212 5.795 14.5 9.508 10.788 8.712 9.992"/>
    </g>
  </g>
</svg>
