<svg xmlns="http://www.w3.org/2000/svg" width="24" height="24" viewBox="0 0 24 24">
  <g fill="none" fill-rule="evenodd">
    <path fill="#2D327D" d="M22.5,0 L1.5,0 C0.675000003,0 0,0.675000003 0,1.5 L0,22.5 C0,23.3250009 0.675000003,24 1.5,24 L22.5,24 C23.3250009,24 24,23.3250009 24,22.5 L24,1.5 C24,0.675000003 23.3250009,0 22.5,0 Z"/>
    <path fill="#FFF" d="M1.38249991 15.7500001C1.29250001 15.7500001 1.20999951 15.8174993 1.1949999 15.9075013L.909999604 17.790001C.909999604 17.7975007.909999604 17.8050023.909999604 17.8199998.909999604 17.9249993.992499604 18.0074998 1.0974996 18.0074998 1.1874995 18.0074998 1.27000001 17.9400006 1.28499961 17.8500005L1.56999991 15.9674989C1.56999991 15.9599992 1.56999991 15.9524995 1.56999991 15.9375001 1.56999991 15.8325006 1.48750001 15.7500001 1.38249991 15.7500001L1.38249991 15.7500001zM1.94499991 12.0000001C1.85500001 12.0000001 1.77249951 12.0674993 1.75749991 12.1575004L1.47249961 14.040001C1.47249961 14.0475007 1.47249961 14.0550023 1.47249961 14.0699998 1.47249961 14.1749993 1.55499961 14.2574998 1.65999961 14.2574998 1.74999951 14.2574998 1.83250001 14.1900006 1.84749961 14.1000005L2.13249971 12.2174999C2.13249971 12.2099993 2.13249971 12.2024996 2.13249971 12.1875002 2.13249971 12.0825006 2.05000021 12.0000001 1.94499991 12.0000001L1.94499991 12.0000001zM2.45499991 8.62500004C2.36500021 8.62500004 2.28249981 8.69249924 2.26749991 8.78250034L1.98249981 10.6650009C1.98249981 10.6725015 1.98249981 10.6800003 1.98249981 10.6950006 1.98249981 10.8000001 2.06499951 10.8825006 2.17000001 10.8825006 2.25999971 10.8825006 2.34250011 10.8150005 2.35750001 10.7250003L2.64249981 8.84249974C2.64249981 8.83499914 2.64249981 8.82749944 2.64249981 8.81250004 2.64249991 8.70750054 2.56000041 8.62500004 2.45499991 8.62500004L2.45499991 8.62500004zM2.61999991 7.87500003C2.70999961 7.87500003 2.79250001 7.80750083 2.80749991 7.71749973L3.09250021 5.84249972C3.09250021 5.83499912 3.09250021 5.82749942 3.09250021 5.81250002 3.09250021 5.70750052 3.01000021 5.62500002 2.90500021 5.62500002 2.81500051 5.62500002 2.73250011 5.69249922 2.71750021 5.78250032L2.43249991 7.65750033C2.43249991 7.66500093 2.43249991 7.67250063 2.43249991 7.68750003 2.43249991 7.79249953 2.51499991 7.87500003 2.61999991 7.87500003L2.61999991 7.87500003zM3.08500001 13.1250001C2.98750021 13.1250001 2.91249991 13.2000009 2.89750001 13.290001L2.68750001 15.165001C2.68750001 15.1725007 2.68750001 15.1800023 2.68750001 15.1875001 2.68750001 15.2924996 2.77000001 15.3750001 2.87500001 15.3750001 2.97250031 15.3750001 3.05500031 15.2999993 3.06250001 15.2099992L3.27250001 13.3349992C3.27250001 13.3274995 3.27250001 13.3199979 3.27250001 13.3125001 3.27250001 13.2075006 3.18999961 13.1250001 3.08500001 13.1250001L3.08500001 13.1250001zM3.46000001 9.75000004C3.36250021 9.75000004 3.28749991 9.82499984 3.27250001 9.91500004L3.06250001 11.79C3.06250001 11.7975006 3.06250001 11.8049994 3.06250001 11.8125 3.06250001 11.9174995 3.14500001 12.0000001 3.25000001 12.0000001 3.34750031 12.0000001 3.42250011 11.9325008 3.43750001 11.835L3.64750002 9.96000004C3.64750002 9.95249944 3.64750002 9.94500064 3.64750002 9.93750004 3.64750002 9.83250054 3.56499961 9.75000004 3.46000001 9.75000004L3.46000001 9.75000004zM3.99250032 6.93750003C3.99250032 6.83250053 3.91000032 6.75000003 3.80500032 6.75000003 3.70750002 6.75000003 3.62500002 6.81749923 3.61750032 6.91500003L3.40749981 8.79000004C3.40749981 8.79750064 3.40749981 8.80499944 3.40749981 8.81250004 3.40749981 8.91749954 3.48999981 9.00000004 3.59499981 9.00000004 3.69250012 9.00000004 3.76749992 8.92500024 3.78249982 8.83500004L3.99250032 6.96000003C3.98500012 6.95249943 3.99250032 6.94500063 3.99250032 6.93750003L3.99250032 6.93750003zM4.19499972 15.7500001C4.09749992 15.7500001 4.01499992 15.8250009 4.00749972 15.9224988L3.86499982 17.7974988C3.86499982 17.8050004 3.86499982 17.8050004 3.86499982 17.8125001 3.86499982 17.9174996 3.94749982 18.0000001 4.05249982 18.0000001 4.15000012 18.0000001 4.23250012 17.9249993 4.23999982 17.8275014L4.38249972 15.9525014C4.38249972 15.9449998 4.38249972 15.9449998 4.38249972 15.9375001 4.38249972 15.8325006 4.30000022 15.7500001 4.19499972 15.7500001L4.19499972 15.7500001zM4.47250032 12.0000001C4.37500002 12.0000001 4.29250002 12.0749999 4.28500032 12.1725007L4.14249992 14.0474988C4.14249992 14.0550004 4.14249992 14.0550004 4.14249992 14.0625001 4.14249992 14.1674996 4.22499992 14.2500001 4.32999992 14.2500001 4.42750022 14.2500001 4.51000022 14.1749993 4.51749992 14.0775014L4.66000032 12.2025014C4.66000032 12.1950008 4.66000032 12.1950008 4.66000032 12.1875011 4.66000032 12.0825006 4.57749992 12.0000001 4.47250032 12.0000001L4.47250032 12.0000001zM4.72750002 8.62500004C4.62999972 8.62500004 4.54749972 8.69999984 4.54000002 8.79750064L4.39749962 10.6725006C4.39749962 10.6800003 4.39749962 10.6800003 4.39749962 10.6875 4.39749962 10.7924995 4.47999962 10.875 4.58499962 10.875 4.68249942 10.875 4.76499992 10.8000002 4.77249912 10.7024994L4.91499852 8.82749944C4.91499852 8.81999974 4.91499852 8.81999974 4.91499852 8.81250004 4.91500002 8.70750054 4.83250052 8.62500004 4.72750002 8.62500004L4.72750002 8.62500004zM4.95249992 5.62500002C4.85499962 5.62500002 4.77250012 5.69999982 4.76499992 5.79750062L4.62250052 7.67250063C4.62250052 7.67250063 4.62250052 7.68000033 4.62250052 7.68750003 4.62250052 7.79249953 4.70500102 7.87500003 4.81000052 7.87500003 4.90750032 7.87500003 4.98999992 7.80000023 4.99750052 7.70249943L5.13999992 5.82749942C5.13999992 5.81999972 5.13999992 5.81999972 5.13999992 5.81250002 5.13999992 5.70750052 5.05750042 5.62500002 4.95249992 5.62500002L4.95249992 5.62500002zM5.69500062 13.1250001C5.59750032 13.1250001 5.51500082 13.2075006 5.50750062 13.3050004L5.44000102 15.1800004 5.44000102 15.1875001C5.44000102 15.2924996 5.52250152 15.3750001 5.62750102 15.3750001 5.73250052 15.3750001 5.81500102 15.2924996 5.81500102 15.1949998L5.88250062 13.3199998 5.88250062 13.3125001C5.88250062 13.2075006 5.80000022 13.1250001 5.69500062 13.1250001L5.69500062 13.1250001zM5.82250022 9.75000004C5.72499992 9.75000004 5.64250082 9.83250054 5.63500022 9.92999944L5.56750062 11.8049994 5.56750062 11.8125C5.56750062 11.9174995 5.65000112 12.0000001 5.75500062 12.0000001 5.86000012 12.0000001 5.93500042 11.9174995 5.94250062 11.8200006L6.01000023 9.94500064 6.01000023 9.93750004C6.01000023 9.83250054 5.92749982 9.75000004 5.82250022 9.75000004L5.82250022 9.75000004zM5.93500042 6.75000003C5.83750012 6.75000003 5.75500062 6.83250053 5.74750042 6.92999943L5.68000082 8.80499944 5.68000082 8.81250004C5.68000082 8.91749954 5.76250132 9.00000004 5.86750082 9.00000004 5.96500112 9.00000004 6.05500033 8.91749954 6.05500033 8.82000064L6.12250043 6.94500063C6.12250043 6.94500063 6.12250043 6.94500063 6.12250043 6.93750003 6.12250043 6.83250053 6.04000003 6.75000003 5.93500042 6.75000003L5.93500042 6.75000003zM2.95750001 5.25000002L11.0500007 5.25000002C11.2975006 5.25000002 11.5 5.04750062 11.5 4.80000022 11.5 4.76249982 11.4924994 4.71749972 11.4850006 4.67999942 10.9975004 2.93249951 9.54250054 1.62749961 7.75750063 1.33499961L7.75750063 0 6.25750063 0 6.25750063 1.33500001C4.46500012 1.62750051 3.01000021 2.93250031 2.53000061 4.67999932 2.52250101 4.71749972 2.51500081 4.75499962 2.51500081 4.80000022 2.50000001 5.04750062 2.70249991 5.25000002 2.95750001 5.25000002L2.95750001 5.25000002zM7.00000003 5.62500002C6.89500053 5.62500002 6.81250003 5.70750052 6.81250003 5.81250002L6.81250003 7.68750003C6.81250003 7.79249953 6.89500053 7.87500003 7.00000003 7.87500003 7.10499953 7.87500003 7.18750003 7.79249953 7.18750003 7.68750003L7.18750003 5.81250002C7.18750003 5.70750052 7.10499953 5.62500002 7.00000003 5.62500002L7.00000003 5.62500002zM7.00000003 8.62500004C6.89500053 8.62500004 6.81250003 8.70750054 6.81250003 8.81250004L6.81250003 10.6875C6.81250003 10.7924995 6.89500053 10.875 7.00000003 10.875 7.10499953 10.875 7.18750003 10.7924995 7.18750003 10.6875L7.18750003 8.81250004C7.18750003 8.70750054 7.10499953 8.62500004 7.00000003 8.62500004L7.00000003 8.62500004zM7.00000003 12.0000001C6.89500053 12.0000001 6.81250003 12.0825006 6.81250003 12.1875001L6.81250003 14.0625001C6.81250003 14.1674996 6.89500053 14.2500001 7.00000003 14.2500001 7.10499953 14.2500001 7.18750003 14.1674996 7.18750003 14.0625001L7.18750003 12.1875001C7.18750003 12.0825006 7.10499953 12.0000001 7.00000003 12.0000001L7.00000003 12.0000001zM7.00000003 15.7500001C6.89500053 15.7500001 6.81250003 15.8325006 6.81250003 15.9375001L6.81250003 17.8125001C6.81250003 17.9174996 6.89500053 18.0000001 7.00000003 18.0000001 7.10499953 18.0000001 7.18750003 17.9174996 7.18750003 17.8125001L7.18750003 15.9375001C7.18750003 15.8325006 7.10499953 15.7500001 7.00000003 15.7500001L7.00000003 15.7500001zM8.13999943 9.00000004C8.24499893 9.00000004 8.32749943 8.91749954 8.32749943 8.81250004L8.32749943 8.80499944 8.26000023 6.92999943C8.25249963 6.83249953 8.17000013 6.75000003 8.07250023 6.75000003 7.96750073 6.75000003 7.88500023 6.83250053 7.88500023 6.93750003 7.88500023 6.94500063 7.88500023 6.94500063 7.88500023 6.94500063L7.88500023 6.94500063 7.95249943 8.82000064C7.95249943 8.91749954 8.03499983 9.00000004 8.13999943 9.00000004L8.13999943 9.00000004zM8.25249963 12.0000001C8.35749913 12.0000001 8.43999964 11.9174995 8.43999964 11.8125L8.43999964 11.8049994 8.37250043 9.92999944C8.36499983 9.83249954 8.28250033 9.75000004 8.18500043 9.75000004 8.08000093 9.75000004 7.99750043 9.83250054 7.99750043 9.93750004 7.99750043 9.93750004 7.99750043 9.93750004 7.99750043 9.94500064L8.06499963 11.8200006C8.06499963 11.9174995 8.14750003 12.0000001 8.25249963 12.0000001L8.25249963 12.0000001zM8.30499943 13.1250001C8.19999993 13.1250001 8.11749943 13.2075006 8.11749943 13.3125001L8.11749943 13.3199998 8.18499953 15.1949998C8.19249923 15.2924996 8.27499873 15.3750001 8.37249953 15.3750001 8.47749904 15.3750001 8.55999954 15.2924996 8.55999954 15.1875001L8.55999954 15.1800004 8.49249944 13.3050004C8.49249944 13.2075006 8.40250024 13.1250001 8.30499943 13.1250001L8.30499943 13.1250001zM9.37749964 7.68750003C9.37749964 7.67999943 9.37749964 7.67999943 9.37749964 7.67250063L9.23500064 5.79750062C9.22750004 5.69999982 9.14500054 5.62500002 9.04750064 5.62500002 8.94250114 5.62500002 8.86000064 5.70750052 8.86000064 5.81250002 8.86000064 5.82000062 8.86000064 5.82000062 8.86000064 5.82749942L9.00249964 7.70249943C9.01000024 7.80000023 9.09249984 7.87500003 9.18999964 7.87500003 9.29500014 7.87500003 9.37749964 7.79249953 9.37749964 7.68750003L9.37749964 7.68750003zM9.60250004 10.6875C9.60250004 10.6875 9.60250004 10.6799994 9.60250004 10.6725006L9.46000014 8.79750064C9.45249944 8.69999984 9.37000084 8.62500004 9.27250004 8.62500004 9.16750054 8.62500004 9.08500004 8.70750054 9.08500004 8.81250004 9.08500004 8.82000064 9.08500004 8.82000064 9.08500004 8.82749944L9.22749994 10.7024994C9.23500064 10.8000002 9.31749924 10.875 9.41500004 10.875 9.52000054 10.875 9.60250004 10.7924995 9.60250004 10.6875L9.60250004 10.6875zM9.85750014 14.0625001C9.85750014 14.0625001 9.85750014 14.0550004 9.85750014 14.0474988L9.71500114 12.1724988C9.70750054 12.074999 9.62500094 11.999999 9.52750114 11.999999 9.42250164 11.999999 9.34000114 12.0824996 9.34000114 12.1874991 9.34000114 12.1949997 9.34000114 12.1949997 9.34000114 12.2024985L9.48250014 14.0774995C9.49000074 14.1749974 9.57250034 14.2499982 9.67000014 14.2499982 9.76749994 14.2499982 9.85750014 14.1674996 9.85750014 14.0625001L9.85750014 14.0625001zM9.99249944 15.9224988C9.98499874 15.8250009 9.90250024 15.7500001 9.80499944 15.7500001 9.69999994 15.7500001 9.61749944 15.8325006 9.61749944 15.9375001 9.61749944 15.9449998 9.61749944 15.9449998 9.61749944 15.9525014L9.75999934 17.8275014C9.76749994 17.9249993 9.84999854 18.0000001 9.94749934 18.0000001 10.0524988 18.0000001 10.1349993 17.9174996 10.1349993 17.8125001 10.1349993 17.8125001 10.1349993 17.8050004 10.1349993 17.7974988L9.99249944 15.9224988 9.99249944 15.9224988zM10.6000004 8.81250004C10.6000004 8.80499944 10.6000004 8.79750064 10.6000004 8.79000004L10.3899994 6.91500003C10.3824997 6.81749923 10.3000002 6.75000003 10.2024994 6.75000003 10.0974999 6.75000003 10.0149994 6.83250053 10.0149994 6.93750003 10.0149994 6.94500063 10.0149994 6.95249943 10.0149994 6.96000003L10.2250004 8.83500004C10.2325001 8.93250084 10.3149996 9.00000004 10.4125004 9.00000004 10.5174999 9.00000004 10.6000004 8.91749954 10.6000004 8.81250004L10.6000004 8.81250004zM10.9375 11.8125C10.9375 11.8049994 10.9375 11.7975006 10.9375 11.79L10.7275 9.91500004C10.7199994 9.81749924 10.6374998 9.75000004 10.54 9.75000004 10.4350005 9.75000004 10.3525 9.83250054 10.3525 9.93750004 10.3525 9.94500064 10.3525 9.95249944 10.3525 9.96000004L10.5625 11.835C10.5700006 11.9325008 10.6525002 12.0000001 10.75 12.0000001 10.8549995 12.0000001 10.9375 11.9174995 10.9375 11.8125L10.9375 11.8125zM11.1025 13.290001C11.0949994 13.1925012 11.0124998 13.125002 10.915 13.125002 10.8100005 13.125002 10.7275 13.2075006 10.7275 13.3125001 10.7275 13.3199998 10.7275 13.3275014 10.7275 13.3349992L10.9375 15.2099992C10.9524994 15.307499 11.0275002 15.3750001 11.125 15.3750001 11.2299995 15.3750001 11.3125 15.2924996 11.3125 15.1875001 11.3125 15.1800004 11.3125 15.1724988 11.3125 15.165001L11.1025 13.290001 11.1025 13.290001zM11.0950003 5.62500002C10.9900008 5.62500002 10.9075003 5.70750052 10.9075003 5.81250002 10.9075003 5.82000062 10.9075003 5.82749942 10.9075003 5.84249972L11.1925011 7.71749973C11.2075005 7.80749893 11.2825003 7.87500003 11.3800011 7.87500003 11.4850006 7.87500003 11.5675011 7.79249953 11.5675011 7.68750003 11.5675011 7.67999943 11.5675011 7.67250063 11.5675011 7.65750033L11.2825003 5.78250032C11.2674999 5.69249922 11.1924992 5.62500002 11.0950003 5.62500002L11.0950003 5.62500002zM12.0175 10.6875C12.0175 10.6799994 12.0175 10.6725006 12.0175 10.6575003L11.7324991 8.77499974C11.7174997 8.68500054 11.6424999 8.61749944 11.5449991 8.61749944 11.4399996 8.61749944 11.3574991 8.69999994 11.3574991 8.80499944 11.3574991 8.81250004 11.3574991 8.81999974 11.3574991 8.83499914L11.6424999 10.7174997C11.6574993 10.8074989 11.7324991 10.875 11.8299999 10.875 11.9350004 10.875 12.0175 10.7924995 12.0175 10.6875L12.0175 10.6875zM12.5200006 14.0625001C12.5200006 14.0550004 12.5200006 14.040001 12.5200006 14.0325013L12.2350008 12.1499997C12.2200005 12.0600005 12.1450006 11.9924993 12.0475008 11.9924993 11.9425012 11.9924993 11.8600007 12.0749999 11.8600007 12.1799994 11.8600007 12.1875 11.8600007 12.2024994 11.8600007 12.2099991L12.1450006 14.0924988C12.1599999 14.1825009 12.2350007 14.2500001 12.3325006 14.2500001 12.4375001 14.2500001 12.5200006 14.1674996 12.5200006 14.0625001L12.5200006 14.0625001zM13.0825006 17.790001L12.7975008 15.9075013C12.7825004 15.8174993 12.7075006 15.7500001 12.6100007 15.7500001 12.5050012 15.7500001 12.4225007 15.8325006 12.4225007 15.9375001 12.4225007 15.9449998 12.4225007 15.9525014 12.4225007 15.9674989L12.7075005 17.8500005C12.7224999 17.9400007 12.7975007 18.0074998 12.8950005 18.0074998 13 18.0074998 13.0825005 17.9249993 13.0825005 17.8199998 13.0825006 17.8050004 13.0825006 17.7974988 13.0825006 17.790001L13.0825006 17.790001z" transform="translate(2 3)"/>
  </g>
</svg>
