<svg xmlns="http://www.w3.org/2000/svg" width="24" height="24" viewBox="0 0 24 24">
  <g fill="none" fill-rule="evenodd">
    <path fill="#2D327D" d="M22.5,0 L1.5,0 C0.675000003,0 0,0.675000003 0,1.5 L0,22.5 C0,23.3250009 0.675000003,24 1.5,24 L22.5,24 C23.3250009,24 24,23.3250009 24,22.5 L24,1.5 C24,0.675000003 23.3250009,0 22.5,0 Z"/>
    <g fill="#FFF" transform="translate(3 3)">
      <polygon points="5.317 0 0 0 0 12.113 8.595 8.985"/>
      <path d="M17.2500001 11.7825003L17.040001 11.2124997C16.7999993 10.5600004 16.1850015 10.125 15.4874993 10.125L7.43999953 10.125 0 12.8325006 0 14.0325014C0 14.3850023.0600002003 14.7299997.180000101 15.0600016L1.125 17.6549989 6.55499943 15.682501 6.03750043 14.2574999 10.4775 14.2574999 17.2500001 11.7825003 17.2500001 11.7825003zM17.6250001 15.0000001L13.1250001 15.0000001C12.9150001 15.0000001 12.7500001 15.165001 12.7500001 15.3750001L12.7500001 16.1250001C12.7500001 16.3349992 12.9150001 16.5000001 13.1250001 16.5000001L14.2500001 16.5000001 14.2500001 18.0000001 16.5000001 18.0000001 16.5000001 16.5000001 17.6250001 16.5000001C17.8349992 16.5000001 18.0000001 16.3349992 18.0000001 16.1250001L18.0000001 15.3750001C18.0000001 15.165001 17.8349992 15.0000001 17.6250001 15.0000001L17.6250001 15.0000001z"/>
    </g>
  </g>
</svg>
