<svg xmlns="http://www.w3.org/2000/svg" width="24" height="24" viewBox="0 0 24 24">
  <g fill="none" fill-rule="evenodd">
    <path fill="#2D327D" d="M22.5,0 L1.5,0 C0.675000003,0 0,0.675000003 0,1.5 L0,22.5 C0,23.3250009 0.675000003,24 1.5,24 L22.5,24 C23.3250009,24 24,23.3250009 24,22.5 L24,1.5 C24,0.675000003 23.3250009,0 22.5,0 Z"/>
    <path fill="#FFF" d="M11.6575003 16.6525003L13.8550006 18.8500005 19.0750009 18.8500005 19.0750009 12.2799999C19.0750009 11.9875003 18.8424989 11.7549992 18.5499994 11.7549992 18.535 11.7549992 18.5275003 11.7549992 18.5125009 11.7549992 18.4674989 11.7549992 18.4224988 11.7624998 18.3775007 11.7775002 18.0475008 11.8975001 17.8225023 12.2199995 17.8225023 12.5725004L17.8225023 12.5874998 17.8225023 14.41C17.8225023 14.6349985 17.642502 14.8149988 17.4175016 14.8149988L16.3600008 14.8149988C16.1949999 14.8149988 16.0375025 14.7474996 15.9175016 14.6274988L12.5125028 11.222499C12.2875024 10.9974996 11.920003 10.9974996 11.6950026 11.222499 11.4700032 11.4474994 11.4700032 11.8149987 11.6950026 12.0399992L15.3175012 15.6624987 15.1225015 15.8649981 11.875 12.6325007 11.6575003 12.8500004C11.5675011 12.9475002 11.5150013 13.0749998 11.5150013 13.2024994 11.5150013 13.3374996 11.5675011 13.4650002 11.6575003 13.5549994L14.5525018 16.4500008 14.3500005 16.6525002 11.875 14.1775018 11.6575003 14.3950006C11.5675011 14.4925004 11.5150013 14.6124994 11.5150013 14.7475015 11.5150013 14.8824998 11.5675011 15.0100023 11.6575003 15.1000024L13.7800008 17.2225019 13.5850001 17.4250032 11.875 15.7225 11.6575003 15.9399988C11.5675011 16.0374986 11.5150013 16.1574976 11.5150013 16.2924997 11.5150013 16.4275018 11.5674992 16.5550004 11.6575003 16.6525003L11.6575003 16.6525003zM8.48500064 16.6525003L6.28750043 18.8500005 1.0675001 18.8500005 1.0675001 12.2799999C1.0675001 11.9875003 1.29999991 11.7549992 1.59250021 11.7549992 1.60749981 11.7549992 1.61500021 11.7549992 1.63000011 11.7549992 1.67499991 11.7549992 1.71999981 11.7624998 1.76500031 11.7775002 2.09500021 11.8975001 2.32000061 12.2199995 2.32000061 12.5725004L2.32000061 12.5874998 2.32000061 14.41C2.32000061 14.6349985 2.50000041 14.8149988 2.72500031 14.8149988L3.78250022 14.8149988C3.94750022 14.8149988 4.10500042 14.7474996 4.22500032 14.6274988L7.63000103 11.222499C7.85500043 10.9974996 8.22249983 10.9974996 8.44750024 11.222499 8.67250064 11.4474994 8.67250064 11.8149987 8.44750024 12.0399992L4.82499982 15.6624987 5.02000042 15.8649981 8.26000023 12.632498 8.48500064 12.8499977C8.57499984 12.9474985 8.62749964 13.0749981 8.62749964 13.2024977 8.62749964 13.3374979 8.57499984 13.4649975 8.48500064 13.5549977L5.58999972 16.450001 5.78500032 16.6525004 8.26000023 14.1775019 8.48500064 14.3950007C8.57499984 14.4925005 8.62749964 14.6124995 8.62749964 14.7475016 8.62749964 14.8824999 8.57499984 15.0100024 8.48500064 15.1000025L6.36250023 17.222502 6.55750083 17.4250033 8.26000023 15.722502 8.48500064 15.9400008C8.57499984 16.0375006 8.62749964 16.1575015 8.62749964 16.2925017 8.63500024 16.4275018 8.57499984 16.5550004 8.48500064 16.6525003L8.48500064 16.6525003zM1.81000021 8.02000053C1.81000021 7.78750043 1.66000031 7.58500013 1.57000041 7.45750053 1.49500041 7.34500033 1.45000051 7.27750113 1.45000051 7.19500073 1.45000051 6.96249973 1.67500061 6.79750073 1.74250081 6.7599997 2.03500081 6.57250033 2.20000081 6.31750113 2.20000081 6.04000003 2.20000081 5.76249982 2.03500081 5.50000002 1.74250081 5.31999932 1.55500081 5.19999892 1.45000051 5.04999882 1.45000051 4.89999872 1.45000051 4.74999912 1.55500081 4.59999902 1.74250081 4.47999912 2.03500081 4.29249912 2.20000081 4.03749902 2.20000081 3.7599997 2.20000081 3.48249911 2.03500081 3.21999931 1.74250081 3.03999901 1.55500081 2.91999911 1.45000051 2.76999951 1.45000051 2.61999941 1.45000051 2.46999931 1.55500081 2.31999921 1.74250081 2.19999931 2.03500081 2.01249931 2.20000081 1.75749921 2.20000081 1.47999951 2.20000081 1.20249981 2.03500081.939999804 1.74250081.759999703L1.55500081 1.0599997C1.74250081 1.1799996 1.84750081 1.32999941 1.84750081 1.47999951 1.84750081 1.62999961 1.74250081 1.77999951 1.55500081 1.89999931 1.26250051 2.08749951 1.0975008 2.34249971 1.0975008 2.61999931 1.0975008 2.89749891 1.26250051 3.15999881 1.55500081 3.33999911 1.74250081 3.45999901 1.84750081 3.60999912 1.84750081 3.7599997 1.84750081 3.90999882 1.74250081 4.05999892 1.55500081 4.17999882 1.26250051 4.36749882 1.0975008 4.62249892 1.0975008 4.89999862 1.0975008 5.17749882 1.26250051 5.43999862 1.55500081 5.61999932 1.74250081 5.73999972 1.84750081 5.88999982 1.84750081 6.03999993 1.84750081 6.18999953 1.74250081 6.34000013 1.55500081 6.46000003 1.45000051 6.52750013 1.0975008 6.78250023 1.0975008 7.20249943 1.0975008 7.40499973 1.1950011 7.54750063 1.27750091 7.66749963 1.35250091 7.77249913 1.42000111 7.87749963 1.45000131 8.03499903L.932501104 8.03499903 1.64500101 9.27249924 2.35750111 8.03499903 1.81000021 8.02000053 1.81000021 8.02000053zM4.21750022 8.02000053C4.21750022 7.78750043 4.06750012 7.58500013 3.97750042 7.45750053 3.90250022 7.34500033 3.85750062 7.27750113 3.85750062 7.19500063 3.85750062 6.96249963 4.08250052 6.79750063 4.15000062 6.7599996 4.44250062 6.57250023 4.60750062 6.31750103 4.60750062 6.03999993 4.60750062 5.76249972 4.44250062 5.49999992 4.15000062 5.31999922 3.96250062 5.19999882 3.85750062 5.04999872 3.85750062 4.89999862 3.85750062 4.74999902 3.96250062 4.59999892 4.15000062 4.47999902 4.44250062 4.29249902 4.60750062 4.03749892 4.60750062 3.7599996 4.60750062 3.48249901 4.44250062 3.21999921 4.15000062 3.03999891 3.96250062 2.91999901 3.85750062 2.76999941 3.85750062 2.61999931 3.85750062 2.46999921 3.96250062 2.31999911 4.15000062 2.19999921 4.44250062 2.01249921 4.60750062 1.75749911 4.60750062 1.47999941 4.60750062 1.20249971 4.44250062.939999704 4.15000062.759999603L3.96250062 1.0599996C4.15000062 1.1799995 4.25500062 1.32999931 4.25500062 1.47999941 4.25500062 1.62999951 4.15000062 1.77999941 3.96250062 1.89999921 3.67000062 2.08749941 3.50500061 2.34249961 3.50500061 2.61999921 3.50500061 2.89749881 3.67000062 3.15999871 3.96250062 3.33999901 4.15000062 3.45999891 4.25500062 3.60999902 4.25500062 3.7599996 4.25500062 3.90999872 4.15000062 4.05999882 3.96250062 4.17999872 3.67000062 4.36749872 3.50500061 4.62249882 3.50500061 4.89999852 3.50500061 5.17749872 3.67000062 5.43999852 3.96250062 5.61999922 4.15000062 5.73999962 4.25500062 5.88999972 4.25500062 6.03999983 4.25500062 6.18999943 4.15000062 6.34000003 3.96250062 6.45999993 3.85750062 6.52750003 3.50500061 6.78250013 3.50500061 7.20249933 3.50500061 7.40499963 3.60250092 7.54750053 3.68500092 7.66749953 3.76000072 7.77249903 3.82750082 7.87749953 3.85750102 8.03499893L3.34000111 8.03499893 4.05250072 9.27249914 4.76500082 8.03499893 4.21750022 8.02000053 4.21750022 8.02000053zM13.8400003 8.02000053C13.8400003 7.78750043 13.6899997 7.58500013 13.6000005 7.45750053 13.5249997 7.34500033 13.4799997 7.27750113 13.4799997 7.19500073 13.4799997 6.96249973 13.7050001 6.79750073 13.7724992 6.7599997 14.0649987 6.57250033 14.2299997 6.31750113 14.2299997 6.04000003 14.2299997 5.76249982 14.0650007 5.50000002 13.7724992 5.31999932 13.5849992 5.19999892 13.4799997 5.04999882 13.4799997 4.89999872 13.4799997 4.74999912 13.5849992 4.59999902 13.7724992 4.47999912 14.0649987 4.29249912 14.2299997 4.03749902 14.2299997 3.7599997 14.2299997 3.48249911 14.0650007 3.21999931 13.7724992 3.03999901 13.5849992 2.91999911 13.4799997 2.76999951 13.4799997 2.61999941 13.4799997 2.46999931 13.5849992 2.31999921 13.7724992 2.19999931 14.0649987 2.01249931 14.2299997 1.75749921 14.2299997 1.47999951 14.2299997 1.20249981 14.0650007.939999804 13.7724992.759999703L13.5849992 1.0599997C13.7724992 1.1799996 13.8774987 1.32999941 13.8774987 1.47999951 13.8774987 1.62999961 13.7724992 1.77999951 13.5849992 1.89999931 13.2924997 2.08749951 13.1274987 2.34249971 13.1274987 2.61999931 13.1274987 2.89749891 13.2924987 3.15999881 13.5849992 3.33999911 13.7724992 3.45999901 13.8774987 3.60999912 13.8774987 3.7599997 13.8774987 3.90999882 13.7724992 4.05999892 13.5849992 4.17999882 13.2924997 4.36749882 13.1274987 4.62249892 13.1274987 4.89999862 13.1274987 5.17749882 13.2924987 5.43999862 13.5849992 5.61999932 13.7724992 5.73999972 13.8774987 5.88999982 13.8774987 6.03999993 13.8774987 6.18999953 13.7724992 6.34000013 13.5849992 6.46000003 13.4799997 6.52750013 13.1274987 6.78250023 13.1274987 7.20249943 13.1274987 7.40499973 13.2249985 7.54750063 13.3074981 7.66749963 13.3824979 7.77249913 13.449998 7.87749963 13.4799987 8.03499903L12.9624988 8.03499903 13.6749994 9.27249924 14.3875009 8.03499903 13.8400003 8.02000053 13.8400003 8.02000053zM18.6549989 8.02000053C18.6549989 7.78750043 18.5049993 7.58500013 18.4149991 7.45750053 18.3399983 7.34500033 18.2949983 7.27750113 18.2949983 7.19500073 18.2949983 6.96249973 18.5199987 6.79750073 18.5874978 6.7599997 18.8799973 6.57250033 19.0449983 6.31750113 19.0449983 6.04000003 19.0449983 5.76249982 18.8799974 5.50000002 18.5874978 5.31999932 18.3999978 5.19999892 18.2949983 5.04999882 18.2949983 4.89999872 18.2949983 4.74999912 18.3999978 4.59999902 18.5874978 4.47999912 18.8799973 4.29249912 19.0449983 4.03749902 19.0449983 3.7599997 19.0449983 3.48249911 18.8799974 3.21999931 18.5874978 3.03999901 18.3999978 2.91999911 18.2949983 2.76999951 18.2949983 2.61999941 18.2949983 2.46999931 18.3999978 2.31999921 18.5874978 2.19999931 18.8799973 2.01249931 19.0449983 1.75749921 19.0449983 1.47999951 19.0449983 1.20249981 18.8799974.939999804 18.5874978.759999703L18.3999978 1.0599997C18.5874978 1.1799996 18.6924973 1.32999941 18.6924973 1.47999951 18.6924973 1.62999961 18.5874978 1.77999951 18.3999978 1.89999931 18.1074983 2.08749951 17.9424973 2.34249971 17.9424973 2.61999931 17.9424973 2.89749891 18.1074982 3.15999881 18.3999978 3.33999911 18.5874978 3.45999901 18.6924973 3.60999912 18.6924973 3.7599997 18.6924973 3.90999882 18.5874978 4.05999892 18.3999978 4.17999882 18.1074983 4.36749882 17.9424973 4.62249892 17.9424973 4.89999862 17.9424973 5.17749882 18.1074982 5.43999862 18.3999978 5.61999932 18.5874978 5.73999972 18.6924973 5.88999982 18.6924973 6.03999993 18.6924973 6.18999953 18.5874978 6.34000013 18.3999978 6.46000003 18.2949983 6.52750013 17.9424973 6.78250023 17.9424973 7.20249943 17.9424973 7.40499973 18.0399971 7.54750063 18.1224976 7.66749963 18.1974965 7.77249913 18.2649956 7.87749963 18.2949963 8.03499903L17.7774964 8.03499903 18.489996 9.27249924 19.2024956 8.03499903 18.6549989 8.02000053 18.6549989 8.02000053zM16.2474996 8.02000053C16.2474996 7.78750043 16.0975 7.58500013 16.0074979 7.45750053 15.932499 7.34500033 15.8874971 7.27750113 15.8874971 7.19500073 15.8874971 6.96249973 16.1124975 6.79750073 16.1799966 6.7599997 16.4724961 6.57250033 16.6374971 6.31750113 16.6374971 6.04000003 16.6374971 5.76249982 16.4724962 5.50000002 16.1799966 5.31999932 15.9924966 5.19999892 15.8874971 5.04999882 15.8874971 4.89999872 15.8874971 4.74999912 15.9924966 4.59999902 16.1799966 4.47999912 16.4724961 4.29249912 16.6374971 4.03749902 16.6374971 3.7599997 16.6374971 3.48249911 16.4724962 3.21999931 16.1799966 3.03999901 15.9924966 2.91999911 15.8874971 2.76999951 15.8874971 2.61999941 15.8874971 2.46999931 15.9924966 2.31999921 16.1799966 2.19999931 16.4724961 2.01249931 16.6374971 1.75749921 16.6374971 1.47999951 16.6374971 1.20249981 16.4724962.939999804 16.1799966.759999703L15.9924966 1.0599997C16.1799966 1.1799996 16.2849961 1.32999941 16.2849961 1.47999951 16.2849961 1.62999961 16.1799966 1.77999951 15.9924966 1.89999931 15.6999971 2.08749951 15.5349961 2.34249971 15.5349961 2.61999931 15.5349961 2.89749891 15.699997 3.15999881 15.9924966 3.33999911 16.1799966 3.45999901 16.2849961 3.60999912 16.2849961 3.7599997 16.2849961 3.90999882 16.1799966 4.05999892 15.9924966 4.17999882 15.6999971 4.36749882 15.5349961 4.62249892 15.5349961 4.89999862 15.5349961 5.17749882 15.699997 5.43999862 15.9924966 5.61999932 16.1799966 5.73999982 16.2849961 5.88999992 16.2849961 6.04000003 16.2849961 6.18999963 16.1799966 6.34000023 15.9924966 6.46000013 15.8874971 6.52750023 15.5349961 6.78250033 15.5349961 7.20249953 15.5349961 7.40499983 15.6324959 7.54750073 15.7149964 7.66749973 15.7899972 7.77249923 15.8499947 7.87749973 15.8874951 8.03499913L15.3699952 8.03499913 16.0824967 9.27249934 16.7949963 8.03499913 16.2474996 8.02000053 16.2474996 8.02000053zM9.03250034 8.02000053C9.03250034 7.78750043 8.88250074 7.58500013 8.79250054 7.45750053 8.71750074 7.34500033 8.67250064 7.27750113 8.67250064 7.19500073 8.67250064 6.96249973 8.89750004 6.79750073 8.96500014 6.7599997 9.25749964 6.57250033 9.42250064 6.31750113 9.42250064 6.04000003 9.42250064 5.76249982 9.25750064 5.50000002 8.96500014 5.31999932 8.77750014 5.19999892 8.67250064 5.04999882 8.67250064 4.89999872 8.67250064 4.74999912 8.77750014 4.59999902 8.96500014 4.47999912 9.25749964 4.29249912 9.42250064 4.03749902 9.42250064 3.7599997 9.42250064 3.48249911 9.25750064 3.21999931 8.96500014 3.03999901 8.77750014 2.91999911 8.67250064 2.76999951 8.67250064 2.61999941 8.67250064 2.46999931 8.77750014 2.31999921 8.96500014 2.19999931 9.25749964 2.01249931 9.42250064 1.75749921 9.42250064 1.47999951 9.42250064 1.20249981 9.25750064.939999804 8.96500014.759999703L8.77750014 1.0599997C8.96500014 1.1799996 9.06999964 1.32999941 9.06999964 1.47999951 9.06999964 1.62999961 8.96500014 1.77999951 8.77750014 1.89999931 8.48500064 2.08749951 8.31999963 2.34249971 8.31999963 2.61999931 8.31999963 2.89749891 8.48499864 3.15999881 8.77750014 3.33999911 8.96500014 3.45999901 9.06999964 3.60999912 9.06999964 3.7599997 9.06999964 3.90999882 8.96500014 4.05999892 8.77750014 4.17999882 8.48500064 4.36749882 8.31999963 4.62249892 8.31999963 4.89999862 8.31999963 5.17749882 8.48499864 5.43999862 8.77750014 5.61999932 8.96500014 5.73999972 9.06999964 5.88999982 9.06999964 6.03999993 9.06999964 6.18999953 8.96500014 6.34000013 8.77750014 6.46000003 8.67250064 6.52750013 8.31999963 6.78250023 8.31999963 7.20249943 8.31999963 7.40499973 8.41749944 7.54750063 8.49999904 7.66749963 8.57499884 7.77249913 8.64249804 7.87749963 8.67249874 8.03499903L8.15499973 8.03499903 8.86749934 9.27249924 9.57999994 8.03499903 9.03250034 8.02000053 9.03250034 8.02000053zM6.62500003 8.02000053C6.62500003 7.78750043 6.47500043 7.58500013 6.38500023 7.45750053 6.31000043 7.34500033 6.26499943 7.27750113 6.26499943 7.19500063 6.26499943 6.96249963 6.48999983 6.79750063 6.55749893 6.7599997 6.84999853 6.57250023 7.01499943 6.31750113 7.01499943 6.04000003 7.01499943 5.76249982 6.85000043 5.50000002 6.55749893 5.31999932 6.36999893 5.19999892 6.26499943 5.04999882 6.26499943 4.89999872 6.26499943 4.74999912 6.36999893 4.59999902 6.55749893 4.47999912 6.84999843 4.29249912 7.01499943 4.03749902 7.01499943 3.7599997 7.01499943 3.48249911 6.85000043 3.21999931 6.55749893 3.03999901 6.36999893 2.91999911 6.26499943 2.76999951 6.26499943 2.61999941 6.26499943 2.46999931 6.36999893 2.31999921 6.55749893 2.19999931 6.84999843 2.01249931 7.01499943 1.75749921 7.01499943 1.47999951 7.01499943 1.20249981 6.85000043.939999804 6.55749893.759999703L6.36999893 1.0599997C6.55749893 1.1799996 6.66249843 1.32999941 6.66249843 1.47999951 6.66249843 1.62999961 6.55749893 1.77999951 6.36999893 1.89999931 6.07749943 2.08749951 5.91249892 2.34249971 5.91249892 2.61999931 5.91249892 2.89749891 6.07749843 3.15999881 6.36999893 3.33999911 6.55749893 3.45999901 6.66249843 3.60999912 6.66249843 3.7599997 6.66249843 3.90999882 6.55749893 4.05999892 6.36999893 4.17999882 6.07749943 4.36749882 5.91249892 4.62249892 5.91249892 4.89999862 5.91249892 5.17749882 6.07749843 5.43999862 6.36999893 5.61999932 6.55749893 5.73999982 6.66249853 5.88999992 6.66249853 6.04000003 6.66249853 6.18999963 6.55749903 6.34000023 6.36999903 6.46000013 6.26499953 6.52750023 5.91249902 6.78250033 5.91249902 7.20249953 5.91249902 7.40499983 6.00999933 7.54750073 6.09249883 7.66749973 6.16749863 7.77249923 6.23499783 7.87749973 6.26499853 8.03499913L5.74749902 8.03499913 6.45999913 9.27249934 7.17249873 8.03499913 6.62500003 8.02000053 6.62500003 8.02000053zM11.4325008 8.02000053C11.4325008 7.78750043 11.2825002 7.58500013 11.192501 7.45750053 11.1175002 7.34500033 11.0725002 7.27750113 11.0725002 7.19500073 11.0725002 6.96249973 11.2975006 6.79750073 11.3649997 6.7599997 11.6574992 6.57250033 11.8225002 6.31750113 11.8225002 6.04000003 11.8225002 5.76249982 11.6575002 5.50000002 11.3649997 5.31999932 11.1774997 5.19999892 11.0725002 5.04999882 11.0725002 4.89999872 11.0725002 4.74999912 11.1774997 4.59999902 11.3649997 4.47999912 11.6574992 4.29249912 11.8225002 4.03749902 11.8225002 3.7599997 11.8225002 3.48249911 11.6575002 3.21999931 11.3649997 3.03999901 11.1774997 2.91999911 11.0725002 2.76999951 11.0725002 2.61999941 11.0725002 2.46999931 11.1774997 2.31999921 11.3649997 2.19999931 11.6574992 2.01249931 11.8225002 1.75749921 11.8225002 1.47999951 11.8225002 1.20249981 11.6575002.939999804 11.3649997.759999703L11.1774997 1.0599997C11.3649997 1.1799996 11.4699992 1.32999941 11.4699992 1.47999951 11.4699992 1.62999961 11.3649997 1.77999951 11.1774997 1.89999931 10.8850002 2.08749951 10.7199992 2.34249971 10.7199992 2.61999931 10.7199992 2.89749891 10.8849992 3.15999881 11.1774997 3.33999911 11.3649997 3.45999901 11.4699992 3.60999912 11.4699992 3.7599997 11.4699992 3.90999882 11.3649997 4.05999892 11.1774997 4.17999882 10.8850002 4.36749882 10.7199992 4.62249892 10.7199992 4.89999862 10.7199992 5.17749882 10.8849992 5.43999862 11.1774997 5.61999932 11.3649997 5.73999972 11.4699992 5.88999982 11.4699992 6.03999993 11.4699992 6.18999953 11.3649997 6.34000013 11.1774997 6.46000003 11.0725002 6.52750013 10.7199992 6.78250023 10.7199992 7.20249943 10.7199992 7.40499973 10.817499 7.54750063 10.8999986 7.66749963 10.9749984 7.77249913 11.0424985 7.87749963 11.0724992 8.03499903L10.5549993 8.03499903 11.2674999 9.27249924 11.9799995 8.03499903 11.4325008 8.02000053 11.4325008 8.02000053z" transform="translate(2 2)"/>
  </g>
</svg>
