<svg xmlns="http://www.w3.org/2000/svg" width="24" height="24" viewBox="0 0 24 24">
  <g fill="none" fill-rule="evenodd">
    <path fill="#2D327D" d="M22.5,0 L1.5,0 C0.675000003,0 0,0.675000003 0,1.5 L0,22.5 C0,23.3250009 0.675000003,24 1.5,24 L22.5,24 C23.3250009,24 24,23.3250009 24,22.5 L24,1.5 C24,0.675000003 23.3250009,0 22.5,0 Z"/>
    <g fill="#FFF" transform="translate(3 3)">
      <path d="M16.1474992,0 L3.00000001,0 C3.00000001,0 4.84500032,2.73750021 4.84500032,11.5424995 L6.74250033,11.5424995 L6.74250033,11.5424995 L7.23000053,11.5424995 C7.27500153,10.9949989 7.64250093,10.5149993 8.16750053,10.3274993 C8.25750073,10.2975005 8.35500053,10.2824992 8.45250134,10.2824992 C8.92500114,10.2824992 9.30750084,10.6649998 9.30750084,11.1374987 L9.30750084,11.5424995 L11.46,11.5424995 L17.9849988,11.5424995 C18.0150014,2.73750021 16.1474992,0 16.1474992,0 Z"/>
      <path d="M1.82250021,18.0000001 L0.315000301,16.4925004 C0.187500501,16.364998 0.1200004,16.1924993 0.1200004,16.0200006 C0.1200004,15.8400003 0.187500501,15.6749994 0.315000301,15.5475008 L0.525000602,15.3375017 L2.50500061,17.3175012 L2.73000051,17.0925027 L0.307500401,14.6700021 C0.180000801,14.5425016 0.1125007,14.3775026 0.1125007,14.1975042 C0.1125007,14.0175039 0.180000801,13.852503 0.307500401,13.7250044 L0.517500702,13.5150053 L3.41250041,16.4100058 L3.63749982,16.1850054 L0.292500001,12.840006 C0.165000401,12.7125055 0.0975003004,12.5475065 0.0975003004,12.3675052 C0.0975003004,12.1950055 0.165000401,12.0225049 0.292500001,11.8950053 L0.502500302,11.6850053 L4.32000072,15.5025065 L4.54500062,15.2775061 L0.210000601,10.9500057 C0.0825008003,10.8225061 0.0075007,10.6425058 0.0075007,10.4625055 C0.0075007,10.0800058 0.315000601,9.77250594 0.697500503,9.77250594 C0.877500604,9.77250594 1.0575006,9.84750574 1.1850007,9.97500624 L5.30250102,14.0850069 C5.43750122,14.2275049 5.63250092,14.3025057 5.82750162,14.3025057 L7.00500143,14.3025057 C7.29000123,14.3025057 7.52250043,14.0700056 7.52250043,13.7850058 L7.52250043,11.6775056 C7.52250043,11.2050058 7.82250063,10.7850057 8.26499983,10.6275054 C8.32500023,10.6050054 8.38500063,10.5975057 8.45249984,10.5975057 C8.76000064,10.5975057 9.0075007,10.8450061 9.0075007,11.152506 L9.0075007,18.0000001 L1.82250021,18.0000001 L1.82250021,18.0000001 Z"/>
    </g>
  </g>
</svg>
