<svg xmlns="http://www.w3.org/2000/svg" width="24" height="24" viewBox="0 0 24 24">
  <g fill="none" fill-rule="evenodd">
    <path fill="#2D327D" d="M22.5,0 L1.5,0 C0.675000003,0 0,0.675000003 0,1.5 L0,22.5 C0,23.3250009 0.675000003,24 1.5,24 L22.5,24 C23.3250009,24 24,23.3250009 24,22.5 L24,1.5 C24,0.675000003 23.3250009,0 22.5,0 Z"/>
    <g fill="#FFF" transform="translate(5 6)">
      <path d="M9.50499924 10.6049995C9.50499924 10.0949993 9.09249984 9.68249894 8.58249954 9.68249894 8.41749954 9.68249894 8.25999933 9.72749993 8.12499903 9.80249974 7.98249913 9.43500034 7.62249943 9.17250054 7.20249843 9.17250054 6.99249843 9.17250054 6.79749873 9.23999974 6.63249783 9.35249994 6.63249783 9.34499934 6.63249783 9.34499934 6.63249783 9.33749964 6.63249783 8.72249984 6.13749793 8.22749993 5.52249812 8.22749993 4.90749832 8.22749993 4.41249752 8.72249984 4.41249752 9.33749964 4.41249752 9.44249914 4.42749782 9.54750064 4.45749852 9.65250014 4.38249772 9.62999914 4.29999732 9.62250044 4.21749872 9.62250044 3.66999812 9.62250044 3.22749891 10.0650005 3.22749891 10.6124992 3.22749891 10.7625007 3.26499831 10.9049987 3.32499871 11.0325012 3.13749871 11.1225014 3.00249851 11.3174991 3.00249851 11.5424995 3.00249851 11.8500003 3.24999891 12.1049996 3.56499851 12.1049996 3.72249882 12.1049996 3.85749802 12.0450001 3.96249852 11.9399986 4.07499872 12.3974992 4.49499882 12.7425004 4.98999872 12.7425004 5.28999892 12.7425004 5.55999932 12.614998 5.75499812 12.4200002 5.85249892 12.7950002 6.18999853 13.0725023 6.59499833 13.0725023 6.98499773 13.0725023 7.31499863 12.8175012 7.42749883 12.4575006 7.54749873 12.5100023 7.67499923 12.5400011 7.80999943 12.5400011 8.31999963 12.5400011 8.73249914 12.1275007 8.73249914 11.6175023 8.73249914 11.5875016 8.73249914 11.5650006 8.72499854 11.5350018 9.15999984 11.4525013 9.50499924 11.0699997 9.50499924 10.6049995zM5.10250002 7.82999993L2.23750021 2.85000041 1.87749961 3.06000041C1.66749961 3.18000031 1.50999981 3.38250061 1.44249971 3.62250042 1.37499961 3.86250022 1.41249951 4.11000062 1.53249941 4.32749942L4.07499992 8.73750024C4.26249982 8.29500013 4.63749982 7.95750053 5.10250002 7.82999993zM3.84249972 9.21749974L1.59249971 5.30999942 1.23249911 5.51249882C1.0149994 5.63249962.864999304 5.83499902.797499203 6.07499883.737498803 6.31499863.76749897 6.56999963.887498904 6.77999873L2.83749871 10.1699981C2.99500041 9.70499994 3.37000081 9.34500034 3.84249972 9.21749974z"/>
      <path d="M13.3075009,4.25249962 C13.2250004,4.22999962 13.1350022,4.22249992 13.0450001,4.22999962 C12.3924999,4.28249942 11.8450011,4.73999982 11.6725005,5.36999902 L10.9150008,8.19749933 C10.8100013,8.57999994 10.4125012,8.81249914 10.0300006,8.70749954 L8.45500083,8.27999973 C8.19250103,8.20499993 7.96750063,8.03249933 7.83250043,7.80000023 L3.79750062,0.795000603 C3.67000011,0.570000602 3.46000001,0.412500402 3.21249961,0.345000301 C2.70249991,0.210000001 2.17000061,0.510000202 2.03500031,1.0275011 C1.96750071,1.27500101 2.00500061,1.53750131 2.12500001,1.76250121 L5.59749982,7.78500173 C6.22000023,7.81500053 6.74500083,8.20500183 6.97000023,8.74500174 C7.05250073,8.73000144 7.12750053,8.72250174 7.21000003,8.72250174 C7.64500043,8.72250174 8.05750083,8.92500114 8.32749943,9.26250074 C8.40999993,9.24750134 8.50000003,9.24000074 8.58249954,9.24000074 C9.34000014,9.24000074 9.95499994,9.85500054 9.95499994,10.6124992 C9.95499994,11.1599998 9.62500004,11.6400013 9.14499954,11.8575 C9.02499874,12.4950009 8.46999933,12.9750004 7.79499913,12.9750004 C7.74249933,12.9750004 7.68999963,12.9750004 7.64499953,12.9674988 C7.40499973,13.2974987 7.01499943,13.5074997 6.57999993,13.5074997 C6.18999963,13.5074997 5.82999992,13.335001 5.58249952,13.0499992 C5.39499952,13.1324997 5.18499952,13.1775016 4.97499852,13.1775016 C4.46499832,13.1775016 4.00749972,12.9225005 3.72999862,12.5249995 C3.66999821,12.5325011 3.60999781,12.5400008 3.54999921,12.5400008 C2.99499941,12.5400008 2.54499911,12.09 2.54499911,11.5350015 C2.54499911,11.3100011 2.61999941,11.0925023 2.76249881,10.9199998 L0.947499203,7.77000023 L0.594999202,7.97249963 C0.377499001,8.09250043 0.2274989,8.29499983 0.1599988,8.53499964 C0.0924986999,8.77499944 0.1299992,9.02250004 0.249999001,9.23999984 L1.41999861,11.3325005 L3.47499841,15.0074998 L11.1999988,15.0074998 L13.8474999,5.19750022 C13.9599992,4.79249952 13.7200013,4.36499982 13.3075009,4.25249962 Z"/>
    </g>
  </g>
</svg>
