<svg xmlns="http://www.w3.org/2000/svg" width="24" height="24" viewBox="0 0 24 24">
  <g fill="none" fill-rule="evenodd">
    <path fill="#2D327D" d="M22.5,0 L1.5,0 C0.675000003,0 0,0.675000003 0,1.5 L0,22.5 C0,23.3250009 0.675000003,24 1.5,24 L22.5,24 C23.3250009,24 24,23.3250009 24,22.5 L24,1.5 C24,0.675000003 23.3250009,0 22.5,0 Z"/>
    <g fill="#FFF" transform="translate(3 3)">
      <path fill-rule="nonzero" d="M11.79,10.9200001 L2.65500021,10.9200001 C2.53500031,10.7400007 2.33250001,10.6275005 2.09999991,10.6275005 C1.73250011,10.6275005 1.43249991,10.9275007 1.43249991,11.295 C1.43249991,11.6625003 1.73250011,11.9624995 2.09999991,11.9624995 C2.33999971,11.9624995 2.55000021,11.8274993 2.67000011,11.6399993 L4.69500072,11.6399993 L4.69500072,13.8599987 L1.88250071,13.8599987 L1.88250071,14.5724983 L11.790001,14.5724983 C12.7950003,14.5724983 13.6124994,13.7549991 13.6124994,12.749999 C13.6049996,11.7375002 12.7950002,10.9200001 11.79,10.9200001 Z M11.79,13.8450013 L5.39999962,13.8450013 L5.39999962,11.625 L11.7825002,11.625 C12.3975001,11.625 12.8925009,12.1200009 12.8925009,12.7350007 C12.8999996,13.3500005 12.3975001,13.8450013 11.79,13.8450013 Z"/>
      <rect width="1" height="18"/>
      <path d="M10.7775002,9.84749984 L9.68999964,8.76000024 L9.68999964,7.88250063 L10.4324989,8.62500004 C10.2524995,5.11499982 7.43249893,2.29500011 3.92249912,2.11499981 L4.66499852,2.85750011 L3.78749902,2.85750011 L2.69999891,1.77000001 L3.78749902,0.682499903 L4.66499862,0.682499903 L3.89999872,1.43999961 C7.79249963,1.61250021 10.9274989,4.74749902 11.0999985,8.63999944 L11.8574991,7.87500003 L11.8574991,8.75249964 L10.7775002,9.84749984 Z"/>
    </g>
  </g>
</svg>
