<svg xmlns="http://www.w3.org/2000/svg" width="24" height="24" viewBox="0 0 24 24">
  <g fill="none" fill-rule="evenodd">
    <path fill="#2D327D" d="M22.5,0 L1.5,0 C0.675000003,0 0,0.675000003 0,1.5 L0,22.5 C0,23.3250009 0.675000003,24 1.5,24 L22.5,24 C23.3250009,24 24,23.3250009 24,22.5 L24,1.5 C24,0.675000003 23.3250009,0 22.5,0 Z"/>
    <path fill="#FFF" d="M10 18.9925003C9.89500054 18.9925003 9.81250004 18.9099999 9.81250004 18.8050004L9.81250004 1.1800003C9.81250004 1.075 9.89500054.992500304 10 .992500304 10.1049995.992500304 10.1875 1.075 10.1875 1.1800003L10.1875 18.8050004C10.1875 18.9099999 10.1049995 18.9925003 10 18.9925003zM14.2150003 2.4850001C14.2150003 1.66000031 14.8900014.985000104 15.7150003.985000104 16.5400011.985000104 17.2150003 1.66000031 17.2150003 2.4850001 17.2150003 3.30999991 16.5400011 3.9850001 15.7150003 3.9850001 14.8824998 3.9850001 14.2150003 3.31750011 14.2150003 2.4850001L14.2150003 2.4850001zM19.0000001 5.87500002L19.0000001 10.9674997C19.0000001 11.2599993 18.7599984 11.5 18.4674989 11.5 18.1749994 11.5 17.9349996 11.2600002 17.9349996 10.9674997L17.9349996 6.62500003 17.4699975 6.62500003 17.4699975 18.227501C17.4699975 18.6550027 17.1249982 18.9925023 16.6974984 18.9925023 16.2699986 18.9925023 15.932499 18.6475011 15.932499 18.227501L15.932499 11.4775009 15.4449979 11.4775009 15.4449979 18.227501C15.4449979 18.6550027 15.0999986 18.9925023 14.6724988 18.9925023 14.244999 18.9925023 13.9074994 18.6475011 13.9074994 18.227501L13.9074994 6.62500003 13.4424992 6.62500003 13.4424992 10.9674997C13.4424992 11.2599992 13.2024994 11.5 12.9099989 11.5 12.6174994 11.5 12.3774986 11.2600002 12.3774986 10.9674997L12.3774986 10.9674997 12.3774986 5.87500002C12.3774986 5.05000022 13.0524988 4.37500002 13.8774986 4.37500002L17.5000001 4.37500002C18.3250009 4.37500002 19.0000001 5.05000022 19.0000001 5.87500002L19.0000001 5.87500002zM7.75750063 10.7049999C7.83250043 10.9149999 8.03499983 11.0574989 8.26000023 11.0574989 8.55249974 11.0574989 8.79250054 10.8174991 8.79250054 10.5249986 8.79250054 10.4649982 8.78499994 10.397499 8.76250084 10.3374986L8.76250084 10.3374986 6.92500113 5.35749822C6.70750143 4.76499842 6.14500143 4.37499812 5.51500082 4.37499812L3.82000112 4.37499812C3.19000101 4.37499812 2.62750101 4.76499842 2.41000131 5.35749822L2.41000131 5.35749822.572501402 10.3374977C.550001102 10.3974981.542501202 10.4574985.542501202 10.5249977.542501202 10.8174972.782501003 11.057498 1.0750012 11.057498 1.30000111 11.057498 1.50250101 10.914999 1.57750081 10.704998L1.57750081 10.704998 3.07750081 6.62499813 3.58000091 6.62499813.955000704 13.7499982 2.88250071 13.7499982 2.88250071 18.2349969C2.88250071 18.6624986 3.22750051 19.0000001 3.65500072 19.0000001 4.08250052 19.0000001 4.42000062 18.654997 4.42000062 18.2349969L4.42000062 13.7500001 4.90750032 13.7500001 4.90750032 18.2349988C4.90750032 18.6625005 5.25250102 19.0000001 5.67250012 19.0000001 6.10000033 19.0000001 6.44500063 18.6549989 6.44500063 18.2349988L6.44500063 13.7500001 8.37250043 13.7500001 5.74750042 6.62500003 6.25000003 6.62500003 7.75750063 10.7049999 7.75750063 10.7049999zM6.14500051 2.4850001C6.14500051 1.66000031 5.47000032.985000104 4.64500051.985000104 3.82000072.985000104 3.14500051 1.66000031 3.14500051 2.4850001 3.14500051 3.30999991 3.82000072 3.9850001 4.64500051 3.9850001 5.47000032 3.9850001 6.14500051 3.31750011 6.14500051 2.4850001L6.14500051 2.4850001z" transform="translate(2 2)"/>
  </g>
</svg>
