<svg xmlns="http://www.w3.org/2000/svg" width="24" height="24" viewBox="0 0 24 24">
  <g fill="none" fill-rule="evenodd">
    <path fill="#2D327D" d="M22.5,0 L1.5,0 C0.675000003,0 0,0.675000003 0,1.5 L0,22.5 C0,23.3250009 0.675000003,24 1.5,24 L22.5,24 C23.3250009,24 24,23.3250009 24,22.5 L24,1.5 C24,0.675000003 23.3250009,0 22.5,0 Z"/>
    <path fill="#FFF" d="M5.50000001 2.4850001C5.50000001 1.66000031 4.82499982.985000104 4.00000001.985000104 3.17500021.985000104 2.50000001 1.66000031 2.50000001 2.4850001 2.50000001 3.30999991 3.17500021 3.9850001 4.00000001 3.9850001 4.82499982 3.9850001 5.50000001 3.31750011 5.50000001 2.4850001L5.50000001 2.4850001zM.685000403 5.87500002L.685000403 10.9674997C.685000403 11.2599993.925000204 11.5 1.21750071 11.5 1.51000021 11.5 1.75000101 11.2600002 1.75000101 10.9674997L1.75000101 6.62500003 2.21500121 6.62500003 2.21500121 18.2349988C2.21500121 18.6625005 2.56000151 19.0000001 2.98750121 19.0000001 3.41500091 19.0000001 3.75250062 18.6549989 3.75250062 18.2349988L3.75250062 11.4849987 4.24000082 11.4849987 4.24000082 18.2349988C4.24000082 18.6625005 4.58500112 19.0000001 5.01250082 19.0000001 5.44000052 19.0000001 5.77750112 18.6549989 5.77750112 18.2349988L5.77750112 6.62500003 6.25000093 6.62500003 6.25000093 10.9674997C6.25000093 11.2599992 6.49000073 11.5 6.78250123 11.5 7.07500073 11.5 7.31500243 11.2600002 7.31500243 10.9674997L7.31500243 10.9674997 7.31500243 5.87500002C7.31500243 5.05000022 6.64000223 4.37500002 5.81500242 4.37500002L2.17750161 4.37500002C1.35250001 4.37500002.685000403 5.05000022.685000403 5.87500002L.685000403 5.87500002zM13.0000001.992500104C12.8950006.992500104 12.8125001 1.0750001 12.8125001 1.1800001L12.8125001 6.94000033C12.7825013 6.94750093 12.7525006 6.97000003 12.7374993 6.9925001L12.7374993 6.9925001 11.8900013 7.89250073 11.8900013 7.89250073C11.8075008 7.97500123 11.7475014 8.03499973 11.7250004 8.15500053 11.7174988 8.20000063 11.7099991 8.28250013 11.7099991 8.33499993 11.6274986 10.8924998 10.7124996 11.7700003 10.3449974 11.9199999 10.2924976 11.9425009 10.0149994 12.0775012 10.0374985 12.4374999 10.1574974 14.4400004 11.244999 16.0825004 12.4224969 16.0825004L12.8124982 16.0825004 12.8124982 18.8125001C12.8124982 18.9174996 12.8949987 19.0000001 12.9999982 19.0000001 13.1049977 19.0000001 13.1874982 18.9174996 13.1874982 18.8125001L13.1874982 1.1875C13.1874982 1.0825 13.1049996.992500104 13.0000001.992500104z" transform="translate(8 2)"/>
  </g>
</svg>
