<?xml version="1.0" encoding="utf-8"?>
<!-- Generator: Adobe Illustrator 24.2.0, SVG Export Plug-In . SVG Version: 6.00 Build 0)  -->
<svg version="1.0" id="Ebene_1" xmlns="http://www.w3.org/2000/svg" xmlns:xlink="http://www.w3.org/1999/xlink" x="0px" y="0px"
	 viewBox="0 0 400 400.001" enable-background="new 0 0 400 400.001" xml:space="preserve">
<rect id="background-blue" fill="#2D327D" width="400" height="400"/>
<g id="content">
	<path id="frameWhite" fill="#FFFFFF" d="M340,40c11,0,20,9,20,20v280c0,11-9,20-20,20H60c-11,0-20-9-20-20V60c0-11,9-20,20-20H340
		 M340,35H60c-13.785,0-25,11.215-25,25v280c0,13.785,11.215,25,25,25h280c13.785,0,25-11.215,25-25V60
		C365,46.215,353.785,35,340,35L340,35z"/>
	<path fill="#FFFFFF" d="M123.541,115.14c-9.66,0-17.501-7.839-17.501-17.501c0-9.66,7.841-17.497,17.501-17.497
		c9.66,0,17.498,7.838,17.498,17.497C141.039,107.301,133.201,115.14,123.541,115.14L123.541,115.14z"/>
	<path fill="#FFFFFF" d="M105.992,256.129V154.494l-11,14.5v36.001c0,3.586-2.911,6.5-6.501,6.5c-3.586,0-6.501-2.913-6.501-6.5
		v-41.146c0-2.182,0.717-4.305,2.036-6.045l21.032-27.724v-0.001c3.779-4.983,9.677-7.912,15.934-7.912
		c11.042,0,19.999,8.961,19.999,20v70.337l20.571,20.571l0,0c1.877,1.873,2.932,4.418,2.932,7.069v56.601
		c0,5.106-4.144,9.248-9.25,9.248c-5.106,0-9.25-4.142-9.25-9.248v-50.25l-20.002-20.002v29.822c0,1.926-0.555,3.81-1.602,5.428
		l-31.75,49.132l0,0c-1.705,2.635-4.63,4.229-7.769,4.229c-5.105,0-9.25-4.143-9.25-9.25c0-1.781,0.513-3.524,1.481-5.02
		L105.992,256.129L105.992,256.129z"/>
	<path fill="#FFFFFF" d="M163.742,194.724c-0.782,0-1.56-0.136-2.298-0.403l-11.951-4.327v-14.356l16.547,5.989
		c2.67,0.966,4.451,3.504,4.451,6.347C170.491,191.699,167.466,194.724,163.742,194.724L163.742,194.724z"/>
	<polygon fill="#FFFFFF" points="274.492,282.993 228.992,282.993 228.992,301.494 183.493,301.494 183.493,319.994 
		128.992,319.994 128.992,310.994 174.491,310.994 174.491,292.495 219.99,292.495 219.99,273.995 265.492,273.995 265.492,255.493 
		319.992,255.493 319.992,264.493 274.492,264.493 274.492,282.993 	"/>
</g>
</svg>
