<?xml version="1.0" encoding="utf-8"?>
<!-- Generator: Adobe Illustrator 24.2.0, SVG Export Plug-In . SVG Version: 6.00 Build 0)  -->
<svg version="1.0" id="Ebene_1" xmlns="http://www.w3.org/2000/svg" xmlns:xlink="http://www.w3.org/1999/xlink" x="0px" y="0px"
	 viewBox="0 0 400 400.002" enable-background="new 0 0 400 400.002" xml:space="preserve">
<rect id="background-blue" fill="#2D327D" width="400" height="400"/>
<g id="content">
	<path id="frameWhite" fill="#FFFFFF" d="M340,40c11,0,20,9,20,20v280c0,11-9,20-20,20H60c-11,0-20-9-20-20V60c0-11,9-20,20-20H340
		 M340,35H60c-13.785,0-25,11.215-25,25v280c0,13.785,11.215,25,25,25h280c13.785,0,25-11.215,25-25V60
		C365,46.215,353.785,35,340,35L340,35z"/>
	<path fill="#FFFFFF" d="M276.449,115.141c9.659,0,17.501-7.839,17.501-17.501c0-9.66-7.842-17.497-17.501-17.497
		c-9.66,0-17.498,7.838-17.498,17.497C258.952,107.301,266.789,115.141,276.449,115.141L276.449,115.141z"/>
	<path fill="#FFFFFF" d="M293.998,256.129V154.494l10.999,14.5v36.001c0,3.586,2.911,6.5,6.501,6.5c3.586,0,6.502-2.913,6.502-6.5
		v-41.146c0-2.182-0.717-4.305-2.037-6.045l-21.032-27.724v-0.001c-3.779-4.983-9.677-7.912-15.933-7.912
		c-11.042,0-19.999,8.961-19.999,20v70.336l-20.571,20.571l0,0c-1.878,1.873-2.932,4.418-2.932,7.069v56.601
		c0,5.106,4.144,9.248,9.249,9.248c5.106,0,9.251-4.142,9.251-9.248v-50.25l20.002-20.002v29.822c0,1.926,0.555,3.81,1.602,5.428
		l31.75,49.132l0,0c1.705,2.635,4.63,4.229,7.769,4.229c5.105,0,9.249-4.143,9.249-9.25c0-1.781-0.513-3.524-1.481-5.02
		L293.998,256.129L293.998,256.129z"/>
	<path fill="#FFFFFF" d="M236.248,194.724c0.782,0,1.561-0.136,2.298-0.403l11.951-4.327v-14.356l-16.547,5.989
		c-2.67,0.966-4.451,3.504-4.451,6.347C229.499,191.699,232.524,194.724,236.248,194.724L236.248,194.724z"/>
	<polygon fill="#FFFFFF" points="125.498,282.994 170.998,282.994 170.998,301.494 216.498,301.494 216.498,319.994 
		270.998,319.994 270.998,310.994 225.5,310.994 225.5,292.496 180,292.496 180,273.995 134.498,273.995 134.498,255.494 
		79.999,255.494 79.999,264.494 125.498,264.494 125.498,282.994 	"/>
</g>
</svg>
