<?xml version="1.0" encoding="utf-8"?>
<!-- Generator: Adobe Illustrator 24.2.0, SVG Export Plug-In . SVG Version: 6.00 Build 0)  -->
<svg version="1.0" id="Ebene_1" xmlns="http://www.w3.org/2000/svg" xmlns:xlink="http://www.w3.org/1999/xlink" x="0px" y="0px"
	 viewBox="0 0 400 400.001" enable-background="new 0 0 400 400.001" xml:space="preserve">
<rect id="background-blue" fill="#2D327D" width="400" height="400"/>
<g id="content">
	<path id="frameWhite" fill="#FFFFFF" d="M340,40c11,0,20,9,20,20v280c0,11-9,20-20,20H60c-11,0-20-9-20-20V60c0-11,9-20,20-20H340
		 M340,35H60c-13.785,0-25,11.215-25,25v280c0,13.785,11.215,25,25,25h280c13.785,0,25-11.215,25-25V60
		C365,46.215,353.785,35,340,35L340,35z"/>
	<polygon fill="#FFFFFF" points="265.529,274.028 220.017,274.028 220.017,292.532 174.507,292.532 174.507,311.035 
		128.995,311.035 128.995,320.038 183.509,320.038 183.509,301.535 229.019,301.535 229.019,283.029 274.53,283.029 274.53,264.524 
		320.041,264.524 320.041,255.523 265.529,255.523 265.529,274.028 	"/>
	<path fill="#FFFFFF" d="M87.041,194.172c0.892,0,1.776-0.179,2.602-0.524l7.345-3.067v-14.635l-12.55,5.242
		c-2.512,1.051-4.149,3.508-4.149,6.23C80.288,191.148,83.314,194.172,87.041,194.172L87.041,194.172z"/>
	<path fill="#FFFFFF" d="M89.235,320.038c5.109,0,9.252-4.146,9.252-9.253v-43.758l21.506-37.011v31.313
		c0,1.837,0.505,3.635,1.458,5.203l21.234,34.883l0,0c1.678,2.757,4.674,4.442,7.903,4.442c5.107,0,9.252-4.146,9.252-9.256
		c0-1.696-0.467-3.358-1.349-4.811l-18.494-30.38V151.878l10.003,14.502v36.632c0,3.861,3.136,7,7.002,7c3.865,0,7-3.139,7-7
		v-38.756c0-2.028-0.615-4.011-1.768-5.681l-20.772-30.119c-3.735-5.415-9.891-8.648-16.468-8.648
		c-11.044,0-20.005,8.963-20.005,20.004v76.206l-23.653,40.703l0,0c-0.885,1.529-1.354,3.264-1.354,5.028v49.035
		C79.983,315.892,84.129,320.038,89.235,320.038L89.235,320.038z"/>
	<path fill="#FFFFFF" d="M122.365,115.136c9.662,0,17.505-7.843,17.505-17.505c0-9.664-7.843-17.502-17.505-17.502
		c-9.662,0-17.504,7.838-17.504,17.502C104.861,107.293,112.702,115.136,122.365,115.136L122.365,115.136z"/>
</g>
</svg>
