<?xml version="1.0" encoding="utf-8"?>
<!-- Generator: Adobe Illustrator 24.2.0, SVG Export Plug-In . SVG Version: 6.00 Build 0)  -->
<svg version="1.0" id="Ebene_1" xmlns="http://www.w3.org/2000/svg" xmlns:xlink="http://www.w3.org/1999/xlink" x="0px" y="0px"
	 viewBox="0 0 400 400.001" enable-background="new 0 0 400 400.001" xml:space="preserve">
<rect id="background-blue" fill="#2D327D" width="400" height="400"/>
<g id="content">
	<path id="frameWhite" fill="#FFFFFF" d="M340,40c11,0,20,9,20,20v280c0,11-9,20-20,20H60c-11,0-20-9-20-20V60c0-11,9-20,20-20H340
		 M340,35H60c-13.785,0-25,11.215-25,25v280c0,13.785,11.215,25,25,25h280c13.785,0,25-11.215,25-25V60
		C365,46.215,353.785,35,340,35L340,35z"/>
	<polygon fill="#FFFFFF" points="134.501,274.028 180.013,274.028 180.013,292.532 225.524,292.532 225.524,311.035 
		271.036,311.035 271.036,320.038 216.521,320.038 216.521,301.535 171.011,301.535 171.011,283.029 125.501,283.029 
		125.501,264.524 79.989,264.524 79.989,255.523 134.501,255.523 134.501,274.028 	"/>
	<path fill="#FFFFFF" d="M312.99,194.172c-0.892,0-1.776-0.179-2.602-0.524l-7.345-3.067v-14.635l12.55,5.242
		c2.512,1.051,4.149,3.508,4.149,6.23C319.742,191.148,316.717,194.172,312.99,194.172L312.99,194.172z"/>
	<path fill="#FFFFFF" d="M310.795,320.038c-5.108,0-9.252-4.146-9.252-9.253v-43.758l-21.506-37.011v31.313
		c0,1.837-0.505,3.635-1.458,5.203l-21.234,34.883l0,0c-1.678,2.757-4.675,4.442-7.903,4.442c-5.107,0-9.253-4.146-9.253-9.256
		c0-1.696,0.467-3.358,1.349-4.811l18.494-30.38V151.878l-10.003,14.502v36.632c0,3.861-3.136,7-7.002,7c-3.865,0-7-3.139-7-7
		v-38.756c0-2.028,0.615-4.011,1.767-5.681l20.773-30.119c3.735-5.415,9.891-8.648,16.468-8.648
		c11.044,0,20.006,8.963,20.006,20.004v76.206l23.653,40.703l0,0c0.885,1.529,1.354,3.264,1.354,5.028v49.035
		C320.047,315.892,315.902,320.038,310.795,320.038L310.795,320.038z"/>
	<path fill="#FFFFFF" d="M277.666,115.136c-9.663,0-17.505-7.843-17.505-17.505c0-9.664,7.842-17.502,17.505-17.502
		c9.662,0,17.503,7.838,17.503,17.502C295.169,107.293,287.328,115.136,277.666,115.136L277.666,115.136z"/>
</g>
</svg>
