<?xml version="1.0" encoding="utf-8"?>
<!-- Generator: Adobe Illustrator 24.2.0, SVG Export Plug-In . SVG Version: 6.00 Build 0)  -->
<svg version="1.0" id="Ebene_1" xmlns="http://www.w3.org/2000/svg" xmlns:xlink="http://www.w3.org/1999/xlink" x="0px" y="0px"
	 viewBox="0 0 400 400.001" enable-background="new 0 0 400 400.001" xml:space="preserve">
<rect id="background-blue" fill="#2D327D" width="400" height="400"/>
<g id="content">
	<path id="frameWhite" fill="#FFFFFF" d="M340,40c11,0,20,9,20,20v280c0,11-9,20-20,20H60c-11,0-20-9-20-20V60c0-11,9-20,20-20H340
		 M340,35H60c-13.785,0-25,11.215-25,25v280c0,13.785,11.215,25,25,25h280c13.785,0,25-11.215,25-25V60
		C365,46.215,353.785,35,340,35L340,35z"/>
	<path fill="#FFFFFF" d="M123.28,115.023c-9.663,0-17.497-7.843-17.497-17.501c0-9.66,7.834-17.501,17.497-17.501
		c9.664,0,17.498,7.841,17.498,17.501C140.777,107.181,132.943,115.023,123.28,115.023L123.28,115.023z"/>
	<polygon fill="#FFFFFF" points="319.988,319.999 128.985,319.999 128.985,311.163 319.988,280.002 319.988,319.999 	"/>
	<path fill="#FFFFFF" d="M105.985,256.135V153.502l-10.993,13.997v37.5c0,3.588-2.915,6.501-6.501,6.501
		c-3.59,0-6.501-2.913-6.501-6.501v-42.582c0-2.243,0.748-4.416,2.136-6.177l21.139-26.902c3.793-4.827,9.591-7.643,15.72-7.643
		c11.042,0,20.006,8.957,20.006,19.999v67.281l20.564,20.572c1.878,1.873,2.932,4.415,2.932,7.069v52.133
		c0,5.106-4.141,9.248-9.247,9.248s-9.247-4.142-9.247-9.248v-45.785l-20.002-19.997v33.357c0,1.974-0.582,3.907-1.685,5.549
		l-31.674,49.008c-1.702,2.635-4.623,4.231-7.769,4.231c-5.102,0-9.247-4.142-9.247-9.254c0-1.779,0.52-3.522,1.481-5.02
		L105.985,256.135L105.985,256.135z"/>
	<path fill="#FFFFFF" d="M163.739,193.93c-0.786,0-1.564-0.134-2.294-0.403l-11.958-4.327v-14.357l16.547,5.993
		c2.67,0.965,4.458,3.504,4.458,6.343C170.491,190.905,167.466,193.93,163.739,193.93L163.739,193.93z"/>
</g>
</svg>
