<?xml version="1.0" encoding="utf-8"?>
<!-- Generator: Adobe Illustrator 24.2.0, SVG Export Plug-In . SVG Version: 6.00 Build 0)  -->
<svg version="1.0" id="Ebene_1" xmlns="http://www.w3.org/2000/svg" xmlns:xlink="http://www.w3.org/1999/xlink" x="0px" y="0px"
	 viewBox="0 0 400 400.001" enable-background="new 0 0 400 400.001" xml:space="preserve">
<rect id="background-blue" fill="#2D327D" width="400" height="400"/>
<g id="content">
	<path id="frameWhite" fill="#FFFFFF" d="M340,40c11,0,20,9,20,20v280c0,11-9,20-20,20H60c-11,0-20-9-20-20V60c0-11,9-20,20-20H340
		 M340,35H60c-13.785,0-25,11.215-25,25v280c0,13.785,11.215,25,25,25h280c13.785,0,25-11.215,25-25V60
		C365,46.215,353.785,35,340,35L340,35z"/>
	<path fill="#FFFFFF" d="M276.711,115.023c9.663,0,17.497-7.843,17.497-17.501c0-9.66-7.834-17.501-17.497-17.501
		c-9.664,0-17.498,7.841-17.498,17.501C259.213,107.181,267.047,115.023,276.711,115.023L276.711,115.023z"/>
	<polygon fill="#FFFFFF" points="80.002,319.999 271.006,319.999 271.006,311.163 80.002,280.002 80.002,319.999 	"/>
	<path fill="#FFFFFF" d="M294.005,256.135V153.502l10.993,13.997v37.5c0,3.588,2.915,6.501,6.502,6.501
		c3.59,0,6.501-2.913,6.501-6.501v-42.582c0-2.243-0.748-4.416-2.136-6.177l-21.14-26.902c-3.793-4.827-9.59-7.643-15.719-7.643
		c-11.042,0-20.006,8.957-20.006,19.999v67.281l-20.564,20.572c-1.878,1.873-2.932,4.415-2.932,7.069v52.133
		c0,5.106,4.141,9.248,9.247,9.248c5.106,0,9.247-4.142,9.247-9.248v-45.785l20.002-19.997v33.357c0,1.974,0.583,3.907,1.685,5.549
		l31.674,49.008c1.702,2.635,4.623,4.231,7.769,4.231c5.102,0,9.247-4.142,9.247-9.254c0-1.779-0.52-3.522-1.481-5.02
		L294.005,256.135L294.005,256.135z"/>
	<path fill="#FFFFFF" d="M236.251,193.93c0.786,0,1.565-0.134,2.294-0.403l11.959-4.327v-14.357l-16.547,5.993
		c-2.67,0.965-4.457,3.504-4.457,6.343C229.499,190.905,232.524,193.93,236.251,193.93L236.251,193.93z"/>
</g>
</svg>
