<?xml version="1.0" encoding="utf-8"?>
<!-- Generator: Adobe Illustrator 24.2.0, SVG Export Plug-In . SVG Version: 6.00 Build 0)  -->
<svg version="1.0" id="Ebene_1" xmlns="http://www.w3.org/2000/svg" xmlns:xlink="http://www.w3.org/1999/xlink" x="0px" y="0px"
	 viewBox="0 0 400 400.001" enable-background="new 0 0 400 400.001" xml:space="preserve">
<rect id="background-blue" fill="#2D327D" width="400" height="400"/>
<g id="content">
	<path id="frameWhite" fill="#FFFFFF" d="M340,40c11,0,20,9,20,20v280c0,11-9,20-20,20H60c-11,0-20-9-20-20V60c0-11,9-20,20-20H340
		 M340,35H60c-13.785,0-25,11.215-25,25v280c0,13.785,11.215,25,25,25h280c13.785,0,25-11.215,25-25V60
		C365,46.215,353.785,35,340,35L340,35z"/>
	<polygon fill="#FFFFFF" points="319.998,320.007 129.994,320.007 129.994,312.018 319.998,281.019 319.998,320.007 	"/>
	<path fill="#FFFFFF" d="M86.863,194.722c-3.717,0-6.74-3.025-6.74-6.751c0-2.706,1.617-5.152,4.105-6.21l12.771-5.424v14.668
		l-7.49,3.18C88.677,194.541,87.769,194.722,86.863,194.722L86.863,194.722z"/>
	<path fill="#FFFFFF" d="M104.998,214.018v-74.459c0-11.038,8.961-19.999,20.002-19.999c6.511,0,12.605,3.168,16.361,8.489
		l20.815,29.59c1.183,1.687,1.822,3.693,1.822,5.757v39.857c0,3.728-3.025,6.752-6.751,6.752c-3.727,0-6.751-3.025-6.751-6.752
		v-37.009l-9.498-13.501v103.261l17.644,30.119c0.861,1.463,1.304,3.116,1.304,4.801c0,5.243-4.253,9.506-9.496,9.506
		c-3.376,0-6.492-1.795-8.194-4.697l-19.882-33.941c-0.897-1.526-1.378-3.274-1.378-5.049V226.29l-22,37.86v43.855
		c0,5.243-4.255,9.496-9.498,9.496c-5.243,0-9.496-4.253-9.496-9.496v-48.267c0-1.765,0.462-3.495,1.35-5.021L104.998,214.018
		L104.998,214.018z"/>
	<path fill="#FFFFFF" d="M122.153,114.748c-9.655,0-17.498-7.837-17.498-17.501c0-9.66,7.843-17.498,17.498-17.498
		c9.663,0,17.496,7.838,17.496,17.498C139.649,106.91,131.816,114.748,122.153,114.748L122.153,114.748z"/>
</g>
</svg>
