<?xml version="1.0" encoding="utf-8"?>
<!-- Generator: Adobe Illustrator 24.2.0, SVG Export Plug-In . SVG Version: 6.00 Build 0)  -->
<svg version="1.0" id="Ebene_1" xmlns="http://www.w3.org/2000/svg" xmlns:xlink="http://www.w3.org/1999/xlink" x="0px" y="0px"
	 viewBox="0 0 400 400.001" enable-background="new 0 0 400 400.001" xml:space="preserve">
<rect id="background-blue" fill="#2D327D" width="400" height="400"/>
<g id="content">
	<path id="frameWhite" fill="#FFFFFF" d="M340,40c11,0,20,9,20,20v280c0,11-9,20-20,20H60c-11,0-20-9-20-20V60c0-11,9-20,20-20H340
		 M340,35H60c-13.785,0-25,11.215-25,25v280c0,13.785,11.215,25,25,25h280c13.785,0,25-11.215,25-25V60
		C365,46.215,353.785,35,340,35L340,35z"/>
	<polygon fill="#FFFFFF" points="80.002,320.007 270.006,320.007 270.006,312.018 80.002,281.019 80.002,320.007 	"/>
	<path fill="#FFFFFF" d="M313.137,194.722c3.717,0,6.74-3.025,6.74-6.751c0-2.706-1.617-5.152-4.105-6.21l-12.771-5.424v14.668
		l7.49,3.18C311.323,194.541,312.231,194.722,313.137,194.722L313.137,194.722z"/>
	<path fill="#FFFFFF" d="M295.002,214.018v-74.459c0-11.038-8.961-19.999-20.002-19.999c-6.511,0-12.606,3.168-16.361,8.489
		l-20.815,29.59c-1.184,1.687-1.822,3.693-1.822,5.757v39.857c0,3.728,3.025,6.752,6.75,6.752c3.728,0,6.751-3.025,6.751-6.752
		v-37.009l9.498-13.501v103.261l-17.644,30.119c-0.861,1.463-1.304,3.116-1.304,4.801c0,5.243,4.253,9.506,9.496,9.506
		c3.376,0,6.493-1.795,8.195-4.697l19.882-33.941c0.897-1.526,1.378-3.274,1.378-5.049V226.29l22,37.86v43.855
		c0,5.243,4.255,9.496,9.498,9.496s9.496-4.253,9.496-9.496v-48.267c0-1.765-0.462-3.495-1.35-5.021L295.002,214.018
		L295.002,214.018z"/>
	<path fill="#FFFFFF" d="M277.847,114.748c9.655,0,17.498-7.837,17.498-17.501c0-9.66-7.842-17.498-17.498-17.498
		c-9.663,0-17.496,7.838-17.496,17.498C260.352,106.91,268.184,114.748,277.847,114.748L277.847,114.748z"/>
</g>
</svg>
