<?xml version="1.0" encoding="utf-8"?>
<!-- Generator: Adobe Illustrator 24.2.0, SVG Export Plug-In . SVG Version: 6.00 Build 0)  -->
<svg version="1.0" id="Ebene_1" xmlns="http://www.w3.org/2000/svg" xmlns:xlink="http://www.w3.org/1999/xlink" x="0px" y="0px"
	 viewBox="0 0 400 400.001" enable-background="new 0 0 400 400.001" xml:space="preserve">
<rect id="background-blue" fill="#2D327D" width="400" height="400"/>
<g id="content">
	<path id="frameWhite" fill="#FFFFFF" d="M340,40c11,0,20,9,20,20v280c0,11-9,20-20,20H60c-11,0-20-9-20-20V60c0-11,9-20,20-20H340
		 M340,35H60c-13.785,0-25,11.215-25,25v280c0,13.785,11.215,25,25,25h280c13.785,0,25-11.215,25-25V60
		C365,46.215,353.785,35,340,35L340,35z"/>
	<path fill="#FFFFFF" d="M154.99,237.161v-33.205c0-8.558,6.944-15.501,15.5-15.501c2.336,0,4.642,0.529,6.745,1.545l28.572,13.81
		l-15.105,9.915l-19.358-9.357l-1.959,4.051l16.929,8.183L154.99,237.161L154.99,237.161z"/>
	<path fill="#FFFFFF" d="M209.988,201.068v-33.206c0-8.556,6.945-15.499,15.501-15.499c2.336,0,4.642,0.529,6.744,1.545
		l28.574,13.809l-15.107,9.915l-19.358-9.357l-1.957,4.052l16.93,8.184L209.988,201.068L209.988,201.068z"/>
	<path fill="#FFFFFF" d="M114.989,319.999c-19.32,0-35.001-15.68-35.001-35c0-19.319,15.681-34.999,35.001-34.999h34.181
		c2.925,0,5.786-0.854,8.23-2.46l162.591-106.699v74.158l-160.002,105H114.989L114.989,319.999z"/>
	<path fill="#FFFFFF" d="M264.988,164.975v-33.206c0-8.556,6.945-15.5,15.502-15.5c2.335,0,4.64,0.527,6.743,1.545l28.574,13.81
		L300.7,141.54l-19.358-9.357l-1.957,4.051l16.929,8.182L264.988,164.975L264.988,164.975z"/>
	<path fill="#FFFFFF" d="M267.434,99.845c0-7.176,5.824-13,13-13s13,5.824,13,13c0,7.176-5.824,13-13,13
		S267.434,107.021,267.434,99.845L267.434,99.845z"/>
	<path fill="#FFFFFF" d="M212.439,135.444c0-7.176,5.824-13,13-13c7.176,0,13,5.824,13,13c0,7.176-5.824,13-13,13
		C218.264,148.444,212.439,142.62,212.439,135.444L212.439,135.444z"/>
	<path fill="#FFFFFF" d="M157.445,171.042c0-7.174,5.824-13,13-13s13,5.826,13,13c0,7.176-5.824,13-13,13
		S157.445,178.218,157.445,171.042L157.445,171.042z"/>
</g>
</svg>
