<?xml version="1.0" encoding="utf-8"?>
<!-- Generator: Adobe Illustrator 24.2.0, SVG Export Plug-In . SVG Version: 6.00 Build 0)  -->
<svg version="1.0" id="Ebene_1" xmlns="http://www.w3.org/2000/svg" xmlns:xlink="http://www.w3.org/1999/xlink" x="0px" y="0px"
	 viewBox="0 0 400 400.001" enable-background="new 0 0 400 400.001" xml:space="preserve">
<rect id="background-blue" fill="#2D327D" width="400" height="400"/>
<g id="content">
	<path id="frameWhite" fill="#FFFFFF" d="M340,40c11,0,20,9,20,20v280c0,11-9,20-20,20H60c-11,0-20-9-20-20V60c0-11,9-20,20-20H340
		 M340,35H60c-13.785,0-25,11.215-25,25v280c0,13.785,11.215,25,25,25h280c13.785,0,25-11.215,25-25V60
		C365,46.215,353.785,35,340,35L340,35z"/>
	<path fill="#FFFFFF" d="M245,237.161v-33.205c0-8.558-6.944-15.501-15.5-15.501c-2.336,0-4.643,0.529-6.746,1.545l-28.572,13.81
		l15.105,9.915l19.358-9.357l1.958,4.051l-16.929,8.183L245,237.161L245,237.161z"/>
	<path fill="#FFFFFF" d="M190.002,201.068v-33.206c0-8.556-6.945-15.499-15.501-15.499c-2.336,0-4.642,0.529-6.744,1.545
		l-28.574,13.809l15.107,9.915l19.358-9.357l1.957,4.052l-16.93,8.184L190.002,201.068L190.002,201.068z"/>
	<path fill="#FFFFFF" d="M285.001,319.999c19.321,0,35.001-15.68,35.001-35c0-19.319-15.68-34.999-35.001-34.999h-34.18
		c-2.925,0-5.786-0.854-8.23-2.46L79.999,140.841v74.158l160.002,105H285.001L285.001,319.999z"/>
	<path fill="#FFFFFF" d="M135.003,164.975v-33.206c0-8.556-6.945-15.5-15.502-15.5c-2.336,0-4.641,0.527-6.744,1.545l-28.574,13.81
		l15.107,9.915l19.358-9.357l1.957,4.051l-16.929,8.182L135.003,164.975L135.003,164.975z"/>
	<path fill="#FFFFFF" d="M132.557,99.845c0-7.176-5.824-13-13-13c-7.176,0-13,5.824-13,13c0,7.176,5.824,13,13,13
		C126.733,112.845,132.557,107.021,132.557,99.845L132.557,99.845z"/>
	<path fill="#FFFFFF" d="M187.551,135.444c0-7.176-5.824-13-13-13c-7.176,0-13,5.824-13,13c0,7.176,5.824,13,13,13
		C181.727,148.444,187.551,142.62,187.551,135.444L187.551,135.444z"/>
	<path fill="#FFFFFF" d="M242.546,171.042c0-7.174-5.824-13-13-13c-7.176,0-13,5.826-13,13c0,7.176,5.824,13,13,13
		C236.722,184.042,242.546,178.218,242.546,171.042L242.546,171.042z"/>
</g>
</svg>
