<?xml version="1.0" encoding="utf-8"?>
<!-- Generator: Adobe Illustrator 24.2.0, SVG Export Plug-In . SVG Version: 6.00 Build 0)  -->
<svg version="1.0" id="Ebene_1" xmlns="http://www.w3.org/2000/svg" xmlns:xlink="http://www.w3.org/1999/xlink" x="0px" y="0px"
	 viewBox="0 0 400 400.001" enable-background="new 0 0 400 400.001" xml:space="preserve">
<rect id="background-blue" fill="#2D327D" width="400" height="400"/>
<g id="content">
	<path id="frameWhite" fill="#FFFFFF" d="M340,40c11,0,20,9,20,20v280c0,11-9,20-20,20H60c-11,0-20-9-20-20V60c0-11,9-20,20-20H340
		 M340,35H60c-13.785,0-25,11.215-25,25v280c0,13.785,11.215,25,25,25h280c13.785,0,25-11.215,25-25V60
		C365,46.215,353.785,35,340,35L340,35z"/>
	<path fill="#FFFFFF" d="M214.568,106.372c7.176,0,13-5.824,13-13s-5.824-13-13-13c-7.177,0-13,5.824-13,13
		S207.391,106.372,214.568,106.372L214.568,106.372z"/>
	<path fill="#FFFFFF" d="M164.426,138.736c7.176,0,13-5.824,13-13c0-7.176-5.824-13-13-13c-7.176,0-13,5.824-13,13
		C151.426,132.912,157.25,138.736,164.426,138.736L164.426,138.736z"/>
	<path fill="#FFFFFF" d="M114.284,145.907c-7.176,0-13,5.824-13,13s5.824,13,13,13c7.176,0,13-5.824,13-13
		S121.46,145.907,114.284,145.907L114.284,145.907z"/>
	<path fill="#FFFFFF" d="M188.676,151.762c-0.336,0.882-0.508,1.817-0.508,2.761c0,4.277,3.473,7.75,7.75,7.75
		c3.216,0,6.096-1.986,7.241-4.989l9.321-24.447l4.672,1.783l-4.188,10.983l17.038-11.223v-8.475c0-8.391-6.81-15.2-15.202-15.2
		c-6.305,0-11.956,3.893-14.202,9.786L188.676,151.762L188.676,151.762z"/>
	<path fill="#FFFFFF" d="M138.677,184.695c-0.338,0.882-0.51,1.818-0.51,2.762c0,4.279,3.472,7.75,7.751,7.75
		c3.215,0,6.096-1.984,7.242-4.988l9.319-24.445l4.671,1.781l-4.188,10.985l17.038-11.222v-8.475c0-8.392-6.809-15.2-15.2-15.2
		c-6.306,0-11.956,3.893-14.204,9.784L138.677,184.695L138.677,184.695z"/>
	<path fill="#FFFFFF" d="M130,200.25v-8.475c0-8.391-6.809-15.2-15.2-15.2c-6.306,0-11.956,3.893-14.202,9.784l-11.922,31.271
		c-0.336,0.881-0.508,1.818-0.508,2.762c0,4.277,3.471,7.749,7.75,7.749c3.214,0,6.096-1.986,7.242-4.991l9.319-24.445l4.672,1.781
		l-4.188,10.985L130,200.25L130,200.25z"/>
	<path fill="#FFFFFF" d="M285.002,210c19.321,0,35.001-15.681,35.001-35.001c0-19.32-15.68-35.001-35.001-35.001h-39.942
		c-2.934,0-5.802,0.86-8.252,2.474L79.999,245.759V320l167.003-110H285.002L285.002,210z"/>
</g>
</svg>
