<?xml version="1.0" encoding="utf-8"?>
<!-- Generator: Adobe Illustrator 24.2.0, SVG Export Plug-In . SVG Version: 6.00 Build 0)  -->
<svg version="1.0" id="Ebene_1" xmlns="http://www.w3.org/2000/svg" xmlns:xlink="http://www.w3.org/1999/xlink" x="0px" y="0px"
	 viewBox="0 0 400 400.001" enable-background="new 0 0 400 400.001" xml:space="preserve">
<rect id="background-blue" fill="#2D327D" width="400" height="400"/>
<g id="content">
	<path id="frameWhite" fill="#FFFFFF" d="M340,40c11,0,20,9,20,20v280c0,11-9,20-20,20H60c-11,0-20-9-20-20V60c0-11,9-20,20-20H340
		 M340,35H60c-13.785,0-25,11.215-25,25v280c0,13.785,11.215,25,25,25h280c13.785,0,25-11.215,25-25V60
		C365,46.215,353.785,35,340,35L340,35z"/>
	<path fill="#FFFFFF" d="M185.432,106.372c-7.176,0-13-5.824-13-13s5.824-13,13-13c7.177,0,13,5.824,13,13
		S192.609,106.372,185.432,106.372L185.432,106.372z"/>
	<path fill="#FFFFFF" d="M235.574,138.736c-7.176,0-13-5.824-13-13c0-7.176,5.824-13,13-13c7.175,0,13,5.824,13,13
		C248.574,132.912,242.75,138.736,235.574,138.736L235.574,138.736z"/>
	<path fill="#FFFFFF" d="M285.716,145.907c7.177,0,13,5.824,13,13s-5.824,13-13,13c-7.176,0-13-5.824-13-13
		S278.54,145.907,285.716,145.907L285.716,145.907z"/>
	<path fill="#FFFFFF" d="M211.324,151.762c0.336,0.882,0.509,1.817,0.509,2.761c0,4.277-3.473,7.75-7.75,7.75
		c-3.216,0-6.096-1.986-7.242-4.989l-9.321-24.447l-4.672,1.783l4.188,10.983l-17.038-11.223v-8.475c0-8.391,6.81-15.2,15.202-15.2
		c6.305,0,11.956,3.893,14.202,9.786L211.324,151.762L211.324,151.762z"/>
	<path fill="#FFFFFF" d="M261.323,184.695c0.338,0.882,0.51,1.818,0.51,2.762c0,4.279-3.473,7.75-7.751,7.75
		c-3.215,0-6.096-1.984-7.242-4.988l-9.319-24.445l-4.671,1.781l4.188,10.985l-17.038-11.222v-8.475c0-8.392,6.81-15.2,15.2-15.2
		c6.306,0,11.956,3.893,14.204,9.784L261.323,184.695L261.323,184.695z"/>
	<path fill="#FFFFFF" d="M270,200.25v-8.475c0-8.391,6.809-15.2,15.2-15.2c6.306,0,11.956,3.893,14.202,9.784l11.922,31.271
		c0.336,0.881,0.508,1.818,0.508,2.762c0,4.277-3.471,7.749-7.75,7.749c-3.214,0-6.096-1.986-7.242-4.991l-9.319-24.445
		l-4.672,1.781l4.188,10.985L270,200.25L270,200.25z"/>
	<path fill="#FFFFFF" d="M114.998,210c-19.321,0-35.001-15.681-35.001-35.001c0-19.32,15.68-35.001,35.001-35.001h39.942
		c2.934,0,5.802,0.86,8.252,2.474l156.808,103.287V320L152.998,210H114.998L114.998,210z"/>
</g>
</svg>
