<?xml version="1.0" encoding="utf-8"?>
<!-- Generator: Adobe Illustrator 24.2.0, SVG Export Plug-In . SVG Version: 6.00 Build 0)  -->
<svg version="1.0" id="Ebene_1" xmlns="http://www.w3.org/2000/svg" xmlns:xlink="http://www.w3.org/1999/xlink" x="0px" y="0px"
	 viewBox="0 0 400 400.001" enable-background="new 0 0 400 400.001" xml:space="preserve">
<rect id="background-blue" fill="#2D327D" width="400" height="400"/>
<g id="content">
	<path id="frameWhite" fill="#FFFFFF" d="M340,40c11,0,20,9,20,20v280c0,11-9,20-20,20H60c-11,0-20-9-20-20V60c0-11,9-20,20-20H340
		 M340,35H60c-13.785,0-25,11.215-25,25v280c0,13.785,11.215,25,25,25h280c13.785,0,25-11.215,25-25V60
		C365,46.215,353.785,35,340,35L340,35z"/>
	<polygon fill="#FFFFFF" points="203.089,114.995 203.089,85.282 215.405,98.72 215.405,89.69 200.003,74.287 184.6,89.69 
		184.6,98.72 196.916,85.282 196.916,114.995 203.089,114.995 	"/>
	<polygon fill="#FFFFFF" points="196.916,284.994 196.916,314.709 184.6,301.272 184.6,310.303 200.003,325.706 215.405,310.303 
		215.405,301.272 203.089,314.709 203.089,284.994 196.916,284.994 	"/>
	<path fill="#FFFFFF" d="M279,121H121v158h158V121L279,121z M269.004,268.995H131.001V130.997h138.003V268.995L269.004,268.995z"/>
	<polygon fill="#FFFFFF" points="290,80 320,80 320,320 290,320 290,80 	"/>
	<polygon fill="#FFFFFF" points="80,80 110,80 110,320 80,320 80,80 	"/>
	<path fill="#FFFFFF" d="M177.787,160.195c5.752,0,10.418-4.668,10.418-10.414c0-5.754-4.667-10.418-10.418-10.418
		c-5.75,0-10.416,4.664-10.416,10.418C167.371,155.527,172.038,160.195,177.787,160.195L177.787,160.195z"/>
	<path fill="#FFFFFF" d="M158.337,213.411c2.156,0,3.907-1.75,3.907-3.903l-0.002-29.948h2.605v80.23
		c0,2.873,2.334,5.206,5.209,5.206c2.875,0,5.209-2.332,5.209-5.206l-0.002-46.379h3.907v46.379c0,2.873,2.334,5.206,5.209,5.206
		c2.875,0,5.209-2.332,5.209-5.206v-80.23h2.603v29.948c0,2.153,1.75,3.903,3.907,3.903c2.157,0,3.907-1.75,3.907-3.903v-35.158l0,0
		c0-5.75-4.666-10.418-10.416-10.418h-24.741c-5.75,0-10.417,4.668-10.417,10.418v35.158
		C154.429,211.661,156.18,213.411,158.337,213.411L158.337,213.411z"/>
</g>
</svg>
