<svg xmlns="http://www.w3.org/2000/svg" width="24" height="24" viewBox="0 0 24 24">
  <g fill="none" fill-rule="evenodd">
    <path fill="#2D327D" d="M22.5,0 L1.5,0 C0.675000003,0 0,0.675000003 0,1.5 L0,22.5 C0,23.3250009 0.675000003,24 1.5,24 L22.5,24 C23.3250009,24 24,23.3250009 24,22.5 L24,1.5 C24,0.675000003 23.3250009,0 22.5,0 Z"/>
    <g fill="#FFF" transform="translate(2 2)">
      <path fill-rule="nonzero" d="M1.0899997,5.48499822 L1.0899997,18.9849982 L7.0899997,18.9849982 L7.0899997,5.48499822 L1.0899997,5.48499822 L1.0899997,5.48499822 Z M6.33999971,12.9850007 C6.33999971,13.0675012 6.27250013,13.1350003 6.18999963,13.1350003 L1.98999981,13.1350003 C1.90749981,13.1350003 1.83999971,13.0675011 1.83999971,12.9850007 L1.83999971,6.38500023 C1.83999971,6.30249973 1.90749981,6.23500063 1.98999981,6.23500063 L6.18999963,6.23500063 C6.27250013,6.23500063 6.33999971,6.30249983 6.33999971,6.38500023 L6.33999971,12.9850007 L6.33999971,12.9850007 Z"/>
      <polygon points="2.193 2.425 3.625 .985 2.725 .985 .94 2.785 2.725 4.585 3.625 4.585 2.193 3.145 13.24 3.145 13.24 2.425"/>
      <polygon points="13.24 6.235 7.54 6.235 7.54 18.235 13.24 18.235"/>
    </g>
  </g>
</svg>
