<svg xmlns="http://www.w3.org/2000/svg" width="24" height="24" viewBox="0 0 24 24">
  <g fill="none" fill-rule="evenodd">
    <path fill="#2D327D" d="M22.5,0 L1.5,0 C0.675000003,0 0,0.675000003 0,1.5 L0,22.5 C0,23.3250009 0.675000003,24 1.5,24 L22.5,24 C23.3250009,24 24,23.3250009 24,22.5 L24,1.5 C24,0.675000003 23.3250009,0 22.5,0 Z"/>
    <g fill="#FFF" transform="translate(3 2)">
      <polygon points="13.23 14.688 5.07 14.688 5.07 .88 13.23 .88"/>
      <path fill-rule="nonzero" d="M0.1500001,1.0374999 L0.1500001,14.5374999 L4.6500001,14.5374999 L4.6500001,1.0374999 L0.1500001,1.0374999 L0.1500001,1.0374999 Z M3.75000002,10.7875004 C3.75000002,11.1174994 3.48000001,11.3874998 3.15000011,11.3874998 L1.65000011,11.3874998 C1.3199997,11.3874998 1.0500002,11.1174993 1.0500002,10.7875004 L1.0500002,2.98750021 C1.0500002,2.65749981 1.3199997,2.38749981 1.65000011,2.38749981 L3.15000011,2.38749981 C3.48000001,2.38749981 3.75000002,2.65749981 3.75000002,2.98750021 L3.75000002,10.7875004 L3.75000002,10.7875004 Z"/>
      <path d="M6.77250003,15.2500001 C6.77250003,16.2474996 5.97000022,17.0499993 4.97250032,17.0499993 L1.1550002,17.0499993 L2.50500011,15.8125001 L1.60500001,15.8125001 L0.0300002,17.3875009 L1.60500001,18.9624997 L2.50500011,18.9624997 L1.1550002,17.7250005 L4.97250032,17.7250005 C6.33749963,17.7250005 7.44750023,16.6150018 7.44750023,15.2500001 L6.77250003,15.2500001 L6.77250003,15.2500001 Z"/>
      <path fill-rule="nonzero" d="M13.6499997,1.0374999 L13.6499997,14.5374999 L18.1499997,14.5374999 L18.1499997,1.0374999 L13.6499997,1.0374999 L13.6499997,1.0374999 Z M14.5499993,2.98750021 C14.5499993,2.65749981 14.8199998,2.38749981 15.1499997,2.38749981 L16.6499997,2.38749981 C16.9799996,2.38749981 17.2500001,2.65749981 17.2500001,2.98750021 L17.2500001,10.7875004 C17.2500001,11.1174994 16.9799996,11.3874998 16.6499997,11.3874998 L15.1499997,11.3874998 C14.8199998,11.3874998 14.5499993,11.1174993 14.5499993,10.7875004 L14.5499993,2.98750021 L14.5499993,2.98750021 Z"/>
      <path d="M11.5275002,15.2500001 C11.5275002,16.2474996 12.3300001,17.0499993 13.3275014,17.0499993 L17.1450006,17.0499993 L15.7950002,15.8125001 L16.6949998,15.8125001 L18.2700006,17.3875009 L16.6949998,18.9624998 L15.7950002,18.9624998 L17.1450006,17.7250006 L13.3275014,17.7250006 C11.9625015,17.7250006 10.8525009,16.6150019 10.8525009,15.2500001 L11.5275002,15.2500001 L11.5275002,15.2500001 Z"/>
    </g>
  </g>
</svg>
