<svg xmlns="http://www.w3.org/2000/svg" width="24" height="24" viewBox="0 0 24 24">
  <g fill="none" fill-rule="evenodd">
    <path fill="#2D327D" d="M22.5,0 L1.5,0 C0.675000003,0 0,0.675000003 0,1.5 L0,22.5 C0,23.3250009 0.675000003,24 1.5,24 L22.5,24 C23.3250009,24 24,23.3250009 24,22.5 L24,1.5 C24,0.675000003 23.3250009,0 22.5,0 Z"/>
    <g transform="translate(3 1)">
      <path fill="#FFF" d="M14.8950006 12.5900003C13.7025014 12.5900003 12.7275011 13.5649997 12.7275011 14.7574998L12.7275011 15.3274995C12.8400013 15.2074987 12.9675009 15.1024991 13.1025011 14.9974996L13.1475012 14.9674999 13.1925013 14.9974996C13.2750018 15.0574991 13.3575022 15.1099988 13.4400008 15.1549989L13.4400008 14.7574998C13.4400008 13.955 14.0925029 13.3024999 14.8950007 13.3024999 15.6974985 13.3024999 16.3500006 13.9550001 16.3500006 14.7574998L16.3500006 15.1549989C16.4325011 15.1024991 16.5224993 15.0499994 16.5975001 14.9974996L16.6425002 14.9674999 16.6875001 14.9974996C16.8224984 15.0949994 16.9500009 15.2074987 17.0625001 15.3274995L17.0625001 14.7649985C17.0625001 13.5649997 16.0950013 12.5900003 14.8950006 12.5900003zM17.790001 1.23500011C17.3775006.822500203 16.8374997.597500202 16.2525006.597500202L16.2525006.597500202C15.6749993.597500202 15.1275006.822500203 14.7225018 1.23500011L13.897501 2.06000011C13.8300018 2.12750021 13.7925015 2.21750011 13.7925015 2.31500021L13.7925015 2.31500021C13.7925015 2.41250051 13.8300019 2.50250021 13.897501 2.57000031 13.9650001 2.63750041 14.0550022 2.67500061 14.1525002 2.67500061 14.25 2.67500061 14.3400002 2.63750051 14.4075013 2.57000031L15.2325002 1.74500031C15.8025018 1.1750006 16.7250005 1.1750006 17.2950002 1.74500031 17.8650018 2.31500021 17.8650018 3.23750061 17.2950002 3.80750032L16.9424993 4.16000032C17.1224996 4.31750012 17.2799989 4.50500012 17.4149991 4.69999982L17.7974988 4.31750012C18.2099992 3.90500022 18.4349996 3.36500021 18.4349996 2.78749991 18.4200002 2.19499991 18.1949998 1.64750031 17.790001 1.23500011z"/>
      <path fill="#EB0000" d="M3.11999991,14.5549995 C1.51499991,14.5549995 0.2174995,15.8524992 0.2174995,17.4575006 C0.2174995,19.062502 1.51499991,20.3600008 3.11999941,20.3600008 C4.72499892,20.3600008 6.02249912,19.0625021 6.02249912,17.4575006 C6.02249912,15.8524991 4.72499992,14.5549995 3.11999991,14.5549995 Z"/>
      <path fill="#237F52" d="M3.11999991,3.50749971 C1.51499991,3.50749971 0.2174995,4.80499942 0.2174995,6.41000033 C0.2174995,8.01500123 1.51499991,9.31250004 3.11999941,9.31250004 C4.72499892,9.31250004 6.02249912,8.01499943 6.02249912,6.41000033 C6.02249912,4.80500122 4.72499992,3.50749971 3.11999991,3.50749971 Z"/>
      <path fill="#FFF" fill-rule="nonzero" d="M10.2825003 6.20750053L7.72500043 6.20750053 7.72500043 5.69000102 10.2825003 5.69000102 10.2825003 6.20750053zM10.2825003 7.22750003L7.72500043 7.22750003 7.72500043 6.71000003 10.2825003 6.71000003 10.2825003 7.22750003zM10.2825003 17.1800004L7.72500043 17.1800004 7.72500043 16.6625005 10.2825003 16.6625005 10.2825003 17.1800004zM10.2825003 18.2075006L7.72500043 18.2075006 7.72500043 17.6900007 10.2825003 17.6900007 10.2825003 18.2075006zM16.6425 4.09250022C16.1324998 4.45250032 15.5249997 4.64750002 14.9024983 4.64750002 14.2799969 4.64750002 13.6724988 4.45250032 13.1624985 4.09250022 12.4349995 4.64000032 11.999999 5.50249962 11.999999 6.41000033 11.999999 8.00750063 13.3050004 9.31250004 14.9024983 9.31250004 16.499999 9.31250004 17.8050004 8.00750063 17.8050004 6.41000033 17.7974988 5.50249962 17.3624993 4.63999992 16.6425 4.09250022zM15.165001 7.90999983L15.165001 8.60000034C15.165001 8.74999994 15.0450002 8.87000084 14.8950006 8.87000084 14.7450008 8.87000084 14.6250001 8.75000004 14.6250001 8.60000044L14.6250001 7.90999983C14.5049993 7.82749933 14.4300004 7.68500043 14.4300004 7.52750013 14.4300004 7.27250003 14.6399995 7.06249993 14.8950006 7.06249993 15.1500017 7.06249993 15.3600008 7.27249993 15.3600008 7.52750013 15.3599988 7.68500043 15.2849999 7.82749943 15.165001 7.90999983zM16.6425 15.1475011C16.1324998 15.5074998 15.5325013 15.7025014 14.9024983 15.7025014 14.2724991 15.7025014 13.6724988 15.5074998 13.1624985 15.1475011 12.4349995 15.6949998 11.999999 16.5575009 11.999999 17.4650003 11.999999 19.0625001 13.3050004 20.3675024 14.9024983 20.3675024 16.499999 20.3675024 17.8050004 19.0625021 17.8050004 17.4650003 17.7974988 16.5499993 17.3624993 15.6949998 16.6425 15.1475011zM15.165001 18.9575006L15.165001 19.6475011C15.165001 19.7975007 15.0450002 19.9175016 14.8950006 19.9175016 14.7450008 19.9175016 14.6250001 19.7975007 14.6250001 19.6475011L14.6250001 18.9575006C14.5049993 18.8750001 14.4300004 18.7325002 14.4300004 18.5750009 14.4300004 18.3199998 14.6399995 18.1099988 14.8950006 18.1099988 15.1500017 18.1099988 15.3600008 18.3199979 15.3600008 18.5750009 15.3599988 18.7400018 15.2849999 18.8750001 15.165001 18.9575006z"/>
    </g>
  </g>
</svg>
