<?xml version="1.0" encoding="utf-8"?>
<!-- Generator: Adobe Illustrator 24.2.0, SVG Export Plug-In . SVG Version: 6.00 Build 0)  -->
<svg version="1.0" id="Ebene_1" xmlns="http://www.w3.org/2000/svg" xmlns:xlink="http://www.w3.org/1999/xlink" x="0px" y="0px"
	 viewBox="0 0 400 400" enable-background="new 0 0 400 400" xml:space="preserve">
<rect id="background-blue" fill="#2D327D" width="400" height="400"/>
<g id="content_1_">
	<path id="frameWhite" fill="#FFFFFF" d="M340,40c11,0,20,9,20,20v280c0,11-9,20-20,20H60c-11,0-20-9-20-20V60c0-11,9-20,20-20H340
		 M340,35H60c-13.785,0-25,11.215-25,25v280c0,13.785,11.215,25,25,25h280c13.785,0,25-11.215,25-25V60
		C365,46.215,353.785,35,340,35L340,35z"/>
	<g>
		<path fill="#FFFFFF" d="M166.47,223.409c-8.367-2.87-14.787-7.587-19.257-14.15c-4.472-6.562-6.706-14.52-6.706-23.872
			c0-15.584,6.398-28.012,19.195-37.283c11.32-8.202,24.773-12.305,40.359-12.305c17.718,0,32.196,4.881,43.435,14.643
			c10.662,9.188,15.996,20.548,15.996,34.083c0,9.435-2.258,17.516-6.768,24.241c-4.513,6.728-10.911,11.608-19.195,14.643
			c6.479,1.888,11.77,4.307,15.873,7.26c11.4,8.286,17.104,20.386,17.104,36.299c0,18.294-7.014,32.854-21.041,43.682
			c-11.812,9.105-26.989,13.658-45.527,13.658c-20.099,0-36.095-5.003-47.988-15.012c-12.387-10.417-18.58-24.075-18.58-40.975
			c0-15.831,5.495-28.095,16.488-36.791C154.861,227.675,160.398,224.968,166.47,223.409z M199.323,236.944
			c-8.859,0-16.1,2.729-21.718,8.183c-5.62,5.456-8.429,12.449-8.429,20.979c0,8.778,2.849,15.915,8.552,21.41
			c5.701,5.497,13.104,8.244,22.21,8.244c10.335,0,18.087-3.034,23.255-9.105c5.003-5.823,7.506-12.551,7.506-20.18
			c0-8.694-2.872-15.831-8.613-21.41C216.59,239.651,209.002,236.944,199.323,236.944z M199.57,163.73
			c-7.875,0-14.233,2.196-19.072,6.583c-4.841,4.39-7.26,10.151-7.26,17.288c0,7.466,2.44,13.434,7.321,17.904
			c4.879,4.472,11.422,6.706,19.625,6.706c8.202,0,14.683-2.215,19.441-6.645c4.757-4.43,7.137-10.459,7.137-18.088
			c0-7.463-2.399-13.289-7.198-17.473S208.099,163.73,199.57,163.73z"/>
	</g>
	<g id="Binario">
		<path fill="#FFFFFF" d="M80.009,80h13.494c2.898,0,5.059,0.362,6.48,1.087c1.34,0.684,2.352,1.675,3.035,2.974
			c0.574,1.094,0.861,2.256,0.861,3.486c0,1.367-0.349,2.584-1.046,3.65s-1.709,1.907-3.035,2.522
			c1.148,0.383,2.01,0.786,2.584,1.21c1.941,1.422,2.912,3.493,2.912,6.214c0,1.613-0.359,3.062-1.077,4.348
			s-1.747,2.317-3.086,3.097c-1.586,0.93-3.726,1.395-6.419,1.395H80.009V80z M86.551,85.147v6.993h5.988
			c1.395,0,2.42-0.164,3.076-0.492c1.217-0.588,1.825-1.6,1.825-3.035c0-1.217-0.383-2.099-1.148-2.646s-2.017-0.82-3.753-0.82
			H86.551z M86.551,96.611v8.224h6.624c1.9,0,3.233-0.267,3.999-0.8c1.012-0.725,1.518-1.825,1.518-3.302
			c0-1.764-0.684-2.967-2.051-3.609c-0.752-0.342-2.017-0.513-3.794-0.513H86.551z"/>
		<path fill="#FFFFFF" d="M115.16,80v5.353h-5.947V80H115.16z M115.16,87.629v22.354h-5.947V87.629H115.16z"/>
		<path fill="#FFFFFF" d="M125.557,87.649v3.138c0.697-0.957,1.347-1.661,1.948-2.112c1.477-1.148,3.254-1.723,5.332-1.723
			c1.832,0,3.384,0.465,4.655,1.395c1.012,0.738,1.719,1.671,2.123,2.799s0.605,2.717,0.605,4.768v14.068h-5.927V97.165
			c0-1.436-0.123-2.488-0.369-3.158c-0.232-0.588-0.629-1.053-1.189-1.395c-0.643-0.369-1.374-0.554-2.194-0.554
			c-0.902,0-1.723,0.219-2.461,0.656s-1.285,1.032-1.641,1.784c-0.396,0.848-0.595,2.167-0.595,3.958v11.525h-5.947V87.649H125.557z
			"/>
		<path fill="#FFFFFF" d="M165.055,109.982h-6.07c-0.26-0.875-0.39-1.62-0.39-2.235c-1.859,1.9-4.259,2.851-7.198,2.851
			c-2.297,0-4.088-0.533-5.373-1.6c-1.477-1.23-2.215-2.946-2.215-5.147c0-2.803,1.265-4.744,3.794-5.824
			c1.025-0.438,2.912-0.841,5.66-1.21c2.365-0.314,3.838-0.619,4.419-0.913s0.872-0.885,0.872-1.774
			c0-1.955-1.299-2.933-3.896-2.933c-1.381,0-2.389,0.246-3.025,0.738s-1.056,1.347-1.261,2.563h-5.619
			c0.178-2.488,1.114-4.365,2.81-5.629c1.695-1.265,4.108-1.897,7.239-1.897c3.459,0,6.016,0.704,7.67,2.112
			c0.766,0.656,1.275,1.36,1.528,2.112s0.379,1.941,0.379,3.568c0,0.342-0.021,1.846-0.062,4.512
			c-0.027,2.693-0.041,4.238-0.041,4.635c0,1.627,0.048,2.82,0.144,3.579S164.727,109.08,165.055,109.982z M158.513,99.175
			c-0.766,0.479-2.16,0.854-4.184,1.128c-1.422,0.219-2.447,0.499-3.076,0.841c-0.889,0.479-1.333,1.292-1.333,2.44
			c0,0.93,0.294,1.654,0.882,2.174s1.408,0.779,2.461,0.779c1.75,0,3.165-0.615,4.245-1.846c0.383-0.424,0.646-0.865,0.79-1.323
			s0.215-1.063,0.215-1.815V99.175z"/>
		<path fill="#FFFFFF" d="M182.877,87.219v5.763c-0.957-0.178-1.729-0.267-2.317-0.267c-2.215,0-3.842,0.93-4.881,2.789
			c-0.588,1.039-0.882,2.775-0.882,5.209v9.27h-5.947V87.588h5.66v4.081c1.613-3.035,3.958-4.553,7.034-4.553
			C181.926,87.116,182.371,87.15,182.877,87.219z"/>
		<path fill="#FFFFFF" d="M191.633,80v5.353h-5.947V80H191.633z M191.633,87.629v22.354h-5.947V87.629H191.633z"/>
		<path fill="#FFFFFF" d="M207.117,86.972c3.254,0,5.913,1.08,7.978,3.24c2.037,2.133,3.056,4.977,3.056,8.531
			c0,3.678-1.087,6.61-3.261,8.798c-2.037,2.037-4.689,3.056-7.957,3.056c-3.486,0-6.262-1.135-8.326-3.404
			c-1.969-2.16-2.953-4.963-2.953-8.408c0-3.391,0.957-6.146,2.871-8.265C200.643,88.155,203.507,86.972,207.117,86.972z
			 M206.809,91.607c-1.572,0-2.823,0.636-3.753,1.907c-0.943,1.285-1.415,3.042-1.415,5.271c0,2.311,0.465,4.081,1.395,5.312
			c0.957,1.244,2.263,1.866,3.917,1.866c1.545,0,2.769-0.567,3.671-1.702c1.025-1.258,1.538-3.083,1.538-5.476
			c0-2.242-0.451-3.985-1.354-5.229C209.865,92.257,208.532,91.607,206.809,91.607z"/>
	</g>
</g>
</svg>
