<?xml version="1.0" encoding="utf-8"?>
<!-- Generator: Adobe Illustrator 24.2.0, SVG Export Plug-In . SVG Version: 6.00 Build 0)  -->
<svg version="1.0" id="Ebene_1" xmlns="http://www.w3.org/2000/svg" xmlns:xlink="http://www.w3.org/1999/xlink" x="0px" y="0px"
	 viewBox="0 0 400 400" enable-background="new 0 0 400 400" xml:space="preserve">
<rect id="background-blue" fill="#2D327D" width="400" height="400"/>
<g id="content_1_">
	<path id="frameWhite" fill="#FFFFFF" d="M340,40c11,0,20,9,20,20v280c0,11-9,20-20,20H60c-11,0-20-9-20-20V60c0-11,9-20,20-20H340
		 M340,35H60c-13.785,0-25,11.215-25,25v280c0,13.785,11.215,25,25,25h280c13.785,0,25-11.215,25-25V60
		C365,46.215,353.785,35,340,35L340,35z"/>
	<g>
		<path fill="#FFFFFF" d="M172.028,239.532c-6.973-2.392-12.322-6.322-16.047-11.792c-3.727-5.468-5.588-12.1-5.588-19.893
			c0-12.987,5.332-23.344,15.996-31.069c9.434-6.835,20.644-10.254,33.633-10.254c14.766,0,26.831,4.068,36.196,12.202
			c8.887,7.657,13.33,17.124,13.33,28.403c0,7.862-1.881,14.596-5.639,20.2c-3.762,5.606-9.094,9.674-15.996,12.202
			c5.398,1.573,9.809,3.589,13.227,6.05c9.502,6.905,14.254,16.988,14.254,30.249c0,15.245-5.846,27.378-17.535,36.401
			c-9.844,7.588-22.49,11.382-37.939,11.382c-16.749,0-30.079-4.169-39.99-12.51c-10.323-8.681-15.483-20.062-15.483-34.146
			c0-13.192,4.579-23.412,13.74-30.659C162.354,243.087,166.968,240.831,172.028,239.532z M199.405,250.811
			c-7.383,0-13.417,2.273-18.098,6.819c-4.683,4.547-7.024,10.374-7.024,17.482c0,7.315,2.375,13.263,7.126,17.842
			c4.75,4.581,10.92,6.87,18.508,6.87c8.613,0,15.074-2.528,19.38-7.588c4.168-4.853,6.254-10.459,6.254-16.816
			c0-7.245-2.393-13.192-7.178-17.842C213.795,253.067,207.47,250.811,199.405,250.811z M199.611,189.8
			c-6.562,0-11.861,1.83-15.894,5.486c-4.034,3.658-6.05,8.459-6.05,14.407c0,6.222,2.033,11.194,6.101,14.92
			c4.066,3.727,9.519,5.588,16.354,5.588s12.236-1.846,16.201-5.537s5.947-8.716,5.947-15.073c0-6.22-1.998-11.074-5.998-14.561
			C212.275,191.543,206.718,189.8,199.611,189.8z"/>
	</g>
	<g id="Binario">
		<path fill="#FFFFFF" d="M80.009,80h13.494c2.898,0,5.059,0.362,6.48,1.087c1.34,0.684,2.352,1.675,3.035,2.974
			c0.574,1.094,0.861,2.256,0.861,3.486c0,1.367-0.349,2.584-1.046,3.65s-1.709,1.907-3.035,2.522
			c1.148,0.383,2.01,0.786,2.584,1.21c1.941,1.422,2.912,3.493,2.912,6.214c0,1.613-0.359,3.062-1.077,4.348
			s-1.747,2.317-3.086,3.097c-1.586,0.93-3.726,1.395-6.419,1.395H80.009V80z M86.551,85.147v6.993h5.988
			c1.395,0,2.42-0.164,3.076-0.492c1.217-0.588,1.825-1.6,1.825-3.035c0-1.217-0.383-2.099-1.148-2.646s-2.017-0.82-3.753-0.82
			H86.551z M86.551,96.611v8.224h6.624c1.9,0,3.233-0.267,3.999-0.8c1.012-0.725,1.518-1.825,1.518-3.302
			c0-1.764-0.684-2.967-2.051-3.609c-0.752-0.342-2.017-0.513-3.794-0.513H86.551z"/>
		<path fill="#FFFFFF" d="M115.16,80v5.353h-5.947V80H115.16z M115.16,87.629v22.354h-5.947V87.629H115.16z"/>
		<path fill="#FFFFFF" d="M125.557,87.649v3.138c0.697-0.957,1.347-1.661,1.948-2.112c1.477-1.148,3.254-1.723,5.332-1.723
			c1.832,0,3.384,0.465,4.655,1.395c1.012,0.738,1.719,1.671,2.123,2.799s0.605,2.717,0.605,4.768v14.068h-5.927V97.165
			c0-1.436-0.123-2.488-0.369-3.158c-0.232-0.588-0.629-1.053-1.189-1.395c-0.643-0.369-1.374-0.554-2.194-0.554
			c-0.902,0-1.723,0.219-2.461,0.656s-1.285,1.032-1.641,1.784c-0.396,0.848-0.595,2.167-0.595,3.958v11.525h-5.947V87.649H125.557z
			"/>
		<path fill="#FFFFFF" d="M165.055,109.982h-6.07c-0.26-0.875-0.39-1.62-0.39-2.235c-1.859,1.9-4.259,2.851-7.198,2.851
			c-2.297,0-4.088-0.533-5.373-1.6c-1.477-1.23-2.215-2.946-2.215-5.147c0-2.803,1.265-4.744,3.794-5.824
			c1.025-0.438,2.912-0.841,5.66-1.21c2.365-0.314,3.838-0.619,4.419-0.913s0.872-0.885,0.872-1.774
			c0-1.955-1.299-2.933-3.896-2.933c-1.381,0-2.389,0.246-3.025,0.738s-1.056,1.347-1.261,2.563h-5.619
			c0.178-2.488,1.114-4.365,2.81-5.629c1.695-1.265,4.108-1.897,7.239-1.897c3.459,0,6.016,0.704,7.67,2.112
			c0.766,0.656,1.275,1.36,1.528,2.112s0.379,1.941,0.379,3.568c0,0.342-0.021,1.846-0.062,4.512
			c-0.027,2.693-0.041,4.238-0.041,4.635c0,1.627,0.048,2.82,0.144,3.579S164.727,109.08,165.055,109.982z M158.513,99.175
			c-0.766,0.479-2.16,0.854-4.184,1.128c-1.422,0.219-2.447,0.499-3.076,0.841c-0.889,0.479-1.333,1.292-1.333,2.44
			c0,0.93,0.294,1.654,0.882,2.174s1.408,0.779,2.461,0.779c1.75,0,3.165-0.615,4.245-1.846c0.383-0.424,0.646-0.865,0.79-1.323
			s0.215-1.063,0.215-1.815V99.175z"/>
		<path fill="#FFFFFF" d="M182.877,87.219v5.763c-0.957-0.178-1.729-0.267-2.317-0.267c-2.215,0-3.842,0.93-4.881,2.789
			c-0.588,1.039-0.882,2.775-0.882,5.209v9.27h-5.947V87.588h5.66v4.081c1.613-3.035,3.958-4.553,7.034-4.553
			C181.926,87.116,182.371,87.15,182.877,87.219z"/>
		<path fill="#FFFFFF" d="M191.633,80v5.353h-5.947V80H191.633z M191.633,87.629v22.354h-5.947V87.629H191.633z"/>
		<path fill="#FFFFFF" d="M207.117,86.972c3.254,0,5.913,1.08,7.978,3.24c2.037,2.133,3.056,4.977,3.056,8.531
			c0,3.678-1.087,6.61-3.261,8.798c-2.037,2.037-4.689,3.056-7.957,3.056c-3.486,0-6.262-1.135-8.326-3.404
			c-1.969-2.16-2.953-4.963-2.953-8.408c0-3.391,0.957-6.146,2.871-8.265C200.643,88.155,203.507,86.972,207.117,86.972z
			 M206.809,91.607c-1.572,0-2.823,0.636-3.753,1.907c-0.943,1.285-1.415,3.042-1.415,5.271c0,2.311,0.465,4.081,1.395,5.312
			c0.957,1.244,2.263,1.866,3.917,1.866c1.545,0,2.769-0.567,3.671-1.702c1.025-1.258,1.538-3.083,1.538-5.476
			c0-2.242-0.451-3.985-1.354-5.229C209.865,92.257,208.532,91.607,206.809,91.607z"/>
	</g>
</g>
</svg>
