<?xml version="1.0" encoding="utf-8"?>
<!-- Generator: Adobe Illustrator 24.2.0, SVG Export Plug-In . SVG Version: 6.00 Build 0)  -->
<svg version="1.0" id="Ebene_1" xmlns="http://www.w3.org/2000/svg" xmlns:xlink="http://www.w3.org/1999/xlink" x="0px" y="0px"
	 viewBox="0 0 400 400" enable-background="new 0 0 400 400" xml:space="preserve">
<rect id="background-blue" fill="#2D327D" width="400" height="400"/>
<g id="Content">
	<path id="frameWhite" fill="#FFFFFF" d="M340,40c11,0,20,9,20,20v280c0,11-9,20-20,20H60c-11,0-20-9-20-20V60c0-11,9-20,20-20H340
		 M340,35H60c-13.785,0-25,11.215-25,25v280c0,13.785,11.215,25,25,25h280c13.785,0,25-11.215,25-25V60
		C365,46.215,353.785,35,340,35L340,35z"/>
	<path fill="#FFFFFF" d="M157.672,140.106V320h-35.93V202.244h-12.797H96.149H83.721h-4.307v-26.086
		c8.777-0.246,15.935-1.147,21.472-2.707c5.537-1.557,10.601-4.101,15.196-7.629c6.645-5.085,11.114-13.658,13.412-25.716H157.672z"
		/>
	<path fill="#FFFFFF" d="M256.602,135.799c13.698,0,25.757,4.184,36.176,12.551c10.336,8.367,17.842,21.247,22.518,38.636
		c3.525,13.289,5.291,27.728,5.291,43.313c0,25.84-4.596,47.087-13.781,63.738c-5.414,9.681-12.489,17.146-21.226,22.395
		s-18.479,7.875-29.224,7.875c-14.685,0-27.235-4.43-37.652-13.289c-18.54-15.75-27.809-42.655-27.809-80.719
		c0-27.07,4.839-48.808,14.52-65.215c5.495-9.351,12.693-16.569,21.595-21.656C235.908,138.343,245.773,135.799,256.602,135.799z
		 M255.248,166.191c-11.812,0-19.853,6.81-24.117,20.426c-3.364,10.828-5.045,26.005-5.045,45.528
		c0,17.227,1.723,31.05,5.168,41.467c4.43,13.535,12.632,20.303,24.609,20.303c9.925,0,17.308-5.249,22.148-15.75
		c4.839-10.499,7.26-26.536,7.26-48.111c0-18.374-1.723-32.854-5.168-43.436C275.674,173.001,267.388,166.191,255.248,166.191z"/>
	<path fill="#FFFFFF" d="M107.145,80l-9.967,29.982h-7.444L79.91,80h6.85l6.747,22.456L100.357,80H107.145z"/>
	<path fill="#FFFFFF" d="M118.321,86.972c3.254,0,5.913,1.08,7.978,3.24c2.037,2.133,3.056,4.977,3.056,8.531
		c0,3.678-1.087,6.61-3.261,8.798c-2.037,2.037-4.689,3.056-7.957,3.056c-3.486,0-6.262-1.135-8.326-3.404
		c-1.969-2.16-2.953-4.963-2.953-8.408c0-3.391,0.957-6.146,2.871-8.265C111.848,88.155,114.712,86.972,118.321,86.972z
		 M118.014,91.607c-1.572,0-2.823,0.636-3.753,1.907c-0.943,1.285-1.415,3.042-1.415,5.271c0,2.311,0.465,4.081,1.395,5.312
		c0.957,1.244,2.263,1.866,3.917,1.866c1.545,0,2.769-0.567,3.671-1.702c1.025-1.258,1.538-3.083,1.538-5.476
		c0-2.242-0.451-3.985-1.354-5.229C121.07,92.257,119.737,91.607,118.014,91.607z"/>
	<path fill="#FFFFFF" d="M139.321,80v5.353h-5.947V80H139.321z M139.321,87.629v22.354h-5.947V87.629H139.321z"/>
	<path fill="#FFFFFF" d="M164.279,103.01c-0.314,1.258-0.882,2.44-1.702,3.548c-1.969,2.693-4.799,4.04-8.49,4.04
		c-3.336,0-6.009-1.053-8.019-3.158c-0.984-1.025-1.736-2.263-2.256-3.712c-0.561-1.545-0.841-3.158-0.841-4.84
		c0-3.254,0.937-5.988,2.81-8.203c2.092-2.475,4.799-3.712,8.121-3.712c2.68,0,4.963,0.827,6.85,2.481
		c1.354,1.189,2.338,2.656,2.953,4.399s0.923,3.934,0.923,6.573h-15.606c0.055,1.094,0.226,2.003,0.513,2.728
		c0.807,1.955,2.338,2.933,4.594,2.933c1.107,0,2.01-0.243,2.707-0.728s1.271-1.268,1.723-2.348H164.279z M158.558,96.427
		c-0.109-1.08-0.355-1.976-0.738-2.687c-0.383-0.697-0.926-1.251-1.63-1.661s-1.473-0.615-2.307-0.615
		c-1.326,0-2.42,0.444-3.281,1.333s-1.374,2.099-1.538,3.63H158.558z"/>
</g>
</svg>
