<?xml version="1.0" encoding="utf-8"?>
<!-- Generator: Adobe Illustrator 24.2.0, SVG Export Plug-In . SVG Version: 6.00 Build 0)  -->
<svg version="1.0" id="Ebene_1" xmlns="http://www.w3.org/2000/svg" xmlns:xlink="http://www.w3.org/1999/xlink" x="0px" y="0px"
	 viewBox="0 0 400 400" enable-background="new 0 0 400 400" xml:space="preserve">
<rect id="background-blue" fill="#2D327D" width="400" height="400"/>
<g id="content_1_">
	<path id="frameWhite" fill="#FFFFFF" d="M340,40c11,0,20,9,20,20v280c0,11-9,20-20,20H60c-11,0-20-9-20-20V60c0-11,9-20,20-20H340
		 M340,35H60c-13.785,0-25,11.215-25,25v280c0,13.785,11.215,25,25,25h280c13.785,0,25-11.215,25-25V60
		C365,46.215,353.785,35,340,35L340,35z"/>
	<g>
		<path fill="#FFFFFF" d="M190.341,293.34V320H82.367c0-8.134,1.315-15.894,3.948-23.276c2.631-7.383,6.34-13.74,11.125-19.072
			c3.691-4.102,8.014-8.101,12.971-11.997c4.956-3.896,14.817-11.039,29.583-21.431c7.178-4.989,12.202-9.639,15.073-13.945
			s4.307-9.296,4.307-14.971c0-6.562-1.932-11.877-5.793-15.945c-3.863-4.066-8.938-6.101-15.227-6.101
			c-15.45,0-23.414,11.11-23.892,33.326H85.649c0-1.436,0-2.528,0-3.281c0-18.183,5.092-32.265,15.278-42.247
			c9.911-9.706,22.729-14.561,38.452-14.561c13.945,0,25.6,3.965,34.966,11.895c10.185,8.613,15.278,20.2,15.278,34.761
			c0,12.715-4.068,23.653-12.202,32.812c-2.666,3.009-5.162,5.419-7.485,7.229c-2.325,1.812-8.443,6.171-18.354,13.074
			c-9.434,6.562-16.185,11.587-20.251,15.073c-4.068,3.486-7.844,7.485-11.331,11.997H190.341z"/>
		<path fill="#FFFFFF" d="M212.838,217.564c0.341-12.305,3.384-22.626,9.126-30.967c9.296-13.397,23.276-20.098,41.938-20.098
			c14.355,0,25.942,3.658,34.761,10.972c9.501,7.931,14.253,18.185,14.253,30.762c0,7.521-1.863,13.996-5.588,19.432
			c-3.728,5.434-8.768,9.109-15.125,11.022c8.065,1.846,14.44,5.947,19.123,12.305c4.682,6.357,7.024,14.048,7.024,23.071
			c0,14.835-5.47,26.968-16.406,36.401c-10.118,8.751-22.901,13.125-38.35,13.125c-16.749,0-30.028-4.819-39.837-14.458
			c-9.81-9.639-14.714-22.661-14.714-39.067c0-0.341,0-0.99,0-1.948h28.813c0,9.229,2.187,16.355,6.562,21.379
			c4.374,5.025,10.562,7.537,18.56,7.537s14.15-2.358,18.457-7.075c3.964-4.442,5.947-9.741,5.947-15.894
			c0-7.383-2.53-13.228-7.588-17.534c-4.171-3.554-10.597-5.332-19.277-5.332c-2.461,0-4.889,0.138-7.28,0.41v-22.046
			c1.776,0.138,3.486,0.205,5.127,0.205c17.227,0,25.84-6.391,25.84-19.175c0-5.604-1.881-10.134-5.64-13.587
			c-3.761-3.451-8.716-5.178-14.868-5.178c-7.042,0-12.477,2.188-16.304,6.562c-3.829,4.376-5.88,10.767-6.152,19.175H212.838z"/>
	</g>
	<g id="Voie">
		<path fill="#FFFFFF" d="M107.145,80l-9.967,29.982h-7.444L79.91,80h6.85l6.747,22.456L100.357,80H107.145z"/>
		<path fill="#FFFFFF" d="M118.321,86.972c3.254,0,5.913,1.08,7.978,3.24c2.037,2.133,3.056,4.977,3.056,8.531
			c0,3.678-1.087,6.61-3.261,8.798c-2.037,2.037-4.689,3.056-7.957,3.056c-3.486,0-6.262-1.135-8.326-3.404
			c-1.969-2.16-2.953-4.963-2.953-8.408c0-3.391,0.957-6.146,2.871-8.265C111.848,88.155,114.712,86.972,118.321,86.972z
			 M118.014,91.607c-1.572,0-2.823,0.636-3.753,1.907c-0.943,1.285-1.415,3.042-1.415,5.271c0,2.311,0.465,4.081,1.395,5.312
			c0.957,1.244,2.263,1.866,3.917,1.866c1.545,0,2.769-0.567,3.671-1.702c1.025-1.258,1.538-3.083,1.538-5.476
			c0-2.242-0.451-3.985-1.354-5.229C121.07,92.257,119.737,91.607,118.014,91.607z"/>
		<path fill="#FFFFFF" d="M139.321,80v5.353h-5.947V80H139.321z M139.321,87.629v22.354h-5.947V87.629H139.321z"/>
		<path fill="#FFFFFF" d="M164.279,103.01c-0.314,1.258-0.882,2.44-1.702,3.548c-1.969,2.693-4.799,4.04-8.49,4.04
			c-3.336,0-6.009-1.053-8.019-3.158c-0.984-1.025-1.736-2.263-2.256-3.712c-0.561-1.545-0.841-3.158-0.841-4.84
			c0-3.254,0.937-5.988,2.81-8.203c2.092-2.475,4.799-3.712,8.121-3.712c2.68,0,4.963,0.827,6.85,2.481
			c1.354,1.189,2.338,2.656,2.953,4.399s0.923,3.934,0.923,6.573h-15.606c0.055,1.094,0.226,2.003,0.513,2.728
			c0.807,1.955,2.338,2.933,4.594,2.933c1.107,0,2.01-0.243,2.707-0.728s1.271-1.268,1.723-2.348H164.279z M158.558,96.427
			c-0.109-1.08-0.355-1.976-0.738-2.687c-0.383-0.697-0.926-1.251-1.63-1.661s-1.473-0.615-2.307-0.615
			c-1.326,0-2.42,0.444-3.281,1.333s-1.374,2.099-1.538,3.63H158.558z"/>
	</g>
</g>
</svg>
