<?xml version="1.0" encoding="utf-8"?>
<!-- Generator: Adobe Illustrator 29.0.0, SVG Export Plug-In . SVG Version: 9.03 Build 54978)  -->
<svg version="1.0" id="Ebene_1" xmlns="http://www.w3.org/2000/svg" xmlns:xlink="http://www.w3.org/1999/xlink" x="0px" y="0px"
	 viewBox="0 0 400 400" enable-background="new 0 0 400 400" xml:space="preserve">
<rect id="background-blue" fill="#2D327D" width="400" height="400"/>
<g id="content">
	<path id="frameWhite" fill="#FFFFFF" d="M340,40c11,0,20,9,20,20v280c0,11-9,20-20,20H60c-11,0-20-9-20-20V60c0-11,9-20,20-20H340
		 M340,35H60c-13.785,0-25,11.215-25,25v280c0,13.785,11.215,25,25,25h280c13.785,0,25-11.215,25-25V60
		C365,46.215,353.785,35,340,35L340,35z"/>
	<g>
		<path fill="#FFFFFF" d="M85.515,217.588c0.341-12.305,3.384-22.626,9.126-30.967c9.296-13.397,23.276-20.098,41.938-20.098
			c14.355,0,25.942,3.658,34.761,10.972c9.501,7.931,14.253,18.185,14.253,30.762c0,7.521-1.863,13.996-5.588,19.432
			c-3.727,5.434-8.767,9.109-15.125,11.022c8.065,1.846,14.44,5.947,19.124,12.305c4.682,6.357,7.024,14.048,7.024,23.071
			c0,14.835-5.47,26.968-16.406,36.401c-10.118,8.751-22.901,13.125-38.35,13.125c-16.749,0-30.028-4.819-39.836-14.458
			c-9.81-9.639-14.714-22.661-14.714-39.067c0-0.341,0-0.99,0-1.948h28.813c0,9.229,2.187,16.355,6.562,21.379
			c4.374,5.025,10.562,7.537,18.56,7.537s14.15-2.358,18.457-7.075c3.964-4.442,5.947-9.741,5.947-15.894
			c0-7.383-2.53-13.228-7.588-17.534c-4.17-3.554-10.597-5.332-19.277-5.332c-2.461,0-4.888,0.138-7.28,0.41v-22.046
			c1.777,0.138,3.486,0.205,5.127,0.205c17.227,0,25.84-6.391,25.84-19.175c0-5.604-1.881-10.134-5.64-13.586
			c-3.76-3.451-8.716-5.178-14.868-5.178c-7.042,0-12.476,2.188-16.304,6.562c-3.829,4.376-5.88,10.767-6.152,19.175H85.515z"/>
		<path fill="#FFFFFF" d="M315.039,207.539h-28.506c-2.666-11.552-9.229-17.329-19.688-17.329c-11.074,0-18.937,6.803-23.584,20.405
			c-1.915,5.537-3.453,13.912-4.614,25.122c4.512-6.083,9.313-10.459,14.406-13.125c5.092-2.666,11.229-3.999,18.406-3.999
			c14.081,0,25.395,4.991,33.94,14.971c8.134,9.434,12.202,21.261,12.202,35.479c0,16.886-5.47,30.454-16.406,40.708
			c-9.844,9.229-21.671,13.843-35.479,13.843c-17.706,0-31.479-6.681-41.323-20.046c-9.844-13.364-14.766-32.009-14.766-55.936
			c0-25.565,5.263-45.595,15.791-60.088c10.185-14.013,24.097-21.021,41.733-21.021c16.611,0,29.326,5.572,38.145,16.714
			C310.355,189.664,313.603,197.764,315.039,207.539z M264.282,241.89c-7.178,0-12.887,3.009-17.124,9.023
			c-3.829,5.332-5.742,11.689-5.742,19.072c0,7.315,1.948,13.707,5.845,19.175c4.237,6.085,10.049,9.126,17.432,9.126
			c7.178,0,12.953-2.904,17.329-8.716c4.102-5.468,6.152-11.928,6.152-19.38c0-7.313-1.846-13.568-5.537-18.765
			C278.125,245.069,272.006,241.89,264.282,241.89z"/>
	</g>
	<g>
		<path fill="#FFFFFF" d="M82.851,80h12.1c2.037,0,3.64,0.126,4.809,0.379s2.225,0.701,3.168,1.343
			c2.611,1.75,3.917,4.389,3.917,7.916c0,3.131-1.08,5.592-3.24,7.383c-0.916,0.766-1.962,1.316-3.138,1.651
			s-2.625,0.502-4.348,0.502h-6.727v10.808h-6.542V80z M89.393,85.537v8.49h5.845c1.736,0,2.987-0.308,3.753-0.923
			c0.943-0.766,1.415-1.894,1.415-3.384c0-1.504-0.547-2.625-1.641-3.363c-0.793-0.547-2.085-0.82-3.876-0.82H89.393z"/>
		<path fill="#FFFFFF" d="M116.155,80v29.982h-5.947V80H116.155z"/>
		<path fill="#FFFFFF" d="M141.154,109.982h-6.07c-0.26-0.875-0.39-1.62-0.39-2.235c-1.859,1.9-4.259,2.851-7.198,2.851
			c-2.297,0-4.088-0.533-5.373-1.6c-1.477-1.23-2.215-2.946-2.215-5.147c0-2.803,1.265-4.744,3.794-5.824
			c1.025-0.438,2.912-0.841,5.66-1.21c2.365-0.314,3.838-0.619,4.419-0.913s0.872-0.885,0.872-1.774
			c0-1.955-1.299-2.933-3.896-2.933c-1.381,0-2.389,0.246-3.025,0.738s-1.056,1.347-1.261,2.563h-5.619
			c0.178-2.488,1.114-4.365,2.81-5.629s4.108-1.897,7.239-1.897c3.459,0,6.016,0.704,7.67,2.112c0.766,0.656,1.275,1.36,1.528,2.112
			s0.379,1.941,0.379,3.568c0,0.342-0.021,1.846-0.062,4.512c-0.027,2.693-0.041,4.238-0.041,4.635c0,1.627,0.048,2.82,0.144,3.579
			S140.826,109.08,141.154,109.982z M134.612,99.175c-0.766,0.479-2.16,0.854-4.184,1.128c-1.422,0.219-2.447,0.499-3.076,0.841
			c-0.889,0.479-1.333,1.292-1.333,2.44c0,0.93,0.294,1.654,0.882,2.174s1.408,0.779,2.461,0.779c1.75,0,3.165-0.615,4.245-1.846
			c0.383-0.424,0.646-0.865,0.79-1.323s0.215-1.063,0.215-1.815V99.175z"/>
		<path fill="#FFFFFF" d="M157.13,87.547v4.204h-4.45v10.521c0,1.258,0.116,2.058,0.349,2.399c0.342,0.492,1.107,0.738,2.297,0.738
			c0.465,0,1.066-0.034,1.805-0.103v4.758c-1.34,0.15-2.57,0.226-3.691,0.226c-1.695,0-2.987-0.191-3.876-0.574
			c-1.381-0.615-2.242-1.736-2.584-3.363c-0.15-0.697-0.226-2.14-0.226-4.327V91.751h-3.63v-4.204h3.63v-5.25h5.927v5.25H157.13z"/>
		<path fill="#FFFFFF" d="M171.711,80.021v4.573c-0.738-0.068-1.422-0.103-2.051-0.103c-1.039,0-1.736,0.15-2.092,0.451
			s-0.533,0.896-0.533,1.784v0.861h4.327v4.225h-4.266v18.17h-5.927v-18.17h-3.548v-4.225h3.548c0-1.586,0.096-2.734,0.287-3.445
			c0.752-2.844,3.131-4.266,7.137-4.266C169.236,79.877,170.275,79.925,171.711,80.021z"/>
		<path fill="#FFFFFF" d="M184.405,86.973c3.254,0,5.913,1.08,7.978,3.24c2.037,2.133,3.056,4.977,3.056,8.531
			c0,3.678-1.087,6.61-3.261,8.798c-2.037,2.037-4.689,3.056-7.957,3.056c-3.486,0-6.262-1.135-8.326-3.404
			c-1.969-2.16-2.953-4.963-2.953-8.408c0-3.391,0.957-6.146,2.871-8.265C177.932,88.155,180.796,86.973,184.405,86.973z
			 M184.098,91.607c-1.572,0-2.823,0.636-3.753,1.907c-0.943,1.285-1.415,3.042-1.415,5.271c0,2.311,0.465,4.081,1.395,5.312
			c0.957,1.244,2.263,1.866,3.917,1.866c1.545,0,2.769-0.567,3.671-1.702c1.025-1.258,1.538-3.083,1.538-5.476
			c0-2.242-0.451-3.985-1.354-5.229C187.153,92.257,185.82,91.607,184.098,91.607z"/>
		<path fill="#FFFFFF" d="M213.28,87.219v5.763c-0.957-0.178-1.729-0.267-2.317-0.267c-2.215,0-3.842,0.93-4.881,2.789
			c-0.588,1.039-0.882,2.775-0.882,5.209v9.27h-5.947V87.588h5.66v4.081c1.613-3.035,3.958-4.553,7.034-4.553
			C212.33,87.116,212.774,87.15,213.28,87.219z"/>
		<path fill="#FFFFFF" d="M221.771,87.649v2.974c0.752-1.025,1.497-1.784,2.235-2.276c1.326-0.916,2.885-1.374,4.676-1.374
			c2.898,0,4.929,1.23,6.091,3.691c1.75-2.461,4.129-3.691,7.137-3.691c2.324,0,4.129,0.694,5.414,2.082s1.928,3.346,1.928,5.875
			v15.053h-5.947v-13.31c0-1.436-0.157-2.44-0.472-3.015c-0.561-1.053-1.572-1.579-3.035-1.579c-1.777,0-3.015,0.752-3.712,2.256
			c-0.314,0.67-0.472,1.866-0.472,3.589v12.059h-5.927V96.427c0-1.326-0.157-2.283-0.472-2.871c-0.506-0.984-1.449-1.477-2.83-1.477
			c-0.848,0-1.61,0.212-2.287,0.636s-1.186,1.005-1.528,1.743s-0.513,1.894-0.513,3.466v12.059h-5.947V87.649H221.771z"/>
	</g>
</g>
</svg>
