<?xml version="1.0" encoding="utf-8"?>
<!-- Generator: Adobe Illustrator 24.2.0, SVG Export Plug-In . SVG Version: 6.00 Build 0)  -->
<svg version="1.0" id="Ebene_1" xmlns="http://www.w3.org/2000/svg" xmlns:xlink="http://www.w3.org/1999/xlink" x="0px" y="0px"
	 viewBox="0 0 400 400" enable-background="new 0 0 400 400" xml:space="preserve">
<rect id="background-blue" fill="#2D327D" width="400" height="400"/>
<g id="content_1_">
	<path id="frameWhite" fill="#FFFFFF" d="M340,40c11,0,20,9,20,20v280c0,11-9,20-20,20H60c-11,0-20-9-20-20V60c0-11,9-20,20-20H340
		 M340,35H60c-13.785,0-25,11.215-25,25v280c0,13.785,11.215,25,25,25h280c13.785,0,25-11.215,25-25V60
		C365,46.215,353.785,35,340,35L340,35z"/>
	<g>
		<path fill="#FFFFFF" d="M191.643,260.45v25.327h-18.867v34.248h-29.224v-34.248H81.004v-28.096l64.087-87.568h27.686v90.337
			H191.643z M144.168,260.757v-55.781l-38.555,55.781H144.168z"/>
		<path fill="#FFFFFF" d="M318.935,260.45v25.327h-18.867v34.248h-29.224v-34.248h-62.549v-28.096l64.087-87.568h27.686v90.337
			H318.935z M271.46,260.757v-55.781l-38.555,55.781H271.46z"/>
	</g>
	<g id="Gleis">
		<path fill="#FFFFFF" d="M107.94,93.822v16.16h-4.184l-0.656-3.425c-2.215,2.762-5.202,4.143-8.962,4.143
			c-4.58,0-8.196-1.695-10.849-5.086c-2.201-2.83-3.302-6.323-3.302-10.479c0-4.717,1.436-8.579,4.307-11.587
			c2.693-2.844,6.173-4.266,10.438-4.266c3.938,0,7.144,1.271,9.618,3.814c1.846,1.914,2.905,4.17,3.179,6.768h-6.337
			c-0.328-1.613-1.063-2.871-2.205-3.773s-2.587-1.354-4.337-1.354c-2.652,0-4.703,1.025-6.152,3.076
			c-1.271,1.791-1.907,4.211-1.907,7.26c0,2.98,0.595,5.346,1.784,7.096c1.463,2.146,3.623,3.22,6.48,3.22
			c2.064,0,3.756-0.622,5.076-1.866s2.013-2.878,2.082-4.901h-6.665v-4.799H107.94z"/>
		<path fill="#FFFFFF" d="M118.707,80v29.982h-5.947V80H118.707z"/>
		<path fill="#FFFFFF" d="M143.665,103.01c-0.314,1.258-0.882,2.44-1.702,3.548c-1.969,2.693-4.799,4.04-8.49,4.04
			c-3.336,0-6.009-1.053-8.019-3.158c-0.984-1.025-1.736-2.263-2.256-3.712c-0.561-1.545-0.841-3.158-0.841-4.84
			c0-3.254,0.937-5.988,2.81-8.203c2.092-2.475,4.799-3.712,8.121-3.712c2.68,0,4.963,0.827,6.85,2.481
			c1.354,1.189,2.338,2.656,2.953,4.399s0.923,3.934,0.923,6.573h-15.606c0.055,1.094,0.226,2.003,0.513,2.728
			c0.807,1.955,2.338,2.933,4.594,2.933c1.107,0,2.01-0.243,2.707-0.728s1.271-1.268,1.723-2.348H143.665z M137.943,96.427
			c-0.109-1.08-0.355-1.976-0.738-2.687c-0.383-0.697-0.926-1.251-1.63-1.661s-1.473-0.615-2.307-0.615
			c-1.326,0-2.42,0.444-3.281,1.333s-1.374,2.099-1.538,3.63H137.943z"/>
		<path fill="#FFFFFF" d="M153.652,80v5.353h-5.947V80H153.652z M153.652,87.629v22.354h-5.947V87.629H153.652z"/>
		<path fill="#FFFFFF" d="M176.641,94.13h-5.578c-0.109-0.766-0.321-1.347-0.636-1.743c-0.615-0.793-1.757-1.189-3.425-1.189
			c-1.053,0-1.866,0.191-2.44,0.574s-0.861,0.923-0.861,1.62c0,0.738,0.318,1.278,0.954,1.62s2.088,0.745,4.358,1.21
			c2.885,0.588,4.963,1.319,6.234,2.194c1.504,1.025,2.256,2.584,2.256,4.676c0,2.393-0.93,4.245-2.789,5.558
			c-1.832,1.299-4.259,1.948-7.28,1.948c-3.746,0-6.494-0.923-8.244-2.769c-1.176-1.258-1.832-2.974-1.969-5.147h5.701
			c0.109,1.012,0.369,1.777,0.779,2.297c0.766,0.93,2.03,1.395,3.794,1.395c1.23,0,2.208-0.25,2.933-0.749s1.087-1.172,1.087-2.02
			c0-0.766-0.311-1.336-0.933-1.712s-1.938-0.796-3.948-1.261c-1.941-0.451-3.315-0.803-4.122-1.056s-1.531-0.557-2.174-0.913
			c-0.834-0.479-1.483-1.148-1.948-2.01s-0.697-1.818-0.697-2.871c0-2.324,0.964-4.095,2.892-5.312
			c1.572-0.998,3.76-1.497,6.562-1.497c3.705,0,6.364,0.943,7.978,2.83C175.999,90.828,176.505,92.27,176.641,94.13z"/>
	</g>
</g>
</svg>
