<?xml version="1.0" encoding="utf-8"?>
<!-- Generator: Adobe Illustrator 24.2.0, SVG Export Plug-In . SVG Version: 6.00 Build 0)  -->
<svg version="1.0" id="Ebene_1" xmlns="http://www.w3.org/2000/svg" xmlns:xlink="http://www.w3.org/1999/xlink" x="0px" y="0px"
	 viewBox="0 0 400 400" enable-background="new 0 0 400 400" xml:space="preserve">
<rect id="background-blue" fill="#2D327D" width="400" height="400"/>
<g id="content_1_">
	<path id="frameWhite" fill="#FFFFFF" d="M340,40c11,0,20,9,20,20v280c0,11-9,20-20,20H60c-11,0-20-9-20-20V60c0-11,9-20,20-20H340
		 M340,35H60c-13.785,0-25,11.215-25,25v280c0,13.785,11.215,25,25,25h280c13.785,0,25-11.215,25-25V60
		C365,46.215,353.785,35,340,35L340,35z"/>
	<g>
		<path fill="#FFFFFF" d="M191.674,260.425v25.327h-18.867V320h-29.224v-34.248H81.034v-28.096l64.087-87.569h27.686v90.337H191.674
			z M144.198,260.733v-55.781l-38.555,55.781H144.198z"/>
		<path fill="#FFFFFF" d="M212.222,282.368h28.301c2.323,11.622,9.057,17.432,20.2,17.432c6.288,0,11.397-2.136,15.329-6.409
			c3.931-4.271,6.955-10.92,9.075-19.943c1.366-5.742,2.358-12.27,2.974-19.585c-4.581,6.427-9.279,10.989-14.1,13.688
			c-4.818,2.702-10.682,4.051-17.585,4.051c-11.007,0-20.577-3.212-28.711-9.639c-5.675-4.512-10.101-10.356-13.278-17.534
			c-3.18-7.178-4.769-14.971-4.769-23.379c0-16.884,5.775-30.557,17.329-41.016c9.911-9.023,21.806-13.535,35.684-13.535
			c8.544,0,16.439,1.915,23.687,5.742c7.245,3.829,13.33,9.264,18.252,16.304c8.681,12.51,13.022,30.08,13.022,52.706
			c0,20.918-3.829,38.76-11.484,53.525c-9.981,19.21-25.089,28.813-45.322,28.813c-13.468,0-24.594-3.725-33.377-11.177
			C218.665,304.962,213.589,294.948,212.222,282.368z M262.056,191.826c-6.427,0-11.861,2.632-16.304,7.896
			c-4.444,5.333-6.665,12.1-6.665,20.303c0,6.632,1.605,12.51,4.819,17.637c4.374,7.042,10.526,10.562,18.457,10.562
			c7.178,0,12.92-2.871,17.227-8.613c4.032-5.399,6.05-11.825,6.05-19.277c0-7.86-2.086-14.525-6.255-19.996
			C275.009,194.663,269.234,191.826,262.056,191.826z"/>
	</g>
	<g id="Voie">
		<path fill="#FFFFFF" d="M107.145,80l-9.967,29.982h-7.444L79.91,80h6.85l6.747,22.456L100.357,80H107.145z"/>
		<path fill="#FFFFFF" d="M118.321,86.972c3.254,0,5.913,1.08,7.978,3.24c2.037,2.133,3.056,4.977,3.056,8.531
			c0,3.678-1.087,6.61-3.261,8.798c-2.037,2.037-4.689,3.056-7.957,3.056c-3.486,0-6.262-1.135-8.326-3.404
			c-1.969-2.16-2.953-4.963-2.953-8.408c0-3.391,0.957-6.146,2.871-8.265C111.848,88.155,114.712,86.972,118.321,86.972z
			 M118.014,91.607c-1.572,0-2.823,0.636-3.753,1.907c-0.943,1.285-1.415,3.042-1.415,5.271c0,2.311,0.465,4.081,1.395,5.312
			c0.957,1.244,2.263,1.866,3.917,1.866c1.545,0,2.769-0.567,3.671-1.702c1.025-1.258,1.538-3.083,1.538-5.476
			c0-2.242-0.451-3.985-1.354-5.229C121.07,92.257,119.737,91.607,118.014,91.607z"/>
		<path fill="#FFFFFF" d="M139.321,80v5.353h-5.947V80H139.321z M139.321,87.629v22.354h-5.947V87.629H139.321z"/>
		<path fill="#FFFFFF" d="M164.279,103.01c-0.314,1.258-0.882,2.44-1.702,3.548c-1.969,2.693-4.799,4.04-8.49,4.04
			c-3.336,0-6.009-1.053-8.019-3.158c-0.984-1.025-1.736-2.263-2.256-3.712c-0.561-1.545-0.841-3.158-0.841-4.84
			c0-3.254,0.937-5.988,2.81-8.203c2.092-2.475,4.799-3.712,8.121-3.712c2.68,0,4.963,0.827,6.85,2.481
			c1.354,1.189,2.338,2.656,2.953,4.399s0.923,3.934,0.923,6.573h-15.606c0.055,1.094,0.226,2.003,0.513,2.728
			c0.807,1.955,2.338,2.933,4.594,2.933c1.107,0,2.01-0.243,2.707-0.728s1.271-1.268,1.723-2.348H164.279z M158.558,96.427
			c-0.109-1.08-0.355-1.976-0.738-2.687c-0.383-0.697-0.926-1.251-1.63-1.661s-1.473-0.615-2.307-0.615
			c-1.326,0-2.42,0.444-3.281,1.333s-1.374,2.099-1.538,3.63H158.558z"/>
	</g>
</g>
</svg>
