<?xml version="1.0" encoding="utf-8"?>
<!-- Generator: Adobe Illustrator 24.2.0, SVG Export Plug-In . SVG Version: 6.00 Build 0)  -->
<svg version="1.0" id="Ebene_1" xmlns="http://www.w3.org/2000/svg" xmlns:xlink="http://www.w3.org/1999/xlink" x="0px" y="0px"
	 viewBox="0 0 400 400" enable-background="new 0 0 400 400" xml:space="preserve">
<rect id="background-blue" fill="#2D327D" width="400" height="400"/>
<g id="content_1_">
	<path id="frameWhite" fill="#FFFFFF" d="M340,40c11,0,20,9,20,20v280c0,11-9,20-20,20H60c-11,0-20-9-20-20V60c0-11,9-20,20-20H340
		 M340,35H60c-13.785,0-25,11.215-25,25v280c0,13.785,11.215,25,25,25h280c13.785,0,25-11.215,25-25V60
		C365,46.215,353.785,35,340,35L340,35z"/>
	<g>
		<path fill="#FFFFFF" d="M182.856,170.088v26.66H122.46L116,230.484c7.245-7.655,16.509-11.484,27.788-11.484
			c11.074,0,20.713,2.974,28.916,8.921c12.167,8.956,18.252,22.559,18.252,40.811c0,17.911-6.495,32.095-19.482,42.554
			c-10.118,8.203-22.217,12.305-36.299,12.305c-15.86,0-28.608-4.255-38.247-12.767c-9.639-8.51-14.732-20.011-15.278-34.504h29.429
			c0.478,5.265,2.187,9.741,5.127,13.433c4.579,5.812,10.937,8.716,19.072,8.716c7.86,0,14.082-2.836,18.662-8.511
			c4.443-5.537,6.665-12.27,6.665-20.2c0-8.613-2.325-15.499-6.973-20.662c-4.649-5.16-10.835-7.741-18.56-7.741
			c-9.434,0-16.783,4.239-22.046,12.715l-26.763-0.41l14.253-83.57H182.856z"/>
		<path fill="#FFFFFF" d="M310.147,170.088v26.66h-60.396l-6.46,33.736c7.245-7.655,16.509-11.484,27.788-11.484
			c11.074,0,20.713,2.974,28.916,8.921c12.167,8.956,18.252,22.559,18.252,40.811c0,17.911-6.495,32.095-19.482,42.554
			c-10.118,8.203-22.218,12.305-36.299,12.305c-15.86,0-28.608-4.255-38.247-12.767c-9.639-8.51-14.732-20.011-15.278-34.504h29.429
			c0.478,5.265,2.187,9.741,5.127,13.433c4.579,5.812,10.937,8.716,19.072,8.716c7.86,0,14.081-2.836,18.662-8.511
			c4.442-5.537,6.665-12.27,6.665-20.2c0-8.613-2.325-15.499-6.973-20.662c-4.649-5.16-10.836-7.741-18.56-7.741
			c-9.434,0-16.783,4.239-22.046,12.715l-26.763-0.41l14.253-83.57H310.147z"/>
	</g>
	<g id="Voie">
		<path fill="#FFFFFF" d="M107.145,80l-9.967,29.982h-7.444L79.91,80h6.85l6.747,22.456L100.357,80H107.145z"/>
		<path fill="#FFFFFF" d="M118.321,86.972c3.254,0,5.913,1.08,7.978,3.24c2.037,2.133,3.056,4.977,3.056,8.531
			c0,3.678-1.087,6.61-3.261,8.798c-2.037,2.037-4.689,3.056-7.957,3.056c-3.486,0-6.262-1.135-8.326-3.404
			c-1.969-2.16-2.953-4.963-2.953-8.408c0-3.391,0.957-6.146,2.871-8.265C111.848,88.155,114.712,86.972,118.321,86.972z
			 M118.014,91.607c-1.572,0-2.823,0.636-3.753,1.907c-0.943,1.285-1.415,3.042-1.415,5.271c0,2.311,0.465,4.081,1.395,5.312
			c0.957,1.244,2.263,1.866,3.917,1.866c1.545,0,2.769-0.567,3.671-1.702c1.025-1.258,1.538-3.083,1.538-5.476
			c0-2.242-0.451-3.985-1.354-5.229C121.07,92.257,119.737,91.607,118.014,91.607z"/>
		<path fill="#FFFFFF" d="M139.321,80v5.353h-5.947V80H139.321z M139.321,87.629v22.354h-5.947V87.629H139.321z"/>
		<path fill="#FFFFFF" d="M164.279,103.01c-0.314,1.258-0.882,2.44-1.702,3.548c-1.969,2.693-4.799,4.04-8.49,4.04
			c-3.336,0-6.009-1.053-8.019-3.158c-0.984-1.025-1.736-2.263-2.256-3.712c-0.561-1.545-0.841-3.158-0.841-4.84
			c0-3.254,0.937-5.988,2.81-8.203c2.092-2.475,4.799-3.712,8.121-3.712c2.68,0,4.963,0.827,6.85,2.481
			c1.354,1.189,2.338,2.656,2.953,4.399s0.923,3.934,0.923,6.573h-15.606c0.055,1.094,0.226,2.003,0.513,2.728
			c0.807,1.955,2.338,2.933,4.594,2.933c1.107,0,2.01-0.243,2.707-0.728s1.271-1.268,1.723-2.348H164.279z M158.558,96.427
			c-0.109-1.08-0.355-1.976-0.738-2.687c-0.383-0.697-0.926-1.251-1.63-1.661s-1.473-0.615-2.307-0.615
			c-1.326,0-2.42,0.444-3.281,1.333s-1.374,2.099-1.538,3.63H158.558z"/>
	</g>
</g>
</svg>
