<?xml version="1.0" encoding="utf-8"?>
<!-- Generator: Adobe Illustrator 24.2.0, SVG Export Plug-In . SVG Version: 6.00 Build 0)  -->
<svg version="1.0" id="Ebene_1" xmlns="http://www.w3.org/2000/svg" xmlns:xlink="http://www.w3.org/1999/xlink" x="0px" y="0px"
	 viewBox="0 0 400 400" enable-background="new 0 0 400 400" xml:space="preserve">
<rect id="background-blue" fill="#2D327D" width="400" height="400"/>
<g id="content_1_">
	<path id="frameWhite" fill="#FFFFFF" d="M340,40c11,0,20,9,20,20v280c0,11-9,20-20,20H60c-11,0-20-9-20-20V60c0-11,9-20,20-20H340
		 M340,35H60c-13.785,0-25,11.215-25,25v280c0,13.785,11.215,25,25,25h280c13.785,0,25-11.215,25-25V60
		C365,46.215,353.785,35,340,35L340,35z"/>
	<g>
		<path fill="#FFFFFF" d="M186.65,170.088v25.43c-0.82,0.889-3.248,3.658-7.28,8.306c-5.606,6.427-11.177,14.509-16.714,24.251
			c-5.537,9.74-9.844,19.09-12.92,28.044c-6.495,18.662-10.425,39.957-11.792,63.882h-30.967
			c0.205-11.279,2.169-23.789,5.896-37.529c3.725-13.74,8.87-27.48,15.432-41.221c9.365-19.413,18.867-33.871,28.506-43.375H86.059
			v-27.788H186.65z"/>
		<path fill="#FFFFFF" d="M315.069,207.515h-28.506c-2.666-11.552-9.229-17.33-19.688-17.33c-11.074,0-18.937,6.803-23.584,20.406
			c-1.915,5.537-3.453,13.912-4.614,25.122c4.512-6.083,9.313-10.459,14.406-13.125c5.092-2.666,11.229-3.999,18.406-3.999
			c14.081,0,25.395,4.991,33.94,14.971c8.134,9.434,12.202,21.261,12.202,35.479c0,16.886-5.47,30.454-16.406,40.708
			c-9.844,9.229-21.671,13.843-35.479,13.843c-17.706,0-31.479-6.681-41.323-20.046c-9.844-13.364-14.766-32.009-14.766-55.936
			c0-25.565,5.263-45.595,15.791-60.088c10.185-14.013,24.097-21.021,41.733-21.021c16.611,0,29.326,5.572,38.145,16.714
			C310.385,189.639,313.633,197.74,315.069,207.515z M264.312,241.866c-7.178,0-12.887,3.009-17.124,9.023
			c-3.829,5.332-5.742,11.689-5.742,19.072c0,7.315,1.948,13.707,5.845,19.175c4.237,6.085,10.049,9.126,17.432,9.126
			c7.178,0,12.953-2.904,17.329-8.716c4.102-5.468,6.152-11.928,6.152-19.38c0-7.313-1.846-13.568-5.537-18.765
			C278.155,245.044,272.036,241.866,264.312,241.866z"/>
	</g>
	<g id="Voie">
		<path fill="#FFFFFF" d="M107.145,80l-9.967,29.982h-7.444L79.91,80h6.85l6.747,22.456L100.357,80H107.145z"/>
		<path fill="#FFFFFF" d="M118.321,86.972c3.254,0,5.913,1.08,7.978,3.24c2.037,2.133,3.056,4.977,3.056,8.531
			c0,3.678-1.087,6.61-3.261,8.798c-2.037,2.037-4.689,3.056-7.957,3.056c-3.486,0-6.262-1.135-8.326-3.404
			c-1.969-2.16-2.953-4.963-2.953-8.408c0-3.391,0.957-6.146,2.871-8.265C111.848,88.155,114.712,86.972,118.321,86.972z
			 M118.014,91.607c-1.572,0-2.823,0.636-3.753,1.907c-0.943,1.285-1.415,3.042-1.415,5.271c0,2.311,0.465,4.081,1.395,5.312
			c0.957,1.244,2.263,1.866,3.917,1.866c1.545,0,2.769-0.567,3.671-1.702c1.025-1.258,1.538-3.083,1.538-5.476
			c0-2.242-0.451-3.985-1.354-5.229C121.07,92.257,119.737,91.607,118.014,91.607z"/>
		<path fill="#FFFFFF" d="M139.321,80v5.353h-5.947V80H139.321z M139.321,87.629v22.354h-5.947V87.629H139.321z"/>
		<path fill="#FFFFFF" d="M164.279,103.01c-0.314,1.258-0.882,2.44-1.702,3.548c-1.969,2.693-4.799,4.04-8.49,4.04
			c-3.336,0-6.009-1.053-8.019-3.158c-0.984-1.025-1.736-2.263-2.256-3.712c-0.561-1.545-0.841-3.158-0.841-4.84
			c0-3.254,0.937-5.988,2.81-8.203c2.092-2.475,4.799-3.712,8.121-3.712c2.68,0,4.963,0.827,6.85,2.481
			c1.354,1.189,2.338,2.656,2.953,4.399s0.923,3.934,0.923,6.573h-15.606c0.055,1.094,0.226,2.003,0.513,2.728
			c0.807,1.955,2.338,2.933,4.594,2.933c1.107,0,2.01-0.243,2.707-0.728s1.271-1.268,1.723-2.348H164.279z M158.558,96.427
			c-0.109-1.08-0.355-1.976-0.738-2.687c-0.383-0.697-0.926-1.251-1.63-1.661s-1.473-0.615-2.307-0.615
			c-1.326,0-2.42,0.444-3.281,1.333s-1.374,2.099-1.538,3.63H158.558z"/>
	</g>
</g>
</svg>
