<svg xmlns="http://www.w3.org/2000/svg" width="24" height="24" viewBox="0 0 24 24">
  <g fill="none" fill-rule="evenodd">
    <path fill="#2D327D" d="M22.5,0 L1.5,0 C0.675000003,0 0,0.675000003 0,1.5 L0,22.5 C0,23.3250009 0.675000003,24 1.5,24 L22.5,24 C23.3250009,24 24,23.3250009 24,22.5 L24,1.5 C24,0.675000003 23.3250009,0 22.5,0 Z"/>
    <g fill="#FFF" transform="translate(5 3)">
      <path d="M6.10750013 1.62749961C6.10750013 2.51249981 5.39500052 3.22499991 4.51000032 3.22499991 3.62500012 3.22499991 2.91249991 2.51249981 2.91249991 1.62749961 2.91249991.742499403 3.62500002.0299995 4.51000022.0299995 5.39500052.0299995 6.10750013.750000003 6.10750013 1.62749961zM13.2700006 15.0825006L11.1100007 10.0050011C10.9600001 9.65250114 10.6149999 9.42750084 10.2325002 9.42750084L6.54250063 9.42750084 6.34750003 7.83750163 9.39999984 7.83750163C9.72250004 7.83750163 9.98500084 7.57500083 9.98500084 7.25250063 9.98500084 6.93000043 9.72250004 6.66750063 9.39999984 6.66750063L6.19750043 6.66750063 5.95750062 4.72500142C5.86750042 3.99750142 5.20750062 3.48750121 4.48000062 3.57750091 3.75250062 3.66750062 3.24250041 4.32750092 3.33250061 5.05500042L3.97000042 10.1400014C3.97750092 10.2000008 4.00000002 10.3575001 4.00000002 10.3725014 4.00000002 10.897501 4.42749982 11.3250008 4.95249942 11.3250008L9.60250004 11.3250008 11.5150013 15.8250009C11.6725006 16.1849996 12.0249997 16.4025003 12.3925019 16.4025003 12.5200024 16.4025003 12.6400014 16.3800012 12.7675019 16.3275014 13.2549993 16.1250001 13.4799996 15.5699998 13.2700006 15.0825006z"/>
      <path d="M10.3674994,14.4375001 C9.58000004,15.7650014 8.13249973,16.665001 6.47500043,16.665001 C3.97750002,16.665001 1.96000001,14.6400014 1.96000001,12.1500016 C1.96000001,10.897501 2.47000021,9.76500134 3.29500001,8.94750124 L3.11500061,7.39500143 C1.62250121,8.45250224 0.647500903,10.1850014 0.647500903,12.1500026 C0.647500903,15.3675023 3.25750061,17.977501 6.47500033,17.977501 C8.28999993,17.977501 9.91749954,17.1450005 10.9825,15.8400002 L10.3674994,14.4375001 Z"/>
    </g>
  </g>
</svg>
