<svg xmlns="http://www.w3.org/2000/svg" width="24" height="24" viewBox="0 0 24 24">
  <g fill="none" fill-rule="evenodd">
    <path fill="#2D327D" d="M22.5,0 L1.5,0 C0.675000003,0 0,0.675000003 0,1.5 L0,22.5 C0,23.3250009 0.675000003,24 1.5,24 L22.5,24 C23.3250009,24 24,23.3250009 24,22.5 L24,1.5 C24,0.675000003 23.3250009,0 22.5,0 Z"/>
    <g fill="#FFF" transform="translate(5 3)">
      <path d="M7.89249993 1.62749961C7.89249993 2.51249981 8.60499954 3.22499991 9.48999974 3.22499991 10.3749999 3.22499991 11.0874995 2.51249981 11.0874995 1.62749961 11.0874995.742499403 10.375.0299995 9.48999984.0299995 8.60499954.0299995 7.89249993.750000003 7.89249993 1.62749961zM.730000003 15.0825006L2.88999981 10.0050011C3.03999991 9.65250114 3.38500021 9.42750084 3.76749992 9.42750084L7.45749953 9.42750084 7.65250013 7.83750163 4.60000042 7.83750163C4.27750022 7.83750163 4.01499942 7.57500083 4.01499942 7.25250063 4.01499942 6.93000043 4.27750022 6.66750063 4.60000042 6.66750063L7.80249983 6.66750063 8.04249963 4.72500142C8.13249983 3.99750142 8.79249964 3.48750121 9.51999964 3.57750091 10.2474996 3.66750062 10.7574998 4.32750092 10.6674996 5.05500042L10.0299998 10.1400014C10.0224991 10.2000008 10 10.3575001 10 10.3725014 10 10.897501 9.57250024 11.3250008 9.04750064 11.3250008L4.39750002 11.3250008 2.48500011 15.8250009C2.32749981 16.1849996 1.97499991 16.4025003 1.60750051 16.4025003 1.48000041 16.4025003 1.36000011 16.3800012 1.23250051 16.3275014.744999903 16.1250001.520000002 15.5699998.730000003 15.0825006z"/>
      <path d="M3.63250062,14.4375001 C4.42000002,15.7650014 5.86750032,16.665001 7.52499963,16.665001 C10.0225,16.665001 12.040001,14.6400014 12.040001,12.1500016 C12.040001,10.897501 11.5300026,9.76500134 10.7050009,8.94750124 L10.8850003,7.39500143 C12.3775007,8.45250224 13.3525011,10.1850014 13.3525011,12.1500026 C13.3525011,15.3675023 10.7425004,17.977501 7.52500163,17.977501 C5.71000112,17.977501 4.08250052,17.1450005 3.01750191,15.8400002 L3.63250062,14.4375001 Z"/>
    </g>
  </g>
</svg>
