<svg xmlns="http://www.w3.org/2000/svg" width="24" height="24" viewBox="0 0 24 24">
  <g fill="none" fill-rule="evenodd">
    <path fill="#2D327D" d="M22.5,0 L1.5,0 C0.675000003,0 0,0.675000003 0,1.5 L0,22.5 C0,23.3250009 0.675000003,24 1.5,24 L22.5,24 C23.3250009,24 24,23.3250009 24,22.5 L24,1.5 C24,0.675000003 23.3250009,0 22.5,0 Z"/>
    <g fill="#FFF" transform="translate(3 2)">
      <path fill-rule="nonzero" d="M1.45499991 16.4799996C1.45499991 17.9274979 2.63249971 19.1124993 4.08750012 19.1124993 5.54250052 19.1124993 6.72000033 17.9349995 6.72000033 16.4799996 6.72000033 15.0325013 5.54250052 13.847499 4.08750012 13.847499 2.63249971 13.8549996 1.45499991 15.0325013 1.45499991 16.4799996L1.45499991 16.4799996zM2.21250011 16.4799996C2.21250011 15.4449998 3.05249981 14.6124993 4.07999952 14.6124993 5.11499982 14.6124993 5.94749932 15.4525014 5.94749932 16.4799996 5.94749932 17.5149994 5.10749912 18.3474999 4.07999952 18.3474999 3.05249991 18.3474999 2.21250011 17.5150014 2.21250011 16.4799996L2.21250011 16.4799996zM8.20499993 16.4799996C8.20499993 17.9274979 9.38249974 19.1124993 10.8374996 19.1124993 12.2849999 19.1124993 13.4700013 17.9349995 13.4700013 16.4799996 13.4700013 15.0325013 12.2925006 13.847499 10.8374996 13.847499 9.38999944 13.8549996 8.20499993 15.0325013 8.20499993 16.4799996L8.20499993 16.4799996zM8.97000034 16.4799996C8.97000034 15.4449998 9.81000054 14.6124993 10.8374997 14.6124993 11.8725005 14.6124993 12.7050001 15.4525014 12.7050001 16.4799996 12.7050001 17.5149994 11.8649998 18.3474999 10.8374997 18.3474999 9.80999964 18.3474999 8.97000034 17.5150014 8.97000034 16.4799996L8.97000034 16.4799996z"/>
      <path d="M.0225003 7.47999953C.247500201 9.60999874 1.1100002 11.5524997 2.42250021 13.1049996L12.5700013 13.1049996C13.8750007 11.5524997 14.7374999 9.60999874 14.9700019 7.47999953L.0225003 7.47999953.0225003 7.47999953zM6.49500083 6.72999953C6.90750023 6.72999953 7.07250023 6.43750003 6.87000083 6.07749933L3.72750092.632499903C1.59750081 1.86249991.135000701 4.11999992.0000012 6.72249913L6.49500113 6.72249913 6.49500113 6.72999953 6.49500083 6.72999953zM17.205 6.43750003L12.705 6.43750003 12.705 7.03750043 17.205 7.03750043C17.3700009 7.03750043 17.5049992 6.90250023 17.5049992 6.73750023 17.5049992 6.57250023 17.3700009 6.43750003 17.205 6.43750003L17.205 6.43750003z"/>
    </g>
  </g>
</svg>
