<svg xmlns="http://www.w3.org/2000/svg" width="24" height="24" viewBox="0 0 24 24">
  <g fill="none" fill-rule="evenodd">
    <path fill="#2D327D" d="M22.5,0 L1.5,0 C0.675000003,0 0,0.675000003 0,1.5 L0,22.5 C0,23.3250009 0.675000003,24 1.5,24 L22.5,24 C23.3250009,24 24,23.3250009 24,22.5 L24,1.5 C24,0.675000003 23.3250009,0 22.5,0 Z"/>
    <g fill="#FFF" transform="translate(2 2)">
      <path fill-rule="nonzero" d="M16.6825009 16.4799996C16.6825009 15.0325013 15.5049992 13.847499 14.0499993 13.847499 12.5949994 13.847499 11.4174995 15.0249997 11.4174995 16.4799996 11.4174995 17.9274979 12.5949994 19.1124993 14.0499993 19.1124993 15.4974996 19.1124993 16.6825009 17.9349996 16.6825009 16.4799996L16.6825009 16.4799996zM15.9174996 16.4799996C15.9174996 17.5149994 15.0774994 18.3474999 14.0499993 18.3474999 13.0225011 18.3474999 12.1825009 17.5074978 12.1825009 16.4799996 12.1825009 15.4449998 13.0225001 14.6124993 14.0499993 14.6124993 15.0775014 14.6124993 15.9174996 15.4525014 15.9174996 16.4799996L15.9174996 16.4799996zM9.92500024 16.4799996C9.92500024 15.0325013 8.74750044 13.847499 7.29249963 13.847499 5.84499942 13.847499 4.65999902 15.0249997 4.65999902 16.4799996 4.65999902 17.9274979 5.83749882 19.1124993 7.29249963 19.1124993 8.74750044 19.1124993 9.92500024 17.9349996 9.92500024 16.4799996L9.92500024 16.4799996zM9.16749954 16.4799996C9.16749954 17.5149994 8.32749933 18.3474999 7.30000013 18.3474999 6.26499933 18.3474999 5.43250032 17.5074978 5.43250032 16.4799996 5.43250032 15.4449998 6.27250003 14.6124993 7.30000013 14.6124993 8.32750023 14.6124993 9.16749954 15.4525014 9.16749954 16.4799996L9.16749954 16.4799996z"/>
      <path d="M18.1150018 7.47999953C17.8900014 9.60999874 17.0275003 11.5524997 15.7150003 13.1049996L5.56749962 13.1049996C4.26249932 11.5524997 3.39999961 9.60999874 3.16749951 7.47999953L18.1150018 7.47999953 18.1150018 7.47999953zM11.6424999 6.72999953C11.2299995 6.72999953 11.0649996 6.43750003 11.2674999 6.07749933L14.4099999.632499603C16.5399991 1.86249961 18.0024987 4.11999962 18.1375008 6.72249883L11.6424999 6.72999953 11.6424999 6.72999953zM.925000004 6.43750003L5.42500002 6.43750003 5.42500002 7.03750043.925000004 7.03750043C.760000303 7.03750043.625000003 6.90250023.625000003 6.73750023.625000003 6.57250023.760000203 6.43750003.925000004 6.43750003L.925000004 6.43750003z"/>
    </g>
  </g>
</svg>
