<svg xmlns="http://www.w3.org/2000/svg" width="24" height="24" viewBox="0 0 24 24">
  <g fill="none" fill-rule="evenodd">
    <path fill="#2D327D" d="M22.5,0 L1.5,0 C0.675000003,0 0,0.675000003 0,1.5 L0,22.5 C0,23.3250009 0.675000003,24 1.5,24 L22.5,24 C23.3250009,24 24,23.3250009 24,22.5 L24,1.5 C24,0.675000003 23.3250009,0 22.5,0 Z"/>
    <g fill="#FFF" transform="translate(3 2)">
      <path d="M2.43750001,2.4850001 C2.43750001,1.66000031 3.11250021,0.985000104 3.93750001,0.985000104 C4.76249982,0.985000104 5.43750001,1.66000031 5.43750001,2.4850001 C5.43750001,3.30999991 4.76249982,3.9850001 3.93750001,3.9850001 C3.10500001,3.9850001 2.43750001,3.31000041 2.43750001,2.4850001 L2.43750001,2.4850001 Z"/>
      <polygon points="15.893 18.88 15.645 19.128 7.74 11.23 7.995 10.975"/>
      <path d="M7.70249943,10.0825005 L7.70249943,10.0825005 C7.76999953,10.1575003 7.82999993,10.2475005 7.86000063,10.352501 C7.94250113,10.6750012 7.75500113,10.9975015 7.43250083,11.0875016 C7.21500113,11.1475011 6.99750043,11.080001 6.85500053,10.9300004 L6.85500053,10.9300004 L5.73750112,9.81250104 L5.73750112,8.11750043 L7.70249943,10.0825005 L7.70249943,10.0825005 Z"/>
      <path d="M1.77000001,18.6175004 C1.55999951,18.9774991 1.1025,19.0974999 0.742500103,18.8950006 C0.382500002,18.6850015 0.262500101,18.2275011 0.465000402,17.8675004 L2.43000081,14.4700013 L2.43000081,5.89750002 C2.43000081,5.07250022 3.10500051,4.39750002 3.93000082,4.39750002 C4.75500112,4.39750002 5.43000032,5.07250022 5.43000032,5.89750002 L5.43000032,11.4924993 C5.43000032,11.4924993 6.98250013,14.1849995 7.06500053,14.3199997 C7.14750093,14.4549999 7.17750073,14.5900002 7.17750073,14.7475014 C7.17750073,14.9050026 7.17750073,14.7475014 7.17750073,14.7475014 L7.17750073,18.2425022 C7.17750073,18.6550026 6.84000113,18.9925022 6.42750073,18.9925022 C6.01500133,18.9925022 5.67750072,18.6550026 5.67750072,18.2425022 L5.67750072,14.9200021 L3.93000082,11.8975 L3.93000082,14.8750001 L1.77000001,18.6175004 L1.77000001,18.6175004 Z"/>
    </g>
  </g>
</svg>
