<svg xmlns="http://www.w3.org/2000/svg" width="24" height="24" viewBox="0 0 24 24">
  <g fill="none" fill-rule="evenodd">
    <path fill="#2D327D" d="M22.5,0 L1.5,0 C0.675000003,0 0,0.675000003 0,1.5 L0,22.5 C0,23.3250009 0.675000003,24 1.5,24 L22.5,24 C23.3250009,24 24,23.3250009 24,22.5 L24,1.5 C24,0.675000003 23.3250009,0 22.5,0 Z"/>
    <g fill="#FFF" transform="translate(3 3)">
      <path d="M7.32749943,1.0574999 C7.76999953,0.300000001 8.73750024,0.0374999002 9.50249964,0.472499602 C10.2600002,0.907499804 10.5225001,1.88249921 10.0874996,2.64749961 C9.65250014,3.40499981 8.67749984,3.66749962 7.91250043,3.23250011 C7.15499973,2.79750011 6.89249993,1.82250021 7.32749943,1.0574999 L7.32749943,1.0574999 Z"/>
      <path fill-rule="nonzero" d="M1.0124998,18.1875001 C1.43999961,18.2999993 1.87500001,18.0525018 1.98750021,17.6250001 L3.93750002,10.3575001 L6.00000003,13.9350015 L6.00000003,17.415001 C6.00000003,17.8575002 6.35250003,18.2100011 6.79500013,18.2100011 C7.23750023,18.2100011 7.59000113,17.8575002 7.59000113,17.415001 C7.59000113,17.415001 7.59000113,13.9125005 7.59000113,13.7475015 C7.59000113,13.5825006 7.55250073,13.4400007 7.47000033,13.2975007 C7.38749983,13.1550027 5.69999982,10.2375011 5.69999982,10.2375011 L7.99500083,6.25500203 L8.84250064,7.72500233 L8.14500043,8.13000203 L9.63000104,10.6950016 L10.9500007,18.2025014 L11.3925008,18.1275006 L10.0500011,10.5300007 L10.0500011,10.5300007 L10.0500011,10.5225 L10.3575019,10.3425006 L10.3575019,10.3425006 L10.3575019,10.3425006 C10.5300016,10.6500014 10.9200019,10.7475003 11.2275018,10.5750007 C11.5350026,10.402501 11.6325015,10.0125007 11.4600028,9.70500084 L8.26500313,4.17000052 L8.26500313,4.17000052 C8.13000303,3.93750002 7.93500333,3.74250082 7.68750383,3.59250071 C6.93000323,3.15750031 5.95500282,3.41250041 5.51250362,4.17750072 C5.51250362,4.17750072 2.63250351,9.16500094 2.61750361,9.19500064 C2.57250351,9.27000044 2.55000351,9.33000084 2.52750391,9.41250034 C2.51249981,9.51000024 0.450000002,17.2200013 0.450000002,17.2200013 C0.330000201,17.6400014 0.585000302,18.0750009 1.0124998,18.1875001 L1.0124998,18.1875001 Z M9.11250024,8.18999963 L10.1025,9.90749934 L9.79499924,10.0874987 L8.80499944,8.36999903 L9.11250024,8.18999963 L9.11250024,8.18999963 Z"/>
    </g>
  </g>
</svg>
