<svg xmlns="http://www.w3.org/2000/svg" width="24" height="24" viewBox="0 0 24 24">
  <g fill="none" fill-rule="evenodd">
    <path fill="#2D327D" d="M22.5,0 L1.5,0 C0.675000003,0 0,0.675000003 0,1.5 L0,22.5 C0,23.3250009 0.675000003,24 1.5,24 L22.5,24 C23.3250009,24 24,23.3250009 24,22.5 L24,1.5 C24,0.675000003 23.3250009,0 22.5,0 Z"/>
    <g fill="#FFF" transform="translate(4 4)">
      <path d="M11.6975002 2.3000002C11.6975002 3.12500001 11.0225 3.8000002 10.1975002 3.8000002 9.37250044 3.8000002 8.69750024 3.13250071 8.69750024 2.3000002 8.69750024 1.46749971 9.36499974.800000203 10.1975002.800000203 11.0299997.800000203 11.6975002 1.47499991 11.6975002 2.3000002M15.1324998 4.25750062L8.95250134 4.25750062C8.51750094 4.23500062 8.09000113 4.43750002 7.85000133 4.83500002L6.69500163 6.71000003C6.49250223 7.03999993 6.28250123 7.38500023 6.06500243 7.75249953L5.63000202 8.45749954C4.48250202 10.3324995 5.09000202 11.8699989 6.97250173 11.8699989 7.10000133 11.8699989 10.4000015 11.8699989 10.4000015 11.8699989L10.9700012 14.2924996 10.9625015 14.2924996C10.9700012 14.3075009 10.9700012 14.3149987 10.9700012 14.33 10.9775018 14.3450013 10.9775018 14.3524991 10.9775018 14.3675004L11.4800014 16.4750005C11.6000022 16.7974988 11.9150018 17.0150014 12.2675019 16.977501 12.687502 16.9400006 13.0025006 16.5650006 12.9650002 16.1450005 12.9650002 16.1299992 12.9575005 16.1150017 12.9575005 16.1000004L11.7425002 11.0075006C11.6450004 10.6550006 11.277501 10.3775005 10.9099997 10.3775005L10.0700005 10.3775005 10.0700005 10.3775005 7.97000013 10.3775005 10.9550007 5.46500112 15.1175021 5.46500112C15.4550017 5.46500112 15.7250022 5.19500062 15.7250022 4.86500072 15.7325002 4.52750022 15.4624997 4.25750062 15.1324998 4.25750062z"/>
      <rect width="1" height="10.89" x="14.72" y="6.073"/>
      <path d="M9.10250004,12.5900003 L4.79749872,12.5900003 L4.79749872,12.5900003 L3.92749882,12.5900003 C3.77749872,12.5900003 3.62749862,12.4700014 3.58249811,12.3275014 L1.0849981,2.96000151 C1.077498,2.94500161 1.0699983,2.92250161 1.0624976,2.90000101 L1.0099978,2.69750121 C0.957498104,2.49500181 0.747498003,2.37500101 0.544998202,2.42750171 C0.342498301,2.48000151 0.214998301,2.69000101 0.274998201,2.90000111 L2.44999841,11.0600009 L2.44999841,11.0600009 L2.99749811,13.1074997 C3.03499791,13.2500001 3.19249821,13.3700009 3.33499811,13.3700009 L8.83249854,13.3700009 C8.84749794,13.3700009 8.86249734,13.3700009 8.87749864,13.3700009 L9.10249904,13.3700009 C9.31249904,13.3700009 9.48499874,13.1975022 9.48499874,12.9874993 C9.48499874,12.7549993 9.31250004,12.5900003 9.10250004,12.5900003"/>
    </g>
  </g>
</svg>
