<svg xmlns="http://www.w3.org/2000/svg" width="24" height="24" viewBox="0 0 24 24">
  <g fill="none" fill-rule="evenodd">
    <path fill="#2D327D" d="M22.5,0 L1.5,0 C0.675000003,0 0,0.675000003 0,1.5 L0,22.5 C0,23.3250009 0.675000003,24 1.5,24 L22.5,24 C23.3250009,24 24,23.3250009 24,22.5 L24,1.5 C24,0.675000003 23.3250009,0 22.5,0 Z"/>
    <g fill="#FFF" transform="translate(5 4)">
      <path d="M9.49750044,12.5074998 L5.19249912,12.5074998 L5.19249912,12.5074998 L4.32249932,12.5074998 C4.17249872,12.5074998 4.02249912,12.3875009 3.97749902,12.2450009 L1.47999861,2.87750101 C1.47249841,2.86250111 1.46499871,2.84000111 1.45749811,2.81750061 L1.40499831,2.61500071 C1.35249851,2.41250131 1.1424985,2.29250051 0.939998604,2.34500121 C0.737498703,2.39750101 0.609998703,2.60750051 0.669998603,2.81000141 L2.84499831,10.9700012 L2.84499831,10.9700012 L3.39249801,13.0175019 C3.42999841,13.1600018 3.58749861,13.2800027 3.72999862,13.2800027 L9.22749904,13.2800027 C9.24249844,13.2800027 9.25749784,13.2800027 9.27249914,13.2800027 L9.49749954,13.2800027 C9.70749954,13.2800027 9.87999924,13.1075021 9.87999924,12.8975011 C9.87999924,12.6800004 9.70750054,12.5074998 9.49750044,12.5074998"/>
      <path d="M13.33 15.9874993L12.1224995 10.9025001C12.0249997 10.5500001 11.6574973 10.2725 11.2899989 10.2725L10.4799985 10.2725C10.6374988 9.91250034 10.7274989 9.51499944 10.7274989 9.10249994 10.7274989 7.48249913 9.41499894 6.17749973 7.80249873 6.17749973 7.56249893 6.17749973 7.32999793 6.20749943 7.10499853 6.26000023L7.05999763 6.10250003C7.05249793 6.08749973 7.04499823 6.06499963 7.04499823 6.05000023L6.84249883 5.27750022C6.63249783 4.47500042 5.80749802 3.99499952 5.00499822 4.20500002 4.20249842 4.41500002 3.72249792 5.23999982 3.93249802 6.04249963L3.93249802 6.04249963 4.02249822 6.37999923 4.01499752 6.37999923 4.39749812 7.81999973 4.88499832 9.67999944 4.89249802 9.67999944 5.27499862 11.1425C5.36499882 11.4875003 5.73999882 11.7724992 6.09249873 11.7724992L10.772499 11.7724992 11.3424988 14.1875001 11.3424988 14.1875001C11.3424988 14.2025014 11.3500004 14.2099992 11.3500004 14.2250005 11.3500004 14.2400018 11.3575001 14.2474996 11.3575001 14.2625009L11.8525009 16.370001C11.9725017 16.6924993 12.2875005 16.9025003 12.6400014 16.8725015 13.0600015 16.8350011 13.3750001 16.4600011 13.3374997 16.040001 13.33 16.0175 13.33 16.0025006 13.33 15.9874993M6.37000081 2.1799993C6.37000081 3.00499961 5.70250132 3.6799993 4.87000081 3.6799993 4.04500002 3.6799993 3.37000081 3.01249981 3.37000081 2.1799993 3.37000081 1.35499951 4.03750032.679999303 4.87000081.679999303 5.69500062.679999303 6.37000081 1.35500001 6.37000081 2.1799993"/>
    </g>
  </g>
</svg>
