<svg xmlns="http://www.w3.org/2000/svg" width="24" height="24" viewBox="0 0 24 24">
  <g fill="none" fill-rule="evenodd">
    <path fill="#2D327D" d="M22.5,0 L1.5,0 C0.675000003,0 0,0.675000003 0,1.5 L0,22.5 C0,23.3250009 0.675000003,24 1.5,24 L22.5,24 C23.3250009,24 24,23.3250009 24,22.5 L24,1.5 C24,0.675000003 23.3250009,0 22.5,0 Z"/>
    <g fill="#FFF" transform="translate(4 3)">
      <path fill-rule="nonzero" d="M15.6499997,12.0749999 C15.6425,11.5200004 15.3199998,11.0325003 14.8549996,10.8000002 C14.8399983,10.7924996 14.8325005,10.7849999 14.8174992,10.7849999 C14.0299988,10.3950005 12.6875,9.44999994 12.6875,7.60499963 C12.6875,5.36999902 12.5299988,4.18499902 12.1175003,3.38249931 C11.6599988,2.48999941 10.8874997,2.09249981 9.59749884,2.06999931 C9.61999884,1.73999941 9.62749854,1.0199996 9.17749874,0.494999502 C8.98249814,0.269999401 8.62249934,-3.99999999e-07 7.99999893,-3.99999999e-07 C7.37749853,-3.99999999e-07 7.01749793,0.269999301 6.82249913,0.494999502 C6.37249933,1.0124994 6.37999903,1.73249921 6.40249813,2.06999931 C5.11999782,2.08499921 4.33999812,2.48999941 3.88249812,3.38249931 C3.46999841,4.18499902 3.31249761,5.36999892 3.31249761,7.60499953 C3.31249761,9.45749954 1.96999741,10.3949995 1.1824975,10.7849989 C1.1674976,10.7924995 1.1599975,10.7999992 1.1449976,10.7999992 C0.679997903,11.0324993 0.357497701,11.5199995 0.349997501,12.0749989 L0.349997501,13.1624985 L15.6499997,13.1624985 L15.6499997,12.0749999 Z M7.39999963,0.997500204 C7.53499983,0.840000404 7.72999953,0.765000303 8.00000003,0.765000303 C8.27000053,0.765000303 8.46500024,0.840000304 8.60000044,0.997500104 C8.85499964,1.29000041 8.84000024,1.83750001 8.83250054,2.07000061 L7.17500023,2.07000061 C7.16749953,1.82999991 7.14500053,1.29000001 7.39999963,0.997500204 Z"/>
      <path d="M6.47000033,13.5375005 C6.43250093,13.6800004 6.40999993,13.8224984 6.40999993,13.9799997 C6.40999993,14.8575002 7.12250053,15.5699999 8.00000013,15.5699999 C8.87749974,15.5699999 9.59000034,14.8575003 9.59000034,13.9799997 C9.59000034,13.8300001 9.56749934,13.6800005 9.52999994,13.5375005 L6.47000033,13.5375005 Z"/>
    </g>
  </g>
</svg>
