<svg xmlns="http://www.w3.org/2000/svg" width="24" height="24" viewBox="0 0 24 24">
  <g fill="none" fill-rule="evenodd">
    <path fill="#2D327D" d="M22.5,0 L1.5,0 C0.675000003,0 0,0.675000003 0,1.5 L0,22.5 C0,23.3250009 0.675000003,24 1.5,24 L22.5,24 C23.3250009,24 24,23.3250009 24,22.5 L24,1.5 C24,0.675000003 23.3250009,0 22.5,0 Z"/>
    <g fill="#FFF" transform="translate(3 3)">
      <path d="M16.3724996 9.44249924L16.364998 9.41999924C16.1999971 9.04499924 16.177498 8.72249904 16.2974988 8.39250003L15.9149991 8.25000003C15.7574979 8.67000014 15.7799989 9.10499954 15.9824983 9.57000064 16.1849996 10.2450008 16.0499975 10.7025012 15.9974996 10.7849998L15.5324975 11.4675006 15.2024995 11.2425002C15.0749971 11.1599997 14.9024984 11.1900004 14.8199979 11.317501L13.432499 13.3800011C13.3499985 13.5075035 13.3799973 13.6800022 13.5074979 13.7625027L13.7249986 13.9125023C13.6949979 13.9350014 13.6724969 13.9575024 13.6499978 13.9875031L12.3299972 15.9450036C12.2249977 16.1025029 12.2699968 16.312502 12.4199974 16.4175015L12.4499971 16.4400006C12.6074974 16.5450001 12.8174965 16.5000001 12.9224969 16.3500004L14.2424966 14.3924999C14.2649957 14.3624992 14.2724973 14.3325004 14.2874986 14.2950001L14.5049974 14.4449997C14.6324979 14.5275002 14.8049966 14.4975014 14.8874971 14.3700008L16.2749979 12.3075008C16.3574984 12.1800003 16.3274996 12.0075006 16.1999971 11.9250001L15.8699991 11.6999997 16.3349993 11.0100001 16.342499 11.0024995C16.4849988 10.7775002 16.5974999 10.1850004 16.3724996 9.44249924zM12.9150001 3.42749981C14.5950014 5.59499932 14.1900007 8.70750054 12.0299999 10.3874998 11.205 11.0249996 10.7399998 12.0225001 10.7775002 13.0650006 10.807499 13.83 10.6274996 14.5874997 10.2600003 15.2549992 10.0649997 15.6075001 9.78750054 15.8999997 9.44999994 16.1175003 8.32499993 16.8374996 6.83250053 16.5074997 6.11250033 15.3824997 5.97000042 15.1575012 6.03750053 14.8650017 6.25499933 14.7225018 6.47999953 14.5800019 6.77249913 14.6475011 6.91500003 14.8650018 7.35000043 15.5475007 8.25749973 15.7425023 8.93249904 15.307501 9.13499934 15.1800005 9.30749904 14.9925005 9.41999924 14.7825014 9.70500004 14.2650015 9.84749904 13.6800005 9.81749924 13.0950014 9.76499944 11.7450009 10.3724995 10.4475003 11.4375 9.62250054 13.1849996 8.27250013 13.5074998 5.75250062 12.1575004 4.00499972 10.8075009 2.25749881 8.28750043 1.93499951 6.54000093 3.28499991 5.62500092 3.98999982 5.06250092 5.05499942 4.99500032 6.20249943 4.98000052 6.46500023 4.75500062 6.66749953 4.48500012 6.65250023 4.22250032 6.63749983 4.02000052 6.41250043 4.03500032 6.14999963 4.12500002 4.72499992 4.82250022 3.40500021 5.94750022 2.53500031 8.12999923.862500004 11.2424994 1.26000021 12.9150001 3.42749981z"/>
      <path d="M11.6475 4.41000032C12.7800007 5.87250042 12.5100003 7.97999953 11.0475006 9.11250024 10.9499998 9.18750004 10.8600006 9.26249984 10.7700004 9.34500034 10.6125001 9.48750024 10.3650007 9.47249994 10.2224998 9.31500064 10.0800008 9.15750034 10.0950002 8.91000184 10.2524995 8.76750094 10.357499 8.67750074 10.4624995 8.58750154 10.5749997 8.49750044 11.6999997 7.62749963 11.9099997 6.00750063 11.0399999 4.87500002 10.1699991 3.75000002 8.55000014 3.54000001 7.41749953 4.41000032 7.13999933 4.62000032 6.91499993 4.88999982 6.74249933 5.18999962 6.63749983 5.37749962 6.40499973 5.44499972 6.21749973 5.34000022 6.02999973 5.23500072 5.96249962 5.00249962 6.06749923 4.81499962 6.28499893 4.42500022 6.58499913 4.07250022 6.94499973 3.80249982 8.40750034 2.67749981 10.5149994 2.93999961 11.6475 4.41000032zM6.81749923 11.1825008C5.74499902 10.6650009 4.87500002 9.80250074 4.35749922 8.72249984L0 13.0874997 0 18.0000001 6.81749923 11.1825008zM12.2100001.877499804C13.2374993 1.45499941 14.0924988 2.30249981 14.6700001 3.33750011L16.2900009 1.71750021 16.2900009 1.71750021 18.0000001 0 13.08 0 12.2100001.877499804z"/>
    </g>
  </g>
</svg>
