<svg xmlns="http://www.w3.org/2000/svg" width="24" height="24" viewBox="0 0 24 24">
  <g fill="none" fill-rule="evenodd">
    <path fill="#2D327D" d="M22.5,0 L1.5,0 C0.675000003,0 0,0.675000003 0,1.5 L0,22.5 C0,23.3250009 0.675000003,24 1.5,24 L22.5,24 C23.3250009,24 24,23.3250009 24,22.5 L24,1.5 C24,0.675000003 23.3250009,0 22.5,0 Z"/>
    <g fill="#FFF" transform="translate(2 3)">
      <path d="M18.5650006,7.08749963 L5.41000132,11.8799992 C5.16250142,11.9699994 4.90000112,11.955 4.66750192,11.8500004 C4.66750192,11.8500004 4.03000162,11.5500002 3.31000181,11.2200003 L3.94750212,12.9750005 C4.06000182,13.2825013 4.40500162,13.4474984 4.72000172,13.3349992 L18.3925024,8.35499963 C18.7000032,8.24249943 18.8650022,7.89749913 18.7525011,7.59000023 L18.5650006,7.08749963 Z"/>
      <path d="M.947500204 9.11250024L1.1200003 9.59249974C1.1725001 9.73499874 1.27750031 9.86250024 1.42750021 9.92999934L4.81000042 11.5049991C4.95249982 11.5724992 5.11000012 11.5799999 5.26750092 11.5275001L18.5650007 6.68999953C18.8725015 6.57749933 19.0375005 6.23249903 18.9249994 5.92500012L17.8450014 2.96999971.947500204 9.11250024zM12.9250003 13.1250001L13.5774995 13.1250001 12.7225 10.7849998 10.6149998 11.5500001 11.5299998 14.0699997C11.7549992 13.5224992 12.2950002 13.1250001 12.9250003 13.1250001z"/>
      <path fill-rule="nonzero" d="M12.9250003,13.5000001 C12.3024999,13.5000001 11.8000002,14.0025006 11.8000002,14.6250001 C11.8000002,15.2474996 12.3024999,15.7500001 12.9250003,15.7500001 L19.0000001,15.7500001 L19.0000001,13.5000001 L12.9250003,13.5000001 L12.9250003,13.5000001 Z M12.9250003,15.3750001 C12.5124999,15.3750001 12.1750003,15.0375005 12.1750003,14.6250001 C12.1750003,14.2124997 12.5124999,13.8750001 12.9250003,13.8750001 C13.3374997,13.8750001 13.6750003,14.2124997 13.6750003,14.6250001 C13.6750003,15.0375005 13.3450004,15.3750001 12.9250003,15.3750001 Z"/>
      <g transform="translate(1)">
        <polygon points="2.085 0 1.335 2.25 .78 2.25 .045 0 .555 0 1.057 1.688 1.568 0"/>
        <path fill-rule="nonzero" d="M2.72250031 5.55111512e-17L2.72250031.405000202 2.28000021.405000202 2.28000021 5.55111512e-17 2.72250031 5.55111512e-17zM2.72250031.569999902L2.72250031 2.25000001 2.28000021 2.25000001 2.28000021.569999902 2.72250031.569999902zM4.66500002 0L4.66500002 2.25000001 4.23750022 2.25000001 4.23750022 2.02500011C4.13999992 2.20499991 3.97499992 2.28749991 3.75000002 2.28749991 3.52500011 2.28749991 3.34499981 2.20499991 3.21000001 2.04000001 3.07499981 1.87500001 3.01500031 1.66500001 3.01500031 1.39500001 3.01500031 1.1474996 3.07500071.937500004 3.18750041.787499903 3.32250061.607499803 3.50250051.517500202 3.72750082.517500202 3.95250072.517500202 4.11750072.599999902 4.22250122.772500303L4.22250122 0 4.66500002 0zM3.83999972.885000204C3.72750002.885000204 3.62999972.930000004 3.56250001 1.0124998 3.49499991 1.1025 3.45750001 1.23000001 3.45750001 1.39500001 3.45750001 1.55249981 3.49499991 1.68000031 3.56250001 1.77749971 3.62999962 1.86749941 3.72750002 1.91249991 3.84750006 1.91249991 3.96750062 1.91249991 4.06499962 1.86750031 4.13250062 1.77749971 4.20000122 1.68749951 4.23750012 1.55999951 4.23750012 1.40249971 4.23750012 1.22999961 4.19999972 1.1025 4.13250062 1.0124998 4.05750042.930000104 3.96000002.885000204 3.83999972.885000204zM6.51749993 1.72499991C6.49499893 1.82250021 6.44999983 1.90500021 6.38999943 1.98750021 6.23999983 2.18999961 6.02999973 2.28749991 5.75249962 2.28749991 5.50499922 2.28749991 5.30249982 2.20499991 5.15250022 2.04750011 5.07749942 1.97250031 5.02499962 1.87500001 4.97999952 1.77000051 4.93499902 1.65750031 4.91999912 1.53000071 4.91999912 1.41000031 4.91999912 1.1624999 4.98749872.960000304 5.12999912.795000503 5.28750032.607500503 5.48999972.517500602 5.73750012.517500602 5.93999952.517500602 6.11250013.577500802 6.25499913.705000603 6.35999863.795000503 6.42749973.907500504 6.47999953 1.0350008 6.53249933 1.1625013 6.54749873 1.32750081 6.54749873 1.53000071L5.37749862 1.53000071C5.38499922 1.61250071 5.39249802 1.68000081 5.41499902 1.73250061 5.47499852 1.88250071 5.58749872 1.95000081 5.75999932 1.95000081 5.84249982 1.95000081 5.90999892 1.93500091 5.96249872 1.89750101 6.01499853 1.86000061 6.05999953 1.80000071 6.08999833 1.72500041L6.51749993 1.72499991 6.51749993 1.72499991zM6.09000023 1.23000001C6.08249953 1.1475 6.06000043 1.0799999 6.03750043 1.0275002 6.00750063.975000604 5.97000032.930000104 5.91749952.900000604 5.86499872.870001104 5.80499942.855000703 5.74499892.855000703 5.64749912.855000703 5.56499952.885000704 5.49749942.952500804 5.42999832 1.0200009 5.39249992 1.1100006 5.38499922 1.2225008L6.09000013 1.2225008 6.09000013 1.23000001 6.09000023 1.23000001zM7.62000083.525000102C7.86750033.525000102 8.06250003.607499803 8.22000023.764999903 8.37000083.922499704 8.45250124 1.1399999 8.45250124 1.40249971 8.45250124 1.67999941 8.37000073 1.89749961 8.20500083 2.06250001 8.05500023 2.21250011 7.85250083 2.29500011 7.60500043 2.29500011 7.34250063 2.29500011 7.13250063 2.21250011 6.98250003 2.04000001 6.83250053 1.87500001 6.75750063 1.66500001 6.75750063 1.40999981 6.75750063 1.1549996 6.83250043.952499804 6.97500033.787499403 7.13250063.614999803 7.35000043.525000102 7.62000083.525000102zM7.59749983.869999904C7.47749993.869999904 7.38749983.914999704 7.31250003 1.0124998 7.24500083 1.1100001 7.20750053 1.23750021 7.20750053 1.41000031 7.20750053 1.58250041 7.24500093 1.71750021 7.31250003 1.80750031 7.38749983 1.89750001 7.48500063 1.95000071 7.60499953 1.95000071 7.71749973 1.95000071 7.81499953 1.90500061 7.88249973 1.82250061 7.95749953 1.72500031 7.99499893 1.59000101 7.99499893 1.41000071 7.99499893 1.24500071 7.95749953 1.1100005 7.88999943 1.0200008 7.82250023.922500104 7.72500043.869999904 7.59749983.869999904z"/>
      </g>
    </g>
  </g>
</svg>
