<svg xmlns="http://www.w3.org/2000/svg" width="24" height="24" viewBox="0 0 24 24">
  <g fill="none" fill-rule="evenodd">
    <path fill="#2D327D" d="M22.5,0 L1.5,0 C0.675000003,0 0,0.675000003 0,1.5 L0,22.5 C0,23.3250009 0.675000003,24 1.5,24 L22.5,24 C23.3250009,24 24,23.3250009 24,22.5 L24,1.5 C24,0.675000003 23.3250009,0 22.5,0 Z"/>
    <g fill="#FFF" transform="translate(3 4)">
      <polygon points="0 6.875 15.6 6.875 15.6 9.125 0 9.125"/>
      <path d="M8.62500004,0.0875001 L8.62500004,0.312500001 C8.62500004,3.31250001 11.0625,5.75000002 14.0625001,5.75000002 L14.8125001,5.75000002 L14.8125001,4.62500002 L14.0625001,4.62500002 C11.6850004,4.62500002 9.75000004,2.68999961 9.75000004,0.312500001 L9.75000004,0.0875001 L8.62500004,0.0875001 L8.62500004,0.0875001 Z"/>
      <path d="M14.8125001,2.37500001 L14.0625001,2.37500001 C12.9225007,2.37500001 12.0000001,1.45249991 12.0000001,0.312500001 L12.0000001,0.0875001 L10.875,0.0875001 L10.875,0.312500001 C10.875,2.07499981 12.3000003,3.50000001 14.0625001,3.50000001 L14.8125001,3.50000001 C15.9525014,3.50000001 16.875,4.42250062 16.875,5.56250002 L16.875,5.75000002 L18.0000001,5.75000002 L18.0000001,5.56250002 C18.0000001,3.80000022 16.5750009,2.37500001 14.8125001,2.37500001 L14.8125001,2.37500001 Z"/>
      <polygon points="16.875 6.875 18 6.875 18 9.125 16.875 9.125"/>
    </g>
  </g>
</svg>
