<svg xmlns="http://www.w3.org/2000/svg" width="24" height="24" viewBox="0 0 24 24">
  <g fill="none" fill-rule="evenodd">
    <path fill="#2D327D" d="M22.5,0 L1.5,0 C0.675000003,0 0,0.675000003 0,1.5 L0,22.5 C0,23.3250009 0.675000003,24 1.5,24 L22.5,24 C23.3250009,24 24,23.3250009 24,22.5 L24,1.5 C24,0.675000003 23.3250009,0 22.5,0 Z"/>
    <g transform="translate(2 2)">
      <path fill="#FFF" d="M9.62500004,2.08750011 L9.62500004,2.31250001 C9.62500004,5.31250002 12.0625001,7.75000003 15.0625001,7.75000003 L15.8125001,7.75000003 L15.8125001,6.62500003 L15.0625001,6.62500003 C12.6850005,6.62500003 10.75,4.68999962 10.75,2.31250001 L10.75,2.08750011 L9.62500004,2.08750011 L9.62500004,2.08750011 Z"/>
      <path fill="#FFF" d="M15.8125001,4.37500002 L15.0625001,4.37500002 C13.9225007,4.37500002 13.0000001,3.45249991 13.0000001,2.31250001 L13.0000001,2.08750011 L11.875,2.08750011 L11.875,2.31250001 C11.875,4.07499982 13.3000003,5.50000002 15.0625001,5.50000002 L15.8125001,5.50000002 C16.9525014,5.50000002 17.875,6.42250063 17.875,7.56250003 L17.875,7.75000003 L19.0000001,7.75000003 L19.0000001,7.56250003 C19.0000001,5.80000022 17.5750009,4.37500002 15.8125001,4.37500002 L15.8125001,4.37500002 Z"/>
      <polygon fill="#FFF" points="17.875 8.875 19 8.875 19 11.125 17.875 11.125"/>
      <polygon fill="#FFF" points="19.053 17.972 12.205 11.125 16.6 11.125 16.6 8.875 9.955 8.875 1.705 .632 .648 1.69 7.833 8.875 1 8.875 1 11.125 10.083 11.125 17.987 19.038"/>
      <polygon fill="#EB0000" points="1.705 .632 .648 1.69 17.987 19.038 19.053 17.972"/>
    </g>
  </g>
</svg>
