<svg xmlns="http://www.w3.org/2000/svg" width="24" height="24" viewBox="0 0 24 24">
  <g fill="none" fill-rule="evenodd">
    <path fill="#2D327D" d="M22.5,0 L1.5,0 C0.675000003,0 0,0.675000003 0,1.5 L0,22.5 C0,23.3250009 0.675000003,24 1.5,24 L22.5,24 C23.3250009,24 24,23.3250009 24,22.5 L24,1.5 C24,0.675000003 23.3250009,0 22.5,0 Z"/>
    <g transform="translate(2 2)">
      <path fill="#FFF" d="M4.12749962,16.5550004 C3.45249991,16.5550004 2.90499981,17.1024991 2.90499981,17.7700006 C2.90499981,18.4449998 3.45249991,18.9925004 4.12749962,18.9925004 C4.80249932,18.9925004 5.34249982,18.4449998 5.34249982,17.7700006 C5.34249982,17.0950014 4.79500062,16.5550004 4.12749962,16.5550004 L4.12749962,16.5550004 Z"/>
      <path fill="#FFF" fill-rule="nonzero" d="M19.0525018,17.9724999 L16.9375001,15.8574983 L16.9375001,15.2500001 L16.33,15.2500001 L15.7374993,14.6575013 C16.4200002,14.5225011 16.9375001,13.915001 16.9375001,13.1875001 L16.9375001,8.50000004 C16.9375001,7.67500023 16.2625009,7.00000003 15.4375001,7.00000003 L12.6250001,7.00000003 L12.6250001,6.25000003 C12.6250001,5.83750012 12.2875005,5.50000002 11.875,5.50000002 L9.25000004,5.50000002 C8.83749964,5.50000002 8.50000004,5.83750012 8.50000004,6.25000003 L8.50000004,7.00000003 L8.07999993,7.00000003 L1.70499991,0.632499703 L0.647500303,1.68999981 L5.95750052,7.00000003 L5.68750002,7.00000003 C4.86250022,7.00000003 4.18750002,7.67500023 4.18750002,8.50000004 L4.18750002,13.1875001 C4.18750002,14.0125009 4.86250022,14.6875001 5.68750002,14.6875001 L13.6450006,14.6875001 L14.2075006,15.2500001 L3.62500002,15.2500001 L3.62500002,5.87500002 C3.62500002,5.67250012 3.46000001,5.50000002 3.25000001,5.50000002 L1.37500001,5.50000002 C1.1649997,5.50000002 1,5.66500002 1,5.87500002 C1,6.08500003 1.1649997,6.25000003 1.37500001,6.25000003 L2.87500001,6.25000003 L2.87500001,16.0000001 L14.9575006,16.0000001 L15.5350019,16.5775014 C14.9725019,16.6900006 14.5525018,17.1775018 14.5525018,17.7700006 C14.5525018,18.4449998 15.1000005,18.9925004 15.7749997,18.9925004 C16.3675004,18.9925004 16.8624993,18.5724984 16.9674989,18.0099984 L17.995001,19.0375005 L19.0525018,17.9724999 Z M9.25000004,6.25000003 L11.875,6.25000003 L11.875,7.00000003 L9.25000004,7.00000003 L9.25000004,6.25000003 Z"/>
      <polygon fill="#EB0000" points="1.705 .632 .648 1.69 17.987 19.038 19.053 17.972"/>
    </g>
  </g>
</svg>
