<svg xmlns="http://www.w3.org/2000/svg" width="24" height="24" viewBox="0 0 24 24">
  <g fill="none" fill-rule="evenodd">
    <path fill="#2D327D" d="M22.5,0 L1.5,0 C0.675000003,0 0,0.675000003 0,1.5 L0,22.5 C0,23.3250009 0.675000003,24 1.5,24 L22.5,24 C23.3250009,24 24,23.3250009 24,22.5 L24,1.5 C24,0.675000003 23.3250009,0 22.5,0 Z"/>
    <g transform="translate(2 2)">
      <path fill="#FFF" fill-rule="nonzero" d="M19.0974999,7.62250043 C19.0974999,6.37749963 18.0924988,5.37250042 16.8474999,5.37250042 L12.8724995,5.37250042 L12.8724995,4.43500042 C12.8724995,3.70750042 12.2874985,3.12250041 11.5599994,3.12250041 L8.63499924,3.12250041 C7.90749923,3.12250041 7.32249923,3.70750042 7.32249923,4.43500042 L7.32249923,5.37250042 L6.45249843,5.37250042 L1.70500021,0.632499903 L0.647500303,1.68999981 L4.32999992,5.37249902 L3.34750031,5.37249902 C2.10250041,5.37249902 1.0975003,6.37749863 1.0975003,7.62249953 L1.0975003,16.6224996 C1.0975003,17.8599988 2.10250041,18.8724996 3.34750031,18.8724996 L16.8475004,18.8724996 C17.1399999,18.8724996 17.4175001,18.8125001 17.6724993,18.7149984 L17.9874998,19.0299989 L19.0450006,17.9725 L18.7975011,17.7250005 C18.9850011,17.4025003 19.0900006,17.0200006 19.0900006,16.6224996 L19.0974999,7.62250043 L19.0974999,7.62250043 Z M8.37250043,4.17250012 L11.8225002,4.17250012 L11.8225002,5.37250042 L8.37250043,5.37250042 L8.37250043,4.17250012 Z"/>
      <polygon fill="#EB0000" points="1.705 .632 .648 1.69 17.987 19.038 19.053 17.972"/>
    </g>
  </g>
</svg>
