<svg xmlns="http://www.w3.org/2000/svg" width="24" height="24" viewBox="0 0 24 24">
  <g fill="none" fill-rule="evenodd">
    <path fill="#2D327D" d="M22.5,0 L1.5,0 C0.675000003,0 0,0.675000003 0,1.5 L0,22.5 C0,23.3250009 0.675000003,24 1.5,24 L22.5,24 C23.3250009,24 24,23.3250009 24,22.5 L24,1.5 C24,0.675000003 23.3250009,0 22.5,0 Z"/>
    <g transform="translate(2 2)">
      <path fill="#FFF" d="M1.26250001 14.1849996L1.26250001 14.1849996C1.0825 14.6049996 1.0074999 15.0699998 1 15.4674989 1 15.864998 1 19.0000001 1 19.0000001L8.82250024 19.0000001C8.90500074 18.8125001 9.13749984 18.3925 9.38500024 17.852501 9.18250084 17.9425012 8.95750044 17.9950009 8.71000004 18.0025006 8.69500064 18.0025006 8.67250064 18.0025006 8.65750024 18.0025006 8.35750003 18.0025006 8.05000013 17.9350014 7.76500123 17.8075009L4.25500062 16.2100011C3.75250102 15.977501 3.36250071 15.5800019 3.19000101 15.1150018 3.05500081 14.7550012 3.06250091 14.3800012 3.21250101 14.057501L4.80250072 10.6450005 5.67250152 8.77000054C5.83750102 8.26750093 5.69500152 7.70500093 5.29750152 7.34500033 5.23750112 7.29250053 5.17750072 7.24750043 5.10250092 7.21750073 4.75750062 7.07500083 4.36000062 7.23250013 4.21000102 7.57750133L1.26250001 14.1849996zM10.5174999 18.9700013C10.0749998 18.9624997 9.71500014 18.602501 9.72249894 18.1525002 9.72999954 17.710001 10.0899983 17.3500004 10.539999 17.3575001L12.0174981 17.3575001C12.4599982 17.3500004 12.8274985 17.710001 12.8349982 18.1525002 12.8424988 18.5950013 12.4824982 18.9624997 12.0399972 18.9700013L10.5174999 18.9700013zM11.4325008 17.0049993C10.9900007 16.9974996 10.630001 16.6375009 10.6374998 16.1949998 10.6450004 15.7525006 11.0049992 15.3925 11.4549999 15.3999997L12.932499 15.3999997C13.3749991 15.3925 13.7424994 15.7525006 13.7499991 16.1949998 13.7574997 16.6375009 13.3974991 17.0049993 12.9549981 17.0125009L11.4325008 17.0125009 11.4325008 17.0049993 11.4325008 17.0049993z"/>
      <path fill="#FFF" fill-rule="nonzero" d="M19.2025014,18.1375009 L14.2150003,13.1499998 L14.7625009,13.1499998 C15.2050001,13.1425001 15.5650007,12.7825004 15.557501,12.3325006 C15.5499994,11.8900013 15.1900007,11.5300007 14.7400018,11.5375004 L13.2625009,11.5375004 C13.0750009,11.5375004 12.9025012,11.5974999 12.767501,11.7024994 L12.415001,11.3500004 L14.5525018,6.74500093 C14.6875001,6.46000003 14.665001,6.13000113 14.5074998,5.81500102 C14.3424989,5.49250082 14.0499993,5.22250132 13.6825009,5.05750042 L10.1725006,3.46000001 C9.93250084,3.34750031 9.67000014,3.29500051 9.42250064,3.29500051 L9.37749964,3.29500051 C8.88249974,3.31000041 8.48500064,3.53500031 8.31250003,3.91000032 L7.25499923,6.18999963 L1.85499951,0.789999703 L0.797500103,1.86250001 L6.57999993,7.64500033 L3.52749971,14.2150001 C3.41500001,14.4550019 3.41500001,14.7250005 3.51249981,15.0025006 C3.65500022,15.3850022 3.97750002,15.7075006 4.39750002,15.9025003 L7.90750033,17.5000001 C8.14750013,17.6124993 8.40999994,17.665001 8.65750034,17.665001 L8.70250134,17.665001 C9.19750124,17.6499997 9.59500034,17.4249993 9.76750094,17.0499993 L11.7400007,12.8049994 L12.3775006,13.4424992 L12.3625012,13.4424992 C11.9200019,13.4349995 11.5525007,13.7949992 11.5450019,14.2374993 C11.5375013,14.6800004 11.8975009,15.0474988 12.3400021,15.0474988 L13.8550015,15.0474988 C13.8925019,15.0474988 13.937502,15.0399991 13.9750023,15.0399991 L18.1375027,19.2024995 L19.2025014,18.1375009 Z M8.97999954,4.54750012 L13.6000005,6.62500003 L11.7325001,10.6750002 L7.91500003,6.85000043 L8.97999954,4.54750012 Z M7.19500063,15.7525006 C7.07499983,16.0000001 6.77499963,16.1050015 6.52000053,15.977501 C6.26500133,15.8575002 6.15999993,15.5575009 6.28000073,15.3100015 C6.40000153,15.0625021 6.70000083,14.9575006 6.95500093,15.0775014 C7.21000003,15.205 7.31499963,15.5049993 7.19500063,15.7525006 Z M9.57250024,15.3400003 L4.95250082,13.2625009 L7.24000073,8.29750163 L11.0575008,12.1150009 L9.57250024,15.3400003 Z"/>
      <polygon fill="#EB0000" points="9.25 -2.263 10.75 -2.263 10.75 22.262 9.25 22.262" transform="rotate(-45 10 10)"/>
    </g>
  </g>
</svg>
