<svg xmlns="http://www.w3.org/2000/svg" width="24" height="24" viewBox="0 0 24 24">
  <g fill="none" fill-rule="evenodd">
    <path fill="#2D327D" d="M22.5,0 L1.5,0 C0.675000003,0 0,0.675000003 0,1.5 L0,22.5 C0,23.3250009 0.675000003,24 1.5,24 L22.5,24 C23.3250009,24 24,23.3250009 24,22.5 L24,1.5 C24,0.675000003 23.3250009,0 22.5,0 Z"/>
    <g transform="translate(2 2)">
      <path fill="#FFF" d="M6.08500003,15.955 C5.69500062,15.7524987 5.21499962,15.6324998 4.69750022,15.6324998 C3.39249991,15.6324998 2.33500001,16.3824998 2.33500001,17.3125001 C2.33500001,18.2425004 3.39249991,18.9925004 4.69750022,18.9925004 C6.00250053,18.9925004 7.06000043,18.2425004 7.06000043,17.3125001 L7.06000043,17.3125001 L7.06000043,8.10250003 L6.08500003,7.12749963 L6.08500003,15.955 Z"/>
      <polygon fill="#FFF" points="13.99 4.652 13.99 12.91 14.965 13.885 14.965 1 6.085 4.42 6.085 5.005 7.99 6.917"/>
      <path fill="#FFF" d="M10.2399998,15.2200013 C10.2399998,16.1499997 11.2975006,16.8999997 12.6025001,16.8999997 C13.6000005,16.8999997 14.4474985,16.4575005 14.7999994,15.8424989 L12.4975005,13.5400001 C11.2375002,13.5774995 10.2399998,14.3125001 10.2399998,15.2200013 Z"/>
      <polygon fill="#EB0000" points="1.705 .632 .648 1.69 17.987 19.038 19.053 17.972"/>
    </g>
  </g>
</svg>
