<svg xmlns="http://www.w3.org/2000/svg" width="24" height="24" viewBox="0 0 24 24">
  <g fill="none" fill-rule="evenodd">
    <path fill="#2D327D" d="M22.5,0 L1.5,0 C0.675000003,0 0,0.675000003 0,1.5 L0,22.5 C0,23.3250009 0.675000003,24 1.5,24 L22.5,24 C23.3250009,24 24,23.3250009 24,22.5 L24,1.5 C24,0.675000003 23.3250009,0 22.5,0 Z"/>
    <g transform="translate(2 2)">
      <path fill="#FFF" d="M5.39500052 15.5499993C5.16249992 15.8199998 4.88500032 16.0450001 4.57000072 16.2250004L6.28000073 18.6700001C6.44500073 18.9100018 6.77500153 18.9700012 7.01500133 18.7975006 7.25500113 18.6324997 7.31500053 18.3025017 7.14250093 18.0625019L5.39500052 15.5499993 5.39500052 15.5499993zM11.0725002 14.3799993L9.15999984 18.1375009C9.02499964 18.3999998 9.13000104 18.7150003 9.39250084 18.8500005 9.65500064 18.9849988 9.97000024 18.8799993 10.1050004 18.6175004L12.2650013 14.3799993 11.0725002 14.3799993 11.0725002 14.3799993z"/>
      <path fill="#FFF" d="M14.4849988 11.4850006L14.9049989 10.7575006 12.4449998 8.28250023 11.9124985 8.80000014C11.7474995 8.95750044 11.4249993 9.09249964 11.1924982 9.09249964L10.1724977 9.09249964 1.70499991.632499603.647500303 1.68999981 8.05000053 9.09250004 3.17500051 9.09250004C2.35750041 9.09250004 1.69000011 8.43249924 1.69000011 7.60749943 1.69000011 6.79000023 2.35000021 6.12249973 3.17500051 6.12249973 3.39250021 6.12249973 3.56499991 5.94999912 3.56499991 5.73249942 3.56499991 5.51500012 3.39249981 5.34250002 3.17500051 5.34250002 1.92250041 5.34250002.910000604 6.35499983.910000604 7.60749943.910000604 8.85999904 1.92250041 9.87249974 3.17500051 9.87249974L3.17500051 13.6299995 1.62250051 15.445 1.62250051 18.4375001C1.62250051 18.7299996 1.86250031 18.9700013 2.15500051 18.9700013 2.44750071 18.9700013 2.68750001 18.7299996 2.68750001 18.4375001L2.68750001 16.2325002C2.68750001 16.0674993 2.82250021 15.932501 2.98750021 15.932501 2.98750021 15.932501 2.99499991 15.932501 3.15249971 15.932501 4.38999992 15.932501 5.39499952 14.9424993 5.42500022 13.7124998L12.6850005 13.7124998 12.9700003 13.9975006 12.9700003 18.4224989C12.9700003 18.7225 13.2025013 18.9699976 13.4950009 18.9699976 13.7875005 18.9699976 14.0275002 18.7299978 14.0275002 18.4299967L14.0275002 15.0624983 17.9950009 19.0299971 19.0525017 17.9724963 14.4850006 13.4049971 14.4849988 11.4850006 14.4849988 11.4850006zM18.8275014 6.42999943L17.7775003 6.42999943 17.5000001 6.05499943C17.5000001 6.05499943 17.455 5.99499952 17.3950006 5.91250002 17.3350011 5.83750022 17.2150003 5.77000062 17.1175004 5.77000062 17.1175004 5.77000062 17.1175004 5.77000062 16.8700009 5.77000062L15.2650014 5.77000062C15.1300012 5.77000062 14.9425012 5.84500042 14.8450013 5.94250072 14.7475014 6.04000103 13.0075007 7.72750103 13.0075007 7.72750103L15.3100014 10.0450002 15.9325009 8.97250004C16.0000001 8.86000084 16.1575013 8.76250004 16.2924996 8.76250004L18.1674996 8.76250004 19.0674992 7.86250043 19.0674992 6.65499973C19.0674992 6.53499983 18.9624997 6.42999943 18.8275014 6.42999943z"/>
      <polygon fill="#EB0000" points="1.705 .632 .648 1.69 17.987 19.038 19.053 17.972"/>
    </g>
  </g>
</svg>
