<svg xmlns="http://www.w3.org/2000/svg" width="24" height="24" viewBox="0 0 24 24">
  <g fill="none" fill-rule="evenodd">
    <path fill="#2D327D" d="M22.5,0 L1.5,0 C0.675000003,0 0,0.675000003 0,1.5 L0,22.5 C0,23.3250009 0.675000003,24 1.5,24 L22.5,24 C23.3250009,24 24,23.3250009 24,22.5 L24,1.5 C24,0.675000003 23.3250009,0 22.5,0 Z"/>
    <g transform="translate(2 2)">
      <path fill="#FFF" d="M13.0375005 4.71250012C13.0375005 5.48500012 12.4150001 6.10750013 11.6424999 6.10750013 10.8699989 6.10750013 10.2474994 5.48500022 10.2474994 4.71250012 10.2474994 3.94000002 10.8699989 3.31750011 11.6424999 3.31750011 12.4150001 3.31750011 13.0375005 3.93999962 13.0375005 4.71250012L13.0375005 4.71250012zM14.5674993 10.1499996L13.5924999 9.17500024 12.0549995 9.17500024 13.7724992 10.8924999C13.869999 11.0124998 14.012499 11.0874996 14.177498 11.0874996 14.4699975 11.0874996 14.7324983 10.8249998 14.7324983 10.5325002 14.7250005 10.3825006 14.665001 10.2475004 14.5674993 10.1499996L14.5674993 10.1499996z"/>
      <rect width="1" height="1" x="6.663" y="12.948" fill="#FFF"/>
      <path fill="#FFF" fill-rule="nonzero" d="M19.0525018,17.9724999 L14.6575013,13.5774985 L18.1825009,13.5774985 C18.5950013,13.5774985 18.9325009,13.2324982 18.9325009,12.8124991 L18.9325009,1.71249891 C18.9325009,1.29249911 18.5950013,0.947499004 18.1825009,0.947499004 L2.02000001,0.947499004 L1.70500021,0.632499203 L0.647500303,1.68999981 L0.955000204,1.99749971 L0.955000204,12.8125001 C0.955000204,13.2325002 1.29250011,13.5774995 1.70500021,13.5774995 L4.78749992,13.5774995 L4.78749992,12.9399997 L1.70500021,12.9399997 C1.63750011,12.9399997 1.59250021,12.8799993 1.59250021,12.8049995 L1.59250021,8.97999964 L5.19999982,8.97999964 L5.57499982,8.60499964 L1.59250021,8.60499964 L1.59250021,2.62749961 L6.72999953,7.76499943 C5.94999982,8.54499914 5.15499972,9.34000024 5.11749932,9.37749964 C5.04249952,9.45249944 4.98249912,9.55749904 4.98249912,9.67749984 C4.98249912,9.79750064 4.98249912,18.2950002 4.98249912,18.2950002 C4.98249912,18.7075006 5.31999922,19.0450002 5.73249912,19.0450002 C6.14499953,19.0450002 6.48249913,18.7075006 6.48249913,18.2950002 L6.48249913,11.3050003 L7.48749923,12.3025008 L7.48749923,15.8199998 C7.48749923,16.2325002 7.82499883,16.5699998 8.23749923,16.5699998 C8.64999864,16.5699998 8.98749924,16.2325002 8.98749924,15.8199998 L8.98749924,12.0325004 C8.98749924,12.0325004 9.01749804,11.7849999 8.84499934,11.6200009 L7.68999963,10.4650012 L8.55249984,9.57250134 L11.9125004,12.932502 L9.18250094,12.932502 C9.18250094,13.1275026 9.18250094,13.3450014 9.18250094,13.5700018 L9.20500094,13.5700018 L12.5500003,13.5700018 L18.0025006,19.0225012 L19.0525018,17.9724999 Z M10.5249996,6.10750013 L10.5249996,6.10750013 C10.2624998,5.86750082 9.87999924,5.71000002 9.44500064,5.71000002 C8.95750044,5.71000002 8.52250004,5.91249992 8.27499963,6.22000023 C8.27499963,6.22000023 8.07999993,6.41500083 7.77999973,6.71500103 L2.64999961,1.58500081 L18.1749993,1.58500081 C18.2425004,1.58500081 18.2875004,1.64500101 18.2875004,1.72000101 L18.2875004,8.62000064 L9.81250004,8.62000064 L9.74500084,8.68750004 L9.57250024,8.51499944 L10.4575004,7.60000043 L11.2825002,8.42500024 L12.8200007,8.42500024 L10.5249996,6.10750013 Z M10.0674992,8.98750024 L18.3025018,8.98750024 L18.3025018,12.8125001 C18.3025018,12.8874999 18.2500001,12.9475003 18.1900007,12.9475003 L14.0275003,12.9475003 L10.0674992,8.98750024 Z"/>
      <polygon fill="#EB0000" points="1.705 .632 .648 1.69 17.987 19.038 19.053 17.972"/>
    </g>
  </g>
</svg>
