<svg xmlns="http://www.w3.org/2000/svg" width="24" height="24" viewBox="0 0 24 24">
  <g fill="none" fill-rule="evenodd">
    <path fill="#2D327D" d="M22.5,0 L1.5,0 C0.675000003,0 0,0.675000003 0,1.5 L0,22.5 C0,23.3250009 0.675000003,24 1.5,24 L22.5,24 C23.3250009,24 24,23.3250009 24,22.5 L24,1.5 C24,0.675000003 23.3250009,0 22.5,0 Z"/>
    <g transform="translate(2 2)">
      <path fill="#FFF" d="M1.0675001,14.4325009 L3.19750021,12.3325005 C3.32499981,12.2124997 3.52000041,12.2124997 3.64750002,12.3325005 L3.88000012,12.5650006 L2.33500001,14.0950013 L2.56750011,14.3275014 L4.55500032,12.3625012 C4.68250042,12.2424999 4.87749962,12.2424999 5.00499962,12.3625012 L5.23750022,12.5950013 L3.02500011,14.7775002 L3.25749971,15.0100022 L5.89750002,12.4000016 C6.02499963,12.2800008 6.22000023,12.2800008 6.34749983,12.4000016 L6.58000083,12.6325017 L3.69999972,15.4900018 L3.93249982,15.7225019 L7.24750033,12.4525014 C7.43500033,12.2650014 7.74250023,12.2650014 7.92250053,12.4600011 C8.11000053,12.6475011 8.11000053,12.9550019 7.91499993,13.1350013 L4.35999962,16.6450006 C4.05249982,16.9449998 4.05249982,17.4400006 4.35250002,17.7475015 C4.50249962,17.8975011 4.68999962,17.9725019 4.88500032,17.9800016 L6.62500003,17.9800016 L6.81250003,17.9875032 C6.93999963,17.9950029 7.07499983,18.0475008 7.17250063,18.1525041 C7.28499983,18.272503 7.34500033,18.4300043 7.33000093,18.5800039 L7.33000093,18.670006 C7.33000093,18.7600062 7.30000123,18.8500044 7.23250013,18.9175036 C7.16500093,18.9850047 7.07499983,19.0150034 6.98500063,19.0150034 L1.0600002,19.0150034"/>
      <path fill="#FFF" fill-rule="nonzero" d="M19.165001,18.0550004 L14.7700005,13.659999 L18.3025017,13.659999 C18.7150002,13.659999 19.0525017,13.3149987 19.0525017,12.8949996 L19.0525017,1.79499941 C19.0525017,1.37499961 18.7150002,1.0299995 18.3025017,1.0299995 L2.13999991,1.0299995 L1.82500001,0.714999703 L0.767500203,1.77250031 L1.0675002,2.07250031 L1.0675002,12.8950006 C1.0675002,13.2325002 1.28500041,13.517501 1.58500041,13.6225006 L2.18500051,13.0300009 L1.81750011,13.0300009 C1.75000001,13.0300009 1.69750021,12.9700005 1.69750021,12.8950007 L1.69750021,9.07000084 L6.21249963,9.07000084 L6.58749963,8.69500084 L1.69750021,8.69500084 L1.69750021,2.71000001 L7.26249983,8.27499963 L6.31000043,9.22750004 C6.12250043,9.41500004 6.12250043,9.72249994 6.31750103,9.90999994 L7.86250113,11.4550009 C8.05000113,11.6425009 8.35750193,11.6425009 8.54500194,11.4550009 L9.49750134,10.5025006 L12.0250016,13.0300009 L8.23000143,13.0300009 C8.19250203,13.1275007 8.14000223,13.2100003 8.06500243,13.2850001 L7.68250183,13.6675007 L12.6625024,13.6675007 L18.1150018,19.120001 L19.165001,18.0550004 Z M10.5475006,9.43750004 L11.2300005,8.75499924 C12.017501,7.96749983 11.8825007,6.74499903 12.3400012,6.28750043 L12.3400012,6.28750043 C12.7975017,5.82999952 13.6900006,4.73500022 13.6900006,4.73500022 L13.6975012,4.74250082 C13.7425022,4.78000072 13.817502,4.78000072 13.8625012,4.73500022 L14.0350019,4.56250002 C14.080002,4.51749992 14.080002,4.44250012 14.0350019,4.38999992 L13.352501,3.70750002 C13.3075009,3.66249992 13.2325002,3.66249992 13.1800004,3.70750002 L13.0075007,3.88000012 C12.9624997,3.92500022 12.9624997,4.00000002 13.0000001,4.04500012 L13.0075007,4.05249982 C13.0075007,4.05249982 11.92,4.96000012 11.4700002,5.41749962 C11.0200004,5.87499912 9.79750054,5.73999982 9.01000024,6.53499903 L8.33500003,7.21749973 L2.79250001,1.67499951 L18.3250013,1.67499951 C18.3925005,1.67499951 18.4450002,1.73499971 18.4450002,1.80999971 L18.4450002,8.70999934 L11.5525011,8.70999934 L11.1775011,9.08499934 L18.4450002,9.08499934 L18.4450002,12.9099992 C18.4450002,12.984999 18.3925004,13.0449994 18.3250013,13.0449994 L14.1549993,13.0449994 L10.5475006,9.43750004 Z"/>
      <polygon fill="#EB0000" points="1.825 .715 .768 1.773 18.108 19.12 19.165 18.055"/>
    </g>
  </g>
</svg>
