<svg xmlns="http://www.w3.org/2000/svg" width="24" height="24" viewBox="0 0 24 24">
  <g fill="none" fill-rule="evenodd">
    <path fill="#2D327D" d="M22.5,0 L1.5,0 C0.675000003,0 0,0.675000003 0,1.5 L0,22.5 C0,23.3250009 0.675000003,24 1.5,24 L22.5,24 C23.3250009,24 24,23.3250009 24,22.5 L24,1.5 C24,0.675000003 23.3250009,0 22.5,0 Z"/>
    <g transform="translate(2 2)">
      <path fill="#FFF" d="M7.61499883,16.8099996 C7.61499883,18.1224996 8.67999944,19.1875001 9.99249944,19.1875001 C11.3049994,19.1875001 12.3699991,18.1224996 12.3699991,16.8099996 L12.3699991,14.4324991 L7.61499883,14.4324991 L7.61499883,16.8099996 L7.61499883,16.8099996 Z"/>
      <path fill="#FFF" d="M19.1949998,18.1299993 L12.535,11.4699994 L13.2550012,8.49249944 C13.330001,8.19249923 13.330001,7.86999903 13.2625009,7.56999973 L12.0475017,1.95999911 C11.9050017,1.29249911 11.312501,0.819999203 10.6300021,0.819999203 L9.35500154,0.819999203 C8.67250164,0.819999203 8.08750253,1.29249951 7.93750203,1.95999911 L7.06000233,6.00249863 L1.84750031,0.789999903 L0.789999703,1.84750031 L6.70750023,7.76500133 C6.67750053,8.12500103 6.71500083,8.49250034 6.93250063,8.90500074 C7.25500083,9.51250084 7.95250113,10.8325005 7.95250113,10.8325005 L10.9824999,12.0400011 L18.130001,19.1875002 L19.1949998,18.1299993 Z"/>
      <polygon fill="#EB0000" points="1.848 .79 .79 1.848 18.13 19.195 19.195 18.13"/>
    </g>
  </g>
</svg>
