<svg xmlns="http://www.w3.org/2000/svg" width="24" height="24" viewBox="0 0 24 24">
  <g fill="none" fill-rule="evenodd">
    <path fill="#2D327D" d="M22.5,0 L1.5,0 C0.675000003,0 0,0.675000003 0,1.5 L0,22.5 C0,23.3250009 0.675000003,24 1.5,24 L22.5,24 C23.3250009,24 24,23.3250009 24,22.5 L24,1.5 C24,0.675000003 23.3250009,0 22.5,0 Z"/>
    <g transform="translate(2 2)">
      <path fill="#FFF" d="M8.85250004,2.18500041 C8.85250004,1.45750041 8.26750003,0.872500204 7.54000003,0.872500204 C6.81250003,0.872500204 6.22750003,1.45750051 6.22750003,2.18500041 C6.22750003,2.91250031 6.81250003,3.49750041 7.54000003,3.49750041 C8.26750003,3.49750041 8.85250004,2.90500021 8.85250004,2.18500041 L8.85250004,2.18500041 Z"/>
      <path fill="#FFF" fill-rule="nonzero" d="M19.1050015,17.0125009 L18.0924988,17.0125009 L10.4724998,9.39999974 L10.4724998,5.1475008 C10.4724998,4.42000052 9.88749984,3.83500002 9.15999984,3.83500002 L5.97999952,3.83500002 C5.67999932,3.83500002 5.40249962,3.94000052 5.18499892,4.10500002 L2.55249931,1.47250031 L5.00499962,1.47250031 L5.00499962,3.86500022 C5.05000022,3.83500002 5.09499932,3.79750012 5.13999992,3.77500062 C5.13999992,3.77500062 5.13999992,3.77500062 5.1475015,3.77500062 C5.19250062,3.74500042 5.23750022,3.72250082 5.29000002,3.70000082 C5.29000002,3.70000082 5.29000002,3.70000082 5.29750022,3.70000082 C5.35000002,3.67750032 5.39500052,3.65500072 5.44750032,3.64000042 L5.44750032,3.64000042 C5.50000002,3.61750032 5.55249982,3.60250042 5.60500052,3.59500031 L5.60500052,0.887500504 L1.95250081,0.887500504 L1.71250101,0.647500803 L1.47250131,0.887500504 L1.1050012,0.887500504 L1.1050012,1.25500061 L0.647501503,1.71250061 L1.1050012,2.17000061 L1.1050012,18.8950011 L2.15500121,18.8950011 L2.15500121,16.4950015 L5.60500202,16.4950015 L5.60500202,12.2500001 C5.34250172,12.5124999 5.14000232,12.7150003 5.05000222,12.8049995 C5.03500282,12.8199998 5.02000292,12.8349992 5.00500212,12.8500005 C5.00500212,13.0674993 5.00500212,14.6275007 5.00500212,14.6275007 L5.00500212,14.6275007 L5.00500212,15.8950006 L2.15500161,15.8950006 L2.15500161,15.2799989 L3.06250191,14.3724996 L3.06250191,13.5249988 L2.15500161,14.4324991 L2.15500161,3.19750021 L4.66750192,5.71000002 L4.66750192,9.10750004 C4.66750192,9.36250014 4.87750192,9.57250024 5.13250162,9.57250024 C5.38750132,9.57250024 5.59750132,9.36250024 5.59750132,9.10750004 L5.59750132,6.6475008 L6.01000123,7.06000043 L6.01000123,9.49750044 L3.35500151,12.1525012 L3.35500151,14.6050015 C3.35500151,14.9800015 3.65500122,15.2800026 4.03000122,15.2800026 C4.39750152,15.2800026 4.70500192,14.9800015 4.70500192,14.6050015 L4.70500192,12.7000027 L7.36000163,10.0450029 L7.78750143,10.0450029 L7.78750143,15.7375031 C7.78750143,16.1125031 8.08750163,16.4125023 8.46250164,16.4125023 C8.83000104,16.4125023 9.13750084,16.1125031 9.13750084,15.7375031 L9.13750084,10.1650018 L15.9775011,17.0050011 L7.79500013,17.0050011 L7.79500013,18.2650013 L3.13000061,18.2650013 L3.13000061,18.8650017 L8.39500053,18.8650017 L8.39500053,17.6050015 L16.5775014,17.6050015 L17.9950009,19.022501 L19.0525017,17.9650002 L18.6925011,17.6050015 L19.1050015,17.6050015 L19.1050015,17.0125009 L19.1050015,17.0125009 Z M9.12999924,5.80000022 L9.54249964,5.80000022 L9.54249964,8.46249964 L9.12999924,8.05000023 L9.12999924,5.80000022 Z"/>
      <polygon fill="#EB0000" points="1.705 .632 .648 1.69 17.987 19.038 19.053 17.972"/>
    </g>
  </g>
</svg>
