<svg xmlns="http://www.w3.org/2000/svg" width="24" height="24" viewBox="0 0 24 24">
  <g fill="none" fill-rule="evenodd">
    <path fill="#2D327D" d="M22.5,0 L1.5,0 C0.675000003,0 0,0.675000003 0,1.5 L0,22.5 C0,23.3250009 0.675000003,24 1.5,24 L22.5,24 C23.3250009,24 24,23.3250009 24,22.5 L24,1.5 C24,0.675000003 23.3250009,0 22.5,0 Z"/>
    <g transform="translate(2 2)">
      <polygon fill="#FFF" points="13.81 11.177 14.058 11.455 14.717 10.863 14.462 10.585"/>
      <path fill="#FFF" d="M9.10750014 4.19499972C9.10750014 3.53499991 8.57499984 3.00249961 7.91500093 3.00249961 7.25500203 3.00249961 6.72250183 3.53499981 6.72250183 4.19499972 6.72250183 4.85499962 7.25500203 5.38749982 7.91500093 5.38749982 8.57499984 5.38749982 9.10750014 4.85499952 9.10750014 4.19499972M12.1000005 2.88249971C11.7024994 2.88249971 11.3799992 3.20499991 11.3799992 3.60250002L11.3799992 7.25499923C11.5599995 7.34499943 11.7024994 7.50999933 11.7549992 7.71249973L11.7549992 3.61000012C11.7549992 3.42250011 11.9125004 3.26500031 12.1000005 3.26500031 12.2875005 3.26500031 12.4450008 3.42250011 12.4450008 3.61000012L12.4450008 8.38749983C12.4450008 8.57499984 12.2875005 8.73250014 12.1000005 8.73250014 11.9125004 8.73250014 11.7549992 8.57499984 11.7549992 8.38749983L11.7549992 8.05000023C11.7099991 8.22999963 11.5900002 8.38749983 11.432499 8.47750004 11.432499 8.47750004 11.4174996 8.48500064 11.3949996 8.50000004 11.455 8.83749964 11.7474996 9.09249974 12.0999987 9.09249974 12.4974997 9.09249974 12.8199999 8.76999954 12.8199999 8.37249943L12.8199999 3.59499931C12.8125001 3.19750021 12.4975005 2.88249971 12.1000005 2.88249971L12.1000005 2.88249971z"/>
      <path fill="#FFF" fill-rule="nonzero" d="M14.2150003,3.59499981 L14.2150003,8.37250043 C14.2150003,8.77000044 14.5375005,9.09250074 14.9350015,9.09250074 C15.3325006,9.09250074 15.6550027,8.77000054 15.6550027,8.37250043 L15.6550027,3.59500031 C15.6550027,3.19750031 15.3325025,2.87500051 14.9350015,2.87500051 C14.5299989,2.88249971 14.2150003,3.19750021 14.2150003,3.59499981 L14.2150003,3.59499981 Z M14.5825006,8.37250043 L14.5825006,3.59500031 C14.5825006,3.40750031 14.7400018,3.25000051 14.9275008,3.25000051 C15.1150018,3.25000051 15.2725011,3.40750031 15.2725011,3.59500031 L15.2725011,8.37250053 C15.2725011,8.56000054 15.1150018,8.71750084 14.9275008,8.71750084 C14.7400018,8.71750084 14.5825006,8.56000044 14.5825006,8.37250043 L14.5825006,8.37250043 Z"/>
      <path fill="#FFF" d="M8.77750024,5.34249972 C8.66500004,5.42500022 8.53750044,5.49249932 8.40250024,5.54499912 L8.40250024,6.26499943 C8.43249904,6.30249983 8.45500004,6.34000023 8.47750004,6.38500023 C8.47750004,6.38500023 8.60499964,6.61000063 8.76999954,6.89500043 L8.77750024,5.34249972 Z"/>
      <path fill="#FFF" fill-rule="nonzero" d="M19.0525018,17.9724999 L18.1675016,17.0874997 C18.2425024,17.0049992 18.3025018,16.9075013 18.3475019,16.7950002 C18.5725023,16.1875001 18.6850015,15.5424997 18.6850015,14.8975011 L18.6850015,1.37500101 L18.9175016,1.37500101 L18.9175016,1.000001 L8.17000013,1.000001 L8.17000013,1.37500101 L8.40250114,1.37500101 L8.40250114,2.85250071 C8.53750134,2.89750081 8.66500094,2.97250061 8.77750114,3.05500061 L8.77750114,1.37500001 L10.5025005,1.37500001 L10.5025005,7.39750003 C10.6375007,7.31499953 10.7350015,7.26249983 10.7350015,7.26249983 C10.7800016,7.23999983 10.8250007,7.21749973 10.8775005,7.20249943 L10.8775005,1.37500001 L13.3375016,1.37500001 L13.3375016,12.2500001 L10.8775005,9.79000004 L10.8775005,8.80000024 C10.7575006,8.86749944 10.630001,8.94249924 10.5025005,9.01749994 L10.5025005,9.42249874 L10.067501,8.98749924 L11.3125009,8.26749803 C11.4550008,8.18499753 11.5375013,8.03499793 11.5375013,7.86999803 C11.5375013,7.61499883 11.335001,7.41249753 11.0800008,7.41249753 C10.9975003,7.41249753 10.9225005,7.43499753 10.8474998,7.47249793 L9.39999964,8.32000063 L9.23500064,8.15500063 L8.27499963,6.50500103 C8.00499913,6.03250023 7.50249963,5.74750042 6.95499993,5.74750042 C6.90999893,5.74750042 6.87249943,5.74750042 6.82749943,5.75500062 L1.70500021,0.632499903 L0.647500303,1.68999981 L5.37250042,6.41500003 L4.33750012,7.01499943 C4.19499972,7.09749993 4.09750032,7.23249913 4.05249982,7.38999943 L3.40000011,9.85000044 C3.39249991,9.88749984 3.38500021,9.92500024 3.38500021,9.96249964 C3.38500021,10.1950006 3.57999991,10.3899994 3.81250002,10.3899994 C4.00749972,10.3899994 4.17250012,10.2624998 4.22499992,10.0749998 L4.83999972,7.75000003 L5.88249922,7.14249993 L3.99250032,14.2749997 L1.35249971,15.8050004 C1.1649997,15.9174996 1.0449998,16.1124993 1.0449998,16.33 C1.0449998,16.6674996 1.32249971,16.9375001 1.65249961,16.9375001 C1.75749991,16.9375001 1.86249991,16.9075013 1.95999951,16.8549996 L4.89249942,15.1524983 C5.03499882,15.0699978 5.13249922,14.9349995 5.17749972,14.7774983 L6.05499933,11.4624986 L9.19749924,12.2949992 L10.8849992,15.1974984 L10.8849992,15.1974984 C10.9974994,15.3849984 11.1924991,15.5049992 11.4099988,15.5049992 C11.7474994,15.5049992 12.0174999,15.2349987 12.0174999,14.8974991 C12.0174999,14.7924996 11.9875001,14.6875 11.9349993,14.5899983 L10.0824993,11.3949985 C9.99999884,11.2524986 9.86499964,11.1549987 9.70749934,11.1099977 L9.70749934,11.1099977 L7.20249823,10.4424982 L7.65999873,8.70999814 L8.37999903,9.42999844 L8.37999903,10.5024986 C8.49999984,10.5324983 8.62749944,10.5699978 8.75499904,10.5999984 L8.75499904,9.79749864 L10.4799994,11.522499 L10.4799994,11.6049995 L10.8549994,12.2424994 L10.8549994,11.8899993 L13.3149995,14.3500004 L13.3149995,16.9900017 L10.8549994,16.9900017 L10.8549994,15.5350018 C10.7799996,15.4750023 10.7199992,15.4000016 10.6674994,15.3175011 C10.6674994,15.3175011 10.5924996,15.1900006 10.4799994,14.9950028 L10.4799994,16.9900036 L9.56499944,16.9900036 C9.34749974,16.9900036 9.15250004,16.8550034 9.07749924,16.652504 C8.86749924,16.0825024 8.76249964,15.4900036 8.76249964,14.8825035 L8.76249964,12.4300032 C8.65750014,12.4000035 8.52999954,12.3700028 8.38749963,12.3325024 L8.38749963,14.8825035 C8.38749963,15.5350037 8.49999984,16.1725044 8.72500024,16.7800026 C8.85249984,17.1324999 9.18999944,17.3650017 9.56499944,17.3650017 L16.3224982,17.3650017 L17.3424987,18.3850022 L1,18.3850022 L1,18.9850007 L17.9575006,18.9850007 L17.9874994,19.0150014 L18.0175001,18.9850007 L18.9925005,18.9850007 L18.9925005,18.3850022 L18.6175005,18.3850022 L19.0525018,17.9724999 Z M18.3099996,1.37500001 L18.3099996,14.8974992 C18.3099996,15.5049993 18.2050001,16.0975 17.9949991,16.6674997 C17.9725,16.7274992 17.9424974,16.7799989 17.904997,16.8250009 L16.5324975,15.4525014 L16.5324975,1.37500001 L18.3099996,1.37500001 Z M13.6975003,1.37500001 L16.1575013,1.37500001 L16.1575013,15.0775014 L13.6975003,12.6250001 L13.6975003,1.37500001 Z M13.6975003,17.0125009 L13.6975003,14.7474996 L15.9624997,17.0125009 L13.6975003,17.0125009 Z"/>
      <polygon fill="#EB0000" points="1.705 .632 .648 1.69 17.987 19.038 19.053 17.972"/>
    </g>
  </g>
</svg>
