<svg xmlns="http://www.w3.org/2000/svg" width="24" height="24" viewBox="0 0 24 24">
  <g fill="none" fill-rule="evenodd">
    <path fill="#2D327D" d="M22.5,0 L1.5,0 C0.675000003,0 0,0.675000003 0,1.5 L0,22.5 C0,23.3250009 0.675000003,24 1.5,24 L22.5,24 C23.3250009,24 24,23.3250009 24,22.5 L24,1.5 C24,0.675000003 23.3250009,0 22.5,0 Z"/>
    <g transform="translate(2 2)">
      <path fill="#FFF" d="M2.96499971 10.7200003C2.70999961 10.7200003 2.50000001 10.9300003 2.50000001 11.185 2.50000001 11.4399997 2.71000001 11.6499997 2.96499971 11.6499997L10.6075001 11.6499997 9.67750074 10.7200003 2.96499971 10.7200003zM14.0349999 11.6499996C14.290001 11.6499996 14.5000001 11.4399996 14.5000001 11.1849999 14.5000001 10.9300003 14.290001 10.7200002 14.0349999 10.7200002L11.7624998 10.7200002 12.6924993 11.6499996 14.0349999 11.6499996z"/>
      <polygon fill="#FFF" points="13.66 8.755 12.228 8.755 11.913 6.798 11.058 6.798 9.88 8.837 11.462 10.42 12.692 10.42"/>
      <path fill="#FFF" d="M12.3400003 6.29500013L12.6475001 8.25250053 13.9450007 8.25250053 14.3125001 7.61500073C14.8824998 6.62500093 14.4325009 5.44750122 14.7625009 4.87750102L14.7625009 4.87750102C15.0924989 4.30750082 15.6849996 2.98000051 15.6849996 2.98000051L15.6924993 2.98750071C15.7524988 3.01750091 15.8199998 2.99500041 15.8500005 2.93500091L15.977501 2.71750071C16.0150014 2.65750031 15.9925023 2.58250051 15.9325009 2.55250071L15.0849991 2.05000021C15.0249996 2.01249981 14.9500008 2.03500031 14.9199982 2.09499981L14.7924977 2.31250001C14.762497 2.36499981 14.7774964 2.43999961 14.8299981 2.47750001L14.8374978 2.48499971C14.8374978 2.48499971 13.9974976 3.67000012 13.6749974 4.23999982 13.3449984 4.81000042 12.0999976 5.00499972 11.5299968 5.99499942L11.3574971 6.29499913 12.3400003 6.29500013zM14.4925004 12.3850003C14.5299989 12.1599999 14.3500005 11.9575004 14.1175004 11.9575004L12.9849988 11.9575004 14.2749997 13.2475005C14.3799993 12.9700004 14.4474984 12.6774999 14.4925004 12.3850003zM1.37500001 11.9499998C1.1649997 11.9499998 1 12.1149999 1 12.3249999L1 18.6250001C1 18.8349992 1.1649997 19.0000001 1.37500001 19.0000001L5.07250022 19.0000001C5.98750022 19.0000001 6.79750063 18.5424996 7.28499983 17.8450013 7.30000013 17.8225022 7.30750083 17.8075009 7.32250023 17.7850018 7.81000043 17.0875016 8.62000084 16.6300011 9.53499984 16.6300011 9.54250044 16.6300011 9.55000014 16.6300011 9.55750084 16.6300011 11.1999998 16.5550022 12.6550007 15.7900009 13.5625001 14.5900002L10.915 11.9499998 1.37500001 11.9499998 1.37500001 11.9499998zM7.54750063 5.26000022L6.30249983 5.26000022 7.69750033 6.65500073C7.51749993 6.20499993 7.46500023 5.72499992 7.54750063 5.26000022zM8.16250043 4.92250012C8.37250043 4.41249992 8.76249984 4.01500032 9.26499944 3.79750012L9.40749934 4.14249992 8.09499933 6.30249973C7.96749973 5.84500032 7.98250013 5.36499982 8.16250043 4.92250012zM4.76499992 7.69750023L2.34999991 7.12000083 2.20750001 6.77499963C3.16750001 6.39249993 4.26249982 6.80499943 4.76499992 7.69750023z"/>
      <path fill="#FFF" d="M1.56250001 5.26000022L2.00500011 6.31750103C2.62750051 6.06250093 3.31000041 6.06250093 3.93999962 6.31750103 4.56999972 6.57250023 5.06499962 7.06000043 5.33500012 7.69000053L6.25750073 7.30000113 4.21750072 5.26000022 1.56250001 5.26000022zM8.40999984 1.75749991L5.30499942 4.26249982 5.79249952 4.75000002 7.68999953 4.75000002C7.68999953 4.74249942 7.69750013 4.73500012 7.69750013 4.72750002 7.95249933 4.08999972 8.44750014 3.59499981 9.07749934 3.33250001L8.40999984 1.75749991z"/>
      <polygon fill="#FFF" points="1.023 3.978 1.352 4.75 3.715 4.758 2.373 3.407"/>
      <polygon fill="#FFF" points="8.208 1.277 8.087 1 3.835 2.793 4.945 3.902"/>
      <polygon fill="#EB0000" points="2.012 .97 .97 2.012 17.958 18.993 18.993 17.958"/>
    </g>
  </g>
</svg>
