<svg xmlns="http://www.w3.org/2000/svg" width="24" height="24" viewBox="0 0 24 24">
  <g fill="none" fill-rule="evenodd">
    <path fill="#2D327D" d="M22.5,0 L1.5,0 C0.675000003,0 0,0.675000003 0,1.5 L0,22.5 C0,23.3250009 0.675000003,24 1.5,24 L22.5,24 C23.3250009,24 24,23.3250009 24,22.5 L24,1.5 C24,0.675000003 23.3250009,0 22.5,0 Z"/>
    <g transform="translate(2 2)">
      <path fill="#FFF" d="M8.01249983 9.79750064L6.20499993 10.4274998C6.16749953 10.4424992 6.12249943 10.4499998 6.08499913 10.4499998 5.95749952 10.4499998 5.84499932 10.3899994 5.77749872 10.2849998L5.37249902 9.68500044C5.34249972 9.63250064 5.31999922 9.58000094 5.31999922 9.52000044 5.31999922 9.35500044 5.45499942 9.22000024 5.61999942 9.22000024L7.92249873 9.22000024C8.08749873 9.22000024 8.22249893 9.35500044 8.22249893 9.52000044 8.21500023 9.63999944 8.13250063 9.75249964 8.01249983 9.79750064L8.01249983 9.79750064zM14.3500005 9.81250004L11.7250004 9.81250004 11.7250004 9.21249964 14.3500005 9.21249964C14.5150014 9.21249964 14.6499997 9.34749984 14.6499997 9.51249984 14.6499997 9.67749984 14.5150014 9.81250004 14.3500005 9.81250004L14.3500005 9.81250004zM14.3500005 10.7875004L13.9750005 10.7875004C13.8100005 10.7875004 13.6750003 10.6525002 13.6750003 10.4875002 13.6750003 10.3225002 13.8100005 10.1875 13.9750005 10.1875L14.3500005 10.1875C14.5150014 10.1875 14.6499997 10.3225002 14.6499997 10.4875002 14.6499997 10.6525002 14.5150014 10.7875004 14.3500005 10.7875004L14.3500005 10.7875004z"/>
      <path fill="#FFF" fill-rule="nonzero" d="M19.0525018,17.9724999 L18.4075013,17.3274994 C18.7825013,16.7499982 19.0000001,16.0599996 19.0000001,15.324997 C19.0000001,13.2924977 17.3575002,11.6499977 15.3250009,11.6499977 C14.7400018,11.6499977 14.1625005,11.7924976 13.6450006,12.0549975 L12.9250003,10.8999996 L11.9799996,10.8999996 L1.70500021,0.632499903 L0.647500303,1.68999981 L9.85750034,10.8999998 L7.07499983,10.8999998 L6.35499953,12.0549996 C5.83750012,11.784999 5.25999922,11.6499998 4.67500012,11.6499998 C2.64249991,11.6499996 1,13.2924996 1,15.3250009 C1,17.3500005 2.65000011,19.0000001 4.67500022,19.0000001 C6.57250023,19.0000001 8.16250043,17.5525018 8.33500003,15.6625005 L9.11499974,15.6625005 C9.27250004,16.0074998 9.61749934,16.2250005 9.99999994,16.2250005 C10.5399999,16.2250005 10.9750003,15.790001 10.9750003,15.2500001 C10.9750003,15.0325013 10.8999995,14.8224984 10.7649993,14.6499997 L11.9049996,12.955 L12.2574997,13.307499 C11.8674993,13.8999987 11.6499986,14.6049996 11.6499986,15.3324986 C11.6499986,17.3574982 13.2924986,19.0074978 15.3250008,19.0074978 C16.0750008,19.0074978 16.7650013,18.7824974 17.3500004,18.3999977 L17.9950009,19.0449982 L19.0525018,17.9724999 Z M13.9600001,12.5649997 C14.3875008,12.3549997 14.852501,12.2500001 15.3250008,12.2500001 C17.0200005,12.2500001 18.3999997,13.6299993 18.3999997,15.3250009 C18.3999997,15.8950006 18.2425004,16.4349996 17.9724999,16.8925001 L14.4925004,13.4125006 L13.9600001,12.5649997 Z M4.67500022,18.3999997 C2.98000001,18.3999997 1.59999991,17.0200005 1.59999991,15.3250008 C1.59999991,13.6299993 2.98000001,12.2500001 4.67500022,12.2500001 C5.14750002,12.2500001 5.61250022,12.3549996 6.04000003,12.5649997 L4.69750032,14.7250005 C4.68999972,14.7250005 4.68250042,14.7250005 4.67500032,14.7250005 C4.34499992,14.7250005 4.07499992,14.995001 4.07499992,15.3250009 C4.07499992,15.6549989 4.34499992,15.9249994 4.67500032,15.9249994 C4.87000052,15.9249994 5.05750052,15.8275015 5.17000072,15.6625005 L7.73500083,15.6625005 C7.56250003,17.2224999 6.24249943,18.3999997 4.67500022,18.3999997 Z M5.19249962,15.0625001 L6.55000023,12.8874999 C7.23250013,13.4125005 7.66749963,14.2000009 7.74249943,15.0625001 L5.19249962,15.0625001 Z M9.04000004,15.0625001 L8.33500003,15.0625001 C8.26000023,13.9975005 7.72000023,13.0149995 6.85750003,12.3700009 L7.26249973,11.7250003 L9.22750004,14.6499997 C9.13749984,14.7700006 9.07000064,14.9125005 9.04000004,15.0625001 Z M10.2700005,14.3125001 C10.1800003,14.290001 10.0900011,14.2749997 10,14.2749997 C9.90999984,14.2749997 9.82000064,14.290001 9.72999954,14.3125001 L7.84000023,11.5 L10.4575005,11.5 L11.477501,12.5200006 L10.2700005,14.3125001 Z M15.3250009,18.3999997 C13.6299993,18.3999997 12.2500001,17.0200005 12.2500001,15.3250008 C12.2500001,14.7549992 12.4075004,14.2075005 12.6924993,13.7350006 L16.9149991,17.9575004 C16.4500009,18.2350006 15.9025003,18.3999997 15.3250009,18.3999997 Z"/>
      <polygon fill="#EB0000" points="1.705 .632 .648 1.69 17.987 19.038 19.053 17.972"/>
    </g>
  </g>
</svg>
