<svg xmlns="http://www.w3.org/2000/svg" width="24" height="24" viewBox="0 0 24 24">
  <g fill="none" fill-rule="evenodd">
    <path fill="#2D327D" d="M22.5,0 L1.5,0 C0.675000003,0 0,0.675000003 0,1.5 L0,22.5 C0,23.3250009 0.675000003,24 1.5,24 L22.5,24 C23.3250009,24 24,23.3250009 24,22.5 L24,1.5 C24,0.675000003 23.3250009,0 22.5,0 Z"/>
    <g transform="translate(2 2)">
      <path fill="#FFF" d="M12.0024997 9.72999954L13.8100005 10.3599987C13.8474999 10.374999 13.892501 10.3824997 13.9300004 10.3824997 14.0575009 10.3824997 14.1700002 10.3224993 14.2374993 10.2174997L14.6425 9.61749934C14.6724988 9.56499954 14.6949998 9.51249984 14.6949998 9.45249934 14.6949998 9.28750034 14.5600015 9.15250014 14.3950006 9.15250014L12.1000005 9.15250014C11.9350004 9.15250014 11.8000002 9.28750034 11.8000002 9.45249934 11.8000002 9.57999994 11.8825006 9.69249924 12.0024997 9.72999954L12.0024997 9.72999954zM5.66500002 10.7275L6.04000003 10.7275C6.20500003 10.7275 6.34000023 10.5924998 6.34000023 10.4274998 6.34000023 10.2624998 6.20499993 10.1274996 6.04000003 10.1274996L5.66500002 10.1274996C5.50000002 10.1274996 5.36499982 10.2624998 5.36499982 10.4274998 5.36499982 10.5924998 5.50000002 10.7275 5.66500002 10.7275L5.66500002 10.7275z"/>
      <path fill="#FFF" fill-rule="nonzero" d="M18.3925,17.3125001 C18.7899991,16.727501 19.0149995,16.0224992 19.0149995,15.2650014 C19.0149995,13.2325002 17.364998,11.5900011 15.3399984,11.5900011 C14.7549993,11.5900011 14.177498,11.7325001 13.659999,11.9950008 L12.9399987,10.8400011 L11.9124984,10.8400011 L1.70500021,0.632499903 L0.647500303,1.68999981 L8.10250123,9.14500074 L5.65750032,9.14500074 C5.49250082,9.14500074 5.35750062,9.28000094 5.35750062,9.44500094 C5.35750062,9.61000094 5.49250082,9.74500114 5.65750032,9.74500114 L8.28250033,9.74500114 L8.28250033,9.32500014 L9.78250034,10.8250001 L7.07499983,10.8250001 L6.35499953,11.9799998 C5.83750012,11.7099993 5.25999922,11.5750001 4.67500012,11.5750001 C2.64249991,11.5749998 1,13.2174998 1,15.2500001 C1,17.2749997 2.64249991,18.9249993 4.67500022,18.9249993 C6.69999983,18.9249993 8.35000043,17.2749997 8.35000043,15.2500001 C8.35000043,14.0874997 7.80249983,12.9924995 6.86499983,12.2950002 L7.26999953,11.6499996 L9.23499874,14.5750008 C9.09999854,14.7474995 9.02499874,14.9575005 9.02499874,15.1749993 C9.02499874,15.7150002 9.45999914,16.1499997 9.99999914,16.1499997 C10.3824997,16.1499997 10.7199994,15.9325009 10.8849993,15.5874997 L11.664999,15.5874997 C11.8374987,17.477501 13.4274989,18.9249993 15.324997,18.9249993 C16.0524979,18.9249993 16.7274991,18.7150002 17.2974968,18.3474999 L17.972496,19.0224991 L19.0299968,17.9649983 L18.3925,17.3125001 Z M7.76499943,15.2650014 C7.76499943,16.9600011 6.38500023,18.3400003 4.68999962,18.3400003 C2.99499901,18.3400003 1.61499981,16.9600011 1.61499981,15.2650014 C1.61499981,13.5700017 2.99499991,12.1900006 4.68999962,12.1900006 C5.16249992,12.1900006 5.62749962,12.2950001 6.05499943,12.5050011 L4.43499952,15.1075001 C4.40499982,15.1525002 4.38999992,15.2124996 4.38999992,15.2650013 C4.38999992,15.4300022 4.52500012,15.5650005 4.68999962,15.5650005 C4.79499912,15.5650005 4.89249952,15.5125007 4.94499922,15.4225006 L6.56499963,12.8275013 C7.32250023,13.4049998 7.76499943,14.3050004 7.76499943,15.2650014 Z M10.2849998,14.2525006 C10.1950006,14.2300015 10.1050004,14.2150002 10.0149993,14.2150002 C9.92500014,14.2150002 9.83499994,14.2300015 9.74499884,14.2525006 L7.85499943,11.4400005 L10.3899992,11.4400005 L11.4549997,12.5050011 L10.2849998,14.2525006 Z M11.6725006,15.0025006 L10.9750004,15.0025006 C10.9450007,14.852501 10.8774996,14.7100011 10.7875004,14.5900002 L11.8975,12.9400006 L12.2500001,13.2925006 C11.9200001,13.7950002 11.7174997,14.3875009 11.6725006,15.0025006 Z M12.6774999,13.7200004 L13.9524995,14.995001 L12.2725001,14.995001 C12.3174993,14.5450002 12.4524995,14.1100007 12.6774999,13.7200004 Z M15.3400003,18.3400003 C13.7725011,18.3400003 12.4525014,17.1625005 12.2800008,15.6025011 L14.5525018,15.6025011 L16.8775007,17.9275019 C16.4275018,18.1900006 15.9025003,18.3400003 15.3400003,18.3400003 Z M17.9575006,16.8775006 L14.6275007,13.5475016 L13.9750015,12.4975014 C14.3950006,12.2875014 14.8675024,12.1825018 15.3400003,12.1825018 C17.0350019,12.1825018 18.4150011,13.562501 18.4150011,15.2575035 C18.4150011,15.8575002 18.2500001,16.4125005 17.9575006,16.8775006 Z"/>
      <polygon fill="#EB0000" points="1.705 .632 .648 1.69 17.987 19.038 19.053 17.972"/>
    </g>
  </g>
</svg>
