<svg xmlns="http://www.w3.org/2000/svg" width="24" height="24" viewBox="0 0 24 24">
  <g fill="none" fill-rule="evenodd">
    <path fill="#2D327D" d="M22.5,0 L1.5,0 C0.675000003,0 0,0.675000003 0,1.5 L0,22.5 C0,23.3250009 0.675000003,24 1.5,24 L22.5,24 C23.3250009,24 24,23.3250009 24,22.5 L24,1.5 C24,0.675000003 23.3250009,0 22.5,0 Z"/>
    <g transform="translate(3 3)">
      <circle cx="9" cy="9" r="9" fill="#FFF"/>
      <path fill="#EB0000" fill-rule="nonzero" d="M9,0 C4.02749972,0 0,4.02749972 0,9 C0,13.9725004 4.02749972,18 9,18 C13.9725004,18 18,13.9724999 18,9 C18,4.02750022 13.9724999,0 9,0 Z M9.00000004,15.75 C5.27250002,15.75 2.25000001,12.7275001 2.25000001,9.00000004 C2.25000001,5.27250002 5.27250002,2.25000001 9.00000004,2.25000001 C12.7275001,2.25000001 15.75,5.27250002 15.75,9.00000004 C15.75,12.7275001 12.7275001,15.75 9.00000004,15.75 Z"/>
      <path fill="#000" d="M10.8299999 3.25000001L1.1700006 3.25000001C.892500904 3.25000001.675000203 3.47500041.675000203 3.74500082.675000203 4.02250002.900000104 4.24000072 1.1700006 4.24000072L4.62000092 4.24000072 4.62000092 12.6250001C4.62000092 12.9099999 4.85250102 13.1425 5.13749992 13.1425 5.42250072 13.1425 5.65499982 12.9099999 5.65499982 12.6250001L5.65499982 8.20750053 6.34499943 8.20750053 6.34499943 12.6250001C6.34499943 12.9099999 6.57749953 13.1425 6.86249933 13.1425 7.14749913 13.1425 7.37999833 12.9099999 7.37999833 12.6250001L7.37999833 4.24750042 10.8299981 4.24750042C11.1074983 4.24750042 11.324997 4.02250002 11.324997 3.75249962 11.324997 3.47500041 11.1000004 3.25000001 10.8299999 3.25000001L10.8299999 3.25000001zM6.00000003 2.78500031C6.57000063 2.78500031 7.03499983 2.32749981 7.03499983 1.75750061 7.03499983 1.1875004 6.57000063.722500303 6.00000003.722500303 5.42999942.722500303 4.97249982 1.1875 4.97249982 1.75750061 4.96500022 2.32000061 5.42999942 2.78500031 6.00000003 2.78500031L6.00000003 2.78500031z" transform="translate(3 2)"/>
    </g>
  </g>
</svg>
