<svg xmlns="http://www.w3.org/2000/svg" width="24" height="24" viewBox="0 0 24 24">
  <g fill="none" fill-rule="evenodd">
    <path fill="#2D327D" d="M22.5,0 L1.5,0 C0.675000003,0 0,0.675000003 0,1.5 L0,22.5 C0,23.3250009 0.675000003,24 1.5,24 L22.5,24 C23.3250009,24 24,23.3250009 24,22.5 L24,1.5 C24,0.675000003 23.3250009,0 22.5,0 Z"/>
    <g transform="translate(2 4)">
      <path fill="#FFF" d="M18.8724996,14.5849992 L10.7724991,0.559999002 C10.6074991,0.282499301 10.3374987,0.0874987 9.99999914,0.0874987 C9.67749894,0.0874987 9.39249814,0.289998601 9.22749914,0.559999002 L1.1274986,14.5849992 C0.969998804,14.8624994 0.939998604,15.1924993 1.1049983,15.4849988 C1.26999801,15.7699986 1.58499861,15.9049989 1.89999811,15.9125005 L18.1000009,15.9125005 C18.4224992,15.9049989 18.7225004,15.7700006 18.895001,15.4849988 C19.0599996,15.2075006 19.0224992,14.8549996 18.8724996,14.5849992 L18.8724996,14.5849992 Z"/>
      <path fill="#EB0000" fill-rule="nonzero" d="M18.8724996,14.5849992 L10.7724991,0.559999002 C10.6074991,0.282499301 10.3374987,0.0874987 9.99999914,0.0874987 C9.67749894,0.0874987 9.39249814,0.289998601 9.22749914,0.559999002 L1.1274986,14.5849992 C0.969998804,14.8624994 0.939998604,15.1924993 1.1049983,15.4849988 C1.26999801,15.7699986 1.58499861,15.9049989 1.89999811,15.9125005 L18.1000009,15.9125005 C18.4224992,15.9049989 18.7225004,15.7700006 18.895001,15.4849988 C19.0599996,15.2075006 19.0224992,14.8549996 18.8724996,14.5849992 Z M3.12250041,14.3675004 L10,2.44999981 L16.8775006,14.3599988 L3.12250041,14.3599988 L3.12250041,14.3675004 Z"/>
      <path fill="#000" fill-rule="nonzero" d="M13.0974999,9.95750054 C13.0900003,9.95750054 13.1049996,9.95750054 13.0974999,9.95750054 C13.0974999,9.95750054 11.2150001,9.95750054 11.1999998,9.95750054 C11.1325006,9.95750054 11.0799999,9.99500094 11.0500002,10.0475007 L10.3000002,10.9399997 L9.30249984,10.3625003 L10.0824995,10.1674997 C10.165,10.1525003 10.2249985,10.0849992 10.2249985,9.99499914 C10.2249985,9.98749944 10.2249985,10.0024997 10.2249985,9.99499914 L10.2249985,8.49499914 C10.2249985,8.48749944 10.2249985,8.50249974 10.2249985,8.49499914 C10.2249985,8.29999943 10.0674982,8.14250013 9.87249954,8.14250013 C9.67749894,8.14250013 9.51999954,8.30000043 9.51249894,8.48750044 L9.51249894,9.57500004 L8.47749914,9.83000014 L8.47749914,9.83000014 C8.04249873,9.88999964 7.71249883,10.2574999 7.71249883,10.7074997 C7.71249883,10.8199999 7.73499883,10.9249994 7.75749983,11.0299999 C7.75749983,11.0299999 8.04999933,12.3500006 8.07249943,12.4325011 C8.09499953,12.5150016 8.10249913,12.5375006 8.17749893,12.597502 C8.17749893,12.597502 9.29499834,13.3850024 9.39999874,13.4525015 C9.50499824,13.5200007 9.55749904,13.5499994 9.65499884,13.5499994 C9.84999854,13.5499994 10.0074978,13.3925001 10.0074978,13.1974985 C10.0074978,13.0550005 9.91749864,12.9500009 9.80499844,12.8750002 C9.69249824,12.7924997 8.73249824,12.1250002 8.73249824,12.1250002 L8.61249744,11.6000005 C8.61999804,11.6000005 9.78999724,12.2900011 9.78999724,12.2900011 L11.9424974,12.2900011 L11.9424974,13.4300024 C11.9799978,13.6400015 12.1674979,13.7975008 12.3849967,13.7975008 C12.6024964,13.7975008 12.7899964,13.6400015 12.8274968,13.4300024 L12.8274968,11.7650023 C12.8274968,11.562502 12.6549962,11.3975029 12.4599974,11.3975029 L11.0649968,11.3975029 L11.529996,10.8500023 L13.1274969,10.8500023 C13.359997,10.8425017 13.547497,10.6475029 13.547497,10.4075031 C13.5625001,10.1599998 13.3450004,9.95750054 13.0974999,9.95750054 L13.0974999,9.95750054 Z M7.18750003,8.92250064 C6.77499963,8.92250064 6.43750003,9.26000024 6.43750003,9.67250064 C6.43750003,10.085 6.77499963,10.4225006 7.18750003,10.4225006 C7.60000043,10.4225006 7.93750003,10.085 7.93750003,9.67250064 C7.93750003,9.26000024 7.60000043,8.92250064 7.18750003,8.92250064 L7.18750003,8.92250064 Z"/>
    </g>
  </g>
</svg>
