<svg xmlns="http://www.w3.org/2000/svg" width="24" height="24" viewBox="0 0 24 24">
  <g fill="none" fill-rule="evenodd">
    <path fill="#2D327D" d="M22.5,0 L1.5,0 C0.675000003,0 0,0.675000003 0,1.5 L0,22.5 C0,23.3250009 0.675000003,24 1.5,24 L22.5,24 C23.3250009,24 24,23.3250009 24,22.5 L24,1.5 C24,0.675000003 23.3250009,0 22.5,0 Z"/>
    <g transform="translate(2 3)">
      <path fill="#FFF" d="M0.242500101,16.2299996 L9.15249994,0.802499703 C9.33249934,0.502499702 9.63249944,0.284999501 9.99999974,0.284999501 C10.3600003,0.284999501 10.6674992,0.509999602 10.8474995,0.802499703 L19.7500001,16.2374993 C19.9224988,16.5450001 19.9599992,16.9125004 19.7799989,17.227501 C19.6000005,17.5350018 19.2474996,17.6925012 18.9024984,17.7000008 L1.0899997,17.7000008 C0.737500003,17.6924993 0.400000101,17.5424996 0.2199998,17.227501 C0.0399996997,16.9200002 0.0774998999,16.5375005 0.242500101,16.2299996 L0.242500101,16.2299996 Z"/>
      <path fill="#EB0000" fill-rule="nonzero" d="M10,1.73999981 L18.5200006,16.5000001 L1.47250031,16.5000001 L10,1.73999981 L10,1.73999981 Z M10,0.285000301 L10,0.285000301 C9.62500004,0.285000301 9.33250054,0.502500302 9.15250024,0.802500203 L0.242500101,16.2299996 C0.0775003999,16.5299988 0.0324997997,16.9125004 0.2125001,17.2200013 C0.400000101,17.5424996 0.730000003,17.6850015 1.0825,17.6924993 L18.8950001,17.6924993 C19.2400013,17.6849996 19.5924984,17.5274984 19.7725006,17.2200014 C19.9525009,16.8975012 19.9150005,16.5375006 19.7425018,16.2299997 L10.8474998,0.802499803 C10.6674995,0.510000202 10.3600006,0.285000301 10,0.285000301 L10,0.285000301 Z"/>
      <path fill="#000" d="M1.59500031 1.48250011L1.59500031 2.58500011C1.59500031 2.65250021 1.54250051 2.69750031 1.48250011 2.69750031 1.41500091 2.69750031 1.3700009 2.64500051 1.3700009 2.58500011L1.3700009 1.64750011 1.2650013 1.64750011 1.2650013 4.1599989C1.2650013 4.25000012 1.1900005 4.32500082 1.1000013 4.32500082 1.0100011 4.32500082.935001303 4.25000002.935001303 4.1599989L.935001303 2.69749931.830001803 2.69749931.830001803 4.1599989C.830001803 4.25000012.755002002 4.32500082.665001802 4.32500082.575002102 4.32500082.500002301 4.25000002.500002301 4.1599989L.500002301 1.64749911.395002801 1.64749911.395002801 2.58499911C.395002801 2.65249831.342503001 2.69749931.2825026 2.69749931.215003 2.69749931.1700029 2.64499951.1700029 2.58499911L.1700029 2.58499911.1700029 1.48249911C.1700029 1.30249971.312502301 1.1599989.492503101 1.1599989L1.2800025 1.1599989C1.44500061 1.1599989 1.59500031 1.30249981 1.59500031 1.48250011L1.59500031 1.48250011zM.560000402.747500403C.560000402.567501002.702499803.425000202.882500602.425000202 1.0625.425000202 1.20500081.567499202 1.20500081.747500403 1.20500081.927499804 1.0625009 1.0700006.882500602 1.0700006.702499903 1.0774994.560000402.927499804.560000402.747500403L.560000402.747500403z" transform="translate(5 10)"/>
      <g transform="translate(3 14)">
        <polygon fill="#EB0000" points="4 .625 5.875 .625 6.25 .625 6.25 1 6.25 2.125 5.875 2.125 5.875 1 4 1"/>
        <rect width="3.375" height="1" x=".625" y=".625" fill="#000"/>
      </g>
      <g fill="#EB0000" transform="translate(6 8)">
        <polygon points="3.25 1 3.25 1.158 3.092 1"/>
        <polygon points="2.748 1 3.25 1.502 3.25 1.66 2.59 1"/>
        <polygon points="2.252 1 3.25 1.998 3.25 2.163 2.087 1"/>
        <polygon points="1.248 1 3.25 3.002 3.25 3.16 1.09 1"/>
        <polygon points="1 1.248 3.25 3.498 3.25 3.663 1 1.413"/>
        <polygon points="1 1.75 3.25 4 3.25 4.158 1 1.908"/>
        <polygon points="1 2.252 3.25 4.502 3.25 4.66 1 2.41"/>
        <polygon points="1 2.748 3.25 4.998 3.25 5.163 1 2.913"/>
        <polygon points="1 3.25 3.25 5.5 3.25 5.658 1 3.408"/>
        <polygon points="1 3.752 3.25 6.003 3.25 6.16 1 3.91"/>
        <polygon points="1 4.248 3.002 6.25 2.837 6.25 1 4.413"/>
        <polygon points="1 4.75 2.5 6.25 2.342 6.25 1 4.908"/>
        <polygon points="1 5.253 1.998 6.25 1.84 6.25 1 5.41"/>
        <polygon points="1 5.747 1.502 6.25 1.337 6.25 1 5.913"/>
        <polygon points="1.75 1 3.25 2.5 3.25 2.658 1.592 1"/>
      </g>
      <rect width="1" height="1" x="10.375" y="15.525" fill="#000"/>
      <rect width="1" height="1" x="13" y="15.525" fill="#000"/>
      <path fill="#000" fill-rule="nonzero" d="M9.62500004,9.89999964 L9.62500004,14.4750005 C9.62500004,14.557501 9.65499974,14.6849996 9.69249924,14.7599984 L9.93249904,15.2399979 C9.96999944,15.3149987 10.0674992,15.3749981 10.1499987,15.3749981 L13.5999986,15.3749981 C13.6824991,15.3749981 13.7799989,15.3149986 13.8174983,15.2399979 L14.057499,14.7599984 C14.0949975,14.6849995 14.125,14.557499 14.125,14.4750005 L14.125,9.89999964 C14.125,9.81749914 14.0799981,9.70499994 14.0199987,9.64500044 L13.4799987,9.10500044 C13.4199983,9.04500004 13.3074981,9.00000094 13.2249986,9.00000094 L10.5249987,9.00000094 C10.4424982,9.00000094 10.3299981,9.04500194 10.2699995,9.10500044 L9.72999954,9.64500044 C9.67000014,9.70499994 9.62500004,9.81749924 9.62500004,9.89999964 Z M12.2500001,9.75000004 L11.5,9.75000004 L11.5,9.44999984 L12.2500001,9.44999984 L12.2500001,9.75000004 Z M13.0000001,13.2000009 L13.7500001,13.2000009 L13.7500001,13.5000001 L13.0000001,13.5000001 L13.0000001,13.2000009 Z M10,13.2000009 L10.75,13.2000009 L10.75,13.5000001 L10,13.5000001 L10,13.2000009 Z M10,10.125 L13.7500001,10.125 L13.7500001,12.0000001 L10,12.0000001 L10,10.125 Z"/>
      <path fill="#000" d="M10.8850002,7.87500003 L12.8725005,7.87500003 C12.9475003,7.87500003 13.0075007,7.93500043 13.0075007,8.01000023 C13.0075007,8.08500003 12.9475003,8.14500043 12.8725005,8.14500043 L12.0100003,8.14500043 L12.0100003,8.85750004 L11.7475004,8.85750004 L11.7475004,8.14500043 L10.8850002,8.14500043 C10.8100004,8.14500053 10.75,8.08500003 10.75,8.01000023 C10.75,7.93500043 10.8100004,7.87500003 10.8850002,7.87500003 Z"/>
    </g>
  </g>
</svg>
