<svg xmlns="http://www.w3.org/2000/svg" width="24" height="24" viewBox="0 0 24 24">
  <g fill="none" fill-rule="evenodd">
    <path fill="#2D327D" d="M22.5,0 L1.5,0 C0.675000003,0 0,0.675000003 0,1.5 L0,22.5 C0,23.3250009 0.675000003,24 1.5,24 L22.5,24 C23.3250009,24 24,23.3250009 24,22.5 L24,1.5 C24,0.675000003 23.3250009,0 22.5,0 Z"/>
    <g transform="translate(2 3)">
      <path fill="#FFF" d="M19.7574998,16.2299996 L10.8474998,0.802499803 C10.6675004,0.502499802 10.3675003,0.284999601 10,0.284999601 C9.63999944,0.284999601 9.33250054,0.509999702 9.15250024,0.802499803 L0.250000001,16.2374993 C0.0774998999,16.5450001 0.0399996997,16.9125004 0.2199998,17.227501 C0.400000101,17.5350018 0.752499803,17.6925012 1.0974996,17.7000008 L18.9099997,17.7000008 C19.2625006,17.6924992 19.6000002,17.5424996 19.7799986,17.227501 C19.9599992,16.9200002 19.9224988,16.5375005 19.7574998,16.2299996 L19.7574998,16.2299996 Z"/>
      <path fill="#EB0000" fill-rule="nonzero" d="M10,1.73999981 L18.5275003,16.5000001 L1.48000001,16.5000001 L10,1.73999981 L10,1.73999981 Z M10,0.285000301 C9.63999944,0.285000301 9.33250054,0.510000202 9.15250024,0.802500203 L0.250000001,16.2374993 C0.0774998999,16.5450001 0.0399996997,16.9125004 0.2199998,17.227501 C0.400000101,17.5350018 0.752499803,17.6925012 1.0974996,17.7000008 L18.9099997,17.7000008 C19.2625006,17.6924992 19.6000002,17.5424996 19.7799986,17.227501 C19.9599989,16.9200002 19.9149988,16.5375005 19.7499998,16.2374993 L10.8474998,0.802499803 C10.6674995,0.502499802 10.3674994,0.285000301 10,0.285000301 L10,0.285000301 L10,0.285000301 Z"/>
      <path fill="#000" d="M.404999702 1.48250011L.404999702 2.58500011C.404999702 2.65250021.457499502 2.69750031.517499902 2.69750031.584999102 2.69750031.629999103 2.64500051.629999103 2.58500011L.629999103 1.64750011.734998603 1.64750011.734998603 4.1599988C.734998603 4.25000012.809999403 4.32500082.899998604 4.32500082.989998804 4.32500082 1.0649986 4.25000002 1.0649986 4.1599988L1.0649986 2.69749931 1.1699981 2.69749931 1.1699981 4.1599988C1.1699981 4.25000012 1.24499891 4.32500082 1.33499901 4.32500082 1.42499911 4.32500082 1.50000001 4.25000002 1.50000001 4.1599988L1.50000001 1.64749901 1.60499951 1.64749901 1.60499951 2.58499901C1.60499951 2.65249821 1.65750121 2.69749921 1.71749871 2.69749921 1.78499981 2.69749921 1.82999981 2.64499941 1.82999981 2.58499901L1.82999981 2.58499901 1.82999981 1.48249901C1.82999981 1.30249961 1.68749991 1.1599988 1.50749961 1.1599988L.720000203 1.1599988C.554999402 1.1599988.404999702 1.30249981.404999702 1.48250011L.404999702 1.48250011zM1.44000051.747500403C1.44000051.567501002 1.29750061.425000202 1.1175003.425000202.937500904.425000202.795000103.567499202.795000103.747500403.795000103.927499804.937500004 1.0700006 1.1175003 1.0700006 1.29749871 1.0774994 1.44000051.927499804 1.44000051.747500403L1.44000051.747500403z" transform="translate(13 10)"/>
      <g transform="translate(10 14)">
        <polygon fill="#EB0000" points="3 .625 1.125 .625 .75 .625 .75 1 .75 2.125 1.125 2.125 1.125 1 3 1"/>
        <rect width="3.375" height="1" x="3" y=".625" fill="#000"/>
      </g>
      <g fill="#EB0000" transform="translate(10 8)">
        <polygon points=".75 1 .75 1.158 .908 1"/>
        <polygon points="1.252 1 .75 1.502 .75 1.66 1.41 1"/>
        <polygon points="1.748 1 .75 1.998 .75 2.163 1.913 1"/>
        <polygon points="2.752 1 .75 3.002 .75 3.16 2.91 1"/>
        <polygon points="3 1.248 .75 3.498 .75 3.663 3 1.413"/>
        <polygon points="3 1.75 .75 4 .75 4.158 3 1.908"/>
        <polygon points="3 2.252 .75 4.502 .75 4.66 3 2.41"/>
        <polygon points="3 2.748 .75 4.998 .75 5.163 3 2.913"/>
        <polygon points="3 3.25 .75 5.5 .75 5.658 3 3.408"/>
        <polygon points="3 3.752 .75 6.003 .75 6.16 3 3.91"/>
        <polygon points="3 4.248 .998 6.25 1.163 6.25 3 4.413"/>
        <polygon points="3 4.75 1.5 6.25 1.658 6.25 3 4.908"/>
        <polygon points="3 5.253 2.002 6.25 2.16 6.25 3 5.41"/>
        <polygon points="3 5.747 2.498 6.25 2.663 6.25 3 5.913"/>
        <polygon points="2.25 1 .75 2.5 .75 2.658 2.408 1"/>
      </g>
      <rect width="1" height="1" x="9.25" y="15.525" fill="#000"/>
      <rect width="1" height="1" x="6.625" y="15.525" fill="#000"/>
      <path fill="#000" fill-rule="nonzero" d="M10.2700005,9.64500054 L9.73000054,9.10500054 C9.67000014,9.04500014 9.55750084,9.00000104 9.47500134,9.00000104 L6.77500153,9.00000104 C6.69250103,9.00000104 6.58000093,9.04500204 6.52000143,9.10500054 L5.98000192,9.64500054 C5.92000152,9.70500094 5.87500242,9.81750114 5.87500242,9.89999974 L5.87500242,14.4750006 C5.87500242,14.5575011 5.90500172,14.6849997 5.94250202,14.7599985 L6.18250183,15.239998 C6.22000123,15.3149988 6.31750203,15.3749982 6.40000153,15.3749982 L9.85000134,15.3749982 C9.93250184,15.3749982 10.0300007,15.3149987 10.067501,15.239998 L10.3075008,14.7599985 C10.3450003,14.6849996 10.3750024,14.557499 10.3750024,14.4750005 L10.3750024,9.89999964 C10.3750024,9.81749924 10.3299999,9.70499994 10.2700005,9.64500054 Z M7.75000003,9.44999984 L8.50000004,9.44999984 L8.50000004,9.75000004 L7.75000003,9.75000004 L7.75000003,9.44999984 Z M7.00000003,13.5000001 L6.25000003,13.5000001 L6.25000003,13.2000009 L7.00000003,13.2000009 L7.00000003,13.5000001 Z M10,13.5000001 L9.25000004,13.5000001 L9.25000004,13.2000009 L10,13.2000009 L10,13.5000001 Z M10,12.0000001 L6.25000003,12.0000001 L6.25000003,10.125 L10,10.125 L10,12.0000001 Z"/>
      <path fill="#000" d="M9.11499984,7.87500003 L7.12749963,7.87500003 C7.05249983,7.87500003 6.99249943,7.93500043 6.99249943,8.01000023 C6.99249943,8.08500003 7.05249983,8.14500043 7.12749963,8.14500043 L7.98999983,8.14500043 L7.98999983,8.85750004 L8.25249963,8.85750004 L8.25249963,8.14500043 L9.11499984,8.14500043 C9.18999964,8.14500043 9.25000004,8.08500003 9.25000004,8.01000023 C9.25000004,7.93500043 9.18999964,7.87500003 9.11499984,7.87500003 Z"/>
    </g>
  </g>
</svg>
