<svg xmlns="http://www.w3.org/2000/svg" width="24" height="24" viewBox="0 0 24 24">
  <g fill="none" fill-rule="evenodd">
    <path fill="#2D327D" d="M22.5,0 L1.5,0 C0.675000003,0 0,0.675000003 0,1.5 L0,22.5 C0,23.3250009 0.675000003,24 1.5,24 L22.5,24 C23.3250009,24 24,23.3250009 24,22.5 L24,1.5 C24,0.675000003 23.3250009,0 22.5,0 Z"/>
    <path fill="#FFF" d="M17.4099999 12.2799998C17.4099999 12.722499 17.7699986 13.0749999 18.205 13.0749999 18.6474992 13.0749999 19.0000001 12.7150003 19.0000001 12.2799998L19.0000001 11.4849987 17.4099999 11.4849987 17.4099999 12.2799998 17.4099999 12.2799998zM17.1549989 8.97249984C17.1024991 9.19750024 17.0499994 9.39250084 17.177498 9.63250064 17.2824975 9.83500004 17.5224992 10.2775011 17.5224992 10.2775011L18.9624997 10.8550005 19.2924996 9.49750044C19.3149987 9.39250094 19.3149987 9.28750044 19.2924996 9.18999964L18.8875008 7.31499963C18.8424988 7.09000023 18.6400013 6.93249903 18.415001 6.93249903L17.9874993 6.93249903C17.7625008 6.93249903 17.5599995 7.09000023 17.5150014 7.31499963L17.1549989 8.97249984 17.1549989 8.97249984zM14.5900003 12.2799998C14.5900003 12.722499 14.2300016 13.0749999 13.7950002 13.0749999 13.352501 13.0749999 13.0000001 12.7150003 13.0000001 12.2799998L13.0000001 11.4849987 14.5900003 11.4849987 14.5900003 12.2799998 14.5900003 12.2799998zM14.8450013 8.97249984C14.8975011 9.19750024 14.9500008 9.39250084 14.8225022 9.63250064 14.7175027 9.83500004 14.477501 10.2775011 14.477501 10.2775011L13.0375014 10.8550005 12.7075015 9.49750044C12.6850015 9.39250094 12.6850015 9.28750044 12.7075015 9.18999964L13.1125012 7.31499963C13.1575013 7.09000023 13.3600016 6.93249903 13.585001 6.93249903L14.0125008 6.93249903C14.2374993 6.93249903 14.4400006 7.09000023 14.4850006 7.31499963L14.8450013 8.97249984 14.8450013 8.97249984zM4.66000032 18.2799989C4.66000032 18.7225 5.02000042 19.0750009 5.45500092 19.0750009 5.89750012 19.0750009 6.25000103 18.7150003 6.25000103 18.2799989L6.25000103 17.4849988 4.66000032 17.4849988 4.66000032 18.2799989 4.66000032 18.2799989zM4.40500022 14.9724999C4.35250042 15.1974984 4.30000022 15.3925 4.42750022 15.6324978 4.53250022 15.8349991 4.77250002 16.2774983 4.77250002 16.2774983L6.21249963 16.8549996 6.54249953 15.4974995C6.56499953 15.3925 6.56499953 15.2875004 6.54249953 15.1899987L6.13749983 13.3149987C6.09249973 13.0899983 5.88999992 12.9324981 5.66500002 12.9324981L5.23750022 12.9324981C5.01249982 12.9324981 4.81000042 13.0899984 4.76499992 13.3149987L4.40500022 14.9724999 4.40500022 14.9724999zM2.58999971 12.2799998C2.58999971 12.722499 2.22999961 13.0749999 1.79499991 13.0749999 1.35249971 13.0749999 1 12.7150003 1 12.2799998L1 11.4849987 2.58999971 11.4849987 2.58999971 12.2799998 2.58999971 12.2799998zM2.84499981 8.97249984C2.89749961 9.19750024 2.94999981 9.39250084 2.82249981 9.63250064 2.71749971 9.83500004 2.47750001 10.2775011 2.47750001 10.2775011L1.0374999 10.8550005.707500003 9.49750044C.684999703 9.39250094.684999703 9.28750044.707500003 9.18999964L1.1125 7.31499963C1.1574998 7.09000023 1.36000021 6.93249903 1.58500031 6.93249903L2.01249981 6.93249903C2.23750021 6.93249903 2.43999961 7.09000023 2.48500011 7.31499963L2.84499981 8.97249984 2.84499981 8.97249984zM4.66000032 6.27999973C4.66000032 6.72249893 5.02000042 7.07499983 5.45500092 7.07499983 5.89750012 7.07499983 6.25000103 6.71500013 6.25000103 6.27999973L6.25000103 5.48499922 4.66000032 5.48499922 4.66000032 6.27999983 4.66000032 6.27999983 4.66000032 6.27999973zM4.40500022 2.97250031C4.35250042 3.19750021 4.30000022 3.39249991 4.42750022 3.63250062 4.53250032 3.83500002 4.77250002 4.27750022 4.77250002 4.27750022L6.21249963 4.85500052 6.54249953 3.49750091C6.56499953 3.39250091 6.56499953 3.28750041 6.54249953 3.19000101L6.13749983 1.31500101C6.09249973 1.0900009 5.88999992.932501104 5.66500002.932501104L5.23750022.932501104C5.01249982.932501104 4.81000042 1.0900009 4.76499992 1.31500101L4.40500022 2.97250031 4.40500022 2.97250031zM10 19.1124993C9.89500054 19.1124993 9.81250004 19.0299988 9.81250004 18.9249993L9.81250004 1.075C9.81250004.969999704 9.89500054.887500004 10 .887500004 10.1049995.887500004 10.1875.969999704 10.1875 1.075L10.1875 18.9249986C10.1875 19.0299989 10.1049995 19.1124993 10 19.1124993z" transform="translate(2 2)"/>
  </g>
</svg>
