<svg xmlns="http://www.w3.org/2000/svg" width="24" height="24" viewBox="0 0 24 24">
  <g fill="none" fill-rule="evenodd">
    <path fill="#F7B500" d="M22.5,0 C23.3250009,0 24,0.675000003 24,1.5 L24,22.5 C24,23.3250009 23.3250009,24 22.5,24 L1.5,24 C0.675000003,24 0,23.3250009 0,22.5 L0,1.5 C0,0.675000003 0.675000003,0 1.5,0 L22.5,0"/>
    <path fill="#000" d="M14.0249997,16.0499993 C14.0249997,17.0924988 13.1850005,17.9325009 12.1425,17.9325009 C11.0999994,17.9325009 10.2599993,17.0924988 10.2599993,16.0499993 C10.2599993,15.0074998 11.0999985,14.1674996 12.1425,14.1674996 C13.1850014,14.1674996 14.0249997,15.0075007 14.0249997,16.0499993 L14.0249997,16.0499993 Z"/>
    <path fill="#000" fill-rule="nonzero" d="M12.1499997,8.92500024 C8.16749953,8.92500024 4.56750012,11.2799997 2.96999931,14.9325009 C4.55999992,18.5775014 8.16749913,20.9400006 12.1499997,20.9400006 C16.1325002,20.9400006 19.7325002,18.5850011 21.33,14.9325009 C19.7325002,11.2799997 16.1324998,8.92500024 12.1499997,8.92500024 L12.1499997,8.92500024 Z M12.1425,19.8075009 L12.1425,19.8075009 C10.0649996,19.7999993 8.38499933,18.1200009 8.38499933,16.0425015 C8.38499933,13.9650021 10.0649987,12.2850018 12.1425,12.2850018 C14.2200012,12.2850018 15.8999997,13.9724999 15.8999997,16.0500002 L17.0249997,16.0500002 C17.0249997,13.3575001 14.8424998,11.1750002 12.1425,11.1750002 C9.44999984,11.1750002 7.26749943,13.3575002 7.26749943,16.0500002 C7.26749943,17.1000004 7.59749883,18.0674992 8.15999883,18.8700009 C6.48749873,18.0299988 5.08499902,16.6725007 4.20749942,14.9325009 L4.20749942,14.9325009 C5.72249882,11.9400005 8.78999894,10.0500002 12.1424999,10.0500002 C15.4950008,10.0500002 18.5625,11.9399996 20.0775013,14.9325009 L20.0775013,14.9325009 C18.5699998,17.9249993 15.5024997,19.8075009 12.1425,19.8075009 L12.1425,19.8075009 Z"/>
  </g>
</svg>
