<svg xmlns="http://www.w3.org/2000/svg" width="24" height="24" viewBox="0 0 24 24">
  <g fill="none" fill-rule="evenodd">
    <path fill="#2D327D" d="M22.5,0 L1.5,0 C0.675000003,0 0,0.675000003 0,1.5 L0,22.5 C0,23.3250009 0.675000003,24 1.5,24 L22.5,24 C23.3250009,24 24,23.3250009 24,22.5 L24,1.5 C24,0.675000003 23.3250009,0 22.5,0 Z"/>
    <g fill="#FFF" transform="translate(3 3)">
      <polygon points="8.288 11.858 5.28 8.85 5.28 10.733 9.038 14.483 12.788 10.733 12.788 8.85 9.788 11.858 9.788 4.725 8.288 4.725"/>
      <polygon points="18 18 0 18 0 16.5 18 16.5"/>
      <polygon points="2.715 0 2.715 2.25 2.25 2.25 2.265 .54 1.695 2.25 1.313 2.25 .735 .593 .75 2.25 .285 2.25 .285 0 .983 0 1.515 1.62 2.025 0"/>
      <path fill-rule="nonzero" d="M4.62749962,2.25000001 L4.16999912,2.25000001 C4.14749912,2.18249991 4.13999982,2.13000011 4.13999982,2.08500001 C3.99750042,2.22750041 3.81749962,2.30250021 3.59999981,2.30250021 C3.42749971,2.30250021 3.29249991,2.26500031 3.19499961,2.18250031 C3.08250001,2.09250071 3.03000021,1.96500021 3.03000021,1.80000071 C3.03000021,1.59000021 3.12750051,1.44750071 3.31500051,1.36500031 C3.39000031,1.33500001 3.53250031,1.30500031 3.74250082,1.27500061 C3.92250022,1.25250061 4.02750112,1.23000051 4.07250022,1.20750051 C4.11749932,1.1850005 4.13999982,1.1400004 4.13999982,1.0725003 C4.13999982,0.922500204 4.04249952,0.855000104 3.84750032,0.855000104 C3.74250082,0.855000104 3.66750052,0.870000004 3.62250042,0.907499904 C3.57749991,0.944999904 3.54000041,1.0050001 3.52500011,1.1025 L3.10500001,1.1025 C3.11999991,0.914999804 3.18750001,0.772499603 3.31500051,0.682499903 C3.44250061,0.592500202 3.62250042,0.539999702 3.85500052,0.539999702 C4.11750082,0.539999702 4.30500082,0.592499502 4.43250042,0.697499703 C4.49250082,0.749999503 4.53000021,0.802499703 4.54500062,0.854999504 C4.56000052,0.907499304 4.57499992,0.997499704 4.57499992,1.1249995 C4.57499992,1.1474995 4.57499992,1.25999971 4.56749972,1.46249961 C4.56749972,1.66499901 4.56749972,1.77749921 4.56749972,1.80749941 C4.56749972,1.92749931 4.56749972,2.01749941 4.57499992,2.07749941 C4.58250052,2.13749891 4.59750032,2.18249991 4.62749962,2.25000001 Z M4.13250062,1.43999961 C4.07250022,1.47750001 3.96750062,1.50749971 3.81750052,1.52249961 C3.71250102,1.53749941 3.63750122,1.55999951 3.58500101,1.58250001 C3.51750091,1.61999991 3.48750071,1.68000031 3.48750071,1.76249981 C3.48750071,1.82999991 3.51000071,1.88999991 3.55500081,1.92749981 C3.59999992,1.96499971 3.66000032,1.98750021 3.74250082,1.98750021 C3.87750102,1.98750021 3.98250062,1.94250011 4.05750042,1.85250001 C4.08750012,1.82249981 4.10250102,1.78499991 4.11750082,1.75499971 C4.13250062,1.72499951 4.13250072,1.67249971 4.13250072,1.61999951 L4.13250072,1.43999961 L4.13250062,1.43999961 Z"/>
      <polygon points="6.427 .57 5.887 1.35 6.495 2.25 5.978 2.25 5.633 1.702 5.295 2.25 4.785 2.25 5.377 1.358 4.838 .57 5.347 .57 5.64 1.02 5.925 .57"/>
      <polygon points="7.208 1.748 7.208 2.25 6.698 2.25 6.698 1.748"/>
      <path d="M9.94500064,1.86000011 L9.94500064,2.25000001 L8.32499983,2.25000001 C8.32499983,2.13000011 8.34749983,2.01749991 8.38500023,1.91249991 C8.42250064,1.80749991 8.48250004,1.71000001 8.55000024,1.63500021 C8.60250004,1.57499981 8.67000014,1.5150008 8.74500084,1.46250011 C8.82000064,1.40999981 8.97000034,1.30500031 9.18750004,1.1475 C9.29249954,1.0725002 9.36749944,1.0050001 9.41250044,0.945000404 C9.45750054,0.885000704 9.47999964,0.810000203 9.47999964,0.727500403 C9.47999964,0.630000103 9.44999994,0.555000002 9.38999944,0.495000302 C9.32999994,0.435000902 9.25499924,0.405000702 9.16500004,0.405000702 C8.93249904,0.405000702 8.81250004,0.562500502 8.80499944,0.885000704 L8.36999903,0.885000704 C8.36999903,0.862500704 8.36999903,0.847500803 8.36999903,0.840000903 C8.36999903,0.577500902 8.44499984,0.375001202 8.60250004,0.225001101 C8.75249964,0.0825009003 8.94750034,0.0150008 9.17999944,0.0150008 C9.38999944,0.0150008 9.56250004,0.0750012003 9.70500004,0.187501201 C9.85499954,0.315001001 9.93750004,0.480001202 9.93750004,0.690001003 C9.93750004,0.877501004 9.87749964,1.0350008 9.75750064,1.170001 C9.72000024,1.21500111 9.68250084,1.24500081 9.64500044,1.27500101 C9.60750004,1.30500121 9.51750084,1.36500071 9.36750024,1.46250101 C9.22500124,1.56000131 9.12000074,1.63500111 9.06000034,1.68000121 C8.99999994,1.72500131 8.94750014,1.78500121 8.89500034,1.85250131 L9.94500064,1.86000011 L9.94500064,1.86000011 Z"/>
      <path fill-rule="nonzero" d="M10.8975,0.0225003 C11.0700006,0.0225003 11.2200002,0.0750001002 11.3474998,0.172500201 C11.4750003,0.270000501 11.5725002,0.427500302 11.6325006,0.637500103 C11.6775007,0.794999903 11.6999998,0.967500304 11.6999998,1.1550003 C11.6999998,1.46999991 11.6399994,1.72500001 11.5275001,1.92000021 C11.46,2.04000001 11.3699989,2.13000011 11.2574997,2.18999961 C11.1449995,2.24999951 11.0324993,2.27999981 10.8974991,2.27999981 C10.7174997,2.27999981 10.5599995,2.22750001 10.4249993,2.12249951 C10.1924983,1.93499951 10.0799981,1.61249931 10.0799981,1.1549998 C10.0799981,0.824999403 10.1399985,0.562499602 10.2599984,0.374999601 C10.3274976,0.262499401 10.4174987,0.172499701 10.5299989,0.1124996 C10.642498,0.0524993001 10.7624998,0.0225003 10.8975,0.0225003 Z M10.8825006,0.382499901 C10.7325,0.382499901 10.6350002,0.464999602 10.5825004,0.630000103 C10.5375004,0.757499903 10.5225,0.937500004 10.5225,1.1775002 C10.5225,1.38750071 10.545,1.55250021 10.5900001,1.67250011 C10.6424999,1.83750011 10.7475004,1.92000051 10.8975,1.92000051 C11.0249996,1.92000051 11.1149997,1.86000011 11.1750002,1.73250051 C11.2350006,1.60500041 11.2649994,1.41750041 11.2649994,1.1550006 C11.2649994,0.937500404 11.2424994,0.765000703 11.1975002,0.630000503 C11.1374998,0.464999702 11.0325003,0.382499901 10.8825006,0.382499901 Z"/>
      <polygon points="14.85 0 13.965 .893 14.933 2.25 14.31 2.25 13.628 1.238 13.343 1.523 13.343 2.25 12.855 2.25 12.855 0 13.343 0 13.343 .93 14.228 0"/>
      <path fill-rule="nonzero" d="M16.6575013,0.569999902 L16.6575013,2.04750011 C16.6575013,2.18250031 16.6499997,2.28000021 16.6350022,2.36250021 C16.6200028,2.44499971 16.5900002,2.51249981 16.5525017,2.57999991 C16.4249993,2.78249981 16.1925011,2.88749981 15.8550015,2.88749981 C15.3900013,2.88749981 15.1350022,2.71499971 15.0900002,2.36250021 L15.540001,2.36250021 C15.5699998,2.50500011 15.6825009,2.57250021 15.8624993,2.57250021 C16.0049992,2.57250021 16.102501,2.53500031 16.1625004,2.45250031 C16.2075005,2.39249991 16.2299996,2.28750031 16.2299996,2.14500041 L16.2299996,1.93500041 C16.1175004,2.11500021 15.9524994,2.19750021 15.7349988,2.19750021 C15.5249997,2.19750021 15.3599988,2.12250041 15.2324983,1.97250031 C15.1049978,1.82250021 15.0449983,1.62000031 15.0449983,1.36500021 C15.0449983,1.1100001 15.1049978,0.907500504 15.2324983,0.750000403 C15.3674966,0.592500602 15.5399991,0.510000602 15.7574979,0.510000602 C15.869999,0.510000602 15.9599992,0.532500902 16.035,0.570001002 C16.1099989,0.607500903 16.177498,0.682501003 16.2374994,0.780001003 L16.2374994,0.555001302 L16.6575013,0.569999902 L16.6575013,0.569999902 Z M15.8474999,0.885000204 C15.7199975,0.885000204 15.6299992,0.937500004 15.5625001,1.0425 C15.5099984,1.125 15.4874993,1.23000001 15.4874993,1.36500021 C15.4874993,1.53000021 15.5249997,1.65000051 15.6000004,1.74000021 C15.6674996,1.81500051 15.7500001,1.85250041 15.8549996,1.85250041 C15.9899979,1.85250041 16.0874997,1.80000061 16.1549988,1.68750041 C16.2075005,1.60500041 16.2299996,1.49250071 16.2299996,1.36500021 C16.2299996,1.20750041 16.1924992,1.0875005 16.1099988,0.997500104 C16.0499993,0.922500104 15.9599992,0.885000204 15.8474999,0.885000204 Z"/>
    </g>
  </g>
</svg>
