<svg xmlns="http://www.w3.org/2000/svg" width="24" height="24" viewBox="0 0 24 24">
  <g fill="none" fill-rule="evenodd">
    <path fill="#2D327D" d="M22.5,0 L1.5,0 C0.675000003,0 0,0.675000003 0,1.5 L0,22.5 C0,23.3250009 0.675000003,24 1.5,24 L22.5,24 C23.3250009,24 24,23.3250009 24,22.5 L24,1.5 C24,0.675000003 23.3250009,0 22.5,0 Z"/>
    <path fill="#FFF" d="M16.8075009 12.3075009C16.2225018 11.7224998 15.3450013 11.6475 14.8500004 12.1425009 14.5125008 12.4800005 13.7625008 13.2300015 13.3349991 13.6575012L9.75000004 11.0325003 9.75000004 4.50000001 9.75000004 4.50000001C9.75000004 4.01249982 9.51749994 3.54000001 9.08250054 3.25500011 8.82750134 3.08250001 8.53499984 3.00000001 8.25000003 3.00000001L8.25000003 3.00000001 8.25000003 3.00000001C8.24249943 3.00000001 8.24249943 3.00000001 8.23500063 3.00000001L4.87500002 3.00000001C4.68750002 3.00000001 4.51499992 3.09750031 4.41749952 3.23999981L4.41749952 3.23999981 2.61749941 5.80499942 2.47499991 5.69999982C2.31000041 5.57999992 2.06999971 5.61000062 1.94999981 5.78250032 1.82999991 5.94750032 1.86000011 6.18750003 2.03249981 6.30750093L2.18999961 6.42000013 2.18249991 6.42750073C2.00249961 6.68250083 2.06250001 7.03500183 2.31750011 7.20750053 2.41500041 7.27499973 2.52750011 7.31250003 2.64000031 7.31250003 2.81250041 7.31250003 2.98500011 7.22999953 3.09000011 7.07999993L3.88500022 7.66499993 4.30500082 7.04249953 3.52500061 6.47249893 5.16750052 4.12499902 6.69750023 4.12499902 4.00499962 8.16749953C3.92999932 8.27999973 3.87749952 8.39249993 3.83249952 8.51999954L3.83249952 8.52750014.997500204 17.0099984C.870000404 17.3999997 1.0799999 17.8274995 1.47000031 17.955 1.54500061 17.9849988 1.62750051 17.9925004 1.71000001 17.9925004 2.02500011 17.9925004 2.31750011 17.7974988 2.42250011 17.4825002L4.92000052 9.99750044 6.00000003 13.6049996 6.00000003 17.2500001C6.00000003 17.6625005 6.33749963 18 6.75000003 18 7.16250043 18 7.50000003 17.6625005 7.50000003 17.2500001L7.50000003 13.5150014C7.50000003 13.5 7.50000003 13.4850007 7.50000003 13.4624997L7.50000003 13.4624997C7.50000003 13.455 7.50000003 13.4400006 7.50000003 13.4325009 7.50000003 13.4249993 7.50000003 13.4249993 7.50000003 13.4174996 7.50000003 13.4099999 7.50000003 13.4024983 7.50000003 13.3950005 7.50000003 13.3875008 7.50000003 13.3799992 7.49249943 13.3725014L7.49249943 13.3650017C7.49249943 13.3575001 7.48499883 13.3425026 7.48499883 13.335001L7.48499883 13.335001C7.47749913 13.3199997 7.47749913 13.3050022 7.46999943 13.2825012L6.44999993 9.89999954C6.46500023 9.87749954 6.47999963 9.85499944 6.49500093 9.83250034L8.62500014 6.64500033 8.62500014 10.2150009 7.32749953 9.26250064 6.90749943 9.88500104 8.61749944 11.1375006 8.61749944 11.6250008C8.61749944 11.9325016 8.87249954 12.1875009 9.17999944 12.1875009 9.38999944 12.1875009 9.56999974 12.0750007 9.66749964 11.9100016L12.7724992 14.1900005C12.6524984 14.2800026 12.5175 14.3700008 12.4124986 14.4225006L11.579998 14.8350011C11.392498 14.9250032 11.1449985 15.1350022 11.017498 15.3000032L8.99249844 18 17.9924966 18 17.9924966 13.5 16.8075009 12.3075009zM10.5 3.75C11.3249998 3.75 12 3.07499981 12 2.25 12 1.42500021 11.3249998.750000003 10.5.750000003 9.67500024.750000003 9.00000004 1.42500021 9.00000004 2.25 9.00000004 3.07499981 9.67500024 3.75 10.5 3.75z" transform="translate(3 3)"/>
  </g>
</svg>
