<svg xmlns="http://www.w3.org/2000/svg" width="24" height="24" viewBox="0 0 24 24">
  <g fill="none" fill-rule="evenodd">
    <path fill="#2D327D" d="M22.5,0 L1.5,0 C0.675000003,0 0,0.675000003 0,1.5 L0,22.5 C0,23.3250009 0.675000003,24 1.5,24 L22.5,24 C23.3250009,24 24,23.3250009 24,22.5 L24,1.5 C24,0.675000003 23.3250009,0 22.5,0 Z"/>
    <g transform="translate(3 5)">
      <path fill="#FFF" fill-rule="nonzero" d="M15.7500001,2.50000001 L11.7375002,2.50000001 L11.7375002,1.59999991 C11.7375002,0.857500104 11.1299992,0.250000001 10.3874998,0.250000001 L7.61250023,0.250000001 C6.87000083,0.250000001 6.26249983,0.857500104 6.26249983,1.59999991 L6.26249983,2.50000001 L2.25000001,2.50000001 C1.0050001,2.50000001 0,3.50499921 0,4.75 L0,13.75 C0,14.9950009 1.0124998,16.0000001 2.25000001,16.0000001 L15.7500001,16.0000001 C16.9950009,16.0000001 18,14.9950009 18,13.75 L18,4.75 C18,3.50499921 16.9950009,2.50000001 15.7500001,2.50000001 L15.7500001,2.50000001 Z M10.6875,2.50000001 L7.31250003,2.50000001 L7.31250003,1.30000021 L10.6875,1.30000021 L10.6875,2.50000001 L10.6875,2.50000001 Z"/>
      <path fill="#EB0000" fill-rule="nonzero" d="M6.77250003,3.92500022 C3.85499952,3.92500022 1.48500011,6.22000033 1.48500011,9.13749984 C1.48500011,12.0549994 3.85500052,14.5000001 6.77250003,14.5000001 C9.68999954,14.5000001 12.0600005,12.0550004 12.0600005,9.13749984 C12.0600005,6.21999933 9.68999964,3.92500022 6.77250003,3.92500022 L6.77250003,3.92500022 Z M6.77250003,13.0974999 C4.68000072,13.0974999 2.98500011,11.4024982 2.98500011,9.30999944 C2.98500011,7.21750063 4.68000082,5.52249912 6.77250003,5.52249912 C8.86499924,5.52249912 10.5600004,7.21749973 10.5600004,9.30999954 C10.5600004,11.3950005 8.86499984,13.0974999 6.77250003,13.0974999 L6.77250003,13.0974999 Z"/>
      <path fill="#000" d="M4.72499992,9.85000044 L8.85000044,9.85000044 C9.15750034,9.85000044 9.41250044,9.59500034 9.41250044,9.28750044 C9.41250044,8.97999964 9.15750034,8.72500044 8.85000044,8.72500044 L4.72499992,8.72500044 C4.41749952,8.72500044 4.16249992,8.97999964 4.16249992,9.28750044 C4.16249992,9.59500034 4.41749952,9.85000044 4.72499992,9.85000044 L4.72499992,9.85000044 Z"/>
      <g fill="#000" transform="translate(5 7)">
        <polygon points="1.413 .308 1.413 .48 .842 1.163 1.427 1.163 1.427 1.358 .542 1.358 .542 1.178 1.105 .51 .58 .51 .58 .315"/>
        <path fill-rule="nonzero" d="M1.92250061,0.547500603 C2.03499981,0.547500603 2.13250061,0.585000003 2.19999981,0.659999803 C2.26749991,0.735000603 2.30499931,0.832500404 2.30499931,0.960000502 C2.30499931,1.0874996 2.26749991,1.19250101 2.19249911,1.26750081 C2.12500001,1.33500001 2.02750021,1.37250041 1.91500001,1.37250041 C1.79499921,1.37250041 1.69750031,1.33500001 1.62250051,1.25249961 C1.55500031,1.17749981 1.51750091,1.0799999 1.51750091,0.960000502 C1.51750091,0.840000104 1.54750061,0.742500303 1.61500071,0.675000203 C1.68999961,0.592499703 1.79500011,0.547500603 1.92250061,0.547500603 Z M1.90750121,0.712499603 C1.85500051,0.712499603 1.81000051,0.735000603 1.78000071,0.779999704 C1.75000101,0.824999804 1.72750091,0.884999204 1.72750091,0.967499252 C1.72750091,1.0500002 1.74250031,1.1099987 1.77250101,1.15499971 C1.80250071,1.19999981 1.85500151,1.22249891 1.90750121,1.22249891 C1.96000091,1.22249891 2.00500201,1.19999891 2.03500171,1.16249851 C2.07250111,1.1174984 2.08750151,1.057499 2.08750151,0.974998504 C2.08750151,0.899998704 2.07250121,0.832499504 2.04250051,0.794999104 C2.01249981,0.735000603 1.96749971,0.712499603 1.90750121,0.712499603 Z"/>
        <polygon points="2.65 .308 2.65 1.358 2.44 1.358 2.44 .308"/>
        <polygon points="3.033 .308 3.033 1.358 2.823 1.358 2.823 .308"/>
      </g>
    </g>
  </g>
</svg>
