<svg xmlns="http://www.w3.org/2000/svg" width="24" height="24" viewBox="0 0 24 24">
  <g fill="none" fill-rule="evenodd">
    <path fill="#2D327D" d="M22.5,0 L1.5,0 C0.675000003,0 0,0.675000003 0,1.5 L0,22.5 C0,23.3250009 0.675000003,24 1.5,24 L22.5,24 C23.3250009,24 24,23.3250009 24,22.5 L24,1.5 C24,0.675000003 23.3250009,0 22.5,0 Z"/>
    <g transform="translate(3 5)">
      <path fill="#FFF" fill-rule="nonzero" d="M15.7500001,2.50000001 L11.7375002,2.50000001 L11.7375002,1.59999991 C11.7375002,0.857500104 11.1299992,0.250000001 10.3874998,0.250000001 L7.61250023,0.250000001 C6.87000083,0.250000001 6.26249983,0.857500104 6.26249983,1.59999991 L6.26249983,2.50000001 L2.25000001,2.50000001 C1.0050001,2.50000001 0,3.50499921 0,4.75 L0,13.75 C0,14.9950009 1.0124998,16.0000001 2.25000001,16.0000001 L15.7500001,16.0000001 C16.9950009,16.0000001 18,14.9950009 18,13.75 L18,4.75 C18,3.50499921 16.9950009,2.50000001 15.7500001,2.50000001 L15.7500001,2.50000001 Z M10.6875,2.50000001 L7.31250003,2.50000001 L7.31250003,1.30000021 L10.6875,1.30000021 L10.6875,2.50000001 L10.6875,2.50000001 Z"/>
      <path fill="#EB0000" fill-rule="nonzero" d="M6.77250003,3.92500022 C3.85499952,3.92500022 1.48500011,6.22000033 1.48500011,9.13749984 C1.48500011,12.0549994 3.85500052,14.5000001 6.77250003,14.5000001 C9.68999954,14.5000001 12.0600005,12.0550004 12.0600005,9.13749984 C12.0600005,6.21999933 9.68999964,3.92500022 6.77250003,3.92500022 L6.77250003,3.92500022 Z M6.77250003,13.0974999 C4.68000072,13.0974999 2.98500011,11.4024982 2.98500011,9.30999944 C2.98500011,7.21750063 4.68000082,5.52249912 6.77250003,5.52249912 C8.86499924,5.52249912 10.5600004,7.21749973 10.5600004,9.30999954 C10.5600004,11.3950005 8.86499984,13.0974999 6.77250003,13.0974999 L6.77250003,13.0974999 Z"/>
      <path fill="#000" d="M4.72499992,9.85000044 L8.85000044,9.85000044 C9.15750034,9.85000044 9.41250044,9.59500034 9.41250044,9.28750044 C9.41250044,8.97999964 9.15750034,8.72500044 8.85000044,8.72500044 L4.72499992,8.72500044 C4.41749952,8.72500044 4.16249992,8.97999964 4.16249992,9.28750044 C4.16249992,9.59500034 4.41749952,9.85000044 4.72499992,9.85000044 L4.72499992,9.85000044 Z"/>
      <g fill="#000" transform="translate(4 7)">
        <path fill-rule="nonzero" d="M.1624999.307500801L.582500502.307500801C.657500302.307500801.724999903.315000501.785000403.337499601.845000303.359998701.889999903.382500602.935000503.420000102 1.04.517500902 1.0925007.645000503 1.0925007.817501103 1.0925007.997500504 1.0400009 1.1325007.942500603 1.23000051.897500003 1.27500151.852500903 1.30500031.792500503 1.32000071.740000703 1.33500011.672500102 1.35000041.582500502 1.35000041L.1550007 1.35000041.1550007.307500801.1624999.307500801.1624999.307500801zM.395000501.502499602L.395000501 1.1625004.567500602 1.1625004C.620000402 1.1625004.665000902 1.1549998.695000702 1.1475001.725000002 1.1400014.755000603 1.1175004.777501203 1.0950003.830001003 1.0349999.860001703.945000704.860001703.832500001.860001703.727501003.837501203.645000503.785001403.592500702.732501603.540000902.657501802.510000202.560001502.510000202L.395000501.510000202.395000501.502499602zM1.60250001.547500603C1.71500021.547500603 1.81250001.585000003 1.87999921.659999803 1.94749931.735000603 1.98499871.832500504 1.98499871.960000452 1.98499871 1.0874995 1.94749931 1.19250101 1.87249951 1.26750081 1.80499941 1.33500001 1.70749951 1.37250031 1.59499931 1.37250031 1.47499851 1.37250031 1.37749961 1.33499991 1.30249981 1.25249951 1.23500061 1.17749981 1.19750021 1.0799999 1.19750021.960000452 1.19750021.840000104 1.22750001.742500303 1.29500011.675000203 1.37749961.592499703 1.47500041.547500603 1.60250001.547500603zM1.5950012.712499603C1.54250051.712499603 1.49750051.735000603 1.46750071.779999704 1.43750101.824999804 1.41500091.884999204 1.41500091.967499252 1.41500091 1.0500002 1.43000031 1.1099987 1.46000101 1.15499971 1.49000071 1.19999981 1.54250151 1.22249891 1.5950012 1.22249891 1.64750091 1.22249891 1.69250201 1.19999891 1.72250171 1.16249851 1.76000111 1.1174984 1.77500151 1.057499 1.77500151.974998504 1.77500151.899998704 1.76000121.832499504 1.73000051.794999104 1.69999981.735000603 1.65499971.712499603 1.5950012.712499603z"/>
        <path d="M2.83250051,0.570000602 L2.83250051,1.35000031 L2.63749981,1.35000031 L2.63749981,1.23750011 C2.57749941,1.32749931 2.49500081,1.37250031 2.38999941,1.37250031 C2.30000021,1.37250031 2.22500041,1.34250061 2.17999941,1.28250011 C2.16500001,1.26000011 2.14999971,1.23000031 2.14250001,1.1999996 C2.13499931,1.1699991 2.12749961,1.125 2.12749961,1.0725002 L2.12749961,0.577499402 L2.33749961,0.577499402 L2.33749961,1.0049992 C2.33749961,1.0500002 2.33749961,1.08 2.34500021,1.1025 C2.34500021,1.1174994 2.35250081,1.1399994 2.36000051,1.1475001 C2.38250051,1.1850005 2.42000001,1.1999999 2.47249971,1.1999999 C2.53999981,1.1999999 2.58499991,1.1700002 2.61499961,1.1100007 C2.62999901,1.080001 2.63749961,1.0275002 2.63749961,0.960000104 L2.63749961,0.577499502 L2.83250051,0.570000602 L2.83250051,0.570000602 Z"/>
        <path fill-rule="nonzero" d="M3.70249942,1.35000041 L3.49249942,1.35000041 C3.48499872,1.32000061 3.47750002,1.29000001 3.47750002,1.27499961 C3.40999991,1.34249971 3.32749941,1.37250041 3.22999961,1.37250041 C3.14749911,1.37250041 3.08749971,1.35750011 3.04249961,1.32000061 C2.98999981,1.27499961 2.96749981,1.21500111 2.96749981,1.14000121 C2.96749981,1.0425004 3.01249991,0.975001204 3.10250001,0.937500904 C3.13999941,0.922501504 3.20749951,0.907501204 3.29750061,0.892500804 C3.38000111,0.885000204 3.43250081,0.870000804 3.45500091,0.862501104 C3.47750092,0.855000504 3.48500062,0.832501404 3.48500062,0.802500704 C3.48500062,0.735001503 3.43999961,0.697501203 3.35000041,0.697501203 C3.30499941,0.697501203 3.26749991,0.705001803 3.24500091,0.720001203 C3.22249991,0.735001503 3.20750051,0.765002204 3.19999991,0.810001404 L3.00499931,0.810001404 C3.01249991,0.720001203 3.04249971,0.660001803 3.10250011,0.615000803 C3.16250051,0.570000703 3.24499911,0.547501603 3.35749931,0.547501603 C3.47750012,0.547501603 3.56749932,0.570001603 3.62749982,0.622501403 C3.65749952,0.645001403 3.67250082,0.667501503 3.67999962,0.697501203 C3.68749932,0.727500903 3.69499992,0.765001304 3.69499992,0.825000804 C3.69499992,0.840001104 3.69499992,0.892500904 3.69499992,0.982502004 C3.69499992,1.0800018 3.69499992,1.13250161 3.69499992,1.14750101 C3.69499992,1.20750141 3.69499992,1.24500181 3.70249962,1.27500151 C3.67999942,1.29000001 3.68750002,1.32000061 3.70249942,1.35000041 Z M3.47000032,0.975000404 C3.44000061,0.989999804 3.39500051,1.0049992 3.32750086,1.0124998 C3.27500151,1.0200004 3.24500081,1.0275001 3.22250181,1.0424995 C3.19250211,1.0574989 3.17750081,1.0874996 3.17750081,1.125 C3.17750081,1.1549997 3.18500141,1.1850004 3.20750051,1.1999998 C3.23000051,1.2150001 3.26000031,1.2299995 3.29000101,1.2299995 C3.35000141,1.2299995 3.40250121,1.2074995 3.44000061,1.1625003 C3.45500091,1.1475 3.46250162,1.1325006 3.47000032,1.1174993 C3.47750092,1.10249995 3.47750092,1.0799999 3.47750092,1.0574989 L3.47000032,0.975000404 L3.47000032,0.975000404 Z"/>
        <path d="M4.03250032,0.577499402 L4.03250032,0.689999603 C4.05500032,0.659999903 4.07750132,0.629999203 4.10000042,0.614999803 C4.15250022,0.577499402 4.21249962,0.554999402 4.28750042,0.554999402 C4.35499962,0.554999402 4.40750032,0.569999702 4.45249942,0.600000403 C4.48999982,0.622500403 4.51249982,0.659999903 4.52750022,0.697500203 C4.54249962,0.735000603 4.55000022,0.795000003 4.55000022,0.862500204 L4.55000022,1.35000041 L4.34000022,1.35000041 L4.34000022,0.899999604 C4.34000022,0.847499804 4.33249962,0.810000403 4.32499992,0.787500403 C4.31749932,0.764999403 4.30249992,0.750000003 4.27999982,0.742499403 C4.25749982,0.727500003 4.23499882,0.719999403 4.20500002,0.719999403 C4.17500032,0.719999403 4.14499962,0.727500003 4.12249952,0.742499403 C4.09999852,0.757499703 4.07749852,0.779999803 4.06249912,0.802499803 C4.04749882,0.832499503 4.03999912,0.877499604 4.03999912,0.937500004 L4.03999912,1.34249971 L3.82999812,1.34249971 L3.82999812,0.562500002 L4.03250042,0.562500002 L4.03250042,0.577499402 L4.03250032,0.577499402 Z"/>
        <path fill-rule="nonzero" d="M5.40499972,1.1100006 C5.39749912,1.15500071 5.37500002,1.19250111 5.34499932,1.23000051 C5.27750012,1.32750131 5.17999932,1.37250041 5.05249982,1.37250041 C4.93249902,1.37250041 4.84249982,1.33500001 4.77499962,1.26000021 C4.73750022,1.22249981 4.71500012,1.17749971 4.69999982,1.13250061 C4.67749982,1.0800008 4.67000012,1.0200004 4.67000012,0.960000502 C4.67000012,0.847499804 4.69999982,0.750000003 4.76750092,0.675000203 C4.84250072,0.592499703 4.93250092,0.547500603 5.05250072,0.547500603 C5.14250092,0.547500603 5.22500132,0.577499403 5.29250052,0.637499803 C5.33750152,0.682500803 5.37500102,0.727500003 5.39750002,0.787500404 C5.41999912,0.847499904 5.42749972,0.922500604 5.42749972,1.0200005 L4.87999912,1.0200005 C4.87999912,1.0575009 4.88749972,1.0874997 4.89499942,1.11750031 C4.92499912,1.18500041 4.97749992,1.22249981 5.05249972,1.22249981 C5.09000012,1.22249981 5.11999892,1.21500011 5.14999952,1.19999981 C5.18000022,1.18500041 5.19500052,1.15499971 5.20999992,1.11749931 L5.40499972,1.1100006 L5.40499972,1.1100006 Z M5.21000002,0.877499604 C5.20249942,0.840000204 5.19500062,0.810000403 5.18750002,0.787500403 C5.17250062,0.764999403 5.15750032,0.742499403 5.12749962,0.727500003 C5.10499962,0.712499703 5.07499982,0.705000003 5.04499957,0.705000003 C4.99999902,0.705000003 4.96249862,0.719999403 4.93249892,0.750000103 C4.90250012,0.779999803 4.88749882,0.824999903 4.87999912,0.877499704 L5.21000002,0.877499704 L5.21000002,0.877499604 Z"/>
      </g>
    </g>
  </g>
</svg>
