<svg xmlns="http://www.w3.org/2000/svg" width="24" height="24" viewBox="0 0 24 24">
  <g fill="none" fill-rule="evenodd">
    <path fill="#2D327D" d="M22.5,0 L1.5,0 C0.675000003,0 0,0.675000003 0,1.5 L0,22.5 C0,23.3250009 0.675000003,24 1.5,24 L22.5,24 C23.3250009,24 24,23.3250009 24,22.5 L24,1.5 C24,0.675000003 23.3250009,0 22.5,0 Z"/>
    <g transform="translate(3 5)">
      <path fill="#FFF" fill-rule="nonzero" d="M15.7500001,2.50000001 L11.7375002,2.50000001 L11.7375002,1.59999991 C11.7375002,0.857500104 11.1299992,0.250000001 10.3874998,0.250000001 L7.61250023,0.250000001 C6.87000083,0.250000001 6.26249983,0.857500104 6.26249983,1.59999991 L6.26249983,2.50000001 L2.25000001,2.50000001 C1.0050001,2.50000001 0,3.50499921 0,4.75 L0,13.75 C0,14.9950009 1.0124998,16.0000001 2.25000001,16.0000001 L15.7500001,16.0000001 C16.9950009,16.0000001 18,14.9950009 18,13.75 L18,4.75 C18,3.50499921 16.9950009,2.50000001 15.7500001,2.50000001 L15.7500001,2.50000001 Z M10.6875,2.50000001 L7.31250003,2.50000001 L7.31250003,1.30000021 L10.6875,1.30000021 L10.6875,2.50000001 L10.6875,2.50000001 Z"/>
      <path fill="#EB0000" fill-rule="nonzero" d="M6.77250003,3.92500022 C3.85499952,3.92500022 1.48500011,6.22000033 1.48500011,9.13749984 C1.48500011,12.0549994 3.85500052,14.5000001 6.77250003,14.5000001 C9.68999954,14.5000001 12.0600005,12.0550004 12.0600005,9.13749984 C12.0600005,6.21999933 9.68999964,3.92500022 6.77250003,3.92500022 L6.77250003,3.92500022 Z M6.77250003,13.0974999 C4.68000072,13.0974999 2.98500011,11.4024982 2.98500011,9.30999944 C2.98500011,7.21750063 4.68000082,5.52249912 6.77250003,5.52249912 C8.86499924,5.52249912 10.5600004,7.21749973 10.5600004,9.30999954 C10.5600004,11.3950005 8.86499984,13.0974999 6.77250003,13.0974999 L6.77250003,13.0974999 Z"/>
      <path fill="#000" d="M4.72499992,9.85000044 L8.85000044,9.85000044 C9.15750034,9.85000044 9.41250044,9.59500034 9.41250044,9.28750044 C9.41250044,8.97999964 9.15750034,8.72500044 8.85000044,8.72500044 L4.72499992,8.72500044 C4.41749952,8.72500044 4.16249992,8.97999964 4.16249992,9.28750044 C4.16249992,9.59500034 4.41749952,9.85000044 4.72499992,9.85000044 L4.72499992,9.85000044 Z"/>
      <g fill="#000" transform="translate(4 7)">
        <path fill-rule="nonzero" d="M.1624999.307500801L.582500502.307500801C.657500302.307500801.724999903.315000501.785000403.337499601.837500203.352499901.889999903.382500602.935000503.420000102 1.04.517500902 1.0925007.645000503 1.0925007.817501103 1.0925007.997500504 1.0400009 1.1325007.942500603 1.23000051.897500003 1.27500151.852500903 1.30500031.792500503 1.32000071.740000703 1.33500011.672500102 1.35000041.582500502 1.35000041L.1550007 1.35000041.1550007.307500801.1624999.307500801.1624999.307500801zM.395000501.502499602L.395000501 1.1625004.567500602 1.1625004C.620000402 1.1625004.665000902 1.1549998.695000702 1.1475001.725000002 1.1399995.755000603 1.1175004.777501203 1.0950003.830001003 1.0349999.860001703.945000704.860001703.832500001.860001703.727501003.837501203.645000503.785001403.592500702.732501603.540000902.657501802.510000202.560001502.510000202L.395000501.510000202.395000501.502499602zM1.60250001.547500603C1.71500021.547500603 1.81250001.585000003 1.87999921.659999803 1.94749931.735000603 1.98499871.832500504 1.98499871.960000452 1.98499871 1.0874995 1.94749931 1.19250101 1.87249951 1.26750081 1.80499941 1.33500001 1.70749951 1.37250031 1.59499931 1.37250031 1.47499851 1.37250031 1.37749961 1.33499991 1.30249981 1.25249951 1.23500061 1.17749981 1.19750021 1.0799999 1.19750021.960000452 1.19750021.840000104 1.22750001.742500303 1.29500011.675000203 1.37749961.592499703 1.47500041.547500603 1.60250001.547500603zM1.5950012.712499603C1.54250051.712499603 1.49750051.735000603 1.46750071.779999704 1.43750101.824999804 1.41500091.884999204 1.41500091.967499252 1.41500091 1.0500002 1.43000031 1.1099987 1.46000101 1.15499971 1.49000071 1.19999981 1.54250151 1.22249891 1.5950012 1.22249891 1.64750091 1.22249891 1.69250201 1.19999891 1.72250171 1.16249851 1.76000111 1.1174984 1.77500151 1.057499 1.77500151.974998504 1.77500151.899998704 1.76000121.832499504 1.73000051.794999104 1.69999981.735000603 1.65499971.712499603 1.5950012.712499603zM2.85499951.570000602L2.85499951 1.26000021C2.85499951 1.32000061 2.84749891 1.37250041 2.84000011 1.40250011 2.83249951 1.43999961 2.81749921 1.46999931 2.80249981 1.50000001 2.74249941 1.59749981 2.63749981 1.64249991 2.47999961 1.64249991 2.26249991 1.64249991 2.14250001 1.55999941 2.12749961 1.39499951L2.33749961 1.39499951C2.35249991 1.46249871 2.40499971 1.49249931 2.48750021 1.49249931 2.55499941 1.49249931 2.60000041 1.47749991 2.62250041 1.43999951 2.64500041 1.40999981 2.65250011 1.36499971 2.65250011 1.29750051L2.65250011 1.1999997C2.60000031 1.28250021 2.52499961 1.32000051 2.41999911 1.32000051 2.32249931 1.32000051 2.24749941 1.28250011 2.18749901 1.21500101 2.12749861 1.1475009 2.09749881 1.050001 2.09749881.930000204 2.09749881.810000303 2.12749851.720000203 2.18749901.645000403 2.24749951.570000602 2.32999801.532500202 2.42749881.532500202 2.47999861.532500202 2.52499861.540000802 2.55499841.562499902 2.58499821.584999002 2.62249761.614999703 2.65249821.659999703L2.65249821.555000202 2.85499951.570000602 2.85499951.570000602zM2.47999951.720000303C2.41999911.720000303 2.37500001.742500303 2.34499931.795000104 2.32249931.832500504 2.30749891.885000304 2.30749891.945000252 2.30749891 1.0200005 2.32249921 1.0800009 2.35999871 1.11750041 2.38999841 1.15500081 2.42749881 1.17000021 2.47999951 1.17000021 2.53999991 1.17000021 2.58499901 1.14750021 2.62249941 1.0950004 2.64499941 1.057501 2.65999881 1.0050012 2.65999881.945000252 2.65999881.870001004 2.64499941.817501204 2.60749901.772500204 2.57000061.735000603 2.53250031.720000303 2.47999951.720000303zM3.72500042 1.35000041L3.51499942 1.35000041C3.50749972 1.32000061 3.50000002 1.29000001 3.50000002 1.27499961 3.43250081 1.34249971 3.35000041 1.37250041 3.25249961 1.37250041 3.16999911 1.37250041 3.11000061 1.35750011 3.06499961 1.32000061 3.01249981 1.27499961 2.98999981 1.21500111 2.98999981 1.14000121 2.98999981 1.0425004 3.03499991.975001204 3.12500001.937500904 3.16250041.922501504 3.22999951.907501204 3.32000061.892500804 3.40250111.885000204 3.45500081.870000804 3.47750092.862501104 3.50000092.855000504 3.50750062.832501404 3.50750062.802500704 3.50750062.735001503 3.46249961.697501203 3.37250041.697501203 3.32749941.697501203 3.28999991.705001803 3.26750091.720001203 3.24500091.735001503 3.23000051.765002204 3.22249991.810001404L3.02750021.810001404C3.03499991.720001203 3.06499961.660001803 3.12500001.615000803 3.18500041.570000703 3.26749991.547501603 3.37999921.547501603 3.50000002.547501603 3.59000022.570001603 3.64999972.622501403 3.67999942.645001403 3.69500072.667501503 3.70249952.697501203 3.70999922.727500903 3.71749982.765001304 3.71749982.825000804 3.71749982.840001104 3.71749982.892500904 3.71749982.982502004 3.71749982 1.0800018 3.71749982 1.13250161 3.71749982 1.14750101 3.71749982 1.20750141 3.71749982 1.24500181 3.72500042 1.27500151 3.71000002 1.29000001 3.71749972 1.32000061 3.72500042 1.35000041zM3.50000002.975000404C3.47000032.989999804 3.42500021 1.0049992 3.35750056 1.0124998 3.30500031 1.0200004 3.27499961 1.0275001 3.25250061 1.0424995 3.22250181 1.0574989 3.20750051 1.0874996 3.20750051 1.125 3.20750051 1.1549997 3.21500111 1.1850004 3.23750021 1.1999998 3.26000021 1.2150001 3.29000001 1.2299995 3.32000071 1.2299995 3.38000111 1.2299995 3.43250091 1.2074995 3.47000032 1.1625003 3.48500062 1.1475 3.49250032 1.1325006 3.50000002 1.1174993 3.50750062 1.10249995 3.50750062 1.0799999 3.50750062 1.0574989L3.50000002.975000404 3.50000002.975000404z"/>
        <path d="M4.05499942,0.577499402 L4.05499942,0.689999603 C4.07749942,0.659999903 4.10000042,0.629999203 4.12249952,0.614999803 C4.17499932,0.577499402 4.23499872,0.554999402 4.30999952,0.554999402 C4.37749872,0.554999402 4.42999942,0.569999702 4.47499852,0.600000403 C4.51249892,0.622500403 4.53499892,0.659999903 4.54999932,0.697500203 C4.56499872,0.735000603 4.57249932,0.795000003 4.57249932,0.862500204 L4.57249932,1.35000041 L4.36249932,1.35000041 L4.36249932,0.899999604 C4.36249932,0.847499804 4.35499872,0.810000403 4.34749902,0.787500403 C4.33999842,0.764999403 4.32499902,0.750000003 4.30249892,0.742499403 C4.27999892,0.727500003 4.25749792,0.719999403 4.22749912,0.719999403 C4.19749942,0.719999403 4.16749872,0.727500003 4.14499862,0.742499403 C4.12249762,0.757499703 4.09999762,0.779999803 4.08499822,0.802499803 C4.06999792,0.832499503 4.06249822,0.877499604 4.06249822,0.937500004 L4.06249822,1.34249971 L3.85249722,1.34249971 L3.85249722,0.562500002 L4.05499942,0.577499402 L4.05499942,0.577499402 Z"/>
        <path fill-rule="nonzero" d="M5.43500042,1.35000041 L5.22500042,1.35000041 C5.21749972,1.32000061 5.21000002,1.29000001 5.21000002,1.27499961 C5.14250082,1.34249971 5.06000042,1.37250041 4.96249962,1.37250041 C4.87999912,1.37250041 4.82000062,1.35750011 4.77499962,1.32000061 C4.72249982,1.27499961 4.69999982,1.21500111 4.69999982,1.14000121 C4.69999982,1.0425004 4.74500082,0.975001204 4.83500002,0.937500904 C4.87250042,0.922501504 4.93999952,0.907501204 5.03000062,0.892500804 C5.11250112,0.885000204 5.16500082,0.870000804 5.18750092,0.862501104 C5.21000102,0.855001404 5.21750062,0.832501404 5.21750062,0.802500704 C5.21750062,0.735001503 5.17250052,0.697501203 5.08250042,0.697501203 C5.03750032,0.697501203 4.99999992,0.705001803 4.97750092,0.720001203 C4.95500092,0.735001503 4.94000052,0.765002204 4.93250082,0.810001404 L4.73750022,0.810001404 C4.74500082,0.720001203 4.77499962,0.660001803 4.83500002,0.615000803 C4.89500042,0.570000703 4.97749992,0.547501603 5.09000012,0.547501603 C5.21000002,0.547501603 5.30000012,0.570001603 5.36000062,0.622501403 C5.38999942,0.645001403 5.40500072,0.667501503 5.41250042,0.697501203 C5.42000012,0.727500903 5.42749982,0.765001304 5.42749982,0.825000804 C5.42749982,0.840001104 5.42749982,0.892500904 5.42749982,0.982502004 C5.42749982,1.0800018 5.42749982,1.13250161 5.42749982,1.14750101 C5.42749982,1.20750141 5.42749982,1.24500181 5.43500042,1.27500151 C5.42000012,1.29000001 5.42000012,1.32000061 5.43500042,1.35000041 Z M5.21000002,0.975000404 C5.18000032,0.989999804 5.13500022,1.0049992 5.06750057,1.0124998 C5.01500122,1.0200004 4.98500052,1.0275001 4.96250152,1.0424995 C4.93250182,1.0574989 4.91750052,1.0874996 4.91750052,1.125 C4.91750052,1.1549997 4.92500112,1.1850004 4.94750022,1.1999998 C4.97000022,1.2150001 5.00000002,1.2299995 5.03000072,1.2299995 C5.09000112,1.2299995 5.14250092,1.2074995 5.18000032,1.1625003 C5.19500062,1.1475 5.20250132,1.1325006 5.21000002,1.1174993 C5.21749972,1.1024999 5.21750062,1.0799999 5.21750062,1.0574989 L5.21750062,0.975000304 L5.21000002,0.975000304 L5.21000002,0.975000404 Z"/>
      </g>
    </g>
  </g>
</svg>
