<svg xmlns="http://www.w3.org/2000/svg" width="24" height="24" viewBox="0 0 24 24">
  <g fill="none" fill-rule="evenodd">
    <path fill="#F7B500" d="M22.5,0 L1.5,0 C0.675000003,0 0,0.675000003 0,1.5 L0,22.5 C0,23.3250009 0.675000003,24 1.5,24 L22.5,24 C23.3250009,24 24,23.3250009 24,22.5 L24,1.5 C24,0.675000003 23.3250009,0 22.5,0 Z"/>
    <g fill="#000" transform="translate(2 8)">
      <path d="M12.0249997,8.04999923 C12.0249997,9.09249874 11.1850004,9.93250084 10.1424999,9.93250084 C9.09999944,9.93250084 8.25999933,9.09249874 8.25999933,8.04999923 C8.25999933,7.00749973 9.09999854,6.16749953 10.1424999,6.16749953 C11.1850013,6.16749953 12.0249997,7.00750063 12.0249997,8.04999923 L12.0249997,8.04999923 Z"/>
      <path fill-rule="nonzero" d="M10.1499996,0.925000204 C6.16749953,0.925000204 2.56750011,3.27999971 0.969999304,6.93250083 C2.55999991,10.5775013 6.16749913,12.9400006 10.1499996,12.9400006 C14.1325002,12.9400006 17.7325002,10.585001 19.33,6.93250083 C17.7325002,3.27999971 14.1324998,0.925000204 10.1499996,0.925000204 L10.1499996,0.925000204 Z M10.1424999,11.8075008 L10.1424999,11.8075008 C8.06499963,11.7999992 6.38499933,10.1200008 6.38499933,8.04250143 C6.38499933,5.96500202 8.06499873,4.28500172 10.1424999,4.28500172 C12.2200012,4.28500172 13.8999997,5.97249982 13.8999997,8.05000021 L15.0249997,8.05000021 C15.0249997,5.35750002 12.8424998,3.17500021 10.1424999,3.17500021 C7.44999983,3.17500021 5.26749942,5.35750012 5.26749942,8.05000021 C5.26749942,9.10000034 5.59749882,10.0674991 6.15999883,10.8700008 C4.48749872,10.0299987 3.08499901,8.67250064 2.20749941,6.93250083 L2.20749941,6.93250083 C3.72249882,3.94000052 6.78999893,2.05000021 10.1424998,2.05000021 C13.4950008,2.05000021 16.5625,3.93999962 18.0775013,6.93250083 L18.0775013,6.93250083 C16.5699998,9.92499924 13.5024997,11.8075008 10.1424999,11.8075008 L10.1424999,11.8075008 Z"/>
    </g>
  </g>
</svg>
