<?xml version="1.0" encoding="utf-8"?>
<!-- Generator: Adobe Illustrator 25.1.0, SVG Export Plug-In . SVG Version: 6.00 Build 0)  -->
<svg version="1.0" id="Ebene_1" xmlns="http://www.w3.org/2000/svg" xmlns:xlink="http://www.w3.org/1999/xlink" x="0px" y="0px"
	 viewBox="0 0 210 71" enable-background="new 0 0 210 71" xml:space="preserve">
<rect id="background-white" fill="#FFFFFF" width="210" height="71"/>
<g>
	<path d="M107.09,9.031V62H96.511V27.328h-3.768h-3.769h-3.659h-1.268v-7.681c2.584-0.072,4.691-0.338,6.322-0.797
		c1.63-0.458,3.121-1.208,4.475-2.247c1.956-1.497,3.272-4.021,3.949-7.572H107.09z"/>
	<path d="M130.314,33.559c-2.464-0.845-4.354-2.234-5.67-4.167c-1.317-1.932-1.975-4.275-1.975-7.029
		c0-4.589,1.884-8.248,5.651-10.978c3.333-2.415,7.294-3.623,11.884-3.623c5.217,0,9.479,1.437,12.789,4.311
		c3.14,2.706,4.71,6.051,4.71,10.036c0,2.778-0.664,5.157-1.992,7.137c-1.329,1.981-3.213,3.418-5.652,4.312
		c1.908,0.556,3.466,1.268,4.674,2.138c3.357,2.44,5.036,6.002,5.036,10.688c0,5.387-2.065,9.674-6.195,12.862
		c-3.479,2.681-7.947,4.021-13.405,4.021c-5.918,0-10.628-1.474-14.13-4.42c-3.647-3.067-5.471-7.089-5.471-12.065
		c0-4.661,1.618-8.272,4.854-10.833C126.896,34.815,128.526,34.018,130.314,33.559z M139.987,37.545
		c-2.608,0-4.74,0.803-6.395,2.409s-2.481,3.665-2.481,6.177c0,2.585,0.839,4.687,2.518,6.305s3.858,2.428,6.54,2.428
		c3.043,0,5.326-0.894,6.848-2.682c1.473-1.715,2.21-3.695,2.21-5.941c0-2.561-0.846-4.661-2.536-6.305
		C145.072,38.342,142.838,37.545,139.987,37.545z M140.061,15.987c-2.319,0-4.191,0.646-5.616,1.938
		c-1.426,1.292-2.138,2.989-2.138,5.09c0,2.198,0.719,3.955,2.156,5.271c1.437,1.317,3.363,1.975,5.778,1.975
		s4.323-0.652,5.725-1.957c1.4-1.304,2.102-3.08,2.102-5.326c0-2.198-0.707-3.913-2.12-5.145S142.572,15.987,140.061,15.987z"/>
	<path d="M200.529,52.58V62h-38.151c0-2.874,0.465-5.615,1.396-8.224c0.929-2.609,2.239-4.855,3.931-6.739
		c1.305-1.449,2.832-2.862,4.583-4.239s5.235-3.9,10.453-7.572c2.535-1.763,4.311-3.406,5.325-4.927s1.521-3.285,1.521-5.29
		c0-2.319-0.683-4.197-2.047-5.634s-3.158-2.156-5.38-2.156c-5.459,0-8.273,3.925-8.441,11.775h-10.182c0-0.507,0-0.894,0-1.16
		c0-6.424,1.8-11.4,5.398-14.927c3.502-3.429,8.031-5.145,13.587-5.145c4.927,0,9.045,1.401,12.354,4.203
		c3.599,3.043,5.398,7.137,5.398,12.282c0,4.492-1.438,8.357-4.312,11.594c-0.942,1.063-1.824,1.915-2.645,2.555
		c-0.821,0.64-2.983,2.18-6.485,4.619c-3.333,2.318-5.719,4.094-7.155,5.326c-1.438,1.231-2.772,2.645-4.004,4.238H200.529z"/>
</g>
</svg>
