<svg xmlns="http://www.w3.org/2000/svg" xml:space="preserve" version="1.0" viewBox="0 0 210 71"><path fill="#FFFFFF" d="M0 0H210V71H0z" class="sbb-vm-color-white"/><path d="M48.709 52.58V62H10.558c0-2.874.464-5.615 1.395-8.224.93-2.609 2.24-4.855 3.931-6.739 1.304-1.449 2.831-2.862 4.583-4.239 1.751-1.377 5.235-3.9 10.453-7.572 2.535-1.763 4.311-3.406 5.325-4.927s1.521-3.285 1.521-5.29c0-2.319-.683-4.197-2.047-5.634s-3.158-2.156-5.38-2.156c-5.459 0-8.273 3.925-8.441 11.775H11.717c0-.507 0-.894 0-1.16 0-6.424 1.799-11.4 5.398-14.927 3.501-3.429 8.031-5.145 13.586-5.145 4.927 0 9.045 1.401 12.354 4.203 3.599 3.043 5.398 7.137 5.398 12.282 0 4.492-1.438 8.357-4.312 11.594-.942 1.063-1.824 1.915-2.645 2.555-.821.64-2.983 2.18-6.485 4.619-3.333 2.318-5.719 4.094-7.155 5.326-1.438 1.231-2.772 2.645-4.004 4.238H48.709zM71.136 7.763c4.033 0 7.584 1.231 10.651 3.695 3.043 2.464 5.253 6.256 6.63 11.376 1.038 3.913 1.559 8.164 1.559 12.753 0 7.608-1.354 13.864-4.059 18.768-1.594 2.851-3.677 5.049-6.249 6.594-2.572 1.546-5.441 2.319-8.605 2.319-4.323 0-8.019-1.305-11.086-3.913-5.459-4.638-8.188-12.56-8.188-23.768 0-7.971 1.425-14.371 4.275-19.202 1.618-2.753 3.737-4.878 6.358-6.376C65.042 8.512 67.947 7.763 71.136 7.763zM70.737 16.712c-3.479 0-5.846 2.005-7.102 6.014-.991 3.188-1.485 7.657-1.485 13.406 0 5.072.507 9.143 1.521 12.21 1.305 3.985 3.72 5.978 7.246 5.978 2.922 0 5.096-1.545 6.521-4.638 1.425-3.091 2.138-7.813 2.138-14.166 0-5.41-.508-9.674-1.521-12.79C76.751 18.717 74.312 16.712 70.737 16.712zM112.402 7.763c4.033 0 7.584 1.231 10.651 3.695 3.043 2.464 5.253 6.256 6.63 11.376 1.038 3.913 1.559 8.164 1.559 12.753 0 7.608-1.354 13.864-4.059 18.768-1.594 2.851-3.677 5.049-6.249 6.594-2.572 1.546-5.441 2.319-8.605 2.319-4.323 0-8.019-1.305-11.086-3.913-5.459-4.638-8.188-12.56-8.188-23.768 0-7.971 1.425-14.371 4.275-19.202 1.618-2.753 3.737-4.878 6.358-6.376C106.309 8.512 109.214 7.763 112.402 7.763zM112.004 16.712c-3.479 0-5.846 2.005-7.102 6.014-.991 3.188-1.485 7.657-1.485 13.406 0 5.072.507 9.143 1.521 12.21 1.305 3.985 3.72 5.978 7.246 5.978 2.922 0 5.096-1.545 6.521-4.638 1.425-3.091 2.138-7.813 2.138-14.166 0-5.41-.508-9.674-1.521-12.79C118.018 18.717 115.578 16.712 112.004 16.712z" class="sbb-vm-color-black"/></svg>