<?xml version="1.0" encoding="utf-8"?><svg version="1.0" xmlns="http://www.w3.org/2000/svg" xmlns:xlink="http://www.w3.org/1999/xlink" x="0px" y="0px" viewBox="0 0 210 71" enable-background="new 0 0 210 71" xml:space="preserve"> <g> <rect fill="#FFFFFF" width="210" height="71" class="sbb-vm-color-white"></rect> </g> <g> <path d="M48.709,52.58V62H10.558c0-2.874,0.464-5.615,1.395-8.224c0.93-2.609,2.24-4.855,3.931-6.739 c1.304-1.449,2.831-2.862,4.583-4.239c1.751-1.377,5.235-3.9,10.453-7.572c2.535-1.763,4.311-3.406,5.325-4.927 s1.521-3.285,1.521-5.29c0-2.319-0.683-4.197-2.047-5.634s-3.158-2.156-5.38-2.156c-5.459,0-8.273,3.925-8.441,11.775H11.717 c0-0.507,0-0.894,0-1.16c0-6.424,1.799-11.4,5.398-14.927c3.501-3.429,8.031-5.145,13.586-5.145c4.927,0,9.045,1.401,12.354,4.203 c3.599,3.043,5.398,7.137,5.398,12.282c0,4.492-1.438,8.357-4.312,11.594c-0.942,1.063-1.824,1.915-2.645,2.555 c-0.821,0.64-2.983,2.18-6.485,4.619c-3.333,2.318-5.719,4.094-7.155,5.326c-1.438,1.231-2.772,2.645-4.004,4.238H48.709z" class="sbb-vm-color-black"></path> <path d="M90.446,40.95v8.949H83.78V62H73.454V49.899H51.354v-9.928l22.644-30.94h9.783V40.95H90.446z M73.672,41.059V21.35 L60.049,41.059H73.672z" class="sbb-vm-color-black"></path> <path d="M120.336,9.031V62h-10.579V27.328h-3.768h-3.769h-3.659h-1.268v-7.681c2.584-0.072,4.691-0.338,6.322-0.797 c1.63-0.458,3.121-1.208,4.475-2.247c1.956-1.497,3.272-4.021,3.949-7.572H120.336z" class="sbb-vm-color-black"></path> </g> </svg>