<svg xmlns="http://www.w3.org/2000/svg" xml:space="preserve" version="1.0" viewBox="0 0 210 71"><path fill="#FFFFFF" d="M0 0H210V71H0z" class="sbb-vm-color-white"/><path d="M48.709 52.58V62H10.558c0-2.874.464-5.615 1.395-8.224.93-2.609 2.24-4.855 3.931-6.739 1.304-1.449 2.831-2.862 4.583-4.239 1.751-1.377 5.235-3.9 10.453-7.572 2.535-1.763 4.311-3.406 5.325-4.927s1.521-3.285 1.521-5.29c0-2.319-.683-4.197-2.047-5.634s-3.158-2.156-5.38-2.156c-5.459 0-8.273 3.925-8.441 11.775H11.717c0-.507 0-.894 0-1.16 0-6.424 1.799-11.4 5.398-14.927 3.501-3.429 8.031-5.145 13.586-5.145 4.927 0 9.045 1.401 12.354 4.203 3.599 3.043 5.398 7.137 5.398 12.282 0 4.492-1.438 8.357-4.312 11.594-.942 1.063-1.824 1.915-2.645 2.555-.821.64-2.983 2.18-6.485 4.619-3.333 2.318-5.719 4.094-7.155 5.326-1.438 1.231-2.772 2.645-4.004 4.238H48.709zM89.069 22.255H78.997c-.941-4.082-3.261-6.123-6.956-6.123-3.913 0-6.69 2.404-8.333 7.21-.677 1.956-1.22 4.915-1.63 8.876 1.594-2.15 3.29-3.696 5.09-4.638 1.799-.942 3.968-1.413 6.504-1.413 4.975 0 8.973 1.764 11.992 5.29 2.874 3.333 4.312 7.512 4.312 12.537 0 5.966-1.933 10.76-5.797 14.383-3.479 3.261-7.657 4.892-12.536 4.892-6.256 0-11.123-2.361-14.601-7.083-3.479-4.722-5.218-11.31-5.218-19.764 0-9.034 1.86-16.111 5.58-21.231 3.599-4.951 8.514-7.427 14.745-7.427 5.87 0 10.362 1.969 13.479 5.905C87.415 15.939 88.562 18.801 89.069 22.255zM71.136 34.393c-2.536 0-4.554 1.063-6.051 3.188-1.354 1.884-2.029 4.13-2.029 6.738 0 2.585.688 4.844 2.065 6.775 1.497 2.15 3.551 3.225 6.159 3.225 2.536 0 4.577-1.026 6.123-3.079 1.449-1.933 2.174-4.215 2.174-6.848 0-2.585-.652-4.795-1.957-6.631C76.026 35.516 73.864 34.393 71.136 34.393zM131.242 52.58V62H93.091c0-2.874.465-5.615 1.396-8.224.929-2.609 2.239-4.855 3.931-6.739 1.305-1.449 2.832-2.862 4.583-4.239s5.235-3.9 10.453-7.572c2.535-1.763 4.311-3.406 5.325-4.927s1.521-3.285 1.521-5.29c0-2.319-.683-4.197-2.047-5.634s-3.158-2.156-5.38-2.156c-5.459 0-8.273 3.925-8.441 11.775H94.25c0-.507 0-.894 0-1.16 0-6.424 1.8-11.4 5.398-14.927 3.502-3.429 8.031-5.145 13.587-5.145 4.927 0 9.045 1.401 12.354 4.203 3.599 3.043 5.398 7.137 5.398 12.282 0 4.492-1.438 8.357-4.312 11.594-.942 1.063-1.824 1.915-2.645 2.555-.821.64-2.983 2.18-6.485 4.619-3.333 2.318-5.719 4.094-7.155 5.326-1.438 1.231-2.772 2.645-4.004 4.238H131.242z" class="sbb-vm-color-black"/></svg>