<?xml version="1.0" encoding="utf-8"?>
<!-- Generator: Adobe Illustrator 25.1.0, SVG Export Plug-In . SVG Version: 6.00 Build 0)  -->
<svg version="1.0" id="Ebene_1" xmlns="http://www.w3.org/2000/svg" xmlns:xlink="http://www.w3.org/1999/xlink" x="0px" y="0px"
	 viewBox="0 0 210 71" enable-background="new 0 0 210 71" xml:space="preserve">
<rect id="background-white" fill="#FFFFFF" width="210" height="71"/>
<g>
	<path d="M117.996,52.58V62h-38.15c0-2.874,0.464-5.615,1.395-8.224c0.93-2.609,2.24-4.855,3.931-6.739
		c1.304-1.449,2.831-2.862,4.583-4.239c1.751-1.377,5.235-3.9,10.453-7.572c2.535-1.763,4.311-3.406,5.325-4.927
		c1.014-1.521,1.521-3.285,1.521-5.29c0-2.319-0.683-4.197-2.046-5.634c-1.364-1.437-3.158-2.156-5.38-2.156
		c-5.459,0-8.273,3.925-8.441,11.775H81.005c0-0.507,0-0.894,0-1.16c0-6.424,1.799-11.4,5.398-14.927
		c3.501-3.429,8.031-5.145,13.586-5.145c4.927,0,9.044,1.401,12.354,4.203c3.599,3.043,5.398,7.137,5.398,12.282
		c0,4.492-1.438,8.357-4.312,11.594c-0.942,1.063-1.824,1.915-2.645,2.555c-0.821,0.64-2.983,2.18-6.485,4.619
		c-3.333,2.318-5.719,4.094-7.155,5.326c-1.438,1.231-2.772,2.645-4.004,4.238H117.996z"/>
	<path d="M158.356,22.255h-10.072c-0.941-4.082-3.261-6.123-6.956-6.123c-3.913,0-6.69,2.404-8.333,7.21
		c-0.677,1.956-1.22,4.915-1.63,8.876c1.594-2.15,3.29-3.696,5.09-4.638c1.799-0.942,3.968-1.413,6.504-1.413
		c4.975,0,8.973,1.764,11.992,5.29c2.874,3.333,4.312,7.512,4.312,12.537c0,5.966-1.933,10.76-5.797,14.383
		c-3.479,3.261-7.657,4.892-12.536,4.892c-6.256,0-11.123-2.361-14.601-7.083c-3.479-4.722-5.218-11.31-5.218-19.764
		c0-9.034,1.86-16.111,5.58-21.231c3.599-4.951,8.514-7.427,14.745-7.427c5.87,0,10.362,1.969,13.479,5.905
		C156.702,15.939,157.85,18.801,158.356,22.255z M140.423,34.393c-2.536,0-4.554,1.063-6.051,3.188
		c-1.354,1.884-2.029,4.13-2.029,6.738c0,2.585,0.688,4.844,2.065,6.775c1.497,2.15,3.551,3.225,6.159,3.225
		c2.536,0,4.577-1.026,6.123-3.079c1.449-1.933,2.174-4.215,2.174-6.848c0-2.585-0.652-4.795-1.957-6.631
		C145.313,35.516,143.151,34.393,140.423,34.393z"/>
	<path d="M197.884,9.031v9.42h-21.34l-2.282,11.919c2.56-2.705,5.833-4.058,9.818-4.058c3.913,0,7.318,1.051,10.217,3.152
		c4.3,3.165,6.449,7.971,6.449,14.42c0,6.329-2.295,11.341-6.884,15.036c-3.575,2.898-7.85,4.348-12.825,4.348
		c-5.604,0-10.108-1.504-13.515-4.511c-3.405-3.007-5.205-7.07-5.397-12.191h10.397c0.169,1.86,0.773,3.441,1.812,4.746
		c1.618,2.053,3.864,3.079,6.739,3.079c2.777,0,4.976-1.002,6.594-3.007c1.57-1.956,2.355-4.335,2.355-7.138
		c0-3.043-0.822-5.477-2.464-7.3c-1.643-1.824-3.829-2.736-6.558-2.736c-3.333,0-5.931,1.498-7.79,4.493l-9.456-0.145l5.036-29.528
		H197.884z"/>
</g>
</svg>
