<?xml version="1.0" encoding="utf-8"?><svg version="1.0" xmlns="http://www.w3.org/2000/svg" xmlns:xlink="http://www.w3.org/1999/xlink" x="0px" y="0px" viewBox="0 0 210 71" enable-background="new 0 0 210 71" xml:space="preserve"> <g> <rect fill="#FFFFFF" width="210" height="71" class="sbb-vm-color-white"></rect> </g> <g> <path d="M11.681,25.806c0.121-4.348,1.195-7.994,3.225-10.941c3.284-4.734,8.224-7.101,14.818-7.101 c5.072,0,9.166,1.292,12.282,3.876c3.357,2.802,5.036,6.425,5.036,10.869c0,2.657-0.658,4.945-1.975,6.866 s-3.098,3.219-5.344,3.895c2.85,0.652,5.103,2.102,6.757,4.348c1.654,2.246,2.481,4.964,2.481,8.151 c0,5.242-1.933,9.529-5.797,12.862c-3.574,3.092-8.092,4.638-13.55,4.638c-5.918,0-10.61-1.703-14.076-5.108 c-3.466-3.406-5.199-8.007-5.199-13.804c0-0.121,0-0.351,0-0.688h10.181c0,3.261,0.772,5.778,2.318,7.554s3.732,2.663,6.558,2.663 c2.826,0,5-0.833,6.521-2.5c1.4-1.57,2.102-3.442,2.102-5.616c0-2.608-0.894-4.673-2.681-6.195 c-1.474-1.255-3.744-1.884-6.812-1.884c-0.87,0-1.728,0.049-2.572,0.146v-7.79c0.628,0.048,1.231,0.072,1.812,0.072 c6.087,0,9.13-2.258,9.13-6.775c0-1.98-0.665-3.581-1.993-4.801c-1.328-1.219-3.079-1.83-5.253-1.83 c-2.488,0-4.408,0.773-5.761,2.319c-1.353,1.546-2.077,3.804-2.174,6.775H11.681z" class="sbb-vm-color-black"></path> <path d="M71.136,7.763c4.033,0,7.584,1.231,10.651,3.695c3.043,2.464,5.253,6.256,6.63,11.376 c1.038,3.913,1.559,8.164,1.559,12.753c0,7.608-1.354,13.864-4.059,18.768c-1.594,2.851-3.677,5.049-6.249,6.594 c-2.572,1.546-5.441,2.319-8.605,2.319c-4.323,0-8.019-1.305-11.086-3.913c-5.459-4.638-8.188-12.56-8.188-23.768 c0-7.971,1.425-14.371,4.275-19.202c1.618-2.753,3.737-4.878,6.358-6.376C65.042,8.512,67.947,7.763,71.136,7.763z M70.737,16.712 c-3.479,0-5.846,2.005-7.102,6.014c-0.991,3.188-1.485,7.657-1.485,13.406c0,5.072,0.507,9.143,1.521,12.21 c1.305,3.985,3.72,5.978,7.246,5.978c2.922,0,5.096-1.545,6.521-4.638c1.425-3.091,2.138-7.813,2.138-14.166 c0-5.41-0.508-9.674-1.521-12.79C76.751,18.717,74.312,16.712,70.737,16.712z" class="sbb-vm-color-black"></path> <path d="M131.713,40.95v8.949h-6.666V62h-10.326V49.899H92.62v-9.928l22.644-30.94h9.783V40.95H131.713z M114.938,41.059V21.35 l-13.623,19.709H114.938z" class="sbb-vm-color-black"></path> </g> </svg>