<?xml version="1.0" encoding="utf-8"?>
<svg version="1.0" xmlns="http://www.w3.org/2000/svg" xmlns:xlink="http://www.w3.org/1999/xlink" x="0px" y="0px" viewBox="0 0 210 71" enable-background="new 0 0 210 71" xml:space="preserve">
<g>
	<rect fill="#FFFFFF" width="210" height="71" class="sbb-vm-color-white"></rect>
</g>
<g>
	<path d="M49.18,40.95v8.949h-6.666V62H32.188V49.899H10.087v-9.928L32.73,9.031h9.783V40.95H49.18z M32.405,41.059V21.35
		L18.782,41.059H32.405z" class="sbb-vm-color-black"></path>
	<path d="M71.136,7.763c4.033,0,7.584,1.231,10.651,3.695c3.043,2.464,5.253,6.256,6.63,11.376
		c1.038,3.913,1.559,8.164,1.559,12.753c0,7.608-1.354,13.864-4.059,18.768c-1.594,2.851-3.677,5.049-6.249,6.594
		c-2.572,1.546-5.441,2.319-8.605,2.319c-4.323,0-8.019-1.305-11.086-3.913c-5.459-4.638-8.188-12.56-8.188-23.768
		c0-7.971,1.425-14.371,4.275-19.202c1.618-2.753,3.737-4.878,6.358-6.376C65.042,8.512,67.947,7.763,71.136,7.763z M70.737,16.712
		c-3.479,0-5.846,2.005-7.102,6.014c-0.991,3.188-1.485,7.657-1.485,13.406c0,5.072,0.507,9.143,1.521,12.21
		c1.305,3.985,3.72,5.978,7.246,5.978c2.922,0,5.096-1.545,6.521-4.638c1.425-3.091,2.138-7.813,2.138-14.166
		c0-5.41-0.508-9.674-1.521-12.79C76.751,18.717,74.312,16.712,70.737,16.712z" class="sbb-vm-color-black"></path>
</g>
</svg>