<svg xmlns="http://www.w3.org/2000/svg" xml:space="preserve" version="1.0" viewBox="0 0 210 71"><path fill="#FFFFFF" d="M0 0H210V71H0z" class="sbb-vm-color-white"/><path d="M49.18 40.95v8.949h-6.666V62H32.188V49.899H10.087v-9.928L32.73 9.031h9.783V40.95H49.18zM32.405 41.059V21.35L18.782 41.059H32.405zM90.446 40.95v8.949H83.78V62H73.454V49.899H51.354v-9.928l22.644-30.94h9.783V40.95H90.446zM73.672 41.059V21.35L60.049 41.059H73.672zM120.336 9.031V62h-10.579V27.328h-3.768-3.769-3.659-1.268v-7.681c2.584-.072 4.691-.338 6.322-.797 1.63-.458 3.121-1.208 4.475-2.247 1.956-1.497 3.272-4.021 3.949-7.572H120.336z" class="sbb-vm-color-black"/></svg>