<?xml version="1.0" encoding="utf-8"?>
<!-- Generator: Adobe Illustrator 27.0.0, SVG Export Plug-In . SVG Version: 6.00 Build 0)  -->
<svg version="1.0" id="Ebene_1" xmlns="http://www.w3.org/2000/svg" xmlns:xlink="http://www.w3.org/1999/xlink" x="0px" y="0px"
	 viewBox="0 0 210 71" enable-background="new 0 0 210 71" xml:space="preserve">
<g id="white">
	<rect id="background-white_00000147201839684919677670000006641991587696569237_" fill="#FFFFFF" width="210" height="71"/>
</g>
<g>
	<path d="M49.18,40.95v8.949h-6.666V62H32.188V49.899H10.087v-9.928L32.73,9.031h9.783V40.95H49.18z M32.405,41.059V21.35
		L18.782,41.059H32.405z"/>
	<path d="M90.446,40.95v8.949H83.78V62H73.454V49.899H51.354v-9.928l22.644-30.94h9.783V40.95H90.446z M73.672,41.059V21.35
		L60.049,41.059H73.672z"/>
	<path d="M120.336,9.031V62h-10.579V27.328h-3.768h-3.769h-3.659h-1.268v-7.681c2.584-0.072,4.691-0.338,6.322-0.797
		c1.63-0.458,3.121-1.208,4.475-2.247c1.956-1.497,3.272-4.021,3.949-7.572H120.336z"/>
</g>
</svg>
