<?xml version="1.0" encoding="utf-8"?>
<svg version="1.0" xmlns="http://www.w3.org/2000/svg" xmlns:xlink="http://www.w3.org/1999/xlink" x="0px" y="0px" viewBox="0 0 210 71" enable-background="new 0 0 210 71" xml:space="preserve">
<g>
	<rect fill="#FFFFFF" width="210" height="71" class="sbb-vm-color-white"></rect>
</g>
<g>
	<path d="M49.18,40.95v8.949h-6.666V62H32.188V49.899H10.087v-9.928L32.73,9.031h9.783V40.95H49.18z M32.405,41.059V21.35
		L18.782,41.059H32.405z" class="sbb-vm-color-black"></path>
	<path d="M90.446,40.95v8.949H83.78V62H73.454V49.899H51.354v-9.928l22.644-30.94h9.783V40.95H90.446z M73.672,41.059V21.35
		L60.049,41.059H73.672z" class="sbb-vm-color-black"></path>
	<path d="M129.938,9.031v8.985c-0.29,0.314-1.147,1.292-2.572,2.935c-1.98,2.271-3.949,5.127-5.905,8.569
		c-1.957,3.442-3.479,6.745-4.565,9.909c-2.295,6.594-3.684,14.118-4.166,22.571h-10.942c0.073-3.985,0.767-8.405,2.084-13.26
		c1.315-4.855,3.134-9.71,5.452-14.565c3.309-6.859,6.666-11.968,10.072-15.325H94.396V9.031H129.938z" class="sbb-vm-color-black"></path>
</g>
</svg>