<svg xmlns="http://www.w3.org/2000/svg" xml:space="preserve" version="1.0" viewBox="0 0 210 71"><path fill="#FFFFFF" d="M0 0H210V71H0z" class="sbb-vm-color-white"/><path d="M49.18 40.95v8.949h-6.666V62H32.188V49.899H10.087v-9.928L32.73 9.031h9.783V40.95H49.18zM32.405 41.059V21.35L18.782 41.059H32.405zM52.73 48.704h9.999c.821 4.106 3.2 6.159 7.138 6.159 2.222 0 4.027-.755 5.417-2.265 1.389-1.51 2.457-3.858 3.206-7.047.482-2.029.833-4.335 1.051-6.92-1.619 2.271-3.279 3.883-4.981 4.837-1.703.954-3.774 1.431-6.214 1.431-3.89 0-7.271-1.135-10.145-3.405-2.005-1.595-3.568-3.659-4.692-6.196-1.123-2.536-1.685-5.29-1.685-8.261 0-5.965 2.041-10.797 6.123-14.492 3.502-3.188 7.705-4.782 12.608-4.782 3.019 0 5.809.676 8.369 2.029 2.56 1.353 4.71 3.273 6.449 5.761 3.067 4.42 4.602 10.628 4.602 18.622 0 7.392-1.354 13.695-4.059 18.913-3.526 6.787-8.864 10.181-16.014 10.181-4.759 0-8.689-1.316-11.793-3.949S53.213 53.148 52.73 48.704zM70.338 16.712c-2.271 0-4.19.93-5.761 2.79-1.57 1.884-2.354 4.275-2.354 7.174 0 2.343.567 4.42 1.703 6.231 1.545 2.488 3.719 3.732 6.521 3.732 2.536 0 4.564-1.015 6.086-3.043 1.426-1.908 2.138-4.178 2.138-6.811 0-2.777-.736-5.132-2.21-7.065C74.915 17.714 72.874 16.712 70.338 16.712zM128.597 9.031v9.42h-21.34l-2.282 11.919c2.56-2.705 5.833-4.058 9.818-4.058 3.913 0 7.318 1.051 10.217 3.152 4.3 3.165 6.449 7.971 6.449 14.42 0 6.329-2.295 11.341-6.884 15.036-3.575 2.898-7.85 4.348-12.825 4.348-5.604 0-10.108-1.504-13.515-4.511-3.405-3.007-5.205-7.07-5.397-12.191h10.397c.169 1.86.773 3.441 1.812 4.746 1.618 2.053 3.864 3.079 6.739 3.079 2.777 0 4.976-1.002 6.594-3.007 1.57-1.956 2.355-4.335 2.355-7.138 0-3.043-.822-5.477-2.464-7.3-1.643-1.824-3.829-2.736-6.558-2.736-3.333 0-5.931 1.498-7.79 4.493l-9.456-.145 5.036-29.528H128.597z" class="sbb-vm-color-black"/></svg>