<?xml version="1.0" encoding="utf-8"?>
<!-- Generator: Adobe Illustrator 25.1.0, SVG Export Plug-In . SVG Version: 6.00 Build 0)  -->
<svg version="1.0" id="Ebene_1" xmlns="http://www.w3.org/2000/svg" xmlns:xlink="http://www.w3.org/1999/xlink" x="0px" y="0px"
	 viewBox="0 0 210 71" enable-background="new 0 0 210 71" xml:space="preserve">
<rect id="background-white" fill="#FFFFFF" width="210" height="71"/>
<g>
	<path d="M115.351,9.031v9.42H94.011l-2.282,11.919c2.56-2.705,5.833-4.058,9.818-4.058c3.913,0,7.318,1.051,10.216,3.152
		c4.3,3.165,6.449,7.971,6.449,14.42c0,6.329-2.295,11.341-6.884,15.036c-3.575,2.898-7.849,4.348-12.825,4.348
		c-5.604,0-10.108-1.504-13.514-4.511s-5.205-7.07-5.398-12.191H89.99c0.169,1.86,0.773,3.441,1.812,4.746
		c1.618,2.053,3.864,3.079,6.739,3.079c2.777,0,4.976-1.002,6.594-3.007c1.57-1.956,2.355-4.335,2.355-7.138
		c0-3.043-0.822-5.477-2.463-7.3c-1.643-1.824-3.829-2.736-6.558-2.736c-3.333,0-5.931,1.498-7.79,4.493l-9.456-0.145l5.036-29.528
		H115.351z"/>
	<path d="M157.958,9.031v8.985c-0.29,0.314-1.147,1.292-2.572,2.935c-1.98,2.271-3.949,5.127-5.905,8.569
		c-1.957,3.442-3.479,6.745-4.565,9.909c-2.295,6.594-3.684,14.118-4.166,22.571h-10.942c0.073-3.985,0.767-8.405,2.084-13.26
		c1.315-4.855,3.134-9.71,5.452-14.565c3.309-6.859,6.666-11.968,10.072-15.325h-24.999V9.031H157.958z"/>
	<path d="M197.884,9.031v9.42h-21.34l-2.282,11.919c2.56-2.705,5.833-4.058,9.818-4.058c3.913,0,7.318,1.051,10.217,3.152
		c4.3,3.165,6.449,7.971,6.449,14.42c0,6.329-2.295,11.341-6.884,15.036c-3.575,2.898-7.85,4.348-12.825,4.348
		c-5.604,0-10.108-1.504-13.515-4.511c-3.405-3.007-5.205-7.07-5.397-12.191h10.397c0.169,1.86,0.773,3.441,1.812,4.746
		c1.618,2.053,3.864,3.079,6.739,3.079c2.777,0,4.976-1.002,6.594-3.007c1.57-1.956,2.355-4.335,2.355-7.138
		c0-3.043-0.822-5.477-2.464-7.3c-1.643-1.824-3.829-2.736-6.558-2.736c-3.333,0-5.931,1.498-7.79,4.493l-9.456-0.145l5.036-29.528
		H197.884z"/>
</g>
</svg>
