<svg xmlns="http://www.w3.org/2000/svg" xml:space="preserve" version="1.0" viewBox="0 0 210 71"><path fill="#FFFFFF" d="M0 0H210V71H0z" class="sbb-vm-color-white"/><path d="M46.063 9.031v9.42h-21.34l-2.282 11.919c2.56-2.705 5.833-4.058 9.818-4.058 3.913 0 7.318 1.051 10.217 3.152 4.3 3.165 6.449 7.971 6.449 14.42 0 6.329-2.295 11.341-6.884 15.036-3.575 2.898-7.85 4.348-12.825 4.348-5.604 0-10.108-1.504-13.514-4.511s-5.205-7.07-5.398-12.191h10.398c.169 1.86.773 3.441 1.812 4.746 1.618 2.053 3.864 3.079 6.739 3.079 2.777 0 4.976-1.002 6.594-3.007 1.57-1.956 2.355-4.335 2.355-7.138 0-3.043-.822-5.477-2.464-7.3-1.643-1.824-3.829-2.736-6.558-2.736-3.333 0-5.931 1.498-7.79 4.493l-9.456-.145 5.036-29.528H46.063zM61.027 33.559c-2.464-.845-4.354-2.234-5.67-4.167-1.317-1.932-1.975-4.275-1.975-7.029 0-4.589 1.884-8.248 5.651-10.978 3.333-2.415 7.294-3.623 11.884-3.623 5.217 0 9.479 1.437 12.789 4.311 3.14 2.706 4.71 6.051 4.71 10.036 0 2.778-.664 5.157-1.992 7.137-1.329 1.981-3.213 3.418-5.652 4.312 1.908.556 3.466 1.268 4.674 2.138 3.357 2.44 5.036 6.002 5.036 10.688 0 5.387-2.065 9.674-6.195 12.862-3.479 2.681-7.947 4.021-13.405 4.021-5.918 0-10.628-1.474-14.13-4.42-3.647-3.067-5.471-7.089-5.471-12.065 0-4.661 1.618-8.272 4.854-10.833C57.609 34.815 59.239 34.018 61.027 33.559zM70.7 37.545c-2.608 0-4.74.803-6.395 2.409s-2.481 3.665-2.481 6.177c0 2.585.839 4.687 2.518 6.305s3.858 2.428 6.54 2.428c3.043 0 5.326-.894 6.848-2.682 1.473-1.715 2.21-3.695 2.21-5.941 0-2.561-.846-4.661-2.536-6.305C75.785 38.342 73.551 37.545 70.7 37.545zM70.773 15.987c-2.319 0-4.191.646-5.616 1.938-1.426 1.292-2.138 2.989-2.138 5.09 0 2.198.719 3.955 2.156 5.271 1.437 1.317 3.363 1.975 5.778 1.975s4.323-.652 5.725-1.957c1.4-1.304 2.102-3.08 2.102-5.326 0-2.198-.707-3.913-2.12-5.145S73.285 15.987 70.773 15.987zM131.242 52.58V62H93.091c0-2.874.465-5.615 1.396-8.224.929-2.609 2.239-4.855 3.931-6.739 1.305-1.449 2.832-2.862 4.583-4.239s5.235-3.9 10.453-7.572c2.535-1.763 4.311-3.406 5.325-4.927s1.521-3.285 1.521-5.29c0-2.319-.683-4.197-2.047-5.634s-3.158-2.156-5.38-2.156c-5.459 0-8.273 3.925-8.441 11.775H94.25c0-.507 0-.894 0-1.16 0-6.424 1.8-11.4 5.398-14.927 3.502-3.429 8.031-5.145 13.587-5.145 4.927 0 9.045 1.401 12.354 4.203 3.599 3.043 5.398 7.137 5.398 12.282 0 4.492-1.438 8.357-4.312 11.594-.942 1.063-1.824 1.915-2.645 2.555-.821.64-2.983 2.18-6.485 4.619-3.333 2.318-5.719 4.094-7.155 5.326-1.438 1.231-2.772 2.645-4.004 4.238H131.242z" class="sbb-vm-color-black"/></svg>