<svg xmlns="http://www.w3.org/2000/svg" xml:space="preserve" version="1.0" viewBox="0 0 210 71"><path fill="#FFFFFF" d="M0 0H210V71H0z" class="sbb-vm-color-white"/><path d="M47.803 22.255H37.73c-.941-4.082-3.261-6.123-6.956-6.123-3.913 0-6.69 2.404-8.333 7.21-.677 1.956-1.22 4.915-1.63 8.876 1.594-2.15 3.29-3.696 5.09-4.638 1.799-.942 3.968-1.413 6.504-1.413 4.975 0 8.973 1.764 11.992 5.29 2.874 3.333 4.312 7.512 4.312 12.537 0 5.966-1.933 10.76-5.797 14.383-3.479 3.261-7.657 4.892-12.536 4.892-6.256 0-11.123-2.361-14.601-7.083s-5.217-11.31-5.217-19.764c0-9.034 1.859-16.111 5.579-21.231 3.599-4.951 8.514-7.427 14.746-7.427 5.87 0 10.362 1.969 13.479 5.905C46.148 15.939 47.296 18.801 47.803 22.255zM29.869 34.393c-2.536 0-4.554 1.063-6.051 3.188-1.354 1.884-2.029 4.13-2.029 6.738 0 2.585.688 4.844 2.065 6.775 1.497 2.15 3.551 3.225 6.159 3.225 2.536 0 4.577-1.026 6.123-3.079 1.449-1.933 2.174-4.215 2.174-6.848 0-2.585-.652-4.795-1.957-6.631C34.76 35.516 32.598 34.393 29.869 34.393zM87.33 9.031v9.42H65.99l-2.282 11.919c2.56-2.705 5.833-4.058 9.818-4.058 3.913 0 7.318 1.051 10.217 3.152 4.3 3.165 6.449 7.971 6.449 14.42 0 6.329-2.295 11.341-6.884 15.036-3.575 2.898-7.85 4.348-12.825 4.348-5.604 0-10.108-1.504-13.515-4.511-3.405-3.007-5.205-7.07-5.397-12.191h10.397c.169 1.86.773 3.441 1.812 4.746 1.618 2.053 3.864 3.079 6.739 3.079 2.777 0 4.976-1.002 6.594-3.007 1.57-1.956 2.355-4.335 2.355-7.138 0-3.043-.822-5.477-2.464-7.3-1.643-1.824-3.829-2.736-6.558-2.736-3.333 0-5.931 1.498-7.79 4.493l-9.456-.145 5.036-29.528H87.33zM94.214 25.806c.121-4.348 1.196-7.994 3.225-10.941 3.285-4.734 8.225-7.101 14.818-7.101 5.072 0 9.166 1.292 12.282 3.876 3.357 2.802 5.036 6.425 5.036 10.869 0 2.657-.658 4.945-1.975 6.866s-3.098 3.219-5.344 3.895c2.85.652 5.103 2.102 6.757 4.348 1.654 2.246 2.481 4.964 2.481 8.151 0 5.242-1.933 9.529-5.797 12.862-3.574 3.092-8.092 4.638-13.55 4.638-5.918 0-10.61-1.703-14.075-5.108-3.467-3.406-5.199-8.007-5.199-13.804 0-.121 0-.351 0-.688h10.181c0 3.261.772 5.778 2.318 7.554s3.732 2.663 6.558 2.663c2.826 0 5-.833 6.521-2.5 1.4-1.57 2.102-3.442 2.102-5.616 0-2.608-.894-4.673-2.681-6.195-1.474-1.255-3.744-1.884-6.812-1.884-.87 0-1.728.049-2.572.146v-7.79c.628.048 1.231.072 1.812.072 6.087 0 9.13-2.258 9.13-6.775 0-1.98-.665-3.581-1.993-4.801-1.328-1.219-3.079-1.83-5.253-1.83-2.488 0-4.408.773-5.761 2.319-1.353 1.546-2.077 3.804-2.174 6.775H94.214z" class="sbb-vm-color-black"/></svg>