<svg xmlns="http://www.w3.org/2000/svg" xml:space="preserve" version="1.0" viewBox="0 0 210 71"><path fill="#FFFFFF" d="M0 0H210V71H0z" class="sbb-vm-color-white"/><path d="M47.803 22.255H37.73c-.941-4.082-3.261-6.123-6.956-6.123-3.913 0-6.69 2.404-8.333 7.21-.677 1.956-1.22 4.915-1.63 8.876 1.594-2.15 3.29-3.696 5.09-4.638 1.799-.942 3.968-1.413 6.504-1.413 4.975 0 8.973 1.764 11.992 5.29 2.874 3.333 4.312 7.512 4.312 12.537 0 5.966-1.933 10.76-5.797 14.383-3.479 3.261-7.657 4.892-12.536 4.892-6.256 0-11.123-2.361-14.601-7.083s-5.217-11.31-5.217-19.764c0-9.034 1.859-16.111 5.579-21.231 3.599-4.951 8.514-7.427 14.746-7.427 5.87 0 10.362 1.969 13.479 5.905C46.148 15.939 47.296 18.801 47.803 22.255zM29.869 34.393c-2.536 0-4.554 1.063-6.051 3.188-1.354 1.884-2.029 4.13-2.029 6.738 0 2.585.688 4.844 2.065 6.775 1.497 2.15 3.551 3.225 6.159 3.225 2.536 0 4.577-1.026 6.123-3.079 1.449-1.933 2.174-4.215 2.174-6.848 0-2.585-.652-4.795-1.957-6.631C34.76 35.516 32.598 34.393 29.869 34.393zM52.73 48.704h9.999c.821 4.106 3.2 6.159 7.138 6.159 2.222 0 4.027-.755 5.417-2.265 1.389-1.51 2.457-3.858 3.206-7.047.482-2.029.833-4.335 1.051-6.92-1.619 2.271-3.279 3.883-4.981 4.837-1.703.954-3.774 1.431-6.214 1.431-3.89 0-7.271-1.135-10.145-3.405-2.005-1.595-3.568-3.659-4.692-6.196-1.123-2.536-1.685-5.29-1.685-8.261 0-5.965 2.041-10.797 6.123-14.492 3.502-3.188 7.705-4.782 12.608-4.782 3.019 0 5.809.676 8.369 2.029 2.56 1.353 4.71 3.273 6.449 5.761 3.067 4.42 4.602 10.628 4.602 18.622 0 7.392-1.354 13.695-4.059 18.913-3.526 6.787-8.864 10.181-16.014 10.181-4.759 0-8.689-1.316-11.793-3.949S53.213 53.148 52.73 48.704zM70.338 16.712c-2.271 0-4.19.93-5.761 2.79-1.57 1.884-2.354 4.275-2.354 7.174 0 2.343.567 4.42 1.703 6.231 1.545 2.488 3.719 3.732 6.521 3.732 2.536 0 4.564-1.015 6.086-3.043 1.426-1.908 2.138-4.178 2.138-6.811 0-2.777-.736-5.132-2.21-7.065C74.915 17.714 72.874 16.712 70.338 16.712z" class="sbb-vm-color-black"/></svg>