<svg xmlns="http://www.w3.org/2000/svg" xml:space="preserve" version="1.0" viewBox="0 0 210 71"><path fill="#FFFFFF" d="M0 0H210V71H0z" class="sbb-vm-color-white"/><path d="M47.404 9.031v8.985c-.29.314-1.147 1.292-2.572 2.935-1.98 2.271-3.949 5.127-5.905 8.569-1.957 3.442-3.479 6.745-4.565 9.909C32.066 46.022 30.678 53.547 30.195 62H19.253c.073-3.985.767-8.405 2.084-13.26 1.315-4.855 3.134-9.71 5.452-14.565 3.309-6.859 6.666-11.968 10.072-15.325H11.862V9.031H47.404zM52.73 48.704h9.999c.821 4.106 3.2 6.159 7.138 6.159 2.222 0 4.027-.755 5.417-2.265 1.389-1.51 2.457-3.858 3.206-7.047.482-2.029.833-4.335 1.051-6.92-1.619 2.271-3.279 3.883-4.981 4.837-1.703.954-3.774 1.431-6.214 1.431-3.89 0-7.271-1.135-10.145-3.405-2.005-1.595-3.568-3.659-4.692-6.196-1.123-2.536-1.685-5.29-1.685-8.261 0-5.965 2.041-10.797 6.123-14.492 3.502-3.188 7.705-4.782 12.608-4.782 3.019 0 5.809.676 8.369 2.029 2.56 1.353 4.71 3.273 6.449 5.761 3.067 4.42 4.602 10.628 4.602 18.622 0 7.392-1.354 13.695-4.059 18.913-3.526 6.787-8.864 10.181-16.014 10.181-4.759 0-8.689-1.316-11.793-3.949S53.213 53.148 52.73 48.704zM70.338 16.712c-2.271 0-4.19.93-5.761 2.79-1.57 1.884-2.354 4.275-2.354 7.174 0 2.343.567 4.42 1.703 6.231 1.545 2.488 3.719 3.732 6.521 3.732 2.536 0 4.564-1.015 6.086-3.043 1.426-1.908 2.138-4.178 2.138-6.811 0-2.777-.736-5.132-2.21-7.065C74.915 17.714 72.874 16.712 70.338 16.712zM112.402 7.763c4.033 0 7.584 1.231 10.651 3.695 3.043 2.464 5.253 6.256 6.63 11.376 1.038 3.913 1.559 8.164 1.559 12.753 0 7.608-1.354 13.864-4.059 18.768-1.594 2.851-3.677 5.049-6.249 6.594-2.572 1.546-5.441 2.319-8.605 2.319-4.323 0-8.019-1.305-11.086-3.913-5.459-4.638-8.188-12.56-8.188-23.768 0-7.971 1.425-14.371 4.275-19.202 1.618-2.753 3.737-4.878 6.358-6.376C106.309 8.512 109.214 7.763 112.402 7.763zM112.004 16.712c-3.479 0-5.846 2.005-7.102 6.014-.991 3.188-1.485 7.657-1.485 13.406 0 5.072.507 9.143 1.521 12.21 1.305 3.985 3.72 5.978 7.246 5.978 2.922 0 5.096-1.545 6.521-4.638 1.425-3.091 2.138-7.813 2.138-14.166 0-5.41-.508-9.674-1.521-12.79C118.018 18.717 115.578 16.712 112.004 16.712z" class="sbb-vm-color-black"/></svg>