<svg xmlns="http://www.w3.org/2000/svg" xml:space="preserve" version="1.0" viewBox="0 0 210 71"><path fill="#FFFFFF" d="M0 0H210V71H0z" class="sbb-vm-color-white"/><path d="M19.761 33.559c-2.464-.845-4.354-2.234-5.67-4.167-1.317-1.932-1.975-4.275-1.975-7.029 0-4.589 1.884-8.248 5.652-10.978 3.333-2.415 7.294-3.623 11.884-3.623 5.217 0 9.479 1.437 12.789 4.311 3.14 2.706 4.71 6.051 4.71 10.036 0 2.778-.664 5.157-1.992 7.137-1.329 1.981-3.213 3.418-5.652 4.312 1.908.556 3.466 1.268 4.674 2.138 3.357 2.44 5.036 6.002 5.036 10.688 0 5.387-2.065 9.674-6.195 12.862-3.479 2.681-7.947 4.021-13.405 4.021-5.918 0-10.628-1.474-14.13-4.42-3.647-3.067-5.471-7.089-5.471-12.065 0-4.661 1.618-8.272 4.854-10.833C16.342 34.815 17.973 34.018 19.761 33.559zM29.434 37.545c-2.608 0-4.74.803-6.395 2.409s-2.481 3.665-2.481 6.177c0 2.585.839 4.687 2.518 6.305s3.858 2.428 6.54 2.428c3.043 0 5.326-.894 6.848-2.682 1.473-1.715 2.21-3.695 2.21-5.941 0-2.561-.846-4.661-2.536-6.305C34.519 38.342 32.284 37.545 29.434 37.545zM29.507 15.987c-2.319 0-4.191.646-5.616 1.938-1.426 1.292-2.138 2.989-2.138 5.09 0 2.198.719 3.955 2.156 5.271 1.437 1.317 3.363 1.975 5.778 1.975s4.323-.652 5.725-1.957c1.4-1.304 2.102-3.08 2.102-5.326 0-2.198-.707-3.913-2.12-5.145S32.019 15.987 29.507 15.987zM87.33 9.031v9.42H65.99l-2.282 11.919c2.56-2.705 5.833-4.058 9.818-4.058 3.913 0 7.318 1.051 10.217 3.152 4.3 3.165 6.449 7.971 6.449 14.42 0 6.329-2.295 11.341-6.884 15.036-3.575 2.898-7.85 4.348-12.825 4.348-5.604 0-10.108-1.504-13.515-4.511-3.405-3.007-5.205-7.07-5.397-12.191h10.397c.169 1.86.773 3.441 1.812 4.746 1.618 2.053 3.864 3.079 6.739 3.079 2.777 0 4.976-1.002 6.594-3.007 1.57-1.956 2.355-4.335 2.355-7.138 0-3.043-.822-5.477-2.464-7.3-1.643-1.824-3.829-2.736-6.558-2.736-3.333 0-5.931 1.498-7.79 4.493l-9.456-.145 5.036-29.528H87.33zM112.402 7.763c4.033 0 7.584 1.231 10.651 3.695 3.043 2.464 5.253 6.256 6.63 11.376 1.038 3.913 1.559 8.164 1.559 12.753 0 7.608-1.354 13.864-4.059 18.768-1.594 2.851-3.677 5.049-6.249 6.594-2.572 1.546-5.441 2.319-8.605 2.319-4.323 0-8.019-1.305-11.086-3.913-5.459-4.638-8.188-12.56-8.188-23.768 0-7.971 1.425-14.371 4.275-19.202 1.618-2.753 3.737-4.878 6.358-6.376C106.309 8.512 109.214 7.763 112.402 7.763zM112.004 16.712c-3.479 0-5.846 2.005-7.102 6.014-.991 3.188-1.485 7.657-1.485 13.406 0 5.072.507 9.143 1.521 12.21 1.305 3.985 3.72 5.978 7.246 5.978 2.922 0 5.096-1.545 6.521-4.638 1.425-3.091 2.138-7.813 2.138-14.166 0-5.41-.508-9.674-1.521-12.79C118.018 18.717 115.578 16.712 112.004 16.712z" class="sbb-vm-color-black"/></svg>