<?xml version="1.0" encoding="utf-8"?>
<!-- Generator: Adobe Illustrator 27.0.0, SVG Export Plug-In . SVG Version: 6.00 Build 0)  -->
<svg version="1.0" id="Ebene_1" xmlns="http://www.w3.org/2000/svg" xmlns:xlink="http://www.w3.org/1999/xlink" x="0px" y="0px"
	 viewBox="0 0 210 71" enable-background="new 0 0 210 71" xml:space="preserve">
<g id="white">
	<rect id="background-white_00000147201839684919677670000006641991587696569237_" fill="#FFFFFF" width="210" height="71"/>
</g>
<g>
	<path d="M11.464,48.704h9.999c0.821,4.106,3.2,6.159,7.138,6.159c2.222,0,4.027-0.755,5.417-2.265
		c1.389-1.51,2.457-3.858,3.206-7.047c0.482-2.029,0.833-4.335,1.051-6.92c-1.619,2.271-3.279,3.883-4.981,4.837
		c-1.703,0.954-3.774,1.431-6.214,1.431c-3.89,0-7.271-1.135-10.145-3.405c-2.005-1.595-3.569-3.659-4.692-6.196
		c-1.123-2.536-1.685-5.29-1.685-8.261c0-5.965,2.041-10.797,6.123-14.492c3.502-3.188,7.705-4.782,12.608-4.782
		c3.019,0,5.809,0.676,8.369,2.029c2.56,1.353,4.71,3.273,6.449,5.761c3.067,4.42,4.602,10.628,4.602,18.622
		c0,7.392-1.354,13.695-4.059,18.913c-3.526,6.787-8.864,10.181-16.014,10.181c-4.759,0-8.689-1.316-11.793-3.949
		C13.74,56.687,11.947,53.148,11.464,48.704z M29.071,16.712c-2.271,0-4.19,0.93-5.761,2.79c-1.57,1.884-2.354,4.275-2.354,7.174
		c0,2.343,0.567,4.42,1.703,6.231c1.545,2.488,3.719,3.732,6.521,3.732c2.536,0,4.564-1.015,6.086-3.043
		c1.426-1.908,2.138-4.178,2.138-6.811c0-2.777-0.736-5.132-2.21-7.065C33.648,17.714,31.607,16.712,29.071,16.712z"/>
	<path d="M52.947,25.806c0.121-4.348,1.196-7.994,3.225-10.941c3.285-4.734,8.225-7.101,14.818-7.101
		c5.072,0,9.166,1.292,12.282,3.876c3.357,2.802,5.036,6.425,5.036,10.869c0,2.657-0.658,4.945-1.975,6.866
		s-3.098,3.219-5.344,3.895c2.85,0.652,5.103,2.102,6.757,4.348c1.654,2.246,2.481,4.964,2.481,8.151
		c0,5.242-1.933,9.529-5.797,12.862c-3.574,3.092-8.092,4.638-13.55,4.638c-5.918,0-10.61-1.703-14.075-5.108
		c-3.467-3.406-5.199-8.007-5.199-13.804c0-0.121,0-0.351,0-0.688h10.181c0,3.261,0.772,5.778,2.318,7.554s3.732,2.663,6.558,2.663
		c2.826,0,5-0.833,6.521-2.5c1.4-1.57,2.102-3.442,2.102-5.616c0-2.608-0.894-4.673-2.681-6.195
		c-1.474-1.255-3.744-1.884-6.812-1.884c-0.87,0-1.728,0.049-2.572,0.146v-7.79c0.628,0.048,1.231,0.072,1.812,0.072
		c6.087,0,9.13-2.258,9.13-6.775c0-1.98-0.665-3.581-1.993-4.801c-1.328-1.219-3.079-1.83-5.253-1.83
		c-2.488,0-4.408,0.773-5.761,2.319c-1.353,1.546-2.077,3.804-2.174,6.775H52.947z"/>
	<path d="M131.713,40.95v8.949h-6.666V62h-10.326V49.899H92.62v-9.928l22.644-30.94h9.783V40.95H131.713z M114.938,41.059V21.35
		l-13.623,19.709H114.938z"/>
</g>
</svg>
