<svg xmlns="http://www.w3.org/2000/svg" xml:space="preserve" version="1.0" viewBox="0 0 210 71"><path fill="#FFFFFF" d="M0 0H210V71H0z" class="sbb-vm-color-white"/><path d="M60.35,7.1c1.953,0,3.55,1.598,3.55,3.55v49.7c0,1.953-1.597,3.55-3.55,3.55h-49.7c-1.952,0-3.55-1.597-3.55-3.55v-49.7 c0-1.952,1.598-3.55,3.55-3.55H60.35 M60.35,6.213h-49.7c-2.447,0-4.437,1.991-4.437,4.437v49.7c0,2.447,1.991,4.438,4.437,4.438 h49.7c2.447,0,4.438-1.991,4.438-4.438v-49.7C64.787,8.203,62.797,6.213,60.35,6.213L60.35,6.213z" class="sbb-vm-color-black"/><path d="M22.188,26.625H14.2V24.85h35.676l0,0c1.446,0,2.711,0.97,3.086,2.366l3.73,13.891c0.073,0.27,0.109,0.549,0.109,0.828 v9.007c0,0.784-0.636,1.42-1.42,1.42h-16.51c-0.784,0-1.42-0.636-1.42-1.42c0-0.009,0-0.018,0-0.026l0,0 c0.001-0.05,0.002-0.101,0.002-0.151c0-4.507-3.658-8.165-8.165-8.165c-4.507,0-8.165,3.658-8.165,8.165 c0,0.051,0.001,0.101,0.001,0.151l0,0c0.001,0.009,0.001,0.017,0.001,0.026c0,0.784-0.637,1.42-1.421,1.42H14.2V39.05h7.988 c0.49,0,0.887-0.398,0.887-0.888v-10.65C23.075,27.022,22.678,26.625,22.188,26.625L22.188,26.625z M48.369,41.713 c0,0.49,0.397,0.887,0.888,0.887h4.84c0.49,0,0.887-0.397,0.887-0.887c0-0.078-0.01-0.155-0.031-0.23L51.2,27.499 c-0.166-0.62-0.729-1.052-1.372-1.052h-0.039c-0.783,0-1.42,0.636-1.42,1.42V41.713L48.369,41.713z M43.754,41.358 c0,0.783,0.637,1.42,1.42,1.42c0.784,0,1.42-0.636,1.42-1.42v-13.49c0-0.784-0.637-1.42-1.42-1.42c-0.783,0-1.42,0.636-1.42,1.42 V41.358L43.754,41.358z M39.139,41.358c0,0.783,0.637,1.42,1.42,1.42c0.784,0,1.421-0.636,1.421-1.42v-13.49 c0-0.784-0.637-1.42-1.421-1.42c-0.783,0-1.42,0.636-1.42,1.42V41.358L39.139,41.358z M24.851,38.162 c0,0.49,0.398,0.888,0.887,0.888h10.739c0.49,0,0.888-0.398,0.888-0.888v-10.65c0-0.49-0.398-0.887-0.888-0.887H25.738 c-0.49,0-0.887,0.398-0.887,0.887V38.162L24.851,38.162z" class="sbb-vm-color-black"/><path d="M29.232 44.605c3.429 0 6.213 2.783 6.213 6.212 0 3.429-2.784 6.213-6.213 6.213-3.429 0-6.212-2.783-6.212-6.213C23.02 47.388 25.802 44.605 29.232 44.605L29.232 44.605zM29.232 54.234c1.96 0 3.55-1.591 3.55-3.55 0-1.959-1.591-3.55-3.55-3.55-1.959 0-3.55 1.59-3.55 3.55C25.682 52.643 27.273 54.234 29.232 54.234L29.232 54.234zM99.803 9.031V62H89.224V27.328h-3.768-3.769-3.659-1.268v-7.681c2.584-.072 4.691-.338 6.322-.797 1.63-.458 3.121-1.208 4.475-2.247 1.956-1.497 3.272-4.021 3.949-7.572H99.803zM133.136 7.763c4.033 0 7.584 1.231 10.651 3.695 3.043 2.464 5.253 6.256 6.63 11.376 1.038 3.913 1.559 8.164 1.559 12.753 0 7.608-1.354 13.864-4.059 18.768-1.594 2.851-3.677 5.049-6.249 6.594-2.572 1.546-5.441 2.319-8.605 2.319-4.323 0-8.019-1.305-11.086-3.913-5.459-4.638-8.188-12.56-8.188-23.768 0-7.971 1.425-14.371 4.275-19.202 1.618-2.753 3.737-4.878 6.358-6.376C127.042 8.512 129.947 7.763 133.136 7.763zM132.737 16.712c-3.479 0-5.846 2.005-7.102 6.014-.991 3.188-1.485 7.657-1.485 13.406 0 5.072.507 9.143 1.521 12.21 1.305 3.985 3.72 5.978 7.246 5.978 2.922 0 5.096-1.545 6.521-4.638 1.425-3.091 2.138-7.813 2.138-14.166 0-5.41-.508-9.674-1.521-12.79C138.751 18.717 136.312 16.712 132.737 16.712z" class="sbb-vm-color-black"/></svg>