<?xml version="1.0" encoding="utf-8"?>
<!-- Generator: Adobe Illustrator 25.1.0, SVG Export Plug-In . SVG Version: 6.00 Build 0)  -->
<svg version="1.0" id="Ebene_1" xmlns="http://www.w3.org/2000/svg" xmlns:xlink="http://www.w3.org/1999/xlink" x="0px" y="0px"
	 viewBox="0 0 210 71" enable-background="new 0 0 210 71" xml:space="preserve">
<rect id="background-white" fill="#FFFFFF" width="210" height="71"/>
<g id="B:background-white:999">
	<path d="M18.938,24.173H9v-2.208h44.385l0,0c1.799,0,3.373,1.207,3.839,2.944l4.64,17.282c0.09,0.336,0.136,0.682,0.136,1.03
		v11.205c0,0.975-0.791,1.767-1.766,1.767h-20.54c-0.975,0-1.767-0.792-1.767-1.767c0-0.011,0-0.022,0-0.033l0,0
		c0.002-0.063,0.002-0.125,0.002-0.188c0-5.607-4.551-10.158-10.159-10.158c-5.607,0-10.158,4.551-10.158,10.158
		c0,0.063,0.001,0.126,0.002,0.188l0,0c0.001,0.011,0.001,0.022,0.001,0.033c0,0.975-0.792,1.767-1.767,1.767H9V39.631h9.938
		c0.61,0,1.104-0.495,1.104-1.104v-13.25C20.042,24.667,19.548,24.173,18.938,24.173L18.938,24.173z M51.51,42.943
		c0,0.609,0.495,1.104,1.104,1.104h6.022c0.609,0,1.104-0.494,1.104-1.104c0-0.097-0.013-0.193-0.038-0.287l-4.67-17.397
		c-0.207-0.772-0.907-1.309-1.707-1.309h-0.049c-0.975,0-1.767,0.792-1.767,1.767V42.943L51.51,42.943z M45.769,42.502
		c0,0.975,0.792,1.766,1.767,1.766c0.975,0,1.767-0.792,1.767-1.766V25.719c0-0.975-0.792-1.767-1.767-1.767
		c-0.975,0-1.767,0.792-1.767,1.767V42.502L45.769,42.502z M40.027,42.502c0,0.975,0.792,1.766,1.766,1.766
		c0.975,0,1.767-0.792,1.767-1.766V25.719c0-0.975-0.792-1.767-1.767-1.767c-0.974,0-1.766,0.792-1.766,1.767V42.502L40.027,42.502z
		 M22.25,38.526c0,0.61,0.495,1.104,1.104,1.104h13.36c0.609,0,1.105-0.495,1.105-1.104v-13.25c0-0.609-0.495-1.104-1.105-1.104
		h-13.36c-0.609,0-1.104,0.495-1.104,1.104V38.526L22.25,38.526z"/>
	<path d="M27.701,46.542c4.266,0,7.729,3.463,7.729,7.729c0,4.266-3.463,7.729-7.729,7.729c-4.266,0-7.729-3.463-7.729-7.729
		C19.972,50.004,23.435,46.542,27.701,46.542L27.701,46.542z M27.701,58.521c2.438,0,4.417-1.979,4.417-4.417
		c0-2.438-1.979-4.416-4.417-4.416c-2.437,0-4.416,1.979-4.416,4.416C23.285,56.543,25.264,58.521,27.701,58.521L27.701,58.521z"/>
</g>
<g>
	<path d="M107.09,9.031V62H96.511V27.328h-3.768h-3.769h-3.659h-1.268v-7.681c2.584-0.072,4.691-0.338,6.322-0.797
		c1.63-0.458,3.121-1.208,4.475-2.247c1.956-1.497,3.272-4.021,3.949-7.572H107.09z"/>
	<path d="M157.958,9.031v8.985c-0.29,0.314-1.147,1.292-2.572,2.935c-1.98,2.271-3.949,5.127-5.905,8.569
		c-1.957,3.442-3.479,6.745-4.565,9.909c-2.295,6.594-3.684,14.118-4.166,22.571h-10.942c0.073-3.985,0.767-8.405,2.084-13.26
		c1.315-4.855,3.134-9.71,5.452-14.565c3.309-6.859,6.666-11.968,10.072-15.325h-24.999V9.031H157.958z"/>
	<path d="M200.529,52.58V62h-38.151c0-2.874,0.465-5.615,1.396-8.224c0.929-2.609,2.239-4.855,3.931-6.739
		c1.305-1.449,2.832-2.862,4.583-4.239s5.235-3.9,10.453-7.572c2.535-1.763,4.311-3.406,5.325-4.927s1.521-3.285,1.521-5.29
		c0-2.319-0.683-4.197-2.047-5.634s-3.158-2.156-5.38-2.156c-5.459,0-8.273,3.925-8.441,11.775h-10.182c0-0.507,0-0.894,0-1.16
		c0-6.424,1.8-11.4,5.398-14.927c3.502-3.429,8.031-5.145,13.587-5.145c4.927,0,9.045,1.401,12.354,4.203
		c3.599,3.043,5.398,7.137,5.398,12.282c0,4.492-1.438,8.357-4.312,11.594c-0.942,1.063-1.824,1.915-2.645,2.555
		c-0.821,0.64-2.983,2.18-6.485,4.619c-3.333,2.318-5.719,4.094-7.155,5.326c-1.438,1.231-2.772,2.645-4.004,4.238H200.529z"/>
</g>
</svg>
