<?xml version="1.0" encoding="utf-8"?>
<!-- Generator: Adobe Illustrator 25.1.0, SVG Export Plug-In . SVG Version: 6.00 Build 0)  -->
<svg version="1.0" id="Ebene_1" xmlns="http://www.w3.org/2000/svg" xmlns:xlink="http://www.w3.org/1999/xlink" x="0px" y="0px"
	 viewBox="0 0 210 71" enable-background="new 0 0 210 71" xml:space="preserve">
<rect id="background-white" fill="#FFFFFF" width="210" height="71"/>
<g id="B:background-white:999">
	<path d="M18.938,24.173H9v-2.208h44.385l0,0c1.799,0,3.373,1.207,3.839,2.944l4.64,17.282c0.09,0.336,0.136,0.682,0.136,1.03
		v11.205c0,0.975-0.791,1.767-1.766,1.767h-20.54c-0.975,0-1.767-0.792-1.767-1.767c0-0.011,0-0.022,0-0.033l0,0
		c0.002-0.063,0.002-0.125,0.002-0.188c0-5.607-4.551-10.158-10.159-10.158c-5.607,0-10.158,4.551-10.158,10.158
		c0,0.063,0.001,0.126,0.002,0.188l0,0c0.001,0.011,0.001,0.022,0.001,0.033c0,0.975-0.792,1.767-1.767,1.767H9V39.631h9.938
		c0.61,0,1.104-0.495,1.104-1.104v-13.25C20.042,24.667,19.548,24.173,18.938,24.173L18.938,24.173z M51.51,42.943
		c0,0.609,0.495,1.104,1.104,1.104h6.022c0.609,0,1.104-0.494,1.104-1.104c0-0.097-0.013-0.193-0.038-0.287l-4.67-17.397
		c-0.207-0.772-0.907-1.309-1.707-1.309h-0.049c-0.975,0-1.767,0.792-1.767,1.767V42.943L51.51,42.943z M45.769,42.502
		c0,0.975,0.792,1.766,1.767,1.766c0.975,0,1.767-0.792,1.767-1.766V25.719c0-0.975-0.792-1.767-1.767-1.767
		c-0.975,0-1.767,0.792-1.767,1.767V42.502L45.769,42.502z M40.027,42.502c0,0.975,0.792,1.766,1.766,1.766
		c0.975,0,1.767-0.792,1.767-1.766V25.719c0-0.975-0.792-1.767-1.767-1.767c-0.974,0-1.766,0.792-1.766,1.767V42.502L40.027,42.502z
		 M22.25,38.526c0,0.61,0.495,1.104,1.104,1.104h13.36c0.609,0,1.105-0.495,1.105-1.104v-13.25c0-0.609-0.495-1.104-1.105-1.104
		h-13.36c-0.609,0-1.104,0.495-1.104,1.104V38.526L22.25,38.526z"/>
	<path d="M27.701,46.542c4.266,0,7.729,3.463,7.729,7.729c0,4.266-3.463,7.729-7.729,7.729c-4.266,0-7.729-3.463-7.729-7.729
		C19.972,50.004,23.435,46.542,27.701,46.542L27.701,46.542z M27.701,58.521c2.438,0,4.417-1.979,4.417-4.417
		c0-2.438-1.979-4.416-4.417-4.416c-2.437,0-4.416,1.979-4.416,4.416C23.285,56.543,25.264,58.521,27.701,58.521L27.701,58.521z"/>
</g>
<g>
	<path d="M117.996,52.58V62h-38.15c0-2.874,0.464-5.615,1.395-8.224c0.93-2.609,2.24-4.855,3.931-6.739
		c1.304-1.449,2.831-2.862,4.583-4.239c1.751-1.377,5.235-3.9,10.453-7.572c2.535-1.763,4.311-3.406,5.325-4.927
		c1.014-1.521,1.521-3.285,1.521-5.29c0-2.319-0.683-4.197-2.046-5.634c-1.364-1.437-3.158-2.156-5.38-2.156
		c-5.459,0-8.273,3.925-8.441,11.775H81.005c0-0.507,0-0.894,0-1.16c0-6.424,1.799-11.4,5.398-14.927
		c3.501-3.429,8.031-5.145,13.586-5.145c4.927,0,9.044,1.401,12.354,4.203c3.599,3.043,5.398,7.137,5.398,12.282
		c0,4.492-1.438,8.357-4.312,11.594c-0.942,1.063-1.824,1.915-2.645,2.555c-0.821,0.64-2.983,2.18-6.485,4.619
		c-3.333,2.318-5.719,4.094-7.155,5.326c-1.438,1.231-2.772,2.645-4.004,4.238H117.996z"/>
	<path d="M159.733,40.95v8.949h-6.666V62h-10.326V49.899h-22.101v-9.928l22.644-30.94h9.783V40.95H159.733z M142.959,41.059V21.35
		l-13.623,19.709H142.959z"/>
	<path d="M199.623,22.255h-10.072c-0.941-4.082-3.261-6.123-6.956-6.123c-3.913,0-6.69,2.404-8.333,7.21
		c-0.677,1.956-1.22,4.915-1.63,8.876c1.594-2.15,3.29-3.696,5.09-4.638c1.799-0.942,3.968-1.413,6.504-1.413
		c4.975,0,8.973,1.764,11.992,5.29c2.874,3.333,4.312,7.512,4.312,12.537c0,5.966-1.933,10.76-5.797,14.383
		c-3.479,3.261-7.657,4.892-12.536,4.892c-6.256,0-11.123-2.361-14.601-7.083c-3.479-4.722-5.218-11.31-5.218-19.764
		c0-9.034,1.86-16.111,5.58-21.231c3.599-4.951,8.514-7.427,14.745-7.427c5.87,0,10.362,1.969,13.479,5.905
		C197.969,15.939,199.116,18.801,199.623,22.255z M181.689,34.393c-2.536,0-4.554,1.063-6.051,3.188
		c-1.354,1.884-2.029,4.13-2.029,6.738c0,2.585,0.688,4.844,2.065,6.775c1.497,2.15,3.551,3.225,6.159,3.225
		c2.536,0,4.577-1.026,6.123-3.079c1.449-1.933,2.174-4.215,2.174-6.848c0-2.585-0.652-4.795-1.957-6.631
		C186.58,35.516,184.418,34.393,181.689,34.393z"/>
</g>
</svg>
