<?xml version="1.0" encoding="utf-8"?>
<!-- Generator: Adobe Illustrator 25.1.0, SVG Export Plug-In . SVG Version: 6.00 Build 0)  -->
<svg version="1.0" id="Ebene_1" xmlns="http://www.w3.org/2000/svg" xmlns:xlink="http://www.w3.org/1999/xlink" x="0px" y="0px"
	 viewBox="0 0 210 71" enable-background="new 0 0 210 71" xml:space="preserve">
<rect id="background-white" fill="#FFFFFF" width="210" height="71"/>
<g id="B:background-white:999">
	<path d="M18.938,24.173H9v-2.208h44.385l0,0c1.799,0,3.373,1.207,3.839,2.944l4.64,17.282c0.09,0.336,0.136,0.682,0.136,1.03
		v11.205c0,0.975-0.791,1.767-1.766,1.767h-20.54c-0.975,0-1.767-0.792-1.767-1.767c0-0.011,0-0.022,0-0.033l0,0
		c0.002-0.063,0.002-0.125,0.002-0.188c0-5.607-4.551-10.158-10.159-10.158c-5.607,0-10.158,4.551-10.158,10.158
		c0,0.063,0.001,0.126,0.002,0.188l0,0c0.001,0.011,0.001,0.022,0.001,0.033c0,0.975-0.792,1.767-1.767,1.767H9V39.631h9.938
		c0.61,0,1.104-0.495,1.104-1.104v-13.25C20.042,24.667,19.548,24.173,18.938,24.173L18.938,24.173z M51.51,42.943
		c0,0.609,0.495,1.104,1.104,1.104h6.022c0.609,0,1.104-0.494,1.104-1.104c0-0.097-0.013-0.193-0.038-0.287l-4.67-17.397
		c-0.207-0.772-0.907-1.309-1.707-1.309h-0.049c-0.975,0-1.767,0.792-1.767,1.767V42.943L51.51,42.943z M45.769,42.502
		c0,0.975,0.792,1.766,1.767,1.766c0.975,0,1.767-0.792,1.767-1.766V25.719c0-0.975-0.792-1.767-1.767-1.767
		c-0.975,0-1.767,0.792-1.767,1.767V42.502L45.769,42.502z M40.027,42.502c0,0.975,0.792,1.766,1.766,1.766
		c0.975,0,1.767-0.792,1.767-1.766V25.719c0-0.975-0.792-1.767-1.767-1.767c-0.974,0-1.766,0.792-1.766,1.767V42.502L40.027,42.502z
		 M22.25,38.526c0,0.61,0.495,1.104,1.104,1.104h13.36c0.609,0,1.105-0.495,1.105-1.104v-13.25c0-0.609-0.495-1.104-1.105-1.104
		h-13.36c-0.609,0-1.104,0.495-1.104,1.104V38.526L22.25,38.526z"/>
	<path d="M27.701,46.542c4.266,0,7.729,3.463,7.729,7.729c0,4.266-3.463,7.729-7.729,7.729c-4.266,0-7.729-3.463-7.729-7.729
		C19.972,50.004,23.435,46.542,27.701,46.542L27.701,46.542z M27.701,58.521c2.438,0,4.417-1.979,4.417-4.417
		c0-2.438-1.979-4.416-4.417-4.416c-2.437,0-4.416,1.979-4.416,4.416C23.285,56.543,25.264,58.521,27.701,58.521L27.701,58.521z"/>
</g>
<g>
	<path d="M80.969,25.806c0.121-4.348,1.195-7.994,3.225-10.941c3.284-4.734,8.224-7.101,14.818-7.101
		c5.072,0,9.166,1.292,12.282,3.876c3.357,2.802,5.036,6.425,5.036,10.869c0,2.657-0.658,4.945-1.975,6.866
		s-3.098,3.219-5.344,3.895c2.85,0.652,5.103,2.102,6.757,4.348c1.654,2.246,2.481,4.964,2.481,8.151
		c0,5.242-1.933,9.529-5.797,12.862c-3.574,3.092-8.091,4.638-13.549,4.638c-5.918,0-10.61-1.703-14.076-5.108
		c-3.466-3.406-5.199-8.007-5.199-13.804c0-0.121,0-0.351,0-0.688h10.181c0,3.261,0.772,5.778,2.318,7.554s3.732,2.663,6.558,2.663
		c2.826,0,5-0.833,6.521-2.5c1.4-1.57,2.101-3.442,2.101-5.616c0-2.608-0.894-4.673-2.68-6.195
		c-1.474-1.255-3.744-1.884-6.812-1.884c-0.87,0-1.728,0.049-2.572,0.146v-7.79c0.628,0.048,1.231,0.072,1.812,0.072
		c6.087,0,9.129-2.258,9.129-6.775c0-1.98-0.665-3.581-1.993-4.801c-1.328-1.219-3.079-1.83-5.253-1.83
		c-2.488,0-4.408,0.773-5.761,2.319c-1.353,1.546-2.077,3.804-2.174,6.775H80.969z"/>
	<path d="M140.423,7.763c4.033,0,7.584,1.231,10.651,3.695c3.043,2.464,5.253,6.256,6.63,11.376
		c1.038,3.913,1.559,8.164,1.559,12.753c0,7.608-1.354,13.864-4.059,18.768c-1.594,2.851-3.677,5.049-6.249,6.594
		c-2.572,1.546-5.441,2.319-8.605,2.319c-4.323,0-8.019-1.305-11.086-3.913c-5.459-4.638-8.188-12.56-8.188-23.768
		c0-7.971,1.425-14.371,4.275-19.202c1.618-2.753,3.737-4.878,6.358-6.376C134.329,8.512,137.234,7.763,140.423,7.763z
		 M140.024,16.712c-3.479,0-5.846,2.005-7.102,6.014c-0.991,3.188-1.485,7.657-1.485,13.406c0,5.072,0.507,9.143,1.521,12.21
		c1.305,3.985,3.72,5.978,7.246,5.978c2.922,0,5.096-1.545,6.521-4.638c1.425-3.091,2.138-7.813,2.138-14.166
		c0-5.41-0.508-9.674-1.521-12.79C146.038,18.717,143.599,16.712,140.024,16.712z"/>
	<path d="M163.284,48.704h9.999c0.821,4.106,3.2,6.159,7.138,6.159c2.222,0,4.027-0.755,5.417-2.265
		c1.389-1.51,2.457-3.858,3.206-7.047c0.482-2.029,0.833-4.335,1.051-6.92c-1.619,2.271-3.279,3.883-4.981,4.837
		c-1.703,0.954-3.774,1.431-6.214,1.431c-3.89,0-7.271-1.135-10.145-3.405c-2.005-1.595-3.568-3.659-4.692-6.196
		c-1.123-2.536-1.685-5.29-1.685-8.261c0-5.965,2.041-10.797,6.123-14.492c3.502-3.188,7.705-4.782,12.608-4.782
		c3.019,0,5.809,0.676,8.369,2.029c2.56,1.353,4.71,3.273,6.449,5.761c3.067,4.42,4.602,10.628,4.602,18.622
		c0,7.392-1.354,13.695-4.059,18.913c-3.526,6.787-8.864,10.181-16.014,10.181c-4.759,0-8.689-1.316-11.793-3.949
		S163.767,53.148,163.284,48.704z M180.892,16.712c-2.271,0-4.19,0.93-5.761,2.79c-1.57,1.884-2.354,4.275-2.354,7.174
		c0,2.343,0.567,4.42,1.703,6.231c1.545,2.488,3.719,3.732,6.521,3.732c2.536,0,4.564-1.015,6.086-3.043
		c1.426-1.908,2.138-4.178,2.138-6.811c0-2.777-0.736-5.132-2.21-7.065C185.469,17.714,183.428,16.712,180.892,16.712z"/>
</g>
</svg>
