<?xml version="1.0" encoding="utf-8"?>
<!-- Generator: Adobe Illustrator 27.0.0, SVG Export Plug-In . SVG Version: 6.00 Build 0)  -->
<svg version="1.0" id="Ebene_1" xmlns="http://www.w3.org/2000/svg" xmlns:xlink="http://www.w3.org/1999/xlink" x="0px" y="0px"
	 viewBox="0 0 210 71" enable-background="new 0 0 210 71" xml:space="preserve">
<g id="bus">
	<rect id="background-white_00000088827534578836495870000016996796780730192536_" fill="#FFFFFF" width="210" height="71"/>
	<path d="M60.35,7.1c1.953,0,3.55,1.598,3.55,3.55v49.7c0,1.953-1.597,3.55-3.55,3.55h-49.7c-1.952,0-3.55-1.597-3.55-3.55v-49.7
		c0-1.952,1.598-3.55,3.55-3.55H60.35 M60.35,6.213h-49.7c-2.447,0-4.437,1.991-4.437,4.437v49.7c0,2.447,1.991,4.438,4.437,4.438
		h49.7c2.447,0,4.438-1.991,4.438-4.438v-49.7C64.787,8.203,62.797,6.213,60.35,6.213L60.35,6.213z"/>
	<path d="M22.188,26.625H14.2V24.85h35.676l0,0c1.446,0,2.711,0.97,3.086,2.366l3.73,13.891c0.073,0.27,0.109,0.549,0.109,0.828
		v9.007c0,0.784-0.636,1.42-1.42,1.42h-16.51c-0.784,0-1.42-0.636-1.42-1.42c0-0.009,0-0.018,0-0.026l0,0
		c0.001-0.05,0.002-0.101,0.002-0.151c0-4.507-3.658-8.165-8.165-8.165c-4.507,0-8.165,3.658-8.165,8.165
		c0,0.051,0.001,0.101,0.001,0.151l0,0c0.001,0.009,0.001,0.017,0.001,0.026c0,0.784-0.637,1.42-1.421,1.42H14.2V39.05h7.988
		c0.49,0,0.887-0.398,0.887-0.888v-10.65C23.075,27.022,22.678,26.625,22.188,26.625L22.188,26.625z M48.369,41.713
		c0,0.49,0.397,0.887,0.888,0.887h4.84c0.49,0,0.887-0.397,0.887-0.887c0-0.078-0.01-0.155-0.031-0.23L51.2,27.499
		c-0.166-0.62-0.729-1.052-1.372-1.052h-0.039c-0.783,0-1.42,0.636-1.42,1.42V41.713L48.369,41.713z M43.754,41.358
		c0,0.783,0.637,1.42,1.42,1.42c0.784,0,1.42-0.636,1.42-1.42v-13.49c0-0.784-0.637-1.42-1.42-1.42c-0.783,0-1.42,0.636-1.42,1.42
		V41.358L43.754,41.358z M39.139,41.358c0,0.783,0.637,1.42,1.42,1.42c0.784,0,1.421-0.636,1.421-1.42v-13.49
		c0-0.784-0.637-1.42-1.421-1.42c-0.783,0-1.42,0.636-1.42,1.42V41.358L39.139,41.358z M24.851,38.162
		c0,0.49,0.398,0.888,0.887,0.888h10.739c0.49,0,0.888-0.398,0.888-0.888v-10.65c0-0.49-0.398-0.887-0.888-0.887H25.738
		c-0.49,0-0.887,0.398-0.887,0.887V38.162L24.851,38.162z"/>
	<path d="M29.232,44.605c3.429,0,6.213,2.783,6.213,6.212c0,3.429-2.784,6.213-6.213,6.213c-3.429,0-6.212-2.783-6.212-6.213
		C23.02,47.388,25.802,44.605,29.232,44.605L29.232,44.605z M29.232,54.234c1.96,0,3.55-1.591,3.55-3.55
		c0-1.959-1.591-3.55-3.55-3.55c-1.959,0-3.55,1.59-3.55,3.55C25.682,52.643,27.273,54.234,29.232,54.234L29.232,54.234z"/>
</g>
<g>
	<path d="M109.803,22.255H99.73c-0.941-4.082-3.261-6.123-6.956-6.123c-3.913,0-6.69,2.404-8.333,7.21
		c-0.677,1.956-1.22,4.915-1.63,8.876c1.594-2.15,3.29-3.696,5.09-4.638c1.799-0.942,3.968-1.413,6.504-1.413
		c4.975,0,8.973,1.764,11.992,5.29c2.874,3.333,4.312,7.512,4.312,12.537c0,5.966-1.933,10.76-5.797,14.383
		c-3.479,3.261-7.657,4.892-12.536,4.892c-6.256,0-11.123-2.361-14.601-7.083s-5.217-11.31-5.217-19.764
		c0-9.034,1.859-16.111,5.579-21.231c3.599-4.951,8.514-7.427,14.746-7.427c5.87,0,10.362,1.969,13.479,5.905
		C108.148,15.939,109.296,18.801,109.803,22.255z M91.869,34.393c-2.536,0-4.554,1.063-6.051,3.188
		c-1.354,1.884-2.029,4.13-2.029,6.738c0,2.585,0.688,4.844,2.065,6.775c1.497,2.15,3.551,3.225,6.159,3.225
		c2.536,0,4.577-1.026,6.123-3.079c1.449-1.933,2.174-4.215,2.174-6.848c0-2.585-0.652-4.795-1.957-6.631
		C96.76,35.516,94.598,34.393,91.869,34.393z"/>
	<path d="M151.976,52.58V62h-38.151c0-2.874,0.465-5.615,1.396-8.224c0.929-2.609,2.239-4.855,3.931-6.739
		c1.305-1.449,2.832-2.862,4.583-4.239s5.235-3.9,10.453-7.572c2.535-1.763,4.311-3.406,5.325-4.927s1.521-3.285,1.521-5.29
		c0-2.319-0.683-4.197-2.047-5.634s-3.158-2.156-5.38-2.156c-5.459,0-8.273,3.925-8.441,11.775h-10.182c0-0.507,0-0.894,0-1.16
		c0-6.424,1.8-11.4,5.398-14.927c3.502-3.429,8.031-5.145,13.587-5.145c4.927,0,9.045,1.401,12.354,4.203
		c3.599,3.043,5.398,7.137,5.398,12.282c0,4.492-1.438,8.357-4.312,11.594c-0.942,1.063-1.824,1.915-2.645,2.555
		c-0.821,0.64-2.983,2.18-6.485,4.619c-3.333,2.318-5.719,4.094-7.155,5.326c-1.438,1.231-2.772,2.645-4.004,4.238H151.976z"/>
	<path d="M191.938,9.031v8.985c-0.29,0.314-1.147,1.292-2.572,2.935c-1.98,2.271-3.949,5.127-5.905,8.569
		c-1.957,3.442-3.479,6.745-4.565,9.909c-2.295,6.594-3.684,14.118-4.166,22.571h-10.942c0.073-3.985,0.767-8.405,2.084-13.26
		c1.315-4.855,3.134-9.71,5.452-14.565c3.309-6.859,6.666-11.968,10.072-15.325h-24.999V9.031H191.938z"/>
</g>
</svg>
