<?xml version="1.0" encoding="utf-8"?>
<!-- Generator: Adobe Illustrator 25.1.0, SVG Export Plug-In . SVG Version: 6.00 Build 0)  -->
<svg version="1.0" id="Ebene_1" xmlns="http://www.w3.org/2000/svg" xmlns:xlink="http://www.w3.org/1999/xlink" x="0px" y="0px"
	 viewBox="0 0 210 71" enable-background="new 0 0 210 71" xml:space="preserve">
<rect id="background-white" fill="#FFFFFF" width="210" height="71"/>
<g id="B:background-white:999">
	<path d="M18.938,24.173H9v-2.208h44.385l0,0c1.799,0,3.373,1.207,3.839,2.944l4.64,17.282c0.09,0.336,0.136,0.682,0.136,1.03
		v11.205c0,0.975-0.791,1.767-1.766,1.767h-20.54c-0.975,0-1.767-0.792-1.767-1.767c0-0.011,0-0.022,0-0.033l0,0
		c0.002-0.063,0.002-0.125,0.002-0.188c0-5.607-4.551-10.158-10.159-10.158c-5.607,0-10.158,4.551-10.158,10.158
		c0,0.063,0.001,0.126,0.002,0.188l0,0c0.001,0.011,0.001,0.022,0.001,0.033c0,0.975-0.792,1.767-1.767,1.767H9V39.631h9.938
		c0.61,0,1.104-0.495,1.104-1.104v-13.25C20.042,24.667,19.548,24.173,18.938,24.173L18.938,24.173z M51.51,42.943
		c0,0.609,0.495,1.104,1.104,1.104h6.022c0.609,0,1.104-0.494,1.104-1.104c0-0.097-0.013-0.193-0.038-0.287l-4.67-17.397
		c-0.207-0.772-0.907-1.309-1.707-1.309h-0.049c-0.975,0-1.767,0.792-1.767,1.767V42.943L51.51,42.943z M45.769,42.502
		c0,0.975,0.792,1.766,1.767,1.766c0.975,0,1.767-0.792,1.767-1.766V25.719c0-0.975-0.792-1.767-1.767-1.767
		c-0.975,0-1.767,0.792-1.767,1.767V42.502L45.769,42.502z M40.027,42.502c0,0.975,0.792,1.766,1.766,1.766
		c0.975,0,1.767-0.792,1.767-1.766V25.719c0-0.975-0.792-1.767-1.767-1.767c-0.974,0-1.766,0.792-1.766,1.767V42.502L40.027,42.502z
		 M22.25,38.526c0,0.61,0.495,1.104,1.104,1.104h13.36c0.609,0,1.105-0.495,1.105-1.104v-13.25c0-0.609-0.495-1.104-1.105-1.104
		h-13.36c-0.609,0-1.104,0.495-1.104,1.104V38.526L22.25,38.526z"/>
	<path d="M27.701,46.542c4.266,0,7.729,3.463,7.729,7.729c0,4.266-3.463,7.729-7.729,7.729c-4.266,0-7.729-3.463-7.729-7.729
		C19.972,50.004,23.435,46.542,27.701,46.542L27.701,46.542z M27.701,58.521c2.438,0,4.417-1.979,4.417-4.417
		c0-2.438-1.979-4.416-4.417-4.416c-2.437,0-4.416,1.979-4.416,4.416C23.285,56.543,25.264,58.521,27.701,58.521L27.701,58.521z"/>
</g>
<g>
	<path d="M117.09,22.255h-10.072c-0.941-4.082-3.26-6.123-6.956-6.123c-3.913,0-6.69,2.404-8.333,7.21
		c-0.677,1.956-1.22,4.915-1.63,8.876c1.594-2.15,3.29-3.696,5.09-4.638c1.799-0.942,3.968-1.413,6.504-1.413
		c4.974,0,8.972,1.764,11.992,5.29c2.874,3.333,4.312,7.512,4.312,12.537c0,5.966-1.933,10.76-5.797,14.383
		c-3.479,3.261-7.657,4.892-12.536,4.892c-6.256,0-11.123-2.361-14.601-7.083s-5.217-11.31-5.217-19.764
		c0-9.034,1.859-16.111,5.579-21.231c3.599-4.951,8.514-7.427,14.746-7.427c5.87,0,10.362,1.969,13.478,5.905
		C115.436,15.939,116.583,18.801,117.09,22.255z M99.157,34.393c-2.536,0-4.554,1.063-6.051,3.188
		c-1.354,1.884-2.029,4.13-2.029,6.738c0,2.585,0.688,4.844,2.065,6.775c1.497,2.15,3.551,3.225,6.159,3.225
		c2.536,0,4.577-1.026,6.123-3.079c1.449-1.933,2.173-4.215,2.173-6.848c0-2.585-0.652-4.795-1.957-6.631
		C104.047,35.516,101.885,34.393,99.157,34.393z"/>
	<path d="M122.018,48.704h9.999c0.821,4.106,3.2,6.159,7.138,6.159c2.222,0,4.027-0.755,5.417-2.265
		c1.389-1.51,2.457-3.858,3.206-7.047c0.482-2.029,0.833-4.335,1.051-6.92c-1.619,2.271-3.279,3.883-4.981,4.837
		c-1.703,0.954-3.774,1.431-6.214,1.431c-3.89,0-7.271-1.135-10.145-3.405c-2.005-1.595-3.568-3.659-4.692-6.196
		c-1.123-2.536-1.685-5.29-1.685-8.261c0-5.965,2.041-10.797,6.123-14.492c3.502-3.188,7.705-4.782,12.608-4.782
		c3.019,0,5.809,0.676,8.369,2.029c2.56,1.353,4.71,3.273,6.449,5.761c3.067,4.42,4.602,10.628,4.602,18.622
		c0,7.392-1.354,13.695-4.059,18.913c-3.526,6.787-8.864,10.181-16.014,10.181c-4.759,0-8.689-1.316-11.793-3.949
		S122.5,53.148,122.018,48.704z M139.625,16.712c-2.271,0-4.19,0.93-5.761,2.79c-1.57,1.884-2.354,4.275-2.354,7.174
		c0,2.343,0.567,4.42,1.703,6.231c1.545,2.488,3.719,3.732,6.521,3.732c2.536,0,4.564-1.015,6.086-3.043
		c1.426-1.908,2.138-4.178,2.138-6.811c0-2.777-0.736-5.132-2.21-7.065C144.202,17.714,142.161,16.712,139.625,16.712z"/>
	<path d="M171.581,33.559c-2.464-0.845-4.354-2.234-5.67-4.167c-1.317-1.932-1.975-4.275-1.975-7.029
		c0-4.589,1.884-8.248,5.651-10.978c3.333-2.415,7.294-3.623,11.884-3.623c5.217,0,9.479,1.437,12.789,4.311
		c3.14,2.706,4.71,6.051,4.71,10.036c0,2.778-0.664,5.157-1.992,7.137c-1.329,1.981-3.213,3.418-5.652,4.312
		c1.908,0.556,3.466,1.268,4.674,2.138c3.357,2.44,5.036,6.002,5.036,10.688c0,5.387-2.065,9.674-6.195,12.862
		c-3.479,2.681-7.947,4.021-13.405,4.021c-5.918,0-10.628-1.474-14.13-4.42c-3.647-3.067-5.471-7.089-5.471-12.065
		c0-4.661,1.618-8.272,4.854-10.833C168.163,34.815,169.793,34.018,171.581,33.559z M181.254,37.545
		c-2.608,0-4.74,0.803-6.395,2.409s-2.481,3.665-2.481,6.177c0,2.585,0.839,4.687,2.518,6.305s3.858,2.428,6.54,2.428
		c3.043,0,5.326-0.894,6.848-2.682c1.473-1.715,2.21-3.695,2.21-5.941c0-2.561-0.846-4.661-2.536-6.305
		C186.339,38.342,184.104,37.545,181.254,37.545z M181.327,15.987c-2.319,0-4.191,0.646-5.616,1.938
		c-1.426,1.292-2.138,2.989-2.138,5.09c0,2.198,0.719,3.955,2.156,5.271c1.437,1.317,3.363,1.975,5.778,1.975
		s4.323-0.652,5.725-1.957c1.4-1.304,2.102-3.08,2.102-5.326c0-2.198-0.707-3.913-2.12-5.145S183.839,15.987,181.327,15.987z"/>
</g>
</svg>
