<?xml version="1.0" encoding="utf-8"?><svg version="1.0" xmlns="http://www.w3.org/2000/svg" xmlns:xlink="http://www.w3.org/1999/xlink" x="0px" y="0px" viewBox="0 0 210 71" enable-background="new 0 0 210 71" xml:space="preserve"> <g> <rect fill="#FFFFFF" width="210" height="71" class="sbb-vm-color-white"></rect> <path d="M60.35,7.1c1.953,0,3.55,1.598,3.55,3.55v49.7c0,1.953-1.597,3.55-3.55,3.55h-49.7c-1.952,0-3.55-1.597-3.55-3.55v-49.7 c0-1.952,1.598-3.55,3.55-3.55H60.35 M60.35,6.213h-49.7c-2.447,0-4.437,1.991-4.437,4.437v49.7c0,2.447,1.991,4.438,4.437,4.438 h49.7c2.447,0,4.438-1.991,4.438-4.438v-49.7C64.787,8.203,62.797,6.213,60.35,6.213L60.35,6.213z" class="sbb-vm-color-black"></path> <path d="M22.188,26.625H14.2V24.85h35.676l0,0c1.446,0,2.711,0.97,3.086,2.366l3.73,13.891c0.073,0.27,0.109,0.549,0.109,0.828 v9.007c0,0.784-0.636,1.42-1.42,1.42h-16.51c-0.784,0-1.42-0.636-1.42-1.42c0-0.009,0-0.018,0-0.026l0,0 c0.001-0.05,0.002-0.101,0.002-0.151c0-4.507-3.658-8.165-8.165-8.165c-4.507,0-8.165,3.658-8.165,8.165 c0,0.051,0.001,0.101,0.001,0.151l0,0c0.001,0.009,0.001,0.017,0.001,0.026c0,0.784-0.637,1.42-1.421,1.42H14.2V39.05h7.988 c0.49,0,0.887-0.398,0.887-0.888v-10.65C23.075,27.022,22.678,26.625,22.188,26.625L22.188,26.625z M48.369,41.713 c0,0.49,0.397,0.887,0.888,0.887h4.84c0.49,0,0.887-0.397,0.887-0.887c0-0.078-0.01-0.155-0.031-0.23L51.2,27.499 c-0.166-0.62-0.729-1.052-1.372-1.052h-0.039c-0.783,0-1.42,0.636-1.42,1.42V41.713L48.369,41.713z M43.754,41.358 c0,0.783,0.637,1.42,1.42,1.42c0.784,0,1.42-0.636,1.42-1.42v-13.49c0-0.784-0.637-1.42-1.42-1.42c-0.783,0-1.42,0.636-1.42,1.42 V41.358L43.754,41.358z M39.139,41.358c0,0.783,0.637,1.42,1.42,1.42c0.784,0,1.421-0.636,1.421-1.42v-13.49 c0-0.784-0.637-1.42-1.421-1.42c-0.783,0-1.42,0.636-1.42,1.42V41.358L39.139,41.358z M24.851,38.162 c0,0.49,0.398,0.888,0.887,0.888h10.739c0.49,0,0.888-0.398,0.888-0.888v-10.65c0-0.49-0.398-0.887-0.888-0.887H25.738 c-0.49,0-0.887,0.398-0.887,0.887V38.162L24.851,38.162z" class="sbb-vm-color-black"></path> <path d="M29.232,44.605c3.429,0,6.213,2.783,6.213,6.212c0,3.429-2.784,6.213-6.213,6.213c-3.429,0-6.212-2.783-6.212-6.213 C23.02,47.388,25.802,44.605,29.232,44.605L29.232,44.605z M29.232,54.234c1.96,0,3.55-1.591,3.55-3.55 c0-1.959-1.591-3.55-3.55-3.55c-1.959,0-3.55,1.59-3.55,3.55C25.682,52.643,27.273,54.234,29.232,54.234L29.232,54.234z" class="sbb-vm-color-black"></path> </g> <g> <path d="M73.464,48.704h9.999c0.821,4.106,3.2,6.159,7.138,6.159c2.222,0,4.027-0.755,5.417-2.265 c1.389-1.51,2.457-3.858,3.206-7.047c0.482-2.029,0.833-4.335,1.051-6.92c-1.619,2.271-3.279,3.883-4.981,4.837 c-1.703,0.954-3.774,1.431-6.214,1.431c-3.89,0-7.271-1.135-10.145-3.405c-2.005-1.595-3.569-3.659-4.692-6.196 c-1.123-2.536-1.685-5.29-1.685-8.261c0-5.965,2.041-10.797,6.123-14.492c3.502-3.188,7.705-4.782,12.608-4.782 c3.019,0,5.809,0.676,8.369,2.029c2.56,1.353,4.71,3.273,6.449,5.761c3.067,4.42,4.602,10.628,4.602,18.622 c0,7.392-1.354,13.695-4.059,18.913c-3.526,6.787-8.864,10.181-16.014,10.181c-4.759,0-8.689-1.316-11.793-3.949 C75.74,56.687,73.947,53.148,73.464,48.704z M91.071,16.712c-2.271,0-4.19,0.93-5.761,2.79c-1.57,1.884-2.354,4.275-2.354,7.174 c0,2.343,0.567,4.42,1.703,6.231c1.545,2.488,3.719,3.732,6.521,3.732c2.536,0,4.564-1.015,6.086-3.043 c1.426-1.908,2.138-4.178,2.138-6.811c0-2.777-0.736-5.132-2.21-7.065C95.648,17.714,93.607,16.712,91.071,16.712z" class="sbb-vm-color-black"></path> <path d="M149.33,9.031v9.42h-21.34l-2.282,11.919c2.56-2.705,5.833-4.058,9.818-4.058c3.913,0,7.318,1.051,10.217,3.152 c4.3,3.165,6.449,7.971,6.449,14.42c0,6.329-2.295,11.341-6.884,15.036c-3.575,2.898-7.85,4.348-12.825,4.348 c-5.604,0-10.108-1.504-13.515-4.511c-3.405-3.007-5.205-7.07-5.397-12.191h10.397c0.169,1.86,0.773,3.441,1.812,4.746 c1.618,2.053,3.864,3.079,6.739,3.079c2.777,0,4.976-1.002,6.594-3.007c1.57-1.956,2.355-4.335,2.355-7.138 c0-3.043-0.822-5.477-2.464-7.3c-1.643-1.824-3.829-2.736-6.558-2.736c-3.333,0-5.931,1.498-7.79,4.493l-9.456-0.145l5.036-29.528 H149.33z" class="sbb-vm-color-black"></path> <path d="M193.713,40.95v8.949h-6.666V62h-10.326V49.899H154.62v-9.928l22.644-30.94h9.783V40.95H193.713z M176.938,41.059V21.35 l-13.623,19.709H176.938z" class="sbb-vm-color-black"></path> </g> </svg>