<?xml version="1.0" encoding="utf-8"?><svg version="1.0" xmlns="http://www.w3.org/2000/svg" xmlns:xlink="http://www.w3.org/1999/xlink" x="0px" y="0px" viewBox="0 0 210 71" enable-background="new 0 0 210 71" xml:space="preserve"> <g> <rect fill="#FFFFFF" width="210" height="71" class="sbb-vm-color-white"></rect> <path d="M60.35,7.1c1.953,0,3.55,1.598,3.55,3.55v49.7c0,1.953-1.597,3.55-3.55,3.55h-49.7c-1.952,0-3.55-1.597-3.55-3.55v-49.7 c0-1.952,1.598-3.55,3.55-3.55H60.35 M60.35,6.213h-49.7c-2.447,0-4.437,1.991-4.437,4.437v49.7c0,2.447,1.991,4.438,4.437,4.438 h49.7c2.447,0,4.438-1.991,4.438-4.438v-49.7C64.787,8.203,62.797,6.213,60.35,6.213L60.35,6.213z" class="sbb-vm-color-black"></path> <path d="M22.188,26.625H14.2V24.85h35.676l0,0c1.446,0,2.711,0.97,3.086,2.366l3.73,13.891c0.073,0.27,0.109,0.549,0.109,0.828 v9.007c0,0.784-0.636,1.42-1.42,1.42h-16.51c-0.784,0-1.42-0.636-1.42-1.42c0-0.009,0-0.018,0-0.026l0,0 c0.001-0.05,0.002-0.101,0.002-0.151c0-4.507-3.658-8.165-8.165-8.165c-4.507,0-8.165,3.658-8.165,8.165 c0,0.051,0.001,0.101,0.001,0.151l0,0c0.001,0.009,0.001,0.017,0.001,0.026c0,0.784-0.637,1.42-1.421,1.42H14.2V39.05h7.988 c0.49,0,0.887-0.398,0.887-0.888v-10.65C23.075,27.022,22.678,26.625,22.188,26.625L22.188,26.625z M48.369,41.713 c0,0.49,0.397,0.887,0.888,0.887h4.84c0.49,0,0.887-0.397,0.887-0.887c0-0.078-0.01-0.155-0.031-0.23L51.2,27.499 c-0.166-0.62-0.729-1.052-1.372-1.052h-0.039c-0.783,0-1.42,0.636-1.42,1.42V41.713L48.369,41.713z M43.754,41.358 c0,0.783,0.637,1.42,1.42,1.42c0.784,0,1.42-0.636,1.42-1.42v-13.49c0-0.784-0.637-1.42-1.42-1.42c-0.783,0-1.42,0.636-1.42,1.42 V41.358L43.754,41.358z M39.139,41.358c0,0.783,0.637,1.42,1.42,1.42c0.784,0,1.421-0.636,1.421-1.42v-13.49 c0-0.784-0.637-1.42-1.421-1.42c-0.783,0-1.42,0.636-1.42,1.42V41.358L39.139,41.358z M24.851,38.162 c0,0.49,0.398,0.888,0.887,0.888h10.739c0.49,0,0.888-0.398,0.888-0.888v-10.65c0-0.49-0.398-0.887-0.888-0.887H25.738 c-0.49,0-0.887,0.398-0.887,0.887V38.162L24.851,38.162z" class="sbb-vm-color-black"></path> <path d="M29.232,44.605c3.429,0,6.213,2.783,6.213,6.212c0,3.429-2.784,6.213-6.213,6.213c-3.429,0-6.212-2.783-6.212-6.213 C23.02,47.388,25.802,44.605,29.232,44.605L29.232,44.605z M29.232,54.234c1.96,0,3.55-1.591,3.55-3.55 c0-1.959-1.591-3.55-3.55-3.55c-1.959,0-3.55,1.59-3.55,3.55C25.682,52.643,27.273,54.234,29.232,54.234L29.232,54.234z" class="sbb-vm-color-black"></path> </g> <g> <path d="M73.464,48.704h9.999c0.821,4.106,3.2,6.159,7.138,6.159c2.222,0,4.027-0.755,5.417-2.265 c1.389-1.51,2.457-3.858,3.206-7.047c0.482-2.029,0.833-4.335,1.051-6.92c-1.619,2.271-3.279,3.883-4.981,4.837 c-1.703,0.954-3.774,1.431-6.214,1.431c-3.89,0-7.271-1.135-10.145-3.405c-2.005-1.595-3.569-3.659-4.692-6.196 c-1.123-2.536-1.685-5.29-1.685-8.261c0-5.965,2.041-10.797,6.123-14.492c3.502-3.188,7.705-4.782,12.608-4.782 c3.019,0,5.809,0.676,8.369,2.029c2.56,1.353,4.71,3.273,6.449,5.761c3.067,4.42,4.602,10.628,4.602,18.622 c0,7.392-1.354,13.695-4.059,18.913c-3.526,6.787-8.864,10.181-16.014,10.181c-4.759,0-8.689-1.316-11.793-3.949 C75.74,56.687,73.947,53.148,73.464,48.704z M91.071,16.712c-2.271,0-4.19,0.93-5.761,2.79c-1.57,1.884-2.354,4.275-2.354,7.174 c0,2.343,0.567,4.42,1.703,6.231c1.545,2.488,3.719,3.732,6.521,3.732c2.536,0,4.564-1.015,6.086-3.043 c1.426-1.908,2.138-4.178,2.138-6.811c0-2.777-0.736-5.132-2.21-7.065C95.648,17.714,93.607,16.712,91.071,16.712z" class="sbb-vm-color-black"></path> <path d="M150.671,9.031v8.985c-0.29,0.314-1.147,1.292-2.572,2.935c-1.98,2.271-3.949,5.127-5.905,8.569 c-1.957,3.442-3.479,6.745-4.565,9.909c-2.295,6.594-3.684,14.118-4.166,22.571H122.52c0.073-3.985,0.767-8.405,2.084-13.26 c1.315-4.855,3.134-9.71,5.452-14.565c3.309-6.859,6.666-11.968,10.072-15.325h-24.999V9.031H150.671z" class="sbb-vm-color-black"></path> <path d="M193.242,52.58V62h-38.151c0-2.874,0.465-5.615,1.396-8.224c0.929-2.609,2.239-4.855,3.931-6.739 c1.305-1.449,2.832-2.862,4.583-4.239s5.235-3.9,10.453-7.572c2.535-1.763,4.311-3.406,5.325-4.927s1.521-3.285,1.521-5.29 c0-2.319-0.683-4.197-2.047-5.634s-3.158-2.156-5.38-2.156c-5.459,0-8.273,3.925-8.441,11.775H156.25c0-0.507,0-0.894,0-1.16 c0-6.424,1.8-11.4,5.398-14.927c3.502-3.429,8.031-5.145,13.587-5.145c4.927,0,9.045,1.401,12.354,4.203 c3.599,3.043,5.398,7.137,5.398,12.282c0,4.492-1.438,8.357-4.312,11.594c-0.942,1.063-1.824,1.915-2.645,2.555 c-0.821,0.64-2.983,2.18-6.485,4.619c-3.333,2.318-5.719,4.094-7.155,5.326c-1.438,1.231-2.772,2.645-4.004,4.238H193.242z" class="sbb-vm-color-black"></path> </g> </svg>