<?xml version="1.0" encoding="utf-8"?>
<!-- Generator: Adobe Illustrator 25.1.0, SVG Export Plug-In . SVG Version: 6.00 Build 0)  -->
<svg version="1.0" id="Ebene_1" xmlns="http://www.w3.org/2000/svg" xmlns:xlink="http://www.w3.org/1999/xlink" x="0px" y="0px"
	 viewBox="0 0 210 71" enable-background="new 0 0 210 71" xml:space="preserve">
<rect id="background-white" fill="#FFFFFF" width="210" height="71"/>
<g id="BAT:background-white:999">
	<path d="M60.35,7.1c1.952,0,3.55,1.598,3.55,3.55v49.7c0,1.953-1.597,3.55-3.55,3.55h-49.7c-1.953,0-3.55-1.597-3.55-3.55v-49.7
		c0-1.952,1.597-3.55,3.55-3.55H60.35 M60.35,6.213h-49.7c-2.447,0-4.438,1.991-4.438,4.437v49.7c0,2.447,1.991,4.438,4.438,4.438
		h49.7c2.447,0,4.437-1.991,4.437-4.438v-49.7C64.787,8.203,62.797,6.213,60.35,6.213L60.35,6.213z"/>
	<path d="M15.974,26.625c0.49,0,0.888,0.398,0.888,0.888v3.549c0,0.49-0.398,0.89-0.888,0.89H14.2v5.324h1.774
		c0.49,0,0.888,0.397,0.888,0.885v3.551c0,0.49-0.398,0.888-0.888,0.888H14.2v10.828c0.884-0.002,1.765-0.092,2.634-0.272
		l5.962-1.259c0.684-0.088,1.37-0.141,2.055-0.156c0.686,0.015,1.372,0.068,2.056,0.156l5.964,1.259
		c0.864,0.18,1.746,0.27,2.63,0.272c0.884-0.002,1.765-0.092,2.631-0.272l5.965-1.259c0.679-0.088,1.365-0.141,2.053-0.156
		c0.688,0.015,1.374,0.068,2.053,0.156l3.801,0.802L57.33,42.6H35.943l-0.888-5.324h3.106v-5.324H27.246l-0.888-5.326H27.6
		c0.49,0,0.888-0.398,0.888-0.888c0-0.49-0.398-0.888-0.888-0.888H14.2v1.775H15.974L15.974,26.625z M27.158,41.712v-3.551
		c0-0.488,0.398-0.885,0.886-0.885h4.641c0.433,0,0.802,0.312,0.875,0.74l0.592,3.551c0.006,0.048,0.013,0.097,0.013,0.145
		c0,0.488-0.398,0.888-0.888,0.888h-5.232C27.556,42.6,27.158,42.2,27.158,41.712L27.158,41.712z M18.458,41.712v-3.551
		c0-0.488,0.398-0.885,0.888-0.885h5.325c0.49,0,0.888,0.397,0.888,0.885v3.551c0,0.488-0.398,0.888-0.888,0.888h-5.325
		C18.857,42.6,18.458,42.2,18.458,41.712L18.458,41.712z M18.458,31.062v-3.549c0-0.49,0.398-0.888,0.888-0.888h4.639
		c0.435,0,0.805,0.314,0.877,0.74l0.591,3.549c0.009,0.05,0.011,0.099,0.011,0.147c0,0.49-0.398,0.89-0.886,0.89h-5.233
		C18.857,31.952,18.458,31.552,18.458,31.062L18.458,31.062z"/>
	<path d="M23.076,53.562c0.591-0.075,1.183-0.119,1.776-0.132c0.594,0.013,1.187,0.057,1.774,0.132l5.899,1.244
		c0.981,0.207,1.977,0.308,2.977,0.31c1-0.002,1.996-0.103,2.977-0.31l5.897-1.244c0.591-0.075,1.183-0.119,1.776-0.132
		c0.594,0.013,1.185,0.057,1.774,0.132l5.899,1.244c0.978,0.207,1.975,0.308,2.975,0.31v1.686c-1.114-0.002-2.227-0.114-3.32-0.343
		l-5.831-1.231c-0.497-0.059-0.996-0.097-1.497-0.112c-0.501,0.016-1.001,0.053-1.499,0.112l-5.829,1.231
		c-1.093,0.228-2.205,0.341-3.322,0.343c-1.117-0.002-2.23-0.114-3.322-0.343l-5.831-1.231c-0.495-0.059-0.996-0.097-1.497-0.112
		c-0.501,0.016-1,0.053-1.499,0.112l-5.829,1.231c-1.095,0.228-2.207,0.341-3.324,0.343v-1.686c1-0.002,1.999-0.103,2.979-0.31
		L23.076,53.562L23.076,53.562z"/>
</g>
<g>
	<path d="M107.09,9.031V62H96.511V27.328h-3.768h-3.769h-3.659h-1.268v-7.681c2.584-0.072,4.691-0.338,6.322-0.797
		c1.63-0.458,3.121-1.208,4.475-2.247c1.956-1.497,3.272-4.021,3.949-7.572H107.09z"/>
	<path d="M158.356,22.255h-10.072c-0.941-4.082-3.261-6.123-6.956-6.123c-3.913,0-6.69,2.404-8.333,7.21
		c-0.677,1.956-1.22,4.915-1.63,8.876c1.594-2.15,3.29-3.696,5.09-4.638c1.799-0.942,3.968-1.413,6.504-1.413
		c4.975,0,8.973,1.764,11.992,5.29c2.874,3.333,4.312,7.512,4.312,12.537c0,5.966-1.933,10.76-5.797,14.383
		c-3.479,3.261-7.657,4.892-12.536,4.892c-6.256,0-11.123-2.361-14.601-7.083c-3.479-4.722-5.218-11.31-5.218-19.764
		c0-9.034,1.86-16.111,5.58-21.231c3.599-4.951,8.514-7.427,14.745-7.427c5.87,0,10.362,1.969,13.479,5.905
		C156.702,15.939,157.85,18.801,158.356,22.255z M140.423,34.393c-2.536,0-4.554,1.063-6.051,3.188
		c-1.354,1.884-2.029,4.13-2.029,6.738c0,2.585,0.688,4.844,2.065,6.775c1.497,2.15,3.551,3.225,6.159,3.225
		c2.536,0,4.577-1.026,6.123-3.079c1.449-1.933,2.174-4.215,2.174-6.848c0-2.585-0.652-4.795-1.957-6.631
		C145.313,35.516,143.151,34.393,140.423,34.393z"/>
	<path d="M199.225,9.031v8.985c-0.29,0.314-1.147,1.292-2.572,2.935c-1.98,2.271-3.949,5.127-5.905,8.569
		c-1.957,3.442-3.479,6.745-4.565,9.909c-2.295,6.594-3.684,14.118-4.166,22.571h-10.942c0.073-3.985,0.767-8.405,2.084-13.26
		c1.315-4.855,3.134-9.71,5.452-14.565c3.309-6.859,6.666-11.968,10.072-15.325h-24.999V9.031H199.225z"/>
</g>
</svg>
