<?xml version="1.0" encoding="utf-8"?>
<!-- Generator: Adobe Illustrator 25.1.0, SVG Export Plug-In . SVG Version: 6.00 Build 0)  -->
<svg version="1.0" id="Ebene_1" xmlns="http://www.w3.org/2000/svg" xmlns:xlink="http://www.w3.org/1999/xlink" x="0px" y="0px"
	 viewBox="0 0 210 71" enable-background="new 0 0 210 71" xml:space="preserve">
<rect id="background-white" fill="#FFFFFF" width="210" height="71"/>
<g id="BAT:background-white:999">
	<path d="M11.18,24.919c0.602,0,1.091,0.489,1.091,1.091v4.361c0,0.602-0.489,1.093-1.091,1.093H9v6.542h2.18
		c0.602,0,1.091,0.488,1.091,1.088v4.363c0,0.602-0.489,1.091-1.091,1.091H9v13.306c1.086-0.003,2.169-0.114,3.236-0.335
		l7.327-1.547c0.84-0.108,1.683-0.173,2.526-0.192c0.843,0.019,1.686,0.084,2.526,0.192l7.329,1.547
		c1.062,0.221,2.145,0.332,3.231,0.335c1.086-0.003,2.169-0.114,3.234-0.335l7.33-1.547c0.835-0.108,1.677-0.173,2.523-0.192
		c0.846,0.019,1.689,0.084,2.523,0.192l4.671,0.986L62,44.549H35.719l-1.091-6.542h3.817v-6.542H25.031l-1.091-6.545h1.526
		c0.602,0,1.091-0.489,1.091-1.091c0-0.602-0.489-1.091-1.091-1.091H9v2.182H11.18L11.18,24.919z M24.923,43.458v-4.363
		c0-0.6,0.489-1.088,1.089-1.088h5.703c0.532,0,0.986,0.383,1.075,0.91l0.727,4.363c0.008,0.06,0.016,0.119,0.016,0.178
		c0,0.6-0.489,1.091-1.091,1.091h-6.43C25.412,44.549,24.923,44.057,24.923,43.458L24.923,43.458z M14.233,43.458v-4.363
		c0-0.6,0.489-1.088,1.091-1.088h6.544c0.602,0,1.091,0.488,1.091,1.088v4.363c0,0.6-0.489,1.091-1.091,1.091h-6.544
		C14.722,44.549,14.233,44.057,14.233,43.458L14.233,43.458z M14.233,30.371V26.01c0-0.602,0.489-1.091,1.091-1.091h5.701
		c0.535,0,0.989,0.386,1.078,0.91l0.727,4.361c0.011,0.062,0.014,0.121,0.014,0.181c0,0.602-0.489,1.093-1.088,1.093h-6.43
		C14.722,31.464,14.233,30.973,14.233,30.371L14.233,30.371z"/>
	<path d="M19.907,58.02c0.727-0.092,1.454-0.146,2.183-0.162c0.73,0.016,1.459,0.07,2.18,0.162l7.249,1.528
		c1.205,0.254,2.429,0.378,3.658,0.381c1.229-0.002,2.453-0.127,3.658-0.381l7.246-1.528c0.727-0.092,1.454-0.146,2.183-0.162
		c0.73,0.016,1.456,0.07,2.18,0.162l7.249,1.528c1.202,0.254,2.426,0.378,3.655,0.381V62c-1.369-0.003-2.737-0.14-4.08-0.421
		l-7.165-1.512c-0.611-0.073-1.224-0.119-1.84-0.138c-0.616,0.019-1.229,0.065-1.843,0.138l-7.163,1.512
		c-1.343,0.281-2.71,0.419-4.082,0.421c-1.373-0.003-2.74-0.14-4.083-0.421l-7.165-1.512c-0.608-0.073-1.224-0.119-1.84-0.138
		c-0.616,0.019-1.229,0.065-1.843,0.138l-7.163,1.512C11.74,61.86,10.373,61.997,9,62v-2.071c1.229-0.002,2.456-0.127,3.661-0.381
		L19.907,58.02L19.907,58.02z"/>
</g>
<g>
	<path d="M117.996,52.58V62h-38.15c0-2.874,0.464-5.615,1.395-8.224c0.93-2.609,2.24-4.855,3.931-6.739
		c1.304-1.449,2.831-2.862,4.583-4.239c1.751-1.377,5.235-3.9,10.453-7.572c2.535-1.763,4.311-3.406,5.325-4.927
		c1.014-1.521,1.521-3.285,1.521-5.29c0-2.319-0.683-4.197-2.046-5.634c-1.364-1.437-3.158-2.156-5.38-2.156
		c-5.459,0-8.273,3.925-8.441,11.775H81.005c0-0.507,0-0.894,0-1.16c0-6.424,1.799-11.4,5.398-14.927
		c3.501-3.429,8.031-5.145,13.586-5.145c4.927,0,9.044,1.401,12.354,4.203c3.599,3.043,5.398,7.137,5.398,12.282
		c0,4.492-1.438,8.357-4.312,11.594c-0.942,1.063-1.824,1.915-2.645,2.555c-0.821,0.64-2.983,2.18-6.485,4.619
		c-3.333,2.318-5.719,4.094-7.155,5.326c-1.438,1.231-2.772,2.645-4.004,4.238H117.996z"/>
	<path d="M130.314,33.559c-2.464-0.845-4.354-2.234-5.67-4.167c-1.317-1.932-1.975-4.275-1.975-7.029
		c0-4.589,1.884-8.248,5.651-10.978c3.333-2.415,7.294-3.623,11.884-3.623c5.217,0,9.479,1.437,12.789,4.311
		c3.14,2.706,4.71,6.051,4.71,10.036c0,2.778-0.664,5.157-1.992,7.137c-1.329,1.981-3.213,3.418-5.652,4.312
		c1.908,0.556,3.466,1.268,4.674,2.138c3.357,2.44,5.036,6.002,5.036,10.688c0,5.387-2.065,9.674-6.195,12.862
		c-3.479,2.681-7.947,4.021-13.405,4.021c-5.918,0-10.628-1.474-14.13-4.42c-3.647-3.067-5.471-7.089-5.471-12.065
		c0-4.661,1.618-8.272,4.854-10.833C126.896,34.815,128.526,34.018,130.314,33.559z M139.987,37.545
		c-2.608,0-4.74,0.803-6.395,2.409s-2.481,3.665-2.481,6.177c0,2.585,0.839,4.687,2.518,6.305s3.858,2.428,6.54,2.428
		c3.043,0,5.326-0.894,6.848-2.682c1.473-1.715,2.21-3.695,2.21-5.941c0-2.561-0.846-4.661-2.536-6.305
		C145.072,38.342,142.838,37.545,139.987,37.545z M140.061,15.987c-2.319,0-4.191,0.646-5.616,1.938
		c-1.426,1.292-2.138,2.989-2.138,5.09c0,2.198,0.719,3.955,2.156,5.271c1.437,1.317,3.363,1.975,5.778,1.975
		s4.323-0.652,5.725-1.957c1.4-1.304,2.102-3.08,2.102-5.326c0-2.198-0.707-3.913-2.12-5.145S142.572,15.987,140.061,15.987z"/>
	<path d="M163.284,48.704h9.999c0.821,4.106,3.2,6.159,7.138,6.159c2.222,0,4.027-0.755,5.417-2.265
		c1.389-1.51,2.457-3.858,3.206-7.047c0.482-2.029,0.833-4.335,1.051-6.92c-1.619,2.271-3.279,3.883-4.981,4.837
		c-1.703,0.954-3.774,1.431-6.214,1.431c-3.89,0-7.271-1.135-10.145-3.405c-2.005-1.595-3.568-3.659-4.692-6.196
		c-1.123-2.536-1.685-5.29-1.685-8.261c0-5.965,2.041-10.797,6.123-14.492c3.502-3.188,7.705-4.782,12.608-4.782
		c3.019,0,5.809,0.676,8.369,2.029c2.56,1.353,4.71,3.273,6.449,5.761c3.067,4.42,4.602,10.628,4.602,18.622
		c0,7.392-1.354,13.695-4.059,18.913c-3.526,6.787-8.864,10.181-16.014,10.181c-4.759,0-8.689-1.316-11.793-3.949
		S163.767,53.148,163.284,48.704z M180.892,16.712c-2.271,0-4.19,0.93-5.761,2.79c-1.57,1.884-2.354,4.275-2.354,7.174
		c0,2.343,0.567,4.42,1.703,6.231c1.545,2.488,3.719,3.732,6.521,3.732c2.536,0,4.564-1.015,6.086-3.043
		c1.426-1.908,2.138-4.178,2.138-6.811c0-2.777-0.736-5.132-2.21-7.065C185.469,17.714,183.428,16.712,180.892,16.712z"/>
</g>
</svg>
