<svg xmlns="http://www.w3.org/2000/svg" xml:space="preserve" version="1.0" viewBox="0 0 210 71"><path fill="#FFFFFF" d="M0 0H210V71H0z" class="sbb-vm-color-white"/><path d="M60.35,7.1c1.952,0,3.55,1.598,3.55,3.55v49.7c0,1.953-1.597,3.55-3.55,3.55h-49.7c-1.953,0-3.55-1.597-3.55-3.55v-49.7 c0-1.952,1.597-3.55,3.55-3.55H60.35 M60.35,6.213h-49.7c-2.447,0-4.438,1.991-4.438,4.437v49.7c0,2.447,1.991,4.438,4.438,4.438 h49.7c2.447,0,4.437-1.991,4.437-4.438v-49.7C64.787,8.203,62.797,6.213,60.35,6.213L60.35,6.213z" class="sbb-vm-color-black"/><path d="M15.974 26.625c.49 0 .888.398.888.888v3.549c0 .49-.398.89-.888.89H14.2v5.324h1.774c.49 0 .888.397.888.885v3.551c0 .49-.398.888-.888.888H14.2v10.828c.884-.002 1.765-.092 2.634-.272l5.962-1.259c.684-.088 1.37-.141 2.055-.156.686.015 1.372.068 2.056.156l5.964 1.259c.864.18 1.746.27 2.63.272.884-.002 1.765-.092 2.631-.272l5.965-1.259c.679-.088 1.365-.141 2.053-.156.688.015 1.374.068 2.053.156l3.801.802L57.33 42.6H35.943l-.888-5.324h3.106v-5.324H27.246l-.888-5.326H27.6c.49 0 .888-.398.888-.888 0-.49-.398-.888-.888-.888H14.2v1.775H15.974L15.974 26.625zM27.158 41.712v-3.551c0-.488.398-.885.886-.885h4.641c.433 0 .802.312.875.74l.592 3.551c.006.048.013.097.013.145 0 .488-.398.888-.888.888h-5.232C27.556 42.6 27.158 42.2 27.158 41.712L27.158 41.712zM18.458 41.712v-3.551c0-.488.398-.885.888-.885h5.325c.49 0 .888.397.888.885v3.551c0 .488-.398.888-.888.888h-5.325C18.857 42.6 18.458 42.2 18.458 41.712L18.458 41.712zM18.458 31.062v-3.549c0-.49.398-.888.888-.888h4.639c.435 0 .805.314.877.74l.591 3.549c.009.05.011.099.011.147 0 .49-.398.89-.886.89h-5.233C18.857 31.952 18.458 31.552 18.458 31.062L18.458 31.062zM23.076 53.562c.591-.075 1.183-.119 1.776-.132.594.013 1.187.057 1.774.132l5.899 1.244c.981.207 1.977.308 2.977.31 1-.002 1.996-.103 2.977-.31l5.897-1.244c.591-.075 1.183-.119 1.776-.132.594.013 1.185.057 1.774.132l5.899 1.244c.978.207 1.975.308 2.975.31v1.686c-1.114-.002-2.227-.114-3.32-.343l-5.831-1.231c-.497-.059-.996-.097-1.497-.112-.501.016-1.001.053-1.499.112l-5.829 1.231c-1.093.228-2.205.341-3.322.343-1.117-.002-2.23-.114-3.322-.343l-5.831-1.231c-.495-.059-.996-.097-1.497-.112-.501.016-1 .053-1.499.112l-5.829 1.231c-1.095.228-2.207.341-3.324.343v-1.686c1-.002 1.999-.103 2.979-.31L23.076 53.562 23.076 53.562zM110.709 52.58V62H72.558c0-2.874.464-5.615 1.395-8.224.93-2.609 2.24-4.855 3.931-6.739 1.304-1.449 2.831-2.862 4.583-4.239 1.751-1.377 5.235-3.9 10.453-7.572 2.535-1.763 4.311-3.406 5.325-4.927s1.521-3.285 1.521-5.29c0-2.319-.683-4.197-2.047-5.634s-3.158-2.156-5.38-2.156c-5.459 0-8.273 3.925-8.441 11.775H73.717c0-.507 0-.894 0-1.16 0-6.424 1.799-11.4 5.398-14.927 3.501-3.429 8.031-5.145 13.586-5.145 4.927 0 9.045 1.401 12.354 4.203 3.599 3.043 5.398 7.137 5.398 12.282 0 4.492-1.438 8.357-4.312 11.594-.942 1.063-1.824 1.915-2.645 2.555-.821.64-2.983 2.18-6.485 4.619-3.333 2.318-5.719 4.094-7.155 5.326-1.438 1.231-2.772 2.645-4.004 4.238H110.709zM151.069 22.255h-10.072c-.941-4.082-3.261-6.123-6.956-6.123-3.913 0-6.69 2.404-8.333 7.21-.677 1.956-1.22 4.915-1.63 8.876 1.594-2.15 3.29-3.696 5.09-4.638 1.799-.942 3.968-1.413 6.504-1.413 4.975 0 8.973 1.764 11.992 5.29 2.874 3.333 4.312 7.512 4.312 12.537 0 5.966-1.933 10.76-5.797 14.383-3.479 3.261-7.657 4.892-12.536 4.892-6.256 0-11.123-2.361-14.601-7.083-3.479-4.722-5.218-11.31-5.218-19.764 0-9.034 1.86-16.111 5.58-21.231 3.599-4.951 8.514-7.427 14.745-7.427 5.87 0 10.362 1.969 13.479 5.905C149.415 15.939 150.562 18.801 151.069 22.255zM133.136 34.393c-2.536 0-4.554 1.063-6.051 3.188-1.354 1.884-2.029 4.13-2.029 6.738 0 2.585.688 4.844 2.065 6.775 1.497 2.15 3.551 3.225 6.159 3.225 2.536 0 4.577-1.026 6.123-3.079 1.449-1.933 2.174-4.215 2.174-6.848 0-2.585-.652-4.795-1.957-6.631C138.026 35.516 135.864 34.393 133.136 34.393zM193.713 40.95v8.949h-6.666V62h-10.326V49.899H154.62v-9.928l22.644-30.94h9.783V40.95H193.713zM176.938 41.059V21.35l-13.623 19.709H176.938z" class="sbb-vm-color-black"/></svg>