<?xml version="1.0" encoding="utf-8"?><svg version="1.0" xmlns="http://www.w3.org/2000/svg" xmlns:xlink="http://www.w3.org/1999/xlink" x="0px" y="0px" viewBox="0 0 210 71" enable-background="new 0 0 210 71" xml:space="preserve"> <g> <rect fill="#FFFFFF" width="210" height="71" class="sbb-vm-color-white"></rect> <path d="M60.35,7.1c1.952,0,3.55,1.598,3.55,3.55v49.7c0,1.953-1.597,3.55-3.55,3.55h-49.7c-1.953,0-3.55-1.597-3.55-3.55v-49.7 c0-1.952,1.597-3.55,3.55-3.55H60.35 M60.35,6.213h-49.7c-2.447,0-4.438,1.991-4.438,4.437v49.7c0,2.447,1.991,4.438,4.438,4.438 h49.7c2.447,0,4.437-1.991,4.437-4.438v-49.7C64.787,8.203,62.797,6.213,60.35,6.213L60.35,6.213z" class="sbb-vm-color-black"></path> <path d="M15.974,26.625c0.49,0,0.888,0.398,0.888,0.888v3.549c0,0.49-0.398,0.89-0.888,0.89H14.2v5.324h1.774 c0.49,0,0.888,0.397,0.888,0.885v3.551c0,0.49-0.398,0.888-0.888,0.888H14.2v10.828c0.884-0.002,1.765-0.092,2.634-0.272 l5.962-1.259c0.684-0.088,1.37-0.141,2.055-0.156c0.686,0.015,1.372,0.068,2.056,0.156l5.964,1.259 c0.864,0.18,1.746,0.27,2.63,0.272c0.884-0.002,1.765-0.092,2.631-0.272l5.965-1.259c0.679-0.088,1.365-0.141,2.053-0.156 c0.688,0.015,1.374,0.068,2.053,0.156l3.801,0.802L57.33,42.6H35.943l-0.888-5.324h3.106v-5.324H27.246l-0.888-5.326H27.6 c0.49,0,0.888-0.398,0.888-0.888c0-0.49-0.398-0.888-0.888-0.888H14.2v1.775H15.974L15.974,26.625z M27.158,41.712v-3.551 c0-0.488,0.398-0.885,0.886-0.885h4.641c0.433,0,0.802,0.312,0.875,0.74l0.592,3.551c0.006,0.048,0.013,0.097,0.013,0.145 c0,0.488-0.398,0.888-0.888,0.888h-5.232C27.556,42.6,27.158,42.2,27.158,41.712L27.158,41.712z M18.458,41.712v-3.551 c0-0.488,0.398-0.885,0.888-0.885h5.325c0.49,0,0.888,0.397,0.888,0.885v3.551c0,0.488-0.398,0.888-0.888,0.888h-5.325 C18.857,42.6,18.458,42.2,18.458,41.712L18.458,41.712z M18.458,31.062v-3.549c0-0.49,0.398-0.888,0.888-0.888h4.639 c0.435,0,0.805,0.314,0.877,0.74l0.591,3.549c0.009,0.05,0.011,0.099,0.011,0.147c0,0.49-0.398,0.89-0.886,0.89h-5.233 C18.857,31.952,18.458,31.552,18.458,31.062L18.458,31.062z" class="sbb-vm-color-black"></path> <path d="M23.076,53.562c0.591-0.075,1.183-0.119,1.776-0.132c0.594,0.013,1.187,0.057,1.774,0.132l5.899,1.244 c0.981,0.207,1.977,0.308,2.977,0.31c1-0.002,1.996-0.103,2.977-0.31l5.897-1.244c0.591-0.075,1.183-0.119,1.776-0.132 c0.594,0.013,1.185,0.057,1.774,0.132l5.899,1.244c0.978,0.207,1.975,0.308,2.975,0.31v1.686c-1.114-0.002-2.227-0.114-3.32-0.343 l-5.831-1.231c-0.497-0.059-0.996-0.097-1.497-0.112c-0.501,0.016-1.001,0.053-1.499,0.112l-5.829,1.231 c-1.093,0.228-2.205,0.341-3.322,0.343c-1.117-0.002-2.23-0.114-3.322-0.343l-5.831-1.231c-0.495-0.059-0.996-0.097-1.497-0.112 c-0.501,0.016-1,0.053-1.499,0.112l-5.829,1.231c-1.095,0.228-2.207,0.341-3.324,0.343v-1.686c1-0.002,1.999-0.103,2.979-0.31 L23.076,53.562L23.076,53.562z" class="sbb-vm-color-black"></path> </g> <g> <path d="M110.709,52.58V62H72.558c0-2.874,0.464-5.615,1.395-8.224c0.93-2.609,2.24-4.855,3.931-6.739 c1.304-1.449,2.831-2.862,4.583-4.239c1.751-1.377,5.235-3.9,10.453-7.572c2.535-1.763,4.311-3.406,5.325-4.927 s1.521-3.285,1.521-5.29c0-2.319-0.683-4.197-2.047-5.634s-3.158-2.156-5.38-2.156c-5.459,0-8.273,3.925-8.441,11.775H73.717 c0-0.507,0-0.894,0-1.16c0-6.424,1.799-11.4,5.398-14.927c3.501-3.429,8.031-5.145,13.586-5.145c4.927,0,9.045,1.401,12.354,4.203 c3.599,3.043,5.398,7.137,5.398,12.282c0,4.492-1.438,8.357-4.312,11.594c-0.942,1.063-1.824,1.915-2.645,2.555 c-0.821,0.64-2.983,2.18-6.485,4.619c-3.333,2.318-5.719,4.094-7.155,5.326c-1.438,1.231-2.772,2.645-4.004,4.238H110.709z" class="sbb-vm-color-black"></path> <path d="M114.947,25.806c0.121-4.348,1.196-7.994,3.225-10.941c3.285-4.734,8.225-7.101,14.818-7.101 c5.072,0,9.166,1.292,12.282,3.876c3.357,2.802,5.036,6.425,5.036,10.869c0,2.657-0.658,4.945-1.975,6.866 s-3.098,3.219-5.344,3.895c2.85,0.652,5.103,2.102,6.757,4.348c1.654,2.246,2.481,4.964,2.481,8.151 c0,5.242-1.933,9.529-5.797,12.862c-3.574,3.092-8.092,4.638-13.55,4.638c-5.918,0-10.61-1.703-14.075-5.108 c-3.467-3.406-5.199-8.007-5.199-13.804c0-0.121,0-0.351,0-0.688h10.181c0,3.261,0.772,5.778,2.318,7.554s3.732,2.663,6.558,2.663 c2.826,0,5-0.833,6.521-2.5c1.4-1.57,2.102-3.442,2.102-5.616c0-2.608-0.894-4.673-2.681-6.195 c-1.474-1.255-3.744-1.884-6.812-1.884c-0.87,0-1.728,0.049-2.572,0.146v-7.79c0.628,0.048,1.231,0.072,1.812,0.072 c6.087,0,9.13-2.258,9.13-6.775c0-1.98-0.665-3.581-1.993-4.801c-1.328-1.219-3.079-1.83-5.253-1.83 c-2.488,0-4.408,0.773-5.761,2.319c-1.353,1.546-2.077,3.804-2.174,6.775H114.947z" class="sbb-vm-color-black"></path> <path d="M193.242,52.58V62h-38.151c0-2.874,0.465-5.615,1.396-8.224c0.929-2.609,2.239-4.855,3.931-6.739 c1.305-1.449,2.832-2.862,4.583-4.239s5.235-3.9,10.453-7.572c2.535-1.763,4.311-3.406,5.325-4.927s1.521-3.285,1.521-5.29 c0-2.319-0.683-4.197-2.047-5.634s-3.158-2.156-5.38-2.156c-5.459,0-8.273,3.925-8.441,11.775H156.25c0-0.507,0-0.894,0-1.16 c0-6.424,1.8-11.4,5.398-14.927c3.502-3.429,8.031-5.145,13.587-5.145c4.927,0,9.045,1.401,12.354,4.203 c3.599,3.043,5.398,7.137,5.398,12.282c0,4.492-1.438,8.357-4.312,11.594c-0.942,1.063-1.824,1.915-2.645,2.555 c-0.821,0.64-2.983,2.18-6.485,4.619c-3.333,2.318-5.719,4.094-7.155,5.326c-1.438,1.231-2.772,2.645-4.004,4.238H193.242z" class="sbb-vm-color-black"></path> </g> </svg>