<?xml version="1.0" encoding="utf-8"?><svg version="1.0" xmlns="http://www.w3.org/2000/svg" xmlns:xlink="http://www.w3.org/1999/xlink" x="0px" y="0px" viewBox="0 0 210 71" enable-background="new 0 0 210 71" xml:space="preserve"> <g> <rect fill="#FFFFFF" width="210" height="71" class="sbb-vm-color-white"></rect> <path d="M60.35,7.1c1.952,0,3.55,1.598,3.55,3.55v49.7c0,1.953-1.597,3.55-3.55,3.55h-49.7c-1.953,0-3.55-1.597-3.55-3.55v-49.7 c0-1.952,1.597-3.55,3.55-3.55H60.35 M60.35,6.213h-49.7c-2.447,0-4.438,1.991-4.438,4.437v49.7c0,2.447,1.991,4.438,4.438,4.438 h49.7c2.447,0,4.437-1.991,4.437-4.438v-49.7C64.787,8.203,62.797,6.213,60.35,6.213L60.35,6.213z" class="sbb-vm-color-black"></path> <path d="M15.974,26.625c0.49,0,0.888,0.398,0.888,0.888v3.549c0,0.49-0.398,0.89-0.888,0.89H14.2v5.324h1.774 c0.49,0,0.888,0.397,0.888,0.885v3.551c0,0.49-0.398,0.888-0.888,0.888H14.2v10.828c0.884-0.002,1.765-0.092,2.634-0.272 l5.962-1.259c0.684-0.088,1.37-0.141,2.055-0.156c0.686,0.015,1.372,0.068,2.056,0.156l5.964,1.259 c0.864,0.18,1.746,0.27,2.63,0.272c0.884-0.002,1.765-0.092,2.631-0.272l5.965-1.259c0.679-0.088,1.365-0.141,2.053-0.156 c0.688,0.015,1.374,0.068,2.053,0.156l3.801,0.802L57.33,42.6H35.943l-0.888-5.324h3.106v-5.324H27.246l-0.888-5.326H27.6 c0.49,0,0.888-0.398,0.888-0.888c0-0.49-0.398-0.888-0.888-0.888H14.2v1.775H15.974L15.974,26.625z M27.158,41.712v-3.551 c0-0.488,0.398-0.885,0.886-0.885h4.641c0.433,0,0.802,0.312,0.875,0.74l0.592,3.551c0.006,0.048,0.013,0.097,0.013,0.145 c0,0.488-0.398,0.888-0.888,0.888h-5.232C27.556,42.6,27.158,42.2,27.158,41.712L27.158,41.712z M18.458,41.712v-3.551 c0-0.488,0.398-0.885,0.888-0.885h5.325c0.49,0,0.888,0.397,0.888,0.885v3.551c0,0.488-0.398,0.888-0.888,0.888h-5.325 C18.857,42.6,18.458,42.2,18.458,41.712L18.458,41.712z M18.458,31.062v-3.549c0-0.49,0.398-0.888,0.888-0.888h4.639 c0.435,0,0.805,0.314,0.877,0.74l0.591,3.549c0.009,0.05,0.011,0.099,0.011,0.147c0,0.49-0.398,0.89-0.886,0.89h-5.233 C18.857,31.952,18.458,31.552,18.458,31.062L18.458,31.062z" class="sbb-vm-color-black"></path> <path d="M23.076,53.562c0.591-0.075,1.183-0.119,1.776-0.132c0.594,0.013,1.187,0.057,1.774,0.132l5.899,1.244 c0.981,0.207,1.977,0.308,2.977,0.31c1-0.002,1.996-0.103,2.977-0.31l5.897-1.244c0.591-0.075,1.183-0.119,1.776-0.132 c0.594,0.013,1.185,0.057,1.774,0.132l5.899,1.244c0.978,0.207,1.975,0.308,2.975,0.31v1.686c-1.114-0.002-2.227-0.114-3.32-0.343 l-5.831-1.231c-0.497-0.059-0.996-0.097-1.497-0.112c-0.501,0.016-1.001,0.053-1.499,0.112l-5.829,1.231 c-1.093,0.228-2.205,0.341-3.322,0.343c-1.117-0.002-2.23-0.114-3.322-0.343l-5.831-1.231c-0.495-0.059-0.996-0.097-1.497-0.112 c-0.501,0.016-1,0.053-1.499,0.112l-5.829,1.231c-1.095,0.228-2.207,0.341-3.324,0.343v-1.686c1-0.002,1.999-0.103,2.979-0.31 L23.076,53.562L23.076,53.562z" class="sbb-vm-color-black"></path> </g> <g> <path d="M73.681,25.806c0.121-4.348,1.195-7.994,3.225-10.941c3.284-4.734,8.224-7.101,14.818-7.101 c5.072,0,9.166,1.292,12.282,3.876c3.357,2.802,5.036,6.425,5.036,10.869c0,2.657-0.658,4.945-1.975,6.866 s-3.098,3.219-5.344,3.895c2.85,0.652,5.103,2.102,6.757,4.348c1.654,2.246,2.481,4.964,2.481,8.151 c0,5.242-1.933,9.529-5.797,12.862c-3.574,3.092-8.092,4.638-13.55,4.638c-5.918,0-10.61-1.703-14.076-5.108 c-3.466-3.406-5.199-8.007-5.199-13.804c0-0.121,0-0.351,0-0.688h10.181c0,3.261,0.772,5.778,2.318,7.554s3.732,2.663,6.558,2.663 c2.826,0,5-0.833,6.521-2.5c1.4-1.57,2.102-3.442,2.102-5.616c0-2.608-0.894-4.673-2.681-6.195 c-1.474-1.255-3.744-1.884-6.812-1.884c-0.87,0-1.728,0.049-2.572,0.146v-7.79c0.628,0.048,1.231,0.072,1.812,0.072 c6.087,0,9.13-2.258,9.13-6.775c0-1.98-0.665-3.581-1.993-4.801c-1.328-1.219-3.079-1.83-5.253-1.83 c-2.488,0-4.408,0.773-5.761,2.319c-1.353,1.546-2.077,3.804-2.174,6.775H73.681z" class="sbb-vm-color-black"></path> <path d="M114.73,48.704h9.999c0.821,4.106,3.2,6.159,7.138,6.159c2.222,0,4.027-0.755,5.417-2.265 c1.389-1.51,2.457-3.858,3.206-7.047c0.482-2.029,0.833-4.335,1.051-6.92c-1.619,2.271-3.279,3.883-4.981,4.837 c-1.703,0.954-3.774,1.431-6.214,1.431c-3.89,0-7.271-1.135-10.145-3.405c-2.005-1.595-3.568-3.659-4.692-6.196 c-1.123-2.536-1.685-5.29-1.685-8.261c0-5.965,2.041-10.797,6.123-14.492c3.502-3.188,7.705-4.782,12.608-4.782 c3.019,0,5.809,0.676,8.369,2.029c2.56,1.353,4.71,3.273,6.449,5.761c3.067,4.42,4.602,10.628,4.602,18.622 c0,7.392-1.354,13.695-4.059,18.913c-3.526,6.787-8.864,10.181-16.014,10.181c-4.759,0-8.689-1.316-11.793-3.949 S115.213,53.148,114.73,48.704z M132.338,16.712c-2.271,0-4.19,0.93-5.761,2.79c-1.57,1.884-2.354,4.275-2.354,7.174 c0,2.343,0.567,4.42,1.703,6.231c1.545,2.488,3.719,3.732,6.521,3.732c2.536,0,4.564-1.015,6.086-3.043 c1.426-1.908,2.138-4.178,2.138-6.811c0-2.777-0.736-5.132-2.21-7.065C136.915,17.714,134.874,16.712,132.338,16.712z" class="sbb-vm-color-black"></path> <path d="M164.294,33.559c-2.464-0.845-4.354-2.234-5.67-4.167c-1.317-1.932-1.975-4.275-1.975-7.029 c0-4.589,1.884-8.248,5.651-10.978c3.333-2.415,7.294-3.623,11.884-3.623c5.217,0,9.479,1.437,12.789,4.311 c3.14,2.706,4.71,6.051,4.71,10.036c0,2.778-0.664,5.157-1.992,7.137c-1.329,1.981-3.213,3.418-5.652,4.312 c1.908,0.556,3.466,1.268,4.674,2.138c3.357,2.44,5.036,6.002,5.036,10.688c0,5.387-2.065,9.674-6.195,12.862 c-3.479,2.681-7.947,4.021-13.405,4.021c-5.918,0-10.628-1.474-14.13-4.42c-3.647-3.067-5.471-7.089-5.471-12.065 c0-4.661,1.618-8.272,4.854-10.833C160.876,34.815,162.506,34.018,164.294,33.559z M173.967,37.545 c-2.608,0-4.74,0.803-6.395,2.409s-2.481,3.665-2.481,6.177c0,2.585,0.839,4.687,2.518,6.305s3.858,2.428,6.54,2.428 c3.043,0,5.326-0.894,6.848-2.682c1.473-1.715,2.21-3.695,2.21-5.941c0-2.561-0.846-4.661-2.536-6.305 C179.052,38.342,176.817,37.545,173.967,37.545z M174.04,15.987c-2.319,0-4.191,0.646-5.616,1.938 c-1.426,1.292-2.138,2.989-2.138,5.09c0,2.198,0.719,3.955,2.156,5.271c1.437,1.317,3.363,1.975,5.778,1.975 s4.323-0.652,5.725-1.957c1.4-1.304,2.102-3.08,2.102-5.326c0-2.198-0.707-3.913-2.12-5.145S176.552,15.987,174.04,15.987z" class="sbb-vm-color-black"></path> </g> </svg>