<?xml version="1.0" encoding="utf-8"?>
<!-- Generator: Adobe Illustrator 27.0.0, SVG Export Plug-In . SVG Version: 6.00 Build 0)  -->
<svg version="1.0" id="Ebene_1" xmlns="http://www.w3.org/2000/svg" xmlns:xlink="http://www.w3.org/1999/xlink" x="0px" y="0px"
	 viewBox="0 0 210 71" enable-background="new 0 0 210 71" xml:space="preserve">
<g id="bat">
	<rect id="background-white_00000152248260606427643310000018031968278999259326_" fill="#FFFFFF" width="210" height="71"/>
	<path d="M60.35,7.1c1.952,0,3.55,1.598,3.55,3.55v49.7c0,1.953-1.597,3.55-3.55,3.55h-49.7c-1.953,0-3.55-1.597-3.55-3.55v-49.7
		c0-1.952,1.597-3.55,3.55-3.55H60.35 M60.35,6.213h-49.7c-2.447,0-4.438,1.991-4.438,4.437v49.7c0,2.447,1.991,4.438,4.438,4.438
		h49.7c2.447,0,4.437-1.991,4.437-4.438v-49.7C64.787,8.203,62.797,6.213,60.35,6.213L60.35,6.213z"/>
	<path d="M15.974,26.625c0.49,0,0.888,0.398,0.888,0.888v3.549c0,0.49-0.398,0.89-0.888,0.89H14.2v5.324h1.774
		c0.49,0,0.888,0.397,0.888,0.885v3.551c0,0.49-0.398,0.888-0.888,0.888H14.2v10.828c0.884-0.002,1.765-0.092,2.634-0.272
		l5.962-1.259c0.684-0.088,1.37-0.141,2.055-0.156c0.686,0.015,1.372,0.068,2.056,0.156l5.964,1.259
		c0.864,0.18,1.746,0.27,2.63,0.272c0.884-0.002,1.765-0.092,2.631-0.272l5.965-1.259c0.679-0.088,1.365-0.141,2.053-0.156
		c0.688,0.015,1.374,0.068,2.053,0.156l3.801,0.802L57.33,42.6H35.943l-0.888-5.324h3.106v-5.324H27.246l-0.888-5.326H27.6
		c0.49,0,0.888-0.398,0.888-0.888c0-0.49-0.398-0.888-0.888-0.888H14.2v1.775H15.974L15.974,26.625z M27.158,41.712v-3.551
		c0-0.488,0.398-0.885,0.886-0.885h4.641c0.433,0,0.802,0.312,0.875,0.74l0.592,3.551c0.006,0.048,0.013,0.097,0.013,0.145
		c0,0.488-0.398,0.888-0.888,0.888h-5.232C27.556,42.6,27.158,42.2,27.158,41.712L27.158,41.712z M18.458,41.712v-3.551
		c0-0.488,0.398-0.885,0.888-0.885h5.325c0.49,0,0.888,0.397,0.888,0.885v3.551c0,0.488-0.398,0.888-0.888,0.888h-5.325
		C18.857,42.6,18.458,42.2,18.458,41.712L18.458,41.712z M18.458,31.062v-3.549c0-0.49,0.398-0.888,0.888-0.888h4.639
		c0.435,0,0.805,0.314,0.877,0.74l0.591,3.549c0.009,0.05,0.011,0.099,0.011,0.147c0,0.49-0.398,0.89-0.886,0.89h-5.233
		C18.857,31.952,18.458,31.552,18.458,31.062L18.458,31.062z"/>
	<path d="M23.076,53.562c0.591-0.075,1.183-0.119,1.776-0.132c0.594,0.013,1.187,0.057,1.774,0.132l5.899,1.244
		c0.981,0.207,1.977,0.308,2.977,0.31c1-0.002,1.996-0.103,2.977-0.31l5.897-1.244c0.591-0.075,1.183-0.119,1.776-0.132
		c0.594,0.013,1.185,0.057,1.774,0.132l5.899,1.244c0.978,0.207,1.975,0.308,2.975,0.31v1.686c-1.114-0.002-2.227-0.114-3.32-0.343
		l-5.831-1.231c-0.497-0.059-0.996-0.097-1.497-0.112c-0.501,0.016-1.001,0.053-1.499,0.112l-5.829,1.231
		c-1.093,0.228-2.205,0.341-3.322,0.343c-1.117-0.002-2.23-0.114-3.322-0.343l-5.831-1.231c-0.495-0.059-0.996-0.097-1.497-0.112
		c-0.501,0.016-1,0.053-1.499,0.112l-5.829,1.231c-1.095,0.228-2.207,0.341-3.324,0.343v-1.686c1-0.002,1.999-0.103,2.979-0.31
		L23.076,53.562L23.076,53.562z"/>
</g>
<g>
	<path d="M111.18,40.95v8.949h-6.666V62H94.188V49.899H72.087v-9.928L94.73,9.031h9.783V40.95H111.18z M94.405,41.059V21.35
		L80.782,41.059H94.405z"/>
	<path d="M149.33,9.031v9.42h-21.34l-2.282,11.919c2.56-2.705,5.833-4.058,9.818-4.058c3.913,0,7.318,1.051,10.217,3.152
		c4.3,3.165,6.449,7.971,6.449,14.42c0,6.329-2.295,11.341-6.884,15.036c-3.575,2.898-7.85,4.348-12.825,4.348
		c-5.604,0-10.108-1.504-13.515-4.511c-3.405-3.007-5.205-7.07-5.397-12.191h10.397c0.169,1.86,0.773,3.441,1.812,4.746
		c1.618,2.053,3.864,3.079,6.739,3.079c2.777,0,4.976-1.002,6.594-3.007c1.57-1.956,2.355-4.335,2.355-7.138
		c0-3.043-0.822-5.477-2.464-7.3c-1.643-1.824-3.829-2.736-6.558-2.736c-3.333,0-5.931,1.498-7.79,4.493l-9.456-0.145l5.036-29.528
		H149.33z"/>
	<path d="M155.997,48.704h9.999c0.821,4.106,3.2,6.159,7.138,6.159c2.222,0,4.027-0.755,5.417-2.265
		c1.389-1.51,2.457-3.858,3.206-7.047c0.482-2.029,0.833-4.335,1.051-6.92c-1.619,2.271-3.279,3.883-4.981,4.837
		c-1.703,0.954-3.774,1.431-6.214,1.431c-3.89,0-7.271-1.135-10.145-3.405c-2.005-1.595-3.568-3.659-4.692-6.196
		c-1.123-2.536-1.685-5.29-1.685-8.261c0-5.965,2.041-10.797,6.123-14.492c3.502-3.188,7.705-4.782,12.608-4.782
		c3.019,0,5.809,0.676,8.369,2.029c2.56,1.353,4.71,3.273,6.449,5.761c3.067,4.42,4.602,10.628,4.602,18.622
		c0,7.392-1.354,13.695-4.059,18.913c-3.526,6.787-8.864,10.181-16.014,10.181c-4.759,0-8.689-1.316-11.793-3.949
		S156.479,53.148,155.997,48.704z M173.604,16.712c-2.271,0-4.19,0.93-5.761,2.79c-1.57,1.884-2.354,4.275-2.354,7.174
		c0,2.343,0.567,4.42,1.703,6.231c1.545,2.488,3.719,3.732,6.521,3.732c2.536,0,4.564-1.015,6.086-3.043
		c1.426-1.908,2.138-4.178,2.138-6.811c0-2.777-0.736-5.132-2.21-7.065C178.182,17.714,176.141,16.712,173.604,16.712z"/>
</g>
</svg>
