<?xml version="1.0" encoding="utf-8"?>
<!-- Generator: Adobe Illustrator 25.1.0, SVG Export Plug-In . SVG Version: 6.00 Build 0)  -->
<svg version="1.0" id="Ebene_1" xmlns="http://www.w3.org/2000/svg" xmlns:xlink="http://www.w3.org/1999/xlink" x="0px" y="0px"
	 viewBox="0 0 210 71" enable-background="new 0 0 210 71" xml:space="preserve">
<rect id="background-white" fill="#FFFFFF" width="210" height="71"/>
<g id="BAT:background-white:999">
	<path d="M11.18,24.919c0.602,0,1.091,0.489,1.091,1.091v4.361c0,0.602-0.489,1.093-1.091,1.093H9v6.542h2.18
		c0.602,0,1.091,0.488,1.091,1.088v4.363c0,0.602-0.489,1.091-1.091,1.091H9v13.306c1.086-0.003,2.169-0.114,3.236-0.335
		l7.327-1.547c0.84-0.108,1.683-0.173,2.526-0.192c0.843,0.019,1.686,0.084,2.526,0.192l7.329,1.547
		c1.062,0.221,2.145,0.332,3.231,0.335c1.086-0.003,2.169-0.114,3.234-0.335l7.33-1.547c0.835-0.108,1.677-0.173,2.523-0.192
		c0.846,0.019,1.689,0.084,2.523,0.192l4.671,0.986L62,44.549H35.719l-1.091-6.542h3.817v-6.542H25.031l-1.091-6.545h1.526
		c0.602,0,1.091-0.489,1.091-1.091c0-0.602-0.489-1.091-1.091-1.091H9v2.182H11.18L11.18,24.919z M24.923,43.458v-4.363
		c0-0.6,0.489-1.088,1.089-1.088h5.703c0.532,0,0.986,0.383,1.075,0.91l0.727,4.363c0.008,0.06,0.016,0.119,0.016,0.178
		c0,0.6-0.489,1.091-1.091,1.091h-6.43C25.412,44.549,24.923,44.057,24.923,43.458L24.923,43.458z M14.233,43.458v-4.363
		c0-0.6,0.489-1.088,1.091-1.088h6.544c0.602,0,1.091,0.488,1.091,1.088v4.363c0,0.6-0.489,1.091-1.091,1.091h-6.544
		C14.722,44.549,14.233,44.057,14.233,43.458L14.233,43.458z M14.233,30.371V26.01c0-0.602,0.489-1.091,1.091-1.091h5.701
		c0.535,0,0.989,0.386,1.078,0.91l0.727,4.361c0.011,0.062,0.014,0.121,0.014,0.181c0,0.602-0.489,1.093-1.088,1.093h-6.43
		C14.722,31.464,14.233,30.973,14.233,30.371L14.233,30.371z"/>
	<path d="M19.907,58.02c0.727-0.092,1.454-0.146,2.183-0.162c0.73,0.016,1.459,0.07,2.18,0.162l7.249,1.528
		c1.205,0.254,2.429,0.378,3.658,0.381c1.229-0.002,2.453-0.127,3.658-0.381l7.246-1.528c0.727-0.092,1.454-0.146,2.183-0.162
		c0.73,0.016,1.456,0.07,2.18,0.162l7.249,1.528c1.202,0.254,2.426,0.378,3.655,0.381V62c-1.369-0.003-2.737-0.14-4.08-0.421
		l-7.165-1.512c-0.611-0.073-1.224-0.119-1.84-0.138c-0.616,0.019-1.229,0.065-1.843,0.138l-7.163,1.512
		c-1.343,0.281-2.71,0.419-4.082,0.421c-1.373-0.003-2.74-0.14-4.083-0.421l-7.165-1.512c-0.608-0.073-1.224-0.119-1.84-0.138
		c-0.616,0.019-1.229,0.065-1.843,0.138l-7.163,1.512C11.74,61.86,10.373,61.997,9,62v-2.071c1.229-0.002,2.456-0.127,3.661-0.381
		L19.907,58.02L19.907,58.02z"/>
</g>
<g>
	<path d="M118.467,40.95v8.949h-6.666V62h-10.326V49.899H79.375v-9.928l22.644-30.94h9.783V40.95H118.467z M101.693,41.059V21.35
		L88.07,41.059H101.693z"/>
	<path d="M158.356,22.255h-10.072c-0.941-4.082-3.261-6.123-6.956-6.123c-3.913,0-6.69,2.404-8.333,7.21
		c-0.677,1.956-1.22,4.915-1.63,8.876c1.594-2.15,3.29-3.696,5.09-4.638c1.799-0.942,3.968-1.413,6.504-1.413
		c4.975,0,8.973,1.764,11.992,5.29c2.874,3.333,4.312,7.512,4.312,12.537c0,5.966-1.933,10.76-5.797,14.383
		c-3.479,3.261-7.657,4.892-12.536,4.892c-6.256,0-11.123-2.361-14.601-7.083c-3.479-4.722-5.218-11.31-5.218-19.764
		c0-9.034,1.86-16.111,5.58-21.231c3.599-4.951,8.514-7.427,14.745-7.427c5.87,0,10.362,1.969,13.479,5.905
		C156.702,15.939,157.85,18.801,158.356,22.255z M140.423,34.393c-2.536,0-4.554,1.063-6.051,3.188
		c-1.354,1.884-2.029,4.13-2.029,6.738c0,2.585,0.688,4.844,2.065,6.775c1.497,2.15,3.551,3.225,6.159,3.225
		c2.536,0,4.577-1.026,6.123-3.079c1.449-1.933,2.174-4.215,2.174-6.848c0-2.585-0.652-4.795-1.957-6.631
		C145.313,35.516,143.151,34.393,140.423,34.393z"/>
</g>
</svg>
