<svg xmlns="http://www.w3.org/2000/svg" xml:space="preserve" version="1.0" viewBox="0 0 210 71"><path fill="#FFFFFF" d="M0 0H210V71H0z" class="sbb-vm-color-white"/><path d="M60.35,7.1c1.952,0,3.55,1.598,3.55,3.55v49.7c0,1.953-1.597,3.55-3.55,3.55h-49.7c-1.953,0-3.55-1.597-3.55-3.55v-49.7 c0-1.952,1.597-3.55,3.55-3.55H60.35 M60.35,6.213h-49.7c-2.447,0-4.438,1.991-4.438,4.437v49.7c0,2.447,1.991,4.438,4.438,4.438 h49.7c2.447,0,4.437-1.991,4.437-4.438v-49.7C64.787,8.203,62.797,6.213,60.35,6.213L60.35,6.213z" class="sbb-vm-color-black"/><path d="M15.974 26.625c.49 0 .888.398.888.888v3.549c0 .49-.398.89-.888.89H14.2v5.324h1.774c.49 0 .888.397.888.885v3.551c0 .49-.398.888-.888.888H14.2v10.828c.884-.002 1.765-.092 2.634-.272l5.962-1.259c.684-.088 1.37-.141 2.055-.156.686.015 1.372.068 2.056.156l5.964 1.259c.864.18 1.746.27 2.63.272.884-.002 1.765-.092 2.631-.272l5.965-1.259c.679-.088 1.365-.141 2.053-.156.688.015 1.374.068 2.053.156l3.801.802L57.33 42.6H35.943l-.888-5.324h3.106v-5.324H27.246l-.888-5.326H27.6c.49 0 .888-.398.888-.888 0-.49-.398-.888-.888-.888H14.2v1.775H15.974L15.974 26.625zM27.158 41.712v-3.551c0-.488.398-.885.886-.885h4.641c.433 0 .802.312.875.74l.592 3.551c.006.048.013.097.013.145 0 .488-.398.888-.888.888h-5.232C27.556 42.6 27.158 42.2 27.158 41.712L27.158 41.712zM18.458 41.712v-3.551c0-.488.398-.885.888-.885h5.325c.49 0 .888.397.888.885v3.551c0 .488-.398.888-.888.888h-5.325C18.857 42.6 18.458 42.2 18.458 41.712L18.458 41.712zM18.458 31.062v-3.549c0-.49.398-.888.888-.888h4.639c.435 0 .805.314.877.74l.591 3.549c.009.05.011.099.011.147 0 .49-.398.89-.886.89h-5.233C18.857 31.952 18.458 31.552 18.458 31.062L18.458 31.062zM23.076 53.562c.591-.075 1.183-.119 1.776-.132.594.013 1.187.057 1.774.132l5.899 1.244c.981.207 1.977.308 2.977.31 1-.002 1.996-.103 2.977-.31l5.897-1.244c.591-.075 1.183-.119 1.776-.132.594.013 1.185.057 1.774.132l5.899 1.244c.978.207 1.975.308 2.975.31v1.686c-1.114-.002-2.227-.114-3.32-.343l-5.831-1.231c-.497-.059-.996-.097-1.497-.112-.501.016-1.001.053-1.499.112l-5.829 1.231c-1.093.228-2.205.341-3.322.343-1.117-.002-2.23-.114-3.322-.343l-5.831-1.231c-.495-.059-.996-.097-1.497-.112-.501.016-1 .053-1.499.112l-5.829 1.231c-1.095.228-2.207.341-3.324.343v-1.686c1-.002 1.999-.103 2.979-.31L23.076 53.562 23.076 53.562zM111.18 40.95v8.949h-6.666V62H94.188V49.899H72.087v-9.928L94.73 9.031h9.783V40.95H111.18zM94.405 41.059V21.35L80.782 41.059H94.405zM151.976 52.58V62h-38.151c0-2.874.465-5.615 1.396-8.224.929-2.609 2.239-4.855 3.931-6.739 1.305-1.449 2.832-2.862 4.583-4.239s5.235-3.9 10.453-7.572c2.535-1.763 4.311-3.406 5.325-4.927s1.521-3.285 1.521-5.29c0-2.319-.683-4.197-2.047-5.634s-3.158-2.156-5.38-2.156c-5.459 0-8.273 3.925-8.441 11.775h-10.182c0-.507 0-.894 0-1.16 0-6.424 1.8-11.4 5.398-14.927 3.502-3.429 8.031-5.145 13.587-5.145 4.927 0 9.045 1.401 12.354 4.203 3.599 3.043 5.398 7.137 5.398 12.282 0 4.492-1.438 8.357-4.312 11.594-.942 1.063-1.824 1.915-2.645 2.555-.821.64-2.983 2.18-6.485 4.619-3.333 2.318-5.719 4.094-7.155 5.326-1.438 1.231-2.772 2.645-4.004 4.238H151.976zM156.214 25.806c.121-4.348 1.196-7.994 3.225-10.941 3.285-4.734 8.225-7.101 14.818-7.101 5.072 0 9.166 1.292 12.282 3.876 3.357 2.802 5.036 6.425 5.036 10.869 0 2.657-.658 4.945-1.975 6.866s-3.098 3.219-5.344 3.895c2.85.652 5.103 2.102 6.757 4.348 1.654 2.246 2.481 4.964 2.481 8.151 0 5.242-1.933 9.529-5.797 12.862-3.574 3.092-8.092 4.638-13.55 4.638-5.918 0-10.61-1.703-14.075-5.108-3.467-3.406-5.199-8.007-5.199-13.804 0-.121 0-.351 0-.688h10.181c0 3.261.772 5.778 2.318 7.554s3.732 2.663 6.558 2.663c2.826 0 5-.833 6.521-2.5 1.4-1.57 2.102-3.442 2.102-5.616 0-2.608-.894-4.673-2.681-6.195-1.474-1.255-3.744-1.884-6.812-1.884-.87 0-1.728.049-2.572.146v-7.79c.628.048 1.231.072 1.812.072 6.087 0 9.13-2.258 9.13-6.775 0-1.98-.665-3.581-1.993-4.801-1.328-1.219-3.079-1.83-5.253-1.83-2.488 0-4.408.773-5.761 2.319-1.353 1.546-2.077 3.804-2.174 6.775H156.214z" class="sbb-vm-color-black"/></svg>