<?xml version="1.0" encoding="utf-8"?><svg version="1.0" xmlns="http://www.w3.org/2000/svg" xmlns:xlink="http://www.w3.org/1999/xlink" x="0px" y="0px" viewBox="0 0 210 71" enable-background="new 0 0 210 71" xml:space="preserve"> <g> <rect fill="#FFFFFF" width="210" height="71" class="sbb-vm-color-white"></rect> <path d="M60.35,7.1c1.952,0,3.55,1.598,3.55,3.55v49.7c0,1.953-1.597,3.55-3.55,3.55h-49.7c-1.953,0-3.55-1.597-3.55-3.55v-49.7 c0-1.952,1.597-3.55,3.55-3.55H60.35 M60.35,6.213h-49.7c-2.447,0-4.438,1.991-4.438,4.437v49.7c0,2.447,1.991,4.438,4.438,4.438 h49.7c2.447,0,4.437-1.991,4.437-4.438v-49.7C64.787,8.203,62.797,6.213,60.35,6.213L60.35,6.213z" class="sbb-vm-color-black"></path> <path d="M15.974,26.625c0.49,0,0.888,0.398,0.888,0.888v3.549c0,0.49-0.398,0.89-0.888,0.89H14.2v5.324h1.774 c0.49,0,0.888,0.397,0.888,0.885v3.551c0,0.49-0.398,0.888-0.888,0.888H14.2v10.828c0.884-0.002,1.765-0.092,2.634-0.272 l5.962-1.259c0.684-0.088,1.37-0.141,2.055-0.156c0.686,0.015,1.372,0.068,2.056,0.156l5.964,1.259 c0.864,0.18,1.746,0.27,2.63,0.272c0.884-0.002,1.765-0.092,2.631-0.272l5.965-1.259c0.679-0.088,1.365-0.141,2.053-0.156 c0.688,0.015,1.374,0.068,2.053,0.156l3.801,0.802L57.33,42.6H35.943l-0.888-5.324h3.106v-5.324H27.246l-0.888-5.326H27.6 c0.49,0,0.888-0.398,0.888-0.888c0-0.49-0.398-0.888-0.888-0.888H14.2v1.775H15.974L15.974,26.625z M27.158,41.712v-3.551 c0-0.488,0.398-0.885,0.886-0.885h4.641c0.433,0,0.802,0.312,0.875,0.74l0.592,3.551c0.006,0.048,0.013,0.097,0.013,0.145 c0,0.488-0.398,0.888-0.888,0.888h-5.232C27.556,42.6,27.158,42.2,27.158,41.712L27.158,41.712z M18.458,41.712v-3.551 c0-0.488,0.398-0.885,0.888-0.885h5.325c0.49,0,0.888,0.397,0.888,0.885v3.551c0,0.488-0.398,0.888-0.888,0.888h-5.325 C18.857,42.6,18.458,42.2,18.458,41.712L18.458,41.712z M18.458,31.062v-3.549c0-0.49,0.398-0.888,0.888-0.888h4.639 c0.435,0,0.805,0.314,0.877,0.74l0.591,3.549c0.009,0.05,0.011,0.099,0.011,0.147c0,0.49-0.398,0.89-0.886,0.89h-5.233 C18.857,31.952,18.458,31.552,18.458,31.062L18.458,31.062z" class="sbb-vm-color-black"></path> <path d="M23.076,53.562c0.591-0.075,1.183-0.119,1.776-0.132c0.594,0.013,1.187,0.057,1.774,0.132l5.899,1.244 c0.981,0.207,1.977,0.308,2.977,0.31c1-0.002,1.996-0.103,2.977-0.31l5.897-1.244c0.591-0.075,1.183-0.119,1.776-0.132 c0.594,0.013,1.185,0.057,1.774,0.132l5.899,1.244c0.978,0.207,1.975,0.308,2.975,0.31v1.686c-1.114-0.002-2.227-0.114-3.32-0.343 l-5.831-1.231c-0.497-0.059-0.996-0.097-1.497-0.112c-0.501,0.016-1.001,0.053-1.499,0.112l-5.829,1.231 c-1.093,0.228-2.205,0.341-3.322,0.343c-1.117-0.002-2.23-0.114-3.322-0.343l-5.831-1.231c-0.495-0.059-0.996-0.097-1.497-0.112 c-0.501,0.016-1,0.053-1.499,0.112l-5.829,1.231c-1.095,0.228-2.207,0.341-3.324,0.343v-1.686c1-0.002,1.999-0.103,2.979-0.31 L23.076,53.562L23.076,53.562z" class="sbb-vm-color-black"></path> </g> <g> <path d="M108.063,9.031v9.42h-21.34l-2.282,11.919c2.56-2.705,5.833-4.058,9.818-4.058c3.913,0,7.318,1.051,10.217,3.152 c4.3,3.165,6.449,7.971,6.449,14.42c0,6.329-2.295,11.341-6.884,15.036c-3.575,2.898-7.85,4.348-12.825,4.348 c-5.604,0-10.108-1.504-13.514-4.511s-5.205-7.07-5.398-12.191h10.398c0.169,1.86,0.773,3.441,1.812,4.746 c1.618,2.053,3.864,3.079,6.739,3.079c2.777,0,4.976-1.002,6.594-3.007c1.57-1.956,2.355-4.335,2.355-7.138 c0-3.043-0.822-5.477-2.464-7.3c-1.643-1.824-3.829-2.736-6.558-2.736c-3.333,0-5.931,1.498-7.79,4.493l-9.456-0.145l5.036-29.528 H108.063z" class="sbb-vm-color-black"></path> <path d="M133.136,7.763c4.033,0,7.584,1.231,10.651,3.695c3.043,2.464,5.253,6.256,6.63,11.376 c1.038,3.913,1.559,8.164,1.559,12.753c0,7.608-1.354,13.864-4.059,18.768c-1.594,2.851-3.677,5.049-6.249,6.594 c-2.572,1.546-5.441,2.319-8.605,2.319c-4.323,0-8.019-1.305-11.086-3.913c-5.459-4.638-8.188-12.56-8.188-23.768 c0-7.971,1.425-14.371,4.275-19.202c1.618-2.753,3.737-4.878,6.358-6.376C127.042,8.512,129.947,7.763,133.136,7.763z  M132.737,16.712c-3.479,0-5.846,2.005-7.102,6.014c-0.991,3.188-1.485,7.657-1.485,13.406c0,5.072,0.507,9.143,1.521,12.21 c1.305,3.985,3.72,5.978,7.246,5.978c2.922,0,5.096-1.545,6.521-4.638c1.425-3.091,2.138-7.813,2.138-14.166 c0-5.41-0.508-9.674-1.521-12.79C138.751,18.717,136.312,16.712,132.737,16.712z" class="sbb-vm-color-black"></path> <path d="M174.402,7.763c4.033,0,7.584,1.231,10.651,3.695c3.043,2.464,5.253,6.256,6.63,11.376 c1.038,3.913,1.559,8.164,1.559,12.753c0,7.608-1.354,13.864-4.059,18.768c-1.594,2.851-3.677,5.049-6.249,6.594 c-2.572,1.546-5.441,2.319-8.605,2.319c-4.323,0-8.019-1.305-11.086-3.913c-5.459-4.638-8.188-12.56-8.188-23.768 c0-7.971,1.425-14.371,4.275-19.202c1.618-2.753,3.737-4.878,6.358-6.376C168.309,8.512,171.214,7.763,174.402,7.763z  M174.004,16.712c-3.479,0-5.846,2.005-7.102,6.014c-0.991,3.188-1.485,7.657-1.485,13.406c0,5.072,0.507,9.143,1.521,12.21 c1.305,3.985,3.72,5.978,7.246,5.978c2.922,0,5.096-1.545,6.521-4.638c1.425-3.091,2.138-7.813,2.138-14.166 c0-5.41-0.508-9.674-1.521-12.79C180.018,18.717,177.578,16.712,174.004,16.712z" class="sbb-vm-color-black"></path> </g> </svg>