<svg xmlns="http://www.w3.org/2000/svg" xml:space="preserve" version="1.0" viewBox="0 0 210 71"><path fill="#FFFFFF" d="M0 0H210V71H0z" class="sbb-vm-color-white"/><path d="M60.35,7.1c1.952,0,3.55,1.598,3.55,3.55v49.7c0,1.953-1.597,3.55-3.55,3.55h-49.7c-1.953,0-3.55-1.597-3.55-3.55v-49.7 c0-1.952,1.597-3.55,3.55-3.55H60.35 M60.35,6.213h-49.7c-2.447,0-4.438,1.991-4.438,4.437v49.7c0,2.447,1.991,4.438,4.438,4.438 h49.7c2.447,0,4.437-1.991,4.437-4.438v-49.7C64.787,8.203,62.797,6.213,60.35,6.213L60.35,6.213z" class="sbb-vm-color-black"/><path d="M15.974 26.625c.49 0 .888.398.888.888v3.549c0 .49-.398.89-.888.89H14.2v5.324h1.774c.49 0 .888.397.888.885v3.551c0 .49-.398.888-.888.888H14.2v10.828c.884-.002 1.765-.092 2.634-.272l5.962-1.259c.684-.088 1.37-.141 2.055-.156.686.015 1.372.068 2.056.156l5.964 1.259c.864.18 1.746.27 2.63.272.884-.002 1.765-.092 2.631-.272l5.965-1.259c.679-.088 1.365-.141 2.053-.156.688.015 1.374.068 2.053.156l3.801.802L57.33 42.6H35.943l-.888-5.324h3.106v-5.324H27.246l-.888-5.326H27.6c.49 0 .888-.398.888-.888 0-.49-.398-.888-.888-.888H14.2v1.775H15.974L15.974 26.625zM27.158 41.712v-3.551c0-.488.398-.885.886-.885h4.641c.433 0 .802.312.875.74l.592 3.551c.006.048.013.097.013.145 0 .488-.398.888-.888.888h-5.232C27.556 42.6 27.158 42.2 27.158 41.712L27.158 41.712zM18.458 41.712v-3.551c0-.488.398-.885.888-.885h5.325c.49 0 .888.397.888.885v3.551c0 .488-.398.888-.888.888h-5.325C18.857 42.6 18.458 42.2 18.458 41.712L18.458 41.712zM18.458 31.062v-3.549c0-.49.398-.888.888-.888h4.639c.435 0 .805.314.877.74l.591 3.549c.009.05.011.099.011.147 0 .49-.398.89-.886.89h-5.233C18.857 31.952 18.458 31.552 18.458 31.062L18.458 31.062zM23.076 53.562c.591-.075 1.183-.119 1.776-.132.594.013 1.187.057 1.774.132l5.899 1.244c.981.207 1.977.308 2.977.31 1-.002 1.996-.103 2.977-.31l5.897-1.244c.591-.075 1.183-.119 1.776-.132.594.013 1.185.057 1.774.132l5.899 1.244c.978.207 1.975.308 2.975.31v1.686c-1.114-.002-2.227-.114-3.32-.343l-5.831-1.231c-.497-.059-.996-.097-1.497-.112-.501.016-1.001.053-1.499.112l-5.829 1.231c-1.093.228-2.205.341-3.322.343-1.117-.002-2.23-.114-3.322-.343l-5.831-1.231c-.495-.059-.996-.097-1.497-.112-.501.016-1 .053-1.499.112l-5.829 1.231c-1.095.228-2.207.341-3.324.343v-1.686c1-.002 1.999-.103 2.979-.31L23.076 53.562 23.076 53.562zM108.063 9.031v9.42h-21.34l-2.282 11.919c2.56-2.705 5.833-4.058 9.818-4.058 3.913 0 7.318 1.051 10.217 3.152 4.3 3.165 6.449 7.971 6.449 14.42 0 6.329-2.295 11.341-6.884 15.036-3.575 2.898-7.85 4.348-12.825 4.348-5.604 0-10.108-1.504-13.514-4.511s-5.205-7.07-5.398-12.191h10.398c.169 1.86.773 3.441 1.812 4.746 1.618 2.053 3.864 3.079 6.739 3.079 2.777 0 4.976-1.002 6.594-3.007 1.57-1.956 2.355-4.335 2.355-7.138 0-3.043-.822-5.477-2.464-7.3-1.643-1.824-3.829-2.736-6.558-2.736-3.333 0-5.931 1.498-7.79 4.493l-9.456-.145 5.036-29.528H108.063zM150.671 9.031v8.985c-.29.314-1.147 1.292-2.572 2.935-1.98 2.271-3.949 5.127-5.905 8.569-1.957 3.442-3.479 6.745-4.565 9.909-2.295 6.594-3.684 14.118-4.166 22.571H122.52c.073-3.985.767-8.405 2.084-13.26 1.315-4.855 3.134-9.71 5.452-14.565 3.309-6.859 6.666-11.968 10.072-15.325h-24.999V9.031H150.671z" class="sbb-vm-color-black"/></svg>