<?xml version="1.0" encoding="utf-8"?>
<!-- Generator: Adobe Illustrator 25.1.0, SVG Export Plug-In . SVG Version: 6.00 Build 0)  -->
<svg version="1.0" id="Ebene_1" xmlns="http://www.w3.org/2000/svg" xmlns:xlink="http://www.w3.org/1999/xlink" x="0px" y="0px"
	 viewBox="0 0 210 71" enable-background="new 0 0 210 71" xml:space="preserve">
<rect id="background-white" fill="#FFFFFF" width="210" height="71"/>
<g id="BAT:background-white:999">
	<path d="M11.18,24.919c0.602,0,1.091,0.489,1.091,1.091v4.361c0,0.602-0.489,1.093-1.091,1.093H9v6.542h2.18
		c0.602,0,1.091,0.488,1.091,1.088v4.363c0,0.602-0.489,1.091-1.091,1.091H9v13.306c1.086-0.003,2.169-0.114,3.236-0.335
		l7.327-1.547c0.84-0.108,1.683-0.173,2.526-0.192c0.843,0.019,1.686,0.084,2.526,0.192l7.329,1.547
		c1.062,0.221,2.145,0.332,3.231,0.335c1.086-0.003,2.169-0.114,3.234-0.335l7.33-1.547c0.835-0.108,1.677-0.173,2.523-0.192
		c0.846,0.019,1.689,0.084,2.523,0.192l4.671,0.986L62,44.549H35.719l-1.091-6.542h3.817v-6.542H25.031l-1.091-6.545h1.526
		c0.602,0,1.091-0.489,1.091-1.091c0-0.602-0.489-1.091-1.091-1.091H9v2.182H11.18L11.18,24.919z M24.923,43.458v-4.363
		c0-0.6,0.489-1.088,1.089-1.088h5.703c0.532,0,0.986,0.383,1.075,0.91l0.727,4.363c0.008,0.06,0.016,0.119,0.016,0.178
		c0,0.6-0.489,1.091-1.091,1.091h-6.43C25.412,44.549,24.923,44.057,24.923,43.458L24.923,43.458z M14.233,43.458v-4.363
		c0-0.6,0.489-1.088,1.091-1.088h6.544c0.602,0,1.091,0.488,1.091,1.088v4.363c0,0.6-0.489,1.091-1.091,1.091h-6.544
		C14.722,44.549,14.233,44.057,14.233,43.458L14.233,43.458z M14.233,30.371V26.01c0-0.602,0.489-1.091,1.091-1.091h5.701
		c0.535,0,0.989,0.386,1.078,0.91l0.727,4.361c0.011,0.062,0.014,0.121,0.014,0.181c0,0.602-0.489,1.093-1.088,1.093h-6.43
		C14.722,31.464,14.233,30.973,14.233,30.371L14.233,30.371z"/>
	<path d="M19.907,58.02c0.727-0.092,1.454-0.146,2.183-0.162c0.73,0.016,1.459,0.07,2.18,0.162l7.249,1.528
		c1.205,0.254,2.429,0.378,3.658,0.381c1.229-0.002,2.453-0.127,3.658-0.381l7.246-1.528c0.727-0.092,1.454-0.146,2.183-0.162
		c0.73,0.016,1.456,0.07,2.18,0.162l7.249,1.528c1.202,0.254,2.426,0.378,3.655,0.381V62c-1.369-0.003-2.737-0.14-4.08-0.421
		l-7.165-1.512c-0.611-0.073-1.224-0.119-1.84-0.138c-0.616,0.019-1.229,0.065-1.843,0.138l-7.163,1.512
		c-1.343,0.281-2.71,0.419-4.082,0.421c-1.373-0.003-2.74-0.14-4.083-0.421l-7.165-1.512c-0.608-0.073-1.224-0.119-1.84-0.138
		c-0.616,0.019-1.229,0.065-1.843,0.138l-7.163,1.512C11.74,61.86,10.373,61.997,9,62v-2.071c1.229-0.002,2.456-0.127,3.661-0.381
		L19.907,58.02L19.907,58.02z"/>
</g>
<g>
	<path d="M89.048,33.559c-2.464-0.845-4.354-2.234-5.67-4.167c-1.317-1.932-1.975-4.275-1.975-7.029
		c0-4.589,1.884-8.248,5.652-10.978c3.333-2.415,7.294-3.623,11.884-3.623c5.217,0,9.479,1.437,12.789,4.311
		c3.14,2.706,4.71,6.051,4.71,10.036c0,2.778-0.664,5.157-1.992,7.137c-1.329,1.981-3.213,3.418-5.652,4.312
		c1.908,0.556,3.466,1.268,4.674,2.138c3.357,2.44,5.036,6.002,5.036,10.688c0,5.387-2.065,9.674-6.195,12.862
		c-3.479,2.681-7.947,4.021-13.405,4.021c-5.918,0-10.628-1.474-14.13-4.42c-3.647-3.067-5.471-7.089-5.471-12.065
		c0-4.661,1.618-8.272,4.854-10.833C85.63,34.815,87.26,34.018,89.048,33.559z M98.721,37.545c-2.608,0-4.74,0.803-6.395,2.409
		s-2.481,3.665-2.481,6.177c0,2.585,0.839,4.687,2.518,6.305s3.858,2.428,6.54,2.428c3.043,0,5.326-0.894,6.848-2.682
		c1.472-1.715,2.209-3.695,2.209-5.941c0-2.561-0.846-4.661-2.536-6.305C103.806,38.342,101.572,37.545,98.721,37.545z
		 M98.794,15.987c-2.319,0-4.191,0.646-5.616,1.938c-1.426,1.292-2.138,2.989-2.138,5.09c0,2.198,0.719,3.955,2.156,5.271
		c1.437,1.317,3.363,1.975,5.778,1.975s4.323-0.652,5.725-1.957c1.4-1.304,2.101-3.08,2.101-5.326c0-2.198-0.707-3.913-2.12-5.145
		C103.268,16.603,101.306,15.987,98.794,15.987z"/>
	<path d="M157.958,9.031v8.985c-0.29,0.314-1.147,1.292-2.572,2.935c-1.98,2.271-3.949,5.127-5.905,8.569
		c-1.957,3.442-3.479,6.745-4.565,9.909c-2.295,6.594-3.684,14.118-4.166,22.571h-10.942c0.073-3.985,0.767-8.405,2.084-13.26
		c1.315-4.855,3.134-9.71,5.452-14.565c3.309-6.859,6.666-11.968,10.072-15.325h-24.999V9.031H157.958z"/>
	<path d="M171.581,33.559c-2.464-0.845-4.354-2.234-5.67-4.167c-1.317-1.932-1.975-4.275-1.975-7.029
		c0-4.589,1.884-8.248,5.651-10.978c3.333-2.415,7.294-3.623,11.884-3.623c5.217,0,9.479,1.437,12.789,4.311
		c3.14,2.706,4.71,6.051,4.71,10.036c0,2.778-0.664,5.157-1.992,7.137c-1.329,1.981-3.213,3.418-5.652,4.312
		c1.908,0.556,3.466,1.268,4.674,2.138c3.357,2.44,5.036,6.002,5.036,10.688c0,5.387-2.065,9.674-6.195,12.862
		c-3.479,2.681-7.947,4.021-13.405,4.021c-5.918,0-10.628-1.474-14.13-4.42c-3.647-3.067-5.471-7.089-5.471-12.065
		c0-4.661,1.618-8.272,4.854-10.833C168.163,34.815,169.793,34.018,171.581,33.559z M181.254,37.545
		c-2.608,0-4.74,0.803-6.395,2.409s-2.481,3.665-2.481,6.177c0,2.585,0.839,4.687,2.518,6.305s3.858,2.428,6.54,2.428
		c3.043,0,5.326-0.894,6.848-2.682c1.473-1.715,2.21-3.695,2.21-5.941c0-2.561-0.846-4.661-2.536-6.305
		C186.339,38.342,184.104,37.545,181.254,37.545z M181.327,15.987c-2.319,0-4.191,0.646-5.616,1.938
		c-1.426,1.292-2.138,2.989-2.138,5.09c0,2.198,0.719,3.955,2.156,5.271c1.437,1.317,3.363,1.975,5.778,1.975
		s4.323-0.652,5.725-1.957c1.4-1.304,2.102-3.08,2.102-5.326c0-2.198-0.707-3.913-2.12-5.145S183.839,15.987,181.327,15.987z"/>
</g>
</svg>
