<?xml version="1.0" encoding="utf-8"?>
<!-- Generator: Adobe Illustrator 25.1.0, SVG Export Plug-In . SVG Version: 6.00 Build 0)  -->
<svg version="1.0" id="Ebene_1" xmlns="http://www.w3.org/2000/svg" xmlns:xlink="http://www.w3.org/1999/xlink" x="0px" y="0px"
	 viewBox="0 0 210 71" enable-background="new 0 0 210 71" xml:space="preserve">
<rect id="background-white" fill="#FFFFFF" width="210" height="71"/>
<g id="BAT:background-white:999">
	<path d="M11.18,24.919c0.602,0,1.091,0.489,1.091,1.091v4.361c0,0.602-0.489,1.093-1.091,1.093H9v6.542h2.18
		c0.602,0,1.091,0.488,1.091,1.088v4.363c0,0.602-0.489,1.091-1.091,1.091H9v13.306c1.086-0.003,2.169-0.114,3.236-0.335
		l7.327-1.547c0.84-0.108,1.683-0.173,2.526-0.192c0.843,0.019,1.686,0.084,2.526,0.192l7.329,1.547
		c1.062,0.221,2.145,0.332,3.231,0.335c1.086-0.003,2.169-0.114,3.234-0.335l7.33-1.547c0.835-0.108,1.677-0.173,2.523-0.192
		c0.846,0.019,1.689,0.084,2.523,0.192l4.671,0.986L62,44.549H35.719l-1.091-6.542h3.817v-6.542H25.031l-1.091-6.545h1.526
		c0.602,0,1.091-0.489,1.091-1.091c0-0.602-0.489-1.091-1.091-1.091H9v2.182H11.18L11.18,24.919z M24.923,43.458v-4.363
		c0-0.6,0.489-1.088,1.089-1.088h5.703c0.532,0,0.986,0.383,1.075,0.91l0.727,4.363c0.008,0.06,0.016,0.119,0.016,0.178
		c0,0.6-0.489,1.091-1.091,1.091h-6.43C25.412,44.549,24.923,44.057,24.923,43.458L24.923,43.458z M14.233,43.458v-4.363
		c0-0.6,0.489-1.088,1.091-1.088h6.544c0.602,0,1.091,0.488,1.091,1.088v4.363c0,0.6-0.489,1.091-1.091,1.091h-6.544
		C14.722,44.549,14.233,44.057,14.233,43.458L14.233,43.458z M14.233,30.371V26.01c0-0.602,0.489-1.091,1.091-1.091h5.701
		c0.535,0,0.989,0.386,1.078,0.91l0.727,4.361c0.011,0.062,0.014,0.121,0.014,0.181c0,0.602-0.489,1.093-1.088,1.093h-6.43
		C14.722,31.464,14.233,30.973,14.233,30.371L14.233,30.371z"/>
	<path d="M19.907,58.02c0.727-0.092,1.454-0.146,2.183-0.162c0.73,0.016,1.459,0.07,2.18,0.162l7.249,1.528
		c1.205,0.254,2.429,0.378,3.658,0.381c1.229-0.002,2.453-0.127,3.658-0.381l7.246-1.528c0.727-0.092,1.454-0.146,2.183-0.162
		c0.73,0.016,1.456,0.07,2.18,0.162l7.249,1.528c1.202,0.254,2.426,0.378,3.655,0.381V62c-1.369-0.003-2.737-0.14-4.08-0.421
		l-7.165-1.512c-0.611-0.073-1.224-0.119-1.84-0.138c-0.616,0.019-1.229,0.065-1.843,0.138l-7.163,1.512
		c-1.343,0.281-2.71,0.419-4.082,0.421c-1.373-0.003-2.74-0.14-4.083-0.421l-7.165-1.512c-0.608-0.073-1.224-0.119-1.84-0.138
		c-0.616,0.019-1.229,0.065-1.843,0.138l-7.163,1.512C11.74,61.86,10.373,61.997,9,62v-2.071c1.229-0.002,2.456-0.127,3.661-0.381
		L19.907,58.02L19.907,58.02z"/>
</g>
<g>
	<path d="M80.751,48.704h9.999c0.821,4.106,3.2,6.159,7.138,6.159c2.222,0,4.027-0.755,5.417-2.265
		c1.389-1.51,2.457-3.858,3.206-7.047c0.482-2.029,0.833-4.335,1.051-6.92c-1.619,2.271-3.279,3.883-4.981,4.837
		c-1.703,0.954-3.774,1.431-6.214,1.431c-3.89,0-7.271-1.135-10.145-3.405c-2.005-1.595-3.569-3.659-4.692-6.196
		c-1.123-2.536-1.685-5.29-1.685-8.261c0-5.965,2.041-10.797,6.123-14.492c3.502-3.188,7.705-4.782,12.608-4.782
		c3.019,0,5.809,0.676,8.369,2.029c2.56,1.353,4.71,3.273,6.449,5.761c3.067,4.42,4.602,10.628,4.602,18.622
		c0,7.392-1.354,13.695-4.059,18.913c-3.526,6.787-8.864,10.181-16.013,10.181c-4.759,0-8.689-1.316-11.793-3.949
		C83.027,56.687,81.234,53.148,80.751,48.704z M98.359,16.712c-2.271,0-4.19,0.93-5.761,2.79c-1.57,1.884-2.354,4.275-2.354,7.174
		c0,2.343,0.567,4.42,1.703,6.231c1.545,2.488,3.719,3.732,6.521,3.732c2.536,0,4.564-1.015,6.086-3.043
		c1.426-1.908,2.137-4.178,2.137-6.811c0-2.777-0.736-5.132-2.209-7.065C102.936,17.714,100.895,16.712,98.359,16.712z"/>
	<path d="M140.423,7.763c4.033,0,7.584,1.231,10.651,3.695c3.043,2.464,5.253,6.256,6.63,11.376
		c1.038,3.913,1.559,8.164,1.559,12.753c0,7.608-1.354,13.864-4.059,18.768c-1.594,2.851-3.677,5.049-6.249,6.594
		c-2.572,1.546-5.441,2.319-8.605,2.319c-4.323,0-8.019-1.305-11.086-3.913c-5.459-4.638-8.188-12.56-8.188-23.768
		c0-7.971,1.425-14.371,4.275-19.202c1.618-2.753,3.737-4.878,6.358-6.376C134.329,8.512,137.234,7.763,140.423,7.763z
		 M140.024,16.712c-3.479,0-5.846,2.005-7.102,6.014c-0.991,3.188-1.485,7.657-1.485,13.406c0,5.072,0.507,9.143,1.521,12.21
		c1.305,3.985,3.72,5.978,7.246,5.978c2.922,0,5.096-1.545,6.521-4.638c1.425-3.091,2.138-7.813,2.138-14.166
		c0-5.41-0.508-9.674-1.521-12.79C146.038,18.717,143.599,16.712,140.024,16.712z"/>
	<path d="M163.501,25.806c0.121-4.348,1.196-7.994,3.225-10.941c3.285-4.734,8.225-7.101,14.818-7.101
		c5.072,0,9.166,1.292,12.282,3.876c3.357,2.802,5.036,6.425,5.036,10.869c0,2.657-0.658,4.945-1.975,6.866
		s-3.098,3.219-5.344,3.895c2.85,0.652,5.103,2.102,6.757,4.348c1.654,2.246,2.481,4.964,2.481,8.151
		c0,5.242-1.933,9.529-5.797,12.862c-3.574,3.092-8.092,4.638-13.55,4.638c-5.918,0-10.61-1.703-14.075-5.108
		c-3.467-3.406-5.199-8.007-5.199-13.804c0-0.121,0-0.351,0-0.688h10.181c0,3.261,0.772,5.778,2.318,7.554s3.732,2.663,6.558,2.663
		c2.826,0,5-0.833,6.521-2.5c1.4-1.57,2.102-3.442,2.102-5.616c0-2.608-0.894-4.673-2.681-6.195
		c-1.474-1.255-3.744-1.884-6.812-1.884c-0.87,0-1.728,0.049-2.572,0.146v-7.79c0.628,0.048,1.231,0.072,1.812,0.072
		c6.087,0,9.13-2.258,9.13-6.775c0-1.98-0.665-3.581-1.993-4.801c-1.328-1.219-3.079-1.83-5.253-1.83
		c-2.488,0-4.408,0.773-5.761,2.319c-1.353,1.546-2.077,3.804-2.174,6.775H163.501z"/>
</g>
</svg>
