<svg xmlns="http://www.w3.org/2000/svg" xml:space="preserve" version="1.0" viewBox="0 0 210 71"><path fill="#FFFFFF" d="M0 0H210V71H0z" class="sbb-vm-color-white"/><path d="M61.136 41.566c-.387 5.483-2.223 10.169-5.507 14.058-4.3 5.097-10.387 7.645-18.261 7.645-8.382 0-14.903-2.959-19.564-8.877-3.985-5.048-5.978-11.352-5.978-18.912 0-7.922 2.367-14.529 7.102-19.818 4.733-5.265 11.025-7.898 18.875-7.898 7.319 0 13.212 2.416 17.681 7.246 3.188 3.405 4.951 7.331 5.29 11.775H49.36c-.628-2.995-1.969-5.308-4.021-6.938S40.689 17.4 37.55 17.4c-5.024 0-8.78 2.114-11.268 6.34-1.86 3.212-2.79 7.15-2.79 11.811 0 4.782.979 8.768 2.935 11.956 2.487 4.082 6.171 6.123 11.051 6.123 3.478 0 6.249-1.026 8.314-3.079s3.339-5.048 3.822-8.985H61.136zM115.735 41.566c-.387 5.483-2.223 10.169-5.507 14.058-4.3 5.097-10.387 7.645-18.261 7.645-8.382 0-14.903-2.959-19.564-8.877-3.985-5.048-5.978-11.352-5.978-18.912 0-7.922 2.366-14.529 7.101-19.818 4.734-5.265 11.026-7.898 18.876-7.898 7.319 0 13.212 2.416 17.681 7.246 3.188 3.405 4.951 7.331 5.29 11.775H103.96c-.628-2.995-1.969-5.308-4.021-6.938S95.289 17.4 92.149 17.4c-5.024 0-8.78 2.114-11.268 6.34-1.86 3.212-2.79 7.15-2.79 11.811 0 4.782.979 8.768 2.935 11.956 2.487 4.082 6.171 6.123 11.051 6.123 3.478 0 6.249-1.026 8.314-3.079s3.339-5.048 3.822-8.985H115.735z" class="sbb-vm-color-black"/></svg>