<svg xmlns="http://www.w3.org/2000/svg" xml:space="preserve" version="1.0" viewBox="0 0 210 71"><path fill="#FFFFFF" d="M0 0H210V71H0z" class="sbb-vm-color-white"/><path d="M61.136 41.566c-.387 5.483-2.223 10.169-5.507 14.058-4.3 5.097-10.387 7.645-18.261 7.645-8.382 0-14.903-2.959-19.564-8.877-3.985-5.048-5.978-11.352-5.978-18.912 0-7.922 2.367-14.529 7.102-19.818 4.733-5.265 11.025-7.898 18.875-7.898 7.319 0 13.212 2.416 17.681 7.246 3.188 3.405 4.951 7.331 5.29 11.775H49.36c-.628-2.995-1.969-5.308-4.021-6.938S40.689 17.4 37.55 17.4c-5.024 0-8.78 2.114-11.268 6.34-1.86 3.212-2.79 7.15-2.79 11.811 0 4.782.979 8.768 2.935 11.956 2.487 4.082 6.171 6.123 11.051 6.123 3.478 0 6.249-1.026 8.314-3.079s3.339-5.048 3.822-8.985H61.136zM115.735 41.566c-.387 5.483-2.223 10.169-5.507 14.058-4.3 5.097-10.387 7.645-18.261 7.645-8.382 0-14.903-2.959-19.564-8.877-3.985-5.048-5.978-11.352-5.978-18.912 0-7.922 2.366-14.529 7.101-19.818 4.734-5.265 11.026-7.898 18.876-7.898 7.319 0 13.212 2.416 17.681 7.246 3.188 3.405 4.951 7.331 5.29 11.775H103.96c-.628-2.995-1.969-5.308-4.021-6.938S95.289 17.4 92.149 17.4c-5.024 0-8.78 2.114-11.268 6.34-1.86 3.212-2.79 7.15-2.79 11.811 0 4.782.979 8.768 2.935 11.956 2.487 4.082 6.171 6.123 11.051 6.123 3.478 0 6.249-1.026 8.314-3.079s3.339-5.048 3.822-8.985H115.735zM147.4 9.031V62h-10.579V27.328h-3.768-3.769-3.659-1.268v-7.681c2.584-.072 4.691-.338 6.322-.797 1.63-.458 3.121-1.208 4.475-2.247 1.956-1.497 3.272-4.021 3.949-7.572H147.4zM180.732 7.763c4.033 0 7.584 1.231 10.651 3.695 3.043 2.464 5.253 6.256 6.63 11.376 1.038 3.913 1.559 8.164 1.559 12.753 0 7.608-1.354 13.864-4.059 18.768-1.594 2.851-3.677 5.049-6.249 6.594-2.572 1.546-5.441 2.319-8.605 2.319-4.323 0-8.019-1.305-11.086-3.913-5.459-4.638-8.188-12.56-8.188-23.768 0-7.971 1.425-14.371 4.275-19.202 1.618-2.753 3.737-4.878 6.358-6.376C174.639 8.512 177.544 7.763 180.732 7.763zM180.334 16.712c-3.479 0-5.846 2.005-7.102 6.014-.991 3.188-1.485 7.657-1.485 13.406 0 5.072.507 9.143 1.521 12.21 1.305 3.985 3.72 5.978 7.246 5.978 2.922 0 5.096-1.545 6.521-4.638 1.425-3.091 2.138-7.813 2.138-14.166 0-5.41-.508-9.674-1.521-12.79C186.348 18.717 183.908 16.712 180.334 16.712z" class="sbb-vm-color-black"/></svg>