<svg xmlns="http://www.w3.org/2000/svg" xml:space="preserve" version="1.0" viewBox="0 0 210 71"><path fill="#FFFFFF" d="M0 0H210V71H0z" class="sbb-vm-color-white"/><path d="M61.136 41.566c-.387 5.483-2.223 10.169-5.507 14.058-4.3 5.097-10.387 7.645-18.261 7.645-8.382 0-14.903-2.959-19.564-8.877-3.985-5.048-5.978-11.352-5.978-18.912 0-7.922 2.367-14.529 7.102-19.818 4.733-5.265 11.025-7.898 18.875-7.898 7.319 0 13.212 2.416 17.681 7.246 3.188 3.405 4.951 7.331 5.29 11.775H49.36c-.628-2.995-1.969-5.308-4.021-6.938S40.689 17.4 37.55 17.4c-5.024 0-8.78 2.114-11.268 6.34-1.86 3.212-2.79 7.15-2.79 11.811 0 4.782.979 8.768 2.935 11.956 2.487 4.082 6.171 6.123 11.051 6.123 3.478 0 6.249-1.026 8.314-3.079s3.339-5.048 3.822-8.985H61.136zM115.735 41.566c-.387 5.483-2.223 10.169-5.507 14.058-4.3 5.097-10.387 7.645-18.261 7.645-8.382 0-14.903-2.959-19.564-8.877-3.985-5.048-5.978-11.352-5.978-18.912 0-7.922 2.366-14.529 7.101-19.818 4.734-5.265 11.026-7.898 18.876-7.898 7.319 0 13.212 2.416 17.681 7.246 3.188 3.405 4.951 7.331 5.29 11.775H103.96c-.628-2.995-1.969-5.308-4.021-6.938S95.289 17.4 92.149 17.4c-5.024 0-8.78 2.114-11.268 6.34-1.86 3.212-2.79 7.15-2.79 11.811 0 4.782.979 8.768 2.935 11.956 2.487 4.082 6.171 6.123 11.051 6.123 3.478 0 6.249-1.026 8.314-3.079s3.339-5.048 3.822-8.985H115.735zM158.307 52.58V62h-38.151c0-2.874.465-5.615 1.396-8.224.929-2.609 2.239-4.855 3.931-6.739 1.305-1.449 2.832-2.862 4.583-4.239s5.235-3.9 10.453-7.572c2.535-1.763 4.311-3.406 5.325-4.927s1.521-3.285 1.521-5.29c0-2.319-.683-4.197-2.047-5.634s-3.158-2.156-5.38-2.156c-5.459 0-8.273 3.925-8.441 11.775h-10.182c0-.507 0-.894 0-1.16 0-6.424 1.8-11.4 5.398-14.927 3.502-3.429 8.031-5.145 13.587-5.145 4.927 0 9.045 1.401 12.354 4.203 3.599 3.043 5.398 7.137 5.398 12.282 0 4.492-1.438 8.357-4.312 11.594-.942 1.063-1.824 1.915-2.645 2.555-.821.64-2.983 2.18-6.485 4.619-3.333 2.318-5.719 4.094-7.155 5.326-1.438 1.231-2.772 2.645-4.004 4.238H158.307zM188.666 9.031V62h-10.579V27.328h-3.768-3.769-3.659-1.268v-7.681c2.584-.072 4.691-.338 6.322-.797 1.63-.458 3.121-1.208 4.475-2.247 1.956-1.497 3.272-4.021 3.949-7.572H188.666z" class="sbb-vm-color-black"/></svg>