<?xml version="1.0" encoding="utf-8"?>
<!-- Generator: Adobe Illustrator 27.0.0, SVG Export Plug-In . SVG Version: 6.00 Build 0)  -->
<svg version="1.0" id="Ebene_1" xmlns="http://www.w3.org/2000/svg" xmlns:xlink="http://www.w3.org/1999/xlink" x="0px" y="0px"
	 viewBox="0 0 210 71" enable-background="new 0 0 210 71" xml:space="preserve">
<g id="ec">
	<rect id="background-red_00000116193715680611020020000004933819752552490135_" fill="#EB0000" width="210" height="71"/>
	<path fill="#FFFFFF" d="M31.342,62h-2.605c-0.501,0-1.002-0.1-1.603-0.301c-0.501-0.1-1.002-0.301-1.403-0.701l-1.803-1.503
		l-11.722-9.418l-2.204-1.703C9.301,47.773,9,46.972,9,45.97c0-1.002,0.501-2.004,1.403-2.905l31.259-31.259l1.202-1.002
		l1.002-0.802C44.868,9.401,46.17,9,47.673,9h57.408L92.758,21.524H56.389l-8.015,8.015h36.469l-8.416,8.115H40.159l-8.216,8.215
		h36.168L86.847,61.9H31.342V62z"/>
	<path fill="#FFFFFF" d="M100.873,62H98.87h-1.603c-0.501-0.2-1.302-0.802-2.405-1.703l-1.503-1.302l-11.121-9.518l-1.503-1.302
		c-0.601-0.601-0.902-1.302-0.902-2.104c0-0.601,0.1-1.002,0.301-1.302c0.2-0.301,0.802-0.902,1.703-1.904L115.2,9h82.957
		l-12.323,12.624h-58.51L103.178,45.97h66.626L153.773,62H100.873z"/>
</g>
</svg>
