<svg xmlns="http://www.w3.org/2000/svg" xml:space="preserve" version="1.0" viewBox="0 0 210 71"><path fill="#EB0000" d="M0 0H210V71H0z" class="sbb-vm-color-red"/><path fill="#FFFFFF" d="M29.077 62h-1.82c-.535 0-1.07 0-1.499 0-.428-.203-.749-.304-.963-.304l-1.392-.709-1.713-1.52L9.809 50.042l-2.034-1.621c-.749-.608-1.178-1.419-1.178-2.432 0-1.013.428-1.925 1.392-2.837l31.365-31.314 1.285-1.013 1.07-.811C42.672 9.405 43.85 9 45.456 9h57.592l-12.31 12.566H54.233l-8.029 8.107h36.503l-8.243 8.107h-36.61l-8.136 8.208h36.289L50.059 62H29.077zM112.906 9 139.724 9 139.724 47.637 178.615 9 203.403 9 150.302 62 123.377 62 123.377 23.16 84.486 62 59.805 62z" class="sbb-vm-color-white"/></svg>