<?xml version="1.0" encoding="utf-8"?>
<!-- Generator: Adobe Illustrator 26.0.1, SVG Export Plug-In . SVG Version: 6.00 Build 0)  -->
<svg version="1.0" id="Ebene_1" xmlns="http://www.w3.org/2000/svg" xmlns:xlink="http://www.w3.org/1999/xlink" x="0px" y="0px"
	 viewBox="0 0 210 71" enable-background="new 0 0 210 71" xml:space="preserve">
<rect id="background-orange" fill="#FF6300" width="210" height="71"/>
<g id="EV:background-orange:9">
	<path d="M48.638,9.174v9.756H20.526v11.273h25.763v9.069H20.526v12.972h28.617V62H9V9.174H48.638z"/>
	<path d="M100.524,9.174L82.964,62H69.848L52.54,9.174h12.068l11.888,39.565L88.564,9.174H100.524z"/>
</g>
<g>
	<path d="M148.356,9.031V62h-10.579V27.328h-3.768h-3.769h-3.658h-1.269v-7.681c2.584-0.072,4.691-0.338,6.322-0.797
		c1.63-0.458,3.121-1.208,4.475-2.247c1.956-1.497,3.272-4.021,3.949-7.572H148.356z"/>
</g>
</svg>
