<?xml version="1.0" encoding="utf-8"?>
<!-- Generator: Adobe Illustrator 26.0.1, SVG Export Plug-In . SVG Version: 6.00 Build 0)  -->
<svg version="1.0" id="Ebene_1" xmlns="http://www.w3.org/2000/svg" xmlns:xlink="http://www.w3.org/1999/xlink" x="0px" y="0px"
	 viewBox="0 0 210 71" enable-background="new 0 0 210 71" xml:space="preserve">
<rect id="background-orange" fill="#FF6300" width="210" height="71"/>
<g id="EV:background-orange:9">
	<path d="M48.638,9.174v9.756H20.526v11.273h25.763v9.069H20.526v12.972h28.617V62H9V9.174H48.638z"/>
	<path d="M100.524,9.174L82.964,62H69.848L52.54,9.174h12.068l11.888,39.565L88.564,9.174H100.524z"/>
</g>
<g>
	<path d="M159.263,52.58V62h-38.15c0-2.874,0.464-5.615,1.395-8.224c0.93-2.609,2.24-4.855,3.931-6.739
		c1.305-1.449,2.831-2.862,4.583-4.239c1.751-1.377,5.235-3.9,10.453-7.572c2.535-1.763,4.311-3.406,5.325-4.927
		s1.521-3.285,1.521-5.29c0-2.319-0.683-4.197-2.047-5.634s-3.158-2.156-5.38-2.156c-5.459,0-8.273,3.925-8.441,11.775h-10.181
		c0-0.507,0-0.894,0-1.16c0-6.424,1.799-11.4,5.398-14.927c3.501-3.429,8.03-5.145,13.586-5.145c4.927,0,9.045,1.401,12.354,4.203
		c3.599,3.043,5.398,7.137,5.398,12.282c0,4.492-1.438,8.357-4.312,11.594c-0.942,1.063-1.824,1.915-2.645,2.555
		c-0.821,0.64-2.983,2.18-6.485,4.619c-3.333,2.318-5.719,4.094-7.155,5.326c-1.438,1.231-2.772,2.645-4.004,4.238H159.263z"/>
</g>
</svg>
