<svg xmlns="http://www.w3.org/2000/svg" xml:space="preserve" version="1.0" viewBox="0 0 210 71"><path fill="#FF6300" d="M0 0H210V71H0z" class="sbb-vm-color-orange"/><path d="M53.854 9.031v9.782H25.666v11.304h25.832v9.094H25.666v13.007H54.36V62H14.108V9.031H53.854zM105.88 9.031 88.271 62H75.12L57.766 9.031h12.101l11.92 39.673L93.888 9.031H105.88zM107.872 25.806c.121-4.348 1.196-7.994 3.225-10.941 3.285-4.734 8.225-7.101 14.818-7.101 5.072 0 9.166 1.292 12.282 3.876 3.357 2.802 5.036 6.425 5.036 10.869 0 2.657-.658 4.945-1.975 6.866s-3.098 3.219-5.344 3.895c2.85.652 5.103 2.102 6.757 4.348 1.654 2.246 2.481 4.964 2.481 8.151 0 5.242-1.933 9.529-5.797 12.862-3.574 3.092-8.092 4.638-13.55 4.638-5.918 0-10.61-1.703-14.075-5.108-3.467-3.406-5.199-8.007-5.199-13.804 0-.121 0-.351 0-.688h10.181c0 3.261.772 5.778 2.318 7.554s3.732 2.663 6.558 2.663c2.826 0 5-.833 6.521-2.5 1.4-1.57 2.102-3.442 2.102-5.616 0-2.608-.894-4.673-2.681-6.195-1.474-1.255-3.744-1.884-6.812-1.884-.87 0-1.728.049-2.572.146v-7.79c.628.048 1.231.072 1.812.072 6.087 0 9.13-2.258 9.13-6.775 0-1.98-.665-3.581-1.993-4.801-1.328-1.219-3.079-1.83-5.253-1.83-2.488 0-4.408.773-5.761 2.319-1.353 1.546-2.077 3.804-2.174 6.775H107.872zM149.139 25.806c.121-4.348 1.196-7.994 3.225-10.941 3.285-4.734 8.225-7.101 14.818-7.101 5.072 0 9.166 1.292 12.282 3.876 3.357 2.802 5.036 6.425 5.036 10.869 0 2.657-.658 4.945-1.975 6.866s-3.098 3.219-5.344 3.895c2.85.652 5.103 2.102 6.757 4.348 1.654 2.246 2.481 4.964 2.481 8.151 0 5.242-1.933 9.529-5.797 12.862-3.574 3.092-8.092 4.638-13.55 4.638-5.918 0-10.61-1.703-14.075-5.108-3.467-3.406-5.199-8.007-5.199-13.804 0-.121 0-.351 0-.688h10.181c0 3.261.772 5.778 2.318 7.554s3.732 2.663 6.558 2.663c2.826 0 5-.833 6.521-2.5 1.4-1.57 2.102-3.442 2.102-5.616 0-2.608-.894-4.673-2.681-6.195-1.474-1.255-3.744-1.884-6.812-1.884-.87 0-1.728.049-2.572.146v-7.79c.628.048 1.231.072 1.812.072 6.087 0 9.13-2.258 9.13-6.775 0-1.98-.665-3.581-1.993-4.801-1.328-1.219-3.079-1.83-5.253-1.83-2.488 0-4.408.773-5.761 2.319-1.353 1.546-2.077 3.804-2.174 6.775H149.139z" class="sbb-vm-color-black"/></svg>