<svg xmlns="http://www.w3.org/2000/svg" xml:space="preserve" version="1.0" viewBox="0 0 210 71"><path fill="#FF6300" d="M0 0H210V71H0z" class="sbb-vm-color-orange"/><path d="M53.854 9.031v9.782H25.666v11.304h25.832v9.094H25.666v13.007H54.36V62H14.108V9.031H53.854zM105.88 9.031 88.271 62H75.12L57.766 9.031h12.101l11.92 39.673L93.888 9.031H105.88zM145.371 40.95v8.949h-6.666V62h-10.326V49.899h-22.101v-9.928l22.644-30.94h9.783V40.95H145.371zM128.597 41.059V21.35l-13.623 19.709H128.597zM185.261 22.255h-10.072c-.941-4.082-3.261-6.123-6.956-6.123-3.913 0-6.69 2.404-8.333 7.21-.677 1.956-1.22 4.915-1.63 8.876 1.594-2.15 3.29-3.696 5.09-4.638 1.799-.942 3.968-1.413 6.504-1.413 4.975 0 8.973 1.764 11.992 5.29 2.874 3.333 4.312 7.512 4.312 12.537 0 5.966-1.933 10.76-5.797 14.383-3.479 3.261-7.657 4.892-12.536 4.892-6.256 0-11.123-2.361-14.601-7.083-3.479-4.722-5.218-11.31-5.218-19.764 0-9.034 1.86-16.111 5.58-21.231 3.599-4.951 8.514-7.427 14.745-7.427 5.87 0 10.362 1.969 13.479 5.905C183.606 15.939 184.754 18.801 185.261 22.255zM167.327 34.393c-2.536 0-4.554 1.063-6.051 3.188-1.354 1.884-2.029 4.13-2.029 6.738 0 2.585.688 4.844 2.065 6.775 1.497 2.15 3.551 3.225 6.159 3.225 2.536 0 4.577-1.026 6.123-3.079 1.449-1.933 2.174-4.215 2.174-6.848 0-2.585-.652-4.795-1.957-6.631C172.218 35.516 170.056 34.393 167.327 34.393z" class="sbb-vm-color-black"/></svg>