<?xml version="1.0" encoding="utf-8"?>
<svg version="1.0" xmlns="http://www.w3.org/2000/svg" xmlns:xlink="http://www.w3.org/1999/xlink" x="0px" y="0px" viewBox="0 0 210 71" enable-background="new 0 0 210 71" xml:space="preserve">
<g>
	<rect fill="#FF6300" width="210" height="71" class="sbb-vm-color-orange"></rect>
</g>
<g>
	<path d="M53.854,9.031v9.782H25.666v11.304h25.832v9.094H25.666v13.007H54.36V62H14.108V9.031H53.854z" class="sbb-vm-color-black"></path>
	<path d="M105.88,9.031L88.271,62H75.12L57.766,9.031h12.101l11.92,39.673L93.888,9.031H105.88z" class="sbb-vm-color-black"></path>
	<path d="M143.994,22.255h-10.072c-0.941-4.082-3.261-6.123-6.956-6.123c-3.913,0-6.69,2.404-8.333,7.21
		c-0.677,1.956-1.22,4.915-1.63,8.876c1.594-2.15,3.29-3.696,5.09-4.638c1.799-0.942,3.968-1.413,6.504-1.413
		c4.975,0,8.973,1.764,11.992,5.29c2.874,3.333,4.312,7.512,4.312,12.537c0,5.966-1.933,10.76-5.797,14.383
		c-3.479,3.261-7.657,4.892-12.536,4.892c-6.256,0-11.123-2.361-14.601-7.083c-3.479-4.722-5.218-11.31-5.218-19.764
		c0-9.034,1.86-16.111,5.58-21.231c3.599-4.951,8.514-7.427,14.745-7.427c5.87,0,10.362,1.969,13.479,5.905
		C142.34,15.939,143.487,18.801,143.994,22.255z M126.061,34.393c-2.536,0-4.554,1.063-6.051,3.188
		c-1.354,1.884-2.029,4.13-2.029,6.738c0,2.585,0.688,4.844,2.065,6.775c1.497,2.15,3.551,3.225,6.159,3.225
		c2.536,0,4.577-1.026,6.123-3.079c1.449-1.933,2.174-4.215,2.174-6.848c0-2.585-0.652-4.795-1.957-6.631
		C130.951,35.516,128.789,34.393,126.061,34.393z" class="sbb-vm-color-black"></path>
	<path d="M183.521,9.031v9.42h-21.34l-2.282,11.919c2.56-2.705,5.833-4.058,9.818-4.058c3.913,0,7.318,1.051,10.217,3.152
		c4.3,3.165,6.449,7.971,6.449,14.42c0,6.329-2.295,11.341-6.884,15.036c-3.575,2.898-7.85,4.348-12.825,4.348
		c-5.604,0-10.108-1.504-13.515-4.511c-3.405-3.007-5.205-7.07-5.397-12.191h10.397c0.169,1.86,0.773,3.441,1.812,4.746
		c1.618,2.053,3.864,3.079,6.739,3.079c2.777,0,4.976-1.002,6.594-3.007c1.57-1.956,2.355-4.335,2.355-7.138
		c0-3.043-0.822-5.477-2.464-7.3c-1.643-1.824-3.829-2.736-6.558-2.736c-3.333,0-5.931,1.498-7.79,4.493l-9.456-0.145l5.036-29.528
		H183.521z" class="sbb-vm-color-black"></path>
</g>
</svg>