<?xml version="1.0" encoding="utf-8"?>
<svg version="1.0" xmlns="http://www.w3.org/2000/svg" xmlns:xlink="http://www.w3.org/1999/xlink" x="0px" y="0px" viewBox="0 0 210 71" enable-background="new 0 0 210 71" xml:space="preserve">
<g>
	<rect fill="#FF6300" width="210" height="71" class="sbb-vm-color-orange"></rect>
</g>
<g>
	<path d="M53.854,9.031v9.782H25.666v11.304h25.832v9.094H25.666v13.007H54.36V62H14.108V9.031H53.854z" class="sbb-vm-color-black"></path>
	<path d="M105.88,9.031L88.271,62H75.12L57.766,9.031h12.101l11.92,39.673L93.888,9.031H105.88z" class="sbb-vm-color-black"></path>
	<path d="M143.596,9.031v8.985c-0.29,0.314-1.147,1.292-2.572,2.935c-1.98,2.271-3.949,5.127-5.905,8.569
		c-1.957,3.442-3.479,6.745-4.565,9.909c-2.295,6.594-3.684,14.118-4.166,22.571h-10.942c0.073-3.985,0.767-8.405,2.084-13.26
		c1.315-4.855,3.134-9.71,5.452-14.565c3.309-6.859,6.666-11.968,10.072-15.325h-24.999V9.031H143.596z" class="sbb-vm-color-black"></path>
	<path d="M184.862,9.031v8.985c-0.29,0.314-1.147,1.292-2.572,2.935c-1.98,2.271-3.949,5.127-5.905,8.569
		c-1.957,3.442-3.479,6.745-4.565,9.909c-2.295,6.594-3.684,14.118-4.166,22.571h-10.942c0.073-3.985,0.767-8.405,2.084-13.26
		c1.315-4.855,3.134-9.71,5.452-14.565c3.309-6.859,6.666-11.968,10.072-15.325H149.32V9.031H184.862z" class="sbb-vm-color-black"></path>
</g>
</svg>