<svg xmlns="http://www.w3.org/2000/svg" xml:space="preserve" version="1.0" viewBox="0 0 210 71"><path fill="#FFFFFF" d="M0 0H210V71H0z" class="sbb-vm-color-white"/><path d="M53.854 9.031v9.782H25.666v11.304h25.832v9.094H25.666v13.007H54.36V62H14.108V9.031H53.854zM107.148 9.031 90.12 34.284 108.706 62H94.794L83.2 43.595 71.389 62H58.165l18.694-27.716L59.614 9.031h13.55l10.507 16.992L94.322 9.031H107.148zM113.127 9.031h23.839c5.121 0 8.937.64 11.449 1.92 2.367 1.208 4.154 2.959 5.362 5.253 1.015 1.933 1.521 3.985 1.521 6.159 0 2.416-.616 4.565-1.848 6.449-1.231 1.884-3.02 3.369-5.362 4.456 2.029.677 3.551 1.39 4.565 2.138 3.43 2.513 5.145 6.172 5.145 10.978 0 2.851-.634 5.411-1.902 7.681-1.268 2.271-3.086 4.095-5.452 5.471C147.642 61.18 143.862 62 139.104 62h-25.977V9.031zM124.685 18.125v12.354h10.579c2.464 0 4.275-.29 5.435-.87 2.149-1.038 3.225-2.826 3.225-5.362 0-2.15-.677-3.708-2.029-4.674-1.353-.966-3.562-1.449-6.63-1.449H124.685zM124.685 38.378v14.528h11.702c3.356 0 5.712-.471 7.064-1.413 1.787-1.279 2.682-3.225 2.682-5.833 0-3.115-1.208-5.241-3.623-6.376-1.329-.604-3.563-.906-6.703-.906H124.685zM189.21 9.031V62h-10.579V27.328h-3.768-3.769-3.659-1.268v-7.681c2.584-.072 4.691-.338 6.322-.797 1.63-.458 3.121-1.208 4.475-2.247 1.956-1.497 3.272-4.021 3.949-7.572H189.21z" class="sbb-vm-color-black"/></svg>