<svg xmlns="http://www.w3.org/2000/svg" xml:space="preserve" version="1.0" viewBox="0 0 210 71"><path fill="#FFFFFF" d="M0 0H210V71H0z" class="sbb-vm-color-white"/><path d="M53.854 9.031v9.782H25.666v11.304h25.832v9.094H25.666v13.007H54.36V62H14.108V9.031H53.854zM107.148 9.031 90.12 34.284 108.706 62H94.794L83.2 43.595 71.389 62H58.165l18.694-27.716L59.614 9.031h13.55l10.507 16.992L94.322 9.031H107.148zM113.127 9.031h23.839c5.121 0 8.937.64 11.449 1.92 2.367 1.208 4.154 2.959 5.362 5.253 1.015 1.933 1.521 3.985 1.521 6.159 0 2.416-.616 4.565-1.848 6.449-1.231 1.884-3.02 3.369-5.362 4.456 2.029.677 3.551 1.39 4.565 2.138 3.43 2.513 5.145 6.172 5.145 10.978 0 2.851-.634 5.411-1.902 7.681-1.268 2.271-3.086 4.095-5.452 5.471C147.642 61.18 143.862 62 139.104 62h-25.977V9.031zM124.685 18.125v12.354h10.579c2.464 0 4.275-.29 5.435-.87 2.149-1.038 3.225-2.826 3.225-5.362 0-2.15-.677-3.708-2.029-4.674-1.353-.966-3.562-1.449-6.63-1.449H124.685zM124.685 38.378v14.528h11.702c3.356 0 5.712-.471 7.064-1.413 1.787-1.279 2.682-3.225 2.682-5.833 0-3.115-1.208-5.241-3.623-6.376-1.329-.604-3.563-.906-6.703-.906H124.685zM200.116 52.58V62h-38.151c0-2.874.465-5.615 1.396-8.224.929-2.609 2.239-4.855 3.931-6.739 1.305-1.449 2.832-2.862 4.583-4.239s5.235-3.9 10.453-7.572c2.535-1.763 4.311-3.406 5.325-4.927s1.521-3.285 1.521-5.29c0-2.319-.683-4.197-2.047-5.634s-3.158-2.156-5.38-2.156c-5.459 0-8.273 3.925-8.441 11.775h-10.182c0-.507 0-.894 0-1.16 0-6.424 1.8-11.4 5.398-14.927 3.502-3.429 8.031-5.145 13.587-5.145 4.927 0 9.045 1.401 12.354 4.203 3.599 3.043 5.398 7.137 5.398 12.282 0 4.492-1.438 8.357-4.312 11.594-.942 1.063-1.824 1.915-2.645 2.555-.821.64-2.983 2.18-6.485 4.619-3.333 2.318-5.719 4.094-7.155 5.326-1.438 1.231-2.772 2.645-4.004 4.238H200.116z" class="sbb-vm-color-black"/></svg>