<?xml version="1.0" encoding="utf-8"?><svg version="1.0" xmlns="http://www.w3.org/2000/svg" xmlns:xlink="http://www.w3.org/1999/xlink" x="0px" y="0px" viewBox="0 0 210 71" enable-background="new 0 0 210 71" xml:space="preserve"> <g> <rect fill="#FFFFFF" width="210" height="71" class="sbb-vm-color-white"></rect> </g> <g> <path d="M53.854,9.031v9.782H25.666v11.304h25.832v9.094H25.666v13.007H54.36V62H14.108V9.031H53.854z" class="sbb-vm-color-black"></path> <path d="M107.148,9.031L90.12,34.284L108.706,62H94.794L83.2,43.595L71.389,62H58.165l18.694-27.716L59.614,9.031h13.55 l10.507,16.992L94.322,9.031H107.148z" class="sbb-vm-color-black"></path> <path d="M113.127,9.031h23.839c5.121,0,8.937,0.64,11.449,1.92c2.367,1.208,4.154,2.959,5.362,5.253 c1.015,1.933,1.521,3.985,1.521,6.159c0,2.416-0.616,4.565-1.848,6.449c-1.231,1.884-3.02,3.369-5.362,4.456 c2.029,0.677,3.551,1.39,4.565,2.138c3.43,2.513,5.145,6.172,5.145,10.978c0,2.851-0.634,5.411-1.902,7.681 c-1.268,2.271-3.086,4.095-5.452,5.471C147.642,61.18,143.862,62,139.104,62h-25.977V9.031z M124.685,18.125v12.354h10.579 c2.464,0,4.275-0.29,5.435-0.87c2.149-1.038,3.225-2.826,3.225-5.362c0-2.15-0.677-3.708-2.029-4.674 c-1.353-0.966-3.562-1.449-6.63-1.449H124.685z M124.685,38.378v14.528h11.702c3.356,0,5.712-0.471,7.064-1.413 c1.787-1.279,2.682-3.225,2.682-5.833c0-3.115-1.208-5.241-3.623-6.376c-1.329-0.604-3.563-0.906-6.703-0.906H124.685z" class="sbb-vm-color-black"></path> <path d="M163.088,25.806c0.121-4.348,1.196-7.994,3.225-10.941c3.285-4.734,8.225-7.101,14.818-7.101 c5.072,0,9.166,1.292,12.282,3.876c3.357,2.802,5.036,6.425,5.036,10.869c0,2.657-0.658,4.945-1.975,6.866 s-3.098,3.219-5.344,3.895c2.85,0.652,5.103,2.102,6.757,4.348c1.654,2.246,2.481,4.964,2.481,8.151 c0,5.242-1.933,9.529-5.797,12.862c-3.574,3.092-8.092,4.638-13.55,4.638c-5.918,0-10.61-1.703-14.075-5.108 c-3.467-3.406-5.199-8.007-5.199-13.804c0-0.121,0-0.351,0-0.688h10.181c0,3.261,0.772,5.778,2.318,7.554s3.732,2.663,6.558,2.663 c2.826,0,5-0.833,6.521-2.5c1.4-1.57,2.102-3.442,2.102-5.616c0-2.608-0.894-4.673-2.681-6.195 c-1.474-1.255-3.744-1.884-6.812-1.884c-0.87,0-1.728,0.049-2.572,0.146v-7.79c0.628,0.048,1.231,0.072,1.812,0.072 c6.087,0,9.13-2.258,9.13-6.775c0-1.98-0.665-3.581-1.993-4.801c-1.328-1.219-3.079-1.83-5.253-1.83 c-2.488,0-4.408,0.773-5.761,2.319c-1.353,1.546-2.077,3.804-2.174,6.775H163.088z" class="sbb-vm-color-black"></path> </g> </svg>