<?xml version="1.0" encoding="utf-8"?>
<svg version="1.0" xmlns="http://www.w3.org/2000/svg" xmlns:xlink="http://www.w3.org/1999/xlink" x="0px" y="0px" viewBox="0 0 210 71" enable-background="new 0 0 210 71" xml:space="preserve">
<g>
	<rect fill="#FFFFFF" width="210" height="71" class="sbb-vm-color-white"></rect>
</g>
<g>
	<path d="M53.854,9.031v9.782H25.666v11.304h25.832v9.094H25.666v13.007H54.36V62H14.108V9.031H53.854z" class="sbb-vm-color-black"></path>
	<path d="M107.148,9.031L90.12,34.284L108.706,62H94.794L83.2,43.595L71.389,62H58.165l18.694-27.716L59.614,9.031h13.55
		l10.507,16.992L94.322,9.031H107.148z" class="sbb-vm-color-black"></path>
	<path d="M113.127,9.031h23.839c5.121,0,8.937,0.64,11.449,1.92c2.367,1.208,4.154,2.959,5.362,5.253
		c1.015,1.933,1.521,3.985,1.521,6.159c0,2.416-0.616,4.565-1.848,6.449c-1.231,1.884-3.02,3.369-5.362,4.456
		c2.029,0.677,3.551,1.39,4.565,2.138c3.43,2.513,5.145,6.172,5.145,10.978c0,2.851-0.634,5.411-1.902,7.681
		c-1.268,2.271-3.086,4.095-5.452,5.471C147.642,61.18,143.862,62,139.104,62h-25.977V9.031z M124.685,18.125v12.354h10.579
		c2.464,0,4.275-0.29,5.435-0.87c2.149-1.038,3.225-2.826,3.225-5.362c0-2.15-0.677-3.708-2.029-4.674
		c-1.353-0.966-3.562-1.449-6.63-1.449H124.685z M124.685,38.378v14.528h11.702c3.356,0,5.712-0.471,7.064-1.413
		c1.787-1.279,2.682-3.225,2.682-5.833c0-3.115-1.208-5.241-3.623-6.376c-1.329-0.604-3.563-0.906-6.703-0.906H124.685z" class="sbb-vm-color-black"></path>
	<path d="M197.471,9.031v9.42h-21.34l-2.282,11.919c2.56-2.705,5.833-4.058,9.818-4.058c3.913,0,7.318,1.051,10.217,3.152
		c4.3,3.165,6.449,7.971,6.449,14.42c0,6.329-2.295,11.341-6.884,15.036c-3.575,2.898-7.85,4.348-12.825,4.348
		c-5.604,0-10.108-1.504-13.515-4.511c-3.405-3.007-5.205-7.07-5.397-12.191h10.397c0.169,1.86,0.773,3.441,1.812,4.746
		c1.618,2.053,3.864,3.079,6.739,3.079c2.777,0,4.976-1.002,6.594-3.007c1.57-1.956,2.355-4.335,2.355-7.138
		c0-3.043-0.822-5.477-2.464-7.3c-1.643-1.824-3.829-2.736-6.558-2.736c-3.333,0-5.931,1.498-7.79,4.493l-9.456-0.145l5.036-29.528
		H197.471z" class="sbb-vm-color-black"></path>
</g>
</svg>