<svg xmlns="http://www.w3.org/2000/svg" xml:space="preserve" version="1.0" viewBox="0 0 210 71"><path fill="#FFFFFF" d="M0 0H210V71H0z" class="sbb-vm-color-white"/><path d="M53.854 9.031v9.782H25.666v11.304h25.832v9.094H25.666v13.007H54.36V62H14.108V9.031H53.854zM107.148 9.031 90.12 34.284 108.706 62H94.794L83.2 43.595 71.389 62H58.165l18.694-27.716L59.614 9.031h13.55l10.507 16.992L94.322 9.031H107.148zM113.127 9.031h23.839c5.121 0 8.937.64 11.449 1.92 2.367 1.208 4.154 2.959 5.362 5.253 1.015 1.933 1.521 3.985 1.521 6.159 0 2.416-.616 4.565-1.848 6.449-1.231 1.884-3.02 3.369-5.362 4.456 2.029.677 3.551 1.39 4.565 2.138 3.43 2.513 5.145 6.172 5.145 10.978 0 2.851-.634 5.411-1.902 7.681-1.268 2.271-3.086 4.095-5.452 5.471C147.642 61.18 143.862 62 139.104 62h-25.977V9.031zM124.685 18.125v12.354h10.579c2.464 0 4.275-.29 5.435-.87 2.149-1.038 3.225-2.826 3.225-5.362 0-2.15-.677-3.708-2.029-4.674-1.353-.966-3.562-1.449-6.63-1.449H124.685zM124.685 38.378v14.528h11.702c3.356 0 5.712-.471 7.064-1.413 1.787-1.279 2.682-3.225 2.682-5.833 0-3.115-1.208-5.241-3.623-6.376-1.329-.604-3.563-.906-6.703-.906H124.685zM198.812 9.031v8.985c-.29.314-1.147 1.292-2.572 2.935-1.98 2.271-3.949 5.127-5.905 8.569-1.957 3.442-3.479 6.745-4.565 9.909-2.295 6.594-3.684 14.118-4.166 22.571H170.66c.073-3.985.767-8.405 2.084-13.26 1.315-4.855 3.134-9.71 5.452-14.565 3.309-6.859 6.666-11.968 10.072-15.325H163.27V9.031H198.812z" class="sbb-vm-color-black"/></svg>