<svg xmlns="http://www.w3.org/2000/svg" xml:space="preserve" version="1.0" viewBox="0 0 210 71"><path fill="#FFFFFF" d="M0 0H210V71H0z" class="sbb-vm-color-white"/><path d="M53.854 9.031v9.782H25.666v11.304h25.832v9.094H25.666v13.007H54.36V62H14.108V9.031H53.854zM107.148 9.031 90.12 34.284 108.706 62H94.794L83.2 43.595 71.389 62H58.165l18.694-27.716L59.614 9.031h13.55l10.507 16.992L94.322 9.031H107.148zM113.127 9.031h23.839c5.121 0 8.937.64 11.449 1.92 2.367 1.208 4.154 2.959 5.362 5.253 1.015 1.933 1.521 3.985 1.521 6.159 0 2.416-.616 4.565-1.848 6.449-1.231 1.884-3.02 3.369-5.362 4.456 2.029.677 3.551 1.39 4.565 2.138 3.43 2.513 5.145 6.172 5.145 10.978 0 2.851-.634 5.411-1.902 7.681-1.268 2.271-3.086 4.095-5.452 5.471C147.642 61.18 143.862 62 139.104 62h-25.977V9.031zM124.685 18.125v12.354h10.579c2.464 0 4.275-.29 5.435-.87 2.149-1.038 3.225-2.826 3.225-5.362 0-2.15-.677-3.708-2.029-4.674-1.353-.966-3.562-1.449-6.63-1.449H124.685zM124.685 38.378v14.528h11.702c3.356 0 5.712-.471 7.064-1.413 1.787-1.279 2.682-3.225 2.682-5.833 0-3.115-1.208-5.241-3.623-6.376-1.329-.604-3.563-.906-6.703-.906H124.685zM171.168 33.559c-2.464-.845-4.354-2.234-5.67-4.167-1.317-1.932-1.975-4.275-1.975-7.029 0-4.589 1.884-8.248 5.651-10.978 3.333-2.415 7.294-3.623 11.884-3.623 5.217 0 9.479 1.437 12.789 4.311 3.14 2.706 4.71 6.051 4.71 10.036 0 2.778-.664 5.157-1.992 7.137-1.329 1.981-3.213 3.418-5.652 4.312 1.908.556 3.466 1.268 4.674 2.138 3.357 2.44 5.036 6.002 5.036 10.688 0 5.387-2.065 9.674-6.195 12.862-3.479 2.681-7.947 4.021-13.405 4.021-5.918 0-10.628-1.474-14.13-4.42-3.647-3.067-5.471-7.089-5.471-12.065 0-4.661 1.618-8.272 4.854-10.833C167.75 34.815 169.38 34.018 171.168 33.559zM180.841 37.545c-2.608 0-4.74.803-6.395 2.409s-2.481 3.665-2.481 6.177c0 2.585.839 4.687 2.518 6.305s3.858 2.428 6.54 2.428c3.043 0 5.326-.894 6.848-2.682 1.473-1.715 2.21-3.695 2.21-5.941 0-2.561-.846-4.661-2.536-6.305C185.926 38.342 183.691 37.545 180.841 37.545zM180.914 15.987c-2.319 0-4.191.646-5.616 1.938-1.426 1.292-2.138 2.989-2.138 5.09 0 2.198.719 3.955 2.156 5.271 1.437 1.317 3.363 1.975 5.778 1.975s4.323-.652 5.725-1.957c1.4-1.304 2.102-3.08 2.102-5.326 0-2.198-.707-3.913-2.12-5.145S183.426 15.987 180.914 15.987z" class="sbb-vm-color-black"/></svg>