<svg xmlns="http://www.w3.org/2000/svg" xml:space="preserve" version="1.0" viewBox="0 0 210 71"><path fill="#FFFFFF" d="M0 0H210V71H0z" class="sbb-vm-color-white"/><path d="M53.854 9.031v9.782H25.666v11.304h25.832v9.094H25.666v13.007H54.36V62H14.108V9.031H53.854zM107.148 9.031 90.12 34.284 108.706 62H94.794L83.2 43.595 71.389 62H58.165l18.694-27.716L59.614 9.031h13.55l10.507 16.992L94.322 9.031H107.148zM113.127 9.031h23.839c5.121 0 8.937.64 11.449 1.92 2.367 1.208 4.154 2.959 5.362 5.253 1.015 1.933 1.521 3.985 1.521 6.159 0 2.416-.616 4.565-1.848 6.449-1.231 1.884-3.02 3.369-5.362 4.456 2.029.677 3.551 1.39 4.565 2.138 3.43 2.513 5.145 6.172 5.145 10.978 0 2.851-.634 5.411-1.902 7.681-1.268 2.271-3.086 4.095-5.452 5.471C147.642 61.18 143.862 62 139.104 62h-25.977V9.031zM124.685 18.125v12.354h10.579c2.464 0 4.275-.29 5.435-.87 2.149-1.038 3.225-2.826 3.225-5.362 0-2.15-.677-3.708-2.029-4.674-1.353-.966-3.562-1.449-6.63-1.449H124.685zM124.685 38.378v14.528h11.702c3.356 0 5.712-.471 7.064-1.413 1.787-1.279 2.682-3.225 2.682-5.833 0-3.115-1.208-5.241-3.623-6.376-1.329-.604-3.563-.906-6.703-.906H124.685zM162.871 48.704h9.999c.821 4.106 3.2 6.159 7.138 6.159 2.222 0 4.027-.755 5.417-2.265 1.389-1.51 2.457-3.858 3.206-7.047.482-2.029.833-4.335 1.051-6.92-1.619 2.271-3.279 3.883-4.981 4.837-1.703.954-3.774 1.431-6.214 1.431-3.89 0-7.271-1.135-10.145-3.405-2.005-1.595-3.568-3.659-4.692-6.196-1.123-2.536-1.685-5.29-1.685-8.261 0-5.965 2.041-10.797 6.123-14.492 3.502-3.188 7.705-4.782 12.608-4.782 3.019 0 5.809.676 8.369 2.029 2.56 1.353 4.71 3.273 6.449 5.761 3.067 4.42 4.602 10.628 4.602 18.622 0 7.392-1.354 13.695-4.059 18.913-3.526 6.787-8.864 10.181-16.014 10.181-4.759 0-8.689-1.316-11.793-3.949S163.354 53.148 162.871 48.704zM180.479 16.712c-2.271 0-4.19.93-5.761 2.79-1.57 1.884-2.354 4.275-2.354 7.174 0 2.343.567 4.42 1.703 6.231 1.545 2.488 3.719 3.732 6.521 3.732 2.536 0 4.564-1.015 6.086-3.043 1.426-1.908 2.138-4.178 2.138-6.811 0-2.777-.736-5.132-2.21-7.065C185.056 17.714 183.015 16.712 180.479 16.712z" class="sbb-vm-color-black"/></svg>