<?xml version="1.0" encoding="utf-8"?><svg version="1.0" xmlns="http://www.w3.org/2000/svg" xmlns:xlink="http://www.w3.org/1999/xlink" x="0px" y="0px" viewBox="0 0 210 71" enable-background="new 0 0 210 71" xml:space="preserve"> <g> <rect fill="#EB0000" width="210" height="71" class="sbb-vm-color-red"></rect> <path fill="#FFFFFF" d="M32.059,9H47.17L24.209,62H9L32.059,9z" class="sbb-vm-color-white"></path> <path fill="#FFFFFF" d="M54.541,9H109l-6.182,14.33H63.765L52.971,47.67h39.053L86.039,62H31.58L54.541,9z" class="sbb-vm-color-white"></path> </g> <g> <path fill="#FFFFFF" d="M148.356,9.031V62h-10.579V27.328h-3.768h-3.769h-3.658h-1.269v-7.681c2.584-0.072,4.691-0.338,6.322-0.797 c1.63-0.458,3.121-1.208,4.475-2.247c1.956-1.497,3.272-4.021,3.949-7.572H148.356z" class="sbb-vm-color-white"></path> <path fill="#FFFFFF" d="M201,40.95v8.949h-6.666V62h-10.326V49.899h-22.101v-9.928l22.644-30.94h9.783V40.95H201z M184.226,41.059 V21.35l-13.623,19.709H184.226z" class="sbb-vm-color-white"></path> </g> </svg>