<?xml version="1.0" encoding="utf-8"?>
<!-- Generator: Adobe Illustrator 27.0.0, SVG Export Plug-In . SVG Version: 6.00 Build 0)  -->
<svg version="1.0" id="Ebene_1" xmlns="http://www.w3.org/2000/svg" xmlns:xlink="http://www.w3.org/1999/xlink" x="0px" y="0px"
	 viewBox="0 0 210 71" enable-background="new 0 0 210 71" xml:space="preserve">
<g id="ic">
	<rect id="background-red_00000076598032942269013870000006831377924595888786_" fill="#EB0000" width="210" height="71"/>
	<path fill="#FFFFFF" d="M32.059,9H47.17L24.209,62H9L32.059,9z"/>
	<path fill="#FFFFFF" d="M54.541,9H109l-6.182,14.33H63.765L52.971,47.67h39.053L86.039,62H31.58L54.541,9z"/>
</g>
<g>
	<path fill="#FFFFFF" d="M159.263,52.58V62h-38.15c0-2.874,0.464-5.615,1.395-8.224c0.93-2.609,2.24-4.855,3.931-6.739
		c1.305-1.449,2.831-2.862,4.583-4.239c1.751-1.377,5.235-3.9,10.453-7.572c2.535-1.763,4.311-3.406,5.325-4.927
		s1.521-3.285,1.521-5.29c0-2.319-0.683-4.197-2.047-5.634s-3.158-2.156-5.38-2.156c-5.459,0-8.273,3.925-8.441,11.775h-10.181
		c0-0.507,0-0.894,0-1.16c0-6.424,1.799-11.4,5.398-14.927c3.501-3.429,8.03-5.145,13.586-5.145c4.927,0,9.045,1.401,12.354,4.203
		c3.599,3.043,5.398,7.137,5.398,12.282c0,4.492-1.438,8.357-4.312,11.594c-0.942,1.063-1.824,1.915-2.645,2.555
		c-0.821,0.64-2.983,2.18-6.485,4.619c-3.333,2.318-5.719,4.094-7.155,5.326c-1.438,1.231-2.772,2.645-4.004,4.238H159.263z"/>
	<path fill="#FFFFFF" d="M197.884,9.031v9.42h-21.34l-2.282,11.919c2.56-2.705,5.833-4.058,9.818-4.058
		c3.913,0,7.318,1.051,10.217,3.152c4.3,3.165,6.449,7.971,6.449,14.42c0,6.329-2.295,11.341-6.884,15.036
		c-3.575,2.898-7.85,4.348-12.825,4.348c-5.604,0-10.108-1.504-13.515-4.511c-3.405-3.007-5.205-7.07-5.397-12.191h10.397
		c0.169,1.86,0.773,3.441,1.812,4.746c1.618,2.053,3.864,3.079,6.739,3.079c2.777,0,4.976-1.002,6.594-3.007
		c1.57-1.956,2.355-4.335,2.355-7.138c0-3.043-0.822-5.477-2.464-7.3c-1.643-1.824-3.829-2.736-6.558-2.736
		c-3.333,0-5.931,1.498-7.79,4.493l-9.456-0.145l5.036-29.528H197.884z"/>
</g>
</svg>
