<?xml version="1.0" encoding="utf-8"?>
<!-- Generator: Adobe Illustrator 25.1.0, SVG Export Plug-In . SVG Version: 6.00 Build 0)  -->
<svg version="1.0" id="Ebene_1" xmlns="http://www.w3.org/2000/svg" xmlns:xlink="http://www.w3.org/1999/xlink" x="0px" y="0px"
	 viewBox="0 0 210 71" enable-background="new 0 0 210 71" xml:space="preserve">
<rect id="background-red" fill="#EB0000" width="210" height="71"/>
<g id="IC:background-red:99">
	<path fill="#FFFFFF" d="M32.059,9H47.17L24.209,62H9L32.059,9z"/>
	<path fill="#FFFFFF" d="M54.541,9H109l-6.182,14.33H63.765L52.971,47.67h39.053L86.039,62H31.58L54.541,9z"/>
</g>
<g>
	<path fill="#FFFFFF" d="M158.356,22.255h-10.072c-0.941-4.082-3.261-6.123-6.956-6.123c-3.913,0-6.69,2.404-8.333,7.21
		c-0.677,1.956-1.22,4.915-1.63,8.876c1.594-2.15,3.29-3.696,5.09-4.638c1.799-0.942,3.968-1.413,6.504-1.413
		c4.975,0,8.973,1.764,11.992,5.29c2.874,3.333,4.312,7.512,4.312,12.537c0,5.966-1.933,10.76-5.797,14.383
		c-3.479,3.261-7.657,4.892-12.536,4.892c-6.256,0-11.123-2.361-14.601-7.083c-3.479-4.722-5.217-11.31-5.217-19.764
		c0-9.034,1.859-16.111,5.579-21.231c3.599-4.951,8.514-7.427,14.745-7.427c5.87,0,10.362,1.969,13.479,5.905
		C156.702,15.939,157.85,18.801,158.356,22.255z M140.423,34.393c-2.536,0-4.554,1.063-6.051,3.188
		c-1.354,1.884-2.029,4.13-2.029,6.738c0,2.585,0.688,4.844,2.065,6.775c1.497,2.15,3.551,3.225,6.159,3.225
		c2.536,0,4.577-1.026,6.123-3.079c1.449-1.933,2.174-4.215,2.174-6.848c0-2.585-0.652-4.795-1.957-6.631
		C145.313,35.516,143.151,34.393,140.423,34.393z"/>
	<path fill="#FFFFFF" d="M171.581,33.559c-2.464-0.845-4.354-2.234-5.67-4.167c-1.317-1.932-1.975-4.275-1.975-7.029
		c0-4.589,1.884-8.248,5.651-10.978c3.333-2.415,7.294-3.623,11.884-3.623c5.217,0,9.479,1.437,12.789,4.311
		c3.14,2.706,4.71,6.051,4.71,10.036c0,2.778-0.664,5.157-1.992,7.137c-1.329,1.981-3.213,3.418-5.652,4.312
		c1.908,0.556,3.466,1.268,4.674,2.138c3.357,2.44,5.036,6.002,5.036,10.688c0,5.387-2.065,9.674-6.195,12.862
		c-3.479,2.681-7.947,4.021-13.405,4.021c-5.918,0-10.628-1.474-14.13-4.42c-3.647-3.067-5.471-7.089-5.471-12.065
		c0-4.661,1.618-8.272,4.854-10.833C168.163,34.815,169.793,34.018,171.581,33.559z M181.254,37.545
		c-2.608,0-4.74,0.803-6.395,2.409s-2.481,3.665-2.481,6.177c0,2.585,0.839,4.687,2.518,6.305s3.858,2.428,6.54,2.428
		c3.043,0,5.326-0.894,6.848-2.682c1.473-1.715,2.21-3.695,2.21-5.941c0-2.561-0.846-4.661-2.536-6.305
		C186.339,38.342,184.104,37.545,181.254,37.545z M181.327,15.987c-2.319,0-4.191,0.646-5.616,1.938
		c-1.426,1.292-2.138,2.989-2.138,5.09c0,2.198,0.719,3.955,2.156,5.271c1.437,1.317,3.363,1.975,5.778,1.975
		s4.323-0.652,5.725-1.957c1.4-1.304,2.102-3.08,2.102-5.326c0-2.198-0.707-3.913-2.12-5.145S183.839,15.987,181.327,15.987z"/>
</g>
</svg>
