<svg xmlns="http://www.w3.org/2000/svg" xml:space="preserve" version="1.0" viewBox="0 0 210 71"><path fill="#EB0000" d="M0 0H210V71H0z" class="sbb-vm-color-red"/><path fill="#FFFFFF" d="M32.059 9H47.17L24.209 62H9L32.059 9zM54.541 9H109l-6.182 14.33H63.765L52.971 47.67h39.053L86.039 62H31.58L54.541 9z" class="sbb-vm-color-white"/><path fill="#FFFFFF" d="M157.958 9.031v8.985c-.29.314-1.147 1.292-2.572 2.935-1.98 2.271-3.949 5.127-5.905 8.569-1.957 3.442-3.479 6.745-4.565 9.909-2.295 6.594-3.684 14.118-4.166 22.571h-10.942c.073-3.985.767-8.405 2.084-13.26 1.315-4.855 3.134-9.71 5.452-14.565 3.309-6.859 6.666-11.968 10.072-15.325h-24.999V9.031H157.958zM189.623 9.031V62h-10.579V27.328h-3.768-3.769-3.659-1.268v-7.681c2.584-.072 4.691-.338 6.322-.797 1.63-.458 3.121-1.208 4.475-2.247 1.956-1.497 3.272-4.021 3.949-7.572H189.623z" class="sbb-vm-color-white sbb-vm-color-black"/></svg>