<svg xmlns="http://www.w3.org/2000/svg" xml:space="preserve" version="1.0" viewBox="0 0 210 71"><path fill="#EB0000" d="M0 0H210V71H0z" class="sbb-vm-color-red"/><path fill="#FFFFFF" d="M20.165 9 31.255 9 20.09 62.019 9 62.019zM76.299 19.558c-1.584-.99-3.297-1.757-5.09-2.279-2.202-.599-4.478-.881-6.76-.836-5.491-.195-10.811 1.928-14.66 5.849-3.798 3.9-5.697 8.938-5.697 15.116-.159 4.511 1.357 8.921 4.254 12.381 2.758 3.179 6.808 4.939 11.014 4.785 1.745.01 3.482-.22 5.164-.683 2.041-.638 4.003-1.505 5.85-2.583l-1.672 10.178c-.709.151-1.697.329-2.962.532-1.266.202-2.532.379-3.798.532-1.64.173-3.289.249-4.938.228-7.495 0-13.369-2.152-17.623-6.457-4.253-4.406-6.38-10.533-6.38-18.381 0-9.064 2.785-16.306 8.356-21.724 5.57-5.418 13.064-8.127 22.483-8.128 2.607-.046 5.213.145 7.786.57 1.374.229 2.731.546 4.064.949.404.102.873.242 1.405.418.532.178 1.152.393 1.861.646L76.299 19.558zM87.464 9 118.683 9 117.089 17.355 96.351 17.355 93.617 30.42 112.151 30.42 110.479 38.776 91.87 38.776 88.756 53.664 109.72 53.664 107.897 62.019 76.299 62.019z" class="sbb-vm-color-white"/></svg>