<?xml version="1.0" encoding="utf-8"?>
<!-- Generator: Adobe Illustrator 27.0.0, SVG Export Plug-In . SVG Version: 6.00 Build 0)  -->
<svg version="1.0" id="Ebene_1" xmlns="http://www.w3.org/2000/svg" xmlns:xlink="http://www.w3.org/1999/xlink" x="0px" y="0px"
	 viewBox="0 0 210 71" enable-background="new 0 0 210 71" xml:space="preserve">
<g id="ice">
	<rect id="background-red_00000159435103347504136050000014271800066632516010_" fill="#EB0000" width="210" height="71"/>
	<polygon fill="#FFFFFF" points="20.165,9 31.255,9 20.09,62.019 9,62.019 	"/>
	<path fill="#FFFFFF" d="M76.299,19.558c-1.584-0.99-3.297-1.757-5.09-2.279c-2.202-0.599-4.478-0.881-6.76-0.836
		c-5.491-0.195-10.811,1.928-14.66,5.849c-3.798,3.9-5.697,8.938-5.697,15.116c-0.159,4.511,1.357,8.921,4.254,12.381
		c2.758,3.179,6.808,4.939,11.014,4.785c1.745,0.01,3.482-0.22,5.164-0.683c2.041-0.638,4.003-1.505,5.85-2.583l-1.672,10.178
		c-0.709,0.151-1.697,0.329-2.962,0.532c-1.266,0.202-2.532,0.379-3.798,0.532c-1.64,0.173-3.289,0.249-4.938,0.228
		c-7.495,0-13.369-2.152-17.623-6.457c-4.253-4.406-6.38-10.533-6.38-18.381c0-9.064,2.785-16.306,8.356-21.724
		c5.57-5.418,13.064-8.127,22.483-8.128c2.607-0.046,5.213,0.145,7.786,0.57c1.374,0.229,2.731,0.546,4.064,0.949
		c0.404,0.102,0.873,0.242,1.405,0.418c0.532,0.178,1.152,0.393,1.861,0.646L76.299,19.558z"/>
	<polygon fill="#FFFFFF" points="87.464,9 118.683,9 117.089,17.355 96.351,17.355 93.617,30.42 112.151,30.42 110.479,38.776 
		91.87,38.776 88.756,53.664 109.72,53.664 107.897,62.019 76.299,62.019 	"/>
</g>
</svg>
