<svg xmlns="http://www.w3.org/2000/svg" xml:space="preserve" version="1.0" viewBox="0 0 210 71"><path fill="#EB0000" d="M0 0H210V71H0z" class="sbb-vm-color-red"/><path fill="#FFFFFF" d="M32.065 9H47.18L24.213 62H9L32.065 9zM89.907 46.296c1.669 0 3.239-.981 3.828-2.552L108.85 9H54.574L31.607 62h15.017l17.47-39.75h23.85l-5.496 12.661H62.72L79.307 62h16.194L82.546 46.296H89.907z" class="sbb-vm-color-white"/><path fill="#FFFFFF" d="M159.733 40.95v8.949h-6.666V62h-10.326V49.899h-22.101v-9.928l22.644-30.94h9.783V40.95H159.733zM142.959 41.059V21.35l-13.623 19.709H142.959zM189.623 9.031V62h-10.579V27.328h-3.768-3.769-3.659-1.268v-7.681c2.584-.072 4.691-.338 6.322-.797 1.63-.458 3.121-1.208 4.475-2.247 1.956-1.497 3.272-4.021 3.949-7.572H189.623z" class="sbb-vm-color-white sbb-vm-color-black"/></svg>