<svg xmlns="http://www.w3.org/2000/svg" xml:space="preserve" version="1.0" viewBox="0 0 210 71"><path fill="#EB0000" d="M0 0H210V71H0z" class="sbb-vm-color-red"/><path fill="#FFFFFF" d="M32.065 9H47.18L24.213 62H9L32.065 9zM89.907 46.296c1.669 0 3.239-.981 3.828-2.552L108.85 9H54.574L31.607 62h15.017l17.47-39.75h23.85l-5.496 12.661H62.72L79.307 62h16.194L82.546 46.296H89.907z" class="sbb-vm-color-white"/><path fill="#FFFFFF" d="M156.617 9.031v9.42h-21.34l-2.282 11.919c2.56-2.705 5.833-4.058 9.818-4.058 3.913 0 7.318 1.051 10.217 3.152 4.3 3.165 6.449 7.971 6.449 14.42 0 6.329-2.295 11.341-6.884 15.036-3.575 2.898-7.85 4.348-12.825 4.348-5.604 0-10.108-1.504-13.514-4.511-3.406-3.007-5.205-7.07-5.398-12.191h10.397c.169 1.86.773 3.441 1.812 4.746 1.618 2.053 3.864 3.079 6.739 3.079 2.777 0 4.976-1.002 6.594-3.007 1.57-1.956 2.355-4.335 2.355-7.138 0-3.043-.822-5.477-2.464-7.3-1.643-1.824-3.829-2.736-6.558-2.736-3.333 0-5.931 1.498-7.79 4.493l-9.456-.145 5.036-29.528H156.617zM201 40.95v8.949h-6.666V62h-10.326V49.899h-22.101v-9.928l22.644-30.94h9.783V40.95H201zM184.226 41.059V21.35l-13.623 19.709H184.226z" class="sbb-vm-color-white sbb-vm-color-black"/></svg>