<?xml version="1.0" encoding="utf-8"?><svg version="1.0" xmlns="http://www.w3.org/2000/svg" xmlns:xlink="http://www.w3.org/1999/xlink" x="0px" y="0px" viewBox="0 0 210 71" enable-background="new 0 0 210 71" xml:space="preserve"> <g> <rect fill="#EB0000" width="210" height="71" class="sbb-vm-color-red"></rect> <path fill="#FFFFFF" d="M32.065,9H47.18L24.213,62H9L32.065,9z" class="sbb-vm-color-white"></path> <path fill="#FFFFFF" d="M89.907,46.296c1.669,0,3.239-0.981,3.828-2.552L108.85,9H54.574L31.607,62h15.017l17.47-39.75h23.85 l-5.496,12.661H62.72L79.307,62h16.194L82.546,46.296H89.907z" class="sbb-vm-color-white"></path> </g> <g> <path fill="#FFFFFF" d="M158.356,22.255h-10.072c-0.941-4.082-3.261-6.123-6.956-6.123c-3.913,0-6.69,2.404-8.333,7.21 c-0.677,1.956-1.22,4.915-1.63,8.876c1.594-2.15,3.29-3.696,5.09-4.638c1.799-0.942,3.968-1.413,6.504-1.413 c4.975,0,8.973,1.764,11.992,5.29c2.874,3.333,4.312,7.512,4.312,12.537c0,5.966-1.933,10.76-5.797,14.383 c-3.479,3.261-7.657,4.892-12.536,4.892c-6.256,0-11.123-2.361-14.601-7.083c-3.479-4.722-5.217-11.31-5.217-19.764 c0-9.034,1.859-16.111,5.579-21.231c3.599-4.951,8.514-7.427,14.745-7.427c5.87,0,10.362,1.969,13.479,5.905 C156.702,15.939,157.85,18.801,158.356,22.255z M140.423,34.393c-2.536,0-4.554,1.063-6.051,3.188 c-1.354,1.884-2.029,4.13-2.029,6.738c0,2.585,0.688,4.844,2.065,6.775c1.497,2.15,3.551,3.225,6.159,3.225 c2.536,0,4.577-1.026,6.123-3.079c1.449-1.933,2.174-4.215,2.174-6.848c0-2.585-0.652-4.795-1.957-6.631 C145.313,35.516,143.151,34.393,140.423,34.393z" class="sbb-vm-color-white"></path> </g> </svg>