<?xml version="1.0" encoding="utf-8"?><svg version="1.0" xmlns="http://www.w3.org/2000/svg" xmlns:xlink="http://www.w3.org/1999/xlink" x="0px" y="0px" viewBox="0 0 210 71" enable-background="new 0 0 210 71" xml:space="preserve"> <g> <rect fill="#EB0000" width="210" height="71" class="sbb-vm-color-red"></rect> <path fill="#FFFFFF" d="M32.065,9H47.18L24.213,62H9L32.065,9z" class="sbb-vm-color-white"></path> <path fill="#FFFFFF" d="M89.907,46.296c1.669,0,3.239-0.981,3.828-2.552L108.85,9H54.574L31.607,62h15.017l17.47-39.75h23.85 l-5.496,12.661H62.72L79.307,62h16.194L82.546,46.296H89.907z" class="sbb-vm-color-white"></path> </g> <g> <path fill="#FFFFFF" d="M157.958,9.031v8.985c-0.29,0.314-1.147,1.292-2.572,2.935c-1.98,2.271-3.949,5.127-5.905,8.569 c-1.957,3.442-3.479,6.745-4.565,9.909c-2.295,6.594-3.684,14.118-4.166,22.571h-10.942c0.073-3.985,0.767-8.405,2.084-13.26 c1.315-4.855,3.134-9.71,5.452-14.565c3.309-6.859,6.666-11.968,10.072-15.325h-24.999V9.031H157.958z" class="sbb-vm-color-white"></path> </g> </svg>