<?xml version="1.0" encoding="utf-8"?>
<!-- Generator: Adobe Illustrator 27.0.0, SVG Export Plug-In . SVG Version: 6.00 Build 0)  -->
<svg version="1.0" id="Ebene_1" xmlns="http://www.w3.org/2000/svg" xmlns:xlink="http://www.w3.org/1999/xlink" x="0px" y="0px"
	 viewBox="0 0 210 71" enable-background="new 0 0 210 71" xml:space="preserve">
<g id="ir">
	<rect id="background-red_00000116196077225371218070000006198899979522231705_" fill="#EB0000" width="210" height="71"/>
	<path fill="#FFFFFF" d="M32.065,9H47.18L24.213,62H9L32.065,9z"/>
	<path fill="#FFFFFF" d="M89.907,46.296c1.669,0,3.239-0.981,3.828-2.552L108.85,9H54.574L31.607,62h15.017l17.47-39.75h23.85
		l-5.496,12.661H62.72L79.307,62h16.194L82.546,46.296H89.907z"/>
</g>
<g>
	<path fill="#FFFFFF" d="M130.314,33.559c-2.464-0.845-4.354-2.234-5.67-4.167c-1.317-1.932-1.975-4.275-1.975-7.029
		c0-4.589,1.884-8.248,5.651-10.978c3.333-2.415,7.294-3.623,11.884-3.623c5.217,0,9.479,1.437,12.789,4.311
		c3.14,2.706,4.71,6.051,4.71,10.036c0,2.778-0.664,5.157-1.992,7.137c-1.329,1.981-3.213,3.418-5.652,4.312
		c1.908,0.556,3.466,1.268,4.674,2.138c3.357,2.44,5.036,6.002,5.036,10.688c0,5.387-2.065,9.674-6.195,12.862
		c-3.479,2.681-7.947,4.021-13.405,4.021c-5.918,0-10.628-1.474-14.13-4.42c-3.647-3.067-5.471-7.089-5.471-12.065
		c0-4.661,1.618-8.272,4.854-10.833C126.896,34.815,128.526,34.018,130.314,33.559z M139.987,37.545
		c-2.608,0-4.74,0.803-6.395,2.409s-2.481,3.665-2.481,6.177c0,2.585,0.839,4.687,2.518,6.305s3.858,2.428,6.54,2.428
		c3.043,0,5.326-0.894,6.848-2.682c1.473-1.715,2.21-3.695,2.21-5.941c0-2.561-0.846-4.661-2.536-6.305
		C145.072,38.342,142.838,37.545,139.987,37.545z M140.061,15.987c-2.319,0-4.191,0.646-5.616,1.938
		c-1.426,1.292-2.138,2.989-2.138,5.09c0,2.198,0.719,3.955,2.156,5.271c1.437,1.317,3.363,1.975,5.778,1.975
		s4.323-0.652,5.725-1.957c1.4-1.304,2.102-3.08,2.102-5.326c0-2.198-0.707-3.913-2.12-5.145S142.572,15.987,140.061,15.987z"/>
	<path fill="#FFFFFF" d="M181.689,7.763c4.033,0,7.584,1.231,10.651,3.695c3.043,2.464,5.253,6.256,6.63,11.376
		c1.038,3.913,1.559,8.164,1.559,12.753c0,7.608-1.354,13.864-4.059,18.768c-1.594,2.851-3.677,5.049-6.249,6.594
		c-2.572,1.546-5.441,2.319-8.605,2.319c-4.323,0-8.019-1.305-11.086-3.913c-5.459-4.638-8.188-12.56-8.188-23.768
		c0-7.971,1.425-14.371,4.275-19.202c1.618-2.753,3.737-4.878,6.358-6.376C175.596,8.512,178.501,7.763,181.689,7.763z
		 M181.291,16.712c-3.479,0-5.846,2.005-7.102,6.014c-0.991,3.188-1.485,7.657-1.485,13.406c0,5.072,0.507,9.143,1.521,12.21
		c1.305,3.985,3.72,5.978,7.246,5.978c2.922,0,5.096-1.545,6.521-4.638c1.425-3.091,2.138-7.813,2.138-14.166
		c0-5.41-0.508-9.674-1.521-12.79C187.305,18.717,184.865,16.712,181.291,16.712z"/>
</g>
</svg>
