<?xml version="1.0" encoding="utf-8"?>
<!-- Generator: Adobe Illustrator 27.0.0, SVG Export Plug-In . SVG Version: 6.00 Build 0)  -->
<svg version="1.0" id="Ebene_1" xmlns="http://www.w3.org/2000/svg" xmlns:xlink="http://www.w3.org/1999/xlink" x="0px" y="0px"
	 viewBox="0 0 210 71" enable-background="new 0 0 210 71" xml:space="preserve">
<g id="ire">
	<rect id="background-red_00000034789379331041929540000010878631059149776526_" fill="#EB0000" width="210" height="71"/>
	<path fill="#FFFFFF" d="M9,62L20.134,9h10.921L20.028,62H9z"/>
	<path fill="#FFFFFF" d="M41.234,62H30.313L41.446,9h23.54c4.029,0,7.21,0.402,9.437,1.205c2.227,0.803,4.029,2.409,5.514,4.617
		c1.378,2.208,2.121,4.919,2.121,8.03c0,4.517-1.378,8.231-4.029,11.142s-6.786,4.718-12.3,5.42
		c1.378,1.305,2.757,2.911,3.923,4.919c2.439,4.116,5.196,10.038,8.165,17.566h-11.77c-0.954-3.011-2.757-7.629-5.514-14.053
		c-1.484-3.413-3.075-5.722-4.772-6.926c-1.06-0.703-2.863-1.004-5.408-1.004H45.9L41.234,62z M47.49,32.087h5.832
		c5.832,0,9.755-0.301,11.664-1.004c1.909-0.703,3.393-1.807,4.559-3.312c1.06-1.506,1.591-3.112,1.591-4.718
		c0-1.907-0.742-3.413-2.333-4.316c-0.954-0.602-3.075-0.903-6.256-0.903H50.459L47.49,32.087z"/>
	<path fill="#FFFFFF" d="M83.648,62L94.781,9h39.339l-1.803,8.833h-28.523l-2.545,12.045h27.463l-1.803,8.833H99.447L96.16,53.167
		h30.856L125.107,62H83.648z"/>
</g>
<g>
	<path fill="#FFFFFF" d="M200.501,52.58V62h-38.15c0-2.874,0.464-5.615,1.395-8.224c0.93-2.609,2.24-4.855,3.931-6.739
		c1.305-1.449,2.831-2.862,4.583-4.239c1.751-1.377,5.235-3.9,10.453-7.572c2.535-1.763,4.311-3.406,5.325-4.927
		s1.521-3.285,1.521-5.29c0-2.319-0.683-4.197-2.047-5.634s-3.158-2.156-5.38-2.156c-5.459,0-8.273,3.925-8.441,11.775H163.51
		c0-0.507,0-0.894,0-1.16c0-6.424,1.799-11.4,5.398-14.927c3.501-3.429,8.03-5.145,13.586-5.145c4.927,0,9.045,1.401,12.354,4.203
		c3.599,3.043,5.398,7.137,5.398,12.282c0,4.492-1.438,8.357-4.312,11.594c-0.942,1.063-1.824,1.915-2.645,2.555
		c-0.821,0.64-2.983,2.18-6.485,4.619c-3.333,2.318-5.719,4.094-7.155,5.326c-1.438,1.231-2.772,2.645-4.004,4.238H200.501z"/>
</g>
</svg>
