<svg xmlns="http://www.w3.org/2000/svg" xml:space="preserve" version="1.0" viewBox="0 0 210 71"><path fill="#EB0000" d="M0 0H210V71H0z" class="sbb-vm-color-red"/><path fill="#FFFFFF" d="M9 62 20.134 9h10.921L20.028 62H9zM41.234 62H30.313L41.446 9h23.54c4.029 0 7.21.402 9.437 1.205 2.227.803 4.029 2.409 5.514 4.617 1.378 2.208 2.121 4.919 2.121 8.03 0 4.517-1.378 8.231-4.029 11.142s-6.786 4.718-12.3 5.42c1.378 1.305 2.757 2.911 3.923 4.919 2.439 4.116 5.196 10.038 8.165 17.566h-11.77c-.954-3.011-2.757-7.629-5.514-14.053-1.484-3.413-3.075-5.722-4.772-6.926-1.06-.703-2.863-1.004-5.408-1.004H45.9L41.234 62zM47.49 32.087h5.832c5.832 0 9.755-.301 11.664-1.004 1.909-.703 3.393-1.807 4.559-3.312 1.06-1.506 1.591-3.112 1.591-4.718 0-1.907-.742-3.413-2.333-4.316-.954-.602-3.075-.903-6.256-.903H50.459L47.49 32.087zM83.648 62 94.781 9h39.339l-1.803 8.833h-28.523l-2.545 12.045h27.463l-1.803 8.833H99.447L96.16 53.167h30.856L125.107 62H83.648zM200.501 52.58V62h-38.15c0-2.874.464-5.615 1.395-8.224.93-2.609 2.24-4.855 3.931-6.739 1.305-1.449 2.831-2.862 4.583-4.239 1.751-1.377 5.235-3.9 10.453-7.572 2.535-1.763 4.311-3.406 5.325-4.927s1.521-3.285 1.521-5.29c0-2.319-.683-4.197-2.047-5.634s-3.158-2.156-5.38-2.156c-5.459 0-8.273 3.925-8.441 11.775H163.51c0-.507 0-.894 0-1.16 0-6.424 1.799-11.4 5.398-14.927 3.501-3.429 8.03-5.145 13.586-5.145 4.927 0 9.045 1.401 12.354 4.203 3.599 3.043 5.398 7.137 5.398 12.282 0 4.492-1.438 8.357-4.312 11.594-.942 1.063-1.824 1.915-2.645 2.555-.821.64-2.983 2.18-6.485 4.619-3.333 2.318-5.719 4.094-7.155 5.326-1.438 1.231-2.772 2.645-4.004 4.238H200.501z" class="sbb-vm-color-white"/></svg>