<svg xmlns="http://www.w3.org/2000/svg" xml:space="preserve" version="1.0" viewBox="0 0 210 71"><path fill="#EB0000" d="M0 0H210V71H0z" class="sbb-vm-color-red"/><path fill="#FFFFFF" d="M9 62 20.134 9h10.921L20.028 62H9zM41.234 62H30.313L41.446 9h23.54c4.029 0 7.21.402 9.437 1.205 2.227.803 4.029 2.409 5.514 4.617 1.378 2.208 2.121 4.919 2.121 8.03 0 4.517-1.378 8.231-4.029 11.142s-6.786 4.718-12.3 5.42c1.378 1.305 2.757 2.911 3.923 4.919 2.439 4.116 5.196 10.038 8.165 17.566h-11.77c-.954-3.011-2.757-7.629-5.514-14.053-1.484-3.413-3.075-5.722-4.772-6.926-1.06-.703-2.863-1.004-5.408-1.004H45.9L41.234 62zM47.49 32.087h5.832c5.832 0 9.755-.301 11.664-1.004 1.909-.703 3.393-1.807 4.559-3.312 1.06-1.506 1.591-3.112 1.591-4.718 0-1.907-.742-3.413-2.333-4.316-.954-.602-3.075-.903-6.256-.903H50.459L47.49 32.087zM83.648 62 94.781 9h39.339l-1.803 8.833h-28.523l-2.545 12.045h27.463l-1.803 8.833H99.447L96.16 53.167h30.856L125.107 62H83.648zM163.474 25.806c.12-4.348 1.195-7.994 3.225-10.941 3.283-4.734 8.224-7.101 14.817-7.101 5.072 0 9.166 1.292 12.282 3.876 3.357 2.802 5.036 6.425 5.036 10.869 0 2.657-.658 4.945-1.975 6.866s-3.098 3.219-5.344 3.895c2.85.652 5.103 2.102 6.757 4.348 1.654 2.246 2.481 4.964 2.481 8.151 0 5.242-1.933 9.529-5.797 12.862-3.574 3.092-8.092 4.638-13.55 4.638-5.918 0-10.61-1.703-14.075-5.108-3.467-3.406-5.199-8.007-5.199-13.804 0-.121 0-.351 0-.688h10.181c0 3.261.772 5.778 2.318 7.554s3.732 2.663 6.558 2.663c2.826 0 5-.833 6.521-2.5 1.4-1.57 2.102-3.442 2.102-5.616 0-2.608-.894-4.673-2.681-6.195-1.474-1.255-3.744-1.884-6.812-1.884-.87 0-1.728.049-2.572.146v-7.79c.628.048 1.231.072 1.812.072 6.087 0 9.13-2.258 9.13-6.775 0-1.98-.665-3.581-1.993-4.801-1.328-1.219-3.079-1.83-5.253-1.83-2.488 0-4.408.773-5.761 2.319-1.353 1.546-2.077 3.804-2.174 6.775H163.474z" class="sbb-vm-color-white"/></svg>