<?xml version="1.0" encoding="utf-8"?>
<!-- Generator: Adobe Illustrator 27.0.0, SVG Export Plug-In . SVG Version: 6.00 Build 0)  -->
<svg version="1.0" id="Ebene_1" xmlns="http://www.w3.org/2000/svg" xmlns:xlink="http://www.w3.org/1999/xlink" x="0px" y="0px"
	 viewBox="0 0 210 71" enable-background="new 0 0 210 71" xml:space="preserve">
<g id="ire">
	<rect id="background-red_00000034789379331041929540000010878631059149776526_" fill="#EB0000" width="210" height="71"/>
	<path fill="#FFFFFF" d="M9,62L20.134,9h10.921L20.028,62H9z"/>
	<path fill="#FFFFFF" d="M41.234,62H30.313L41.446,9h23.54c4.029,0,7.21,0.402,9.437,1.205c2.227,0.803,4.029,2.409,5.514,4.617
		c1.378,2.208,2.121,4.919,2.121,8.03c0,4.517-1.378,8.231-4.029,11.142s-6.786,4.718-12.3,5.42
		c1.378,1.305,2.757,2.911,3.923,4.919c2.439,4.116,5.196,10.038,8.165,17.566h-11.77c-0.954-3.011-2.757-7.629-5.514-14.053
		c-1.484-3.413-3.075-5.722-4.772-6.926c-1.06-0.703-2.863-1.004-5.408-1.004H45.9L41.234,62z M47.49,32.087h5.832
		c5.832,0,9.755-0.301,11.664-1.004c1.909-0.703,3.393-1.807,4.559-3.312c1.06-1.506,1.591-3.112,1.591-4.718
		c0-1.907-0.742-3.413-2.333-4.316c-0.954-0.602-3.075-0.903-6.256-0.903H50.459L47.49,32.087z"/>
	<path fill="#FFFFFF" d="M83.648,62L94.781,9h39.339l-1.803,8.833h-28.523l-2.545,12.045h27.463l-1.803,8.833H99.447L96.16,53.167
		h30.856L125.107,62H83.648z"/>
</g>
<g>
	<path fill="#FFFFFF" d="M197.855,9.031v9.42h-21.34l-2.282,11.919c2.56-2.705,5.833-4.058,9.818-4.058
		c3.913,0,7.318,1.051,10.217,3.152c4.3,3.165,6.449,7.971,6.449,14.42c0,6.329-2.295,11.341-6.884,15.036
		c-3.575,2.898-7.85,4.348-12.825,4.348c-5.604,0-10.108-1.504-13.514-4.511c-3.406-3.007-5.205-7.07-5.398-12.191h10.397
		c0.169,1.86,0.773,3.441,1.812,4.746c1.618,2.053,3.864,3.079,6.739,3.079c2.777,0,4.976-1.002,6.594-3.007
		c1.57-1.956,2.355-4.335,2.355-7.138c0-3.043-0.822-5.477-2.464-7.3c-1.643-1.824-3.829-2.736-6.558-2.736
		c-3.333,0-5.931,1.498-7.79,4.493l-9.456-0.145l5.036-29.528H197.855z"/>
</g>
</svg>
