<?xml version="1.0" encoding="utf-8"?><svg version="1.0" xmlns="http://www.w3.org/2000/svg" xmlns:xlink="http://www.w3.org/1999/xlink" x="0px" y="0px" viewBox="0 0 210 71" enable-background="new 0 0 210 71" xml:space="preserve"> <g> <rect fill="#EB0000" width="210" height="71" class="sbb-vm-color-red"></rect> <path fill="#FFFFFF" d="M9,62L20.134,9h10.921L20.028,62H9z" class="sbb-vm-color-white"></path> <path fill="#FFFFFF" d="M41.234,62H30.313L41.446,9h23.54c4.029,0,7.21,0.402,9.437,1.205c2.227,0.803,4.029,2.409,5.514,4.617 c1.378,2.208,2.121,4.919,2.121,8.03c0,4.517-1.378,8.231-4.029,11.142s-6.786,4.718-12.3,5.42 c1.378,1.305,2.757,2.911,3.923,4.919c2.439,4.116,5.196,10.038,8.165,17.566h-11.77c-0.954-3.011-2.757-7.629-5.514-14.053 c-1.484-3.413-3.075-5.722-4.772-6.926c-1.06-0.703-2.863-1.004-5.408-1.004H45.9L41.234,62z M47.49,32.087h5.832 c5.832,0,9.755-0.301,11.664-1.004c1.909-0.703,3.393-1.807,4.559-3.312c1.06-1.506,1.591-3.112,1.591-4.718 c0-1.907-0.742-3.413-2.333-4.316c-0.954-0.602-3.075-0.903-6.256-0.903H50.459L47.49,32.087z" class="sbb-vm-color-white"></path> <path fill="#FFFFFF" d="M83.648,62L94.781,9h39.339l-1.803,8.833h-28.523l-2.545,12.045h27.463l-1.803,8.833H99.447L96.16,53.167 h30.856L125.107,62H83.648z" class="sbb-vm-color-white"></path> </g> <g> <path fill="#FFFFFF" d="M199.595,22.255h-10.072c-0.941-4.082-3.261-6.123-6.956-6.123c-3.913,0-6.69,2.404-8.333,7.21 c-0.677,1.956-1.22,4.915-1.63,8.876c1.594-2.15,3.29-3.696,5.09-4.638c1.799-0.942,3.968-1.413,6.504-1.413 c4.975,0,8.973,1.764,11.992,5.29c2.874,3.333,4.312,7.512,4.312,12.537c0,5.966-1.933,10.76-5.797,14.383 c-3.479,3.261-7.657,4.892-12.536,4.892c-6.256,0-11.123-2.361-14.601-7.083c-3.479-4.722-5.217-11.31-5.217-19.764 c0-9.034,1.859-16.111,5.579-21.231c3.599-4.951,8.514-7.427,14.745-7.427c5.87,0,10.362,1.969,13.479,5.905 C197.94,15.939,199.088,18.801,199.595,22.255z M181.661,34.393c-2.536,0-4.554,1.063-6.051,3.188 c-1.354,1.884-2.029,4.13-2.029,6.738c0,2.585,0.688,4.844,2.065,6.775c1.497,2.15,3.551,3.225,6.159,3.225 c2.536,0,4.577-1.026,6.123-3.079c1.449-1.933,2.174-4.215,2.174-6.848c0-2.585-0.652-4.795-1.957-6.631 C186.552,35.516,184.39,34.393,181.661,34.393z" class="sbb-vm-color-white"></path> </g> </svg>