<svg xmlns="http://www.w3.org/2000/svg" xml:space="preserve" version="1.0" viewBox="0 0 210 71"><path fill="#EB0000" d="M0 0H210V71H0z" class="sbb-vm-color-red"/><path fill="#FFFFFF" d="M9 62 20.134 9h10.921L20.028 62H9zM41.234 62H30.313L41.446 9h23.54c4.029 0 7.21.402 9.437 1.205 2.227.803 4.029 2.409 5.514 4.617 1.378 2.208 2.121 4.919 2.121 8.03 0 4.517-1.378 8.231-4.029 11.142s-6.786 4.718-12.3 5.42c1.378 1.305 2.757 2.911 3.923 4.919 2.439 4.116 5.196 10.038 8.165 17.566h-11.77c-.954-3.011-2.757-7.629-5.514-14.053-1.484-3.413-3.075-5.722-4.772-6.926-1.06-.703-2.863-1.004-5.408-1.004H45.9L41.234 62zM47.49 32.087h5.832c5.832 0 9.755-.301 11.664-1.004 1.909-.703 3.393-1.807 4.559-3.312 1.06-1.506 1.591-3.112 1.591-4.718 0-1.907-.742-3.413-2.333-4.316-.954-.602-3.075-.903-6.256-.903H50.459L47.49 32.087zM83.648 62 94.781 9h39.339l-1.803 8.833h-28.523l-2.545 12.045h27.463l-1.803 8.833H99.447L96.16 53.167h30.856L125.107 62H83.648zM171.553 33.559c-2.464-.845-4.354-2.234-5.67-4.167-1.317-1.932-1.975-4.275-1.975-7.029 0-4.589 1.884-8.248 5.651-10.978 3.333-2.415 7.294-3.623 11.884-3.623 5.217 0 9.479 1.437 12.789 4.311 3.14 2.706 4.71 6.051 4.71 10.036 0 2.778-.664 5.157-1.992 7.137-1.329 1.981-3.213 3.418-5.652 4.312 1.908.556 3.466 1.268 4.674 2.138 3.357 2.44 5.036 6.002 5.036 10.688 0 5.387-2.065 9.674-6.195 12.862-3.479 2.681-7.947 4.021-13.405 4.021-5.918 0-10.628-1.474-14.13-4.42-3.647-3.067-5.471-7.089-5.471-12.065 0-4.661 1.618-8.272 4.854-10.833C168.135 34.815 169.765 34.018 171.553 33.559zM181.226 37.545c-2.608 0-4.74.803-6.395 2.409s-2.481 3.665-2.481 6.177c0 2.585.839 4.687 2.518 6.305s3.858 2.428 6.54 2.428c3.043 0 5.326-.894 6.848-2.682 1.473-1.715 2.21-3.695 2.21-5.941 0-2.561-.846-4.661-2.536-6.305C186.311 38.342 184.076 37.545 181.226 37.545zM181.299 15.987c-2.319 0-4.191.646-5.616 1.938-1.426 1.292-2.138 2.989-2.138 5.09 0 2.198.719 3.955 2.156 5.271 1.437 1.317 3.363 1.975 5.778 1.975s4.323-.652 5.725-1.957c1.4-1.304 2.102-3.08 2.102-5.326 0-2.198-.707-3.913-2.12-5.145S183.811 15.987 181.299 15.987z" class="sbb-vm-color-white"/></svg>