<?xml version="1.0" encoding="utf-8"?>
<!-- Generator: Adobe Illustrator 27.0.0, SVG Export Plug-In . SVG Version: 6.00 Build 0)  -->
<svg version="1.0" id="Ebene_1" xmlns="http://www.w3.org/2000/svg" xmlns:xlink="http://www.w3.org/1999/xlink" x="0px" y="0px"
	 viewBox="0 0 210 71" enable-background="new 0 0 210 71" xml:space="preserve">
<g id="ire">
	<rect id="background-red_00000034789379331041929540000010878631059149776526_" fill="#EB0000" width="210" height="71"/>
	<path fill="#FFFFFF" d="M9,62L20.134,9h10.921L20.028,62H9z"/>
	<path fill="#FFFFFF" d="M41.234,62H30.313L41.446,9h23.54c4.029,0,7.21,0.402,9.437,1.205c2.227,0.803,4.029,2.409,5.514,4.617
		c1.378,2.208,2.121,4.919,2.121,8.03c0,4.517-1.378,8.231-4.029,11.142s-6.786,4.718-12.3,5.42
		c1.378,1.305,2.757,2.911,3.923,4.919c2.439,4.116,5.196,10.038,8.165,17.566h-11.77c-0.954-3.011-2.757-7.629-5.514-14.053
		c-1.484-3.413-3.075-5.722-4.772-6.926c-1.06-0.703-2.863-1.004-5.408-1.004H45.9L41.234,62z M47.49,32.087h5.832
		c5.832,0,9.755-0.301,11.664-1.004c1.909-0.703,3.393-1.807,4.559-3.312c1.06-1.506,1.591-3.112,1.591-4.718
		c0-1.907-0.742-3.413-2.333-4.316c-0.954-0.602-3.075-0.903-6.256-0.903H50.459L47.49,32.087z"/>
	<path fill="#FFFFFF" d="M83.648,62L94.781,9h39.339l-1.803,8.833h-28.523l-2.545,12.045h27.463l-1.803,8.833H99.447L96.16,53.167
		h30.856L125.107,62H83.648z"/>
</g>
<g>
	<path fill="#FFFFFF" d="M163.256,48.704h9.999c0.821,4.106,3.2,6.159,7.138,6.159c2.222,0,4.027-0.755,5.417-2.265
		c1.389-1.51,2.457-3.858,3.206-7.047c0.482-2.029,0.833-4.335,1.051-6.92c-1.619,2.271-3.279,3.883-4.981,4.837
		c-1.703,0.954-3.774,1.431-6.214,1.431c-3.89,0-7.271-1.135-10.145-3.405c-2.005-1.595-3.568-3.659-4.691-6.196
		c-1.123-2.536-1.685-5.29-1.685-8.261c0-5.965,2.04-10.797,6.122-14.492c3.502-3.188,7.705-4.782,12.608-4.782
		c3.019,0,5.809,0.676,8.369,2.029c2.56,1.353,4.71,3.273,6.449,5.761c3.067,4.42,4.602,10.628,4.602,18.622
		c0,7.392-1.354,13.695-4.059,18.913c-3.526,6.787-8.864,10.181-16.014,10.181c-4.759,0-8.689-1.316-11.793-3.949
		S163.739,53.148,163.256,48.704z M180.863,16.712c-2.271,0-4.19,0.93-5.761,2.79c-1.57,1.884-2.354,4.275-2.354,7.174
		c0,2.343,0.567,4.42,1.703,6.231c1.545,2.488,3.719,3.732,6.521,3.732c2.536,0,4.564-1.015,6.086-3.043
		c1.426-1.908,2.138-4.178,2.138-6.811c0-2.777-0.736-5.132-2.21-7.065C185.44,17.714,183.399,16.712,180.863,16.712z"/>
</g>
</svg>
