<svg xmlns="http://www.w3.org/2000/svg" xml:space="preserve" version="1.0" viewBox="0 0 210 71"><path fill="#EB0000" d="M0 0H210V71H0z" class="sbb-vm-color-red"/><path fill="#FFFFFF" d="M9 62 20.134 9h10.921L20.028 62H9zM41.234 62H30.313L41.446 9h23.54c4.029 0 7.21.402 9.437 1.205 2.227.803 4.029 2.409 5.514 4.617 1.378 2.208 2.121 4.919 2.121 8.03 0 4.517-1.378 8.231-4.029 11.142s-6.786 4.718-12.3 5.42c1.378 1.305 2.757 2.911 3.923 4.919 2.439 4.116 5.196 10.038 8.165 17.566h-11.77c-.954-3.011-2.757-7.629-5.514-14.053-1.484-3.413-3.075-5.722-4.772-6.926-1.06-.703-2.863-1.004-5.408-1.004H45.9L41.234 62zM47.49 32.087h5.832c5.832 0 9.755-.301 11.664-1.004 1.909-.703 3.393-1.807 4.559-3.312 1.06-1.506 1.591-3.112 1.591-4.718 0-1.907-.742-3.413-2.333-4.316-.954-.602-3.075-.903-6.256-.903H50.459L47.49 32.087zM83.648 62 94.781 9h39.339l-1.803 8.833h-28.523l-2.545 12.045h27.463l-1.803 8.833H99.447L96.16 53.167h30.856L125.107 62H83.648zM163.256 48.704h9.999c.821 4.106 3.2 6.159 7.138 6.159 2.222 0 4.027-.755 5.417-2.265 1.389-1.51 2.457-3.858 3.206-7.047.482-2.029.833-4.335 1.051-6.92-1.619 2.271-3.279 3.883-4.981 4.837-1.703.954-3.774 1.431-6.214 1.431-3.89 0-7.271-1.135-10.145-3.405-2.005-1.595-3.568-3.659-4.691-6.196-1.123-2.536-1.685-5.29-1.685-8.261 0-5.965 2.04-10.797 6.122-14.492 3.502-3.188 7.705-4.782 12.608-4.782 3.019 0 5.809.676 8.369 2.029 2.56 1.353 4.71 3.273 6.449 5.761 3.067 4.42 4.602 10.628 4.602 18.622 0 7.392-1.354 13.695-4.059 18.913-3.526 6.787-8.864 10.181-16.014 10.181-4.759 0-8.689-1.316-11.793-3.949S163.739 53.148 163.256 48.704zM180.863 16.712c-2.271 0-4.19.93-5.761 2.79-1.57 1.884-2.354 4.275-2.354 7.174 0 2.343.567 4.42 1.703 6.231 1.545 2.488 3.719 3.732 6.521 3.732 2.536 0 4.564-1.015 6.086-3.043 1.426-1.908 2.138-4.178 2.138-6.811 0-2.777-.736-5.132-2.21-7.065C185.44 17.714 183.399 16.712 180.863 16.712z" class="sbb-vm-color-white"/></svg>