<svg xmlns="http://www.w3.org/2000/svg" xml:space="preserve" version="1.0" viewBox="0 0 210 71"><path fill="#EB0000" d="M0 0H210V71H0z" class="sbb-vm-color-red"/><path fill="#FFFFFF" d="M51.171 62.095H40.973l-14.34-35.698-7.436 35.698H9L20.047 9h10.197l14.446 35.497L52.127 9h10.197L51.171 62.095zM93.129 9h10.729l-6.692 32.179c-1.806 8.547-4.143 14.279-7.011 17.296C87.287 61.492 82.826 63 76.771 63c-5.099 0-8.923-1.207-11.472-3.52-2.549-2.313-3.824-5.531-3.824-9.553 0-.804.106-1.81.212-2.816l10.091-1.106c-.106 1.106-.212 1.911-.212 2.615 0 1.709.531 3.017 1.487 3.922.956.905 2.443 1.307 4.461 1.307 2.762 0 4.78-.804 5.949-2.514.85-1.207 1.912-4.827 3.08-10.659L93.129 9z" class="sbb-vm-color-white"/></svg>