<?xml version="1.0" encoding="utf-8"?>
<svg version="1.0" xmlns="http://www.w3.org/2000/svg" xmlns:xlink="http://www.w3.org/1999/xlink" x="0px" y="0px" viewBox="0 0 210 71" enable-background="new 0 0 210 71" xml:space="preserve">
<g enable-background="new    ">
	<rect fill="#EB0000" width="210" height="71" class="sbb-vm-color-red"></rect>
	<path fill="#FFFFFF" d="M19.921,62H9L20.134,9h21.525c3.817,0,6.892,0.502,9.119,1.405c2.227,0.903,4.029,2.409,5.302,4.517
		s1.909,4.617,1.909,7.428c0,2.71-0.53,5.32-1.591,7.83s-2.333,4.517-3.817,6.123c-1.484,1.506-3.181,2.71-4.878,3.413
		c-1.697,0.803-4.029,1.405-6.998,1.807c-1.697,0.201-4.878,0.402-9.649,0.402h-6.998L19.921,62z M25.965,32.991h3.393
		c5.726,0,9.649-0.402,11.558-1.104c1.909-0.703,3.499-1.907,4.559-3.513c1.06-1.606,1.697-3.312,1.697-5.22
		c0-1.305-0.318-2.309-0.848-3.112c-0.53-0.803-1.378-1.405-2.439-1.807c-1.06-0.402-3.287-0.602-6.892-0.602h-7.847L25.965,32.991z
		" class="sbb-vm-color-white"></path>
	<path fill="#FFFFFF" d="M58.518,62L69.545,9h39.339l-1.803,8.833H78.664l-2.545,12.045h27.463l-1.803,8.833H74.211l-3.287,14.455
		h30.856L99.871,62H58.518z" class="sbb-vm-color-white"></path>
</g>
</svg>