<svg xmlns="http://www.w3.org/2000/svg" xml:space="preserve" version="1.0" viewBox="0 0 210 71"><path fill="#EB0000" d="M0 0H210V71H0z" class="sbb-vm-color-red"/><path fill="#FFFFFF" d="M19.921 62H9L20.134 9h21.525c3.817 0 6.892.502 9.119 1.405 2.227.903 4.029 2.409 5.302 4.517s1.909 4.617 1.909 7.428c0 2.71-.53 5.32-1.591 7.83s-2.333 4.517-3.817 6.123c-1.484 1.506-3.181 2.71-4.878 3.413-1.697.803-4.029 1.405-6.998 1.807-1.697.201-4.878.402-9.649.402h-6.998L19.921 62zM25.965 32.991h3.393c5.726 0 9.649-.402 11.558-1.104 1.909-.703 3.499-1.907 4.559-3.513 1.06-1.606 1.697-3.312 1.697-5.22 0-1.305-.318-2.309-.848-3.112-.53-.803-1.378-1.405-2.439-1.807-1.06-.402-3.287-.602-6.892-.602h-7.847L25.965 32.991zM58.518 62 69.545 9h39.339l-1.803 8.833H78.664l-2.545 12.045h27.463l-1.803 8.833H74.211l-3.287 14.455h30.856L99.871 62H58.518z" class="sbb-vm-color-white"/><path fill="#FFFFFF" d="M148.356 9.031V62h-10.579V27.328h-3.768-3.769-3.658-1.269v-7.681c2.584-.072 4.691-.338 6.322-.797 1.63-.458 3.121-1.208 4.475-2.247 1.956-1.497 3.272-4.021 3.949-7.572H148.356zM197.884 9.031v9.42h-21.34l-2.282 11.919c2.56-2.705 5.833-4.058 9.818-4.058 3.913 0 7.318 1.051 10.217 3.152 4.3 3.165 6.449 7.971 6.449 14.42 0 6.329-2.295 11.341-6.884 15.036-3.575 2.898-7.85 4.348-12.825 4.348-5.604 0-10.108-1.504-13.515-4.511-3.405-3.007-5.205-7.07-5.397-12.191h10.397c.169 1.86.773 3.441 1.812 4.746 1.618 2.053 3.864 3.079 6.739 3.079 2.777 0 4.976-1.002 6.594-3.007 1.57-1.956 2.355-4.335 2.355-7.138 0-3.043-.822-5.477-2.464-7.3-1.643-1.824-3.829-2.736-6.558-2.736-3.333 0-5.931 1.498-7.79 4.493l-9.456-.145 5.036-29.528H197.884z" class="sbb-vm-color-white sbb-vm-color-black"/></svg>