<svg xmlns="http://www.w3.org/2000/svg" xml:space="preserve" version="1.0" viewBox="0 0 210 71"><path fill="#EB0000" d="M0 0H210V71H0z" class="sbb-vm-color-red"/><path fill="#FFFFFF" d="M19.921 62H9L20.134 9h21.525c3.817 0 6.892.502 9.119 1.405 2.227.903 4.029 2.409 5.302 4.517s1.909 4.617 1.909 7.428c0 2.71-.53 5.32-1.591 7.83s-2.333 4.517-3.817 6.123c-1.484 1.506-3.181 2.71-4.878 3.413-1.697.803-4.029 1.405-6.998 1.807-1.697.201-4.878.402-9.649.402h-6.998L19.921 62zM25.965 32.991h3.393c5.726 0 9.649-.402 11.558-1.104 1.909-.703 3.499-1.907 4.559-3.513 1.06-1.606 1.697-3.312 1.697-5.22 0-1.305-.318-2.309-.848-3.112-.53-.803-1.378-1.405-2.439-1.807-1.06-.402-3.287-.602-6.892-.602h-7.847L25.965 32.991zM58.518 62 69.545 9h39.339l-1.803 8.833H78.664l-2.545 12.045h27.463l-1.803 8.833H74.211l-3.287 14.455h30.856L99.871 62H58.518z" class="sbb-vm-color-white"/><path fill="#FFFFFF" d="M159.263 52.58V62h-38.15c0-2.874.464-5.615 1.395-8.224.93-2.609 2.24-4.855 3.931-6.739 1.305-1.449 2.831-2.862 4.583-4.239 1.751-1.377 5.235-3.9 10.453-7.572 2.535-1.763 4.311-3.406 5.325-4.927s1.521-3.285 1.521-5.29c0-2.319-.683-4.197-2.047-5.634s-3.158-2.156-5.38-2.156c-5.459 0-8.273 3.925-8.441 11.775h-10.181c0-.507 0-.894 0-1.16 0-6.424 1.799-11.4 5.398-14.927 3.501-3.429 8.03-5.145 13.586-5.145 4.927 0 9.045 1.401 12.354 4.203 3.599 3.043 5.398 7.137 5.398 12.282 0 4.492-1.438 8.357-4.312 11.594-.942 1.063-1.824 1.915-2.645 2.555-.821.64-2.983 2.18-6.485 4.619-3.333 2.318-5.719 4.094-7.155 5.326-1.438 1.231-2.772 2.645-4.004 4.238H159.263zM197.884 9.031v9.42h-21.34l-2.282 11.919c2.56-2.705 5.833-4.058 9.818-4.058 3.913 0 7.318 1.051 10.217 3.152 4.3 3.165 6.449 7.971 6.449 14.42 0 6.329-2.295 11.341-6.884 15.036-3.575 2.898-7.85 4.348-12.825 4.348-5.604 0-10.108-1.504-13.515-4.511-3.405-3.007-5.205-7.07-5.397-12.191h10.397c.169 1.86.773 3.441 1.812 4.746 1.618 2.053 3.864 3.079 6.739 3.079 2.777 0 4.976-1.002 6.594-3.007 1.57-1.956 2.355-4.335 2.355-7.138 0-3.043-.822-5.477-2.464-7.3-1.643-1.824-3.829-2.736-6.558-2.736-3.333 0-5.931 1.498-7.79 4.493l-9.456-.145 5.036-29.528H197.884z" class="sbb-vm-color-white sbb-vm-color-black"/></svg>