<svg xmlns="http://www.w3.org/2000/svg" xml:space="preserve" version="1.0" viewBox="0 0 210 71"><path fill="#EB0000" d="M0 0H210V71H0z" class="sbb-vm-color-red"/><path fill="#FFFFFF" d="M19.921 62H9L20.134 9h21.525c3.817 0 6.892.502 9.119 1.405 2.227.903 4.029 2.409 5.302 4.517s1.909 4.617 1.909 7.428c0 2.71-.53 5.32-1.591 7.83s-2.333 4.517-3.817 6.123c-1.484 1.506-3.181 2.71-4.878 3.413-1.697.803-4.029 1.405-6.998 1.807-1.697.201-4.878.402-9.649.402h-6.998L19.921 62zM25.965 32.991h3.393c5.726 0 9.649-.402 11.558-1.104 1.909-.703 3.499-1.907 4.559-3.513 1.06-1.606 1.697-3.312 1.697-5.22 0-1.305-.318-2.309-.848-3.112-.53-.803-1.378-1.405-2.439-1.807-1.06-.402-3.287-.602-6.892-.602h-7.847L25.965 32.991zM58.518 62 69.545 9h39.339l-1.803 8.833H78.664l-2.545 12.045h27.463l-1.803 8.833H74.211l-3.287 14.455h30.856L99.871 62H58.518z" class="sbb-vm-color-white"/><path fill="#FFFFFF" d="M159.263 52.58V62h-38.15c0-2.874.464-5.615 1.395-8.224.93-2.609 2.24-4.855 3.931-6.739 1.305-1.449 2.831-2.862 4.583-4.239 1.751-1.377 5.235-3.9 10.453-7.572 2.535-1.763 4.311-3.406 5.325-4.927s1.521-3.285 1.521-5.29c0-2.319-.683-4.197-2.047-5.634s-3.158-2.156-5.38-2.156c-5.459 0-8.273 3.925-8.441 11.775h-10.181c0-.507 0-.894 0-1.16 0-6.424 1.799-11.4 5.398-14.927 3.501-3.429 8.03-5.145 13.586-5.145 4.927 0 9.045 1.401 12.354 4.203 3.599 3.043 5.398 7.137 5.398 12.282 0 4.492-1.438 8.357-4.312 11.594-.942 1.063-1.824 1.915-2.645 2.555-.821.64-2.983 2.18-6.485 4.619-3.333 2.318-5.719 4.094-7.155 5.326-1.438 1.231-2.772 2.645-4.004 4.238H159.263zM163.284 48.704h9.999c.821 4.106 3.2 6.159 7.138 6.159 2.222 0 4.027-.755 5.417-2.265 1.389-1.51 2.457-3.858 3.206-7.047.482-2.029.833-4.335 1.051-6.92-1.619 2.271-3.279 3.883-4.981 4.837-1.703.954-3.774 1.431-6.214 1.431-3.89 0-7.271-1.135-10.145-3.405-2.005-1.595-3.568-3.659-4.692-6.196-1.123-2.536-1.685-5.29-1.685-8.261 0-5.965 2.041-10.797 6.123-14.492 3.502-3.188 7.705-4.782 12.608-4.782 3.019 0 5.809.676 8.369 2.029 2.56 1.353 4.71 3.273 6.449 5.761 3.067 4.42 4.602 10.628 4.602 18.622 0 7.392-1.354 13.695-4.059 18.913-3.526 6.787-8.864 10.181-16.014 10.181-4.759 0-8.689-1.316-11.793-3.949S163.767 53.148 163.284 48.704zM180.892 16.712c-2.271 0-4.19.93-5.761 2.79-1.57 1.884-2.354 4.275-2.354 7.174 0 2.343.567 4.42 1.703 6.231 1.545 2.488 3.719 3.732 6.521 3.732 2.536 0 4.564-1.015 6.086-3.043 1.426-1.908 2.138-4.178 2.138-6.811 0-2.777-.736-5.132-2.21-7.065C185.469 17.714 183.428 16.712 180.892 16.712z" class="sbb-vm-color-white sbb-vm-color-black"/></svg>