<svg xmlns="http://www.w3.org/2000/svg" xml:space="preserve" version="1.0" viewBox="0 0 210 71"><path fill="#EB0000" d="M0 0H210V71H0z" class="sbb-vm-color-red"/><path fill="#FFFFFF" d="M19.921 62H9L20.134 9h21.525c3.817 0 6.892.502 9.119 1.405 2.227.903 4.029 2.409 5.302 4.517s1.909 4.617 1.909 7.428c0 2.71-.53 5.32-1.591 7.83s-2.333 4.517-3.817 6.123c-1.484 1.506-3.181 2.71-4.878 3.413-1.697.803-4.029 1.405-6.998 1.807-1.697.201-4.878.402-9.649.402h-6.998L19.921 62zM25.965 32.991h3.393c5.726 0 9.649-.402 11.558-1.104 1.909-.703 3.499-1.907 4.559-3.513 1.06-1.606 1.697-3.312 1.697-5.22 0-1.305-.318-2.309-.848-3.112-.53-.803-1.378-1.405-2.439-1.807-1.06-.402-3.287-.602-6.892-.602h-7.847L25.965 32.991zM58.518 62 69.545 9h39.339l-1.803 8.833H78.664l-2.545 12.045h27.463l-1.803 8.833H74.211l-3.287 14.455h30.856L99.871 62H58.518z" class="sbb-vm-color-white"/><path fill="#FFFFFF" d="M158.356 22.255h-10.072c-.941-4.082-3.261-6.123-6.956-6.123-3.913 0-6.69 2.404-8.333 7.21-.677 1.956-1.22 4.915-1.63 8.876 1.594-2.15 3.29-3.696 5.09-4.638 1.799-.942 3.968-1.413 6.504-1.413 4.975 0 8.973 1.764 11.992 5.29 2.874 3.333 4.312 7.512 4.312 12.537 0 5.966-1.933 10.76-5.797 14.383-3.479 3.261-7.657 4.892-12.536 4.892-6.256 0-11.123-2.361-14.601-7.083-3.479-4.722-5.217-11.31-5.217-19.764 0-9.034 1.859-16.111 5.579-21.231 3.599-4.951 8.514-7.427 14.745-7.427 5.87 0 10.362 1.969 13.479 5.905C156.702 15.939 157.85 18.801 158.356 22.255zM140.423 34.393c-2.536 0-4.554 1.063-6.051 3.188-1.354 1.884-2.029 4.13-2.029 6.738 0 2.585.688 4.844 2.065 6.775 1.497 2.15 3.551 3.225 6.159 3.225 2.536 0 4.577-1.026 6.123-3.079 1.449-1.933 2.174-4.215 2.174-6.848 0-2.585-.652-4.795-1.957-6.631C145.313 35.516 143.151 34.393 140.423 34.393zM163.501 25.806c.121-4.348 1.196-7.994 3.225-10.941 3.285-4.734 8.225-7.101 14.818-7.101 5.072 0 9.166 1.292 12.282 3.876 3.357 2.802 5.036 6.425 5.036 10.869 0 2.657-.658 4.945-1.975 6.866s-3.098 3.219-5.344 3.895c2.85.652 5.103 2.102 6.757 4.348 1.654 2.246 2.481 4.964 2.481 8.151 0 5.242-1.933 9.529-5.797 12.862-3.574 3.092-8.092 4.638-13.55 4.638-5.918 0-10.61-1.703-14.075-5.108-3.467-3.406-5.199-8.007-5.199-13.804 0-.121 0-.351 0-.688h10.181c0 3.261.772 5.778 2.318 7.554s3.732 2.663 6.558 2.663c2.826 0 5-.833 6.521-2.5 1.4-1.57 2.102-3.442 2.102-5.616 0-2.608-.894-4.673-2.681-6.195-1.474-1.255-3.744-1.884-6.812-1.884-.87 0-1.728.049-2.572.146v-7.79c.628.048 1.231.072 1.812.072 6.087 0 9.13-2.258 9.13-6.775 0-1.98-.665-3.581-1.993-4.801-1.328-1.219-3.079-1.83-5.253-1.83-2.488 0-4.408.773-5.761 2.319-1.353 1.546-2.077 3.804-2.174 6.775H163.501z" class="sbb-vm-color-white sbb-vm-color-black"/></svg>