<svg xmlns="http://www.w3.org/2000/svg" xml:space="preserve" version="1.0" viewBox="0 0 210 71"><path fill="#EB0000" d="M0 0H210V71H0z" class="sbb-vm-color-red"/><path fill="#FFFFFF" d="M19.921 62H9L20.134 9h21.525c3.817 0 6.892.502 9.119 1.405 2.227.903 4.029 2.409 5.302 4.517s1.909 4.617 1.909 7.428c0 2.71-.53 5.32-1.591 7.83s-2.333 4.517-3.817 6.123c-1.484 1.506-3.181 2.71-4.878 3.413-1.697.803-4.029 1.405-6.998 1.807-1.697.201-4.878.402-9.649.402h-6.998L19.921 62zM25.965 32.991h3.393c5.726 0 9.649-.402 11.558-1.104 1.909-.703 3.499-1.907 4.559-3.513 1.06-1.606 1.697-3.312 1.697-5.22 0-1.305-.318-2.309-.848-3.112-.53-.803-1.378-1.405-2.439-1.807-1.06-.402-3.287-.602-6.892-.602h-7.847L25.965 32.991zM58.518 62 69.545 9h39.339l-1.803 8.833H78.664l-2.545 12.045h27.463l-1.803 8.833H74.211l-3.287 14.455h30.856L99.871 62H58.518z" class="sbb-vm-color-white"/><path fill="#FFFFFF" d="M130.314 33.559c-2.464-.845-4.354-2.234-5.67-4.167-1.317-1.932-1.975-4.275-1.975-7.029 0-4.589 1.884-8.248 5.651-10.978 3.333-2.415 7.294-3.623 11.884-3.623 5.217 0 9.479 1.437 12.789 4.311 3.14 2.706 4.71 6.051 4.71 10.036 0 2.778-.664 5.157-1.992 7.137-1.329 1.981-3.213 3.418-5.652 4.312 1.908.556 3.466 1.268 4.674 2.138 3.357 2.44 5.036 6.002 5.036 10.688 0 5.387-2.065 9.674-6.195 12.862-3.479 2.681-7.947 4.021-13.405 4.021-5.918 0-10.628-1.474-14.13-4.42-3.647-3.067-5.471-7.089-5.471-12.065 0-4.661 1.618-8.272 4.854-10.833C126.896 34.815 128.526 34.018 130.314 33.559zM139.987 37.545c-2.608 0-4.74.803-6.395 2.409s-2.481 3.665-2.481 6.177c0 2.585.839 4.687 2.518 6.305s3.858 2.428 6.54 2.428c3.043 0 5.326-.894 6.848-2.682 1.473-1.715 2.21-3.695 2.21-5.941 0-2.561-.846-4.661-2.536-6.305C145.072 38.342 142.838 37.545 139.987 37.545zM140.061 15.987c-2.319 0-4.191.646-5.616 1.938-1.426 1.292-2.138 2.989-2.138 5.09 0 2.198.719 3.955 2.156 5.271 1.437 1.317 3.363 1.975 5.778 1.975s4.323-.652 5.725-1.957c1.4-1.304 2.102-3.08 2.102-5.326 0-2.198-.707-3.913-2.12-5.145S142.572 15.987 140.061 15.987zM201 40.95v8.949h-6.666V62h-10.326V49.899h-22.101v-9.928l22.644-30.94h9.783V40.95H201zM184.226 41.059V21.35l-13.623 19.709H184.226z" class="sbb-vm-color-white sbb-vm-color-black"/></svg>