<?xml version="1.0" encoding="utf-8"?><svg version="1.0" xmlns="http://www.w3.org/2000/svg" xmlns:xlink="http://www.w3.org/1999/xlink" x="0px" y="0px" viewBox="0 0 210 71" enable-background="new 0 0 210 71" xml:space="preserve"> <g> <rect fill="#FFFFFF" width="210" height="71" class="sbb-vm-color-white"></rect> </g> <g> <path d="M13.855,9.031h25.651c5.072,0,8.961,0.797,11.666,2.391c2.247,1.304,3.961,3.043,5.146,5.217 c1.183,2.174,1.774,4.625,1.774,7.354c0,3.092-0.742,5.785-2.228,8.08c-1.485,2.295-3.557,3.937-6.214,4.927 c2.343,0.58,4.179,1.884,5.507,3.913c0.846,1.28,1.413,2.621,1.703,4.021c0.29,1.401,0.664,4.602,1.123,9.602 c0.338,3.672,0.857,5.954,1.558,6.848L60.049,62H47.984c-0.411-0.748-0.707-1.702-0.888-2.862c-0.182-1.159-0.417-3.84-0.707-8.043 c-0.29-3.743-1.201-6.334-2.735-7.771c-1.534-1.437-4.148-2.155-7.844-2.155H25.412V62H13.855V9.031z M25.412,18.125v14.564h11.051 c3.551,0,6.051-0.507,7.5-1.521c1.835-1.28,2.753-3.212,2.753-5.797c0-2.512-0.785-4.348-2.354-5.507 c-1.57-1.159-4.046-1.739-7.428-1.739H25.412z" class="sbb-vm-color-black"></path> <path d="M102.294,52.58V62H64.143c0-2.874,0.465-5.615,1.396-8.224c0.929-2.609,2.239-4.855,3.931-6.739 c1.305-1.449,2.832-2.862,4.583-4.239s5.235-3.9,10.453-7.572c2.535-1.763,4.311-3.406,5.325-4.927s1.521-3.285,1.521-5.29 c0-2.319-0.683-4.197-2.047-5.634s-3.158-2.156-5.38-2.156c-5.459,0-8.273,3.925-8.441,11.775H65.302c0-0.507,0-0.894,0-1.16 c0-6.424,1.8-11.4,5.398-14.927c3.502-3.429,8.031-5.145,13.587-5.145c4.927,0,9.045,1.401,12.354,4.203 c3.599,3.043,5.398,7.137,5.398,12.282c0,4.492-1.438,8.357-4.312,11.594c-0.942,1.063-1.824,1.915-2.645,2.555 c-0.821,0.64-2.983,2.18-6.485,4.619c-3.333,2.318-5.719,4.094-7.155,5.326c-1.438,1.231-2.772,2.645-4.004,4.238H102.294z" class="sbb-vm-color-black"></path> </g> </svg>