<svg xmlns="http://www.w3.org/2000/svg" xml:space="preserve" version="1.0" viewBox="0 0 210 71"><path fill="#FFFFFF" d="M0 0H210V71H0z" class="sbb-vm-color-white"/><path d="M13.855 9.031h25.651c5.072 0 8.961.797 11.666 2.391 2.247 1.304 3.961 3.043 5.146 5.217 1.183 2.174 1.774 4.625 1.774 7.354 0 3.092-.742 5.785-2.228 8.08-1.485 2.295-3.557 3.937-6.214 4.927 2.343.58 4.179 1.884 5.507 3.913.846 1.28 1.413 2.621 1.703 4.021.29 1.401.664 4.602 1.123 9.602.338 3.672.857 5.954 1.558 6.848L60.049 62H47.984c-.411-.748-.707-1.702-.888-2.862-.182-1.159-.417-3.84-.707-8.043-.29-3.743-1.201-6.334-2.735-7.771-1.534-1.437-4.148-2.155-7.844-2.155H25.412V62H13.855V9.031zM25.412 18.125v14.564h11.051c3.551 0 6.051-.507 7.5-1.521 1.835-1.28 2.753-3.212 2.753-5.797 0-2.512-.785-4.348-2.354-5.507-1.57-1.159-4.046-1.739-7.428-1.739H25.412zM102.294 52.58V62H64.143c0-2.874.465-5.615 1.396-8.224.929-2.609 2.239-4.855 3.931-6.739 1.305-1.449 2.832-2.862 4.583-4.239s5.235-3.9 10.453-7.572c2.535-1.763 4.311-3.406 5.325-4.927s1.521-3.285 1.521-5.29c0-2.319-.683-4.197-2.047-5.634s-3.158-2.156-5.38-2.156c-5.459 0-8.273 3.925-8.441 11.775H65.302c0-.507 0-.894 0-1.16 0-6.424 1.8-11.4 5.398-14.927 3.502-3.429 8.031-5.145 13.587-5.145 4.927 0 9.045 1.401 12.354 4.203 3.599 3.043 5.398 7.137 5.398 12.282 0 4.492-1.438 8.357-4.312 11.594-.942 1.063-1.824 1.915-2.645 2.555-.821.64-2.983 2.18-6.485 4.619-3.333 2.318-5.719 4.094-7.155 5.326-1.438 1.231-2.772 2.645-4.004 4.238H102.294zM124.721 7.763c4.033 0 7.584 1.231 10.651 3.695 3.043 2.464 5.253 6.256 6.63 11.376 1.038 3.913 1.559 8.164 1.559 12.753 0 7.608-1.354 13.864-4.059 18.768-1.594 2.851-3.677 5.049-6.249 6.594-2.572 1.546-5.441 2.319-8.605 2.319-4.323 0-8.019-1.305-11.086-3.913-5.459-4.638-8.188-12.56-8.188-23.768 0-7.971 1.425-14.371 4.275-19.202 1.618-2.753 3.737-4.878 6.358-6.376C118.627 8.512 121.532 7.763 124.721 7.763zM124.322 16.712c-3.479 0-5.846 2.005-7.102 6.014-.991 3.188-1.485 7.657-1.485 13.406 0 5.072.507 9.143 1.521 12.21 1.305 3.985 3.72 5.978 7.246 5.978 2.922 0 5.096-1.545 6.521-4.638 1.425-3.091 2.138-7.813 2.138-14.166 0-5.41-.508-9.674-1.521-12.79C130.336 18.717 127.896 16.712 124.322 16.712z" class="sbb-vm-color-black"/></svg>