<?xml version="1.0" encoding="utf-8"?>
<!-- Generator: Adobe Illustrator 25.1.0, SVG Export Plug-In . SVG Version: 6.00 Build 0)  -->
<svg version="1.0" id="Ebene_1" xmlns="http://www.w3.org/2000/svg" xmlns:xlink="http://www.w3.org/1999/xlink" x="0px" y="0px"
	 viewBox="0 0 210 71" enable-background="new 0 0 210 71" xml:space="preserve">
<rect id="background-white" fill="#FFFFFF" width="210" height="71"/>
<g id="R:background-white:99">
	<path d="M9,9h22.585c5.722,0,9.837,0.502,12.347,1.405c2.61,1.004,4.617,2.61,6.223,5.119c1.506,2.409,2.309,5.22,2.309,8.331
		c0,4.015-1.205,7.328-3.513,9.837c-2.309,2.61-5.822,4.216-10.54,4.919c2.309,1.305,4.216,2.811,5.722,4.417
		c1.506,1.606,3.513,4.517,6.123,8.633L56.78,62H43.932l-7.729-11.544c-2.71-4.116-4.617-6.725-5.621-7.83
		c-1.004-1.104-2.108-1.807-3.212-2.208c-1.104-0.402-2.911-0.602-5.42-0.602h-2.208V62H9V9z M19.64,31.585h7.93
		c5.119,0,8.331-0.201,9.636-0.703c1.305-0.402,2.309-1.205,3.011-2.208c0.703-1.104,1.104-2.409,1.104-4.015
		c0-1.807-0.502-3.212-1.405-4.316c-1.004-1.104-2.309-1.807-4.015-2.108c-0.903-0.1-3.513-0.201-7.83-0.201h-8.331v13.551
		C19.741,31.585,19.64,31.585,19.64,31.585z"/>
</g>
<g>
	<path d="M122.235,25.806c0.12-4.348,1.195-7.994,3.225-10.941c3.283-4.734,8.224-7.101,14.817-7.101
		c5.072,0,9.166,1.292,12.282,3.876c3.357,2.802,5.036,6.425,5.036,10.869c0,2.657-0.658,4.945-1.975,6.866
		s-3.098,3.219-5.344,3.895c2.85,0.652,5.103,2.102,6.757,4.348c1.654,2.246,2.481,4.964,2.481,8.151
		c0,5.242-1.933,9.529-5.797,12.862c-3.574,3.092-8.092,4.638-13.55,4.638c-5.918,0-10.61-1.703-14.075-5.108
		c-3.467-3.406-5.199-8.007-5.199-13.804c0-0.121,0-0.351,0-0.688h10.181c0,3.261,0.772,5.778,2.318,7.554s3.732,2.663,6.558,2.663
		c2.826,0,5-0.833,6.521-2.5c1.4-1.57,2.102-3.442,2.102-5.616c0-2.608-0.894-4.673-2.681-6.195
		c-1.474-1.255-3.744-1.884-6.812-1.884c-0.87,0-1.728,0.049-2.572,0.146v-7.79c0.628,0.048,1.231,0.072,1.812,0.072
		c6.087,0,9.13-2.258,9.13-6.775c0-1.98-0.665-3.581-1.993-4.801c-1.328-1.219-3.079-1.83-5.253-1.83
		c-2.488,0-4.408,0.773-5.761,2.319c-1.353,1.546-2.077,3.804-2.174,6.775H122.235z"/>
	<path d="M181.689,7.763c4.033,0,7.584,1.231,10.651,3.695c3.043,2.464,5.253,6.256,6.63,11.376
		c1.038,3.913,1.559,8.164,1.559,12.753c0,7.608-1.354,13.864-4.059,18.768c-1.594,2.851-3.677,5.049-6.249,6.594
		c-2.572,1.546-5.441,2.319-8.605,2.319c-4.323,0-8.019-1.305-11.086-3.913c-5.459-4.638-8.188-12.56-8.188-23.768
		c0-7.971,1.425-14.371,4.275-19.202c1.618-2.753,3.737-4.878,6.358-6.376C175.596,8.512,178.501,7.763,181.689,7.763z
		 M181.291,16.712c-3.479,0-5.846,2.005-7.102,6.014c-0.991,3.188-1.485,7.657-1.485,13.406c0,5.072,0.507,9.143,1.521,12.21
		c1.305,3.985,3.72,5.978,7.246,5.978c2.922,0,5.096-1.545,6.521-4.638c1.425-3.091,2.138-7.813,2.138-14.166
		c0-5.41-0.508-9.674-1.521-12.79C187.305,18.717,184.865,16.712,181.291,16.712z"/>
</g>
</svg>
