<svg xmlns="http://www.w3.org/2000/svg" xml:space="preserve" version="1.0" viewBox="0 0 210 71"><path fill="#FFFFFF" d="M0 0H210V71H0z" class="sbb-vm-color-white"/><path d="M13.855 9.031h25.651c5.072 0 8.961.797 11.666 2.391 2.247 1.304 3.961 3.043 5.146 5.217 1.183 2.174 1.774 4.625 1.774 7.354 0 3.092-.742 5.785-2.228 8.08-1.485 2.295-3.557 3.937-6.214 4.927 2.343.58 4.179 1.884 5.507 3.913.846 1.28 1.413 2.621 1.703 4.021.29 1.401.664 4.602 1.123 9.602.338 3.672.857 5.954 1.558 6.848L60.049 62H47.984c-.411-.748-.707-1.702-.888-2.862-.182-1.159-.417-3.84-.707-8.043-.29-3.743-1.201-6.334-2.735-7.771-1.534-1.437-4.148-2.155-7.844-2.155H25.412V62H13.855V9.031zM25.412 18.125v14.564h11.051c3.551 0 6.051-.507 7.5-1.521 1.835-1.28 2.753-3.212 2.753-5.797 0-2.512-.785-4.348-2.354-5.507-1.57-1.159-4.046-1.739-7.428-1.739H25.412zM102.765 40.95v8.949h-6.666V62H85.772V49.899H63.672v-9.928l22.644-30.94h9.783V40.95H102.765zM85.99 41.059V21.35L72.367 41.059H85.99z" class="sbb-vm-color-black"/></svg>