<?xml version="1.0" encoding="utf-8"?>
<!-- Generator: Adobe Illustrator 25.1.0, SVG Export Plug-In . SVG Version: 6.00 Build 0)  -->
<svg version="1.0" id="Ebene_1" xmlns="http://www.w3.org/2000/svg" xmlns:xlink="http://www.w3.org/1999/xlink" x="0px" y="0px"
	 viewBox="0 0 210 71" enable-background="new 0 0 210 71" xml:space="preserve">
<rect id="background-white" fill="#FFFFFF" width="210" height="71"/>
<g id="R:background-white:99">
	<path d="M9,9h22.585c5.722,0,9.837,0.502,12.347,1.405c2.61,1.004,4.617,2.61,6.223,5.119c1.506,2.409,2.309,5.22,2.309,8.331
		c0,4.015-1.205,7.328-3.513,9.837c-2.309,2.61-5.822,4.216-10.54,4.919c2.309,1.305,4.216,2.811,5.722,4.417
		c1.506,1.606,3.513,4.517,6.123,8.633L56.78,62H43.932l-7.729-11.544c-2.71-4.116-4.617-6.725-5.621-7.83
		c-1.004-1.104-2.108-1.807-3.212-2.208c-1.104-0.402-2.911-0.602-5.42-0.602h-2.208V62H9V9z M19.64,31.585h7.93
		c5.119,0,8.331-0.201,9.636-0.703c1.305-0.402,2.309-1.205,3.011-2.208c0.703-1.104,1.104-2.409,1.104-4.015
		c0-1.807-0.502-3.212-1.405-4.316c-1.004-1.104-2.309-1.807-4.015-2.108c-0.903-0.1-3.513-0.201-7.83-0.201h-8.331v13.551
		C19.741,31.585,19.64,31.585,19.64,31.585z"/>
</g>
<g>
	<path d="M159.733,40.95v8.949h-6.666V62h-10.326V49.899h-22.101v-9.928l22.644-30.94h9.783V40.95H159.733z M142.959,41.059V21.35
		l-13.623,19.709H142.959z"/>
	<path d="M199.225,9.031v8.985c-0.29,0.314-1.147,1.292-2.572,2.935c-1.98,2.271-3.949,5.127-5.905,8.569
		c-1.957,3.442-3.479,6.745-4.565,9.909c-2.295,6.594-3.684,14.118-4.166,22.571h-10.942c0.073-3.985,0.767-8.405,2.084-13.26
		c1.315-4.855,3.134-9.71,5.452-14.565c3.309-6.859,6.666-11.968,10.072-15.325h-24.999V9.031H199.225z"/>
</g>
</svg>
