<?xml version="1.0" encoding="utf-8"?><svg version="1.0" xmlns="http://www.w3.org/2000/svg" xmlns:xlink="http://www.w3.org/1999/xlink" x="0px" y="0px" viewBox="0 0 210 71" enable-background="new 0 0 210 71" xml:space="preserve"> <g> <rect fill="#FFFFFF" width="210" height="71" class="sbb-vm-color-white"></rect> </g> <g> <path d="M13.855,9.031h25.651c5.072,0,8.961,0.797,11.666,2.391c2.247,1.304,3.961,3.043,5.146,5.217 c1.183,2.174,1.774,4.625,1.774,7.354c0,3.092-0.742,5.785-2.228,8.08c-1.485,2.295-3.557,3.937-6.214,4.927 c2.343,0.58,4.179,1.884,5.507,3.913c0.846,1.28,1.413,2.621,1.703,4.021c0.29,1.401,0.664,4.602,1.123,9.602 c0.338,3.672,0.857,5.954,1.558,6.848L60.049,62H47.984c-0.411-0.748-0.707-1.702-0.888-2.862c-0.182-1.159-0.417-3.84-0.707-8.043 c-0.29-3.743-1.201-6.334-2.735-7.771c-1.534-1.437-4.148-2.155-7.844-2.155H25.412V62H13.855V9.031z M25.412,18.125v14.564h11.051 c3.551,0,6.051-0.507,7.5-1.521c1.835-1.28,2.753-3.212,2.753-5.797c0-2.512-0.785-4.348-2.354-5.507 c-1.57-1.159-4.046-1.739-7.428-1.739H25.412z" class="sbb-vm-color-black"></path> <path d="M100.989,9.031v8.985c-0.29,0.314-1.147,1.292-2.572,2.935c-1.98,2.271-3.949,5.127-5.905,8.569 c-1.957,3.442-3.479,6.745-4.565,9.909C85.651,46.022,84.263,53.547,83.78,62H72.838c0.073-3.985,0.767-8.405,2.084-13.26 c1.315-4.855,3.134-9.71,5.452-14.565c3.309-6.859,6.666-11.968,10.072-15.325H65.447V9.031H100.989z" class="sbb-vm-color-black"></path> <path d="M106.532,25.806c0.121-4.348,1.196-7.994,3.225-10.941c3.285-4.734,8.225-7.101,14.818-7.101 c5.072,0,9.166,1.292,12.282,3.876c3.357,2.802,5.036,6.425,5.036,10.869c0,2.657-0.658,4.945-1.975,6.866 s-3.098,3.219-5.344,3.895c2.85,0.652,5.103,2.102,6.757,4.348c1.654,2.246,2.481,4.964,2.481,8.151 c0,5.242-1.933,9.529-5.797,12.862c-3.574,3.092-8.092,4.638-13.55,4.638c-5.918,0-10.61-1.703-14.075-5.108 c-3.467-3.406-5.199-8.007-5.199-13.804c0-0.121,0-0.351,0-0.688h10.181c0,3.261,0.772,5.778,2.318,7.554s3.732,2.663,6.558,2.663 c2.826,0,5-0.833,6.521-2.5c1.4-1.57,2.102-3.442,2.102-5.616c0-2.608-0.894-4.673-2.681-6.195 c-1.474-1.255-3.744-1.884-6.812-1.884c-0.87,0-1.728,0.049-2.572,0.146v-7.79c0.628,0.048,1.231,0.072,1.812,0.072 c6.087,0,9.13-2.258,9.13-6.775c0-1.98-0.665-3.581-1.993-4.801c-1.328-1.219-3.079-1.83-5.253-1.83 c-2.488,0-4.408,0.773-5.761,2.319c-1.353,1.546-2.077,3.804-2.174,6.775H106.532z" class="sbb-vm-color-black"></path> </g> </svg>