<?xml version="1.0" encoding="utf-8"?>
<!-- Generator: Adobe Illustrator 25.1.0, SVG Export Plug-In . SVG Version: 6.00 Build 0)  -->
<svg version="1.0" id="Ebene_1" xmlns="http://www.w3.org/2000/svg" xmlns:xlink="http://www.w3.org/1999/xlink" x="0px" y="0px"
	 viewBox="0 0 210 71" enable-background="new 0 0 210 71" xml:space="preserve">
<rect id="background-white" fill="#FFFFFF" width="210" height="71"/>
<g id="RB:background-white">
	<path d="M9,62V9h22.5c5.7,0,9.8,0.5,12.3,1.4c2.6,1,4.6,2.6,6.2,5.1c1.5,2.4,2.3,5.2,2.3,8.3c0,4-1.2,7.3-3.5,9.8
		c-2.3,2.6-5.8,4.2-10.5,4.9c2.3,1.3,4.2,2.8,5.7,4.4s3.5,4.5,6.1,8.6l6.5,10.3H43.8l-7.7-11.5c-2.7-4.1-4.6-6.7-5.6-7.8
		s-2.1-1.8-3.2-2.2c-1.1-0.4-2.9-0.6-5.4-0.6h-2.2v22.1H9V62z M19.7,31.4h7.9c5.1,0,8.3-0.2,9.6-0.7c1.3-0.4,2.3-1.2,3-2.2
		c0.7-1.1,1.1-2.4,1.1-4c0-1.8-0.5-3.2-1.4-4.3c-1-1.1-2.3-1.8-4-2.1c-0.9-0.1-3.5-0.2-7.8-0.2h-8.4V31.4z"/>
	<path d="M62.4,9h21.2c4.2,0,7.3,0.2,9.4,0.5s3.9,1.1,5.5,2.2s3,2.6,4.1,4.4s1.6,3.9,1.6,6.2c0,2.5-0.7,4.8-2,6.8
		c-1.3,2.1-3.1,3.6-5.4,4.7c3.2,0.9,5.7,2.5,7.4,4.8c1.7,2.3,2.6,4.9,2.6,8c0,2.4-0.6,4.8-1.7,7c-1.1,2.3-2.7,4.1-4.6,5.5
		s-4.3,2.2-7.2,2.5c-1.8,0.2-6.1,0.3-12.9,0.4h-18L62.4,9z M73.1,17.9v12.2h7c4.2,0,6.8-0.1,7.8-0.2c1.8-0.2,3.3-0.8,4.3-1.9
		c1-1,1.6-2.4,1.6-4.1c0-1.6-0.5-3-1.4-4s-2.2-1.6-4-1.9c-1.1-0.1-4.1-0.2-9.1-0.2h-6.2C73.1,17.8,73.1,17.9,73.1,17.9z M73.1,38.9
		v14.2H83c3.9,0,6.3-0.1,7.3-0.3c1.6-0.3,2.9-1,3.9-2.1s1.5-2.6,1.5-4.5c0-1.6-0.4-2.9-1.2-4c-0.8-1.1-1.9-1.9-3.3-2.4
		c-1.5-0.5-4.6-0.8-9.5-0.8h-8.6V38.9z"/>
</g>
</svg>
