<?xml version="1.0" encoding="utf-8"?>
<svg version="1.0" xmlns="http://www.w3.org/2000/svg" xmlns:xlink="http://www.w3.org/1999/xlink" x="0px" y="0px" viewBox="0 0 210 71" enable-background="new 0 0 210 71" xml:space="preserve">
<g>
	<rect fill="#FFFFFF" width="210" height="71" class="sbb-vm-color-white"></rect>
</g>
<g>
	<path d="M13.855,9.031h25.651c5.072,0,8.961,0.797,11.666,2.391c2.247,1.304,3.961,3.043,5.146,5.217
		c1.183,2.174,1.774,4.625,1.774,7.354c0,3.092-0.742,5.785-2.228,8.08c-1.485,2.295-3.557,3.937-6.214,4.927
		c2.343,0.58,4.179,1.884,5.507,3.913c0.846,1.28,1.413,2.621,1.703,4.021c0.29,1.401,0.664,4.602,1.123,9.602
		c0.338,3.672,0.857,5.954,1.558,6.848L60.049,62H47.984c-0.411-0.748-0.707-1.702-0.888-2.862c-0.182-1.159-0.417-3.84-0.707-8.043
		c-0.29-3.743-1.201-6.334-2.735-7.771c-1.534-1.437-4.148-2.155-7.844-2.155H25.412V62H13.855V9.031z M25.412,18.125v14.564h11.051
		c3.551,0,6.051-0.507,7.5-1.521c1.835-1.28,2.753-3.212,2.753-5.797c0-2.512-0.785-4.348-2.354-5.507
		c-1.57-1.159-4.046-1.739-7.428-1.739H25.412z" class="sbb-vm-color-black"></path>
	<path d="M67.803,9.031h23.839c5.121,0,8.937,0.64,11.449,1.92c2.367,1.208,4.154,2.959,5.362,5.253
		c1.015,1.933,1.521,3.985,1.521,6.159c0,2.416-0.616,4.565-1.848,6.449c-1.231,1.884-3.02,3.369-5.362,4.456
		c2.029,0.677,3.551,1.39,4.565,2.138c3.43,2.513,5.145,6.172,5.145,10.978c0,2.851-0.634,5.411-1.902,7.681
		c-1.268,2.271-3.086,4.095-5.452,5.471C102.317,61.18,98.538,62,93.779,62H67.803V9.031z M79.36,18.125v12.354h10.579
		c2.464,0,4.275-0.29,5.435-0.87c2.149-1.038,3.225-2.826,3.225-5.362c0-2.15-0.677-3.708-2.029-4.674
		c-1.353-0.966-3.562-1.449-6.63-1.449H79.36z M79.36,38.378v14.528h11.702c3.356,0,5.712-0.471,7.064-1.413
		c1.787-1.279,2.682-3.225,2.682-5.833c0-3.115-1.208-5.241-3.623-6.376c-1.329-0.604-3.563-0.906-6.703-0.906H79.36z" class="sbb-vm-color-black"></path>
	<path d="M152.146,9.031v9.42h-21.34l-2.282,11.919c2.56-2.705,5.833-4.058,9.818-4.058c3.913,0,7.318,1.051,10.217,3.152
		c4.3,3.165,6.449,7.971,6.449,14.42c0,6.329-2.295,11.341-6.884,15.036c-3.575,2.898-7.85,4.348-12.825,4.348
		c-5.604,0-10.108-1.504-13.515-4.511c-3.405-3.007-5.205-7.07-5.397-12.191h10.397c0.169,1.86,0.773,3.441,1.812,4.746
		c1.618,2.053,3.864,3.079,6.739,3.079c2.777,0,4.976-1.002,6.594-3.007c1.57-1.956,2.355-4.335,2.355-7.138
		c0-3.043-0.822-5.477-2.464-7.3c-1.643-1.824-3.829-2.736-6.558-2.736c-3.333,0-5.931,1.498-7.79,4.493l-9.456-0.145l5.036-29.528
		H152.146z" class="sbb-vm-color-black"></path>
	<path d="M194.754,9.031v8.985c-0.29,0.314-1.147,1.292-2.572,2.935c-1.98,2.271-3.949,5.127-5.905,8.569
		c-1.957,3.442-3.479,6.745-4.565,9.909c-2.295,6.594-3.684,14.118-4.166,22.571h-10.942c0.073-3.985,0.767-8.405,2.084-13.26
		c1.315-4.855,3.134-9.71,5.452-14.565c3.309-6.859,6.666-11.968,10.072-15.325h-24.999V9.031H194.754z" class="sbb-vm-color-black"></path>
</g>
</svg>