<?xml version="1.0" encoding="utf-8"?>
<!-- Generator: Adobe Illustrator 27.0.0, SVG Export Plug-In . SVG Version: 6.00 Build 0)  -->
<svg version="1.0" id="Ebene_1" xmlns="http://www.w3.org/2000/svg" xmlns:xlink="http://www.w3.org/1999/xlink" x="0px" y="0px"
	 viewBox="0 0 210 71" enable-background="new 0 0 210 71" xml:space="preserve">
<g id="white">
	<rect id="background-white_00000147201839684919677670000006641991587696569237_" fill="#FFFFFF" width="210" height="71"/>
</g>
<g>
	<path d="M13.855,9.031h25.651c5.072,0,8.961,0.797,11.666,2.391c2.247,1.304,3.961,3.043,5.146,5.217
		c1.183,2.174,1.774,4.625,1.774,7.354c0,3.092-0.742,5.785-2.228,8.08c-1.485,2.295-3.557,3.937-6.214,4.927
		c2.343,0.58,4.179,1.884,5.507,3.913c0.846,1.28,1.413,2.621,1.703,4.021c0.29,1.401,0.664,4.602,1.123,9.602
		c0.338,3.672,0.857,5.954,1.558,6.848L60.049,62H47.984c-0.411-0.748-0.707-1.702-0.888-2.862c-0.182-1.159-0.417-3.84-0.707-8.043
		c-0.29-3.743-1.201-6.334-2.735-7.771c-1.534-1.437-4.148-2.155-7.844-2.155H25.412V62H13.855V9.031z M25.412,18.125v14.564h11.051
		c3.551,0,6.051-0.507,7.5-1.521c1.835-1.28,2.753-3.212,2.753-5.797c0-2.512-0.785-4.348-2.354-5.507
		c-1.57-1.159-4.046-1.739-7.428-1.739H25.412z"/>
	<path d="M67.803,9.031h23.839c5.121,0,8.937,0.64,11.449,1.92c2.367,1.208,4.154,2.959,5.362,5.253
		c1.015,1.933,1.521,3.985,1.521,6.159c0,2.416-0.616,4.565-1.848,6.449c-1.231,1.884-3.02,3.369-5.362,4.456
		c2.029,0.677,3.551,1.39,4.565,2.138c3.43,2.513,5.145,6.172,5.145,10.978c0,2.851-0.634,5.411-1.902,7.681
		c-1.268,2.271-3.086,4.095-5.452,5.471C102.317,61.18,98.538,62,93.779,62H67.803V9.031z M79.36,18.125v12.354h10.579
		c2.464,0,4.275-0.29,5.435-0.87c2.149-1.038,3.225-2.826,3.225-5.362c0-2.15-0.677-3.708-2.029-4.674
		c-1.353-0.966-3.562-1.449-6.63-1.449H79.36z M79.36,38.378v14.528h11.702c3.356,0,5.712-0.471,7.064-1.413
		c1.787-1.279,2.682-3.225,2.682-5.833c0-3.115-1.208-5.241-3.623-6.376c-1.329-0.604-3.563-0.906-6.703-0.906H79.36z"/>
	<path d="M153.886,22.255h-10.072c-0.941-4.082-3.261-6.123-6.956-6.123c-3.913,0-6.69,2.404-8.333,7.21
		c-0.677,1.956-1.22,4.915-1.63,8.876c1.594-2.15,3.29-3.696,5.09-4.638c1.799-0.942,3.968-1.413,6.504-1.413
		c4.975,0,8.973,1.764,11.992,5.29c2.874,3.333,4.312,7.512,4.312,12.537c0,5.966-1.933,10.76-5.797,14.383
		c-3.479,3.261-7.657,4.892-12.536,4.892c-6.256,0-11.123-2.361-14.601-7.083c-3.479-4.722-5.218-11.31-5.218-19.764
		c0-9.034,1.86-16.111,5.58-21.231c3.599-4.951,8.514-7.427,14.745-7.427c5.87,0,10.362,1.969,13.479,5.905
		C152.231,15.939,153.379,18.801,153.886,22.255z M135.952,34.393c-2.536,0-4.554,1.063-6.051,3.188
		c-1.354,1.884-2.029,4.13-2.029,6.738c0,2.585,0.688,4.844,2.065,6.775c1.497,2.15,3.551,3.225,6.159,3.225
		c2.536,0,4.577-1.026,6.123-3.079c1.449-1.933,2.174-4.215,2.174-6.848c0-2.585-0.652-4.795-1.957-6.631
		C140.843,35.516,138.681,34.393,135.952,34.393z"/>
	<path d="M177.219,7.763c4.033,0,7.584,1.231,10.651,3.695c3.043,2.464,5.253,6.256,6.63,11.376
		c1.038,3.913,1.559,8.164,1.559,12.753c0,7.608-1.354,13.864-4.059,18.768c-1.594,2.851-3.677,5.049-6.249,6.594
		c-2.572,1.546-5.441,2.319-8.605,2.319c-4.323,0-8.019-1.305-11.086-3.913c-5.459-4.638-8.188-12.56-8.188-23.768
		c0-7.971,1.425-14.371,4.275-19.202c1.618-2.753,3.737-4.878,6.358-6.376C171.125,8.512,174.03,7.763,177.219,7.763z
		 M176.82,16.712c-3.479,0-5.846,2.005-7.102,6.014c-0.991,3.188-1.485,7.657-1.485,13.406c0,5.072,0.507,9.143,1.521,12.21
		c1.305,3.985,3.72,5.978,7.246,5.978c2.922,0,5.096-1.545,6.521-4.638c1.425-3.091,2.138-7.813,2.138-14.166
		c0-5.41-0.508-9.674-1.521-12.79C182.834,18.717,180.395,16.712,176.82,16.712z"/>
</g>
</svg>
