<?xml version="1.0" encoding="utf-8"?>
<!-- Generator: Adobe Illustrator 25.1.0, SVG Export Plug-In . SVG Version: 6.00 Build 0)  -->
<svg version="1.0" id="Ebene_1" xmlns="http://www.w3.org/2000/svg" xmlns:xlink="http://www.w3.org/1999/xlink" x="0px" y="0px"
	 viewBox="0 0 210 71" enable-background="new 0 0 210 71" xml:space="preserve">
<rect id="background-white" fill="#FFFFFF" width="210" height="71"/>
<g id="RE:background-white:99">
	<path fill="#EB0000" d="M9,9h22.585c5.722,0,9.837,0.502,12.347,1.405c2.61,1.004,4.617,2.61,6.223,5.119
		c1.506,2.409,2.309,5.22,2.309,8.331c0,4.015-1.205,7.328-3.513,9.837c-2.309,2.61-5.822,4.216-10.54,4.919
		c2.309,1.305,4.216,2.811,5.722,4.417c1.506,1.606,3.513,4.517,6.123,8.633L56.78,62H43.932l-7.729-11.544
		c-2.71-4.116-4.617-6.725-5.621-7.83c-1.004-1.104-2.108-1.807-3.212-2.208c-1.104-0.402-2.911-0.602-5.42-0.602h-2.208V62H9V9z
		 M19.64,31.585h7.93c5.119,0,8.331-0.201,9.636-0.703c1.305-0.402,2.309-1.205,3.011-2.208c0.703-1.104,1.104-2.409,1.104-4.015
		c0-1.807-0.502-3.212-1.405-4.316c-1.004-1.104-2.309-1.807-4.015-2.108c-0.903-0.1-3.513-0.201-7.83-0.201h-8.331v13.551
		C19.741,31.585,19.64,31.585,19.64,31.585z"/>
	<path fill="#EB0000" d="M62.4,62V9h39.3v9H73.1v11.7h26.6v8.9H73.1V53h29.6v8.9L62.4,62L62.4,62z"/>
</g>
<g>
	<path fill="#EB0000" d="M148.356,9.031V62h-10.579V27.328h-3.768h-3.769h-3.658h-1.269v-7.681c2.584-0.072,4.691-0.338,6.322-0.797
		c1.63-0.458,3.121-1.208,4.475-2.247c1.956-1.497,3.272-4.021,3.949-7.572H148.356z"/>
	<path fill="#EB0000" d="M181.689,7.763c4.033,0,7.584,1.231,10.651,3.695c3.043,2.464,5.253,6.256,6.63,11.376
		c1.038,3.913,1.559,8.164,1.559,12.753c0,7.608-1.354,13.864-4.059,18.768c-1.594,2.851-3.677,5.049-6.249,6.594
		c-2.572,1.546-5.441,2.319-8.605,2.319c-4.323,0-8.019-1.305-11.086-3.913c-5.459-4.638-8.188-12.56-8.188-23.768
		c0-7.971,1.425-14.371,4.275-19.202c1.618-2.753,3.737-4.878,6.358-6.376C175.596,8.512,178.501,7.763,181.689,7.763z
		 M181.291,16.712c-3.479,0-5.846,2.005-7.102,6.014c-0.991,3.188-1.485,7.657-1.485,13.406c0,5.072,0.507,9.143,1.521,12.21
		c1.305,3.985,3.72,5.978,7.246,5.978c2.922,0,5.096-1.545,6.521-4.638c1.425-3.091,2.138-7.813,2.138-14.166
		c0-5.41-0.508-9.674-1.521-12.79C187.305,18.717,184.865,16.712,181.291,16.712z"/>
</g>
</svg>
