<svg xmlns="http://www.w3.org/2000/svg" xml:space="preserve" version="1.0" viewBox="0 0 210 71"><path fill="#FFFFFF" d="M0 0H210V71H0z" class="sbb-vm-color-white"/><path fill="#EB0000" d="M13.855 9.031h25.651c5.072 0 8.961.797 11.666 2.391 2.247 1.304 3.961 3.043 5.146 5.217 1.183 2.174 1.774 4.625 1.774 7.354 0 3.092-.742 5.785-2.228 8.08-1.485 2.295-3.557 3.937-6.214 4.927 2.343.58 4.179 1.884 5.507 3.913.846 1.28 1.413 2.621 1.703 4.021.29 1.401.664 4.602 1.123 9.602.338 3.672.857 5.954 1.558 6.848L60.049 62H47.984c-.411-.748-.707-1.702-.888-2.862-.182-1.159-.417-3.84-.707-8.043-.29-3.743-1.201-6.334-2.735-7.771-1.534-1.437-4.148-2.155-7.844-2.155H25.412V62H13.855V9.031zM25.412 18.125v14.564h11.051c3.551 0 6.051-.507 7.5-1.521 1.835-1.28 2.753-3.212 2.753-5.797 0-2.512-.785-4.348-2.354-5.507-1.57-1.159-4.046-1.739-7.428-1.739H25.412zM107.619 9.031v9.782H79.432v11.304h25.832v9.094H79.432v13.007h28.694V62H67.874V9.031H107.619zM149.646 22.255h-10.072c-.941-4.082-3.261-6.123-6.956-6.123-3.913 0-6.69 2.404-8.333 7.21-.677 1.956-1.22 4.915-1.63 8.876 1.594-2.15 3.29-3.696 5.09-4.638 1.799-.942 3.968-1.413 6.504-1.413 4.975 0 8.973 1.764 11.992 5.29 2.874 3.333 4.312 7.512 4.312 12.537 0 5.966-1.933 10.76-5.797 14.383-3.479 3.261-7.657 4.892-12.536 4.892-6.256 0-11.123-2.361-14.601-7.083-3.479-4.722-5.218-11.31-5.218-19.764 0-9.034 1.86-16.111 5.58-21.231 3.599-4.951 8.514-7.427 14.745-7.427 5.87 0 10.362 1.969 13.479 5.905C147.992 15.939 149.14 18.801 149.646 22.255zM131.713 34.393c-2.536 0-4.554 1.063-6.051 3.188-1.354 1.884-2.029 4.13-2.029 6.738 0 2.585.688 4.844 2.065 6.775 1.497 2.15 3.551 3.225 6.159 3.225 2.536 0 4.577-1.026 6.123-3.079 1.449-1.933 2.174-4.215 2.174-6.848 0-2.585-.652-4.795-1.957-6.631C136.604 35.516 134.441 34.393 131.713 34.393zM180.913 9.031V62h-10.579V27.328h-3.768-3.769-3.659-1.268v-7.681c2.584-.072 4.691-.338 6.322-.797 1.63-.458 3.121-1.208 4.475-2.247 1.956-1.497 3.272-4.021 3.949-7.572H180.913z" class="sbb-vm-color-red sbb-vm-color-black"/></svg>