<?xml version="1.0" encoding="utf-8"?>
<!-- Generator: Adobe Illustrator 25.1.0, SVG Export Plug-In . SVG Version: 6.00 Build 0)  -->
<svg version="1.0" id="Ebene_1" xmlns="http://www.w3.org/2000/svg" xmlns:xlink="http://www.w3.org/1999/xlink" x="0px" y="0px"
	 viewBox="0 0 210 71" enable-background="new 0 0 210 71" xml:space="preserve">
<rect id="background-white" fill="#FFFFFF" width="210" height="71"/>
<g id="RE:background-white:99">
	<path fill="#EB0000" d="M9,9h22.585c5.722,0,9.837,0.502,12.347,1.405c2.61,1.004,4.617,2.61,6.223,5.119
		c1.506,2.409,2.309,5.22,2.309,8.331c0,4.015-1.205,7.328-3.513,9.837c-2.309,2.61-5.822,4.216-10.54,4.919
		c2.309,1.305,4.216,2.811,5.722,4.417c1.506,1.606,3.513,4.517,6.123,8.633L56.78,62H43.932l-7.729-11.544
		c-2.71-4.116-4.617-6.725-5.621-7.83c-1.004-1.104-2.108-1.807-3.212-2.208c-1.104-0.402-2.911-0.602-5.42-0.602h-2.208V62H9V9z
		 M19.64,31.585h7.93c5.119,0,8.331-0.201,9.636-0.703c1.305-0.402,2.309-1.205,3.011-2.208c0.703-1.104,1.104-2.409,1.104-4.015
		c0-1.807-0.502-3.212-1.405-4.316c-1.004-1.104-2.309-1.807-4.015-2.108c-0.903-0.1-3.513-0.201-7.83-0.201h-8.331v13.551
		C19.741,31.585,19.64,31.585,19.64,31.585z"/>
	<path fill="#EB0000" d="M62.4,62V9h39.3v9H73.1v11.7h26.6v8.9H73.1V53h29.6v8.9L62.4,62L62.4,62z"/>
</g>
<g>
	<path fill="#EB0000" d="M158.356,22.255h-10.072c-0.941-4.082-3.261-6.123-6.956-6.123c-3.913,0-6.69,2.404-8.333,7.21
		c-0.677,1.956-1.22,4.915-1.63,8.876c1.594-2.15,3.29-3.696,5.09-4.638c1.799-0.942,3.968-1.413,6.504-1.413
		c4.975,0,8.973,1.764,11.992,5.29c2.874,3.333,4.312,7.512,4.312,12.537c0,5.966-1.933,10.76-5.797,14.383
		c-3.479,3.261-7.657,4.892-12.536,4.892c-6.256,0-11.123-2.361-14.601-7.083c-3.479-4.722-5.217-11.31-5.217-19.764
		c0-9.034,1.859-16.111,5.579-21.231c3.599-4.951,8.514-7.427,14.745-7.427c5.87,0,10.362,1.969,13.479,5.905
		C156.702,15.939,157.85,18.801,158.356,22.255z M140.423,34.393c-2.536,0-4.554,1.063-6.051,3.188
		c-1.354,1.884-2.029,4.13-2.029,6.738c0,2.585,0.688,4.844,2.065,6.775c1.497,2.15,3.551,3.225,6.159,3.225
		c2.536,0,4.577-1.026,6.123-3.079c1.449-1.933,2.174-4.215,2.174-6.848c0-2.585-0.652-4.795-1.957-6.631
		C145.313,35.516,143.151,34.393,140.423,34.393z"/>
	<path fill="#EB0000" d="M197.884,9.031v9.42h-21.34l-2.282,11.919c2.56-2.705,5.833-4.058,9.818-4.058
		c3.913,0,7.318,1.051,10.217,3.152c4.3,3.165,6.449,7.971,6.449,14.42c0,6.329-2.295,11.341-6.884,15.036
		c-3.575,2.898-7.85,4.348-12.825,4.348c-5.604,0-10.108-1.504-13.515-4.511c-3.405-3.007-5.205-7.07-5.397-12.191h10.397
		c0.169,1.86,0.773,3.441,1.812,4.746c1.618,2.053,3.864,3.079,6.739,3.079c2.777,0,4.976-1.002,6.594-3.007
		c1.57-1.956,2.355-4.335,2.355-7.138c0-3.043-0.822-5.477-2.464-7.3c-1.643-1.824-3.829-2.736-6.558-2.736
		c-3.333,0-5.931,1.498-7.79,4.493l-9.456-0.145l5.036-29.528H197.884z"/>
</g>
</svg>
