<?xml version="1.0" encoding="utf-8"?>
<!-- Generator: Adobe Illustrator 27.0.0, SVG Export Plug-In . SVG Version: 6.00 Build 0)  -->
<svg version="1.0" id="Ebene_1" xmlns="http://www.w3.org/2000/svg" xmlns:xlink="http://www.w3.org/1999/xlink" x="0px" y="0px"
	 viewBox="0 0 210 71" enable-background="new 0 0 210 71" xml:space="preserve">
<g id="white">
	<rect id="background-white_00000147201839684919677670000006641991587696569237_" fill="#FFFFFF" width="210" height="71"/>
</g>
<g>
	<path fill="#EB0000" d="M13.855,9.031h25.651c5.072,0,8.961,0.797,11.666,2.391c2.247,1.304,3.961,3.043,5.146,5.217
		c1.183,2.174,1.774,4.625,1.774,7.354c0,3.092-0.742,5.785-2.228,8.08c-1.485,2.295-3.557,3.937-6.214,4.927
		c2.343,0.58,4.179,1.884,5.507,3.913c0.846,1.28,1.413,2.621,1.703,4.021c0.29,1.401,0.664,4.602,1.123,9.602
		c0.338,3.672,0.857,5.954,1.558,6.848L60.049,62H47.984c-0.411-0.748-0.707-1.702-0.888-2.862c-0.182-1.159-0.417-3.84-0.707-8.043
		c-0.29-3.743-1.201-6.334-2.735-7.771c-1.534-1.437-4.148-2.155-7.844-2.155H25.412V62H13.855V9.031z M25.412,18.125v14.564h11.051
		c3.551,0,6.051-0.507,7.5-1.521c1.835-1.28,2.753-3.212,2.753-5.797c0-2.512-0.785-4.348-2.354-5.507
		c-1.57-1.159-4.046-1.739-7.428-1.739H25.412z"/>
	<path fill="#EB0000" d="M107.619,9.031v9.782H79.432v11.304h25.832v9.094H79.432v13.007h28.694V62H67.874V9.031H107.619z"/>
	<path fill="#EB0000" d="M113.308,48.704h9.999c0.821,4.106,3.2,6.159,7.138,6.159c2.222,0,4.027-0.755,5.417-2.265
		c1.389-1.51,2.457-3.858,3.206-7.047c0.482-2.029,0.833-4.335,1.051-6.92c-1.619,2.271-3.279,3.883-4.981,4.837
		c-1.703,0.954-3.774,1.431-6.214,1.431c-3.89,0-7.271-1.135-10.145-3.405c-2.005-1.595-3.568-3.659-4.692-6.196
		c-1.123-2.536-1.685-5.29-1.685-8.261c0-5.965,2.041-10.797,6.123-14.492c3.502-3.188,7.705-4.782,12.608-4.782
		c3.019,0,5.809,0.676,8.369,2.029c2.56,1.353,4.71,3.273,6.449,5.761c3.067,4.42,4.602,10.628,4.602,18.622
		c0,7.392-1.354,13.695-4.059,18.913c-3.526,6.787-8.864,10.181-16.014,10.181c-4.759,0-8.689-1.316-11.793-3.949
		S113.79,53.148,113.308,48.704z M130.915,16.712c-2.271,0-4.19,0.93-5.761,2.79c-1.57,1.884-2.354,4.275-2.354,7.174
		c0,2.343,0.567,4.42,1.703,6.231c1.545,2.488,3.719,3.732,6.521,3.732c2.536,0,4.564-1.015,6.086-3.043
		c1.426-1.908,2.138-4.178,2.138-6.811c0-2.777-0.736-5.132-2.21-7.065C135.492,17.714,133.451,16.712,130.915,16.712z"/>
	<path fill="#EB0000" d="M190.515,9.031v8.985c-0.29,0.314-1.147,1.292-2.572,2.935c-1.98,2.271-3.949,5.127-5.905,8.569
		c-1.957,3.442-3.479,6.745-4.565,9.909c-2.295,6.594-3.684,14.118-4.166,22.571h-10.942c0.073-3.985,0.767-8.405,2.084-13.26
		c1.315-4.855,3.134-9.71,5.452-14.565c3.309-6.859,6.666-11.968,10.072-15.325h-24.999V9.031H190.515z"/>
</g>
</svg>
