<?xml version="1.0" encoding="utf-8"?>
<!-- Generator: Adobe Illustrator 27.0.0, SVG Export Plug-In . SVG Version: 6.00 Build 0)  -->
<svg version="1.0" id="Ebene_1" xmlns="http://www.w3.org/2000/svg" xmlns:xlink="http://www.w3.org/1999/xlink" x="0px" y="0px"
	 viewBox="0 0 210 71" enable-background="new 0 0 210 71" xml:space="preserve">
<g id="rj">
	<rect id="background-red_00000143598458773267640890000002515280910603532686_" fill="#EB0000" width="210" height="71"/>
	<path fill="#FFFFFF" d="M19.901,61.9H9L20.112,9h23.495c4.022,0,7.197,0.401,9.419,1.202c2.222,0.802,4.022,2.405,5.503,4.609
		c1.376,2.204,2.117,4.909,2.117,8.015c0,4.509-1.376,8.215-4.022,11.121c-2.646,2.905-6.773,4.709-12.277,5.41
		c1.376,1.302,2.752,2.905,3.916,4.909c2.434,4.108,5.186,10.019,8.149,17.533H44.666c-0.953-3.006-2.752-7.614-5.503-14.026
		c-1.482-3.406-3.069-5.711-4.763-6.913c-1.058-0.701-2.858-1.002-5.397-1.002h-4.445L19.901,61.9z M26.145,32.043h5.821
		c5.821,0,9.737-0.301,11.642-1.002s3.387-1.803,4.551-3.306c1.058-1.503,1.587-3.106,1.587-4.709c0-1.904-0.741-3.406-2.328-4.308
		c-0.952-0.601-3.069-0.902-6.244-0.902H29.108L26.145,32.043z"/>
	<path fill="#FFFFFF" d="M92.82,9h10.689l-6.668,32.06c-1.799,8.516-4.128,14.227-6.985,17.232
		c-2.857,3.006-7.303,4.508-13.335,4.508c-5.08,0-8.89-1.202-11.43-3.507s-3.81-5.51-3.81-9.518c0-0.802,0.106-1.803,0.212-2.805
		l10.054-1.102c-0.106,1.102-0.212,1.904-0.212,2.605c0,1.703,0.529,3.006,1.482,3.907c0.953,0.902,2.434,1.302,4.445,1.302
		c2.752,0,4.762-0.802,5.927-2.505c0.847-1.202,1.905-4.809,3.069-10.62L92.82,9z"/>
</g>
</svg>
