<svg xmlns="http://www.w3.org/2000/svg" xml:space="preserve" version="1.0" viewBox="0 0 210 71"><path fill="#EB0000" d="M0 0H210V71H0z" class="sbb-vm-color-red"/><path fill="#FFFFFF" d="M19.901 61.9H9L20.112 9h23.495c4.022 0 7.197.401 9.419 1.202 2.222.802 4.022 2.405 5.503 4.609 1.376 2.204 2.117 4.909 2.117 8.015 0 4.509-1.376 8.215-4.022 11.121-2.646 2.905-6.773 4.709-12.277 5.41 1.376 1.302 2.752 2.905 3.916 4.909 2.434 4.108 5.186 10.019 8.149 17.533H44.666c-.953-3.006-2.752-7.614-5.503-14.026-1.482-3.406-3.069-5.711-4.763-6.913-1.058-.701-2.858-1.002-5.397-1.002h-4.445L19.901 61.9zM26.145 32.043h5.821c5.821 0 9.737-.301 11.642-1.002s3.387-1.803 4.551-3.306c1.058-1.503 1.587-3.106 1.587-4.709 0-1.904-.741-3.406-2.328-4.308-.952-.601-3.069-.902-6.244-.902H29.108L26.145 32.043zM92.82 9h10.689l-6.668 32.06c-1.799 8.516-4.128 14.227-6.985 17.232-2.857 3.006-7.303 4.508-13.335 4.508-5.08 0-8.89-1.202-11.43-3.507s-3.81-5.51-3.81-9.518c0-.802.106-1.803.212-2.805l10.054-1.102c-.106 1.102-.212 1.904-.212 2.605 0 1.703.529 3.006 1.482 3.907.953.902 2.434 1.302 4.445 1.302 2.752 0 4.762-.802 5.927-2.505.847-1.202 1.905-4.809 3.069-10.62L92.82 9z" class="sbb-vm-color-white"/></svg>