<?xml version="1.0" encoding="utf-8"?>
<!-- Generator: Adobe Illustrator 27.0.0, SVG Export Plug-In . SVG Version: 6.00 Build 0)  -->
<svg version="1.0" id="Ebene_1" xmlns="http://www.w3.org/2000/svg" xmlns:xlink="http://www.w3.org/1999/xlink" x="0px" y="0px"
	 viewBox="0 0 210 71" enable-background="new 0 0 210 71" xml:space="preserve">
<g id="rjx">
	<rect id="background-red_00000090997055543959922620000011764473532395491724_" fill="#EB0000" width="210" height="71"/>
	<path fill="#FFFFFF" d="M19.9,62H9L20.1,9h23.5c4,0,7.2,0.4,9.4,1.2c2.3,0.8,4.1,2.4,5.5,4.6s2.1,4.9,2.1,8.1c0,4.5-1.3,8.2-4,11.1
		c-2.7,2.9-6.8,4.7-12.2,5.4c1.4,1.3,2.7,2.9,3.9,5c2.4,4.1,5.1,10,8.1,17.6H44.7c-0.9-3-2.8-7.6-5.5-14c-1.5-3.4-3.1-5.7-4.8-6.9
		c-1-0.7-2.8-1-5.4-1h-4.4L19.9,62z M26.2,32.1H32c5.9,0,9.7-0.3,11.7-1c1.9-0.7,3.4-1.8,4.5-3.3s1.6-3.1,1.6-4.7
		c0-1.9-0.8-3.4-2.3-4.3c-1-0.6-3-0.9-6.3-0.9H29.1L26.2,32.1z"/>
	<path fill="#FFFFFF" d="M92.9,9h10.7l-6.7,32.1c-1.8,8.5-4.1,14.3-7,17.3s-7.3,4.5-13.3,4.5c-5.1,0-8.9-1.2-11.4-3.5
		c-2.5-2.3-3.8-5.5-3.8-9.5c0-0.8,0.1-1.8,0.2-2.8L71.7,46c-0.1,1.1-0.2,1.9-0.2,2.6c0,1.7,0.5,3,1.4,3.9c1,0.9,2.4,1.3,4.4,1.3
		c2.8,0,4.8-0.8,5.9-2.5c0.8-1.3,1.9-4.8,3.1-10.6L92.9,9z"/>
	<path fill="#FFFFFF" d="M112.2,62H98.1l23.4-26.8L108.3,9h11.4l5.2,9.9c0.2,0.4,1.3,2.8,3.5,7.3c0.1,0.2,0.3,0.6,0.5,1
		c2.9-3.6,5.4-6.5,7.4-8.8l8.3-9.4h13.7l-24.2,27.9l13,25.1h-12.3l-4-8c-2.1-4.2-3.4-7.2-4.1-9.1c-0.9,1.4-3.4,4.4-7.3,8.8L112.2,62
		z"/>
</g>
</svg>
