<svg xmlns="http://www.w3.org/2000/svg" xml:space="preserve" version="1.0" viewBox="0 0 210 71"><path fill="#FFFFFF" d="M0 0H210V71H0z" class="sbb-vm-color-white"/><path d="M53.419 24.719H42.404c-.217-2.584-1.178-4.559-2.88-5.924-1.703-1.364-4.089-2.047-7.156-2.047-2.729 0-4.849.538-6.358 1.612-1.51 1.075-2.264 2.579-2.264 4.511 0 1.739.725 2.995 2.174 3.768 1.4.773 4.951 1.86 10.651 3.261 6.015 1.498 10.181 3.007 12.5 4.529 4.274 2.803 6.412 6.703 6.412 11.702 0 5.483-2.149 9.807-6.448 12.971-3.793 2.778-8.926 4.167-15.398 4.167-7.198 0-12.789-1.643-16.775-4.928-3.985-3.284-6.05-7.958-6.195-14.021h11.521c.169 2.947.93 5.133 2.283 6.559 2.125 2.271 5.325 3.405 9.601 3.405 2.898 0 5.193-.567 6.884-1.703 1.908-1.304 2.862-3.079 2.862-5.325 0-2.247-1.341-3.889-4.021-4.928-1.474-.58-4.952-1.631-10.435-3.152-3.43-.941-6.111-1.835-8.043-2.681-1.933-.846-3.478-1.788-4.638-2.826-2.705-2.415-4.058-5.749-4.058-10 0-5.096 2.113-9.13 6.34-12.101 3.6-2.536 8.272-3.804 14.021-3.804 5.048 0 9.275 1.002 12.681 3.007C50.568 13.645 53.152 18.294 53.419 24.719zM96.859 52.58V62H58.708c0-2.874.465-5.615 1.396-8.224.929-2.609 2.239-4.855 3.931-6.739 1.305-1.449 2.832-2.862 4.583-4.239s5.235-3.9 10.453-7.572c2.535-1.763 4.311-3.406 5.325-4.927s1.521-3.285 1.521-5.29c0-2.319-.683-4.197-2.047-5.634s-3.158-2.156-5.38-2.156c-5.459 0-8.273 3.925-8.441 11.775H59.867c0-.507 0-.894 0-1.16 0-6.424 1.8-11.4 5.398-14.927 3.502-3.429 8.031-5.145 13.587-5.145 4.927 0 9.045 1.401 12.354 4.203 3.599 3.043 5.398 7.137 5.398 12.282 0 4.492-1.438 8.357-4.312 11.594-.942 1.063-1.824 1.915-2.645 2.555-.821.64-2.983 2.18-6.485 4.619-3.333 2.318-5.719 4.094-7.155 5.326-1.438 1.231-2.772 2.645-4.004 4.238H96.859zM138.597 40.95v8.949h-6.666V62h-10.326V49.899H99.504v-9.928l22.644-30.94h9.783V40.95H138.597zM121.822 41.059V21.35l-13.623 19.709H121.822z" class="sbb-vm-color-black"/></svg>