<?xml version="1.0" encoding="utf-8"?>
<!-- Generator: Adobe Illustrator 25.1.0, SVG Export Plug-In . SVG Version: 6.00 Build 0)  -->
<svg version="1.0" id="Ebene_1" xmlns="http://www.w3.org/2000/svg" xmlns:xlink="http://www.w3.org/1999/xlink" x="0px" y="0px"
	 viewBox="0 0 210 71" enable-background="new 0 0 210 71" xml:space="preserve">
<rect id="background-white" fill="#FFFFFF" width="210" height="71"/>
<g id="S:background-white:99">
	<path d="M51.7,24.8h-11c-0.1-2.3-1.1-4.4-2.9-5.9c-2.1-1.5-4.6-2.2-7.1-2c-2.2-0.1-4.5,0.4-6.4,1.6c-1.5,1-2.3,2.7-2.3,4.5
		c-0.1,1.6,0.8,3.1,2.2,3.8c1.4,0.8,4.9,1.9,10.6,3.3c6,1.5,10.2,3,12.5,4.5c4.1,2.5,6.5,6.9,6.4,11.7c0.2,5.1-2.2,10-6.4,13
		c-3.8,2.8-8.9,4.2-15.4,4.2c-7.2,0-12.8-1.6-16.8-4.9c-4-3.3-6-7.9-6.2-14h11.5c0.2,2.9,0.9,5.1,2.3,6.5c2.1,2.3,5.3,3.4,9.6,3.4
		c2.4,0.1,4.8-0.5,6.9-1.7c1.8-1.1,2.9-3.2,2.9-5.3c0-2.2-1.3-3.9-4-4.9c-1.5-0.6-4.9-1.6-10.4-3.1c-2.7-0.7-5.4-1.6-8-2.7
		c-1.7-0.7-3.2-1.6-4.6-2.8c-2.7-2.4-4.1-5.7-4.1-10c-0.1-4.9,2.3-9.4,6.3-12.1c3.6-2.5,8.3-3.8,14-3.8c4.4-0.2,8.8,0.9,12.7,3
		C48.9,13.7,51.4,18.4,51.7,24.8z"/>
</g>
<g>
	<path d="M159.733,40.95v8.949h-6.666V62h-10.326V49.899h-22.101v-9.928l22.644-30.94h9.783V40.95H159.733z M142.959,41.059V21.35
		l-13.623,19.709H142.959z"/>
</g>
</svg>
