<?xml version="1.0" encoding="utf-8"?>
<!-- Generator: Adobe Illustrator 25.1.0, SVG Export Plug-In . SVG Version: 6.00 Build 0)  -->
<svg version="1.0" id="Ebene_1" xmlns="http://www.w3.org/2000/svg" xmlns:xlink="http://www.w3.org/1999/xlink" x="0px" y="0px"
	 viewBox="0 0 210 71" enable-background="new 0 0 210 71" xml:space="preserve">
<rect id="background-white" fill="#FFFFFF" width="210" height="71"/>
<g id="S:background-white:99">
	<path d="M51.7,24.8h-11c-0.1-2.3-1.1-4.4-2.9-5.9c-2.1-1.5-4.6-2.2-7.1-2c-2.2-0.1-4.5,0.4-6.4,1.6c-1.5,1-2.3,2.7-2.3,4.5
		c-0.1,1.6,0.8,3.1,2.2,3.8c1.4,0.8,4.9,1.9,10.6,3.3c6,1.5,10.2,3,12.5,4.5c4.1,2.5,6.5,6.9,6.4,11.7c0.2,5.1-2.2,10-6.4,13
		c-3.8,2.8-8.9,4.2-15.4,4.2c-7.2,0-12.8-1.6-16.8-4.9c-4-3.3-6-7.9-6.2-14h11.5c0.2,2.9,0.9,5.1,2.3,6.5c2.1,2.3,5.3,3.4,9.6,3.4
		c2.4,0.1,4.8-0.5,6.9-1.7c1.8-1.1,2.9-3.2,2.9-5.3c0-2.2-1.3-3.9-4-4.9c-1.5-0.6-4.9-1.6-10.4-3.1c-2.7-0.7-5.4-1.6-8-2.7
		c-1.7-0.7-3.2-1.6-4.6-2.8c-2.7-2.4-4.1-5.7-4.1-10c-0.1-4.9,2.3-9.4,6.3-12.1c3.6-2.5,8.3-3.8,14-3.8c4.4-0.2,8.8,0.9,12.7,3
		C48.9,13.7,51.4,18.4,51.7,24.8z"/>
</g>
<g>
	<path d="M156.617,9.031v9.42h-21.34l-2.282,11.919c2.56-2.705,5.833-4.058,9.818-4.058c3.913,0,7.318,1.051,10.217,3.152
		c4.3,3.165,6.449,7.971,6.449,14.42c0,6.329-2.295,11.341-6.884,15.036c-3.575,2.898-7.85,4.348-12.825,4.348
		c-5.604,0-10.108-1.504-13.514-4.511c-3.406-3.007-5.205-7.07-5.398-12.191h10.397c0.169,1.86,0.773,3.441,1.812,4.746
		c1.618,2.053,3.864,3.079,6.739,3.079c2.777,0,4.976-1.002,6.594-3.007c1.57-1.956,2.355-4.335,2.355-7.138
		c0-3.043-0.822-5.477-2.464-7.3c-1.643-1.824-3.829-2.736-6.558-2.736c-3.333,0-5.931,1.498-7.79,4.493l-9.456-0.145l5.036-29.528
		H156.617z"/>
	<path d="M189.623,9.031V62h-10.579V27.328h-3.768h-3.769h-3.659h-1.268v-7.681c2.584-0.072,4.691-0.338,6.322-0.797
		c1.63-0.458,3.121-1.208,4.475-2.247c1.956-1.497,3.272-4.021,3.949-7.572H189.623z"/>
</g>
</svg>
