<?xml version="1.0" encoding="utf-8"?>
<!-- Generator: Adobe Illustrator 25.1.0, SVG Export Plug-In . SVG Version: 6.00 Build 0)  -->
<svg version="1.0" id="Ebene_1" xmlns="http://www.w3.org/2000/svg" xmlns:xlink="http://www.w3.org/1999/xlink" x="0px" y="0px"
	 viewBox="0 0 210 71" enable-background="new 0 0 210 71" xml:space="preserve">
<rect id="background-white" fill="#FFFFFF" width="210" height="71"/>
<g id="S:background-white:99">
	<path d="M51.7,24.8h-11c-0.1-2.3-1.1-4.4-2.9-5.9c-2.1-1.5-4.6-2.2-7.1-2c-2.2-0.1-4.5,0.4-6.4,1.6c-1.5,1-2.3,2.7-2.3,4.5
		c-0.1,1.6,0.8,3.1,2.2,3.8c1.4,0.8,4.9,1.9,10.6,3.3c6,1.5,10.2,3,12.5,4.5c4.1,2.5,6.5,6.9,6.4,11.7c0.2,5.1-2.2,10-6.4,13
		c-3.8,2.8-8.9,4.2-15.4,4.2c-7.2,0-12.8-1.6-16.8-4.9c-4-3.3-6-7.9-6.2-14h11.5c0.2,2.9,0.9,5.1,2.3,6.5c2.1,2.3,5.3,3.4,9.6,3.4
		c2.4,0.1,4.8-0.5,6.9-1.7c1.8-1.1,2.9-3.2,2.9-5.3c0-2.2-1.3-3.9-4-4.9c-1.5-0.6-4.9-1.6-10.4-3.1c-2.7-0.7-5.4-1.6-8-2.7
		c-1.7-0.7-3.2-1.6-4.6-2.8c-2.7-2.4-4.1-5.7-4.1-10c-0.1-4.9,2.3-9.4,6.3-12.1c3.6-2.5,8.3-3.8,14-3.8c4.4-0.2,8.8,0.9,12.7,3
		C48.9,13.7,51.4,18.4,51.7,24.8z"/>
</g>
<g>
	<path d="M158.356,22.255h-10.072c-0.941-4.082-3.261-6.123-6.956-6.123c-3.913,0-6.69,2.404-8.333,7.21
		c-0.677,1.956-1.22,4.915-1.63,8.876c1.594-2.15,3.29-3.696,5.09-4.638c1.799-0.942,3.968-1.413,6.504-1.413
		c4.975,0,8.973,1.764,11.992,5.29c2.874,3.333,4.312,7.512,4.312,12.537c0,5.966-1.933,10.76-5.797,14.383
		c-3.479,3.261-7.657,4.892-12.536,4.892c-6.256,0-11.123-2.361-14.601-7.083c-3.479-4.722-5.217-11.31-5.217-19.764
		c0-9.034,1.859-16.111,5.579-21.231c3.599-4.951,8.514-7.427,14.745-7.427c5.87,0,10.362,1.969,13.479,5.905
		C156.702,15.939,157.85,18.801,158.356,22.255z M140.423,34.393c-2.536,0-4.554,1.063-6.051,3.188
		c-1.354,1.884-2.029,4.13-2.029,6.738c0,2.585,0.688,4.844,2.065,6.775c1.497,2.15,3.551,3.225,6.159,3.225
		c2.536,0,4.577-1.026,6.123-3.079c1.449-1.933,2.174-4.215,2.174-6.848c0-2.585-0.652-4.795-1.957-6.631
		C145.313,35.516,143.151,34.393,140.423,34.393z"/>
	<path d="M199.225,9.031v8.985c-0.29,0.314-1.147,1.292-2.572,2.935c-1.98,2.271-3.949,5.127-5.905,8.569
		c-1.957,3.442-3.479,6.745-4.565,9.909c-2.295,6.594-3.684,14.118-4.166,22.571h-10.942c0.073-3.985,0.767-8.405,2.084-13.26
		c1.315-4.855,3.134-9.71,5.452-14.565c3.309-6.859,6.666-11.968,10.072-15.325h-24.999V9.031H199.225z"/>
</g>
</svg>
