<?xml version="1.0" encoding="utf-8"?>
<!-- Generator: Adobe Illustrator 25.1.0, SVG Export Plug-In . SVG Version: 6.00 Build 0)  -->
<svg version="1.0" id="Ebene_1" xmlns="http://www.w3.org/2000/svg" xmlns:xlink="http://www.w3.org/1999/xlink" x="0px" y="0px"
	 viewBox="0 0 210 71" enable-background="new 0 0 210 71" xml:space="preserve">
<rect id="background-white" fill="#FFFFFF" width="210" height="71"/>
<g id="S:background-white:99">
	<path d="M51.7,24.8h-11c-0.1-2.3-1.1-4.4-2.9-5.9c-2.1-1.5-4.6-2.2-7.1-2c-2.2-0.1-4.5,0.4-6.4,1.6c-1.5,1-2.3,2.7-2.3,4.5
		c-0.1,1.6,0.8,3.1,2.2,3.8c1.4,0.8,4.9,1.9,10.6,3.3c6,1.5,10.2,3,12.5,4.5c4.1,2.5,6.5,6.9,6.4,11.7c0.2,5.1-2.2,10-6.4,13
		c-3.8,2.8-8.9,4.2-15.4,4.2c-7.2,0-12.8-1.6-16.8-4.9c-4-3.3-6-7.9-6.2-14h11.5c0.2,2.9,0.9,5.1,2.3,6.5c2.1,2.3,5.3,3.4,9.6,3.4
		c2.4,0.1,4.8-0.5,6.9-1.7c1.8-1.1,2.9-3.2,2.9-5.3c0-2.2-1.3-3.9-4-4.9c-1.5-0.6-4.9-1.6-10.4-3.1c-2.7-0.7-5.4-1.6-8-2.7
		c-1.7-0.7-3.2-1.6-4.6-2.8c-2.7-2.4-4.1-5.7-4.1-10c-0.1-4.9,2.3-9.4,6.3-12.1c3.6-2.5,8.3-3.8,14-3.8c4.4-0.2,8.8,0.9,12.7,3
		C48.9,13.7,51.4,18.4,51.7,24.8z"/>
</g>
<g>
	<path d="M122.018,48.704h9.999c0.821,4.106,3.2,6.159,7.138,6.159c2.222,0,4.027-0.755,5.417-2.265
		c1.389-1.51,2.457-3.858,3.206-7.047c0.482-2.029,0.833-4.335,1.051-6.92c-1.619,2.271-3.279,3.883-4.981,4.837
		c-1.703,0.954-3.774,1.431-6.214,1.431c-3.89,0-7.271-1.135-10.145-3.405c-2.005-1.595-3.568-3.659-4.691-6.196
		c-1.123-2.536-1.685-5.29-1.685-8.261c0-5.965,2.04-10.797,6.122-14.492c3.502-3.188,7.705-4.782,12.608-4.782
		c3.019,0,5.809,0.676,8.369,2.029c2.56,1.353,4.71,3.273,6.449,5.761c3.067,4.42,4.602,10.628,4.602,18.622
		c0,7.392-1.354,13.695-4.059,18.913c-3.526,6.787-8.864,10.181-16.014,10.181c-4.759,0-8.689-1.316-11.793-3.949
		S122.501,53.148,122.018,48.704z M139.625,16.712c-2.271,0-4.19,0.93-5.761,2.79c-1.57,1.884-2.354,4.275-2.354,7.174
		c0,2.343,0.567,4.42,1.703,6.231c1.545,2.488,3.719,3.732,6.521,3.732c2.536,0,4.564-1.015,6.086-3.043
		c1.426-1.908,2.138-4.178,2.138-6.811c0-2.777-0.736-5.132-2.21-7.065C144.202,17.714,142.161,16.712,139.625,16.712z"/>
	<path d="M181.689,7.763c4.033,0,7.584,1.231,10.651,3.695c3.043,2.464,5.253,6.256,6.63,11.376
		c1.038,3.913,1.559,8.164,1.559,12.753c0,7.608-1.354,13.864-4.059,18.768c-1.594,2.851-3.677,5.049-6.249,6.594
		c-2.572,1.546-5.441,2.319-8.605,2.319c-4.323,0-8.019-1.305-11.086-3.913c-5.459-4.638-8.188-12.56-8.188-23.768
		c0-7.971,1.425-14.371,4.275-19.202c1.618-2.753,3.737-4.878,6.358-6.376C175.596,8.512,178.501,7.763,181.689,7.763z
		 M181.291,16.712c-3.479,0-5.846,2.005-7.102,6.014c-0.991,3.188-1.485,7.657-1.485,13.406c0,5.072,0.507,9.143,1.521,12.21
		c1.305,3.985,3.72,5.978,7.246,5.978c2.922,0,5.096-1.545,6.521-4.638c1.425-3.091,2.138-7.813,2.138-14.166
		c0-5.41-0.508-9.674-1.521-12.79C187.305,18.717,184.865,16.712,181.291,16.712z"/>
</g>
</svg>
