<?xml version="1.0" encoding="utf-8"?>
<!-- Generator: Adobe Illustrator 27.0.0, SVG Export Plug-In . SVG Version: 6.00 Build 0)  -->
<svg version="1.0" id="Ebene_1" xmlns="http://www.w3.org/2000/svg" xmlns:xlink="http://www.w3.org/1999/xlink" x="0px" y="0px"
	 viewBox="0 0 210 71" enable-background="new 0 0 210 71" xml:space="preserve">
<g id="white">
	<rect id="background-white_00000147201839684919677670000006641991587696569237_" fill="#FFFFFF" width="210" height="71"/>
</g>
<g>
	<path d="M53.419,24.719H42.404c-0.217-2.584-1.178-4.559-2.88-5.924c-1.703-1.364-4.089-2.047-7.156-2.047
		c-2.729,0-4.849,0.538-6.358,1.612c-1.51,1.075-2.264,2.579-2.264,4.511c0,1.739,0.725,2.995,2.174,3.768
		c1.4,0.773,4.951,1.86,10.651,3.261c6.015,1.498,10.181,3.007,12.5,4.529c4.274,2.803,6.412,6.703,6.412,11.702
		c0,5.483-2.149,9.807-6.448,12.971c-3.793,2.778-8.926,4.167-15.398,4.167c-7.198,0-12.789-1.643-16.775-4.928
		c-3.985-3.284-6.05-7.958-6.195-14.021h11.521c0.169,2.947,0.93,5.133,2.283,6.559c2.125,2.271,5.325,3.405,9.601,3.405
		c2.898,0,5.193-0.567,6.884-1.703c1.908-1.304,2.862-3.079,2.862-5.325c0-2.247-1.341-3.889-4.021-4.928
		c-1.474-0.58-4.952-1.631-10.435-3.152c-3.43-0.941-6.111-1.835-8.043-2.681c-1.933-0.846-3.478-1.788-4.638-2.826
		c-2.705-2.415-4.058-5.749-4.058-10c0-5.096,2.113-9.13,6.34-12.101c3.6-2.536,8.272-3.804,14.021-3.804
		c5.048,0,9.275,1.002,12.681,3.007C50.568,13.645,53.152,18.294,53.419,24.719z"/>
	<path d="M99.758,52.218V62H62.295V9.031h11.558v43.187H99.758z"/>
	<path d="M140.843,52.58V62h-38.151c0-2.874,0.465-5.615,1.396-8.224c0.929-2.609,2.239-4.855,3.931-6.739
		c1.305-1.449,2.832-2.862,4.583-4.239s5.235-3.9,10.453-7.572c2.535-1.763,4.311-3.406,5.325-4.927s1.521-3.285,1.521-5.29
		c0-2.319-0.683-4.197-2.047-5.634s-3.158-2.156-5.38-2.156c-5.459,0-8.273,3.925-8.441,11.775h-10.182c0-0.507,0-0.894,0-1.16
		c0-6.424,1.8-11.4,5.398-14.927c3.502-3.429,8.031-5.145,13.587-5.145c4.927,0,9.045,1.401,12.354,4.203
		c3.599,3.043,5.398,7.137,5.398,12.282c0,4.492-1.438,8.357-4.312,11.594c-0.942,1.063-1.824,1.915-2.645,2.555
		c-0.821,0.64-2.983,2.18-6.485,4.619c-3.333,2.318-5.719,4.094-7.155,5.326c-1.438,1.231-2.772,2.645-4.004,4.238H140.843z"/>
	<path d="M163.27,7.763c4.033,0,7.584,1.231,10.651,3.695c3.043,2.464,5.253,6.256,6.63,11.376
		c1.038,3.913,1.559,8.164,1.559,12.753c0,7.608-1.354,13.864-4.059,18.768c-1.594,2.851-3.677,5.049-6.249,6.594
		c-2.572,1.546-5.441,2.319-8.605,2.319c-4.323,0-8.019-1.305-11.086-3.913c-5.459-4.638-8.188-12.56-8.188-23.768
		c0-7.971,1.425-14.371,4.275-19.202c1.618-2.753,3.737-4.878,6.358-6.376C157.176,8.512,160.081,7.763,163.27,7.763z
		 M162.871,16.712c-3.479,0-5.846,2.005-7.102,6.014c-0.991,3.188-1.485,7.657-1.485,13.406c0,5.072,0.507,9.143,1.521,12.21
		c1.305,3.985,3.72,5.978,7.246,5.978c2.922,0,5.096-1.545,6.521-4.638c1.425-3.091,2.138-7.813,2.138-14.166
		c0-5.41-0.508-9.674-1.521-12.79C168.885,18.717,166.445,16.712,162.871,16.712z"/>
</g>
</svg>
