<?xml version="1.0" encoding="utf-8"?>
<!-- Generator: Adobe Illustrator 25.1.0, SVG Export Plug-In . SVG Version: 6.00 Build 0)  -->
<svg version="1.0" id="Ebene_1" xmlns="http://www.w3.org/2000/svg" xmlns:xlink="http://www.w3.org/1999/xlink" x="0px" y="0px"
	 viewBox="0 0 210 71" enable-background="new 0 0 210 71" xml:space="preserve">
<rect id="background-white" fill="#FFFFFF" width="210" height="71"/>
<g id="SL:background-white:99">
	<path id="path991" d="M52.051,24.32H40.958c-0.102-2.341-1.119-4.478-2.951-6.004c-2.137-1.527-4.681-2.239-7.225-2.035
		c-2.239-0.102-4.478,0.407-6.411,1.628c-1.527,1.018-2.341,2.748-2.239,4.58c-0.102,1.628,0.814,3.053,2.239,3.765
		c1.425,0.814,4.987,1.832,10.787,3.257c6.106,1.527,10.278,3.053,12.619,4.58c4.172,2.442,6.615,7.022,6.513,11.805
		c0.204,5.19-2.239,10.075-6.513,13.128c-3.867,2.849-9.057,4.172-15.57,4.172c-7.429,0.102-13.026-1.527-17.097-4.885
		c-4.071-3.358-6.106-8.04-6.31-14.146h11.601c0.204,2.951,0.916,5.19,2.341,6.615c2.137,2.341,5.394,3.46,9.668,3.46
		c2.442,0.102,4.885-0.509,6.92-1.73c1.832-1.119,2.951-3.155,2.849-5.394c0-2.239-1.323-3.969-4.071-4.987
		c-1.527-0.611-4.987-1.628-10.584-3.155c-2.748-0.712-5.495-1.628-8.141-2.748c-1.73-0.712-3.257-1.628-4.681-2.849
		c-2.748-2.442-4.071-5.801-4.071-10.075c-0.102-4.885,2.341-9.566,6.411-12.212c3.664-2.544,8.345-3.867,14.146-3.867
		c4.478-0.204,8.854,0.916,12.823,3.053C49.202,13.126,51.847,17.909,52.051,24.32z"/>
	<path d="M112.195,52.205v9.77h-37.45V8.954h11.601v43.251H112.195z"/>
</g>
<g>
	<path d="M122.235,25.806c0.12-4.348,1.195-7.994,3.225-10.941c3.283-4.734,8.224-7.101,14.817-7.101
		c5.072,0,9.166,1.292,12.282,3.876c3.357,2.802,5.036,6.425,5.036,10.869c0,2.657-0.658,4.945-1.975,6.866
		s-3.098,3.219-5.344,3.895c2.85,0.652,5.103,2.102,6.757,4.348c1.654,2.246,2.481,4.964,2.481,8.151
		c0,5.242-1.933,9.529-5.797,12.862c-3.574,3.092-8.092,4.638-13.55,4.638c-5.918,0-10.61-1.703-14.075-5.108
		c-3.467-3.406-5.199-8.007-5.199-13.804c0-0.121,0-0.351,0-0.688h10.181c0,3.261,0.772,5.778,2.318,7.554s3.732,2.663,6.558,2.663
		c2.826,0,5-0.833,6.521-2.5c1.4-1.57,2.102-3.442,2.102-5.616c0-2.608-0.894-4.673-2.681-6.195
		c-1.474-1.255-3.744-1.884-6.812-1.884c-0.87,0-1.728,0.049-2.572,0.146v-7.79c0.628,0.048,1.231,0.072,1.812,0.072
		c6.087,0,9.13-2.258,9.13-6.775c0-1.98-0.665-3.581-1.993-4.801c-1.328-1.219-3.079-1.83-5.253-1.83
		c-2.488,0-4.408,0.773-5.761,2.319c-1.353,1.546-2.077,3.804-2.174,6.775H122.235z"/>
	<path d="M181.689,7.763c4.033,0,7.584,1.231,10.651,3.695c3.043,2.464,5.253,6.256,6.63,11.376
		c1.038,3.913,1.559,8.164,1.559,12.753c0,7.608-1.354,13.864-4.059,18.768c-1.594,2.851-3.677,5.049-6.249,6.594
		c-2.572,1.546-5.441,2.319-8.605,2.319c-4.323,0-8.019-1.305-11.086-3.913c-5.459-4.638-8.188-12.56-8.188-23.768
		c0-7.971,1.425-14.371,4.275-19.202c1.618-2.753,3.737-4.878,6.358-6.376C175.596,8.512,178.501,7.763,181.689,7.763z
		 M181.291,16.712c-3.479,0-5.846,2.005-7.102,6.014c-0.991,3.188-1.485,7.657-1.485,13.406c0,5.072,0.507,9.143,1.521,12.21
		c1.305,3.985,3.72,5.978,7.246,5.978c2.922,0,5.096-1.545,6.521-4.638c1.425-3.091,2.138-7.813,2.138-14.166
		c0-5.41-0.508-9.674-1.521-12.79C187.305,18.717,184.865,16.712,181.291,16.712z"/>
</g>
</svg>
