<?xml version="1.0" encoding="utf-8"?>
<!-- Generator: Adobe Illustrator 25.1.0, SVG Export Plug-In . SVG Version: 6.00 Build 0)  -->
<svg version="1.0" id="Ebene_1" xmlns="http://www.w3.org/2000/svg" xmlns:xlink="http://www.w3.org/1999/xlink" x="0px" y="0px"
	 viewBox="0 0 210 71" enable-background="new 0 0 210 71" xml:space="preserve">
<rect id="background-white" fill="#FFFFFF" width="210" height="71"/>
<g id="SL:background-white:99">
	<path id="path991" d="M52.051,24.32H40.958c-0.102-2.341-1.119-4.478-2.951-6.004c-2.137-1.527-4.681-2.239-7.225-2.035
		c-2.239-0.102-4.478,0.407-6.411,1.628c-1.527,1.018-2.341,2.748-2.239,4.58c-0.102,1.628,0.814,3.053,2.239,3.765
		c1.425,0.814,4.987,1.832,10.787,3.257c6.106,1.527,10.278,3.053,12.619,4.58c4.172,2.442,6.615,7.022,6.513,11.805
		c0.204,5.19-2.239,10.075-6.513,13.128c-3.867,2.849-9.057,4.172-15.57,4.172c-7.429,0.102-13.026-1.527-17.097-4.885
		c-4.071-3.358-6.106-8.04-6.31-14.146h11.601c0.204,2.951,0.916,5.19,2.341,6.615c2.137,2.341,5.394,3.46,9.668,3.46
		c2.442,0.102,4.885-0.509,6.92-1.73c1.832-1.119,2.951-3.155,2.849-5.394c0-2.239-1.323-3.969-4.071-4.987
		c-1.527-0.611-4.987-1.628-10.584-3.155c-2.748-0.712-5.495-1.628-8.141-2.748c-1.73-0.712-3.257-1.628-4.681-2.849
		c-2.748-2.442-4.071-5.801-4.071-10.075c-0.102-4.885,2.341-9.566,6.411-12.212c3.664-2.544,8.345-3.867,14.146-3.867
		c4.478-0.204,8.854,0.916,12.823,3.053C49.202,13.126,51.847,17.909,52.051,24.32z"/>
	<path d="M112.195,52.205v9.77h-37.45V8.954h11.601v43.251H112.195z"/>
</g>
<g>
	<path d="M122.235,25.806c0.12-4.348,1.195-7.994,3.225-10.941c3.283-4.734,8.224-7.101,14.817-7.101
		c5.072,0,9.166,1.292,12.282,3.876c3.357,2.802,5.036,6.425,5.036,10.869c0,2.657-0.658,4.945-1.975,6.866
		s-3.098,3.219-5.344,3.895c2.85,0.652,5.103,2.102,6.757,4.348c1.654,2.246,2.481,4.964,2.481,8.151
		c0,5.242-1.933,9.529-5.797,12.862c-3.574,3.092-8.092,4.638-13.55,4.638c-5.918,0-10.61-1.703-14.075-5.108
		c-3.467-3.406-5.199-8.007-5.199-13.804c0-0.121,0-0.351,0-0.688h10.181c0,3.261,0.772,5.778,2.318,7.554s3.732,2.663,6.558,2.663
		c2.826,0,5-0.833,6.521-2.5c1.4-1.57,2.102-3.442,2.102-5.616c0-2.608-0.894-4.673-2.681-6.195
		c-1.474-1.255-3.744-1.884-6.812-1.884c-0.87,0-1.728,0.049-2.572,0.146v-7.79c0.628,0.048,1.231,0.072,1.812,0.072
		c6.087,0,9.13-2.258,9.13-6.775c0-1.98-0.665-3.581-1.993-4.801c-1.328-1.219-3.079-1.83-5.253-1.83
		c-2.488,0-4.408,0.773-5.761,2.319c-1.353,1.546-2.077,3.804-2.174,6.775H122.235z"/>
	<path d="M197.884,9.031v9.42h-21.34l-2.282,11.919c2.56-2.705,5.833-4.058,9.818-4.058c3.913,0,7.318,1.051,10.217,3.152
		c4.3,3.165,6.449,7.971,6.449,14.42c0,6.329-2.295,11.341-6.884,15.036c-3.575,2.898-7.85,4.348-12.825,4.348
		c-5.604,0-10.108-1.504-13.515-4.511c-3.405-3.007-5.205-7.07-5.397-12.191h10.397c0.169,1.86,0.773,3.441,1.812,4.746
		c1.618,2.053,3.864,3.079,6.739,3.079c2.777,0,4.976-1.002,6.594-3.007c1.57-1.956,2.355-4.335,2.355-7.138
		c0-3.043-0.822-5.477-2.464-7.3c-1.643-1.824-3.829-2.736-6.558-2.736c-3.333,0-5.931,1.498-7.79,4.493l-9.456-0.145l5.036-29.528
		H197.884z"/>
</g>
</svg>
