<?xml version="1.0" encoding="utf-8"?>
<!-- Generator: Adobe Illustrator 27.0.0, SVG Export Plug-In . SVG Version: 6.00 Build 0)  -->
<svg version="1.0" id="Ebene_1" xmlns="http://www.w3.org/2000/svg" xmlns:xlink="http://www.w3.org/1999/xlink" x="0px" y="0px"
	 viewBox="0 0 210 71" enable-background="new 0 0 210 71" xml:space="preserve">
<g id="white">
	<rect id="background-white_00000147201839684919677670000006641991587696569237_" fill="#FFFFFF" width="210" height="71"/>
</g>
<g>
	<path d="M53.419,24.719H42.404c-0.217-2.584-1.178-4.559-2.88-5.924c-1.703-1.364-4.089-2.047-7.156-2.047
		c-2.729,0-4.849,0.538-6.358,1.612c-1.51,1.075-2.264,2.579-2.264,4.511c0,1.739,0.725,2.995,2.174,3.768
		c1.4,0.773,4.951,1.86,10.651,3.261c6.015,1.498,10.181,3.007,12.5,4.529c4.274,2.803,6.412,6.703,6.412,11.702
		c0,5.483-2.149,9.807-6.448,12.971c-3.793,2.778-8.926,4.167-15.398,4.167c-7.198,0-12.789-1.643-16.775-4.928
		c-3.985-3.284-6.05-7.958-6.195-14.021h11.521c0.169,2.947,0.93,5.133,2.283,6.559c2.125,2.271,5.325,3.405,9.601,3.405
		c2.898,0,5.193-0.567,6.884-1.703c1.908-1.304,2.862-3.079,2.862-5.325c0-2.247-1.341-3.889-4.021-4.928
		c-1.474-0.58-4.952-1.631-10.435-3.152c-3.43-0.941-6.111-1.835-8.043-2.681c-1.933-0.846-3.478-1.788-4.638-2.826
		c-2.705-2.415-4.058-5.749-4.058-10c0-5.096,2.113-9.13,6.34-12.101c3.6-2.536,8.272-3.804,14.021-3.804
		c5.048,0,9.275,1.002,12.681,3.007C50.568,13.645,53.152,18.294,53.419,24.719z"/>
	<path d="M99.758,52.218V62H62.295V9.031h11.558v43.187H99.758z"/>
	<path d="M141.313,40.95v8.949h-6.666V62h-10.326V49.899h-22.101v-9.928l22.644-30.94h9.783V40.95H141.313z M124.539,41.059V21.35
		l-13.623,19.709H124.539z"/>
	<path d="M180.805,9.031v8.985c-0.29,0.314-1.147,1.292-2.572,2.935c-1.98,2.271-3.949,5.127-5.905,8.569
		c-1.957,3.442-3.479,6.745-4.565,9.909c-2.295,6.594-3.684,14.118-4.166,22.571h-10.942c0.073-3.985,0.767-8.405,2.084-13.26
		c1.315-4.855,3.134-9.71,5.452-14.565c3.309-6.859,6.666-11.968,10.072-15.325h-24.999V9.031H180.805z"/>
</g>
</svg>
