<?xml version="1.0" encoding="utf-8"?>
<!-- Generator: Adobe Illustrator 25.1.0, SVG Export Plug-In . SVG Version: 6.00 Build 0)  -->
<svg version="1.0" id="Ebene_1" xmlns="http://www.w3.org/2000/svg" xmlns:xlink="http://www.w3.org/1999/xlink" x="0px" y="0px"
	 viewBox="0 0 210 71" enable-background="new 0 0 210 71" xml:space="preserve">
<rect id="background-white" fill="#FFFFFF" width="210" height="71"/>
<g id="SL:background-white:99">
	<path id="path991" d="M52.051,24.32H40.958c-0.102-2.341-1.119-4.478-2.951-6.004c-2.137-1.527-4.681-2.239-7.225-2.035
		c-2.239-0.102-4.478,0.407-6.411,1.628c-1.527,1.018-2.341,2.748-2.239,4.58c-0.102,1.628,0.814,3.053,2.239,3.765
		c1.425,0.814,4.987,1.832,10.787,3.257c6.106,1.527,10.278,3.053,12.619,4.58c4.172,2.442,6.615,7.022,6.513,11.805
		c0.204,5.19-2.239,10.075-6.513,13.128c-3.867,2.849-9.057,4.172-15.57,4.172c-7.429,0.102-13.026-1.527-17.097-4.885
		c-4.071-3.358-6.106-8.04-6.31-14.146h11.601c0.204,2.951,0.916,5.19,2.341,6.615c2.137,2.341,5.394,3.46,9.668,3.46
		c2.442,0.102,4.885-0.509,6.92-1.73c1.832-1.119,2.951-3.155,2.849-5.394c0-2.239-1.323-3.969-4.071-4.987
		c-1.527-0.611-4.987-1.628-10.584-3.155c-2.748-0.712-5.495-1.628-8.141-2.748c-1.73-0.712-3.257-1.628-4.681-2.849
		c-2.748-2.442-4.071-5.801-4.071-10.075c-0.102-4.885,2.341-9.566,6.411-12.212c3.664-2.544,8.345-3.867,14.146-3.867
		c4.478-0.204,8.854,0.916,12.823,3.053C49.202,13.126,51.847,17.909,52.051,24.32z"/>
	<path d="M112.195,52.205v9.77h-37.45V8.954h11.601v43.251H112.195z"/>
</g>
<g>
	<path d="M156.617,9.031v9.42h-21.34l-2.282,11.919c2.56-2.705,5.833-4.058,9.818-4.058c3.913,0,7.318,1.051,10.217,3.152
		c4.3,3.165,6.449,7.971,6.449,14.42c0,6.329-2.295,11.341-6.884,15.036c-3.575,2.898-7.85,4.348-12.825,4.348
		c-5.604,0-10.108-1.504-13.514-4.511c-3.406-3.007-5.205-7.07-5.398-12.191h10.397c0.169,1.86,0.773,3.441,1.812,4.746
		c1.618,2.053,3.864,3.079,6.739,3.079c2.777,0,4.976-1.002,6.594-3.007c1.57-1.956,2.355-4.335,2.355-7.138
		c0-3.043-0.822-5.477-2.464-7.3c-1.643-1.824-3.829-2.736-6.558-2.736c-3.333,0-5.931,1.498-7.79,4.493l-9.456-0.145l5.036-29.528
		H156.617z"/>
	<path d="M199.623,22.255h-10.072c-0.941-4.082-3.261-6.123-6.956-6.123c-3.913,0-6.69,2.404-8.333,7.21
		c-0.677,1.956-1.22,4.915-1.63,8.876c1.594-2.15,3.29-3.696,5.09-4.638c1.799-0.942,3.968-1.413,6.504-1.413
		c4.975,0,8.973,1.764,11.992,5.29c2.874,3.333,4.312,7.512,4.312,12.537c0,5.966-1.933,10.76-5.797,14.383
		c-3.479,3.261-7.657,4.892-12.536,4.892c-6.256,0-11.123-2.361-14.601-7.083c-3.479-4.722-5.218-11.31-5.218-19.764
		c0-9.034,1.86-16.111,5.58-21.231c3.599-4.951,8.514-7.427,14.745-7.427c5.87,0,10.362,1.969,13.479,5.905
		C197.969,15.939,199.116,18.801,199.623,22.255z M181.689,34.393c-2.536,0-4.554,1.063-6.051,3.188
		c-1.354,1.884-2.029,4.13-2.029,6.738c0,2.585,0.688,4.844,2.065,6.775c1.497,2.15,3.551,3.225,6.159,3.225
		c2.536,0,4.577-1.026,6.123-3.079c1.449-1.933,2.174-4.215,2.174-6.848c0-2.585-0.652-4.795-1.957-6.631
		C186.58,35.516,184.418,34.393,181.689,34.393z"/>
</g>
</svg>
