<svg xmlns="http://www.w3.org/2000/svg" xml:space="preserve" version="1.0" viewBox="0 0 210 71"><path fill="#FFFFFF" d="M0 0H210V71H0z" class="sbb-vm-color-white"/><path d="M53.419 24.719H42.404c-.217-2.584-1.178-4.559-2.88-5.924-1.703-1.364-4.089-2.047-7.156-2.047-2.729 0-4.849.538-6.358 1.612-1.51 1.075-2.264 2.579-2.264 4.511 0 1.739.725 2.995 2.174 3.768 1.4.773 4.951 1.86 10.651 3.261 6.015 1.498 10.181 3.007 12.5 4.529 4.274 2.803 6.412 6.703 6.412 11.702 0 5.483-2.149 9.807-6.448 12.971-3.793 2.778-8.926 4.167-15.398 4.167-7.198 0-12.789-1.643-16.775-4.928-3.985-3.284-6.05-7.958-6.195-14.021h11.521c.169 2.947.93 5.133 2.283 6.559 2.125 2.271 5.325 3.405 9.601 3.405 2.898 0 5.193-.567 6.884-1.703 1.908-1.304 2.862-3.079 2.862-5.325 0-2.247-1.341-3.889-4.021-4.928-1.474-.58-4.952-1.631-10.435-3.152-3.43-.941-6.111-1.835-8.043-2.681-1.933-.846-3.478-1.788-4.638-2.826-2.705-2.415-4.058-5.749-4.058-10 0-5.096 2.113-9.13 6.34-12.101 3.6-2.536 8.272-3.804 14.021-3.804 5.048 0 9.275 1.002 12.681 3.007C50.568 13.645 53.152 18.294 53.419 24.719zM99.758 52.218V62H62.295V9.031h11.558v43.187H99.758zM139.937 22.255h-10.072c-.941-4.082-3.261-6.123-6.956-6.123-3.913 0-6.69 2.404-8.333 7.21-.677 1.956-1.22 4.915-1.63 8.876 1.594-2.15 3.29-3.696 5.09-4.638 1.799-.942 3.968-1.413 6.504-1.413 4.975 0 8.973 1.764 11.992 5.29 2.874 3.333 4.312 7.512 4.312 12.537 0 5.966-1.933 10.76-5.797 14.383-3.479 3.261-7.657 4.892-12.536 4.892-6.256 0-11.123-2.361-14.601-7.083-3.479-4.722-5.218-11.31-5.218-19.764 0-9.034 1.86-16.111 5.58-21.231 3.599-4.951 8.514-7.427 14.745-7.427 5.87 0 10.362 1.969 13.479 5.905C138.282 15.939 139.43 18.801 139.937 22.255zM122.003 34.393c-2.536 0-4.554 1.063-6.051 3.188-1.354 1.884-2.029 4.13-2.029 6.738 0 2.585.688 4.844 2.065 6.775 1.497 2.15 3.551 3.225 6.159 3.225 2.536 0 4.577-1.026 6.123-3.079 1.449-1.933 2.174-4.215 2.174-6.848 0-2.585-.652-4.795-1.957-6.631C126.894 35.516 124.731 34.393 122.003 34.393zM171.203 9.031V62h-10.579V27.328h-3.768-3.769-3.659-1.268v-7.681c2.584-.072 4.691-.338 6.322-.797 1.63-.458 3.121-1.208 4.475-2.247 1.956-1.497 3.272-4.021 3.949-7.572H171.203z" class="sbb-vm-color-black"/></svg>