<?xml version="1.0" encoding="utf-8"?>
<!-- Generator: Adobe Illustrator 25.1.0, SVG Export Plug-In . SVG Version: 6.00 Build 0)  -->
<svg version="1.0" id="Ebene_1" xmlns="http://www.w3.org/2000/svg" xmlns:xlink="http://www.w3.org/1999/xlink" x="0px" y="0px"
	 viewBox="0 0 210 71" enable-background="new 0 0 210 71" xml:space="preserve">
<rect id="background-white" fill="#FFFFFF" width="210" height="71"/>
<g id="SL:background-white:99">
	<path id="path991" d="M52.051,24.32H40.958c-0.102-2.341-1.119-4.478-2.951-6.004c-2.137-1.527-4.681-2.239-7.225-2.035
		c-2.239-0.102-4.478,0.407-6.411,1.628c-1.527,1.018-2.341,2.748-2.239,4.58c-0.102,1.628,0.814,3.053,2.239,3.765
		c1.425,0.814,4.987,1.832,10.787,3.257c6.106,1.527,10.278,3.053,12.619,4.58c4.172,2.442,6.615,7.022,6.513,11.805
		c0.204,5.19-2.239,10.075-6.513,13.128c-3.867,2.849-9.057,4.172-15.57,4.172c-7.429,0.102-13.026-1.527-17.097-4.885
		c-4.071-3.358-6.106-8.04-6.31-14.146h11.601c0.204,2.951,0.916,5.19,2.341,6.615c2.137,2.341,5.394,3.46,9.668,3.46
		c2.442,0.102,4.885-0.509,6.92-1.73c1.832-1.119,2.951-3.155,2.849-5.394c0-2.239-1.323-3.969-4.071-4.987
		c-1.527-0.611-4.987-1.628-10.584-3.155c-2.748-0.712-5.495-1.628-8.141-2.748c-1.73-0.712-3.257-1.628-4.681-2.849
		c-2.748-2.442-4.071-5.801-4.071-10.075c-0.102-4.885,2.341-9.566,6.411-12.212c3.664-2.544,8.345-3.867,14.146-3.867
		c4.478-0.204,8.854,0.916,12.823,3.053C49.202,13.126,51.847,17.909,52.051,24.32z"/>
	<path d="M112.195,52.205v9.77h-37.45V8.954h11.601v43.251H112.195z"/>
</g>
<g>
	<path d="M130.314,33.559c-2.464-0.845-4.354-2.234-5.67-4.167c-1.317-1.932-1.975-4.275-1.975-7.029
		c0-4.589,1.884-8.248,5.651-10.978c3.333-2.415,7.294-3.623,11.884-3.623c5.217,0,9.479,1.437,12.789,4.311
		c3.14,2.706,4.71,6.051,4.71,10.036c0,2.778-0.664,5.157-1.992,7.137c-1.329,1.981-3.213,3.418-5.652,4.312
		c1.908,0.556,3.466,1.268,4.674,2.138c3.357,2.44,5.036,6.002,5.036,10.688c0,5.387-2.065,9.674-6.195,12.862
		c-3.479,2.681-7.947,4.021-13.405,4.021c-5.918,0-10.628-1.474-14.13-4.42c-3.647-3.067-5.471-7.089-5.471-12.065
		c0-4.661,1.618-8.272,4.854-10.833C126.896,34.815,128.526,34.018,130.314,33.559z M139.987,37.545
		c-2.608,0-4.74,0.803-6.395,2.409s-2.481,3.665-2.481,6.177c0,2.585,0.839,4.687,2.518,6.305s3.858,2.428,6.54,2.428
		c3.043,0,5.326-0.894,6.848-2.682c1.473-1.715,2.21-3.695,2.21-5.941c0-2.561-0.846-4.661-2.536-6.305
		C145.072,38.342,142.838,37.545,139.987,37.545z M140.061,15.987c-2.319,0-4.191,0.646-5.616,1.938
		c-1.426,1.292-2.138,2.989-2.138,5.09c0,2.198,0.719,3.955,2.156,5.271c1.437,1.317,3.363,1.975,5.778,1.975
		s4.323-0.652,5.725-1.957c1.4-1.304,2.102-3.08,2.102-5.326c0-2.198-0.707-3.913-2.12-5.145S142.572,15.987,140.061,15.987z"/>
	<path d="M163.284,48.704h9.999c0.821,4.106,3.2,6.159,7.138,6.159c2.222,0,4.027-0.755,5.417-2.265
		c1.389-1.51,2.457-3.858,3.206-7.047c0.482-2.029,0.833-4.335,1.051-6.92c-1.619,2.271-3.279,3.883-4.981,4.837
		c-1.703,0.954-3.774,1.431-6.214,1.431c-3.89,0-7.271-1.135-10.145-3.405c-2.005-1.595-3.568-3.659-4.692-6.196
		c-1.123-2.536-1.685-5.29-1.685-8.261c0-5.965,2.041-10.797,6.123-14.492c3.502-3.188,7.705-4.782,12.608-4.782
		c3.019,0,5.809,0.676,8.369,2.029c2.56,1.353,4.71,3.273,6.449,5.761c3.067,4.42,4.602,10.628,4.602,18.622
		c0,7.392-1.354,13.695-4.059,18.913c-3.526,6.787-8.864,10.181-16.014,10.181c-4.759,0-8.689-1.316-11.793-3.949
		S163.767,53.148,163.284,48.704z M180.892,16.712c-2.271,0-4.19,0.93-5.761,2.79c-1.57,1.884-2.354,4.275-2.354,7.174
		c0,2.343,0.567,4.42,1.703,6.231c1.545,2.488,3.719,3.732,6.521,3.732c2.536,0,4.564-1.015,6.086-3.043
		c1.426-1.908,2.138-4.178,2.138-6.811c0-2.777-0.736-5.132-2.21-7.065C185.469,17.714,183.428,16.712,180.892,16.712z"/>
</g>
</svg>
