<svg xmlns="http://www.w3.org/2000/svg" xml:space="preserve" version="1.0" viewBox="0 0 210 71"><path fill="#FFFFFF" d="M0 0H210V71H0z" class="sbb-vm-color-white"/><path d="M53.419 24.719H42.404c-.217-2.584-1.178-4.559-2.88-5.924-1.703-1.364-4.089-2.047-7.156-2.047-2.729 0-4.849.538-6.358 1.612-1.51 1.075-2.264 2.579-2.264 4.511 0 1.739.725 2.995 2.174 3.768 1.4.773 4.951 1.86 10.651 3.261 6.015 1.498 10.181 3.007 12.5 4.529 4.274 2.803 6.412 6.703 6.412 11.702 0 5.483-2.149 9.807-6.448 12.971-3.793 2.778-8.926 4.167-15.398 4.167-7.198 0-12.789-1.643-16.775-4.928-3.985-3.284-6.05-7.958-6.195-14.021h11.521c.169 2.947.93 5.133 2.283 6.559 2.125 2.271 5.325 3.405 9.601 3.405 2.898 0 5.193-.567 6.884-1.703 1.908-1.304 2.862-3.079 2.862-5.325 0-2.247-1.341-3.889-4.021-4.928-1.474-.58-4.952-1.631-10.435-3.152-3.43-.941-6.111-1.835-8.043-2.681-1.933-.846-3.478-1.788-4.638-2.826-2.705-2.415-4.058-5.749-4.058-10 0-5.096 2.113-9.13 6.34-12.101 3.6-2.536 8.272-3.804 14.021-3.804 5.048 0 9.275 1.002 12.681 3.007C50.568 13.645 53.152 18.294 53.419 24.719zM99.758 52.218V62H62.295V9.031h11.558v43.187H99.758zM103.598 48.704h9.999c.821 4.106 3.2 6.159 7.138 6.159 2.222 0 4.027-.755 5.417-2.265 1.389-1.51 2.457-3.858 3.206-7.047.482-2.029.833-4.335 1.051-6.92-1.619 2.271-3.279 3.883-4.981 4.837-1.703.954-3.774 1.431-6.214 1.431-3.89 0-7.271-1.135-10.145-3.405-2.005-1.595-3.568-3.659-4.692-6.196-1.123-2.536-1.685-5.29-1.685-8.261 0-5.965 2.041-10.797 6.123-14.492 3.502-3.188 7.705-4.782 12.608-4.782 3.019 0 5.809.676 8.369 2.029 2.56 1.353 4.71 3.273 6.449 5.761 3.067 4.42 4.602 10.628 4.602 18.622 0 7.392-1.354 13.695-4.059 18.913-3.526 6.787-8.864 10.181-16.014 10.181-4.759 0-8.689-1.316-11.793-3.949S104.08 53.148 103.598 48.704zM121.205 16.712c-2.271 0-4.19.93-5.761 2.79-1.57 1.884-2.354 4.275-2.354 7.174 0 2.343.567 4.42 1.703 6.231 1.545 2.488 3.719 3.732 6.521 3.732 2.536 0 4.564-1.015 6.086-3.043 1.426-1.908 2.138-4.178 2.138-6.811 0-2.777-.736-5.132-2.21-7.065C125.782 17.714 123.741 16.712 121.205 16.712zM180.805 9.031v8.985c-.29.314-1.147 1.292-2.572 2.935-1.98 2.271-3.949 5.127-5.905 8.569-1.957 3.442-3.479 6.745-4.565 9.909-2.295 6.594-3.684 14.118-4.166 22.571h-10.942c.073-3.985.767-8.405 2.084-13.26 1.315-4.855 3.134-9.71 5.452-14.565 3.309-6.859 6.666-11.968 10.072-15.325h-24.999V9.031H180.805z" class="sbb-vm-color-black"/></svg>