<?xml version="1.0" encoding="utf-8"?>
<!-- Generator: Adobe Illustrator 25.1.0, SVG Export Plug-In . SVG Version: 6.00 Build 0)  -->
<svg version="1.0" id="Ebene_1" xmlns="http://www.w3.org/2000/svg" xmlns:xlink="http://www.w3.org/1999/xlink" x="0px" y="0px"
	 viewBox="0 0 210 71" enable-background="new 0 0 210 71" xml:space="preserve">
<rect id="background-black" width="210" height="71"/>
<g id="SN:background-black:99">
	<path id="path427" fill="#E5E200" d="M53.816,24.807H42.239c-0.106-2.313-1.168-4.424-3.08-5.932
		c-2.23-1.508-4.886-2.212-7.541-2.011c-2.337-0.101-4.673,0.402-6.691,1.609c-1.593,1.005-2.443,2.715-2.337,4.524
		c-0.106,1.609,0.85,3.016,2.337,3.72c1.487,0.804,5.204,1.81,11.258,3.217c6.373,1.508,10.727,3.016,13.17,4.524
		c4.355,2.413,6.904,6.938,6.797,11.663c0.212,5.128-2.337,9.954-6.797,12.97c-4.036,2.815-9.453,4.122-16.25,4.122
		c-7.541,0-13.489-1.609-17.631-4.927c-4.248-3.318-6.373-7.943-6.479-13.976h12.108c0.212,2.916,0.956,5.128,2.443,6.535
		c2.23,2.313,5.629,3.419,10.09,3.419c2.549,0.101,5.098-0.503,7.222-1.709c1.912-1.106,3.08-3.117,2.974-5.329
		c0-2.212-1.381-3.921-4.248-4.927c-1.593-0.603-5.204-1.609-11.046-3.117c-2.868-0.704-5.735-1.609-8.497-2.715
		c-1.806-0.704-3.399-1.609-4.886-2.815c-2.868-2.413-4.248-5.731-4.248-9.954c-0.106-4.826,2.443-9.451,6.691-12.065
		c3.824-2.514,8.709-3.821,14.763-3.821c4.673-0.201,9.24,0.905,13.382,3.016C50.842,13.747,53.603,18.372,53.816,24.807z"/>
	<path id="path429" fill="#E5E200" d="M110.319,9.122v52.886H98.105L74.739,26.013l0.106,35.995H63.162V9.122h12.426l23.153,35.894
		L98.636,9.122H110.319z"/>
</g>
<g>
	<path fill="#E5E200" d="M159.263,52.58V62h-38.15c0-2.874,0.464-5.615,1.395-8.224c0.93-2.609,2.24-4.855,3.931-6.739
		c1.305-1.449,2.831-2.862,4.583-4.239c1.751-1.377,5.235-3.9,10.453-7.572c2.535-1.763,4.311-3.406,5.325-4.927
		s1.521-3.285,1.521-5.29c0-2.319-0.683-4.197-2.047-5.634s-3.158-2.156-5.38-2.156c-5.459,0-8.273,3.925-8.441,11.775h-10.181
		c0-0.507,0-0.894,0-1.16c0-6.424,1.799-11.4,5.398-14.927c3.501-3.429,8.03-5.145,13.586-5.145c4.927,0,9.045,1.401,12.354,4.203
		c3.599,3.043,5.398,7.137,5.398,12.282c0,4.492-1.438,8.357-4.312,11.594c-0.942,1.063-1.824,1.915-2.645,2.555
		c-0.821,0.64-2.983,2.18-6.485,4.619c-3.333,2.318-5.719,4.094-7.155,5.326c-1.438,1.231-2.772,2.645-4.004,4.238H159.263z"/>
	<path fill="#E5E200" d="M163.501,25.806c0.121-4.348,1.196-7.994,3.225-10.941c3.285-4.734,8.225-7.101,14.818-7.101
		c5.072,0,9.166,1.292,12.282,3.876c3.357,2.802,5.036,6.425,5.036,10.869c0,2.657-0.658,4.945-1.975,6.866
		s-3.098,3.219-5.344,3.895c2.85,0.652,5.103,2.102,6.757,4.348c1.654,2.246,2.481,4.964,2.481,8.151
		c0,5.242-1.933,9.529-5.797,12.862c-3.574,3.092-8.092,4.638-13.55,4.638c-5.918,0-10.61-1.703-14.075-5.108
		c-3.467-3.406-5.199-8.007-5.199-13.804c0-0.121,0-0.351,0-0.688h10.181c0,3.261,0.772,5.778,2.318,7.554s3.732,2.663,6.558,2.663
		c2.826,0,5-0.833,6.521-2.5c1.4-1.57,2.102-3.442,2.102-5.616c0-2.608-0.894-4.673-2.681-6.195
		c-1.474-1.255-3.744-1.884-6.812-1.884c-0.87,0-1.728,0.049-2.572,0.146v-7.79c0.628,0.048,1.231,0.072,1.812,0.072
		c6.087,0,9.13-2.258,9.13-6.775c0-1.98-0.665-3.581-1.993-4.801c-1.328-1.219-3.079-1.83-5.253-1.83
		c-2.488,0-4.408,0.773-5.761,2.319c-1.353,1.546-2.077,3.804-2.174,6.775H163.501z"/>
</g>
</svg>
