<?xml version="1.0" encoding="utf-8"?>
<svg version="1.0" xmlns="http://www.w3.org/2000/svg" xmlns:xlink="http://www.w3.org/1999/xlink" x="0px" y="0px" viewBox="0 0 210 71" enable-background="new 0 0 210 71" xml:space="preserve">
<g>
	<rect width="210" height="71" class="sbb-vm-color-black"></rect>
</g>
<g>
	<path fill="#FFDE15" d="M53.419,24.719H42.404c-0.217-2.584-1.178-4.559-2.88-5.924c-1.703-1.364-4.089-2.047-7.156-2.047
		c-2.729,0-4.849,0.538-6.358,1.612c-1.51,1.075-2.264,2.579-2.264,4.511c0,1.739,0.725,2.995,2.174,3.768
		c1.4,0.773,4.951,1.86,10.651,3.261c6.015,1.498,10.181,3.007,12.5,4.529c4.274,2.803,6.412,6.703,6.412,11.702
		c0,5.483-2.149,9.807-6.448,12.971c-3.793,2.778-8.926,4.167-15.398,4.167c-7.198,0-12.789-1.643-16.775-4.928
		c-3.985-3.284-6.05-7.958-6.195-14.021h11.521c0.169,2.947,0.93,5.133,2.283,6.559c2.125,2.271,5.325,3.405,9.601,3.405
		c2.898,0,5.193-0.567,6.884-1.703c1.908-1.304,2.862-3.079,2.862-5.325c0-2.247-1.341-3.889-4.021-4.928
		c-1.474-0.58-4.952-1.631-10.435-3.152c-3.43-0.941-6.111-1.835-8.043-2.681c-1.933-0.846-3.478-1.788-4.638-2.826
		c-2.705-2.415-4.058-5.749-4.058-10c0-5.096,2.113-9.13,6.34-12.101c3.6-2.536,8.272-3.804,14.021-3.804
		c5.048,0,9.275,1.002,12.681,3.007C50.568,13.645,53.152,18.294,53.419,24.719z" class="sbb-vm-color-lemon"></path>
	<path fill="#FFDE15" d="M107.04,9.031V62H95.41L73.236,25.915L73.382,62H62.259V9.031h11.775l22.027,36.013L95.917,9.031H107.04z" class="sbb-vm-color-lemon"></path>
	<path fill="#FFDE15" d="M152.328,40.95v8.949h-6.666V62h-10.326V49.899h-22.101v-9.928l22.644-30.94h9.783V40.95H152.328z
		 M135.554,41.059V21.35l-13.623,19.709H135.554z" class="sbb-vm-color-lemon"></path>
	<path fill="#FFDE15" d="M190.479,9.031v9.42h-21.34l-2.282,11.919c2.56-2.705,5.833-4.058,9.818-4.058
		c3.913,0,7.318,1.051,10.217,3.152c4.3,3.165,6.449,7.971,6.449,14.42c0,6.329-2.295,11.341-6.884,15.036
		c-3.575,2.898-7.85,4.348-12.825,4.348c-5.604,0-10.108-1.504-13.515-4.511c-3.405-3.007-5.205-7.07-5.397-12.191h10.397
		c0.169,1.86,0.773,3.441,1.812,4.746c1.618,2.053,3.864,3.079,6.739,3.079c2.777,0,4.976-1.002,6.594-3.007
		c1.57-1.956,2.355-4.335,2.355-7.138c0-3.043-0.822-5.477-2.464-7.3c-1.643-1.824-3.829-2.736-6.558-2.736
		c-3.333,0-5.931,1.498-7.79,4.493l-9.456-0.145l5.036-29.528H190.479z" class="sbb-vm-color-lemon"></path>
</g>
</svg>