<?xml version="1.0" encoding="utf-8"?>
<!-- Generator: Adobe Illustrator 25.1.0, SVG Export Plug-In . SVG Version: 6.00 Build 0)  -->
<svg version="1.0" id="Ebene_1" xmlns="http://www.w3.org/2000/svg" xmlns:xlink="http://www.w3.org/1999/xlink" x="0px" y="0px"
	 viewBox="0 0 210 71" enable-background="new 0 0 210 71" xml:space="preserve">
<rect id="background-black" width="210" height="71"/>
<g id="SN:background-black:99">
	<path id="path427" fill="#E5E200" d="M53.816,24.807H42.239c-0.106-2.313-1.168-4.424-3.08-5.932
		c-2.23-1.508-4.886-2.212-7.541-2.011c-2.337-0.101-4.673,0.402-6.691,1.609c-1.593,1.005-2.443,2.715-2.337,4.524
		c-0.106,1.609,0.85,3.016,2.337,3.72c1.487,0.804,5.204,1.81,11.258,3.217c6.373,1.508,10.727,3.016,13.17,4.524
		c4.355,2.413,6.904,6.938,6.797,11.663c0.212,5.128-2.337,9.954-6.797,12.97c-4.036,2.815-9.453,4.122-16.25,4.122
		c-7.541,0-13.489-1.609-17.631-4.927c-4.248-3.318-6.373-7.943-6.479-13.976h12.108c0.212,2.916,0.956,5.128,2.443,6.535
		c2.23,2.313,5.629,3.419,10.09,3.419c2.549,0.101,5.098-0.503,7.222-1.709c1.912-1.106,3.08-3.117,2.974-5.329
		c0-2.212-1.381-3.921-4.248-4.927c-1.593-0.603-5.204-1.609-11.046-3.117c-2.868-0.704-5.735-1.609-8.497-2.715
		c-1.806-0.704-3.399-1.609-4.886-2.815c-2.868-2.413-4.248-5.731-4.248-9.954c-0.106-4.826,2.443-9.451,6.691-12.065
		c3.824-2.514,8.709-3.821,14.763-3.821c4.673-0.201,9.24,0.905,13.382,3.016C50.842,13.747,53.603,18.372,53.816,24.807z"/>
	<path id="path429" fill="#E5E200" d="M110.319,9.122v52.886H98.105L74.739,26.013l0.106,35.995H63.162V9.122h12.426l23.153,35.894
		L98.636,9.122H110.319z"/>
</g>
<g>
	<path fill="#E5E200" d="M159.733,40.95v8.949h-6.666V62h-10.326V49.899h-22.101v-9.928l22.644-30.94h9.783V40.95H159.733z
		 M142.959,41.059V21.35l-13.623,19.709H142.959z"/>
	<path fill="#E5E200" d="M199.225,9.031v8.985c-0.29,0.314-1.147,1.292-2.572,2.935c-1.98,2.271-3.949,5.127-5.905,8.569
		c-1.957,3.442-3.479,6.745-4.565,9.909c-2.295,6.594-3.684,14.118-4.166,22.571h-10.942c0.073-3.985,0.767-8.405,2.084-13.26
		c1.315-4.855,3.134-9.71,5.452-14.565c3.309-6.859,6.666-11.968,10.072-15.325h-24.999V9.031H199.225z"/>
</g>
</svg>
