<svg xmlns="http://www.w3.org/2000/svg" xml:space="preserve" version="1.0" viewBox="0 0 210 71"><path d="M0 0H210V71H0z" class="sbb-vm-color-black"/><path fill="#FFDE15" d="M53.419 24.719H42.404c-.217-2.584-1.178-4.559-2.88-5.924-1.703-1.364-4.089-2.047-7.156-2.047-2.729 0-4.849.538-6.358 1.612-1.51 1.075-2.264 2.579-2.264 4.511 0 1.739.725 2.995 2.174 3.768 1.4.773 4.951 1.86 10.651 3.261 6.015 1.498 10.181 3.007 12.5 4.529 4.274 2.803 6.412 6.703 6.412 11.702 0 5.483-2.149 9.807-6.448 12.971-3.793 2.778-8.926 4.167-15.398 4.167-7.198 0-12.789-1.643-16.775-4.928-3.985-3.284-6.05-7.958-6.195-14.021h11.521c.169 2.947.93 5.133 2.283 6.559 2.125 2.271 5.325 3.405 9.601 3.405 2.898 0 5.193-.567 6.884-1.703 1.908-1.304 2.862-3.079 2.862-5.325 0-2.247-1.341-3.889-4.021-4.928-1.474-.58-4.952-1.631-10.435-3.152-3.43-.941-6.111-1.835-8.043-2.681-1.933-.846-3.478-1.788-4.638-2.826-2.705-2.415-4.058-5.749-4.058-10 0-5.096 2.113-9.13 6.34-12.101 3.6-2.536 8.272-3.804 14.021-3.804 5.048 0 9.275 1.002 12.681 3.007C50.568 13.645 53.152 18.294 53.419 24.719zM107.04 9.031V62H95.41L73.236 25.915 73.382 62H62.259V9.031h11.775l22.027 36.013L95.917 9.031H107.04zM149.212 9.031v9.42h-21.34l-2.282 11.919c2.56-2.705 5.833-4.058 9.818-4.058 3.913 0 7.318 1.051 10.217 3.152 4.3 3.165 6.449 7.971 6.449 14.42 0 6.329-2.295 11.341-6.884 15.036-3.575 2.898-7.85 4.348-12.825 4.348-5.604 0-10.108-1.504-13.515-4.511-3.405-3.007-5.205-7.07-5.397-12.191h10.397c.169 1.86.773 3.441 1.812 4.746 1.618 2.053 3.864 3.079 6.739 3.079 2.777 0 4.976-1.002 6.594-3.007 1.57-1.956 2.355-4.335 2.355-7.138 0-3.043-.822-5.477-2.464-7.3-1.643-1.824-3.829-2.736-6.558-2.736-3.333 0-5.931 1.498-7.79 4.493l-9.456-.145 5.036-29.528H149.212zM191.819 9.031v8.985c-.29.314-1.147 1.292-2.572 2.935-1.98 2.271-3.949 5.127-5.905 8.569-1.957 3.442-3.479 6.745-4.565 9.909-2.295 6.594-3.684 14.118-4.166 22.571h-10.942c.073-3.985.767-8.405 2.084-13.26 1.315-4.855 3.134-9.71 5.452-14.565 3.309-6.859 6.666-11.968 10.072-15.325h-24.999V9.031H191.819z" class="sbb-vm-color-lemon sbb-vm-color-black"/></svg>