<?xml version="1.0" encoding="utf-8"?>
<!-- Generator: Adobe Illustrator 25.1.0, SVG Export Plug-In . SVG Version: 6.00 Build 0)  -->
<svg version="1.0" id="Ebene_1" xmlns="http://www.w3.org/2000/svg" xmlns:xlink="http://www.w3.org/1999/xlink" x="0px" y="0px"
	 viewBox="0 0 210 71" enable-background="new 0 0 210 71" xml:space="preserve">
<rect id="background-black" width="210" height="71"/>
<g id="SN:background-black:99">
	<path id="path427" fill="#E5E200" d="M53.816,24.807H42.239c-0.106-2.313-1.168-4.424-3.08-5.932
		c-2.23-1.508-4.886-2.212-7.541-2.011c-2.337-0.101-4.673,0.402-6.691,1.609c-1.593,1.005-2.443,2.715-2.337,4.524
		c-0.106,1.609,0.85,3.016,2.337,3.72c1.487,0.804,5.204,1.81,11.258,3.217c6.373,1.508,10.727,3.016,13.17,4.524
		c4.355,2.413,6.904,6.938,6.797,11.663c0.212,5.128-2.337,9.954-6.797,12.97c-4.036,2.815-9.453,4.122-16.25,4.122
		c-7.541,0-13.489-1.609-17.631-4.927c-4.248-3.318-6.373-7.943-6.479-13.976h12.108c0.212,2.916,0.956,5.128,2.443,6.535
		c2.23,2.313,5.629,3.419,10.09,3.419c2.549,0.101,5.098-0.503,7.222-1.709c1.912-1.106,3.08-3.117,2.974-5.329
		c0-2.212-1.381-3.921-4.248-4.927c-1.593-0.603-5.204-1.609-11.046-3.117c-2.868-0.704-5.735-1.609-8.497-2.715
		c-1.806-0.704-3.399-1.609-4.886-2.815c-2.868-2.413-4.248-5.731-4.248-9.954c-0.106-4.826,2.443-9.451,6.691-12.065
		c3.824-2.514,8.709-3.821,14.763-3.821c4.673-0.201,9.24,0.905,13.382,3.016C50.842,13.747,53.603,18.372,53.816,24.807z"/>
	<path id="path429" fill="#E5E200" d="M110.319,9.122v52.886H98.105L74.739,26.013l0.106,35.995H63.162V9.122h12.426l23.153,35.894
		L98.636,9.122H110.319z"/>
</g>
<g>
	<path fill="#E5E200" d="M156.617,9.031v9.42h-21.34l-2.282,11.919c2.56-2.705,5.833-4.058,9.818-4.058
		c3.913,0,7.318,1.051,10.217,3.152c4.3,3.165,6.449,7.971,6.449,14.42c0,6.329-2.295,11.341-6.884,15.036
		c-3.575,2.898-7.85,4.348-12.825,4.348c-5.604,0-10.108-1.504-13.514-4.511c-3.406-3.007-5.205-7.07-5.398-12.191h10.397
		c0.169,1.86,0.773,3.441,1.812,4.746c1.618,2.053,3.864,3.079,6.739,3.079c2.777,0,4.976-1.002,6.594-3.007
		c1.57-1.956,2.355-4.335,2.355-7.138c0-3.043-0.822-5.477-2.464-7.3c-1.643-1.824-3.829-2.736-6.558-2.736
		c-3.333,0-5.931,1.498-7.79,4.493l-9.456-0.145l5.036-29.528H156.617z"/>
	<path fill="#E5E200" d="M163.284,48.704h9.999c0.821,4.106,3.2,6.159,7.138,6.159c2.222,0,4.027-0.755,5.417-2.265
		c1.389-1.51,2.457-3.858,3.206-7.047c0.482-2.029,0.833-4.335,1.051-6.92c-1.619,2.271-3.279,3.883-4.981,4.837
		c-1.703,0.954-3.774,1.431-6.214,1.431c-3.89,0-7.271-1.135-10.145-3.405c-2.005-1.595-3.568-3.659-4.692-6.196
		c-1.123-2.536-1.685-5.29-1.685-8.261c0-5.965,2.041-10.797,6.123-14.492c3.502-3.188,7.705-4.782,12.608-4.782
		c3.019,0,5.809,0.676,8.369,2.029c2.56,1.353,4.71,3.273,6.449,5.761c3.067,4.42,4.602,10.628,4.602,18.622
		c0,7.392-1.354,13.695-4.059,18.913c-3.526,6.787-8.864,10.181-16.014,10.181c-4.759,0-8.689-1.316-11.793-3.949
		S163.767,53.148,163.284,48.704z M180.892,16.712c-2.271,0-4.19,0.93-5.761,2.79c-1.57,1.884-2.354,4.275-2.354,7.174
		c0,2.343,0.567,4.42,1.703,6.231c1.545,2.488,3.719,3.732,6.521,3.732c2.536,0,4.564-1.015,6.086-3.043
		c1.426-1.908,2.138-4.178,2.138-6.811c0-2.777-0.736-5.132-2.21-7.065C185.469,17.714,183.428,16.712,180.892,16.712z"/>
</g>
</svg>
