<?xml version="1.0" encoding="utf-8"?>
<!-- Generator: Adobe Illustrator 25.1.0, SVG Export Plug-In . SVG Version: 6.00 Build 0)  -->
<svg version="1.0" id="Ebene_1" xmlns="http://www.w3.org/2000/svg" xmlns:xlink="http://www.w3.org/1999/xlink" x="0px" y="0px"
	 viewBox="0 0 210 71" enable-background="new 0 0 210 71" xml:space="preserve">
<rect id="background-black" width="210" height="71"/>
<g id="SN:background-black:99">
	<path id="path427" fill="#E5E200" d="M53.816,24.807H42.239c-0.106-2.313-1.168-4.424-3.08-5.932
		c-2.23-1.508-4.886-2.212-7.541-2.011c-2.337-0.101-4.673,0.402-6.691,1.609c-1.593,1.005-2.443,2.715-2.337,4.524
		c-0.106,1.609,0.85,3.016,2.337,3.72c1.487,0.804,5.204,1.81,11.258,3.217c6.373,1.508,10.727,3.016,13.17,4.524
		c4.355,2.413,6.904,6.938,6.797,11.663c0.212,5.128-2.337,9.954-6.797,12.97c-4.036,2.815-9.453,4.122-16.25,4.122
		c-7.541,0-13.489-1.609-17.631-4.927c-4.248-3.318-6.373-7.943-6.479-13.976h12.108c0.212,2.916,0.956,5.128,2.443,6.535
		c2.23,2.313,5.629,3.419,10.09,3.419c2.549,0.101,5.098-0.503,7.222-1.709c1.912-1.106,3.08-3.117,2.974-5.329
		c0-2.212-1.381-3.921-4.248-4.927c-1.593-0.603-5.204-1.609-11.046-3.117c-2.868-0.704-5.735-1.609-8.497-2.715
		c-1.806-0.704-3.399-1.609-4.886-2.815c-2.868-2.413-4.248-5.731-4.248-9.954c-0.106-4.826,2.443-9.451,6.691-12.065
		c3.824-2.514,8.709-3.821,14.763-3.821c4.673-0.201,9.24,0.905,13.382,3.016C50.842,13.747,53.603,18.372,53.816,24.807z"/>
	<path id="path429" fill="#E5E200" d="M110.319,9.122v52.886H98.105L74.739,26.013l0.106,35.995H63.162V9.122h12.426l23.153,35.894
		L98.636,9.122H110.319z"/>
</g>
<g>
	<path fill="#E5E200" d="M122.018,48.704h9.999c0.821,4.106,3.2,6.159,7.138,6.159c2.222,0,4.027-0.755,5.417-2.265
		c1.389-1.51,2.457-3.858,3.206-7.047c0.482-2.029,0.833-4.335,1.051-6.92c-1.619,2.271-3.279,3.883-4.981,4.837
		c-1.703,0.954-3.774,1.431-6.214,1.431c-3.89,0-7.271-1.135-10.145-3.405c-2.005-1.595-3.568-3.659-4.691-6.196
		c-1.123-2.536-1.685-5.29-1.685-8.261c0-5.965,2.04-10.797,6.122-14.492c3.502-3.188,7.705-4.782,12.608-4.782
		c3.019,0,5.809,0.676,8.369,2.029c2.56,1.353,4.71,3.273,6.449,5.761c3.067,4.42,4.602,10.628,4.602,18.622
		c0,7.392-1.354,13.695-4.059,18.913c-3.526,6.787-8.864,10.181-16.014,10.181c-4.759,0-8.689-1.316-11.793-3.949
		S122.501,53.148,122.018,48.704z M139.625,16.712c-2.271,0-4.19,0.93-5.761,2.79c-1.57,1.884-2.354,4.275-2.354,7.174
		c0,2.343,0.567,4.42,1.703,6.231c1.545,2.488,3.719,3.732,6.521,3.732c2.536,0,4.564-1.015,6.086-3.043
		c1.426-1.908,2.138-4.178,2.138-6.811c0-2.777-0.736-5.132-2.21-7.065C144.202,17.714,142.161,16.712,139.625,16.712z"/>
	<path fill="#E5E200" d="M181.689,7.763c4.033,0,7.584,1.231,10.651,3.695c3.043,2.464,5.253,6.256,6.63,11.376
		c1.038,3.913,1.559,8.164,1.559,12.753c0,7.608-1.354,13.864-4.059,18.768c-1.594,2.851-3.677,5.049-6.249,6.594
		c-2.572,1.546-5.441,2.319-8.605,2.319c-4.323,0-8.019-1.305-11.086-3.913c-5.459-4.638-8.188-12.56-8.188-23.768
		c0-7.971,1.425-14.371,4.275-19.202c1.618-2.753,3.737-4.878,6.358-6.376C175.596,8.512,178.501,7.763,181.689,7.763z
		 M181.291,16.712c-3.479,0-5.846,2.005-7.102,6.014c-0.991,3.188-1.485,7.657-1.485,13.406c0,5.072,0.507,9.143,1.521,12.21
		c1.305,3.985,3.72,5.978,7.246,5.978c2.922,0,5.096-1.545,6.521-4.638c1.425-3.091,2.138-7.813,2.138-14.166
		c0-5.41-0.508-9.674-1.521-12.79C187.305,18.717,184.865,16.712,181.291,16.712z"/>
</g>
</svg>
