<?xml version="1.0" encoding="utf-8"?>
<svg version="1.0" xmlns="http://www.w3.org/2000/svg" xmlns:xlink="http://www.w3.org/1999/xlink" x="0px" y="0px" viewBox="0 0 210 71" enable-background="new 0 0 210 71" xml:space="preserve">
<g>
	<rect width="210" height="71" class="sbb-vm-color-black"></rect>
</g>
<g>
	<path fill="#FFDE15" d="M53.419,24.719H42.404c-0.217-2.584-1.178-4.559-2.88-5.924c-1.703-1.364-4.089-2.047-7.156-2.047
		c-2.729,0-4.849,0.538-6.358,1.612c-1.51,1.075-2.264,2.579-2.264,4.511c0,1.739,0.725,2.995,2.174,3.768
		c1.4,0.773,4.951,1.86,10.651,3.261c6.015,1.498,10.181,3.007,12.5,4.529c4.274,2.803,6.412,6.703,6.412,11.702
		c0,5.483-2.149,9.807-6.448,12.971c-3.793,2.778-8.926,4.167-15.398,4.167c-7.198,0-12.789-1.643-16.775-4.928
		c-3.985-3.284-6.05-7.958-6.195-14.021h11.521c0.169,2.947,0.93,5.133,2.283,6.559c2.125,2.271,5.325,3.405,9.601,3.405
		c2.898,0,5.193-0.567,6.884-1.703c1.908-1.304,2.862-3.079,2.862-5.325c0-2.247-1.341-3.889-4.021-4.928
		c-1.474-0.58-4.952-1.631-10.435-3.152c-3.43-0.941-6.111-1.835-8.043-2.681c-1.933-0.846-3.478-1.788-4.638-2.826
		c-2.705-2.415-4.058-5.749-4.058-10c0-5.096,2.113-9.13,6.34-12.101c3.6-2.536,8.272-3.804,14.021-3.804
		c5.048,0,9.275,1.002,12.681,3.007C50.568,13.645,53.152,18.294,53.419,24.719z" class="sbb-vm-color-lemon"></path>
	<path fill="#FFDE15" d="M107.04,9.031V62H95.41L73.236,25.915L73.382,62H62.259V9.031h11.775l22.027,36.013L95.917,9.031H107.04z" class="sbb-vm-color-lemon"></path>
	<path fill="#FFDE15" d="M114.612,48.704h9.999c0.821,4.106,3.2,6.159,7.138,6.159c2.222,0,4.027-0.755,5.417-2.265
		c1.389-1.51,2.457-3.858,3.206-7.047c0.482-2.029,0.833-4.335,1.051-6.92c-1.619,2.271-3.279,3.883-4.981,4.837
		c-1.703,0.954-3.774,1.431-6.214,1.431c-3.89,0-7.271-1.135-10.145-3.405c-2.005-1.595-3.568-3.659-4.692-6.196
		c-1.123-2.536-1.685-5.29-1.685-8.261c0-5.965,2.041-10.797,6.123-14.492c3.502-3.188,7.705-4.782,12.608-4.782
		c3.019,0,5.809,0.676,8.369,2.029c2.56,1.353,4.71,3.273,6.449,5.761c3.067,4.42,4.602,10.628,4.602,18.622
		c0,7.392-1.354,13.695-4.059,18.913c-3.526,6.787-8.864,10.181-16.014,10.181c-4.759,0-8.689-1.316-11.793-3.949
		S115.095,53.148,114.612,48.704z M132.22,16.712c-2.271,0-4.19,0.93-5.761,2.79c-1.57,1.884-2.354,4.275-2.354,7.174
		c0,2.343,0.567,4.42,1.703,6.231c1.545,2.488,3.719,3.732,6.521,3.732c2.536,0,4.564-1.015,6.086-3.043
		c1.426-1.908,2.138-4.178,2.138-6.811c0-2.777-0.736-5.132-2.21-7.065C136.797,17.714,134.756,16.712,132.22,16.712z" class="sbb-vm-color-lemon"></path>
	<path fill="#FFDE15" d="M182.218,9.031V62h-10.579V27.328h-3.768h-3.769h-3.659h-1.268v-7.681c2.584-0.072,4.691-0.338,6.322-0.797
		c1.63-0.458,3.121-1.208,4.475-2.247c1.956-1.497,3.272-4.021,3.949-7.572H182.218z" class="sbb-vm-color-lemon"></path>
</g>
</svg>