<?xml version="1.0" encoding="utf-8"?>
<!-- Generator: Adobe Illustrator 25.1.0, SVG Export Plug-In . SVG Version: 6.00 Build 0)  -->
<svg version="1.0" id="Ebene_1" xmlns="http://www.w3.org/2000/svg" xmlns:xlink="http://www.w3.org/1999/xlink" x="0px" y="0px"
	 viewBox="0 0 210 71" enable-background="new 0 0 210 71" xml:space="preserve">
<rect id="background-white" fill="#FFFFFF" width="210" height="71"/>
<g id="T:background-white:999">
	<path d="M30.849,12.492C30.658,12.3,30.55,12.04,30.55,11.77c0-0.564,0.457-1.021,1.022-1.021c0.271,0,0.53,0.107,0.722,0.299
		l11.427,11.427h9.088c1.627,0,3.063,1.063,3.538,2.619l5.576,18.265C61.974,43.525,62,43.699,62,43.874v7.969
		c0,0.61-0.494,1.104-1.104,1.104H9.003V39.919h10.71c0.61,0,1.105-0.495,1.105-1.104V25.566c0-0.609-0.495-1.104-1.105-1.104H9.003
		v-1.987h31.829L30.849,12.492L30.849,12.492z M50.959,43.231c0,0.61,0.495,1.104,1.104,1.104h6.531c0.61,0,1.104-0.495,1.104-1.104
		c0-0.109-0.016-0.218-0.048-0.322l-5.341-17.495l0,0c-0.213-0.696-0.856-1.172-1.584-1.172h-0.11c-0.914,0-1.656,0.742-1.656,1.656
		V43.231L50.959,43.231z M45.604,42.9c0,0.914,0.742,1.656,1.656,1.656c0.915,0,1.656-0.742,1.656-1.656V25.897
		c0-0.914-0.742-1.656-1.656-1.656c-0.914,0-1.656,0.742-1.656,1.656V42.9L45.604,42.9z M38.262,25.566
		c0-0.609-0.495-1.104-1.104-1.104H23.909c-0.61,0-1.105,0.495-1.105,1.104v13.249c0,0.609,0.495,1.104,1.105,1.104h13.249
		c0.609,0,1.104-0.495,1.104-1.104V25.566L38.262,25.566z M40.249,25.897V42.9c0,0.914,0.742,1.656,1.656,1.656
		c0.914,0,1.656-0.742,1.656-1.656V25.897c0-0.914-0.742-1.656-1.656-1.656C40.991,24.241,40.249,24.983,40.249,25.897
		L40.249,25.897z"/>
	<path d="M36.527,55.155h11.128c-0.916,2.269-3.117,3.754-5.564,3.754C39.645,58.909,37.443,57.424,36.527,55.155L36.527,55.155z"/>
	<path d="M23.278,55.155L23.278,55.155h11.129c-0.916,2.269-3.118,3.754-5.564,3.754C26.396,58.909,24.194,57.424,23.278,55.155
		L23.278,55.155z"/>
	<polygon points="62,60.013 9,60.013 9,62 62,62 62,60.013 	"/>
	<polygon points="62,9 9,9 9,10.104 62,10.104 62,9 	"/>
</g>
<g>
	<path d="M107.09,9.031V62H96.511V27.328h-3.768h-3.769h-3.659h-1.268v-7.681c2.584-0.072,4.691-0.338,6.322-0.797
		c1.63-0.458,3.121-1.208,4.475-2.247c1.956-1.497,3.272-4.021,3.949-7.572H107.09z"/>
	<path d="M159.263,52.58V62h-38.151c0-2.874,0.465-5.615,1.396-8.224c0.929-2.609,2.239-4.855,3.931-6.739
		c1.305-1.449,2.832-2.862,4.583-4.239s5.235-3.9,10.453-7.572c2.535-1.763,4.311-3.406,5.325-4.927s1.521-3.285,1.521-5.29
		c0-2.319-0.683-4.197-2.047-5.634s-3.158-2.156-5.38-2.156c-5.459,0-8.273,3.925-8.441,11.775h-10.182c0-0.507,0-0.894,0-1.16
		c0-6.424,1.8-11.4,5.398-14.927c3.502-3.429,8.031-5.145,13.587-5.145c4.927,0,9.045,1.401,12.354,4.203
		c3.599,3.043,5.398,7.137,5.398,12.282c0,4.492-1.438,8.357-4.312,11.594c-0.942,1.063-1.824,1.915-2.645,2.555
		c-0.821,0.64-2.983,2.18-6.485,4.619c-3.333,2.318-5.719,4.094-7.155,5.326c-1.438,1.231-2.772,2.645-4.004,4.238H159.263z"/>
	<path d="M200.529,52.58V62h-38.151c0-2.874,0.465-5.615,1.396-8.224c0.929-2.609,2.239-4.855,3.931-6.739
		c1.305-1.449,2.832-2.862,4.583-4.239s5.235-3.9,10.453-7.572c2.535-1.763,4.311-3.406,5.325-4.927s1.521-3.285,1.521-5.29
		c0-2.319-0.683-4.197-2.047-5.634s-3.158-2.156-5.38-2.156c-5.459,0-8.273,3.925-8.441,11.775h-10.182c0-0.507,0-0.894,0-1.16
		c0-6.424,1.8-11.4,5.398-14.927c3.502-3.429,8.031-5.145,13.587-5.145c4.927,0,9.045,1.401,12.354,4.203
		c3.599,3.043,5.398,7.137,5.398,12.282c0,4.492-1.438,8.357-4.312,11.594c-0.942,1.063-1.824,1.915-2.645,2.555
		c-0.821,0.64-2.983,2.18-6.485,4.619c-3.333,2.318-5.719,4.094-7.155,5.326c-1.438,1.231-2.772,2.645-4.004,4.238H200.529z"/>
</g>
</svg>
