<?xml version="1.0" encoding="utf-8"?>
<svg version="1.0" xmlns="http://www.w3.org/2000/svg" xmlns:xlink="http://www.w3.org/1999/xlink" x="0px" y="0px" viewBox="0 0 210 71" enable-background="new 0 0 210 71" xml:space="preserve">
<g>
	<rect fill="#FFFFFF" width="210" height="71" class="sbb-vm-color-white"></rect>
	<path d="M60.35,7.1c1.953,0,3.55,1.598,3.55,3.55v49.7c0,1.953-1.597,3.55-3.55,3.55h-49.7c-1.952,0-3.55-1.597-3.55-3.55v-49.7
		c0-1.952,1.598-3.55,3.55-3.55H60.35 M60.35,6.213h-49.7c-2.447,0-4.437,1.991-4.437,4.437v49.7c0,2.447,1.991,4.438,4.437,4.438
		h49.7c2.447,0,4.438-1.991,4.438-4.438v-49.7C64.787,8.203,62.797,6.213,60.35,6.213L60.35,6.213z" class="sbb-vm-color-black"></path>
	<path d="M31.762,17.007c-0.154-0.154-0.24-0.363-0.24-0.58c0-0.453,0.367-0.821,0.821-0.821c0.218,0,0.426,0.086,0.58,0.24
		l9.185,9.185h7.304c1.307,0,2.462,0.854,2.844,2.105l4.482,14.681c0.041,0.134,0.062,0.274,0.062,0.414v6.405
		c0,0.49-0.397,0.888-0.888,0.888H14.203V39.052h8.608c0.49,0,0.888-0.397,0.888-0.887V27.515c0-0.49-0.397-0.888-0.888-0.888
		h-8.608V25.03h25.583L31.762,17.007L31.762,17.007z M47.926,41.714c0,0.49,0.397,0.888,0.887,0.888h5.25
		c0.49,0,0.888-0.398,0.888-0.888c0-0.088-0.013-0.175-0.039-0.259l-4.293-14.062l0,0c-0.171-0.56-0.688-0.942-1.273-0.942h-0.088
		c-0.735,0-1.331,0.596-1.331,1.331V41.714L47.926,41.714z M43.622,41.448c0,0.735,0.596,1.331,1.331,1.331
		c0.735,0,1.331-0.597,1.331-1.331V27.782c0-0.735-0.596-1.331-1.331-1.331c-0.735,0-1.331,0.596-1.331,1.331V41.448L43.622,41.448z
		 M37.72,27.515c0-0.49-0.397-0.888-0.887-0.888H26.184c-0.49,0-0.888,0.398-0.888,0.888v10.649c0,0.49,0.397,0.887,0.888,0.887
		h10.649c0.49,0,0.887-0.397,0.887-0.887V27.515L37.72,27.515z M39.317,27.782v13.666c0,0.735,0.597,1.331,1.331,1.331
		c0.735,0,1.331-0.597,1.331-1.331V27.782c0-0.735-0.596-1.331-1.331-1.331C39.914,26.45,39.317,27.047,39.317,27.782L39.317,27.782
		z" class="sbb-vm-color-black"></path>
	<path d="M36.326,51.298h8.945c-0.737,1.823-2.506,3.017-4.472,3.017C38.831,54.316,37.062,53.122,36.326,51.298L36.326,51.298z" class="sbb-vm-color-black"></path>
	<path d="M25.676,51.298L25.676,51.298h8.945c-0.736,1.823-2.506,3.017-4.472,3.017C28.182,54.316,26.413,53.122,25.676,51.298
		L25.676,51.298z" class="sbb-vm-color-black"></path>
	<polygon points="56.8,55.202 14.2,55.202 14.2,56.8 56.8,56.8 56.8,55.202 	"></polygon>
	<polygon points="56.8,14.2 14.2,14.2 14.2,15.087 56.8,15.087 56.8,14.2 	"></polygon>
</g>
<g>
	<path d="M99.803,9.031V62H89.224V27.328h-3.768h-3.769h-3.659h-1.268v-7.681c2.584-0.072,4.691-0.338,6.322-0.797
		c1.63-0.458,3.121-1.208,4.475-2.247c1.956-1.497,3.272-4.021,3.949-7.572H99.803z" class="sbb-vm-color-black"></path>
	<path d="M150.671,9.031v8.985c-0.29,0.314-1.147,1.292-2.572,2.935c-1.98,2.271-3.949,5.127-5.905,8.569
		c-1.957,3.442-3.479,6.745-4.565,9.909c-2.295,6.594-3.684,14.118-4.166,22.571H122.52c0.073-3.985,0.767-8.405,2.084-13.26
		c1.315-4.855,3.134-9.71,5.452-14.565c3.309-6.859,6.666-11.968,10.072-15.325h-24.999V9.031H150.671z" class="sbb-vm-color-black"></path>
</g>
</svg>