<?xml version="1.0" encoding="utf-8"?>
<!-- Generator: Adobe Illustrator 25.1.0, SVG Export Plug-In . SVG Version: 6.00 Build 0)  -->
<svg version="1.0" id="Ebene_1" xmlns="http://www.w3.org/2000/svg" xmlns:xlink="http://www.w3.org/1999/xlink" x="0px" y="0px"
	 viewBox="0 0 210 71" enable-background="new 0 0 210 71" xml:space="preserve">
<rect id="background-white" fill="#FFFFFF" width="210" height="71"/>
<g id="T:background-white:999">
	<path d="M30.849,12.492C30.658,12.3,30.55,12.04,30.55,11.77c0-0.564,0.457-1.021,1.022-1.021c0.271,0,0.53,0.107,0.722,0.299
		l11.427,11.427h9.088c1.627,0,3.063,1.063,3.538,2.619l5.576,18.265C61.974,43.525,62,43.699,62,43.874v7.969
		c0,0.61-0.494,1.104-1.104,1.104H9.003V39.919h10.71c0.61,0,1.105-0.495,1.105-1.104V25.566c0-0.609-0.495-1.104-1.105-1.104H9.003
		v-1.987h31.829L30.849,12.492L30.849,12.492z M50.959,43.231c0,0.61,0.495,1.104,1.104,1.104h6.531c0.61,0,1.104-0.495,1.104-1.104
		c0-0.109-0.016-0.218-0.048-0.322l-5.341-17.495l0,0c-0.213-0.696-0.856-1.172-1.584-1.172h-0.11c-0.914,0-1.656,0.742-1.656,1.656
		V43.231L50.959,43.231z M45.604,42.9c0,0.914,0.742,1.656,1.656,1.656c0.915,0,1.656-0.742,1.656-1.656V25.897
		c0-0.914-0.742-1.656-1.656-1.656c-0.914,0-1.656,0.742-1.656,1.656V42.9L45.604,42.9z M38.262,25.566
		c0-0.609-0.495-1.104-1.104-1.104H23.909c-0.61,0-1.105,0.495-1.105,1.104v13.249c0,0.609,0.495,1.104,1.105,1.104h13.249
		c0.609,0,1.104-0.495,1.104-1.104V25.566L38.262,25.566z M40.249,25.897V42.9c0,0.914,0.742,1.656,1.656,1.656
		c0.914,0,1.656-0.742,1.656-1.656V25.897c0-0.914-0.742-1.656-1.656-1.656C40.991,24.241,40.249,24.983,40.249,25.897
		L40.249,25.897z"/>
	<path d="M36.527,55.155h11.128c-0.916,2.269-3.117,3.754-5.564,3.754C39.645,58.909,37.443,57.424,36.527,55.155L36.527,55.155z"/>
	<path d="M23.278,55.155L23.278,55.155h11.129c-0.916,2.269-3.118,3.754-5.564,3.754C26.396,58.909,24.194,57.424,23.278,55.155
		L23.278,55.155z"/>
	<polygon points="62,60.013 9,60.013 9,62 62,62 62,60.013 	"/>
	<polygon points="62,9 9,9 9,10.104 62,10.104 62,9 	"/>
</g>
<g>
	<path d="M117.996,52.58V62h-38.15c0-2.874,0.464-5.615,1.395-8.224c0.93-2.609,2.24-4.855,3.931-6.739
		c1.304-1.449,2.831-2.862,4.583-4.239c1.751-1.377,5.235-3.9,10.453-7.572c2.535-1.763,4.311-3.406,5.325-4.927
		c1.014-1.521,1.521-3.285,1.521-5.29c0-2.319-0.683-4.197-2.046-5.634c-1.364-1.437-3.158-2.156-5.38-2.156
		c-5.459,0-8.273,3.925-8.441,11.775H81.005c0-0.507,0-0.894,0-1.16c0-6.424,1.799-11.4,5.398-14.927
		c3.501-3.429,8.031-5.145,13.586-5.145c4.927,0,9.044,1.401,12.354,4.203c3.599,3.043,5.398,7.137,5.398,12.282
		c0,4.492-1.438,8.357-4.312,11.594c-0.942,1.063-1.824,1.915-2.645,2.555c-0.821,0.64-2.983,2.18-6.485,4.619
		c-3.333,2.318-5.719,4.094-7.155,5.326c-1.438,1.231-2.772,2.645-4.004,4.238H117.996z"/>
	<path d="M122.018,48.704h9.999c0.821,4.106,3.2,6.159,7.138,6.159c2.222,0,4.027-0.755,5.417-2.265
		c1.389-1.51,2.457-3.858,3.206-7.047c0.482-2.029,0.833-4.335,1.051-6.92c-1.619,2.271-3.279,3.883-4.981,4.837
		c-1.703,0.954-3.774,1.431-6.214,1.431c-3.89,0-7.271-1.135-10.145-3.405c-2.005-1.595-3.568-3.659-4.692-6.196
		c-1.123-2.536-1.685-5.29-1.685-8.261c0-5.965,2.041-10.797,6.123-14.492c3.502-3.188,7.705-4.782,12.608-4.782
		c3.019,0,5.809,0.676,8.369,2.029c2.56,1.353,4.71,3.273,6.449,5.761c3.067,4.42,4.602,10.628,4.602,18.622
		c0,7.392-1.354,13.695-4.059,18.913c-3.526,6.787-8.864,10.181-16.014,10.181c-4.759,0-8.689-1.316-11.793-3.949
		S122.5,53.148,122.018,48.704z M139.625,16.712c-2.271,0-4.19,0.93-5.761,2.79c-1.57,1.884-2.354,4.275-2.354,7.174
		c0,2.343,0.567,4.42,1.703,6.231c1.545,2.488,3.719,3.732,6.521,3.732c2.536,0,4.564-1.015,6.086-3.043
		c1.426-1.908,2.138-4.178,2.138-6.811c0-2.777-0.736-5.132-2.21-7.065C144.202,17.714,142.161,16.712,139.625,16.712z"/>
	<path d="M201,40.95v8.949h-6.666V62h-10.326V49.899h-22.101v-9.928l22.644-30.94h9.783V40.95H201z M184.226,41.059V21.35
		l-13.623,19.709H184.226z"/>
</g>
</svg>
