<?xml version="1.0" encoding="utf-8"?><svg version="1.0" xmlns="http://www.w3.org/2000/svg" xmlns:xlink="http://www.w3.org/1999/xlink" x="0px" y="0px" viewBox="0 0 210 71" enable-background="new 0 0 210 71" xml:space="preserve"> <g> <rect fill="#FFFFFF" width="210" height="71" class="sbb-vm-color-white"></rect> <path d="M60.35,7.1c1.953,0,3.55,1.598,3.55,3.55v49.7c0,1.953-1.597,3.55-3.55,3.55h-49.7c-1.952,0-3.55-1.597-3.55-3.55v-49.7 c0-1.952,1.598-3.55,3.55-3.55H60.35 M60.35,6.213h-49.7c-2.447,0-4.437,1.991-4.437,4.437v49.7c0,2.447,1.991,4.438,4.437,4.438 h49.7c2.447,0,4.438-1.991,4.438-4.438v-49.7C64.787,8.203,62.797,6.213,60.35,6.213L60.35,6.213z" class="sbb-vm-color-black"></path> <path d="M31.762,17.007c-0.154-0.154-0.24-0.363-0.24-0.58c0-0.453,0.367-0.821,0.821-0.821c0.218,0,0.426,0.086,0.58,0.24 l9.185,9.185h7.304c1.307,0,2.462,0.854,2.844,2.105l4.482,14.681c0.041,0.134,0.062,0.274,0.062,0.414v6.405 c0,0.49-0.397,0.888-0.888,0.888H14.203V39.052h8.608c0.49,0,0.888-0.397,0.888-0.887V27.515c0-0.49-0.397-0.888-0.888-0.888 h-8.608V25.03h25.583L31.762,17.007L31.762,17.007z M47.926,41.714c0,0.49,0.397,0.888,0.887,0.888h5.25 c0.49,0,0.888-0.398,0.888-0.888c0-0.088-0.013-0.175-0.039-0.259l-4.293-14.062l0,0c-0.171-0.56-0.688-0.942-1.273-0.942h-0.088 c-0.735,0-1.331,0.596-1.331,1.331V41.714L47.926,41.714z M43.622,41.448c0,0.735,0.596,1.331,1.331,1.331 c0.735,0,1.331-0.597,1.331-1.331V27.782c0-0.735-0.596-1.331-1.331-1.331c-0.735,0-1.331,0.596-1.331,1.331V41.448L43.622,41.448z  M37.72,27.515c0-0.49-0.397-0.888-0.887-0.888H26.184c-0.49,0-0.888,0.398-0.888,0.888v10.649c0,0.49,0.397,0.887,0.888,0.887 h10.649c0.49,0,0.887-0.397,0.887-0.887V27.515L37.72,27.515z M39.317,27.782v13.666c0,0.735,0.597,1.331,1.331,1.331 c0.735,0,1.331-0.597,1.331-1.331V27.782c0-0.735-0.596-1.331-1.331-1.331C39.914,26.45,39.317,27.047,39.317,27.782L39.317,27.782 z" class="sbb-vm-color-black"></path> <path d="M36.326,51.298h8.945c-0.737,1.823-2.506,3.017-4.472,3.017C38.831,54.316,37.062,53.122,36.326,51.298L36.326,51.298z" class="sbb-vm-color-black"></path> <path d="M25.676,51.298L25.676,51.298h8.945c-0.736,1.823-2.506,3.017-4.472,3.017C28.182,54.316,26.413,53.122,25.676,51.298 L25.676,51.298z" class="sbb-vm-color-black"></path> <polygon points="56.8,55.202 14.2,55.202 14.2,56.8 56.8,56.8 56.8,55.202  " class="sbb-vm-color-black"></polygon> <polygon points="56.8,14.2 14.2,14.2 14.2,15.087 56.8,15.087 56.8,14.2  " class="sbb-vm-color-black"></polygon> </g> <g> <path d="M73.681,25.806c0.121-4.348,1.195-7.994,3.225-10.941c3.284-4.734,8.224-7.101,14.818-7.101 c5.072,0,9.166,1.292,12.282,3.876c3.357,2.802,5.036,6.425,5.036,10.869c0,2.657-0.658,4.945-1.975,6.866 s-3.098,3.219-5.344,3.895c2.85,0.652,5.103,2.102,6.757,4.348c1.654,2.246,2.481,4.964,2.481,8.151 c0,5.242-1.933,9.529-5.797,12.862c-3.574,3.092-8.092,4.638-13.55,4.638c-5.918,0-10.61-1.703-14.076-5.108 c-3.466-3.406-5.199-8.007-5.199-13.804c0-0.121,0-0.351,0-0.688h10.181c0,3.261,0.772,5.778,2.318,7.554s3.732,2.663,6.558,2.663 c2.826,0,5-0.833,6.521-2.5c1.4-1.57,2.102-3.442,2.102-5.616c0-2.608-0.894-4.673-2.681-6.195 c-1.474-1.255-3.744-1.884-6.812-1.884c-0.87,0-1.728,0.049-2.572,0.146v-7.79c0.628,0.048,1.231,0.072,1.812,0.072 c6.087,0,9.13-2.258,9.13-6.775c0-1.98-0.665-3.581-1.993-4.801c-1.328-1.219-3.079-1.83-5.253-1.83 c-2.488,0-4.408,0.773-5.761,2.319c-1.353,1.546-2.077,3.804-2.174,6.775H73.681z" class="sbb-vm-color-black"></path> <path d="M149.33,9.031v9.42h-21.34l-2.282,11.919c2.56-2.705,5.833-4.058,9.818-4.058c3.913,0,7.318,1.051,10.217,3.152 c4.3,3.165,6.449,7.971,6.449,14.42c0,6.329-2.295,11.341-6.884,15.036c-3.575,2.898-7.85,4.348-12.825,4.348 c-5.604,0-10.108-1.504-13.515-4.511c-3.405-3.007-5.205-7.07-5.397-12.191h10.397c0.169,1.86,0.773,3.441,1.812,4.746 c1.618,2.053,3.864,3.079,6.739,3.079c2.777,0,4.976-1.002,6.594-3.007c1.57-1.956,2.355-4.335,2.355-7.138 c0-3.043-0.822-5.477-2.464-7.3c-1.643-1.824-3.829-2.736-6.558-2.736c-3.333,0-5.931,1.498-7.79,4.493l-9.456-0.145l5.036-29.528 H149.33z" class="sbb-vm-color-black"></path> <path d="M182.336,9.031V62h-10.579V27.328h-3.768h-3.769h-3.659h-1.268v-7.681c2.584-0.072,4.691-0.338,6.322-0.797 c1.63-0.458,3.121-1.208,4.475-2.247c1.956-1.497,3.272-4.021,3.949-7.572H182.336z" class="sbb-vm-color-black"></path> </g> </svg>