<?xml version="1.0" encoding="utf-8"?>
<!-- Generator: Adobe Illustrator 25.1.0, SVG Export Plug-In . SVG Version: 6.00 Build 0)  -->
<svg version="1.0" id="Ebene_1" xmlns="http://www.w3.org/2000/svg" xmlns:xlink="http://www.w3.org/1999/xlink" x="0px" y="0px"
	 viewBox="0 0 210 71" enable-background="new 0 0 210 71" xml:space="preserve">
<rect id="background-white" fill="#FFFFFF" width="210" height="71"/>
<g id="T:background-white:999">
	<path d="M30.849,12.492C30.658,12.3,30.55,12.04,30.55,11.77c0-0.564,0.457-1.021,1.022-1.021c0.271,0,0.53,0.107,0.722,0.299
		l11.427,11.427h9.088c1.627,0,3.063,1.063,3.538,2.619l5.576,18.265C61.974,43.525,62,43.699,62,43.874v7.969
		c0,0.61-0.494,1.104-1.104,1.104H9.003V39.919h10.71c0.61,0,1.105-0.495,1.105-1.104V25.566c0-0.609-0.495-1.104-1.105-1.104H9.003
		v-1.987h31.829L30.849,12.492L30.849,12.492z M50.959,43.231c0,0.61,0.495,1.104,1.104,1.104h6.531c0.61,0,1.104-0.495,1.104-1.104
		c0-0.109-0.016-0.218-0.048-0.322l-5.341-17.495l0,0c-0.213-0.696-0.856-1.172-1.584-1.172h-0.11c-0.914,0-1.656,0.742-1.656,1.656
		V43.231L50.959,43.231z M45.604,42.9c0,0.914,0.742,1.656,1.656,1.656c0.915,0,1.656-0.742,1.656-1.656V25.897
		c0-0.914-0.742-1.656-1.656-1.656c-0.914,0-1.656,0.742-1.656,1.656V42.9L45.604,42.9z M38.262,25.566
		c0-0.609-0.495-1.104-1.104-1.104H23.909c-0.61,0-1.105,0.495-1.105,1.104v13.249c0,0.609,0.495,1.104,1.105,1.104h13.249
		c0.609,0,1.104-0.495,1.104-1.104V25.566L38.262,25.566z M40.249,25.897V42.9c0,0.914,0.742,1.656,1.656,1.656
		c0.914,0,1.656-0.742,1.656-1.656V25.897c0-0.914-0.742-1.656-1.656-1.656C40.991,24.241,40.249,24.983,40.249,25.897
		L40.249,25.897z"/>
	<path d="M36.527,55.155h11.128c-0.916,2.269-3.117,3.754-5.564,3.754C39.645,58.909,37.443,57.424,36.527,55.155L36.527,55.155z"/>
	<path d="M23.278,55.155L23.278,55.155h11.129c-0.916,2.269-3.118,3.754-5.564,3.754C26.396,58.909,24.194,57.424,23.278,55.155
		L23.278,55.155z"/>
	<polygon points="62,60.013 9,60.013 9,62 62,62 62,60.013 	"/>
	<polygon points="62,9 9,9 9,10.104 62,10.104 62,9 	"/>
</g>
<g>
	<path d="M80.969,25.806c0.121-4.348,1.195-7.994,3.225-10.941c3.284-4.734,8.224-7.101,14.818-7.101
		c5.072,0,9.166,1.292,12.282,3.876c3.357,2.802,5.036,6.425,5.036,10.869c0,2.657-0.658,4.945-1.975,6.866
		s-3.098,3.219-5.344,3.895c2.85,0.652,5.103,2.102,6.757,4.348c1.654,2.246,2.481,4.964,2.481,8.151
		c0,5.242-1.933,9.529-5.797,12.862c-3.574,3.092-8.091,4.638-13.549,4.638c-5.918,0-10.61-1.703-14.076-5.108
		c-3.466-3.406-5.199-8.007-5.199-13.804c0-0.121,0-0.351,0-0.688h10.181c0,3.261,0.772,5.778,2.318,7.554s3.732,2.663,6.558,2.663
		c2.826,0,5-0.833,6.521-2.5c1.4-1.57,2.101-3.442,2.101-5.616c0-2.608-0.894-4.673-2.68-6.195
		c-1.474-1.255-3.744-1.884-6.812-1.884c-0.87,0-1.728,0.049-2.572,0.146v-7.79c0.628,0.048,1.231,0.072,1.812,0.072
		c6.087,0,9.129-2.258,9.129-6.775c0-1.98-0.665-3.581-1.993-4.801c-1.328-1.219-3.079-1.83-5.253-1.83
		c-2.488,0-4.408,0.773-5.761,2.319c-1.353,1.546-2.077,3.804-2.174,6.775H80.969z"/>
	<path d="M130.314,33.559c-2.464-0.845-4.354-2.234-5.67-4.167c-1.317-1.932-1.975-4.275-1.975-7.029
		c0-4.589,1.884-8.248,5.651-10.978c3.333-2.415,7.294-3.623,11.884-3.623c5.217,0,9.479,1.437,12.789,4.311
		c3.14,2.706,4.71,6.051,4.71,10.036c0,2.778-0.664,5.157-1.992,7.137c-1.329,1.981-3.213,3.418-5.652,4.312
		c1.908,0.556,3.466,1.268,4.674,2.138c3.357,2.44,5.036,6.002,5.036,10.688c0,5.387-2.065,9.674-6.195,12.862
		c-3.479,2.681-7.947,4.021-13.405,4.021c-5.918,0-10.628-1.474-14.13-4.42c-3.647-3.067-5.471-7.089-5.471-12.065
		c0-4.661,1.618-8.272,4.854-10.833C126.896,34.815,128.526,34.018,130.314,33.559z M139.987,37.545
		c-2.608,0-4.74,0.803-6.395,2.409s-2.481,3.665-2.481,6.177c0,2.585,0.839,4.687,2.518,6.305s3.858,2.428,6.54,2.428
		c3.043,0,5.326-0.894,6.848-2.682c1.473-1.715,2.21-3.695,2.21-5.941c0-2.561-0.846-4.661-2.536-6.305
		C145.072,38.342,142.838,37.545,139.987,37.545z M140.061,15.987c-2.319,0-4.191,0.646-5.616,1.938
		c-1.426,1.292-2.138,2.989-2.138,5.09c0,2.198,0.719,3.955,2.156,5.271c1.437,1.317,3.363,1.975,5.778,1.975
		s4.323-0.652,5.725-1.957c1.4-1.304,2.102-3.08,2.102-5.326c0-2.198-0.707-3.913-2.12-5.145S142.572,15.987,140.061,15.987z"/>
	<path d="M200.529,52.58V62h-38.151c0-2.874,0.465-5.615,1.396-8.224c0.929-2.609,2.239-4.855,3.931-6.739
		c1.305-1.449,2.832-2.862,4.583-4.239s5.235-3.9,10.453-7.572c2.535-1.763,4.311-3.406,5.325-4.927s1.521-3.285,1.521-5.29
		c0-2.319-0.683-4.197-2.047-5.634s-3.158-2.156-5.38-2.156c-5.459,0-8.273,3.925-8.441,11.775h-10.182c0-0.507,0-0.894,0-1.16
		c0-6.424,1.8-11.4,5.398-14.927c3.502-3.429,8.031-5.145,13.587-5.145c4.927,0,9.045,1.401,12.354,4.203
		c3.599,3.043,5.398,7.137,5.398,12.282c0,4.492-1.438,8.357-4.312,11.594c-0.942,1.063-1.824,1.915-2.645,2.555
		c-0.821,0.64-2.983,2.18-6.485,4.619c-3.333,2.318-5.719,4.094-7.155,5.326c-1.438,1.231-2.772,2.645-4.004,4.238H200.529z"/>
</g>
</svg>
