<svg xmlns="http://www.w3.org/2000/svg" xml:space="preserve" version="1.0" viewBox="0 0 210 71"><path fill="#FFFFFF" d="M0 0H210V71H0z" class="sbb-vm-color-white"/><path d="M60.35,7.1c1.953,0,3.55,1.598,3.55,3.55v49.7c0,1.953-1.597,3.55-3.55,3.55h-49.7c-1.952,0-3.55-1.597-3.55-3.55v-49.7 c0-1.952,1.598-3.55,3.55-3.55H60.35 M60.35,6.213h-49.7c-2.447,0-4.437,1.991-4.437,4.437v49.7c0,2.447,1.991,4.438,4.437,4.438 h49.7c2.447,0,4.438-1.991,4.438-4.438v-49.7C64.787,8.203,62.797,6.213,60.35,6.213L60.35,6.213z" class="sbb-vm-color-black"/><path d="M31.762 17.007c-.154-.154-.24-.363-.24-.58 0-.453.367-.821.821-.821.218 0 .426.086.58.24l9.185 9.185h7.304c1.307 0 2.462.854 2.844 2.105l4.482 14.681c.041.134.062.274.062.414v6.405c0 .49-.397.888-.888.888H14.203V39.052h8.608c.49 0 .888-.397.888-.887V27.515c0-.49-.397-.888-.888-.888h-8.608V25.03h25.583L31.762 17.007 31.762 17.007zM47.926 41.714c0 .49.397.888.887.888h5.25c.49 0 .888-.398.888-.888 0-.088-.013-.175-.039-.259l-4.293-14.062 0 0c-.171-.56-.688-.942-1.273-.942h-.088c-.735 0-1.331.596-1.331 1.331V41.714L47.926 41.714zM43.622 41.448c0 .735.596 1.331 1.331 1.331.735 0 1.331-.597 1.331-1.331V27.782c0-.735-.596-1.331-1.331-1.331-.735 0-1.331.596-1.331 1.331V41.448L43.622 41.448zM37.72 27.515c0-.49-.397-.888-.887-.888H26.184c-.49 0-.888.398-.888.888v10.649c0 .49.397.887.888.887h10.649c.49 0 .887-.397.887-.887V27.515L37.72 27.515zM39.317 27.782v13.666c0 .735.597 1.331 1.331 1.331.735 0 1.331-.597 1.331-1.331V27.782c0-.735-.596-1.331-1.331-1.331C39.914 26.45 39.317 27.047 39.317 27.782L39.317 27.782zM36.326 51.298h8.945c-.737 1.823-2.506 3.017-4.472 3.017C38.831 54.316 37.062 53.122 36.326 51.298L36.326 51.298zM25.676 51.298 25.676 51.298h8.945c-.736 1.823-2.506 3.017-4.472 3.017C28.182 54.316 26.413 53.122 25.676 51.298L25.676 51.298zM56.8 55.202 14.2 55.202 14.2 56.8 56.8 56.8 56.8 55.202zM56.8 14.2 14.2 14.2 14.2 15.087 56.8 15.087 56.8 14.2zM111.18 40.95v8.949h-6.666V62H94.188V49.899H72.087v-9.928L94.73 9.031h9.783V40.95H111.18zM94.405 41.059V21.35L80.782 41.059H94.405zM114.73 48.704h9.999c.821 4.106 3.2 6.159 7.138 6.159 2.222 0 4.027-.755 5.417-2.265 1.389-1.51 2.457-3.858 3.206-7.047.482-2.029.833-4.335 1.051-6.92-1.619 2.271-3.279 3.883-4.981 4.837-1.703.954-3.774 1.431-6.214 1.431-3.89 0-7.271-1.135-10.145-3.405-2.005-1.595-3.568-3.659-4.692-6.196-1.123-2.536-1.685-5.29-1.685-8.261 0-5.965 2.041-10.797 6.123-14.492 3.502-3.188 7.705-4.782 12.608-4.782 3.019 0 5.809.676 8.369 2.029 2.56 1.353 4.71 3.273 6.449 5.761 3.067 4.42 4.602 10.628 4.602 18.622 0 7.392-1.354 13.695-4.059 18.913-3.526 6.787-8.864 10.181-16.014 10.181-4.759 0-8.689-1.316-11.793-3.949S115.213 53.148 114.73 48.704zM132.338 16.712c-2.271 0-4.19.93-5.761 2.79-1.57 1.884-2.354 4.275-2.354 7.174 0 2.343.567 4.42 1.703 6.231 1.545 2.488 3.719 3.732 6.521 3.732 2.536 0 4.564-1.015 6.086-3.043 1.426-1.908 2.138-4.178 2.138-6.811 0-2.777-.736-5.132-2.21-7.065C136.915 17.714 134.874 16.712 132.338 16.712zM191.938 9.031v8.985c-.29.314-1.147 1.292-2.572 2.935-1.98 2.271-3.949 5.127-5.905 8.569-1.957 3.442-3.479 6.745-4.565 9.909-2.295 6.594-3.684 14.118-4.166 22.571h-10.942c.073-3.985.767-8.405 2.084-13.26 1.315-4.855 3.134-9.71 5.452-14.565 3.309-6.859 6.666-11.968 10.072-15.325h-24.999V9.031H191.938z" class="sbb-vm-color-black"/></svg>