<svg xmlns="http://www.w3.org/2000/svg" xml:space="preserve" version="1.0" viewBox="0 0 210 71"><path fill="#FFFFFF" d="M0 0H210V71H0z" class="sbb-vm-color-white"/><path d="M60.35,7.1c1.953,0,3.55,1.598,3.55,3.55v49.7c0,1.953-1.597,3.55-3.55,3.55h-49.7c-1.952,0-3.55-1.597-3.55-3.55v-49.7 c0-1.952,1.598-3.55,3.55-3.55H60.35 M60.35,6.213h-49.7c-2.447,0-4.437,1.991-4.437,4.437v49.7c0,2.447,1.991,4.438,4.437,4.438 h49.7c2.447,0,4.438-1.991,4.438-4.438v-49.7C64.787,8.203,62.797,6.213,60.35,6.213L60.35,6.213z" class="sbb-vm-color-black"/><path d="M31.762 17.007c-.154-.154-.24-.363-.24-.58 0-.453.367-.821.821-.821.218 0 .426.086.58.24l9.185 9.185h7.304c1.307 0 2.462.854 2.844 2.105l4.482 14.681c.041.134.062.274.062.414v6.405c0 .49-.397.888-.888.888H14.203V39.052h8.608c.49 0 .888-.397.888-.887V27.515c0-.49-.397-.888-.888-.888h-8.608V25.03h25.583L31.762 17.007 31.762 17.007zM47.926 41.714c0 .49.397.888.887.888h5.25c.49 0 .888-.398.888-.888 0-.088-.013-.175-.039-.259l-4.293-14.062 0 0c-.171-.56-.688-.942-1.273-.942h-.088c-.735 0-1.331.596-1.331 1.331V41.714L47.926 41.714zM43.622 41.448c0 .735.596 1.331 1.331 1.331.735 0 1.331-.597 1.331-1.331V27.782c0-.735-.596-1.331-1.331-1.331-.735 0-1.331.596-1.331 1.331V41.448L43.622 41.448zM37.72 27.515c0-.49-.397-.888-.887-.888H26.184c-.49 0-.888.398-.888.888v10.649c0 .49.397.887.888.887h10.649c.49 0 .887-.397.887-.887V27.515L37.72 27.515zM39.317 27.782v13.666c0 .735.597 1.331 1.331 1.331.735 0 1.331-.597 1.331-1.331V27.782c0-.735-.596-1.331-1.331-1.331C39.914 26.45 39.317 27.047 39.317 27.782L39.317 27.782zM36.326 51.298h8.945c-.737 1.823-2.506 3.017-4.472 3.017C38.831 54.316 37.062 53.122 36.326 51.298L36.326 51.298zM25.676 51.298 25.676 51.298h8.945c-.736 1.823-2.506 3.017-4.472 3.017C28.182 54.316 26.413 53.122 25.676 51.298L25.676 51.298zM56.8 55.202 14.2 55.202 14.2 56.8 56.8 56.8 56.8 55.202zM56.8 14.2 14.2 14.2 14.2 15.087 56.8 15.087 56.8 14.2zM108.063 9.031v9.42h-21.34l-2.282 11.919c2.56-2.705 5.833-4.058 9.818-4.058 3.913 0 7.318 1.051 10.217 3.152 4.3 3.165 6.449 7.971 6.449 14.42 0 6.329-2.295 11.341-6.884 15.036-3.575 2.898-7.85 4.348-12.825 4.348-5.604 0-10.108-1.504-13.514-4.511s-5.205-7.07-5.398-12.191h10.398c.169 1.86.773 3.441 1.812 4.746 1.618 2.053 3.864 3.079 6.739 3.079 2.777 0 4.976-1.002 6.594-3.007 1.57-1.956 2.355-4.335 2.355-7.138 0-3.043-.822-5.477-2.464-7.3-1.643-1.824-3.829-2.736-6.558-2.736-3.333 0-5.931 1.498-7.79 4.493l-9.456-.145 5.036-29.528H108.063zM151.976 52.58V62h-38.151c0-2.874.465-5.615 1.396-8.224.929-2.609 2.239-4.855 3.931-6.739 1.305-1.449 2.832-2.862 4.583-4.239s5.235-3.9 10.453-7.572c2.535-1.763 4.311-3.406 5.325-4.927s1.521-3.285 1.521-5.29c0-2.319-.683-4.197-2.047-5.634s-3.158-2.156-5.38-2.156c-5.459 0-8.273 3.925-8.441 11.775h-10.182c0-.507 0-.894 0-1.16 0-6.424 1.8-11.4 5.398-14.927 3.502-3.429 8.031-5.145 13.587-5.145 4.927 0 9.045 1.401 12.354 4.203 3.599 3.043 5.398 7.137 5.398 12.282 0 4.492-1.438 8.357-4.312 11.594-.942 1.063-1.824 1.915-2.645 2.555-.821.64-2.983 2.18-6.485 4.619-3.333 2.318-5.719 4.094-7.155 5.326-1.438 1.231-2.772 2.645-4.004 4.238H151.976zM191.938 9.031v8.985c-.29.314-1.147 1.292-2.572 2.935-1.98 2.271-3.949 5.127-5.905 8.569-1.957 3.442-3.479 6.745-4.565 9.909-2.295 6.594-3.684 14.118-4.166 22.571h-10.942c.073-3.985.767-8.405 2.084-13.26 1.315-4.855 3.134-9.71 5.452-14.565 3.309-6.859 6.666-11.968 10.072-15.325h-24.999V9.031H191.938z" class="sbb-vm-color-black"/></svg>