<?xml version="1.0" encoding="utf-8"?>
<svg version="1.0" xmlns="http://www.w3.org/2000/svg" xmlns:xlink="http://www.w3.org/1999/xlink" x="0px" y="0px" viewBox="0 0 210 71" enable-background="new 0 0 210 71" xml:space="preserve">
<g>
	<rect fill="#FFFFFF" width="210" height="71" class="sbb-vm-color-white"></rect>
	<path d="M60.35,7.1c1.953,0,3.55,1.598,3.55,3.55v49.7c0,1.953-1.597,3.55-3.55,3.55h-49.7c-1.952,0-3.55-1.597-3.55-3.55v-49.7
		c0-1.952,1.598-3.55,3.55-3.55H60.35 M60.35,6.213h-49.7c-2.447,0-4.437,1.991-4.437,4.437v49.7c0,2.447,1.991,4.438,4.437,4.438
		h49.7c2.447,0,4.438-1.991,4.438-4.438v-49.7C64.787,8.203,62.797,6.213,60.35,6.213L60.35,6.213z" class="sbb-vm-color-black"></path>
	<path d="M31.762,17.007c-0.154-0.154-0.24-0.363-0.24-0.58c0-0.453,0.367-0.821,0.821-0.821c0.218,0,0.426,0.086,0.58,0.24
		l9.185,9.185h7.304c1.307,0,2.462,0.854,2.844,2.105l4.482,14.681c0.041,0.134,0.062,0.274,0.062,0.414v6.405
		c0,0.49-0.397,0.888-0.888,0.888H14.203V39.052h8.608c0.49,0,0.888-0.397,0.888-0.887V27.515c0-0.49-0.397-0.888-0.888-0.888
		h-8.608V25.03h25.583L31.762,17.007L31.762,17.007z M47.926,41.714c0,0.49,0.397,0.888,0.887,0.888h5.25
		c0.49,0,0.888-0.398,0.888-0.888c0-0.088-0.013-0.175-0.039-0.259l-4.293-14.062l0,0c-0.171-0.56-0.688-0.942-1.273-0.942h-0.088
		c-0.735,0-1.331,0.596-1.331,1.331V41.714L47.926,41.714z M43.622,41.448c0,0.735,0.596,1.331,1.331,1.331
		c0.735,0,1.331-0.597,1.331-1.331V27.782c0-0.735-0.596-1.331-1.331-1.331c-0.735,0-1.331,0.596-1.331,1.331V41.448L43.622,41.448z
		 M37.72,27.515c0-0.49-0.397-0.888-0.887-0.888H26.184c-0.49,0-0.888,0.398-0.888,0.888v10.649c0,0.49,0.397,0.887,0.888,0.887
		h10.649c0.49,0,0.887-0.397,0.887-0.887V27.515L37.72,27.515z M39.317,27.782v13.666c0,0.735,0.597,1.331,1.331,1.331
		c0.735,0,1.331-0.597,1.331-1.331V27.782c0-0.735-0.596-1.331-1.331-1.331C39.914,26.45,39.317,27.047,39.317,27.782L39.317,27.782
		z" class="sbb-vm-color-black"></path>
	<path d="M36.326,51.298h8.945c-0.737,1.823-2.506,3.017-4.472,3.017C38.831,54.316,37.062,53.122,36.326,51.298L36.326,51.298z" class="sbb-vm-color-black"></path>
	<path d="M25.676,51.298L25.676,51.298h8.945c-0.736,1.823-2.506,3.017-4.472,3.017C28.182,54.316,26.413,53.122,25.676,51.298
		L25.676,51.298z" class="sbb-vm-color-black"></path>
	<polygon points="56.8,55.202 14.2,55.202 14.2,56.8 56.8,56.8 56.8,55.202 	"></polygon>
	<polygon points="56.8,14.2 14.2,14.2 14.2,15.087 56.8,15.087 56.8,14.2 	"></polygon>
</g>
<g>
	<path d="M109.404,9.031v8.985c-0.29,0.314-1.147,1.292-2.572,2.935c-1.98,2.271-3.949,5.127-5.905,8.569
		c-1.957,3.442-3.479,6.745-4.565,9.909C94.066,46.022,92.678,53.547,92.195,62H81.253c0.073-3.985,0.767-8.405,2.084-13.26
		c1.315-4.855,3.134-9.71,5.452-14.565c3.309-6.859,6.666-11.968,10.072-15.325H73.862V9.031H109.404z" class="sbb-vm-color-black"></path>
	<path d="M133.136,7.763c4.033,0,7.584,1.231,10.651,3.695c3.043,2.464,5.253,6.256,6.63,11.376
		c1.038,3.913,1.559,8.164,1.559,12.753c0,7.608-1.354,13.864-4.059,18.768c-1.594,2.851-3.677,5.049-6.249,6.594
		c-2.572,1.546-5.441,2.319-8.605,2.319c-4.323,0-8.019-1.305-11.086-3.913c-5.459-4.638-8.188-12.56-8.188-23.768
		c0-7.971,1.425-14.371,4.275-19.202c1.618-2.753,3.737-4.878,6.358-6.376C127.042,8.512,129.947,7.763,133.136,7.763z
		 M132.737,16.712c-3.479,0-5.846,2.005-7.102,6.014c-0.991,3.188-1.485,7.657-1.485,13.406c0,5.072,0.507,9.143,1.521,12.21
		c1.305,3.985,3.72,5.978,7.246,5.978c2.922,0,5.096-1.545,6.521-4.638c1.425-3.091,2.138-7.813,2.138-14.166
		c0-5.41-0.508-9.674-1.521-12.79C138.751,18.717,136.312,16.712,132.737,16.712z" class="sbb-vm-color-black"></path>
	<path d="M155.997,48.704h9.999c0.821,4.106,3.2,6.159,7.138,6.159c2.222,0,4.027-0.755,5.417-2.265
		c1.389-1.51,2.457-3.858,3.206-7.047c0.482-2.029,0.833-4.335,1.051-6.92c-1.619,2.271-3.279,3.883-4.981,4.837
		c-1.703,0.954-3.774,1.431-6.214,1.431c-3.89,0-7.271-1.135-10.145-3.405c-2.005-1.595-3.568-3.659-4.692-6.196
		c-1.123-2.536-1.685-5.29-1.685-8.261c0-5.965,2.041-10.797,6.123-14.492c3.502-3.188,7.705-4.782,12.608-4.782
		c3.019,0,5.809,0.676,8.369,2.029c2.56,1.353,4.71,3.273,6.449,5.761c3.067,4.42,4.602,10.628,4.602,18.622
		c0,7.392-1.354,13.695-4.059,18.913c-3.526,6.787-8.864,10.181-16.014,10.181c-4.759,0-8.689-1.316-11.793-3.949
		S156.479,53.148,155.997,48.704z M173.604,16.712c-2.271,0-4.19,0.93-5.761,2.79c-1.57,1.884-2.354,4.275-2.354,7.174
		c0,2.343,0.567,4.42,1.703,6.231c1.545,2.488,3.719,3.732,6.521,3.732c2.536,0,4.564-1.015,6.086-3.043
		c1.426-1.908,2.138-4.178,2.138-6.811c0-2.777-0.736-5.132-2.21-7.065C178.182,17.714,176.141,16.712,173.604,16.712z" class="sbb-vm-color-black"></path>
</g>
</svg>