<svg xmlns="http://www.w3.org/2000/svg" xml:space="preserve" version="1.0" viewBox="0 0 210 71"><path fill="#FFFFFF" d="M0 0H210V71H0z" class="sbb-vm-color-white"/><path d="M60.35,7.1c1.953,0,3.55,1.598,3.55,3.55v49.7c0,1.953-1.597,3.55-3.55,3.55h-49.7c-1.952,0-3.55-1.597-3.55-3.55v-49.7 c0-1.952,1.598-3.55,3.55-3.55H60.35 M60.35,6.213h-49.7c-2.447,0-4.437,1.991-4.437,4.437v49.7c0,2.447,1.991,4.438,4.437,4.438 h49.7c2.447,0,4.438-1.991,4.438-4.438v-49.7C64.787,8.203,62.797,6.213,60.35,6.213L60.35,6.213z" class="sbb-vm-color-black"/><path d="M31.762 17.007c-.154-.154-.24-.363-.24-.58 0-.453.367-.821.821-.821.218 0 .426.086.58.24l9.185 9.185h7.304c1.307 0 2.462.854 2.844 2.105l4.482 14.681c.041.134.062.274.062.414v6.405c0 .49-.397.888-.888.888H14.203V39.052h8.608c.49 0 .888-.397.888-.887V27.515c0-.49-.397-.888-.888-.888h-8.608V25.03h25.583L31.762 17.007 31.762 17.007zM47.926 41.714c0 .49.397.888.887.888h5.25c.49 0 .888-.398.888-.888 0-.088-.013-.175-.039-.259l-4.293-14.062 0 0c-.171-.56-.688-.942-1.273-.942h-.088c-.735 0-1.331.596-1.331 1.331V41.714L47.926 41.714zM43.622 41.448c0 .735.596 1.331 1.331 1.331.735 0 1.331-.597 1.331-1.331V27.782c0-.735-.596-1.331-1.331-1.331-.735 0-1.331.596-1.331 1.331V41.448L43.622 41.448zM37.72 27.515c0-.49-.397-.888-.887-.888H26.184c-.49 0-.888.398-.888.888v10.649c0 .49.397.887.888.887h10.649c.49 0 .887-.397.887-.887V27.515L37.72 27.515zM39.317 27.782v13.666c0 .735.597 1.331 1.331 1.331.735 0 1.331-.597 1.331-1.331V27.782c0-.735-.596-1.331-1.331-1.331C39.914 26.45 39.317 27.047 39.317 27.782L39.317 27.782zM36.326 51.298h8.945c-.737 1.823-2.506 3.017-4.472 3.017C38.831 54.316 37.062 53.122 36.326 51.298L36.326 51.298zM25.676 51.298 25.676 51.298h8.945c-.736 1.823-2.506 3.017-4.472 3.017C28.182 54.316 26.413 53.122 25.676 51.298L25.676 51.298zM56.8 55.202 14.2 55.202 14.2 56.8 56.8 56.8 56.8 55.202zM56.8 14.2 14.2 14.2 14.2 15.087 56.8 15.087 56.8 14.2zM109.404 9.031v8.985c-.29.314-1.147 1.292-2.572 2.935-1.98 2.271-3.949 5.127-5.905 8.569-1.957 3.442-3.479 6.745-4.565 9.909C94.066 46.022 92.678 53.547 92.195 62H81.253c.073-3.985.767-8.405 2.084-13.26 1.315-4.855 3.134-9.71 5.452-14.565 3.309-6.859 6.666-11.968 10.072-15.325H73.862V9.031H109.404zM151.069 22.255h-10.072c-.941-4.082-3.261-6.123-6.956-6.123-3.913 0-6.69 2.404-8.333 7.21-.677 1.956-1.22 4.915-1.63 8.876 1.594-2.15 3.29-3.696 5.09-4.638 1.799-.942 3.968-1.413 6.504-1.413 4.975 0 8.973 1.764 11.992 5.29 2.874 3.333 4.312 7.512 4.312 12.537 0 5.966-1.933 10.76-5.797 14.383-3.479 3.261-7.657 4.892-12.536 4.892-6.256 0-11.123-2.361-14.601-7.083-3.479-4.722-5.218-11.31-5.218-19.764 0-9.034 1.86-16.111 5.58-21.231 3.599-4.951 8.514-7.427 14.745-7.427 5.87 0 10.362 1.969 13.479 5.905C149.415 15.939 150.562 18.801 151.069 22.255zM133.136 34.393c-2.536 0-4.554 1.063-6.051 3.188-1.354 1.884-2.029 4.13-2.029 6.738 0 2.585.688 4.844 2.065 6.775 1.497 2.15 3.551 3.225 6.159 3.225 2.536 0 4.577-1.026 6.123-3.079 1.449-1.933 2.174-4.215 2.174-6.848 0-2.585-.652-4.795-1.957-6.631C138.026 35.516 135.864 34.393 133.136 34.393zM190.597 9.031v9.42h-21.34l-2.282 11.919c2.56-2.705 5.833-4.058 9.818-4.058 3.913 0 7.318 1.051 10.217 3.152 4.3 3.165 6.449 7.971 6.449 14.42 0 6.329-2.295 11.341-6.884 15.036-3.575 2.898-7.85 4.348-12.825 4.348-5.604 0-10.108-1.504-13.515-4.511-3.405-3.007-5.205-7.07-5.397-12.191h10.397c.169 1.86.773 3.441 1.812 4.746 1.618 2.053 3.864 3.079 6.739 3.079 2.777 0 4.976-1.002 6.594-3.007 1.57-1.956 2.355-4.335 2.355-7.138 0-3.043-.822-5.477-2.464-7.3-1.643-1.824-3.829-2.736-6.558-2.736-3.333 0-5.931 1.498-7.79 4.493l-9.456-.145 5.036-29.528H190.597z" class="sbb-vm-color-black"/></svg>