<svg xmlns="http://www.w3.org/2000/svg" xml:space="preserve" version="1.0" viewBox="0 0 210 71"><path fill="#FFFFFF" d="M0 0H210V71H0z" class="sbb-vm-color-white"/><path d="M60.35,7.1c1.953,0,3.55,1.598,3.55,3.55v49.7c0,1.953-1.597,3.55-3.55,3.55h-49.7c-1.952,0-3.55-1.597-3.55-3.55v-49.7 c0-1.952,1.598-3.55,3.55-3.55H60.35 M60.35,6.213h-49.7c-2.447,0-4.437,1.991-4.437,4.437v49.7c0,2.447,1.991,4.438,4.437,4.438 h49.7c2.447,0,4.438-1.991,4.438-4.438v-49.7C64.787,8.203,62.797,6.213,60.35,6.213L60.35,6.213z" class="sbb-vm-color-black"/><path d="M31.762 17.007c-.154-.154-.24-.363-.24-.58 0-.453.367-.821.821-.821.218 0 .426.086.58.24l9.185 9.185h7.304c1.307 0 2.462.854 2.844 2.105l4.482 14.681c.041.134.062.274.062.414v6.405c0 .49-.397.888-.888.888H14.203V39.052h8.608c.49 0 .888-.397.888-.887V27.515c0-.49-.397-.888-.888-.888h-8.608V25.03h25.583L31.762 17.007 31.762 17.007zM47.926 41.714c0 .49.397.888.887.888h5.25c.49 0 .888-.398.888-.888 0-.088-.013-.175-.039-.259l-4.293-14.062 0 0c-.171-.56-.688-.942-1.273-.942h-.088c-.735 0-1.331.596-1.331 1.331V41.714L47.926 41.714zM43.622 41.448c0 .735.596 1.331 1.331 1.331.735 0 1.331-.597 1.331-1.331V27.782c0-.735-.596-1.331-1.331-1.331-.735 0-1.331.596-1.331 1.331V41.448L43.622 41.448zM37.72 27.515c0-.49-.397-.888-.887-.888H26.184c-.49 0-.888.398-.888.888v10.649c0 .49.397.887.888.887h10.649c.49 0 .887-.397.887-.887V27.515L37.72 27.515zM39.317 27.782v13.666c0 .735.597 1.331 1.331 1.331.735 0 1.331-.597 1.331-1.331V27.782c0-.735-.596-1.331-1.331-1.331C39.914 26.45 39.317 27.047 39.317 27.782L39.317 27.782zM36.326 51.298h8.945c-.737 1.823-2.506 3.017-4.472 3.017C38.831 54.316 37.062 53.122 36.326 51.298L36.326 51.298zM25.676 51.298 25.676 51.298h8.945c-.736 1.823-2.506 3.017-4.472 3.017C28.182 54.316 26.413 53.122 25.676 51.298L25.676 51.298zM56.8 55.202 14.2 55.202 14.2 56.8 56.8 56.8 56.8 55.202zM56.8 14.2 14.2 14.2 14.2 15.087 56.8 15.087 56.8 14.2zM109.404 9.031v8.985c-.29.314-1.147 1.292-2.572 2.935-1.98 2.271-3.949 5.127-5.905 8.569-1.957 3.442-3.479 6.745-4.565 9.909C94.066 46.022 92.678 53.547 92.195 62H81.253c.073-3.985.767-8.405 2.084-13.26 1.315-4.855 3.134-9.71 5.452-14.565 3.309-6.859 6.666-11.968 10.072-15.325H73.862V9.031H109.404zM123.027 33.559c-2.464-.845-4.354-2.234-5.67-4.167-1.317-1.932-1.975-4.275-1.975-7.029 0-4.589 1.884-8.248 5.651-10.978 3.333-2.415 7.294-3.623 11.884-3.623 5.217 0 9.479 1.437 12.789 4.311 3.14 2.706 4.71 6.051 4.71 10.036 0 2.778-.664 5.157-1.992 7.137-1.329 1.981-3.213 3.418-5.652 4.312 1.908.556 3.466 1.268 4.674 2.138 3.357 2.44 5.036 6.002 5.036 10.688 0 5.387-2.065 9.674-6.195 12.862-3.479 2.681-7.947 4.021-13.405 4.021-5.918 0-10.628-1.474-14.13-4.42-3.647-3.067-5.471-7.089-5.471-12.065 0-4.661 1.618-8.272 4.854-10.833C119.609 34.815 121.239 34.018 123.027 33.559zM132.7 37.545c-2.608 0-4.74.803-6.395 2.409s-2.481 3.665-2.481 6.177c0 2.585.839 4.687 2.518 6.305s3.858 2.428 6.54 2.428c3.043 0 5.326-.894 6.848-2.682 1.473-1.715 2.21-3.695 2.21-5.941 0-2.561-.846-4.661-2.536-6.305C137.785 38.342 135.551 37.545 132.7 37.545zM132.773 15.987c-2.319 0-4.191.646-5.616 1.938-1.426 1.292-2.138 2.989-2.138 5.09 0 2.198.719 3.955 2.156 5.271 1.437 1.317 3.363 1.975 5.778 1.975s4.323-.652 5.725-1.957c1.4-1.304 2.102-3.08 2.102-5.326 0-2.198-.707-3.913-2.12-5.145S135.285 15.987 132.773 15.987zM174.402 7.763c4.033 0 7.584 1.231 10.651 3.695 3.043 2.464 5.253 6.256 6.63 11.376 1.038 3.913 1.559 8.164 1.559 12.753 0 7.608-1.354 13.864-4.059 18.768-1.594 2.851-3.677 5.049-6.249 6.594-2.572 1.546-5.441 2.319-8.605 2.319-4.323 0-8.019-1.305-11.086-3.913-5.459-4.638-8.188-12.56-8.188-23.768 0-7.971 1.425-14.371 4.275-19.202 1.618-2.753 3.737-4.878 6.358-6.376C168.309 8.512 171.214 7.763 174.402 7.763zM174.004 16.712c-3.479 0-5.846 2.005-7.102 6.014-.991 3.188-1.485 7.657-1.485 13.406 0 5.072.507 9.143 1.521 12.21 1.305 3.985 3.72 5.978 7.246 5.978 2.922 0 5.096-1.545 6.521-4.638 1.425-3.091 2.138-7.813 2.138-14.166 0-5.41-.508-9.674-1.521-12.79C180.018 18.717 177.578 16.712 174.004 16.712z" class="sbb-vm-color-black"/></svg>