<?xml version="1.0" encoding="utf-8"?><svg version="1.0" xmlns="http://www.w3.org/2000/svg" xmlns:xlink="http://www.w3.org/1999/xlink" x="0px" y="0px" viewBox="0 0 210 71" enable-background="new 0 0 210 71" xml:space="preserve"> <g> <rect fill="#FFFFFF" width="210" height="71" class="sbb-vm-color-white"></rect> <path d="M60.35,7.1c1.953,0,3.55,1.598,3.55,3.55v49.7c0,1.953-1.597,3.55-3.55,3.55h-49.7c-1.952,0-3.55-1.597-3.55-3.55v-49.7 c0-1.952,1.598-3.55,3.55-3.55H60.35 M60.35,6.213h-49.7c-2.447,0-4.437,1.991-4.437,4.437v49.7c0,2.447,1.991,4.438,4.437,4.438 h49.7c2.447,0,4.438-1.991,4.438-4.438v-49.7C64.787,8.203,62.797,6.213,60.35,6.213L60.35,6.213z" class="sbb-vm-color-black"></path> <path d="M31.762,17.007c-0.154-0.154-0.24-0.363-0.24-0.58c0-0.453,0.367-0.821,0.821-0.821c0.218,0,0.426,0.086,0.58,0.24 l9.185,9.185h7.304c1.307,0,2.462,0.854,2.844,2.105l4.482,14.681c0.041,0.134,0.062,0.274,0.062,0.414v6.405 c0,0.49-0.397,0.888-0.888,0.888H14.203V39.052h8.608c0.49,0,0.888-0.397,0.888-0.887V27.515c0-0.49-0.397-0.888-0.888-0.888 h-8.608V25.03h25.583L31.762,17.007L31.762,17.007z M47.926,41.714c0,0.49,0.397,0.888,0.887,0.888h5.25 c0.49,0,0.888-0.398,0.888-0.888c0-0.088-0.013-0.175-0.039-0.259l-4.293-14.062l0,0c-0.171-0.56-0.688-0.942-1.273-0.942h-0.088 c-0.735,0-1.331,0.596-1.331,1.331V41.714L47.926,41.714z M43.622,41.448c0,0.735,0.596,1.331,1.331,1.331 c0.735,0,1.331-0.597,1.331-1.331V27.782c0-0.735-0.596-1.331-1.331-1.331c-0.735,0-1.331,0.596-1.331,1.331V41.448L43.622,41.448z  M37.72,27.515c0-0.49-0.397-0.888-0.887-0.888H26.184c-0.49,0-0.888,0.398-0.888,0.888v10.649c0,0.49,0.397,0.887,0.888,0.887 h10.649c0.49,0,0.887-0.397,0.887-0.887V27.515L37.72,27.515z M39.317,27.782v13.666c0,0.735,0.597,1.331,1.331,1.331 c0.735,0,1.331-0.597,1.331-1.331V27.782c0-0.735-0.596-1.331-1.331-1.331C39.914,26.45,39.317,27.047,39.317,27.782L39.317,27.782 z" class="sbb-vm-color-black"></path> <path d="M36.326,51.298h8.945c-0.737,1.823-2.506,3.017-4.472,3.017C38.831,54.316,37.062,53.122,36.326,51.298L36.326,51.298z" class="sbb-vm-color-black"></path> <path d="M25.676,51.298L25.676,51.298h8.945c-0.736,1.823-2.506,3.017-4.472,3.017C28.182,54.316,26.413,53.122,25.676,51.298 L25.676,51.298z" class="sbb-vm-color-black"></path> <polygon points="56.8,55.202 14.2,55.202 14.2,56.8 56.8,56.8 56.8,55.202  " class="sbb-vm-color-black"></polygon> <polygon points="56.8,14.2 14.2,14.2 14.2,15.087 56.8,15.087 56.8,14.2  " class="sbb-vm-color-black"></polygon> </g> <g> <path d="M81.761,33.559c-2.464-0.845-4.354-2.234-5.67-4.167c-1.317-1.932-1.975-4.275-1.975-7.029 c0-4.589,1.884-8.248,5.652-10.978c3.333-2.415,7.294-3.623,11.884-3.623c5.217,0,9.479,1.437,12.789,4.311 c3.14,2.706,4.71,6.051,4.71,10.036c0,2.778-0.664,5.157-1.992,7.137c-1.329,1.981-3.213,3.418-5.652,4.312 c1.908,0.556,3.466,1.268,4.674,2.138c3.357,2.44,5.036,6.002,5.036,10.688c0,5.387-2.065,9.674-6.195,12.862 c-3.479,2.681-7.947,4.021-13.405,4.021c-5.918,0-10.628-1.474-14.13-4.42c-3.647-3.067-5.471-7.089-5.471-12.065 c0-4.661,1.618-8.272,4.854-10.833C78.342,34.815,79.973,34.018,81.761,33.559z M91.434,37.545c-2.608,0-4.74,0.803-6.395,2.409 s-2.481,3.665-2.481,6.177c0,2.585,0.839,4.687,2.518,6.305s3.858,2.428,6.54,2.428c3.043,0,5.326-0.894,6.848-2.682 c1.473-1.715,2.21-3.695,2.21-5.941c0-2.561-0.846-4.661-2.536-6.305C96.519,38.342,94.284,37.545,91.434,37.545z M91.507,15.987 c-2.319,0-4.191,0.646-5.616,1.938c-1.426,1.292-2.138,2.989-2.138,5.09c0,2.198,0.719,3.955,2.156,5.271 c1.437,1.317,3.363,1.975,5.778,1.975s4.323-0.652,5.725-1.957c1.4-1.304,2.102-3.08,2.102-5.326c0-2.198-0.707-3.913-2.12-5.145 S94.019,15.987,91.507,15.987z" class="sbb-vm-color-black"></path> <path d="M150.671,9.031v8.985c-0.29,0.314-1.147,1.292-2.572,2.935c-1.98,2.271-3.949,5.127-5.905,8.569 c-1.957,3.442-3.479,6.745-4.565,9.909c-2.295,6.594-3.684,14.118-4.166,22.571H122.52c0.073-3.985,0.767-8.405,2.084-13.26 c1.315-4.855,3.134-9.71,5.452-14.565c3.309-6.859,6.666-11.968,10.072-15.325h-24.999V9.031H150.671z" class="sbb-vm-color-black"></path> <path d="M192.336,22.255h-10.072c-0.941-4.082-3.261-6.123-6.956-6.123c-3.913,0-6.69,2.404-8.333,7.21 c-0.677,1.956-1.22,4.915-1.63,8.876c1.594-2.15,3.29-3.696,5.09-4.638c1.799-0.942,3.968-1.413,6.504-1.413 c4.975,0,8.973,1.764,11.992,5.29c2.874,3.333,4.312,7.512,4.312,12.537c0,5.966-1.933,10.76-5.797,14.383 c-3.479,3.261-7.657,4.892-12.536,4.892c-6.256,0-11.123-2.361-14.601-7.083c-3.479-4.722-5.218-11.31-5.218-19.764 c0-9.034,1.86-16.111,5.58-21.231c3.599-4.951,8.514-7.427,14.745-7.427c5.87,0,10.362,1.969,13.479,5.905 C190.682,15.939,191.829,18.801,192.336,22.255z M174.402,34.393c-2.536,0-4.554,1.063-6.051,3.188 c-1.354,1.884-2.029,4.13-2.029,6.738c0,2.585,0.688,4.844,2.065,6.775c1.497,2.15,3.551,3.225,6.159,3.225 c2.536,0,4.577-1.026,6.123-3.079c1.449-1.933,2.174-4.215,2.174-6.848c0-2.585-0.652-4.795-1.957-6.631 C179.293,35.516,177.131,34.393,174.402,34.393z" class="sbb-vm-color-black"></path> </g> </svg>