<?xml version="1.0" encoding="utf-8"?><svg version="1.0" xmlns="http://www.w3.org/2000/svg" xmlns:xlink="http://www.w3.org/1999/xlink" x="0px" y="0px" viewBox="0 0 210 71" enable-background="new 0 0 210 71" xml:space="preserve"> <g> <rect fill="#FFFFFF" width="210" height="71" class="sbb-vm-color-white"></rect> <path d="M60.35,7.1c1.953,0,3.55,1.598,3.55,3.55v49.7c0,1.953-1.597,3.55-3.55,3.55h-49.7c-1.952,0-3.55-1.597-3.55-3.55v-49.7 c0-1.952,1.598-3.55,3.55-3.55H60.35 M60.35,6.213h-49.7c-2.447,0-4.437,1.991-4.437,4.437v49.7c0,2.447,1.991,4.438,4.437,4.438 h49.7c2.447,0,4.438-1.991,4.438-4.438v-49.7C64.787,8.203,62.797,6.213,60.35,6.213L60.35,6.213z" class="sbb-vm-color-black"></path> <path d="M31.762,17.007c-0.154-0.154-0.24-0.363-0.24-0.58c0-0.453,0.367-0.821,0.821-0.821c0.218,0,0.426,0.086,0.58,0.24 l9.185,9.185h7.304c1.307,0,2.462,0.854,2.844,2.105l4.482,14.681c0.041,0.134,0.062,0.274,0.062,0.414v6.405 c0,0.49-0.397,0.888-0.888,0.888H14.203V39.052h8.608c0.49,0,0.888-0.397,0.888-0.887V27.515c0-0.49-0.397-0.888-0.888-0.888 h-8.608V25.03h25.583L31.762,17.007L31.762,17.007z M47.926,41.714c0,0.49,0.397,0.888,0.887,0.888h5.25 c0.49,0,0.888-0.398,0.888-0.888c0-0.088-0.013-0.175-0.039-0.259l-4.293-14.062l0,0c-0.171-0.56-0.688-0.942-1.273-0.942h-0.088 c-0.735,0-1.331,0.596-1.331,1.331V41.714L47.926,41.714z M43.622,41.448c0,0.735,0.596,1.331,1.331,1.331 c0.735,0,1.331-0.597,1.331-1.331V27.782c0-0.735-0.596-1.331-1.331-1.331c-0.735,0-1.331,0.596-1.331,1.331V41.448L43.622,41.448z  M37.72,27.515c0-0.49-0.397-0.888-0.887-0.888H26.184c-0.49,0-0.888,0.398-0.888,0.888v10.649c0,0.49,0.397,0.887,0.888,0.887 h10.649c0.49,0,0.887-0.397,0.887-0.887V27.515L37.72,27.515z M39.317,27.782v13.666c0,0.735,0.597,1.331,1.331,1.331 c0.735,0,1.331-0.597,1.331-1.331V27.782c0-0.735-0.596-1.331-1.331-1.331C39.914,26.45,39.317,27.047,39.317,27.782L39.317,27.782 z" class="sbb-vm-color-black"></path> <path d="M36.326,51.298h8.945c-0.737,1.823-2.506,3.017-4.472,3.017C38.831,54.316,37.062,53.122,36.326,51.298L36.326,51.298z" class="sbb-vm-color-black"></path> <path d="M25.676,51.298L25.676,51.298h8.945c-0.736,1.823-2.506,3.017-4.472,3.017C28.182,54.316,26.413,53.122,25.676,51.298 L25.676,51.298z" class="sbb-vm-color-black"></path> <polygon points="56.8,55.202 14.2,55.202 14.2,56.8 56.8,56.8 56.8,55.202  " class="sbb-vm-color-black"></polygon> <polygon points="56.8,14.2 14.2,14.2 14.2,15.087 56.8,15.087 56.8,14.2  " class="sbb-vm-color-black"></polygon> </g> <g> <path d="M81.761,33.559c-2.464-0.845-4.354-2.234-5.67-4.167c-1.317-1.932-1.975-4.275-1.975-7.029 c0-4.589,1.884-8.248,5.652-10.978c3.333-2.415,7.294-3.623,11.884-3.623c5.217,0,9.479,1.437,12.789,4.311 c3.14,2.706,4.71,6.051,4.71,10.036c0,2.778-0.664,5.157-1.992,7.137c-1.329,1.981-3.213,3.418-5.652,4.312 c1.908,0.556,3.466,1.268,4.674,2.138c3.357,2.44,5.036,6.002,5.036,10.688c0,5.387-2.065,9.674-6.195,12.862 c-3.479,2.681-7.947,4.021-13.405,4.021c-5.918,0-10.628-1.474-14.13-4.42c-3.647-3.067-5.471-7.089-5.471-12.065 c0-4.661,1.618-8.272,4.854-10.833C78.342,34.815,79.973,34.018,81.761,33.559z M91.434,37.545c-2.608,0-4.74,0.803-6.395,2.409 s-2.481,3.665-2.481,6.177c0,2.585,0.839,4.687,2.518,6.305s3.858,2.428,6.54,2.428c3.043,0,5.326-0.894,6.848-2.682 c1.473-1.715,2.21-3.695,2.21-5.941c0-2.561-0.846-4.661-2.536-6.305C96.519,38.342,94.284,37.545,91.434,37.545z M91.507,15.987 c-2.319,0-4.191,0.646-5.616,1.938c-1.426,1.292-2.138,2.989-2.138,5.09c0,2.198,0.719,3.955,2.156,5.271 c1.437,1.317,3.363,1.975,5.778,1.975s4.323-0.652,5.725-1.957c1.4-1.304,2.102-3.08,2.102-5.326c0-2.198-0.707-3.913-2.12-5.145 S94.019,15.987,91.507,15.987z" class="sbb-vm-color-black"></path> <path d="M114.73,48.704h9.999c0.821,4.106,3.2,6.159,7.138,6.159c2.222,0,4.027-0.755,5.417-2.265 c1.389-1.51,2.457-3.858,3.206-7.047c0.482-2.029,0.833-4.335,1.051-6.92c-1.619,2.271-3.279,3.883-4.981,4.837 c-1.703,0.954-3.774,1.431-6.214,1.431c-3.89,0-7.271-1.135-10.145-3.405c-2.005-1.595-3.568-3.659-4.692-6.196 c-1.123-2.536-1.685-5.29-1.685-8.261c0-5.965,2.041-10.797,6.123-14.492c3.502-3.188,7.705-4.782,12.608-4.782 c3.019,0,5.809,0.676,8.369,2.029c2.56,1.353,4.71,3.273,6.449,5.761c3.067,4.42,4.602,10.628,4.602,18.622 c0,7.392-1.354,13.695-4.059,18.913c-3.526,6.787-8.864,10.181-16.014,10.181c-4.759,0-8.689-1.316-11.793-3.949 S115.213,53.148,114.73,48.704z M132.338,16.712c-2.271,0-4.19,0.93-5.761,2.79c-1.57,1.884-2.354,4.275-2.354,7.174 c0,2.343,0.567,4.42,1.703,6.231c1.545,2.488,3.719,3.732,6.521,3.732c2.536,0,4.564-1.015,6.086-3.043 c1.426-1.908,2.138-4.178,2.138-6.811c0-2.777-0.736-5.132-2.21-7.065C136.915,17.714,134.874,16.712,132.338,16.712z" class="sbb-vm-color-black"></path> <path d="M155.997,48.704h9.999c0.821,4.106,3.2,6.159,7.138,6.159c2.222,0,4.027-0.755,5.417-2.265 c1.389-1.51,2.457-3.858,3.206-7.047c0.482-2.029,0.833-4.335,1.051-6.92c-1.619,2.271-3.279,3.883-4.981,4.837 c-1.703,0.954-3.774,1.431-6.214,1.431c-3.89,0-7.271-1.135-10.145-3.405c-2.005-1.595-3.568-3.659-4.692-6.196 c-1.123-2.536-1.685-5.29-1.685-8.261c0-5.965,2.041-10.797,6.123-14.492c3.502-3.188,7.705-4.782,12.608-4.782 c3.019,0,5.809,0.676,8.369,2.029c2.56,1.353,4.71,3.273,6.449,5.761c3.067,4.42,4.602,10.628,4.602,18.622 c0,7.392-1.354,13.695-4.059,18.913c-3.526,6.787-8.864,10.181-16.014,10.181c-4.759,0-8.689-1.316-11.793-3.949 S156.479,53.148,155.997,48.704z M173.604,16.712c-2.271,0-4.19,0.93-5.761,2.79c-1.57,1.884-2.354,4.275-2.354,7.174 c0,2.343,0.567,4.42,1.703,6.231c1.545,2.488,3.719,3.732,6.521,3.732c2.536,0,4.564-1.015,6.086-3.043 c1.426-1.908,2.138-4.178,2.138-6.811c0-2.777-0.736-5.132-2.21-7.065C178.182,17.714,176.141,16.712,173.604,16.712z" class="sbb-vm-color-black"></path> </g> </svg>