<?xml version="1.0" encoding="utf-8"?>
<!-- Generator: Adobe Illustrator 25.1.0, SVG Export Plug-In . SVG Version: 6.00 Build 0)  -->
<svg version="1.0" id="Ebene_1" xmlns="http://www.w3.org/2000/svg" xmlns:xlink="http://www.w3.org/1999/xlink" x="0px" y="0px"
	 viewBox="0 0 210 71" enable-background="new 0 0 210 71" xml:space="preserve">
<rect id="background-white" fill="#FFFFFF" width="210" height="71"/>
<g id="T:background-white:999">
	<path d="M30.849,12.492C30.658,12.3,30.55,12.04,30.55,11.77c0-0.564,0.457-1.021,1.022-1.021c0.271,0,0.53,0.107,0.722,0.299
		l11.427,11.427h9.088c1.627,0,3.063,1.063,3.538,2.619l5.576,18.265C61.974,43.525,62,43.699,62,43.874v7.969
		c0,0.61-0.494,1.104-1.104,1.104H9.003V39.919h10.71c0.61,0,1.105-0.495,1.105-1.104V25.566c0-0.609-0.495-1.104-1.105-1.104H9.003
		v-1.987h31.829L30.849,12.492L30.849,12.492z M50.959,43.231c0,0.61,0.495,1.104,1.104,1.104h6.531c0.61,0,1.104-0.495,1.104-1.104
		c0-0.109-0.016-0.218-0.048-0.322l-5.341-17.495l0,0c-0.213-0.696-0.856-1.172-1.584-1.172h-0.11c-0.914,0-1.656,0.742-1.656,1.656
		V43.231L50.959,43.231z M45.604,42.9c0,0.914,0.742,1.656,1.656,1.656c0.915,0,1.656-0.742,1.656-1.656V25.897
		c0-0.914-0.742-1.656-1.656-1.656c-0.914,0-1.656,0.742-1.656,1.656V42.9L45.604,42.9z M38.262,25.566
		c0-0.609-0.495-1.104-1.104-1.104H23.909c-0.61,0-1.105,0.495-1.105,1.104v13.249c0,0.609,0.495,1.104,1.105,1.104h13.249
		c0.609,0,1.104-0.495,1.104-1.104V25.566L38.262,25.566z M40.249,25.897V42.9c0,0.914,0.742,1.656,1.656,1.656
		c0.914,0,1.656-0.742,1.656-1.656V25.897c0-0.914-0.742-1.656-1.656-1.656C40.991,24.241,40.249,24.983,40.249,25.897
		L40.249,25.897z"/>
	<path d="M36.527,55.155h11.128c-0.916,2.269-3.117,3.754-5.564,3.754C39.645,58.909,37.443,57.424,36.527,55.155L36.527,55.155z"/>
	<path d="M23.278,55.155L23.278,55.155h11.129c-0.916,2.269-3.118,3.754-5.564,3.754C26.396,58.909,24.194,57.424,23.278,55.155
		L23.278,55.155z"/>
	<polygon points="62,60.013 9,60.013 9,62 62,62 62,60.013 	"/>
	<polygon points="62,9 9,9 9,10.104 62,10.104 62,9 	"/>
</g>
<g>
	<path d="M80.751,48.704h9.999c0.821,4.106,3.2,6.159,7.138,6.159c2.222,0,4.027-0.755,5.417-2.265
		c1.389-1.51,2.457-3.858,3.206-7.047c0.482-2.029,0.833-4.335,1.051-6.92c-1.619,2.271-3.279,3.883-4.981,4.837
		c-1.703,0.954-3.774,1.431-6.214,1.431c-3.89,0-7.271-1.135-10.145-3.405c-2.005-1.595-3.569-3.659-4.692-6.196
		c-1.123-2.536-1.685-5.29-1.685-8.261c0-5.965,2.041-10.797,6.123-14.492c3.502-3.188,7.705-4.782,12.608-4.782
		c3.019,0,5.809,0.676,8.369,2.029c2.56,1.353,4.71,3.273,6.449,5.761c3.067,4.42,4.602,10.628,4.602,18.622
		c0,7.392-1.354,13.695-4.059,18.913c-3.526,6.787-8.864,10.181-16.013,10.181c-4.759,0-8.689-1.316-11.793-3.949
		C83.027,56.687,81.234,53.148,80.751,48.704z M98.359,16.712c-2.271,0-4.19,0.93-5.761,2.79c-1.57,1.884-2.354,4.275-2.354,7.174
		c0,2.343,0.567,4.42,1.703,6.231c1.545,2.488,3.719,3.732,6.521,3.732c2.536,0,4.564-1.015,6.086-3.043
		c1.426-1.908,2.137-4.178,2.137-6.811c0-2.777-0.736-5.132-2.209-7.065C102.936,17.714,100.895,16.712,98.359,16.712z"/>
	<path d="M158.356,22.255h-10.072c-0.941-4.082-3.261-6.123-6.956-6.123c-3.913,0-6.69,2.404-8.333,7.21
		c-0.677,1.956-1.22,4.915-1.63,8.876c1.594-2.15,3.29-3.696,5.09-4.638c1.799-0.942,3.968-1.413,6.504-1.413
		c4.975,0,8.973,1.764,11.992,5.29c2.874,3.333,4.312,7.512,4.312,12.537c0,5.966-1.933,10.76-5.797,14.383
		c-3.479,3.261-7.657,4.892-12.536,4.892c-6.256,0-11.123-2.361-14.601-7.083c-3.479-4.722-5.218-11.31-5.218-19.764
		c0-9.034,1.86-16.111,5.58-21.231c3.599-4.951,8.514-7.427,14.745-7.427c5.87,0,10.362,1.969,13.479,5.905
		C156.702,15.939,157.85,18.801,158.356,22.255z M140.423,34.393c-2.536,0-4.554,1.063-6.051,3.188
		c-1.354,1.884-2.029,4.13-2.029,6.738c0,2.585,0.688,4.844,2.065,6.775c1.497,2.15,3.551,3.225,6.159,3.225
		c2.536,0,4.577-1.026,6.123-3.079c1.449-1.933,2.174-4.215,2.174-6.848c0-2.585-0.652-4.795-1.957-6.631
		C145.313,35.516,143.151,34.393,140.423,34.393z"/>
	<path d="M197.884,9.031v9.42h-21.34l-2.282,11.919c2.56-2.705,5.833-4.058,9.818-4.058c3.913,0,7.318,1.051,10.217,3.152
		c4.3,3.165,6.449,7.971,6.449,14.42c0,6.329-2.295,11.341-6.884,15.036c-3.575,2.898-7.85,4.348-12.825,4.348
		c-5.604,0-10.108-1.504-13.515-4.511c-3.405-3.007-5.205-7.07-5.397-12.191h10.397c0.169,1.86,0.773,3.441,1.812,4.746
		c1.618,2.053,3.864,3.079,6.739,3.079c2.777,0,4.976-1.002,6.594-3.007c1.57-1.956,2.355-4.335,2.355-7.138
		c0-3.043-0.822-5.477-2.464-7.3c-1.643-1.824-3.829-2.736-6.558-2.736c-3.333,0-5.931,1.498-7.79,4.493l-9.456-0.145l5.036-29.528
		H197.884z"/>
</g>
</svg>
