<?xml version="1.0" encoding="utf-8"?><svg version="1.0" xmlns="http://www.w3.org/2000/svg" xmlns:xlink="http://www.w3.org/1999/xlink" x="0px" y="0px" viewBox="0 0 210 71" enable-background="new 0 0 210 71" xml:space="preserve"> <g> <rect fill="#FFFFFF" width="210" height="71" class="sbb-vm-color-white"></rect> </g> <g> <path d="M53.491,9.031v9.782H37.404V62H25.848V18.813H9.833V9.031H53.491z" class="sbb-vm-color-black"></path> <path d="M98.961,9.031v9.782H70.773v11.304h25.832v9.094H70.773v13.007h28.694V62H59.216V9.031H98.961z" class="sbb-vm-color-black"></path> <path d="M107.039,9.031h25.651c5.072,0,8.961,0.797,11.666,2.391c2.247,1.304,3.961,3.043,5.146,5.217 c1.183,2.174,1.774,4.625,1.774,7.354c0,3.092-0.742,5.785-2.228,8.08c-1.485,2.295-3.557,3.937-6.214,4.927 c2.343,0.58,4.179,1.884,5.507,3.913c0.846,1.28,1.413,2.621,1.703,4.021c0.29,1.401,0.664,4.602,1.123,9.602 c0.338,3.672,0.857,5.954,1.558,6.848L153.233,62h-12.064c-0.411-0.748-0.707-1.702-0.888-2.862 c-0.182-1.159-0.417-3.84-0.707-8.043c-0.29-3.743-1.201-6.334-2.735-7.771c-1.534-1.437-4.148-2.155-7.844-2.155h-10.398V62 h-11.558V9.031z M118.597,18.125v14.564h11.051c3.551,0,6.051-0.507,7.5-1.521c1.835-1.28,2.753-3.212,2.753-5.797 c0-2.512-0.785-4.348-2.354-5.507c-1.57-1.159-4.046-1.739-7.428-1.739H118.597z" class="sbb-vm-color-black"></path> </g> </svg>