<?xml version="1.0" encoding="utf-8"?>
<!-- Generator: Adobe Illustrator 25.1.0, SVG Export Plug-In . SVG Version: 6.00 Build 0)  -->
<svg version="1.0" id="Ebene_1" xmlns="http://www.w3.org/2000/svg" xmlns:xlink="http://www.w3.org/1999/xlink" x="0px" y="0px"
	 viewBox="0 0 210 71" enable-background="new 0 0 210 71" xml:space="preserve">
<rect id="background-white" fill="#FFFFFF" width="210" height="71"/>
<g id="TER:background-white">
	<path d="M24.7,62V18H9V9h42.1v9H35.4v44H24.7z"/>
	<path d="M58,62V9h39.3v9H68.7v11.7h26.6v9H68.7v14.4h29.6V62L58,62z"/>
	<path d="M107.4,62V9h22.5c5.7,0,9.8,0.5,12.3,1.4c2.6,1,4.6,2.6,6.2,5.1c1.5,2.4,2.3,5.2,2.3,8.3c0,4-1.2,7.3-3.5,9.8
		c-2.3,2.6-5.8,4.2-10.5,4.9c2.3,1.3,4.2,2.8,5.7,4.4c1.5,1.6,3.5,4.5,6.1,8.6l6.5,10.3h-12.8l-7.7-11.5c-2.7-4.1-4.6-6.7-5.6-7.8
		s-2.1-1.8-3.2-2.2s-2.9-0.6-5.4-0.6h-2.2v22.1h-10.7V62z M118.1,31.5h7.9c5.1,0,8.3-0.2,9.6-0.7c1.3-0.4,2.3-1.2,3-2.2
		c0.7-1.1,1.1-2.4,1.1-4c0-1.8-0.5-3.2-1.4-4.3c-1-1.1-2.3-1.8-4-2.1c-0.9-0.1-3.5-0.2-7.8-0.2h-8.3v13.5H118.1z"/>
</g>
</svg>
