<?xml version="1.0" encoding="utf-8"?>
<svg version="1.0" xmlns="http://www.w3.org/2000/svg" xmlns:xlink="http://www.w3.org/1999/xlink" x="0px" y="0px" viewBox="0 0 210 71" enable-background="new 0 0 210 71" xml:space="preserve">
<g>
	<rect fill="#EB0000" width="210" height="71" class="sbb-vm-color-red"></rect>
	<polygon fill="#FFFFFF" points="10.905,8.917 51.862,8.917 50.063,17.232 35.141,17.232 25.51,61.917 14.397,61.917 24.028,17.232 
		9,17.232 	"></polygon>
	<path fill="#FFFFFF" d="M96.312,20.138c-1.164-0.701-2.117-1.202-2.963-1.603c-0.847-0.401-2.222-0.902-4.127-1.403
		c-1.905-0.501-4.233-0.802-7.197-0.802c-6.244,0-11.43,2.104-15.452,6.212s-6.033,9.418-6.033,15.93
		c0,5.009,1.376,8.917,4.233,11.822c2.857,2.805,6.773,4.208,11.853,4.208c1.799,0,3.175-0.2,4.128-0.501l2.963-14.026H72.394
		l1.799-8.316h21.484l-6.032,28.955c-1.058,0.401-1.905,0.601-2.752,0.902c-0.847,0.2-2.223,0.501-4.128,0.902
		c-1.905,0.401-4.445,0.601-7.726,0.601c-8.361,0-14.711-2.004-19.156-6.112c-4.339-4.108-6.562-9.919-6.562-17.633
		c0-9.518,2.858-17.132,8.678-22.643c5.821-5.611,13.653-8.416,23.495-8.416c3.175,0,6.138,0.301,8.996,0.802
		c2.752,0.501,5.609,1.202,8.467,2.204L96.312,20.138z" class="sbb-vm-color-white"></path>
	<polygon fill="#FFFFFF" points="106.367,8.917 117.056,8.917 121.924,50.094 144.149,8.817 155.685,8.817 126.052,61.817 
		113.352,61.817 	"></polygon>
</g>
</svg>