<svg xmlns="http://www.w3.org/2000/svg" xml:space="preserve" version="1.0" viewBox="0 0 210 71"><path fill="#EB0000" d="M0 0H210V71H0z" class="sbb-vm-color-red"/><path fill="#FFFFFF" d="M10.905 8.917 51.862 8.917 50.063 17.232 35.141 17.232 25.51 61.917 14.397 61.917 24.028 17.232 9 17.232zM96.312 20.138c-1.164-.701-2.117-1.202-2.963-1.603-.847-.401-2.222-.902-4.127-1.403-1.905-.501-4.233-.802-7.197-.802-6.244 0-11.43 2.104-15.452 6.212s-6.033 9.418-6.033 15.93c0 5.009 1.376 8.917 4.233 11.822 2.857 2.805 6.773 4.208 11.853 4.208 1.799 0 3.175-.2 4.128-.501l2.963-14.026H72.394l1.799-8.316h21.484l-6.032 28.955c-1.058.401-1.905.601-2.752.902-.847.2-2.223.501-4.128.902-1.905.401-4.445.601-7.726.601-8.361 0-14.711-2.004-19.156-6.112-4.339-4.108-6.562-9.919-6.562-17.633 0-9.518 2.858-17.132 8.678-22.643 5.821-5.611 13.653-8.416 23.495-8.416 3.175 0 6.138.301 8.996.802 2.752.501 5.609 1.202 8.467 2.204L96.312 20.138zM106.367 8.917 117.056 8.917 121.924 50.094 144.149 8.817 155.685 8.817 126.052 61.817 113.352 61.817z" class="sbb-vm-color-white"/></svg>