<?xml version="1.0" encoding="utf-8"?>
<!-- Generator: Adobe Illustrator 24.2.0, SVG Export Plug-In . SVG Version: 6.00 Build 0)  -->
<svg version="1.0" id="Ebene_3" xmlns="http://www.w3.org/2000/svg" xmlns:xlink="http://www.w3.org/1999/xlink" x="0px" y="0px"
	 viewBox="0 0 400 400" enable-background="new 0 0 400 400" xml:space="preserve">
<rect id="background-blue" fill="#2D327D" width="400" height="400"/>
<g id="content">
	<path id="frameWhite" fill="#FFFFFF" d="M340,40c11,0,20,9,20,20v280c0,11-9,20-20,20H60c-11,0-20-9-20-20V60c0-11,9-20,20-20H340
		 M340,35H60c-13.785,0-25,11.215-25,25v280c0,13.785,11.215,25,25,25h280c13.785,0,25-11.215,25-25V60
		C365,46.215,353.785,35,340,35L340,35z"/>
	<g>
		<path fill="#FFFFFF" d="M188.1,101.718c0,11.765-9.535,21.3-21.3,21.3c-11.764,0-21.302-9.535-21.302-21.3
			c0-11.766,9.538-21.302,21.302-21.302C178.566,80.416,188.1,89.953,188.1,101.718z"/>
		<path fill="#FFFFFF" d="M283.617,281.11l-28.812-67.74c-1.995-4.689-6.588-7.732-11.685-7.732h-49.187l-2.639-21.17h40.726
			c4.287,0,7.758-3.475,7.758-7.76s-3.471-7.764-7.758-7.764h-42.659l-3.233-25.932c-1.205-9.667-10.019-16.527-19.686-15.324
			c-9.667,1.205-16.529,10.019-15.322,19.686l8.453,67.838c0.101,0.808,0.436,2.868,0.436,3.129c0,7.017,5.684,12.7,12.7,12.7
			h62.012l25.522,60.009c2.057,4.831,6.754,7.731,11.695,7.731c1.657,0,3.342-0.327,4.964-1.016
			C283.353,295.021,286.36,287.561,283.617,281.11z"/>
		<path fill="#FFFFFF" d="M244.911,272.473c-10.475,17.74-29.777,29.651-51.872,29.651c-33.254,0-60.209-26.957-60.209-60.209
			c0-16.708,6.81-31.822,17.801-42.731l-2.399-20.693c-19.875,14.067-32.864,37.222-32.864,63.424
			c0,42.898,34.775,77.67,77.671,77.67c24.235,0,45.873-11.103,60.118-28.496L244.911,272.473z"/>
	</g>
</g>
</svg>
