<?xml version="1.0" encoding="utf-8"?>
<!-- Generator: Adobe Illustrator 24.2.0, SVG Export Plug-In . SVG Version: 6.00 Build 0)  -->
<svg version="1.0" id="Ebene_1" xmlns="http://www.w3.org/2000/svg" xmlns:xlink="http://www.w3.org/1999/xlink" x="0px" y="0px"
	 viewBox="0 0 400 400" enable-background="new 0 0 400 400" xml:space="preserve">
<rect id="background-blue" fill="#2D327D" width="400" height="400"/>
<g id="content">
	<path id="frameWhite" fill="#FFFFFF" d="M340,40c11,0,20,9,20,20v280c0,11-9,20-20,20H60c-11,0-20-9-20-20V60c0-11,9-20,20-20H340
		 M340,35H60c-13.785,0-25,11.215-25,25v280c0,13.785,11.215,25,25,25h280c13.785,0,25-11.215,25-25V60
		C365,46.215,353.785,35,340,35L340,35z"/>
	<g>
		<path fill="#FFFFFF" d="M289.062,286.436c0-19.333-15.73-35.062-35.064-35.062c-19.334,0-35.062,15.728-35.062,35.062
			c0,19.335,15.728,35.064,35.062,35.064C273.331,321.5,289.062,305.772,289.062,286.436 M278.937,286.436
			c0,13.751-11.188,24.939-24.939,24.939c-13.751,0-24.937-11.188-24.937-24.939c0-13.754,11.186-24.941,24.937-24.941
			C267.749,261.496,278.937,272.682,278.937,286.436L278.937,286.436z"/>
		<path fill="#FFFFFF" d="M198.999,286.436c0-19.333-15.728-35.062-35.062-35.062c-19.332,0-35.062,15.728-35.062,35.062
			c0,19.335,15.73,35.064,35.062,35.064C183.271,321.5,198.999,305.772,198.999,286.436 M188.876,286.436
			c0,13.751-11.188,24.939-24.939,24.939c-13.751,0-24.941-11.188-24.941-24.939c0-13.754,11.19-24.941,24.941-24.941
			C177.688,261.496,188.876,272.682,188.876,286.436L188.876,286.436z"/>
		<path fill="#FFFFFF" d="M308.172,166.437c-3.032,28.398-14.535,54.261-31.963,74.997h-135.35
			c-17.432-20.736-28.935-46.599-31.965-74.997H308.172L308.172,166.437z"/>
		<path fill="#FFFFFF" d="M221.886,156.435c-5.499,0-7.749-3.898-4.998-8.659l41.9-72.573
			c28.401,16.436,47.937,46.488,49.656,81.233H221.886L221.886,156.435z"/>
		<path fill="#FFFFFF" d="M79,152.469h59.997v8.002H79c-2.201,0-4-1.801-4-3.999C75,154.271,76.799,152.469,79,152.469L79,152.469z"
			/>
	</g>
</g>
</svg>
