<?xml version="1.0" encoding="utf-8"?>
<!-- Generator: Adobe Illustrator 24.2.0, SVG Export Plug-In . SVG Version: 6.00 Build 0)  -->
<svg version="1.0" id="Ebene_1" xmlns="http://www.w3.org/2000/svg" xmlns:xlink="http://www.w3.org/1999/xlink" x="0px" y="0px"
	 viewBox="0 0 400 400" enable-background="new 0 0 400 400" xml:space="preserve">
<rect id="background-blue" fill="#2D327D" width="400" height="400"/>
<g id="content">
	<path id="frameWhite" fill="#FFFFFF" d="M340,40c11,0,20,9,20,20v280c0,11-9,20-20,20H60c-11,0-20-9-20-20V60c0-11,9-20,20-20H340
		 M340,35H60c-13.785,0-25,11.215-25,25v280c0,13.785,11.215,25,25,25h280c13.785,0,25-11.215,25-25V60
		C365,46.215,353.785,35,340,35L340,35z"/>
	<g>
		<path fill="#FFFFFF" d="M99.382,286.436c0,19.335,15.73,35.064,35.064,35.064c19.334,0,35.062-15.728,35.062-35.064
			c0-19.333-15.728-35.062-35.062-35.062C115.112,251.375,99.382,267.103,99.382,286.436 M109.507,286.436
			c0-13.754,11.188-24.941,24.939-24.941c13.751,0,24.937,11.186,24.937,24.941c0,13.751-11.186,24.939-24.937,24.939
			C120.695,311.375,109.507,300.187,109.507,286.436L109.507,286.436z"/>
		<path fill="#FFFFFF" d="M189.444,286.436c0,19.335,15.728,35.064,35.062,35.064c19.332,0,35.062-15.728,35.062-35.064
			c0-19.333-15.73-35.062-35.062-35.062C205.173,251.375,189.444,267.103,189.444,286.436 M199.567,286.436
			c0-13.754,11.188-24.941,24.939-24.941c13.751,0,24.941,11.186,24.941,24.941c0,13.751-11.19,24.939-24.941,24.939
			C210.755,311.375,199.567,300.187,199.567,286.436L199.567,286.436z"/>
		<path fill="#FFFFFF" d="M80.272,166.437c3.032,28.398,14.535,54.261,31.963,74.997h135.349
			c17.432-20.736,28.935-46.599,31.965-74.997H80.272L80.272,166.437z"/>
		<path fill="#FFFFFF" d="M166.558,156.435c5.499,0,7.749-3.898,4.998-8.659l-41.9-72.573C101.255,91.639,81.719,121.69,80,156.435
			H166.558L166.558,156.435z"/>
		<path fill="#FFFFFF" d="M309.443,152.469h-59.997v8.002h59.997c2.201,0,4-1.801,4-3.999
			C313.443,154.271,311.645,152.469,309.443,152.469L309.443,152.469z"/>
	</g>
</g>
</svg>
