<?xml version="1.0" encoding="utf-8"?>
<!-- Generator: Adobe Illustrator 24.2.0, SVG Export Plug-In . SVG Version: 6.00 Build 0)  -->
<svg version="1.0" id="Ebene_1" xmlns="http://www.w3.org/2000/svg" xmlns:xlink="http://www.w3.org/1999/xlink" x="0px" y="0px"
	 viewBox="0 0 400 400.002" enable-background="new 0 0 400 400.002" xml:space="preserve">
<rect id="background-blue" fill="#2D327D" width="400" height="400"/>
<g id="content">
	<path id="frameWhite" fill="#FFFFFF" d="M340,40c11,0,20,9,20,20v280c0,11-9,20-20,20H60c-11,0-20-9-20-20V60c0-11,9-20,20-20H340
		 M340,35H60c-13.785,0-25,11.215-25,25v280c0,13.785,11.215,25,25,25h280c13.785,0,25-11.215,25-25V60
		C365,46.215,353.785,35,340,35L340,35z"/>
	<path fill="#FFFFFF" d="M112.467,99.781c0-11.037,8.961-19.994,20-19.994c11.032,0,19.993,8.956,19.993,19.994
		c0,11.043-8.961,19.999-19.993,19.999C121.428,119.78,112.467,110.824,112.467,99.781L112.467,99.781z"/>
	<polygon fill="#FFFFFF" points="291.936,318.4 288.606,321.722 183.242,216.358 186.568,213.02 291.936,318.4 	"/>
	<path fill="#FFFFFF" d="M182.68,201.149l-0.043,0.028c0.965,0.961,1.715,2.157,2.099,3.572c1.14,4.27-1.389,8.65-5.659,9.792
		c-2.862,0.765-5.752-0.141-7.704-2.09h-0.007l-14.898-14.893v-22.621L182.68,201.149L182.68,201.149z"/>
	<path fill="#FFFFFF" d="M175.756,260.213"/>
	<path fill="#FFFFFF" d="M103.621,314.947c-2.76,4.79-8.879,6.415-13.654,3.657c-4.786-2.756-6.425-8.883-3.661-13.657l26.16-45.31
		V145.318c0-11.035,8.961-19.995,20-19.995c11.032,0,19.993,8.96,19.993,19.995v74.553c0,0,20.715,35.871,21.766,37.689
		c1.054,1.821,1.531,3.607,1.531,5.717c0,2.103,0,0,0,0v46.648c0,5.536-4.477,10.011-9.996,10.011
		c-5.523,0-9.996-4.475-9.996-10.011v-44.347l-23.296-40.343v39.764L103.621,314.947L103.621,314.947z"/>
</g>
</svg>
