<?xml version="1.0" encoding="utf-8"?>
<!-- Generator: Adobe Illustrator 24.2.0, SVG Export Plug-In . SVG Version: 6.00 Build 0)  -->
<svg version="1.0" id="Ebene_1" xmlns="http://www.w3.org/2000/svg" xmlns:xlink="http://www.w3.org/1999/xlink" x="0px" y="0px"
	 viewBox="0 0 400 400.002" enable-background="new 0 0 400 400.002" xml:space="preserve">
<rect id="background-blue" fill="#2D327D" width="400" height="400"/>
<g id="content">
	<path id="frameWhite" fill="#FFFFFF" d="M340,40c11,0,20,9,20,20v280c0,11-9,20-20,20H60c-11,0-20-9-20-20V60c0-11,9-20,20-20H340
		 M340,35H60c-13.785,0-25,11.215-25,25v280c0,13.785,11.215,25,25,25h280c13.785,0,25-11.215,25-25V60
		C365,46.215,353.785,35,340,35L340,35z"/>
	<path fill="#FFFFFF" d="M177.735,94.148c5.851-10.135,18.831-13.613,28.963-7.763c10.129,5.848,13.615,18.829,7.756,28.961
		c-5.846,10.141-18.822,13.614-28.961,7.757C175.359,117.261,171.89,104.281,177.735,94.148L177.735,94.148z"/>
	<path fill="#FFFFFF" d="M93.464,322.543c5.65,1.52,11.464-1.849,12.98-7.495l25.967-96.903l27.549,47.728v46.418
		c0,5.861,4.743,10.608,10.598,10.608c5.857,0,10.6-4.748,10.6-10.608c0,0,0-46.661,0-48.876c0-2.212-0.503-4.084-1.605-5.998
		c-1.11-1.907-23.555-40.809-23.555-40.809l30.646-53.084l11.326,19.628l-9.304,5.37l19.771,34.235l17.65,100.142l5.909-1.039
		L214.134,220.57l-0.03,0.013l-0.037-0.071l4.119-2.368v0.007l0.011-0.007c2.343,4.06,7.52,5.442,11.572,3.103
		c4.056-2.338,5.447-7.523,3.103-11.587l-42.621-73.818l-0.011,0.007c-1.797-3.079-4.376-5.743-7.678-7.662
		c-10.138-5.845-23.11-2.368-28.959,7.771c0,0-38.391,66.496-38.622,66.887c-0.551,0.953-0.909,1.82-1.195,2.896
		c-0.287,1.063-27.822,103.813-27.822,103.813C84.448,315.207,87.807,321.023,93.464,322.543 M201.46,189.192l13.222,22.889
		l-4.11,2.384l-13.22-22.908L201.46,189.192L201.46,189.192z"/>
</g>
</svg>
