<?xml version="1.0" encoding="utf-8"?>
<!-- Generator: Adobe Illustrator 24.2.0, SVG Export Plug-In . SVG Version: 6.00 Build 0)  -->
<svg version="1.0" id="Ebene_3" xmlns="http://www.w3.org/2000/svg" xmlns:xlink="http://www.w3.org/1999/xlink" x="0px" y="0px"
	 viewBox="0 0 400 400.002" enable-background="new 0 0 400 400.002" xml:space="preserve">
<rect id="background-blue" fill="#2D327D" width="400" height="400"/>
<g id="content">
	<path id="frameWhite" fill="#FFFFFF" d="M340,40c11,0,20,9,20,20v280c0,11-9,20-20,20H60c-11,0-20-9-20-20V60c0-11,9-20,20-20H340
		 M340,35H60c-13.785,0-25,11.215-25,25v280c0,13.785,11.215,25,25,25h280c13.785,0,25-11.215,25-25V60
		C365,46.215,353.785,35,340,35L340,35z"/>
	<path fill="#FFFFFF" d="M249.321,124.049c0,11.034-8.963,19.983-20.019,19.983c-11.034,0-19.982-8.95-19.982-19.983
		c0-11.057,8.948-20.019,19.982-20.019C240.358,104.03,249.321,112.992,249.321,124.049"/>
	<path fill="#FFFFFF" d="M295.081,150.135h-82.422c-5.758-0.345-11.507,2.416-14.736,7.685l-15.352,24.958
		c-2.678,4.369-5.505,9.026-8.447,13.852l-5.765,9.414c-15.272,25.047-7.227,45.538,17.933,45.538c1.682,0,45.734,0,45.734,0
		l7.62,32.274h-0.054c0.054,0.17,0.086,0.341,0.13,0.501c0.061,0.179,0.104,0.348,0.149,0.51l6.654,28.125
		c1.56,4.328,5.845,7.157,10.522,6.73c5.626-0.51,9.793-5.503,9.283-11.14c-0.024-0.179-0.065-0.38-0.097-0.564l-16.158-67.874
		c-1.296-4.73-6.207-8.419-11.086-8.428h-11.162h-0.032h-27.98l39.753-65.49h55.513c4.467,0,8.058-3.591,8.058-8.048
		C303.139,153.739,299.548,150.135,295.081,150.135z"/>
	<rect x="289.587" y="174.286" fill="#FFFFFF" width="10.745" height="145.194"/>
	<path fill="#FFFFFF" d="M214.704,261.166h-57.39v0.041h-11.581c-1.976,0-4.043-1.575-4.553-3.505l-33.293-124.938
		c-0.067-0.246-0.156-0.522-0.276-0.822l-0.713-2.72c-0.732-2.714-3.536-4.336-6.24-3.617c-2.726,0.728-4.356,3.533-3.622,6.254
		l28.974,108.815c0.033-0.004,0.033-0.004,0.033-0.004l7.293,27.257c0.508,1.92,2.57,3.49,4.542,3.49h73.267
		c0.168,0,0.395-0.022,0.581-0.035h2.978c2.829,0,5.103-2.28,5.103-5.099C219.807,263.449,217.533,261.166,214.704,261.166"/>
</g>
</svg>
