<?xml version="1.0" encoding="utf-8"?>
<!-- Generator: Adobe Illustrator 24.2.0, SVG Export Plug-In . SVG Version: 6.00 Build 0)  -->
<svg version="1.0" id="Grundaufbau" xmlns="http://www.w3.org/2000/svg" xmlns:xlink="http://www.w3.org/1999/xlink" x="0px"
	 y="0px" viewBox="0 0 400 400.002" enable-background="new 0 0 400 400.002" xml:space="preserve">
<rect id="background-blue" fill="#2D327D" width="400" height="400"/>
<g id="content">
	<path id="frameWhite" fill="#FFFFFF" d="M340,40c11,0,20,9,20,20v280c0,11-9,20-20,20H60c-11,0-20-9-20-20V60c0-11,9-20,20-20H340
		 M340,35H60c-13.785,0-25,11.215-25,25v280c0,13.785,11.215,25,25,25h280c13.785,0,25-11.215,25-25V60
		C365,46.215,353.785,35,340,35L340,35z"/>
	<path fill="#FFFFFF" d="M233.317,260.126h-57.375v0.041h-11.583c-1.976,0-4.041-1.576-4.551-3.501l-33.287-124.92
		c-0.067-0.246-0.157-0.521-0.276-0.822l-0.711-2.714c-0.734-2.719-3.536-4.336-6.242-3.617c-2.724,0.723-4.354,3.527-3.618,6.249
		l28.969,108.801c0.034-0.007,0.034-0.007,0.034-0.007l7.289,27.255c0.508,1.918,2.572,3.486,4.54,3.486h73.256
		c0.168,0,0.395-0.022,0.581-0.037h2.976c2.829,0,5.103-2.272,5.103-5.095C238.419,262.413,236.146,260.126,233.317,260.126"/>
	<path fill="#FFFFFF" d="M284.373,306.512l-16.136-67.82c-1.311-4.723-6.218-8.41-11.08-8.417h-10.801
		c2.108-4.782,3.279-10.078,3.279-15.643c0-21.551-17.484-39.025-39.027-39.025c-3.227,0-6.341,0.406-9.339,1.15l-0.557-2.092
		c-0.061-0.208-0.182-0.465-0.238-0.711l-2.695-10.297c-2.806-10.723-13.782-17.14-24.507-14.31
		c-10.719,2.802-17.14,13.793-14.302,24.506h-0.024l1.192,4.545c-0.033-0.009-0.065-0.011-0.097-0.021l5.121,19.174l6.516,24.792
		l0.059-0.019l5.075,19.46c1.24,4.615,6.155,8.387,10.926,8.387l62.442-0.037l7.626,32.227h-0.041
		c0.041,0.171,0.082,0.346,0.138,0.503c0.041,0.175,0.082,0.346,0.136,0.506l6.65,28.103c1.56,4.332,5.823,7.147,10.503,6.726
		c5.616-0.51,9.788-5.505,9.272-11.136C284.446,306.877,284.399,306.695,284.373,306.512"/>
	<path fill="#FFFFFF" d="M191.564,122.404c0,11.024-8.944,19.967-19.991,19.967c-11.034,0-19.97-8.942-19.97-19.967
		c0-11.046,8.937-19.995,19.97-19.995C182.62,102.41,191.564,111.359,191.564,122.404"/>
</g>
</svg>
