<?xml version="1.0" encoding="utf-8"?>
<!-- Generator: Adobe Illustrator 24.2.0, SVG Export Plug-In . SVG Version: 6.00 Build 0)  -->
<svg version="1.0" xmlns="http://www.w3.org/2000/svg" xmlns:xlink="http://www.w3.org/1999/xlink" x="0px" y="0px"
	 viewBox="0 0 400 400" enable-background="new 0 0 400 400" xml:space="preserve">
<polygon id="background-blue" fill="#2D327D" points="0,0 400,0 400,400 0,400 0,0 "/>
<g id="content">
	<path id="frameWhite" fill="#FFFFFF" d="M340,40c11,0,20,9,20,20v280c0,11-9,20-20,20H60c-11,0-20-9-20-20V60c0-11,9-20,20-20H340
		 M340,35H60c-13.785,0-25,11.215-25,25v280c0,13.785,11.215,25,25,25h280c13.785,0,25-11.215,25-25V60
		C365,46.215,353.785,35,340,35L340,35z"/>
	<path fill="#FFFFFF" d="M301.994,240.961c-0.093-7.438-4.389-13.86-10.624-17.006c-0.156-0.076-0.314-0.154-0.474-0.233
		c-10.545-5.241-28.444-17.769-28.444-42.432c0-29.824-2.13-45.607-7.597-56.292c-6.063-11.851-16.45-17.25-33.561-17.455
		c0.254-4.424,0.405-14.029-5.6-20.963C213.093,83.578,208.26,80,200,80c-8.26,0-13.093,3.578-15.693,6.58
		c-6.005,6.934-5.854,16.539-5.6,20.963c-17.111,0.205-27.497,5.604-33.561,17.455c-5.467,10.686-7.597,26.468-7.597,56.292
		c0,24.663-17.899,37.191-28.444,42.432c-0.16,0.079-0.318,0.157-0.474,0.233c-6.235,3.145-10.531,9.567-10.624,17.006L98,255.423
		h204L301.994,240.961z M192.035,93.273c1.778-2.052,4.383-3.05,7.965-3.05c3.583,0,6.188,0.998,7.965,3.05
		c3.399,3.924,3.155,11.177,3.1,14.251h-22.131C188.88,104.449,188.636,97.196,192.035,93.273z"/>
	<g>
		<path fill="#FFFFFF" d="M179.579,260.523c-0.535,1.864-0.829,3.83-0.829,5.865c0,11.736,9.514,21.25,21.25,21.25
			s21.25-9.514,21.25-21.25c0-2.036-0.294-4.001-0.829-5.865H179.579z"/>
	</g>
</g>
</svg>
