<?xml version="1.0" encoding="utf-8"?>
<!-- Generator: Adobe Illustrator 24.2.0, SVG Export Plug-In . SVG Version: 6.00 Build 0)  -->
<svg version="1.0" xmlns="http://www.w3.org/2000/svg" xmlns:xlink="http://www.w3.org/1999/xlink" x="0px" y="0px"
	 viewBox="0 0 400 400.001" enable-background="new 0 0 400 400.001" xml:space="preserve">
<rect id="background-blue" x="0" fill="#2D327D" width="400" height="400"/>
<g id="content">
	<path id="frameWhite" fill="#FFFFFF" d="M60,40h280c11,0,20,9,20,20v280c0,11-9,20-20,20H60c-11,0-20-9-20-20V60C40,49,49,40,60,40
		 M60,35c-13.785,0-25,11.215-25,25v280c0,13.785,11.215,25,25,25h280c13.785,0,25-11.215,25-25V60c0-13.785-11.215-25-25-25H60
		L60,35z"/>
	<path fill="#FFFFFF" d="M252.24,125.675c22.352,28.889,17.044,70.412-11.846,92.764c-10.995,8.506-17.217,21.832-16.666,35.741
		c0.394,10.176-2.001,20.257-6.931,29.173c-2.599,4.694-6.301,8.648-10.822,11.546c-14.98,9.609-34.922,5.245-44.531-9.751
		c-1.906-2.961-1.04-6.899,1.922-8.805c2.961-1.89,6.915-1.024,8.805,1.938c5.812,9.057,17.863,11.688,26.936,5.891
		c2.725-1.749,4.962-4.159,6.537-6.978c3.796-6.884,5.655-14.665,5.34-22.525c-0.709-18.02,7.356-35.269,21.612-46.311
		c23.329-18.036,27.598-51.572,9.562-74.885s-51.557-27.598-74.87-9.562c-12.161,9.404-19.69,23.597-20.619,38.939
		c-0.221,3.513-3.245,6.191-6.758,5.97c-3.513-0.205-6.191-3.229-5.97-6.742c1.166-19.013,10.475-36.592,25.534-48.249
		C188.366,91.477,229.904,96.785,252.24,125.675z"/>
	<path fill="#FFFFFF" d="M235.307,138.78c15.106,19.533,11.515,47.603-8.018,62.709c-1.26,0.977-2.489,2.016-3.67,3.087
		c-2.127,1.89-5.371,1.717-7.277-0.394c-1.906-2.111-1.733-5.371,0.378-7.262c1.386-1.244,2.804-2.442,4.269-3.576
		c15.043-11.625,17.8-33.237,6.175-48.264c-11.625-15.027-33.237-17.784-48.28-6.159c-3.654,2.835-6.71,6.38-8.979,10.412
		c-1.386,2.489-4.521,3.371-6.994,1.985c-2.489-1.386-3.371-4.521-1.985-7.01c2.93-5.245,6.899-9.861,11.657-13.531
		C192.115,115.656,220.201,119.248,235.307,138.78z"/>
	<path fill="#FFFFFF" d="M170.855,229.13c-14.334-6.868-25.881-18.43-32.764-32.764L80,254.457V320L170.855,229.13z"/>
	<path fill="#FFFFFF" d="M242.797,91.65c13.736,7.687,25.077,19.028,32.78,32.764l21.568-21.568
		c0.001,0.002,0.002,0.004,0.003,0.005L320,80h-65.55L242.797,91.65z"/>
</g>
</svg>
