<?xml version="1.0" encoding="utf-8"?>
<!-- Generator: Adobe Illustrator 24.2.0, SVG Export Plug-In . SVG Version: 6.00 Build 0)  -->
<svg version="1.0" id="Ebene_1" xmlns="http://www.w3.org/2000/svg" xmlns:xlink="http://www.w3.org/1999/xlink" x="0px" y="0px"
	 viewBox="0 0 400 399.999" enable-background="new 0 0 400 399.999" xml:space="preserve">
<rect id="background-blue" fill="#2D327D" width="400" height="400"/>
<g id="content">
	<path fill="#FFFFFF" d="M305.743,307.459V360H86.196c0-16.123,2.639-31.411,7.923-45.869c5.281-14.455,12.855-26.965,22.727-37.529
		c7.506-8.06,16.263-15.878,26.271-23.456c10.008-7.574,30.092-21.647,60.256-42.221c14.594-10.008,24.811-19.214,30.648-27.625
		c5.838-8.409,8.757-18.172,8.757-29.294c0-12.927-3.929-23.385-11.78-31.379c-7.854-7.991-18.175-11.988-30.961-11.988
		c-31.415,0-47.609,21.823-48.58,65.468H92.868c0-2.779,0-4.933,0-6.464c0-35.721,10.354-63.383,31.066-82.981
		c20.152-19.182,46.286-28.772,78.395-28.772c28.075,0,51.707,7.786,70.889,23.352c20.71,16.96,31.066,39.755,31.066,68.387
		c0,25.02-8.271,46.566-24.812,64.634c-5.421,5.838-10.461,10.565-15.116,14.178c-4.658,3.616-17.132,12.165-37.425,25.646
		c-19.462,13.207-33.255,23.143-41.387,29.814c-8.131,6.672-15.741,14.526-22.83,23.561H305.743z"/>
</g>
</svg>
