<?xml version="1.0" encoding="utf-8"?>
<!-- Generator: Adobe Illustrator 24.2.0, SVG Export Plug-In . SVG Version: 6.00 Build 0)  -->
<svg version="1.0" id="Ebene_1" xmlns="http://www.w3.org/2000/svg" xmlns:xlink="http://www.w3.org/1999/xlink" x="0px" y="0px"
	 viewBox="0 0 24 24" enable-background="new 0 0 24 24" xml:space="preserve">
<g id="SVG_x5F_24x24pt">
	<path id="backgroundBlue" fill="#2D327D" d="M0,22.5v-21C0,0.675,0.675,0,1.5,0h21C23.325,0,24,0.675,24,1.5v21
		c0,0.825-0.675,1.5-1.5,1.5h-21C0.675,24,0,23.325,0,22.5z"/>
	<g id="content">
		<polygon fill="#FFFFFF" points="15.809,13.181 16.059,13.457 16.716,12.862 16.466,12.586 15.809,13.181 		"/>
		<path fill="#FFFFFF" d="M11.111,6.198c0-0.657-0.534-1.191-1.191-1.191S8.729,5.541,8.729,6.198c0,0.657,0.534,1.191,1.191,1.191
			S11.111,6.855,11.111,6.198"/>
		<path fill="#FFFFFF" d="M14.099,4.879c-0.395,0-0.716,0.321-0.716,0.717v3.649c0.182,0.088,0.32,0.254,0.372,0.454V5.596
			c0-0.19,0.155-0.344,0.345-0.344c0.19,0,0.344,0.155,0.344,0.344v4.775c0,0.19-0.154,0.344-0.344,0.344
			c-0.19,0-0.345-0.155-0.345-0.344v-0.324c-0.046,0.178-0.162,0.335-0.325,0.429c0,0-0.013,0.008-0.035,0.02
			c0.06,0.335,0.353,0.591,0.705,0.591c0.395,0,0.716-0.322,0.716-0.717V5.596C14.816,5.201,14.494,4.879,14.099,4.879L14.099,4.879
			z"/>
		<path fill="#FFFFFF" d="M16.212,5.596v4.775c0,0.395,0.321,0.717,0.716,0.717c0.395,0,0.716-0.322,0.716-0.717V5.596
			c0-0.395-0.322-0.717-0.716-0.717C16.534,4.879,16.212,5.201,16.212,5.596 M16.584,10.371V5.596c0-0.19,0.154-0.344,0.345-0.344
			c0.19,0,0.344,0.155,0.344,0.344v4.775c0,0.19-0.155,0.344-0.344,0.344C16.739,10.715,16.584,10.561,16.584,10.371L16.584,10.371z
			"/>
		<path fill="#FFFFFF" d="M10.775,7.342c-0.113,0.084-0.238,0.152-0.372,0.201l0,0.719C10.43,8.3,10.455,8.34,10.479,8.381
			c0,0,0.13,0.224,0.296,0.51L10.775,7.342z"/>
		<path fill="#FFFFFF" d="M21.05,19.973l-0.886-0.886c0.076-0.083,0.136-0.181,0.177-0.29c0.225-0.611,0.339-1.251,0.339-1.901
			L20.68,3.377h0.236V3.004H10.167v0.372h0.236v1.476c0.135,0.048,0.259,0.116,0.372,0.201V3.377h1.723v6.026
			c0.139-0.08,0.231-0.134,0.231-0.134c0.045-0.026,0.092-0.045,0.141-0.06V3.377h2.458v10.874l-2.458-2.458v-0.992
			c-0.118,0.068-0.244,0.142-0.372,0.216v0.405l-0.432-0.432l1.243-0.721c0.141-0.082,0.228-0.233,0.228-0.396
			c0-0.253-0.205-0.458-0.458-0.458c-0.081,0-0.16,0.021-0.23,0.062l-1.453,0.843l-0.166-0.166l-0.959-1.652
			c-0.273-0.471-0.776-0.76-1.32-0.76c-0.043,0-0.085,0.002-0.127,0.006L3.708,2.631L2.648,3.692l4.726,4.726l-1.035,0.6
			C6.199,9.099,6.097,9.233,6.055,9.39l-0.654,2.462c-0.01,0.036-0.014,0.073-0.014,0.11c0,0.236,0.191,0.427,0.427,0.427
			c0.194,0,0.363-0.13,0.413-0.318l0.617-2.322L7.89,9.142l-1.895,7.136L3.354,17.81C3.166,17.919,3.05,18.12,3.05,18.338
			c0,0.337,0.274,0.61,0.611,0.61c0.108,0,0.213-0.028,0.306-0.082l2.934-1.703c0.14-0.081,0.242-0.215,0.284-0.371l0.881-3.315
			l3.142,0.835l1.686,2.905v0c0.109,0.188,0.31,0.304,0.528,0.304c0.337,0,0.611-0.273,0.611-0.61c0-0.108-0.028-0.213-0.083-0.306
			l-1.856-3.198c-0.081-0.14-0.215-0.242-0.372-0.283v0l-2.501-0.664l0.46-1.732l0.722,0.722l0,1.076
			c0.123,0.033,0.249,0.066,0.372,0.099v-0.803l1.723,1.723v0.082l0.372,0.641v-0.351l2.458,2.458v2.637H12.87v-1.454
			c-0.072-0.061-0.135-0.134-0.184-0.218c0,0-0.073-0.125-0.187-0.323v1.995H11.58c-0.217,0-0.414-0.137-0.489-0.341
			c-0.21-0.569-0.316-1.166-0.316-1.772v-2.451c-0.104-0.028-0.23-0.061-0.372-0.099v2.55c0,0.65,0.114,1.29,0.34,1.901
			c0.129,0.349,0.465,0.584,0.838,0.584h6.757l1.019,1.019H3V21h16.956l0.034,0.034L20.024,21H21v-0.6h-0.377L21.05,19.973z
			 M20.308,3.377l0.001,13.52c0,0.606-0.106,1.203-0.316,1.772c-0.021,0.058-0.053,0.109-0.092,0.155l-1.371-1.371V3.377H20.308z
			 M15.7,3.377h2.458V17.08L15.7,14.623V3.377z M15.7,19.009v-2.265l2.265,2.265H15.7z"/>
		<polygon fill="#EB0000" points="3.708,2.631 2.648,3.692 19.99,21.034 21.05,19.973 3.708,2.631 		"/>
	</g>
</g>
</svg>
