<?xml version="1.0" encoding="utf-8"?>
<!-- Generator: Adobe Illustrator 24.2.0, SVG Export Plug-In . SVG Version: 6.00 Build 0)  -->
<svg version="1.0" xmlns="http://www.w3.org/2000/svg" xmlns:xlink="http://www.w3.org/1999/xlink" x="0px" y="0px"
	 viewBox="0 0 24 24" enable-background="new 0 0 24 24" xml:space="preserve">
<g id="SVG_x5F_24x24pt">
	<path id="backgroundBlue" fill="#2D327D" d="M0,22.5v-21C0,0.675,0.675,0,1.5,0h21C23.325,0,24,0.675,24,1.5v21
		c0,0.825-0.675,1.5-1.5,1.5h-21C0.675,24,0,23.325,0,22.5z"/>
	<g id="content">
		<path fill="#FFFFFF" d="M3.19,20.671"/>
		<path fill="#FFFFFF" d="M4.736,18.015"/>
		<path fill="#FFFFFF" d="M17.92,20.635"/>
		<path fill="#FFFFFF" d="M16.493,18.154"/>
		<path fill="#FFFFFF" d="M20.438,3.031h-2.452c-0.327,0-0.591,0.265-0.591,0.591v5.855c0,0.326,0.264,0.591,0.591,0.591h2.452
			c0.326,0,0.591-0.265,0.591-0.591V3.622C21.029,3.295,20.765,3.031,20.438,3.031z M19.207,9.73
			c-0.139-0.003-0.251-0.122-0.247-0.268c0.003-0.146,0.118-0.261,0.258-0.259c0.14,0.002,0.251,0.122,0.248,0.268
			C19.462,9.617,19.347,9.733,19.207,9.73z M20.55,8.75h-2.676V3.693h2.676V8.75z"/>
		<path fill="#FFFFFF" d="M6.387,14.824h0.48c0.165,0,0.261,0.087,0.261,0.24c0,0.156-0.096,0.245-0.261,0.245h-0.48V14.824
			 M6.116,15.531h0.713c0.402,0,0.572-0.189,0.572-0.432c0-0.211-0.102-0.359-0.291-0.4v-0.004c0.141-0.061,0.222-0.174,0.222-0.33
			c0-0.259-0.183-0.385-0.461-0.385H6.116V15.531 M6.387,14.201h0.443c0.148,0,0.228,0.056,0.228,0.213
			c0,0.139-0.098,0.215-0.228,0.215H6.387V14.201L6.387,14.201z"/>
		<path fill="#FFFFFF" d="M8.598,15.531H8.355v-0.156H8.35c-0.061,0.113-0.196,0.187-0.319,0.187c-0.294,0-0.42-0.148-0.42-0.441
			v-0.713h0.248v0.689c0,0.198,0.08,0.269,0.215,0.269c0.206,0,0.276-0.133,0.276-0.307v-0.652h0.248V15.531L8.598,15.531z"/>
		<path fill="#FFFFFF" d="M9.046,15.17c0.013,0.143,0.122,0.196,0.254,0.196c0.094,0,0.257-0.02,0.25-0.148
			c-0.006-0.13-0.187-0.146-0.367-0.187C9,14.992,8.822,14.927,8.822,14.698c0-0.246,0.265-0.321,0.47-0.321
			c0.23,0,0.439,0.095,0.47,0.345H9.502c-0.022-0.117-0.119-0.15-0.228-0.15c-0.072,0-0.204,0.017-0.204,0.115
			c0,0.121,0.182,0.139,0.365,0.18c0.181,0.041,0.363,0.106,0.363,0.328c0,0.268-0.269,0.365-0.502,0.365
			c-0.283,0-0.493-0.126-0.498-0.391H9.046L9.046,15.17z"/>
		<path fill="#FFFFFF" d="M9.994,14.407h0.248v1.124H9.994V14.407 M9.994,13.979h0.248v0.235H9.994V13.979L9.994,13.979z"/>
		<path fill="#FFFFFF" d="M10.511,14.407h0.235v0.165l0.005,0.004c0.074-0.124,0.202-0.2,0.35-0.2c0.244,0,0.398,0.13,0.398,0.382
			v0.772H11.25v-0.707c-0.004-0.176-0.074-0.252-0.22-0.252c-0.165,0-0.272,0.13-0.272,0.296v0.663h-0.248V14.407L10.511,14.407z"/>
		<path fill="#FFFFFF" d="M11.952,14.87c0.007-0.167,0.124-0.298,0.296-0.298c0.167,0,0.274,0.141,0.283,0.298H11.952
			 M12.778,15.033c0.041-0.337-0.176-0.656-0.53-0.656c-0.335,0-0.543,0.274-0.543,0.593c0,0.346,0.198,0.591,0.55,0.591
			c0.246,0,0.454-0.137,0.509-0.383h-0.235c-0.044,0.124-0.13,0.187-0.274,0.187c-0.206,0-0.302-0.156-0.302-0.332H12.778
			L12.778,15.033z"/>
		<path fill="#FFFFFF" d="M13.154,15.17c0.013,0.143,0.122,0.196,0.255,0.196c0.093,0,0.256-0.02,0.25-0.148
			c-0.006-0.13-0.187-0.146-0.367-0.187c-0.183-0.039-0.361-0.104-0.361-0.333c0-0.246,0.266-0.321,0.47-0.321
			c0.231,0,0.439,0.095,0.47,0.345H13.61c-0.022-0.117-0.119-0.15-0.228-0.15c-0.072,0-0.204,0.017-0.204,0.115
			c0,0.121,0.183,0.139,0.365,0.18c0.18,0.041,0.363,0.106,0.363,0.328c0,0.268-0.269,0.365-0.502,0.365
			c-0.283,0-0.494-0.126-0.498-0.391H13.154L13.154,15.17z"/>
		<path fill="#FFFFFF" d="M14.282,15.17c0.013,0.143,0.122,0.196,0.254,0.196c0.093,0,0.257-0.02,0.25-0.148
			c-0.007-0.13-0.187-0.146-0.367-0.187c-0.182-0.039-0.361-0.104-0.361-0.333c0-0.246,0.265-0.321,0.47-0.321
			c0.23,0,0.439,0.095,0.469,0.345h-0.259c-0.022-0.117-0.119-0.15-0.228-0.15c-0.072,0-0.204,0.017-0.204,0.115
			c0,0.121,0.182,0.139,0.365,0.18c0.181,0.041,0.363,0.106,0.363,0.328c0,0.268-0.269,0.365-0.502,0.365
			c-0.283,0-0.493-0.126-0.498-0.391H14.282L14.282,15.17z"/>
		<path fill="#FFFFFF" d="M18.118,20.517l-1.376-2.395c0,0,0-0.001,0-0.001v-6.636c0-0.186-0.151-0.337-0.336-0.337H4.749
			c-0.185,0-0.337,0.151-0.337,0.337v6.636c0,0.006,0.001,0.012,0.001,0.018l-1.414,2.415H2.999c0,0,0,0.001,0,0.001l-0.001,0.002
			l0.001,0.001c0.004,0.042,0.054,0.457,0.245,0.46h14.64c0.21,0.001,0.236-0.501,0.236-0.501H18.118z M4.842,11.578h11.47v6.449
			H4.842V11.578z M12.76,20.515H8.585c-0.067,0-0.105-0.052-0.084-0.116l0.194-0.602c0.02-0.064,0.092-0.116,0.159-0.116h3.668
			c0.067,0,0.137,0.053,0.155,0.117l0.171,0.6C12.866,20.462,12.826,20.515,12.76,20.515z M16.851,19.386L4.338,19.392
			c-0.067,0-0.095-0.048-0.063-0.106l0.391-0.72c0.032-0.059,0.113-0.107,0.179-0.107h11.496c0.067,0,0.147,0.048,0.18,0.107
			l0.392,0.713C16.946,19.338,16.918,19.386,16.851,19.386z"/>
	</g>
</g>
</svg>
