<?xml version="1.0" encoding="utf-8"?>
<!-- Generator: Adobe Illustrator 24.2.0, SVG Export Plug-In . SVG Version: 6.00 Build 0)  -->
<svg version="1.0" id="Ebene_1" xmlns="http://www.w3.org/2000/svg" xmlns:xlink="http://www.w3.org/1999/xlink" x="0px" y="0px"
	 viewBox="0 0 24 24" enable-background="new 0 0 24 24" xml:space="preserve">
<g id="SVG_x5F_24x24pt">
	<path id="backgroundBlue" fill="#2D327D" d="M0,22.5v-21C0,0.675,0.675,0,1.5,0h21C23.325,0,24,0.675,24,1.5v21
		c0,0.825-0.675,1.5-1.5,1.5h-21C0.675,24,0,23.325,0,22.5z"/>
	<g id="content">
		<path fill-rule="evenodd" clip-rule="evenodd" fill="#FFFFFF" d="M5.253,17.93c-0.082,0.008-0.149,0.082-0.149,0.165v2.815
			c0,0.083,0.067,0.15,0.15,0.15h3.404c0.082,0,0.15-0.067,0.15-0.15V17.73c0-0.082-0.067-0.143-0.149-0.135L5.253,17.93
			L5.253,17.93z"/>
		<path fill-rule="evenodd" clip-rule="evenodd" fill="#FFFFFF" d="M9.972,15.774H8.825v-1.885c0-0.165-0.135-0.3-0.3-0.3H4.882
			l-0.39-1.305c-0.024-0.079-0.043-0.211-0.043-0.294v-1.97c0-0.082,0.067-0.15,0.15-0.15h0.262c0.165,0,0.3-0.135,0.3-0.3V7.192
			c0-0.165-0.135-0.3-0.3-0.3H3.244c-0.165,0-0.3,0.135-0.3,0.3v5.018c0,0.083,0.019,0.215,0.043,0.294l1.382,4.62
			c0.095,0.316,0.441,0.549,0.769,0.516l3.664-0.361h1.169c0.165,0,0.3-0.135,0.3-0.3v-0.905
			C10.272,15.909,10.136,15.774,9.972,15.774 M8.023,15.844L5.926,16.05c-0.164,0.016-0.337-0.1-0.385-0.258l-0.196-0.656
			L5.12,14.383h2.753c0.082,0,0.15,0.068,0.15,0.15V15.844L8.023,15.844z"/>
		<path fill-rule="evenodd" clip-rule="evenodd" fill="#FFFFFF" d="M15.926,17.93c-0.082,0.008-0.149,0.082-0.149,0.165v2.815
			c0,0.083,0.068,0.15,0.15,0.15h3.404c0.083,0,0.15-0.067,0.15-0.15V17.73c0-0.082-0.067-0.143-0.149-0.135L15.926,17.93
			L15.926,17.93z"/>
		<path fill-rule="evenodd" clip-rule="evenodd" fill="#FFFFFF" d="M20.644,15.774h-1.146v-1.885c0-0.165-0.135-0.3-0.3-0.3h-3.642
			l-0.39-1.305c-0.024-0.079-0.043-0.211-0.043-0.294v-1.97c0-0.082,0.068-0.15,0.15-0.15h0.262c0.165,0,0.3-0.135,0.3-0.3V7.192
			c0-0.165-0.135-0.3-0.3-0.3h-1.617c-0.165,0-0.3,0.135-0.3,0.3v5.018c0,0.083,0.019,0.215,0.043,0.294l1.382,4.62
			c0.095,0.316,0.441,0.549,0.769,0.516l3.664-0.361h1.169c0.165,0,0.3-0.135,0.3-0.3v-0.905
			C20.944,15.909,20.809,15.774,20.644,15.774 M18.695,15.844l-2.096,0.206c-0.164,0.016-0.337-0.1-0.385-0.258l-0.196-0.656
			l-0.225-0.753h2.753c0.082,0,0.15,0.068,0.15,0.15V15.844L18.695,15.844z"/>
	</g>
</g>
</svg>
