<?xml version="1.0" encoding="utf-8"?>
<!-- Generator: Adobe Illustrator 24.2.0, SVG Export Plug-In . SVG Version: 6.00 Build 0)  -->
<svg version="1.0" id="Ebene_1" xmlns="http://www.w3.org/2000/svg" xmlns:xlink="http://www.w3.org/1999/xlink" x="0px" y="0px"
	 viewBox="0 0 24 24" enable-background="new 0 0 24 24" xml:space="preserve">
<g id="SVG_x5F_24x24pt">
	<path id="backgroundBlue" fill="#2D327D" d="M0,22.5v-21C0,0.675,0.675,0,1.5,0h21C23.325,0,24,0.675,24,1.5v21
		c0,0.825-0.675,1.5-1.5,1.5h-21C0.675,24,0,23.325,0,22.5z"/>
	<g id="content">
		<polygon fill="#FFFFFF" points="21.073,20.936 3.073,20.936 3.073,20.636 21.073,20.636 21.073,20.936 		"/>
		<path fill="#FFFFFF" d="M11.912,10.853c-0.165,0-0.3,0.135-0.3,0.3v0.93c0,0.049,0.041,0.09,0.09,0.09h0.42
			c0.05,0,0.09-0.041,0.09-0.09v-0.93C12.212,10.988,12.077,10.853,11.912,10.853L11.912,10.853z"/>
		<path fill="#FFFFFF" d="M13.595,12.626c-0.019-0.166-0.169-0.303-0.334-0.303h-1.034c-0.05,0-0.09,0.041-0.09,0.09v7.591
			c0,0.05,0.041,0.09,0.09,0.09h1.034c0.165,0,0.315-0.136,0.334-0.303c0,0,0.157-1.408,0.157-3.583
			C13.752,14.034,13.595,12.626,13.595,12.626L13.595,12.626z"/>
		<path fill="#FFFFFF" d="M11.597,12.323h-1.034c-0.165,0-0.315,0.136-0.334,0.303c0,0-0.157,1.408-0.157,3.582
			c0,2.174,0.157,3.583,0.157,3.583c0.019,0.166,0.169,0.303,0.334,0.303h1.034c0.05,0,0.09-0.04,0.09-0.09v-7.591
			C11.687,12.364,11.647,12.323,11.597,12.323L11.597,12.323z"/>
		<path fill="#FFFFFF" d="M11.001,2.936H9.447c-0.264,0-0.48,0.216-0.48,0.48v2.34c0,0.099,0.06,0.234,0.134,0.3L9.842,6.72
			c0.074,0.066,0.134,0.201,0.134,0.3v0.133c0,0.099-0.026,0.257-0.058,0.351l-1.616,4.787c-0.032,0.094-0.139,0.171-0.237,0.171
			H4.153c-0.264,0-0.48,0.164-0.48,0.364c0,0.2,0,0.364,0,0.364s0,0.073,0,0.161c0,0.089,0.081,0.161,0.18,0.161h3.858
			c0.099,0,0.154,0.077,0.122,0.17l-0.231,0.685l-0.194,0.574c-0.031,0.093-0.057,0.249-0.057,0.348v0.267
			c0,0.047-0.018,0.087-0.05,0.11c-0.032,0.023-0.075,0.027-0.12,0.012l-0.256-0.087c-0.098-0.031-0.25-0.056-0.345-0.056H3.553
			c-0.264,0-0.48,0.216-0.48,0.48v1.14c0,0.264,0.216,0.48,0.48,0.48H8.14c0.264,0,0.538-0.208,0.608-0.463l0.386-1.39l2.299-8.278
			c0.026-0.096,0.048-0.255,0.048-0.353V3.417C11.481,3.152,11.265,2.936,11.001,2.936 M11.241,7.153
			c0,0.077-0.019,0.215-0.039,0.289l-2.685,9.667c-0.042,0.15-0.221,0.287-0.377,0.287H3.553c-0.133,0-0.24-0.108-0.24-0.24v-1.14
			c0-0.132,0.108-0.24,0.24-0.24h3.026c0.071,0,0.197,0.02,0.27,0.043l0.254,0.086c0.12,0.04,0.242,0.024,0.338-0.045
			c0.095-0.069,0.15-0.18,0.15-0.305v-0.267c0-0.072,0.022-0.204,0.045-0.272l0.26-0.769l0.165-0.49
			c0.04-0.119,0.024-0.242-0.045-0.337c-0.069-0.095-0.18-0.15-0.305-0.15c0,0-3.682,0-3.798,0c0-0.041,0-0.082,0-0.082v-0.364
			c0-0.044,0.091-0.124,0.24-0.124h3.912c0.201,0,0.401-0.143,0.465-0.334l1.616-4.787c0.04-0.118,0.07-0.302,0.07-0.427V7.02
			c0-0.166-0.09-0.368-0.214-0.479L9.261,5.878c-0.023-0.02-0.054-0.091-0.054-0.121v-2.34c0-0.132,0.108-0.24,0.24-0.24h1.554
			c0.133,0,0.24,0.108,0.24,0.24V7.153L11.241,7.153z"/>
		<path fill="#FFFFFF" d="M12.504,3.251v3.737c0,0.099,0.022,0.258,0.048,0.353l2.299,8.278l0.386,1.39
			c0.071,0.254,0.345,0.462,0.609,0.462h4.587c0.264,0,0.48-0.216,0.48-0.48v-1.14c0-0.264-0.216-0.48-0.48-0.48h-3.026
			c-0.096,0-0.247,0.024-0.345,0.056l-0.256,0.087c-0.045,0.015-0.089,0.011-0.121-0.012c-0.032-0.023-0.05-0.063-0.05-0.111v-0.267
			c0-0.099-0.026-0.255-0.057-0.348l-0.194-0.574l-0.231-0.685c-0.032-0.094,0.023-0.17,0.122-0.17h3.858
			c0.099,0,0.18-0.073,0.18-0.161c0-0.088,0-0.161,0-0.161s0-0.164,0-0.364c0-0.2-0.216-0.364-0.48-0.364H15.92
			c-0.099,0-0.206-0.077-0.237-0.171l-1.616-4.787c-0.032-0.094-0.057-0.252-0.057-0.35V6.854c0-0.099,0.06-0.234,0.134-0.3
			l0.741-0.663c0.074-0.066,0.134-0.201,0.134-0.3v-2.34c0-0.264-0.216-0.48-0.48-0.48h-1.554
			C12.72,2.771,12.504,2.987,12.504,3.251 M12.744,3.251c0-0.132,0.108-0.24,0.24-0.24h1.554c0.133,0,0.24,0.108,0.24,0.24v2.34
			c0,0.031-0.032,0.101-0.054,0.121l-0.741,0.663c-0.124,0.111-0.214,0.313-0.214,0.479v0.133c0,0.125,0.03,0.309,0.07,0.427
			l1.616,4.787c0.064,0.19,0.264,0.334,0.465,0.334h3.913c0.149,0,0.24,0.08,0.24,0.124v0.364c0,0,0,0.041,0,0.082
			c-0.116,0-3.798,0-3.798,0c-0.125,0-0.237,0.055-0.305,0.15c-0.068,0.096-0.084,0.218-0.045,0.337l0.165,0.49l0.26,0.769
			c0.023,0.068,0.044,0.2,0.045,0.272v0.267c0,0.126,0.055,0.237,0.15,0.305c0.095,0.069,0.218,0.085,0.337,0.045l0.254-0.086
			c0.073-0.023,0.199-0.043,0.27-0.043h3.026c0.132,0,0.24,0.107,0.24,0.24v1.14c0,0.132-0.108,0.24-0.24,0.24h-4.587
			c-0.156,0-0.335-0.136-0.377-0.287l-2.685-9.667c-0.02-0.074-0.039-0.212-0.039-0.289V3.251L12.744,3.251z"/>
	</g>
</g>
</svg>
