<?xml version="1.0" encoding="utf-8"?>
<!-- Generator: Adobe Illustrator 24.2.0, SVG Export Plug-In . SVG Version: 6.00 Build 0)  -->
<svg version="1.0" id="Ebene_1" xmlns="http://www.w3.org/2000/svg" xmlns:xlink="http://www.w3.org/1999/xlink" x="0px" y="0px"
	 viewBox="0 0 24 24" enable-background="new 0 0 24 24" xml:space="preserve">
<g id="SVG_x5F_24x24pt">
	<path id="backgroundBlue" fill="#2D327D" d="M0,22.5v-21C0,0.675,0.675,0,1.5,0h21C23.325,0,24,0.675,24,1.5v21
		c0,0.825-0.675,1.5-1.5,1.5h-21C0.675,24,0,23.325,0,22.5z"/>
	<g id="content">
		<path fill="#FFFFFF" d="M13.657,18.649l2.198,2.196h5.216v-6.573c0-0.29-0.236-0.523-0.522-0.523c-0.013,0-0.025,0-0.038,0.001
			c-0.046,0.001-0.093,0.009-0.135,0.026c-0.332,0.122-0.554,0.439-0.554,0.794v0.015v1.825c0,0.225-0.183,0.406-0.406,0.406h-1.058
			c-0.166,0-0.324-0.066-0.442-0.184l-3.406-3.404c-0.224-0.228-0.591-0.228-0.818-0.001c-0.225,0.226-0.225,0.593,0,0.819
			l3.622,3.62l-0.199,0.199l-3.237-3.235l-0.22,0.219c-0.093,0.094-0.146,0.222-0.146,0.354c0,0.133,0.053,0.26,0.146,0.353
			l2.895,2.894l-0.2,0.199l-2.475-2.474l-0.22,0.22c-0.093,0.095-0.146,0.221-0.146,0.353c0,0.133,0.053,0.26,0.146,0.354
			l2.12,2.119l-0.197,0.2l-1.703-1.701l-0.22,0.22c-0.093,0.095-0.146,0.221-0.146,0.353C13.511,18.427,13.564,18.554,13.657,18.649
			L13.657,18.649z"/>
		<path fill="#FFFFFF" d="M10.486,18.649l-2.199,2.196H3.071v-6.573c0-0.29,0.235-0.523,0.523-0.523c0.013,0,0.025,0,0.038,0.001
			c0.045,0.001,0.091,0.009,0.135,0.026c0.333,0.122,0.554,0.439,0.554,0.794v0.015v1.825c0,0.225,0.182,0.406,0.406,0.406h1.059
			c0.166,0,0.324-0.066,0.44-0.184l3.406-3.404c0.225-0.228,0.592-0.228,0.819-0.001c0.225,0.226,0.225,0.593,0,0.819l-3.621,3.62
			l0.198,0.199l3.236-3.235l0.222,0.219c0.093,0.094,0.146,0.222,0.146,0.354c0,0.133-0.053,0.26-0.146,0.353L7.591,18.45
			l0.199,0.199l2.474-2.474l0.222,0.22c0.093,0.095,0.146,0.221,0.146,0.353c0,0.133-0.053,0.26-0.146,0.354l-2.121,2.119l0.198,0.2
			l1.7-1.701l0.222,0.22c0.093,0.095,0.146,0.221,0.146,0.353C10.631,18.427,10.578,18.554,10.486,18.649L10.486,18.649z"/>
		<path fill="#FFFFFF" d="M3.808,10.02c0-0.232-0.15-0.438-0.237-0.566C3.494,9.341,3.454,9.277,3.454,9.189
			c0-0.236,0.222-0.394,0.29-0.437c0.295-0.185,0.458-0.442,0.458-0.722c0-0.28-0.163-0.537-0.458-0.723
			c-0.187-0.118-0.29-0.267-0.29-0.42s0.103-0.302,0.29-0.42c0.295-0.186,0.458-0.442,0.458-0.723c0-0.28-0.163-0.537-0.458-0.723
			c-0.187-0.118-0.29-0.267-0.29-0.42c0-0.153,0.103-0.302,0.29-0.42c0.295-0.186,0.458-0.443,0.458-0.723
			c0-0.28-0.163-0.537-0.458-0.722L3.553,3.04c0.187,0.118,0.29,0.266,0.29,0.419c0,0.153-0.103,0.302-0.291,0.42
			C3.258,4.065,3.095,4.321,3.095,4.602c0,0.28,0.163,0.537,0.458,0.723c0.188,0.118,0.291,0.267,0.291,0.42
			c0,0.153-0.103,0.301-0.29,0.42C3.258,6.35,3.095,6.607,3.095,6.887c0,0.28,0.163,0.536,0.458,0.722
			c0.187,0.118,0.29,0.267,0.29,0.42c0,0.153-0.103,0.301-0.29,0.419C3.446,8.516,3.095,8.769,3.095,9.189
			c0,0.203,0.096,0.344,0.18,0.467c0.072,0.106,0.14,0.209,0.173,0.364H2.932l0.714,1.237L4.36,10.02H3.808L3.808,10.02z"/>
		<path fill="#FFFFFF" d="M6.215,10.02c0-0.232-0.15-0.438-0.237-0.566C5.901,9.341,5.86,9.277,5.86,9.189
			c0-0.236,0.222-0.394,0.291-0.437c0.295-0.185,0.458-0.442,0.458-0.722c0-0.28-0.163-0.537-0.458-0.723
			C5.963,7.188,5.86,7.039,5.86,6.887s0.103-0.302,0.29-0.42c0.295-0.186,0.459-0.442,0.459-0.723c0-0.28-0.163-0.537-0.459-0.723
			c-0.187-0.118-0.29-0.267-0.29-0.42c0-0.153,0.103-0.302,0.29-0.42c0.295-0.186,0.459-0.443,0.459-0.723
			c0-0.28-0.163-0.537-0.459-0.722L5.96,3.04c0.187,0.118,0.291,0.266,0.291,0.419c0,0.153-0.104,0.302-0.291,0.42
			C5.665,4.065,5.502,4.321,5.502,4.602c0,0.28,0.163,0.537,0.458,0.723c0.188,0.118,0.291,0.267,0.291,0.42
			c0,0.153-0.104,0.301-0.291,0.42C5.665,6.35,5.502,6.607,5.502,6.887c0,0.28,0.163,0.536,0.458,0.722
			c0.187,0.118,0.291,0.267,0.291,0.42c0,0.153-0.104,0.301-0.291,0.419C5.853,8.516,5.502,8.769,5.502,9.189
			c0,0.203,0.096,0.344,0.18,0.467c0.072,0.106,0.14,0.209,0.172,0.364H5.339l0.714,1.237l0.714-1.237H6.215L6.215,10.02z"/>
		<path fill="#FFFFFF" d="M15.843,10.02c0-0.232-0.15-0.438-0.237-0.566c-0.077-0.113-0.117-0.177-0.117-0.266
			c0-0.236,0.222-0.394,0.29-0.437c0.296-0.185,0.458-0.442,0.458-0.722c0-0.28-0.162-0.537-0.458-0.723
			c-0.187-0.118-0.29-0.267-0.29-0.42s0.103-0.302,0.29-0.42c0.296-0.186,0.458-0.442,0.458-0.723c0-0.28-0.162-0.537-0.458-0.723
			c-0.187-0.118-0.29-0.267-0.29-0.42c0-0.153,0.103-0.302,0.29-0.42c0.296-0.186,0.458-0.443,0.458-0.723
			c0-0.28-0.162-0.537-0.458-0.722l-0.19,0.303c0.187,0.118,0.29,0.266,0.29,0.419c0,0.153-0.103,0.302-0.291,0.42
			c-0.295,0.186-0.458,0.442-0.458,0.722c0,0.28,0.163,0.537,0.458,0.723c0.188,0.118,0.291,0.267,0.291,0.42
			c0,0.153-0.103,0.301-0.29,0.42C15.293,6.35,15.13,6.607,15.13,6.887c0,0.28,0.163,0.536,0.458,0.722
			c0.187,0.118,0.29,0.267,0.29,0.42c0,0.153-0.103,0.301-0.29,0.419C15.48,8.516,15.13,8.769,15.13,9.189
			c0,0.203,0.096,0.344,0.18,0.467c0.072,0.106,0.139,0.209,0.172,0.364h-0.515l0.714,1.237l0.714-1.237H15.843L15.843,10.02z"/>
		<path fill="#FFFFFF" d="M20.657,10.02c0-0.232-0.15-0.438-0.237-0.566c-0.077-0.113-0.117-0.177-0.117-0.266
			c0-0.236,0.222-0.394,0.291-0.437c0.295-0.185,0.458-0.442,0.458-0.722c0-0.28-0.162-0.537-0.458-0.723
			c-0.187-0.118-0.291-0.267-0.291-0.42s0.103-0.302,0.29-0.42c0.296-0.186,0.458-0.442,0.458-0.723c0-0.28-0.162-0.537-0.458-0.723
			c-0.187-0.118-0.29-0.267-0.29-0.42c0-0.153,0.103-0.302,0.29-0.42c0.296-0.186,0.458-0.443,0.458-0.723
			c0-0.28-0.162-0.537-0.458-0.722l-0.19,0.303c0.187,0.118,0.29,0.266,0.29,0.419c0,0.153-0.103,0.302-0.291,0.42
			c-0.295,0.186-0.458,0.442-0.458,0.722c0,0.28,0.163,0.537,0.458,0.723c0.188,0.118,0.291,0.267,0.291,0.42
			c0,0.153-0.103,0.301-0.29,0.42c-0.296,0.186-0.458,0.443-0.458,0.723c0,0.28,0.163,0.536,0.458,0.722
			c0.187,0.118,0.29,0.267,0.29,0.42c0,0.153-0.103,0.301-0.29,0.419c-0.108,0.068-0.458,0.321-0.458,0.741
			c0,0.203,0.096,0.344,0.18,0.467c0.072,0.106,0.139,0.209,0.172,0.364h-0.515l0.714,1.237l0.714-1.237H20.657L20.657,10.02z"/>
		<path fill="#FFFFFF" d="M18.25,10.02c0-0.232-0.15-0.438-0.237-0.566c-0.077-0.113-0.117-0.177-0.117-0.266
			c0-0.236,0.222-0.394,0.291-0.437c0.295-0.185,0.457-0.442,0.457-0.722c0-0.28-0.163-0.537-0.457-0.723
			c-0.188-0.118-0.291-0.267-0.291-0.42s0.103-0.302,0.29-0.42c0.295-0.186,0.458-0.442,0.458-0.723c0-0.28-0.163-0.537-0.458-0.723
			c-0.187-0.118-0.29-0.267-0.29-0.42c0-0.153,0.103-0.302,0.29-0.42c0.295-0.186,0.458-0.443,0.458-0.723
			c0-0.28-0.163-0.537-0.458-0.722l-0.19,0.303c0.187,0.118,0.29,0.266,0.29,0.419c0,0.153-0.103,0.302-0.291,0.42
			c-0.295,0.186-0.458,0.442-0.458,0.722c0,0.28,0.163,0.537,0.458,0.723c0.187,0.118,0.291,0.267,0.291,0.42
			c0,0.153-0.103,0.301-0.29,0.42C17.7,6.35,17.537,6.607,17.537,6.887c0,0.28,0.163,0.536,0.458,0.722
			c0.187,0.118,0.29,0.267,0.29,0.42c0,0.153-0.103,0.301-0.29,0.419c-0.108,0.068-0.458,0.321-0.458,0.741
			c0,0.203,0.096,0.344,0.18,0.467c0.071,0.106,0.139,0.209,0.172,0.364h-0.516l0.715,1.237l0.714-1.237H18.25L18.25,10.02z"/>
		<path fill="#FFFFFF" d="M11.029,10.02c0-0.232-0.15-0.438-0.237-0.566c-0.077-0.113-0.117-0.177-0.117-0.266
			c0-0.236,0.222-0.394,0.291-0.437c0.295-0.185,0.458-0.442,0.458-0.722c0-0.28-0.163-0.537-0.458-0.723
			c-0.188-0.118-0.291-0.267-0.291-0.42s0.103-0.302,0.29-0.42c0.296-0.186,0.458-0.442,0.458-0.723c0-0.28-0.163-0.537-0.458-0.723
			c-0.187-0.118-0.29-0.267-0.29-0.42c0-0.153,0.103-0.302,0.29-0.42c0.296-0.186,0.458-0.443,0.458-0.723
			c0-0.28-0.163-0.537-0.458-0.722L10.774,3.04c0.187,0.118,0.29,0.266,0.29,0.419c0,0.153-0.103,0.302-0.29,0.42
			c-0.296,0.186-0.458,0.442-0.458,0.722c0,0.28,0.163,0.537,0.458,0.723c0.187,0.118,0.29,0.267,0.29,0.42
			c0,0.153-0.103,0.301-0.29,0.42c-0.296,0.186-0.458,0.443-0.458,0.723c0,0.28,0.163,0.536,0.458,0.722
			c0.187,0.118,0.29,0.267,0.29,0.42c0,0.153-0.103,0.301-0.29,0.419c-0.108,0.068-0.458,0.321-0.458,0.741
			c0,0.203,0.096,0.344,0.18,0.467c0.072,0.106,0.139,0.209,0.172,0.364h-0.515l0.714,1.237l0.714-1.237H11.029L11.029,10.02z"/>
		<path fill="#FFFFFF" d="M8.622,10.02c0-0.232-0.15-0.438-0.237-0.566C8.308,9.341,8.268,9.277,8.268,9.189
			c0-0.236,0.222-0.394,0.291-0.437c0.295-0.185,0.457-0.442,0.457-0.722c0-0.28-0.163-0.537-0.457-0.723
			c-0.188-0.118-0.291-0.267-0.291-0.42s0.103-0.302,0.29-0.42c0.295-0.186,0.458-0.442,0.458-0.723c0-0.28-0.163-0.537-0.458-0.723
			c-0.187-0.118-0.29-0.267-0.29-0.42c0-0.153,0.103-0.302,0.29-0.42c0.295-0.186,0.458-0.443,0.458-0.723
			c0-0.28-0.163-0.537-0.458-0.722L8.367,3.04c0.187,0.118,0.29,0.266,0.29,0.419c0,0.153-0.103,0.302-0.291,0.42
			C8.072,4.065,7.909,4.321,7.909,4.602c0,0.28,0.163,0.537,0.458,0.723c0.188,0.118,0.291,0.267,0.291,0.42
			c0,0.153-0.103,0.301-0.29,0.42C8.072,6.35,7.909,6.607,7.909,6.887c0,0.28,0.163,0.536,0.459,0.722
			c0.187,0.118,0.29,0.267,0.29,0.42c0,0.153-0.103,0.301-0.29,0.419C8.26,8.516,7.909,8.769,7.909,9.189
			c0,0.203,0.096,0.344,0.18,0.467C8.16,9.761,8.228,9.865,8.262,10.02H7.746l0.714,1.237l0.715-1.237H8.622L8.622,10.02z"/>
		<path fill="#FFFFFF" d="M13.436,10.02c0-0.232-0.15-0.438-0.237-0.566c-0.077-0.113-0.117-0.177-0.117-0.266
			c0-0.236,0.222-0.394,0.291-0.437c0.295-0.185,0.457-0.442,0.457-0.722c0-0.28-0.162-0.537-0.457-0.723
			c-0.188-0.118-0.291-0.267-0.291-0.42s0.103-0.302,0.29-0.42c0.296-0.186,0.458-0.442,0.458-0.723c0-0.28-0.162-0.537-0.458-0.723
			c-0.187-0.118-0.29-0.267-0.29-0.42c0-0.153,0.103-0.302,0.29-0.42c0.296-0.186,0.458-0.443,0.458-0.723
			c0-0.28-0.162-0.537-0.458-0.722L13.181,3.04c0.187,0.118,0.29,0.266,0.29,0.419c0,0.153-0.103,0.302-0.29,0.42
			c-0.295,0.186-0.457,0.442-0.457,0.722c0,0.28,0.162,0.537,0.457,0.723c0.188,0.118,0.29,0.267,0.29,0.42
			c0,0.153-0.103,0.301-0.29,0.42c-0.295,0.186-0.458,0.443-0.458,0.723c0,0.28,0.162,0.536,0.458,0.722
			c0.187,0.118,0.29,0.267,0.29,0.42c0,0.153-0.103,0.301-0.29,0.419c-0.108,0.068-0.458,0.321-0.458,0.741
			c0,0.203,0.095,0.344,0.179,0.467c0.072,0.106,0.139,0.209,0.172,0.364H12.56l0.715,1.237l0.714-1.237H13.436L13.436,10.02z"/>
	</g>
</g>
</svg>
