<?xml version="1.0" encoding="utf-8"?>
<!-- Generator: Adobe Illustrator 24.2.0, SVG Export Plug-In . SVG Version: 6.00 Build 0)  -->
<svg version="1.0" id="Ebene_4" xmlns="http://www.w3.org/2000/svg" xmlns:xlink="http://www.w3.org/1999/xlink" x="0px" y="0px"
	 viewBox="0 0 24 24" enable-background="new 0 0 24 24" xml:space="preserve">
<g id="SVG_x5F_24x24pt">
	<path id="backgroundBlue" fill="#2D327D" d="M0,22.5v-21C0,0.675,0.675,0,1.5,0h21C23.325,0,24,0.675,24,1.5v21
		c0,0.825-0.675,1.5-1.5,1.5h-21C0.675,24,0,23.325,0,22.5z"/>
	<g id="content">
		<path fill="#FFFFFF" d="M19.144,3.003H6.001c0,0,1.847,2.735,1.847,11.545h1.898c0-0.001,0-0.001,0.001-0.002h0.484
			c0.048-0.548,0.412-1.025,0.939-1.212c0.092-0.032,0.188-0.048,0.284-0.048c0.473,0,0.858,0.385,0.858,0.858v0.403h2.155h6.524
			C21.013,5.738,19.144,3.003,19.144,3.003z"/>
		<g>
			<path fill="#FFFFFF" d="M4.822,21l-1.508-1.508c-0.126-0.126-0.196-0.296-0.196-0.472c0-0.177,0.07-0.347,0.196-0.473
				l0.209-0.209l1.98,1.981l0.227-0.227l-2.425-2.425c-0.126-0.124-0.195-0.295-0.196-0.472c0-0.178,0.07-0.347,0.196-0.472
				l0.209-0.21l2.898,2.898l0.226-0.227l-3.342-3.343C3.17,15.715,3.1,15.547,3.1,15.368c0-0.175,0.07-0.346,0.196-0.47l0.21-0.211
				l3.814,3.815l0.227-0.227l-4.331-4.331c-0.13-0.13-0.202-0.307-0.202-0.491c0-0.383,0.31-0.692,0.692-0.692
				c0.183,0,0.36,0.072,0.49,0.203l4.115,4.114c0.139,0.139,0.327,0.218,0.524,0.218h1.174c0.287,0,0.519-0.233,0.519-0.519V14.67
				c0-0.472,0.296-0.891,0.741-1.049c0.059-0.02,0.122-0.031,0.186-0.031c0.306,0,0.556,0.249,0.556,0.556V21H4.822L4.822,21z"/>
		</g>
	</g>
</g>
</svg>
