<?xml version="1.0" encoding="utf-8"?>
<!-- Generator: Adobe Illustrator 24.2.0, SVG Export Plug-In . SVG Version: 6.00 Build 0)  -->
<svg version="1.0" xmlns="http://www.w3.org/2000/svg" xmlns:xlink="http://www.w3.org/1999/xlink" x="0px" y="0px"
	 viewBox="0 0 24 24" enable-background="new 0 0 24 24" xml:space="preserve">
<g id="SVG_x5F_24x24pt">
	<path id="backgroundBlue" fill="#2D327D" d="M0,22.5v-21C0,0.675,0.675,0,1.5,0h21C23.325,0,24,0.675,24,1.5v21
		c0,0.825-0.675,1.5-1.5,1.5h-21C0.675,24,0,23.325,0,22.5z"/>
	<g id="content">
		<circle fill="#FFFFFF" cx="6.728" cy="10.564" r="0.206"/>
		<circle fill="#FFFFFF" cx="7.225" cy="9.854" r="0.206"/>
		<circle fill="#FFFFFF" cx="7.722" cy="9.144" r="0.206"/>
		<circle fill="#FFFFFF" cx="8.22" cy="8.434" r="0.206"/>
		<circle fill="#FFFFFF" cx="8.717" cy="7.724" r="0.206"/>
		<circle fill="#FFFFFF" cx="9.214" cy="7.014" r="0.206"/>
		<circle fill="#FFFFFF" cx="9.711" cy="6.304" r="0.206"/>
		<circle fill="#FFFFFF" cx="10.208" cy="5.594" r="0.206"/>
		<circle fill="#FFFFFF" cx="10.705" cy="4.884" r="0.206"/>
		<circle fill="#FFFFFF" cx="11.24" cy="4.044" r="0.206"/>
		<circle fill="#FFFFFF" cx="11.267" cy="3.443" r="0.206"/>
		<circle fill="#FFFFFF" cx="5.782" cy="10.106" r="0.206"/>
		<circle fill="#FFFFFF" cx="6.323" cy="9.462" r="0.206"/>
		<circle fill="#FFFFFF" cx="6.863" cy="8.817" r="0.206"/>
		<circle fill="#FFFFFF" cx="7.404" cy="8.173" r="0.206"/>
		<circle fill="#FFFFFF" cx="7.945" cy="7.529" r="0.206"/>
		<circle fill="#FFFFFF" cx="8.485" cy="6.884" r="0.206"/>
		<circle fill="#FFFFFF" cx="9.026" cy="6.24" r="0.206"/>
		<circle fill="#FFFFFF" cx="9.567" cy="5.596" r="0.206"/>
		<circle fill="#FFFFFF" cx="10.107" cy="4.951" r="0.206"/>
		<circle fill="#FFFFFF" cx="10.685" cy="4.242" r="0.206"/>
		<circle fill="#FFFFFF" cx="9.384" cy="11.472" r="0.206"/>
		<circle fill="#FFFFFF" cx="9.676" cy="10.67" r="0.206"/>
		<circle fill="#FFFFFF" cx="9.968" cy="9.869" r="0.206"/>
		<circle fill="#FFFFFF" cx="10.26" cy="9.067" r="0.206"/>
		<circle fill="#FFFFFF" cx="10.551" cy="8.265" r="0.206"/>
		<circle fill="#FFFFFF" cx="10.843" cy="7.463" r="0.206"/>
		<circle fill="#FFFFFF" cx="11.135" cy="6.661" r="0.206"/>
		<circle fill="#FFFFFF" cx="11.427" cy="5.859" r="0.206"/>
		<circle fill="#FFFFFF" cx="12" cy="3.249" r="0.206"/>
		<circle fill="#FFFFFF" cx="8.706" cy="10.818" r="0.206"/>
		<circle fill="#FFFFFF" cx="9.076" cy="10.025" r="0.206"/>
		<circle fill="#FFFFFF" cx="9.445" cy="9.233" r="0.206"/>
		<circle fill="#FFFFFF" cx="9.815" cy="8.44" r="0.206"/>
		<circle fill="#FFFFFF" cx="10.184" cy="7.648" r="0.206"/>
		<circle fill="#FFFFFF" cx="10.554" cy="6.856" r="0.206"/>
		<circle fill="#FFFFFF" cx="10.923" cy="6.063" r="0.206"/>
		<circle fill="#FFFFFF" cx="11.737" cy="4.348" r="0.206"/>
		<circle fill="#FFFFFF" cx="11.33" cy="5.206" r="0.206"/>
		<circle fill="#FFFFFF" cx="10.758" cy="5.429" r="0.206"/>
		<circle fill="#FFFFFF" cx="11.23" cy="4.613" r="0.206"/>
		<circle fill="#FFFFFF" cx="6.855" cy="12.191" r="0.206"/>
		<circle fill="#FFFFFF" cx="7.288" cy="11.439" r="0.206"/>
		<circle fill="#FFFFFF" cx="7.722" cy="10.688" r="0.206"/>
		<circle fill="#FFFFFF" cx="8.156" cy="9.937" r="0.206"/>
		<circle fill="#FFFFFF" cx="8.59" cy="9.185" r="0.206"/>
		<circle fill="#FFFFFF" cx="9.023" cy="8.434" r="0.206"/>
		<circle fill="#FFFFFF" cx="9.457" cy="7.683" r="0.206"/>
		<circle fill="#FFFFFF" cx="9.891" cy="6.931" r="0.206"/>
		<circle fill="#FFFFFF" cx="10.325" cy="6.18" r="0.206"/>
		<circle fill="#FFFFFF" cx="11.739" cy="3.731" r="0.206"/>
		<circle fill="#FFFFFF" cx="12.733" cy="3.443" r="0.206"/>
		<circle fill="#FFFFFF" cx="17.272" cy="10.564" r="0.206"/>
		<circle fill="#FFFFFF" cx="16.775" cy="9.854" r="0.206"/>
		<circle fill="#FFFFFF" cx="16.278" cy="9.144" r="0.206"/>
		<circle fill="#FFFFFF" cx="15.78" cy="8.434" r="0.206"/>
		<circle fill="#FFFFFF" cx="15.283" cy="7.724" r="0.206"/>
		<circle fill="#FFFFFF" cx="14.786" cy="7.014" r="0.206"/>
		<circle fill="#FFFFFF" cx="14.289" cy="6.304" r="0.206"/>
		<circle fill="#FFFFFF" cx="13.792" cy="5.594" r="0.206"/>
		<circle fill="#FFFFFF" cx="13.295" cy="4.884" r="0.206"/>
		<circle fill="#FFFFFF" cx="12.76" cy="4.044" r="0.206"/>
		<circle fill="#FFFFFF" cx="18.218" cy="10.106" r="0.206"/>
		<circle fill="#FFFFFF" cx="17.677" cy="9.462" r="0.206"/>
		<circle fill="#FFFFFF" cx="17.137" cy="8.817" r="0.206"/>
		<circle fill="#FFFFFF" cx="16.596" cy="8.173" r="0.206"/>
		<circle fill="#FFFFFF" cx="16.055" cy="7.529" r="0.206"/>
		<circle fill="#FFFFFF" cx="15.515" cy="6.884" r="0.206"/>
		<circle fill="#FFFFFF" cx="14.974" cy="6.24" r="0.206"/>
		<circle fill="#FFFFFF" cx="14.433" cy="5.596" r="0.206"/>
		<circle fill="#FFFFFF" cx="13.893" cy="4.951" r="0.206"/>
		<circle fill="#FFFFFF" cx="13.315" cy="4.242" r="0.206"/>
		<circle fill="#FFFFFF" cx="14.616" cy="11.472" r="0.206"/>
		<circle fill="#FFFFFF" cx="14.324" cy="10.67" r="0.206"/>
		<circle fill="#FFFFFF" cx="14.032" cy="9.869" r="0.206"/>
		<circle fill="#FFFFFF" cx="13.74" cy="9.067" r="0.206"/>
		<circle fill="#FFFFFF" cx="13.449" cy="8.265" r="0.206"/>
		<circle fill="#FFFFFF" cx="13.157" cy="7.463" r="0.206"/>
		<circle fill="#FFFFFF" cx="12.865" cy="6.661" r="0.206"/>
		<circle fill="#FFFFFF" cx="12.573" cy="5.859" r="0.206"/>
		<circle fill="#FFFFFF" cx="12" cy="4.928" r="0.206"/>
		<circle fill="#FFFFFF" cx="15.294" cy="10.818" r="0.206"/>
		<circle fill="#FFFFFF" cx="14.924" cy="10.025" r="0.206"/>
		<circle fill="#FFFFFF" cx="14.555" cy="9.233" r="0.206"/>
		<circle fill="#FFFFFF" cx="14.185" cy="8.44" r="0.206"/>
		<circle fill="#FFFFFF" cx="13.816" cy="7.648" r="0.206"/>
		<circle fill="#FFFFFF" cx="13.446" cy="6.856" r="0.206"/>
		<circle fill="#FFFFFF" cx="13.077" cy="6.063" r="0.206"/>
		<circle fill="#FFFFFF" cx="12.263" cy="4.348" r="0.206"/>
		<circle fill="#FFFFFF" cx="12.67" cy="5.206" r="0.206"/>
		<circle fill="#FFFFFF" cx="13.242" cy="5.429" r="0.206"/>
		<circle fill="#FFFFFF" cx="12.77" cy="4.613" r="0.206"/>
		<circle fill="#FFFFFF" cx="17.145" cy="12.191" r="0.206"/>
		<circle fill="#FFFFFF" cx="16.712" cy="11.439" r="0.206"/>
		<circle fill="#FFFFFF" cx="16.278" cy="10.688" r="0.206"/>
		<circle fill="#FFFFFF" cx="15.844" cy="9.937" r="0.206"/>
		<circle fill="#FFFFFF" cx="15.41" cy="9.185" r="0.206"/>
		<circle fill="#FFFFFF" cx="14.977" cy="8.434" r="0.206"/>
		<circle fill="#FFFFFF" cx="14.543" cy="7.683" r="0.206"/>
		<circle fill="#FFFFFF" cx="14.109" cy="6.931" r="0.206"/>
		<circle fill="#FFFFFF" cx="13.675" cy="6.18" r="0.206"/>
		<circle fill="#FFFFFF" cx="12.261" cy="3.731" r="0.206"/>
		<circle fill="#FFFFFF" cx="12" cy="2.456" r="0.206"/>
		<circle fill="#FFFFFF" cx="11.611" cy="2.884" r="0.206"/>
		<circle fill="#FFFFFF" cx="12.389" cy="2.884" r="0.206"/>
		<path fill="#FFFFFF" d="M8.247,20.998l2.199-2.196c0.107-0.108,0.168-0.254,0.167-0.404c0-0.151-0.06-0.297-0.167-0.404
			l-0.179-0.179l-1.696,1.696l-0.194-0.194l2.077-2.077c0.107-0.106,0.167-0.252,0.167-0.404c0-0.152-0.06-0.297-0.167-0.404
			l-0.179-0.18l-2.481,2.481l-0.194-0.194l2.862-2.862c0.108-0.108,0.167-0.252,0.167-0.405c0-0.15-0.06-0.297-0.167-0.403
			l-0.179-0.18l-3.266,3.266L6.821,17.76l3.708-3.708c0.111-0.111,0.173-0.263,0.173-0.42c0-0.328-0.265-0.593-0.593-0.593
			c-0.157,0-0.308,0.062-0.419,0.173l-3.523,3.522c-0.118,0.119-0.28,0.187-0.449,0.187H4.713c-0.246,0-0.445-0.199-0.444-0.444
			v-1.804c0-0.404-0.253-0.763-0.635-0.898c-0.05-0.018-0.103-0.027-0.159-0.027C3.214,13.748,3,13.962,3,14.224v6.774L8.247,21
			V20.998z"/>
		<path fill="#FFFFFF" d="M15.754,20.998l-2.199-2.196c-0.107-0.108-0.168-0.254-0.167-0.404c0-0.151,0.06-0.297,0.167-0.404
			l0.179-0.179l1.696,1.696l0.194-0.194l-2.077-2.077c-0.108-0.106-0.168-0.252-0.168-0.404c0-0.152,0.06-0.297,0.168-0.404
			l0.179-0.18l2.481,2.481l0.194-0.194l-2.862-2.862c-0.108-0.108-0.167-0.252-0.167-0.405c0-0.15,0.06-0.297,0.167-0.403l0.18-0.18
			l3.266,3.266l0.194-0.194l-3.708-3.708c-0.111-0.111-0.173-0.263-0.173-0.42c0-0.328,0.265-0.593,0.594-0.593
			c0.156,0,0.308,0.062,0.419,0.173l3.522,3.522c0.118,0.119,0.28,0.187,0.449,0.187h1.005c0.246,0,0.445-0.199,0.444-0.444v-1.804
			c0-0.404,0.254-0.763,0.635-0.898c0.05-0.018,0.103-0.027,0.159-0.027c0.261,0,0.475,0.213,0.475,0.476v6.774L15.754,21V20.998z"
			/>
	</g>
</g>
</svg>
