<?xml version="1.0" encoding="utf-8"?>
<!-- Generator: Adobe Illustrator 24.2.0, SVG Export Plug-In . SVG Version: 6.00 Build 0)  -->
<svg version="1.0" id="Ebene_1" xmlns="http://www.w3.org/2000/svg" xmlns:xlink="http://www.w3.org/1999/xlink" x="0px" y="0px"
	 viewBox="0 0 24 24" enable-background="new 0 0 24 24" xml:space="preserve">
<g id="SVG_x5F_24x24pt">
	<path id="backgroundBlue" fill="#2D327D" d="M0,22.5v-21C0,0.675,0.675,0,1.5,0h21C23.325,0,24,0.675,24,1.5v21
		c0,0.825-0.675,1.5-1.5,1.5h-21C0.675,24,0,23.325,0,22.5z"/>
	<g id="content">
		<polygon fill="#FFFFFF" points="13.5,3 13.5,10.501 5.251,10.501 5.251,13.425 3,13.425 3,3 13.5,3 		"/>
		<path fill="#FFFFFF" d="M16.124,11.925c-0.947,0-1.789,0.604-2.095,1.5h-2.937c-0.305-0.897-1.146-1.5-2.094-1.5
			c-0.947,0-1.79,0.604-2.094,1.5H5.999v-2.251h8.626V5.249h4.746c0.517,0,0.966,0.352,1.091,0.852l0.503,2.015
			c0.023,0.089,0.034,0.18,0.034,0.272v5.037h-2.78C17.914,12.529,17.072,11.925,16.124,11.925L16.124,11.925z M20.064,7.65
			c0-0.031-0.004-0.061-0.011-0.091l-0.281-1.123c-0.074-0.301-0.345-0.511-0.654-0.511h-1.494c-0.206,0-0.374,0.168-0.374,0.375
			v1.35c0,0.206,0.168,0.374,0.374,0.374h2.065C19.896,8.025,20.064,7.857,20.064,7.65L20.064,7.65z"/>
		<polygon fill="#FFFFFF" points="3,16.2 20.994,16.2 20.994,17.325 3,17.325 3,16.2 		"/>
		<polygon fill="#FFFFFF" points="3,20.325 21.003,20.325 21.003,21 3,21 3,20.325 		"/>
		<path fill="#FFFFFF" d="M8.994,12.463c0.932,0,1.687,0.756,1.687,1.687c0,0.931-0.755,1.688-1.687,1.688
			c-0.932,0-1.687-0.757-1.687-1.688C7.306,13.219,8.062,12.463,8.994,12.463L8.994,12.463z M8.994,15.088
			c0.517,0,0.938-0.42,0.938-0.938c0-0.517-0.421-0.937-0.938-0.937c-0.518,0-0.938,0.42-0.938,0.937
			C8.055,14.668,8.476,15.088,8.994,15.088L8.994,15.088z"/>
		<path fill="#FFFFFF" d="M16.186,12.463c0.931,0,1.687,0.756,1.687,1.687c0,0.931-0.756,1.688-1.687,1.688
			c-0.932,0-1.688-0.757-1.688-1.688C14.498,13.219,15.254,12.463,16.186,12.463L16.186,12.463z M16.186,15.088
			c0.517,0,0.936-0.42,0.936-0.938c0-0.517-0.419-0.937-0.936-0.937c-0.519,0-0.938,0.42-0.938,0.937
			C15.248,14.668,15.667,15.088,16.186,15.088L16.186,15.088z"/>
		<path fill="#FFFFFF" d="M4.482,18.77c0-0.6,0.487-1.086,1.088-1.086c0.6,0,1.087,0.487,1.087,1.086
			c0,0.601-0.487,1.088-1.087,1.088C4.968,19.858,4.482,19.371,4.482,18.77L4.482,18.77z"/>
		<path fill="#FFFFFF" d="M7.392,18.77c0-0.6,0.488-1.086,1.088-1.086c0.6,0,1.088,0.487,1.088,1.086
			c0,0.601-0.488,1.088-1.088,1.088C7.88,19.858,7.392,19.371,7.392,18.77L7.392,18.77z"/>
		<path fill="#FFFFFF" d="M14.413,18.77c0-0.6,0.487-1.086,1.087-1.086c0.6,0,1.088,0.487,1.088,1.086
			c0,0.601-0.488,1.088-1.088,1.088C14.9,19.858,14.413,19.371,14.413,18.77L14.413,18.77z"/>
		<path fill="#FFFFFF" d="M17.324,18.77c0-0.6,0.487-1.086,1.088-1.086c0.6,0,1.087,0.487,1.087,1.086
			c0,0.601-0.487,1.088-1.087,1.088C17.811,19.858,17.324,19.371,17.324,18.77L17.324,18.77z"/>
	</g>
</g>
</svg>
