<?xml version="1.0" encoding="utf-8"?>
<!-- Generator: Adobe Illustrator 24.2.0, SVG Export Plug-In . SVG Version: 6.00 Build 0)  -->
<svg version="1.0" id="Ebene_1" xmlns="http://www.w3.org/2000/svg" xmlns:xlink="http://www.w3.org/1999/xlink" x="0px" y="0px"
	 viewBox="0 0 24 24" enable-background="new 0 0 24 24" xml:space="preserve">
<g id="SVG_x5F_24x24pt">
	<path id="backgroundBlue" fill="#2D327D" d="M0,22.5v-21C0,0.675,0.675,0,1.5,0h21C23.325,0,24,0.675,24,1.5v21
		c0,0.825-0.675,1.5-1.5,1.5h-21C0.675,24,0,23.325,0,22.5z"/>
	<g id="content">
		<polygon fill="#FFFFFF" points="10.5,3 10.5,10.501 18.749,10.501 18.749,13.426 21.001,13.426 21.001,3 10.5,3 		"/>
		<path fill="#FFFFFF" d="M7.875,11.925c0.947,0,1.789,0.604,2.095,1.5h2.937c0.305-0.897,1.146-1.5,2.094-1.5
			c0.947,0,1.79,0.604,2.094,1.5h0.907v-2.251H9.375V5.249H4.629c-0.516,0-0.966,0.352-1.091,0.852L3.035,8.117
			C3.011,8.206,3,8.297,3,8.389v5.037h2.78C6.085,12.529,6.927,11.925,7.875,11.925L7.875,11.925z M3.935,7.65
			c0-0.031,0.004-0.061,0.011-0.091l0.281-1.123c0.074-0.301,0.345-0.511,0.654-0.511h1.494c0.206,0,0.374,0.168,0.374,0.375v1.35
			c0,0.206-0.168,0.374-0.374,0.374H4.31C4.103,8.025,3.935,7.857,3.935,7.65L3.935,7.65z"/>
		<polygon fill="#FFFFFF" points="3,16.2 21.001,16.2 21.001,17.325 3,17.325 3,16.2 		"/>
		<polygon fill="#FFFFFF" points="3,20.325 21.001,20.325 21.001,21 3,21 3,20.325 		"/>
		<path fill="#FFFFFF" d="M15.006,12.463c-0.932,0-1.687,0.756-1.687,1.687c0,0.931,0.755,1.688,1.687,1.688
			c0.932,0,1.687-0.757,1.687-1.688C16.693,13.219,15.937,12.463,15.006,12.463L15.006,12.463z M15.006,15.088
			c-0.517,0-0.938-0.42-0.938-0.938c0-0.517,0.421-0.937,0.938-0.937c0.518,0,0.938,0.42,0.938,0.937
			C15.944,14.668,15.523,15.088,15.006,15.088L15.006,15.088z"/>
		<path fill="#FFFFFF" d="M7.813,12.463c-0.931,0-1.687,0.756-1.687,1.687c0,0.931,0.756,1.688,1.687,1.688
			c0.932,0,1.688-0.757,1.688-1.688C9.501,13.219,8.745,12.463,7.813,12.463L7.813,12.463z M7.813,15.088
			c-0.517,0-0.936-0.42-0.936-0.938c0-0.517,0.419-0.937,0.936-0.937c0.519,0,0.938,0.42,0.938,0.937
			C8.752,14.668,8.332,15.088,7.813,15.088L7.813,15.088z"/>
		<path fill="#FFFFFF" d="M19.518,18.77c0-0.6-0.487-1.086-1.088-1.086c-0.6,0-1.087,0.487-1.087,1.086
			c0,0.601,0.487,1.088,1.087,1.088C19.031,19.858,19.518,19.371,19.518,18.77L19.518,18.77z"/>
		<path fill="#FFFFFF" d="M16.607,18.77c0-0.6-0.488-1.086-1.088-1.086c-0.6,0-1.088,0.487-1.088,1.086
			c0,0.601,0.488,1.088,1.088,1.088C16.119,19.858,16.607,19.371,16.607,18.77L16.607,18.77z"/>
		<path fill="#FFFFFF" d="M9.586,18.77c0-0.6-0.487-1.086-1.087-1.086S7.411,18.17,7.411,18.77c0,0.601,0.488,1.088,1.088,1.088
			S9.586,19.371,9.586,18.77L9.586,18.77z"/>
		<path fill="#FFFFFF" d="M6.675,18.77c0-0.6-0.487-1.086-1.088-1.086c-0.6,0-1.087,0.487-1.087,1.086
			c0,0.601,0.487,1.088,1.087,1.088C6.189,19.858,6.675,19.371,6.675,18.77L6.675,18.77z"/>
	</g>
</g>
</svg>
