<?xml version="1.0" encoding="utf-8"?>
<!-- Generator: Adobe Illustrator 24.2.0, SVG Export Plug-In . SVG Version: 6.00 Build 0)  -->
<svg version="1.0" id="Ebene_1" xmlns="http://www.w3.org/2000/svg" xmlns:xlink="http://www.w3.org/1999/xlink" x="0px" y="0px"
	 viewBox="0 0 24 24" enable-background="new 0 0 24 24" xml:space="preserve">
<g id="SVG_x5F_24x24pt">
	<path id="backgroundBlue" fill="#2D327D" d="M0,22.5v-21C0,0.675,0.675,0,1.5,0h21C23.325,0,24,0.675,24,1.5v21
		c0,0.825-0.675,1.5-1.5,1.5h-21C0.675,24,0,23.325,0,22.5z"/>
	<g id="content">
		<g>
			<path fill="#FFFFFF" d="M5.288,14.175C3.912,14.69,3,16.006,3,17.475C3,19.421,4.579,21,6.525,21c1.455,0,2.76-0.893,3.286-2.25
				h2.264c0.413,0,0.751-0.336,0.751-0.75v-0.932l2-2.955l0.41,0.64c-0.814,0.67-1.286,1.668-1.286,2.722
				c0,1.946,1.579,3.526,3.525,3.526C19.421,21,21,19.421,21,17.475c0-1.945-1.579-3.525-3.525-3.525
				c-0.536,0-1.063,0.122-1.545,0.356l-0.518-0.806h0.675l0.659-0.974c0.038-0.056,0.059-0.122,0.059-0.189
				c0-0.186-0.151-0.337-0.337-0.337h-1.842l-3.3,4.875h-0.751l-2.024-3.001H5.513c-0.125,0-0.225,0.101-0.225,0.226V14.175
				L5.288,14.175z M14.888,17.475c0-0.735,0.312-1.435,0.859-1.926l1.381,2.149c0.075,0.119,0.207,0.19,0.347,0.19
				c0.228,0,0.413-0.185,0.413-0.413c0-0.078-0.023-0.156-0.066-0.223l-1.38-2.149c0.325-0.142,0.677-0.215,1.033-0.215
				c1.428,0,2.587,1.159,2.587,2.587c0,1.429-1.159,2.589-2.587,2.589C16.047,20.064,14.888,18.904,14.888,17.475L14.888,17.475z
				 M6.525,20.064c-1.429,0-2.588-1.16-2.588-2.589c0-0.931,0.502-1.792,1.314-2.251V18c0,0.414,0.335,0.75,0.749,0.75h2.777
				C8.317,19.562,7.457,20.064,6.525,20.064L6.525,20.064z"/>
			<path fill="#FFFFFF" d="M8.812,13.5H5.25v-0.749c0-0.166,0.134-0.301,0.299-0.301h3.413c0.165,0,0.3,0.135,0.3,0.301
				c0,0.06-0.02,0.12-0.053,0.169L8.812,13.5L8.812,13.5z"/>
			<path fill="#FFFFFF" d="M16.724,11.588h-2.662v-0.675h2.662c0.187,0,0.337,0.151,0.337,0.338
				C17.062,11.436,16.911,11.588,16.724,11.588L16.724,11.588z"/>
		</g>
		<g>
			<path fill="#FFFFFF" d="M3,3h1.816c0.306,0,0.546,0.019,0.722,0.057c0.175,0.038,0.334,0.105,0.476,0.202
				c0.392,0.263,0.588,0.659,0.588,1.188c0,0.47-0.162,0.839-0.486,1.108C5.977,5.67,5.82,5.752,5.644,5.803
				C5.467,5.853,5.25,5.878,4.991,5.878h-1.01V7.5H3V3z M3.982,3.831v1.274h0.877c0.261,0,0.448-0.046,0.563-0.139
				c0.142-0.115,0.212-0.284,0.212-0.508c0-0.226-0.082-0.394-0.246-0.505C5.269,3.872,5.076,3.831,4.807,3.831H3.982z"/>
		</g>
	</g>
</g>
</svg>
