<?xml version="1.0" encoding="utf-8"?>
<!-- Generator: Adobe Illustrator 24.2.0, SVG Export Plug-In . SVG Version: 6.00 Build 0)  -->
<svg version="1.0" id="Ebene_1" xmlns="http://www.w3.org/2000/svg" xmlns:xlink="http://www.w3.org/1999/xlink" x="0px" y="0px"
	 viewBox="0 0 24 24" enable-background="new 0 0 24 24" xml:space="preserve">
<g id="SVG_x5F_24x24pt">
	<path id="backgroundBlue" fill="#2D327D" d="M0,22.5v-21C0,0.675,0.675,0,1.5,0h21C23.325,0,24,0.675,24,1.5v21
		c0,0.825-0.675,1.5-1.5,1.5h-21C0.675,24,0,23.325,0,22.5z"/>
	<g id="content">
		<path fill="#FFFFFF" d="M18.712,14.174V14.1c0-0.124-0.1-0.226-0.225-0.226h-3.038l-2.024,3.001h-0.751L9.375,12H7.533
			c-0.186,0-0.337,0.151-0.337,0.337c0,0.068,0.021,0.134,0.059,0.189L7.913,13.5h0.675L8.07,14.306
			c-0.481-0.235-1.009-0.356-1.545-0.356C4.579,13.95,3,15.529,3,17.474C3,19.421,4.579,21,6.525,21
			c1.946,0,3.525-1.579,3.525-3.526c0-1.054-0.472-2.052-1.286-2.722l0.41-0.64l2,2.955V18c0,0.414,0.337,0.75,0.751,0.75h2.264
			C14.715,20.107,16.02,21,17.475,21C19.421,21,21,19.421,21,17.474C21,16.005,20.088,14.69,18.712,14.174L18.712,14.174z
			 M9.112,17.474c0,1.429-1.159,2.589-2.587,2.589c-1.428,0-2.587-1.16-2.587-2.589c0-1.428,1.159-2.587,2.587-2.587
			c0.356,0,0.708,0.073,1.033,0.215l-1.38,2.149c-0.043,0.067-0.066,0.145-0.066,0.223c0,0.228,0.185,0.413,0.413,0.413
			c0.14,0,0.272-0.072,0.347-0.19l1.381-2.149C8.8,16.04,9.112,16.739,9.112,17.474L9.112,17.474z M17.475,20.063
			c-0.932,0-1.792-0.501-2.251-1.313H18c0.413,0,0.749-0.336,0.749-0.75v-2.776c0.812,0.459,1.314,1.319,1.314,2.251
			C20.063,18.903,18.904,20.063,17.475,20.063L17.475,20.063z"/>
		<path fill="#FFFFFF" d="M15.188,13.5h3.562v-0.749c0-0.166-0.134-0.301-0.299-0.301h-3.413c-0.165,0-0.3,0.135-0.3,0.301
			c0,0.06,0.02,0.12,0.053,0.169L15.188,13.5L15.188,13.5z"/>
		<path fill="#FFFFFF" d="M7.276,11.587h2.662v-0.675H7.276c-0.187,0-0.337,0.151-0.337,0.338
			C6.938,11.436,7.089,11.587,7.276,11.587L7.276,11.587z"/>
		<g>
			<path fill="#FFFFFF" d="M3,3h1.816c0.306,0,0.546,0.019,0.722,0.057c0.175,0.038,0.334,0.105,0.476,0.202
				c0.392,0.263,0.588,0.659,0.588,1.188c0,0.47-0.162,0.839-0.486,1.108C5.977,5.67,5.82,5.752,5.644,5.803
				C5.467,5.853,5.25,5.878,4.991,5.878h-1.01V7.5H3V3z M3.982,3.831v1.274h0.877c0.261,0,0.448-0.046,0.563-0.139
				c0.142-0.115,0.212-0.284,0.212-0.508c0-0.226-0.082-0.394-0.246-0.505C5.269,3.872,5.076,3.831,4.807,3.831H3.982z"/>
		</g>
	</g>
</g>
</svg>
