<?xml version="1.0" encoding="utf-8"?>
<!-- Generator: Adobe Illustrator 24.2.0, SVG Export Plug-In . SVG Version: 6.00 Build 0)  -->
<svg version="1.0" id="Ebene_3" xmlns="http://www.w3.org/2000/svg" xmlns:xlink="http://www.w3.org/1999/xlink" x="0px" y="0px"
	 viewBox="0 0 24 24" enable-background="new 0 0 24 24" xml:space="preserve">
<g id="SVG_x5F_24x24pt">
	<path id="backgroundBlue" fill="#2D327D" d="M0,22.5v-21C0,0.675,0.675,0,1.5,0h21C23.325,0,24,0.675,24,1.5v21
		c0,0.825-0.675,1.5-1.5,1.5h-21C0.675,24,0,23.325,0,22.5z"/>
	<g id="content">
		<path fill="#FFFFFF" d="M14.843,20.994h5.52c0.352,0,0.638-0.285,0.638-0.637V17.13c0-0.351-0.286-0.637-0.638-0.637h-1.74v-0.275
			c0-0.294-0.238-0.532-0.531-0.532h-0.977c-0.292,0-0.53,0.238-0.53,0.532v0.275h-1.741c-0.351,0-0.637,0.286-0.637,0.637v3.227
			C14.206,20.709,14.492,20.994,14.843,20.994L14.843,20.994z M16.966,16.069h1.274v0.425h-1.274V16.069L16.966,16.069z"/>
		<path fill="#FFFFFF" d="M13.753,10.143c0,0.655,0.533,1.187,1.187,1.187c0.655,0,1.187-0.532,1.187-1.187
			c0-0.654-0.533-1.187-1.187-1.187C14.285,8.956,13.753,9.488,13.753,10.143 M14.095,10.143c0-0.466,0.379-0.844,0.844-0.844
			c0.466,0,0.844,0.379,0.844,0.844c0,0.465-0.379,0.844-0.844,0.844C14.474,10.987,14.095,10.608,14.095,10.143L14.095,10.143z"/>
		<path fill="#FFFFFF" d="M16.802,10.143c0,0.655,0.532,1.187,1.187,1.187c0.655,0,1.187-0.532,1.187-1.187
			c0-0.654-0.533-1.187-1.187-1.187C17.334,8.956,16.802,9.488,16.802,10.143 M17.145,10.143c0-0.466,0.379-0.844,0.844-0.844
			c0.465,0,0.844,0.379,0.844,0.844c0,0.465-0.379,0.844-0.844,0.844C17.524,10.987,17.145,10.608,17.145,10.143L17.145,10.143z"/>
		<path fill="#FFFFFF" d="M13.106,6.08c0.103,0.961,0.492,1.837,1.082,2.539h4.582c0.59-0.702,0.98-1.578,1.082-2.539H13.106
			L13.106,6.08z"/>
		<path fill="#FFFFFF" d="M16.027,5.741c0.186,0,0.262-0.132,0.169-0.293l-1.419-2.457c-0.961,0.556-1.623,1.574-1.681,2.75H16.027
			L16.027,5.741z"/>
		<path fill="#FFFFFF" d="M20.865,5.607h-2.031v0.271h2.031C20.939,5.878,21,5.817,21,5.742C21,5.668,20.939,5.607,20.865,5.607
			L20.865,5.607z"/>
		<path fill-rule="evenodd" clip-rule="evenodd" fill="#FFFFFF" d="M5.48,5.791l-0.01-2.4c0-0.225-0.149-0.408-0.332-0.408H3.348
			c-0.183,0-0.332,0.184-0.332,0.408v3.753c0,0-0.018,0.133,0.101,0.62c0.119,0.487,2.479,8.948,2.479,8.948
			s0.211,0.844,0.617,0.861c0.406,0.016,1.64,0,1.64,0L4.67,7.943c0,0-0.341-0.796-0.211-1.007C4.589,6.725,5.303,6.06,5.303,6.06
			S5.481,5.913,5.48,5.791z"/>
		<path fill-rule="evenodd" clip-rule="evenodd" fill="#FFFFFF" d="M9.372,16.683c0.16-0.137,0.061-0.586,0.061-0.586l-0.476-4.339
			c-0.017-0.224-0.18-0.396-0.362-0.382l-1.268,0.097c-0.182,0.014-0.317,0.208-0.3,0.433l0.406,3.24c0,0,0.522,1.669,0.728,2.268
			C8.161,17.414,9.213,16.82,9.372,16.683z"/>
		<path fill-rule="evenodd" clip-rule="evenodd" fill="#FFFFFF" d="M7.593,20.628c0,0.202-0.111,0.366-0.247,0.366H6.233
			c-0.137,0-0.247-0.164-0.247-0.366v-2.3c0-0.202,0.111-0.365,0.247-0.365h1.112c0.137,0,0.247,0.164,0.247,0.365V20.628z"/>
		<path fill="#FFFFFF" d="M11.031,11.468h0.675c-0.058-1.811-1.51-3.276-3.316-3.353V8.113H8.285c-0.015,0-0.029-0.001-0.044-0.001
			v0.001H7.642C7.638,8.11,7.633,8.107,7.628,8.106L8.39,7.35H7.513L6.429,8.434l1.085,1.084H8.39L7.649,8.783h0.592v0.001
			C9.745,8.784,10.972,9.979,11.031,11.468z"/>
	</g>
</g>
</svg>
