<?xml version="1.0" encoding="utf-8"?>
<!-- Generator: Adobe Illustrator 24.2.0, SVG Export Plug-In . SVG Version: 6.00 Build 0)  -->
<svg version="1.0" id="Ebene_1" xmlns="http://www.w3.org/2000/svg" xmlns:xlink="http://www.w3.org/1999/xlink" x="0px" y="0px"
	 viewBox="0 0 24 24" enable-background="new 0 0 24 24" xml:space="preserve">
<g id="SVG_x5F_24x24pt">
	<path id="backgroundBlue" fill="#2D327D" d="M0,22.5v-21C0,0.675,0.675,0,1.5,0h21C23.325,0,24,0.675,24,1.5v21
		c0,0.825-0.675,1.5-1.5,1.5h-21C0.675,24,0,23.325,0,22.5z"/>
	<g id="content">
		<g>
			<path fill="#FFFFFF" d="M17.896,13.593c-1.196,0-2.169,0.972-2.169,2.167v0.566c0.116-0.118,0.242-0.228,0.378-0.327l0.042-0.031
				l0.042,0.031c0.081,0.059,0.165,0.111,0.25,0.161v-0.4c0-0.803,0.654-1.456,1.457-1.456c0.804,0,1.458,0.653,1.458,1.456v0.4
				c0.085-0.05,0.169-0.102,0.249-0.161l0.042-0.031l0.042,0.031c0.136,0.099,0.261,0.209,0.377,0.327v-0.566
				C20.064,14.565,19.092,13.593,17.896,13.593z"/>
		</g>
		<g>
			<path fill="#FFFFFF" d="M20.787,2.236c-0.41-0.41-0.954-0.636-1.534-0.636h-0.001c-0.578,0-1.122,0.225-1.531,0.634l-0.828,0.828
				c-0.067,0.067-0.104,0.156-0.104,0.252l0,0c0,0.095,0.037,0.184,0.104,0.252C16.96,3.633,17.05,3.67,17.145,3.67
				s0.184-0.037,0.252-0.104l0.828-0.828c0.568-0.567,1.492-0.567,2.06,0.001c0.568,0.569,0.568,1.493,0.001,2.06l-0.35,0.35
				c0.178,0.161,0.335,0.341,0.469,0.537l0.384-0.385c0.409-0.409,0.634-0.953,0.634-1.531C21.423,3.191,21.197,2.646,20.787,2.236z
				"/>
		</g>
		<g>
			<path fill="#EB0000" d="M6.124,15.557c-1.604,0-2.904,1.3-2.904,2.904c0,1.604,1.3,2.904,2.904,2.904
				c1.604,0,2.904-1.3,2.904-2.904C9.028,16.857,7.727,15.557,6.124,15.557z"/>
		</g>
		<g>
			<path fill="#237F52" d="M6.124,4.505c-1.604,0-2.904,1.3-2.904,2.904c0,1.604,1.3,2.904,2.904,2.904
				c1.604,0,2.904-1.3,2.904-2.904C9.028,5.805,7.727,4.505,6.124,4.505z"/>
		</g>
		<g>
			<path fill="#FFFFFF" d="M13.286,7.203h-2.56V6.685h2.56V7.203z M13.286,8.229h-2.56V7.712h2.56V8.229z"/>
		</g>
		<g>
			<path fill="#FFFFFF" d="M13.286,18.18h-2.56v-0.518h2.56V18.18z M13.286,19.206h-2.56v-0.518h2.56V19.206z"/>
		</g>
		<g>
			<g>
				<path fill="#FFFFFF" d="M19.639,5.092c-0.514,0.36-1.114,0.553-1.743,0.553c-0.629,0-1.229-0.193-1.743-0.553
					c-0.726,0.547-1.16,1.409-1.16,2.318c0,1.601,1.302,2.903,2.903,2.903s2.903-1.302,2.903-2.903
					C20.799,6.501,20.365,5.639,19.639,5.092z M18.163,8.908v0.69c0,0.147-0.12,0.267-0.267,0.267c-0.148,0-0.267-0.12-0.267-0.267
					v-0.69c-0.119-0.084-0.198-0.222-0.198-0.379c0-0.257,0.208-0.465,0.465-0.465s0.465,0.208,0.465,0.465
					C18.36,8.686,18.282,8.825,18.163,8.908z"/>
			</g>
		</g>
		<path fill="#FFFFFF" d="M19.639,16.144c-0.513,0.36-1.114,0.553-1.743,0.553c-0.63,0-1.23-0.193-1.743-0.553
			c-0.726,0.547-1.16,1.409-1.16,2.318c0,1.601,1.302,2.903,2.903,2.903c1.601,0,2.903-1.302,2.903-2.903
			C20.799,17.553,20.365,16.691,19.639,16.144z M18.163,19.961v0.69c0,0.148-0.12,0.267-0.267,0.267
			c-0.147,0-0.267-0.119-0.267-0.267v-0.69c-0.119-0.084-0.197-0.222-0.197-0.379c0-0.257,0.208-0.465,0.465-0.465
			c0.257,0,0.465,0.208,0.465,0.465C18.36,19.738,18.282,19.877,18.163,19.961z"/>
	</g>
</g>
</svg>
