<?xml version="1.0" encoding="utf-8"?>
<!-- Generator: Adobe Illustrator 24.2.0, SVG Export Plug-In . SVG Version: 6.00 Build 0)  -->
<svg version="1.0" id="Ebene_5" xmlns="http://www.w3.org/2000/svg" xmlns:xlink="http://www.w3.org/1999/xlink" x="0px" y="0px"
	 viewBox="0 0 24 24" enable-background="new 0 0 24 24" xml:space="preserve">
<g id="SVG_x5F_24x24pt">
	<path id="backgroundBlue" fill="#2D327D" d="M0,22.5v-21C0,0.675,0.675,0,1.5,0h21C23.325,0,24,0.675,24,1.5v21
		c0,0.825-0.675,1.5-1.5,1.5h-21C0.675,24,0,23.325,0,22.5z"/>
	<g id="content">
		<path fill="#FFFFFF" d="M14.502,16.604c0-0.511-0.414-0.926-0.925-0.926c-0.165,0-0.32,0.044-0.455,0.12
			c-0.142-0.37-0.501-0.633-0.921-0.633c-0.212,0-0.409,0.068-0.57,0.182c0-0.004,0.001-0.008,0.001-0.012
			c0-0.615-0.499-1.114-1.114-1.114s-1.114,0.499-1.114,1.114c0,0.109,0.016,0.213,0.045,0.312c-0.078-0.02-0.159-0.031-0.243-0.031
			c-0.545,0-0.988,0.442-0.988,0.988c0,0.15,0.034,0.292,0.094,0.419c-0.191,0.089-0.324,0.282-0.324,0.506
			c0,0.309,0.25,0.559,0.56,0.559c0.154,0,0.294-0.063,0.395-0.164c0.116,0.461,0.532,0.803,1.029,0.803
			c0.299,0,0.569-0.124,0.763-0.324c0.098,0.374,0.437,0.65,0.841,0.65c0.391,0,0.722-0.258,0.832-0.613
			c0.117,0.053,0.246,0.084,0.384,0.084c0.511,0,0.925-0.414,0.925-0.925c0-0.028-0.002-0.055-0.004-0.082
			C14.16,17.452,14.502,17.068,14.502,16.604z"/>
		<path fill="#FFFFFF" d="M10.105,13.833L7.239,8.855L6.881,9.062c-0.214,0.12-0.369,0.325-0.433,0.561
			c-0.065,0.24-0.032,0.491,0.092,0.705l2.539,4.41C9.263,14.299,9.64,13.961,10.105,13.833z"/>
		<path fill="#FFFFFF" d="M8.842,15.218l-2.252-3.909l-0.357,0.206C6.02,11.637,5.864,11.838,5.8,12.077
			c-0.063,0.238-0.032,0.491,0.093,0.704l1.951,3.387C7.992,15.705,8.369,15.343,8.842,15.218z"/>
		<path fill="#FFFFFF" d="M18.305,10.254c-0.086-0.023-0.174-0.031-0.26-0.025c-0.653,0.051-1.203,0.507-1.373,1.14l-0.761,2.827
			c-0.103,0.385-0.5,0.613-0.884,0.51l-1.577-0.424c-0.265-0.072-0.489-0.245-0.625-0.482L8.787,6.791
			C8.661,6.569,8.449,6.408,8.203,6.342c-0.514-0.138-1.041,0.166-1.18,0.68C6.957,7.267,6.99,7.531,7.117,7.753l3.471,6.026
			c0.619,0.027,1.146,0.416,1.372,0.962c0.079-0.014,0.16-0.02,0.241-0.02c0.439,0,0.849,0.205,1.117,0.538
			c0.085-0.016,0.172-0.025,0.259-0.025c0.756,0,1.371,0.615,1.371,1.372c0,0.545-0.329,1.03-0.807,1.248
			c-0.119,0.636-0.678,1.119-1.348,1.119c-0.051,0-0.102-0.003-0.152-0.009c-0.242,0.333-0.632,0.538-1.063,0.538
			c-0.391,0-0.75-0.173-0.994-0.454c-0.189,0.084-0.396,0.128-0.61,0.128c-0.509,0-0.969-0.254-1.243-0.655
			c-0.059,0.011-0.12,0.016-0.181,0.016c-0.554,0-1.006-0.451-1.006-1.005c0-0.227,0.079-0.443,0.214-0.616l-1.815-3.152
			l-0.356,0.205c-0.214,0.123-0.37,0.326-0.434,0.563c-0.064,0.237-0.031,0.491,0.092,0.705l1.172,2.094l2.058,3.678H16.2
			l2.65-9.806C18.961,10.789,18.716,10.364,18.305,10.254z"/>
	</g>
</g>
</svg>
