<?xml version="1.0" encoding="utf-8"?>
<!-- Generator: Adobe Illustrator 24.2.0, SVG Export Plug-In . SVG Version: 6.00 Build 0)  -->
<svg version="1.0" xmlns="http://www.w3.org/2000/svg" xmlns:xlink="http://www.w3.org/1999/xlink" x="0px" y="0px"
	 viewBox="0 0 24 24" enable-background="new 0 0 24 24" xml:space="preserve">
<g id="SVG_x5F_24x24pt">
	<path id="backgroundBlue" fill="#2D327D" d="M0,22.5v-21C0,0.675,0.675,0,1.5,0h21C23.325,0,24,0.675,24,1.5v21
		c0,0.825-0.675,1.5-1.5,1.5h-21C0.675,24,0,23.325,0,22.5z"/>
	<g id="content">
		<path fill="#FFFFFF" d="M12.158,7.131c0.827,0,1.499-0.671,1.499-1.499c0-0.827-0.672-1.498-1.499-1.498
			c-0.827,0-1.498,0.671-1.498,1.498C10.659,6.46,11.331,7.131,12.158,7.131z"/>
		<path fill="#FFFFFF" d="M21,12.38C21,12.38,21,12.38,21,12.38L21,12.38c0-0.212-0.171-0.38-0.383-0.38h-4.231
			c-0.212,0-0.382,0.168-0.383,0.38h0l0,0c0,0,0,0,0,0l0,0c0,0,0,0,0,0c0,0,0,0,0,0c0,0,0,0,0,0.001c0,0,0,0,0,0.001c0,0,0,0,0,0
			c0,0,0,0,0,0l0,0c0,0,0,0,0,0l0,0h0c0,0.015,0.003,0.03,0.005,0.045c-0.002,0.016-0.005,0.031-0.005,0.047v2.452l0.766,0.766
			v-2.93h3.847c0.212,0,0.382-0.168,0.383-0.38h0l0,0c0,0,0,0,0,0l0,0h0C21,12.382,21,12.381,21,12.38C21,12.381,21,12.381,21,12.38
			z"/>
		<path fill="#FFFFFF" d="M10.322,16.921l5.554,0l-0.763-0.763H9.955c-0.107,0-0.203,0.043-0.273,0.113
			c-0.077,0.07-0.126,0.17-0.126,0.283v3.685l-0.003-0.001H3.383C3.171,20.237,3,20.406,3,20.618C3,20.83,3.171,21,3.383,21l6.556,0
			c0.212,0,0.384-0.168,0.384-0.38l0,0c0-0.001,0-0.002,0-0.003V16.921z"/>
		<path fill="#FFFFFF" d="M13.697,9.378c0-0.912-0.739-1.651-1.65-1.651c-0.01,0-0.02,0.001-0.03,0.002l0-0.002
			c-0.054,0.001-0.108,0.006-0.161,0.012c-0.38,0.046-0.73,0.222-0.992,0.496c-0.032,0.034-0.062,0.069-0.092,0.105
			c-0.033,0.041-0.064,0.083-0.093,0.128c-0.003,0.005-0.006,0.009-0.009,0.013l-0.435,0.675l3.462,3.462V9.378z"/>
		<path fill="#FFFFFF" d="M8.113,12.455c-0.068,0.105-0.103,0.231-0.1,0.358c0.004,0.156,0.063,0.298,0.159,0.406
			c0.12,0.135,0.296,0.219,0.491,0.215c0.211-0.005,0.406-0.115,0.52-0.292l1.139-1.772v2.533l0.003,0.002h-2.12
			c-0.04,0-0.08,0.002-0.119,0.005l0.002-0.007c-0.054,0.001-0.108,0.006-0.161,0.012c-0.38,0.046-0.73,0.222-0.992,0.496
			c-0.032,0.034-0.062,0.069-0.092,0.105c-0.033,0.041-0.064,0.083-0.093,0.128c-0.003,0.005-0.006,0.009-0.009,0.013l-2.654,4.126
			c-0.068,0.105-0.103,0.231-0.1,0.358c0.004,0.156,0.063,0.298,0.159,0.406c0.12,0.135,0.296,0.219,0.491,0.215
			c0.211-0.005,0.406-0.115,0.52-0.292l2.609-4.063l0.001-0.004l5.181,0h0.001c0.385,0,0.703-0.293,0.744-0.668l-4.288-4.288
			L8.113,12.455z"/>
		
			<rect x="11.099" y="-0.43" transform="matrix(0.7071 -0.7071 0.7071 0.7071 -4.8964 11.8441)" fill="#EB0000" width="1.5" height="24.525"/>
	</g>
</g>
</svg>
