<?xml version="1.0" encoding="utf-8"?>
<!-- Generator: Adobe Illustrator 24.2.0, SVG Export Plug-In . SVG Version: 6.00 Build 0)  -->
<svg version="1.0" id="Ebene_1" xmlns="http://www.w3.org/2000/svg" xmlns:xlink="http://www.w3.org/1999/xlink" x="0px" y="0px"
	 viewBox="0 0 24 24" enable-background="new 0 0 24 24" xml:space="preserve">
<g id="SVG_x5F_24x24pt">
	<path id="backgroundBlue" fill="#2D327D" d="M0,22.5v-21C0,0.675,0.675,0,1.5,0h21C23.325,0,24,0.675,24,1.5v21
		c0,0.825-0.675,1.5-1.5,1.5h-21C0.675,24,0,23.325,0,22.5z"/>
	<g id="content">
		<path fill="#FFFFFF" d="M10.855,4.184c0-0.724-0.587-1.312-1.312-1.312c-0.724,0-1.312,0.588-1.312,1.312
			c0,0.724,0.588,1.312,1.312,1.312C10.268,5.496,10.855,4.908,10.855,4.184L10.855,4.184z"/>
		<path fill="#FFFFFF" d="M21.103,19.013l-1.013,0l-7.617-7.617v-4.25c0-0.724-0.588-1.312-1.312-1.312H7.98
			c-0.3,0-0.576,0.102-0.797,0.272L4.548,3.471l2.454,0.001v2.396c0.043-0.033,0.088-0.064,0.135-0.093
			C7.139,5.774,7.14,5.774,7.141,5.773c0.046-0.028,0.093-0.054,0.141-0.077c0.002-0.001,0.003-0.002,0.005-0.002
			c0.049-0.023,0.099-0.044,0.15-0.063c0.001,0,0.002-0.001,0.003-0.001C7.494,5.61,7.548,5.594,7.603,5.581l0.001-2.71l-3.655,0
			l-0.24-0.24l-0.24,0.24l-0.365,0v0.365L2.648,3.692l0.455,0.455v16.724h1.05v-2.4l3.449,0.001l0.001-4.243
			c-0.26,0.26-0.468,0.467-0.558,0.558c-0.019,0.018-0.033,0.033-0.041,0.042c0,0.217,0,1.777,0,1.777c0,0,0,0.001,0,0.001v1.265
			l-2.85-0.001v-0.616l0.905-0.906l0-0.848l-0.905,0.905V5.197l2.515,2.515v3.396c0,0.258,0.209,0.468,0.467,0.468
			c0.258,0,0.467-0.21,0.467-0.468V8.647l0.41,0.41v2.436L5.356,14.15l0.002,2.456c0,0.371,0.301,0.672,0.673,0.672
			c0.371,0,0.672-0.301,0.672-0.672v-1.902l2.654-2.654h0.427v5.692c0,0.371,0.301,0.673,0.672,0.673
			c0.371,0,0.672-0.302,0.672-0.673v-5.569l6.84,6.84l-8.185,0.001v1.258l-4.668-0.001v0.6l5.268,0.001v-1.258l8.185-0.001
			l1.421,1.421l1.06-1.061l-0.36-0.36l0.413,0V19.013z M11.129,7.802h0.41v2.66l-0.41-0.41V7.802z"/>
		<polygon fill="#EB0000" points="3.708,2.631 2.648,3.692 19.99,21.034 21.05,19.973 3.708,2.631 		"/>
	</g>
</g>
</svg>
