<?xml version="1.0" encoding="utf-8"?>
<!-- Generator: Adobe Illustrator 24.2.0, SVG Export Plug-In . SVG Version: 6.00 Build 0)  -->
<svg version="1.0" xmlns="http://www.w3.org/2000/svg" xmlns:xlink="http://www.w3.org/1999/xlink" x="0px" y="0px"
	 viewBox="0 0 24 24" enable-background="new 0 0 24 24" xml:space="preserve">
<g id="SVG_x5F_24x24pt">
	<path id="backgroundBlue" fill="#2D327D" d="M0,22.5v-21C0,0.675,0.675,0,1.5,0h21C23.325,0,24,0.675,24,1.5v21
		c0,0.825-0.675,1.5-1.5,1.5h-21C0.675,24,0,23.325,0,22.5z"/>
	<g id="content_1_">
		<path fill="#FFFFFF" d="M15.697,8.916l-1.14,1.684l-1.542,2.276c-0.551,0.088-1.103,0.177-1.663,0.191
			c-0.576,0.016-1.16-0.047-1.713-0.212c-0.438-0.13-0.856-0.326-1.246-0.566c-0.349-0.213-0.676-0.462-0.964-0.75
			c-0.204-0.205-0.389-0.433-0.57-0.662c-0.105-0.133-0.209-0.267-0.31-0.403c-0.099-0.137-0.194-0.276-0.281-0.42
			c-0.165-0.272-0.303-0.56-0.44-0.849c0.129-0.039,0.259-0.079,0.382-0.131c0.19-0.078,0.368-0.185,0.544-0.294
			c0.203-0.125,0.403-0.252,0.58-0.41C7.415,8.3,7.489,8.224,7.559,8.145l2.462,2.462c0.367,0.367,0.96,0.367,1.325,0.001
			c0.365-0.365,0.367-0.96,0-1.325l-0.269-0.269l0.178-0.178c0.365-0.367,0.365-0.958,0-1.325l-0.186-0.185l0.178-0.179
			c0.087-0.086,0.155-0.189,0.203-0.302c0.378,0.306,0.765,0.602,1.173,0.867c0.414,0.27,0.849,0.51,1.304,0.707
			c0.365,0.16,0.745,0.291,1.133,0.38C15.27,8.847,15.484,8.882,15.697,8.916z"/>
		<path fill="#FFFFFF" d="M7.127,5.481l4.011,4.011c0.251,0.251,0.251,0.657,0,0.908c-0.251,0.251-0.657,0.25-0.908,0L6.406,6.575
			C6.288,6.458,6.129,6.392,5.963,6.392H4.851c-0.265,0-0.479,0.215-0.479,0.479v1.977c0,0.438-0.286,0.825-0.706,0.952
			c-0.049,0.015-0.099,0.022-0.15,0.022C3.231,9.823,3,9.591,3,9.306V3h6.69l1.339,1.339c0.25,0.25,0.25,0.657,0,0.907l-0.177,0.177
			L9.018,3.59L8.808,3.8l2.232,2.231c0.25,0.251,0.25,0.657,0,0.907l-0.177,0.177L8.177,4.431l-0.21,0.21l3.08,3.079
			c0.251,0.25,0.251,0.657,0,0.907L10.87,8.803L7.337,5.271L7.127,5.481z"/>
		<path fill="#FFFFFF" d="M17.568,10.443c-0.619-0.208-1.328-0.381-2.099-0.51l-0.601,0.879c0.326,0.048,0.637,0.104,0.931,0.166
			c1.734,0.374,2.653,0.957,2.651,1.547c-0.001,0.39-0.403,0.783-1.238,1.122c-2.099,0.853-6.134,1.04-9.013,0.419
			c-1.729-0.373-2.648-0.953-2.653-1.541c-0.003-0.392,0.399-0.788,1.238-1.129c-0.075-0.09-0.148-0.181-0.218-0.27
			c-0.111-0.138-0.22-0.281-0.328-0.428c-0.036-0.049-0.072-0.099-0.107-0.15c-1.487,0.555-2.224,1.267-2.222,1.977
			c0.002,0.758,0.847,1.515,2.52,2.078c3.241,1.09,8.361,1.043,11.436-0.107c1.484-0.554,2.221-1.263,2.223-1.972
			C20.09,11.766,19.246,11.007,17.568,10.443z"/>
		<path fill="#FFFFFF" d="M20.038,13.415c-0.005,0-0.01,0.001-0.015,0.002c-0.014,0.004-0.025,0.015-0.032,0.028
			c0,0.001-0.001,0.001-0.001,0.002c-0.016,0.037-0.035,0.073-0.055,0.11c-0.004,0.008-0.01,0.016-0.015,0.024
			c-0.016,0.028-0.033,0.056-0.051,0.083c-0.008,0.013-0.018,0.025-0.027,0.038c-0.016,0.023-0.033,0.046-0.05,0.068
			c-0.012,0.015-0.025,0.03-0.037,0.045c-0.017,0.02-0.033,0.04-0.051,0.06c-0.015,0.017-0.031,0.034-0.047,0.05
			c-0.017,0.018-0.034,0.035-0.052,0.053c-0.019,0.019-0.039,0.037-0.059,0.055c-0.016,0.015-0.033,0.03-0.05,0.045
			c-0.023,0.02-0.047,0.041-0.072,0.061c-0.015,0.012-0.031,0.025-0.046,0.037c-0.029,0.023-0.058,0.045-0.088,0.067
			c-0.012,0.009-0.025,0.018-0.037,0.027c-0.035,0.025-0.071,0.051-0.109,0.076c-0.006,0.004-0.013,0.009-0.02,0.013
			c-0.333,0.219-0.752,0.426-1.258,0.615c-1.246,0.466-2.827,0.75-4.483,0.852c-0.005,0-0.01,0.001-0.016,0.001
			c-0.11,0.007-0.221,0.012-0.332,0.017c-0.019,0.001-0.038,0.002-0.057,0.003c-0.097,0.004-0.193,0.007-0.29,0.01
			c-0.034,0.001-0.067,0.002-0.1,0.003c-0.082,0.002-0.163,0.003-0.245,0.004c-0.049,0.001-0.098,0.002-0.147,0.002
			c-0.065,0.001-0.131,0-0.196,0c-0.065,0-0.131,0-0.196,0c-0.049,0-0.098-0.002-0.147-0.002c-0.082-0.001-0.163-0.002-0.245-0.004
			c-0.034-0.001-0.067-0.002-0.1-0.003c-0.097-0.003-0.194-0.006-0.29-0.01c-0.019-0.001-0.038-0.002-0.057-0.003
			c-0.111-0.005-0.221-0.011-0.332-0.017c-0.005,0-0.01-0.001-0.016-0.001c-1.656-0.102-3.237-0.386-4.483-0.852
			c-0.506-0.189-0.925-0.396-1.258-0.615c-0.007-0.004-0.013-0.009-0.02-0.013c-0.038-0.025-0.074-0.05-0.109-0.076
			c-0.012-0.009-0.025-0.018-0.037-0.027c-0.03-0.022-0.059-0.045-0.088-0.067c-0.016-0.012-0.031-0.025-0.046-0.037
			c-0.025-0.02-0.049-0.04-0.072-0.061c-0.017-0.015-0.034-0.03-0.05-0.045c-0.02-0.018-0.04-0.037-0.059-0.055
			c-0.018-0.017-0.035-0.035-0.052-0.053c-0.016-0.017-0.032-0.034-0.047-0.05c-0.018-0.02-0.035-0.04-0.051-0.06
			c-0.013-0.015-0.025-0.03-0.037-0.045c-0.018-0.023-0.034-0.046-0.05-0.068c-0.009-0.013-0.019-0.025-0.027-0.038
			c-0.018-0.028-0.035-0.056-0.051-0.083c-0.005-0.008-0.01-0.016-0.015-0.024c-0.02-0.037-0.039-0.073-0.055-0.11
			c0-0.001-0.001-0.001-0.001-0.002c-0.006-0.013-0.017-0.024-0.032-0.028c-0.005-0.001-0.01-0.002-0.015-0.002
			c-0.027,0-0.048,0.021-0.05,0.047c0.002,0.139,0.01,0.278,0.026,0.415c0.096,0.588,0.2,0.844,0.378,1.233
			c0.166,0.369,0.401,0.709,0.648,1.036c0.185,0.243,0.378,0.479,0.59,0.694c0.048,0.044,0.097,0.088,0.147,0.131
			c0.018,0.015,0.036,0.03,0.053,0.045c0.003,0.002,0.005,0.004,0.008,0.007c0.012,0.01,0.023,0.02,0.035,0.03
			c0.018,0.015,0.037,0.031,0.055,0.046c0.022,0.018,0.045,0.036,0.068,0.055c0.029,0.023,0.059,0.047,0.088,0.07
			c0.026,0.02,0.052,0.039,0.077,0.059c0.027,0.021,0.055,0.041,0.083,0.062c0.028,0.021,0.057,0.041,0.086,0.062
			c0.026,0.018,0.052,0.036,0.078,0.054c0.032,0.022,0.063,0.043,0.095,0.065c0.023,0.015,0.047,0.031,0.07,0.046
			c0.035,0.023,0.071,0.046,0.107,0.069c0.019,0.012,0.038,0.023,0.057,0.035c0.041,0.025,0.082,0.051,0.124,0.075
			c0.008,0.005,0.017,0.01,0.025,0.015c0.123,0.072,0.249,0.142,0.378,0.209c0.482,0.27,0.861,0.703,1.062,1.224
			c0.024,0.077,0.058,0.153,0.099,0.226c0.001,0.001,0.001,0.003,0.002,0.004c0.11,0.196,0.277,0.38,0.491,0.546
			c0.001,0.001,0.002,0.001,0.002,0.002c0.081,0.063,0.169,0.123,0.263,0.181c0.002,0.001,0.005,0.003,0.007,0.004
			c0.093,0.057,0.192,0.11,0.297,0.161c0.004,0.002,0.008,0.004,0.012,0.006c0.048,0.023,0.098,0.046,0.148,0.068
			c0.005,0.002,0.01,0.004,0.015,0.007c0.054,0.023,0.108,0.045,0.164,0.067c0.006,0.002,0.012,0.004,0.018,0.007
			c0.05,0.019,0.1,0.037,0.152,0.054c0.01,0.003,0.02,0.007,0.03,0.01c0.057,0.019,0.115,0.037,0.173,0.055
			c0.007,0.002,0.014,0.004,0.02,0.006c0.052,0.015,0.105,0.03,0.159,0.044c0.014,0.004,0.027,0.007,0.041,0.011
			c0.06,0.015,0.121,0.03,0.183,0.043c0.005,0.001,0.011,0.002,0.016,0.003c0.057,0.012,0.114,0.024,0.172,0.035
			c0.016,0.003,0.032,0.006,0.048,0.009c0.064,0.011,0.128,0.022,0.193,0.032c0.004,0.001,0.008,0.001,0.011,0.002
			c0.019,0.003,0.038,0.006,0.058,0.009c0.027,0.004,0.054,0.008,0.081,0.012c0.021,0.003,0.042,0.005,0.063,0.008
			c0.026,0.003,0.053,0.006,0.079,0.009c0.023,0.002,0.046,0.004,0.069,0.007c0.025,0.002,0.051,0.005,0.076,0.007
			c0.025,0.002,0.05,0.004,0.075,0.005c0.024,0.002,0.048,0.004,0.073,0.005c0.028,0.002,0.056,0.003,0.084,0.004
			c0.022,0.001,0.044,0.002,0.066,0.003c0.033,0.001,0.066,0.002,0.1,0.003c0.018,0,0.035,0.001,0.053,0.001
			c0.051,0.001,0.103,0.001,0.154,0.001c0,0,0,0,0.001,0h0h0c0,0,0,0,0.001,0c0.052,0,0.103,0,0.154-0.001
			c0.018,0,0.036-0.001,0.053-0.001c0.033-0.001,0.067-0.002,0.1-0.003c0.022-0.001,0.044-0.002,0.066-0.003
			c0.028-0.001,0.056-0.003,0.084-0.004c0.024-0.001,0.049-0.003,0.073-0.005c0.025-0.002,0.05-0.003,0.075-0.005
			c0.026-0.002,0.051-0.005,0.076-0.007c0.023-0.002,0.046-0.004,0.069-0.007c0.027-0.003,0.053-0.006,0.079-0.009
			c0.021-0.003,0.042-0.005,0.063-0.008c0.027-0.004,0.054-0.008,0.081-0.012c0.019-0.003,0.039-0.006,0.058-0.009
			c0.004-0.001,0.008-0.001,0.011-0.002c0.065-0.01,0.129-0.02,0.193-0.032c0.016-0.003,0.032-0.006,0.048-0.009
			c0.058-0.011,0.116-0.022,0.172-0.035c0.005-0.001,0.011-0.002,0.016-0.003c0.062-0.014,0.123-0.028,0.183-0.043
			c0.014-0.003,0.027-0.007,0.041-0.011c0.054-0.014,0.106-0.028,0.159-0.044c0.007-0.002,0.014-0.004,0.02-0.006
			c0.059-0.017,0.117-0.036,0.173-0.055c0.01-0.003,0.02-0.007,0.03-0.01c0.052-0.018,0.102-0.036,0.152-0.054
			c0.006-0.002,0.012-0.004,0.018-0.007c0.056-0.021,0.111-0.044,0.164-0.067c0.005-0.002,0.01-0.004,0.015-0.007
			c0.051-0.022,0.1-0.044,0.148-0.068c0.004-0.002,0.008-0.004,0.012-0.006c0.105-0.051,0.204-0.105,0.297-0.161
			c0.002-0.001,0.005-0.003,0.007-0.004c0.094-0.057,0.182-0.118,0.263-0.181c0.001-0.001,0.002-0.001,0.002-0.002
			c0.214-0.166,0.381-0.349,0.491-0.546c0.001-0.001,0.001-0.003,0.002-0.004c0.041-0.074,0.074-0.149,0.099-0.226
			c0.201-0.521,0.58-0.954,1.062-1.224c0.129-0.067,0.255-0.137,0.378-0.209c0.008-0.005,0.017-0.01,0.025-0.015
			c0.042-0.025,0.083-0.05,0.124-0.075c0.019-0.012,0.038-0.023,0.057-0.035c0.036-0.023,0.072-0.046,0.107-0.069
			c0.023-0.015,0.047-0.031,0.07-0.046c0.032-0.021,0.064-0.043,0.095-0.065c0.026-0.018,0.052-0.036,0.078-0.054
			c0.029-0.02,0.058-0.041,0.086-0.062c0.028-0.02,0.055-0.041,0.083-0.062c0.026-0.019,0.052-0.039,0.077-0.059
			c0.03-0.023,0.059-0.046,0.088-0.07c0.023-0.018,0.046-0.036,0.068-0.055c0.019-0.015,0.037-0.031,0.055-0.046
			c0.012-0.01,0.023-0.02,0.035-0.03c0.003-0.002,0.005-0.004,0.008-0.007c0.018-0.015,0.036-0.03,0.053-0.045
			c0.05-0.043,0.099-0.087,0.147-0.131c0.212-0.215,0.405-0.451,0.59-0.694c0.247-0.328,0.481-0.667,0.648-1.036
			c0.177-0.389,0.282-0.645,0.378-1.233c0.016-0.137,0.024-0.275,0.026-0.415C20.086,13.435,20.065,13.415,20.038,13.415z"/>
	</g>
</g>
</svg>
