<svg xmlns="http://www.w3.org/2000/svg" width="24" height="24" viewBox="0 0 24 24">
  <g fill="none" fill-rule="evenodd">
    <path fill="#2D327D" d="M22.5,0 L1.5,0 C0.675000003,0 0,0.675000003 0,1.5 L0,22.5 C0,23.3250009 0.675000003,24 1.5,24 L22.5,24 C23.3250009,24 24,23.3250009 24,22.5 L24,1.5 C24,0.675000003 23.3250009,0 22.5,0 Z"/>
    <path fill="#FFF" d="M9,0 C4.02749972,0 0,4.02749972 0,9 C0,13.9725004 4.02749972,18 9,18 C13.9725004,18 18,13.9724999 18,9 C18,4.02750022 13.9724999,0 9,0 Z M9.00000004,1.38749981 C10.0424995,1.38749981 10.8899994,2.23500011 10.8899994,3.27749971 C10.8899994,4.31999932 10.0424995,5.17500022 9.00000004,5.17500022 C7.95750053,5.17500022 7.11000063,4.32749992 7.11000063,3.28500031 C7.11000063,2.24250071 7.95750053,1.38749981 9.00000004,1.38749981 Z M11.8874998,15.7500001 L6.11250023,15.7500001 C5.90250022,15.7500001 5.73750022,15.5849992 5.73750022,15.3750001 C5.73750022,15.165001 5.90250022,15.0000001 6.11250023,15.0000001 L7.31250003,15.0000001 L7.31250003,6.82499983 L6.11250023,6.82499983 C5.90250022,6.82499983 5.73750022,6.65999983 5.73750022,6.44999983 C5.73750022,6.23999983 5.90250022,6.07499983 6.11250023,6.07499983 L10.7250004,6.07499983 L10.7250004,15.0000001 L11.8874998,15.0000001 C12.0974999,15.0000001 12.2624999,15.165001 12.2624999,15.3750001 C12.2624999,15.5849992 12.0974999,15.7500001 11.8874998,15.7500001 Z" transform="translate(3 3)"/>
  </g>
</svg>
