<svg xmlns="http://www.w3.org/2000/svg" width="24" height="24" viewBox="0 0 24 24">
  <g fill="none" fill-rule="evenodd">
    <path fill="#2D327D" d="M22.5,0 L1.5,0 C0.675000003,0 0,0.675000003 0,1.5 L0,22.5 C0,23.3250009 0.675000003,24 1.5,24 L22.5,24 C23.3250009,24 24,23.3250009 24,22.5 L24,1.5 C24,0.675000003 23.3250009,0 22.5,0 Z"/>
    <g fill="#FFF" transform="translate(3 3)">
      <path d="M4.50000002,0 L4.50000002,3.75000002 L9.75000004,3.75000002 L9.75000004,5.25000002 L12,5.25000002 L12,6 L9.75000004,6 L9.75000004,6.75000003 L12,6.75000003 L12,7.5 L9.75000004,7.5 L9.75000004,13.5 L13.5,13.5 L13.5,0 L4.50000002,0 Z M12.0000001,3.00000001 L11.5500002,3.00000001 L11.5500002,1.53000021 L11.3924999,1.53000021 L11.2349987,1.53000021 L11.0774984,1.53000021 L11.0249986,1.53000021 L11.0249986,1.1999998 C11.1374988,1.1999998 11.2274989,1.1850004 11.2949991,1.1624999 C11.3624992,1.1399999 11.4299993,1.1100001 11.4824991,1.0649996 C11.5649996,1.0049997 11.624999,0.892499504 11.6474991,0.742499603 L11.9999991,0.742499603 L11.9999991,3.00000001 L12.0000001,3.00000001 Z"/>
      <path d="M0,4.50000002 L0,18 L9,18 L9,4.50000002 L0,4.50000002 Z M7.50000001,12.0000001 L1.50000001,12.0000001 L1.50000001,11.25 L7.50000001,11.25 L7.50000001,12.0000001 Z M7.50000001,10.5 L1.50000001,10.5 L1.50000001,9.75000004 L7.50000001,9.75000004 L7.50000001,10.5 Z M7.50000003,7.50000003 L5.87999922,7.50000003 C5.87999922,7.37999923 5.90250022,7.26000023 5.93999962,7.14750003 C5.97750002,7.03499983 6.03750043,6.94500063 6.10499963,6.86250023 C6.15749943,6.80249983 6.22500043,6.74249943 6.30000023,6.68250083 C6.37500003,6.62250133 6.52499963,6.51750083 6.74249943,6.36000063 C6.84749893,6.28499983 6.92249883,6.21750073 6.96749983,6.14999963 C7.01249993,6.08250043 7.03499903,6.00750063 7.03499903,5.92500022 C7.03499903,5.82749942 7.00499933,5.74500082 6.94499983,5.68500042 C6.88499933,5.62500002 6.80999953,5.59500032 6.71999933,5.59500032 C6.48749923,5.59500032 6.36749933,5.76000032 6.35999873,6.09749993 L5.92499922,6.09749993 C5.92499922,6.07499993 5.92499922,6.06000053 5.92499922,6.04500013 C5.92499922,5.77499962 5.99999902,5.55750092 6.15749933,5.41500092 C6.30749893,5.27250102 6.49499893,5.19750122 6.73499873,5.19750122 C6.94499973,5.19750122 7.11749933,5.25750162 7.25999933,5.37750062 C7.40999893,5.50500112 7.49249943,5.67750082 7.49249943,5.90250122 C7.49249943,6.09000123 7.43249903,6.25500123 7.31250003,6.39750113 C7.27499963,6.44250213 7.23750023,6.48000163 7.19999983,6.50250063 C7.16250043,6.53250033 7.07250023,6.59250083 6.92250063,6.69750122 C6.78000073,6.79500203 6.68250083,6.87000183 6.61499983,6.92250163 C6.55499943,6.97500143 6.49499903,7.03500183 6.44249923,7.10250103 L7.50000003,7.10250103 L7.50000003,7.50000003 Z"/>
    </g>
  </g>
</svg>
