<svg xmlns="http://www.w3.org/2000/svg" width="24" height="24" viewBox="0 0 24 24">
  <g fill="none" fill-rule="evenodd">
    <path fill="#2D327D" d="M22.5,0 L1.5,0 C0.675000003,0 0,0.675000003 0,1.5 L0,22.5 C0,23.3250009 0.675000003,24 1.5,24 L22.5,24 C23.3250009,24 24,23.3250009 24,22.5 L24,1.5 C24,0.675000003 23.3250009,0 22.5,0 Z"/>
    <g fill="#FFF" transform="translate(2 2)">
      <path d="M10,4.75000002 L10,6.25000002 L15.2500001,6.25000002 L15.2500001,10 L17.5,10 L17.5,10.75 L15.2500001,10.75 L15.2500001,11.5 L17.5,11.5 L17.5,12.25 L15.2500001,12.25 L15.2500001,16.75 L19,16.75 L19,4.75000002 L10,4.75000002 Z M17.5000001,7.75000003 L17.0499993,7.75000003 L17.0499993,6.27999973 L16.8925,6.27999973 L16.7349988,6.27999973 L16.5774995,6.27999973 L16.5249997,6.27999973 L16.5249997,5.94999982 C16.6375008,5.94999982 16.727501,5.93500042 16.7950002,5.91249992 C16.8624994,5.88999992 16.9300004,5.86000012 16.9825002,5.81499962 C17.0650006,5.75499962 17.1250001,5.64249942 17.1475011,5.49249942 L17.500002,5.49249942 L17.500002,7.75000003 L17.5000001,7.75000003 Z"/>
      <path d="M5.50000002,7.00000003 L5.50000002,19 L14.5,19 L14.5,7.00000003 L5.50000002,7.00000003 Z M13,14.5000001 L7.00000003,14.5000001 L7.00000003,13.7500001 L13,13.7500001 L13,14.5000001 L13,14.5000001 Z M13,13.0000001 L7.00000003,13.0000001 L7.00000003,12.2500001 L13,12.2500001 L13,13.0000001 Z M13.0000001,10.75 L11.3799992,10.75 C11.3799992,10.6299992 11.4025002,10.5100002 11.4399996,10.3975 C11.4775,10.2849998 11.5375004,10.1950006 11.6049996,10.1125002 C11.6574994,10.0524998 11.7250004,9.99249944 11.8000002,9.93250084 C11.875,9.87250134 12.0249997,9.76750084 12.2424995,9.61000064 C12.347499,9.53499984 12.4224989,9.46750074 12.4674999,9.39999964 C12.5125,9.33250044 12.5349991,9.25750064 12.5349991,9.17500024 C12.5349991,9.07749944 12.5049994,8.99500084 12.4449999,8.93500044 C12.3849995,8.87500004 12.3099997,8.84500024 12.2199995,8.84500024 C11.9874993,8.84500024 11.8674994,9.01000024 11.8599988,9.34749984 L11.4249993,9.34749984 C11.4249993,9.32499984 11.4249993,9.31000044 11.4249993,9.29500004 C11.4249993,9.02499954 11.4999991,8.80750084 11.6574994,8.66500084 C11.807499,8.52250094 11.994999,8.44750114 12.2349989,8.44750114 C12.4449999,8.44750114 12.6174995,8.50750154 12.7599995,8.62750054 C12.9099991,8.75500104 12.9924996,8.92750074 12.9924996,9.15250114 C12.9924996,9.34000114 12.9324992,9.50500114 12.8125002,9.64750104 C12.7749998,9.69250204 12.7375004,9.73000154 12.7,9.75250054 C12.6625006,9.78250024 12.5725004,9.84250074 12.4225008,9.94750114 C12.2800009,10.0450019 12.182501,10.1200017 12.115,10.1725015 C12.0549996,10.2250013 11.9949991,10.2850017 11.9424993,10.3525009 L13.0000001,10.3525009 L13.0000001,10.75 Z"/>
      <path fill-rule="nonzero" d="M2.33500001,0.992500104 L3.19000051,3.24250031 L2.67250011,3.24250031 L2.49250031,2.74000021 L1.66000031,2.74000021 L1.48000001,3.24250031 L0.977500404,3.24250031 L1.83250041,0.992500104 L2.33500001,0.992500104 Z M2.37250041,2.38749981 L2.07250031,1.53999971 L1.77250021,2.38749981 L2.37250041,2.38749981 L2.37250041,2.38749981 Z"/>
      <path d="M4.85499952 1.56999991L4.85499952 3.25000001 4.42749982 3.25000001 4.42749982 3.00249961C4.30000022 3.19749981 4.11999992 3.29500011 3.88749982 3.29500011 3.68500042 3.29500011 3.53500031 3.22750001 3.43000031 3.09250021 3.39249991 3.04000041 3.36250021 2.98000001 3.34750031 2.90500021 3.33250041 2.82999991 3.32499981 2.74000021 3.32499981 2.62750051L3.32499981 1.56999991 3.76749992 1.56999991 3.76749992 2.49250031C3.76749992 2.59000011 3.76749992 2.65749981 3.77500012 2.69499971 3.78249982 2.73250011 3.79000002 2.77000001 3.81250002 2.80000021 3.85750012 2.87500001 3.93999962 2.91249991 4.05249982 2.91249991 4.19499972 2.91249991 4.29249962 2.85250001 4.35999972 2.72499991 4.38999992 2.66500001 4.40499972 2.55249981 4.40499972 2.39500001L4.40499972 1.56999991 4.85499952 1.56999991 4.85499952 1.56999991zM6.09250063 1.56250001L6.09250063 1.87749981 5.76249982 1.87749981 5.76249982 2.66500001C5.76249982 2.76249981 5.77000042 2.82249981 5.78500032 2.84499981 5.80750032 2.88249971 5.86750082 2.89749961 5.95750042 2.89749961 5.99500032 2.89749961 6.04000093 2.89749961 6.09250063 2.88999991L6.09250063 3.25000001C5.99500042 3.26499991 5.89750002 3.26499991 5.81500102 3.26499991 5.68750092 3.26499991 5.59000112 3.25000001 5.52250152 3.21999981 5.41750202 3.17500021 5.35750152 3.09250021 5.32750092 2.96499971 5.32000062 2.91249991 5.31250102 2.80749991 5.31250102 2.64249941L5.31250102 1.88500021 5.04250052 1.88500021 5.04250052 1.57000041 5.31250102 1.57000041 5.31250102 1.1800008 5.75500062 1.1800008 5.75500062 1.57000041 6.09250063 1.57000041 6.09250063 1.56250001z"/>
      <path fill-rule="nonzero" d="M7.09749983,1.52500011 C7.34500023,1.52500011 7.53999993,1.60749981 7.69750023,1.76499991 C7.84749983,1.92249971 7.93000033,2.13999991 7.93000033,2.40249971 C7.93000033,2.67999941 7.84749983,2.89749961 7.68250083,3.06250001 C7.53250023,3.21250011 7.33000083,3.29500011 7.08250043,3.29500011 C6.82000063,3.29500011 6.61000063,3.21250011 6.46000003,3.04000001 C6.31000043,2.87500001 6.23500063,2.66500001 6.23500063,2.40999981 C6.23500063,2.15499961 6.31000043,1.95249981 6.45249943,1.78749941 C6.61749943,1.61499981 6.82749943,1.52500011 7.09749983,1.52500011 Z M7.07499983,1.86999991 C6.95499993,1.86999991 6.86499983,1.91499971 6.79000003,2.01249981 C6.72249983,2.11000011 6.68500043,2.23750021 6.68500043,2.41000031 C6.68500043,2.58250041 6.72249983,2.71750021 6.79000003,2.80750041 C6.86499983,2.89750001 6.96249963,2.95000081 7.08249953,2.95000081 C7.19499973,2.95000081 7.29249953,2.90500071 7.35999873,2.82250071 C7.43499953,2.72500041 7.47249893,2.59000111 7.47249893,2.41000081 C7.47249893,2.24500081 7.43499953,2.11000061 7.36749943,2.02000091 C7.30750083,1.92250011 7.20249943,1.86999991 7.07499983,1.86999991 Z"/>
      <path d="M8.65750034,1.56999991 L8.65750034,1.79499981 C8.71750074,1.71999981 8.77000054,1.65999961 8.82250034,1.62249971 C8.92000014,1.55499961 9.04000004,1.51749941 9.17500034,1.51749941 C9.39250004,1.51749941 9.54249974,1.60749931 9.63250084,1.79499931 C9.76750104,1.60749931 9.94000074,1.51749941 10.1650011,1.51749941 C10.3375017,1.51749941 10.4725019,1.56999921 10.5700008,1.67499941 C10.6674997,1.77999941 10.7124998,1.92249961 10.7124998,2.11749931 L10.7124998,3.25000001 L10.2700006,3.25000001 L10.2700006,2.25249961 C10.2700006,2.14749961 10.2550012,2.07249981 10.2325002,2.02749971 C10.1875,1.94499991 10.1125002,1.90749981 10.0075006,1.90749981 C9.87250044,1.90749981 9.78250024,1.96750021 9.73000044,2.07999991 C9.70750044,2.13249971 9.69250104,2.22250031 9.69250104,2.34999991 L9.69250104,3.25000001 L9.25000004,3.25000001 L9.25000004,2.23000001 C9.25000004,2.13249971 9.23500064,2.05749991 9.21249964,2.01249981 C9.17500024,1.93750001 9.10750014,1.90000011 9.00249964,1.90000011 C8.94249924,1.90000011 8.88249974,1.91499971 8.82999994,1.94499991 C8.77750014,1.97499991 8.73999974,2.01999991 8.71749974,2.07249971 C8.69499974,2.12499951 8.67999934,2.21499961 8.67999934,2.33499951 L8.67999934,3.25000001 L8.23750013,3.25000001 L8.23750013,1.56999991 L8.65750034,1.56999991 Z"/>
      <path fill-rule="nonzero" d="M12.5874997,3.25000001 L12.1299992,3.25000001 C12.1074992,3.18249991 12.1000004,3.13000011 12.1000004,3.08500001 C11.9575004,3.22750041 11.7775001,3.30250021 11.5600003,3.30250021 C11.3874997,3.30250021 11.2524995,3.26500031 11.1550006,3.18250031 C11.0425004,3.09250061 10.9900006,2.96500011 10.9900006,2.80000061 C10.9900006,2.59000011 11.0875014,2.44750061 11.2750014,2.36500021 C11.3500013,2.33500001 11.4925003,2.30500031 11.7025013,2.27500061 C11.8825007,2.25250061 11.9875011,2.23000051 12.0325004,2.20750051 C12.0775014,2.18500051 12.1000005,2.14000041 12.1000005,2.07250031 C12.1000005,1.92250021 12.0024997,1.85500011 11.8075009,1.85500011 C11.7025014,1.85500011 11.6275006,1.87000001 11.5825005,1.90749991 C11.5375004,1.94499991 11.5,2.00500011 11.4850006,2.10250001 L11.0649996,2.10250001 C11.0799999,1.91499981 11.1475001,1.77249961 11.2749996,1.68249991 C11.4025001,1.58499961 11.5825004,1.53999971 11.8149996,1.53999971 C12.0774995,1.53999971 12.2649995,1.59249951 12.3925,1.69749971 C12.4524995,1.74999951 12.4900006,1.80249971 12.5049992,1.85499951 C12.5199995,1.90749931 12.5349989,1.99749971 12.5349989,2.12499951 C12.5349989,2.14749951 12.5349989,2.25999971 12.5274983,2.46249961 C12.5274983,2.66499901 12.5274983,2.77749921 12.5274983,2.80749941 C12.5274983,2.92749931 12.5274983,3.01749941 12.5349989,3.07749941 C12.5500003,3.11499981 12.5649997,3.18249991 12.5874997,3.25000001 Z M12.1000005,2.43999961 C12.0400001,2.47750001 11.9350004,2.50749971 11.7849999,2.52249961 C11.6800003,2.53749941 11.6050005,2.55999951 11.5524998,2.58250001 C11.4850006,2.61999991 11.455,2.68000031 11.455,2.76249981 C11.455,2.82999991 11.4775,2.88999991 11.5224992,2.92749981 C11.5674993,2.96499971 11.6274987,2.98750021 11.7099992,2.98750021 C11.8449994,2.98750021 11.949999,2.94250011 12.0249989,2.85250001 C12.0549986,2.82249981 12.0699999,2.78499991 12.0849993,2.75499971 C12.0999987,2.72499951 12.0999987,2.67249971 12.0999987,2.61999951 L12.1000005,2.43999961 L12.1000005,2.43999961 Z"/>
      <path d="M13.7875014,1.56250001 L13.7875014,1.87749981 L13.4575006,1.87749981 L13.4575006,2.66500001 C13.4575006,2.76249981 13.4650012,2.82249981 13.4800006,2.84499981 C13.5025006,2.88249971 13.5625011,2.89749961 13.6525012,2.89749961 C13.6900006,2.89749961 13.7350017,2.89749961 13.7875014,2.88999991 L13.7875014,3.25000001 C13.6900006,3.26499991 13.5925008,3.26499991 13.5100012,3.26499991 C13.3825016,3.26499991 13.2850018,3.25000001 13.2175017,3.21999981 C13.1125022,3.17500021 13.0525017,3.09250021 13.0225011,2.96499971 C13.0150014,2.91249991 13.0075017,2.80749991 13.0075017,2.64249951 L13.0075017,1.88500021 L12.7375012,1.88500021 L12.7375012,1.57000041 L13.0075017,1.57000041 L13.0075017,1.1800008 L13.4500009,1.1800008 L13.4500009,1.57000041 L13.7875014,1.57000041 L13.7875014,1.56250001 L13.7875014,1.56250001 Z"/>
      <path fill-rule="nonzero" d="M14.4925004,1 L14.4925004,1.40500021 L14.0499993,1.40500021 L14.0499993,1 L14.4925004,1 Z M14.4925004,1.56999991 L14.4925004,3.25000001 L14.0499993,3.25000001 L14.0499993,1.56999991 L14.4925004,1.56999991 Z"/>
      <path d="M16.4049989,2.60500001 C16.3824998,2.77000001 16.33,2.91249991 16.239998,3.02500011 C16.0975,3.20499991 15.8874971,3.29500011 15.6249982,3.29500011 C15.3549977,3.29500011 15.1374971,3.20499991 14.9874974,3.01749991 C14.8599969,2.86000011 14.7924977,2.66500041 14.7924977,2.42500021 C14.7924977,2.13249971 14.8749982,1.90749981 15.0474969,1.74250011 C15.1974965,1.59999991 15.3924981,1.52500011 15.6249982,1.52500011 C15.842497,1.52500011 16.0224973,1.58500031 16.1574975,1.69750021 C16.2924977,1.81000011 16.3749982,1.96750021 16.3899995,2.16249991 L15.955,2.16249991 C15.9399987,2.07250021 15.9024983,2.00500011 15.8424989,1.95249991 C15.7825013,1.90000011 15.7149984,1.87749991 15.6250001,1.87749991 C15.4974996,1.87749991 15.4075013,1.92249971 15.3400003,2.02000011 C15.2725011,2.11750041 15.2350008,2.24500001 15.2350008,2.41750011 C15.2350008,2.56750021 15.2650015,2.68750011 15.3175013,2.77750021 C15.3850024,2.89000041 15.4825022,2.94250021 15.6175024,2.94250021 C15.8125021,2.94250021 15.9325029,2.83000001 15.9625017,2.60500011 L16.4049989,2.60500011 L16.4049989,2.60500001 Z"/>
      <path fill-rule="nonzero" d="M17.4700013,1.52500011 C17.7174989,1.52500011 17.9125005,1.60749981 18.0699998,1.76499991 C18.2200013,1.92249971 18.3025018,2.13999991 18.3025018,2.40249971 C18.3025018,2.67999941 18.2200013,2.89749961 18.0550023,3.06250001 C17.9050027,3.21250011 17.7025014,3.29500011 17.4550019,3.29500011 C17.1925011,3.29500011 16.9825021,3.21250011 16.8325024,3.04000001 C16.6825028,2.87500001 16.607502,2.66500001 16.607502,2.40999991 C16.607502,2.15499981 16.6825028,1.95249991 16.8250027,1.78749951 C16.9825002,1.61499981 17.2000009,1.52500011 17.4700013,1.52500011 Z M17.4474984,1.86999991 C17.3274995,1.86999991 17.2374993,1.91499971 17.1625005,2.01249981 C17.0950013,2.11000011 17.057501,2.23750021 17.057501,2.41000031 C17.057501,2.58250041 17.0950014,2.71750021 17.1625005,2.80750031 C17.2374994,2.89750001 17.3349992,2.95000071 17.455,2.95000071 C17.5674992,2.95000071 17.6649991,2.90500061 17.7325002,2.82250061 C17.807501,2.72500031 17.8450013,2.59000101 17.8450013,2.41000071 C17.8450013,2.24500071 17.8075009,2.11000051 17.7400018,2.02000081 C17.6724988,1.92250011 17.5750009,1.86999991 17.4474984,1.86999991 Z"/>
    </g>
  </g>
</svg>
