<svg xmlns="http://www.w3.org/2000/svg" width="24" height="24" viewBox="0 0 24 24">
  <g fill="none" fill-rule="evenodd">
    <path fill="#2D327D" d="M22.5,0 L1.5,0 C0.675000003,0 0,0.675000003 0,1.5 L0,22.5 C0,23.3250009 0.675000003,24 1.5,24 L22.5,24 C23.3250009,24 24,23.3250009 24,22.5 L24,1.5 C24,0.675000003 23.3250009,0 22.5,0 Z"/>
    <g fill="#FFF" transform="translate(3 3)">
      <path d="M0,0 L0,9 L1.58250001,9 C1.67249971,8.59500034 1.83750011,8.21249963 2.06999971,7.87500003 L1.125,7.87500003 L1.125,1.125 L16.8750001,1.125 L16.8750001,7.87500003 L7.67999943,7.87500003 C7.90499983,8.21249963 8.06999973,8.59500034 8.16749963,9 L18,9 L18,0 L0,0 Z"/>
      <path fill-rule="nonzero" d="M8.97750004 1.87500001C7.52999983 1.87500001 6.35250003 3.05249981 6.35250003 4.50000002 6.35250003 5.94750022 7.52999983 7.12500003 8.97750004 7.12500003 10.4250002 7.12500003 11.6025 5.94750022 11.6025 4.50000002 11.6025 3.05249981 10.4250002 1.87500001 8.97750004 1.87500001zM8.12250043 5.10750012C8.00249963 5.25000002 7.83000093 5.32499982 7.60500053 5.32499982 7.36500073 5.32499982 7.18500043 5.24249932 7.05000113 5.07000062 6.93750103 4.92750072 6.87750053 4.74750042 6.87750053 4.53749992 6.87750053 4.31250002 6.94500063 4.12500002 7.08000083 3.97499992 7.21500103 3.82499982 7.39500053 3.75000002 7.61250113 3.75000002 7.82250113 3.75000002 7.98750113 3.81749962 8.11500073 3.95249992 8.20500093 4.05000022 8.25750063 4.16249992 8.26500133 4.28249932L7.94250113 4.28249932C7.92750083 4.19999882 7.89000133 4.13249922 7.83000093 4.08749872 7.77000053 4.04249862 7.69500073 4.01999952 7.61250123 4.01999952 7.47000133 4.01999952 7.36500083 4.07999942 7.29000103 4.19999892 7.23750123 4.28999862 7.20750053 4.40249882 7.20750053 4.53749902 7.20750053 4.67249922 7.23750023 4.78499892 7.29000103 4.87499912 7.35750023 4.98749882 7.46250163 5.04749882 7.60500063 5.04749882 7.70250143 5.04749882 7.78500003 5.01750002 7.83750163 4.95749962 7.89000233 4.89749922 7.93500143 4.81499972 7.94250113 4.70250002L8.26500133 4.70250002C8.26500133 4.86000012 8.21249963 4.99500042 8.12250043 5.10750012zM9.75750074 5.28749992L9.42750074 5.28749992 9.42750074 4.63500022 8.81250104 4.63500022 8.81250104 5.28749992 8.48250204 5.28749992 8.48250204 3.78749992 8.81250104 3.78749992 8.81250104 4.35750052 9.42750084 4.35750052 9.42750084 3.78749992 9.75750074 3.78749992 9.75750074 5.28749992 9.75750074 5.28749992zM11.0100002 4.41000032L11.0100002 4.66500002 10.380001 4.66500002 10.380001 5.27999982 10.0500001 5.27999982 10.0500001 3.77999982 11.1075 3.77999982 11.1075 4.05749952 10.380001 4.05749952 10.380001 4.40249982 11.0100002 4.41000032 11.0100002 4.41000032zM4.88999992 7.12500003C3.44249971 7.12500003 2.26499991 8.30249983 2.26499991 9.75000004 2.26499991 11.1975002 3.44249971 12.3750001 4.88999992 12.3750001 6.33750013 12.3750001 7.51499943 11.1975002 7.51499943 9.75000004 7.51499943 8.30249983 6.34500033 7.12500003 4.88999992 7.12500003zM5.52750022 9.05249984C5.38500032 8.95500004 5.27250012 8.88749984 5.17500022 8.85000044 5.07749942 8.81250004 4.97999952 8.79000004 4.87500002 8.79000004 4.59750032 8.79000004 4.40249972 8.98500064 4.29000002 9.38249974L5.40749942 9.38249974 5.28749862 9.71249874 4.22999862 9.71249874C4.22999862 9.74999914 4.22999862 9.77999884 4.22999862 9.80999954 4.22999862 9.83999834 4.22999862 9.86999904 4.22999862 9.89999874L5.20499802 9.89999874 5.07749842 10.2299986 4.28999852 10.2299986C4.40999892 10.597498 4.60499862 10.7774983 4.87499902 10.7774983 4.96499872 10.7774983 5.05499842 10.7624989 5.13749882 10.7399989 5.21999932 10.7099992 5.34749882 10.6574984 5.51999942 10.5824986L5.51999942 11.159998C5.20499982 11.2499982 4.97999942 11.3024979 4.83749862 11.3024979 4.58999872 11.3024979 4.35749912 11.2199974 4.13999842 11.0624981 3.89999862 10.8824978 3.74249842 10.6124973 3.65249872 10.2374973L3.26249891 10.2374973 3.38249881 9.90749834 3.59249881 9.90749834C3.59249881 9.84749794 3.58499911 9.80249884 3.58499911 9.77999874 3.58499911 9.76499844 3.58499911 9.74999904 3.58499911 9.71999834L3.25499921 9.71999834 3.37499911 9.38999844 3.62999832 9.38999844C3.68249812 9.14999864 3.77999842 8.93249794 3.92249782 8.75249864 4.15499842 8.44499784 4.47749762 8.28749843 4.89749822 8.28749843 5.10749822 8.28749843 5.28749762 8.32499883 5.43749822 8.39999863 5.49749772 8.42999834 5.58749782 8.48249914 5.69999802 8.55749894L5.52750022 9.05249984zM9.00000004 12.7500001C7.55249983 12.7500001 6.37500003 13.9275018 6.37500003 15.3750001 6.37500003 16.8224984 7.55249983 18.0000001 9.00000004 18.0000001 10.4475002 18.0000001 11.625 16.8224984 11.625 15.3750001 11.625 13.9275018 10.4475002 12.7500001 9.00000004 12.7500001zM9.91500004 16.8599988C9.79499924 16.9049989 9.66749964 16.927498 9.53249944 16.927498 9.44999894 16.927498 9.38249984 16.9199983 9.33000004 16.9124986 9.26999964 16.904997 9.17249884 16.8749982 9.02249924 16.8299981 8.86499894 16.7849961 8.73749944 16.762497 8.63999864 16.762497 8.56499884 16.762497 8.48999904 16.7774983 8.42999864 16.7999974 8.36249943 16.8224965 8.28749873 16.8674966 8.19749853 16.927498L7.94249843 16.5449982C8.07749863 16.4474984 8.17499943 16.3649979 8.23499793 16.289999 8.34749813 16.1549988 8.39999793 16.0199985 8.39999793 15.8774986 8.39999793 15.8024978 8.38499853 15.727499 8.36249753 15.6449985L7.92749803 15.6449985 7.92749803 15.2999992 8.21249783 15.2999992C8.18999783 15.2400016 8.16749773 15.1875 8.15249743 15.1575012 8.10749733 15.0600014 8.07749763 14.9700012 8.06249823 14.9100017 8.04749793 14.8425025 8.03999723 14.7750015 8.03999723 14.692501 8.03999723 14.4825019 8.11499803 14.3100013 8.27249823 14.1600017 8.45999824 13.9800014 8.72999874 13.8975009 9.06749834 13.8975009 9.39749824 13.8975009 9.65999804 13.9800014 9.83999834 14.1450004 10.0199986 14.3100013 10.1174985 14.5424995 10.1249991 14.8500003L9.53999914 14.8500003C9.53999914 14.7075004 9.50249874 14.6025008 9.44249834 14.5349998 9.35999784 14.4449977 9.23999894 14.3924999 9.08999834 14.3924999 8.97749914 14.3924999 8.87999834 14.4224987 8.81249914 14.4825001 8.73749934 14.5424996 8.69999894 14.625 8.69999894 14.7225018 8.69999894 14.8050023 8.72249894 14.9025002 8.76749814 15.0150013 8.81249914 15.1350021 8.84999864 15.2250004 8.87249764 15.2925015L9.41249764 15.2925015 9.41249764 15.6375027 8.98499784 15.6375027C8.99999814 15.6975022 8.99999814 15.7575035 8.99999814 15.8175011 8.99999814 15.9150009 8.96999844 16.0125027 8.91749764 16.0950032 8.86499784 16.1775037 8.77499774 16.2825032 8.64749714 16.3875027 8.78249734 16.3275032 8.90249634 16.2975006 9.02249714 16.2975006 9.10499764 16.2975006 9.20249654 16.3125019 9.31499664 16.3425026 9.43499654 16.3725014 9.52499664 16.3950024 9.58499714 16.3950024 9.73499674 16.3950024 9.86999694 16.3350029 9.97499654 16.2225037L10.2299957 16.6575032C10.1325006 16.7474996 10.0349998 16.8150006 9.91500004 16.8599988z"/>
      <g transform="translate(12 9)">
        <path d="M3.77249912 3.75000002C3.74250032 3.72750002 3.65249832 3.69750022 3.50999831 3.65250022L3.50999831 4.45500002C3.79499812 4.41749962 3.94499782 4.28250132 3.94499782 4.04999932 3.93750002 3.92250062 3.88499832 3.81749922 3.77249912 3.75000002zM2.86500171 2.69249921C2.86500171 2.79000001 2.89500051 2.86499981 2.94750221 2.91749961 3.00749981 2.96999941 3.10500151 3.01499941 3.25500111 3.05249981L3.25500111 2.34000021C2.99250031 2.35499951 2.86500171 2.47500041 2.86500171 2.69249921z"/>
        <path fill-rule="nonzero" d="M3.37500001,0.750000003 C1.92750171,0.750000003 0.750000003,1.92749981 0.750000003,3.37500001 C0.750000003,4.82249832 1.92750171,6.00000002 3.37500001,6.00000002 C4.82249832,6.00000002 6.00000003,4.82249832 6.00000003,3.37500001 C6.00000003,1.92750171 4.82249832,0.750000003 3.37500001,0.750000003 Z M4.28250122,4.59749982 C4.18500142,4.70249932 4.07250212,4.77749822 3.95250132,4.82999992 C3.83250052,4.87500002 3.68250082,4.90499882 3.50250051,4.92000012 L3.50250051,5.34000022 L3.25500101,5.34000022 L3.25500101,4.92000012 C2.97000311,4.90499882 2.73750301,4.82999992 2.58000181,4.70250132 C2.35500141,4.52250102 2.23500061,4.26750182 2.23500061,3.93000032 L2.81999971,3.93000032 C2.81999971,4.25250052 2.96249961,4.43250082 3.26250081,4.46249962 L3.26250081,3.59249971 C2.99250031,3.51749991 2.79749871,3.44999981 2.70000081,3.38999941 C2.56500061,3.31499961 2.46749881,3.22500041 2.40750131,3.11999891 C2.34750181,3.01499841 2.31749921,2.88749881 2.31749921,2.73749921 C2.31749921,2.57249921 2.36249931,2.42249871 2.44499971,2.29499911 C2.52750011,2.16749951 2.65499881,2.06249901 2.81250001,1.99499891 C2.92499921,1.94249911 3.07500081,1.91249841 3.26250081,1.89749911 L3.26250081,1.52999971 L3.50999841,1.52999971 L3.50999841,1.89749911 C3.80249792,1.91249851 4.02749832,1.99499891 4.18499952,2.13749891 C4.34249882,2.28749851 4.42499932,2.48999891 4.42499932,2.75249871 L3.87000092,2.75249871 C3.86249932,2.50499831 3.74250042,2.36249931 3.51000221,2.33249861 L3.51000221,3.09749801 C3.53250131,3.10499861 3.58500111,3.11999801 3.67500312,3.13499841 C3.96750262,3.20999821 4.17750362,3.30749811 4.29750072,3.41249761 C4.44750222,3.54749781 4.52250112,3.73499782 4.52250112,3.97499762 C4.51500132,4.22999952 4.44000052,4.44000052 4.28250122,4.59749982 Z"/>
      </g>
    </g>
  </g>
</svg>
