<svg xmlns="http://www.w3.org/2000/svg" width="24" height="24" viewBox="0 0 24 24">
  <g fill="none" fill-rule="evenodd">
    <path fill="#2D327D" d="M22.5,0 L1.5,0 C0.675000003,0 0,0.675000003 0,1.5 L0,22.5 C0,23.3250009 0.675000003,24 1.5,24 L22.5,24 C23.3250009,24 24,23.3250009 24,22.5 L24,1.5 C24,0.675000003 23.3250009,0 22.5,0 Z"/>
    <g fill="#FFF" transform="translate(3 5)">
      <path d="M2.13749981,6.10000043 C1.97250031,6.10000043 1.83750011,6.23500063 1.83750011,6.39999963 C1.83750011,6.82749943 2.14500001,7.18750003 2.57250021,7.25499913 L4.99500032,7.62999913 C5.10000032,7.64499943 5.18250082,7.73499863 5.18250082,7.84749883 C5.18250082,7.96749963 5.08500002,8.06499853 4.96500112,8.06499853 L0.539999702,8.06499853 C0.239999701,8.06499853 0,8.30499833 0,8.60499854 C0,8.90499874 0.239999801,9.14499854 0.539999702,9.14499854 L3.39749951,9.14499854 C3.59249971,9.14499854 3.74999992,9.30249884 3.74999992,9.49749754 C3.74999992,9.69249814 3.59250011,9.85749814 3.39749991,9.85749814 L0.539999702,9.85749814 C0.239999701,9.85749814 0,10.0974979 0,10.3974981 C0,10.6974983 0.239999801,10.9374981 0.539999702,10.9374981 L3.39749951,10.9374981 C3.59249971,10.9374981 3.74999992,11.0949974 3.74999992,11.289999 C3.74999992,11.4849987 3.59250011,11.6424999 3.39749991,11.6424999 L0.539999702,11.6424999 C0.239999701,11.6424999 0,11.8824997 0,12.1825009 C0,12.4825001 0.239999801,12.7225018 0.539999702,12.7225018 L3.39749951,12.7225018 C3.59249971,12.7225018 3.74999992,12.8800011 3.74999992,13.0750027 C3.74999992,13.2700024 3.59250011,13.4275036 3.39749991,13.4275036 L0.539999702,13.4275036 C0.239999701,13.4275036 0,13.6675034 0,13.9675045 C0,14.2675037 0.239999801,14.5075054 0.539999702,14.5075054 L12,14.5075054 L12,12.1825046 C12,11.8750037 11.7450008,11.6200045 11.4375,11.6200045 L10.6875,11.6200045 C10.3799992,11.6200045 10.125,11.3650053 10.125,11.0575045 C10.125,10.7425049 10.3799992,10.4950045 10.6875,10.4950045 L11.4375,10.4950045 C11.7450008,10.4950045 12,10.2400053 12,9.93250454 L12,7.60750473 L2.18250081,6.10750473 C2.16750001,6.10000043 2.15249971,6.10000043 2.13749981,6.10000043 L2.13749981,6.10000043 Z"/>
      <path fill-rule="nonzero" d="M17.8275014,8.80750084 L16.7850019,7.76500133 C16.6800024,7.66000183 16.5375024,7.60000133 16.3875028,7.60000133 L15.9300023,7.60000133 L15.9300023,3.32500081 L16.687502,3.32500081 C17.4150029,3.32500081 18,2.74000081 18,2.01250131 C18,1.28500181 17.4075032,0.700001303 16.687502,0.700001303 L16.1250001,0.700001303 C15.915001,0.700001303 15.7500001,0.865000804 15.7500001,1.0750013 C15.7500001,1.27750121 15.915001,1.45000131 16.1250001,1.45000131 L16.6875001,1.45000131 C17.0025006,1.45000131 17.2500001,1.70500091 17.2500001,2.01250131 C17.2500001,2.32000171 17.0025006,2.57500131 16.6875001,2.57500131 L13.4925004,2.57500131 L13.4925004,0.700001303 L1.40249971,2.57499981 L0,2.57499981 L0,2.94999981 L0,3.32499981 L1.40249971,3.32499981 L13.4925,5.2000013 L13.4925,3.32499981 L15.555,3.32499981 L15.555,7.60000043 L15.0974995,7.60000043 C14.947498,7.60000043 14.805,7.65999993 14.7000004,7.76499943 L13.6575009,8.80749894 C13.5525014,8.91249844 13.4925,9.05499934 13.4925,9.20499994 L13.4925,15.4375001 C13.4925,15.7450009 13.7474992,16.0000001 14.055,16.0000001 L17.43,16.0000001 C17.7450005,16.0000001 17.9925,15.7450009 17.9925,15.4375001 L17.9925,9.20499994 C17.9925004,9.06250004 17.9325009,8.91250044 17.8275014,8.80750084 L17.8275014,8.80750084 Z M16.1775018,14.5000001 L15.2475015,14.5000001 L15.2475015,13.5849992 L16.1775018,13.5849992 L16.1775018,14.5000001 Z M17.0550004,11.9424992 C16.9424993,12.1000005 16.7250005,12.2950002 16.4024983,12.5200006 C16.3050004,12.5874998 16.2299996,12.6775018 16.1924992,12.7749998 C16.1474992,12.8724996 16.1250001,13.0150014 16.1250001,13.1949998 L15.33,13.1949998 C15.3374997,12.977501 15.3450013,12.8350011 15.3524991,12.7600022 C15.3599988,12.6850014 15.3824979,12.602501 15.4124986,12.5200005 C15.4499971,12.415001 15.5024988,12.3325005 15.5624982,12.2650013 C15.6224976,12.1975021 15.7499982,12.085001 15.9449979,11.9275016 C16.0874978,11.8150005 16.1849996,11.7175025 16.2374974,11.6350021 C16.2899991,11.5525016 16.3124982,11.4475021 16.3124982,11.335001 C16.3124982,11.1925011 16.2674981,11.0725021 16.1699983,10.9900007 C16.0724985,10.9000015 15.9524995,10.8550005 15.7949983,10.8550005 C15.3899995,10.8550005 15.1799966,11.1025009 15.1649991,11.5900002 L14.2949983,11.5900002 C14.3174974,11.2075005 14.4074975,10.9075003 14.5724985,10.6825009 C14.842499,10.3075009 15.2549993,10.1200009 15.8099996,10.1200009 C16.2449991,10.1200009 16.5975,10.2400008 16.8524991,10.4724999 C17.1074983,10.7050009 17.2349988,10.9899998 17.2349988,11.3424988 C17.2200013,11.5900002 17.1599999,11.7849998 17.0550004,11.9424992 Z"/>
    </g>
  </g>
</svg>
