<svg xmlns="http://www.w3.org/2000/svg" width="24" height="24" viewBox="0 0 24 24">
  <g fill="none" fill-rule="evenodd">
    <path fill="#2D327D" d="M22.5,0 L1.5,0 C0.675000003,0 0,0.675000003 0,1.5 L0,22.5 C0,23.3250009 0.675000003,24 1.5,24 L22.5,24 C23.3250009,24 24,23.3250009 24,22.5 L24,1.5 C24,0.675000003 23.3250009,0 22.5,0 Z"/>
    <g fill="#FFF" transform="translate(3 7)">
      <path fill-rule="nonzero" d="M0.727499703,12.5749999 L5.22749972,12.5749999 L5.95499972,1.65499981 C5.95499972,1.63249981 5.95499972,1.60999881 5.95499972,1.58749971 C5.95499972,1.0325003 5.50499892,0.574999902 4.94249942,0.574999902 L1.0124998,0.574999902 C0.450000002,0.574999902 0,1.0325003 0,1.58749961 C0,1.61000061 0,1.63250061 0,1.65499971 L0.727499703,12.5749999 L0.727499703,12.5749999 Z M0.794999803,1.69999981 C0.794999803,1.48999981 0.959999504,1.32499981 1.17,1.32499981 L4.79249952,1.32499981 C5.00249952,1.32499981 5.16749952,1.48999981 5.16749952,1.69999981 C5.16749952,1.70750041 5.16749952,1.71500011 5.16749952,1.72249981 L4.94249962,5.07499982 L1.02,5.07499982 L0.794999803,1.72249981 C0.794999803,1.71500021 0.794999803,1.70750051 0.794999803,1.69999981 L0.794999803,1.69999981 Z"/>
      <polygon points="4.717 2.195 4.455 2.045 4.088 2.698 4.342 2.847"/>
      <polygon points="3.952 1.842 3.66 1.767 3.473 2.495 3.765 2.57"/>
      <polygon points="2.835 1.7 3.135 1.7 3.135 2.45 2.835 2.45"/>
      <path d="M2.79000001,4.69999982 L3.17999941,4.69999982 L2.36999951,1.93250081 C2.34749891,1.85000041 2.27249911,1.79750061 2.18999911,1.79750061 C2.08499911,1.79750061 2.00249911,1.88000111 2.00249911,1.98500061 C2.00249911,2.00000001 2.00249911,2.02250001 2.00999931,2.03750041 L2.79000001,4.69999982 L2.79000001,4.69999982 Z"/>
      <polygon points="1.875 2.705 1.5 2.052 1.238 2.202 1.613 2.847"/>
      <path fill-rule="nonzero" d="M16.8750001,5.07499982 L14.25,5.07499982 L14.25,4.32499982 C14.25,3.86749942 13.8824998,3.50000001 13.4249993,3.50000001 L11.3249998,3.50000001 C10.8674994,3.50000001 10.5,3.86749942 10.5,4.32499982 L10.5,5.07499982 L7.87500003,5.07499982 C7.25249963,5.07499982 6.75000003,5.57749942 6.75000003,6.19999983 L6.75000003,11.4500008 C6.75000003,12.0724985 7.25249963,12.5750009 7.87500003,12.5750009 L16.8750001,12.5750009 C17.4974996,12.5750009 18.0000001,12.0724985 18.0000001,11.4500008 L18.0000001,6.19999983 C18.0000001,5.57749942 17.4974996,5.07499982 16.8750001,5.07499982 L16.8750001,5.07499982 Z M12.1875001,9.35000044 C12.1875001,9.51500134 12.0524999,9.64999964 11.8874998,9.64999964 L9.86250024,9.64999964 C9.69750024,9.64999964 9.56250004,9.51500134 9.56250004,9.35000044 L9.56250004,6.75499923 C9.56250004,6.67249873 9.59249974,6.59749893 9.65250024,6.54499923 L10.3125,5.88499932 C10.3500004,5.84749892 10.3950005,5.83249952 10.4475002,5.83249952 L10.6875,5.83249952 L10.6875,6.20749953 L11.0625,6.20749953 L11.0625,5.83249952 L11.3024998,5.83249952 C11.3474999,5.83249952 11.3999996,5.85499952 11.4375,5.88499932 L12.0974999,6.54499913 C12.1499997,6.59749893 12.1875001,6.67999933 12.1875001,6.75499913 L12.1875001,9.35000044 L12.1875001,9.35000044 Z M13.5750009,5.07499982 L11.1750002,5.07499982 L11.1750002,4.17500022 L13.5750009,4.17500022 L13.5750009,5.07499982 L13.5750009,5.07499982 Z"/>
      <polygon points="0 13.325 17.993 13.325 17.993 14 0 14"/>
    </g>
  </g>
</svg>
