<svg xmlns="http://www.w3.org/2000/svg" width="24" height="24" viewBox="0 0 24 24">
  <g fill="none" fill-rule="evenodd">
    <path fill="#2D327D" d="M22.5,0 L1.5,0 C0.675000003,0 0,0.675000003 0,1.5 L0,22.5 C0,23.3250009 0.675000003,24 1.5,24 L22.5,24 C23.3250009,24 24,23.3250009 24,22.5 L24,1.5 C24,0.675000003 23.3250009,0 22.5,0 Z"/>
    <g fill="#FFF" transform="translate(3 4)">
      <path d="M2.53500031,5.65999982 C2.59500031,5.72000032 2.67750021,5.75000002 2.76000021,5.75000002 C2.93250031,5.75000002 3.07499981,5.60750012 3.07499981,5.43500042 C3.07499981,5.35249992 3.04500011,5.27000042 2.98500011,5.21000002 L2.64750001,4.87250042 L2.78250021,4.73750022 L3.69750022,5.65250022 C3.76499992,5.71249962 3.84750032,5.75000002 3.93750002,5.75000002 C4.12500002,5.75000002 4.27500012,5.60000042 4.27500012,5.41250042 C4.27500012,5.32250022 4.23750022,5.23999982 4.17749982,5.17250062 L3.26249981,4.25750062 L3.39750001,4.12250042 L4.92749972,5.65250012 C4.98750022,5.71249962 5.07749942,5.75000002 5.16749952,5.75000002 C5.35499952,5.75000002 5.50499912,5.60000042 5.50499912,5.41250042 C5.50499912,5.32250022 5.46749972,5.23999982 5.40749932,5.17250062 L3.87749962,3.64250092 L4.01249982,3.50750071 L6.14999963,5.64500052 C6.21749973,5.71249962 6.30750083,5.75000002 6.40499973,5.75000002 C6.60000033,5.75000002 6.75749973,5.59249972 6.75749973,5.38999942 C6.75749973,5.29249962 6.71999933,5.20249942 6.65250023,5.13500022 L3.63749982,2.12000041 C3.57749991,2.06000041 3.54000001,1.97000031 3.54000001,1.88000061 C3.54000001,1.69250061 3.68999962,1.54250051 3.87749962,1.54250051 L5.06999972,1.54250051 C5.31749922,1.54250051 5.51999952,1.34000111 5.51999952,1.0925007 C5.51999952,1.0700007 5.51999952,1.0475006 5.51249892,1.0250006 C5.49749952,0.935000904 5.42249872,0.867500804 5.32499892,0.867500804 L0,0.867500804 L0,3.49250081 L0.375000002,3.49250081 L2.53500031,5.65999982 L2.53500031,5.65999982 Z"/>
      <path fill-rule="nonzero" d="M11.25,14.4500009 L11.25,9.19999984 C11.25,8.57749944 10.7475004,8.07499983 10.125,8.07499983 L7.5,8.07499983 L7.5,7.39999963 C7.5,6.90499973 7.09500033,6.50000003 6.60000043,6.50000003 L4.65000012,6.50000003 C4.15499972,6.50000003 3.75000002,6.90499973 3.75000002,7.39999963 L3.75000002,8.07499983 L1.125,8.07499983 C0.502499802,8.07499983 0,8.57749944 0,9.19999984 L0,14.4500009 C0,15.0724985 0.502499802,15.5750009 1.125,15.5750009 L10.125,15.5750009 C10.7475004,15.5750009 11.25,15.0724984 11.25,14.4500009 L11.25,14.4500009 Z M4.42500022,7.17500023 L6.82499983,7.17500023 L6.82499983,8.07499983 L4.42500022,8.07499983 L4.42500022,7.17500023 L4.42500022,7.17500023 Z M8.43750004,12.3125001 C8.43750004,12.477501 8.30249983,12.6124993 8.13749983,12.6124993 L6.11250023,12.6124993 C5.94750022,12.6124993 5.81250002,12.477501 5.81250002,12.3125001 L5.81250002,9.71749974 C5.81250002,9.63499924 5.84249972,9.55999944 5.90250022,9.50749974 L5.90250022,9.50749974 L6.52499973,8.88499934 C6.56250013,8.84749894 6.60750023,8.83249954 6.65999993,8.83249954 L6.94500073,8.83249954 L6.94500073,9.20749954 L7.32000073,9.20749954 L7.32000073,8.83249954 L7.60500053,8.83249954 C7.65750033,8.83249954 7.70250133,8.85499954 7.74000073,8.88499934 L8.36250113,9.50749974 C8.42250154,9.56749924 8.45250134,9.64249994 8.45250134,9.71749974 L8.43750004,12.3125001 L8.43750004,12.3125001 Z"/>
      <polygon points="6.75 16.325 18 16.325 18 17 6.75 17"/>
    </g>
  </g>
</svg>
