<svg xmlns="http://www.w3.org/2000/svg" width="24" height="24" viewBox="0 0 24 24">
  <g fill="none" fill-rule="evenodd">
    <path fill="#2D327D" d="M22.5,0 L1.5,0 C0.675000003,0 0,0.675000003 0,1.5 L0,22.5 C0,23.3250009 0.675000003,24 1.5,24 L22.5,24 C23.3250009,24 24,23.3250009 24,22.5 L24,1.5 C24,0.675000003 23.3250009,0 22.5,0 Z"/>
    <path fill="#FFF" fill-rule="nonzero" d="M15.7500001,2.50000001 L11.7749996,2.50000001 L11.7749996,1.56250001 C11.7749996,0.835000003 11.1899996,0.250000001 10.4624996,0.250000001 L7.53750043,0.250000001 C6.81000043,0.250000001 6.22500043,0.835000003 6.22500043,1.56250001 L6.22500043,2.50000001 L2.25000001,2.50000001 C1.0050001,2.50000001 0,3.50499921 0,4.75 L0,13.75 C0,14.9874993 1.0050001,16.0000001 2.25000001,16.0000001 L15.7500001,16.0000001 C16.9950009,16.0000001 18,14.9950009 18,13.75 L18,4.75 C18,3.50499921 16.9950009,2.50000001 15.7500001,2.50000001 L15.7500001,2.50000001 Z M10.7250004,2.50000001 L7.27499963,2.50000001 L7.27499963,1.30000021 L10.7250004,1.30000021 L10.7250004,2.50000001 L10.7250004,2.50000001 Z" transform="translate(3 5)"/>
  </g>
</svg>
