<svg xmlns="http://www.w3.org/2000/svg" width="24" height="24" viewBox="0 0 24 24">
  <g fill="none" fill-rule="evenodd">
    <path fill="#2D327D" d="M22.5,0 L1.5,0 C0.675000003,0 0,0.675000003 0,1.5 L0,22.5 C0,23.3250009 0.675000003,24 1.5,24 L22.5,24 C23.3250009,24 24,23.3250009 24,22.5 L24,1.5 C24,0.675000003 23.3250009,0 22.5,0 Z"/>
    <g fill="#FFF" transform="translate(2 6)">
      <polygon points="1 1.5 1.675 1.5 1.675 2.625 1 2.625"/>
      <polygon points="1 13.125 1.675 13.125 1.675 14.25 1 14.25"/>
      <polygon points="2.425 .75 3.475 .75 3.475 15 2.425 15"/>
      <polygon points="4.15 13.163 15.85 13.163 15.85 14.25 4.15 14.25"/>
      <path fill-rule="nonzero" d="M14.7250005,4.83749961 L11.8000002,4.83749961 L11.8000002,4.27499962 C11.8000002,3.75750062 11.3799992,3.33749961 10.8625002,3.33749961 L9.13749984,3.33749961 C8.62000084,3.33749961 8.19999983,3.75750062 8.19999983,4.27499962 L8.19999983,4.83749961 L5.27500012,4.83749961 C4.65249972,4.83749961 4.15000012,5.34000012 4.15000012,5.96249962 L4.15000012,11.25 C4.15000012,11.8724995 4.65249972,12.3750001 5.27500012,12.3750001 L14.725001,12.3750001 C15.3475005,12.3750001 15.850001,11.8724995 15.850001,11.25 L15.850001,5.96249962 C15.850001,5.34000022 15.3474999,4.83749961 14.7250005,4.83749961 L14.7250005,4.83749961 Z M11.125,4.83749962 L8.87500004,4.83749962 L8.87500004,4.01249982 L11.125,4.01249982 L11.125,4.83749962 L11.125,4.83749962 Z"/>
      <polygon points="4.15 1.5 15.85 1.5 15.85 2.587 4.15 2.587"/>
      <polygon points="16.525 .75 17.575 .75 17.575 15 16.525 15"/>
      <polygon points="18.325 1.5 19 1.5 19 2.625 18.325 2.625"/>
      <polygon points="18.325 13.125 19 13.125 19 14.25 18.325 14.25"/>
    </g>
  </g>
</svg>
