<svg xmlns="http://www.w3.org/2000/svg" width="24" height="24" viewBox="0 0 24 24">
  <g fill="none" fill-rule="evenodd">
    <path fill="#2D327D" d="M22.5,0 L1.5,0 C0.675000003,0 0,0.675000003 0,1.5 L0,22.5 C0,23.3250009 0.675000003,24 1.5,24 L22.5,24 C23.3250009,24 24,23.3250009 24,22.5 L24,1.5 C24,0.675000003 23.3250009,0 22.5,0 Z"/>
    <g fill="#FFF" fill-rule="nonzero" transform="translate(2 2)">
      <path d="M1,5.87500002 L1,19.0000001 L19,19.0000001 L19,5.87500002 L1,5.87500002 L1,5.87500002 Z M17.8750001,17.8750001 L2.12500001,17.8750001 L2.12500001,7.00000003 L17.8750001,7.00000003 L17.8750001,17.8750001 L17.8750001,17.8750001 Z"/>
      <path d="M5.12500002 17.1250001L14.8750001 17.1250001C15.4974996 17.1250001 16 16.6224996 16 16.0000001L16 10.3000002C16 9.67749984 15.4974996 9.17500024 14.8750001 9.17500024L11.8000002 9.17500024 11.8000002 8.68750004C11.8000002 8.17000013 11.3799992 7.75000003 10.8625002 7.75000003L9.13749984 7.75000003C8.62000084 7.75000003 8.19999983 8.17000013 8.19999983 8.68750004L8.19999983 9.17500024 5.12500002 9.17500024C4.50249962 9.17500024 4.00000002 9.67749984 4.00000002 10.3000002L4.00000002 16.0000001C4.00000002 16.6224996 4.50249962 17.1250001 5.12500002 17.1250001L5.12500002 17.1250001zM8.87500004 8.42500024L11.125 8.42500024 11.125 9.17500024 8.87500004 9.17500024 8.87500004 8.42500024 8.87500004 8.42500024zM7.37500003 3.43750001L8.12500003 4.18750002 8.87500004 3.43750001 9.62500004 4.18750002 10.5625 3.25000001 9.62500004 2.31250001 5.33500002 2.31250001C4.97499992 1.51750021 4.18000032.962500104 3.25000001.962500104 1.98999981.962500104.962500104 1.98999981.962500104 3.25000001.962500104 4.51000022 1.98999981 5.53749992 3.25000001 5.53749992 4.18000032 5.53749992 4.97499992 4.98250052 5.33500002 4.18750002L6.62500003 4.18750002 7.37500003 3.43750001zM2.12500001 4.00000001C1.71250011 4.00000001 1.37500001 3.66249992 1.37500001 3.25000001 1.37500001 2.83750011 1.71250011 2.50000001 2.12500001 2.50000001 2.53749991 2.50000001 2.87500001 2.83750011 2.87500001 3.25000001 2.87500001 3.66249992 2.53749991 4.00000001 2.12500001 4.00000001z"/>
    </g>
  </g>
</svg>
