<svg xmlns="http://www.w3.org/2000/svg" width="24" height="24" viewBox="0 0 24 24">
  <g fill="none" fill-rule="evenodd">
    <path fill="#2D327D" d="M22.5,0 L1.5,0 C0.675000003,0 0,0.675000003 0,1.5 L0,22.5 C0,23.3250009 0.675000003,24 1.5,24 L22.5,24 C23.3250009,24 24,23.3250009 24,22.5 L24,1.5 C24,0.675000003 23.3250009,0 22.5,0 Z"/>
    <g fill="#FFF" transform="translate(3 2)">
      <path d="M4.12500002,14.5000001 L0.375000002,14.5000001 C0.164999701,14.5000001 0,14.665001 0,14.8750001 L0,19.0000001 L0.750000003,19.0000001 L0.750000003,15.2500001 L3.75000002,15.2500001 L3.75000002,19.0000001 L4.5,19.0000001 L4.5,14.8750001 C4.5,14.665001 4.33500002,14.5000001 4.12500002,14.5000001 L4.12500002,14.5000001 Z"/>
      <path d="M6.84749983,12.9025003 C6.79500013,12.5275003 6.48000053,12.2500001 6.10500053,12.2500001 L3.37500001,12.2500001 L3.37500001,9.60250004 L4.71000002,11.5824995 C4.83000082,11.7549992 5.02499962,11.8599987 5.23500062,11.8599987 C5.58749962,11.8599987 5.87250042,11.5749989 5.87250042,11.2224989 C5.87250042,11.0949993 5.83500002,10.9674997 5.76750092,10.8624992 L3.01500081,6.78999903 C2.70750091,6.33249853 2.19750071,6.06249903 1.65000101,6.06249903 C0.742501203,6.06249903 1.1e-06,6.80499843 1.1e-06,7.71249863 L1.1e-06,13.0000001 C1.1e-06,13.4125005 0.337501001,13.7500001 0.750001103,13.7500001 L5.41500112,13.7500001 L6.03000093,18.3400003 C6.08250073,18.7225019 6.40500093,19.0074998 6.79500033,19.0074998 C7.21500133,19.0074998 7.56750133,18.6625005 7.56750133,18.2425004 C7.56750133,18.2124997 7.56750133,18.1749993 7.56000073,18.1375009 L6.84749983,12.9025003 L6.84749983,12.9025003 Z"/>
      <path fill-rule="nonzero" d="M17.2500001,13.3374997 L14.9474984,13.3374997 L14.9474984,12.8874999 C14.9474984,12.5349999 14.6625005,12.2500001 14.3099995,12.2500001 L12.8474989,12.2500001 C12.4949989,12.2500001 12.2099991,12.5349999 12.2099991,12.8874999 L12.2099991,13.3374997 L9.89999954,13.3374997 C9.48750014,13.3374997 9.14999954,13.6750003 9.14999954,14.0874997 L9.14999954,18.2500001 C9.14999954,18.6625005 9.48750014,19.0000001 9.89999954,19.0000001 L17.2500001,19.0000001 C17.6625005,19.0000001 18.0000001,18.6625005 18.0000001,18.2500001 L18.0000001,14.0874997 C18.0000001,13.6750003 17.6625005,13.3374997 17.2500001,13.3374997 L17.2500001,13.3374997 Z M14.4224988,13.3374997 L12.7349988,13.3374997 L12.7349988,12.7749997 L14.4224988,12.7749997 L14.4224988,13.3374997 L14.4224988,13.3374997 Z"/>
      <g transform="translate(11)">
        <path fill-rule="nonzero" d="M4.03750042,7.07499983 C5.75499922,7.07499983 7.14999963,5.67999932 7.14999963,3.96250012 C7.14999963,2.24500091 5.75499912,0.849999904 4.03750042,0.849999904 C2.31999971,0.849999904 0.925000204,2.24499991 0.925000204,3.96250012 C0.925000204,5.68000032 2.31999971,7.07499983 4.03750042,7.07499983 L4.03750042,7.07499983 Z M4.03750042,1.56250001 C5.36500172,1.56250001 6.43750003,2.63500021 6.43750003,3.96250012 C6.43750003,5.29000002 5.36500172,6.36250023 4.03750042,6.36250023 C2.70999911,6.36250023 1.63749981,5.29000002 1.63749981,3.96250012 C1.63749981,2.63500021 2.70999911,1.56250001 4.03750042,1.56250001 L4.03750042,1.56250001 Z"/>
        <path d="M5.39500052 2.81499961C5.43250092 2.77749971 5.44750222 2.73250011 5.44750222 2.67999941 5.44750222 2.57499941 5.36500172 2.49249941 5.26000222 2.49249941 5.20750052 2.49249941 5.16250242 2.51499991 5.12500202 2.54499921L4.21000112 3.45999921 4.47250192 3.72249902 5.39500052 2.81499961 5.39500052 2.81499961zM3.94749832 4.25500012L4.20999912 3.99250071 2.76250081 2.54500051C2.72500041 2.50750061 2.68000031 2.49250071 2.62750061 2.49250071 2.52250111 2.49250071 2.44000061 2.57500071 2.44000061 2.68000071 2.44000061 2.73250051 2.46249971 2.77750101 2.49250231 2.81500091L3.94749832 4.25500012 3.94749832 4.25500012z"/>
      </g>
      <path d="M1.5,5.57499981 C2.32499981,5.57499981 3,4.90000012 3,4.07499981 C3,3.24999951 2.32499981,2.57499981 1.5,2.57499981 C0.675000203,2.57499981 0,3.25000001 0,4.07499981 C0,4.89999962 0.675000003,5.57499981 1.5,5.57499981 L1.5,5.57499981 Z"/>
    </g>
  </g>
</svg>
