<svg xmlns="http://www.w3.org/2000/svg" width="24" height="24" viewBox="0 0 24 24">
  <g fill="none" fill-rule="evenodd">
    <path fill="#2D327D" d="M22.5,0 L1.5,0 C0.675000003,0 0,0.675000003 0,1.5 L0,22.5 C0,23.3250009 0.675000003,24 1.5,24 L22.5,24 C23.3250009,24 24,23.3250009 24,22.5 L24,1.5 C24,0.675000003 23.3250009,0 22.5,0 Z"/>
    <g fill="#FFF" transform="translate(3 2)">
      <path d="M15.3599988,10.0974998 L18.0000001,12.7375003 L18.0000001,19.0000001 L10.1100006,19.0000001 C9.76499944,19.0000001 9.48000054,18.7150003 9.48000054,18.3700009 C9.48000054,18.3549996 9.48000054,18.3400002 9.48000054,18.3250008 C9.48000054,18.2724991 9.48750114,18.2124997 9.51000024,18.1599999 C9.65999984,17.7625008 10.0349998,17.4925004 10.4624996,17.4925004 L10.4775,17.4925004 L12.6750003,17.4925004 C12.9450008,17.4925004 13.1625005,17.2749997 13.1625005,17.0049993 L13.1625005,15.7374994 C13.1625005,15.5424997 13.08,15.3475 12.9450008,15.2050001 L8.85750014,11.125 C8.58749964,10.8549995 8.58749964,10.4125004 8.85750014,10.1424999 C9.12750064,9.87249944 9.57000074,9.87249944 9.84000114,10.1424999 L14.1825009,14.4925004 L14.4225007,14.2524987 L10.5375013,10.3674984 L10.8000011,10.0974979 C10.9125013,9.98499774 11.0625009,9.92499734 11.2275009,9.92499734 C11.3850012,9.92499734 11.5425005,9.98499774 11.6549998,10.0974979 L15.1275006,13.5699978 L15.3675023,13.329998 L12.3975011,10.3599986 L12.6600019,10.0899981 C12.7725011,9.97749894 12.9225017,9.91749844 13.0875017,9.91749844 C13.245001,9.91749844 13.4025003,9.97749884 13.5150015,10.0899981 L16.057501,12.6324977 L16.2975008,12.3924979 L14.2500001,10.3674994 L14.5125009,10.0974989 C14.6250001,9.98499874 14.7749998,9.92499924 14.9400007,9.92499924 C15.0974999,9.92500024 15.2474996,9.98500064 15.3599988,10.0974998 L15.3599988,10.0974998 Z"/>
      <path d="M2.63999991 14.4025003L0 11.7624998 0 5.50000002 7.88999943 5.50000002C8.23500063 5.50000002 8.51999954 5.78500032 8.51999954 6.12999923 8.51999954 6.14499953 8.51999954 6.15999893 8.51999954 6.17500023 8.51999954 6.22750003 8.51249894 6.28750043 8.48999984 6.34000023 8.34000023 6.73750023 7.96500023 7.00749973 7.53750043 7.00749973L7.52250003 7.00749973 5.32499982 7.00749973C5.05499932 7.00749973 4.83750012 7.22499853 4.83750012 7.49499893L4.83750012 8.76249884C4.83750012 8.95749944 4.92000062 9.15249824 5.05499942 9.29499914L9.14250004 13.3824998C9.41250054 13.6525003 9.41250054 14.0949994 9.14250004 14.364998 8.87249954 14.6349985 8.42999944 14.6349985 8.15999903 14.364998L3.81749972 10.0149985 3.57749991 10.2549983 7.46249973 14.1399996 7.19999993 14.4100001C7.08749963 14.5224992 6.93750003 14.5824987 6.77250003 14.5824987 6.61499973 14.5824987 6.45750043 14.5224992 6.34500023 14.41L2.87250041 10.937499 2.63250061 11.1774988 5.60250092 14.1474992 5.34000112 14.4174997C5.22750092 14.5299989 5.07750132 14.5899984 4.91250132 14.5899984 4.75500062 14.5899984 4.59750122 14.5299989 4.48500152 14.4174997L1.94999981 11.8525 1.71000001 12.0924998 3.75000002 14.1324998 3.48750021 14.4024984C3.37500001 14.5149995 3.22499991 14.574997 3.06000041 14.574997 2.90249971 14.5750009 2.75249961 14.5150014 2.63999991 14.4025003L2.63999991 14.4025003zM1.88249971 1.66750001L1.41750001 1.66750001C1.41000031 1.55500001 1.36500021 1.47250031 1.29750011 1.41249991 1.2225003 1.35249971 1.125 1.32250021.990000204 1.32250021.877500203 1.32250021.787500603 1.34500051.720000503 1.39000031.652500402 1.43500011.622500202 1.50250031.622500202 1.58500021.622500202 1.66000021.652500402 1.71250001.712500103 1.74250001.772500303 1.77250021.922500104 1.82500001 1.1624999 1.87750021 1.41750001 1.93750051 1.59750031 2.00500011 1.69499971 2.07250021 1.87500001 2.19250011 1.96499971 2.35750051 1.96499971 2.56750011 1.96499971 2.80000021 1.87500001 2.98750021 1.68750001 3.11500021 1.53000021 3.23500011 1.30500031 3.29500061 1.0350003 3.29500061.727500403 3.29500061.495000302 3.22750051.322500201 3.08500011.1500001 2.94250021.0675001 2.74750051.0600002 2.49250041L.547500202 2.49250041C.555000102 2.61999991.585000302 2.71000001.645000502 2.77000001.735000203 2.86750031.870000403 2.91249991 1.0500007 2.91249991 1.1700006 2.91249991 1.26750091 2.88999991 1.34250071 2.83750011 1.42500071 2.78500031 1.46250061 2.71000001 1.46250061 2.61250021 1.46250061 2.51499991 1.40250021 2.44750021 1.29000051 2.40249971 1.23 2.37999961 1.0799999 2.33499961.847500303 2.26749941.705000103 2.22999951.585000302 2.19249961.502500302 2.15499971.420000602 2.11749941.352500401 2.07999941.307500401 2.03499981.195000401 1.92999951.1350003 1.78749941.1350003 1.60749981.1350003 1.38999981.225000001 1.21750021.405000301 1.0974996.555000202.992499604.757500003.932499904.997500304.932499904 1.2150003.932499904 1.38749991.977499704 1.53750001 1.0599997 1.76249981 1.1949999 1.87500001 1.38999991 1.88249971 1.66750001z"/>
      <path fill-rule="nonzero" d="M3.29250001,0.947500204 C3.59250021,0.947500204 3.83999972,1.0450005 4.04249952,1.24000021 C4.26749942,1.45750041 4.37999962,1.75000041 4.37999962,2.12500041 C4.37999962,2.4475002 4.29749912,2.71000091 4.12500002,2.92000051 C3.91500002,3.17500061 3.63749982,3.30250021 3.27749971,3.30250021 C2.90999981,3.30250021 2.62500001,3.17500071 2.41500001,2.91250041 C2.25000001,2.70250041 2.16749961,2.4475002 2.16749961,2.13250071 C2.16749961,1.75750051 2.27249961,1.46500041 2.48999981,1.26250061 C2.69999981,1.0524998 2.96999981,0.947500204 3.29250001,0.947500204 Z M3.27000001,1.35249971 C3.08999971,1.35249971 2.94749981,1.41999981 2.83499961,1.55499961 C2.72249981,1.68999981 2.66249941,1.87749981 2.66249941,2.11749941 C2.66249941,2.35749901 2.71499921,2.55249981 2.82749941,2.68749961 C2.87999921,2.75499971 2.94749931,2.79999931 3.02249911,2.83749971 C3.10499911,2.87499961 3.18749911,2.88999951 3.27749921,2.88999951 C3.45749951,2.88999951 3.59999941,2.82999911 3.70499942,2.70249951 C3.82499982,2.55999901 3.88499932,2.36499931 3.88499932,2.11749891 C3.88499932,1.88499911 3.83249952,1.69749911 3.71999932,1.56249881 C3.61499982,1.42749981 3.45750001,1.35249971 3.27000001,1.35249971 Z"/>
      <path d="M6.38250063,1.66750001 L5.91750052,1.66750001 C5.90999992,1.55500001 5.86500072,1.47250031 5.79750062,1.41249991 C5.72249982,1.35249971 5.62500002,1.32250021 5.48999982,1.32250021 C5.37749962,1.32250021 5.28750042,1.34500051 5.21999932,1.39000031 C5.15250012,1.43500011 5.12249952,1.50250031 5.12249952,1.58500021 C5.12249952,1.66000021 5.15249832,1.71250001 5.21249872,1.74250001 C5.27249912,1.77250021 5.42249872,1.82500001 5.66249852,1.87750021 C5.91749862,1.93750041 6.09749893,2.00500001 6.19499973,2.07250011 C6.37499903,2.19250011 6.46500023,2.35750061 6.46500023,2.56750011 C6.46500023,2.80000021 6.37500003,2.98750021 6.19499973,3.11500021 C6.03749853,3.23500011 5.81249902,3.29500061 5.54249952,3.29500061 C5.23499872,3.29500061 5.00249952,3.22750051 4.82999942,3.08500011 C4.65749932,2.94250011 4.57499982,2.74750041 4.56749962,2.49250031 L5.05499932,2.49250031 C5.06250002,2.61999991 5.09249972,2.71000001 5.15250022,2.77000001 C5.24249942,2.86750031 5.37749962,2.91249991 5.55749902,2.91249991 C5.67749982,2.91249991 5.77499872,2.88999991 5.84999852,2.83750011 C5.93249892,2.78500031 5.96999932,2.71000001 5.96999932,2.61250021 C5.96999932,2.51499991 5.90999892,2.44750021 5.79749872,2.40249971 C5.73749922,2.37999971 5.58749872,2.33499961 5.35499952,2.26749951 C5.21249962,2.22999951 5.09249972,2.19249961 5.00999932,2.15499971 C4.92749882,2.11749941 4.85999922,2.07999941 4.81499862,2.03499981 C4.70249842,1.92999951 4.64249852,1.78749941 4.64249852,1.60749981 C4.64249852,1.38999981 4.73249822,1.21750021 4.91249902,1.0974996 C5.06249912,0.992499604 5.26499852,0.932499904 5.50499832,0.932499904 C5.72249802,0.932499904 5.89499862,0.977499704 6.04499833,1.0599997 C6.26249983,1.1949999 6.37500003,1.38999991 6.38250063,1.66750001 Z"/>
    </g>
  </g>
</svg>
