<svg xmlns="http://www.w3.org/2000/svg" width="24" height="24" viewBox="0 0 24 24">
  <g fill="none" fill-rule="evenodd">
    <path fill="#2D327D" d="M22.5,0 L1.5,0 C0.675000003,0 0,0.675000003 0,1.5 L0,22.5 C0,23.3250009 0.675000003,24 1.5,24 L22.5,24 C23.3250009,24 24,23.3250009 24,22.5 L24,1.5 C24,0.675000003 23.3250009,0 22.5,0 Z"/>
    <g fill="#FFF" transform="translate(2 2)">
      <path d="M1.81750011,15.0625001 L4.05249982,16.7425004 L6.28750043,15.2200013 L1.0675001,9.25000004 L2.38000011,8.50000004 L10.5625,12.3024999 L15.3849984,9.00999934 C15.9699975,8.61999904 16.6524983,8.40999894 17.3574982,8.40999894 C17.7024994,8.40999894 18.0474987,8.46249874 18.3774987,8.55999954 C18.8199979,8.69499974 19.1274987,9.10749924 19.1274987,9.57249934 C19.1274987,9.78249934 19.0674992,9.98499874 18.9474984,10.1574993 L18.9474984,10.1574993 C18.6474992,10.6149998 18.2574979,11.0049991 17.807499,11.312499 L8.50000004,17.665001 L3.32499981,19.0074998 L0.887500004,15.7600022 L1.81750011,15.0625001 L1.81750011,15.0625001 Z"/>
      <g transform="translate(1)">
        <path d="M2.21250011 2.38000011C2.19750021 2.61250021 2.11499981 2.81500051 1.98000001 2.98000001 1.80000021 3.19750021 1.53749991 3.30250021 1.2075 3.30250021.855000003 3.30250021.577499902 3.17500061.375000001 2.92750021.2024999 2.71000001.1199999 2.4475007.1199999 2.12500051.1199999 1.78750061.2175002 1.51000071.419999901 1.28500081.622499802 1.0600009.884999803.947500704 1.2224999.947500704 1.52999981.947500704 1.78499991 1.052501 1.97249991 1.25500061 2.10750011 1.39750081 2.18249991 1.56250051 2.19749981 1.75750041L1.70999961 1.75750041C1.67999941 1.63000061 1.62749961 1.53250051 1.53749951 1.46500041 1.44749981 1.39750031 1.34249971 1.36000011 1.2074995 1.36000011.997499004 1.36000011.832499303 1.45000001.727499203 1.63000011.644999202 1.76500031.607499302 1.93000011.607499302 2.13249971.607499302 2.33499961.652499102 2.50749971.734999103 2.64249991.839999103 2.81500051.997498904 2.90500021 1.2074994 2.90500021 1.35749901 2.90500021 1.46999921 2.86000011 1.55999891 2.77750011 1.64999861 2.69500061 1.70249931 2.56000041 1.72499891 2.39500041L2.21250011 2.38000011 2.21250011 2.38000011zM2.95499991 1L2.95499991 1.80249981C3.00749971 1.71250011 3.07499981 1.64500001 3.16500041 1.59249951 3.25500011 1.53999971 3.35250041 1.51749951 3.46500011 1.51749951 3.69000102 1.51749951 3.84750032 1.59999951 3.94500062 1.75749931 4.00500062 1.84749911 4.02750112 1.98999931 4.02750112 2.18499901L4.02750112 3.25000001 3.58500101 3.25000001 3.58500101 2.26000021C3.58500101 2.14000031 3.57000111 2.05000021 3.53250121 2.00500011 3.48000141 1.93750001 3.40500111 1.90000011 3.30000111 1.90000011 3.15750121 1.90000011 3.06000131 1.96000031 3.00000091 2.08750011 2.98500161 2.12500001 2.97000121 2.17000011 2.96250101 2.21499971 2.95500141 2.25999981 2.95500141 2.33499961 2.95500141 2.43249991L2.95500141 3.25749971 2.51250121 3.25749971 2.51250121 1 2.95499991 1z"/>
        <path fill-rule="nonzero" d="M5.88749982,2.72499991 C5.86499982,2.82250021 5.82000062,2.90500021 5.76000022,2.98750021 C5.61000062,3.18999961 5.39999962,3.28749991 5.12250042,3.28749991 C4.87500002,3.28749991 4.67250012,3.20499991 4.52250002,3.04750011 C4.44750022,2.97250031 4.39500052,2.87500001 4.34999992,2.77000051 C4.30499942,2.65750031 4.29000002,2.53000071 4.29000002,2.41000031 C4.29000002,2.16249991 4.35749922,1.96000031 4.50000002,1.79500051 C4.65750032,1.60750051 4.86000012,1.51750061 5.10750012,1.51750061 C5.31000042,1.51750061 5.48250012,1.57750081 5.62500002,1.70500061 C5.72999952,1.79500051 5.79750062,1.90750051 5.85000042,2.03500081 C5.90250022,2.16250131 5.91749962,2.32750081 5.91749962,2.53000071 L4.74749902,2.53000071 C4.75499962,2.61250071 4.76249892,2.68000081 4.78499892,2.73250061 C4.84499932,2.88250071 4.95749952,2.95000081 5.12999922,2.95000081 C5.21249972,2.95000081 5.27999982,2.93500091 5.33249952,2.89750101 C5.38499932,2.86000061 5.42999932,2.80000071 5.45999912,2.72500041 L5.88749982,2.72499991 L5.88749982,2.72499991 Z M5.46000002,2.23000001 C5.45249942,2.14750001 5.43000032,2.07999991 5.40750032,2.02750021 C5.37750052,1.97500061 5.34000112,1.93000011 5.28750042,1.90000061 C5.23500062,1.87000041 5.17500022,1.85500071 5.11499982,1.85500071 C5.01750002,1.85500071 4.93500042,1.88500071 4.86749942,1.95250081 C4.80000022,2.02000091 4.76249992,2.11000061 4.75499972,2.22250081 L5.46000002,2.22250081 L5.46000002,2.23000001 Z"/>
        <path d="M7.73999983,2.60500001 C7.71749983,2.77000001 7.66500003,2.91249991 7.57499983,3.02500011 C7.43250083,3.20499991 7.22249983,3.29500011 6.96000003,3.29500011 C6.68999953,3.29500011 6.47249983,3.20499991 6.32250023,3.01749991 C6.19500063,2.86000011 6.12749963,2.66500041 6.12749963,2.42500021 C6.12749963,2.13249971 6.21000013,1.90749981 6.38249973,1.74250011 C6.53249933,1.59999991 6.72750003,1.52500011 6.95999913,1.52500011 C7.17749883,1.52500011 7.35749913,1.58500031 7.49249943,1.69750021 C7.62749963,1.81000011 7.70999913,1.96750021 7.72500043,2.16249991 L7.29000003,2.16249991 C7.27499973,2.07250021 7.23750023,2.00500011 7.17749983,1.95249991 C7.11749943,1.90000011 7.05000023,1.87749991 6.96000013,1.87749991 C6.83250053,1.87749991 6.74250043,1.92249971 6.67500033,2.02000011 C6.60749913,2.11750031 6.57000063,2.24499991 6.57000063,2.41750001 C6.57000063,2.56750011 6.60000033,2.68750001 6.65250113,2.77750011 C6.72000033,2.89000031 6.81750113,2.94250011 6.95250133,2.94250011 C7.14750103,2.94250011 7.26750093,2.82999991 7.29750163,2.60500001 L7.73999983,2.60500001 Z"/>
        <polygon points="9.57 1.57 8.955 2.193 9.638 3.25 9.098 3.25 8.648 2.507 8.468 2.68 8.468 3.25 8.025 3.25 8.025 1 8.467 1 8.467 2.17 9.038 1.57 9.57 1.57"/>
        <polygon points="10.552 2.208 10.552 2.605 9.698 2.605 9.698 2.208"/>
        <path fill-rule="nonzero" d="M11.3924999,1 L11.3924999,1.40500021 L10.9499998,1.40500021 L10.9499998,1 L11.3924999,1 Z M11.3924999,1.56999991 L11.3924999,3.25000001 L10.9499998,3.25000001 L10.9499998,1.56999991 L11.3924999,1.56999991 Z"/>
        <path d="M12.1725007,1.56999991 L12.1725007,1.80249971 C12.2250005,1.72749971 12.2700005,1.67499991 12.3149997,1.64499991 C12.4274999,1.56249991 12.5625001,1.51750011 12.7124997,1.51750011 C12.8474999,1.51750011 12.9674998,1.55500001 13.0650006,1.62250011 C13.1399995,1.67500001 13.1924993,1.75000001 13.2224999,1.83250051 C13.2524987,1.91500051 13.2675,2.03500041 13.2675,2.19250061 L13.2675,3.25000001 L12.8249999,3.25000001 L12.8249999,2.29000001 C12.8249999,2.18499951 12.8174993,2.10250001 12.7950002,2.05000021 C12.7800008,2.00500011 12.7500001,1.96750021 12.705001,1.94499991 C12.66,1.91499971 12.6000015,1.90000011 12.540001,1.90000011 C12.4725018,1.90000011 12.4125014,1.91499971 12.352501,1.95249991 C12.3000012,1.98249991 12.2550012,2.02749971 12.2325002,2.08750011 C12.2025014,2.14750001 12.1875001,2.25249961 12.1875001,2.38749981 L12.1875001,3.25000001 L11.7450008,3.25000001 L11.7450008,1.56999991 L12.1725007,1.56999991 Z"/>
      </g>
    </g>
  </g>
</svg>
