<svg xmlns="http://www.w3.org/2000/svg" width="24" height="24" viewBox="0 0 24 24">
  <g fill="none" fill-rule="evenodd">
    <path fill="#2D327D" d="M22.5,0 L1.5,0 C0.675000003,0 0,0.675000003 0,1.5 L0,22.5 C0,23.3250009 0.675000003,24 1.5,24 L22.5,24 C23.3250009,24 24,23.3250009 24,22.5 L24,1.5 C24,0.675000003 23.3250009,0 22.5,0 Z"/>
    <g fill="#FFF" transform="translate(3 3)">
      <polyline points="17.625 .375 17.625 1.875 13.875 1.875 13.875 2.25 18 2.25 18 0 18 0 0 0 0 2.25 4.125 2.25 4.125 1.875 .375 1.875 .375 .375 17.625 .375"/>
      <path d="M10.0349998 4.68750002C9.81750104 4.68750002 9.30000014 4.68750002 9.30000014 5.06250002 9.30000014 5.42999942 9.81000034 5.42999942 10.0349998 5.42999942 10.2749996 5.42999942 10.7849998 5.42999942 10.7849998 5.06250002 10.7849998 4.68750002 10.2749996 4.68750002 10.0349998 4.68750002zM10.0349998 6.64500053C9.81750104 6.64500053 9.30000014 6.64500053 9.30000014 7.02000053 9.30000014 7.38749993 9.81000034 7.38749993 10.0349998 7.38749993 10.2749996 7.38749993 10.7849998 7.38749993 10.7849998 7.02000053 10.7849998 6.64500053 10.2749996 6.64500053 10.0349998 6.64500053z"/>
      <polygon points="7.215 10.538 5.25 10.538 5.25 10.913 7.215 10.913 7.215 10.545"/>
      <polygon points="12.75 10.913 12.75 1.125 12.375 1.125 12.375 10.538 9.3 10.538 9.3 10.913"/>
      <rect width="1.215" height="1" x="6" y="11.288"/>
      <polygon points="13.5 1.125 13.125 1.125 13.125 11.288 9.3 11.288 9.3 11.663 13.5 11.663"/>
      <path fill-rule="nonzero" d="M8.07000063,9.30000024 C8.15250113,9.27000054 8.23500063,9.25499924 8.32499983,9.24750044 C8.34749983,9.24750044 8.36250023,9.24750044 8.37749963,9.24750044 C8.87999924,9.24750044 9.29249964,9.65250014 9.30000024,10.1550007 L12,10.1550007 L12,1.125 L4.50000002,1.125 L4.50000002,10.1625004 L7.26749993,10.1625004 C7.37999923,9.77250004 7.67250063,9.44999984 8.07000063,9.30000024 Z M11.0924997,8.67749984 L9.72750004,8.67749984 L9.72750004,9.24750044 L9.40499984,9.24750044 C9.41250044,8.92500024 9.30749904,8.63250064 8.98499884,8.58000094 L8.98499884,8.21250153 L11.0849992,8.21250153 L11.0924997,8.67749984 L11.0924997,8.67749984 Z M10.0349998,4.22250032 C10.875,4.22250032 11.1374998,4.60500052 11.1374998,5.06250002 C11.1374998,5.51249982 10.875,5.89500052 10.0349998,5.89500052 C9.21750064,5.89500052 8.95500084,5.51249992 8.95500084,5.06250002 C8.95500084,4.61250022 9.21749974,4.22250032 10.0349998,4.22250032 Z M10.0349998,6.18750003 C10.875,6.18750003 11.1374998,6.57000063 11.1374998,7.02750023 C11.1374998,7.47750003 10.875,7.86000073 10.0349998,7.86000073 C9.21750064,7.86000073 8.95500084,7.47750013 8.95500084,7.02750023 C8.95500084,6.57000063 9.21749974,6.18750003 10.0349998,6.18750003 Z"/>
      <path d="M0.172500101,15.3824998 L2.79000041,18.0000001 L8.9999988,18.0000001 L8.9999988,10.1774998 C8.9999988,9.83249954 8.72249984,9.55499944 8.37749963,9.55499944 C8.36250023,9.55499944 8.34749993,9.55499944 8.33249953,9.55499944 C8.27999973,9.55499944 8.21999933,9.56250004 8.17499923,9.58499914 C7.77749823,9.72749904 7.51499843,10.1099987 7.51499843,10.5299997 L7.51499843,10.5449991 L7.51499843,12.7199994 C7.51499843,12.9899999 7.29749873,13.2074986 7.03499893,13.2074986 L5.77499872,13.2074986 C5.57999812,13.2074986 5.39249812,13.1249981 5.24999912,12.9899989 L1.1924992,8.93999864 C0.922499204,8.66999814 0.487498802,8.66999814 0.217499101,8.93999864 C-0.0525006002,9.20999914 -0.0525009002,9.64499854 0.217499101,9.91499904 L4.53000012,14.2274991 L4.29000002,14.4674989 L0.434999702,10.6125002 L0.172499701,10.875 C0.0599997003,10.9875002 -1.2e-06,11.1374998 -1.2e-06,11.2950001 C-1.2e-06,11.4525013 0.0599998003,11.6025009 0.172499701,11.7150011 L3.62249902,15.1575013 L3.38249921,15.3900014 L0.434999002,12.4425012 L0.172499201,12.705001 C0.0599990003,12.8175012 -1.2e-06,12.9675008 -1.2e-06,13.125002 C-1.2e-06,13.2825013 0.0599990003,13.4325009 0.172499201,13.5450002 L2.69999891,16.0725023 L2.46749881,16.3125021 L0.442498902,14.2875025 L0.179998901,14.5500033 C0.0674989003,14.6625025 0.00749880003,14.8125022 0.00749880003,14.9700034 C-1.2e-06,15.1200009 0.0600002003,15.2700006 0.172500101,15.3824998 L0.172500101,15.3824998 Z"/>
    </g>
  </g>
</svg>
