<svg xmlns="http://www.w3.org/2000/svg" width="24" height="24" viewBox="0 0 24 24">
  <g fill="none" fill-rule="evenodd">
    <path fill="#2D327D" d="M22.5,0 L1.5,0 C0.675000003,0 0,0.675000003 0,1.5 L0,22.5 C0,23.3250009 0.675000003,24 1.5,24 L22.5,24 C23.3250009,24 24,23.3250009 24,22.5 L24,1.5 C24,0.675000003 23.3250009,0 22.5,0 Z"/>
    <g fill="#FFF" transform="translate(3 3)">
      <g transform="translate(5 4)">
        <path d="M0.982500104,2.33749961 C0.982500104,1.35499951 1.77750111,0.552499802 2.76750091,0.552499802 C3.75000102,0.552499802 4.55250072,1.34749991 4.55250072,2.33749961 C4.55250072,3.32000061 3.75750062,4.12250042 2.76750091,4.12250042 C1.77750021,4.11499982 0.982500104,3.32000061 0.982500104,2.33749961 Z" transform="translate(1)"/>
        <path d="M1,14.0975018 C0.939999604,14.0975018 0.654999703,14.0375004 0.654999703,13.744999 C0.654999703,13.4899979 0.872499404,13.3924981 1,13.3924981 L2.13250061,13.3924981 L2.13250061,5.70499992 L1,5.70499992 C0.939999604,5.70499992 0.654999703,5.64499952 0.654999703,5.35249992 C0.654999703,5.09749982 0.872499504,5.00000002 1,5.00000002 L5.34249972,5.00000002 L5.34249972,13.3925 L6.46749973,13.3925 C6.59499933,13.3925 6.81250003,13.4899979 6.81250003,13.7450009 C6.81250003,14.0450001 6.52750023,14.0975018 6.46749973,14.0975018 L1,14.0975018 L1,14.0975018 Z"/>
      </g>
      <polygon points="1.965 0 1.965 .412 1.282 .412 1.282 2.25 .795 2.25 .795 .412 .113 .412 .113 0"/>
      <path fill-rule="nonzero" d="M2.73000001,0.525000102 C2.97750041,0.525000102 3.17250011,0.607499803 3.32999991,0.764999903 C3.48000001,0.922499704 3.56250001,1.1399999 3.56250001,1.40249971 C3.56250001,1.67999941 3.48000001,1.89749961 3.31499961,2.06250001 C3.16500001,2.21250011 2.96250011,2.29500011 2.71499971,2.29500011 C2.45249991,2.29500011 2.24249941,2.21250011 2.09249981,2.04000001 C1.94249961,1.87500001 1.86749941,1.66500001 1.86749941,1.40999981 C1.86749941,1.1549996 1.94249971,0.952499804 2.08499961,0.787499403 C2.25000001,0.614999803 2.46000001,0.525000102 2.73000001,0.525000102 Z M2.70750001,0.869999904 C2.58750011,0.869999904 2.49749951,0.914999704 2.42249971,1.0124998 C2.35499961,1.1100001 2.31749971,1.23750021 2.31749971,1.41000031 C2.31749971,1.58250041 2.35499961,1.71750021 2.42249971,1.80750031 C2.49749951,1.89750001 2.59499981,1.95000071 2.71499971,1.95000071 C2.82749991,1.95000071 2.92500021,1.90500061 2.99249941,1.82250061 C3.06749971,1.72500031 3.10499961,1.59000101 3.10499961,1.41000071 C3.10499961,1.24500071 3.06749971,1.1100005 2.99999961,1.0200008 C2.93999961,0.922500104 2.84250021,0.869999904 2.70750001,0.869999904 Z"/>
      <path d="M5.37749962.569999902L5.37749962 2.25000001 4.94999982 2.25000001 4.94999982 2.00249961C4.82250022 2.19749981 4.64249942 2.29500011 4.41000032 2.29500011 4.20750042 2.29500011 4.05750032 2.22750001 3.95249982 2.09250021 3.91500002 2.04000041 3.88500022 1.98000001 3.86999942 1.90500021 3.85499862 1.82999991 3.84749892 1.74000021 3.84749892 1.62750051L3.84749892.569999902 4.28999852.569999902 4.28999852 1.49250031C4.28999852 1.59000011 4.28999852 1.65749981 4.29749912 1.69499971 4.30499942 1.73250011 4.31249902 1.77000001 4.33499912 1.80000021 4.37999962 1.87500001 4.46249872 1.91249991 4.57499892 1.91249991 4.71749832 1.91249991 4.81499872 1.85250001 4.88249932 1.72499991 4.91249902 1.66500001 4.92749982 1.55249981 4.92749982 1.39500001L4.92749982.569999902 5.37749962.569999902 5.37749962.569999902zM6.76499943.539999702L6.76499943.974999904C6.68999963.960000304 6.63749983.952499904 6.59249973.952499904 6.42749973.952499904 6.30749893 1.02 6.22500033 1.1624999 6.17999933 1.23750021 6.15750023 1.37250041 6.15750023 1.55249981L6.15750023 2.25000001 5.71500112 2.25000001 5.71500112.569999902 6.14250093.569999902 6.14250093.877499804C6.26250083.652499703 6.44250113.532499802 6.66750053.532499802 6.69750023.532499802 6.72750003.539999702 6.76499943.539999702z"/>
      <path fill-rule="nonzero" d="M7.42500023,5.55111512e-17 L7.42500023,0.405000202 L6.97500043,0.405000202 L6.97500043,5.55111512e-17 L7.42500023,5.55111512e-17 Z M7.42500023,0.569999902 L7.42500023,2.25000001 L6.97500043,2.25000001 L6.97500043,0.569999902 L7.42500023,0.569999902 Z"/>
      <path d="M9.14999964 1.0574999L8.72999954 1.0574999C8.72249894.997499704 8.70749954.959999604 8.68499944.930000104 8.63999844.869999904 8.54999924.840000404 8.42999934.840000404 8.34749883.840000404 8.28750033.855000004 8.24999993.885000204 8.20499983.915000404 8.18250073.952500304 8.18250073 1.0050001 8.18250073 1.0574999 8.20500073 1.1025004 8.25750053 1.125 8.31000033 1.1474996 8.41500084 1.1774998 8.58749954 1.21499971 8.80499924 1.25999981 8.96249954 1.31250001 9.05249974 1.37999971 9.16500004 1.45499941 9.22500044 1.57499931 9.22500044 1.73249911 9.22500044 1.91249941 9.15750034 2.04749921 9.01499944 2.15249921 8.87999924 2.24999951 8.69249924 2.29499911 8.46749974 2.29499911 8.18999953 2.29499911 7.97999953 2.22749901 7.85249993 2.08499911 7.76249973 1.98749881 7.71749973 1.85999921 7.70249933 1.70249941L8.12999913 1.70249941C8.13749973 1.77749921 8.15999883 1.83749961 8.18999953 1.87499951 8.24999993 1.94249961 8.34000013 1.97999951 8.47500034 1.97999951 8.56499954 1.97999951 8.63999934 1.96499961 8.69249914 1.92749971 8.74499894 1.88999981 8.77499964 1.83750001 8.77499964 1.77749961 8.77499964 1.71749971 8.75249964 1.67999931 8.70750044 1.65000001 8.66250134 1.62000031 8.56500054 1.58999961 8.41500094 1.55249971 8.27250103 1.51499981 8.16750053 1.49249931 8.10750013 1.46999971 8.04750063 1.44750011 7.99500093 1.42500011 7.94250113 1.40249961 7.88250073 1.36499971 7.83000093 1.31999961 7.80000123 1.25249951 7.76250083 1.1849994 7.74750143 1.1174993 7.74750143 1.0349998 7.74750143.862499404 7.82250123.727499703 7.96500113.637499303 8.08500103.562499502 8.25000093.524999302 8.46000104.524999302 8.73750124.524999302 8.94000054.592499402 9.06000144.734999603 9.09749984.810000203 9.13500024.922500104 9.14999964 1.0574999zM10.3725013.562500002L10.3725013.877499803 10.0425005.877499803 10.0425005 1.66500001C10.0425005 1.76249981 10.0500011 1.82249981 10.0650005 1.84499981 10.0875015 1.88249971 10.147501 1.89749961 10.2375011 1.89749961 10.2750015 1.89749961 10.3200016 1.89749961 10.3725013 1.88999991L10.3725013 2.25000001C10.2750015 2.26499991 10.1775007 2.26499991 10.0950011 2.26499991 9.96750154 2.26499991 9.87000174 2.25000001 9.80250164 2.21999981 9.69750214 2.17500021 9.63750264 2.09250021 9.60750194 1.96499971 9.60000134 1.91249991 9.59250164 1.80749991 9.59250164 1.64249951L9.59250164.885000203 9.32250114.885000203 9.32250114.570000402 9.59250164.570000402 9.59250164.1800008 10.0350017.1800008 10.0350017.570000402 10.3725013.570000402 10.3725013.562500002 10.3725013.562500002z"/>
    </g>
  </g>
</svg>
