<svg xmlns="http://www.w3.org/2000/svg" width="24" height="24" viewBox="0 0 24 24">
  <g fill="none" fill-rule="evenodd">
    <path fill="#2D327D" d="M22.5,0 L1.5,0 C0.675000003,0 0,0.675000003 0,1.5 L0,22.5 C0,23.3250009 0.675000003,24 1.5,24 L22.5,24 C23.3250009,24 24,23.3250009 24,22.5 L24,1.5 C24,0.675000003 23.3250009,0 22.5,0 Z"/>
    <g fill="#FFF" transform="translate(2 2)">
      <path d="M10,5.81499962 C7.68999963,5.81499962 5.81499962,7.68999963 5.81499962,10 C5.81499962,12.3100005 7.68999963,14.1849996 10,14.1849996 C12.3100005,14.1849996 14.1849996,12.3100005 14.1849996,10 C14.1849996,7.68999963 12.3100005,5.81499962 10,5.81499962 L10,5.81499962 Z"/>
      <polygon points="5.56 15.25 5.425 18.34 6.498 17.267 6.498 13.495 2.733 13.495 1.66 14.575 4.75 14.44 .865 18.325 1.675 19.135"/>
      <polygon points="1.66 5.425 2.733 6.498 6.498 6.498 6.498 2.733 5.425 1.652 5.56 4.75 1.675 .865 .865 1.675 4.75 5.56"/>
      <polygon points="18.34 14.575 17.267 13.495 13.502 13.495 13.502 17.267 14.575 18.34 14.44 15.25 18.325 19.135 19.135 18.325 15.25 14.44"/>
      <polygon points="14.44 4.75 14.575 1.652 13.502 2.733 13.502 6.498 17.267 6.498 18.34 5.425 15.25 5.56 19.135 1.675 18.325 .865"/>
    </g>
  </g>
</svg>
