<svg xmlns="http://www.w3.org/2000/svg" width="24" height="24" viewBox="0 0 24 24">
  <g fill="none" fill-rule="evenodd">
    <path fill="#2D327D" d="M22.5,0 L1.5,0 C0.675000003,0 0,0.675000003 0,1.5 L0,22.5 C0,23.3250009 0.675000003,24 1.5,24 L22.5,24 C23.3250009,24 24,23.3250009 24,22.5 L24,1.5 C24,0.675000003 23.3250009,0 22.5,0 Z"/>
    <path fill="#FFF" d="M7.68750003.750000003C6.96000003.750000003 6.37500003 1.33500001 6.37500003 2.06250001L6.37500003 10.5 7.12500003 10.5 7.12500003 16.5000001C7.12500003 17.0175 7.54500013 17.4375001 8.06250003 17.4375001 8.57999994 17.4375001 9.00000004 17.0175 9.00000004 16.5000001L9.00000004 2.06250001C9.00000004 1.33500001 8.41500004.750000003 7.68750003.750000003L7.68750003.750000003zM4.22250032.750000003C4.06499962.750000003 3.94500062.877499804 3.94500062 1.0350003L3.94500062 4.87500002 3.37500001 4.87500002 3.37500001 1.0350003C3.37500001.877500304 3.24750041.750000003 3.08999971.750000003 2.93249991.750000003 2.80499941.877499804 2.80499941 1.0350003L2.80499941 4.87500002 2.25000001 4.87500002 2.25000001 1.0350003C2.25000001.877500304 2.12250041.750000003 1.96499971.750000003 1.80749991.750000003 1.67999941.877499804 1.67999941 1.0350003L1.67999941 4.87500002 1.125 4.87500002 1.125 1.0350003C1.125.877500304.997500204.750000003.839999703.750000003.682499403.750000003.554999602.877499804.554999602 1.0350003L.554999602 4.87500002C.554999602 4.88250062.554999602 4.88999992.554999602 4.89750002.554999602 5.65500062.944999204 6.35249993 1.58999971 6.75L1.58999971 16.5000001C1.58999971 17.0175 2.00999981 17.4375001 2.52749971 17.4375001 3.04499961 17.4375001 3.46499971 17.0175 3.46499971 16.5000001L3.46499971 6.75C4.10250002 6.35250003 4.49249942 5.64750002 4.49249942 4.89750002 4.49249942 4.88999982 4.49249942 4.88250062 4.49249942 4.87500002L4.49249942 1.0350003C4.50000002.877499804 4.37250042.750000003 4.22250032.750000003L4.22250032.750000003z" transform="translate(3 3)"/>
  </g>
</svg>
