<svg xmlns="http://www.w3.org/2000/svg" width="24" height="24" viewBox="0 0 24 24">
  <g fill="none" fill-rule="evenodd">
    <path fill="#2D327D" d="M22.5,0 L1.5,0 C0.675000003,0 0,0.675000003 0,1.5 L0,22.5 C0,23.3250009 0.675000003,24 1.5,24 L22.5,24 C23.3250009,24 24,23.3250009 24,22.5 L24,1.5 C24,0.675000003 23.3250009,0 22.5,0 Z"/>
    <g fill="#FFF" transform="translate(3 7)">
      <path d="M7.50000003,13.2500001 C7.50000003,13.6625005 7.83749963,14.0000001 8.25000003,14.0000001 L17.2500001,14.0000001 C17.6625005,14.0000001 18,13.6625005 18,13.2500001 L18,12.8750001 L7.50000003,12.8750001 L7.50000003,13.2500001 L7.50000003,13.2500001 Z"/>
      <path fill-rule="nonzero" d="M15.75,5.00000002 L10.125,5.00000002 C9.91500004,5.00000002 9.75000004,5.16500002 9.75000004,5.37500002 L9.75000004,11.375 C9.75000004,11.7875004 10.0874996,12.1250001 10.5,12.1250001 L15.0000001,12.1250001 C15.4125005,12.1250001 15.75,11.7875004 15.75,11.375 L15.75,9.50000002 C16.9950009,9.50000002 18.0000001,8.49500084 18.0000001,7.25000003 C18.0000001,6.00499923 16.9950009,5.00000002 15.75,5.00000002 L15.75,5.00000002 Z M15.7574998,8.75000002 C15.7500001,8.75000002 15.7500001,8.75000002 15.7574998,8.75000002 L15.7500001,5.75000002 C15.7500001,5.75000002 15.7500001,5.75000002 15.7574998,5.75000002 C16.5825006,5.75000002 17.2574998,6.42500023 17.2574998,7.25000002 C17.2574998,8.07499983 16.5825006,8.75000002 15.7574998,8.75000002 L15.7574998,8.75000002 Z"/>
      <path d="M6.37500003,0.500000002 L0.375000002,0.500000002 L0.375000002,0.500000002 C0.164999701,0.500000002 0,0.665000003 0,0.875000004 L0,5 C0,6.58250053 1.23000001,7.89500053 2.81250001,8 L2.81250001,12.8750001 L0.375000002,12.8750001 L0.375000002,12.8750001 C0.164999701,12.8750001 0,13.040001 0,13.2500001 L0,13.6250001 C0,13.8349992 0.164999701,14 0.375000002,14 L6.37500003,14 C6.58500003,14 6.75000003,13.8349992 6.75000003,13.6250001 L6.75000003,13.2500001 C6.75000003,13.040001 6.58500003,12.8750001 6.37500003,12.8750001 L3.93750002,12.8750001 L3.93750002,8 C5.52000052,7.90250023 6.75000003,6.59000023 6.75000003,5 L6.75000003,0.875000004 C6.75000003,0.665000003 6.58500003,0.500000002 6.37500003,0.500000002 L6.37500003,0.500000002 Z"/>
    </g>
  </g>
</svg>
