<svg xmlns="http://www.w3.org/2000/svg" width="24" height="24" viewBox="0 0 24 24">
  <g fill="none" fill-rule="evenodd">
    <path fill="#2D327D" d="M22.5,0 L1.5,0 C0.675000003,0 0,0.675000003 0,1.5 L0,22.5 C0,23.3250009 0.675000003,24 1.5,24 L22.5,24 C23.3250009,24 24,23.3250009 24,22.5 L24,1.5 C24,0.675000003 23.3250009,0 22.5,0 Z"/>
    <g fill="#FFF" transform="translate(3 2)">
      <path fill-rule="nonzero" d="M10.7924995,18.0924989 L10.3799991,9.03249934 C10.3574991,8.56749914 9.97500034,8.19999883 9.50999924,8.19999883 L7.55249873,8.19999883 L7.55249873,7.65999883 C7.55249873,6.46749963 6.58499903,5.49999902 5.39249792,5.49999902 C4.19999872,5.49999902 3.23249811,6.46749873 3.23249811,7.65999883 L3.23249811,8.19999883 L1.28249981,8.19999883 C0.817500103,8.19999883 0.434999702,8.56749824 0.412499902,9.03249934 L1.95524391e-12,18.0924989 C-0.00749990003,18.3325006 0.0750000003,18.557501 0.239999801,18.7299997 C0.404999602,18.9024984 0.629999603,18.999999 0.869999904,18.999999 L9.92999944,18.999999 C10.1699992,18.999999 10.3949996,18.9025003 10.5599995,18.7299996 C10.7174997,18.5650006 10.8075008,18.3325006 10.7924995,18.0924989 L10.7924995,18.0924989 Z M4.45499942,7.65999983 C4.45499942,7.13500023 4.87500002,6.71500013 5.39999962,6.71500013 C5.92500022,6.71500013 6.34500023,7.13500023 6.34500023,7.65999983 L6.34500023,8.19999983 L4.45499942,8.19999983 L4.45499942,7.65999983 L4.45499942,7.65999983 L4.45499942,7.65999983 Z M1.79250001,17.2450009 L2.13000011,9.95500084 L3.24000021,9.95500084 L3.24000021,11.1025008 C3.24000021,11.4400004 3.51000021,11.7100009 3.84750032,11.7100009 C4.18500042,11.7100009 4.45500092,11.4400004 4.45500092,11.1025008 L4.45500092,9.95500084 L6.34500033,9.95500084 L6.34500033,11.1025008 C6.34500033,11.4400004 6.61500083,11.7100009 6.95250133,11.7100009 C7.29000093,11.7100009 7.56000143,11.4400004 7.56000143,11.1025008 L7.56000143,9.95500084 L8.67000204,9.95500084 L9.00750164,17.2450009 L1.79250001,17.2450009 Z"/>
      <path d="M1.95750001 1.66750001L1.49250031 1.66750001C1.48500011 1.55500001 1.44000051 1.47250031 1.37250041 1.41249991 1.2975001 1.35249971 1.1999998 1.32250021 1.0650005 1.32250021.952500303 1.32250021.862500603 1.34500051.795000503 1.39000031.727500402 1.43500011.697500202 1.50250031.697500202 1.58500021.697500202 1.66000021.727500402 1.71250001.787499903 1.74250001.847500303 1.77250031.997500204 1.82500001 1.2375002 1.87750031 1.49250031 1.93750051 1.67250011 2.00500011 1.77000001 2.07250021 1.94999981 2.19250011 2.04000001 2.35750051 2.04000001 2.56750011 2.04000001 2.80000021 1.94999981 2.98750021 1.76249981 3.11500021 1.60500001 3.23500011 1.38000011 3.29500061 1.1100001 3.29500061.802500203 3.29500061.570000402 3.22750051.397500201 3.08500011.2249998 2.94250021.1425001 2.74750051.1350002 2.49250041L.622500202 2.49250041C.630000102 2.61999991.660000302 2.71000001.720000502 2.77000001.810000203 2.86750031.945000403 2.91249991 1.1250005 2.91249991 1.2450004 2.91249991 1.34250071 2.88999991 1.41750051 2.83750011 1.50000051 2.78500031 1.53750041 2.71000001 1.53750041 2.61250021 1.53750041 2.51499991 1.47750051 2.44750021 1.36500031 2.40249971 1.3050004 2.37999971 1.1550003 2.33499961.922500203 2.26749951.780000203 2.22999951.660000302 2.19249961.577500302 2.15499971.495000302 2.11749931.427500201 2.07999941.382500401 2.03499981.270000401 1.92999951.2100003 1.78749941.2100003 1.60749981.2100003 1.38999981.300000001 1.21750021.480000001 1.0974996.630000102.992499604.832500003.932499904 1.0725002.932499904 1.2900004.932499904 1.46250011.977499704 1.61250021 1.0599997 1.83750011 1.1949999 1.94999981 1.38999991 1.95750001 1.66750001zM2.79000001 1L2.79000001 1.80249981C2.84249971 1.71250011 2.90999981 1.64500001 3.00000001 1.59249951 3.08999971 1.53999971 3.18750001 1.51749951 3.30000021 1.51749951 3.52500011 1.51749951 3.68250042 1.59999951 3.77999972 1.75749931 3.83999972 1.84749911 3.86250022 1.98999931 3.86250022 2.18499901L3.86250022 3.25000001 3.42000011 3.25000001 3.42000011 2.26000021C3.42000011 2.14000031 3.40500021 2.05000021 3.36750031 2.00500011 3.31500051 1.93750001 3.24000021 1.90000011 3.13500021 1.90000011 2.99250031 1.90000011 2.89500041 1.96000031 2.83500001 2.08750011 2.82000061 2.12500001 2.80500031 2.17000011 2.79750011 2.21499971 2.79000041 2.25999981 2.79000041 2.33499961 2.79000041 2.43249991L2.79000041 3.25749971 2.34750031 3.25749971 2.34750031 1 2.79000001 1z"/>
      <path fill-rule="nonzero" d="M5.01749992 1.52500011C5.26499942 1.52500011 5.45999912 1.60749981 5.61749932 1.76499991 5.76749992 1.92249971 5.85000032 2.13999991 5.85000032 2.40249971 5.85000032 2.67999941 5.76749982 2.89749961 5.60249992 3.06250001 5.45249942 3.21250011 5.25000002 3.29500011 5.00249962 3.29500011 4.73999982 3.29500011 4.52999982 3.21250011 4.37999972 3.04000001 4.22999952 2.87500001 4.15499972 2.66500001 4.15499972 2.40999981 4.15499972 2.15499961 4.22999952 1.95249981 4.37249902 1.78749941 4.52999972 1.61499981 4.74750042 1.52500011 5.01749992 1.52500011zM4.99500042 1.86999991C4.87500002 1.86999991 4.78500042 1.91499971 4.71000012 2.01249981 4.64250092 2.11000011 4.60500052 2.23750021 4.60500052 2.41000031 4.60500052 2.58250041 4.64250092 2.71750021 4.71000002 2.80750041 4.78500032 2.89750001 4.88250062 2.95000081 5.00249962 2.95000081 5.11499982 2.95000081 5.21249962 2.90500071 5.27999982 2.82250071 5.35499962 2.72500041 5.39250002 2.59000111 5.39250002 2.41000081 5.39250002 2.24500081 5.35499962 2.11000061 5.28750052 2.02000091 5.22000032 1.92250011 5.12250042 1.86999991 4.99500042 1.86999991zM6.55499943 1.56999991L6.55499943 1.78000021C6.67500023 1.60749981 6.84749893 1.51750021 7.06499963 1.51750021 7.28249933 1.51750021 7.45499993 1.59999991 7.59000023 1.76500041 7.72500043 1.93000011 7.79249953 2.14750001 7.79249953 2.41750001 7.79249953 2.66500041 7.73249913 2.87500001 7.61250013 3.03249981 7.47750003 3.21250011 7.30499943 3.29500011 7.07999993 3.29500011 6.86250023 3.29500011 6.69749933 3.20499991 6.57749943 3.03249981L6.57749943 3.84999992 6.13500023 3.84999992 6.13500023 1.56999991 6.55499943 1.56999991zM6.94500063 1.90749981C6.82499983 1.90749981 6.73500063 1.95249991 6.66750043 2.04250001 6.60000133 2.13249971 6.56250103 2.26000021 6.56250103 2.41750001 6.56250103 2.58250001 6.60000143 2.71000001 6.67500123 2.80000021 6.74250043 2.88999991 6.84000123 2.92749981 6.96000103 2.92749981 7.08000183 2.92749981 7.17000203 2.88249971 7.23750123 2.80000021 7.30500033 2.71000001 7.34250073 2.58250001 7.34250073 2.42500021 7.34250073 2.26000021 7.30500033 2.12500001 7.23750123 2.03500031 7.16250043 1.94499991 7.07250023 1.90749981 6.94500063 1.90749981zM8.48250014 1.56999991L8.48250014 1.78000021C8.60250094 1.60749981 8.77499964 1.51750021 8.99250034 1.51750021 9.21000004 1.51750021 9.38250064 1.59999991 9.51750094 1.76500041 9.65250114 1.93000011 9.72000034 2.14750001 9.72000034 2.41750001 9.72000034 2.66500041 9.65999994 2.87500001 9.54000094 3.03249981 9.40500074 3.21250011 9.23250014 3.29500011 9.00750064 3.29500011 8.79000094 3.29500011 8.62500004 3.20499991 8.50500104 3.03249981L8.50500104 3.84999992 8.06250103 3.84999992 8.06250103 1.56999991 8.48250014 1.56999991zM8.86499984 1.90749981C8.74499904 1.90749981 8.65499984 1.95249991 8.58749964 2.04250001 8.52000044 2.13249971 8.48250014 2.26000021 8.48250014 2.41750001 8.48250014 2.58250001 8.52000054 2.71000001 8.59500034 2.80000021 8.66250044 2.88999991 8.76000034 2.92749981 8.88000114 2.92749981 9.00000104 2.92749981 9.09000114 2.88249971 9.15750034 2.80000021 9.22500044 2.71000001 9.26249984 2.58250001 9.26249984 2.42500021 9.26249984 2.26000021 9.22500044 2.12500001 9.15750034 2.03500031 9.09000024 1.94499991 8.99249944 1.90749981 8.86499984 1.90749981zM10.4399996 1L10.4399996 1.40500021 9.99750044 1.40500021 9.99750044 1 10.4399996 1zM10.4399996 1.56999991L10.4399996 3.25000001 9.99750044 3.25000001 9.99750044 1.56999991 10.4399996 1.56999991z"/>
      <path d="M11.2200003,1.56999991 L11.2200003,1.80249971 C11.2725,1.72749971 11.3175011,1.67500001 11.3625002,1.64500001 C11.4750004,1.56250001 11.6100006,1.51750021 11.7600002,1.51750021 C11.8950004,1.51750021 12.0149995,1.55500011 12.1125003,1.62250021 C12.1875001,1.67500001 12.2399999,1.75000001 12.2700006,1.83250051 C12.3000003,1.91500051 12.3150007,2.03500041 12.3150007,2.19250061 L12.3150007,3.25000001 L11.8725014,3.25000001 L11.8725014,2.29000001 C11.8725014,2.18499951 11.8650008,2.10250001 11.8425017,2.05000021 C11.8275023,2.00500011 11.7975016,1.96750021 11.7525025,1.94499991 C11.7075015,1.91499971 11.647503,1.90000011 11.5875025,1.90000011 C11.5200024,1.90000011 11.4600029,1.91499971 11.4000025,1.95249991 C11.3400021,1.98999981 11.3025017,2.02749971 11.2800017,2.08750011 C11.2500019,2.14750001 11.2350016,2.25249961 11.2350016,2.38749981 L11.2350016,3.25000001 L10.7925015,3.25000001 L10.7925015,1.56999991 L11.2200003,1.56999991 Z"/>
      <path fill-rule="nonzero" d="M14.2349989,1.56999991 L14.2349989,3.04750011 C14.2349989,3.18250031 14.2274991,3.28000021 14.2124997,3.36250021 C14.1974984,3.43750001 14.1674996,3.51249981 14.1299993,3.57999991 C14.0024988,3.78249982 13.7700006,3.88749982 13.432501,3.88749982 C12.9675008,3.88749982 12.7124998,3.71499972 12.6675007,3.36250021 L13.1175005,3.36250021 C13.1475012,3.50500011 13.2600023,3.57250021 13.4400007,3.57250021 C13.5825006,3.57250021 13.6800024,3.53500031 13.7400018,3.45250031 C13.7850019,3.39249991 13.807501,3.28750031 13.807501,3.14500041 L13.807501,2.93500041 C13.6949998,3.11500021 13.5299989,3.19750021 13.3125001,3.19750021 C13.1024991,3.19750021 12.9375001,3.12250041 12.8100005,2.97250031 C12.6825009,2.82250021 12.6225005,2.62000031 12.6225005,2.36500021 C12.6225005,2.11000011 12.6825009,1.90750051 12.8100005,1.75000041 C12.9450007,1.59250061 13.1175004,1.51000061 13.3349992,1.51000061 C13.4474984,1.51000061 13.5375005,1.53250091 13.6124994,1.57000101 C13.6875002,1.60750091 13.7549993,1.68250101 13.8150007,1.78000101 L13.8150007,1.55500131 L14.2349989,1.55500131 L14.2349989,1.56999991 L14.2349989,1.56999991 Z M13.4249993,1.88500021 C13.2974988,1.88500021 13.2075005,1.93750001 13.1399995,2.04250001 C13.0874997,2.12500001 13.0650006,2.23000001 13.0650006,2.36500021 C13.0650006,2.53000021 13.1024991,2.65000051 13.1774998,2.74000021 C13.2450009,2.81500051 13.3275013,2.85250041 13.4325009,2.85250041 C13.5674992,2.85250041 13.665001,2.80000061 13.7325001,2.68750041 C13.7850018,2.60500041 13.8075009,2.49250071 13.8075009,2.36500021 C13.8075009,2.20750041 13.7700005,2.08750051 13.6875001,1.99750011 C13.6275006,1.92250011 13.5375005,1.88500021 13.4249993,1.88500021 Z"/>
    </g>
  </g>
</svg>
