<svg xmlns="http://www.w3.org/2000/svg" width="24" height="24" viewBox="0 0 24 24">
  <g fill="none" fill-rule="evenodd">
    <path fill="#2D327D" d="M22.5,0 L1.5,0 C0.675000003,0 0,0.675000003 0,1.5 L0,22.5 C0,23.3250009 0.675000003,24 1.5,24 L22.5,24 C23.3250009,24 24,23.3250009 24,22.5 L24,1.5 C24,0.675000003 23.3250009,0 22.5,0 Z"/>
    <g fill="#FFF" transform="translate(3 3)">
      <path d="M0.412499902,18.0000001 L17.5874992,18.0000001 C17.8574997,18.0000001 18.0375,17.7224999 17.9325004,17.4750005 C16.9874988,15.3150007 15.27,13.5599996 13.1400009,12.5625001 C13.0274998,12.5100003 12.9000011,12.5175 12.7949997,12.5774995 C11.6850004,13.1924993 10.3874998,13.5450002 9.00000004,13.5450002 C7.61250023,13.5450002 6.31499963,13.1925012 5.20499992,12.5775014 C5.10000042,12.517501 4.97249892,12.5100013 4.85999922,12.5625011 C2.72999911,13.5675012 1.0124989,15.3150007 0.0674987001,17.4750005 C-0.0449998003,17.7224999 0.1425002,18.0000001 0.412499902,18.0000001 Z"/>
      <path fill-rule="nonzero" d="M18,3 C18,1.34250021 16.6575013,0 15,0 C14.0249997,0 13.1549989,0.464999702 12.6075002,1.1925001 C11.5575009,0.599999902 10.3200007,0.255000101 9,0.255000101 C7.67999933,0.255000101 6.44249923,0.599999902 5.39249992,1.1925001 C4.84500032,0.464999702 3.97499992,0 3,0 C1.34250021,0 0,1.34250021 0,3 C0,4.35750062 0.900000104,5.49750042 2.13000011,5.87250042 C2.09999991,6.12749963 2.07750031,6.38250063 2.07750031,6.64500043 C2.07750031,10.17 5.17500012,13.0349999 9,13.0349999 C12.825,13.0349999 15.9224988,10.1775007 15.9224988,6.64500043 C15.9224988,6.38250063 15.9074975,6.12750053 15.869999,5.87250042 C17.1000005,5.49750042 18,4.35750062 18,3 Z M6.06000043,7.97249983 C5.61750032,7.97249983 5.26499942,7.61250013 5.26499942,7.17749973 C5.26499942,6.73500053 5.62500002,6.38249963 6.06000043,6.38249963 C6.49500083,6.38249963 6.85500053,6.74249933 6.85500053,7.17749973 C6.86250023,7.62000083 6.50249963,7.97249983 6.06000043,7.97249983 Z M9.75000004,11.0249996 C9.47249984,11.0249996 9.20249944,10.9575004 9.00000004,10.8450002 C8.79750064,10.9575004 8.52750024,11.0249996 8.25000003,11.0249996 C7.61250023,11.0249996 7.11749943,10.5600004 7.11749943,10.1625004 C7.11749943,10.0725002 7.19249923,9.99750044 7.28249943,9.99750044 C7.37249963,9.99750044 7.44749943,10.0725002 7.44749943,10.1625004 C7.44749943,10.3725004 7.79249973,10.6950007 8.24999923,10.6950007 C8.46749894,10.6950007 8.67749904,10.6425009 8.83499924,10.5600005 L8.83499924,9.60000054 C8.39999883,9.54750074 8.06999983,9.27000064 8.06999983,8.94750034 C8.06999983,8.58000094 8.48999994,8.28000083 8.99999924,8.28000083 C9.51749824,8.28000083 9.92999864,8.58000104 9.92999864,8.94750034 C9.92999864,9.27750024 9.59999874,9.54750074 9.16499924,9.60000054 L9.16499924,10.5600005 C9.31499884,10.642501 9.52499894,10.6950007 9.74999924,10.6950007 C10.2074997,10.6950007 10.552499,10.3725005 10.552499,10.1625004 C10.552499,10.0725002 10.6274988,9.99750044 10.717499,9.99750044 C10.8074982,9.99750044 10.882498,10.0725002 10.882498,10.1625004 C10.882498,10.5600004 10.3874998,11.0249996 9.75000004,11.0249996 Z M11.9399996,7.97249983 C11.4975004,7.97249983 11.1449995,7.61250013 11.1449995,7.17749973 C11.1449995,6.73500053 11.5049992,6.38249963 11.9399996,6.38249963 C12.3824998,6.38249963 12.7350007,6.74249933 12.7350007,7.17749973 C12.7350007,7.61250013 12.3750001,7.97249983 11.9399996,7.97249983 Z"/>
    </g>
  </g>
</svg>
