<svg xmlns="http://www.w3.org/2000/svg" width="24" height="24" viewBox="0 0 24 24">
  <g fill="none" fill-rule="evenodd">
    <path fill="#2D327D" d="M22.5,0 L1.5,0 C0.675000003,0 0,0.675000003 0,1.5 L0,22.5 C0,23.3250009 0.675000003,24 1.5,24 L22.5,24 C23.3250009,24 24,23.3250009 24,22.5 L24,1.5 C24,0.675000003 23.3250009,0 22.5,0 Z"/>
    <g fill="#FFF" transform="translate(2 2)">
      <path d="M5.77749972.705000203C5.46250012.465000402 5.07250022.322500201 4.64499952.322500201 4.26999952.322500201 3.91749952.435000202 3.62499952.622500203L3.62499952.622500203.984999204 2.14500051 5.77749972 2.14500051 5.77749972.705000203 5.77749972.705000203zM8.40999894 4.65000012C10.2024993 4.39500052 11.8299999 3.63749982 13.1425 2.52749971L8.40999894 2.52749971 8.40999894 4.65000012 8.40999894 4.65000012zM8.40999984 2.15249971L13.2025013 2.15249971 10.5625009.629999703 10.5625009.629999703C10.2700014.442499702 9.91750044.329999501 9.54250044.329999501 9.11500064.329999501 8.72500124.472499702 8.40999984.712499403L8.40999984 2.15249971 8.40999984 2.15249971zM5.77749992 2.52749971L1.0449998 2.52749971C2.36499971 3.63749982 3.98500012 4.39499952 5.77749992 4.65000012L5.77749992 2.52749971 5.77749992 2.52749971z" transform="translate(0 1)"/>
      <path d="M13.8474999,8.06499963 C13.3300009,8.06499963 12.9099999,8.48500064 12.9099999,9.00249964 L12.9099999,11.4549999 L12.5349999,11.4549999 L12.5349999,7.86999893 C12.5349999,7.35249993 12.1149998,6.93249893 11.5974998,6.93249893 C11.0800008,6.93249893 10.6599998,7.35249993 10.6599998,7.86999893 L10.6599998,10.7199993 L10.2849998,10.7199993 L10.2849998,7.11999893 C10.2849998,6.60249993 9.86499974,6.18249893 9.34749984,6.18249893 C8.83000084,6.18249893 8.40999984,6.60249993 8.40999984,7.11999893 L8.40999984,9.94749924 L8.03499983,9.94749924 L8.03499983,1.91499971 C8.03499983,1.39749951 7.61499973,0.977499704 7.09749983,0.977499704 C6.58000083,0.977499704 6.15999983,1.39749951 6.15999983,1.91499971 L6.15999983,12.2274998 L5.78500032,12.2274998 L5.78500032,12.2274998 L5.78500032,9.82000044 C5.78500032,9.22750074 5.41000032,8.69500044 4.84750032,8.49999984 C4.77250002,8.4774997 4.69750022,8.46249964 4.61499982,8.46249964 C4.22499992,8.46249964 3.91749962,8.77750014 3.91749962,9.16749954 L3.91749962,13.6899996 L3.91749962,13.6899996 C3.91749962,14.1549988 4.01499992,14.6424999 4.17249972,15.0174999 C4.32999952,15.3924999 5.82249932,19.0000001 5.82249932,19.0000001 L13.5999986,19.0000001 L14.5599996,16.6749993 C14.7174989,16.2625008 14.7999994,15.8199998 14.7999994,15.3474999 C14.7999994,15.2799988 14.7999994,9.00249864 14.7999994,9.00249864 C14.7849999,8.48500064 14.3650018,8.06499963 13.8474999,8.06499963 Z"/>
    </g>
  </g>
</svg>
