<svg xmlns="http://www.w3.org/2000/svg" width="24" height="24" viewBox="0 0 24 24">
  <g fill="none" fill-rule="evenodd">
    <path fill="#2D327D" d="M22.5,0 L1.5,0 C0.675000003,0 0,0.675000003 0,1.5 L0,22.5 C0,23.3250009 0.675000003,24 1.5,24 L22.5,24 C23.3250009,24 24,23.3250009 24,22.5 L24,1.5 C24,0.675000003 23.3250009,0 22.5,0 Z"/>
    <g fill="#FFF" transform="translate(3 3)">
      <path fill-rule="nonzero" d="M17.4375001.0300002L14.9849988.0300002C14.6549989.0300002 14.3925.292500001 14.3925.622500202L14.3925 6.47999933C14.3925 6.80999923 14.6549989 7.07249903 14.9849988 7.07249903L17.4375001 7.07249903C17.7675 7.07249903 18.0299989 6.80999923 18.0299989 6.47999933L18.0299989.622500202C18.0299989.292500001 17.7675.0300002 17.4375001.0300002zM16.2075006 6.72750003C16.0650007 6.72750003 15.9600011 6.60749923 15.9600011 6.45749953 15.9600011 6.31499963 16.0800019 6.19499973 16.2150003 6.19499973 16.3575002 6.19499973 16.4624998 6.31499963 16.4624998 6.46500023 16.4624997 6.61499983 16.3500005 6.73500063 16.2075006 6.72750003zM17.5499993 5.75249962L14.8724995 5.75249962 14.8724995.689999603 17.5499993.689999603 17.5499993 5.75249962zM3.38999991 11.8274994L3.86999942 11.8274994C4.03499892 11.8274994 4.13249922 11.9174996 4.13249922 12.0674993 4.13249922 12.2250005 4.03499892 12.3149997 3.86999942 12.3149997L3.38999941 12.3149997 3.38999991 11.8274994 3.38999991 11.8274994zM3.11250021 12.5325004L3.82499982 12.5325004C4.22999952 12.5325004 4.39500042 12.3450004 4.39500042 12.0975 4.39500042 11.8874999 4.29000092 11.7375002 4.10250092 11.6999999L4.10250092 11.6924993C4.24500032 11.6324998 4.32750082 11.5199996 4.32750082 11.3625003 4.32750082 11.1000005 4.14750142 10.9799997 3.87000032 10.9799997L3.11250021 10.9799997 3.11250021 12.5325004 3.11250021 12.5325004zM3.38999991 11.1975002L3.83249952 11.1975002C3.98249912 11.1975002 4.05749942 11.2575006 4.05749942 11.4075002 4.05749942 11.5500001 3.95999912 11.6249999 3.83249952 11.6249999L3.38999941 11.6249999 3.38999991 11.1975002 3.38999991 11.1975002z"/>
      <path d="M5.59500032 12.5325004L5.35500052 12.5325004 5.35500052 12.3750001 5.34749982 12.3750001C5.28750032 12.4875003 5.15250012 12.5625001 5.02499962 12.5625001 4.73250052 12.5625001 4.60499952 12.4125005 4.60499952 12.1200009L4.60499952 11.4075002 4.85250002 11.4075002 4.85250002 12.0974999C4.85250002 12.2925005 4.93500052 12.3675004 5.06999972 12.3675004 5.27999972 12.3675004 5.34749892 12.2325002 5.34749892 12.0600005L5.34749892 11.4075002 5.59499932 11.4075002 5.59500032 12.5325004 5.59500032 12.5325004zM6.04500013 12.1725007C6.06000043 12.3149997 6.16500093 12.3675004 6.30000023 12.3675004 6.38999943 12.3675004 6.55499943 12.3450004 6.54750063 12.2175008 6.54000003 12.0900012 6.36000063 12.0750009 6.18000033 12.0300008 6.00000093 11.9925003 5.82000062 11.9250012 5.82000062 11.7000008 5.82000062 11.4525013 6.08250043 11.3775006 6.29250043 11.3775006 6.52500143 11.3775006 6.73500053 11.4750014 6.76500123 11.7225018L6.50250053 11.7225018C6.48000053 11.602501 6.38250063 11.5725012 6.27750113 11.5725012 6.20250133 11.5725012 6.07500083 11.5875015 6.07500083 11.6850014 6.07500083 11.8050022 6.25500113 11.8275013 6.44250113 11.8650008 6.62250053 11.9100018 6.80250083 11.9700003 6.80250083 12.1950008 6.80250083 12.4650013 6.53250033 12.5625002 6.30000123 12.5625002 6.01500143 12.5625002 5.80500042 12.4350006 5.80500042 12.1725008L6.04500013 12.1725008 6.04500013 12.1725007z"/>
      <path fill-rule="nonzero" d="M6.98999983,11.4075003 L7.23750023,11.4075003 L7.23750023,12.5325004 L6.98999983,12.5325004 L6.98999983,11.4075003 L6.98999983,11.4075003 Z M6.98999983,10.9799995 L7.23750023,10.9799995 L7.23750023,11.2124996 L6.98999983,11.2124996 L6.98999983,10.9799995 L6.98999983,10.9799995 Z"/>
      <path d="M7.50750063,11.4075003 L7.74000073,11.4075003 L7.74000073,11.5725003 L7.74750133,11.5800009 C7.82250113,11.4525013 7.95000073,11.3775006 8.10000133,11.3775006 C8.34000113,11.3775006 8.49750134,11.5050011 8.49750134,11.7600012 L8.49750134,12.5325013 L8.25000003,12.5325013 L8.25000003,11.8275022 C8.24249943,11.6550016 8.17500023,11.5725021 8.03250033,11.5725021 C7.86750033,11.5725021 7.76249983,11.7000026 7.76249983,11.8650016 L7.76249983,12.5250025 L7.51499943,12.5250025 L7.50750063,11.4075003 L7.50750063,11.4075003 Z"/>
      <path fill-rule="nonzero" d="M8.95499994,11.8725005 C8.96249964,11.7075004 9.08249954,11.5725002 9.24749944,11.5725002 C9.41249844,11.5725002 9.51749994,11.7150001 9.53249924,11.8725005 L8.95499994,11.8725005 L8.95499994,11.8725005 Z M9.77999974,12.0299998 C9.82499984,11.6924991 9.60000034,11.3699989 9.24749944,11.3699989 C8.90999884,11.3699989 8.70749944,11.6399994 8.70749944,11.9624986 C8.70749944,12.307499 8.90250004,12.5549984 9.25499914,12.5549984 C9.50249954,12.5549984 9.71249964,12.4199982 9.76499934,12.1724978 L9.52499954,12.1724978 C9.47999944,12.2999974 9.39749994,12.3599978 9.24750034,12.3599978 C9.04500004,12.3599978 8.94750014,12.2024975 8.94750014,12.0299988 L9.77999974,12.0299998 L9.77999974,12.0299998 Z"/>
      <path d="M10.1549997 12.1725007C10.1699991 12.3149997 10.2749996 12.3675004 10.4099989 12.3675004 10.4999991 12.3675004 10.664999 12.3450004 10.6574993 12.2175008 10.6499987 12.0900012 10.4699993 12.0750009 10.2899999 12.0300008 10.1100005 11.9925003 9.92999934 11.9250012 9.92999934 11.7000008 9.92999934 11.4525013 10.1924991 11.3775006 10.4025001 11.3775006 10.6350002 11.3775006 10.8449993 11.4750014 10.8749999 11.7225018L10.6125001 11.7225018C10.5900001 11.602501 10.4924993 11.5725012 10.3874997 11.5725012 10.3124999 11.5725012 10.1850003 11.5875015 10.1850003 11.6850014 10.1850003 11.8050022 10.3649997 11.8275013 10.5524997 11.8650008 10.7324991 11.9100018 10.9125003 11.9700003 10.9125003 12.1950008 10.9125003 12.4650013 10.6424998 12.5625002 10.4099998 12.5625002 10.125 12.5625002 9.91500004 12.4350005 9.91500004 12.1725007L10.1549997 12.1725007 10.1549997 12.1725007zM11.2799997 12.1725007C11.2949991 12.3149997 11.3999996 12.3675004 11.5349989 12.3675004 11.6249991 12.3675004 11.789999 12.3450004 11.7824993 12.2175008 11.7749987 12.0900012 11.5949993 12.0750009 11.4149999 12.0300008 11.2350005 11.9925003 11.0549993 11.9250012 11.0549993 11.7000008 11.0549993 11.4525013 11.3174991 11.3775006 11.5275001 11.3775006 11.7600002 11.3775006 11.9699993 11.4750014 11.9999999 11.7225018L11.7375001 11.7225018C11.7150001 11.602501 11.6174993 11.5725012 11.5124997 11.5725012 11.4374999 11.5725012 11.3100003 11.5875015 11.3100003 11.6850014 11.3100003 11.8050022 11.4899997 11.8275013 11.6774997 11.8650008 11.8574991 11.9100018 12.0375004 11.9700003 12.0375004 12.1950008 12.0375004 12.4650013 11.7674998 12.5625002 11.5349998 12.5625002 11.25 12.5625002 11.04 12.4350005 11.04 12.1725007L11.2799997 12.1725007 11.2799997 12.1725007z"/>
      <path fill-rule="nonzero" d="M15.1200009,17.5200006 L13.7400017,15.1275007 L13.7400017,15.1275007 L13.7400017,8.49000084 C13.7400017,8.30250083 13.5900002,8.15250123 13.4025002,8.15250123 L1.74750041,8.15250123 C1.56000041,8.15250123 1.41000031,8.30250083 1.41000031,8.49000084 L1.41000031,15.1275007 C1.41000031,15.1350023 1.41000031,15.142502 1.41000031,15.142502 L0,17.5575009 L0,17.5575009 L0,17.5575009 L0,17.5575009 L0,17.5575009 C0.00749990003,17.602501 0.0524998002,18.0150014 0.247500201,18.0150014 L14.8875006,18.0150014 C15.0974999,18.0150014 15.1200009,17.5200006 15.1200009,17.5200006 L15.1200009,17.5200006 L15.1200009,17.5200006 Z M1.84499981,8.57999994 L13.3125001,8.57999994 L13.3125001,15.0299989 L1.84499981,15.0299989 L1.84499981,8.57999994 Z M9.75750064,17.5125009 L5.58000092,17.5125009 C5.51250082,17.5125009 5.47500142,17.4599992 5.49750042,17.3999998 L5.69250102,16.7999994 C5.71500102,16.7400018 5.78250022,16.6875002 5.85000132,16.6875002 L9.52499964,16.6875002 C9.59249974,16.6875002 9.65999984,16.7400019 9.68250084,16.807501 L9.85500054,17.4075014 C9.87000084,17.4599992 9.82499984,17.5125009 9.75750064,17.5125009 Z M13.852501,16.3875009 L1.34250071,16.3950006 C1.27500061,16.3950006 1.24500041,16.3500005 1.28250031,16.2900011 L1.67250021,15.5699999 C1.70250041,15.5100023 1.78500041,15.4650004 1.85250051,15.4650004 L13.3500001,15.4650004 C13.4174993,15.4650004 13.4999997,15.5100024 13.5299985,15.5699999 L13.9199998,16.2825014 C13.9500009,16.3349992 13.9200002,16.3875009 13.852501,16.3875009 Z"/>
    </g>
  </g>
</svg>
