<svg xmlns="http://www.w3.org/2000/svg" width="24" height="24" viewBox="0 0 24 24">
  <g fill="none" fill-rule="evenodd">
    <path fill="#2D327D" d="M22.5,0 L1.5,0 C0.675000003,0 0,0.675000003 0,1.5 L0,22.5 C0,23.3250009 0.675000003,24 1.5,24 L22.5,24 C23.3250009,24 24,23.3250009 24,22.5 L24,1.5 C24,0.675000003 23.3250009,0 22.5,0 Z"/>
    <path fill="#FFF" fill-rule="nonzero" d="M9,0 C4.02749972,0 0,4.02749972 0,9 C0,13.9725004 4.02749972,18 9,18 C13.9725004,18 18,13.9724999 18,9 C18,4.02750022 13.9724999,0 9,0 L9,0 Z M12.7500001,8.12999923 C11.7224998,8.12999923 10.8825006,7.29749873 10.8825006,6.26249983 C10.8825006,6.17250063 10.8900012,6.08250043 10.9050006,5.99249932 C10.0875014,6.47999953 9.51750084,7.65749933 9.51750084,8.89499954 L9.51750084,13.4399987 L10.6725005,13.4399987 C10.8825005,13.4399987 11.0475005,13.6049996 11.0475005,13.8149987 C11.0475005,14.0249978 10.8825005,14.1899987 10.6725005,14.1899987 L9.51750084,14.1899987 L6.11250023,14.1899987 L4.92749982,14.1899987 C4.71749982,14.1899987 4.55249982,14.0249978 4.55249982,13.8149987 C4.55249982,13.6049996 4.71749982,13.4399987 4.92749982,13.4399987 L6.11250023,13.4399987 L6.11250023,5.27999972 L4.92749982,5.27999972 C4.71749982,5.27999972 4.55249982,5.11499972 4.55249982,4.90499972 C4.55249982,4.69499922 4.71749982,4.52999972 4.92749982,4.52999972 L9.51750004,4.52999972 L9.51750004,6.41999913 C10.0500003,5.64749912 11.1000005,4.40249972 12.7500002,4.40249972 C13.7775004,4.40249972 14.6175005,5.23500062 14.6175005,6.26999953 C14.6175005,7.29750063 13.7775003,8.12999923 12.7500001,8.12999923 L12.7500001,8.12999923 Z" transform="translate(3 3)"/>
  </g>
</svg>
