<svg xmlns="http://www.w3.org/2000/svg" width="24" height="24" viewBox="0 0 24 24">
  <g fill="none" fill-rule="evenodd">
    <path fill="#2D327D" d="M22.5,0 L1.5,0 C0.675000003,0 0,0.675000003 0,1.5 L0,22.5 C0,23.3250009 0.675000003,24 1.5,24 L22.5,24 C23.3250009,24 24,23.3250009 24,22.5 L24,1.5 C24,0.675000003 23.3250009,0 22.5,0 Z"/>
    <path fill="#FFF" d="M3.25000001 11.9325008C3.16750001 11.9400005 3.09999991 12.0150014 3.09999991 12.0975018L3.09999991 14.9100018C3.09999991 14.9925023 3.16750001 15.0600014 3.25000001 15.0600014L6.65499973 15.0600014C6.73750023 15.0600014 6.80499933 14.9925022 6.80499933 14.9100018L6.80499933 11.7300014C6.80499933 11.6475009 6.73750013 11.5875015 6.65499973 11.5950031L3.25000001 11.9325008 3.25000001 11.9325008zM7.97500043 9.77250004L6.82749943 9.77250004 6.82749943 7.88999943C6.82749943 7.72500043 6.69249923 7.59000023 6.52750023 7.59000023L2.88249971 7.59000023 2.49250031 6.28499993C2.46999981 6.20249943 2.4475001 6.07499993 2.4475001 5.99250042L2.4475001 4.02000062C2.4475001 3.93750012 2.51500031 3.87000102 2.59750031 3.87000102L2.86000011 3.87000102C3.02500011 3.87000102 3.16000031 3.73500082 3.16000031 3.57000081L3.16000031 1.1925006C3.16000031 1.0275011 3.02500011.892500904 2.86000011.892500904L1.24750011.892500904C1.0825004.892500904.947500104 1.0275011.947500104 1.1925006L.947500104 6.21000103C.947500104 6.29250153.970000404 6.42750073.992499904 6.50250053L2.37250031 11.1225013C2.47000011 11.4375018 2.81500041 11.67 3.14500031 11.6400012L6.81250003 11.2800026 7.97500043 11.2800026C8.13999943 11.2800026 8.27499963 11.1450024 8.27499963 10.9800015L8.27499963 10.0725022C8.27499963 9.90750034 8.13999943 9.77250004 7.97500043 9.77250004L7.97500043 9.77250004zM6.02499963 9.84749984L3.92500022 10.0499992C3.76000022 10.0650005 3.58750011 9.95249944 3.54250001 9.79500004L3.34750031 9.13500024 3.12250041 8.38500023 5.87500002 8.38500023C5.95750052 8.38500023 6.02499963 8.45249944 6.02499963 8.53499984L6.02499963 9.84749984 6.02499963 9.84749984zM13.9225007 11.9325008C13.8400003 11.9400005 13.7725001 12.0150014 13.7725001 12.0975019L13.7725001 14.9100019C13.7725001 14.9925024 13.8400002 15.0600015 13.9225007 15.0600015L17.3275014 15.0600015C17.4100019 15.0600015 17.477501 14.9925023 17.477501 14.9100019L17.477501 11.7300015C17.477501 11.647501 17.4100018 11.5875016 17.3275014 11.5950032L13.9225007 11.9325008 13.9225007 11.9325008zM18.6474992 9.77250004L17.5000001 9.77250004 17.5000001 7.88999943C17.5000001 7.72500043 17.3650018 7.59000023 17.2000009 7.59000023L13.5549995 7.59000023 13.1650001 6.28499983C13.1425001 6.20249933 13.1199991 6.07499983 13.1199991 5.99250032L13.1199991 4.02000052C13.1199991 3.93750002 13.1874992 3.87000092 13.2699997 3.87000092L13.5324995 3.87000092C13.6974995 3.87000092 13.8324997 3.73500072 13.8324997 3.57000071L13.8324997 1.1925006C13.8324997 1.0275011 13.6974995.892500904 13.5324995.892500904L11.9124986.892500904C11.7474996.892500904 11.6124994 1.0275011 11.6124994 1.1925006L11.6124994 6.21000103C11.6124994 6.29250153 11.6349994 6.42750073 11.6574995 6.50250053L13.0374988 11.1225013C13.1349996 11.4375018 13.4799989 11.67 13.8099998 11.6400012L17.4774993 11.2800025 18.6474994 11.2800025C18.8125003 11.2800025 18.9474986 11.1450023 18.9474986 10.9800014L18.9474986 10.0725021C18.9474986 9.90750034 18.8125001 9.77250004 18.6474992 9.77250004L18.6474992 9.77250004zM16.6974984 9.84749984L14.5974999 10.0499992C14.432499 10.0650005 14.2599984 9.95249944 14.2149983 9.79500004L14.0199986 9.13500024 13.7949982 8.38500023 16.5474987 8.38500023C16.6299992 8.38500023 16.6974984 8.45249944 16.6974984 8.53499984L16.6974984 9.84749984 16.6974984 9.84749984z" transform="translate(2 6)"/>
  </g>
</svg>
