<svg xmlns="http://www.w3.org/2000/svg" width="24" height="24" viewBox="0 0 24 24">
  <g fill="none" fill-rule="evenodd">
    <path fill="#2D327D" d="M22.5,0 L1.5,0 C0.675000003,0 0,0.675000003 0,1.5 L0,22.5 C0,23.3250009 0.675000003,24 1.5,24 L22.5,24 C23.3250009,24 24,23.3250009 24,22.5 L24,1.5 C24,0.675000003 23.3250009,0 22.5,0 Z"/>
    <g fill="#FFF" transform="translate(3 2)">
      <polygon points="18.075 18.933 .075 18.933 .075 18.632 18.075 18.632"/>
      <path d="M8.91000034 8.85250004C8.74500084 8.85250004 8.61000064 8.98750024 8.61000064 9.15250024L8.61000064 10.0824996C8.61000064 10.1349994 8.64750004 10.1724988 8.69999984 10.1724988L9.12000084 10.1724988C9.17250064 10.1724988 9.21000004 10.1349994 9.21000004 10.0824996L9.21000004 9.15250024C9.21000004 8.98750024 9.07499984 8.85250004 8.91000034 8.85250004L8.91000034 8.85250004zM10.5974998 10.6225004C10.5825004 10.4575004 10.4325008 10.3225002 10.2675008 10.3225002L9.22500034 10.3225002C9.17250054 10.3225002 9.13500014 10.3600006 9.13500014 10.4125004L9.13500014 18.0025007C9.13500014 18.0550024 9.17250054 18.0925028 9.22500034 18.0925028L10.2600001 18.0925028C10.4250001 18.0925028 10.5749997 17.9575026 10.59 17.7925017 10.59 17.7925017 10.7475003 16.3825038 10.7475003 14.2075026 10.7549992 12.0325004 10.5974998 10.6225004 10.5974998 10.6225004L10.5974998 10.6225004zM8.59500034 10.3225002L7.56000053 10.3225002C7.39500053 10.3225002 7.24500093 10.4575004 7.23000063 10.6225004 7.23000063 10.6225004 7.07250033 12.0325003 7.07250033 14.2075005 7.07250033 16.3825007 7.23000063 17.7924996 7.23000063 17.7924996 7.24500093 17.9575005 7.40250123 18.0924988 7.56000053 18.0924988L8.59500034 18.0924988C8.64750014 18.0924988 8.68500054 18.0550003 8.68500054 18.0024986L8.68500054 10.4125003C8.68500054 10.3674994 8.64750004 10.3225002 8.59500034 10.3225002L8.59500034 10.3225002z"/>
      <path fill-rule="nonzero" d="M8.00249963.939999804L6.44999983.939999804C6.18750003.939999804 5.97000032 1.1574998 5.97000032 1.41999981L5.97000032 3.76000022C5.97000032 3.85750052 6.03000072 3.99250032 6.10500053 4.06000042L6.84749993 4.72000022C6.92250073 4.78749982 6.98250013 4.92250012 6.98250013 5.02000042L6.98250013 5.15500062C6.98250013 5.25250092 6.96000013 5.41000022 6.92250063 5.50750062L5.30249982 10.2925004C5.27250002 10.3900013 5.16749952 10.4650011 5.06250002 10.4650011L1.1550002 10.4650011C.892500203 10.4650011.674999902 10.6300011.674999902 10.8325005.674999902 11.0349999.674999902 11.1925011.674999902 11.1925011.674999902 11.1925011.674999902 11.2675009.674999902 11.3500014.674999902 11.4399998.757499903 11.5150014.855000003 11.5150014L4.71000002 11.5150014C4.80750032 11.5150014 4.86750072 11.5900012 4.83000082 11.6875011L4.59750022 12.370002 4.40249962 12.9399998C4.37250032 13.0300018 4.34249972 13.1875021 4.34249972 13.2850029L4.34249972 13.5550034C4.34249972 13.6000035 4.32749982 13.6450026 4.28999992 13.6675036 4.26000022 13.6900036 4.21499962 13.6975024 4.16999912 13.682503L3.91500002 13.5925027C3.81749972 13.5625039 3.66749961 13.5400029 3.56999971 13.5400029L.555000102 13.5400029C.292500101 13.5400029.0750001 13.7575026.0750001 14.0200024L.0750001 15.1600037C.0750001 15.4225045.292500101 15.6400032.555000102 15.6400032L5.14500032 15.6400032C5.40750012 15.6400032 5.68500032 15.4300041 5.75250042 15.175003L6.13500103 13.7875022 8.43000203 5.50750242C8.46000083 5.41000262 8.47500214 5.25250322 8.47500214 5.15500292L8.47500214 1.41999981C8.48250014 1.1500001 8.26499943.939999804 8.00249963.939999804L8.00249963.939999804zM8.24249943 5.15499972C8.24249943 5.22999952 8.21999943 5.37249902 8.20500003 5.44749922L5.51999962 15.1149979C5.47499862 15.2649994 5.29499922 15.3999977 5.14499962 15.3999977L.555000102 15.3999977C.419999901 15.3999977.315000301 15.2949982.315000301 15.159996L.315000301 14.0199966C.315000301 13.8849964.420000601 13.7799968.555000102 13.7799968L3.57749991 13.7799968C3.64499951 13.7799968 3.77250012 13.8024978 3.84750042 13.8249978L4.10250002 13.9074985C4.22250042 13.9449979 4.34249982 13.9299985 4.43999962 13.8624975 4.53749992 13.7949983 4.58999972 13.6824981 4.58999972 13.5549976L4.58999972 13.2849971C4.58999972 13.2099973 4.61250022 13.0824968 4.63500032 13.0149966L4.89750012 12.2424966 5.06250012 11.7549963C5.10000052 11.6349955 5.08500012 11.5149965 5.01750002 11.4174957 4.94999992 11.3199959 4.83750022 11.2674961 4.70999922 11.2674961 4.70999922 11.2674961 1.0274993 11.2674961.914999403 11.2674961.914999403 11.2299957.914999403 11.1849956.914999403 11.1849956L.914999403 10.8249998C.914999403 10.7799997 1.0049993 10.6975002 1.1549989 10.6975002L5.06999982 10.6975002C5.27249922 10.6975002 5.46749982 10.5550003 5.53499902 10.3600006L7.15499983 5.57499982C7.19249923 5.45499942 7.22249903 5.27500012 7.22249903 5.14750002L7.22249903 5.01249982C7.22249903 4.84750032 7.13249983 4.64500042 7.00499933 4.53249982L6.26249983 3.87249952C6.23999983 3.84999942 6.21000003 3.78249982 6.21000003 3.75249962L6.21000003 1.41999981C6.21000003 1.28499961 6.3150003 1.18 6.44999983 1.18L8.00249963 1.18C8.13749983 1.18 8.24249943 1.28500031 8.24249943 1.41999981L8.24249943 5.15499972 8.24249943 5.15499972zM9.50249964 1.24750021L9.50249964 4.98250062C9.50249964 5.08000092 9.52499964 5.23750022 9.54750064 5.33500012L11.8500004 13.6149999 12.2325002 15.0025007C12.3000003 15.2574999 12.5775014 15.4675028 12.8400012 15.4675028L17.4300023 15.4675028C17.6925012 15.4675028 17.9100018 15.2500021 17.9100018 14.9875033L17.9100018 13.847503C17.9100018 13.5850032 17.6925011 13.3675035 17.4300023 13.3675035L14.4075032 13.3675035C14.3100034 13.3675035 14.1600037 13.3900035 14.062502 13.4200033L13.8075028 13.5100025C13.7625027 13.5250028 13.7175026 13.5175031 13.687502 13.4950031 13.6575032 13.4725031 13.6350022 13.4350027 13.6350022 13.3825029L13.6350022 13.1125024C13.6350022 13.0150026 13.6050015 12.8575032 13.5750027 12.7675002L13.3800011 12.1975015 13.147501 11.5150015C13.1175022 11.4175007 13.170002 11.3425009 13.2675018 11.3425009L17.1225013 11.3425009C17.2200011 11.3425009 17.3025016 11.2675002 17.3025016 11.1775009 17.3025016 11.0875017 17.3025016 11.0200006 17.3025016 11.0200006 17.3025016 11.0200006 17.3025016 10.8550006 17.3025016 10.66 17.3025016 10.4575006 17.0850009 10.2925006 16.8225021 10.2925006L12.9075012 10.2925006C12.8100014 10.2925006 12.7050018 10.2175008 12.6675014 10.1200009L11.0475016 5.33500002C11.0175019 5.24500032 10.9875012 5.08000082 10.9875012 4.98250052L10.9875012 4.84750032C10.9875012 4.75000002 11.0475016 4.61499972 11.1225014 4.54750012L11.8650008 3.88749982C11.9400006 3.81999972 12.0000011 3.68500042 12.0000011 3.58750011L12.0000011 1.24750021C12.0000011.985000204 11.7825013.767500203 11.5200015.767500203L9.96750174.767500203C9.72000034.767500203 9.50249964.985000104 9.50249964 1.24750021L9.50249964 1.24750021zM9.74249944 1.24750021C9.74249944 1.1125 9.84749894 1.0075004 9.98249924 1.0075004L11.534999 1.0075004C11.6699992 1.0075004 11.7749988 1.1125007 11.7749988 1.24750021L11.7749988 3.58750011C11.7749988 3.61750032 11.7449991 3.68500042 11.722499 3.70750002L10.9799996 4.36750032C10.8525 4.48000002 10.7624998 4.68250042 10.7624998 4.84750032L10.7624998 4.98250052C10.7624998 5.11000012 10.7924995 5.29000092 10.8299999 5.41000032L12.4499999 10.1950006C12.5175 10.3825006 12.7124997 10.5325002 12.9150001 10.5325002L16.8300001 10.5325002C16.9799997 10.5325002 17.0699999 10.6150007 17.0699999 10.6599998L17.0699999 11.0200004C17.0699999 11.0200004 17.0699999 11.0650005 17.0699999 11.1025009 16.9575007 11.1025009 13.2749998 11.1025009 13.2749998 11.1025009 13.1475012 11.1025009 13.035 11.1550007 12.9674999 11.2525005 12.8999998 11.3500013 12.8849994 11.4700002 12.9224989 11.5900011L13.0874998 12.0775014 13.3500006 12.8500005C13.3724997 12.9174997 13.3950007 13.0524999 13.3950007 13.120001L13.3950007 13.3900015C13.3950007 13.5175011 13.4475024 13.6300013 13.5450003 13.6975014 13.6425001 13.7650015 13.762501 13.7800019 13.8824999 13.7425024L14.137501 13.6525022C14.2124999 13.6300022 14.3400004 13.6075021 14.4075015 13.6075021L17.4300006 13.6075021C17.5649989 13.6075021 17.6700004 13.7125016 17.6700004 13.8475019L17.6700004 14.9875032C17.6700004 15.1225015 17.5650009 15.227503 17.4300006 15.227503L12.8400004 15.227503C12.6824992 15.227503 12.5024998 15.0925047 12.4650004 14.9425051L9.77999994 5.27499972C9.75749994 5.19999942 9.74249944 5.06499922 9.74249944 4.98250022L9.74249944 1.24750021 9.74249944 1.24750021z"/>
    </g>
  </g>
</svg>
