<svg xmlns="http://www.w3.org/2000/svg" width="24" height="24" viewBox="0 0 24 24">
  <g fill="none" fill-rule="evenodd">
    <path fill="#2D327D" d="M22.5,0 L1.5,0 C0.675000003,0 0,0.675000003 0,1.5 L0,22.5 C0,23.3250009 0.675000003,24 1.5,24 L22.5,24 C23.3250009,24 24,23.3250009 24,22.5 L24,1.5 C24,0.675000003 23.3250009,0 22.5,0 Z"/>
    <path fill="#FFF" fill-rule="nonzero" stroke="#FFF" d="M17.1825009,8.27499963 L11.6475,5.67999942 C11.0325002,5.31999972 10.6125002,4.66749962 10.5900001,3.90999892 L10.5900001,2.19999891 C10.5900001,1.32249931 9.86999894,0.609999203 8.9999993,0.609999203 C8.13000093,0.609999203 7.40999973,1.32999901 7.40999973,2.19999891 L7.40999973,2.26749851 C7.40999973,2.29749781 7.43999943,2.32749841 7.47000013,2.32749841 L8.23500043,2.32749841 C8.26499923,2.32749841 8.29499993,2.29749911 8.29499993,2.26749851 L8.29499993,2.19999891 C8.29499993,1.80999901 8.61000044,1.48749881 9.00750054,1.48749881 C9.39749994,1.48749881 9.72000014,1.80249891 9.72000014,2.19999891 L9.72000014,7.38249783 C9.72000014,7.77249813 9.40500054,8.09499843 9.00750054,8.09499843 C8.61000054,8.09499843 8.29499993,7.77999883 8.29499993,7.38249783 C8.29499993,7.37499813 8.29499993,7.37499813 8.29499993,7.36749843 L8.29499993,3.85000042 C8.29499993,3.82000072 8.26500113,3.79000002 8.23500043,3.79000002 L7.47000013,3.79000002 C7.44000043,3.79000002 7.40999973,3.81999972 7.40999973,3.85000042 L7.40999973,3.90250022 L7.40999973,3.90250022 C7.38000113,4.65999982 6.96000003,5.31250002 6.35250003,5.67250062 L0.809999503,8.26749993 C0.329999201,8.50749974 -7.00000001e-07,8.99499894 -7.00000001e-07,9.56499964 C-7.00000001e-07,10.3674994 0.652499003,11.0125008 1.44749911,11.0125008 L16.5449981,11.0125008 C17.3474998,11.0125008 17.9924964,10.3600006 17.9924964,9.56499964 C17.9924964,9.00249964 17.6625005,8.50750064 17.1825009,8.27499963 Z M17.1299993,9.57250024 C17.1299993,9.89500044 16.8675004,10.1649999 16.5375005,10.1649999 L1.44750021,10.1649999 C1.125,10.1649999 0.855000004,9.90250024 0.855000004,9.57250024 L0.855000004,9.57250024 C0.855000004,9.25000004 1.1175003,8.98000054 1.44750021,8.98000054 L16.5450001,8.98000054 C16.8675004,8.98000054 17.1299993,9.25000004 17.1299993,9.57250024 L17.1299993,9.57250024 Z" transform="translate(3 5)"/>
  </g>
</svg>
