<svg xmlns="http://www.w3.org/2000/svg" width="24" height="24" viewBox="0 0 24 24">
  <g fill="none" fill-rule="evenodd">
    <path fill="#2D327D" d="M22.5,0 L1.5,0 C0.675000003,0 0,0.675000003 0,1.5 L0,22.5 C0,23.3250009 0.675000003,24 1.5,24 L22.5,24 C23.3250009,24 24,23.3250009 24,22.5 L24,1.5 C24,0.675000003 23.3250009,0 22.5,0 Z"/>
    <g fill="#FFF" transform="translate(3 2)">
      <path d="M1.0350003 14.7924996C1.45499991 14.7924996 1.80000021 14.455 1.80000021 14.0275002 1.80000021 13.6074992 1.45499991 13.2624999 1.0350003 13.2624999.615000203 13.2624999.270000401 13.6075002.270000401 14.0275002.270000401 14.455.607499803 14.7924996 1.0350003 14.7924996L1.0350003 14.7924996zM6.59249973 14.7924996C7.01249983 14.7924996 7.35749913 14.455 7.35749913 14.0275002 7.35749913 13.6074992 7.01249883 13.2624999 6.59249973 13.2624999 6.17249873 13.2624999 5.82749942 13.6075002 5.82749942 14.0275002 5.82749942 14.455 6.17250063 14.7924996 6.59249973 14.7924996L6.59249973 14.7924996zM.997500203 6.67749983C1.4175 6.67749983 1.76249981 6.33249953 1.76249981 5.91249992 1.76249981 5.49249942 1.4175 5.14750002.997500203 5.14750002.577500401 5.14750002.2325006 5.49250082.2325006 5.91249992.2325006 6.33250053.569999901 6.67749983.997500203 6.67749983L.997500203 6.67749983zM6.57000063 6.67749983C6.99000073 6.67749983 7.33500003 6.33249953 7.33500003 5.91249992 7.33500003 5.49249942 6.98999983 5.14750002 6.57000063 5.14750002 6.14999963 5.14750002 5.80500032 5.49250072 5.80500032 5.91249992 5.80500032 6.33250053 6.14249993 6.67749983 6.57000063 6.67749983L6.57000063 6.67749983z"/>
      <path d="M4.84500032 19.1724988L5.48250012 19.6000005 1.95750051 1.87749981 1.95000081 1.87749981 1.92000061 1.77999951C1.88250071 1.66749951 1.83750061 1.60749941 1.71750071 1.40499951 1.59000111 1.1949992 1.41000081.992499604 1.1400008.842499504.870001104.684999703.517500602.647499603.517500602.647499603.517500602.647499603.367500802.744999903.427501002.774999403.487501102.812499503 1.0425005 1.20249921 1.170001 1.39749961 1.29750151 1.59250021 1.41000081 1.98999981 1.41000081 1.98999981L1.47750091 1.97499991 1.41000081 1.98999981 2.92500021 9.55750094 2.76749991 9.58749974 2.57999991 9.75249974 2.40000011 9.87999934 2.30249981 10.2174999 2.22750001 10.7275 1.67249971 11.5375004 1.1924997 11.6274996 1.36499981 12.4975005 3.42749981 12.0925008M6.98250013 11.4099998L6.81000043 10.54 6.33000093 10.6374998 5.51250082 10.0974998 5.25000102 9.64750004 5.03250132 9.37749954 4.82250132 9.32499974 4.58250152 9.24249924 4.45500192 9.26499924 2.94750021 1.68999981 2.94750021 1.68999981C2.94750021 1.68999981 2.91000031 1.2849996 2.95499991 1.0524998 3.00000001.819999903 3.36750031.250000001 3.41249991.1899998 3.45750001.1375 3.28500031.1074998 3.28500031.1074998 3.28500031.1074998 2.97750041.280000201 2.78250031.527499702 2.58750061.775000103 2.49750041 1.0299995 2.46000001 1.27 2.42250011 1.50999981 2.40000011 1.57749991 2.41500041 1.69749981L2.42250011 1.80999981 2.42250011 1.80999981 5.94750022 19.5325017 6.37500003 18.8875009 4.96499972 11.8000002 6.98250013 11.4099998 6.98250013 11.4099998z"/>
    </g>
  </g>
</svg>
