<svg xmlns="http://www.w3.org/2000/svg" width="24" height="24" viewBox="0 0 24 24">
  <g fill="none" fill-rule="evenodd">
    <path fill="#2D327D" d="M22.5,0 L1.5,0 C0.675000003,0 0,0.675000003 0,1.5 L0,22.5 C0,23.3250009 0.675000003,24 1.5,24 L22.5,24 C23.3250009,24 24,23.3250009 24,22.5 L24,1.5 C24,0.675000003 23.3250009,0 22.5,0 Z"/>
    <g fill="#FFF" transform="translate(3 6)">
      <path d="M10.5 13.5000001C10.5 14.3250009 9.82499984 15.0000001 9.00000003 15.0000001 8.17500023 15.0000001 7.50000003 14.3250009 7.50000003 13.5000001 7.50000003 12.6749993 8.17500023 12.0000001 9.00000003 12.0000001 9.82499984 12.0000001 10.5 12.6749993 10.5 13.5000001zM12.8174993 9.77999974C11.7749996 8.80499944 10.4250002 8.27249913 9.00000004 8.27249913 7.56749923 8.27249913 6.22500043 8.80499944 5.18250082 9.77999974L6.60750003 11.2124996C7.26750083 10.6200008 8.10750003 10.2900009 8.99999994 10.2900009 9.89249984 10.2900009 10.7399997 10.6200008 11.3924998 11.2124996L12.8174993 9.77999974zM16.5375005 6.08250053L16.6949998 5.94000062 17.9624997 4.66500102C15.6525002 2.13000121 12.3825007.682500403 8.95499994.682500403 5.56499962.682500403 2.32499931 2.10750011.0224991 4.59000112L1.44749931 6.02250103C3.37500001 3.91500092 6.10499953 2.70750141 8.96249964 2.70750141 11.8500004 2.69249921 14.6099988 3.92250062 16.5375005 6.08250053z"/>
      <path d="M15.3374997,7.11749943 C13.665001,5.39999972 11.4375,4.46249972 9.03750044,4.46249972 C6.63750083,4.46249972 4.32749992,5.46000002 2.67000011,7.19249923 L4.09500032,8.61749944 C5.37750062,7.25249963 7.17000011,6.47249893 9.04500014,6.47249893 C10.9050007,6.47249893 12.6300012,7.20749953 13.9200002,8.54249954 L15.3374997,7.11749943 Z"/>
    </g>
  </g>
</svg>
