<svg xmlns="http://www.w3.org/2000/svg" width="24" height="24" viewBox="0 0 24 24">
  <g fill="none" fill-rule="evenodd">
    <path fill="#2D327D" d="M22.5,0 L1.5,0 C0.675000003,0 0,0.675000003 0,1.5 L0,22.5 C0,23.3250009 0.675000003,24 1.5,24 L22.5,24 C23.3250009,24 24,23.3250009 24,22.5 L24,1.5 C24,0.675000003 23.3250009,0 22.5,0 Z"/>
    <g fill="#FFF" stroke="#FFF" transform="translate(3 7)">
      <path fill-rule="nonzero" d="M4.68750001,9.68750004 L14.4375001,9.68750004 C15.2625009,9.68750004 15.9375001,9.01250084 15.9375001,8.18750003 L15.9375001,3.5 C15.9375001,2.67500021 15.2625009,2 14.4375001,2 L11.625,2 L11.625,1.25000001 C11.625,0.837500103 11.2875004,0.500000002 10.875,0.500000002 L8.25000003,0.500000002 C7.83749963,0.500000002 7.50000003,0.837500103 7.50000003,1.25000001 L7.50000003,2 L4.68750001,2 C3.86250022,2 3.18750001,2.67500021 3.18750001,3.5 L3.18750001,8.18750003 C3.18750001,9.01250084 3.86250022,9.68750004 4.68750001,9.68750004 L4.68750001,9.68750004 Z M8.25000003,1.25000001 L10.875,1.25000001 L10.875,2.00000001 L8.25000003,2.00000001 L8.25000003,1.25000001 L8.25000003,1.25000001 Z"/>
      <path d="M15.9375001 11L15.9375001 10.25 2.62500001 10.25 2.62500001.875000004C2.62500001.672500103 2.46000001.500000002 2.25000001.500000002L.375000002.500000002C.164999701.500000002 0 .665000003 0 .875000004 0 1.085.164999701 1.25000001.375000002 1.25000001L1.87500001 1.25000001 1.87500001 11 15.9375001 11 15.9375001 11zM14.7675 11.5550003C14.0924989 11.5550003 13.5450002 12.1024991 13.5450002 12.7700006 13.5450002 13.4449998 14.0924989 13.9925004 14.7675 13.9925004 15.4424992 13.9925004 15.9825002 13.4449998 15.9825002 12.7700006 15.9825002 12.0950014 15.4424993 11.5550003 14.7675 11.5550003L14.7675 11.5550003zM3.12749961 11.5550003C2.45249991 11.5550003 1.90499981 12.1024991 1.90499981 12.7700006 1.90499981 13.4449998 2.45249991 13.9925004 3.12749961 13.9925004 3.80249932 13.9925004 4.34249982 13.4449998 4.34249982 12.7700006 4.34249982 12.0950014 3.79500062 11.5550003 3.12749961 11.5550003L3.12749961 11.5550003z"/>
    </g>
  </g>
</svg>
