<svg xmlns="http://www.w3.org/2000/svg" width="24" height="24" viewBox="0 0 24 24">
  <g fill="none" fill-rule="evenodd">
    <path fill="#2D327D" d="M22.5,0 L1.5,0 C0.675000003,0 0,0.675000003 0,1.5 L0,22.5 C0,23.3250009 0.675000003,24 1.5,24 L22.5,24 C23.3250009,24 24,23.3250009 24,22.5 L24,1.5 C24,0.675000003 23.3250009,0 22.5,0 Z"/>
    <g fill="#FFF" transform="translate(3 6)">
      <path d="M18.0000001,6.00000003 C18.0000001,3.96749972 17.1525003,2.13749981 15.8025018,0.824999803 C15.6600019,0.689999603 15.4425012,0.689999603 15.2925016,0.817499603 L15.2925016,0.817499603 C15.1275007,0.959999004 15.1200029,1.21499961 15.2775003,1.36499971 C16.4925023,2.53499981 17.2500001,4.18499952 17.2500001,6.00000003 C17.2500001,7.81500053 16.5000001,9.45750054 15.2849999,10.6275005 C15.1274987,10.7775001 15.1349984,11.0325012 15.2999993,11.1749992 L15.2999993,11.1749992 C15.4424992,11.3025016 15.6674996,11.3025016 15.8099995,11.1674995 C17.1599999,9.86250024 18.0000001,8.03250033 18.0000001,6.00000003 Z"/>
      <path d="M15.6000005 6.00750063C15.6000005 4.49250032 14.955 3.12000081 13.9200002 2.15999981 13.7775003 2.02499961 13.5600015 2.02499961 13.4100019 2.15250011L13.4100019 2.15250011C13.245001 2.30249971 13.245001 2.55749891 13.4100019 2.71500011 14.2950002 3.54000001 14.8500024 4.71000002 14.8500024 6.00750063 14.8500024 7.30500123 14.2950021 8.47500034 13.4175016 9.29250044 13.2525007 9.44250104 13.2525007 9.70500084 13.4175016 9.84749984L13.4175016 9.84749984C13.5600015 9.97500034 13.7850019 9.96750064 13.9275018 9.84000014 14.955 8.87999924 15.6000005 7.51499943 15.6000005 6.00750063zM13.2000009 6.00750063C13.2000009 4.99500082 12.7500001 4.08000082 12.0375005 3.46500111 11.8950005 3.34500031 11.6850004 3.34500031 11.5424996 3.46500111L11.5424996 3.46500111C11.369999 3.61500072 11.3774996 3.87750052 11.5500002 4.02750112 12.0975 4.50750062 12.4499999 5.21250152 12.4499999 6.00000093 12.4499999 6.78000063 12.1049996 7.48500153 11.5649996 7.96500113 11.3924999 8.11500073 11.3924999 8.37750053 11.557499 8.52750114L11.557499 8.52750114C11.6999989 8.65500074 11.909999 8.65500074 12.0524999 8.52750114 12.7575007 7.92000013 13.2000009 7.01249983 13.2000009 6.00750063zM.480000002 3.52499871C.352500401 3.52499871.232499801 3.57749941.142500101 3.66749952.0525002002 3.75749972 0 3.87749962 0 4.00499922L0 7.99499903C0 8.25749983.217500201 8.47499854.480000002 8.47499854L2.92500021 8.47499854 2.92500021 3.52499871.480000002 3.52499871zM7.80000023.2550001C7.62749963.1800003 7.42500023.21 7.29000003.3299999L3.67500022 3.52499961 3.67500022 8.47500043 7.28250033 11.6700001C7.37250053 11.7525006 7.48500063 11.7900009 7.59749993 11.7900009 7.66500003 11.7900009 7.73250013 11.7749996 7.79250053 11.7450008 7.96500113 11.67 8.07750133 11.4975013 8.07750133 11.3100013L8.07750133.689999602C8.07750133.502499601 7.97249983.3299999 7.80000023.2550001z"/>
    </g>
  </g>
</svg>
