<svg xmlns="http://www.w3.org/2000/svg" width="24" height="24" viewBox="0 0 24 24">
  <g fill="none" fill-rule="evenodd">
    <path fill="#2D327D" d="M22.5,0 L1.5,0 C0.675000003,0 0,0.675000003 0,1.5 L0,22.5 C0,23.3250009 0.675000003,24 1.5,24 L22.5,24 C23.3250009,24 24,23.3250009 24,22.5 L24,1.5 C24,0.675000003 23.3250009,0 22.5,0 Z"/>
    <g fill="#FFF" transform="translate(2 3)">
      <path d="M9.25000004 17.415001L8.21500023 14.1150018C8.15499983 13.9275018 7.98249923 13.7999994 7.78750043 13.7999994L6.23500063 13.7999994 7.51000023 18.0000001 8.81499964 18.0000001C9.06250004 18.0000001 9.26499944 17.7974988 9.26499944 17.5499993 9.27250004 17.5049993 9.26499944 17.4599992 9.25000004 17.415001L9.25000004 17.415001 9.25000004 17.415001zM8.82250024 0L7.51750093 0 6.24250033 4.19999982 7.79500013 4.19999982C7.99000073 4.19999982 8.16250043 4.07250022 8.22249993 3.88500022L9.25750074.585000202C9.27250014.540000402 9.28000074.495000302 9.28000074.450000002 9.27250004.202499901 9.07000064 0 8.82250024 0L8.82250024 0z"/>
      <path d="M4.75000002,13.7999993 C4.30000022,12.2399999 4.07499982,10.6200008 4.07499982,9 C4.07499982,7.37999923 4.30000022,5.76000022 4.75000002,4.19999982 L4.75000002,4.19999982 L5.68750002,4.19999982 L6.96249973,0 L5.62000042,0 C4.96000002,0 4.33750062,0.292500001 3.91000032,0.794999803 L3.91000032,0.794999803 C1.96000031,3.08250001 0.887500004,5.99249942 0.887500004,9 C0.887500004,12.0075007 1.96000021,14.9174996 3.91000032,17.2124997 C4.33750012,17.7150003 4.96750072,18 5.62000042,18 L6.96249973,18 L5.68750002,13.7999993 L4.75000002,13.7999993 L4.75000002,13.7999993 Z"/>
    </g>
  </g>
</svg>
