<svg xmlns="http://www.w3.org/2000/svg" width="24" height="24" viewBox="0 0 24 24">
  <g fill="none" fill-rule="evenodd">
    <path fill="#2D327D" d="M22.5,0 L1.5,0 C0.675000003,0 0,0.675000003 0,1.5 L0,22.5 C0,23.3250009 0.675000003,24 1.5,24 L22.5,24 C23.3250009,24 24,23.3250009 24,22.5 L24,1.5 C24,0.675000003 23.3250009,0 22.5,0 Z"/>
    <g fill="#FFF" transform="translate(3 2)">
      <path d="M0.262500001,14.1849996 L0.262500001,14.1849996 C0.0825000003,14.6049996 0.00749990003,15.0699998 0,15.4674989 C0,15.864998 0,19.0000001 0,19.0000001 L7.82250023,19.0000001 C7.90500073,18.8125001 8.13749983,18.3925 8.38500023,17.852501 C8.18250083,17.9425012 7.95750043,17.9950009 7.71000003,18.0025006 C7.69500063,18.0025006 7.67250063,18.0025006 7.65750023,18.0025006 C7.35750003,18.0025006 7.05000013,17.9350014 6.76500123,17.8075009 L3.25500061,16.2100011 C2.75250101,15.977501 2.36250071,15.5800019 2.19000101,15.1150018 C2.05500081,14.7550012 2.06250091,14.3800012 2.21250101,14.057501 L3.80250072,10.6450005 L4.67250152,8.77000054 C4.83750102,8.26750093 4.69500152,7.70500093 4.29750152,7.34500033 C4.23750112,7.29250053 4.17750072,7.24750043 4.10250092,7.21750073 C3.75750062,7.07500083 3.36000061,7.23250013 3.21000101,7.57750133 L0.262500001,14.1849996 Z"/>
      <path d="M1.51749991,1.97000121 C1.0749998,1.96249961 0.715000103,1.60250091 0.722498903,1.1600017 C0.729999503,0.717502503 1.0899983,0.357500001 1.53999901,0.365001602 L3.01749801,0.365001602 C3.45999811,0.357500001 3.82749842,0.717502503 3.83499812,1.1600017 C3.84249872,1.60250091 3.48249811,1.97000121 3.03999711,1.97750091 L1.51749991,1.97750091 L1.51749991,1.97000121 L1.51749991,1.97000121 Z" transform="translate(8 17)"/>
      <path d="M1.43250081,2.00499921 C0.990000704,1.99749951 0.630001003,1.63750081 0.637499803,1.1949997 C0.645000403,0.752500503 1.0049992,0.392499902 1.45499991,0.399999602 L2.93249891,0.399999602 C3.37499901,0.392499902 3.74249932,0.752500503 3.74999902,1.1949997 C3.75749962,1.63750081 3.39749901,2.00499921 2.95499801,2.01250081 L1.43250081,2.01250081 L1.43250081,2.00499921 L1.43250081,2.00499921 Z" transform="translate(9 15)"/>
      <path d="M1.34000021,2.04749871 C0.897500104,2.03999901 0.537500402,1.68000031 0.544999202,1.23749921 C0.552499802,0.795000003 0.912498604,0.435000402 1.36249931,0.442499102 L2.83999831,0.442499102 C3.28249751,0.434999402 3.64999782,0.794999103 3.65749752,1.23749921 C3.66499912,1.68000031 3.30499661,2.04749871 2.86249741,2.05500031 L1.34000021,2.05500031 L1.34000021,2.04749871 L1.34000021,2.04749871 Z" transform="translate(10 13)"/>
      <path d="M1.24750041,2.14999961 C0.805000303,2.14249991 0.445000602,1.78250021 0.452499402,1.33250041 C0.460000002,0.890001204 0.819999703,0.530000602 1.26999951,0.537500302 L2.74749951,0.537500302 C3.18999871,0.529999702 3.55749901,0.889999304 3.56499871,1.33250041 C3.57249841,1.77499961 3.21249781,2.14250081 2.76999861,2.14999961 L1.24750041,2.14999961 Z" transform="translate(11 11)"/>
      <path fill-rule="nonzero" d="M13.5074998,5.82250022 C13.3424989,5.50000002 13.0499993,5.23000052 12.6825009,5.06499962 L9.17250064,3.46749981 C8.93250084,3.35499961 8.67000014,3.30249981 8.42250064,3.30249981 L8.37749963,3.30249981 C7.88249973,3.31749971 7.48500063,3.54249961 7.31250003,3.91749962 L2.52749971,14.2074987 C2.41500001,14.4474984 2.41500001,14.717497 2.51249981,14.994999 C2.65500021,15.3774987 2.97750001,15.699997 3.39750001,15.8949987 L6.90750023,17.4924966 C7.14750003,17.6049977 7.40999983,17.6574975 7.65750023,17.6574975 L7.70250123,17.6574975 C8.19750113,17.6424981 8.59500024,17.4174977 8.76750084,17.0424977 L13.5525017,6.75249763 C13.6875001,6.46749973 13.6724988,6.13749983 13.5074998,5.82250022 Z M6.19500063,15.7525006 C6.07499983,16.0000001 5.77499962,16.1050015 5.52000052,15.977501 C5.26500132,15.8575002 5.15999992,15.5575009 5.28000072,15.3100015 C5.40000152,15.0625021 5.70000082,14.9575006 5.95500092,15.0775014 C6.21000003,15.205 6.31499963,15.5049993 6.19500063,15.7525006 Z M8.57250024,15.3400003 L3.95250082,13.2625009 L7.97250173,4.54000102 L12.5925017,6.61750043 L8.57250024,15.3400003 Z"/>
      <path d="M1.95750001,1.66750001 L1.49250031,1.66750001 C1.48500011,1.55500001 1.44000051,1.47250031 1.37250041,1.41249991 C1.3050003,1.35249971 1.1999998,1.32250021 1.0650005,1.32250021 C0.952500303,1.32250021 0.862500603,1.34500051 0.795000503,1.39000031 C0.727500402,1.43500011 0.697500202,1.50250031 0.697500202,1.58500021 C0.697500202,1.66000021 0.727500402,1.71250001 0.787499903,1.74250001 C0.847500303,1.77250031 0.997500204,1.82500001 1.2375002,1.87750031 C1.49250031,1.93750051 1.67250011,2.00500011 1.77000001,2.07250021 C1.94999981,2.19250011 2.04000001,2.35750051 2.04000001,2.56750011 C2.04000001,2.80000021 1.94999981,2.98750021 1.76249981,3.11500021 C1.60500001,3.23500011 1.38000011,3.29500061 1.1100001,3.29500061 C0.802500203,3.29500061 0.570000402,3.22750051 0.397500201,3.08500011 C0.2249998,2.94250021 0.1425001,2.74750051 0.1350002,2.49250041 L0.622500202,2.49250041 C0.630000102,2.61999991 0.660000302,2.71000001 0.720000502,2.77000001 C0.810000203,2.86750031 0.945000403,2.91249991 1.1250005,2.91249991 C1.2450004,2.91249991 1.34250071,2.88999991 1.41750051,2.83750011 C1.50000051,2.78500031 1.53750041,2.71000001 1.53750041,2.61250021 C1.53750041,2.51499991 1.47750051,2.44750021 1.36500031,2.40249971 C1.3050004,2.37999971 1.1550003,2.33499961 0.922500203,2.26749951 C0.780000203,2.22999951 0.660000302,2.19249961 0.577500302,2.15499971 C0.495000302,2.11749931 0.427500201,2.07999941 0.382500401,2.03499981 C0.270000401,1.92999951 0.2100003,1.78749941 0.2100003,1.60749981 C0.2100003,1.38999981 0.300000001,1.21750021 0.480000001,1.0974996 C0.630000102,0.992499604 0.832500003,0.932499904 1.0725002,0.932499904 C1.2900004,0.932499904 1.46250011,0.977499704 1.61250021,1.0599997 C1.83750011,1.1949999 1.94999981,1.38999991 1.95750001,1.66750001 Z"/>
      <path fill-rule="nonzero" d="M3.36750031,0.947500204 C3.66749952,0.947500204 3.91500002,1.0450005 4.11749932,1.24000021 C4.34249972,1.45750041 4.45499942,1.75000041 4.45499942,2.12500041 C4.45499942,2.4475002 4.37249892,2.71000091 4.19999982,2.92000051 C3.98999982,3.17500061 3.71250012,3.30250021 3.35250001,3.30250021 C2.98499971,3.30250021 2.69999981,3.17500061 2.48999981,2.91250031 C2.32499981,2.70250031 2.24249941,2.4475002 2.24249941,2.13250061 C2.24249941,1.75750041 2.34749991,1.46500031 2.56499961,1.26250051 C2.77500011,1.0524998 3.04500011,0.947500204 3.36750031,0.947500204 Z M3.34499981,1.35249971 C3.16500001,1.35249971 3.02249961,1.41999981 2.90999991,1.55499961 C2.79749971,1.68999981 2.73749921,1.87749981 2.73749921,2.11749941 C2.73749921,2.35749901 2.78999901,2.55249981 2.90249921,2.68749961 C2.95499901,2.75499961 3.02249911,2.79999921 3.09749891,2.83749961 C3.17249921,2.87499951 3.26249891,2.88999941 3.35249901,2.88999941 C3.53249931,2.88999941 3.67499882,2.82999901 3.77999972,2.70249941 C3.90000012,2.55999901 3.95999912,2.36499931 3.95999912,2.11749891 C3.95999912,1.88499911 3.90749932,1.69749911 3.79499912,1.56249881 C3.68999962,1.42749981 3.53249981,1.35249971 3.34499981,1.35249971 Z"/>
      <path d="M6.45750053,1.66750001 L5.99250032,1.66750001 C5.98500062,1.55500001 5.94000052,1.47250031 5.87250042,1.41249991 C5.79750062,1.35249971 5.69999982,1.32250021 5.56499962,1.32250021 C5.45249942,1.32250021 5.36250022,1.34500051 5.29499912,1.39000031 C5.22750002,1.43500021 5.19749932,1.50250031 5.19749932,1.58500031 C5.19749932,1.66000031 5.22749902,1.71250011 5.28749852,1.74250011 C5.34749892,1.77250031 5.49749952,1.82500011 5.73749932,1.87750031 C5.99249852,1.93750051 6.17249883,2.00500011 6.26999963,2.07250021 C6.44999893,2.19250011 6.54000003,2.35750061 6.54000003,2.56750011 C6.54000003,2.80000021 6.44999983,2.98750021 6.26999953,3.11500021 C6.11249923,3.23500011 5.88749892,3.29500061 5.61749942,3.29500061 C5.30999952,3.29500061 5.07749942,3.22750051 4.90499982,3.08500011 C4.73249912,2.94250011 4.65000012,2.74750041 4.64249942,2.49250031 L5.12999912,2.49250031 C5.13749982,2.61999991 5.16749952,2.71000001 5.22750002,2.77000001 C5.31749922,2.86750031 5.45249942,2.91249991 5.63249972,2.91249991 C5.75249962,2.91249991 5.84999852,2.88999991 5.92499922,2.83750011 C6.00749973,2.78500031 6.04499913,2.71000001 6.04499913,2.61250021 C6.04499913,2.51499991 5.98499872,2.44750021 5.87249942,2.40249971 C5.81249902,2.37999971 5.66249842,2.33499961 5.42999932,2.26749951 C5.28750032,2.22999961 5.16749952,2.19249971 5.08499902,2.15499981 C5.00249862,2.11749941 4.93499902,2.07999941 4.88999842,2.03499981 C4.77749872,1.92999951 4.71749832,1.78749941 4.71749832,1.60749981 C4.71749832,1.38999981 4.80749802,1.21750021 4.98749882,1.0974996 C5.13749892,0.992499604 5.33999832,0.932499904 5.57999812,0.932499904 C5.79749782,0.932499904 5.96999842,0.977499704 6.11999813,1.0599997 C6.33749963,1.1949999 6.44999983,1.38999991 6.45750053,1.66750001 Z"/>
    </g>
  </g>
</svg>
