<svg xmlns="http://www.w3.org/2000/svg" width="24" height="24" viewBox="0 0 24 24">
  <g fill="none" fill-rule="evenodd">
    <path fill="#2D327D" d="M22.5,0 L1.5,0 C0.675000003,0 0,0.675000003 0,1.5 L0,22.5 C0,23.3250009 0.675000003,24 1.5,24 L22.5,24 C23.3250009,24 24,23.3250009 24,22.5 L24,1.5 C24,0.675000003 23.3250009,0 22.5,0 Z"/>
    <path fill="#FFF" d="M1.1875 17.1875001L18.8125001 17.1875001C18.9174996 17.1875001 19 17.1049996 19 17.0000001 19 16.8950006 18.9174996 16.8125001 18.8125001 16.8125001L1.1875 16.8125001C1.0825 16.8125001 1 16.8950006 1 17.0000001 1 17.1049996 1.0825 17.1875001 1.1875 17.1875001zM.880000104 4.80499942C1.1800001 4.62500002 1.50250031 4.48999982 1.83250001 4.40749942 2.51499991 4.23499882 3.22750001 4.26499952 3.89500002 4.49749962L9.39249994 6.49999923 16.3900014.784999003 17.8450013 1.1899992 14.2525006 8.26999963 16.7950001 9.19249934 18.5499993 7.00999943 19.6224995 7.45999923 18.0625 11.1874992 12.7075005 11.1874992 2.11000011 7.33250053C1.59250021 7.14500053 1.1200003 6.86000073.715000403 6.49250033L.715000403 6.49250033C.557500402 6.35000133.452500402 6.17000013.400000602 5.96750072.287499901 5.51749992.482499802 5.04500012.880000104 4.80499942z" transform="translate(2 4)"/>
  </g>
</svg>
