<svg xmlns="http://www.w3.org/2000/svg" width="24" height="24" viewBox="0 0 24 24">
  <g fill="none" fill-rule="evenodd">
    <path fill="#2D327D" d="M22.5,0 L1.5,0 C0.675000003,0 0,0.675000003 0,1.5 L0,22.5 C0,23.3250009 0.675000003,24 1.5,24 L22.5,24 C23.3250009,24 24,23.3250009 24,22.5 L24,1.5 C24,0.675000003 23.3250009,0 22.5,0 Z"/>
    <path fill="#FFF" d="M18.8125001 17.1875001L1.1875 17.1875001C1.0825 17.1875001 1 17.1049996 1 17.0000001 1 16.8950006 1.0825 16.8125001 1.1875 16.8125001L18.8125001 16.8125001C18.9174996 16.8125001 19 16.8950006 19 17.0000001 19 17.1049996 18.9174996 17.1875001 18.8125001 17.1875001zM19.1200009 4.80499942C18.8199998 4.62500002 18.4975014 4.48999982 18.1674996 4.40749942 17.4849988 4.23499882 16.7724991 4.26499952 16.1049996 4.49749962L10.6075001 6.50000003 3.61000012.785000303 2.15500021 1.1900005 5.74750042 8.27000043 3.19750021 9.19999984 1.44250011 7.01749993.369999902 7.46749973 1.92999961 11.1949997 7.28499913 11.1949997 17.8899997 7.33249953C18.4074977 7.14499953 18.8799995 6.85999873 19.2850002 6.49249933L19.2850002 6.49249933C19.4424995 6.35000033 19.5474991 6.16999913 19.6000007 5.96749972 19.7124997 5.51749992 19.5175 5.04500012 19.1200009 4.80499942z" transform="translate(2 4)"/>
  </g>
</svg>
