<svg xmlns="http://www.w3.org/2000/svg" width="24" height="24" viewBox="0 0 24 24">
  <g fill="none" fill-rule="evenodd">
    <path fill="#2D327D" d="M22.5,0 L1.5,0 C0.675000003,0 0,0.675000003 0,1.5 L0,22.5 C0,23.3250009 0.675000003,24 1.5,24 L22.5,24 C23.3250009,24 24,23.3250009 24,22.5 L24,1.5 C24,0.675000003 23.3250009,0 22.5,0 Z"/>
    <g fill="#FFF" transform="translate(2 2)">
      <path d="M1.23249981 19.1875001L18.8574999 19.1875001C18.9624994 19.1875001 19.0449998 19.1049996 19.0449998 19.0000001 19.0449998 18.8950006 18.9624994 18.8125001 18.8574999 18.8125001L1.23249981 18.8125001C1.1274995 18.8125001 1.0449998 18.8950006 1.0449998 19.0000001 1.0449998 19.1049996 1.1274998 19.1875001 1.23249981 19.1875001zM1.0225003 11.875C1.1875 11.5749998 1.40500021 11.2975006 1.65250041 11.0500002 2.15500021 10.5625 2.79250001 10.2325001 3.48250061 10.0974998L9.24250034 9.08500004 12.580001 1.37500001 14.0425016.992500104 14.3425027 8.17750053 17.0125028 7.70500073 17.5750028 5.68000062 18.7300016 5.53000052 19.1200029 8.82250104 14.477503 11.4775007 3.34749991 13.4499997C2.80749991 13.5475005 2.25250011 13.5325002 1.72000011 13.42L1.72000011 13.42C1.51750021 13.3749999 1.33000021 13.2700004 1.1875001 13.1275005.864999804 12.7900001.797500103 12.2799998 1.0225003 11.875z"/>
      <circle cx="4.143" cy="14.177" r="1"/>
      <circle cx="10.517" cy="13.008" r="1"/>
      <circle cx="12.085" cy="12.738" r="1"/>
    </g>
  </g>
</svg>
