<svg xmlns="http://www.w3.org/2000/svg" width="24" height="24" viewBox="0 0 24 24">
  <g fill="none" fill-rule="evenodd">
    <path fill="#2D327D" d="M22.5,0 L1.5,0 C0.675000003,0 0,0.675000003 0,1.5 L0,22.5 C0,23.3250009 0.675000003,24 1.5,24 L22.5,24 C23.3250009,24 24,23.3250009 24,22.5 L24,1.5 C24,0.675000003 23.3250009,0 22.5,0 Z"/>
    <g fill="#FFF" transform="translate(2 3)">
      <path d="M18.7675 18.1875001L1.1424999 18.1875001C1.0374999 18.1875001.954999904 18.1049996.954999904 18.0000001.954999904 17.8950006 1.0374999 17.8125001 1.1424999 17.8125001L18.7675 17.8125001C18.8724995 17.8125001 18.9549999 17.8950006 18.9549999 18.0000001 18.9549999 18.1049996 18.8724996 18.1875001 18.7675 18.1875001zM18.977501 10.875C18.8125001 10.5749998 18.5950013 10.2975006 18.3475018 10.0500002 17.8450013 9.56250004 17.2075005 9.23250014 16.5175019 9.09749994L10.7575016 8.08500003 7.42749983.382499902 5.95750052 0 5.65750032 7.18500043 2.98750071 6.71249963 2.42500071 4.68750002 1.27000051 4.53749992.880000604 7.82999993 5.52250152 10.4849987 16.6525008 12.4499999C17.1925017 12.5475007 17.747502 12.5325004 18.2800032 12.4200002L18.2800032 12.4200002C18.4825026 12.3750001 18.6700026 12.2700006 18.8125025 12.1275007 19.1349984 11.79 19.2025014 11.2799997 18.977501 10.875z"/>
      <circle cx="15.858" cy="13.177" r="1"/>
      <circle cx="9.483" cy="12.015" r="1"/>
      <circle cx="7.915" cy="11.738" r="1"/>
    </g>
  </g>
</svg>
