<svg xmlns="http://www.w3.org/2000/svg" width="24" height="24" viewBox="0 0 24 24">
  <g fill="none" fill-rule="evenodd">
    <path fill="#2D327D" d="M22.5,0 L1.5,0 C0.675000003,0 0,0.675000003 0,1.5 L0,22.5 C0,23.3250009 0.675000003,24 1.5,24 L22.5,24 C23.3250009,24 24,23.3250009 24,22.5 L24,1.5 C24,0.675000003 23.3250009,0 22.5,0 Z"/>
    <g fill="#FFF" transform="translate(3 5)">
      <path d="M0.262500001,11.1849995 L0.262500001,11.1849995 C0.0825000003,11.6049995 0.00749990003,12.0699998 0,12.4674989 C0,12.864998 0,16.0000001 0,16.0000001 L7.82250023,16.0000001 C7.90500073,15.8125001 8.13749983,15.3925 8.38500023,14.852501 C8.18250083,14.9425012 7.95750043,14.9950009 7.71000003,15.0025006 C7.69500063,15.0025006 7.67250063,15.0025006 7.65750023,15.0025006 C7.35750003,15.0025006 7.05000013,14.9350014 6.76500123,14.8075009 L3.25500061,13.2100011 C2.75250101,12.977501 2.36250071,12.5800019 2.19000101,12.1150018 C2.05500081,11.7550011 2.06250091,11.3800011 2.21250101,11.0575009 L3.80250072,7.64500053 L4.67250152,5.77000052 C4.83750102,5.26750092 4.69500152,4.70500092 4.29750152,4.34500032 C4.23750112,4.29250052 4.17750072,4.24750042 4.10250092,4.21750072 C3.75750062,4.07500082 3.36000061,4.23250012 3.21000101,4.57750132 L0.262500001,11.1849995 Z"/>
      <path d="M1.51749991,1.97000121 C1.0749998,1.96249961 0.715000103,1.60250091 0.722498903,1.1600017 C0.729999503,0.717502503 1.0899983,0.357500001 1.53999901,0.365001602 L3.01749801,0.365001602 C3.45999811,0.357500001 3.82749842,0.717502503 3.83499812,1.1600017 C3.84249872,1.60250091 3.48249811,1.97000121 3.03999711,1.97750091 L1.51749991,1.97750091 L1.51749991,1.97000121 L1.51749991,1.97000121 Z" transform="translate(8 14)"/>
      <path d="M1.43250081,2.00499921 C0.990000704,1.99749951 0.630001003,1.63750081 0.637499803,1.1949997 C0.645000403,0.752500503 1.0049992,0.392499902 1.45499991,0.399999602 L2.93249891,0.399999602 C3.37499901,0.392499902 3.74249932,0.752500503 3.74999902,1.1949997 C3.75749962,1.63750081 3.39749901,2.00499921 2.95499801,2.01250081 L1.43250081,2.01250081 L1.43250081,2.00499921 L1.43250081,2.00499921 Z" transform="translate(9 12)"/>
      <path d="M1.34000021,2.04749871 C0.897500104,2.03999901 0.537500402,1.68000031 0.544999202,1.23749921 C0.552499802,0.795000003 0.912498604,0.435000402 1.36249931,0.442499102 L2.83999831,0.442499102 C3.28249751,0.434999402 3.64999782,0.794999103 3.65749752,1.23749921 C3.66499912,1.68000031 3.30499661,2.04749871 2.86249741,2.05500031 L1.34000021,2.05500031 L1.34000021,2.04749871 L1.34000021,2.04749871 Z" transform="translate(10 10)"/>
      <path d="M1.24750041,2.14999961 C0.805000303,2.14249991 0.445000602,1.78250021 0.452499402,1.33250041 C0.460000002,0.890001204 0.819999703,0.530000602 1.26999951,0.537500302 L2.74749951,0.537500302 C3.18999871,0.529999702 3.55749901,0.889999304 3.56499871,1.33250041 C3.57249841,1.77499961 3.21249781,2.14250081 2.76999861,2.14999961 L1.24750041,2.14999961 Z" transform="translate(11 8)"/>
      <path fill-rule="nonzero" d="M13.5074998,2.82250021 C13.3424989,2.50000001 13.0499993,2.23000051 12.6825009,2.06499961 L9.17250064,0.467499802 C8.93250084,0.354999601 8.67000014,0.302499801 8.42250064,0.302499801 L8.37749963,0.302499801 C7.88249973,0.317499701 7.48500063,0.542499602 7.31250003,0.917499604 L2.52749971,11.2074986 C2.41500001,11.4474983 2.41500001,11.7174969 2.51249981,11.9949989 C2.65500021,12.3774987 2.97750001,12.699997 3.39750001,12.8949987 L6.90750023,14.4924966 C7.14750003,14.6049977 7.40999983,14.6574975 7.65750023,14.6574975 L7.70250123,14.6574975 C8.19750113,14.6424981 8.59500024,14.4174977 8.76750084,14.0424977 L13.5525017,3.75249762 C13.6875001,3.46749971 13.6724988,3.13749981 13.5074998,2.82250021 Z M6.19500063,12.7525006 C6.07499983,13.0000001 5.77499962,13.1050015 5.52000052,12.977501 C5.26500132,12.8575002 5.15999992,12.5575009 5.28000072,12.3100015 C5.40000152,12.0625021 5.70000082,11.9575005 5.95500092,12.0775014 C6.21000003,12.205 6.31499963,12.5049993 6.19500063,12.7525006 Z M8.57250024,12.3400003 L3.95250082,10.2625008 L7.97250173,1.54000101 L12.5925017,3.61750042 L8.57250024,12.3400003 Z"/>
    </g>
  </g>
</svg>
