<svg xmlns="http://www.w3.org/2000/svg" width="24" height="24" viewBox="0 0 24 24">
  <g fill="none" fill-rule="evenodd">
    <path fill="#2D327D" d="M22.5,0 L1.5,0 C0.675000003,0 0,0.675000003 0,1.5 L0,22.5 C0,23.3250009 0.675000003,24 1.5,24 L22.5,24 C23.3250009,24 24,23.3250009 24,22.5 L24,1.5 C24,0.675000003 23.3250009,0 22.5,0 Z"/>
    <g fill="#FFF" transform="translate(3 2)">
      <path fill-rule="nonzero" d="M11.8424997 18.9925004L17.3624993 18.9925004C17.7150003 18.9925004 18.0000001 18.7075006 18.0000001 18.3549996L18.0000001 15.1299992C18.0000001 14.7774983 17.7150003 14.4925003 17.3624993 14.4925003L15.6224995 14.4925003 15.6224995 14.2149982C15.6224995 13.9224987 15.3824978 13.6824979 15.0899983 13.6824979L14.1149979 13.6824979C13.8224984 13.6824979 13.5824986 13.9224977 13.5824986 14.2149982L13.5824986 14.4925003 11.8424987 14.4925003C11.4899987 14.4925003 11.2049979 14.7774982 11.2049979 15.1299992L11.2049979 18.3549996C11.2049979 18.7075006 11.4899998 18.9925004 11.8424997 18.9925004L11.8424997 18.9925004zM13.9650003 14.0650006L15.2400018 14.0650006 15.2400018 14.4925004 13.9650003 14.4925004 13.9650003 14.0650006 13.9650003 14.0650006zM10.7549992 8.13999943C10.7549992 8.79249964 11.2875004 9.32499984 11.9399996 9.32499984 12.5924999 9.32499984 13.1250001 8.79249954 13.1250001 8.13999943 13.1250001 7.48750023 12.5924998 6.95499993 11.9399996 6.95499993 11.2875004 6.95499993 10.7549992 7.48750023 10.7549992 8.13999943L10.7549992 8.13999943zM11.0924997 8.13999943C11.0924997 7.67500023 11.4750003 7.29249963 11.9399995 7.29249963 12.4049998 7.29249963 12.7875004 7.67500023 12.7875004 8.13999943 12.7875004 8.60499964 12.4049998 8.98750024 11.9399995 8.98750024 11.4750004 8.98750024 11.0924997 8.60499954 11.0924997 8.13999943L11.0924997 8.13999943zM13.7999993 8.13999943C13.7999993 8.79249964 14.3325005 9.32499984 14.9849988 9.32499984 15.6374971 9.32499984 16.1699983 8.79249954 16.1699983 8.13999943 16.1699983 7.48750023 15.6374971 6.95499993 14.9849988 6.95499993 14.3325005 6.95499993 13.7999993 7.48750023 13.7999993 8.13999943L13.7999993 8.13999943zM14.1450006 8.13999943C14.1450006 7.67500023 14.5275003 7.29249963 14.9925004 7.29249963 15.4575005 7.29249963 15.8399983 7.67500023 15.8399983 8.13999943 15.8399983 8.60499964 15.4574986 8.98750024 14.9925004 8.98750024 14.5200006 8.98750024 14.1450006 8.60499954 14.1450006 8.13999943L14.1450006 8.13999943z"/>
      <path d="M10.1025 4.08250002C10.2074995 5.04249962 10.5974999 5.92000062 11.182499 6.62500003L15.7649996 6.62500003C16.3574984 5.92000062 16.7474997 5.05000022 16.8449976 4.08250002L10.1025 4.08250002 10.1025 4.08250002zM13.0275003 3.74500042C13.2150003 3.74500042 13.2900011 3.60999972 13.2000009 3.45249991L11.7749997.992500104C10.8149997 1.54750021 10.1549998 2.56750011 10.0950003 3.74500042L13.0275003 3.74500042 13.0275003 3.74500042zM17.8650018 3.61000012L15.8325006 3.61000012 15.8325006 3.88000012 17.8650018 3.88000012C17.9400006 3.88000012 18.0000001 3.81999972 18.0000001 3.74500011 18.0000001 3.67000012 17.9400006 3.61000012 17.8650018 3.61000012L17.8650018 3.61000012zM2.48250011 3.79000002L2.47499991 1.38999991C2.47499991 1.1649998 2.32499981.984999704 2.14500001.984999704L.344999801.984999704C.164999701.984999704.0149999 1.1649998.0149999 1.38999991L.0149999 5.13999992C.0149999 5.13999992-5.97291053e-11 5.27500012.1125 5.76249982.232499801 6.25000003 2.59499981 14.7099992 2.59499981 14.7099992 2.59499981 14.7099992 2.80500031 15.557499 3.20999961 15.5724984 3.61499982 15.5874997 4.85250002 15.5724984 4.85250002 15.5724984L1.67249971 5.94249962C1.67249971 5.94249962 1.33499961 5.14749902 1.46249971 4.93750002 1.58999931 4.72750002 2.30999951 4.06000042 2.30999951 4.06000042 2.30999951 4.06000042 2.48250011 3.91000032 2.48250011 3.79000002z"/>
      <path d="M6.37500003 14.6800004C6.53250033 14.5450002 6.43500043 14.0949994 6.43500043 14.0949994L5.96249962 9.75249864C5.94750022 9.52749824 5.78250022 9.35499864 5.60249992 9.36999804L4.33500002 9.46749884C4.15500062 9.48249824 4.02000042 9.67749884 4.03500032 9.90249834L4.43999962 13.1424982C4.43999962 13.1424982 4.96499972 14.8149988 5.16749962 15.4074976 5.15999982 15.415001 6.21000003 14.8224984 6.37500003 14.6800004zM4.58999972 18.6250001C4.58999972 18.8275014 4.47750002 18.9925004 4.34249982 18.9925004L3.23249911 18.9925004C3.09749891 18.9925004 2.98499921 18.8274995 2.98499921 18.6250001L2.98499921 16.3224984C2.98499921 16.119999 3.09749891 15.955 3.23249911 15.955L4.34249972 15.955C4.47749992 15.955 4.58999972 16.1200009 4.58999972 16.3224984L4.58999972 18.6250001 4.58999972 18.6250001zM8.03250033 9.46749974L8.70750054 9.46749974C8.64750014 7.65250013 7.19999993 6.18999953 5.39250092 6.11499973L5.39250092 6.11499973 5.28750132 6.11499973C5.27250102 6.11499973 5.25750162 6.11499973 5.24250032 6.11499973L5.24250032 6.11499973 4.64250092 6.11499973C4.63500032 6.11499973 4.63500032 6.10749913 4.62750102 6.10749913L5.39250092 5.34999902 4.51500082 5.34999902 3.42750071 6.43749903 4.51500082 7.52499863 5.39250092 7.52499863 4.65000102 6.78999903 5.24250032 6.78999903 5.24250032 6.78999903C6.74249943 6.78250033 7.97249983 7.97500043 8.03250033 9.46749974z"/>
    </g>
  </g>
</svg>
