<?xml version="1.0" encoding="utf-8"?>
<!-- Generator: Adobe Illustrator 24.2.0, SVG Export Plug-In . SVG Version: 6.00 Build 0)  -->
<svg version="1.0" id="Ebene_3" xmlns="http://www.w3.org/2000/svg" xmlns:xlink="http://www.w3.org/1999/xlink" x="0px" y="0px"
	 viewBox="0 0 400 399.998" enable-background="new 0 0 400 399.998" xml:space="preserve">
<rect id="background-green" fill="#237F52" width="400" height="400"/>
<g id="content">
	<path id="frameWhite" fill="#FFFFFF" d="M340,40c11,0,20,9,20,20v280c0,11-9,20-20,20H60c-11,0-20-9-20-20V60c0-11,9-20,20-20H340
		 M340,35H60c-13.785,0-25,11.215-25,25v280c0,13.785,11.215,25,25,25h280c13.785,0,25-11.215,25-25V60
		C365,46.215,353.785,35,340,35L340,35z"/>
	<path fill="#FFFFFF" d="M152.279,80.26l-16.427,5.04l0.136,57.699l19.475-5.971c2.462-0.775,4.147-3.017,4.179-5.614l0.263-45.454
		c0.02-0.618-0.061-1.183-0.24-1.749C158.7,81.067,155.4,79.307,152.279,80.26"/>
	<path fill="#FFFFFF" d="M199.063,258.039c-1.477-2.106-4.138-3.048-6.579-2.294l-19.494,5.961l32.231,47.84l16.429-5.048
		c3.121-0.944,4.858-4.274,3.916-7.376c-0.17-0.585-0.419-1.11-0.784-1.631L199.063,258.039z"/>
	<path fill="#FFFFFF" d="M154.331,269.333c-11.639-17.899-20.732-37.322-26.974-57.717c-6.264-20.397-9.628-41.59-10.026-62.887
		l11.754-3.615l-0.147-57.688l-16.825,5.143c-8.294,2.567-15.041,8.622-18.477,16.573c-15.67,36.287-17.912,76.975-6.305,114.749
		c11.607,37.786,36.246,70.209,69.589,91.483c7.279,4.652,16.29,5.866,24.564,3.322l16.823-5.155l-32.222-47.821L154.331,269.333z"
		/>
	<path fill="#FFFFFF" d="M254.128,100.975c0-7.888,2.987-14.35,10.682-14.35c5.22,0,10.706,4.198,10.706,14.35
		c0,7.632-3.477,14-10.706,14C256.87,114.975,254.128,107.639,254.128,100.975 M246.613,100.921c0,11.502,6.76,20.473,18.263,20.473
		c10.162,0,18.177-7.76,18.177-20.42c0-11.82-6.995-20.973-18.242-20.973C254.585,80.001,246.613,87.921,246.613,100.921"/>
	<path fill="#FFFFFF" d="M209.726,107.906c0,3.922,2.849,13.5,16.859,13.5c13.309,0,15.989-7.877,15.989-12.799
		c0-6.58-4.592-10.237-10.078-11.129c-1.233-0.223-4.486-0.691-5.708-0.883c-4.262-0.648-8.218-0.744-8.218-4.613
		c0-3.562,3.317-5.454,7.57-5.454c4.06,0,8.184,1.562,8.471,6.357h7.696c-0.223-4.029-3.093-12.788-16.147-12.788
		c-8.227,0-14.989,4.273-14.989,12.554c0,8.727,8.089,10.449,13.65,11.151c1.222,0.149,3.901,0.532,4.613,0.648
		c3.348,0.532,5.486,2.116,5.486,4.943c0,3.805-4.306,5.56-8.048,5.56c-4.708,0-9.322-1.924-9.322-7.048H209.726z"/>
	<path fill="#FFFFFF" d="M287.197,107.906c0,3.922,2.827,13.5,16.838,13.5c13.298,0,15.966-7.877,15.966-12.799
		c0-6.58-4.572-10.237-10.056-11.129c-1.233-0.223-4.486-0.691-5.71-0.883c-4.261-0.648-8.216-0.744-8.216-4.613
		c0-3.562,3.328-5.454,7.568-5.454c4.061,0,8.186,1.562,8.473,6.357h7.685c-0.235-4.029-3.082-12.788-16.136-12.788
		c-8.227,0-14.989,4.273-14.989,12.554c0,8.727,8.1,10.449,13.648,11.151c1.212,0.149,3.901,0.532,4.615,0.648
		c3.348,0.532,5.475,2.116,5.475,4.943c0,3.805-4.285,5.56-8.037,5.56c-4.678,0-9.322-1.924-9.322-7.048H287.197z"/>
</g>
</svg>
