<?xml version="1.0" encoding="utf-8"?>
<!-- Generator: Adobe Illustrator 24.2.0, SVG Export Plug-In . SVG Version: 6.00 Build 0)  -->
<svg version="1.0" id="Ebene_1" xmlns="http://www.w3.org/2000/svg" xmlns:xlink="http://www.w3.org/1999/xlink" x="0px" y="0px"
	 viewBox="0 0 400 399.998" enable-background="new 0 0 400 399.998" xml:space="preserve">
<rect id="background-green" fill="#237F52" width="400" height="400"/>
<g id="content">
	<path id="frameWhite" fill="#FFFFFF" d="M340,40c11,0,20,9,20,20v280c0,11-9,20-20,20H60c-11,0-20-9-20-20V60c0-11,9-20,20-20H340
		 M340,35H60c-13.785,0-25,11.215-25,25v280c0,13.785,11.215,25,25,25h280c13.785,0,25-11.215,25-25V60
		C365,46.215,353.785,35,340,35L340,35z"/>
	<path fill="#FFFFFF" d="M94.204,80.002v223.425L110.837,320h50.544l-7.33-7.814c-3.427-3.68-1.773-8.052,3.702-9.773
		c5.49-1.732,12.715-0.145,16.145,3.512L187.102,320h80.302l-16.529-16.574v-58.205l41.11,0.019
		c7.639-0.022,13.814-6.186,13.814-13.821c0-7.609-6.175-13.795-13.814-13.795h-41.11V80.002H94.204z M136.093,119.506
		c0,9.939-8.063,18.001-17.989,18.001c-9.948,0-18.011-8.063-18.011-18.001c0-9.949,8.063-18,18.011-18
		C128.029,101.506,136.093,109.557,136.093,119.506z M97.593,192.174c0-3.835,3.099-6.924,6.935-6.924h26.309v-32.323
		c0-12.737,10.335-23.089,23.103-23.089h32.268c2.447,0,4.808,0.984,6.529,2.715l27.244,27.235c1.214,1.202,1.896,2.839,1.896,4.57
		c0,3.555-2.898,6.455-6.466,6.455c-1.721,0-3.356-0.673-4.581-1.886l-25.687-25.71h-18.291l78.965,78.975h46.175
		c5.102,0,9.225,4.127,9.225,9.244c0,5.088-4.123,9.222-9.225,9.222h-51.315c-2.447,0-4.79-0.95-6.521-2.693l-36.682-36.682
		l-34.771,34.753v50.79c0,5.099-4.142,9.244-9.24,9.244c-5.099,0-9.225-4.145-9.225-9.244v-55.907c0-2.466,0.953-4.797,2.696-6.551
		l27.669-27.668l-30.365-30.383v25.857c0,3.833-3.106,6.932-6.931,6.932h-32.779C100.692,199.106,97.593,196.008,97.593,192.174z"/>
</g>
</svg>
