<?xml version="1.0" encoding="utf-8"?>
<!-- Generator: Adobe Illustrator 24.2.0, SVG Export Plug-In . SVG Version: 6.00 Build 0)  -->
<svg version="1.0" id="Ebene_3" xmlns="http://www.w3.org/2000/svg" xmlns:xlink="http://www.w3.org/1999/xlink" x="0px" y="0px"
	 viewBox="0 0 400 399.998" enable-background="new 0 0 400 399.998" xml:space="preserve">
<rect id="background-green" fill="#237F52" width="400" height="400"/>
<g id="content">
	<path id="frameWhite" fill="#FFFFFF" d="M340,40c11,0,20,9,20,20v280c0,11-9,20-20,20H60c-11,0-20-9-20-20V60c0-11,9-20,20-20H340
		 M340,35H60c-13.785,0-25,11.215-25,25v280c0,13.785,11.215,25,25,25h280c13.785,0,25-11.215,25-25V60
		C365,46.215,353.785,35,340,35L340,35z"/>
	<polygon fill="#FFFFFF" points="319.984,107.514 292.47,107.514 292.47,80 263.803,80 263.803,107.514 236.289,107.514 
		236.289,136.18 263.803,136.18 263.803,163.694 292.47,163.694 292.47,136.18 319.984,136.18 	"/>
	<path fill="#FFFFFF" d="M213.058,155.112c-32.299-2.975-43.35,25.285-43.35,25.285h-0.005c0,0-11.046-28.26-43.345-25.285
		c-32.298,2.975-52.114,31.075-44.837,65.658c2.334,11.086,12.203,30.641,28.104,49.086c19.685,22.833,47.15,44.271,60.078,50.146
		h0.005c12.93-5.875,40.396-27.313,60.083-50.146c15.896-18.445,25.767-38,28.101-49.086
		C265.17,186.187,245.354,158.087,213.058,155.112z M151.086,284.842l16.94-41.546h-25.007l47.739-53.242l-19.772,41.949h25.412
		L151.086,284.842z"/>
</g>
</svg>
