<?xml version="1.0" encoding="utf-8"?>
<!-- Generator: Adobe Illustrator 24.2.0, SVG Export Plug-In . SVG Version: 6.00 Build 0)  -->
<svg version="1.0" id="Ebene_3" xmlns="http://www.w3.org/2000/svg" xmlns:xlink="http://www.w3.org/1999/xlink" x="0px" y="0px"
	 viewBox="0 0 400 399.998" enable-background="new 0 0 400 399.998" xml:space="preserve">
<rect id="background-green" fill="#237F52" width="400" height="400"/>
<g id="content">
	<path id="frameWhite" fill="#FFFFFF" d="M340,40c11,0,20,9,20,20v280c0,11-9,20-20,20H60c-11,0-20-9-20-20V60c0-11,9-20,20-20H340
		 M340,35H60c-13.785,0-25,11.215-25,25v280c0,13.785,11.215,25,25,25h280c13.785,0,25-11.215,25-25V60
		C365,46.215,353.785,35,340,35L340,35z"/>
	<path fill="#FFFFFF" d="M122.446,116.009l-0.104-34.852l70.354,0.06l0.816,20.308l12.752,14.219L122.446,116.009z"/>
	<path fill="#FFFFFF" d="M157.592,168.398c-34.483,0-35.146-44.711-35.147-45.161l-0.007-0.946l71.388-0.27l-0.03,0.975
		C193.78,123.449,192.043,168.398,157.592,168.398z"/>
	<path fill="#FFFFFF" d="M201.162,319.783H115.34V175.466h70.041c0.067-0.016,0.16-0.027,0.257-0.027h118.94
		c8.428,0,15.281,6.87,15.281,15.312c0,8.437-6.853,15.299-15.281,15.299H201.162V319.783z"/>
	<path fill="#FFFFFF" d="M108.239,319.783H79.934V211.268c0-29.495,26.913-35.157,27.185-35.211l1.128-0.223L108.239,319.783z"/>
	<path fill="#FFFFFF" d="M233.311,146.295l-5.145-3.16l1.13-1.653c3.834-5.607,5.862-12.116,5.862-18.823
		c0-6.847-2.106-13.468-6.09-19.15l-1.151-1.64l5.104-3.219l1.043,1.486c4.685,6.678,7.16,14.466,7.16,22.523
		c0,7.896-2.382,15.551-6.89,22.139L233.311,146.295z"/>
	<path fill="#FFFFFF" d="M245.39,152.702l-4.914-3.492l1.242-1.575c5.797-7.346,8.862-16.08,8.862-25.262
		c0-9.102-3.015-17.773-8.717-25.073l-1.235-1.581l4.937-3.468l1.116,1.429c6.52,8.349,9.966,18.272,9.966,28.693
		c0,10.518-3.505,20.513-10.132,28.905L245.39,152.702z"/>
	<path fill="#FFFFFF" d="M258.14,158.868l-4.806-3.638l1.294-1.537c7.492-8.891,11.453-19.614,11.453-31.009
		c0-11.41-4.183-22.559-11.779-31.393l-1.311-1.523l4.771-3.686l1.179,1.372c8.516,9.903,13.207,22.415,13.207,35.23
		c0,12.795-4.441,24.829-12.842,34.8L258.14,158.868z"/>
</g>
</svg>
