<?xml version="1.0" encoding="utf-8"?>
<!-- Generator: Adobe Illustrator 24.2.0, SVG Export Plug-In . SVG Version: 6.00 Build 0)  -->
<svg version="1.0" xmlns="http://www.w3.org/2000/svg" xmlns:xlink="http://www.w3.org/1999/xlink" x="0px" y="0px"
	 viewBox="0 0 400 399.998" enable-background="new 0 0 400 399.998" xml:space="preserve">
<rect id="background-green" fill="#237F52" width="400" height="400"/>
<g id="content">
	<path id="frameWhite" fill="#FFFFFF" d="M340,40c11,0,20,9,20,20v280c0,11-9,20-20,20H60c-11,0-20-9-20-20V60c0-11,9-20,20-20H340
		 M340,35H60c-13.785,0-25,11.215-25,25v280c0,13.785,11.215,25,25,25h280c13.785,0,25-11.215,25-25V60
		C365,46.215,353.785,35,340,35L340,35z"/>
	<polygon fill="#FFFFFF" points="118.354,257.432 144.136,231.648 144.136,247.762 111.911,279.989 79.683,247.762 79.683,231.648 
		105.463,257.432 105.463,196.202 118.354,196.202 	"/>
	<path fill="#FFFFFF" d="M304.405,80.001v38.475h0.024c0,5.438-4.404,9.845-9.846,9.845h-1.181h-20.708h-77.533h-25.527
		c-5.436,0-9.834-4.407-9.834-9.845h0.032l0.028-38.444l-15.507-0.031v48.32v69.239c0.02,13.356,10.333,24.242,23.417,25.25v-15.602
		c-4.5-0.909-7.901-4.877-7.901-9.648v-43.904c0-5.415,4.412-9.818,9.834-9.823h124.962c5.4,0.006,9.818,4.408,9.818,9.823v43.904
		c0,4.838-3.507,8.834-8.086,9.669v15.592c13.171-0.912,23.583-11.838,23.604-25.261v-69.239v-48.32H304.405z"/>
	<g>
		<path fill="#FFFFFF" d="M282.261,189.624c-5.758,0-10.432,4.672-10.432,10.429v27.257h-4.179v-39.864
			c0-5.759-4.667-10.428-10.432-10.428c-5.76,0-10.43,4.669-10.43,10.428v31.715h-4.181v-40.039c0-5.763-4.668-10.429-10.43-10.429
			c-5.76,0-10.434,4.667-10.434,10.429v31.457h-4.177v-26.985c0-5.763-4.667-10.433-10.43-10.433
			c-5.762,0-10.432,4.67-10.432,10.433v52.382h-4.181l-0.013,0.008v-26.797c0-6.622-4.165-12.516-10.415-14.723
			c-0.826-0.289-1.703-0.442-2.605-0.442c-4.298-0.004-7.797,3.501-7.797,7.804v50.337l-0.032,0.022
			c0,5.211,1.078,10.589,2.814,14.779c1.731,4.183,18.363,44.343,18.363,44.343l86.533-0.008l10.68-25.9
			c1.765-4.615,2.642-9.508,2.642-14.745c0-0.715,0-70.602,0-70.602C292.694,194.297,288.025,189.624,282.261,189.624z"/>
	</g>
</g>
</svg>
