<?xml version="1.0" encoding="utf-8"?>
<!-- Generator: Adobe Illustrator 24.2.0, SVG Export Plug-In . SVG Version: 6.00 Build 0)  -->
<svg version="1.0" id="Ebene_4" xmlns="http://www.w3.org/2000/svg" xmlns:xlink="http://www.w3.org/1999/xlink" x="0px" y="0px"
	 viewBox="0 0 400 399.998" enable-background="new 0 0 400 399.998" xml:space="preserve">
<rect id="background-green" fill="#237F52" width="400" height="400"/>
<g id="content">
	<path id="frameWhite" fill="#FFFFFF" d="M340,40c11,0,20,9,20,20v280c0,11-9,20-20,20H60c-11,0-20-9-20-20V60c0-11,9-20,20-20H340
		 M340,35H60c-13.785,0-25,11.215-25,25v280c0,13.785,11.215,25,25,25h280c13.785,0,25-11.215,25-25V60
		C365,46.215,353.785,35,340,35L340,35z"/>
	<g>
		<path fill="#FFFFFF" d="M279.714,202.434c-2.41-3.439-5.263-5.454-5.263-5.454l-9.814-5.838l-15.845-9.182
			c-0.683-0.182-1.32-0.271-1.909-0.271c-1.717,0-3.024,0.76-3.909,2.173c-0.412,0.677-0.65,1.929-0.68,2.065
			c-0.752,3.378,1.387,7.363,4.322,9.187l12.782,7.635l3.976,2.445l-28.458,49.431c6.749,4.207,7.311,4.073,7.453,4.147
			c2.685,1.415,5.32,2.892,8.27,2.896l26.745,0.091l42.615,25.309v-45.57l-23.117-13.624
			C296.882,227.876,281.068,204.367,279.714,202.434z"/>
		<g>
			<path fill="#FFFFFF" d="M315.232,287.565v8.387c0,1.842-1.499,3.341-3.341,3.341H88.108c-1.842,0-3.341-1.499-3.341-3.341
				V128.108c0-1.811,1.53-3.341,3.341-3.341h223.783c1.842,0,3.341,1.499,3.341,3.341v107.263l4.767,2.808V128.108
				c0-4.459-3.648-8.108-8.108-8.108H88.108c-4.459,0-8.108,3.649-8.108,8.108v167.844c0,4.46,3.649,8.108,8.108,8.108h223.783
				c4.46,0,8.108-3.648,8.108-8.108v-5.555l-1.46-0.868L315.232,287.565z"/>
			<g>
				<path fill="#FFFFFF" d="M296.882,227.876c0,0-15.814-23.509-17.168-25.442c-2.41-3.439-5.263-5.454-5.263-5.454l-9.814-5.838
					l-15.845-9.182c-0.683-0.182-1.32-0.271-1.909-0.271c-1.717,0-3.024,0.76-3.909,2.173c-0.412,0.677-0.65,1.929-0.68,2.065
					c-0.752,3.378,1.387,7.363,4.322,9.187l12.782,7.635l3.976,2.445l-28.458,49.431c6.749,4.207,7.311,4.073,7.453,4.147
					c2.685,1.415,5.32,2.892,8.27,2.896l26.745,0.091l37.848,22.479l4.767,2.831v-45.57l-4.767-2.81L296.882,227.876z"/>
			</g>
		</g>
		<g>
			<polygon fill="#FFFFFF" points="264.435,187.719 268.503,190.058 277.893,173.666 296.792,184.549 308.204,164.763 
				272.993,144.594 242.773,153.536 261.906,164.603 252.595,180.858 252.57,180.902 			"/>
		</g>
	</g>
	<g>
		<g>
			<g>
				<g>
					<polygon fill="#FFFFFF" points="223.827,257.941 228.321,260.539 228.324,260.533 					"/>
				</g>
			</g>
		</g>
	</g>
	<g>
		<g>
			<path fill="#FFFFFF" d="M251.054,201.059l-2.518-1.505c0.333,1.921-0.007,3.925-1.004,5.631
				c-1.182,2.028-3.179,3.425-5.432,3.912c0.371,0.495,0.704,1.017,0.957,1.592c1.078,2.434,0.924,5.255-0.415,7.549
				c-1.402,2.404-3.94,3.929-6.702,4.089c0.037,0.08,0.089,0.153,0.125,0.235c1.071,2.415,0.918,5.231-0.419,7.549
				c-1.413,2.408-3.968,3.933-6.739,4.082c0.104,0.192,0.222,0.372,0.311,0.574c1.065,2.421,0.909,5.238-0.428,7.551
				c-1.486,2.534-4.233,4.11-7.168,4.11c-1.467,0-2.916-0.395-4.21-1.153l-1.399-0.838l-3.864,6.749l11.678,6.754l4.497,2.592
				l31.049-54.455L251.054,201.059z"/>
		</g>
	</g>
	<polygon fill="#FFFFFF" points="150.628,150.926 120.501,150.926 120.501,146.148 149.488,146.148 166.971,137.304 
		186.174,142.406 184.947,147.025 167.503,142.39 	"/>
	<polygon fill="#FFFFFF" points="233.997,162.44 223.376,150.926 213.712,150.926 213.712,146.148 225.47,146.148 237.509,159.2 	
		"/>
	<polygon fill="#FFFFFF" points="146.177,164.369 144.39,159.937 165.26,151.523 175.209,155.509 185.295,150.843 187.301,155.18 
		175.345,160.71 165.266,156.672 	"/>
	<polygon fill="#FFFFFF" points="189.173,218.676 180.732,195.666 193.221,179.56 195.508,161.847 200.248,162.46 197.793,181.462 
		186.128,196.504 193.659,217.03 	"/>
	<path fill="#FFFFFF" d="M231.216,221.22l-1.423-0.846l-0.164-0.099l-2.503-1.505l-7.279-4.361c-0.89-0.546-1.873-0.806-2.845-0.806
		c-1.827,0-3.611,0.92-4.643,2.594c-0.968,1.579-1.037,3.471-0.339,5.05c0.43,0.974,1.151,1.834,2.129,2.436l7.389,4.423
		l2.501,1.505l0.346,0.207l1.35,0.804c0.86,0.503,1.803,0.741,2.732,0.741c1.872,0,3.697-0.968,4.712-2.698
		c0.905-1.57,0.953-3.406,0.272-4.944C233.01,222.704,232.244,221.822,231.216,221.22z"/>
	<path fill="#FFFFFF" d="M227.523,215.644l-2.493-1.503l-7.391-4.425c-0.979-0.603-1.696-1.454-2.123-2.43
		c-0.702-1.583-0.641-3.471,0.337-5.054c1.028-1.671,2.814-2.594,4.643-2.594c0.972,0,1.953,0.26,2.842,0.806l7.283,4.36
		l2.497,1.499l3.525,2.114l1.568,0.94c1.03,0.598,1.788,1.482,2.233,2.492c0.685,1.546,0.642,3.382-0.272,4.948
		c-1.011,1.734-2.832,2.702-4.702,2.702c-0.933,0-1.877-0.24-2.741-0.747l-1.493-0.892L227.523,215.644z"/>
	<path fill="#FFFFFF" d="M237.621,205.7l-0.797-0.481l-2.497-1.492l-7.393-4.427c-0.976-0.601-1.697-1.457-2.13-2.432
		c-0.697-1.583-0.631-3.473,0.344-5.053c1.03-1.672,2.816-2.593,4.644-2.593c0.97,0,1.953,0.26,2.84,0.805l7.285,4.36l2.497,1.501
		l0.689,0.41c0.123,0.072,0.229,0.16,0.342,0.239c0.849,0.588,1.503,1.367,1.898,2.256c0.674,1.544,0.637,3.38-0.281,4.95
		c-1.011,1.732-2.833,2.698-4.706,2.698c-0.767,0-1.535-0.207-2.268-0.547C237.933,205.823,237.769,205.788,237.621,205.7z"/>
	<path fill="#FFFFFF" d="M226.322,240.872c-1.013,1.73-2.832,2.697-4.7,2.697c-0.933,0-1.877-0.24-2.741-0.747l-1.447-0.866
		l-0.249-0.149l-2.501-1.499l-1.894-1.134c-0.978-0.603-1.691-1.454-2.121-2.432c-0.7-1.583-0.637-3.469,0.333-5.052
		c1.032-1.669,2.814-2.592,4.641-2.592c0.97,0,1.955,0.261,2.844,0.81l1.788,1.067l2.503,1.501l0.065,0.039l1.516,0.911
		c1.035,0.6,1.793,1.488,2.242,2.493C227.28,237.464,227.233,239.297,226.322,240.872z"/>
	<path fill="#EB0000" d="M207.857,148.537c0-4.54-3.684-8.224-8.218-8.224c-4.544,0-8.224,3.684-8.224,8.224
		c0,4.544,3.68,8.224,8.224,8.224C204.173,156.76,207.857,153.081,207.857,148.537z"/>
</g>
</svg>
