<?xml version="1.0" encoding="utf-8"?>
<!-- Generator: Adobe Illustrator 24.2.0, SVG Export Plug-In . SVG Version: 6.00 Build 0)  -->
<svg version="1.0" id="Ebene_6" xmlns="http://www.w3.org/2000/svg" xmlns:xlink="http://www.w3.org/1999/xlink" x="0px" y="0px"
	 viewBox="0 0 400 399.998" enable-background="new 0 0 400 399.998" xml:space="preserve">
<rect id="background-green" fill="#237F52" width="400" height="400"/>
<g id="content">
	<path id="frameWhite" fill="#FFFFFF" d="M340,40c11,0,20,9,20,20v280c0,11-9,20-20,20H60c-11,0-20-9-20-20V60c0-11,9-20,20-20H340
		 M340,35H60c-13.785,0-25,11.215-25,25v280c0,13.785,11.215,25,25,25h280c13.785,0,25-11.215,25-25V60
		C365,46.215,353.785,35,340,35L340,35z"/>
	<polygon fill="#FFFFFF" points="183.085,236.803 174.644,213.792 187.134,197.686 189.421,179.973 194.16,180.586 191.706,199.588 
		180.041,214.63 187.572,235.157 	"/>
	<polygon fill="#FFFFFF" points="144.541,169.052 114.414,169.052 114.414,164.274 143.402,164.274 160.884,155.43 180.087,160.532 
		178.86,165.15 161.417,160.516 	"/>
	<polygon fill="#FFFFFF" points="227.909,180.566 217.291,169.052 207.626,169.052 207.626,164.274 219.384,164.274 
		231.421,177.326 	"/>
	<polygon fill="#FFFFFF" points="140.091,182.495 138.303,178.063 159.174,169.649 169.123,173.635 179.208,168.969 
		181.214,173.306 169.258,178.836 159.179,174.798 	"/>
	<path fill="#FFFFFF" d="M258.824,187.752c-1.076-1.023-2.497-1.589-3.959-1.589c-0.043,0-0.084,0.001-0.127,0.002
		c-1.521,0.039-2.959,0.68-4.007,1.782l-1.749,1.829l17.363,16.556l-1.898,1.989l-21.263-20.276
		c-1.061-1.024-2.488-1.583-3.965-1.583c-0.039,0-0.078,0-0.117,0.001c-1.522,0.035-2.952,0.674-3.998,1.775l-1.752,1.835
		l25.401,24.226l-1.896,1.983l-29.304-27.94c-1.069-1.022-2.477-1.583-3.954-1.583c-0.043,0-0.086,0.001-0.129,0.002
		c-1.506,0.035-2.957,0.669-3.991,1.773l-1.765,1.84l33.444,31.886l-1.898,1.987l-37.967-36.209
		c-1.106-1.05-2.574-1.629-4.086-1.629c-0.052,0-0.102,0.001-0.154,0.002c-3.281,0.074-5.87,2.794-5.792,6.073
		c0.034,1.565,0.695,3.067,1.838,4.148l36.06,34.4c1.223,1.155,1.935,2.752,1.974,4.438l0.24,10.065
		c0.061,2.451-1.885,4.493-4.339,4.546l-18.041,0.436c-4.039,0.095-7.576,2.717-8.829,6.555c-0.156,0.508-0.242,1.047-0.225,1.594
		c0.054,2.585,2.177,4.646,4.75,4.646c0.039,0,0.08,0,0.119-0.002l52.619-1.304l9.955-0.244l42.615,25.309v-45.57l-23.117-13.624
		L258.824,187.752z"/>
	<path fill="#FFFFFF" d="M88.108,299.293H98.53l17.884-21.652l9.594-2.669l50.712-14.091c2.531-0.704,4.019-3.337,3.305-5.862
		c-0.143-0.529-0.382-1.019-0.682-1.46c-1.81-2.583-4.738-4.049-7.788-4.049c-0.854,0-1.717,0.114-2.568,0.352l-17.384,4.844
		c-0.4,0.114-0.804,0.166-1.201,0.166c-1.944,0-3.731-1.289-4.276-3.25l-2.704-9.698c-0.454-1.624-0.238-3.359,0.594-4.82
		l24.466-43.418c0.778-1.368,0.974-2.997,0.549-4.505c-0.732-2.623-3.112-4.342-5.708-4.342c-0.53,0-1.068,0.072-1.603,0.222
		c-1.51,0.418-2.804,1.422-3.581,2.793l-25.762,45.704l-2.395-1.348l22.695-40.25l-2.223-1.245
		c-0.858-0.493-1.827-0.742-2.802-0.742c-0.515,0-1.032,0.07-1.534,0.21c-1.468,0.412-2.698,1.375-3.443,2.702l-19.887,35.269
		l-2.391-1.345l17.235-30.578l-2.21-1.245c-0.867-0.49-1.833-0.742-2.81-0.742c-0.513,0-1.028,0.069-1.533,0.21
		c-1.46,0.412-2.708,1.38-3.443,2.703l-14.428,25.594l-2.395-1.35l11.782-20.898l-2.205-1.24c-0.872-0.492-1.844-0.744-2.825-0.744
		c-0.511,0-1.026,0.068-1.529,0.207c-1.451,0.408-2.693,1.38-3.445,2.71l-27.825,49.799v44.715
		C84.767,297.794,86.266,299.293,88.108,299.293z"/>
	<path fill="#FFFFFF" d="M84.767,245.373v-93.416h199.716c3.32,0,6.633,2.758,7.235,6.023l13.153,71.283l5.439,3.207l-13.903-75.355
		c-1.009-5.473-6.358-9.926-11.924-9.926H84.767v-19.081c0-1.811,1.53-3.341,3.341-3.341h223.783c1.842,0,3.341,1.499,3.341,3.341
		v107.261l4.767,2.81V128.108c0-4.459-3.648-8.108-8.108-8.108H88.108c-4.459,0-8.108,3.649-8.108,8.108v125.797l1.616-2.894
		L84.767,245.373z"/>
	<path fill="#FFFFFF" d="M315.232,287.565v8.387c0,1.842-1.499,3.341-3.341,3.341H102.239l-3.937,4.767h213.589
		c4.46,0,8.108-3.648,8.108-8.108v-5.555l-1.46-0.868L315.232,287.565z"/>
	<path fill="#FFFFFF" d="M180.025,255.019c-0.143-0.529-0.382-1.019-0.682-1.46c-1.81-2.583-4.738-4.049-7.788-4.049
		c-0.854,0-1.717,0.114-2.568,0.352l-17.384,4.844c-0.4,0.114-0.804,0.166-1.201,0.166c-1.944,0-3.731-1.289-4.276-3.25
		l-2.704-9.698c-0.454-1.624-0.238-3.359,0.594-4.82l24.466-43.418c0.778-1.368,0.974-2.997,0.549-4.505
		c-0.732-2.623-3.112-4.342-5.708-4.342c-0.53,0-1.068,0.072-1.603,0.222c-1.51,0.418-2.804,1.422-3.581,2.793l-25.762,45.704
		l-2.395-1.348l22.695-40.25l-2.223-1.245c-0.858-0.493-1.827-0.742-2.802-0.742c-0.515,0-1.032,0.07-1.534,0.21
		c-1.468,0.412-2.698,1.375-3.443,2.702l-19.887,35.269l-2.391-1.345l17.235-30.578l-2.21-1.245c-0.867-0.49-1.833-0.742-2.81-0.742
		c-0.513,0-1.028,0.069-1.533,0.21c-1.46,0.412-2.708,1.38-3.443,2.703l-14.428,25.594l-2.395-1.35l11.782-20.898l-2.205-1.24
		c-0.872-0.492-1.844-0.744-2.825-0.744c-0.511,0-1.026,0.068-1.529,0.207c-1.451,0.408-2.693,1.38-3.445,2.71l-27.825,49.799
		l-0.653,1.17L80,259.77v10.296v15.255v10.631c0,4.46,3.649,8.108,8.108,8.108h1.874h1.549h3.061l3.938-4.767l17.884-21.652
		l9.594-2.669l50.712-14.091C179.25,260.178,180.738,257.544,180.025,255.019z"/>
	<path fill="#EB0000" d="M201.771,166.663c0-4.54-3.683-8.224-8.219-8.224c-4.544,0-8.224,3.684-8.224,8.224
		c0,4.544,3.68,8.224,8.224,8.224C198.087,174.886,201.771,171.206,201.771,166.663z"/>
</g>
</svg>
