<?xml version="1.0" encoding="utf-8"?>
<!-- Generator: Adobe Illustrator 24.2.0, SVG Export Plug-In . SVG Version: 6.00 Build 0)  -->
<svg version="1.0" xmlns="http://www.w3.org/2000/svg" xmlns:xlink="http://www.w3.org/1999/xlink" x="0px" y="0px"
	 viewBox="0 0 400 400" enable-background="new 0 0 400 400" xml:space="preserve">
<rect id="background-green" fill="#237F52" width="400" height="400"/>
<g id="content">
	<path id="frameWhite" fill="#FFFFFF" d="M340,40c11,0,20,9,20,20v280c0,11-9,20-20,20H60c-11,0-20-9-20-20V60c0-11,9-20,20-20H340
		 M340,35H60c-13.785,0-25,11.215-25,25v280c0,13.785,11.215,25,25,25h280c13.785,0,25-11.215,25-25V60
		C365,46.215,353.785,35,340,35L340,35z"/>
	<g>
		<path fill="#FFFFFF" d="M291.99,120c9.948,0,18.011,8.051,18.011,18c0,9.939-8.063,18.001-18.011,18.001
			c-9.926,0-17.989-8.063-17.989-18.001C274,128.051,282.064,120,291.99,120z M164.962,240l78.278-78.287H224.95l-25.687,25.71
			c-1.225,1.212-2.86,1.886-4.581,1.886c-3.568,0-6.466-2.9-6.466-6.455c0-1.731,0.682-3.368,1.896-4.57l27.244-27.235
			c1.721-1.731,4.082-2.715,6.529-2.715h32.268c12.767,0,23.103,10.352,23.103,23.089v32.323h26.309
			c3.836,0,6.935,3.088,6.935,6.924c0,3.833-3.099,6.932-6.935,6.932h-32.779c-3.825,0-6.931-3.099-6.931-6.932v-25.857
			l-30.365,30.383l27.669,27.668c1.743,1.754,2.696,4.086,2.696,6.551v55.907c0,5.099-4.127,9.244-9.225,9.244
			c-5.099,0-9.24-4.145-9.24-9.244v-50.79l-34.771-34.753L192.397,240H164.962z"/>
	</g>
	<g>
		<polygon fill="#FFFFFF" points="260,232.633 245,217.633 245,212.752 260,197.743 		"/>
		<path fill="#FFFFFF" d="M260,80v63.602c-1.259-0.173-2.542-0.269-3.847-0.269H245V95H95v150h135.78l11.609,11.603V260H80V80H260z"
			/>
	</g>
</g>
</svg>
