<?xml version="1.0" encoding="utf-8"?>
<!-- Generator: Adobe Illustrator 24.2.0, SVG Export Plug-In . SVG Version: 6.00 Build 0)  -->
<svg version="1.0" xmlns="http://www.w3.org/2000/svg" xmlns:xlink="http://www.w3.org/1999/xlink" x="0px" y="0px"
	 viewBox="0 0 400 400" enable-background="new 0 0 400 400" xml:space="preserve">
<rect id="background-green" fill="#237F52" width="400" height="400"/>
<g id="content">
	<path id="frameWhite" fill="#FFFFFF" d="M340,40c11,0,20,9,20,20v280c0,11-9,20-20,20H60c-11,0-20-9-20-20V60c0-11,9-20,20-20H340
		 M340,35H60c-13.785,0-25,11.215-25,25v280c0,13.785,11.215,25,25,25h280c13.785,0,25-11.215,25-25V60
		C365,46.215,353.785,35,340,35L340,35z"/>
	<g>
		<path fill="#FFFFFF" d="M126,138c0,9.939-8.063,18.001-17.989,18.001c-9.948,0-18.011-8.063-18.011-18.001
			c0-9.949,8.063-18,18.011-18C117.936,120,126,128.051,126,138z M207.603,240l-20.222-20.222l-34.771,34.753v50.79
			c0,5.099-4.142,9.244-9.24,9.244c-5.099,0-9.225-4.145-9.225-9.244v-55.907c0-2.466,0.953-4.797,2.696-6.551l27.669-27.668
			l-30.365-30.383v25.857c0,3.833-3.106,6.932-6.931,6.932H94.435c-3.836,0-6.935-3.099-6.935-6.932
			c0-3.835,3.099-6.924,6.935-6.924h26.309v-32.323c0-12.737,10.335-23.089,23.103-23.089h32.268c2.447,0,4.808,0.984,6.529,2.715
			l27.244,27.235c1.214,1.202,1.896,2.839,1.896,4.57c0,3.555-2.898,6.455-6.466,6.455c-1.721,0-3.356-0.673-4.581-1.886
			l-25.687-25.71h-18.291L235.038,240H207.603z"/>
	</g>
	<g>
		<polygon fill="#FFFFFF" points="140,232.633 155,217.633 155,212.752 140,197.743 		"/>
		<path fill="#FFFFFF" d="M140,80v63.602c1.259-0.173,2.542-0.269,3.847-0.269H155V95h150v150H169.22l-11.609,11.603V260H320V80H140
			z"/>
	</g>
</g>
</svg>
