<?xml version="1.0" encoding="utf-8"?>
<!-- Generator: Adobe Illustrator 24.2.0, SVG Export Plug-In . SVG Version: 6.00 Build 0)  -->
<svg version="1.0" xmlns="http://www.w3.org/2000/svg" xmlns:xlink="http://www.w3.org/1999/xlink" x="0px" y="0px"
	 viewBox="0 0 400 400" enable-background="new 0 0 400 400" xml:space="preserve">
<rect id="background-green" fill="#237F52" width="400" height="400"/>
<g id="content">
	<path id="frameWhite" fill="#FFFFFF" d="M340,40c11,0,20,9,20,20v280c0,11-9,20-20,20H60c-11,0-20-9-20-20V60c0-11,9-20,20-20H340
		 M340,35H60c-13.785,0-25,11.215-25,25v280c0,13.785,11.215,25,25,25h280c13.785,0,25-11.215,25-25V60
		C365,46.215,353.785,35,340,35L340,35z"/>
	<g>
		<path fill="#FFFFFF" d="M238.992,110c7.461,0,13.508,6.038,13.508,13.5c0,7.454-6.048,13.501-13.508,13.501
			c-7.444,0-13.492-6.047-13.492-13.501C225.5,116.038,231.548,110,238.992,110z"/>
	</g>
	<g>
		<path fill="#FFFFFF" d="M143.722,200l58.709-58.716h-13.718l-19.266,19.282c-0.919,0.909-2.145,1.414-3.436,1.414
			c-2.676,0-4.849-2.175-4.849-4.842c0-1.298,0.511-2.526,1.422-3.427l20.433-20.426c1.291-1.298,3.062-2.036,4.897-2.036h24.201
			c9.575,0,17.327,7.764,17.327,17.316v24.243h19.732c2.877,0,5.201,2.316,5.201,5.193c0,2.875-2.324,5.199-5.201,5.199H224.59
			c-2.869,0-5.198-2.324-5.198-5.199v-19.393l-22.774,22.787l20.752,20.751c1.307,1.316,2.022,3.064,2.022,4.913v41.931
			c0,3.824-3.095,6.933-6.919,6.933c-3.824,0-6.93-3.109-6.93-6.933v-38.093l-26.078-26.064L164.297,200H143.722z"/>
	</g>
	<polygon fill="#FFFFFF" points="215,194.475 203.75,183.225 203.75,179.564 215,168.307 	"/>
	<path fill="#FFFFFF" d="M215,80v47.701c-0.944-0.13-1.906-0.202-2.885-0.202h-8.365V91.25H91.25v112.5h101.835l8.707,8.702V215H80
		V80H215z"/>
	<path fill="#FFFFFF" d="M314.487,80.026c-2.594,0.262-4.487,2.602-4.487,5.21V97.5h-60c-0.022,0-0.04-0.018-0.04-0.04V85.27
		c0-2.627-1.905-5-4.521-5.247c-2.963-0.28-5.479,2.069-5.479,4.977v21.299c3.783,0.211,7.25,1.624,10,3.892v-7.652
		c0-0.022,0.018-0.04,0.04-0.04h60v35h-60c-0.022,0-0.04-0.018-0.04-0.04v-0.651c-2.75,2.268-6.217,3.681-10,3.893v28.357h9.213
		c0.266,0,0.527,0.017,0.787,0.04V142.54c0-0.022,0.018-0.04,0.04-0.04h60v35h-51.9c0.009,0.167,0.025,0.332,0.025,0.501
		c0,1.641-0.452,3.175-1.226,4.499H310v35h-60c-0.022,0-0.04-0.018-0.04-0.04v-30.55c-0.26,0.023-0.521,0.04-0.787,0.04h-9.213
		v127.78c0,2.627,1.905,5,4.521,5.247c2.963,0.28,5.479-2.069,5.479-4.977v-12.46c0-0.022,0.018-0.04,0.04-0.04h60v12.264
		c0,2.607,1.893,4.948,4.487,5.21c2.977,0.301,5.513-2.055,5.513-4.974V85C320,82.081,317.465,79.725,314.487,80.026z M310,297.5
		h-60c-0.022,0-0.04-0.018-0.04-0.04V262.54c0-0.022,0.018-0.04,0.04-0.04h60V297.5z M310,257.5h-60c-0.022,0-0.04-0.018-0.04-0.04
		V222.54c0-0.022,0.018-0.04,0.04-0.04h60V257.5z"/>
</g>
</svg>
