<?xml version="1.0" encoding="utf-8"?>
<!-- Generator: Adobe Illustrator 24.2.0, SVG Export Plug-In . SVG Version: 6.00 Build 0)  -->
<svg version="1.0" xmlns="http://www.w3.org/2000/svg" xmlns:xlink="http://www.w3.org/1999/xlink" x="0px" y="0px"
	 viewBox="0 0 400 400" enable-background="new 0 0 400 400" xml:space="preserve">
<rect id="background-green" fill="#237F52" width="400" height="400"/>
<g id="content">
	<path id="frameWhite" fill="#FFFFFF" d="M340,40c11,0,20,9,20,20v280c0,11-9,20-20,20H60c-11,0-20-9-20-20V60c0-11,9-20,20-20H340
		 M340,35H60c-13.785,0-25,11.215-25,25v280c0,13.785,11.215,25,25,25h280c13.785,0,25-11.215,25-25V60
		C365,46.215,353.785,35,340,35L340,35z"/>
	<g>
		<path fill="#FFFFFF" d="M174.5,123.5c0,7.454-6.048,13.501-13.492,13.501c-7.461,0-13.508-6.047-13.508-13.501
			c0-7.462,6.048-13.5,13.508-13.5C168.452,110,174.5,116.038,174.5,123.5z"/>
	</g>
	<g>
		<path fill="#FFFFFF" d="M235.703,200l-15.166-15.166l-26.078,26.064v38.093c0,3.824-3.106,6.933-6.93,6.933
			c-3.824,0-6.919-3.109-6.919-6.933V207.06c0-1.849,0.715-3.598,2.022-4.913l20.752-20.751l-22.774-22.787v19.393
			c0,2.875-2.33,5.199-5.198,5.199h-24.584c-2.877,0-5.201-2.324-5.201-5.199c0-2.876,2.324-5.193,5.201-5.193h19.732v-24.243
			c0-9.552,7.752-17.316,17.327-17.316h24.201c1.835,0,3.606,0.738,4.897,2.036l20.433,20.426c0.911,0.902,1.422,2.129,1.422,3.427
			c0,2.666-2.173,4.842-4.849,4.842c-1.291,0-2.517-0.505-3.436-1.414l-19.266-19.282H197.57L256.278,200H235.703z"/>
	</g>
	<polygon fill="#FFFFFF" points="215,194.475 203.75,183.225 203.75,179.564 215,168.307 	"/>
	<path fill="#FFFFFF" d="M185,80v47.701c0.944-0.13,1.906-0.202,2.885-0.202h8.365V91.25h112.5v112.5H206.915l-8.707,8.702V215H320
		V80H185z"/>
	<path fill="#FFFFFF" d="M80,85v230c0,2.919,2.535,5.275,5.513,4.974c2.594-0.262,4.487-2.602,4.487-5.21V302.5h60
		c0.022,0,0.04,0.018,0.04,0.04V315c0,2.908,2.516,5.257,5.479,4.977c2.615-0.247,4.521-2.62,4.521-5.247V186.95h-9.213
		c-0.266,0-0.527-0.017-0.787-0.04v30.55c0,0.022-0.018,0.04-0.04,0.04H90v-35h53.101c-0.774-1.324-1.226-2.858-1.226-4.499
		c0-0.169,0.016-0.334,0.025-0.501H90v-35h60c0.022,0,0.04,0.018,0.04,0.04v26.559c0.26-0.023,0.521-0.04,0.787-0.04h9.213v-28.357
		c-3.783-0.211-7.25-1.625-10-3.893v0.651c0,0.022-0.018,0.04-0.04,0.04H90v-35h60c0.022,0,0.04,0.018,0.04,0.04v7.652
		c2.75-2.268,6.217-3.681,10-3.892V85c0-2.908-2.516-5.257-5.479-4.977c-2.615,0.247-4.521,2.62-4.521,5.247v12.19
		c0,0.022-0.018,0.04-0.04,0.04H90V85.236c0-2.607-1.893-4.948-4.487-5.21C82.535,79.725,80,82.081,80,85z M90,262.5h60
		c0.022,0,0.04,0.018,0.04,0.04v34.921c0,0.022-0.018,0.04-0.04,0.04H90V262.5z M90,222.5h60c0.022,0,0.04,0.018,0.04,0.04v34.921
		c0,0.022-0.018,0.04-0.04,0.04H90V222.5z"/>
</g>
</svg>
