<svg xmlns="http://www.w3.org/2000/svg" width="24" height="24" viewBox="0 0 24 24">
  <g fill="none" fill-rule="evenodd">
    <path fill="#2D327D" d="M22.5,0 L1.5,0 C0.675000003,0 0,0.675000003 0,1.5 L0,22.5 C0,23.3250009 0.675000003,24 1.5,24 L22.5,24 C23.3250009,24 24,23.3250009 24,22.5 L24,1.5 C24,0.675000003 23.3250009,0 22.5,0 Z"/>
    <g fill="#FFF" transform="translate(3 3)">
      <path fill-rule="nonzero" d="M9.06000044 4.18500042C10.0874996 4.18500042 10.9950008 4.50000002 11.7749996 5.13000102 12.5475007 5.76000022 13.1100007 6.72000023 13.4624997 8.02499963 13.7250005 9.02250004 13.8599988 10.1025 13.8599988 11.2725 13.8599988 13.2075005 13.5149995 14.8050004 12.824999 16.0499993 12.4199993 16.7775002 11.8874989 17.3325005 11.2349987 17.7299996 10.5824995 18.1274987 9.84749894 18.3224984 9.04499914 18.3224984 7.94249913 18.3224984 7.00499913 17.9925004 6.21749973 17.3250008 4.82999942 16.1400014 4.13249922 14.1224996 4.13249922 11.2725 4.13249922 9.23999974 4.49249932 7.61250973 5.21999932 6.38250063 5.63249922 5.67750072 6.17249873 5.13751032 6.84000013 4.75500052 7.50750063 4.37250042 8.25000003 4.18500042 9.06000044 4.18500042zM8.95499994 6.46500023C8.06999973 6.46500023 7.46249963 6.97500043 7.14749913 7.99499903 6.89249993 8.80499944 6.77249913 9.94499984 6.77249913 11.4074994 6.77249913 12.6974995 6.89999873 13.7324984 7.16249853 14.5199987 7.49249843 15.5324976 8.10749913 16.0424978 9.00749974 16.0424978 9.74999914 16.0424978 10.3049994 15.6524965 10.665 14.8574983 11.0249997 14.0699979 11.2124997 12.8699981 11.2124997 11.2499981 11.2124997 9.86999804 11.0850001 8.78249844 10.8225003 7.99499803 10.4924994 6.97500043 9.87000084 6.46500023 8.95499994 6.46500023zM0 0L1.0124998 0C1.23000001 0 1.39500001.0300002001 1.5.0825000003 1.59750031.134999801 1.68000031.209999601 1.72499991.307499901 1.77000001.389999902 1.79250001.480000002 1.79250001.569999902 1.79250001.674999903 1.77000001.764999803 1.71750021.847499604 1.66500041.929999604 1.59000011.989999804 1.49250031 1.0349998 1.57499981 1.0649996 1.64249991 1.0949998 1.68750001 1.1249995 1.82999991 1.22999951 1.90500021 1.38749931 1.90500021 1.58999921 1.90500021 1.70999911 1.87500001 1.82249931 1.82250021 1.91249941 1.77000041 2.00249951 1.69500061 2.08499961 1.59000021 2.14499951 1.47000031 2.21249961 1.31250051 2.24999951 1.1100002 2.24999951L0 2.24999951 0 0zM.494999902.382499901L.494999902.907499803.944999904.907499803C1.0500002.907499803 1.125.892500203 1.1774997.869999903 1.26749941.825000003 1.31250001.750000003 1.31250001.64499985 1.31250001.555000102 1.28249981.487510001 1.23000001.450000001 1.1775002.412509901 1.0799999.389999901.944999904.389999901.937500004.382499901.494999902.382499901.494999902.382499901zM.494999902 1.24499991L.494999902 1.85999971.989999804 1.85999971C1.1324997 1.85999971 1.22999961 1.83749971 1.29000001 1.79999931 1.36499981 1.74749951 1.40249971 1.66499901 1.40249971 1.55249955 1.40249971 1.41749911 1.34999991 1.32749941 1.24499991 1.28249931 1.1849995 1.25999931 1.0949998 1.24499941.959999604 1.24499941L.494999902 1.24499991zM2.63999991 5.55111512e-17L2.63999991.405000202 2.19749981.405000202 2.19749981 5.55111512e-17 2.63999991 5.55111512e-17zM2.63999991.569999902L2.63999991 2.25000001 2.19749981 2.25000001 2.19749981.569999902 2.63999991.569999902z"/>
      <path d="M3.42000011,0.569999902 L3.42000011,0.802499703 C3.47249981,0.727499703 3.51749991,0.675000003 3.56250001,0.645000003 C3.67500022,0.562510002 3.81000042,0.517500202 3.96000002,0.517500202 C4.09500022,0.517500202 4.21499962,0.555000102 4.31250002,0.622500203 C4.38749982,0.675000003 4.43999962,0.750000003 4.47000032,0.832500503 C4.50000102,0.915001004 4.51500092,1.0350004 4.51500092,1.1925006 L4.51500092,2.25000001 L4.07250122,2.25000001 L4.07250122,1.29000001 C4.07250122,1.1849995 4.06500102,1.1025 4.04250192,1.0500002 C4.02750202,1.0050001 3.99750132,0.967500204 3.95250222,0.944999904 C3.90750162,0.914999704 3.84750272,0.900000104 3.78750222,0.900000104 C3.72000262,0.900000104 3.66000262,0.914999704 3.60000222,0.952499904 C3.54000191,0.989999804 3.50250201,1.0274997 3.48000241,1.0875101 C3.45000221,1.1475 3.43500231,1.25249961 3.43500231,1.38750981 L3.43500231,2.25000001 L2.99250221,2.25000001 L2.99250221,0.569999902 L3.42000011,0.569999902 Z"/>
      <path fill-rule="nonzero" d="M6.38250063,2.25000001 L5.92500022,2.25000001 C5.90250022,2.18249991 5.89500052,2.13000011 5.89500052,2.08500001 C5.75250062,2.22750041 5.57250032,2.30250021 5.35500052,2.30250021 C5.18250082,2.30250021 5.04750062,2.26500031 4.95000122,2.18250031 C4.83750102,2.09250061 4.78500122,1.96500011 4.78500122,1.80000061 C4.78500122,1.59000011 4.88250152,1.44750061 5.07000152,1.36500021 C5.14500142,1.33500001 5.28750132,1.30500031 5.49750142,1.27500061 C5.67750082,1.25250061 5.78250122,1.23000051 5.82750132,1.20750051 C5.87250042,1.1850005 5.89500052,1.1400004 5.89500052,1.0725003 C5.89500052,0.922500204 5.79750072,0.855000104 5.60250102,0.855000104 C5.49750152,0.855000104 5.42250162,0.870000004 5.37750062,0.907499904 C5.33250052,0.944999904 5.29500012,1.0050001 5.28000072,1.1025 L4.86000012,1.1025 C4.87500002,0.914999704 4.94250062,0.772499603 5.07000062,0.682499903 C5.19750022,0.584999602 5.37750052,0.539999702 5.61000062,0.539999702 C5.87250042,0.539999702 6.06000043,0.592499502 6.18750003,0.697499703 C6.24750043,0.749999503 6.28500122,0.802499703 6.30000023,0.854999504 C6.31499963,0.907499304 6.32999993,0.997499704 6.32999993,1.1249995 C6.32999993,1.1474995 6.32999993,1.25999971 6.32249933,1.46249961 C6.32249933,1.66499901 6.32249933,1.77749921 6.32249933,1.80749941 C6.32249933,1.92749931 6.32249933,2.01749941 6.32999993,2.07749941 C6.33749963,2.13749891 6.35250003,2.18249991 6.38250063,2.25000001 Z M5.88749982,1.43999961 C5.82749942,1.47750001 5.72249982,1.50749971 5.57250022,1.52249961 C5.46750072,1.53749941 5.39250092,1.55999951 5.34000022,1.58250001 C5.27250002,1.61999991 5.24249942,1.68000031 5.24249942,1.76250981 C5.24249942,1.82999991 5.26499942,1.88999981 5.30999952,1.92749971 C5.35499862,1.96499961 5.41499902,1.98751011 5.49749952,1.98751011 C5.63249972,1.98751011 5.73749932,1.94250001 5.81249912,1.85249991 C5.84249882,1.82249971 5.85749922,1.78499981 5.87249952,1.75499961 C5.88749892,1.72499941 5.88749892,1.67249961 5.88749892,1.61999941 L5.88749982,1.43999961 L5.88749982,1.43999961 Z"/>
      <path d="M7.71749973,0.539999702 L7.71749973,0.974999904 C7.64249993,0.960000304 7.59000013,0.952499904 7.54499913,0.952499904 C7.37999913,0.952499904 7.25999933,1.02 7.17749973,1.16251 C7.13249963,1.23751031 7.11000053,1.37250051 7.11000053,1.55249991 L7.11000053,2.25000001 L6.66750053,2.25000001 L6.66750053,0.569999902 L7.09500033,0.569999902 L7.09500033,0.877499804 C7.21500113,0.652499703 7.39500053,0.532499802 7.62000093,0.532499802 C7.64249993,0.532499802 7.67999943,0.539999702 7.71749973,0.539999702 Z"/>
      <path fill-rule="nonzero" d="M8.37000083 5.55111512e-17L8.37000083.405000202 7.92750073.405000202 7.92750073 5.55111512e-17 8.37000083 5.55111512e-17zM8.37000083.569999902L8.37000083 2.25000001 7.92750073 2.25000001 7.92750073.569999902 8.37000083.569999902zM9.53250034.525000102C9.78000074.525000102 9.97500044.607499803 10.1325007.764999903 10.2825003.922499704 10.3650008 1.1399999 10.3650008 1.40249971 10.3650008 1.67999941 10.2825003 1.89749961 10.1175004 2.06251001 9.96750084 2.21251011 9.76500144 2.29500011 9.51750104 2.29500011 9.25500124 2.29500011 9.04500024 2.21251011 8.89500064 2.04000001 8.74500104 1.87500001 8.67000024 1.66500001 8.67000024 1.40999991 8.67000024 1.1549998 8.74500104.952499904 8.88749994.787499503 9.04500014.614999803 9.26249984.525000102 9.53250034.525000102zM9.51000024.869999904C9.38999944.869999904 9.30000024.914999704 9.22500044 1.0125098 9.15750034 1.1100001 9.12000094 1.23751021 9.12000094 1.41000031 9.12000094 1.58250041 9.15750034 1.71750021 9.22500044 1.80750031 9.30000024 1.89750001 9.39750004 1.95000081 9.51749994 1.95000081 9.62999914 1.95000081 9.72749994 1.90500071 9.79499914 1.82250071 9.86999894 1.72500041 9.90749934 1.59000111 9.90749934 1.41000081 9.90749934 1.24500081 9.86999894 1.1100006 9.80249984 1.0200009 9.74249944.922500104 9.63749984.869999904 9.51000024.869999904z"/>
    </g>
  </g>
</svg>
