<svg xmlns="http://www.w3.org/2000/svg" width="24" height="24" viewBox="0 0 24 24">
  <g fill="none" fill-rule="evenodd">
    <path fill="#2D327D" d="M22.5,0 L1.5,0 C0.675000003,0 0,0.675000003 0,1.5 L0,22.5 C0,23.3250009 0.675000003,24 1.5,24 L22.5,24 C23.3250009,24 24,23.3250009 24,22.5 L24,1.5 C24,0.675000003 23.3250009,0 22.5,0 Z"/>
    <g fill="#FFF" transform="translate(2 3)">
      <path d="M6.18999963,10.3200006 C6.21249963,9.39750004 6.44499973,8.62500004 6.87250043,7.99500083 C7.57000063,6.99000073 8.62000084,6.48750973 10.0150013,6.48750973 C11.0950003,6.48750973 11.9575005,6.76499943 12.6250011,7.31250953 C13.3375017,7.90499973 13.6975013,8.67749974 13.6975013,9.62250044 C13.6975013,10.1850004 13.5550023,10.6725006 13.2775012,11.0774994 C13.000001,11.4824991 12.6175004,11.7600002 12.1450006,11.9025002 C12.7525007,12.0375101 13.2250005,12.3449995 13.5775014,12.825 C13.9300004,13.3050005 14.102501,13.8750002 14.102501,14.557501 C14.102501,15.6674997 13.6900006,16.5825006 12.8725015,17.2875101 C12.1150009,17.9474985 11.1550017,18.2700006 10.000001,18.2700006 C8.74750144,18.2700006 7.75000103,17.9100019 7.01500133,17.182501 C6.28000073,16.4625093 5.91250132,15.4799997 5.91250132,14.2500002 C5.91250132,14.2275011 5.91250132,14.1749994 5.91250132,14.1075003 L8.07250113,14.1075003 C8.07250113,14.7975008 8.23750113,15.3375094 8.56750194,15.7125094 C8.89750094,16.0875094 9.36250204,16.2749999 9.96250244,16.2749999 C10.5625018,16.2749999 11.0200023,16.0950015 11.3500022,15.7425006 C11.6500024,15.4125102 11.7925014,15.0149997 11.7925014,14.5499995 C11.7925014,13.9950011 11.6050014,13.5599997 11.2225017,13.237509 C10.9075012,12.9675 10.4275007,12.8400004 9.77500154,12.8400004 C9.58750154,12.8400004 9.40750124,12.8475001 9.22750094,12.8699992 L9.22750094,11.2199995 C9.36250114,11.2275001 9.49000074,11.2349989 9.61000154,11.2349989 C10.9000015,11.2349989 11.5450019,10.7549994 11.5450019,9.79499934 C11.5450019,9.37499924 11.402502,9.03749874 11.1250009,8.77499884 C10.8400011,8.51249904 10.4725017,8.38499943 10.0075015,8.38499943 C9.48250194,8.38499943 9.07000154,8.54999944 8.78500174,8.87999934 C8.50000094,9.20999924 8.34250163,9.68999974 8.32000153,10.3199998 L6.18999963,10.3200006 L6.18999963,10.3200006 Z"/>
      <polygon points="3.032 0 2.282 2.25 1.727 2.25 .992 0 1.502 0 2.005 1.688 2.515 0"/>
      <path fill-rule="nonzero" d="M3.87250042.525000102C4.12000032.525000102 4.31500052.607499803 4.47250032.764999903 4.62250042.922499704 4.70500092 1.1399999 4.70500092 1.40249971 4.70500092 1.67999941 4.62250042 1.89749961 4.45750052 2.06251001 4.30750042 2.21251011 4.10500052 2.29500011 3.85750062 2.29500011 3.59500031 2.29500011 3.38500031 2.21251011 3.23500021 2.04000001 3.08500001 1.87500001 3.01000021 1.66500001 3.01000021 1.40999981 3.01000021 1.1549996 3.08500001.952499904 3.22750041.787499403 3.38500021.614999803 3.60250002.525000102 3.87250042.525000102zM3.84999992.869999904C3.73000002.869999904 3.63999992.914999704 3.56499961 1.0125098 3.49749951 1.1100001 3.45999961 1.23751021 3.45999961 1.41000031 3.45999961 1.58250041 3.49749951 1.71750021 3.56499961 1.80750031 3.63999992 1.89750001 3.73750022 1.95000081 3.85750012 1.95000081 3.96999982 1.95000081 4.06750012 1.90500071 4.13499982 1.82250071 4.20999962 1.72500041 4.24749952 1.59000111 4.24749952 1.41000081 4.24749952 1.24500081 4.20999962 1.1100006 4.14249952 1.0200009 4.08250002.922500104 3.97750002.869999904 3.84999992.869999904zM5.44750022 5.55111512e-17L5.44750022.405000202 5.00500062.405000202 5.00500062 5.55111512e-17 5.44750022 5.55111512e-17zM5.44750022.569999902L5.44750022 2.25000001 5.00500062 2.25000001 5.00500062.569999902 5.44750022.569999902zM7.32250023 1.72499991C7.30000023 1.82250021 7.25500103 1.90500021 7.19500063 1.98751021 7.04500013 2.18999961 6.83500003 2.28750991 6.55750083 2.28750991 6.31000043 2.28750991 6.10750003 2.20499991 5.95750042 2.04750011 5.88250062 1.97250031 5.83000092 1.87500001 5.78500032 1.77000051 5.73999982 1.65750031 5.72499992 1.53000071 5.72499992 1.41000031 5.72499992 1.1625099 5.79249952.960000304 5.93500042.795000503 6.09250073.607500503 6.29500013.517500602 6.54250053.517500602 6.74500083.517500602 6.91750053.577500802 7.06000043.705000603 7.16500003.795000603 7.23250013.907500504 7.28499983 1.0350008 7.33749963 1.1625013 7.35250003 1.32750081 7.35250003 1.53000071L6.17500023 1.53000071C6.18250083 1.61250071 6.18999963 1.68000081 6.21249963 1.73250061 6.27250003 1.88250061 6.38500023 1.95000081 6.55750083 1.95000081 6.64000133 1.95000081 6.70750043 1.93500091 6.76000023 1.89750101 6.81250003 1.86000061 6.85750013 1.80000071 6.88749983 1.72500041L7.32250023 1.72499991 7.32250023 1.72499991zM6.89500053 1.23000001C6.88749983 1.1475 6.86500073 1.0799999 6.84250073 1.0275002 6.81250103.975000604 6.77500153.930000104 6.72249983.900000604 6.66999913.870001104 6.61000063.855000703 6.55000023.855000703 6.45249943.855000703 6.37000083.885000704 6.30249983.952500804 6.23499883 1.0200009 6.19750033 1.1100006 6.18999963 1.2225008L6.89500053 1.2225008 6.89500053 1.23000001z"/>
    </g>
  </g>
</svg>
