<svg xmlns="http://www.w3.org/2000/svg" width="24" height="24" viewBox="0 0 24 24">
  <g fill="none" fill-rule="evenodd">
    <path fill="#2D327D" d="M22.5,0 L1.5,0 C0.675000003,0 0,0.675000003 0,1.5 L0,22.5 C0,23.3250009 0.675000003,24 1.5,24 L22.5,24 C23.3250009,24 24,23.3250009 24,22.5 L24,1.5 C24,0.675000003 23.3250009,0 22.5,0 Z"/>
    <g fill="#FFF" transform="translate(2 3)">
      <path d="M5.42500022,8.78250034 C5.45499952,7.67250063 5.73250062,6.74250033 6.25000003,5.99250032 C7.09000023,4.78500032 8.34249973,4.18500042 10.0225,4.18500042 C11.3125,4.18500042 12.3550006,4.51499982 13.1499997,5.17500022 C14.0049992,5.88751032 14.4325009,6.81000043 14.4325009,7.94249923 C14.4325009,8.61749944 14.2675,9.20249944 13.9300004,9.68999964 C13.5925008,10.1774998 13.142501,10.5074997 12.5725003,10.6799994 C13.3000003,10.8449994 13.8700009,11.2125102 14.290001,11.79 C14.7100011,12.3600007 14.9200002,13.0574991 14.9200002,13.8675004 C14.9200002,15.2024995 14.4249994,16.2974988 13.4425012,17.1450006 C12.535,17.932501 11.3800011,18.3300001 9.99250034,18.3300001 C8.48500064,18.3300001 7.29250053,17.8950006 6.40750033,17.0249998 C5.52250012,16.154999 5.08000092,14.9849989 5.08000092,13.5074999 C5.08000092,13.4775011 5.08000092,13.4174997 5.08000092,13.3350012 L7.67500023,13.3350012 C7.67500023,14.1675017 7.87000083,14.8050024 8.26749993,15.2625029 C8.65749934,15.7125018 9.21999934,15.9375021 9.93999964,15.9375021 C10.6599999,15.9375021 11.2150002,15.727503 11.5974999,15.3000032 C11.9575005,14.9025041 12.1300012,14.4225008 12.1300012,13.8675024 C12.1300012,13.2000029 11.9050007,12.6750023 11.4475003,12.2925016 C11.0725003,11.9700013 10.4950009,11.812502 9.71500024,11.812502 C9.48999984,11.812502 9.27250014,11.8275023 9.06250004,11.8500024 L9.06250004,9.86250224 C9.22000034,9.87750254 9.37749964,9.87750254 9.52750024,9.87750254 C11.0800009,9.87750254 11.8525,9.30000224 11.8525,8.15250213 C11.8525,7.65000253 11.6799994,7.23750213 11.3424998,6.93000233 C11.0049992,6.62250153 10.5549994,6.46500213 10.0074998,6.46500213 C9.37749974,6.46500213 8.88249984,6.66000273 8.53749864,7.05750183 C8.19249833,7.45500183 8.00499833,8.02500153 7.98249923,8.78250124 L5.42500022,8.78250034 L5.42500022,8.78250034 Z"/>
      <polygon points="3.032 0 2.282 2.25 1.727 2.25 .992 0 1.502 0 2.005 1.688 2.515 0"/>
      <path fill-rule="nonzero" d="M3.87250042.525000102C4.12000032.525000102 4.31500052.607499803 4.47250032.764999903 4.62250042.922499704 4.70500092 1.1399999 4.70500092 1.40249971 4.70500092 1.67999941 4.62250042 1.89749961 4.45750052 2.06251001 4.30750042 2.21251011 4.10500052 2.29500011 3.85750062 2.29500011 3.59500031 2.29500011 3.38500031 2.21251011 3.23500021 2.04000001 3.08500001 1.87500001 3.01000021 1.66500001 3.01000021 1.40999981 3.01000021 1.1549996 3.08500001.952499904 3.22750041.787499403 3.38500021.614999803 3.60250002.525000102 3.87250042.525000102zM3.84999992.869999904C3.73000002.869999904 3.63999992.914999704 3.56499961 1.0125098 3.49749951 1.1100001 3.45999961 1.23751021 3.45999961 1.41000031 3.45999961 1.58250041 3.49749951 1.71750021 3.56499961 1.80750031 3.63999992 1.89750001 3.73750022 1.95000081 3.85750012 1.95000081 3.96999982 1.95000081 4.06750012 1.90500071 4.13499982 1.82250071 4.20999962 1.72500041 4.24749952 1.59000111 4.24749952 1.41000081 4.24749952 1.24500081 4.20999962 1.1100006 4.14249952 1.0200009 4.08250002.922500104 3.97750002.869999904 3.84999992.869999904zM5.44750022 5.55111512e-17L5.44750022.405000202 5.00500062.405000202 5.00500062 5.55111512e-17 5.44750022 5.55111512e-17zM5.44750022.569999902L5.44750022 2.25000001 5.00500062 2.25000001 5.00500062.569999902 5.44750022.569999902zM7.32250023 1.72499991C7.30000023 1.82250021 7.25500103 1.90500021 7.19500063 1.98751021 7.04500013 2.18999961 6.83500003 2.28750991 6.55750083 2.28750991 6.31000043 2.28750991 6.10750003 2.20499991 5.95750042 2.04750011 5.88250062 1.97250031 5.83000092 1.87500001 5.78500032 1.77000051 5.73999982 1.65750031 5.72499992 1.53000071 5.72499992 1.41000031 5.72499992 1.1625099 5.79249952.960000304 5.93500042.795000503 6.09250073.607500503 6.29500013.517500602 6.54250053.517500602 6.74500083.517500602 6.91750053.577500802 7.06000043.705000603 7.16500003.795000603 7.23250013.907500504 7.28499983 1.0350008 7.33749963 1.1625013 7.35250003 1.32750081 7.35250003 1.53000071L6.17500023 1.53000071C6.18250083 1.61250071 6.18999963 1.68000081 6.21249963 1.73250061 6.27250003 1.88250061 6.38500023 1.95000081 6.55750083 1.95000081 6.64000133 1.95000081 6.70750043 1.93500091 6.76000023 1.89750101 6.81250003 1.86000061 6.85750013 1.80000071 6.88749983 1.72500041L7.32250023 1.72499991 7.32250023 1.72499991zM6.89500053 1.23000001C6.88749983 1.1475 6.86500073 1.0799999 6.84250073 1.0275002 6.81250103.975000604 6.77500153.930000104 6.72249983.900000604 6.66999913.870001104 6.61000063.855000703 6.55000023.855000703 6.45249943.855000703 6.37000083.885000704 6.30249983.952500804 6.23499883 1.0200009 6.19750033 1.1100006 6.18999963 1.2225008L6.89500053 1.2225008 6.89500053 1.23000001z"/>
    </g>
  </g>
</svg>
