<svg xmlns="http://www.w3.org/2000/svg" width="24" height="24" viewBox="0 0 24 24">
  <g fill="none" fill-rule="evenodd">
    <path fill="#2D327D" d="M22.5,0 L1.5,0 C0.675000003,0 0,0.675000003 0,1.5 L0,22.5 C0,23.3250009 0.675000003,24 1.5,24 L22.5,24 C23.3250009,24 24,23.3250009 24,22.5 L24,1.5 C24,0.675000003 23.3250009,0 22.5,0 Z"/>
    <g fill="#FFF" transform="translate(2 2)">
      <path d="M5.42500022 9.78250034C5.45499952 8.67250064 5.73250062 7.74250033 6.25000003 6.99250033 7.09000023 5.78500032 8.34249973 5.18500042 10.0225 5.18500042 11.3125 5.18500042 12.3550006 5.51499982 13.1499997 6.17500023 14.0049992 6.88751033 14.4325009 7.81000043 14.4325009 8.94249924 14.4325009 9.61749944 14.2675 10.2024994 13.9300004 10.6899996 13.5925008 11.1774998 13.142501 11.5074997 12.5725003 11.6799994 13.3000003 11.8449994 13.8700009 12.2125103 14.290001 12.7900001 14.7100011 13.3600007 14.9200002 14.0574991 14.9200002 14.8675004 14.9200002 16.2024995 14.4249994 17.2974988 13.4425012 18.1450006 12.535 18.932501 11.3800011 19.3300001 9.99250034 19.3300001 8.48500064 19.3300001 7.29250053 18.8950006 6.40750033 18.0249998 5.52250012 17.154999 5.08000092 15.9849989 5.08000092 14.5074999 5.08000092 14.4775011 5.08000092 14.4174997 5.08000092 14.3350012L7.67500023 14.3350012C7.67500023 15.1675017 7.87000083 15.8050024 8.26749993 16.2625029 8.65749934 16.7125018 9.21999934 16.9375021 9.93999964 16.9375021 10.6599999 16.9375021 11.2150002 16.727503 11.5974999 16.3000032 11.9575005 15.9025041 12.1300012 15.4225008 12.1300012 14.8675024 12.1300012 14.2000029 11.9050007 13.6750023 11.4475003 13.2925016 11.0725003 12.9700014 10.4950009 12.8125021 9.71500024 12.8125021 9.48999984 12.8125021 9.27250014 12.8275024 9.06250004 12.8500025L9.06250004 10.8625022C9.22000034 10.8775025 9.37749964 10.8775025 9.52750024 10.8775025 11.0800009 10.8775025 11.8525 10.3000022 11.8525 9.15250214 11.8525 8.65000254 11.6799994 8.23750213 11.3424998 7.93000233 11.0049992 7.62250153 10.5549994 7.46500213 10.0074998 7.46500213 9.37749974 7.46500213 8.88249984 7.66000273 8.53749864 8.05750183 8.19249833 8.45500184 8.00499833 9.02500154 7.98249923 9.78250124L5.42500022 9.78250034 5.42500022 9.78250034zM3.09250021 2.03500031L3.09250021 3.25000001 2.77750021 3.25000001 2.72500041 2.99499991C2.56000091 3.20499991 2.33500101 3.30249981 2.05000071 3.30249981 1.70500071 3.30249981 1.43500091 3.17500021 1.24000031 2.92000011 1.0750005 2.70999961.992500104 2.44749981.992500104 2.13249971.992500104 1.78000021 1.0975004 1.48751001 1.31500031 1.26251011 1.51750021 1.0524998 1.78000021.939999904 2.09500031.939999904 2.38750081.939999904 2.62750061 1.03751 2.81500061 1.22500001 2.95000081 1.36750021 3.03250031 1.53999981 3.05500041 1.73500021L2.58250001 1.73500021C2.55999951 1.61500021 2.50000001 1.51750021 2.41750001 1.45000001 2.33500001 1.38249981 2.22250031 1.34499981 2.09499981 1.34499981 1.89250021 1.34499981 1.74250011 1.41999981 1.63000011 1.57749991 1.53249981 1.71251011 1.48750001 1.89249941 1.48750001 2.12500001 1.48750001 2.34999991 1.53249981 2.52250001 1.62250021 2.65749981 1.73500021 2.81499961 1.89250021 2.89749961 2.11000021 2.89749961 2.26750001 2.89749961 2.39500051 2.85250001 2.4925001 2.75499971 2.58999981 2.65749941 2.64250001 2.53749951 2.65000021 2.38749941L2.14750001 2.38749941 2.14750001 2.02749921 3.09250021 2.03500031 3.09250021 2.03500031z"/>
      <polygon points="3.902 1 3.902 3.25 3.46 3.25 3.46 1"/>
      <path fill-rule="nonzero" d="M5.77749972 2.72499991C5.75499962 2.82250021 5.71000002 2.90500021 5.65000012 2.98751021 5.50000002 3.18999961 5.29000002 3.28750991 5.01249982 3.28750991 4.76499992 3.28750991 4.56250002 3.20499991 4.41249992 3.04750011 4.33750012 2.97250031 4.28500032 2.87500001 4.23999982 2.77000051 4.19499972 2.65750031 4.17999942 2.53000071 4.17999942 2.41000031 4.17999942 2.16250991 4.24749952 1.96000031 4.38999992 1.79500051 4.54749972 1.60750061 4.75000002 1.51750061 4.99750042 1.51750061 5.19999982 1.51750061 5.37250042 1.57750081 5.51499982 1.70500061 5.61999942 1.79500061 5.68750002 1.90750051 5.73999982 2.03500081 5.79249962 2.16250131 5.80749942 2.32750081 5.80749942 2.53000071L4.63749892 2.53000071C4.64499952 2.61250071 4.65249882 2.68000081 4.67499882 2.73250061 4.73499922 2.88250071 4.84749892 2.95000081 5.01999952 2.95000081 5.10250002 2.95000081 5.16999912 2.93500091 5.22249892 2.89750101 5.27499872 2.86000061 5.31999922 2.80000071 5.34999902 2.72500041L5.77749972 2.72499991 5.77749972 2.72499991zM5.34249972 2.23000001C5.33499912 2.14750001 5.31250002 2.07999991 5.29000002 2.02750021 5.26000022 1.97500061 5.22250032 1.93000011 5.16999912 1.90000061 5.11749842 1.87000111 5.05749942 1.85500071 4.99749902 1.85500071 4.89999872 1.85500071 4.81749962 1.88500071 4.74999912 1.95250081 4.68249802 2.02000091 4.64499962 2.11000061 4.63749892 2.22250081L5.34249982 2.22250081 5.34249982 2.23000001 5.34249972 2.23000001zM6.52750023 1L6.52750023 1.40500021 6.08500003 1.40500021 6.08500003 1 6.52750023 1zM6.52750023 1.56999991L6.52750023 3.25000001 6.08500003 3.25000001 6.08500003 1.56999991 6.52750023 1.56999991z"/>
      <path d="M8.24500083,2.05749991 L7.82499983,2.05749991 C7.81749923,1.99749971 7.80249983,1.95999961 7.77999973,1.93000011 C7.73499873,1.86999991 7.64499953,1.84000041 7.52499963,1.84000041 C7.44249913,1.84000041 7.38250063,1.85500001 7.34500023,1.88500021 C7.30750083,1.91500041 7.27750113,1.95250031 7.27750113,2.00500011 C7.27750113,2.05749991 7.30000113,2.10250041 7.35250093,2.12500001 C7.40500073,2.14749961 7.51000123,2.17749981 7.68250083,2.21499971 C7.89999963,2.25999981 8.05750083,2.31251001 8.14750003,2.37999971 C8.26000023,2.45499951 8.32000063,2.57499941 8.32000063,2.73249921 C8.32000063,2.91249951 8.25250053,3.04749931 8.11000063,3.15249931 C7.97500043,3.24999951 7.78750043,3.29499911 7.56250003,3.29499911 C7.28499983,3.29499911 7.07499983,3.22749901 6.94750023,3.08499911 C6.85750013,2.98749881 6.81250003,2.85999921 6.79750063,2.70249941 L7.22500043,2.70249941 C7.23250013,2.77749921 7.25499923,2.83749961 7.28499993,2.87499951 C7.34500033,2.94249961 7.43500053,2.97999951 7.57000073,2.97999951 C7.65999993,2.97999951 7.73500073,2.96499961 7.78750043,2.92749971 C7.84000013,2.88999981 7.87000093,2.83751001 7.87000093,2.77749961 C7.87000093,2.71749971 7.84749993,2.67999931 7.80250083,2.65000001 C7.75750173,2.62000031 7.66000183,2.58999961 7.51000133,2.55249971 C7.36750233,2.51499981 7.26250093,2.49249931 7.20250143,2.46999971 C7.14250103,2.44750011 7.09000123,2.42500011 7.03750143,2.40249961 C6.97750103,2.36499971 6.92500123,2.31999961 6.89500153,2.25249951 C6.86500183,2.18499941 6.84250163,2.11749941 6.84250163,2.03499981 C6.84250163,1.86249941 6.91750143,1.72749971 7.06000133,1.63749931 C7.18000213,1.56249951 7.34500113,1.52499931 7.55500213,1.52499931 C7.83250133,1.52499931 8.03500163,1.59249941 8.15500153,1.73499961 C8.19999983,1.81000021 8.23750023,1.92250011 8.24500083,2.05749991 Z"/>
    </g>
  </g>
</svg>
