<svg xmlns="http://www.w3.org/2000/svg" width="24" height="24" viewBox="0 0 24 24">
  <g fill="none" fill-rule="evenodd">
    <path fill="#2D327D" d="M22.5,0 L1.5,0 C0.675000003,0 0,0.675000003 0,1.5 L0,22.5 C0,23.3250009 0.675000003,24 1.5,24 L22.5,24 C23.3250009,24 24,23.3250009 24,22.5 L24,1.5 C24,0.675000003 23.3250009,0 22.5,0 Z"/>
    <g fill="#FFF" transform="translate(2 3)">
      <path fill-rule="nonzero" d="M14.6275006,7.87500003 L12.0625011,7.87500003 C11.8225012,6.83250053 11.2300005,6.31499963 10.2925005,6.31499963 C9.29500014,6.31499963 8.59000114,6.92999943 8.17000013,8.15250023 C7.99750043,8.64750004 7.86250023,9.40499974 7.75750063,10.4099998 C8.16250033,9.86250974 8.59749984,9.46500014 9.05500034,9.22500034 C9.51250084,8.98500054 10.0675011,8.86499974 10.7125015,8.86499974 C11.9800005,8.86499974 13.000001,9.31499954 13.7650014,10.2150001 C14.5000001,11.0625095 14.8600007,12.1274996 14.8600007,13.4099999 C14.8600007,14.932499 14.3650018,16.1474991 13.3825017,17.0774994 C12.4975015,17.9099999 11.4325018,18.3224983 10.1875019,18.3224983 C8.59750274,18.3224983 7.35250193,17.7224998 6.46750163,16.5149994 C5.58250142,15.3149986 5.14000222,13.6349983 5.14000222,11.4824981 C5.14000222,9.17999834 5.61250202,7.37999813 6.55750173,6.07499783 C7.47250173,4.81499762 8.72500124,4.18499792 10.3150004,4.18499792 C11.8075007,4.18499792 12.9550008,4.68749752 13.7500009,5.69249812 C14.2075006,6.27000053 14.5000001,6.99750043 14.6275006,7.87500003 Z M10.0600004,10.9650002 C9.41499994,10.9650002 8.89750004,11.2350007 8.52250004,11.7749997 C8.17749973,12.2549993 8.00500103,12.825 8.00500103,13.4925005 C8.00500103,14.1524984 8.17750073,14.7225 8.53000064,15.217499 C8.91250124,15.7649996 9.43750094,16.0424998 10.0974998,16.0424998 C10.7425003,16.0424998 11.2600002,15.779999 11.6575002,15.2549994 C12.0249997,14.7599986 12.2124997,14.1825011 12.2124997,13.5074999 C12.2124997,12.8475001 12.0475007,12.2850001 11.7174997,11.8200008 C11.3049994,11.2575006 10.7575006,10.9650002 10.0600004,10.9650002 Z"/>
      <polygon points="3.032 0 2.282 2.25 1.727 2.25 .992 0 1.502 0 2.005 1.688 2.515 0"/>
      <path fill-rule="nonzero" d="M3.87250042.525000102C4.12000032.525000102 4.31500052.607499803 4.47250032.764999903 4.62250042.922499704 4.70500092 1.1399999 4.70500092 1.40249971 4.70500092 1.67999941 4.62250042 1.89749961 4.45750052 2.06251001 4.30750042 2.21251011 4.10500052 2.29500011 3.85750062 2.29500011 3.59500031 2.29500011 3.38500031 2.21251011 3.23500021 2.04000001 3.08500001 1.87500001 3.01000021 1.66500001 3.01000021 1.40999981 3.01000021 1.1549996 3.08500001.952499904 3.22750041.787499403 3.38500021.614999803 3.60250002.525000102 3.87250042.525000102zM3.84999992.869999904C3.73000002.869999904 3.63999992.914999704 3.56499961 1.0125098 3.49749951 1.1100001 3.45999961 1.23751021 3.45999961 1.41000031 3.45999961 1.58250041 3.49749951 1.71750021 3.56499961 1.80750031 3.63999992 1.89750001 3.73750022 1.95000081 3.85750012 1.95000081 3.96999982 1.95000081 4.06750012 1.90500071 4.13499982 1.82250071 4.20999962 1.72500041 4.24749952 1.59000111 4.24749952 1.41000081 4.24749952 1.24500081 4.20999962 1.1100006 4.14249952 1.0200009 4.08250002.922500104 3.97750002.869999904 3.84999992.869999904zM5.44750022 5.55111512e-17L5.44750022.405000202 5.00500062.405000202 5.00500062 5.55111512e-17 5.44750022 5.55111512e-17zM5.44750022.569999902L5.44750022 2.25000001 5.00500062 2.25000001 5.00500062.569999902 5.44750022.569999902zM7.32250023 1.72499991C7.30000023 1.82250021 7.25500103 1.90500021 7.19500063 1.98751021 7.04500013 2.18999961 6.83500003 2.28750991 6.55750083 2.28750991 6.31000043 2.28750991 6.10750003 2.20499991 5.95750042 2.04750011 5.88250062 1.97250031 5.83000092 1.87500001 5.78500032 1.77000051 5.73999982 1.65750031 5.72499992 1.53000071 5.72499992 1.41000031 5.72499992 1.1625099 5.79249952.960000304 5.93500042.795000503 6.09250073.607500503 6.29500013.517500602 6.54250053.517500602 6.74500083.517500602 6.91750053.577500802 7.06000043.705000603 7.16500003.795000603 7.23250013.907500504 7.28499983 1.0350008 7.33749963 1.1625013 7.35250003 1.32750081 7.35250003 1.53000071L6.17500023 1.53000071C6.18250083 1.61250071 6.18999963 1.68000081 6.21249963 1.73250061 6.27250003 1.88250061 6.38500023 1.95000081 6.55750083 1.95000081 6.64000133 1.95000081 6.70750043 1.93500091 6.76000023 1.89750101 6.81250003 1.86000061 6.85750013 1.80000071 6.88749983 1.72500041L7.32250023 1.72499991 7.32250023 1.72499991zM6.89500053 1.23000001C6.88749983 1.1475 6.86500073 1.0799999 6.84250073 1.0275002 6.81250103.975000604 6.77500153.930000104 6.72249983.900000604 6.66999913.870001104 6.61000063.855000703 6.55000023.855000703 6.45249943.855000703 6.37000083.885000704 6.30249983.952500804 6.23499883 1.0200009 6.19750033 1.1100006 6.18999963 1.2225008L6.89500053 1.2225008 6.89500053 1.23000001z"/>
    </g>
  </g>
</svg>
