<svg xmlns="http://www.w3.org/2000/svg" width="24" height="24" viewBox="0 0 24 24">
  <g fill="none" fill-rule="evenodd">
    <path fill="#2D327D" d="M22.5,0 L1.5,0 C0.675000003,0 0,0.675000003 0,1.5 L0,22.5 C0,23.3250009 0.675000003,24 1.5,24 L22.5,24 C23.3250009,24 24,23.3250009 24,22.5 L24,1.5 C24,0.675000003 23.3250009,0 22.5,0 Z"/>
    <g fill="#FFF" transform="translate(2 3)">
      <path fill-rule="nonzero" d="M13.8549996,9.56250954 L11.7174997,9.56250954 C11.5149994,8.69249914 11.0275001,8.26499943 10.2399997,8.26499943 C9.40749924,8.26499943 8.82250024,8.77499964 8.46999924,9.79499914 C8.32749933,10.2074995 8.20749943,10.8374986 8.12499893,11.6774997 C8.46249854,11.2199992 8.82249914,10.8899993 9.20499794,10.6949996 C9.58749854,10.4924993 10.0449981,10.3949994 10.584998,10.3949994 C11.6424979,10.3949994 12.4899978,10.7699994 13.1274986,11.5199994 C13.7349987,12.2249985 14.0424976,13.1175003 14.0424976,14.1824989 C14.0424976,15.4499969 13.6299982,16.4699974 12.812499,17.2349987 C12.0774984,17.9249992 11.1849993,18.2699985 10.1499985,18.2699985 C8.82249914,18.2699985 7.78749833,17.767498 7.05249873,16.7699985 C6.31749813,15.7649993 5.94249812,14.3699989 5.94249812,12.5774984 C5.94249812,10.6574982 6.33999813,9.15749824 7.12749853,8.06999773 C7.89249793,7.01999853 8.93499934,6.49499793 10.2549981,6.49499793 C11.4999989,6.49499793 12.4524984,6.91499893 13.1124973,7.74749753 C13.5024997,8.22000033 13.7500001,8.82749944 13.8549996,9.56250954 Z M10.0524998,12.1425 C9.51249984,12.1425 9.08500014,12.3674994 8.76999954,12.8174992 C8.48499874,13.2149983 8.34249973,13.6949997 8.34249973,14.25 C8.34249973,14.7974987 8.48499874,15.2775002 8.77750014,15.6900005 C9.09249974,16.147501 9.52750014,16.3725013 10.0824995,16.3725013 C10.6224995,16.3725013 11.0574989,16.1550025 11.3799992,15.7200011 C11.6875,15.3075007 11.8449994,14.8275012 11.8449994,14.2650012 C11.8449994,13.7175025 11.7099992,13.2450007 11.432499,12.8550004 C11.0874996,12.3750001 10.6299992,12.1425 10.0524998,12.1425 Z"/>
      <polygon points="3.032 0 2.282 2.25 1.727 2.25 .992 0 1.502 0 2.005 1.688 2.515 0"/>
      <path fill-rule="nonzero" d="M3.87250042.525000102C4.12000032.525000102 4.31500052.607499803 4.47250032.764999903 4.62250042.922499704 4.70500092 1.1399999 4.70500092 1.40249971 4.70500092 1.67999941 4.62250042 1.89749961 4.45750052 2.06251001 4.30750042 2.21251011 4.10500052 2.29500011 3.85750062 2.29500011 3.59500031 2.29500011 3.38500031 2.21251011 3.23500021 2.04000001 3.08500001 1.87500001 3.01000021 1.66500001 3.01000021 1.40999981 3.01000021 1.1549996 3.08500001.952499904 3.22750041.787499403 3.38500021.614999803 3.60250002.525000102 3.87250042.525000102zM3.84999992.869999904C3.73000002.869999904 3.63999992.914999704 3.56499961 1.0125098 3.49749951 1.1100001 3.45999961 1.23751021 3.45999961 1.41000031 3.45999961 1.58250041 3.49749951 1.71750021 3.56499961 1.80750031 3.63999992 1.89750001 3.73750022 1.95000081 3.85750012 1.95000081 3.96999982 1.95000081 4.06750012 1.90500071 4.13499982 1.82250071 4.20999962 1.72500041 4.24749952 1.59000111 4.24749952 1.41000081 4.24749952 1.24500081 4.20999962 1.1100006 4.14249952 1.0200009 4.08250002.922500104 3.97750002.869999904 3.84999992.869999904zM5.44750022 5.55111512e-17L5.44750022.405000202 5.00500062.405000202 5.00500062 5.55111512e-17 5.44750022 5.55111512e-17zM5.44750022.569999902L5.44750022 2.25000001 5.00500062 2.25000001 5.00500062.569999902 5.44750022.569999902zM7.32250023 1.72499991C7.30000023 1.82250021 7.25500103 1.90500021 7.19500063 1.98751021 7.04500013 2.18999961 6.83500003 2.28750991 6.55750083 2.28750991 6.31000043 2.28750991 6.10750003 2.20499991 5.95750042 2.04750011 5.88250062 1.97250031 5.83000092 1.87500001 5.78500032 1.77000051 5.73999982 1.65750031 5.72499992 1.53000071 5.72499992 1.41000031 5.72499992 1.1625099 5.79249952.960000304 5.93500042.795000503 6.09250073.607500503 6.29500013.517500602 6.54250053.517500602 6.74500083.517500602 6.91750053.577500802 7.06000043.705000603 7.16500003.795000603 7.23250013.907500504 7.28499983 1.0350008 7.33749963 1.1625013 7.35250003 1.32750081 7.35250003 1.53000071L6.17500023 1.53000071C6.18250083 1.61250071 6.18999963 1.68000081 6.21249963 1.73250061 6.27250003 1.88250061 6.38500023 1.95000081 6.55750083 1.95000081 6.64000133 1.95000081 6.70750043 1.93500091 6.76000023 1.89750101 6.81250003 1.86000061 6.85750013 1.80000071 6.88749983 1.72500041L7.32250023 1.72499991 7.32250023 1.72499991zM6.89500053 1.23000001C6.88749983 1.1475 6.86500073 1.0799999 6.84250073 1.0275002 6.81250103.975000604 6.77500153.930000104 6.72249983.900000604 6.66999913.870001104 6.61000063.855000703 6.55000023.855000703 6.45249943.855000703 6.37000083.885000704 6.30249983.952500804 6.23499883 1.0200009 6.19750033 1.1100006 6.18999963 1.2225008L6.89500053 1.2225008 6.89500053 1.23000001z"/>
    </g>
  </g>
</svg>
