<svg xmlns="http://www.w3.org/2000/svg" width="24" height="24" viewBox="0 0 24 24">
  <g fill="none" fill-rule="evenodd">
    <path fill="#2D327D" d="M22.5,0 L1.5,0 C0.675000003,0 0,0.675000003 0,1.5 L0,22.5 C0,23.3250009 0.675000003,24 1.5,24 L22.5,24 C23.3250009,24 24,23.3250009 24,22.5 L24,1.5 C24,0.675000003 23.3250009,0 22.5,0 Z"/>
    <g fill="#FFF" transform="translate(2 3)">
      <path fill-rule="nonzero" d="M7.90750033,11.9625101 C7.38250073,11.7825003 6.98500063,11.4899998 6.70750053,11.0774994 C6.43000033,10.665 6.28750043,10.1699991 6.28750043,9.58500004 C6.28750043,8.61000064 6.68500043,7.83751013 7.48750023,7.25249953 C8.19249923,6.74249933 9.03250034,6.47999953 10.0075007,6.47999953 C11.1175004,6.47999953 12.017501,6.78750993 12.7225,7.39499953 C13.3899995,7.97249893 13.7200004,8.67749984 13.7200004,9.52499874 C13.7200004,10.1174984 13.5775014,10.619999 13.3000003,11.039999 C13.0149995,11.4599991 12.6174995,11.767498 12.1000005,11.954998 C12.5049993,12.0749989 12.8350002,12.2249986 13.0900003,12.4124986 C13.8024999,12.9299985 14.1625005,13.6875097 14.1625005,14.677498 C14.1625005,15.8174993 13.7275001,16.7324983 12.8500005,17.4074975 C12.1149999,17.9774991 11.1625004,18.262497 10.0075007,18.262497 C8.75500114,18.262497 7.75000013,17.9474965 7.00750073,17.324997 C6.23500073,16.6724968 5.84500032,15.8174973 5.84500032,14.7674981 C5.84500032,13.7774964 6.19000063,13.012497 6.87250053,12.4649974 C7.17999943,12.2325002 7.52499963,12.0600005 7.90750033,11.9625101 Z M9.95499994,12.8100005 C9.39999964,12.8100005 8.94999984,12.9825002 8.59749894,13.3199998 C8.24499893,13.6575013 8.07249933,14.1000005 8.07249933,14.6324998 C8.07249933,15.1800004 8.25249873,15.6299993 8.60499964,15.9674989 C8.96500024,16.3125097 9.42249884,16.4849988 9.99249944,16.4849988 C10.6374999,16.4849988 11.125,16.2974988 11.4474993,15.9149991 C11.7624989,15.5474988 11.9199991,15.1274987 11.9199991,14.6549989 C11.9199991,14.114998 11.7399997,13.6649991 11.3799991,13.3199998 C11.0349998,12.9750005 10.5625,12.8100005 9.95499994,12.8100005 Z M9.97000034,8.23500063 C9.47500044,8.23500063 9.07750134,8.37000083 8.77750114,8.64750004 C8.47750094,8.92500024 8.32000063,9.28499984 8.32000063,9.72749994 C8.32000063,10.1924991 8.47000024,10.5674991 8.77750114,10.8449993 C9.08500104,11.1224995 9.49000074,11.2649994 10.0075006,11.2649994 C10.5175008,11.2649994 10.9225006,11.1299992 11.2224998,10.8525 C11.5225,10.5749998 11.665,10.1999998 11.665,9.71999934 C11.665,9.25499914 11.5149994,8.88749884 11.2150002,8.62499904 C10.9225006,8.36250973 10.5024996,8.23500063 9.97000034,8.23500063 Z"/>
      <polygon points="3.032 0 2.282 2.25 1.727 2.25 .992 0 1.502 0 2.005 1.688 2.515 0"/>
      <path fill-rule="nonzero" d="M3.87250042.525000102C4.12000032.525000102 4.31500052.607499803 4.47250032.764999903 4.62250042.922499704 4.70500092 1.1399999 4.70500092 1.40249971 4.70500092 1.67999941 4.62250042 1.89749961 4.45750052 2.06251001 4.30750042 2.21251011 4.10500052 2.29500011 3.85750062 2.29500011 3.59500031 2.29500011 3.38500031 2.21251011 3.23500021 2.04000001 3.08500001 1.87500001 3.01000021 1.66500001 3.01000021 1.40999981 3.01000021 1.1549996 3.08500001.952499904 3.22750041.787499403 3.38500021.614999803 3.60250002.525000102 3.87250042.525000102zM3.84999992.869999904C3.73000002.869999904 3.63999992.914999704 3.56499961 1.0125098 3.49749951 1.1100001 3.45999961 1.23751021 3.45999961 1.41000031 3.45999961 1.58250041 3.49749951 1.71750021 3.56499961 1.80750031 3.63999992 1.89750001 3.73750022 1.95000081 3.85750012 1.95000081 3.96999982 1.95000081 4.06750012 1.90500071 4.13499982 1.82250071 4.20999962 1.72500041 4.24749952 1.59000111 4.24749952 1.41000081 4.24749952 1.24500081 4.20999962 1.1100006 4.14249952 1.0200009 4.08250002.922500104 3.97750002.869999904 3.84999992.869999904zM5.44750022 5.55111512e-17L5.44750022.405000202 5.00500062.405000202 5.00500062 5.55111512e-17 5.44750022 5.55111512e-17zM5.44750022.569999902L5.44750022 2.25000001 5.00500062 2.25000001 5.00500062.569999902 5.44750022.569999902zM7.32250023 1.72499991C7.30000023 1.82250021 7.25500103 1.90500021 7.19500063 1.98751021 7.04500013 2.18999961 6.83500003 2.28750991 6.55750083 2.28750991 6.31000043 2.28750991 6.10750003 2.20499991 5.95750042 2.04750011 5.88250062 1.97250031 5.83000092 1.87500001 5.78500032 1.77000051 5.73999982 1.65750031 5.72499992 1.53000071 5.72499992 1.41000031 5.72499992 1.1625099 5.79249952.960000304 5.93500042.795000503 6.09250073.607500503 6.29500013.517500602 6.54250053.517500602 6.74500083.517500602 6.91750053.577500802 7.06000043.705000603 7.16500003.795000603 7.23250013.907500504 7.28499983 1.0350008 7.33749963 1.1625013 7.35250003 1.32750081 7.35250003 1.53000071L6.17500023 1.53000071C6.18250083 1.61250071 6.18999963 1.68000081 6.21249963 1.73250061 6.27250003 1.88250061 6.38500023 1.95000081 6.55750083 1.95000081 6.64000133 1.95000081 6.70750043 1.93500091 6.76000023 1.89750101 6.81250003 1.86000061 6.85750013 1.80000071 6.88749983 1.72500041L7.32250023 1.72499991 7.32250023 1.72499991zM6.89500053 1.23000001C6.88749983 1.1475 6.86500073 1.0799999 6.84250073 1.0275002 6.81250103.975000604 6.77500153.930000104 6.72249983.900000604 6.66999913.870001104 6.61000063.855000703 6.55000023.855000703 6.45249943.855000703 6.37000083.885000704 6.30249983.952500804 6.23499883 1.0200009 6.19750033 1.1100006 6.18999963 1.2225008L6.89500053 1.2225008 6.89500053 1.23000001z"/>
    </g>
  </g>
</svg>
