<svg xmlns="http://www.w3.org/2000/svg" width="24" height="24" viewBox="0 0 24 24">
  <g fill="none" fill-rule="evenodd">
    <path fill="#2D327D" d="M22.5,0 L1.5,0 C0.675000003,0 0,0.675000003 0,1.5 L0,22.5 C0,23.3250009 0.675000003,24 1.5,24 L22.5,24 C23.3250009,24 24,23.3250009 24,22.5 L24,1.5 C24,0.675000003 23.3250009,0 22.5,0 Z"/>
    <g fill="#FFF" transform="translate(2 3)">
      <path fill-rule="nonzero" d="M7.48750023,10.7549992 C6.85750013,10.5375099 6.37749963,10.1849991 6.04000003,9.69749934 C5.70249992,9.20249854 5.53749992,8.60999874 5.53749992,7.90499983 C5.53749992,6.73499883 6.01749993,5.80499942 6.97750003,5.10749922 C7.82499983,4.49249942 8.83749974,4.18499912 10.0075007,4.18499912 C11.3350001,4.18499912 12.4225008,4.55249892 13.2625,5.27999982 C14.0650007,5.96999942 14.4624998,6.81749923 14.4624998,7.83751023 C14.4624998,8.54249964 14.2900011,9.14999974 13.9524996,9.65250024 C13.615,10.1549998 13.1350004,10.5225001 12.5125,10.7475005 C13.0000001,10.8899994 13.3975001,11.0700006 13.705,11.2950001 C14.5599995,11.9175005 14.9874993,12.8249999 14.9874993,14.0175 C14.9874993,15.3899995 14.4624997,16.4849988 13.4125004,17.2950002 C12.5275003,17.977501 11.3874998,18.3225022 10,18.3225022 C8.49249944,18.3225022 7.29249953,17.9475022 6.39999963,17.1975022 C5.47000022,16.4175015 5.00499962,15.3900014 5.00499962,14.1225014 C5.00499962,12.937501 5.41749952,12.0150013 6.24249933,11.3625011 C6.61749943,11.0774994 7.02999973,10.875 7.48750023,10.7549992 Z M9.94750024,11.7674999 C9.28000074,11.7674999 8.73999974,11.9699993 8.32000063,12.3824998 C7.89999963,12.7949992 7.69000053,13.3125096 7.69000053,13.9574987 C7.69000053,14.6174966 7.90000153,15.1499979 8.33500103,15.5624982 C8.76250084,15.9749986 9.31750204,16.177498 10.000001,16.177498 C10.772501,16.177498 11.357502,15.9524995 11.7475014,15.4949991 C12.1225015,15.0599996 12.3100015,14.5499975 12.3100015,13.9799978 C12.3100015,13.3274957 12.0925018,12.7949974 11.6650009,12.3749983 C11.2450008,11.9775 10.6750002,11.7674999 9.94750024,11.7674999 Z M9.97000034,6.27750023 C9.37750064,6.27750023 8.90500074,6.44249923 8.53750044,6.77250013 C8.17749983,7.10250003 7.98999983,7.53751003 7.98999983,8.07000073 C7.98999983,8.63250074 8.16999923,9.07499994 8.53750044,9.41251004 C8.90499974,9.75000004 9.39249994,9.91500004 10.0075006,9.91500004 C10.6225004,9.91500004 11.1100006,9.75000004 11.4624996,9.41999924 C11.8225002,9.09000024 11.9950008,8.63249984 11.9950008,8.06249913 C11.9950008,7.49999913 11.8150005,7.06499873 11.4550008,6.74999913 C11.0950003,6.43499953 10.6075001,6.27750023 9.97000034,6.27750023 Z"/>
      <polygon points="3.032 0 2.282 2.25 1.727 2.25 .992 0 1.502 0 2.005 1.688 2.515 0"/>
      <path fill-rule="nonzero" d="M3.87250042.525000102C4.12000032.525000102 4.31500052.607499803 4.47250032.764999903 4.62250042.922499704 4.70500092 1.1399999 4.70500092 1.40249971 4.70500092 1.67999941 4.62250042 1.89749961 4.45750052 2.06251001 4.30750042 2.21251011 4.10500052 2.29500011 3.85750062 2.29500011 3.59500031 2.29500011 3.38500031 2.21251011 3.23500021 2.04000001 3.08500001 1.87500001 3.01000021 1.66500001 3.01000021 1.40999981 3.01000021 1.1549996 3.08500001.952499904 3.22750041.787499403 3.38500021.614999803 3.60250002.525000102 3.87250042.525000102zM3.84999992.869999904C3.73000002.869999904 3.63999992.914999704 3.56499961 1.0125098 3.49749951 1.1100001 3.45999961 1.23751021 3.45999961 1.41000031 3.45999961 1.58250041 3.49749951 1.71750021 3.56499961 1.80750031 3.63999992 1.89750001 3.73750022 1.95000081 3.85750012 1.95000081 3.96999982 1.95000081 4.06750012 1.90500071 4.13499982 1.82250071 4.20999962 1.72500041 4.24749952 1.59000111 4.24749952 1.41000081 4.24749952 1.24500081 4.20999962 1.1100006 4.14249952 1.0200009 4.08250002.922500104 3.97750002.869999904 3.84999992.869999904zM5.44750022 5.55111512e-17L5.44750022.405000202 5.00500062.405000202 5.00500062 5.55111512e-17 5.44750022 5.55111512e-17zM5.44750022.569999902L5.44750022 2.25000001 5.00500062 2.25000001 5.00500062.569999902 5.44750022.569999902zM7.32250023 1.72499991C7.30000023 1.82250021 7.25500103 1.90500021 7.19500063 1.98751021 7.04500013 2.18999961 6.83500003 2.28750991 6.55750083 2.28750991 6.31000043 2.28750991 6.10750003 2.20499991 5.95750042 2.04750011 5.88250062 1.97250031 5.83000092 1.87500001 5.78500032 1.77000051 5.73999982 1.65750031 5.72499992 1.53000071 5.72499992 1.41000031 5.72499992 1.1625099 5.79249952.960000304 5.93500042.795000503 6.09250073.607500503 6.29500013.517500602 6.54250053.517500602 6.74500083.517500602 6.91750053.577500802 7.06000043.705000603 7.16500003.795000603 7.23250013.907500504 7.28499983 1.0350008 7.33749963 1.1625013 7.35250003 1.32750081 7.35250003 1.53000071L6.17500023 1.53000071C6.18250083 1.61250071 6.18999963 1.68000081 6.21249963 1.73250061 6.27250003 1.88250061 6.38500023 1.95000081 6.55750083 1.95000081 6.64000133 1.95000081 6.70750043 1.93500091 6.76000023 1.89750101 6.81250003 1.86000061 6.85750013 1.80000071 6.88749983 1.72500041L7.32250023 1.72499991 7.32250023 1.72499991zM6.89500053 1.23000001C6.88749983 1.1475 6.86500073 1.0799999 6.84250073 1.0275002 6.81250103.975000604 6.77500153.930000104 6.72249983.900000604 6.66999913.870001104 6.61000063.855000703 6.55000023.855000703 6.45249943.855000703 6.37000083.885000704 6.30249983.952500804 6.23499883 1.0200009 6.19750033 1.1100006 6.18999963 1.2225008L6.89500053 1.2225008 6.89500053 1.23000001z"/>
    </g>
  </g>
</svg>
