<svg xmlns="http://www.w3.org/2000/svg" width="24" height="24" viewBox="0 0 24 24">
  <g fill="none" fill-rule="evenodd">
    <path fill="#2D327D" d="M22.5,0 L1.5,0 C0.675000003,0 0,0.675000003 0,1.5 L0,22.5 C0,23.3250009 0.675000003,24 1.5,24 L22.5,24 C23.3250009,24 24,23.3250009 24,22.5 L24,1.5 C24,0.675000003 23.3250009,0 22.5,0 Z"/>
    <g fill="#FFF" transform="translate(2 3)">
      <path fill-rule="nonzero" d="M6.14500053,15.1800004 L8.26750093,15.1800004 C8.44000064,16.0499993 8.94999982,16.4849988 9.78250034,16.4849988 C10.2550011,16.4849988 10.6374998,16.3274995 10.9300003,16.0049993 C11.2224998,15.682501 11.4550009,15.1875097 11.6125011,14.5125104 C11.7175006,14.0849992 11.7925005,13.5900003 11.8375015,13.0424996 C11.4925003,13.5224991 11.1400013,13.8675004 10.7800007,14.0699998 C10.4200001,14.2725011 9.97750094,14.3775006 9.46000004,14.3775006 C8.63500024,14.3775006 7.91499993,14.1375104 7.30750083,13.6575013 C6.88000103,13.3199998 6.55000023,12.8775006 6.31000043,12.3450003 C6.07000063,11.8125095 5.94999982,11.2200002 5.94999982,10.590001 C5.94999982,9.32250114 6.38500023,8.29500003 7.24750043,7.51500123 C7.98999983,6.84000103 8.88250064,6.50250043 9.92500024,6.50250043 C10.5625,6.50250043 11.1549997,6.64500033 11.7024994,6.93000023 C12.2424995,7.21500103 12.6999999,7.62750043 13.0749999,8.15250103 C13.7275001,9.09000104 14.0499993,10.4100016 14.0499993,12.1050005 C14.0499993,13.6725006 13.7649995,15.0150013 13.1875001,16.1175022 C12.4375001,17.5575027 11.3049994,18.2775001 9.79000004,18.2775001 C8.77750024,18.2775001 7.94499973,17.9999999 7.28499893,17.4375095 C6.62500003,16.8750001 6.24249943,16.1175004 6.14500053,15.1800004 Z M9.87999924,8.38500023 C9.39999974,8.38500023 8.98750024,8.58000084 8.65749944,8.97749994 C8.32749953,9.37499994 8.15499983,9.88500023 8.15499983,10.4999999 C8.15499983,10.9950007 8.27499973,11.4375094 8.51499954,11.8200005 C8.84499944,12.3450002 9.30249994,12.6150007 9.90250034,12.6150007 C10.4424993,12.6150007 10.8699991,12.397501 11.1924993,11.9700001 C11.4924994,11.5650005 11.6499996,11.085 11.6499996,10.5225 C11.6499996,9.93000034 11.4924993,9.43500044 11.1774998,9.02250004 C10.8549995,8.60250004 10.4200001,8.38500023 9.87999924,8.38500023 Z"/>
      <polygon points="3.032 0 2.282 2.25 1.727 2.25 .992 0 1.502 0 2.005 1.688 2.515 0"/>
      <path fill-rule="nonzero" d="M3.87250042.525000102C4.12000032.525000102 4.31500052.607499803 4.47250032.764999903 4.62250042.922499704 4.70500092 1.1399999 4.70500092 1.40249971 4.70500092 1.67999941 4.62250042 1.89749961 4.45750052 2.06251001 4.30750042 2.21251011 4.10500052 2.29500011 3.85750062 2.29500011 3.59500031 2.29500011 3.38500031 2.21251011 3.23500021 2.04000001 3.08500001 1.87500001 3.01000021 1.66500001 3.01000021 1.40999981 3.01000021 1.1549996 3.08500001.952499904 3.22750041.787499403 3.38500021.614999803 3.60250002.525000102 3.87250042.525000102zM3.84999992.869999904C3.73000002.869999904 3.63999992.914999704 3.56499961 1.0125098 3.49749951 1.1100001 3.45999961 1.23751021 3.45999961 1.41000031 3.45999961 1.58250041 3.49749951 1.71750021 3.56499961 1.80750031 3.63999992 1.89750001 3.73750022 1.95000081 3.85750012 1.95000081 3.96999982 1.95000081 4.06750012 1.90500071 4.13499982 1.82250071 4.20999962 1.72500041 4.24749952 1.59000111 4.24749952 1.41000081 4.24749952 1.24500081 4.20999962 1.1100006 4.14249952 1.0200009 4.08250002.922500104 3.97750002.869999904 3.84999992.869999904zM5.44750022 5.55111512e-17L5.44750022.405000202 5.00500062.405000202 5.00500062 5.55111512e-17 5.44750022 5.55111512e-17zM5.44750022.569999902L5.44750022 2.25000001 5.00500062 2.25000001 5.00500062.569999902 5.44750022.569999902zM7.32250023 1.72499991C7.30000023 1.82250021 7.25500103 1.90500021 7.19500063 1.98751021 7.04500013 2.18999961 6.83500003 2.28750991 6.55750083 2.28750991 6.31000043 2.28750991 6.10750003 2.20499991 5.95750042 2.04750011 5.88250062 1.97250031 5.83000092 1.87500001 5.78500032 1.77000051 5.73999982 1.65750031 5.72499992 1.53000071 5.72499992 1.41000031 5.72499992 1.1625099 5.79249952.960000304 5.93500042.795000503 6.09250073.607500503 6.29500013.517500602 6.54250053.517500602 6.74500083.517500602 6.91750053.577500802 7.06000043.705000603 7.16500003.795000603 7.23250013.907500504 7.28499983 1.0350008 7.33749963 1.1625013 7.35250003 1.32750081 7.35250003 1.53000071L6.17500023 1.53000071C6.18250083 1.61250071 6.18999963 1.68000081 6.21249963 1.73250061 6.27250003 1.88250061 6.38500023 1.95000081 6.55750083 1.95000081 6.64000133 1.95000081 6.70750043 1.93500091 6.76000023 1.89750101 6.81250003 1.86000061 6.85750013 1.80000071 6.88749983 1.72500041L7.32250023 1.72499991 7.32250023 1.72499991zM6.89500053 1.23000001C6.88749983 1.1475 6.86500073 1.0799999 6.84250073 1.0275002 6.81250103.975000604 6.77500153.930000104 6.72249983.900000604 6.66999913.870001104 6.61000063.855000703 6.55000023.855000703 6.45249943.855000703 6.37000083.885000704 6.30249983.952500804 6.23499883 1.0200009 6.19750033 1.1100006 6.18999963 1.2225008L6.89500053 1.2225008 6.89500053 1.23000001z"/>
    </g>
  </g>
</svg>
