<svg xmlns="http://www.w3.org/2000/svg" width="24" height="24" viewBox="0 0 24 24">
  <g fill="none" fill-rule="evenodd">
    <path fill="#2D327D" d="M22.5,0 L1.5,0 C0.675000003,0 0,0.675000003 0,1.5 L0,22.5 C0,23.3250009 0.675000003,24 1.5,24 L22.5,24 C23.3250009,24 24,23.3250009 24,22.5 L24,1.5 C24,0.675000003 23.3250009,0 22.5,0 Z"/>
    <g fill="#FFF" transform="translate(2 3)">
      <path fill-rule="nonzero" d="M5.37250042,14.6099988 L7.92250063,14.6099988 C8.13250063,15.6524983 8.73999984,16.177498 9.73750024,16.177498 C10.3000002,16.177498 10.7649994,15.9824983 11.1174994,15.5999986 C11.4699994,15.217497 11.7399998,14.6174966 11.9349995,13.8074991 C12.0549995,13.2899992 12.1449996,12.7049982 12.2050001,12.0449983 C11.7924996,12.6224977 11.3724995,13.0349981 10.9375001,13.2749978 C10.5024997,13.5149995 9.97750014,13.6424981 9.35499964,13.6424981 C8.36499983,13.6424981 7.50249963,13.3499986 6.76750003,12.7724973 C6.25749983,12.3674976 5.85999932,11.8424969 5.57499992,11.1974964 C5.29000092,10.552496 5.14750002,9.84749704 5.14750002,9.08999634 C5.14750002,7.56749633 5.66499992,6.33749673 6.70750043,5.39999672 C7.60000033,4.58999632 8.67250064,4.18499652 9.91750044,4.18499652 C10.6900004,4.18499652 11.3950004,4.35749712 12.0475006,4.70249642 C12.6999998,5.04749672 13.2475004,5.53499692 13.6899996,6.17249673 C14.4700012,7.29749673 14.8599987,8.87999724 14.8599987,10.9124965 C14.8599987,12.7949972 14.5149994,14.3999958 13.8249989,15.7274971 C12.9249993,17.4599972 11.5674982,18.3224964 9.74499794,18.3224964 C8.52999874,18.3224964 7.53249833,17.9849968 6.73749733,17.3174972 C5.94999982,16.6499997 5.49249942,15.7425004 5.37250042,14.6099988 Z M9.85750014,6.46500023 C9.28000074,6.46500023 8.79250054,6.70500003 8.38749983,7.17749983 C7.98999983,7.65749933 7.78750043,8.26499943 7.78750043,9.00749974 C7.78750043,9.60749914 7.92999943,10.1324997 8.22249993,10.5974989 C8.61250024,11.227499 9.16750054,11.5499992 9.88000114,11.5499992 C10.5250016,11.5499992 11.0425005,11.2949991 11.4325009,10.7774982 C11.7925006,10.289999 11.9800006,9.71249864 11.9800006,9.04499814 C11.9800006,8.33999823 11.7925006,7.73999873 11.4175006,7.24499793 C11.0200005,6.72000033 10.5024996,6.46500023 9.85750014,6.46500023 Z"/>
      <polygon points="3.032 0 2.282 2.25 1.727 2.25 .992 0 1.502 0 2.005 1.688 2.515 0"/>
      <path fill-rule="nonzero" d="M3.87250042.525000102C4.12000032.525000102 4.31500052.607499803 4.47250032.764999903 4.62250042.922499704 4.70500092 1.1399999 4.70500092 1.40249971 4.70500092 1.67999941 4.62250042 1.89749961 4.45750052 2.06251001 4.30750042 2.21251011 4.10500052 2.29500011 3.85750062 2.29500011 3.59500031 2.29500011 3.38500031 2.21251011 3.23500021 2.04000001 3.08500001 1.87500001 3.01000021 1.66500001 3.01000021 1.40999981 3.01000021 1.1549996 3.08500001.952499904 3.22750041.787499403 3.38500021.614999803 3.60250002.525000102 3.87250042.525000102zM3.84999992.869999904C3.73000002.869999904 3.63999992.914999704 3.56499961 1.0125098 3.49749951 1.1100001 3.45999961 1.23751021 3.45999961 1.41000031 3.45999961 1.58250041 3.49749951 1.71750021 3.56499961 1.80750031 3.63999992 1.89750001 3.73750022 1.95000081 3.85750012 1.95000081 3.96999982 1.95000081 4.06750012 1.90500071 4.13499982 1.82250071 4.20999962 1.72500041 4.24749952 1.59000111 4.24749952 1.41000081 4.24749952 1.24500081 4.20999962 1.1100006 4.14249952 1.0200009 4.08250002.922500104 3.97750002.869999904 3.84999992.869999904zM5.44750022 5.55111512e-17L5.44750022.405000202 5.00500062.405000202 5.00500062 5.55111512e-17 5.44750022 5.55111512e-17zM5.44750022.569999902L5.44750022 2.25000001 5.00500062 2.25000001 5.00500062.569999902 5.44750022.569999902zM7.32250023 1.72499991C7.30000023 1.82250021 7.25500103 1.90500021 7.19500063 1.98751021 7.04500013 2.18999961 6.83500003 2.28750991 6.55750083 2.28750991 6.31000043 2.28750991 6.10750003 2.20499991 5.95750042 2.04750011 5.88250062 1.97250031 5.83000092 1.87500001 5.78500032 1.77000051 5.73999982 1.65750031 5.72499992 1.53000071 5.72499992 1.41000031 5.72499992 1.1625099 5.79249952.960000304 5.93500042.795000503 6.09250073.607500503 6.29500013.517500602 6.54250053.517500602 6.74500083.517500602 6.91750053.577500802 7.06000043.705000603 7.16500003.795000603 7.23250013.907500504 7.28499983 1.0350008 7.33749963 1.1625013 7.35250003 1.32750081 7.35250003 1.53000071L6.17500023 1.53000071C6.18250083 1.61250071 6.18999963 1.68000081 6.21249963 1.73250061 6.27250003 1.88250061 6.38500023 1.95000081 6.55750083 1.95000081 6.64000133 1.95000081 6.70750043 1.93500091 6.76000023 1.89750101 6.81250003 1.86000061 6.85750013 1.80000071 6.88749983 1.72500041L7.32250023 1.72499991 7.32250023 1.72499991zM6.89500053 1.23000001C6.88749983 1.1475 6.86500073 1.0799999 6.84250073 1.0275002 6.81250103.975000604 6.77500153.930000104 6.72249983.900000604 6.66999913.870001104 6.61000063.855000703 6.55000023.855000703 6.45249943.855000703 6.37000083.885000704 6.30249983.952500804 6.23499883 1.0200009 6.19750033 1.1100006 6.18999963 1.2225008L6.89500053 1.2225008 6.89500053 1.23000001z"/>
    </g>
  </g>
</svg>
