<svg xmlns="http://www.w3.org/2000/svg" width="24" height="24" viewBox="0 0 24 24">
  <g fill="none" fill-rule="evenodd">
    <path fill="#2D327D" d="M22.5,0 L1.5,0 C0.675000003,0 0,0.675000003 0,1.5 L0,22.5 C0,23.3250009 0.675000003,24 1.5,24 L22.5,24 C23.3250009,24 24,23.3250009 24,22.5 L24,1.5 C24,0.675000003 23.3250009,0 22.5,0 Z"/>
    <g fill="#FFF" transform="translate(2 3)">
      <g transform="translate(2 6)">
        <path d="M5.35250002,0.757500603 L5.35250002,12.0000001 L3.11000011,12.0000001 L3.11000011,4.64249992 L2.30750041,4.64249992 L1.50500061,4.64249992 L0.725000403,4.64249992 L0.455000902,4.64249992 L0.455000902,3.01499941 C1.002501,3.00000001 1.45250081,2.93999961 1.79750061,2.84249971 C2.14250091,2.74499891 2.45750091,2.58751011 2.75000091,2.36250971 C3.16250131,2.04750061 3.44750111,1.50750061 3.59000111,0.757500603 L5.35250002,0.757500603 L5.35250002,0.757500603 Z"/>
        <path fill-rule="nonzero" d="M12.4325009,0.487509702 C13.2875004,0.487509702 14.0450001,0.750000003 14.6900006,1.27499961 C15.3350011,1.80000021 15.8075009,2.60249991 16.1000004,3.68999962 C16.3174992,4.52250012 16.4300003,5.42250062 16.4300003,6.39749913 C16.4300003,8.00999833 16.1450005,9.33750924 15.5674992,10.3799992 C15.2299996,10.9875097 14.7875004,11.4524994 14.2399979,11.7825013 C13.6924992,12.112509 13.0849991,12.2775003 12.4099999,12.2775003 C11.4949989,12.2775003 10.7074995,12.0000001 10.0549993,11.4449997 C8.89999964,10.4625092 8.31499953,8.78250124 8.31499953,6.39750003 C8.31499953,4.70249942 8.61499974,3.34500021 9.22249984,2.32499981 C9.56750104,1.73999981 10.0175008,1.29000001 10.5725002,0.975000404 C11.1350002,0.645000503 11.75,0.487509702 12.4325009,0.487509702 Z M12.3424989,2.38500021 C11.6074991,2.38500021 11.1049996,2.81250951 10.8349991,3.65999982 C10.6249991,4.33500002 10.5199995,5.28750992 10.5199995,6.50250053 C10.5199995,7.58250043 10.624999,8.44499974 10.8424997,9.09750174 C11.1199989,9.94499964 11.6299991,10.3650016 12.3799992,10.3650016 C13.0024987,10.3650016 13.4599991,10.0350017 13.7675,9.38249964 C14.0674992,8.72999944 14.2174989,7.72500033 14.2174989,6.37499993 C14.2174989,5.22749992 14.1124994,4.32000052 13.8950006,3.65999972 C13.6250001,2.81250951 13.1000005,2.38500021 12.3424989,2.38500021 Z"/>
      </g>
      <polygon points="3.032 0 2.282 2.25 1.727 2.25 .992 0 1.502 0 2.005 1.688 2.515 0"/>
      <path fill-rule="nonzero" d="M3.87250042.525000102C4.12000032.525000102 4.31500052.607499803 4.47250032.764999903 4.62250042.922499704 4.70500092 1.1399999 4.70500092 1.40249971 4.70500092 1.67999941 4.62250042 1.89749961 4.45750052 2.06251001 4.30750042 2.21251011 4.10500052 2.29500011 3.85750062 2.29500011 3.59500031 2.29500011 3.38500031 2.21251011 3.23500021 2.04000001 3.08500001 1.87500001 3.01000021 1.66500001 3.01000021 1.40999981 3.01000021 1.1549996 3.08500001.952499904 3.22750041.787499403 3.38500021.614999803 3.60250002.525000102 3.87250042.525000102zM3.84999992.869999904C3.73000002.869999904 3.63999992.914999704 3.56499961 1.0125098 3.49749951 1.1100001 3.45999961 1.23751021 3.45999961 1.41000031 3.45999961 1.58250041 3.49749951 1.71750021 3.56499961 1.80750031 3.63999992 1.89750001 3.73750022 1.95000081 3.85750012 1.95000081 3.96999982 1.95000081 4.06750012 1.90500071 4.13499982 1.82250071 4.20999962 1.72500041 4.24749952 1.59000111 4.24749952 1.41000081 4.24749952 1.24500081 4.20999962 1.1100006 4.14249952 1.0200009 4.08250002.922500104 3.97750002.869999904 3.84999992.869999904zM5.44750022 5.55111512e-17L5.44750022.405000202 5.00500062.405000202 5.00500062 5.55111512e-17 5.44750022 5.55111512e-17zM5.44750022.569999902L5.44750022 2.25000001 5.00500062 2.25000001 5.00500062.569999902 5.44750022.569999902zM7.32250023 1.72499991C7.30000023 1.82250021 7.25500103 1.90500021 7.19500063 1.98751021 7.04500013 2.18999961 6.83500003 2.28750991 6.55750083 2.28750991 6.31000043 2.28750991 6.10750003 2.20499991 5.95750042 2.04750011 5.88250062 1.97250031 5.83000092 1.87500001 5.78500032 1.77000051 5.73999982 1.65750031 5.72499992 1.53000071 5.72499992 1.41000031 5.72499992 1.1625099 5.79249952.960000304 5.93500042.795000503 6.09250073.607500503 6.29500013.517500602 6.54250053.517500602 6.74500083.517500602 6.91750053.577500802 7.06000043.705000603 7.16500003.795000603 7.23250013.907500504 7.28499983 1.0350008 7.33749963 1.1625013 7.35250003 1.32750081 7.35250003 1.53000071L6.17500023 1.53000071C6.18250083 1.61250071 6.18999963 1.68000081 6.21249963 1.73250061 6.27250003 1.88250061 6.38500023 1.95000081 6.55750083 1.95000081 6.64000133 1.95000081 6.70750043 1.93500091 6.76000023 1.89750101 6.81250003 1.86000061 6.85750013 1.80000071 6.88749983 1.72500041L7.32250023 1.72499991 7.32250023 1.72499991zM6.89500053 1.23000001C6.88749983 1.1475 6.86500073 1.0799999 6.84250073 1.0275002 6.81250103.975000604 6.77500153.930000104 6.72249983.900000604 6.66999913.870001104 6.61000063.855000703 6.55000023.855000703 6.45249943.855000703 6.37000083.885000704 6.30249983.952500804 6.23499883 1.0200009 6.19750033 1.1100006 6.18999963 1.2225008L6.89500053 1.2225008 6.89500053 1.23000001z"/>
    </g>
  </g>
</svg>
