<svg xmlns="http://www.w3.org/2000/svg" width="24" height="24" viewBox="0 0 24 24">
  <g fill="none" fill-rule="evenodd">
    <path fill="#2D327D" d="M22.5,0 L1.5,0 C0.675000003,0 0,0.675000003 0,1.5 L0,22.5 C0,23.3250009 0.675000003,24 1.5,24 L22.5,24 C23.3250009,24 24,23.3250009 24,22.5 L24,1.5 C24,0.675000003 23.3250009,0 22.5,0 Z"/>
    <g fill="#FFF" transform="translate(2 3)">
      <path d="M6.82749943 4.50749922L6.82749943 18.0000001 4.13499982 18.0000001 4.13499982 9.16500004 3.17499921 9.16500004 2.20750001 9.16500004 1.27749971 9.16500004.954999404 9.16500004.954999404 7.20749953C1.61499971 7.19249923 2.14749951 7.12499903 2.56749961 7.00499923 2.97999951 6.88499933 3.36249921 6.69749933 3.70749952 6.43499953 4.20249942 6.05249883 4.53999902 5.40749932 4.71249872 4.50749922L6.82749943 4.50749922 6.82749943 4.50749922zM19.0450002 15.6000005L19.0450002 18.0000001 9.32499984 18.0000001C9.32499984 17.2650014 9.44500064 16.5674993 9.67749984 15.9075013 9.91749964 15.2400018 10.2475004 14.6700002 10.682499 14.1900006 11.0124989 13.8225022 11.4025002 13.4625092 11.8525 13.1100007 12.2949993 12.7575017 13.1875001 12.1200019 14.5150014 11.1825018 15.1600019 10.732502 15.6100007 10.312501 15.8725015 9.93000224 16.1350023 9.54750254 16.2625028 9.09000204 16.2625028 8.58000184 16.2625028 7.98750213 16.0900041 7.50750163 15.7375032 7.14750103 15.392502 6.78000163 14.9350015 6.60000133 14.3650037 6.60000133 12.9775029 6.60000133 12.2575027 7.59750173 12.2125035 9.60000134L9.62500004 9.60000134C9.62500004 9.47250174 9.62500004 9.37500094 9.62500004 9.30750184 9.62500004 7.67250163 10.0825005 6.40500163 10.9975004 5.50500202 11.8899994 4.63500122 13.0450002 4.19250202 14.455 4.19250202 15.7075005 4.19250202 16.7574998 4.55250212 17.6049996 5.26500222 18.5200005 6.03750223 18.9774991 7.08000183 18.9774991 8.39250183 18.9774991 9.54000184 18.6099988 10.522501 17.8824979 11.3475017 17.6424981 11.6175022 17.4174977 11.8350009 17.2074987 12.000001 16.9974997 12.165001 16.4499971 12.5550004 15.5574991 13.1775017 14.7099993 13.7700005 14.1024992 14.2200012 13.7349979 14.5350018 13.3674985 14.8500023 13.0299989 15.210001 12.7149974 15.6150017L19.0450002 15.6000005 19.0450002 15.6000005z"/>
      <path fill-rule="nonzero" d="M1 0L2.01249981 0C2.23000001 0 2.39500001.0300002001 2.5.0825000003 2.59750031.134999801 2.68000031.209999601 2.72499991.307499901 2.77000001.389999902 2.79250001.480000002 2.79250001.569999902 2.79250001.674999903 2.77000001.764999803 2.71750021.847499604 2.66500041.929999604 2.59000011.989999804 2.49250031 1.0349998 2.57499981 1.0649996 2.64249991 1.0949998 2.68750001 1.1249995 2.82999991 1.22999951 2.90500021 1.38749931 2.90500021 1.58999921 2.90500021 1.70999911 2.87500001 1.82249931 2.82250021 1.91249941 2.77000041 2.00249951 2.69500061 2.08499961 2.59000021 2.14499951 2.47000031 2.21249961 2.31250051 2.24999951 2.11000021 2.24999951L1 2.24999951 1 0zM1.49499991.382499901L1.49499991.907499803 1.94499991.907499803C2.05000021.907499803 2.12500001.892500203 2.17749971.869999903 2.26749941.825000003 2.31250001.750000003 2.31250001.64499985 2.31250001.555000102 2.28249981.487510001 2.23000001.450000001 2.17750021.412509901 2.07999991.389999901 1.94499991.389999901 1.93750001.382499901 1.49499991.382499901 1.49499991.382499901zM1.49499991 1.24499991L1.49499991 1.85999971 1.98999981 1.85999971C2.13249971 1.85999971 2.22999961 1.83749971 2.29000001 1.79999931 2.36499981 1.74749951 2.40249971 1.66499901 2.40249971 1.55249955 2.40249971 1.41749911 2.34999991 1.32749941 2.24499991 1.28249931 2.18499951 1.25999931 2.09499981 1.24499941 1.95999961 1.24499941L1.49499991 1.24499991zM3.63999992 5.55111512e-17L3.63999992.405000202 3.19749981.405000202 3.19749981 5.55111512e-17 3.63999992 5.55111512e-17zM3.63999992.569999902L3.63999992 2.25000001 3.19749981 2.25000001 3.19749981.569999902 3.63999992.569999902z"/>
      <path d="M4.42000012,0.569999902 L4.42000012,0.802499703 C4.47249982,0.727499703 4.51749992,0.675000003 4.56250002,0.645000003 C4.67500022,0.562510002 4.81000042,0.517500202 4.96000002,0.517500202 C5.09500022,0.517500202 5.21499962,0.555000102 5.31250002,0.622500203 C5.38749982,0.675000003 5.43999962,0.750000003 5.47000032,0.832500503 C5.50000102,0.915001004 5.51500092,1.0350004 5.51500092,1.1925006 L5.51500092,2.25000001 L5.07250122,2.25000001 L5.07250122,1.29000001 C5.07250122,1.1849995 5.06500102,1.1025 5.04250192,1.0500002 C5.02750202,1.0050001 4.99750132,0.967500204 4.95250222,0.944999904 C4.90750162,0.914999704 4.84750272,0.900000104 4.78750222,0.900000104 C4.72000262,0.900000104 4.66000262,0.914999704 4.60000222,0.952499904 C4.54000192,0.989999804 4.50250202,1.0274997 4.48000242,1.0875101 C4.45000222,1.1475 4.43500232,1.25249961 4.43500232,1.38750981 L4.43500232,2.25000001 L3.99250222,2.25000001 L3.99250222,0.569999902 L4.42000012,0.569999902 Z"/>
      <path fill-rule="nonzero" d="M7.38250063,2.25000001 L6.92500023,2.25000001 C6.90250023,2.18249991 6.89500053,2.13000011 6.89500053,2.08500001 C6.75250063,2.22750041 6.57250033,2.30250021 6.35500053,2.30250021 C6.18250083,2.30250021 6.04750063,2.26500031 5.95000122,2.18250031 C5.83750102,2.09250061 5.78500122,1.96500011 5.78500122,1.80000061 C5.78500122,1.59000011 5.88250152,1.44750061 6.07000153,1.36500021 C6.14500143,1.33500001 6.28750133,1.30500031 6.49750143,1.27500061 C6.67750083,1.25250061 6.78250123,1.23000051 6.82750133,1.20750051 C6.87250043,1.1850005 6.89500053,1.1400004 6.89500053,1.0725003 C6.89500053,0.922500204 6.79750073,0.855000104 6.60250103,0.855000104 C6.49750153,0.855000104 6.42250163,0.870000004 6.37750063,0.907499904 C6.33250053,0.944999904 6.29500013,1.0050001 6.28000073,1.1025 L5.86000012,1.1025 C5.87500002,0.914999704 5.94250062,0.772499603 6.07000063,0.682499903 C6.19750023,0.584999602 6.37750053,0.539999702 6.61000063,0.539999702 C6.87250043,0.539999702 7.06000043,0.592499502 7.18750003,0.697499703 C7.24750043,0.749999503 7.28500122,0.802499703 7.30000023,0.854999504 C7.31499963,0.907499304 7.32999993,0.997499704 7.32999993,1.1249995 C7.32999993,1.1474995 7.32999993,1.25999971 7.32249933,1.46249961 C7.32249933,1.66499901 7.32249933,1.77749921 7.32249933,1.80749941 C7.32249933,1.92749931 7.32249933,2.01749941 7.32999993,2.07749941 C7.33749963,2.13749891 7.35250003,2.18249991 7.38250063,2.25000001 Z M6.88749983,1.43999961 C6.82749943,1.47750001 6.72249983,1.50749971 6.57250023,1.52249961 C6.46750073,1.53749941 6.39250093,1.55999951 6.34000023,1.58250001 C6.27250003,1.61999991 6.24249943,1.68000031 6.24249943,1.76250981 C6.24249943,1.82999991 6.26499943,1.88999981 6.30999953,1.92749971 C6.35499863,1.96499961 6.41499903,1.98751011 6.49749953,1.98751011 C6.63249973,1.98751011 6.73749933,1.94250001 6.81249913,1.85249991 C6.84249883,1.82249971 6.85749923,1.78499981 6.87249953,1.75499961 C6.88749893,1.72499941 6.88749893,1.67249961 6.88749893,1.61999941 L6.88749983,1.43999961 L6.88749983,1.43999961 Z"/>
      <path d="M8.71749974,0.539999702 L8.71749974,0.974999904 C8.64249994,0.960000304 8.59000014,0.952499904 8.54499914,0.952499904 C8.37999913,0.952499904 8.25999933,1.02 8.17749973,1.16251 C8.13249963,1.23751031 8.11000053,1.37250051 8.11000053,1.55249991 L8.11000053,2.25000001 L7.66750053,2.25000001 L7.66750053,0.569999902 L8.09500033,0.569999902 L8.09500033,0.877499804 C8.21500113,0.652499703 8.39500053,0.532499802 8.62000094,0.532499802 C8.64249994,0.532499802 8.67999944,0.539999702 8.71749974,0.539999702 Z"/>
      <path fill-rule="nonzero" d="M9.37000084 5.55111512e-17L9.37000084.405000202 8.92750074.405000202 8.92750074 5.55111512e-17 9.37000084 5.55111512e-17zM9.37000084.569999902L9.37000084 2.25000001 8.92750074 2.25000001 8.92750074.569999902 9.37000084.569999902zM10.5325003.525000102C10.7800007.525000102 10.9750004.607499803 11.1325007.764999903 11.2825003.922499704 11.3650008 1.1399999 11.3650008 1.40249971 11.3650008 1.67999941 11.2825003 1.89749961 11.1175004 2.06251001 10.9675008 2.21251011 10.7650014 2.29500011 10.517501 2.29500011 10.2550012 2.29500011 10.0450002 2.21251011 9.89500064 2.04000001 9.74500104 1.87500001 9.67000024 1.66500001 9.67000024 1.40999991 9.67000024 1.1549998 9.74500104.952499904 9.88749994.787499503 10.0450001.614999803 10.2624998.525000102 10.5325003.525000102zM10.5100002.869999904C10.3899994.869999904 10.3000002.914999704 10.2250004 1.0125098 10.1575003 1.1100001 10.1200009 1.23751021 10.1200009 1.41000031 10.1200009 1.58250041 10.1575003 1.71750021 10.2250004 1.80750031 10.3000002 1.89750001 10.3975 1.95000081 10.5174999 1.95000081 10.6299991 1.95000081 10.7274999 1.90500071 10.7949991 1.82250071 10.8699989 1.72500041 10.9074993 1.59000111 10.9074993 1.41000081 10.9074993 1.24500081 10.8699989 1.1100006 10.8024998 1.0200009 10.7424994.922500104 10.6374998.869999904 10.5100002.869999904z"/>
    </g>
  </g>
</svg>
