<svg xmlns="http://www.w3.org/2000/svg" width="24" height="24" viewBox="0 0 24 24">
  <g fill="none" fill-rule="evenodd">
    <path fill="#2D327D" d="M22.5,0 L1.5,0 C0.675000003,0 0,0.675000003 0,1.5 L0,22.5 C0,23.3250009 0.675000003,24 1.5,24 L22.5,24 C23.3250009,24 24,23.3250009 24,22.5 L24,1.5 C24,0.675000003 23.3250009,0 22.5,0 Z"/>
    <g fill="#FFF" transform="translate(2 3)">
      <path d="M6.82749943 4.50749922L6.82749943 18.0000001 4.13499982 18.0000001 4.13499982 9.16500004 3.17499921 9.16500004 2.20750001 9.16500004 1.27749971 9.16500004.954999404 9.16500004.954999404 7.20749953C1.61499971 7.19249923 2.14749951 7.12499903 2.56749961 7.00499923 2.97999951 6.88499933 3.36249921 6.69749933 3.70749952 6.43499953 4.20249942 6.05249883 4.53999902 5.40749932 4.71249872 4.50749922L6.82749943 4.50749922 6.82749943 4.50749922zM19.0450002 15.6000005L19.0450002 18.0000001 9.32499984 18.0000001C9.32499984 17.2650014 9.44500064 16.5674993 9.67749984 15.9075013 9.91749964 15.2400018 10.2475004 14.6700002 10.682499 14.1900006 11.0124989 13.8225022 11.4025002 13.4625092 11.8525 13.1100007 12.2949993 12.7575017 13.1875001 12.1200019 14.5150014 11.1825018 15.1600019 10.732502 15.6100007 10.312501 15.8725015 9.93000224 16.1350023 9.54750254 16.2625028 9.09000204 16.2625028 8.58000184 16.2625028 7.98750213 16.0900041 7.50750163 15.7375032 7.14750103 15.392502 6.78000163 14.9350015 6.60000133 14.3650037 6.60000133 12.9775029 6.60000133 12.2575027 7.59750173 12.2125035 9.60000134L9.62500004 9.60000134C9.62500004 9.47250174 9.62500004 9.37500094 9.62500004 9.30750184 9.62500004 7.67250163 10.0825005 6.40500163 10.9975004 5.50500202 11.8899994 4.63500122 13.0450002 4.19250202 14.455 4.19250202 15.7075005 4.19250202 16.7574998 4.55250212 17.6049996 5.26500222 18.5200005 6.03750223 18.9774991 7.08000183 18.9774991 8.39250183 18.9774991 9.54000184 18.6099988 10.522501 17.8824979 11.3475017 17.6424981 11.6175022 17.4174977 11.8350009 17.2074987 12.000001 16.9974997 12.165001 16.4499971 12.5550004 15.5574991 13.1775017 14.7099993 13.7700005 14.1024992 14.2200012 13.7349979 14.5350018 13.3674985 14.8500023 13.0299989 15.210001 12.7149974 15.6150017L19.0450002 15.6000005 19.0450002 15.6000005z"/>
      <polygon points="3.032 0 2.282 2.25 1.727 2.25 .992 0 1.502 0 2.005 1.688 2.515 0"/>
      <path fill-rule="nonzero" d="M3.87250042.525000102C4.12000032.525000102 4.31500052.607499803 4.47250032.764999903 4.62250042.922499704 4.70500092 1.1399999 4.70500092 1.40249971 4.70500092 1.67999941 4.62250042 1.89749961 4.45750052 2.06251001 4.30750042 2.21251011 4.10500052 2.29500011 3.85750062 2.29500011 3.59500031 2.29500011 3.38500031 2.21251011 3.23500021 2.04000001 3.08500001 1.87500001 3.01000021 1.66500001 3.01000021 1.40999981 3.01000021 1.1549996 3.08500001.952499904 3.22750041.787499403 3.38500021.614999803 3.60250002.525000102 3.87250042.525000102zM3.84999992.869999904C3.73000002.869999904 3.63999992.914999704 3.56499961 1.0125098 3.49749951 1.1100001 3.45999961 1.23751021 3.45999961 1.41000031 3.45999961 1.58250041 3.49749951 1.71750021 3.56499961 1.80750031 3.63999992 1.89750001 3.73750022 1.95000081 3.85750012 1.95000081 3.96999982 1.95000081 4.06750012 1.90500071 4.13499982 1.82250071 4.20999962 1.72500041 4.24749952 1.59000111 4.24749952 1.41000081 4.24749952 1.24500081 4.20999962 1.1100006 4.14249952 1.0200009 4.08250002.922500104 3.97750002.869999904 3.84999992.869999904zM5.44750022 5.55111512e-17L5.44750022.405000202 5.00500062.405000202 5.00500062 5.55111512e-17 5.44750022 5.55111512e-17zM5.44750022.569999902L5.44750022 2.25000001 5.00500062 2.25000001 5.00500062.569999902 5.44750022.569999902zM7.32250023 1.72499991C7.30000023 1.82250021 7.25500103 1.90500021 7.19500063 1.98751021 7.04500013 2.18999961 6.83500003 2.28750991 6.55750083 2.28750991 6.31000043 2.28750991 6.10750003 2.20499991 5.95750042 2.04750011 5.88250062 1.97250031 5.83000092 1.87500001 5.78500032 1.77000051 5.73999982 1.65750031 5.72499992 1.53000071 5.72499992 1.41000031 5.72499992 1.1625099 5.79249952.960000304 5.93500042.795000503 6.09250073.607500503 6.29500013.517500602 6.54250053.517500602 6.74500083.517500602 6.91750053.577500802 7.06000043.705000603 7.16500003.795000603 7.23250013.907500504 7.28499983 1.0350008 7.33749963 1.1625013 7.35250003 1.32750081 7.35250003 1.53000071L6.17500023 1.53000071C6.18250083 1.61250071 6.18999963 1.68000081 6.21249963 1.73250061 6.27250003 1.88250061 6.38500023 1.95000081 6.55750083 1.95000081 6.64000133 1.95000081 6.70750043 1.93500091 6.76000023 1.89750101 6.81250003 1.86000061 6.85750013 1.80000071 6.88749983 1.72500041L7.32250023 1.72499991 7.32250023 1.72499991zM6.89500053 1.23000001C6.88749983 1.1475 6.86500073 1.0799999 6.84250073 1.0275002 6.81250103.975000604 6.77500153.930000104 6.72249983.900000604 6.66999913.870001104 6.61000063.855000703 6.55000023.855000703 6.45249943.855000703 6.37000083.885000704 6.30249983.952500804 6.23499883 1.0200009 6.19750033 1.1100006 6.18999963 1.2225008L6.89500053 1.2225008 6.89500053 1.23000001z"/>
    </g>
  </g>
</svg>
