<svg xmlns="http://www.w3.org/2000/svg" width="24" height="24" viewBox="0 0 24 24">
  <g fill="none" fill-rule="evenodd">
    <path fill="#2D327D" d="M22.5,0 L1.5,0 C0.675000003,0 0,0.675000003 0,1.5 L0,22.5 C0,23.3250009 0.675000003,24 1.5,24 L22.5,24 C23.3250009,24 24,23.3250009 24,22.5 L24,1.5 C24,0.675000003 23.3250009,0 22.5,0 Z"/>
    <g fill="#FFF" transform="translate(2 3)">
      <path d="M6.82749943 4.50749922L6.82749943 18.0000001 4.13499982 18.0000001 4.13499982 9.16500004 3.17499921 9.16500004 2.20750001 9.16500004 1.27749971 9.16500004.954999404 9.16500004.954999404 7.20749953C1.61499971 7.19249923 2.14749951 7.12499903 2.56749961 7.00499923 2.97999951 6.88499933 3.36249921 6.69749933 3.70749952 6.43499953 4.20249942 6.05249883 4.53999902 5.40749932 4.71249872 4.50749922L6.82749943 4.50749922 6.82749943 4.50749922zM9.55000024 8.78250034C9.57999994 7.67250063 9.85750014 6.74250033 10.375 5.99250032 11.2150002 4.78500032 12.4674998 4.18500042 14.1475011 4.18500042 15.4375001 4.18500042 16.4799997 4.51499982 17.2749997 5.17500022 18.1299992 5.88751032 18.5575009 6.81000043 18.5575009 7.94249923 18.5575009 8.61749944 18.3925 9.20249944 18.0550004 9.68999964 17.7174989 10.1774998 17.2675 10.5074997 16.6974984 10.6799994 17.4249993 10.8449994 17.994999 11.2125102 18.4149991 11.79 18.8349992 12.3600007 19.0449983 13.0574991 19.0449983 13.8675004 19.0449983 15.2024995 18.5499975 16.2974988 17.5674974 17.1450006 16.6599962 17.932501 15.5049974 18.3300001 14.1174966 18.3300001 12.6099969 18.3300001 11.4174976 17.8950006 10.5324974 17.0249998 9.64749724 16.154999 9.20499714 14.9849989 9.20499714 13.5074999 9.20499714 13.4775011 9.20499714 13.4174997 9.20499714 13.3350012L11.8000002 13.3350012C11.8000002 14.1675017 11.9950008 14.8050024 12.3925 15.2625029 12.7824994 15.7125018 13.3449994 15.9375021 14.0650006 15.9375021 14.7849999 15.9375021 15.3400002 15.727503 15.7224999 15.3000032 16.0824986 14.9025041 16.2549992 14.4225008 16.2549992 13.8675024 16.2549992 13.2000029 16.0299988 12.6750023 15.5724984 12.2925016 15.1974984 11.9700013 14.619999 11.812502 13.8399983 11.812502 13.6149989 11.812502 13.3974991 11.8275023 13.1874991 11.8500024L13.1874991 9.86250224C13.3449994 9.87750254 13.5024987 9.87750254 13.6524983 9.87750254 15.2049971 9.87750254 15.9774991 9.30000224 15.9774991 8.15250213 15.9774991 7.65000253 15.8050004 7.23750213 15.4674989 6.93000233 15.1299993 6.62250153 14.6800004 6.46500213 14.1324998 6.46500213 13.5024997 6.46500213 13.0074998 6.66000273 12.6624986 7.05750183 12.3174983 7.45500183 12.1299983 8.02500153 12.1074992 8.78250124L9.55000024 8.78250034 9.55000024 8.78250034z"/>
      <polygon points="3.032 0 2.282 2.25 1.727 2.25 .992 0 1.502 0 2.005 1.688 2.515 0"/>
      <path fill-rule="nonzero" d="M3.87250042.525000102C4.12000032.525000102 4.31500052.607499803 4.47250032.764999903 4.62250042.922499704 4.70500092 1.1399999 4.70500092 1.40249971 4.70500092 1.67999941 4.62250042 1.89749961 4.45750052 2.06251001 4.30750042 2.21251011 4.10500052 2.29500011 3.85750062 2.29500011 3.59500031 2.29500011 3.38500031 2.21251011 3.23500021 2.04000001 3.08500001 1.87500001 3.01000021 1.66500001 3.01000021 1.40999981 3.01000021 1.1549996 3.08500001.952499904 3.22750041.787499403 3.38500021.614999803 3.60250002.525000102 3.87250042.525000102zM3.84999992.869999904C3.73000002.869999904 3.63999992.914999704 3.56499961 1.0125098 3.49749951 1.1100001 3.45999961 1.23751021 3.45999961 1.41000031 3.45999961 1.58250041 3.49749951 1.71750021 3.56499961 1.80750031 3.63999992 1.89750001 3.73750022 1.95000081 3.85750012 1.95000081 3.96999982 1.95000081 4.06750012 1.90500071 4.13499982 1.82250071 4.20999962 1.72500041 4.24749952 1.59000111 4.24749952 1.41000081 4.24749952 1.24500081 4.20999962 1.1100006 4.14249952 1.0200009 4.08250002.922500104 3.97750002.869999904 3.84999992.869999904zM5.44750022 5.55111512e-17L5.44750022.405000202 5.00500062.405000202 5.00500062 5.55111512e-17 5.44750022 5.55111512e-17zM5.44750022.569999902L5.44750022 2.25000001 5.00500062 2.25000001 5.00500062.569999902 5.44750022.569999902zM7.32250023 1.72499991C7.30000023 1.82250021 7.25500103 1.90500021 7.19500063 1.98751021 7.04500013 2.18999961 6.83500003 2.28750991 6.55750083 2.28750991 6.31000043 2.28750991 6.10750003 2.20499991 5.95750042 2.04750011 5.88250062 1.97250031 5.83000092 1.87500001 5.78500032 1.77000051 5.73999982 1.65750031 5.72499992 1.53000071 5.72499992 1.41000031 5.72499992 1.1625099 5.79249952.960000304 5.93500042.795000503 6.09250073.607500503 6.29500013.517500602 6.54250053.517500602 6.74500083.517500602 6.91750053.577500802 7.06000043.705000603 7.16500003.795000603 7.23250013.907500504 7.28499983 1.0350008 7.33749963 1.1625013 7.35250003 1.32750081 7.35250003 1.53000071L6.17500023 1.53000071C6.18250083 1.61250071 6.18999963 1.68000081 6.21249963 1.73250061 6.27250003 1.88250061 6.38500023 1.95000081 6.55750083 1.95000081 6.64000133 1.95000081 6.70750043 1.93500091 6.76000023 1.89750101 6.81250003 1.86000061 6.85750013 1.80000071 6.88749983 1.72500041L7.32250023 1.72499991 7.32250023 1.72499991zM6.89500053 1.23000001C6.88749983 1.1475 6.86500073 1.0799999 6.84250073 1.0275002 6.81250103.975000604 6.77500153.930000104 6.72249983.900000604 6.66999913.870001104 6.61000063.855000703 6.55000023.855000703 6.45249943.855000703 6.37000083.885000704 6.30249983.952500804 6.23499883 1.0200009 6.19750033 1.1100006 6.18999963 1.2225008L6.89500053 1.2225008 6.89500053 1.23000001z"/>
    </g>
  </g>
</svg>
