<svg xmlns="http://www.w3.org/2000/svg" width="24" height="24" viewBox="0 0 24 24">
  <g fill="none" fill-rule="evenodd">
    <path fill="#2D327D" d="M22.5,0 L1.5,0 C0.675000003,0 0,0.675000003 0,1.5 L0,22.5 C0,23.3250009 0.675000003,24 1.5,24 L22.5,24 C23.3250009,24 24,23.3250009 24,22.5 L24,1.5 C24,0.675000003 23.3250009,0 22.5,0 Z"/>
    <g fill="#FFF" transform="translate(2 3)">
      <path d="M5.35250002.757500603L5.35250002 12.0000001 3.11000011 12.0000001 3.11000011 4.64249992 2.30750041 4.64249992 1.50500061 4.64249992.725000403 4.64249992.455000902 4.64249992.455000902 3.01499941C1.002501 3.00000001 1.45250081 2.93999961 1.79750061 2.84249971 2.14250091 2.74499891 2.45750091 2.58751011 2.75000091 2.36250971 3.16250131 2.04750061 3.44750111 1.50750061 3.59000111.757500603L5.35250002.757500603 5.35250002.757500603zM8.57000064 4.32000062C8.59250064 3.39750001 8.82499984 2.62500001 9.25250054 1.99500081 9.95000074.990000704 11.0000009.487509702 12.3950005.487509702 13.4750004.487509702 14.3374997.764999403 15.0049992 1.31250951 15.7174988 1.90499971 16.0774994 2.67749971 16.0774994 3.62250042 16.0774994 4.18500042 15.9349995 4.67250062 15.6574974 5.07749942 15.3799972 5.48249912 14.9974995 5.76000022 14.5249977 5.90250022 15.1324978 6.03751003 15.6049976 6.34499943 15.9574985 6.82499993 16.3099994 7.30500043 16.4824981 7.87500013 16.4824981 8.55750094 16.4824981 9.66749964 16.0699977 10.5825005 15.2524986 11.28751 14.4949989 11.9474984 13.5349998 12.2700006 12.3724994 12.2700006 11.1199988 12.2700006 10.1224993 11.9100018 9.38749874 11.1825009 8.65249814 10.4625092 8.28499873 9.47999964 8.28499873 8.25000013 8.28499873 8.22750103 8.28499873 8.17499933 8.28499873 8.10750023L10.4449995 8.10750023C10.4449995 8.79750074 10.6099985 9.33750934 10.9399994 9.71250934 11.2699993 10.0875093 11.7350004 10.2749998 12.334999 10.2749998 12.9349994 10.2749998 13.3924998 10.0950014 13.7224998 9.74250054 14.022499 9.41251014 14.164999 9.01499964 14.164999 8.54999944 14.164999 7.99500103 13.977499 7.55999963 13.5949974 7.23750893 13.2799969 6.96749993 12.7999973 6.84000033 12.1474972 6.84000033 11.9599981 6.84000033 11.7799987 6.84750003 11.5999974 6.86999913L11.5999974 5.21999952C11.7349976 5.22750012 11.8624972 5.23499892 11.982498 5.23499892 13.272499 5.23499892 13.9174976 4.75499942 13.9174976 3.79499932 13.9174976 3.37499921 13.7749977 3.03749871 13.4974975 2.77499881 13.2124977 2.51249901 12.8449954 2.38499941 12.3799972 2.38499941 11.8549975 2.38499941 11.4424971 2.54999941 11.1574973 2.87999931 10.8724965 3.20999921 10.7149972 3.68999972 10.6924971 4.31999982L8.57000064 4.32000062 8.57000064 4.32000062z" transform="translate(2 6)"/>
      <polygon points="3.032 0 2.282 2.25 1.727 2.25 .992 0 1.502 0 2.005 1.688 2.515 0"/>
      <path fill-rule="nonzero" d="M3.87250042.525000102C4.12000032.525000102 4.31500052.607499803 4.47250032.764999903 4.62250042.922499704 4.70500092 1.1399999 4.70500092 1.40249971 4.70500092 1.67999941 4.62250042 1.89749961 4.45750052 2.06251001 4.30750042 2.21251011 4.10500052 2.29500011 3.85750062 2.29500011 3.59500031 2.29500011 3.38500031 2.21251011 3.23500021 2.04000001 3.08500001 1.87500001 3.01000021 1.66500001 3.01000021 1.40999981 3.01000021 1.1549996 3.08500001.952499904 3.22750041.787499403 3.38500021.614999803 3.60250002.525000102 3.87250042.525000102zM3.84999992.869999904C3.73000002.869999904 3.63999992.914999704 3.56499961 1.0125098 3.49749951 1.1100001 3.45999961 1.23751021 3.45999961 1.41000031 3.45999961 1.58250041 3.49749951 1.71750021 3.56499961 1.80750031 3.63999992 1.89750001 3.73750022 1.95000081 3.85750012 1.95000081 3.96999982 1.95000081 4.06750012 1.90500071 4.13499982 1.82250071 4.20999962 1.72500041 4.24749952 1.59000111 4.24749952 1.41000081 4.24749952 1.24500081 4.20999962 1.1100006 4.14249952 1.0200009 4.08250002.922500104 3.97750002.869999904 3.84999992.869999904zM5.44750022 5.55111512e-17L5.44750022.405000202 5.00500062.405000202 5.00500062 5.55111512e-17 5.44750022 5.55111512e-17zM5.44750022.569999902L5.44750022 2.25000001 5.00500062 2.25000001 5.00500062.569999902 5.44750022.569999902zM7.32250023 1.72499991C7.30000023 1.82250021 7.25500103 1.90500021 7.19500063 1.98751021 7.04500013 2.18999961 6.83500003 2.28750991 6.55750083 2.28750991 6.31000043 2.28750991 6.10750003 2.20499991 5.95750042 2.04750011 5.88250062 1.97250031 5.83000092 1.87500001 5.78500032 1.77000051 5.73999982 1.65750031 5.72499992 1.53000071 5.72499992 1.41000031 5.72499992 1.1625099 5.79249952.960000304 5.93500042.795000503 6.09250073.607500503 6.29500013.517500602 6.54250053.517500602 6.74500083.517500602 6.91750053.577500802 7.06000043.705000603 7.16500003.795000603 7.23250013.907500504 7.28499983 1.0350008 7.33749963 1.1625013 7.35250003 1.32750081 7.35250003 1.53000071L6.17500023 1.53000071C6.18250083 1.61250071 6.18999963 1.68000081 6.21249963 1.73250061 6.27250003 1.88250061 6.38500023 1.95000081 6.55750083 1.95000081 6.64000133 1.95000081 6.70750043 1.93500091 6.76000023 1.89750101 6.81250003 1.86000061 6.85750013 1.80000071 6.88749983 1.72500041L7.32250023 1.72499991 7.32250023 1.72499991zM6.89500053 1.23000001C6.88749983 1.1475 6.86500073 1.0799999 6.84250073 1.0275002 6.81250103.975000604 6.77500153.930000104 6.72249983.900000604 6.66999913.870001104 6.61000063.855000703 6.55000023.855000703 6.45249943.855000703 6.37000083.885000704 6.30249983.952500804 6.23499883 1.0200009 6.19750033 1.1100006 6.18999963 1.2225008L6.89500053 1.2225008 6.89500053 1.23000001z"/>
    </g>
  </g>
</svg>
