<svg xmlns="http://www.w3.org/2000/svg" width="24" height="24" viewBox="0 0 24 24">
  <g fill="none" fill-rule="evenodd">
    <path fill="#2D327D" d="M22.5,0 L1.5,0 C0.675000003,0 0,0.675000003 0,1.5 L0,22.5 C0,23.3250009 0.675000003,24 1.5,24 L22.5,24 C23.3250009,24 24,23.3250009 24,22.5 L24,1.5 C24,0.675000003 23.3250009,0 22.5,0 Z"/>
    <g fill="#FFF" transform="translate(2 3)">
      <g transform="translate(2 6)">
        <path d="M5.35250002,0.757500603 L5.35250002,12.0000001 L3.11000011,12.0000001 L3.11000011,4.64249992 L2.30750041,4.64249992 L1.50500061,4.64249992 L0.725000403,4.64249992 L0.455000902,4.64249992 L0.455000902,3.01499941 C1.002501,3.00000001 1.45250081,2.93999961 1.79750061,2.84249971 C2.14250091,2.74499891 2.45750091,2.58751011 2.75000091,2.36250971 C3.16250131,2.04750061 3.44750111,1.50750061 3.59000111,0.757500603 L5.35250002,0.757500603 L5.35250002,0.757500603 Z"/>
        <path fill-rule="nonzero" d="M16.2349988,3.56250951 L14.0974999,3.56250951 C13.8949986,2.69249911 13.4074975,2.26499941 12.619999,2.26499941 C11.7874975,2.26499941 11.2024984,2.77499961 10.8499975,3.79499912 C10.7074985,4.20749952 10.5874977,4.83749862 10.5049972,5.67749972 C10.8424968,5.21999922 11.2024974,4.88999932 11.5849971,4.69499962 C11.9674968,4.49249932 12.4249974,4.39499942 12.9649964,4.39499942 C14.0224972,4.39499942 14.8699952,4.76999942 15.5074959,5.51999942 C16.114996,6.22499843 16.4224968,7.11750023 16.4224968,8.18249883 C16.4224968,9.44999684 16.0099964,10.4699973 15.1924973,11.2349986 C14.4574986,11.9249991 13.5649968,12.2699985 12.5299969,12.2699985 C11.2024974,12.2699985 10.1674976,11.7674979 9.43249704,10.7699984 C8.69749644,9.76499924 8.32249643,8.36999883 8.32249643,6.57749833 C8.32249643,4.65749822 8.71999744,3.15749821 9.50749684,2.06999771 C10.2724971,1.0199985 11.3149976,0.494997902 12.6349965,0.494997902 C13.8799973,0.494997902 14.8324967,0.914998904 15.4924966,1.74749751 C15.8824998,2.22000031 16.1299993,2.82749941 16.2349988,3.56250951 Z M12.4325009,6.14249993 C11.8925008,6.14249993 11.4650011,6.36749933 11.1499996,6.81749913 C10.8649998,7.21499823 10.7224998,7.69499963 10.7224998,8.24999993 C10.7224998,8.79749864 10.8649997,9.27750014 11.1575002,9.69000044 C11.4724998,10.1475009 11.9075002,10.3725012 12.4624997,10.3725012 C13.0025006,10.3725012 13.4375001,10.1550024 13.7599984,9.72000104 C14.0674992,9.30750064 14.2250005,8.82750114 14.2250005,8.26500113 C14.2250005,7.71750243 14.0900003,7.24500063 13.8125001,6.85500033 C13.4674989,6.37500003 13.0099984,6.14249993 12.4325009,6.14249993 Z"/>
      </g>
      <polygon points="3.032 0 2.282 2.25 1.727 2.25 .992 0 1.502 0 2.005 1.688 2.515 0"/>
      <path fill-rule="nonzero" d="M3.87250042.525000102C4.12000032.525000102 4.31500052.607499803 4.47250032.764999903 4.62250042.922499704 4.70500092 1.1399999 4.70500092 1.40249971 4.70500092 1.67999941 4.62250042 1.89749961 4.45750052 2.06251001 4.30750042 2.21251011 4.10500052 2.29500011 3.85750062 2.29500011 3.59500031 2.29500011 3.38500031 2.21251011 3.23500021 2.04000001 3.08500001 1.87500001 3.01000021 1.66500001 3.01000021 1.40999981 3.01000021 1.1549996 3.08500001.952499904 3.22750041.787499403 3.38500021.614999803 3.60250002.525000102 3.87250042.525000102zM3.84999992.869999904C3.73000002.869999904 3.63999992.914999704 3.56499961 1.0125098 3.49749951 1.1100001 3.45999961 1.23751021 3.45999961 1.41000031 3.45999961 1.58250041 3.49749951 1.71750021 3.56499961 1.80750031 3.63999992 1.89750001 3.73750022 1.95000081 3.85750012 1.95000081 3.96999982 1.95000081 4.06750012 1.90500071 4.13499982 1.82250071 4.20999962 1.72500041 4.24749952 1.59000111 4.24749952 1.41000081 4.24749952 1.24500081 4.20999962 1.1100006 4.14249952 1.0200009 4.08250002.922500104 3.97750002.869999904 3.84999992.869999904zM5.44750022 5.55111512e-17L5.44750022.405000202 5.00500062.405000202 5.00500062 5.55111512e-17 5.44750022 5.55111512e-17zM5.44750022.569999902L5.44750022 2.25000001 5.00500062 2.25000001 5.00500062.569999902 5.44750022.569999902zM7.32250023 1.72499991C7.30000023 1.82250021 7.25500103 1.90500021 7.19500063 1.98751021 7.04500013 2.18999961 6.83500003 2.28750991 6.55750083 2.28750991 6.31000043 2.28750991 6.10750003 2.20499991 5.95750042 2.04750011 5.88250062 1.97250031 5.83000092 1.87500001 5.78500032 1.77000051 5.73999982 1.65750031 5.72499992 1.53000071 5.72499992 1.41000031 5.72499992 1.1625099 5.79249952.960000304 5.93500042.795000503 6.09250073.607500503 6.29500013.517500602 6.54250053.517500602 6.74500083.517500602 6.91750053.577500802 7.06000043.705000603 7.16500003.795000603 7.23250013.907500504 7.28499983 1.0350008 7.33749963 1.1625013 7.35250003 1.32750081 7.35250003 1.53000071L6.17500023 1.53000071C6.18250083 1.61250071 6.18999963 1.68000081 6.21249963 1.73250061 6.27250003 1.88250061 6.38500023 1.95000081 6.55750083 1.95000081 6.64000133 1.95000081 6.70750043 1.93500091 6.76000023 1.89750101 6.81250003 1.86000061 6.85750013 1.80000071 6.88749983 1.72500041L7.32250023 1.72499991 7.32250023 1.72499991zM6.89500053 1.23000001C6.88749983 1.1475 6.86500073 1.0799999 6.84250073 1.0275002 6.81250103.975000604 6.77500153.930000104 6.72249983.900000604 6.66999913.870001104 6.61000063.855000703 6.55000023.855000703 6.45249943.855000703 6.37000083.885000704 6.30249983.952500804 6.23499883 1.0200009 6.19750033 1.1100006 6.18999963 1.2225008L6.89500053 1.2225008 6.89500053 1.23000001z"/>
    </g>
  </g>
</svg>
