<svg xmlns="http://www.w3.org/2000/svg" width="24" height="24" viewBox="0 0 24 24">
  <g fill="none" fill-rule="evenodd">
    <path fill="#2D327D" d="M22.5,0 L1.5,0 C0.675000003,0 0,0.675000003 0,1.5 L0,22.5 C0,23.3250009 0.675000003,24 1.5,24 L22.5,24 C23.3250009,24 24,23.3250009 24,22.5 L24,1.5 C24,0.675000003 23.3250009,0 22.5,0 Z"/>
    <g fill="#FFF" transform="translate(2 3)">
      <path d="M6.82749943,4.50749922 L6.82749943,18.0000001 L4.13499982,18.0000001 L4.13499982,9.16500004 L3.17499921,9.16500004 L2.20750001,9.16500004 L1.27749971,9.16500004 L0.954999404,9.16500004 L0.954999404,7.20749953 C1.61499971,7.19249923 2.14749951,7.12499903 2.56749961,7.00499923 C2.97999951,6.88499933 3.36249921,6.69749933 3.70749952,6.43499953 C4.20249942,6.05249883 4.53999902,5.40749932 4.71249872,4.50749922 L6.82749943,4.50749922 L6.82749943,4.50749922 Z"/>
      <path fill-rule="nonzero" d="M18.8125001,7.87500003 L16.2474996,7.87500003 C16.0074979,6.83250053 15.4149991,6.31499963 14.4774991,6.31499963 C13.4799987,6.31499963 12.7749988,6.92999943 12.3549987,8.15250023 C12.1824981,8.64750014 12.0474979,9.40499984 11.9424982,10.4099999 C12.347498,9.86250984 12.7824985,9.46500024 13.2399989,9.22500044 C13.6974993,8.98500064 14.2524987,8.86499984 14.8974992,8.86499984 C16.1649991,8.86499984 17.1849996,9.31499964 17.9500009,10.2150002 C18.6849996,11.0625096 19.0450002,12.1274997 19.0450002,13.41 C19.0450002,14.9324991 18.5499994,16.1474992 17.5674993,17.0774995 C16.682501,17.91 15.6175004,18.3224984 14.3724996,18.3224984 C12.7824994,18.3224984 11.5374985,17.7224999 10.6524983,16.5149995 C9.76749814,15.3149987 9.32499894,13.6349984 9.32499894,11.4824982 C9.32499894,9.17999844 9.79749874,7.37999823 10.7424984,6.07499793 C11.6574984,4.81499772 12.909998,4.18499802 14.4999982,4.18499802 C15.9924966,4.18499802 17.1399995,4.68749762 17.9349977,5.69249822 C18.3925,6.27000053 18.6849996,6.99750043 18.8125001,7.87500003 Z M14.2450009,10.9650002 C13.6000004,10.9650002 13.0825005,11.2350007 12.7075005,11.7749997 C12.3625002,12.2549993 12.1900006,12.825 12.1900006,13.4925005 C12.1900006,14.1524984 12.3625012,14.7225 12.7150012,15.217499 C13.0975018,15.7649996 13.6225015,16.0424998 14.2825013,16.0424998 C14.9275018,16.0424998 15.4449998,15.779999 15.8424989,15.2549994 C16.2099992,14.7599986 16.3974992,14.1825011 16.3974992,13.5074999 C16.3974992,12.8475001 16.2324983,12.2850001 15.9024984,11.8200008 C15.4900018,11.2575006 14.9424993,10.9650002 14.2450009,10.9650002 Z"/>
      <polygon points="3.032 0 2.282 2.25 1.727 2.25 .992 0 1.502 0 2.005 1.688 2.515 0"/>
      <path fill-rule="nonzero" d="M3.87250042.525000102C4.12000032.525000102 4.31500052.607499803 4.47250032.764999903 4.62250042.922499704 4.70500092 1.1399999 4.70500092 1.40249971 4.70500092 1.67999941 4.62250042 1.89749961 4.45750052 2.06251001 4.30750042 2.21251011 4.10500052 2.29500011 3.85750062 2.29500011 3.59500031 2.29500011 3.38500031 2.21251011 3.23500021 2.04000001 3.08500001 1.87500001 3.01000021 1.66500001 3.01000021 1.40999981 3.01000021 1.1549996 3.08500001.952499904 3.22750041.787499403 3.38500021.614999803 3.60250002.525000102 3.87250042.525000102zM3.84999992.869999904C3.73000002.869999904 3.63999992.914999704 3.56499961 1.0125098 3.49749951 1.1100001 3.45999961 1.23751021 3.45999961 1.41000031 3.45999961 1.58250041 3.49749951 1.71750021 3.56499961 1.80750031 3.63999992 1.89750001 3.73750022 1.95000081 3.85750012 1.95000081 3.96999982 1.95000081 4.06750012 1.90500071 4.13499982 1.82250071 4.20999962 1.72500041 4.24749952 1.59000111 4.24749952 1.41000081 4.24749952 1.24500081 4.20999962 1.1100006 4.14249952 1.0200009 4.08250002.922500104 3.97750002.869999904 3.84999992.869999904zM5.44750022 5.55111512e-17L5.44750022.405000202 5.00500062.405000202 5.00500062 5.55111512e-17 5.44750022 5.55111512e-17zM5.44750022.569999902L5.44750022 2.25000001 5.00500062 2.25000001 5.00500062.569999902 5.44750022.569999902zM7.32250023 1.72499991C7.30000023 1.82250021 7.25500103 1.90500021 7.19500063 1.98751021 7.04500013 2.18999961 6.83500003 2.28750991 6.55750083 2.28750991 6.31000043 2.28750991 6.10750003 2.20499991 5.95750042 2.04750011 5.88250062 1.97250031 5.83000092 1.87500001 5.78500032 1.77000051 5.73999982 1.65750031 5.72499992 1.53000071 5.72499992 1.41000031 5.72499992 1.1625099 5.79249952.960000304 5.93500042.795000503 6.09250073.607500503 6.29500013.517500602 6.54250053.517500602 6.74500083.517500602 6.91750053.577500802 7.06000043.705000603 7.16500003.795000603 7.23250013.907500504 7.28499983 1.0350008 7.33749963 1.1625013 7.35250003 1.32750081 7.35250003 1.53000071L6.17500023 1.53000071C6.18250083 1.61250071 6.18999963 1.68000081 6.21249963 1.73250061 6.27250003 1.88250061 6.38500023 1.95000081 6.55750083 1.95000081 6.64000133 1.95000081 6.70750043 1.93500091 6.76000023 1.89750101 6.81250003 1.86000061 6.85750013 1.80000071 6.88749983 1.72500041L7.32250023 1.72499991 7.32250023 1.72499991zM6.89500053 1.23000001C6.88749983 1.1475 6.86500073 1.0799999 6.84250073 1.0275002 6.81250103.975000604 6.77500153.930000104 6.72249983.900000604 6.66999913.870001104 6.61000063.855000703 6.55000023.855000703 6.45249943.855000703 6.37000083.885000704 6.30249983.952500804 6.23499883 1.0200009 6.19750033 1.1100006 6.18999963 1.2225008L6.89500053 1.2225008 6.89500053 1.23000001z"/>
    </g>
  </g>
</svg>
