<svg xmlns="http://www.w3.org/2000/svg" width="24" height="24" viewBox="0 0 24 24">
  <g fill="none" fill-rule="evenodd">
    <path fill="#2D327D" d="M22.5,0 L1.5,0 C0.675000003,0 0,0.675000003 0,1.5 L0,22.5 C0,23.3250009 0.675000003,24 1.5,24 L22.5,24 C23.3250009,24 24,23.3250009 24,22.5 L24,1.5 C24,0.675000003 23.3250009,0 22.5,0 Z"/>
    <g fill="#FFF" transform="translate(2 2)">
      <g transform="translate(0 5)">
        <path d="M6.82749943,0.507499202 L6.82749943,14.0000001 L4.13499982,14.0000001 L4.13499982,5.16500002 L3.17500021,5.16500002 L2.20750001,5.16500002 L1.27749971,5.16500002 L0.954999404,5.16500002 L0.954999404,3.20749951 C1.61499971,3.19249921 2.14749951,3.12499901 2.56749961,3.00499921 C2.97999951,2.88499931 3.36249921,2.69749931 3.70749952,2.43499951 C4.20249942,2.05249881 4.53999902,1.40749931 4.71249872,0.507499202 L6.82749943,0.507499202 L6.82749943,0.507499202 Z"/>
        <path fill-rule="nonzero" d="M11.5375004,6.75499923 C10.9075003,6.53751003 10.4274998,6.184999 10.0900002,5.69749932 C9.75249964,5.20249852 9.58749974,4.60999872 9.58749974,3.90499982 C9.58749974,2.73499881 10.0674992,1.80499941 11.0275002,1.1074992 C11.875,0.492499401 12.8874999,0.184999 14.0575009,0.184999 C15.3850022,0.184999 16.4725018,0.552498802 17.3125001,1.2799997 C18.1150018,1.96999931 18.5125009,2.81749911 18.5125009,3.83751012 C18.5125009,4.54249952 18.3400003,5.14999962 18.0025007,5.65250012 C17.665001,6.15499972 17.1850015,6.52250003 16.5625001,6.74750043 C17.0499993,6.88999943 17.4474984,7.07000063 17.7549993,7.29500013 C18.6099988,7.91750053 19.0375005,8.82499984 19.0375005,10.0174999 C19.0375005,11.3899994 18.5125009,12.4849988 17.4624997,13.2950002 C16.5775014,13.977501 15.4375001,14.3225023 14.0499993,14.3225023 C12.5424996,14.3225023 11.3424997,13.9475023 10.4499998,13.1975023 C9.52000044,12.4175016 9.05499934,11.3900014 9.05499934,10.1225014 C9.05499934,8.93750104 9.46749974,8.01500133 10.2924995,7.36250123 C10.6674995,7.07749943 11.0874996,6.87500003 11.5375004,6.75499923 Z M14.0049993,7.76749993 C13.3374998,7.76749993 12.7974988,7.96999933 12.3774997,8.38249973 C11.9574995,8.79499914 11.7475004,9.31250954 11.7475004,9.95749864 C11.7475004,10.6174965 11.9650001,11.1499978 12.392501,11.5624981 C12.8200008,11.9749985 13.3750011,12.1774979 14.057501,12.1774979 C14.8300001,12.1774979 15.4150011,11.9524994 15.8050005,11.494999 C16.1800005,11.0599995 16.3675005,10.5499974 16.3675005,9.97999774 C16.3675005,9.32749564 16.1499998,8.79499734 15.7225,8.37499823 C15.3025018,7.97750003 14.7325002,7.76749993 14.0049993,7.76749993 Z M14.0200006,2.27750021 C13.4275009,2.27750021 12.955001,2.44249921 12.5874998,2.77250011 C12.2275001,3.10250001 12.0400001,3.53750991 12.0400001,4.07000062 C12.0400001,4.63250062 12.2199995,5.07499982 12.5874998,5.41250992 C12.955,5.75000002 13.4424993,5.91500002 14.0575009,5.91500002 C14.6725007,5.91500002 15.1600018,5.75000002 15.5125008,5.41999922 C15.8724995,5.09000022 16.0450001,4.63249982 16.0450001,4.06249912 C16.0450001,3.49999911 15.8650017,3.06499871 15.5049992,2.74999911 C15.1449987,2.43499951 14.665001,2.27750021 14.0200006,2.27750021 Z"/>
      </g>
      <path d="M3.09250021,2.03500031 L3.09250021,3.25000001 L2.77750021,3.25000001 L2.72500041,2.99499991 C2.56000091,3.20499991 2.33500101,3.30249981 2.05000071,3.30249981 C1.70500071,3.30249981 1.43500091,3.17500021 1.24000031,2.92000011 C1.0750005,2.70999961 0.992500104,2.44749981 0.992500104,2.13249971 C0.992500104,1.78000021 1.0975004,1.48751001 1.31500031,1.26251011 C1.51750021,1.0524998 1.78000021,0.939999904 2.09500031,0.939999904 C2.38750081,0.939999904 2.62750061,1.03751 2.81500061,1.22500001 C2.95000081,1.36750021 3.03250031,1.53999981 3.05500041,1.73500021 L2.58250001,1.73500021 C2.55999951,1.61500021 2.50000001,1.51750021 2.41750001,1.45000001 C2.33500001,1.38249981 2.22250031,1.34499981 2.09499981,1.34499981 C1.89250021,1.34499981 1.74250011,1.41999981 1.63000011,1.57749991 C1.53249981,1.71251011 1.48750001,1.89249941 1.48750001,2.12500001 C1.48750001,2.34999991 1.53249981,2.52250001 1.62250021,2.65749981 C1.73500021,2.81499961 1.89250021,2.89749961 2.11000021,2.89749961 C2.26750001,2.89749961 2.39500051,2.85250001 2.4925001,2.75499971 C2.58999981,2.65749941 2.64250001,2.53749951 2.65000021,2.38749941 L2.14750001,2.38749941 L2.14750001,2.02749921 L3.09250021,2.03500031 L3.09250021,2.03500031 Z"/>
      <polygon points="3.902 1 3.902 3.25 3.46 3.25 3.46 1"/>
      <path fill-rule="nonzero" d="M5.77749972 2.72499991C5.75499962 2.82250021 5.71000002 2.90500021 5.65000012 2.98751021 5.50000002 3.18999961 5.29000002 3.28750991 5.01249982 3.28750991 4.76499992 3.28750991 4.56250002 3.20499991 4.41249992 3.04750011 4.33750012 2.97250031 4.28500032 2.87500001 4.23999982 2.77000051 4.19499972 2.65750031 4.17999942 2.53000071 4.17999942 2.41000031 4.17999942 2.16250991 4.24749952 1.96000031 4.38999992 1.79500051 4.54749972 1.60750061 4.75000002 1.51750061 4.99750042 1.51750061 5.19999982 1.51750061 5.37250042 1.57750081 5.51499982 1.70500061 5.61999942 1.79500061 5.68750002 1.90750051 5.73999982 2.03500081 5.79249962 2.16250131 5.80749942 2.32750081 5.80749942 2.53000071L4.63749892 2.53000071C4.64499952 2.61250071 4.65249882 2.68000081 4.67499882 2.73250061 4.73499922 2.88250071 4.84749892 2.95000081 5.01999952 2.95000081 5.10250002 2.95000081 5.16999912 2.93500091 5.22249892 2.89750101 5.27499872 2.86000061 5.31999922 2.80000071 5.34999902 2.72500041L5.77749972 2.72499991 5.77749972 2.72499991zM5.34249972 2.23000001C5.33499912 2.14750001 5.31250002 2.07999991 5.29000002 2.02750021 5.26000022 1.97500061 5.22250032 1.93000011 5.16999912 1.90000061 5.11749842 1.87000111 5.05749942 1.85500071 4.99749902 1.85500071 4.89999872 1.85500071 4.81749962 1.88500071 4.74999912 1.95250081 4.68249802 2.02000091 4.64499962 2.11000061 4.63749892 2.22250081L5.34249972 2.23000001 5.34249972 2.23000001zM6.52750023 1L6.52750023 1.40500021 6.08500003 1.40500021 6.08500003 1 6.52750023 1zM6.52750023 1.56999991L6.52750023 3.25000001 6.08500003 3.25000001 6.08500003 1.56999991 6.52750023 1.56999991z"/>
      <path d="M8.24500083,2.05749991 L7.82499983,2.05749991 C7.81749923,1.99749971 7.80249983,1.95999961 7.77999973,1.93000011 C7.73499873,1.86999991 7.64499953,1.84000041 7.52499963,1.84000041 C7.44249913,1.84000041 7.38250063,1.85500001 7.34500023,1.88500021 C7.30750083,1.91500041 7.27750113,1.95250031 7.27750113,2.00500011 C7.27750113,2.05749991 7.30000113,2.10250041 7.35250093,2.12500001 C7.40500073,2.14749961 7.51000123,2.17749981 7.68250083,2.21499971 C7.89999963,2.25999981 8.05750083,2.31251001 8.14750003,2.37999971 C8.26000023,2.45499951 8.32000063,2.57499941 8.32000063,2.73249921 C8.32000063,2.91249951 8.25250053,3.04749931 8.11000063,3.15249931 C7.97500043,3.24999951 7.78750043,3.29499911 7.56250003,3.29499911 C7.28499983,3.29499911 7.07499983,3.22749901 6.94750023,3.08499911 C6.85750013,2.98749881 6.81250003,2.85999921 6.79750063,2.70249941 L7.22500043,2.70249941 C7.23250013,2.77749921 7.25499923,2.83749961 7.28499993,2.87499951 C7.34500033,2.94249961 7.43500053,2.97999951 7.57000073,2.97999951 C7.65999993,2.97999951 7.73500073,2.96499961 7.78750043,2.92749971 C7.84000013,2.88999981 7.87000093,2.83751001 7.87000093,2.77749961 C7.87000093,2.71749971 7.84749993,2.67999931 7.80250083,2.65000001 C7.75750173,2.62000031 7.66000183,2.58999961 7.51000133,2.55249971 C7.36750233,2.51499981 7.26250093,2.49249931 7.20250143,2.46999971 C7.14250103,2.44750011 7.09000123,2.42500011 7.03750143,2.40249961 C6.97750103,2.36499971 6.92500123,2.31999961 6.89500153,2.25249951 C6.86500183,2.18499941 6.84250163,2.11749941 6.84250163,2.03499981 C6.84250163,1.86249941 6.91750143,1.72749971 7.06000133,1.63749931 C7.18000213,1.56249951 7.34500113,1.52499931 7.55500213,1.52499931 C7.83250133,1.52499931 8.03500163,1.59249941 8.15500153,1.73499961 C8.19999983,1.81000021 8.23750023,1.92250011 8.24500083,2.05749991 Z"/>
    </g>
  </g>
</svg>
