<svg xmlns="http://www.w3.org/2000/svg" width="24" height="24" viewBox="0 0 24 24">
  <g fill="none" fill-rule="evenodd">
    <path fill="#2D327D" d="M22.5,0 L1.5,0 C0.675000003,0 0,0.675000003 0,1.5 L0,22.5 C0,23.3250009 0.675000003,24 1.5,24 L22.5,24 C23.3250009,24 24,23.3250009 24,22.5 L24,1.5 C24,0.675000003 23.3250009,0 22.5,0 Z"/>
    <g fill="#FFF" transform="translate(2 3)">
      <path d="M6.82749943,4.50749922 L6.82749943,18.0000001 L4.13499982,18.0000001 L4.13499982,9.16500004 L3.17499921,9.16500004 L2.20750001,9.16500004 L1.27749971,9.16500004 L0.954999404,9.16500004 L0.954999404,7.20749953 C1.61499971,7.19249923 2.14749951,7.12499903 2.56749961,7.00499923 C2.97999951,6.88499933 3.36249921,6.69749933 3.70749952,6.43499953 C4.20249942,6.05249883 4.53999902,5.40749932 4.71249872,4.50749922 L6.82749943,4.50749922 L6.82749943,4.50749922 Z"/>
      <path fill-rule="nonzero" d="M11.5375004,10.7549992 C10.9075003,10.53751 10.4274998,10.184999 10.0900002,9.69749934 C9.75249964,9.20249854 9.58749974,8.60999874 9.58749974,7.90499983 C9.58749974,6.73499883 10.0674992,5.80499942 11.0275002,5.10749922 C11.875,4.49249942 12.8874999,4.18499902 14.0575009,4.18499902 C15.3850022,4.18499902 16.4725018,4.55249882 17.3125001,5.27999972 C18.1150018,5.96999932 18.5125009,6.81749913 18.5125009,7.83751013 C18.5125009,8.54249954 18.3400003,9.14999964 18.0025007,9.65250014 C17.665001,10.1549997 17.1850015,10.5225 16.5625001,10.7475004 C17.0499993,10.8899994 17.4474984,11.0700006 17.7549993,11.2950001 C18.6099988,11.9175005 19.0375005,12.8249999 19.0375005,14.0175 C19.0375005,15.3899995 18.5125009,16.4849988 17.4624997,17.2950002 C16.5775014,17.977501 15.4375001,18.3225023 14.0499993,18.3225023 C12.5424996,18.3225023 11.3424997,17.9475023 10.4499998,17.1975023 C9.52000044,16.4175016 9.05499934,15.3900015 9.05499934,14.1225015 C9.05499934,12.9375011 9.46749974,12.0150014 10.2924995,11.3625012 C10.6674995,11.0774994 11.0874996,10.875 11.5375004,10.7549992 Z M14.0049993,11.7674999 C13.3374998,11.7674999 12.7974988,11.9699993 12.3774997,12.3824998 C11.9574995,12.7949992 11.7475004,13.3125096 11.7475004,13.9574987 C11.7475004,14.6174966 11.9650001,15.1499979 12.392501,15.5624982 C12.8200008,15.9749986 13.3750011,16.177498 14.057501,16.177498 C14.8300001,16.177498 15.4150011,15.9524995 15.8050005,15.4949991 C16.1800005,15.0599996 16.3675005,14.5499975 16.3675005,13.9799978 C16.3675005,13.3274957 16.1499998,12.7949974 15.7225,12.3749983 C15.3025018,11.9775 14.7325002,11.7674999 14.0049993,11.7674999 Z M14.0200006,6.27750023 C13.4275009,6.27750023 12.955001,6.44249923 12.5874998,6.77250013 C12.2275001,7.10250003 12.0400001,7.53750993 12.0400001,8.07000063 C12.0400001,8.63250064 12.2199995,9.07499984 12.5874998,9.41250994 C12.955,9.75000004 13.4424993,9.91500004 14.0575009,9.91500004 C14.6725007,9.91500004 15.1600018,9.75000004 15.5125008,9.41999924 C15.8724995,9.09000024 16.0450001,8.63249984 16.0450001,8.06249913 C16.0450001,7.49999913 15.8650017,7.06499873 15.5049992,6.74999913 C15.1449987,6.43499953 14.665001,6.27750023 14.0200006,6.27750023 Z"/>
      <polygon points="3.032 0 2.282 2.25 1.727 2.25 .992 0 1.502 0 2.005 1.688 2.515 0"/>
      <path fill-rule="nonzero" d="M3.87250042.525000102C4.12000032.525000102 4.31500052.607499803 4.47250032.764999903 4.62250042.922499704 4.70500092 1.1399999 4.70500092 1.40249971 4.70500092 1.67999941 4.62250042 1.89749961 4.45750052 2.06251001 4.30750042 2.21251011 4.10500052 2.29500011 3.85750062 2.29500011 3.59500031 2.29500011 3.38500031 2.21251011 3.23500021 2.04000001 3.08500001 1.87500001 3.01000021 1.66500001 3.01000021 1.40999981 3.01000021 1.1549996 3.08500001.952499904 3.22750041.787499403 3.38500021.614999803 3.60250002.525000102 3.87250042.525000102zM3.84999992.869999904C3.73000002.869999904 3.63999992.914999704 3.56499961 1.0125098 3.49749951 1.1100001 3.45999961 1.23751021 3.45999961 1.41000031 3.45999961 1.58250041 3.49749951 1.71750021 3.56499961 1.80750031 3.63999992 1.89750001 3.73750022 1.95000081 3.85750012 1.95000081 3.96999982 1.95000081 4.06750012 1.90500071 4.13499982 1.82250071 4.20999962 1.72500041 4.24749952 1.59000111 4.24749952 1.41000081 4.24749952 1.24500081 4.20999962 1.1100006 4.14249952 1.0200009 4.08250002.922500104 3.97750002.869999904 3.84999992.869999904zM5.44750022 5.55111512e-17L5.44750022.405000202 5.00500062.405000202 5.00500062 5.55111512e-17 5.44750022 5.55111512e-17zM5.44750022.569999902L5.44750022 2.25000001 5.00500062 2.25000001 5.00500062.569999902 5.44750022.569999902zM7.32250023 1.72499991C7.30000023 1.82250021 7.25500103 1.90500021 7.19500063 1.98751021 7.04500013 2.18999961 6.83500003 2.28750991 6.55750083 2.28750991 6.31000043 2.28750991 6.10750003 2.20499991 5.95750042 2.04750011 5.88250062 1.97250031 5.83000092 1.87500001 5.78500032 1.77000051 5.73999982 1.65750031 5.72499992 1.53000071 5.72499992 1.41000031 5.72499992 1.1625099 5.79249952.960000304 5.93500042.795000503 6.09250073.607500503 6.29500013.517500602 6.54250053.517500602 6.74500083.517500602 6.91750053.577500802 7.06000043.705000603 7.16500003.795000603 7.23250013.907500504 7.28499983 1.0350008 7.33749963 1.1625013 7.35250003 1.32750081 7.35250003 1.53000071L6.17500023 1.53000071C6.18250083 1.61250071 6.18999963 1.68000081 6.21249963 1.73250061 6.27250003 1.88250061 6.38500023 1.95000081 6.55750083 1.95000081 6.64000133 1.95000081 6.70750043 1.93500091 6.76000023 1.89750101 6.81250003 1.86000061 6.85750013 1.80000071 6.88749983 1.72500041L7.32250023 1.72499991 7.32250023 1.72499991zM6.89500053 1.23000001C6.88749983 1.1475 6.86500073 1.0799999 6.84250073 1.0275002 6.81250103.975000604 6.77500153.930000104 6.72249983.900000604 6.66999913.870001104 6.61000063.855000703 6.55000023.855000703 6.45249943.855000703 6.37000083.885000704 6.30249983.952500804 6.23499883 1.0200009 6.19750033 1.1100006 6.18999963 1.2225008L6.89500053 1.2225008 6.89500053 1.23000001z"/>
    </g>
  </g>
</svg>
