<svg xmlns="http://www.w3.org/2000/svg" width="24" height="24" viewBox="0 0 24 24">
  <g fill="none" fill-rule="evenodd">
    <path fill="#2D327D" d="M22.5,0 L1.5,0 C0.675000003,0 0,0.675000003 0,1.5 L0,22.5 C0,23.3250009 0.675000003,24 1.5,24 L22.5,24 C23.3250009,24 24,23.3250009 24,22.5 L24,1.5 C24,0.675000003 23.3250009,0 22.5,0 Z"/>
    <g fill="#FFF" transform="translate(2 3)">
      <g transform="translate(2 6)">
        <path d="M5.35250002,0.757500603 L5.35250002,12.0000001 L3.11000011,12.0000001 L3.11000011,4.64249992 L2.30750041,4.64249992 L1.50500061,4.64249992 L0.725000403,4.64249992 L0.455000902,4.64249992 L0.455000902,3.01499941 C1.002501,3.00000001 1.45250081,2.93999961 1.79750061,2.84249971 C2.14250091,2.74499891 2.45750091,2.58751011 2.75000091,2.36250971 C3.16250131,2.04750061 3.44750111,1.50750061 3.59000111,0.757500603 L5.35250002,0.757500603 L5.35250002,0.757500603 Z"/>
        <path fill-rule="nonzero" d="M8.52499964,9.18000034 L10.6475,9.18000034 C10.8200006,10.0499992 11.329998,10.4849987 12.1625004,10.4849987 C12.6349983,10.4849987 13.0174999,10.3274994 13.3099995,10.0049992 C13.602499,9.68250094 13.8349991,9.18750964 13.9925003,8.51251034 C14.0974998,8.08499913 14.1724987,7.59000023 14.2174988,7.04249953 C13.8724995,7.52249903 13.5200005,7.86750033 13.1599999,8.06999973 C12.7999993,8.27250103 12.3574982,8.37750053 11.8399982,8.37750053 C11.0149984,8.37750053 10.2949981,8.13751033 9.68749904,7.65750123 C9.25999924,7.31999973 8.92999844,6.87750053 8.68999864,6.34500023 C8.44999884,5.80500022 8.32999803,5.22000022 8.32999803,4.59000102 C8.32999803,3.32250111 8.76499844,2.29500001 9.62749864,1.51500121 C10.369998,0.840001003 11.2624988,0.502500402 12.3050004,0.502500402 C12.9424993,0.502500402 13.5349999,0.645000303 14.0825006,0.930000204 C14.6225015,1.21500101 15.0800001,1.62750041 15.4550001,2.15250101 C16.1075003,3.09000101 16.4300005,4.41000162 16.4300005,6.10500043 C16.4300005,7.67250053 16.1450007,9.01500124 15.5674994,10.1175021 C14.8174994,11.5575026 13.6849997,12.2775001 12.1700003,12.2775001 C11.1574994,12.2775001 10.324999,11.9999998 9.66499914,11.4375094 C9.00499924,10.875 8.62250044,10.1175003 8.52499964,9.18000034 Z M12.2599984,2.38500021 C11.7799997,2.38500021 11.3674993,2.58000081 11.0374985,2.97749991 C10.7074995,3.37499991 10.5349989,3.88500021 10.5349989,4.49999992 C10.5349989,4.99500072 10.6549997,5.43750942 10.8949995,5.82000052 C11.2249985,6.34500013 11.6824989,6.61500063 12.2824975,6.61500063 C12.8224984,6.61500063 13.2499982,6.39750093 13.5724984,5.97000012 C13.8724996,5.56500052 14.0224992,5.08500002 14.0224992,4.52250002 C14.0224992,3.93000032 13.864998,3.43500041 13.5499994,3.02250001 C13.2349988,2.60250001 12.7999993,2.38500021 12.2599984,2.38500021 Z"/>
      </g>
      <polygon points="3.032 0 2.282 2.25 1.727 2.25 .992 0 1.502 0 2.005 1.688 2.515 0"/>
      <path fill-rule="nonzero" d="M3.87250042.525000102C4.12000032.525000102 4.31500052.607499803 4.47250032.764999903 4.62250042.922499704 4.70500092 1.1399999 4.70500092 1.40249971 4.70500092 1.67999941 4.62250042 1.89749961 4.45750052 2.06251001 4.30750042 2.21251011 4.10500052 2.29500011 3.85750062 2.29500011 3.59500031 2.29500011 3.38500031 2.21251011 3.23500021 2.04000001 3.08500001 1.87500001 3.01000021 1.66500001 3.01000021 1.40999981 3.01000021 1.1549996 3.08500001.952499904 3.22750041.787499403 3.38500021.614999803 3.60250002.525000102 3.87250042.525000102zM3.84999992.869999904C3.73000002.869999904 3.63999992.914999704 3.56499961 1.0125098 3.49749951 1.1100001 3.45999961 1.23751021 3.45999961 1.41000031 3.45999961 1.58250041 3.49749951 1.71750021 3.56499961 1.80750031 3.63999992 1.89750001 3.73750022 1.95000081 3.85750012 1.95000081 3.96999982 1.95000081 4.06750012 1.90500071 4.13499982 1.82250071 4.20999962 1.72500041 4.24749952 1.59000111 4.24749952 1.41000081 4.24749952 1.24500081 4.20999962 1.1100006 4.14249952 1.0200009 4.08250002.922500104 3.97750002.869999904 3.84999992.869999904zM5.44750022 5.55111512e-17L5.44750022.405000202 5.00500062.405000202 5.00500062 5.55111512e-17 5.44750022 5.55111512e-17zM5.44750022.569999902L5.44750022 2.25000001 5.00500062 2.25000001 5.00500062.569999902 5.44750022.569999902zM7.32250023 1.72499991C7.30000023 1.82250021 7.25500103 1.90500021 7.19500063 1.98751021 7.04500013 2.18999961 6.83500003 2.28750991 6.55750083 2.28750991 6.31000043 2.28750991 6.10750003 2.20499991 5.95750042 2.04750011 5.88250062 1.97250031 5.83000092 1.87500001 5.78500032 1.77000051 5.73999982 1.65750031 5.72499992 1.53000071 5.72499992 1.41000031 5.72499992 1.1625099 5.79249952.960000304 5.93500042.795000503 6.09250073.607500503 6.29500013.517500602 6.54250053.517500602 6.74500083.517500602 6.91750053.577500802 7.06000043.705000603 7.16500003.795000603 7.23250013.907500504 7.28499983 1.0350008 7.33749963 1.1625013 7.35250003 1.32750081 7.35250003 1.53000071L6.17500023 1.53000071C6.18250083 1.61250071 6.18999963 1.68000081 6.21249963 1.73250061 6.27250003 1.88250061 6.38500023 1.95000081 6.55750083 1.95000081 6.64000133 1.95000081 6.70750043 1.93500091 6.76000023 1.89750101 6.81250003 1.86000061 6.85750013 1.80000071 6.88749983 1.72500041L7.32250023 1.72499991 7.32250023 1.72499991zM6.89500053 1.23000001C6.88749983 1.1475 6.86500073 1.0799999 6.84250073 1.0275002 6.81250103.975000604 6.77500153.930000104 6.72249983.900000604 6.66999913.870001104 6.61000063.855000703 6.55000023.855000703 6.45249943.855000703 6.37000083.885000704 6.30249983.952500804 6.23499883 1.0200009 6.19750033 1.1100006 6.18999963 1.2225008L6.89500053 1.2225008 6.89500053 1.23000001z"/>
    </g>
  </g>
</svg>
