<svg xmlns="http://www.w3.org/2000/svg" width="24" height="24" viewBox="0 0 24 24">
  <g fill="none" fill-rule="evenodd">
    <path fill="#2D327D" d="M22.5,0 L1.5,0 C0.675000003,0 0,0.675000003 0,1.5 L0,22.5 C0,23.3250009 0.675000003,24 1.5,24 L22.5,24 C23.3250009,24 24,23.3250009 24,22.5 L24,1.5 C24,0.675000003 23.3250009,0 22.5,0 Z"/>
    <g fill="#FFF" transform="translate(2 3)">
      <path d="M6.82749943,4.50749922 L6.82749943,18.0000001 L4.13499982,18.0000001 L4.13499982,9.16500004 L3.17499921,9.16500004 L2.20750001,9.16500004 L1.27749971,9.16500004 L0.954999404,9.16500004 L0.954999404,7.20749953 C1.61499971,7.19249923 2.14749951,7.12499903 2.56749961,7.00499923 C2.97999951,6.88499933 3.36249921,6.69749933 3.70749952,6.43499953 C4.20249942,6.05249883 4.53999902,5.40749932 4.71249872,4.50749922 L6.82749943,4.50749922 L6.82749943,4.50749922 Z"/>
      <path fill-rule="nonzero" d="M9.55750084,14.6099988 L12.1075001,14.6099988 C12.3175011,15.6524983 12.9250002,16.177498 13.9225006,16.177498 C14.4849987,16.177498 14.9500008,15.9824983 15.3025017,15.5999986 C15.6550026,15.217497 15.9249993,14.6174966 16.1200009,13.8074991 C16.2400017,13.2899992 16.33,12.7049982 16.3900014,12.0449983 C15.977501,12.6224977 15.5575009,13.0349981 15.1225015,13.2749978 C14.687502,13.5149995 14.1625005,13.6424981 13.540001,13.6424981 C12.5500012,13.6424981 11.6875009,13.3499986 10.9525013,12.7724973 C10.4425011,12.3674976 10.0450001,11.8424969 9.76000124,11.1974964 C9.47500234,10.5524959 9.33250144,9.84749704 9.33250144,9.08999634 C9.33250144,7.56749633 9.85000134,6.33749673 10.8925018,5.39999672 C11.7850017,4.58999632 12.8575021,4.18499652 14.1025029,4.18499652 C14.875002,4.18499652 15.5800019,4.35749712 16.2325021,4.70249642 C16.8850042,5.04749672 17.4325029,5.53499692 17.875002,6.17249673 C18.6550027,7.29749673 19.0450021,8.87999724 19.0450021,10.9124965 C19.0450021,12.7949972 18.7000028,14.3999958 18.0100042,15.7274971 C17.1100046,17.4599972 15.7525026,18.3224964 13.9300043,18.3224964 C12.7150041,18.3224964 11.7175046,17.9849968 10.9225036,17.3174972 C10.1350002,16.6499997 9.67749984,15.7425004 9.55750084,14.6099988 Z M14.0424996,6.46500023 C13.4650002,6.46500023 12.9775,6.70500003 12.5724993,7.17749983 C12.1749993,7.65749933 11.9724988,8.26499943 11.9724988,9.00749974 C11.9724988,9.60749914 12.1149988,10.1324997 12.4074993,10.5974989 C12.7974987,11.227499 13.3524999,11.5499992 14.0650005,11.5499992 C14.7099991,11.5499992 15.2275009,11.2949991 15.6175003,10.7774982 C15.977499,10.289999 16.164999,9.71249864 16.164999,9.04499814 C16.164999,8.33999823 15.977499,7.73999873 15.602499,7.24499793 C15.205,6.72000033 14.6875001,6.46500023 14.0424996,6.46500023 Z"/>
      <polygon points="3.032 0 2.282 2.25 1.727 2.25 .992 0 1.502 0 2.005 1.688 2.515 0"/>
      <path fill-rule="nonzero" d="M3.87250042.525000102C4.12000032.525000102 4.31500052.607499803 4.47250032.764999903 4.62250042.922499704 4.70500092 1.1399999 4.70500092 1.40249971 4.70500092 1.67999941 4.62250042 1.89749961 4.45750052 2.06251001 4.30750042 2.21251011 4.10500052 2.29500011 3.85750062 2.29500011 3.59500031 2.29500011 3.38500031 2.21251011 3.23500021 2.04000001 3.08500001 1.87500001 3.01000021 1.66500001 3.01000021 1.40999981 3.01000021 1.1549996 3.08500001.952499904 3.22750041.787499403 3.38500021.614999803 3.60250002.525000102 3.87250042.525000102zM3.84999992.869999904C3.73000002.869999904 3.63999992.914999704 3.56499961 1.0125098 3.49749951 1.1100001 3.45999961 1.23751021 3.45999961 1.41000031 3.45999961 1.58250041 3.49749951 1.71750021 3.56499961 1.80750031 3.63999992 1.89750001 3.73750022 1.95000081 3.85750012 1.95000081 3.96999982 1.95000081 4.06750012 1.90500071 4.13499982 1.82250071 4.20999962 1.72500041 4.24749952 1.59000111 4.24749952 1.41000081 4.24749952 1.24500081 4.20999962 1.1100006 4.14249952 1.0200009 4.08250002.922500104 3.97750002.869999904 3.84999992.869999904zM5.44750022 5.55111512e-17L5.44750022.405000202 5.00500062.405000202 5.00500062 5.55111512e-17 5.44750022 5.55111512e-17zM5.44750022.569999902L5.44750022 2.25000001 5.00500062 2.25000001 5.00500062.569999902 5.44750022.569999902zM7.32250023 1.72499991C7.30000023 1.82250021 7.25500103 1.90500021 7.19500063 1.98751021 7.04500013 2.18999961 6.83500003 2.28750991 6.55750083 2.28750991 6.31000043 2.28750991 6.10750003 2.20499991 5.95750042 2.04750011 5.88250062 1.97250031 5.83000092 1.87500001 5.78500032 1.77000051 5.73999982 1.65750031 5.72499992 1.53000071 5.72499992 1.41000031 5.72499992 1.1625099 5.79249952.960000304 5.93500042.795000503 6.09250073.607500503 6.29500013.517500602 6.54250053.517500602 6.74500083.517500602 6.91750053.577500802 7.06000043.705000603 7.16500003.795000603 7.23250013.907500504 7.28499983 1.0350008 7.33749963 1.1625013 7.35250003 1.32750081 7.35250003 1.53000071L6.17500023 1.53000071C6.18250083 1.61250071 6.18999963 1.68000081 6.21249963 1.73250061 6.27250003 1.88250061 6.38500023 1.95000081 6.55750083 1.95000081 6.64000133 1.95000081 6.70750043 1.93500091 6.76000023 1.89750101 6.81250003 1.86000061 6.85750013 1.80000071 6.88749983 1.72500041L7.32250023 1.72499991 7.32250023 1.72499991zM6.89500053 1.23000001C6.88749983 1.1475 6.86500073 1.0799999 6.84250073 1.0275002 6.81250103.975000604 6.77500153.930000104 6.72249983.900000604 6.66999913.870001104 6.61000063.855000703 6.55000023.855000703 6.45249943.855000703 6.37000083.885000704 6.30249983.952500804 6.23499883 1.0200009 6.19750033 1.1100006 6.18999963 1.2225008L6.89500053 1.2225008 6.89500053 1.23000001z"/>
    </g>
  </g>
</svg>
