<svg xmlns="http://www.w3.org/2000/svg" width="24" height="24" viewBox="0 0 24 24">
  <g fill="none" fill-rule="evenodd">
    <path fill="#2D327D" d="M22.5,0 L1.5,0 C0.675000003,0 0,0.675000003 0,1.5 L0,22.5 C0,23.3250009 0.675000003,24 1.5,24 L22.5,24 C23.3250009,24 24,23.3250009 24,22.5 L24,1.5 C24,0.675000003 23.3250009,0 22.5,0 Z"/>
    <g fill="#FFF" transform="translate(2 3)">
      <g transform="translate(1 6)">
        <path d="M0.412499901,4.32000062 C0.435000201,3.39750001 0.667500002,2.62500001 1.0949998,1.99500081 C1.79250001,0.990000704 2.84249971,0.487509702 4.23750022,0.487509702 C5.31749922,0.487509702 6.17999943,0.764999403 6.84749993,1.31250951 C7.56000053,1.90499971 7.92000013,2.67749971 7.92000013,3.62250042 C7.92000013,4.18500042 7.77750113,4.67250062 7.50000003,5.07749942 C7.22249983,5.48249912 6.84000023,5.76000022 6.36749943,5.90250022 C6.97500043,6.03751003 7.44749933,6.34499943 7.80000023,6.82499993 C8.15250023,7.30500043 8.32499983,7.87500013 8.32499983,8.55750094 C8.32499983,9.66749964 7.91250043,10.5825005 7.09500033,11.28751 C6.33749973,11.9474984 5.37750062,12.2700006 4.22250042,12.2700006 C2.97000031,12.2700006 1.97250041,11.9100018 1.2375003,11.1825009 C0.502499902,10.4625092 0.1350003,9.47999964 0.1350003,8.25000013 C0.1350003,8.22750103 0.1350003,8.17499933 0.1350003,8.10750023 L2.29500061,8.10750023 C2.29500061,8.79750074 2.46000011,9.33750934 2.79000051,9.71250934 C3.12000041,10.0875093 3.58500011,10.2749998 4.18500052,10.2749998 C4.78500092,10.2749998 5.24250042,10.0950014 5.57250032,9.74250054 C5.87250052,9.41251014 6.01499952,9.01499964 6.01499952,8.54999944 C6.01499952,7.99500103 5.82749952,7.55999963 5.44499982,7.23750893 C5.12999932,6.96749993 4.64999882,6.84000033 3.99749912,6.84000033 C3.80999912,6.84000033 3.62999971,6.84750003 3.44999901,6.86999913 L3.44999901,5.21999952 C3.58499921,5.22750012 3.71249881,5.23499892 3.83249962,5.23499892 C5.12249962,5.23499892 5.76750002,4.75499942 5.76750002,3.79499932 C5.76750002,3.37499921 5.62500012,3.03749871 5.34749902,2.77499881 C5.06249922,2.51249901 4.69499932,2.38499941 4.22999962,2.38499941 C3.70499951,2.38499941 3.29249961,2.54999941 3.00749931,2.87999931 C2.72249901,3.20999921 2.56499921,3.68999972 2.54249961,4.31999982 L0.412499901,4.32000062 L0.412499901,4.32000062 Z"/>
        <path fill-rule="nonzero" d="M11.6774998,5.96251012 C11.1525002,5.78250032 10.7549992,5.48999982 10.4775,5.07749942 C10.1999998,4.66500002 10.0574989,4.16999912 10.0574989,3.58500001 C10.0574989,2.61000061 10.4549999,1.83751011 11.2574997,1.25249951 C11.9624987,0.742499303 12.8024999,0.479999502 13.7774984,0.479999502 C14.8874971,0.479999502 15.7874986,0.787509903 16.4925005,1.39499951 C17.16,1.97249891 17.4899981,2.67749981 17.4899981,3.52499871 C17.4899981,4.11749842 17.3475001,4.61999902 17.069998,5.03999902 C16.7850001,5.45999912 16.3874972,5.76749802 15.8699991,5.95499802 C16.2749979,6.07499883 16.6049978,6.22499853 16.8599989,6.41249853 C17.5724985,6.92999843 17.9324991,7.68750963 17.9324991,8.67749794 C17.9324991,9.81749924 17.4974996,10.7324982 16.6199991,11.4074974 C15.8849985,11.977499 14.9324991,12.262497 13.7774984,12.262497 C12.5249988,12.262497 11.5199986,11.9474964 10.7774983,11.3249969 C10.0049983,10.6724967 9.61499894,9.81749724 9.61499894,8.76749804 C9.61499894,7.77749633 9.95999924,7.01249693 10.6424981,6.46499733 C10.9499998,6.23250013 11.2950001,6.06000043 11.6774998,5.96251012 Z M13.7325002,6.81000043 C13.1775018,6.81000043 12.727501,6.98250013 12.3750001,7.31999973 C12.0225001,7.65750123 11.8500004,8.10000043 11.8500004,8.63249974 C11.8500004,9.18000034 12.0299999,9.62999924 12.3825008,9.96749884 C12.7425005,10.3125096 13.2000009,10.4849987 13.7700006,10.4849987 C14.4150011,10.4849987 14.9025003,10.2974987 15.2250005,9.91499904 C15.540001,9.54749874 15.6974984,9.12749864 15.6974984,8.65499884 C15.6974984,8.11499793 15.5175,7.66499903 15.1574975,7.31999973 C14.8125001,6.97500043 14.3325006,6.81000043 13.7325002,6.81000043 Z M13.7474996,2.23500061 C13.2524988,2.23500061 12.8549997,2.37000081 12.5549995,2.64750001 C12.2549993,2.92500021 12.097499,3.28499981 12.097499,3.72749992 C12.097499,4.19249912 12.2474996,4.56749912 12.5549995,4.84499932 C12.8625003,5.12249952 13.2675001,5.26499942 13.785,5.26499942 C14.2949983,5.26499942 14.7000009,5.12999922 15.0000002,4.85250002 C15.2999994,4.57499982 15.4424994,4.19999982 15.4424994,3.71999942 C15.4424994,3.25499921 15.2924998,2.88749891 14.9925005,2.62499911 C14.7000009,2.36250971 14.2799989,2.23500061 13.7474996,2.23500061 Z"/>
      </g>
      <polygon points="3.032 0 2.282 2.25 1.727 2.25 .992 0 1.502 0 2.005 1.688 2.515 0"/>
      <path fill-rule="nonzero" d="M3.87250042.525000102C4.12000032.525000102 4.31500052.607499803 4.47250032.764999903 4.62250042.922499704 4.70500092 1.1399999 4.70500092 1.40249971 4.70500092 1.67999941 4.62250042 1.89749961 4.45750052 2.06251001 4.30750042 2.21251011 4.10500052 2.29500011 3.85750062 2.29500011 3.59500031 2.29500011 3.38500031 2.21251011 3.23500021 2.04000001 3.08500001 1.87500001 3.01000021 1.66500001 3.01000021 1.40999981 3.01000021 1.1549996 3.08500001.952499904 3.22750041.787499403 3.38500021.614999803 3.60250002.525000102 3.87250042.525000102zM3.84999992.869999904C3.73000002.869999904 3.63999992.914999704 3.56499961 1.0125098 3.49749951 1.1100001 3.45999961 1.23751021 3.45999961 1.41000031 3.45999961 1.58250041 3.49749951 1.71750021 3.56499961 1.80750031 3.63999992 1.89750001 3.73750022 1.95000081 3.85750012 1.95000081 3.96999982 1.95000081 4.06750012 1.90500071 4.13499982 1.82250071 4.20999962 1.72500041 4.24749952 1.59000111 4.24749952 1.41000081 4.24749952 1.24500081 4.20999962 1.1100006 4.14249952 1.0200009 4.08250002.922500104 3.97750002.869999904 3.84999992.869999904zM5.44750022 5.55111512e-17L5.44750022.405000202 5.00500062.405000202 5.00500062 5.55111512e-17 5.44750022 5.55111512e-17zM5.44750022.569999902L5.44750022 2.25000001 5.00500062 2.25000001 5.00500062.569999902 5.44750022.569999902zM7.32250023 1.72499991C7.30000023 1.82250021 7.25500103 1.90500021 7.19500063 1.98751021 7.04500013 2.18999961 6.83500003 2.28750991 6.55750083 2.28750991 6.31000043 2.28750991 6.10750003 2.20499991 5.95750042 2.04750011 5.88250062 1.97250031 5.83000092 1.87500001 5.78500032 1.77000051 5.73999982 1.65750031 5.72499992 1.53000071 5.72499992 1.41000031 5.72499992 1.1625099 5.79249952.960000304 5.93500042.795000503 6.09250073.607500503 6.29500013.517500602 6.54250053.517500602 6.74500083.517500602 6.91750053.577500802 7.06000043.705000603 7.16500003.795000603 7.23250013.907500504 7.28499983 1.0350008 7.33749963 1.1625013 7.35250003 1.32750081 7.35250003 1.53000071L6.17500023 1.53000071C6.18250083 1.61250071 6.18999963 1.68000081 6.21249963 1.73250061 6.27250003 1.88250061 6.38500023 1.95000081 6.55750083 1.95000081 6.64000133 1.95000081 6.70750043 1.93500091 6.76000023 1.89750101 6.81250003 1.86000061 6.85750013 1.80000071 6.88749983 1.72500041L7.32250023 1.72499991 7.32250023 1.72499991zM6.89500053 1.23000001C6.88749983 1.1475 6.86500073 1.0799999 6.84250073 1.0275002 6.81250103.975000604 6.77500153.930000104 6.72249983.900000604 6.66999913.870001104 6.61000063.855000703 6.55000023.855000703 6.45249943.855000703 6.37000083.885000704 6.30249983.952500804 6.23499883 1.0200009 6.19750033 1.1100006 6.18999963 1.2225008L6.89500053 1.2225008 6.89500053 1.23000001z"/>
    </g>
  </g>
</svg>
