<svg xmlns="http://www.w3.org/2000/svg" width="24" height="24" viewBox="0 0 24 24">
  <g fill="none" fill-rule="evenodd">
    <path fill="#2D327D" d="M22.5,0 L1.5,0 C0.675000003,0 0,0.675000003 0,1.5 L0,22.5 C0,23.3250009 0.675000003,24 1.5,24 L22.5,24 C23.3250009,24 24,23.3250009 24,22.5 L24,1.5 C24,0.675000003 23.3250009,0 22.5,0 Z"/>
    <g fill="#FFF" transform="translate(2 3)">
      <g transform="translate(1 6)">
        <path fill-rule="nonzero" d="M8.37749963,7.52999883 L8.37749963,9.42749794 L6.96000003,9.42749794 L6.96000003,12.0000001 L4.77000052,12.0000001 L4.77000052,9.43499954 L0.075,9.43499954 L0.075,7.32749943 L4.88250082,0.757497803 L6.96000003,0.757497803 L6.96000003,7.52999693 L8.37749963,7.52999883 L8.37749963,7.52999883 Z M4.81499962,7.55250173 L4.81499962,3.37500001 L1.92000011,7.55999953 L4.81499962,7.55999953 L4.81499962,7.55250173 Z"/>
        <path d="M17.5424996,0.757499603 L17.5424996,2.66250991 C17.4825001,2.72999951 17.3024979,2.93999961 16.9950009,3.28499981 C16.5750008,3.76499932 16.1549988,4.37250042 15.7425004,5.10750002 C15.33,5.83500002 15.0074998,6.54000083 14.7749997,7.20750043 C14.2875005,8.61000064 13.9950009,10.2075004 13.8900014,11.9999999 L11.5650005,11.9999999 C11.5800008,11.1525001 11.7300005,10.2150001 12.0075007,9.18750944 C12.2849999,8.15999973 12.6750002,7.12499993 13.1625004,6.09749973 C13.8675003,4.64250072 14.5799999,3.55499921 15.2999993,2.84249961 L9.98999974,2.84249961 L9.98999974,0.757499603 L17.5424996,0.757499603 L17.5424996,0.757499603 Z"/>
      </g>
      <polygon points="3.032 0 2.282 2.25 1.727 2.25 .992 0 1.502 0 2.005 1.688 2.515 0"/>
      <path fill-rule="nonzero" d="M3.87250042.525000102C4.12000032.525000102 4.31500052.607499803 4.47250032.764999903 4.62250042.922499704 4.70500092 1.1399999 4.70500092 1.40249971 4.70500092 1.67999941 4.62250042 1.89749961 4.45750052 2.06251001 4.30750042 2.21251011 4.10500052 2.29500011 3.85750062 2.29500011 3.59500031 2.29500011 3.38500031 2.21251011 3.23500021 2.04000001 3.08500001 1.87500001 3.01000021 1.66500001 3.01000021 1.40999981 3.01000021 1.1549996 3.08500001.952499904 3.22750041.787499403 3.38500021.614999803 3.60250002.525000102 3.87250042.525000102zM3.84999992.869999904C3.73000002.869999904 3.63999992.914999704 3.56499961 1.0125098 3.49749951 1.1100001 3.45999961 1.23751021 3.45999961 1.41000031 3.45999961 1.58250041 3.49749951 1.71750021 3.56499961 1.80750031 3.63999992 1.89750001 3.73750022 1.95000081 3.85750012 1.95000081 3.96999982 1.95000081 4.06750012 1.90500071 4.13499982 1.82250071 4.20999962 1.72500041 4.24749952 1.59000111 4.24749952 1.41000081 4.24749952 1.24500081 4.20999962 1.1100006 4.14249952 1.0200009 4.08250002.922500104 3.97750002.869999904 3.84999992.869999904zM5.44750022 5.55111512e-17L5.44750022.405000202 5.00500062.405000202 5.00500062 5.55111512e-17 5.44750022 5.55111512e-17zM5.44750022.569999902L5.44750022 2.25000001 5.00500062 2.25000001 5.00500062.569999902 5.44750022.569999902zM7.32250023 1.72499991C7.30000023 1.82250021 7.25500103 1.90500021 7.19500063 1.98751021 7.04500013 2.18999961 6.83500003 2.28750991 6.55750083 2.28750991 6.31000043 2.28750991 6.10750003 2.20499991 5.95750042 2.04750011 5.88250062 1.97250031 5.83000092 1.87500001 5.78500032 1.77000051 5.73999982 1.65750031 5.72499992 1.53000071 5.72499992 1.41000031 5.72499992 1.1625099 5.79249952.960000304 5.93500042.795000503 6.09250073.607500503 6.29500013.517500602 6.54250053.517500602 6.74500083.517500602 6.91750053.577500802 7.06000043.705000603 7.16500003.795000603 7.23250013.907500504 7.28499983 1.0350008 7.33749963 1.1625013 7.35250003 1.32750081 7.35250003 1.53000071L6.17500023 1.53000071C6.18250083 1.61250071 6.18999963 1.68000081 6.21249963 1.73250061 6.27250003 1.88250061 6.38500023 1.95000081 6.55750083 1.95000081 6.64000133 1.95000081 6.70750043 1.93500091 6.76000023 1.89750101 6.81250003 1.86000061 6.85750013 1.80000071 6.88749983 1.72500041L7.32250023 1.72499991 7.32250023 1.72499991zM6.89500053 1.23000001C6.88749983 1.1475 6.86500073 1.0799999 6.84250073 1.0275002 6.81250103.975000604 6.77500153.930000104 6.72249983.900000604 6.66999913.870001104 6.61000063.855000703 6.55000023.855000703 6.45249943.855000703 6.37000083.885000704 6.30249983.952500804 6.23499883 1.0200009 6.19750033 1.1100006 6.18999963 1.2225008L6.89500053 1.2225008 6.89500053 1.23000001z"/>
    </g>
  </g>
</svg>
