<svg xmlns="http://www.w3.org/2000/svg" width="24" height="24" viewBox="0 0 24 24">
  <g fill="none" fill-rule="evenodd">
    <path fill="#2D327D" d="M22.5,0 L1.5,0 C0.675000003,0 0,0.675000003 0,1.5 L0,22.5 C0,23.3250009 0.675000003,24 1.5,24 L22.5,24 C23.3250009,24 24,23.3250009 24,22.5 L24,1.5 C24,0.675000003 23.3250009,0 22.5,0 Z"/>
    <g fill="#FFF" transform="translate(2 3)">
      <path fill-rule="nonzero" d="M8.37749963 7.52999883L8.37749963 9.42749794 6.96000003 9.42749794 6.96000003 12.0000001 4.77000052 12.0000001 4.77000052 9.43499954.075 9.43499954.075 7.32749943 4.88250082.757497803 6.96000003.757497803 6.96000003 7.52999693 8.37749963 7.52999883 8.37749963 7.52999883zM4.81499962 7.55250173L4.81499962 3.37500001 1.92000011 7.55999953 4.81499962 7.55999953 4.81499962 7.55250173zM9.91500004 9.18000034L12.0375005 9.18000034C12.2100002 10.0499992 12.7199993 10.4849987 13.5525018 10.4849987 14.0249997 10.4849987 14.4075013 10.3274994 14.7000009 10.0049992 14.9925004 9.68250094 15.2250005 9.18750964 15.3824998 8.51251034 15.4874993 8.08499913 15.5625001 7.59000023 15.6075002 7.04249953 15.2625009 7.52249903 14.9100019 7.86750033 14.5499994 8.06999973 14.1900007 8.27250103 13.7474996 8.37750053 13.2299997 8.37750053 12.4049999 8.37750053 11.6849995 8.13751033 11.0774994 7.65750123 10.6499996 7.31999973 10.3199997 6.87750053 10.0799999 6.34500023 9.84000014 5.80500022 9.71999934 5.22000022 9.71999934 4.59000102 9.71999934 3.32250111 10.1549997 2.29500001 11.0174999 1.51500121 11.7599993.840001003 12.6525002.502500402 13.6949998.502500402 14.3325006.502500402 14.9249993.645000303 15.4725019.930000204 16.0125028 1.21500101 16.4700014 1.62750041 16.8450014 2.15250101 17.4975016 3.09000101 17.8199999 4.41000162 17.8199999 6.10500043 17.8199999 7.67250053 17.535002 9.01500124 16.9575007 10.1175021 16.2075007 11.5575026 15.075001 12.2775001 13.5600016 12.2775001 12.5475018 12.2775001 11.7150012 11.9999998 11.0550023 11.4375094 10.4025002 10.875 10.0200005 10.1175003 9.91500004 9.18000034zM13.6575013 2.38500021C13.1775018 2.38500021 12.7650014 2.58000081 12.4350005 2.97749991 12.1050006 3.37499991 11.9325008 3.88500021 11.9325008 4.49999992 11.9325008 4.99500072 12.0525008 5.43750942 12.2925006 5.82000052 12.6225005 6.34500013 13.08 6.61500063 13.6800023 6.61500063 14.2200032 6.61500063 14.6475011 6.39750093 14.9700032 5.97000012 15.2700025 5.56500052 15.4200021 5.08500002 15.4200021 4.52250002 15.4200021 3.93000032 15.2625028 3.43500041 14.9475042 3.02250001 14.6250001 2.60250001 14.1900006 2.38500021 13.6575013 2.38500021z" transform="translate(1 6)"/>
      <polygon points="3.032 0 2.282 2.25 1.727 2.25 .992 0 1.502 0 2.005 1.688 2.515 0"/>
      <path fill-rule="nonzero" d="M3.87250042.525000102C4.12000032.525000102 4.31500052.607499803 4.47250032.764999903 4.62250042.922499704 4.70500092 1.1399999 4.70500092 1.40249971 4.70500092 1.67999941 4.62250042 1.89749961 4.45750052 2.06251001 4.30750042 2.21251011 4.10500052 2.29500011 3.85750062 2.29500011 3.59500031 2.29500011 3.38500031 2.21251011 3.23500021 2.04000001 3.08500001 1.87500001 3.01000021 1.66500001 3.01000021 1.40999981 3.01000021 1.1549996 3.08500001.952499904 3.22750041.787499403 3.38500021.614999803 3.60250002.525000102 3.87250042.525000102zM3.84999992.869999904C3.73000002.869999904 3.63999992.914999704 3.56499961 1.0125098 3.49749951 1.1100001 3.45999961 1.23751021 3.45999961 1.41000031 3.45999961 1.58250041 3.49749951 1.71750021 3.56499961 1.80750031 3.63999992 1.89750001 3.73750022 1.95000081 3.85750012 1.95000081 3.96999982 1.95000081 4.06750012 1.90500071 4.13499982 1.82250071 4.20999962 1.72500041 4.24749952 1.59000111 4.24749952 1.41000081 4.24749952 1.24500081 4.20999962 1.1100006 4.14249952 1.0200009 4.08250002.922500104 3.97750002.869999904 3.84999992.869999904zM5.44750022 5.55111512e-17L5.44750022.405000202 5.00500062.405000202 5.00500062 5.55111512e-17 5.44750022 5.55111512e-17zM5.44750022.569999902L5.44750022 2.25000001 5.00500062 2.25000001 5.00500062.569999902 5.44750022.569999902zM7.32250023 1.72499991C7.30000023 1.82250021 7.25500103 1.90500021 7.19500063 1.98751021 7.04500013 2.18999961 6.83500003 2.28750991 6.55750083 2.28750991 6.31000043 2.28750991 6.10750003 2.20499991 5.95750042 2.04750011 5.88250062 1.97250031 5.83000092 1.87500001 5.78500032 1.77000051 5.73999982 1.65750031 5.72499992 1.53000071 5.72499992 1.41000031 5.72499992 1.1625099 5.79249952.960000304 5.93500042.795000503 6.09250073.607500503 6.29500013.517500602 6.54250053.517500602 6.74500083.517500602 6.91750053.577500802 7.06000043.705000603 7.16500003.795000603 7.23250013.907500504 7.28499983 1.0350008 7.33749963 1.1625013 7.35250003 1.32750081 7.35250003 1.53000071L6.17500023 1.53000071C6.18250083 1.61250071 6.18999963 1.68000081 6.21249963 1.73250061 6.27250003 1.88250061 6.38500023 1.95000081 6.55750083 1.95000081 6.64000133 1.95000081 6.70750043 1.93500091 6.76000023 1.89750101 6.81250003 1.86000061 6.85750013 1.80000071 6.88749983 1.72500041L7.32250023 1.72499991 7.32250023 1.72499991zM6.89500053 1.23000001C6.88749983 1.1475 6.86500073 1.0799999 6.84250073 1.0275002 6.81250103.975000604 6.77500153.930000104 6.72249983.900000604 6.66999913.870001104 6.61000063.855000703 6.55000023.855000703 6.45249943.855000703 6.37000083.885000704 6.30249983.952500804 6.23499883 1.0200009 6.19750033 1.1100006 6.18999963 1.2225008L6.89500053 1.2225008 6.89500053 1.23000001z"/>
    </g>
  </g>
</svg>
