<svg xmlns="http://www.w3.org/2000/svg" width="24" height="24" viewBox="0 0 24 24">
  <g fill="none" fill-rule="evenodd">
    <path fill="#2D327D" d="M22.5,0 L1.5,0 C0.675000003,0 0,0.675000003 0,1.5 L0,22.5 C0,23.3250009 0.675000003,24 1.5,24 L22.5,24 C23.3250009,24 24,23.3250009 24,22.5 L24,1.5 C24,0.675000003 23.3250009,0 22.5,0 Z"/>
    <g fill="#FFF" transform="translate(2 3)">
      <g transform="translate(1 6)">
        <path d="M7.71749973,0.757500603 L7.71749973,2.76000021 L3.18749951,2.76000021 L2.69999931,5.28750992 C3.23999931,4.71000002 3.93750002,4.42500022 4.78499892,4.42500022 C5.61749942,4.42500022 6.33749873,4.64999962 6.95249843,5.09249972 C7.86749843,5.76749992 8.32499883,6.78750993 8.32499883,8.15249823 C8.32499883,9.49499894 7.83749863,10.5599994 6.86249923,11.3474998 C6.10499862,11.9625091 5.19749922,12.2699986 4.13999842,12.2699986 C2.94749831,12.2699986 1.99499891,11.9474983 1.2749986,11.3099994 C0.554998802,10.6724986 0.1724991,9.80999944 0.1274986,8.72249984 L2.33249851,8.72249984 C2.36999891,9.11999894 2.49749851,9.45000074 2.71499871,9.72749904 C3.05999851,10.1624985 3.53249881,10.3799992 4.14749912,10.3799992 C4.73999882,10.3799992 5.20499992,10.1700001 5.54999932,9.74250034 C5.87999832,9.32999994 6.05249892,8.81999974 6.05249892,8.22749903 C6.05249892,7.58249853 5.87999832,7.06499863 5.52749832,6.67499923 C5.18249802,6.28499893 4.71749842,6.09749893 4.13249832,6.09749893 C3.42749791,6.09749893 2.87249811,6.41249853 2.48249821,7.04999923 L0.472498001,7.01999853 L1.54499821,0.750000003 L7.71749973,0.757500603 L7.71749973,0.757500603 Z"/>
        <path fill-rule="nonzero" d="M13.8224984,0.487509702 C14.6774979,0.487509702 15.4349995,0.750000003 16.08,1.27499961 C16.7250005,1.80000021 17.1974984,2.60249991 17.4899979,3.68999962 C17.7074986,4.52250012 17.8199978,5.42250062 17.8199978,6.39749913 C17.8199978,8.00999833 17.5349999,9.33750924 16.9574986,10.3799992 C16.619999,10.9875097 16.1774979,11.4524994 15.6299973,11.7825013 C15.0824986,12.112509 14.4749985,12.2775003 13.7999974,12.2775003 C12.8849984,12.2775003 12.097498,12.0000001 11.4449978,11.4449997 C10.289999,10.4625092 9.70499804,8.78250124 9.70499804,6.39750003 C9.70499804,4.70249942 10.0049982,3.34500021 10.6124992,2.32499981 C10.9574995,1.73999981 11.4074993,1.29000001 11.9624986,0.975000404 C12.5325004,0.645000503 13.1475011,0.487509702 13.8224984,0.487509702 Z M13.7400018,2.38500021 C13.0050012,2.38500021 12.5025007,2.81250951 12.2325002,3.65999982 C12.0225002,4.33500002 11.9175005,5.28750992 11.9175005,6.50250053 C11.9175005,7.58250043 12.0225001,8.44499974 12.2400008,9.09750174 C12.517501,9.94499964 13.0275002,10.3650016 13.7775002,10.3650016 C14.3999997,10.3650016 14.8575001,10.0350017 15.165001,9.38249964 C15.4650002,8.72999944 15.6150018,7.72500033 15.6150018,6.37499993 C15.6150018,5.22749992 15.5100023,4.32000052 15.2925016,3.65999972 C15.0150014,2.81250951 14.4974996,2.38500021 13.7400018,2.38500021 Z"/>
      </g>
      <polygon points="3.032 0 2.282 2.25 1.727 2.25 .992 0 1.502 0 2.005 1.688 2.515 0"/>
      <path fill-rule="nonzero" d="M3.87250042.525000102C4.12000032.525000102 4.31500052.607499803 4.47250032.764999903 4.62250042.922499704 4.70500092 1.1399999 4.70500092 1.40249971 4.70500092 1.67999941 4.62250042 1.89749961 4.45750052 2.06251001 4.30750042 2.21251011 4.10500052 2.29500011 3.85750062 2.29500011 3.59500031 2.29500011 3.38500031 2.21251011 3.23500021 2.04000001 3.08500001 1.87500001 3.01000021 1.66500001 3.01000021 1.40999981 3.01000021 1.1549996 3.08500001.952499904 3.22750041.787499403 3.38500021.614999803 3.60250002.525000102 3.87250042.525000102zM3.84999992.869999904C3.73000002.869999904 3.63999992.914999704 3.56499961 1.0125098 3.49749951 1.1100001 3.45999961 1.23751021 3.45999961 1.41000031 3.45999961 1.58250041 3.49749951 1.71750021 3.56499961 1.80750031 3.63999992 1.89750001 3.73750022 1.95000081 3.85750012 1.95000081 3.96999982 1.95000081 4.06750012 1.90500071 4.13499982 1.82250071 4.20999962 1.72500041 4.24749952 1.59000111 4.24749952 1.41000081 4.24749952 1.24500081 4.20999962 1.1100006 4.14249952 1.0200009 4.08250002.922500104 3.97750002.869999904 3.84999992.869999904zM5.44750022 5.55111512e-17L5.44750022.405000202 5.00500062.405000202 5.00500062 5.55111512e-17 5.44750022 5.55111512e-17zM5.44750022.569999902L5.44750022 2.25000001 5.00500062 2.25000001 5.00500062.569999902 5.44750022.569999902zM7.32250023 1.72499991C7.30000023 1.82250021 7.25500103 1.90500021 7.19500063 1.98751021 7.04500013 2.18999961 6.83500003 2.28750991 6.55750083 2.28750991 6.31000043 2.28750991 6.10750003 2.20499991 5.95750042 2.04750011 5.88250062 1.97250031 5.83000092 1.87500001 5.78500032 1.77000051 5.73999982 1.65750031 5.72499992 1.53000071 5.72499992 1.41000031 5.72499992 1.1625099 5.79249952.960000304 5.93500042.795000503 6.09250073.607500503 6.29500013.517500602 6.54250053.517500602 6.74500083.517500602 6.91750053.577500802 7.06000043.705000603 7.16500003.795000603 7.23250013.907500504 7.28499983 1.0350008 7.33749963 1.1625013 7.35250003 1.32750081 7.35250003 1.53000071L6.17500023 1.53000071C6.18250083 1.61250071 6.18999963 1.68000081 6.21249963 1.73250061 6.27250003 1.88250061 6.38500023 1.95000081 6.55750083 1.95000081 6.64000133 1.95000081 6.70750043 1.93500091 6.76000023 1.89750101 6.81250003 1.86000061 6.85750013 1.80000071 6.88749983 1.72500041L7.32250023 1.72499991 7.32250023 1.72499991zM6.89500053 1.23000001C6.88749983 1.1475 6.86500073 1.0799999 6.84250073 1.0275002 6.81250103.975000604 6.77500153.930000104 6.72249983.900000604 6.66999913.870001104 6.61000063.855000703 6.55000023.855000703 6.45249943.855000703 6.37000083.885000704 6.30249983.952500804 6.23499883 1.0200009 6.19750033 1.1100006 6.18999963 1.2225008L6.89500053 1.2225008 6.89500053 1.23000001z"/>
    </g>
  </g>
</svg>
