<svg xmlns="http://www.w3.org/2000/svg" width="24" height="24" viewBox="0 0 24 24">
  <g fill="none" fill-rule="evenodd">
    <path fill="#2D327D" d="M22.5,0 L1.5,0 C0.675000003,0 0,0.675000003 0,1.5 L0,22.5 C0,23.3250009 0.675000003,24 1.5,24 L22.5,24 C23.3250009,24 24,23.3250009 24,22.5 L24,1.5 C24,0.675000003 23.3250009,0 22.5,0 Z"/>
    <g fill="#FFF" transform="translate(2 3)">
      <path fill-rule="nonzero" d="M8.08500003 3.56250951L5.94750022 3.56250951C5.74500082 2.69249911 5.25750062 2.26499941 4.47000022 2.26499941 3.63749971 2.26499941 3.05250021 2.77499961 2.70000071 3.79499912 2.55750031 4.20749952 2.43750041 4.83749862 2.35500041 5.67749972 2.69250051 5.21999922 3.05250061 4.88999932 3.43500081 4.69499962 3.81750052 4.49249932 4.27500102 4.39499942 4.81500092 4.39499942 5.87250132 4.39499942 6.72000023 4.76999942 7.35750003 5.51999942 7.96500103 6.22499843 8.27250003 7.11750023 8.27250003 8.18249883 8.27250003 9.44999684 7.86000063 10.4699973 7.04250053 11.2349986 6.30750083 11.9249991 5.41500092 12.2699985 4.38000062 12.2699985 3.05250071 12.2699985 2.01750091 11.7674979 1.2825003 10.7699984.547500202 9.76499924.1725002 8.36999883.1725002 6.57749833.1725002 4.65749822.570000502 3.15749821 1.3575006 2.06999771 2.12250041 1.0199986 3.16500041.494998002 4.48500012.494998002 5.73000052.494998002 6.68250083.914999004 7.34249973 1.74749761 7.73250013 2.22000031 7.97249983 2.82749941 8.08500003 3.56250951zM4.27500012 6.14249993C3.73500011 6.14249993 3.30749991 6.36749933 2.99250031 6.81749913 2.70750001 7.21499823 2.56500051 7.69499973 2.56500051 8.25000003 2.56500051 8.79749874 2.70750041 9.27750024 3.00000041 9.69000054 3.31500051 10.147501 3.75000001 10.3725014 4.30500082 10.3725014 4.84500032 10.3725014 5.28000072 10.1550026 5.60250092 9.72000124 5.91000172 9.30750084 6.06750112 8.82750134 6.06750112 8.26500133 6.06750112 7.71750263 5.93250092 7.24500083 5.65500072 6.85500053 5.31749922 6.37500003 4.85250002 6.14249993 4.27500012 6.14249993zM13.8224984.487509702C14.6774979.487509702 15.4349995.750000003 16.08 1.27499961 16.7250005 1.80000021 17.1974984 2.60249991 17.4899979 3.68999962 17.7074986 4.52250012 17.8199978 5.42250062 17.8199978 6.39749913 17.8199978 8.00999833 17.5349999 9.33750924 16.9574986 10.3799992 16.619999 10.9875097 16.1774979 11.4524994 15.6299973 11.7825013 15.0824986 12.112509 14.4749985 12.2775003 13.7999974 12.2775003 12.8849984 12.2775003 12.097498 12.0000001 11.4449978 11.4449997 10.289999 10.4625092 9.70499804 8.78250124 9.70499804 6.39750003 9.70499804 4.70249942 10.0049982 3.34500021 10.6124992 2.32499981 10.9574995 1.73999981 11.4074993 1.29000001 11.9624986.975000404 12.5325004.645000503 13.1475011.487509702 13.8224984.487509702zM13.7400018 2.38500021C13.0050012 2.38500021 12.5025007 2.81250951 12.2325002 3.65999982 12.0225002 4.33500002 11.9175005 5.28750992 11.9175005 6.50250053 11.9175005 7.58250043 12.0225001 8.44499974 12.2400008 9.09750174 12.517501 9.94499964 13.0275002 10.3650016 13.7775002 10.3650016 14.3999997 10.3650016 14.8575001 10.0350017 15.165001 9.38249964 15.4650002 8.72999944 15.6150018 7.72500033 15.6150018 6.37499993 15.6150018 5.22749992 15.5100023 4.32000052 15.2925016 3.65999972 15.0150014 2.81250951 14.4974996 2.38500021 13.7400018 2.38500021z" transform="translate(1 6)"/>
      <polygon points="3.032 0 2.282 2.25 1.727 2.25 .992 0 1.502 0 2.005 1.688 2.515 0"/>
      <path fill-rule="nonzero" d="M3.87250042.525000102C4.12000032.525000102 4.31500052.607499803 4.47250032.764999903 4.62250042.922499704 4.70500092 1.1399999 4.70500092 1.40249971 4.70500092 1.67999941 4.62250042 1.89749961 4.45750052 2.06251001 4.30750042 2.21251011 4.10500052 2.29500011 3.85750062 2.29500011 3.59500031 2.29500011 3.38500031 2.21251011 3.23500021 2.04000001 3.08500001 1.87500001 3.01000021 1.66500001 3.01000021 1.40999981 3.01000021 1.1549996 3.08500001.952499904 3.22750041.787499403 3.38500021.614999803 3.60250002.525000102 3.87250042.525000102zM3.84999992.869999904C3.73000002.869999904 3.63999992.914999704 3.56499961 1.0125098 3.49749951 1.1100001 3.45999961 1.23751021 3.45999961 1.41000031 3.45999961 1.58250041 3.49749951 1.71750021 3.56499961 1.80750031 3.63999992 1.89750001 3.73750022 1.95000081 3.85750012 1.95000081 3.96999982 1.95000081 4.06750012 1.90500071 4.13499982 1.82250071 4.20999962 1.72500041 4.24749952 1.59000111 4.24749952 1.41000081 4.24749952 1.24500081 4.20999962 1.1100006 4.14249952 1.0200009 4.08250002.922500104 3.97750002.869999904 3.84999992.869999904zM5.44750022 5.55111512e-17L5.44750022.405000202 5.00500062.405000202 5.00500062 5.55111512e-17 5.44750022 5.55111512e-17zM5.44750022.569999902L5.44750022 2.25000001 5.00500062 2.25000001 5.00500062.569999902 5.44750022.569999902zM7.32250023 1.72499991C7.30000023 1.82250021 7.25500103 1.90500021 7.19500063 1.98751021 7.04500013 2.18999961 6.83500003 2.28750991 6.55750083 2.28750991 6.31000043 2.28750991 6.10750003 2.20499991 5.95750042 2.04750011 5.88250062 1.97250031 5.83000092 1.87500001 5.78500032 1.77000051 5.73999982 1.65750031 5.72499992 1.53000071 5.72499992 1.41000031 5.72499992 1.1625099 5.79249952.960000304 5.93500042.795000503 6.09250073.607500503 6.29500013.517500602 6.54250053.517500602 6.74500083.517500602 6.91750053.577500802 7.06000043.705000603 7.16500003.795000603 7.23250013.907500504 7.28499983 1.0350008 7.33749963 1.1625013 7.35250003 1.32750081 7.35250003 1.53000071L6.17500023 1.53000071C6.18250083 1.61250071 6.18999963 1.68000081 6.21249963 1.73250061 6.27250003 1.88250061 6.38500023 1.95000081 6.55750083 1.95000081 6.64000133 1.95000081 6.70750043 1.93500091 6.76000023 1.89750101 6.81250003 1.86000061 6.85750013 1.80000071 6.88749983 1.72500041L7.32250023 1.72499991 7.32250023 1.72499991zM6.89500053 1.23000001C6.88749983 1.1475 6.86500073 1.0799999 6.84250073 1.0275002 6.81250103.975000604 6.77500153.930000104 6.72249983.900000604 6.66999913.870001104 6.61000063.855000703 6.55000023.855000703 6.45249943.855000703 6.37000083.885000704 6.30249983.952500804 6.23499883 1.0200009 6.19750033 1.1100006 6.18999963 1.2225008L6.89500053 1.2225008 6.89500053 1.23000001z"/>
    </g>
  </g>
</svg>
