<svg xmlns="http://www.w3.org/2000/svg" width="24" height="24" viewBox="0 0 24 24">
  <g fill="none" fill-rule="evenodd">
    <path fill="#2D327D" d="M22.5,0 L1.5,0 C0.675000003,0 0,0.675000003 0,1.5 L0,22.5 C0,23.3250009 0.675000003,24 1.5,24 L22.5,24 C23.3250009,24 24,23.3250009 24,22.5 L24,1.5 C24,0.675000003 23.3250009,0 22.5,0 Z"/>
    <g fill="#FFF" transform="translate(2 3)">
      <path d="M7.99500083.757499703L7.99500083 2.66250991C7.93500043 2.72999951 7.75500103 2.93999961 7.44750023 3.28499981 7.02750013 3.76499932 6.60750003 4.37250042 6.19500063 5.10750002 5.78250032 5.83500002 5.46000002 6.54000093 5.22750092 7.20750053 4.74000072 8.61000074 4.44750122 10.2075005 4.34250072 12.0000001L2.01750091 12.0000001C2.03250031 11.1525002 2.18250041 10.2150002 2.46000101 9.18750954 2.73750071 8.15999983 3.12750101 7.12500003 3.61500072 6.09749983 4.32000062 4.64250082 5.03250022 3.55499931 5.75250052 2.84249971L.457500002 2.84249971.457500002.757499703 7.99500083.757499703 7.99500083.757499703zM9.96000004 4.32000062C9.98250004 3.39750001 10.2150001 2.62500001 10.6425008 1.99500081 11.340001.990000704 12.3900013.487509702 13.7850018.487509702 14.8650017.487509702 15.727501.764999403 16.3950005 1.31250951 17.1075001 1.90499971 17.4674988 2.67749971 17.4674988 3.62250042 17.4674988 4.18500042 17.3250008 4.67250062 17.0474987 5.07749942 16.7699985 5.48249912 16.3875008 5.76000022 15.914999 5.90250022 16.5224991 6.03751003 16.9949989 6.34499943 17.3474998 6.82499993 17.7000007 7.30500043 17.8724994 7.87500013 17.8724994 8.55750094 17.8724994 9.66749964 17.459999 10.5825005 16.6424999 11.28751 15.8849983 11.9474984 14.9249992 12.2700006 13.7625007 12.2700006 12.5100002 12.2700006 11.5124996 11.9100018 10.7775 11.1825009 10.0424994 10.4625092 9.67500004 9.47999964 9.67500004 8.25000013 9.67500004 8.22750103 9.67500004 8.17499933 9.67500004 8.10750023L11.835 8.10750023C11.835 8.79750074 12.0000001 9.33750934 12.3300009 9.71250934 12.6599999 10.0875093 13.1250019 10.2749998 13.7250004 10.2749998 14.3250008 10.2749998 14.7825012 10.0950014 15.1124993 9.74250054 15.4125004 9.41251014 15.5550004 9.01499964 15.5550004 8.54999944 15.5550004 7.99500103 15.3675004 7.55999963 14.9849988 7.23750893 14.6699983 6.96749993 14.1899987 6.84000033 13.5375005 6.84000033 13.3500005 6.84000033 13.1700002 6.84750003 12.9899999 6.86999913L12.9899999 5.21999952C13.1250001 5.22750002 13.2525006 5.23499872 13.3724996 5.23499872 14.6625005 5.23499872 15.3074991 4.75499922 15.3074991 3.79499912 15.3074991 3.37499901 15.1649992 3.03749851 14.8874971 2.77499861 14.6024992 2.51249881 14.2349969 2.38499921 13.7699987 2.38499921 13.2449991 2.38499921 12.8324987 2.54999921 12.5474979 2.87999911 12.2624981 3.20999901 12.1049987 3.68999952 12.0824987 4.31999962L9.96000004 4.32000062 9.96000004 4.32000062z" transform="translate(1 6)"/>
      <polygon points="3.032 0 2.282 2.25 1.727 2.25 .992 0 1.502 0 2.005 1.688 2.515 0"/>
      <path fill-rule="nonzero" d="M3.87250042.525000102C4.12000032.525000102 4.31500052.607499803 4.47250032.764999903 4.62250042.922499704 4.70500092 1.1399999 4.70500092 1.40249971 4.70500092 1.67999941 4.62250042 1.89749961 4.45750052 2.06251001 4.30750042 2.21251011 4.10500052 2.29500011 3.85750062 2.29500011 3.59500031 2.29500011 3.38500031 2.21251011 3.23500021 2.04000001 3.08500001 1.87500001 3.01000021 1.66500001 3.01000021 1.40999981 3.01000021 1.1549996 3.08500001.952499904 3.22750041.787499403 3.38500021.614999803 3.60250002.525000102 3.87250042.525000102zM3.84999992.869999904C3.73000002.869999904 3.63999992.914999704 3.56499961 1.0125098 3.49749951 1.1100001 3.45999961 1.23751021 3.45999961 1.41000031 3.45999961 1.58250041 3.49749951 1.71750021 3.56499961 1.80750031 3.63999992 1.89750001 3.73750022 1.95000081 3.85750012 1.95000081 3.96999982 1.95000081 4.06750012 1.90500071 4.13499982 1.82250071 4.20999962 1.72500041 4.24749952 1.59000111 4.24749952 1.41000081 4.24749952 1.24500081 4.20999962 1.1100006 4.14249952 1.0200009 4.08250002.922500104 3.97750002.869999904 3.84999992.869999904zM5.44750022 5.55111512e-17L5.44750022.405000202 5.00500062.405000202 5.00500062 5.55111512e-17 5.44750022 5.55111512e-17zM5.44750022.569999902L5.44750022 2.25000001 5.00500062 2.25000001 5.00500062.569999902 5.44750022.569999902zM7.32250023 1.72499991C7.30000023 1.82250021 7.25500103 1.90500021 7.19500063 1.98751021 7.04500013 2.18999961 6.83500003 2.28750991 6.55750083 2.28750991 6.31000043 2.28750991 6.10750003 2.20499991 5.95750042 2.04750011 5.88250062 1.97250031 5.83000092 1.87500001 5.78500032 1.77000051 5.73999982 1.65750031 5.72499992 1.53000071 5.72499992 1.41000031 5.72499992 1.1625099 5.79249952.960000304 5.93500042.795000503 6.09250073.607500503 6.29500013.517500602 6.54250053.517500602 6.74500083.517500602 6.91750053.577500802 7.06000043.705000603 7.16500003.795000603 7.23250013.907500504 7.28499983 1.0350008 7.33749963 1.1625013 7.35250003 1.32750081 7.35250003 1.53000071L6.17500023 1.53000071C6.18250083 1.61250071 6.18999963 1.68000081 6.21249963 1.73250061 6.27250003 1.88250061 6.38500023 1.95000081 6.55750083 1.95000081 6.64000133 1.95000081 6.70750043 1.93500091 6.76000023 1.89750101 6.81250003 1.86000061 6.85750013 1.80000071 6.88749983 1.72500041L7.32250023 1.72499991 7.32250023 1.72499991zM6.89500053 1.23000001C6.88749983 1.1475 6.86500073 1.0799999 6.84250073 1.0275002 6.81250103.975000604 6.77500153.930000104 6.72249983.900000604 6.66999913.870001104 6.61000063.855000703 6.55000023.855000703 6.45249943.855000703 6.37000083.885000704 6.30249983.952500804 6.23499883 1.0200009 6.19750033 1.1100006 6.18999963 1.2225008L6.89500053 1.2225008 6.89500053 1.23000001z"/>
    </g>
  </g>
</svg>
