<svg xmlns="http://www.w3.org/2000/svg" width="24" height="24" viewBox="0 0 24 24">
  <g fill="none" fill-rule="evenodd">
    <path fill="#2D327D" d="M22.5,0 L1.5,0 C0.675000003,0 0,0.675000003 0,1.5 L0,22.5 C0,23.3250009 0.675000003,24 1.5,24 L22.5,24 C23.3250009,24 24,23.3250009 24,22.5 L24,1.5 C24,0.675000003 23.3250009,0 22.5,0 Z"/>
    <g fill="#FFF" transform="translate(2 3)">
      <g transform="translate(1 6)">
        <path d="M7.99500083,0.757499703 L7.99500083,2.66250991 C7.93500043,2.72999951 7.75500103,2.93999961 7.44750023,3.28499981 C7.02750013,3.76499932 6.60750003,4.37250042 6.19500063,5.10750002 C5.78250032,5.83500002 5.46000002,6.54000093 5.22750092,7.20750053 C4.74000072,8.61000074 4.44750122,10.2075005 4.34250072,12.0000001 L2.01750091,12.0000001 C2.03250031,11.1525002 2.18250041,10.2150002 2.46000101,9.18750954 C2.73750071,8.15999983 3.12750101,7.12500003 3.61500072,6.09749983 C4.32000062,4.64250082 5.03250022,3.55499931 5.75250052,2.84249971 L0.457500002,2.84249971 L0.457500002,0.757499703 L7.99500083,0.757499703 L7.99500083,0.757499703 Z"/>
        <path fill-rule="nonzero" d="M17.6324998,3.56250951 L15.4950009,3.56250951 C15.2924996,2.69249911 14.8050004,2.26499941 14.0175,2.26499941 C13.1849995,2.26499941 12.6000005,2.77499961 12.2474995,3.79499912 C12.1049996,4.20749952 11.9849986,4.83749862 11.9024982,5.67749972 C12.2399989,5.21999922 12.5999985,4.88999932 12.9824982,4.69499962 C13.3649979,4.49249932 13.8224984,4.39499942 14.3624974,4.39499942 C15.4199982,4.39499942 16.2674981,4.76999942 16.9049969,5.51999942 C17.512497,6.22499843 17.8199978,7.11750023 17.8199978,8.18249883 C17.8199978,9.44999684 17.4074974,10.4699973 16.5899983,11.2349986 C15.8549996,11.9249991 14.9624978,12.2699985 13.9274979,12.2699985 C12.5999985,12.2699985 11.5649986,11.7674979 10.829998,10.7699984 C10.0949983,9.76499924 9.71999834,8.36999883 9.71999834,6.57749833 C9.71999834,4.65749822 10.1174983,3.15749821 10.9049987,2.06999771 C11.6699981,1.0199985 12.7124987,0.494997902 14.0324974,0.494997902 C15.2774982,0.494997902 16.2299976,0.914998904 16.8899994,1.74749751 C17.2799989,2.22000031 17.5200006,2.82749941 17.6324998,3.56250951 Z M13.8224984,6.14249993 C13.2824975,6.14249993 12.8549996,6.36749933 12.5399991,6.81749913 C12.2549983,7.21499823 12.1124993,7.69499963 12.1124993,8.24999993 C12.1124993,8.79749864 12.2549983,9.27750014 12.5474988,9.69000044 C12.8624993,10.1475009 13.2974988,10.3725012 13.8524991,10.3725012 C14.3925,10.3725012 14.8274995,10.1550024 15.1499978,9.72000104 C15.4574986,9.30750064 15.614998,8.82750114 15.614998,8.26500113 C15.614998,7.71750243 15.4799997,7.24500063 15.2024995,6.85500033 C14.8650018,6.37500003 14.3999997,6.14249993 13.8224984,6.14249993 Z"/>
      </g>
      <polygon points="3.032 0 2.282 2.25 1.727 2.25 .992 0 1.502 0 2.005 1.688 2.515 0"/>
      <path fill-rule="nonzero" d="M3.87250042.525000102C4.12000032.525000102 4.31500052.607499803 4.47250032.764999903 4.62250042.922499704 4.70500092 1.1399999 4.70500092 1.40249971 4.70500092 1.67999941 4.62250042 1.89749961 4.45750052 2.06251001 4.30750042 2.21251011 4.10500052 2.29500011 3.85750062 2.29500011 3.59500031 2.29500011 3.38500031 2.21251011 3.23500021 2.04000001 3.08500001 1.87500001 3.01000021 1.66500001 3.01000021 1.40999981 3.01000021 1.1549996 3.08500001.952499904 3.22750041.787499403 3.38500021.614999803 3.60250002.525000102 3.87250042.525000102zM3.84999992.869999904C3.73000002.869999904 3.63999992.914999704 3.56499961 1.0125098 3.49749951 1.1100001 3.45999961 1.23751021 3.45999961 1.41000031 3.45999961 1.58250041 3.49749951 1.71750021 3.56499961 1.80750031 3.63999992 1.89750001 3.73750022 1.95000081 3.85750012 1.95000081 3.96999982 1.95000081 4.06750012 1.90500071 4.13499982 1.82250071 4.20999962 1.72500041 4.24749952 1.59000111 4.24749952 1.41000081 4.24749952 1.24500081 4.20999962 1.1100006 4.14249952 1.0200009 4.08250002.922500104 3.97750002.869999904 3.84999992.869999904zM5.44750022 5.55111512e-17L5.44750022.405000202 5.00500062.405000202 5.00500062 5.55111512e-17 5.44750022 5.55111512e-17zM5.44750022.569999902L5.44750022 2.25000001 5.00500062 2.25000001 5.00500062.569999902 5.44750022.569999902zM7.32250023 1.72499991C7.30000023 1.82250021 7.25500103 1.90500021 7.19500063 1.98751021 7.04500013 2.18999961 6.83500003 2.28750991 6.55750083 2.28750991 6.31000043 2.28750991 6.10750003 2.20499991 5.95750042 2.04750011 5.88250062 1.97250031 5.83000092 1.87500001 5.78500032 1.77000051 5.73999982 1.65750031 5.72499992 1.53000071 5.72499992 1.41000031 5.72499992 1.1625099 5.79249952.960000304 5.93500042.795000503 6.09250073.607500503 6.29500013.517500602 6.54250053.517500602 6.74500083.517500602 6.91750053.577500802 7.06000043.705000603 7.16500003.795000603 7.23250013.907500504 7.28499983 1.0350008 7.33749963 1.1625013 7.35250003 1.32750081 7.35250003 1.53000071L6.17500023 1.53000071C6.18250083 1.61250071 6.18999963 1.68000081 6.21249963 1.73250061 6.27250003 1.88250061 6.38500023 1.95000081 6.55750083 1.95000081 6.64000133 1.95000081 6.70750043 1.93500091 6.76000023 1.89750101 6.81250003 1.86000061 6.85750013 1.80000071 6.88749983 1.72500041L7.32250023 1.72499991 7.32250023 1.72499991zM6.89500053 1.23000001C6.88749983 1.1475 6.86500073 1.0799999 6.84250073 1.0275002 6.81250103.975000604 6.77500153.930000104 6.72249983.900000604 6.66999913.870001104 6.61000063.855000703 6.55000023.855000703 6.45249943.855000703 6.37000083.885000704 6.30249983.952500804 6.23499883 1.0200009 6.19750033 1.1100006 6.18999963 1.2225008L6.89500053 1.2225008 6.89500053 1.23000001z"/>
    </g>
  </g>
</svg>
