<svg xmlns="http://www.w3.org/2000/svg" width="24" height="24" viewBox="0 0 24 24">
  <g fill="none" fill-rule="evenodd">
    <path fill="#2D327D" d="M22.5,0 L1.5,0 C0.675000003,0 0,0.675000003 0,1.5 L0,22.5 C0,23.3250009 0.675000003,24 1.5,24 L22.5,24 C23.3250009,24 24,23.3250009 24,22.5 L24,1.5 C24,0.675000003 23.3250009,0 22.5,0 Z"/>
    <g fill="#FFF" transform="translate(3 3)">
      <g transform="translate(0 6)">
        <path d="M7.99500083,0.757499703 L7.99500083,2.66250991 C7.93500043,2.72999951 7.75500103,2.93999961 7.44750023,3.28499981 C7.02750013,3.76499932 6.60750003,4.37250042 6.19500063,5.10750002 C5.78250032,5.83500002 5.46000002,6.54000093 5.22750092,7.20750053 C4.74000072,8.61000074 4.44750122,10.2075005 4.34250072,12.0000001 L2.01750091,12.0000001 C2.03250031,11.1525002 2.18250041,10.2150002 2.46000101,9.18750954 C2.73750071,8.15999983 3.12750101,7.12500003 3.61500072,6.09749983 C4.32000062,4.64250082 5.03250022,3.55499931 5.75250052,2.84249971 L0.450000002,2.84249971 L0.450000002,0.757499703 L7.99500083,0.757499703 L7.99500083,0.757499703 Z"/>
        <path fill-rule="nonzero" d="M17.6250001,3.56250951 L15.4874993,3.56250951 C15.2849999,2.69249911 14.7974988,2.26499941 14.0099984,2.26499941 C13.1774979,2.26499941 12.5924998,2.77499961 12.2399989,3.79499912 C12.097499,4.20749952 11.977499,4.83749862 11.8949985,5.67749972 C12.2324982,5.21999922 12.5924988,4.88999932 12.9749976,4.69499962 C13.3574982,4.49249932 13.8149987,4.39499942 14.3549977,4.39499942 C15.4124985,4.39499942 16.2599965,4.76999942 16.8974972,5.51999942 C17.5049973,6.22499843 17.8124981,7.11750023 17.8124981,8.18249883 C17.8124981,9.44999684 17.3999977,10.4699973 16.5824986,11.2349986 C15.8474999,11.9249991 14.9549981,12.2699985 13.9199982,12.2699985 C12.5924988,12.2699985 11.5574979,11.7674979 10.8224983,10.7699984 C10.0874977,9.76499924 9.71249774,8.36999883 9.71249774,6.57749833 C9.71249774,4.65749822 10.1099977,3.15749821 10.8974981,2.06999771 C11.6624975,1.0199985 12.7049981,0.494997902 14.0249978,0.494997902 C15.2699986,0.494997902 16.2224961,0.914998904 16.8824979,1.74749751 C17.2799989,2.22750001 17.5200006,2.83500001 17.6250001,3.56250951 Z M13.8224984,6.14249993 C13.2824975,6.14249993 12.8549996,6.36749933 12.5399991,6.81749913 C12.2549983,7.21499823 12.1124993,7.69499963 12.1124993,8.24999993 C12.1124993,8.79749864 12.2549983,9.27750014 12.5474988,9.69000044 C12.8624993,10.1475009 13.2974988,10.3725012 13.8524991,10.3725012 C14.3925,10.3725012 14.8274995,10.1550024 15.1499978,9.72000104 C15.4574986,9.30750064 15.614998,8.82750114 15.614998,8.26500113 C15.614998,7.71750243 15.4799997,7.24500063 15.2024995,6.85500033 C14.8575002,6.38250063 14.3999997,6.14249993 13.8224984,6.14249993 Z"/>
      </g>
      <path fill-rule="nonzero" d="M0 0L1.0124998 0C1.23000001 0 1.39500001.0300002001 1.5.0825000003 1.59750031.134999801 1.68000031.209999601 1.72499991.307499901 1.77000001.389999902 1.79250001.480000002 1.79250001.569999902 1.79250001.674999903 1.77000001.764999803 1.71750021.847499604 1.66500041.929999604 1.59000011.989999804 1.49250031 1.0349998 1.57499981 1.0649996 1.64249991 1.0949998 1.68750001 1.1249995 1.82999991 1.22999951 1.90500021 1.38749931 1.90500021 1.58999921 1.90500021 1.70999911 1.87500001 1.82249931 1.82250021 1.91249941 1.77000041 2.00249951 1.69500061 2.08499961 1.59000021 2.14499951 1.47000031 2.21249961 1.31250051 2.24999951 1.1100002 2.24999951L0 2.24999951 0 0zM.494999902.382499901L.494999902.907499803.944999904.907499803C1.0500002.907499803 1.125.892500203 1.1774997.869999903 1.26749941.825000003 1.31250001.750000003 1.31250001.64499985 1.31250001.555000102 1.28249981.487510001 1.23000001.450000001 1.1775002.412509901 1.0799999.389999901.944999904.389999901.937500004.382499901.494999902.382499901.494999902.382499901zM.494999902 1.24499991L.494999902 1.85999971.989999804 1.85999971C1.1324997 1.85999971 1.22999961 1.83749971 1.29000001 1.79999931 1.36499981 1.74749951 1.40249971 1.66499901 1.40249971 1.55249955 1.40249971 1.41749911 1.34999991 1.32749941 1.24499991 1.28249931 1.1849995 1.25999931 1.0949998 1.24499941.959999604 1.24499941L.494999902 1.24499991zM2.63999991 5.55111512e-17L2.63999991.405000202 2.19749981.405000202 2.19749981 5.55111512e-17 2.63999991 5.55111512e-17zM2.63999991.569999902L2.63999991 2.25000001 2.19749981 2.25000001 2.19749981.569999902 2.63999991.569999902z"/>
      <path d="M3.42000011,0.569999902 L3.42000011,0.802499703 C3.47249981,0.727499703 3.51749991,0.675000003 3.56250001,0.645000003 C3.67500022,0.562510002 3.81000042,0.517500202 3.96000002,0.517500202 C4.09500022,0.517500202 4.21499962,0.555000102 4.31250002,0.622500203 C4.38749982,0.675000003 4.43999962,0.750000003 4.47000032,0.832500503 C4.50000102,0.915001004 4.51500092,1.0350004 4.51500092,1.1925006 L4.51500092,2.25000001 L4.07250122,2.25000001 L4.07250122,1.29000001 C4.07250122,1.1849995 4.06500102,1.1025 4.04250192,1.0500002 C4.02750202,1.0050001 3.99750132,0.967500204 3.95250222,0.944999904 C3.90750162,0.914999704 3.84750272,0.900000104 3.78750222,0.900000104 C3.72000262,0.900000104 3.66000262,0.914999704 3.60000222,0.952499904 C3.54000191,0.989999804 3.50250201,1.0274997 3.48000241,1.0875101 C3.45000221,1.1475 3.43500231,1.25249961 3.43500231,1.38750981 L3.43500231,2.25000001 L2.99250221,2.25000001 L2.99250221,0.569999902 L3.42000011,0.569999902 Z"/>
      <path fill-rule="nonzero" d="M6.38250063,2.25000001 L5.92500022,2.25000001 C5.90250022,2.18249991 5.89500052,2.13000011 5.89500052,2.08500001 C5.75250062,2.22750041 5.57250032,2.30250021 5.35500052,2.30250021 C5.18250082,2.30250021 5.04750062,2.26500031 4.95000122,2.18250031 C4.83750102,2.09250061 4.78500122,1.96500011 4.78500122,1.80000061 C4.78500122,1.59000011 4.88250152,1.44750061 5.07000152,1.36500021 C5.14500142,1.33500001 5.28750132,1.30500031 5.49750142,1.27500061 C5.67750082,1.25250061 5.78250122,1.23000051 5.82750132,1.20750051 C5.87250042,1.1850005 5.89500052,1.1400004 5.89500052,1.0725003 C5.89500052,0.922500204 5.79750072,0.855000104 5.60250102,0.855000104 C5.49750152,0.855000104 5.42250162,0.870000004 5.37750062,0.907499904 C5.33250052,0.944999904 5.29500012,1.0050001 5.28000072,1.1025 L4.86000012,1.1025 C4.87500002,0.914999704 4.94250062,0.772499603 5.07000062,0.682499903 C5.19750022,0.584999602 5.37750052,0.539999702 5.61000062,0.539999702 C5.87250042,0.539999702 6.06000043,0.592499502 6.18750003,0.697499703 C6.24750043,0.749999503 6.28500122,0.802499703 6.30000023,0.854999504 C6.31499963,0.907499304 6.32999993,0.997499704 6.32999993,1.1249995 C6.32999993,1.1474995 6.32999993,1.25999971 6.32249933,1.46249961 C6.32249933,1.66499901 6.32249933,1.77749921 6.32249933,1.80749941 C6.32249933,1.92749931 6.32249933,2.01749941 6.32999993,2.07749941 C6.33749963,2.13749891 6.35250003,2.18249991 6.38250063,2.25000001 Z M5.88749982,1.43999961 C5.82749942,1.47750001 5.72249982,1.50749971 5.57250022,1.52249961 C5.46750072,1.53749941 5.39250092,1.55999951 5.34000022,1.58250001 C5.27250002,1.61999991 5.24249942,1.68000031 5.24249942,1.76250981 C5.24249942,1.82999991 5.26499942,1.88999981 5.30999952,1.92749971 C5.35499862,1.96499961 5.41499902,1.98751011 5.49749952,1.98751011 C5.63249972,1.98751011 5.73749932,1.94250001 5.81249912,1.85249991 C5.84249882,1.82249971 5.85749922,1.78499981 5.87249952,1.75499961 C5.88749892,1.72499941 5.88749892,1.67249961 5.88749892,1.61999941 L5.88749982,1.43999961 L5.88749982,1.43999961 Z"/>
      <path d="M7.71749973,0.539999702 L7.71749973,0.974999904 C7.64249993,0.960000304 7.59000013,0.952499904 7.54499913,0.952499904 C7.37999913,0.952499904 7.25999933,1.02 7.17749973,1.16251 C7.13249963,1.23751031 7.11000053,1.37250051 7.11000053,1.55249991 L7.11000053,2.25000001 L6.66750053,2.25000001 L6.66750053,0.569999902 L7.09500033,0.569999902 L7.09500033,0.877499804 C7.21500113,0.652499703 7.39500053,0.532499802 7.62000093,0.532499802 C7.64249993,0.532499802 7.67999943,0.539999702 7.71749973,0.539999702 Z"/>
      <path fill-rule="nonzero" d="M8.37000083 5.55111512e-17L8.37000083.405000202 7.92750073.405000202 7.92750073 5.55111512e-17 8.37000083 5.55111512e-17zM8.37000083.569999902L8.37000083 2.25000001 7.92750073 2.25000001 7.92750073.569999902 8.37000083.569999902zM9.53250034.525000102C9.78000074.525000102 9.97500044.607499803 10.1325007.764999903 10.2825003.922499704 10.3650008 1.1399999 10.3650008 1.40249971 10.3650008 1.67999941 10.2825003 1.89749961 10.1175004 2.06251001 9.96750084 2.21251011 9.76500144 2.29500011 9.51750104 2.29500011 9.25500124 2.29500011 9.04500024 2.21251011 8.89500064 2.04000001 8.74500104 1.87500001 8.67000024 1.66500001 8.67000024 1.40999991 8.67000024 1.1549998 8.74500104.952499904 8.88749994.787499503 9.04500014.614999803 9.26249984.525000102 9.53250034.525000102zM9.51000024.869999904C9.38999944.869999904 9.30000024.914999704 9.22500044 1.0125098 9.15750034 1.1100001 9.12000094 1.23751021 9.12000094 1.41000031 9.12000094 1.58250041 9.15750034 1.71750021 9.22500044 1.80750031 9.30000024 1.89750001 9.39750004 1.95000081 9.51749994 1.95000081 9.62999914 1.95000081 9.72749994 1.90500071 9.79499914 1.82250071 9.86999894 1.72500041 9.90749934 1.59000111 9.90749934 1.41000081 9.90749934 1.24500081 9.86999894 1.1100006 9.80249984 1.0200009 9.74249944.922500104 9.63749984.869999904 9.51000024.869999904z"/>
    </g>
  </g>
</svg>
