<svg xmlns="http://www.w3.org/2000/svg" width="24" height="24" viewBox="0 0 24 24">
  <g fill="none" fill-rule="evenodd">
    <path fill="#2D327D" d="M22.5,0 L1.5,0 C0.675000003,0 0,0.675000003 0,1.5 L0,22.5 C0,23.3250009 0.675000003,24 1.5,24 L22.5,24 C23.3250009,24 24,23.3250009 24,22.5 L24,1.5 C24,0.675000003 23.3250009,0 22.5,0 Z"/>
    <g fill="#FFF" transform="translate(2 3)">
      <g transform="translate(1 6)">
        <path fill-rule="nonzero" d="M2.13000011,5.96251012 C1.60500001,5.78250032 1.2075,5.48999982 0.930000104,5.07749942 C0.652500402,4.66500002 0.510000202,4.16999912 0.510000202,3.58500001 C0.510000202,2.61000061 0.907500504,1.83751011 1.71000001,1.25249951 C2.41500041,0.742499303 3.25500011,0.479999502 4.22999952,0.479999502 C5.34000012,0.479999502 6.23999973,0.787509903 6.94499973,1.39499951 C7.61249923,1.97249891 7.94249923,2.67749981 7.94249923,3.52499871 C7.94249923,4.11749842 7.80000023,4.61999902 7.52249913,5.03999902 C7.23749933,5.45999912 6.83999833,5.76749802 6.32249933,5.95499802 C6.72749903,6.07499883 7.05749903,6.22499853 7.31249913,6.41249853 C8.02499873,6.92999843 8.38499933,7.68750963 8.38499933,8.67749794 C8.38499933,9.81749924 7.94999893,10.7324982 7.07249933,11.4074974 C6.33749873,11.977499 5.38499932,12.262497 4.22999962,12.262497 C2.97750001,12.262497 1.97249991,11.9474964 1.2299996,11.3249969 C0.450000002,10.6800003 0.0600002,9.82500084 0.0600002,8.76749994 C0.0600002,7.77749823 0.405000201,7.01251033 1.0875001,6.46500013 C1.40249971,6.23250013 1.75500011,6.06000043 2.13000011,5.96251012 Z M4.18500042,6.81000043 C3.63000061,6.81000043 3.18000031,6.98250013 2.82750031,7.31999973 C2.47500031,7.65750123 2.30250021,8.10000043 2.30250021,8.63249974 C2.30250021,9.18000034 2.48250051,9.62999924 2.83500001,9.96749884 C3.19500061,10.3125096 3.65249961,10.4849987 4.22250032,10.4849987 C4.86750082,10.4849987 5.35500052,10.2974987 5.67749972,9.91499904 C5.99249932,9.54749874 6.14999953,9.12749864 6.14999953,8.65499884 C6.14999953,8.11499793 5.97000012,7.66499903 5.61000052,7.31999973 C5.26499942,6.97500043 4.79249952,6.81000043 4.18500042,6.81000043 Z M4.19999982,2.23500061 C3.70499942,2.23500061 3.30749991,2.37000081 3.00749971,2.64750001 C2.70750001,2.92500021 2.55000021,3.28499981 2.55000021,3.72750002 C2.55000021,4.19249922 2.69999981,4.56749922 3.00749971,4.84499942 C3.31499961,5.12249962 3.72000032,5.26499952 4.23750022,5.26499952 C4.74750042,5.26499952 5.15250022,5.12999932 5.45249942,4.85250012 C5.75249962,4.57499992 5.89499952,4.19999992 5.89499952,3.71999952 C5.89499952,3.25499931 5.74499892,2.88749901 5.44499972,2.62499921 C5.14499952,2.36249921 4.73250062,2.23500061 4.19999982,2.23500061 Z"/>
        <path d="M17.8199998,9.99749954 L17.8199998,12.0000001 L9.72000034,12.0000001 C9.72000034,11.3924999 9.81750114,10.8075008 10.0124998,10.2525005 C10.2075004,9.69750214 10.4850006,9.22500034 10.8450003,8.81999974 C11.1225005,8.51251034 11.4450007,8.21250923 11.8200007,7.92000013 C12.1950008,7.62750063 12.9300005,7.09500123 14.0400011,6.31500063 C14.580002,5.94000062 14.955002,5.59500032 15.1725008,5.27250112 C15.3900015,4.95000282 15.495001,4.57500092 15.495001,4.14750112 C15.495001,3.65250122 15.3525011,3.25500211 15.0600015,2.95500191 C14.767502,2.64750111 14.392502,2.49750141 13.9200002,2.49750141 C12.7650014,2.49750141 12.165001,3.33000191 12.1275007,4.99500182 L9.96750084,4.99500182 C9.96750084,4.89000232 9.96750084,4.80750182 9.96750084,4.74750142 C9.96750084,3.38250161 10.3500014,2.32500081 11.1150008,1.58250141 C11.8575002,0.855001404 12.8175012,0.487501102 14.0025007,0.487501102 C15.0450002,0.487501102 15.9225008,0.787501303 16.6275007,1.38000101 C17.392502,2.02500151 17.7749998,2.89500041 17.7749998,3.99000072 C17.7749998,4.94250102 17.467499,5.76750092 16.8599989,6.45000073 C16.6574976,6.67500113 16.4699976,6.85500043 16.2974989,6.99000073 C16.1250002,7.12500193 15.6674997,7.45500183 14.9174997,7.97250173 C14.2124998,8.46750254 13.7024995,8.84250254 13.3950006,9.10500144 C13.0874998,9.36750224 12.8100006,9.66750144 12.5475008,10.005001 L17.8199998,9.99749954 L17.8199998,9.99749954 Z"/>
      </g>
      <polygon points="3.032 0 2.282 2.25 1.727 2.25 .992 0 1.502 0 2.005 1.688 2.515 0"/>
      <path fill-rule="nonzero" d="M3.87250042.525000102C4.12000032.525000102 4.31500052.607499803 4.47250032.764999903 4.62250042.922499704 4.70500092 1.1399999 4.70500092 1.40249971 4.70500092 1.67999941 4.62250042 1.89749961 4.45750052 2.06251001 4.30750042 2.21251011 4.10500052 2.29500011 3.85750062 2.29500011 3.59500031 2.29500011 3.38500031 2.21251011 3.23500021 2.04000001 3.08500001 1.87500001 3.01000021 1.66500001 3.01000021 1.40999981 3.01000021 1.1549996 3.08500001.952499904 3.22750041.787499403 3.38500021.614999803 3.60250002.525000102 3.87250042.525000102zM3.84999992.869999904C3.73000002.869999904 3.63999992.914999704 3.56499961 1.0125098 3.49749951 1.1100001 3.45999961 1.23751021 3.45999961 1.41000031 3.45999961 1.58250041 3.49749951 1.71750021 3.56499961 1.80750031 3.63999992 1.89750001 3.73750022 1.95000081 3.85750012 1.95000081 3.96999982 1.95000081 4.06750012 1.90500071 4.13499982 1.82250071 4.20999962 1.72500041 4.24749952 1.59000111 4.24749952 1.41000081 4.24749952 1.24500081 4.20999962 1.1100006 4.14249952 1.0200009 4.08250002.922500104 3.97750002.869999904 3.84999992.869999904zM5.44750022 5.55111512e-17L5.44750022.405000202 5.00500062.405000202 5.00500062 5.55111512e-17 5.44750022 5.55111512e-17zM5.44750022.569999902L5.44750022 2.25000001 5.00500062 2.25000001 5.00500062.569999902 5.44750022.569999902zM7.32250023 1.72499991C7.30000023 1.82250021 7.25500103 1.90500021 7.19500063 1.98751021 7.04500013 2.18999961 6.83500003 2.28750991 6.55750083 2.28750991 6.31000043 2.28750991 6.10750003 2.20499991 5.95750042 2.04750011 5.88250062 1.97250031 5.83000092 1.87500001 5.78500032 1.77000051 5.73999982 1.65750031 5.72499992 1.53000071 5.72499992 1.41000031 5.72499992 1.1625099 5.79249952.960000304 5.93500042.795000503 6.09250073.607500503 6.29500013.517500602 6.54250053.517500602 6.74500083.517500602 6.91750053.577500802 7.06000043.705000603 7.16500003.795000603 7.23250013.907500504 7.28499983 1.0350008 7.33749963 1.1625013 7.35250003 1.32750081 7.35250003 1.53000071L6.17500023 1.53000071C6.18250083 1.61250071 6.18999963 1.68000081 6.21249963 1.73250061 6.27250003 1.88250061 6.38500023 1.95000081 6.55750083 1.95000081 6.64000133 1.95000081 6.70750043 1.93500091 6.76000023 1.89750101 6.81250003 1.86000061 6.85750013 1.80000071 6.88749983 1.72500041L7.32250023 1.72499991 7.32250023 1.72499991zM6.89500053 1.23000001C6.88749983 1.1475 6.86500073 1.0799999 6.84250073 1.0275002 6.81250103.975000604 6.77500153.930000104 6.72249983.900000604 6.66999913.870001104 6.61000063.855000703 6.55000023.855000703 6.45249943.855000703 6.37000083.885000704 6.30249983.952500804 6.23499883 1.0200009 6.19750033 1.1100006 6.18999963 1.2225008L6.89500053 1.2225008 6.89500053 1.23000001z"/>
    </g>
  </g>
</svg>
