<svg xmlns="http://www.w3.org/2000/svg" width="24" height="24" viewBox="0 0 24 24">
  <g fill="none" fill-rule="evenodd">
    <path fill="#2D327D" d="M22.5,0 L1.5,0 C0.675000003,0 0,0.675000003 0,1.5 L0,22.5 C0,23.3250009 0.675000003,24 1.5,24 L22.5,24 C23.3250009,24 24,23.3250009 24,22.5 L24,1.5 C24,0.675000003 23.3250009,0 22.5,0 Z"/>
    <g fill="#FFF" transform="translate(2 3)">
      <path fill-rule="nonzero" d="M2.13000011 5.96251012C1.60500001 5.78250032 1.2075 5.48999982.930000104 5.07749942.652500402 4.66500002.510000202 4.16999912.510000202 3.58500001.510000202 2.61000061.907500504 1.83751011 1.71000001 1.25249951 2.41500041.742499303 3.25500011.479999502 4.22999952.479999502 5.34000012.479999502 6.23999973.787509903 6.94499973 1.39499951 7.61249923 1.97249891 7.94249923 2.67749981 7.94249923 3.52499871 7.94249923 4.11749842 7.80000023 4.61999902 7.52249913 5.03999902 7.23749933 5.45999912 6.83999833 5.76749802 6.32249933 5.95499802 6.72749903 6.07499883 7.05749903 6.22499853 7.31249913 6.41249853 8.02499873 6.92999843 8.38499933 7.68750963 8.38499933 8.67749794 8.38499933 9.81749924 7.94999893 10.7324982 7.07249933 11.4074974 6.33749873 11.977499 5.38499932 12.262497 4.22999962 12.262497 2.97750001 12.262497 1.97249991 11.9474964 1.2299996 11.3249969.450000002 10.6800003.0600002 9.82500084.0600002 8.76749994.0600002 7.77749823.405000201 7.01251033 1.0875001 6.46500013 1.40249971 6.23250013 1.75500011 6.06000043 2.13000011 5.96251012zM4.18500042 6.81000043C3.63000061 6.81000043 3.18000031 6.98250013 2.82750031 7.31999973 2.47500031 7.65750123 2.30250021 8.10000043 2.30250021 8.63249974 2.30250021 9.18000034 2.48250051 9.62999924 2.83500001 9.96749884 3.19500061 10.3125096 3.65249961 10.4849987 4.22250032 10.4849987 4.86750082 10.4849987 5.35500052 10.2974987 5.67749972 9.91499904 5.99249932 9.54749874 6.14999953 9.12749864 6.14999953 8.65499884 6.14999953 8.11499793 5.97000012 7.66499903 5.61000052 7.31999973 5.26499942 6.97500043 4.79249952 6.81000043 4.18500042 6.81000043zM4.19999982 2.23500061C3.70499942 2.23500061 3.30749991 2.37000081 3.00749971 2.64750001 2.70750001 2.92500021 2.55000021 3.28499981 2.55000021 3.72750002 2.55000021 4.19249922 2.69999981 4.56749922 3.00749971 4.84499942 3.31499961 5.12249962 3.72000032 5.26499952 4.23750022 5.26499952 4.74750042 5.26499952 5.15250022 5.12999932 5.45249942 4.85250012 5.75249962 4.57499992 5.89499952 4.19999992 5.89499952 3.71999952 5.89499952 3.25499931 5.74499892 2.88749901 5.44499972 2.62499921 5.14499952 2.36249921 4.73250062 2.23500061 4.19999982 2.23500061zM17.6324998 3.56250951L15.4950009 3.56250951C15.2924996 2.69249911 14.8050004 2.26499941 14.0175 2.26499941 13.1849995 2.26499941 12.6000005 2.77499961 12.2474995 3.79499912 12.1049996 4.20749952 11.9849986 4.83749862 11.9024982 5.67749972 12.2399989 5.21999922 12.5999985 4.88999932 12.9824982 4.69499962 13.3649979 4.49249932 13.8224984 4.39499942 14.3624974 4.39499942 15.4199982 4.39499942 16.2674981 4.76999942 16.9049969 5.51999942 17.512497 6.22499843 17.8199978 7.11750023 17.8199978 8.18249883 17.8199978 9.44999684 17.4074974 10.4699973 16.5899983 11.2349986 15.8549996 11.9249991 14.9624978 12.2699985 13.9274979 12.2699985 12.5999985 12.2699985 11.5649986 11.7674979 10.829998 10.7699984 10.0949983 9.76499924 9.71999834 8.36999883 9.71999834 6.57749833 9.71999834 4.65749822 10.1174983 3.15749821 10.9049987 2.06999771 11.6699981 1.0199985 12.7124987.494997902 14.0324974.494997902 15.2774982.494997902 16.2299976.914998904 16.8899994 1.74749751 17.2799989 2.22000031 17.5200006 2.82749941 17.6324998 3.56250951zM13.8224984 6.14249993C13.2824975 6.14249993 12.8549996 6.36749933 12.5399991 6.81749913 12.2549983 7.21499823 12.1124993 7.69499963 12.1124993 8.24999993 12.1124993 8.79749864 12.2549983 9.27750014 12.5474988 9.69000044 12.8624993 10.1475009 13.2974988 10.3725012 13.8524991 10.3725012 14.3925 10.3725012 14.8274995 10.1550024 15.1499978 9.72000104 15.4574986 9.30750064 15.614998 8.82750114 15.614998 8.26500113 15.614998 7.71750243 15.4799997 7.24500063 15.2024995 6.85500033 14.8650018 6.37500003 14.3999997 6.14249993 13.8224984 6.14249993z" transform="translate(1 6)"/>
      <polygon points="3.032 0 2.282 2.25 1.727 2.25 .992 0 1.502 0 2.005 1.688 2.515 0"/>
      <path fill-rule="nonzero" d="M3.87250042.525000102C4.12000032.525000102 4.31500052.607499803 4.47250032.764999903 4.62250042.922499704 4.70500092 1.1399999 4.70500092 1.40249971 4.70500092 1.67999941 4.62250042 1.89749961 4.45750052 2.06251001 4.30750042 2.21251011 4.10500052 2.29500011 3.85750062 2.29500011 3.59500031 2.29500011 3.38500031 2.21251011 3.23500021 2.04000001 3.08500001 1.87500001 3.01000021 1.66500001 3.01000021 1.40999981 3.01000021 1.1549996 3.08500001.952499904 3.22750041.787499403 3.38500021.614999803 3.60250002.525000102 3.87250042.525000102zM3.84999992.869999904C3.73000002.869999904 3.63999992.914999704 3.56499961 1.0125098 3.49749951 1.1100001 3.45999961 1.23751021 3.45999961 1.41000031 3.45999961 1.58250041 3.49749951 1.71750021 3.56499961 1.80750031 3.63999992 1.89750001 3.73750022 1.95000081 3.85750012 1.95000081 3.96999982 1.95000081 4.06750012 1.90500071 4.13499982 1.82250071 4.20999962 1.72500041 4.24749952 1.59000111 4.24749952 1.41000081 4.24749952 1.24500081 4.20999962 1.1100006 4.14249952 1.0200009 4.08250002.922500104 3.97750002.869999904 3.84999992.869999904zM5.44750022 5.55111512e-17L5.44750022.405000202 5.00500062.405000202 5.00500062 5.55111512e-17 5.44750022 5.55111512e-17zM5.44750022.569999902L5.44750022 2.25000001 5.00500062 2.25000001 5.00500062.569999902 5.44750022.569999902zM7.32250023 1.72499991C7.30000023 1.82250021 7.25500103 1.90500021 7.19500063 1.98751021 7.04500013 2.18999961 6.83500003 2.28750991 6.55750083 2.28750991 6.31000043 2.28750991 6.10750003 2.20499991 5.95750042 2.04750011 5.88250062 1.97250031 5.83000092 1.87500001 5.78500032 1.77000051 5.73999982 1.65750031 5.72499992 1.53000071 5.72499992 1.41000031 5.72499992 1.1625099 5.79249952.960000304 5.93500042.795000503 6.09250073.607500503 6.29500013.517500602 6.54250053.517500602 6.74500083.517500602 6.91750053.577500802 7.06000043.705000603 7.16500003.795000603 7.23250013.907500504 7.28499983 1.0350008 7.33749963 1.1625013 7.35250003 1.32750081 7.35250003 1.53000071L6.17500023 1.53000071C6.18250083 1.61250071 6.18999963 1.68000081 6.21249963 1.73250061 6.27250003 1.88250061 6.38500023 1.95000081 6.55750083 1.95000081 6.64000133 1.95000081 6.70750043 1.93500091 6.76000023 1.89750101 6.81250003 1.86000061 6.85750013 1.80000071 6.88749983 1.72500041L7.32250023 1.72499991 7.32250023 1.72499991zM6.89500053 1.23000001C6.88749983 1.1475 6.86500073 1.0799999 6.84250073 1.0275002 6.81250103.975000604 6.77500153.930000104 6.72249983.900000604 6.66999913.870001104 6.61000063.855000703 6.55000023.855000703 6.45249943.855000703 6.37000083.885000704 6.30249983.952500804 6.23499883 1.0200009 6.19750033 1.1100006 6.18999963 1.2225008L6.89500053 1.2225008 6.89500053 1.23000001z"/>
    </g>
  </g>
</svg>
