<svg xmlns="http://www.w3.org/2000/svg" width="24" height="24" viewBox="0 0 24 24">
  <g fill="none" fill-rule="evenodd">
    <path fill="#2D327D" d="M22.5,0 L1.5,0 C0.675000003,0 0,0.675000003 0,1.5 L0,22.5 C0,23.3250009 0.675000003,24 1.5,24 L22.5,24 C23.3250009,24 24,23.3250009 24,22.5 L24,1.5 C24,0.675000003 23.3250009,0 22.5,0 Z"/>
    <g fill="#FFF" transform="translate(2 3)">
      <g transform="translate(1 6)">
        <path fill-rule="nonzero" d="M0.367500101,9.18000034 L2.48999981,9.18000034 C2.66249991,10.0499992 3.1724992,10.4849987 4.00499972,10.4849987 C4.47750002,10.4849987 4.85999922,10.3274994 5.15250022,10.0049992 C5.44499972,9.68250084 5.67749982,9.18750954 5.83500002,8.51251034 C5.93999952,8.08499913 6.01499942,7.59000023 6.06000042,7.04249953 C5.71500012,7.52249903 5.36250022,7.86750033 5.00249962,8.06999973 C4.64249952,8.27250103 4.19999982,8.37750053 3.68249941,8.37750053 C2.85749911,8.37750053 2.13749931,8.13751033 1.52999971,7.65750123 C1.1024999,7.31999973 0.772499503,6.87750053 0.532499302,6.34500023 C0.292499101,5.81250952 0.1724992,5.22000022 0.1724992,4.59000102 C0.1724992,3.32250111 0.607499402,2.29500001 1.46999931,1.51500121 C2.21249961,0.840001004 3.10499951,0.502500402 4.14749912,0.502500402 C4.78499892,0.502500402 5.37749862,0.645000303 5.92499932,0.930000204 C6.46499833,1.21500101 6.92249883,1.62750041 7.29749883,2.15250101 C7.94999903,3.09000101 8.27249923,4.41000162 8.27249923,6.10500043 C8.27249923,7.67250053 7.98749943,9.01500124 7.40999903,10.1175021 C6.65999903,11.5575026 5.52749842,12.2775001 4.01249902,12.2775001 C2.99999921,12.2775001 2.16749921,11.9999998 1.50749891,11.4375094 C0.855000003,10.875 0.472500301,10.1175003 0.367500101,9.18000034 Z M4.11000012,2.38500021 C3.63000061,2.38500021 3.21750021,2.58000081 2.88749981,2.97749991 C2.55749991,3.37500001 2.38500021,3.88500021 2.38500021,4.50000002 C2.38500021,4.99500082 2.50500011,5.43750952 2.74500031,5.82000062 C3.07500071,6.34500023 3.53250021,6.61500073 4.13250062,6.61500073 C4.67250012,6.61500073 5.10000032,6.39750103 5.42250062,5.97000022 C5.72249982,5.56500052 5.88000112,5.08500002 5.88000112,4.52250002 C5.88000112,3.93000032 5.72249992,3.43500041 5.40750032,3.02250001 C5.07749942,2.60250001 4.64249942,2.38500021 4.11000012,2.38500021 Z"/>
        <path d="M17.2574998,0.757500603 L17.2574998,2.76000021 L12.727501,2.76000021 L12.2400008,5.28750992 C12.7800008,4.71000002 13.477501,4.42500022 14.3250008,4.42500022 C15.1575013,4.42500022 15.8775006,4.64999962 16.4925003,5.09249972 C17.4075012,5.76749992 17.8649979,6.78750993 17.8649979,8.15249823 C17.8649979,9.49499894 17.3774987,10.5599994 16.4024983,11.3474998 C15.6449986,11.9625091 14.7374974,12.2699986 13.6800004,12.2699986 C12.4875003,12.2699986 11.5349989,11.9474983 10.8149996,11.3099994 C10.0949993,10.6724986 9.71249964,9.80999944 9.66749964,8.72249984 L11.8724995,8.72249984 C11.9099989,9.11999894 12.0374986,9.45000074 12.2549993,9.72749904 C12.6000005,10.1624985 13.0724985,10.3799992 13.6875001,10.3799992 C14.2799989,10.3799992 14.7450009,10.1700001 15.0900003,9.74250034 C15.4200002,9.32999994 15.5925027,8.81999974 15.5925027,8.22749903 C15.5925027,7.58249853 15.4200021,7.06499863 15.0675012,6.67499923 C14.7225019,6.28499893 14.2575036,6.09749893 13.6725007,6.09749893 C12.9675017,6.09749893 12.4125014,6.41249853 12.0225011,7.04999923 L10.0125008,7.01999853 L11.085001,0.750000003 L17.2574998,0.757500603 L17.2574998,0.757500603 Z"/>
      </g>
      <polygon points="3.032 0 2.282 2.25 1.727 2.25 .992 0 1.502 0 2.005 1.688 2.515 0"/>
      <path fill-rule="nonzero" d="M3.87250042.525000102C4.12000032.525000102 4.31500052.607499803 4.47250032.764999903 4.62250042.922499704 4.70500092 1.1399999 4.70500092 1.40249971 4.70500092 1.67999941 4.62250042 1.89749961 4.45750052 2.06251001 4.30750042 2.21251011 4.10500052 2.29500011 3.85750062 2.29500011 3.59500031 2.29500011 3.38500031 2.21251011 3.23500021 2.04000001 3.08500001 1.87500001 3.01000021 1.66500001 3.01000021 1.40999981 3.01000021 1.1549996 3.08500001.952499904 3.22750041.787499403 3.38500021.614999803 3.60250002.525000102 3.87250042.525000102zM3.84999992.869999904C3.73000002.869999904 3.63999992.914999704 3.56499961 1.0125098 3.49749951 1.1100001 3.45999961 1.23751021 3.45999961 1.41000031 3.45999961 1.58250041 3.49749951 1.71750021 3.56499961 1.80750031 3.63999992 1.89750001 3.73750022 1.95000081 3.85750012 1.95000081 3.96999982 1.95000081 4.06750012 1.90500071 4.13499982 1.82250071 4.20999962 1.72500041 4.24749952 1.59000111 4.24749952 1.41000081 4.24749952 1.24500081 4.20999962 1.1100006 4.14249952 1.0200009 4.08250002.922500104 3.97750002.869999904 3.84999992.869999904zM5.44750022 5.55111512e-17L5.44750022.405000202 5.00500062.405000202 5.00500062 5.55111512e-17 5.44750022 5.55111512e-17zM5.44750022.569999902L5.44750022 2.25000001 5.00500062 2.25000001 5.00500062.569999902 5.44750022.569999902zM7.32250023 1.72499991C7.30000023 1.82250021 7.25500103 1.90500021 7.19500063 1.98751021 7.04500013 2.18999961 6.83500003 2.28750991 6.55750083 2.28750991 6.31000043 2.28750991 6.10750003 2.20499991 5.95750042 2.04750011 5.88250062 1.97250031 5.83000092 1.87500001 5.78500032 1.77000051 5.73999982 1.65750031 5.72499992 1.53000071 5.72499992 1.41000031 5.72499992 1.1625099 5.79249952.960000304 5.93500042.795000503 6.09250073.607500503 6.29500013.517500602 6.54250053.517500602 6.74500083.517500602 6.91750053.577500802 7.06000043.705000603 7.16500003.795000603 7.23250013.907500504 7.28499983 1.0350008 7.33749963 1.1625013 7.35250003 1.32750081 7.35250003 1.53000071L6.17500023 1.53000071C6.18250083 1.61250071 6.18999963 1.68000081 6.21249963 1.73250061 6.27250003 1.88250061 6.38500023 1.95000081 6.55750083 1.95000081 6.64000133 1.95000081 6.70750043 1.93500091 6.76000023 1.89750101 6.81250003 1.86000061 6.85750013 1.80000071 6.88749983 1.72500041L7.32250023 1.72499991 7.32250023 1.72499991zM6.89500053 1.23000001C6.88749983 1.1475 6.86500073 1.0799999 6.84250073 1.0275002 6.81250103.975000604 6.77500153.930000104 6.72249983.900000604 6.66999913.870001104 6.61000063.855000703 6.55000023.855000703 6.45249943.855000703 6.37000083.885000704 6.30249983.952500804 6.23499883 1.0200009 6.19750033 1.1100006 6.18999963 1.2225008L6.89500053 1.2225008 6.89500053 1.23000001z"/>
    </g>
  </g>
</svg>
