<svg xmlns="http://www.w3.org/2000/svg" width="24" height="24" viewBox="0 0 24 24">
  <g fill="none" fill-rule="evenodd">
    <path fill="#2D327D" d="M22.5,0 L1.5,0 C0.675000003,0 0,0.675000003 0,1.5 L0,22.5 C0,23.3250009 0.675000003,24 1.5,24 L22.5,24 C23.3250009,24 24,23.3250009 24,22.5 L24,1.5 C24,0.675000003 23.3250009,0 22.5,0 Z"/>
    <g fill="#FFF" transform="translate(2 2)">
      <path fill-rule="nonzero" d="M.367500101 9.18000034L2.48999981 9.18000034C2.66249991 10.0499992 3.1724992 10.4849987 4.00499972 10.4849987 4.47750002 10.4849987 4.85999922 10.3274994 5.15250022 10.0049992 5.44499972 9.68250084 5.67749982 9.18750954 5.83500002 8.51251034 5.93999952 8.08499913 6.01499942 7.59000023 6.06000042 7.04249953 5.71500012 7.52249903 5.36250022 7.86750033 5.00249962 8.06999973 4.64249952 8.27250103 4.19999982 8.37750053 3.68249941 8.37750053 2.85749911 8.37750053 2.13749931 8.13751033 1.52999971 7.65750123 1.1024999 7.31999973.772499503 6.87750053.532499302 6.34500023.292499101 5.81250952.1724992 5.22000022.1724992 4.59000102.1724992 3.32250111.607499402 2.29500001 1.46999931 1.51500121 2.21249961.840001003 3.10499951.502500402 4.14749912.502500402 4.78499892.502500402 5.37749862.645000303 5.92499932.930000204 6.46499833 1.21500101 6.92249883 1.62750041 7.29749883 2.15250101 7.94999903 3.09000101 8.27249923 4.41000162 8.27249923 6.10500043 8.27249923 7.67250053 7.98749943 9.01500124 7.40999903 10.1175021 6.65999903 11.5575026 5.52749842 12.2775001 4.01249902 12.2775001 2.99999921 12.2775001 2.16749921 11.9999998 1.50749891 11.4375094.847500303 10.875.472500301 10.125.367500101 9.18000034zM4.10250002 2.39249991C3.62250051 2.39249991 3.20999961 2.58751011 2.87999971 2.98499871 2.54999931 3.38249971 2.37749961 3.89249991 2.37749961 4.50749972 2.37749961 5.00249962 2.49749951 5.44499972 2.73750021 5.82749942 3.06750011 6.35250003 3.52500011 6.62250043 4.12500002 6.62250043 4.66500002 6.62250043 5.09249972 6.40500073 5.41500002 5.97749992 5.71500022 5.57250022 5.87250052 5.09249972 5.87250052 4.52999972 5.87250052 3.93750952 5.71500022 3.44249911 5.39999972 3.02999971 5.07749942 2.60250001 4.64249942 2.39249991 4.10250002 2.39249991zM17.6250001 3.56250951L15.4874993 3.56250951C15.2849999 2.69249911 14.7974988 2.26499941 14.0099984 2.26499941 13.1774979 2.26499941 12.5924998 2.77499961 12.2399989 3.79499912 12.097499 4.20749952 11.977499 4.83749862 11.8949985 5.67749972 12.2324982 5.21999922 12.5924988 4.88999932 12.9749976 4.69499962 13.3574982 4.49249932 13.8149987 4.39499942 14.3549977 4.39499942 15.4124985 4.39499942 16.2599965 4.76999942 16.8974972 5.51999942 17.5049973 6.22499843 17.8124981 7.11750023 17.8124981 8.18249883 17.8124981 9.44999684 17.3999977 10.4699973 16.5824986 11.2349986 15.8474999 11.9249991 14.9549981 12.2699985 13.9199982 12.2699985 12.5924988 12.2699985 11.5574979 11.7674979 10.8224983 10.7699984 10.0874977 9.76499924 9.71249774 8.36999883 9.71249774 6.57749833 9.71249774 4.65749822 10.1099977 3.15749821 10.8974981 2.06999771 11.6624975 1.0199985 12.7049981.494997902 14.0249978.494997902 15.2699986.494997902 16.2224961.914998904 16.8824979 1.74749751 17.2799989 2.22750001 17.5200006 2.83500001 17.6250001 3.56250951zM13.8224984 6.14249993C13.2824975 6.14249993 12.8549996 6.36749933 12.5399991 6.81749913 12.2549983 7.21499823 12.1124993 7.69499963 12.1124993 8.24999993 12.1124993 8.79749864 12.2549983 9.27750014 12.5474988 9.69000044 12.8624993 10.1475009 13.2974988 10.3725012 13.8524991 10.3725012 14.3925 10.3725012 14.8274995 10.1550024 15.1499978 9.72000104 15.4574986 9.30750064 15.614998 8.82750114 15.614998 8.26500113 15.614998 7.71750243 15.4799997 7.24500063 15.2024995 6.85500033 14.8575002 6.38250063 14.3999997 6.14249993 13.8224984 6.14249993z" transform="translate(1 7)"/>
      <path d="M3.09250021,2.03500031 L3.09250021,3.25000001 L2.77750021,3.25000001 L2.72500041,2.99499991 C2.56000091,3.20499991 2.33500101,3.30249981 2.05000071,3.30249981 C1.70500071,3.30249981 1.43500091,3.17500021 1.24000031,2.92000011 C1.0750005,2.70999961 0.992500104,2.44749981 0.992500104,2.13249971 C0.992500104,1.78000021 1.0975004,1.48751001 1.31500031,1.26251011 C1.51750021,1.0524998 1.78000021,0.939999904 2.09500031,0.939999904 C2.38750081,0.939999904 2.62750061,1.03751 2.81500061,1.22500001 C2.95000081,1.36750021 3.03250031,1.53999981 3.05500041,1.73500021 L2.58250001,1.73500021 C2.55999951,1.61500021 2.50000001,1.51750021 2.41750001,1.45000001 C2.33500001,1.38249981 2.22250031,1.34499981 2.09499981,1.34499981 C1.89250021,1.34499981 1.74250011,1.41999981 1.63000011,1.57749991 C1.53249981,1.71251011 1.48750001,1.89249941 1.48750001,2.12500001 C1.48750001,2.34999991 1.53249981,2.52250001 1.62250021,2.65749981 C1.73500021,2.81499961 1.89250021,2.89749961 2.11000021,2.89749961 C2.26750001,2.89749961 2.39500051,2.85250001 2.4925001,2.75499971 C2.58999981,2.65749941 2.64250001,2.53749951 2.65000021,2.38749941 L2.14750001,2.38749941 L2.14750001,2.02749921 L3.09250021,2.03500031 L3.09250021,2.03500031 Z"/>
      <polygon points="3.902 1 3.902 3.25 3.46 3.25 3.46 1"/>
      <path fill-rule="nonzero" d="M5.77749972 2.72499991C5.75499962 2.82250021 5.71000002 2.90500021 5.65000012 2.98751021 5.50000002 3.18999961 5.29000002 3.28750991 5.01249982 3.28750991 4.76499992 3.28750991 4.56250002 3.20499991 4.41249992 3.04750011 4.33750012 2.97250031 4.28500032 2.87500001 4.23999982 2.77000051 4.19499972 2.65750031 4.17999942 2.53000071 4.17999942 2.41000031 4.17999942 2.16250991 4.24749952 1.96000031 4.38999992 1.79500051 4.54749972 1.60750061 4.75000002 1.51750061 4.99750042 1.51750061 5.19999982 1.51750061 5.37250042 1.57750081 5.51499982 1.70500061 5.61999942 1.79500061 5.68750002 1.90750051 5.73999982 2.03500081 5.79249962 2.16250131 5.80749942 2.32750081 5.80749942 2.53000071L4.63749892 2.53000071C4.64499952 2.61250071 4.65249882 2.68000081 4.67499882 2.73250061 4.73499922 2.88250071 4.84749892 2.95000081 5.01999952 2.95000081 5.10250002 2.95000081 5.16999912 2.93500091 5.22249892 2.89750101 5.27499872 2.86000061 5.31999922 2.80000071 5.34999902 2.72500041L5.77749972 2.72499991 5.77749972 2.72499991zM5.34249972 2.23000001C5.33499912 2.14750001 5.31250002 2.07999991 5.29000002 2.02750021 5.26000022 1.97500061 5.22250032 1.93000011 5.16999912 1.90000061 5.11749842 1.87000111 5.05749942 1.85500071 4.99749902 1.85500071 4.89999872 1.85500071 4.81749962 1.88500071 4.74999912 1.95250081 4.68249802 2.02000091 4.64499962 2.11000061 4.63749892 2.22250081L5.34249982 2.22250081 5.34249982 2.23000001 5.34249972 2.23000001zM6.52750023 1L6.52750023 1.40500021 6.08500003 1.40500021 6.08500003 1 6.52750023 1zM6.52750023 1.56999991L6.52750023 3.25000001 6.08500003 3.25000001 6.08500003 1.56999991 6.52750023 1.56999991z"/>
      <path d="M8.24500083,2.05749991 L7.82499983,2.05749991 C7.81749923,1.99749971 7.80249983,1.95999961 7.77999973,1.93000011 C7.73499873,1.86999991 7.64499953,1.84000041 7.52499963,1.84000041 C7.44249913,1.84000041 7.38250063,1.85500001 7.34500023,1.88500021 C7.30750083,1.91500041 7.27750113,1.95250031 7.27750113,2.00500011 C7.27750113,2.05749991 7.30000113,2.10250041 7.35250093,2.12500001 C7.40500073,2.14749961 7.51000123,2.17749981 7.68250083,2.21499971 C7.89999963,2.25999981 8.05750083,2.31251001 8.14750003,2.37999971 C8.26000023,2.45499951 8.32000063,2.57499941 8.32000063,2.73249921 C8.32000063,2.91249951 8.25250053,3.04749931 8.11000063,3.15249931 C7.97500043,3.24999951 7.78750043,3.29499911 7.56250003,3.29499911 C7.28499983,3.29499911 7.07499983,3.22749901 6.94750023,3.08499911 C6.85750013,2.98749881 6.81250003,2.85999921 6.79750063,2.70249941 L7.22500043,2.70249941 C7.23250013,2.77749921 7.25499923,2.83749961 7.28499993,2.87499951 C7.34500033,2.94249961 7.43500053,2.97999951 7.57000073,2.97999951 C7.65999993,2.97999951 7.73500073,2.96499961 7.78750043,2.92749971 C7.84000013,2.88999981 7.87000093,2.83751001 7.87000093,2.77749961 C7.87000093,2.71749971 7.84749993,2.67999931 7.80250083,2.65000001 C7.75750173,2.62000031 7.66000183,2.58999961 7.51000133,2.55249971 C7.36750233,2.51499981 7.26250093,2.49249931 7.20250143,2.46999971 C7.14250103,2.44750011 7.09000123,2.42500011 7.03750143,2.40249961 C6.97750103,2.36499971 6.92500123,2.31999961 6.89500153,2.25249951 C6.86500183,2.18499941 6.84250163,2.11749941 6.84250163,2.03499981 C6.84250163,1.86249941 6.91750143,1.72749971 7.06000133,1.63749931 C7.18000213,1.56249951 7.34500113,1.52499931 7.55500213,1.52499931 C7.83250133,1.52499931 8.03500163,1.59249941 8.15500153,1.73499961 C8.19999983,1.81000021 8.23750023,1.92250011 8.24500083,2.05749991 Z"/>
    </g>
  </g>
</svg>
