<svg xmlns="http://www.w3.org/2000/svg" width="24" height="24" viewBox="0 0 24 24">
  <g fill="none" fill-rule="evenodd">
    <path fill="#2D327D" d="M22.5,0 L1.5,0 C0.675000003,0 0,0.675000003 0,1.5 L0,22.5 C0,23.3250009 0.675000003,24 1.5,24 L22.5,24 C23.3250009,24 24,23.3250009 24,22.5 L24,1.5 C24,0.675000003 23.3250009,0 22.5,0 Z"/>
    <g fill="#FFF" transform="translate(2 3)">
      <path fill-rule="nonzero" d="M.367500101 9.18000034L2.48999981 9.18000034C2.66249991 10.0499992 3.1724992 10.4849987 4.00499972 10.4849987 4.47750002 10.4849987 4.85999922 10.3274994 5.15250022 10.0049992 5.44499972 9.68250084 5.67749982 9.18750954 5.83500002 8.51251034 5.93999952 8.08499913 6.01499942 7.59000023 6.06000042 7.04249953 5.71500012 7.52249903 5.36250022 7.86750033 5.00249962 8.06999973 4.64249952 8.27250103 4.19999982 8.37750053 3.68249941 8.37750053 2.85749911 8.37750053 2.13749931 8.13751033 1.52999971 7.65750123 1.1024999 7.31999973.772499503 6.87750053.532499302 6.34500023.292499101 5.81250952.1724992 5.22000022.1724992 4.59000102.1724992 3.32250111.607499402 2.29500001 1.46999931 1.51500121 2.21249961.840001004 3.10499951.502500402 4.14749912.502500402 4.78499892.502500402 5.37749862.645000303 5.92499932.930000204 6.46499833 1.21500101 6.92249883 1.62750041 7.29749883 2.15250101 7.94999903 3.09000101 8.27249923 4.41000162 8.27249923 6.10500043 8.27249923 7.67250053 7.98749943 9.01500124 7.40999903 10.1175021 6.65999903 11.5575026 5.52749842 12.2775001 4.01249902 12.2775001 2.99999921 12.2775001 2.16749921 11.9999998 1.50749891 11.4375094.855000003 10.875.472500301 10.1175003.367500101 9.18000034zM4.11000012 2.38500021C3.63000061 2.38500021 3.21750021 2.58000081 2.88749981 2.97749991 2.55749991 3.37500001 2.38500021 3.88500021 2.38500021 4.50000002 2.38500021 4.99500082 2.50500011 5.43750952 2.74500031 5.82000062 3.07500071 6.34500023 3.53250021 6.61500073 4.13250062 6.61500073 4.67250012 6.61500073 5.10000032 6.39750103 5.42250062 5.97000022 5.72249982 5.56500052 5.88000112 5.08500002 5.88000112 4.52250002 5.88000112 3.93000032 5.72249992 3.43500041 5.40750032 3.02250001 5.07749942 2.60250001 4.64249942 2.38500021 4.11000012 2.38500021zM11.6774998 5.96251012C11.1525002 5.78250032 10.7549992 5.48999982 10.4775 5.07749942 10.1999998 4.66500002 10.0574989 4.16999912 10.0574989 3.58500001 10.0574989 2.61000061 10.4549999 1.83751011 11.2574997 1.25249951 11.9624987.742499303 12.8024999.479999502 13.7774984.479999502 14.8874971.479999502 15.7874986.787509903 16.4925005 1.39499951 17.16 1.97249891 17.4899981 2.67749981 17.4899981 3.52499871 17.4899981 4.11749842 17.3475001 4.61999902 17.069998 5.03999902 16.7850001 5.45999912 16.3874972 5.76749802 15.8699991 5.95499802 16.2749979 6.07499883 16.6049978 6.22499853 16.8599989 6.41249853 17.5724985 6.92999843 17.9324991 7.68750963 17.9324991 8.67749794 17.9324991 9.81749924 17.4974996 10.7324982 16.6199991 11.4074974 15.8849985 11.977499 14.9324991 12.262497 13.7774984 12.262497 12.5249988 12.262497 11.5199986 11.9474964 10.7774983 11.3249969 10.0049983 10.6724967 9.61499894 9.81749724 9.61499894 8.76749804 9.61499894 7.77749633 9.95999924 7.01249693 10.6424981 6.46499733 10.9499998 6.23250013 11.2950001 6.06000043 11.6774998 5.96251012zM13.7325002 6.81000043C13.1775018 6.81000043 12.727501 6.98250013 12.3750001 7.31999973 12.0225001 7.65750123 11.8500004 8.10000043 11.8500004 8.63249974 11.8500004 9.18000034 12.0299999 9.62999924 12.3825008 9.96749884 12.7425005 10.3125096 13.2000009 10.4849987 13.7700006 10.4849987 14.4150011 10.4849987 14.9025003 10.2974987 15.2250005 9.91499904 15.540001 9.54749874 15.6974984 9.12749864 15.6974984 8.65499884 15.6974984 8.11499793 15.5175 7.66499903 15.1574975 7.31999973 14.8125001 6.97500043 14.3325006 6.81000043 13.7325002 6.81000043zM13.7474996 2.23500061C13.2524988 2.23500061 12.8549997 2.37000081 12.5549995 2.64750001 12.2549993 2.92500021 12.097499 3.28499981 12.097499 3.72749992 12.097499 4.19249912 12.2474996 4.56749912 12.5549995 4.84499932 12.8625003 5.12249952 13.2675001 5.26499942 13.785 5.26499942 14.2949983 5.26499942 14.7000009 5.12999922 15.0000002 4.85250002 15.2999994 4.57499982 15.4424994 4.19999982 15.4424994 3.71999942 15.4424994 3.25499921 15.2924998 2.88749891 14.9925005 2.62499911 14.7000009 2.36250971 14.2799989 2.23500061 13.7474996 2.23500061z" transform="translate(1 6)"/>
      <polygon points="3.032 0 2.282 2.25 1.727 2.25 .992 0 1.502 0 2.005 1.688 2.515 0"/>
      <path fill-rule="nonzero" d="M3.87250042.525000102C4.12000032.525000102 4.31500052.607499803 4.47250032.764999903 4.62250042.922499704 4.70500092 1.1399999 4.70500092 1.40249971 4.70500092 1.67999941 4.62250042 1.89749961 4.45750052 2.06251001 4.30750042 2.21251011 4.10500052 2.29500011 3.85750062 2.29500011 3.59500031 2.29500011 3.38500031 2.21251011 3.23500021 2.04000001 3.08500001 1.87500001 3.01000021 1.66500001 3.01000021 1.40999981 3.01000021 1.1549996 3.08500001.952499904 3.22750041.787499403 3.38500021.614999803 3.60250002.525000102 3.87250042.525000102zM3.84999992.869999904C3.73000002.869999904 3.63999992.914999704 3.56499961 1.0125098 3.49749951 1.1100001 3.45999961 1.23751021 3.45999961 1.41000031 3.45999961 1.58250041 3.49749951 1.71750021 3.56499961 1.80750031 3.63999992 1.89750001 3.73750022 1.95000081 3.85750012 1.95000081 3.96999982 1.95000081 4.06750012 1.90500071 4.13499982 1.82250071 4.20999962 1.72500041 4.24749952 1.59000111 4.24749952 1.41000081 4.24749952 1.24500081 4.20999962 1.1100006 4.14249952 1.0200009 4.08250002.922500104 3.97750002.869999904 3.84999992.869999904zM5.44750022 5.55111512e-17L5.44750022.405000202 5.00500062.405000202 5.00500062 5.55111512e-17 5.44750022 5.55111512e-17zM5.44750022.569999902L5.44750022 2.25000001 5.00500062 2.25000001 5.00500062.569999902 5.44750022.569999902zM7.32250023 1.72499991C7.30000023 1.82250021 7.25500103 1.90500021 7.19500063 1.98751021 7.04500013 2.18999961 6.83500003 2.28750991 6.55750083 2.28750991 6.31000043 2.28750991 6.10750003 2.20499991 5.95750042 2.04750011 5.88250062 1.97250031 5.83000092 1.87500001 5.78500032 1.77000051 5.73999982 1.65750031 5.72499992 1.53000071 5.72499992 1.41000031 5.72499992 1.1625099 5.79249952.960000304 5.93500042.795000503 6.09250073.607500503 6.29500013.517500602 6.54250053.517500602 6.74500083.517500602 6.91750053.577500802 7.06000043.705000603 7.16500003.795000603 7.23250013.907500504 7.28499983 1.0350008 7.33749963 1.1625013 7.35250003 1.32750081 7.35250003 1.53000071L6.17500023 1.53000071C6.18250083 1.61250071 6.18999963 1.68000081 6.21249963 1.73250061 6.27250003 1.88250061 6.38500023 1.95000081 6.55750083 1.95000081 6.64000133 1.95000081 6.70750043 1.93500091 6.76000023 1.89750101 6.81250003 1.86000061 6.85750013 1.80000071 6.88749983 1.72500041L7.32250023 1.72499991 7.32250023 1.72499991zM6.89500053 1.23000001C6.88749983 1.1475 6.86500073 1.0799999 6.84250073 1.0275002 6.81250103.975000604 6.77500153.930000104 6.72249983.900000604 6.66999913.870001104 6.61000063.855000703 6.55000023.855000703 6.45249943.855000703 6.37000083.885000704 6.30249983.952500804 6.23499883 1.0200009 6.19750033 1.1100006 6.18999963 1.2225008L6.89500053 1.2225008 6.89500053 1.23000001z"/>
    </g>
  </g>
</svg>
