<?xml version="1.0" encoding="utf-8"?>
<!-- Generator: Adobe Illustrator 24.2.0, SVG Export Plug-In . SVG Version: 6.00 Build 0)  -->
<svg version="1.0" id="Piktogramm" xmlns="http://www.w3.org/2000/svg" xmlns:xlink="http://www.w3.org/1999/xlink" x="0px" y="0px"
	 viewBox="0 0 400 400.001" enable-background="new 0 0 400 400.001" xml:space="preserve">
<rect id="background-blue" fill="#2D327D" width="400" height="400"/>
<g id="content">
	<path id="frameWhite" fill="#FFFFFF" d="M340,40c11,0,20,9,20,20v280c0,11-9,20-20,20H60c-11,0-20-9-20-20V60c0-11,9-20,20-20H340
		 M340,35H60c-13.785,0-25,11.215-25,25v280c0,13.785,11.215,25,25,25h280c13.785,0,25-11.215,25-25V60
		C365,46.215,353.785,35,340,35L340,35z"/>
	<path fill="#FFFFFF" d="M121.811,242.971c-3.347-3.757-7.743-6.022-12.352-6.752c-0.652-3.062-2.07-6.003-4.301-8.509
		c-6.512-7.312-17.478-8.277-25.157-2.476c0.705-2.949,2.142-5.822,4.393-8.593c6.092-7.497,10.855-9.044,14.095-10.61
		c-5.052-2.848-12.257-4.476-16.363-4.035c-1.413,0.151-0.542-2.917-0.275-3.674c0.423-1.201,1.073-3.069,3.832-2.689
		c3.854,0.53,14.38,6.858,15.795,8.036c2.112-3.008,3.817-7.891,12.661-13.52c1.799-1.145,3.601-1.994,5.402-2.573
		c-4.832,6.903-4.736,16.151,0.801,22.368c2.806,3.15,6.549,4.998,10.522,5.543c-0.401,5.956,1.49,12.062,5.774,16.872
		c5.404,6.067,13.293,8.586,20.765,7.425c-0.226,2.938-0.809,5.31-1.787,6.806c-3.739,5.722-5.774,5.248-9.984,8.864
		c-4.078,3.765-3.841,5.841-9.956,8.895c-2.159,1.079-5.824,1.255-10.241,0.717C128.489,257.85,127.37,249.213,121.811,242.971z"/>
	<polygon fill="#FFFFFF" points="141.824,126.65 166.267,194.129 219.331,183.256 214.676,111.722 	"/>
	<path fill="#FFFFFF" d="M234.53,231.517h-16.035c-9.868,17.093-22.415,38.824-29.253,50.668
		c-2.761,4.783-1.082,10.922,3.751,13.712l39.379,22.735c4.833,2.79,10.989,1.175,13.751-3.608l24.316-42.116l-30.266-2.268
		L234.53,231.517z"/>
	<path fill="#FFFFFF" d="M318.739,143.33l-17.411-10.052c-1.202-0.694-2.736-0.287-3.426,0.909l-2.58,4.469
		c-0.658,1.14-0.32,2.595,0.775,3.328l0.129,0.087c0,0-17.008,24.115-23.7,35.705c-6.691,11.59-31.952,15.499-43.597,35.669
		c-0.574,0.994-1.204,2.085-1.88,3.257h20.314l5.776,40.053l25.521,1.913l7.149-12.383c11.645-20.17,2.4-44.001,9.092-55.591
		l-0.021-0.012c6.691-11.59,18.741-38.534,18.741-38.534l0.205,0.098c1.178,0.565,2.593,0.128,3.246-1.004l2.592-4.489
		C320.356,145.556,319.941,144.024,318.739,143.33z"/>
	<polygon fill="#FFFFFF" points="209.608,88.236 204.836,89.768 199.887,80.002 139.465,105.387 140.21,110.517 134.913,112.218 
		136.419,120.435 213.167,95.794 	"/>
</g>
</svg>
