<?xml version="1.0" encoding="utf-8"?>
<!-- Generator: Adobe Illustrator 24.2.0, SVG Export Plug-In . SVG Version: 6.00 Build 0)  -->
<svg version="1.0" id="Piktogramm" xmlns="http://www.w3.org/2000/svg" xmlns:xlink="http://www.w3.org/1999/xlink" x="0px" y="0px"
	 viewBox="0 0 400 400" enable-background="new 0 0 400 400" xml:space="preserve">
<rect id="background-blue" fill="#2D327D" width="400" height="400"/>
<g id="content">
	<path id="frameWhite" fill="#FFFFFF" d="M340,40c11,0,20,9,20,20v280c0,11-9,20-20,20H60c-11,0-20-9-20-20V60c0-11,9-20,20-20H340
		 M340,35H60c-13.785,0-25,11.215-25,25v280c0,13.785,11.215,25,25,25h280c13.785,0,25-11.215,25-25V60
		C365,46.215,353.785,35,340,35L340,35z"/>
	<path fill-rule="evenodd" clip-rule="evenodd" fill="#FFFFFF" d="M94.393,161.554c-0.197-0.336-0.396-0.671-0.592-1.008
		c-4.392-7.552-8.786-15.102-13.175-22.656c-0.813-1.399-0.852-2.787-0.01-4.219c2.319-3.94,4.603-7.9,6.9-11.852
		c0.056-0.096,0.104-0.195,0.183-0.343c-2.379-1.404-4.749-2.802-7.119-4.2c0.005-0.027,0.01-0.054,0.016-0.08
		c0.117,0,0.235,0,0.352,0c7.482,0,14.964,0.001,22.446-0.003c0.25,0,0.432,0.025,0.581,0.282
		c3.829,6.582,7.668,13.157,11.505,19.734c0.041,0.071,0.077,0.145,0.179,0.337c-2.477-1.427-4.846-2.791-7.236-4.167
		c-0.096,0.159-0.176,0.288-0.252,0.42c-4.307,7.455-8.61,14.912-12.923,22.363c-0.935,1.615-1.281,3.304-0.799,5.132
		c0.021,0.079,0.017,0.164,0.024,0.247C94.445,161.546,94.419,161.55,94.393,161.554z"/>
	<path fill-rule="evenodd" clip-rule="evenodd" fill="#FFFFFF" d="M160.962,94.288c2.382-1.375,4.725-2.727,7.186-4.148
		c-0.101,0.216-0.141,0.322-0.197,0.419c-3.732,6.508-7.466,13.016-11.195,19.526c-0.115,0.201-0.234,0.299-0.484,0.3
		c-7.609,0.02-15.217,0.049-22.826,0.076c-0.068,0-0.136-0.007-0.336-0.017c2.436-1.426,4.771-2.793,7.137-4.179
		c-0.096-0.173-0.175-0.318-0.257-0.461c-4.248-7.409-8.503-14.813-12.738-22.229c-0.964-1.687-2.268-2.905-4.191-3.381
		c-0.05-0.012-0.094-0.051-0.239-0.133c0.247,0,0.391,0,0.535,0c8.591-0.022,17.183-0.048,25.774-0.062
		c0.782-0.001,1.573,0.005,2.343,0.12c1.101,0.165,1.848,0.866,2.391,1.815c2.318,4.054,4.643,8.103,6.966,12.154
		C160.867,94.149,160.908,94.205,160.962,94.288z"/>
	<path fill-rule="evenodd" clip-rule="evenodd" fill="#FFFFFF" d="M145.062,172.641c0,2.777,0,5.497,0,8.218
		c-0.035,0.009-0.07,0.019-0.106,0.028c-0.064-0.093-0.136-0.181-0.192-0.278c-3.738-6.489-7.475-12.979-11.215-19.467
		c-0.112-0.194-0.16-0.341-0.03-0.567c3.815-6.639,7.621-13.283,11.429-19.926c0.02-0.035,0.051-0.065,0.121-0.155
		c0,2.78,0,5.502,0,8.293c0.203,0,0.364,0,0.525,0c8.578,0.001,17.156-0.001,25.734,0.005c1.91,0.001,3.58-0.581,4.957-1.934
		c0.045-0.045,0.1-0.08,0.25-0.199c-0.131,0.241-0.198,0.373-0.272,0.501c-4.31,7.503-8.618,15.007-12.936,22.505
		c-0.383,0.665-0.778,1.334-1.259,1.927c-0.652,0.802-1.585,1.083-2.592,1.083c-2.302-0.001-4.604-0.027-6.906-0.033
		c-2.316-0.006-4.633-0.001-6.949-0.001C145.466,172.641,145.314,172.641,145.062,172.641z"/>
	<path fill-rule="evenodd" clip-rule="evenodd" fill="#FFFFFF" d="M127.873,148.708c0,7.95,0,15.834,0,23.765
		c-0.174,0-0.324,0-0.475,0c-5.531,0-11.066,0.131-16.592-0.039c-4.996-0.154-8.776-2.489-10.918-7.14
		c-0.914-1.984-1.352-4.077-1.037-6.264c0.094-0.652,0.299-1.328,0.62-1.899c1.525-2.714,3.112-5.393,4.662-8.093
		c0.148-0.258,0.309-0.336,0.594-0.336c7.567,0.007,15.134,0.006,22.7,0.006C127.564,148.708,127.701,148.708,127.873,148.708z"/>
	<path fill-rule="evenodd" clip-rule="evenodd" fill="#FFFFFF" d="M149.322,124.219c6.845-3.962,13.661-7.908,20.5-11.866
		c0.098,0.156,0.183,0.282,0.259,0.413c2.775,4.76,5.656,9.463,8.288,14.301c1.854,3.406,2.227,7.054,0.596,10.734
		c-1.114,2.513-2.835,4.491-5.207,5.887c-0.995,0.586-2.058,0.91-3.236,0.899c-3.031-0.026-6.063-0.011-9.095-0.005
		c-0.24,0-0.404-0.034-0.542-0.274c-3.811-6.623-7.631-13.241-11.449-19.859C149.404,124.389,149.376,124.325,149.322,124.219z"/>
	<path fill-rule="evenodd" clip-rule="evenodd" fill="#FFFFFF" d="M96.768,103.598c0.736-1.295,1.443-2.538,2.149-3.78
		c2.107-3.705,4.15-7.449,6.339-11.105c1.892-3.159,4.716-5.127,8.39-5.685c2.886-0.438,5.645,0.059,8.193,1.538
		c0.975,0.566,1.77,1.307,2.339,2.302c1.509,2.642,3.043,5.27,4.575,7.899c0.133,0.229,0.156,0.395,0.015,0.643
		c-3.769,6.583-7.527,13.172-11.287,19.761c-0.048,0.084-0.099,0.167-0.181,0.305C110.461,111.52,103.636,107.571,96.768,103.598z"
		/>
	<path fill="#FFFFFF" d="M301.924,263.471l-59.189,44.092c0,0-5.8,4.471-7.286,7.983c-0.413,0.975-0.458,1.82-0.309,2.531
		c0.371,1.768,2.417,2.614,3.99,1.727l80.402-45.34L301.924,263.471z"/>
	<path fill="#FFFFFF" d="M208.14,171.519c0,0-83.236,62.948-83.421,63.098c0,0-3.22,2.88-3.82,3.531
		c-2.727,2.957-4.807,6.756-5.214,12.51c-0.023,0.324-0.046,0.649-0.058,0.986l108.246,67.552
		c1.055-6.495,5.075-13.172,10.927-17.927c3.757-3.053,82.492-61.501,82.492-61.501L208.14,171.519z M225.527,288.794
		c-2.581,2.097-4.853,4.496-6.757,7.092l-81.014-50.656c1.18-1.466,2.513-2.844,4.005-4.056c0.274-0.223,1.024-0.798,2.138-1.641
		c0.448-0.339,0.96-0.726,1.528-1.154l80.333,50.23C225.679,288.673,225.58,288.75,225.527,288.794z M155.499,230.833l8.43-6.299
		l80.222,50.162l-8.43,6.299L155.499,230.833z M261.782,261.625l-80.298-50.13l24.448-18.18l80.305,50.134l-0.105,0.078
		L261.782,261.625z"/>
</g>
</svg>
