<?xml version="1.0" encoding="utf-8"?>
<!-- Generator: Adobe Illustrator 24.2.0, SVG Export Plug-In . SVG Version: 6.00 Build 0)  -->
<svg version="1.0" id="Piktogramm" xmlns="http://www.w3.org/2000/svg" xmlns:xlink="http://www.w3.org/1999/xlink" x="0px" y="0px"
	 viewBox="0 0 400 400" enable-background="new 0 0 400 400" xml:space="preserve">
<rect id="background-blue" fill="#2D327D" width="400" height="400"/>
<g id="content">
	<path id="frameWhite" fill="#FFFFFF" d="M340,40c11,0,20,9,20,20v280c0,11-9,20-20,20H60c-11,0-20-9-20-20V60c0-11,9-20,20-20H340
		 M340,35H60c-13.785,0-25,11.215-25,25v280c0,13.785,11.215,25,25,25h280c13.785,0,25-11.215,25-25V60
		C365,46.215,353.785,35,340,35L340,35z"/>
	<path fill="#FFFFFF" d="M120.544,238.625c-8.996-13.38-22.652-22.467-38.462-25.601L79.99,223.7l50.617,54.088
		C131.866,263.987,128.383,250.283,120.544,238.625z"/>
	<path fill="#FFFFFF" d="M250.228,253.355c16.412-11.036,36.083-15.136,55.502-11.603l6.461-32.982l-171.819,35.846
		c5.281,13.238,6.686,27.721,3.925,42.042l74.077,14.512C222.287,281.516,233.591,264.541,250.228,253.355z"/>
	<path fill="#FFFFFF" d="M132.84,230.357c0.136,0.202,0.266,0.407,0.399,0.61l85.976-17.937L94.58,149.225l-9.65,49.259
		C104.624,202.379,121.635,213.693,132.84,230.357z"/>
	<polygon fill="#FFFFFF" points="315.283,192.989 320.027,168.769 99.226,125.513 97.544,134.097 242.315,208.212 	"/>
	<path fill="#FFFFFF" d="M234.62,297.433l66.172-30.477l2.089-10.664C272.82,250.933,243.726,268.91,234.62,297.433z"/>
</g>
</svg>
