<?xml version="1.0" encoding="utf-8"?>
<!-- Generator: Adobe Illustrator 26.0.3, SVG Export Plug-In . SVG Version: 6.00 Build 0)  -->
<svg version="1.0" xmlns="http://www.w3.org/2000/svg" xmlns:xlink="http://www.w3.org/1999/xlink" x="0px" y="0px"
	 viewBox="0 0 400 400" enable-background="new 0 0 400 400" xml:space="preserve">
<rect id="background-blue" fill="#2D327D" width="400" height="400"/>
<g id="content">
	<path id="frameWhite" fill="#FFFFFF" d="M340,40c11,0,20,9,20,20v280c0,11-9,20-20,20H60c-11,0-20-9-20-20V60c0-11,9-20,20-20H340
		 M340,35H60c-13.785,0-25,11.215-25,25v280c0,13.785,11.215,25,25,25h280c13.785,0,25-11.215,25-25V60
		C365,46.215,353.785,35,340,35L340,35z"/>
	<path fill="#FFFFFF" d="M147.911,257.621l-8,13.856c-1.1,1.905-0.441,4.364,1.464,5.464l6.062,3.5
		c1.905,1.1,4.364,0.441,5.464-1.464l8-13.856L147.911,257.621z"/>
	<path fill="#FFFFFF" d="M267.397,95.666l-25.981-15c-2.382-1.375-5.455-0.551-6.83,1.83c-1.375,2.382-0.551,5.455,1.83,6.83
		l6.495,3.75l-5,8.66l12.99,7.5l5-8.66l6.495,3.75c2.382,1.375,5.455,0.551,6.83-1.83
		C270.602,100.115,269.778,97.041,267.397,95.666z"/>
	<path fill="#FFFFFF" d="M265.387,129.147l-8.66-5l-34.641-20l-8.66-5c-2.382-1.375-5.455-0.551-6.83,1.83s-0.551,5.455,1.83,6.83
		l8.66,5l-73,126.44c-1.1,1.905-0.441,4.364,1.464,5.464l27.713,16c1.905,1.1,4.364,0.441,5.464-1.464l13-22.517l-12.99-7.5
		c-2.382-1.375-3.205-4.449-1.83-6.83c1.375-2.382,4.449-3.205,6.83-1.83l12.99,7.5l15-25.981l-12.99-7.5
		c-2.382-1.375-3.205-4.449-1.83-6.83c1.375-2.382,4.449-3.205,6.83-1.83l12.99,7.5l15-25.981l-12.99-7.5
		c-2.382-1.375-3.205-4.449-1.83-6.83s4.449-3.205,6.83-1.83l12.99,7.5l15-25.981l8.66,5c2.382,1.375,5.455,0.551,6.83-1.83
		C268.592,133.595,267.769,130.522,265.387,129.147z"/>
	<rect x="112.406" y="301.44" transform="matrix(0.5 -0.866 0.866 0.5 -197.1509 264.4053)" fill="#FFFFFF" width="36" height="3"/>
</g>
</svg>
