<?xml version="1.0" encoding="utf-8"?>
<!-- Generator: Adobe Illustrator 24.2.0, SVG Export Plug-In . SVG Version: 6.00 Build 0)  -->
<svg version="1.0" id="Ebene_1" xmlns="http://www.w3.org/2000/svg" xmlns:xlink="http://www.w3.org/1999/xlink" x="0px" y="0px"
	 viewBox="0 0 400 400" enable-background="new 0 0 400 400" xml:space="preserve">
<rect id="background-blue" fill="#2D327D" width="400" height="400"/>
<g id="content_1_">
	<path id="frameWhite" fill="#FFFFFF" d="M340,40c11,0,20,9,20,20v280c0,11-9,20-20,20H60c-11,0-20-9-20-20V60c0-11,9-20,20-20H340
		 M340,35H60c-13.785,0-25,11.215-25,25v280c0,13.785,11.215,25,25,25h280c13.785,0,25-11.215,25-25V60
		C365,46.215,353.785,35,340,35L340,35z"/>
	<g>
		<path fill="#FFFFFF" d="M281.334,223.039V320h-25.102l-3.938-20.549c-13.289,16.571-31.214,24.855-53.771,24.855
			c-27.482,0-49.178-10.171-65.092-30.516c-13.208-16.98-19.811-37.938-19.811-62.877c0-28.301,8.613-51.474,25.84-69.522
			c16.16-17.061,37.037-25.593,62.63-25.593c23.625,0,42.86,7.629,57.709,22.887c11.074,11.485,17.43,25.021,19.072,40.605h-38.021
			c-1.969-9.678-6.38-17.227-13.228-22.641c-6.851-5.414-15.525-8.121-26.024-8.121c-15.915,0-28.22,6.152-36.914,18.457
			c-7.629,10.748-11.443,25.267-11.443,43.559c0,17.884,3.568,32.075,10.705,42.574c8.776,12.88,21.737,19.318,38.882,19.318
			c12.386,0,22.536-3.731,30.454-11.197c7.915-7.464,12.077-17.267,12.489-29.408h-39.99v-28.793H281.334z"/>
	</g>
	<g>
		<path fill="#FFFFFF" d="M109.511,98.416c-0.219,3.104-1.258,5.756-3.117,7.957c-2.434,2.885-5.879,4.327-10.336,4.327
			c-4.744,0-8.436-1.675-11.074-5.024c-2.256-2.857-3.384-6.426-3.384-10.705c0-4.484,1.34-8.224,4.02-11.218
			c2.68-2.98,6.241-4.471,10.685-4.471c4.143,0,7.479,1.367,10.008,4.102c1.805,1.928,2.803,4.149,2.994,6.665h-6.46
			c-0.355-1.695-1.114-3.004-2.276-3.927s-2.632-1.384-4.409-1.384c-2.844,0-4.97,1.196-6.378,3.589
			c-1.053,1.818-1.579,4.047-1.579,6.686c0,2.707,0.554,4.963,1.661,6.768c1.408,2.311,3.493,3.466,6.255,3.466
			c1.969,0,3.538-0.581,4.707-1.743s1.89-2.857,2.164-5.086H109.511z"/>
		<path fill="#FFFFFF" d="M124.112,86.972c3.254,0,5.913,1.08,7.978,3.24c2.037,2.133,3.056,4.977,3.056,8.531
			c0,3.678-1.087,6.61-3.261,8.798c-2.037,2.037-4.689,3.056-7.957,3.056c-3.486,0-6.262-1.135-8.326-3.404
			c-1.969-2.16-2.953-4.963-2.953-8.408c0-3.391,0.957-6.146,2.871-8.265C117.639,88.155,120.503,86.972,124.112,86.972z
			 M123.805,91.607c-1.572,0-2.823,0.636-3.753,1.907c-0.943,1.285-1.415,3.042-1.415,5.271c0,2.311,0.465,4.081,1.395,5.312
			c0.957,1.244,2.263,1.866,3.917,1.866c1.545,0,2.769-0.567,3.671-1.702c1.025-1.258,1.538-3.083,1.538-5.476
			c0-2.242-0.451-3.985-1.354-5.229C126.861,92.257,125.528,91.607,123.805,91.607z"/>
		<path fill="#FFFFFF" d="M152.987,87.219v5.763c-0.957-0.178-1.729-0.267-2.317-0.267c-2.215,0-3.842,0.93-4.881,2.789
			c-0.588,1.039-0.882,2.775-0.882,5.209v9.27h-5.947V87.588h5.66v4.081c1.613-3.035,3.958-4.553,7.034-4.553
			C152.037,87.116,152.482,87.15,152.987,87.219z"/>
		<path fill="#FFFFFF" d="M174.295,94.13h-5.578c-0.109-0.766-0.321-1.347-0.636-1.743c-0.615-0.793-1.757-1.189-3.425-1.189
			c-1.053,0-1.866,0.191-2.44,0.574s-0.861,0.923-0.861,1.62c0,0.738,0.318,1.278,0.954,1.62s2.088,0.745,4.358,1.21
			c2.885,0.588,4.963,1.319,6.234,2.194c1.504,1.025,2.256,2.584,2.256,4.676c0,2.393-0.93,4.245-2.789,5.558
			c-1.832,1.299-4.259,1.948-7.28,1.948c-3.746,0-6.494-0.923-8.244-2.769c-1.176-1.258-1.832-2.974-1.969-5.147h5.701
			c0.109,1.012,0.369,1.777,0.779,2.297c0.766,0.93,2.03,1.395,3.794,1.395c1.23,0,2.208-0.25,2.933-0.749s1.087-1.172,1.087-2.02
			c0-0.766-0.311-1.336-0.933-1.712s-1.938-0.796-3.948-1.261c-1.941-0.451-3.315-0.803-4.122-1.056s-1.531-0.557-2.174-0.913
			c-0.834-0.479-1.483-1.148-1.948-2.01s-0.697-1.818-0.697-2.871c0-2.324,0.964-4.095,2.892-5.312
			c1.572-0.998,3.76-1.497,6.562-1.497c3.705,0,6.364,0.943,7.978,2.83C173.653,90.828,174.158,92.27,174.295,94.13z"/>
		<path fill="#FFFFFF" d="M184.693,80v5.353h-5.947V80H184.693z M184.693,87.629v22.354h-5.947V87.629H184.693z"/>
		<path fill="#FFFFFF" d="M209.691,109.982h-6.07c-0.26-0.875-0.39-1.62-0.39-2.235c-1.859,1.9-4.258,2.851-7.198,2.851
			c-2.297,0-4.088-0.533-5.373-1.6c-1.477-1.23-2.215-2.946-2.215-5.147c0-2.803,1.265-4.744,3.794-5.824
			c1.025-0.438,2.912-0.841,5.66-1.21c2.365-0.314,3.838-0.619,4.419-0.913s0.871-0.885,0.871-1.774
			c0-1.955-1.299-2.933-3.896-2.933c-1.381,0-2.389,0.246-3.025,0.738s-1.056,1.347-1.261,2.563h-5.619
			c0.178-2.488,1.114-4.365,2.81-5.629s4.108-1.897,7.239-1.897c3.458,0,6.015,0.704,7.669,2.112
			c0.766,0.656,1.275,1.36,1.528,2.112c0.253,0.752,0.379,1.941,0.379,3.568c0,0.342-0.021,1.846-0.062,4.512
			c-0.027,2.693-0.041,4.238-0.041,4.635c0,1.627,0.048,2.82,0.144,3.579S209.363,109.08,209.691,109.982z M203.149,99.175
			c-0.766,0.479-2.16,0.854-4.183,1.128c-1.422,0.219-2.447,0.499-3.076,0.841c-0.889,0.479-1.333,1.292-1.333,2.44
			c0,0.93,0.294,1.654,0.882,2.174s1.408,0.779,2.461,0.779c1.75,0,3.165-0.615,4.245-1.846c0.383-0.424,0.646-0.865,0.79-1.323
			s0.215-1.063,0.215-1.815V99.175z"/>
	</g>
</g>
</svg>
