<?xml version="1.0" encoding="utf-8"?>
<!-- Generator: Adobe Illustrator 24.2.0, SVG Export Plug-In . SVG Version: 6.00 Build 0)  -->
<svg version="1.0" id="Ebene_1" xmlns="http://www.w3.org/2000/svg" xmlns:xlink="http://www.w3.org/1999/xlink" x="0px" y="0px"
	 viewBox="0 0 400 400" enable-background="new 0 0 400 400" xml:space="preserve">
<rect id="background-blue" fill="#2D327D" width="400" height="400"/>
<g id="content_1_">
	<path id="frameWhite" fill="#FFFFFF" d="M340,40c11,0,20,9,20,20v280c0,11-9,20-20,20H60c-11,0-20-9-20-20V60c0-11,9-20,20-20H340
		 M340,35H60c-13.785,0-25,11.215-25,25v280c0,13.785,11.215,25,25,25h280c13.785,0,25-11.215,25-25V60
		C365,46.215,353.785,35,340,35L340,35z"/>
	<g>
		<path fill="#FFFFFF" d="M243.835,170.088v100.899c0,8.751-0.666,15.758-1.998,21.021c-1.334,5.265-3.676,10.084-7.025,14.458
			c-8.682,11.417-22.08,17.124-40.194,17.124c-21.328,0-35.991-7.178-43.989-21.533c-4.102-7.519-6.152-18.149-6.152-31.89
			c0-1.366,0.034-3.451,0.103-6.255h30.352c0,1.71,0,3.146,0,4.307c0,10.049,0.82,16.783,2.461,20.2
			c2.733,5.742,8.134,8.613,16.201,8.613c6.562,0,11.126-1.846,13.688-5.537c2.564-3.691,3.846-10.151,3.846-19.38V170.088H243.835z
			"/>
	</g>
	<g>
		<path fill="#FFFFFF" d="M110.905,109.572l-3.076,3.322l-4.43-3.999c-1.941,1.203-4.361,1.805-7.26,1.805
			c-2.229,0-4.286-0.41-6.173-1.23s-3.466-2.003-4.737-3.548c-2.434-2.926-3.65-6.569-3.65-10.931c0-4.717,1.429-8.531,4.286-11.443
			c2.803-2.844,6.33-4.266,10.582-4.266c2.201,0,4.235,0.407,6.101,1.22s3.449,1.972,4.748,3.476
			c2.529,2.953,3.794,6.569,3.794,10.849c0,2.338-0.352,4.481-1.056,6.429s-1.706,3.551-3.004,4.809L110.905,109.572z
			 M102.456,101.841c1.354-1.805,2.03-4.115,2.03-6.932c0-3.008-0.69-5.428-2.071-7.26c-1.449-1.941-3.479-2.912-6.091-2.912
			c-2.529,0-4.532,0.957-6.009,2.871c-1.422,1.832-2.133,4.279-2.133,7.342c0,3.172,0.738,5.674,2.215,7.506
			c1.477,1.859,3.459,2.789,5.947,2.789c0.998,0,1.921-0.15,2.769-0.451l-2.994-2.625l3.076-3.281L102.456,101.841z"/>
		<path fill="#FFFFFF" d="M135.884,87.588v22.395h-5.66v-3.261c-1.709,2.584-4.102,3.876-7.178,3.876
			c-2.68,0-4.703-0.896-6.07-2.687c-0.52-0.697-0.892-1.518-1.118-2.461c-0.226-0.943-0.338-2.174-0.338-3.691V87.588h5.947v12.325
			c0,1.285,0.038,2.194,0.113,2.728s0.229,0.984,0.461,1.354c0.629,0.998,1.702,1.497,3.22,1.497c1.873,0,3.233-0.827,4.081-2.481
			c0.41-0.807,0.615-2.263,0.615-4.368V87.588H135.884z"/>
		<path fill="#FFFFFF" d="M160.698,109.982h-6.07c-0.26-0.875-0.39-1.62-0.39-2.235c-1.859,1.9-4.259,2.851-7.198,2.851
			c-2.297,0-4.088-0.533-5.373-1.6c-1.477-1.23-2.215-2.946-2.215-5.147c0-2.803,1.265-4.744,3.794-5.824
			c1.025-0.438,2.912-0.841,5.66-1.21c2.365-0.314,3.838-0.619,4.419-0.913s0.872-0.885,0.872-1.774
			c0-1.955-1.299-2.933-3.896-2.933c-1.381,0-2.389,0.246-3.025,0.738s-1.056,1.347-1.261,2.563h-5.619
			c0.178-2.488,1.114-4.365,2.81-5.629s4.108-1.897,7.239-1.897c3.459,0,6.016,0.704,7.67,2.112c0.766,0.656,1.275,1.36,1.528,2.112
			s0.379,1.941,0.379,3.568c0,0.342-0.021,1.846-0.062,4.512c-0.027,2.693-0.041,4.238-0.041,4.635c0,1.627,0.048,2.82,0.144,3.579
			S160.37,109.08,160.698,109.982z M154.156,99.175c-0.766,0.479-2.16,0.854-4.184,1.128c-1.422,0.219-2.447,0.499-3.076,0.841
			c-0.889,0.479-1.333,1.292-1.333,2.44c0,0.93,0.294,1.654,0.882,2.174s1.408,0.779,2.461,0.779c1.75,0,3.165-0.615,4.245-1.846
			c0.383-0.424,0.646-0.865,0.79-1.323s0.215-1.063,0.215-1.815V99.175z"/>
		<path fill="#FFFFFF" d="M170.645,80v5.353h-5.947V80H170.645z M170.645,87.629v22.354h-5.947V87.629H170.645z"/>
	</g>
</g>
</svg>
