<?xml version="1.0" encoding="utf-8"?>
<!-- Generator: Adobe Illustrator 29.0.1, SVG Export Plug-In . SVG Version: 9.03 Build 54978)  -->
<svg version="1.0" xmlns="http://www.w3.org/2000/svg" xmlns:xlink="http://www.w3.org/1999/xlink" x="0px" y="0px"
	 viewBox="0 0 400 400" enable-background="new 0 0 400 400" xml:space="preserve">
<rect id="background-blue" fill="#2D327D" width="400" height="400"/>
<g id="content">
	<path id="frameWhite" fill="#FFFFFF" d="M340,40c11,0,20,9,20,20v280c0,11-9,20-20,20H60c-11,0-20-9-20-20V60c0-11,9-20,20-20H340
		 M340,35H60c-13.785,0-25,11.215-25,25v280c0,13.785,11.215,25,25,25h280c13.785,0,25-11.215,25-25V60
		C365,46.215,353.785,35,340,35L340,35z"/>
	<g>
		<path fill="#FFFFFF" d="M287.424,317.539l-18.457,19.934l-26.578-23.994c-11.649,7.218-26.169,10.828-43.558,10.828
			c-13.372,0-25.717-2.461-37.037-7.383s-20.795-12.017-28.424-21.287c-14.602-17.554-21.902-39.415-21.902-65.584
			c0-28.301,8.571-51.188,25.717-68.661c16.815-17.061,37.979-25.593,63.492-25.593c13.206,0,25.409,2.441,36.606,7.321
			c11.197,4.881,20.69,11.833,28.485,20.856c15.175,17.719,22.764,39.418,22.764,65.092c0,14.027-2.113,26.886-6.337,38.575
			c-4.227,11.689-10.234,21.309-18.026,28.854L287.424,317.539z M236.729,271.151c8.121-10.828,12.182-24.69,12.182-41.59
			c0-18.046-4.144-32.565-12.428-43.559c-8.696-11.647-20.878-17.473-36.544-17.473c-15.177,0-27.193,5.743-36.053,17.227
			c-8.533,10.994-12.797,25.677-12.797,44.051c0,19.032,4.43,34.044,13.289,45.035c8.859,11.157,20.752,16.734,35.684,16.734
			c5.987,0,11.524-0.901,16.611-2.707l-17.964-15.75l18.457-19.688L236.729,271.151z"/>
	</g>
	<g>
		<path fill="#FFFFFF" d="M105.143,88.88h-6.234c-0.123-1.463-0.667-2.581-1.63-3.353s-2.314-1.159-4.05-1.159
			c-1.545,0-2.745,0.304-3.599,0.913s-1.282,1.459-1.282,2.553c0,0.984,0.41,1.695,1.23,2.133c0.793,0.438,2.803,1.053,6.029,1.846
			c3.404,0.848,5.763,1.702,7.075,2.563c2.42,1.586,3.63,3.794,3.63,6.624c0,3.104-1.217,5.551-3.65,7.342
			c-2.146,1.572-5.052,2.358-8.716,2.358c-4.074,0-7.239-0.93-9.495-2.789s-3.425-4.505-3.507-7.937h6.521
			c0.096,1.668,0.526,2.905,1.292,3.712c1.203,1.285,3.015,1.928,5.435,1.928c1.641,0,2.939-0.321,3.896-0.964
			c1.08-0.738,1.62-1.743,1.62-3.015s-0.759-2.201-2.276-2.789c-0.834-0.328-2.803-0.923-5.906-1.784
			c-1.941-0.533-3.459-1.039-4.553-1.518s-1.969-1.012-2.625-1.6c-1.531-1.367-2.297-3.254-2.297-5.66
			c0-2.885,1.196-5.168,3.589-6.85c2.037-1.436,4.683-2.153,7.937-2.153c2.857,0,5.25,0.567,7.178,1.702
			C103.529,82.611,104.992,85.243,105.143,88.88z"/>
		<path fill="#FFFFFF" d="M121.857,87.547v4.204h-4.45v10.521c0,1.258,0.116,2.058,0.349,2.399c0.342,0.492,1.107,0.738,2.297,0.738
			c0.465,0,1.066-0.034,1.805-0.103v4.758c-1.34,0.15-2.57,0.226-3.691,0.226c-1.695,0-2.987-0.191-3.876-0.574
			c-1.381-0.615-2.242-1.736-2.584-3.363c-0.15-0.697-0.226-2.14-0.226-4.327V91.751h-3.63v-4.204h3.63v-5.25h5.927v5.25H121.857z"
			/>
		<path fill="#FFFFFF" d="M135.269,86.972c3.254,0,5.913,1.08,7.978,3.24c2.037,2.133,3.056,4.977,3.056,8.531
			c0,3.678-1.087,6.61-3.261,8.798c-2.037,2.037-4.689,3.056-7.957,3.056c-3.486,0-6.262-1.135-8.326-3.404
			c-1.969-2.16-2.953-4.963-2.953-8.408c0-3.391,0.957-6.146,2.871-8.265C128.795,88.155,131.659,86.972,135.269,86.972z
			 M134.961,91.607c-1.572,0-2.823,0.636-3.753,1.907c-0.943,1.285-1.415,3.042-1.415,5.271c0,2.311,0.465,4.081,1.395,5.312
			c0.957,1.244,2.263,1.866,3.917,1.866c1.545,0,2.769-0.567,3.671-1.702c1.025-1.258,1.538-3.083,1.538-5.476
			c0-2.242-0.451-3.985-1.354-5.229C138.017,92.257,136.684,91.607,134.961,91.607z"/>
		<path fill="#FFFFFF" d="M155.797,87.629v2.83c1.627-2.338,3.89-3.507,6.788-3.507c2.885,0,5.216,1.107,6.993,3.322
			c1.777,2.188,2.666,5.072,2.666,8.654c0,3.35-0.786,6.077-2.358,8.183c-1.75,2.365-4.115,3.548-7.096,3.548
			c-2.871,0-5.106-1.155-6.706-3.466v10.89h-5.947V87.629H155.797z M160.986,92.058c-1.559,0-2.803,0.602-3.732,1.805
			c-0.93,1.189-1.395,2.864-1.395,5.024c0,2.229,0.485,3.944,1.456,5.147c0.93,1.162,2.201,1.743,3.814,1.743
			c1.586,0,2.823-0.574,3.712-1.723c0.943-1.23,1.415-2.905,1.415-5.024c0-2.229-0.479-3.965-1.436-5.209
			C163.932,92.646,162.654,92.058,160.986,92.058z"/>
	</g>
</g>
</svg>
