<?xml version="1.0" encoding="utf-8"?>
<!-- Generator: Adobe Illustrator 24.2.0, SVG Export Plug-In . SVG Version: 6.00 Build 0)  -->
<svg version="1.0" id="Ebene_1" xmlns="http://www.w3.org/2000/svg" xmlns:xlink="http://www.w3.org/1999/xlink" x="0px" y="0px"
	 viewBox="0 0 400 400" enable-background="new 0 0 400 400" xml:space="preserve">
<rect id="background-blue" fill="#2D327D" width="400" height="400"/>
<g id="content_1_">
	<path id="frameWhite" fill="#FFFFFF" d="M340,40c11,0,20,9,20,20v280c0,11-9,20-20,20H60c-11,0-20-9-20-20V60c0-11,9-20,20-20H340
		 M340,35H60c-13.785,0-25,11.215-25,25v280c0,13.785,11.215,25,25,25h280c13.785,0,25-11.215,25-25V60
		C365,46.215,353.785,35,340,35L340,35z"/>
	<g>
		<path fill="#FFFFFF" d="M281.703,140.106L221.902,320h-44.666l-58.939-179.895h41.098l40.482,134.736l41.097-134.736H281.703z"/>
	</g>
	<g>
		<path fill="#FFFFFF" d="M105.143,88.88h-6.234c-0.123-1.463-0.667-2.581-1.63-3.353s-2.314-1.159-4.05-1.159
			c-1.545,0-2.745,0.304-3.599,0.913s-1.282,1.459-1.282,2.553c0,0.984,0.41,1.695,1.23,2.133c0.793,0.438,2.803,1.053,6.029,1.846
			c3.404,0.848,5.763,1.702,7.075,2.563c2.42,1.586,3.63,3.794,3.63,6.624c0,3.104-1.217,5.551-3.65,7.342
			c-2.146,1.572-5.052,2.358-8.716,2.358c-4.074,0-7.239-0.93-9.495-2.789s-3.425-4.505-3.507-7.937h6.521
			c0.096,1.668,0.526,2.905,1.292,3.712c1.203,1.285,3.015,1.928,5.435,1.928c1.641,0,2.939-0.321,3.896-0.964
			c1.08-0.738,1.62-1.743,1.62-3.015s-0.759-2.201-2.276-2.789c-0.834-0.328-2.803-0.923-5.906-1.784
			c-1.941-0.533-3.459-1.039-4.553-1.518s-1.969-1.012-2.625-1.6c-1.531-1.367-2.297-3.254-2.297-5.66
			c0-2.885,1.196-5.168,3.589-6.85c2.037-1.436,4.683-2.153,7.937-2.153c2.857,0,5.25,0.567,7.178,1.702
			C103.529,82.611,104.992,85.243,105.143,88.88z"/>
		<path fill="#FFFFFF" d="M121.857,87.547v4.204h-4.45v10.521c0,1.258,0.116,2.058,0.349,2.399c0.342,0.492,1.107,0.738,2.297,0.738
			c0.465,0,1.066-0.034,1.805-0.103v4.758c-1.34,0.15-2.57,0.226-3.691,0.226c-1.695,0-2.987-0.191-3.876-0.574
			c-1.381-0.615-2.242-1.736-2.584-3.363c-0.15-0.697-0.226-2.14-0.226-4.327V91.751h-3.63v-4.204h3.63v-5.25h5.927v5.25H121.857z"
			/>
		<path fill="#FFFFFF" d="M145.564,109.982h-6.07c-0.26-0.875-0.39-1.62-0.39-2.235c-1.859,1.9-4.259,2.851-7.198,2.851
			c-2.297,0-4.088-0.533-5.373-1.6c-1.477-1.23-2.215-2.946-2.215-5.147c0-2.803,1.265-4.744,3.794-5.824
			c1.025-0.438,2.912-0.841,5.66-1.21c2.365-0.314,3.838-0.619,4.419-0.913s0.872-0.885,0.872-1.774
			c0-1.955-1.299-2.933-3.896-2.933c-1.381,0-2.389,0.246-3.025,0.738s-1.056,1.347-1.261,2.563h-5.619
			c0.178-2.488,1.114-4.365,2.81-5.629s4.108-1.897,7.239-1.897c3.459,0,6.016,0.704,7.67,2.112c0.766,0.656,1.275,1.36,1.528,2.112
			c0.253,0.752,0.379,1.941,0.379,3.568c0,0.342-0.021,1.846-0.062,4.512c-0.027,2.693-0.041,4.238-0.041,4.635
			c0,1.627,0.048,2.82,0.144,3.579S145.236,109.08,145.564,109.982z M139.022,99.175c-0.766,0.479-2.16,0.854-4.184,1.128
			c-1.422,0.219-2.447,0.499-3.076,0.841c-0.889,0.479-1.333,1.292-1.333,2.44c0,0.93,0.294,1.654,0.882,2.174
			s1.408,0.779,2.461,0.779c1.75,0,3.165-0.615,4.245-1.846c0.383-0.424,0.646-0.865,0.79-1.323s0.215-1.063,0.215-1.815V99.175z"/>
		<path fill="#FFFFFF" d="M155.079,87.649v3.138c0.697-0.957,1.347-1.661,1.948-2.112c1.477-1.148,3.254-1.723,5.332-1.723
			c1.832,0,3.384,0.465,4.655,1.395c1.012,0.738,1.719,1.671,2.123,2.799s0.605,2.717,0.605,4.768v14.068h-5.927V97.165
			c0-1.436-0.123-2.488-0.369-3.158c-0.232-0.588-0.629-1.053-1.189-1.395c-0.643-0.369-1.374-0.554-2.194-0.554
			c-0.902,0-1.723,0.219-2.461,0.656s-1.285,1.032-1.641,1.784c-0.396,0.848-0.595,2.167-0.595,3.958v11.525h-5.947V87.649H155.079z
			"/>
		<path fill="#FFFFFF" d="M195.459,80v29.982h-5.681v-2.933c-1.312,2.365-3.493,3.548-6.542,3.548c-3.035,0-5.448-1.114-7.239-3.343
			c-1.75-2.174-2.625-5.038-2.625-8.593c0-3.35,0.772-6.063,2.317-8.142c1.777-2.406,4.184-3.609,7.219-3.609
			c2.967,0,5.175,1.142,6.624,3.425V80H195.459z M184.446,91.792c-1.531,0-2.755,0.574-3.671,1.723
			c-0.943,1.203-1.415,2.898-1.415,5.086c0,2.133,0.465,3.828,1.395,5.086c0.889,1.203,2.153,1.805,3.794,1.805
			s2.912-0.595,3.814-1.784s1.354-2.864,1.354-5.024c0-2.256-0.479-3.979-1.436-5.168C187.338,92.366,186.06,91.792,184.446,91.792z
			"/>
	</g>
</g>
</svg>
