<svg xmlns="http://www.w3.org/2000/svg" width="24" height="24" viewBox="0 0 24 24">
  <g fill="none" fill-rule="evenodd">
    <path fill="#2D327D" d="M22.5,0 L1.5,0 C0.675000003,0 0,0.675000003 0,1.5 L0,22.5 C0,23.3250009 0.675000003,24 1.5,24 L22.5,24 C23.3250009,24 24,23.3250009 24,22.5 L24,1.5 C24,0.675000003 23.3250009,0 22.5,0 Z"/>
    <path fill="#FFF" d="M8.57999994,0.599999902 L8.57999994,18.6 L4.92749972,18.6 L4.92749972,6.81749923 L3.6299996,6.81749923 L2.32499981,6.81749923 L1.0649996,6.81749923 L0.629999603,6.81749923 L0.629999603,4.21499972 C1.52999971,4.18500042 2.25749971,4.08750012 2.81999971,3.92999942 C3.37499911,3.77249912 3.89249992,3.52499971 4.35749912,3.17249971 C5.03249932,2.66249951 5.48999972,1.80749951 5.72249892,0.592499502 L8.57999994,0.599999902 L8.57999994,0.599999902 Z" transform="translate(6 3)"/>
  </g>
</svg>
