<svg xmlns="http://www.w3.org/2000/svg" width="24" height="24" viewBox="0 0 24 24">
  <g fill="none" fill-rule="evenodd">
    <path fill="#2D327D" d="M22.5,0 L1.5,0 C0.675000003,0 0,0.675000003 0,1.5 L0,22.5 C0,23.3250009 0.675000003,24 1.5,24 L22.5,24 C23.3250009,24 24,23.3250009 24,22.5 L24,1.5 C24,0.675000003 23.3250009,0 22.5,0 Z"/>
    <path fill="#FFF" d="M13.3450013,15.4500009 L13.3450013,18.6000005 L0.1750002,18.6000005 C0.1750002,17.6324998 0.332500001,16.7174989 0.647500002,15.8475 C0.962500103,14.9774992 1.42000051,14.2274992 2.01249981,13.5975 C2.46250011,13.1175005 2.98750021,12.6449997 3.58749961,12.1874992 C4.18750002,11.7299986 5.39500042,10.8899985 7.20249943,9.65249834 C8.07999993,9.05249884 8.68750004,8.49749954 9.04000004,7.99499803 C9.39250004,7.49249843 9.56499964,6.90749843 9.56499964,6.23999883 C9.56499964,5.46749882 9.33249954,4.83749862 8.86000064,4.35749822 C8.38749983,3.87749862 7.77250003,3.63749792 7.00000003,3.63749792 C5.11749942,3.63749792 4.14249992,4.94999792 4.08250052,7.56749733 L0.565000502,7.56749733 C0.565000502,7.40249733 0.565000502,7.27499783 0.565000502,7.17749793 C0.565000502,5.03249742 1.1875004,3.37499771 2.43250031,2.19749741 C3.64000121,1.0499974 5.20750042,0.472497502 7.13500023,0.472497502 C8.82250024,0.472497502 10.2400007,0.937497204 11.3875007,1.87499771 C12.6324997,2.89499771 13.2549992,4.25999792 13.2549992,5.97749722 C13.2549992,7.47749723 12.7599984,8.77499784 11.7700004,9.85499774 C11.4475021,10.2074967 11.1400012,10.4924975 10.8625001,10.7024975 C10.5849999,10.9199972 9.83499994,11.4299975 8.62000074,12.239998 C7.44999973,13.0349981 6.62499993,13.6274969 6.13749972,14.0324975 C5.64999952,14.4299966 5.19249912,14.9024983 4.76499932,15.4424973 L13.3450013,15.4500009 L13.3450013,15.4500009 Z" transform="translate(5 3)"/>
  </g>
</svg>
