<?xml version="1.0" encoding="utf-8"?>
<!-- Generator: Adobe Illustrator 24.2.0, SVG Export Plug-In . SVG Version: 6.00 Build 0)  -->
<svg version="1.0" id="Ebene_1" xmlns="http://www.w3.org/2000/svg" xmlns:xlink="http://www.w3.org/1999/xlink" x="0px" y="0px"
	 viewBox="0 0 400 400" enable-background="new 0 0 400 400" xml:space="preserve">
<polygon id="background-blue" fill="#2D327D" points="400,0 0,0 0,400 400,400 400,0 "/>
<g id="content">
	<path id="frameWhite" fill="#FFFFFF" d="M340,40c11,0,20,9,20,20v280c0,11-9,20-20,20H60c-11,0-20-9-20-20V60c0-11,9-20,20-20H340
		 M340,35H60c-13.785,0-25,11.215-25,25v280c0,13.785,11.215,25,25,25h280c13.785,0,25-11.215,25-25V60
		C365,46.215,353.785,35,340,35L340,35z"/>
	<polygon fill="#FFFFFF" points="214.055,197.902 214.055,197.905 214.055,197.91 214.062,197.897 214.055,197.902 	"/>
	<g>
		<path fill="#FFFFFF" d="M80,140h72.64c12.229,0,21.854,0.76,28.872,2.278c7.018,1.52,13.358,4.207,19.022,8.064
			c15.676,10.508,23.516,26.348,23.516,47.524c0,18.797-6.485,33.571-19.453,44.323c-5.5,4.598-11.779,7.9-18.837,9.911
			c-7.061,2.013-15.759,3.017-26.101,3.017h-40.383V320H80V140z M119.275,173.242v50.971h35.089c10.423,0,17.933-1.847,22.531-5.54
			c5.664-4.596,8.495-11.367,8.495-20.314c0-9.028-3.283-15.759-9.849-20.191c-4.761-3.282-12.518-4.925-23.27-4.925H119.275z"/>
	</g>
</g>
</svg>
