<?xml version="1.0" encoding="utf-8"?>
<!-- Generator: Adobe Illustrator 24.2.0, SVG Export Plug-In . SVG Version: 6.00 Build 0)  -->
<svg version="1.0" id="Ebene_1" xmlns="http://www.w3.org/2000/svg" xmlns:xlink="http://www.w3.org/1999/xlink" x="0px" y="0px"
	 viewBox="0 0 400 400" enable-background="new 0 0 400 400" xml:space="preserve">
<polygon id="background-blue" fill="#2D327D" points="400,0 0,0 0,400 400,400 400,0 "/>
<g id="content">
	<path id="frameWhite" fill="#FFFFFF" d="M340,40c11,0,20,9,20,20v280c0,11-9,20-20,20H60c-11,0-20-9-20-20V60c0-11,9-20,20-20H340
		 M340,35H60c-13.785,0-25,11.215-25,25v280c0,13.785,11.215,25,25,25h280c13.785,0,25-11.215,25-25V60
		C365,46.215,353.785,35,340,35L340,35z"/>
	<polygon fill="#FFFFFF" points="320,206.5 320,190 200,135 80,190 80,206.5 200,151.501 320,206.502 	"/>
	<polygon fill="#FFFFFF" points="256.575,232.503 256.579,232.493 256.575,232.497 256.575,232.498 256.575,232.503 	"/>
	<g>
		<path fill="#FFFFFF" d="M160.5,191h52.059c8.764,0,15.662,0.544,20.691,1.632c5.03,1.089,9.574,3.015,13.633,5.779
			c11.234,7.53,16.852,18.883,16.852,34.059c0,13.471-4.647,24.059-13.94,31.765c-3.941,3.295-8.442,5.662-13.5,7.103
			c-5.06,1.442-11.294,2.162-18.706,2.162h-28.941V320H160.5V191z M188.648,214.824v36.529h25.147c7.47,0,12.852-1.324,16.147-3.971
			c4.058-3.293,6.088-8.146,6.088-14.559c0-6.47-2.354-11.294-7.059-14.47c-3.412-2.352-8.971-3.529-16.676-3.529H188.648z"/>
	</g>
</g>
</svg>
