<?xml version="1.0" encoding="utf-8"?>
<!-- Generator: Adobe Illustrator 24.2.0, SVG Export Plug-In . SVG Version: 6.00 Build 0)  -->
<svg version="1.0" id="_x3C_Ebene_x3E_" xmlns="http://www.w3.org/2000/svg" xmlns:xlink="http://www.w3.org/1999/xlink" x="0px"
	 y="0px" viewBox="0 0 400 400" enable-background="new 0 0 400 400" xml:space="preserve">
<rect id="background-blue" fill="#2D327D" width="400" height="400"/>
<g id="content">
	<path id="frameWhite" fill="#FFFFFF" d="M340,40c11,0,20,9,20,20v280c0,11-9,20-20,20H60c-11,0-20-9-20-20V60c0-11,9-20,20-20H340
		 M340,35H60c-13.785,0-25,11.215-25,25v280c0,13.785,11.215,25,25,25h280c13.785,0,25-11.215,25-25V60
		C365,46.215,353.785,35,340,35L340,35z"/>
	<path fill="#FFFFFF" d="M80,140.105h72.598c12.222,0,21.841,0.759,28.854,2.276c7.014,1.519,13.351,4.205,19.011,8.06
		c15.667,10.501,23.502,26.332,23.502,47.496c0,18.786-6.481,33.551-19.441,44.297c-5.497,4.595-11.772,7.896-18.826,9.905
		c-7.056,2.011-15.75,3.015-26.086,3.015h-40.359V320H80V140.105z M119.252,173.328v50.941h35.068
		c10.417,0,17.922-1.846,22.518-5.537c5.66-4.593,8.49-11.361,8.49-20.303c0-9.023-3.282-15.75-9.844-20.18
		c-4.758-3.28-12.51-4.922-23.256-4.922H119.252z"/>
	<path fill="#FFFFFF" d="M82.851,80h12.1c2.037,0,3.64,0.126,4.809,0.379s2.225,0.701,3.168,1.343
		c2.611,1.75,3.917,4.389,3.917,7.916c0,3.131-1.08,5.592-3.24,7.383c-0.916,0.766-1.962,1.316-3.138,1.651
		s-2.625,0.502-4.348,0.502h-6.727v10.808h-6.542V80z M89.393,85.537v8.49h5.845c1.736,0,2.987-0.308,3.753-0.923
		c0.943-0.766,1.415-1.894,1.415-3.384c0-1.504-0.547-2.625-1.641-3.363c-0.793-0.547-2.085-0.82-3.876-0.82H89.393z"/>
	<path fill="#FFFFFF" d="M110.29,97.309v-4.02h8.326v-8.347h4.02v8.347h8.347v4.02h-8.347v8.326h-4.02v-8.326H110.29z"/>
	<path fill="#FFFFFF" d="M135.966,80h14.52c2.871,0,5.072,0.451,6.604,1.354c1.271,0.738,2.242,1.723,2.912,2.953
		s1.005,2.618,1.005,4.163c0,1.75-0.42,3.274-1.261,4.573s-2.013,2.229-3.517,2.789c1.326,0.328,2.365,1.066,3.117,2.215
		c0.479,0.725,0.8,1.483,0.964,2.276s0.376,2.604,0.636,5.435c0.191,2.078,0.485,3.37,0.882,3.876l0.287,0.349h-6.829
		c-0.232-0.424-0.4-0.964-0.502-1.62s-0.236-2.174-0.4-4.553c-0.164-2.119-0.68-3.585-1.548-4.399s-2.348-1.22-4.44-1.22h-5.886
		v11.792h-6.542V80z M142.508,85.147v8.244h6.255c2.01,0,3.425-0.287,4.245-0.861c1.039-0.725,1.559-1.818,1.559-3.281
		c0-1.422-0.444-2.461-1.333-3.117s-2.29-0.984-4.204-0.984H142.508z"/>
	<path fill="#FFFFFF" d="M186.087,109.982h-6.07c-0.26-0.875-0.39-1.62-0.39-2.235c-1.859,1.9-4.259,2.851-7.198,2.851
		c-2.297,0-4.088-0.533-5.373-1.6c-1.477-1.23-2.215-2.946-2.215-5.147c0-2.803,1.265-4.744,3.794-5.824
		c1.025-0.438,2.912-0.841,5.66-1.21c2.365-0.314,3.838-0.619,4.419-0.913s0.872-0.885,0.872-1.774c0-1.955-1.299-2.933-3.896-2.933
		c-1.381,0-2.389,0.246-3.025,0.738s-1.056,1.347-1.261,2.563h-5.619c0.178-2.488,1.114-4.365,2.81-5.629s4.108-1.897,7.239-1.897
		c3.459,0,6.016,0.704,7.67,2.112c0.766,0.656,1.275,1.36,1.528,2.112s0.379,1.941,0.379,3.568c0,0.342-0.021,1.846-0.062,4.512
		c-0.027,2.693-0.041,4.238-0.041,4.635c0,1.627,0.048,2.82,0.144,3.579S185.759,109.08,186.087,109.982z M179.545,99.175
		c-0.766,0.479-2.16,0.854-4.184,1.128c-1.422,0.219-2.447,0.499-3.076,0.841c-0.889,0.479-1.333,1.292-1.333,2.44
		c0,0.93,0.294,1.654,0.882,2.174s1.408,0.779,2.461,0.779c1.75,0,3.165-0.615,4.245-1.846c0.383-0.424,0.646-0.865,0.79-1.323
		s0.215-1.063,0.215-1.815V99.175z"/>
	<path fill="#FFFFFF" d="M196.033,80v5.353h-5.947V80H196.033z M196.033,87.629v22.354h-5.947V87.629H196.033z"/>
	<path fill="#FFFFFF" d="M206.861,80v29.982h-5.947V80H206.861z"/>
</g>
</svg>
