<?xml version="1.0" encoding="utf-8"?>
<!-- Generator: Adobe Illustrator 25.0.0, SVG Export Plug-In . SVG Version: 6.00 Build 0)  -->
<svg version="1.0" xmlns="http://www.w3.org/2000/svg" xmlns:xlink="http://www.w3.org/1999/xlink" x="0px" y="0px"
	 viewBox="0 0 400 400" enable-background="new 0 0 400 400" xml:space="preserve">
<rect id="background-blue" x="0.028" fill="#2D327D" width="400" height="400"/>
<g id="content">
	<path id="frameWhite" fill="#FFFFFF" d="M340,40c11,0,20,9,20,20v280c0,11-9,20-20,20H60c-11,0-20-9-20-20V60c0-11,9-20,20-20H340
		 M340,35H60c-13.785,0-25,11.215-25,25v280c0,13.785,11.215,25,25,25h280c13.785,0,25-11.215,25-25V60
		C365,46.215,353.785,35,340,35L340,35z"/>
	<path fill="#FFFFFF" d="M273.04,202.97L273,213.04c0.03,2.2-1.8,3.94-4,3.96h-1.36l-6.86-17.99H269
		C271.2,199,273.02,200.78,273.04,202.97z"/>
	<path fill="#FFFFFF" d="M79.959,80h24.224c4.079,0,7.288,0.254,9.629,0.761c2.341,0.506,4.454,1.401,6.345,2.689
		c5.228,3.503,7.843,8.785,7.843,15.848c0,6.27-2.164,11.196-6.49,14.782c-1.832,1.532-3.927,2.636-6.281,3.305
		s-5.255,1.007-8.705,1.007H93.057v21.637H79.959V80z M93.057,91.086v17h11.702c3.477,0,5.981-0.616,7.513-1.848
		c1.888-1.532,2.834-3.793,2.834-6.777c0-3.011-1.095-5.255-3.284-6.734c-1.588-1.093-4.176-1.642-7.76-1.642H93.057z"/>
	<path fill="#FFFFFF" d="M285,250c-2.983,0-5.878,0.376-8.643,1.078l-27.62-72.502c-0.61-1.601-2.137-2.571-3.754-2.565v-0.016
		h-26.482c-2.49,0-4.502,2.02-4.502,4.497c0,2.488,2.012,4.508,4.502,4.508h24.123l26.26,68.933
		C257.667,259.765,250,271.483,250,285c0,19.33,15.67,35,35,35s35-15.67,35-35C320,265.67,304.33,250,285,250z M285,305
		c-11.05,0-20-8.95-20-20c0-7.105,3.711-13.327,9.292-16.874l6.971,18.298c0.608,1.596,2.126,2.577,3.739,2.577
		c0.473,0,0.955-0.084,1.423-0.263c2.064-0.786,3.101-3.097,2.314-5.162l-6.968-18.292c1.054-0.171,2.128-0.284,3.231-0.284
		c11.05,0,20,8.95,20,20S296.05,305,285,305z"/>
	<path fill="#FFFFFF" d="M150,218c0-4.971-4.029-9-9-9H90v9H150z"/>
	<path fill="#FFFFFF" d="M243.66,199h-26.12c-2.06,0-3.96,0.69-5.48,1.86c-6.57,5.13-21.79,17.01-23.66,18.48
		c-2.42,1.92-5.02,2.66-7.4,2.66c-20.41,0-91,0-91,0v12h25c26.827,0,48.796,20.703,50.831,47h-16.066
		c-1.986-17.445-16.789-31-34.766-31c-19.33,0-35,15.67-35,35c0,19.33,15.67,35,35,35c17.975,0,32.777-13.553,34.765-30.996L173,289
		h53.04c4.5,0,8.15-3.65,8.15-8.15v-0.28c1.46-17.04,11.3-31.68,25.39-39.78L243.66,199z M115,305c-11.05,0-20-8.95-20-20
		s8.95-20,20-20c9.68,0,17.747,6.869,19.599,16h-19.584c-0.738,0.008-1.468,0.213-2.11,0.61c-1.879,1.159-2.474,3.618-1.308,5.508
		c0.729,1.18,2.012,1.888,3.4,1.892l19.6-0.004C132.743,298.135,124.677,305,115,305z"/>
</g>
</svg>
