<?xml version="1.0" encoding="utf-8"?>
<!-- Generator: Adobe Illustrator 25.0.0, SVG Export Plug-In . SVG Version: 6.00 Build 0)  -->
<svg version="1.0" xmlns="http://www.w3.org/2000/svg" xmlns:xlink="http://www.w3.org/1999/xlink" x="0px" y="0px"
	 viewBox="0 0 400 400" enable-background="new 0 0 400 400" xml:space="preserve">
<rect id="background-blue" x="0.028" fill="#2D327D" width="400" height="400"/>
<g id="content">
	<path id="frameWhite" fill="#FFFFFF" d="M340,40c11,0,20,9,20,20v280c0,11-9,20-20,20H60c-11,0-20-9-20-20V60c0-11,9-20,20-20H340
		 M340,35H60c-13.785,0-25,11.215-25,25v280c0,13.785,11.215,25,25,25h280c13.785,0,25-11.215,25-25V60
		C365,46.215,353.785,35,340,35L340,35z"/>
	<path fill="#FFFFFF" d="M126.96,202.97l0.04,10.07c-0.03,2.2,1.8,3.94,4,3.96h1.36l6.86-17.99H131
		C128.8,199,126.98,200.78,126.96,202.97z"/>
	<path fill="#FFFFFF" d="M79.959,80h24.224c4.079,0,7.288,0.254,9.629,0.761c2.341,0.506,4.454,1.401,6.345,2.689
		c5.228,3.503,7.843,8.785,7.843,15.848c0,6.27-2.164,11.196-6.49,14.782c-1.832,1.532-3.927,2.636-6.281,3.305
		s-5.255,1.007-8.705,1.007H93.057v21.637H79.959V80z M93.057,91.086v17h11.702c3.477,0,5.981-0.616,7.513-1.848
		c1.888-1.532,2.834-3.793,2.834-6.777c0-3.011-1.095-5.255-3.284-6.734c-1.588-1.093-4.176-1.642-7.76-1.642H93.057z"/>
	<path fill="#FFFFFF" d="M80,285c0,19.33,15.67,35,35,35s35-15.67,35-35c0-13.517-7.667-25.235-18.885-31.067L157.375,185h24.123
		c2.49,0,4.502-2.02,4.502-4.508c0-2.477-2.012-4.497-4.502-4.497h-26.482v0.016c-1.617-0.006-3.144,0.964-3.754,2.565
		l-27.62,72.502c-2.765-0.702-5.66-1.078-8.643-1.078C95.67,250,80,265.67,80,285z M95,285c0-11.05,8.95-20,20-20
		c1.103,0,2.177,0.112,3.231,0.284l-6.968,18.292c-0.787,2.064,0.25,4.375,2.314,5.162c0.468,0.179,0.95,0.263,1.423,0.263
		c1.612,0,3.131-0.981,3.739-2.577l6.971-18.298c5.58,3.548,9.292,9.769,9.292,16.874c0,11.05-8.95,20-20,20S95,296.05,95,285z"/>
	<path fill="#FFFFFF" d="M250,218c0-4.971,4.029-9,9-9h51v9H250z"/>
	<path fill="#FFFFFF" d="M140.42,240.79c14.09,8.1,23.93,22.74,25.39,39.78v0.28c0,4.5,3.65,8.15,8.15,8.15H227l23.235,0.004
		C252.223,306.447,267.025,320,285,320c19.33,0,35-15.67,35-35c0-19.33-15.67-35-35-35c-17.977,0-32.78,13.555-34.766,31h-16.066
		c2.035-26.297,24.004-47,50.831-47h25v-12c0,0-70.59,0-91,0c-2.38,0-4.98-0.74-7.4-2.66c-1.87-1.47-17.09-13.35-23.66-18.48
		c-1.52-1.17-3.42-1.86-5.48-1.86h-26.12L140.42,240.79z M265.402,289.007l19.6,0.004c1.388-0.004,2.671-0.712,3.4-1.892
		c1.166-1.89,0.571-4.349-1.308-5.508c-0.641-0.398-1.372-0.603-2.11-0.61h-19.584c1.852-9.131,9.919-16,19.599-16
		c11.05,0,20,8.95,20,20s-8.95,20-20,20C275.323,305,267.257,298.135,265.402,289.007z"/>
</g>
</svg>
