<?xml version="1.0" encoding="utf-8"?>
<!-- Generator: Adobe Illustrator 24.2.0, SVG Export Plug-In . SVG Version: 6.00 Build 0)  -->
<svg version="1.0" id="Ebene_1" xmlns="http://www.w3.org/2000/svg" xmlns:xlink="http://www.w3.org/1999/xlink" x="0px" y="0px"
	 viewBox="0 0 400 400" enable-background="new 0 0 400 400" xml:space="preserve">
<polygon id="background-blue" fill="#2D327D" points="0,400 0,0 400,0 400,400 0,400 "/>
<g id="content">
	<path id="frameWhite" fill="#FFFFFF" d="M340,40c11,0,20,9,20,20v280c0,11-9,20-20,20H60c-11,0-20-9-20-20V60c0-11,9-20,20-20H340
		 M340,35H60c-13.785,0-25,11.215-25,25v280c0,13.785,11.215,25,25,25h280c13.785,0,25-11.215,25-25V60
		C365,46.215,353.785,35,340,35L340,35z"/>
	<path fill="#FFFFFF" d="M289.494,228.992v-0.989c0-1.659-1.337-3.008-2.997-3.008h-40.503l-26.992,40.01h-10.008L164.997,200
		h-24.56c-2.481,0-4.499,2.017-4.499,4.493c0,0.904,0.275,1.782,0.782,2.525l8.781,12.986h9.006l-6.911,10.746
		c-6.419-3.131-13.453-4.752-20.598-4.752C101.06,225.999,80,247.056,80,272.992C80,298.94,101.06,320,126.998,320
		c25.948,0,47.004-21.06,47.004-47.008c0-14.052-6.291-27.36-17.143-36.298l5.464-8.53l26.668,39.405V280
		c0,5.521,4.496,10.002,10.008,10.002h30.186C236.196,308.089,253.597,320,272.996,320C298.944,320,320,298.94,320,272.992
		C320,253.406,307.839,235.864,289.494,228.992L289.494,228.992z M161.493,272.992c0,19.052-15.458,34.515-34.495,34.515
		c-19.041,0-34.499-15.463-34.499-34.515c0-19.04,15.457-34.491,34.499-34.491c4.744,0,9.436,0.979,13.773,2.873l-18.396,28.647
		c-0.568,0.89-0.878,1.931-0.878,2.971c0,3.045,2.467,5.509,5.501,5.509c1.867,0,3.627-0.955,4.63-2.537l18.407-28.648
		C157.331,253.864,161.493,263.188,161.493,272.992L161.493,272.992z M272.996,307.507c-12.423,0-23.895-6.685-30.013-17.506h37.023
		c5.512,0,9.984-4.481,9.984-10.002v-37.016c10.824,6.115,17.514,17.591,17.514,30.008
		C307.504,292.044,292.047,307.507,272.996,307.507L272.996,307.507z"/>
	<path fill="#FFFFFF" d="M242.509,220H290v-9.993c0-2.213-1.785-4.007-3.99-4.007h-45.51c-2.205,0-3.999,1.794-3.999,4.007
		c0,0.805,0.262,1.597,0.706,2.25L242.509,220L242.509,220z"/>
	<path fill="#FFFFFF" d="M137.009,194.494h35.488v-9h-35.488c-2.491,0-4.5,2.018-4.5,4.507
		C132.509,192.476,134.518,194.494,137.009,194.494L137.009,194.494z"/>
	<g>
		<path fill="#FFFFFF" d="M80,80h24.213c4.076,0,7.285,0.253,9.623,0.759c2.339,0.507,4.453,1.402,6.341,2.688
			c5.226,3.503,7.839,8.783,7.839,15.841c0,6.266-2.162,11.19-6.485,14.774c-1.833,1.533-3.926,2.634-6.279,3.304
			c-2.353,0.67-5.253,1.005-8.7,1.005H93.092V140H80V80z M93.092,91.081v16.991h11.696c3.475,0,5.978-0.616,7.51-1.847
			c1.888-1.532,2.832-3.789,2.832-6.771c0-3.009-1.095-5.253-3.283-6.73c-1.587-1.094-4.172-1.642-7.756-1.642H93.092z"/>
	</g>
</g>
</svg>
