<?xml version="1.0" encoding="utf-8"?>
<!-- Generator: Adobe Illustrator 24.2.0, SVG Export Plug-In . SVG Version: 6.00 Build 0)  -->
<svg version="1.0" id="Ebene_1" xmlns="http://www.w3.org/2000/svg" xmlns:xlink="http://www.w3.org/1999/xlink" x="0px" y="0px"
	 viewBox="0 0 400 400" enable-background="new 0 0 400 400" xml:space="preserve">
<polygon id="background-blue" fill="#2D327D" points="0,400 0,0 400,0 400,400 0,400 "/>
<g id="content">
	<path id="frameWhite" fill="#FFFFFF" d="M340,40c11,0,20,9,20,20v280c0,11-9,20-20,20H60c-11,0-20-9-20-20V60c0-11,9-20,20-20H340
		 M340,35H60c-13.785,0-25,11.215-25,25v280c0,13.785,11.215,25,25,25h280c13.785,0,25-11.215,25-25V60
		C365,46.215,353.785,35,340,35L340,35z"/>
	<g>
		<path fill="#FFFFFF" d="M110.506,228.999C92.161,235.871,80,253.412,80,272.999c0,25.948,21.056,47.008,47.004,47.008
			c19.399,0,36.8-11.911,43.811-29.999h30.186c5.512,0,10.008-4.48,10.008-10.001v-12.431l26.668-39.405l5.464,8.53
			c-10.852,8.938-17.143,22.246-17.143,36.298c0,25.948,21.056,47.008,47.004,47.008c25.938,0,46.998-21.06,46.998-47.008
			c0-25.937-21.06-46.994-46.998-46.994c-7.145,0-14.18,1.621-20.598,4.752l-6.911-10.746h9.006l8.781-12.986
			c0.507-0.743,0.782-1.622,0.782-2.525c0-2.476-2.019-4.493-4.5-4.493h-24.56l-43.997,65.006h-10.008l-26.992-40.01h-40.503
			c-1.661,0-2.998,1.349-2.998,3.008V228.999L110.506,228.999z M238.507,272.999c0-9.805,4.162-19.128,11.458-25.676l18.407,28.648
			c1.002,1.583,2.763,2.537,4.63,2.537c3.035,0,5.501-2.464,5.501-5.509c0-1.04-0.31-2.081-0.878-2.971l-18.396-28.647
			c4.337-1.894,9.03-2.873,13.773-2.873c19.041,0,34.499,15.451,34.499,34.491c0,19.052-15.458,34.515-34.499,34.515
			C253.965,307.514,238.507,292.051,238.507,272.999L238.507,272.999z M127.004,307.514c-19.051,0-34.508-15.463-34.508-34.515
			c0-12.417,6.69-23.894,17.514-30.008v37.016c0,5.521,4.472,10.001,9.984,10.001h37.023
			C150.899,300.829,139.427,307.514,127.004,307.514L127.004,307.514z"/>
		<path fill="#FFFFFF" d="M157.491,220.006H110v-9.993c0-2.213,1.785-4.007,3.99-4.007h45.51c2.205,0,3.999,1.794,3.999,4.007
			c0,0.805-0.262,1.597-0.706,2.251L157.491,220.006L157.491,220.006z"/>
		<path fill="#FFFFFF" d="M262.991,194.501h-35.488V185.5h35.488c2.491,0,4.499,2.018,4.499,4.507
			C267.491,192.482,265.482,194.501,262.991,194.501L262.991,194.501z"/>
	</g>
	<g>
		<path fill="#FFFFFF" d="M80,80h24.213c4.076,0,7.285,0.253,9.623,0.759c2.339,0.507,4.453,1.402,6.341,2.688
			c5.226,3.503,7.839,8.783,7.839,15.841c0,6.266-2.162,11.19-6.485,14.774c-1.833,1.533-3.926,2.634-6.279,3.304
			c-2.353,0.67-5.253,1.005-8.7,1.005H93.092V140H80V80z M93.092,91.081v16.991h11.696c3.475,0,5.978-0.616,7.51-1.847
			c1.888-1.532,2.832-3.789,2.832-6.771c0-3.009-1.095-5.253-3.283-6.73c-1.587-1.094-4.172-1.642-7.756-1.642H93.092z"/>
	</g>
</g>
</svg>
