<?xml version="1.0" encoding="utf-8"?>
<!-- Generator: Adobe Illustrator 24.2.0, SVG Export Plug-In . SVG Version: 6.00 Build 0)  -->
<svg version="1.0" id="Ebene_1" xmlns="http://www.w3.org/2000/svg" xmlns:xlink="http://www.w3.org/1999/xlink" x="0px" y="0px"
	 viewBox="0 0 400 400" enable-background="new 0 0 400 400" xml:space="preserve">
<polygon id="background-blue" fill="#2D327D" points="400,400 0,400 0,0 400,0 400,400 "/>
<g id="content">
	<path id="frameWhite" fill="#FFFFFF" d="M340,40c11,0,20,9,20,20v280c0,11-9,20-20,20H60c-11,0-20-9-20-20V60c0-11,9-20,20-20H340
		 M340,35H60c-13.785,0-25,11.215-25,25v280c0,13.785,11.215,25,25,25h280c13.785,0,25-11.215,25-25V60
		C365,46.215,353.785,35,340,35L340,35z"/>
	<path id="Schlüssel" fill="#FFFFFF" d="M165,112.5l10,10l10-10l10,10l12.5-12.5L195,97.5h-57.181
		c-4.774-10.609-15.431-18-27.819-18c-16.845,0-30.5,13.655-30.5,30.5s13.655,30.5,30.5,30.5c12.389,0,23.045-7.391,27.819-18H155
		L165,112.5z M95,120c-5.523,0-10-4.477-10-10c0-5.523,4.477-10,10-10c5.523,0,10,4.477,10,10C105,115.523,100.523,120,95,120z"/>
	<polygon id="Dach" fill="#FFFFFF" points="320,206.5 320,190 200,135 80,190 80,206.5 200,151.5 320,206.5 	"/>
	<g>
		<path fill="#FFFFFF" d="M176.845,212.614l-21.123,7.388c-0.454,0.173-0.955,0.248-1.444,0.248c-1.461,0-2.814-0.727-3.628-1.939
			l-4.747-7.041c-0.39-0.584-0.586-1.267-0.586-1.949c0-1.939,1.562-3.509,3.491-3.509h26.876c1.941,0,3.512,1.57,3.512,3.509
			C179.195,210.806,178.243,212.127,176.845,212.614L176.845,212.614z"/>
		<path fill="#FFFFFF" d="M250.759,212.812h-30.634v-7h30.634c1.929,0,3.491,1.568,3.491,3.505
			C254.25,211.243,252.688,212.812,250.759,212.812L250.759,212.812z"/>
		<path fill="#FFFFFF" d="M250.754,224.183h-4.379c-1.931,0-3.504-1.569-3.504-3.496c0-1.935,1.573-3.504,3.504-3.504h4.379
			c1.931,0,3.492,1.568,3.492,3.504C254.246,222.613,252.685,224.183,250.754,224.183L250.754,224.183z"/>
		<path fill="#FFFFFF" d="M137.877,234.241c-23.67,0-42.877,19.206-42.877,42.884c0,23.656,19.207,42.874,42.877,42.874
			c22.153,0,40.664-16.878,42.69-38.941h9.128c1.874,3.996,5.896,6.564,10.317,6.564c6.265,0,11.367-5.103,11.367-11.374
			c0-2.556-0.857-5.026-2.439-7.028l22.935-34.1l4.706,7.56c-10.904,8.103-17.322,20.863-17.322,34.446
			c0,23.656,19.206,42.874,42.866,42.874c23.669,0,42.874-19.218,42.874-42.874c0-23.678-19.205-42.884-42.874-42.884
			c-6.818,0-13.538,1.625-19.597,4.743l-8.398-13.484h-68.247l-8.4,13.484C151.424,235.866,144.695,234.241,137.877,234.241
			L137.877,234.241z M226.251,277.125c0-11.156,5.19-21.675,14.035-28.467l18.87,30.309c0.64,1.027,1.756,1.658,2.97,1.658
			c1.94,0,3.499-1.57,3.499-3.5c0-0.66-0.183-1.3-0.518-1.853l-18.871-30.319c4.944-2.436,10.374-3.705,15.89-3.705
			c19.801,0,35.884,16.067,35.884,35.877c0,19.802-16.083,35.875-35.884,35.875C242.324,313,226.251,296.927,226.251,277.125
			L226.251,277.125z M196.869,265.308l-22.066-32.811h50.396l-22.066,32.811c-1.019-0.293-2.07-0.433-3.12-0.433
			C198.94,264.875,197.888,265.015,196.869,265.308L196.869,265.308z M180.645,274.059c-0.901-12.467-7.186-23.928-17.225-31.38
			l4.715-7.56l22.925,34.1c-1.119,1.407-1.875,3.075-2.222,4.84H180.645L180.645,274.059z M159.716,248.658
			c7.998,6.132,13.05,15.351,13.906,25.4h-29.72L159.716,248.658L159.716,248.658z M137.877,313
			c-19.802,0-35.863-16.073-35.863-35.875c0-19.81,16.061-35.877,35.863-35.877c5.517,0,10.957,1.269,15.897,3.705l-15.672,25.175
			c-0.063-0.012-0.15-0.012-0.225-0.012c-3.859,0-6.99,3.142-6.99,7.009c0,3.855,3.131,6.998,6.99,6.998
			c2.318,0,4.485-1.148,5.787-3.065h29.883C171.53,299.232,156.172,313,137.877,313L137.877,313z"/>
	</g>
</g>
</svg>
