<?xml version="1.0" encoding="utf-8"?>
<!-- Generator: Adobe Illustrator 24.2.0, SVG Export Plug-In . SVG Version: 6.00 Build 0)  -->
<svg version="1.0" id="Ebene_1" xmlns="http://www.w3.org/2000/svg" xmlns:xlink="http://www.w3.org/1999/xlink" x="0px" y="0px"
	 viewBox="0 0 400 400" enable-background="new 0 0 400 400" xml:space="preserve">
<polygon id="background-blue" fill="#2D327D" points="400,400 0,400 0,0 400,0 400,400 "/>
<g id="content">
	<path id="frameWhite" fill="#FFFFFF" d="M340,40c11,0,20,9,20,20v280c0,11-9,20-20,20H60c-11,0-20-9-20-20V60c0-11,9-20,20-20H340
		 M340,35H60c-13.785,0-25,11.215-25,25v280c0,13.785,11.215,25,25,25h280c13.785,0,25-11.215,25-25V60
		C365,46.215,353.785,35,340,35L340,35z"/>
	<path id="Schluessel" fill="#FFFFFF" d="M165,112.5l10,10l10-10l10,10l12.5-12.5L195,97.5h-57.181
		c-4.774-10.609-15.431-18-27.819-18c-16.845,0-30.5,13.655-30.5,30.5s13.655,30.5,30.5,30.5c12.389,0,23.045-7.391,27.819-18H155
		L165,112.5z M95,120c-5.523,0-10-4.477-10-10c0-5.523,4.477-10,10-10c5.523,0,10,4.477,10,10C105,115.523,100.523,120,95,120z"/>
	<polygon id="Dach" fill="#FFFFFF" points="320,206.5 320,190 200,135 80,190 80,206.5 200,151.5 320,206.5 	"/>
	<g>
		<path fill="#FFFFFF" d="M223.155,212.614l21.123,7.388c0.454,0.173,0.955,0.248,1.444,0.248c1.461,0,2.814-0.727,3.628-1.939
			l4.747-7.041c0.39-0.584,0.586-1.267,0.586-1.949c0-1.939-1.561-3.509-3.491-3.509h-26.876c-1.941,0-3.512,1.57-3.512,3.509
			C220.805,210.806,221.757,212.127,223.155,212.614L223.155,212.614z"/>
		<path fill="#FFFFFF" d="M149.241,212.812h30.634v-7h-30.634c-1.929,0-3.491,1.568-3.491,3.505
			C145.75,211.243,147.312,212.812,149.241,212.812L149.241,212.812z"/>
		<path fill="#FFFFFF" d="M149.249,224.19h4.378c1.93,0,3.502-1.57,3.502-3.5c0-1.938-1.572-3.508-3.502-3.508h-4.378
			c-1.93,0-3.49,1.57-3.49,3.508C145.759,222.62,147.319,224.19,149.249,224.19L149.249,224.19z"/>
		<path fill="#FFFFFF" d="M262.123,234.241c-6.818,0-13.547,1.625-19.606,4.743l-8.4-13.484h-68.247l-8.398,13.484
			c-6.059-3.118-12.778-4.743-19.597-4.743c-23.669,0-42.874,19.206-42.874,42.884c0,23.656,19.205,42.874,42.874,42.874
			c23.66,0,42.866-19.218,42.866-42.874c0-13.583-6.418-26.344-17.322-34.446l4.706-7.56l22.935,34.1
			c-1.582,2.002-2.438,4.473-2.438,7.028c0,6.271,5.103,11.374,11.367,11.374c4.421,0,8.443-2.567,10.317-6.564h9.128
			c2.026,22.064,20.537,38.941,42.69,38.941c23.67,0,42.877-19.218,42.877-42.874C305,253.447,285.793,234.241,262.123,234.241
			L262.123,234.241z M173.749,277.125c0,19.802-16.073,35.875-35.875,35.875c-19.801,0-35.883-16.073-35.883-35.875
			c0-19.81,16.082-35.877,35.883-35.877c5.516,0,10.945,1.269,15.89,3.705l-18.871,30.319c-0.335,0.553-0.518,1.192-0.518,1.853
			c0,1.93,1.559,3.5,3.499,3.5c1.214,0,2.33-0.631,2.97-1.658l18.87-30.309C168.559,255.45,173.749,265.969,173.749,277.125
			L173.749,277.125z M203.131,265.308c-1.019-0.293-2.071-0.433-3.144-0.433c-1.05,0-2.102,0.14-3.12,0.433l-22.066-32.811h50.396
			L203.131,265.308L203.131,265.308z M219.354,274.059h-8.193c-0.347-1.765-1.103-3.433-2.222-4.84l22.925-34.1l4.715,7.56
			C226.541,250.131,220.256,261.592,219.354,274.059L219.354,274.059z M240.284,248.658l15.813,25.4h-29.72
			C227.234,264.009,232.286,254.79,240.284,248.658L240.284,248.658z M262.123,313c-18.295,0-33.653-13.768-35.67-31.942h29.883
			c1.302,1.917,3.469,3.065,5.787,3.065c3.859,0,6.99-3.142,6.99-6.998c0-3.867-3.131-7.009-6.99-7.009
			c-0.075,0-0.162,0-0.225,0.012l-15.672-25.175c4.94-2.436,10.381-3.705,15.897-3.705c19.802,0,35.863,16.067,35.863,35.877
			C297.986,296.927,281.925,313,262.123,313L262.123,313z"/>
	</g>
</g>
</svg>
