<?xml version="1.0" encoding="utf-8"?>
<!-- Generator: Adobe Illustrator 24.2.0, SVG Export Plug-In . SVG Version: 6.00 Build 0)  -->
<svg version="1.0" id="Ebene_1" xmlns="http://www.w3.org/2000/svg" xmlns:xlink="http://www.w3.org/1999/xlink" x="0px" y="0px"
	 viewBox="0 0 400 400" enable-background="new 0 0 400 400" xml:space="preserve">
<polygon id="background-blue" fill="#2D327D" points="0,400 0,0 400,0 400,400 0,400 "/>
<g id="content">
	<path id="frameWhite" fill="#FFFFFF" d="M340,40c11,0,20,9,20,20v280c0,11-9,20-20,20H60c-11,0-20-9-20-20V60c0-11,9-20,20-20H340
		 M340,35H60c-13.785,0-25,11.215-25,25v280c0,13.785,11.215,25,25,25h280c13.785,0,25-11.215,25-25V60
		C365,46.215,353.785,35,340,35L340,35z"/>
	<g>
		<path fill="#FFFFFF" d="M226.463,197.273l24.141,8.443c0.52,0.198,1.092,0.284,1.65,0.284c1.67,0,3.218-0.83,4.148-2.215
			l5.426-8.047c0.444-0.668,0.669-1.448,0.669-2.229c0-2.215-1.785-4.01-3.99-4.01H227.79c-2.219,0-4.014,1.795-4.014,4.01
			C223.776,195.207,224.865,196.717,226.463,197.273L226.463,197.273z"/>
		<path fill="#FFFFFF" d="M141.991,197.5H177v-8h-35.009c-2.206,0-3.991,1.793-3.991,4.005C138,195.707,139.785,197.5,141.991,197.5
			L141.991,197.5z"/>
		<path fill="#FFFFFF" d="M141.999,210.504h5.003c2.205,0,4.003-1.795,4.003-4c0-2.215-1.798-4.01-4.003-4.01h-5.003
			c-2.205,0-3.99,1.795-3.99,4.01C138.009,208.709,139.794,210.504,141.999,210.504L141.999,210.504z"/>
		<path fill="#FFFFFF" d="M270.998,221.991c-7.793,0-15.482,1.857-22.407,5.42L238.99,212h-77.997l-9.598,15.411
			c-6.924-3.563-14.604-5.42-22.396-5.42C101.948,221.991,80,243.939,80,271c0,27.037,21.948,48.999,48.999,48.999
			c27.04,0,48.989-21.963,48.989-48.999c0-15.523-7.335-30.106-19.796-39.366l5.378-8.64l26.21,38.971
			c-1.809,2.289-2.787,5.112-2.787,8.033c0,7.168,5.832,12.999,12.991,12.999c5.053,0,9.649-2.934,11.792-7.502h10.431
			c2.316,25.216,23.471,44.505,48.789,44.505C298.049,319.999,320,298.036,320,271C320,243.939,298.049,221.991,270.998,221.991
			L270.998,221.991z M169.999,271c0,22.631-18.37,41.001-41,41.001c-22.63,0-41.01-18.37-41.01-41.001
			c0-22.641,18.379-41.002,41.01-41.002c6.304,0,12.509,1.449,18.159,4.234l-21.566,34.651c-0.382,0.631-0.592,1.362-0.592,2.116
			c0,2.205,1.781,4,3.999,4c1.388,0,2.663-0.72,3.393-1.895l21.566-34.638C164.067,246.229,169.999,258.25,169.999,271L169.999,271z
			 M203.578,257.494c-1.164-0.334-2.367-0.495-3.593-0.495c-1.199,0-2.401,0.16-3.565,0.495l-25.219-37.498h57.595L203.578,257.494
			L203.578,257.494z M222.119,267.496h-9.364c-0.396-2.018-1.26-3.924-2.539-5.532l26.2-38.971l5.388,8.64
			C230.332,240.149,223.149,253.248,222.119,267.496L222.119,267.496z M246.039,238.467l18.072,29.029h-33.965
			C231.126,256.009,236.899,245.474,246.039,238.467L246.039,238.467z M270.998,312.001c-20.909,0-38.461-15.734-40.766-36.507
			h34.151c1.488,2.191,3.965,3.504,6.614,3.504c4.41,0,7.988-3.592,7.988-7.998c0-4.42-3.579-8.009-7.988-8.009
			c-0.086,0-0.186,0-0.258,0.014l-17.911-28.772c5.646-2.785,11.865-4.234,18.169-4.234c22.63,0,40.986,18.361,40.986,41.002
			C311.984,293.63,293.628,312.001,270.998,312.001L270.998,312.001z"/>
	</g>
	<path fill="#FFFFFF" d="M124.999,80C100.147,80,80,100.147,80,125c0,24.852,20.147,45,44.999,45C149.852,170,170,149.852,170,125
		C170,100.147,149.852,80,124.999,80 M144.872,119.912c-5.145,0-9.32-4.172-9.32-9.319c0-0.46,0.034-0.912,0.098-1.353
		c-4.088,2.446-6.923,8.318-6.924,14.494l-0.001,22.724h5.779c1.035,0,1.874,0.839,1.874,1.874c0,1.035-0.839,1.878-1.874,1.878
		h-5.779l-17.028,0.007l-5.936-0.007c-1.036,0-1.874-0.844-1.874-1.878c0-1.035,0.837-1.874,1.874-1.874h5.936v-40.796h-5.936
		c-1.036,0-1.874-0.839-1.874-1.873c0-1.038,0.837-1.876,1.874-1.876h22.965l0.001,9.441c2.658-3.862,7.899-10.083,16.145-10.083
		c5.148,0,9.321,4.173,9.321,9.321C154.193,115.74,150.02,119.912,144.872,119.912L144.872,119.912z"/>
</g>
</svg>
