<?xml version="1.0" encoding="utf-8"?>
<!-- Generator: Adobe Illustrator 24.2.0, SVG Export Plug-In . SVG Version: 6.00 Build 0)  -->
<svg version="1.0" xmlns="http://www.w3.org/2000/svg" xmlns:xlink="http://www.w3.org/1999/xlink" x="0px" y="0px"
	 viewBox="0 0 400 400" enable-background="new 0 0 400 400" xml:space="preserve">
<rect id="background-blue" fill="#2D327D" width="400" height="400"/>
<g id="content">
	<path id="frameWhite" fill="#FFFFFF" d="M340,40c11,0,20,9,20,20v280c0,11-9,20-20,20H60c-11,0-20-9-20-20V60c0-11,9-20,20-20H340
		 M340,35H60c-13.785,0-25,11.215-25,25v280c0,13.785,11.215,25,25,25h280c13.785,0,25-11.215,25-25V60
		C365,46.215,353.785,35,340,35L340,35z"/>
	<path fill="#FFFFFF" d="M114.399,223.144l-30.003,30.004C81.581,255.962,80,259.776,80,263.755v35.247
		c0,2.756,2.243,4.999,5.002,4.999h4.999v-5.75c0-16.561,13.439-30,30-30c16.56,0,29.999,13.44,29.999,30v5.75h99.5v-5.75
		c0-16.561,13.439-30,29.999-30c16.561,0,30.002,13.44,30.002,30v5.75h5.498l0,0c2.761,0,5.001-2.243,5.001-4.999v-31.172
		c0-2.601-1.993-4.768-4.585-4.982l-58.497-4.854l-34.854-34.851c-2.811-2.814-6.627-4.393-10.603-4.393h-86.454
		C121.027,218.751,117.214,220.329,114.399,223.144L114.399,223.144z M174.463,233.255v-0.003c0-2.763,2.239-5.003,4.999-5.003
		h31.494c1.327,0,2.601,0.527,3.538,1.464l23.912,23.916c0.565,0.562,0.88,1.323,0.88,2.122c0,1.653-1.346,2.998-3.002,2.998
		h-56.791c-2.76,0-4.996-2.232-4.999-4.992L174.463,233.255L174.463,233.255z M100.178,258.75c-1.653,0-3-1.344-3-2.998
		c0-0.799,0.317-1.561,0.882-2.122l23.913-23.916c0.937-0.937,2.208-1.464,3.534-1.464h34.468c2.759,0,4.998,2.24,4.998,5.003
		v20.498c0,2.76-2.239,5-4.998,5H100.178L100.178,258.75z"/>
	<path fill-rule="evenodd" clip-rule="evenodd" fill="#FFFFFF" d="M119.78,311.149c-6.901,0-12.499-5.598-12.499-12.499
		c0-6.9,5.598-12.499,12.499-12.499s12.499,5.598,12.499,12.499C132.279,305.551,126.681,311.149,119.78,311.149L119.78,311.149z
		 M120.06,275.712c-12.558,0-22.752,10.194-22.752,22.751c0,12.561,10.194,22.751,22.752,22.751
		c12.557,0,22.752-10.19,22.752-22.751C142.812,285.907,132.618,275.712,120.06,275.712L120.06,275.712z"/>
	<path fill-rule="evenodd" clip-rule="evenodd" fill="#FFFFFF" d="M279.479,311.149c-6.901,0-12.501-5.598-12.501-12.499
		c0-6.9,5.6-12.499,12.501-12.499c6.899,0,12.499,5.598,12.499,12.499C291.978,305.551,286.378,311.149,279.479,311.149
		L279.479,311.149z M279.48,275.899c-12.56,0-22.752,10.194-22.752,22.752c0,12.561,10.192,22.751,22.752,22.751
		c12.558,0,22.748-10.19,22.748-22.751C302.228,286.093,292.038,275.899,279.48,275.899L279.48,275.899z"/>
	<path fill="#FFFFFF" d="M182,150h-37c-11.028,0-20-8.972-20-20s8.972-20,20-20h10.013c5.514,0,10-4.486,10-10s-4.486-10-10-10H80
		V80h75.013c11.028,0,20,8.972,20,20s-8.972,20-20,20H145c-5.514,0-10,4.486-10,10s4.486,10,10,10h37V150z"/>
	<path fill="#FFFFFF" d="M210,165h-10c-8.284,0-15-6.716-15-15v-10c0-8.284,6.716-15,15-15h10c2.761,0,5,2.239,5,5v30
		C215,162.761,212.761,165,210,165z"/>
	<path fill="#FFFFFF" d="M234.999,132.5H218v5h16.999c1.381,0,2.5-1.119,2.5-2.5S236.38,132.5,234.999,132.5z"/>
	<path fill="#FFFFFF" d="M235,152.5h-17v5h17c1.381,0,2.5-1.119,2.5-2.5S236.381,152.5,235,152.5z"/>
</g>
</svg>
