<?xml version="1.0" encoding="utf-8"?>
<!-- Generator: Adobe Illustrator 24.2.0, SVG Export Plug-In . SVG Version: 6.00 Build 0)  -->
<svg version="1.0" xmlns="http://www.w3.org/2000/svg" xmlns:xlink="http://www.w3.org/1999/xlink" x="0px" y="0px"
	 viewBox="0 0 400 400" enable-background="new 0 0 400 400" xml:space="preserve">
<rect id="background-blue" fill="#2D327D" width="400" height="400"/>
<g id="content">
	<path id="frameWhite" fill="#FFFFFF" d="M340,40c11,0,20,9,20,20v280c0,11-9,20-20,20H60c-11,0-20-9-20-20V60c0-11,9-20,20-20H340
		 M340,35H60c-13.785,0-25,11.215-25,25v280c0,13.785,11.215,25,25,25h280c13.785,0,25-11.215,25-25V60
		C365,46.215,353.785,35,340,35L340,35z"/>
	<path fill="#FFFFFF" d="M182,150h-37c-11.028,0-20-8.972-20-20s8.972-20,20-20h10.013c5.514,0,10-4.486,10-10s-4.486-10-10-10H80
		V80h75.013c11.028,0,20,8.972,20,20s-8.972,20-20,20H145c-5.514,0-10,4.486-10,10s4.486,10,10,10h37V150z"/>
	<path fill="#FFFFFF" d="M210,165h-10c-8.284,0-15-6.716-15-15v-10c0-8.284,6.716-15,15-15h10c2.761,0,5,2.239,5,5v30
		C215,162.761,212.761,165,210,165z"/>
	<path fill="#FFFFFF" d="M234.999,132.5H218v5h16.999c1.381,0,2.5-1.119,2.5-2.5S236.38,132.5,234.999,132.5z"/>
	<path fill="#FFFFFF" d="M235,152.5h-17v5h17c1.381,0,2.5-1.119,2.5-2.5S236.381,152.5,235,152.5z"/>
	<path fill="#FFFFFF" d="M285.601,223.143c-2.815-2.814-6.628-4.393-10.607-4.393H188.54c-3.975,0-7.792,1.578-10.604,4.393
		l-34.854,34.851l-58.497,4.855c-2.592,0.213-4.585,2.38-4.585,4.981v31.172c0,2.755,2.239,4.998,5.001,4.998l0,0h5.498v-5.749
		c0-16.561,13.441-30.001,30.002-30.001c16.56,0,29.999,13.44,29.999,30.001V304H250v-5.749c0-16.561,13.439-30.001,29.999-30.001
		c16.561,0,30,13.44,30,30.001V304h4.999c2.76,0,5.002-2.243,5.002-4.998v-35.248c0-3.979-1.582-7.794-4.396-10.608L285.601,223.143
		L285.601,223.143z M225.537,233.254l-0.031,20.502c-0.003,2.76-2.239,4.992-4.999,4.992h-56.792c-1.657,0-3.002-1.344-3.002-2.997
		c0-0.799,0.315-1.561,0.88-2.122l23.912-23.917c0.937-0.937,2.211-1.464,3.538-1.464h31.494c2.76,0,4.999,2.24,4.999,5.003V233.254
		L225.537,233.254z M299.822,258.749h-59.796c-2.759,0-4.998-2.24-4.998-5v-20.498c0-2.763,2.239-5.003,4.998-5.003h34.468
		c1.326,0,2.597,0.527,3.535,1.464l23.912,23.917c0.565,0.561,0.882,1.323,0.882,2.122
		C302.823,257.404,301.476,258.749,299.822,258.749L299.822,258.749z"/>
	<path fill-rule="evenodd" clip-rule="evenodd" fill="#FFFFFF" d="M280.22,311.149c-6.901,0-12.499-5.598-12.499-12.499
		c0-6.9,5.598-12.499,12.499-12.499c6.901,0,12.499,5.598,12.499,12.499C292.719,305.551,287.121,311.149,280.22,311.149
		L280.22,311.149z M279.939,275.712c-12.557,0-22.752,10.194-22.752,22.751c0,12.561,10.195,22.751,22.752,22.751
		c12.558,0,22.752-10.19,22.752-22.751C302.691,285.907,292.497,275.712,279.939,275.712L279.939,275.712z"/>
	<path fill-rule="evenodd" clip-rule="evenodd" fill="#FFFFFF" d="M120.521,311.149c-6.899,0-12.499-5.598-12.499-12.499
		c0-6.9,5.6-12.499,12.499-12.499c6.901,0,12.501,5.598,12.501,12.499C133.021,305.551,127.421,311.149,120.521,311.149
		L120.521,311.149z M120.52,275.899c-12.558,0-22.748,10.194-22.748,22.752c0,12.561,10.19,22.751,22.748,22.751
		c12.559,0,22.752-10.19,22.752-22.751C143.271,286.093,133.079,275.899,120.52,275.899L120.52,275.899z"/>
</g>
</svg>
