<?xml version="1.0" encoding="utf-8"?>
<!-- Generator: Adobe Illustrator 24.2.0, SVG Export Plug-In . SVG Version: 6.00 Build 0)  -->
<svg version="1.0" xmlns="http://www.w3.org/2000/svg" xmlns:xlink="http://www.w3.org/1999/xlink" x="0px" y="0px"
	 viewBox="0 0 400 400" enable-background="new 0 0 400 400" xml:space="preserve">
<rect id="background-blue" fill="#2D327D" width="400" height="400"/>
<g id="content">
	<path id="frameWhite" fill="#FFFFFF" d="M340,40c11,0,20,9,20,20v280c0,11-9,20-20,20H60c-11,0-20-9-20-20V60c0-11,9-20,20-20H340
		 M340,35H60c-13.785,0-25,11.215-25,25v280c0,13.785,11.215,25,25,25h280c13.785,0,25-11.215,25-25V60
		C365,46.215,353.785,35,340,35L340,35z"/>
	<path fill="#FFFFFF" d="M173.537,197.273l-24.141,8.443c-0.52,0.198-1.092,0.284-1.65,0.284c-1.67,0-3.218-0.83-4.148-2.215
		l-5.426-8.047c-0.444-0.668-0.669-1.448-0.669-2.229c0-2.215,1.785-4.01,3.99-4.01h30.716c2.219,0,4.014,1.795,4.014,4.01
		C176.224,195.207,175.135,196.717,173.537,197.273L173.537,197.273z"/>
	<path fill="#FFFFFF" d="M258.009,197.5H223v-8h35.009c2.205,0,3.991,1.793,3.991,4.005C262,195.707,260.215,197.5,258.009,197.5
		L258.009,197.5z"/>
	<path fill="#FFFFFF" d="M258.004,210.494H253c-2.206,0-4.004-1.793-4.004-3.995c0-2.212,1.798-4.005,4.004-4.005h5.004
		c2.206,0,3.991,1.793,3.991,4.005C261.996,208.701,260.21,210.494,258.004,210.494L258.004,210.494z"/>
	<path fill="#FFFFFF" d="M129.002,221.991C101.951,221.991,80,243.939,80,271c0,27.037,21.951,48.999,49.002,48.999
		c25.318,0,46.474-19.289,48.789-44.505h10.431c2.143,4.568,6.74,7.502,11.792,7.502c7.159,0,12.991-5.831,12.991-12.999
		c0-2.921-0.978-5.744-2.787-8.033l26.21-38.971l5.378,8.64c-12.461,9.26-19.796,23.843-19.796,39.366
		c0,27.037,21.949,48.999,48.989,48.999C298.052,319.999,320,298.036,320,271c0-27.061-21.948-49.009-48.999-49.009
		c-7.793,0-15.472,1.857-22.396,5.42L239.007,212H161.01l-9.601,15.411C144.484,223.848,136.795,221.991,129.002,221.991
		L129.002,221.991z M230.001,271c0-12.75,5.932-24.771,16.04-32.533l21.566,34.638c0.73,1.175,2.005,1.895,3.393,1.895
		c2.218,0,3.999-1.795,3.999-4c0-0.754-0.21-1.485-0.592-2.116l-21.566-34.651c5.65-2.785,11.855-4.234,18.159-4.234
		c22.63,0,41.01,18.361,41.01,41.002c0,22.631-18.379,41.001-41.01,41.001C248.371,312.001,230.001,293.63,230.001,271L230.001,271z
		 M196.422,257.494l-25.218-37.498h57.595l-25.219,37.498c-1.164-0.334-2.366-0.495-3.566-0.495
		C198.789,257,197.586,257.16,196.422,257.494L196.422,257.494z M177.881,267.496c-1.03-14.249-8.213-27.347-19.686-35.863
		l5.388-8.64l26.2,38.971c-1.278,1.608-2.143,3.515-2.539,5.532H177.881L177.881,267.496z M153.961,238.467
		c9.14,7.007,14.913,17.542,15.893,29.029h-33.965L153.961,238.467L153.961,238.467z M129.002,312.001
		c-22.63,0-40.986-18.37-40.986-41.001c0-22.641,18.356-41.002,40.986-41.002c6.304,0,12.522,1.449,18.169,4.234l-17.911,28.772
		c-0.072-0.014-0.172-0.014-0.258-0.014c-4.41,0-7.988,3.589-7.988,8.009c0,4.406,3.579,7.998,7.988,7.998
		c2.649,0,5.126-1.313,6.614-3.504h34.151C167.463,296.266,149.911,312.001,129.002,312.001L129.002,312.001z"/>
	<path fill="#FFFFFF" d="M182,150h-37c-11.028,0-20-8.972-20-20s8.972-20,20-20h10.013c5.514,0,10-4.486,10-10s-4.486-10-10-10H80
		V80h75.013c11.028,0,20,8.972,20,20s-8.972,20-20,20H145c-5.514,0-10,4.486-10,10s4.486,10,10,10h37V150z"/>
	<path fill="#FFFFFF" d="M210,165h-10c-8.284,0-15-6.716-15-15v-10c0-8.284,6.716-15,15-15h10c2.761,0,5,2.239,5,5v30
		C215,162.761,212.761,165,210,165z"/>
	<path fill="#FFFFFF" d="M234.999,132.5H218v5h16.999c1.381,0,2.5-1.119,2.5-2.5S236.38,132.5,234.999,132.5z"/>
	<path fill="#FFFFFF" d="M235,152.5h-17v5h17c1.381,0,2.5-1.119,2.5-2.5S236.381,152.5,235,152.5z"/>
</g>
</svg>
