<svg xmlns="http://www.w3.org/2000/svg" width="24" height="24" viewBox="0 0 24 24">
  <g fill="none" fill-rule="evenodd">
    <path fill="#2D327D" d="M22.5,0 L1.5,0 C0.675000003,0 0,0.675000003 0,1.5 L0,22.5 C0,23.3250009 0.675000003,24 1.5,24 L22.5,24 C23.3250009,24 24,23.3250009 24,22.5 L24,1.5 C24,0.675000003 23.3250009,0 22.5,0 Z"/>
    <g fill="#FFF" transform="translate(2 2)">
      <path d="M18.7150003,16.8624993 C18.9249994,16.8624993 19.0900003,16.6974984 19.0900003,16.4874993 C19.0900003,16.4724999 19.0900003,16.4500008 19.0900003,16.4349995 L19.0900003,16.4349995 L18.767502,14.1999989 L14.8750001,14.1999989 L14.8750001,16.8624993 L18.7150003,16.8624993 L18.7150003,16.8624993 Z"/>
      <path fill-rule="nonzero" d="M9.63250064,6.18999963 L1,6.18999963 L1,5.50000002 L8.05000023,5.50000002 L5.83750012,4.00000002 L10,1.63750001 L14.1399995,4.00000002 L14.1625005,4.00000002 L11.9499998,5.50000002 L16.5474988,5.50000002 L16.5474988,5.50000002 C17.1099988,5.50000002 17.5824986,5.91249992 17.6649991,6.46749973 L18.6699983,13.4875003 L1,13.4875003 L1,9.77499964 L9.63250064,9.77499964 L9.63250064,9.77499964 C9.83500004,9.77499964 10,9.61000064 10,9.40750034 C10,9.20500094 9.83500004,9.04000094 9.63250064,9.04000094 L1,9.04000094 L1,8.35000043 L9.63250064,8.35000043 L9.63250064,8.35000043 C9.83500004,8.35000043 10,8.18500043 10,7.98250013 C10,7.78000073 9.83500004,7.61500073 9.63250064,7.61500073 L1,7.61500073 L1,6.92500023 L9.63250064,6.92500023 C9.83500004,6.92500023 10,6.76000023 10,6.55750083 C10,6.35499953 9.83500004,6.18999963 9.63250064,6.18999963 L9.63250064,6.18999963 Z M14.6499997,9.39999964 C14.6499997,9.61000064 14.8150006,9.77499964 15.0249997,9.77499964 L16.9825002,9.77499964 C17.1924993,9.77499964 17.3575002,9.61000064 17.3575002,9.39999964 C17.3575002,9.38500024 17.3575002,9.36250024 17.3575002,9.34749984 L17.3575002,9.34749984 L16.9525014,6.51249983 C16.9225007,6.32499983 16.7650014,6.18999963 16.5775014,6.18999963 L15.0249997,6.18999963 C14.8150006,6.18999963 14.6499997,6.35499963 14.6499997,6.56499963 L14.6499997,9.39999964 L14.6499997,9.39999964 Z M10.6825008,5.50000002 L12.8050004,4.06000042 L10,2.45499991 L7.18750003,4.05249982 L9.31749924,5.50000002 L10.6825008,5.50000002 L10.6825008,5.50000002 Z"/>
      <path d="M5.79249952 16.0224992C5.79249952 14.9649984 6.64749903 14.1099988 7.70499993 14.1099988 8.76250084 14.1099988 9.61749934 14.9649983 9.61749934 16.0224992 9.61749934 17.0800001 8.76249984 17.9349996 7.70499993 17.9349996 6.64750003 17.9349996 5.79249952 17.08 5.79249952 16.0224992L5.79249952 16.0224992zM10.3000002 16.0224992C10.3000002 14.9649984 11.1549997 14.1099988 12.2124997 14.1099988 13.2699996 14.1099988 14.1250001 14.9649983 14.1250001 16.0224992 14.1250001 17.0800001 13.2700006 17.9349996 12.2124997 17.9349996 11.1549987 17.9349996 10.3000002 17.08 10.3000002 16.0224992L10.3000002 16.0224992z"/>
      <polygon points="19 1 19 1.375 1 1.375 1 1"/>
      <polygon points="1 19 1 18.288 19 18.288 19 19"/>
      <polygon points=".85 14.313 .85 14.2 4.975 14.2 4.975 16.862 .85 16.862"/>
    </g>
  </g>
</svg>
