<svg xmlns="http://www.w3.org/2000/svg" width="24" height="24" viewBox="0 0 24 24">
  <g fill="none" fill-rule="evenodd">
    <path fill="#2D327D" d="M22.5,0 L1.5,0 C0.675000003,0 0,0.675000003 0,1.5 L0,22.5 C0,23.3250009 0.675000003,24 1.5,24 L22.5,24 C23.3250009,24 24,23.3250009 24,22.5 L24,1.5 C24,0.675000003 23.3250009,0 22.5,0 Z"/>
    <g fill="#FFF" transform="translate(2 2)">
      <path d="M1.28500031,16.8624993 C1.075,16.8624993 0.910000304,16.6974984 0.910000304,16.4874993 C0.910000304,16.4724999 0.910000304,16.4500008 0.917500004,16.4349995 L0.917500004,16.4349995 L1.24000021,14.1999989 L5.13250062,14.1999989 L5.13250062,16.8624993 L1.28500031,16.8624993 L1.28500031,16.8624993 Z"/>
      <path fill-rule="nonzero" d="M10.3674994,6.18999963 L19.0000001,6.18999963 L19.0000001,5.50000002 L11.9499998,5.50000002 L14.1625005,4.00000002 L10,1.63750001 L5.86000012,4.00000002 L5.83749941,4.00000002 L8.05000023,5.50000002 L3.45249991,5.50000002 L3.45249991,5.50000002 C2.88999991,5.50000002 2.41749961,5.91249992 2.34249981,6.46749973 L1.33749941,13.4875003 L19.0000001,13.4875003 L19.0000001,9.77499964 L10.3674994,9.77499964 L10.3674994,9.77499964 C10.165,9.77499964 10,9.61000064 10,9.40750034 C10,9.20500094 10.165,9.04000094 10.3674994,9.04000094 L19.0000001,9.04000094 L19.0000001,8.35000043 L10.3674994,8.35000043 L10.3674994,8.35000043 C10.165,8.35000043 10,8.18500043 10,7.98250013 C10,7.78000073 10.165,7.61500073 10.3674994,7.61500073 L19.0000001,7.61500073 L19.0000001,6.92500023 L10.3674994,6.92500023 C10.165,6.92500023 10,6.76000023 10,6.55750083 C10,6.35499953 10.165,6.18999963 10.3674994,6.18999963 L10.3674994,6.18999963 Z M5.34999992,9.39999964 C5.34999992,9.61000064 5.18500042,9.77499964 4.97499992,9.77499964 L3.01749991,9.77499964 C2.80749991,9.77499964 2.64249991,9.61000064 2.64249991,9.39999964 C2.64249991,9.38500024 2.64249991,9.36250024 2.65000011,9.34749984 L2.65000011,9.34749984 L3.05500031,6.51249983 C3.08500001,6.32499983 3.24250031,6.18999963 3.42250011,6.18999963 L4.97499992,6.18999963 C5.18500042,6.18999963 5.34999992,6.35499963 5.34999992,6.56499963 L5.34999992,9.39999964 L5.34999992,9.39999964 Z M9.31749924,5.50000002 L7.19499973,4.06000042 L10,2.45499991 L12.8125001,4.05249972 L10.6825008,5.50000002 L9.31749924,5.50000002 L9.31749924,5.50000002 Z"/>
      <path d="M14.2075006 16.0224992C14.2075006 14.9649984 13.3525011 14.1099988 12.2950002 14.1099988 11.2374992 14.1099988 10.3825007 14.9649983 10.3825007 16.0224992 10.3825007 17.0800001 11.2375002 17.9349996 12.2950002 17.9349996 13.3525001 17.9349996 14.2075006 17.08 14.2075006 16.0224992L14.2075006 16.0224992zM9.69999984 16.0224992C9.69999984 14.9649984 8.84500034 14.1099988 7.78750043 14.1099988 6.73000053 14.1099988 5.87500002 14.9649983 5.87500002 16.0224992 5.87500002 17.0800001 6.72999953 17.9349996 7.78750043 17.9349996 8.84500134 17.9349996 9.69999984 17.08 9.69999984 16.0224992L9.69999984 16.0224992z"/>
      <polygon points="1 1 1 1.375 19 1.375 19 1"/>
      <polygon points="19 19 19 18.288 1 18.288 1 19"/>
      <polygon points="19 14.313 19 14.2 14.875 14.2 14.875 16.862 19 16.862"/>
    </g>
  </g>
</svg>
