<svg xmlns="http://www.w3.org/2000/svg" width="24" height="24" viewBox="0 0 24 24">
  <g fill="none" fill-rule="evenodd">
    <path fill="#2D327D" d="M22.5,0 L1.5,0 C0.675000003,0 0,0.675000003 0,1.5 L0,22.5 C0,23.3250009 0.675000003,24 1.5,24 L22.5,24 C23.3250009,24 24,23.3250009 24,22.5 L24,1.5 C24,0.675000003 23.3250009,0 22.5,0 Z"/>
    <g fill="#FFF" transform="translate(3 2)">
      <path fill-rule="nonzero" d="M7.41749953,2.18500041 C7.35000043,2.11750031 7.31250003,2.03500031 7.31250003,1.93750001 C7.31250003,1.74250011 7.47000033,1.59250021 7.65750033,1.59250021 C7.74750053,1.59250021 7.83749973,1.63000011 7.90500073,1.69750021 L11.7825003,5.57499982 L14.8725015,5.57499982 C15.4275018,5.57499982 15.915001,5.93500042 16.0725023,6.46749973 L17.9625017,12.6699992 C17.977503,12.7299996 17.9850008,12.7824994 17.9850008,12.8424998 L17.9850008,15.5499993 C17.9850008,15.7599984 17.8199999,15.9249993 17.6100008,15.9249993 L0,15.9249993 L0,11.5 L3.63749982,11.5 C3.84750032,11.5 4.01249982,11.335 4.01249982,11.125 L4.01249982,6.62500003 C4.01249982,6.41500003 3.84750032,6.25000003 3.63749982,6.25000003 L0,6.25000003 L0,5.57499982 L10.8075008,5.57499982 L7.41749953,2.18500041 L7.41749953,2.18500041 Z M14.2499982,12.6250001 C14.2499982,12.8350001 14.415001,13.0000001 14.6250001,13.0000001 L16.8450013,13.0000001 C17.0550004,13.0000001 17.2200013,12.8350001 17.2200013,12.6250001 C17.2200013,12.5874997 17.2124997,12.5500003 17.205,12.5124999 L15.3899995,6.57250023 L15.3899995,6.57250023 C15.3149987,6.33250043 15.0975,6.17500023 14.8499986,6.17500023 L14.8124982,6.17500023 C14.5049974,6.17500023 14.2499982,6.42999943 14.2499982,6.73750023 L14.2499982,12.6250001 L14.2499982,12.6250001 Z M12.4349995,12.5124999 C12.4349995,12.8200007 12.6899997,13.0749999 12.9975005,13.0749999 C13.3050004,13.0749999 13.5599995,12.8200007 13.5599995,12.5124999 L13.5599995,6.73750023 C13.5599995,6.42999943 13.3050003,6.17500023 12.9974995,6.17500023 C12.6899987,6.17500023 12.4349995,6.42999943 12.4349995,6.73750023 L12.4349995,12.5124999 L12.4349995,12.5124999 Z M9.93750004,6.62500003 C9.93750004,6.41500003 9.77250004,6.25000003 9.56250004,6.25000003 L5.06250002,6.25000003 C4.85250002,6.25000003 4.68750002,6.41500003 4.68750002,6.62500003 L4.68750002,11.125 C4.68750002,11.335 4.85250002,11.5 5.06250002,11.5 L9.56250004,11.5 C9.77250004,11.5 9.93750004,11.335 9.93750004,11.125 L9.93750004,6.62500003 L9.93750004,6.62500003 Z M10.6125002,6.73750023 L10.6125002,12.5124999 C10.6125002,12.8200007 10.8674994,13.0749999 11.1750002,13.0749999 C11.4825001,13.0749999 11.7375002,12.8200007 11.7375002,12.5124999 L11.7375002,6.73750023 C11.7375002,6.42999943 11.4825001,6.17500023 11.1750002,6.17500023 C10.8674994,6.17500023 10.6125002,6.42999943 10.6125002,6.73750023 L10.6125002,6.73750023 Z"/>
      <path d="M9.35250004 16.6749993L13.1250001 16.6749993C12.8174993 17.4474984 12.0674993 17.9500008 11.2350006 17.9500008 10.4099998 17.9500008 9.65999984 17.4474984 9.35250004 16.6749993L9.35250004 16.6749993zM4.85250002 16.6749993L4.85250002 16.6749993 8.62500004 16.6749993C8.31749923 17.4474984 7.56749923 17.9500008 6.73500063 17.9500008 5.90999982 17.9500008 5.15999982 17.4474984 4.85250002 16.6749993L4.85250002 16.6749993z"/>
      <polygon points="18 18.325 0 18.325 0 19 18 19"/>
      <polygon points="18 1 0 1 0 1.375 18 1.375"/>
    </g>
  </g>
</svg>
