<svg xmlns="http://www.w3.org/2000/svg" width="24" height="24" viewBox="0 0 24 24">
  <g fill="none" fill-rule="evenodd">
    <path fill="#2D327D" d="M22.5,0 L1.5,0 C0.675000003,0 0,0.675000003 0,1.5 L0,22.5 C0,23.3250009 0.675000003,24 1.5,24 L22.5,24 C23.3250009,24 24,23.3250009 24,22.5 L24,1.5 C24,0.675000003 23.3250009,0 22.5,0 Z"/>
    <g fill="#FFF" transform="translate(3 2)">
      <path fill-rule="nonzero" d="M10.5825005,2.18500041 C10.6499996,2.11750031 10.6875,2.03500031 10.6875,1.93750001 C10.6875,1.74250011 10.5299997,1.59250021 10.3424997,1.59250021 C10.2524995,1.59250021 10.1625003,1.63000011 10.0949993,1.69750021 L6.21000003,5.57499982 L3.12000041,5.57499982 C2.56500061,5.57499982 2.07750041,5.93500042 1.92000061,6.46749973 L0.0300007001,12.6699992 C0.0150008,12.7299996 0.0075004,12.7824994 0.0075004,12.8424998 L0.0075004,15.5499993 C0.0075004,15.7599984 0.172500101,15.9249993 0.382500402,15.9249993 L18.0075004,15.9249993 L18.0075004,11.5 L14.3700016,11.5 C14.1600025,11.5 13.9950016,11.335 13.9950016,11.125 L13.9950016,6.62500003 C13.9950016,6.41500003 14.1600025,6.25000003 14.3700016,6.25000003 L18.0000001,6.25000003 L18.0000001,5.57499982 L7.19249923,5.57499982 L10.5825005,2.18500041 L10.5825005,2.18500041 Z M3.75000002,12.6250001 C3.75000002,12.8350001 3.58500001,13.0000001 3.37500001,13.0000001 L1.1624999,13.0000001 C0.952499904,13.0000001 0.787499903,12.8350001 0.787499903,12.6250001 C0.787499903,12.5874997 0.794999803,12.5500003 0.802499803,12.5124999 L2.61749941,6.57250023 L2.61749941,6.57250023 C2.69249971,6.33250043 2.90999991,6.17500023 3.15749941,6.17500023 L3.19499931,6.17500023 C3.50249921,6.17500023 3.75749932,6.42999943 3.75749932,6.73750023 L3.75000002,12.6250001 L3.75000002,12.6250001 Z M5.57250022,12.5124999 C5.57250022,12.8200007 5.31750102,13.0749999 5.01000022,13.0749999 C4.70249982,13.0749999 4.44750022,12.8200007 4.44750022,12.5124999 L4.44750022,6.73750023 C4.44750022,6.42999943 4.70249982,6.17500023 5.01000022,6.17500023 C5.31750102,6.17500023 5.57250022,6.42999943 5.57250022,6.73750023 L5.57250022,12.5124999 L5.57250022,12.5124999 Z M8.06250003,6.62500003 C8.06250003,6.41500003 8.22750003,6.25000003 8.43750004,6.25000003 L12.9375001,6.25000003 C13.1475011,6.25000003 13.3125001,6.41500003 13.3125001,6.62500003 L13.3125001,11.125 C13.3125001,11.335 13.1475011,11.5 12.9375001,11.5 L8.43750004,11.5 C8.22750003,11.5 8.06250003,11.335 8.06250003,11.125 L8.06250003,6.62500003 L8.06250003,6.62500003 Z M7.38749983,6.73750023 L7.38749983,12.5124999 C7.38749983,12.8200007 7.13250063,13.0749999 6.82499983,13.0749999 C6.51749993,13.0749999 6.26249983,12.8200007 6.26249983,12.5124999 L6.26249983,6.73750023 C6.26249983,6.42999943 6.51749993,6.17500023 6.82499983,6.17500023 C7.13999943,6.17500023 7.38749983,6.42999943 7.38749983,6.73750023 L7.38749983,6.73750023 Z"/>
      <path d="M8.65499974 16.6749993L4.87500002 16.6749993C5.18250082 17.4474984 5.93250082 17.9500008 6.76499943 17.9500008 7.59749983 17.9500008 8.34000023 17.4474984 8.65499974 16.6749993L8.65499974 16.6749993zM13.1549989 16.6749993L13.1549989 16.6749993 9.37500004 16.6749993C9.68250084 17.4474984 10.4325008 17.9500008 11.2649994 17.9500008 12.0974999 17.9500008 12.8400003 17.4474984 13.1549989 16.6749993L13.1549989 16.6749993z"/>
      <polygon points="0 18.325 18 18.325 18 19 0 19"/>
      <polygon points="0 1 18 1 18 1.338 0 1.338"/>
    </g>
  </g>
</svg>
