<svg xmlns="http://www.w3.org/2000/svg" width="24" height="24" viewBox="0 0 24 24">
  <g fill="none" fill-rule="evenodd">
    <path fill="#2D327D" d="M22.5,0 L1.5,0 C0.675000003,0 0,0.675000003 0,1.5 L0,22.5 C0,23.3250009 0.675000003,24 1.5,24 L22.5,24 C23.3250009,24 24,23.3250009 24,22.5 L24,1.5 C24,0.675000003 23.3250009,0 22.5,0 Z"/>
    <g fill="#FFF" fill-rule="nonzero" transform="translate(3 7)">
      <path d="M14.6250001,1.25000001 L18,1.25000001 L18,0.500000002 L2.92500021,0.500000002 L2.92500021,0.500000002 C2.31750011,0.500000002 1.77749971,0.912499904 1.61999991,1.49750041 L0.0449999002,7.37000083 C0.0149999001,7.48250013 0,7.60250093 0,7.72249983 L0,11.5249996 C0,11.8549995 0.270000001,12.1250002 0.599999902,12.1250002 L7.57499983,12.1250002 C7.90499973,12.1250002 8.17500023,11.8549995 8.17500023,11.5249996 L8.17500023,11.5174999 L8.17500023,11.5174999 C8.17500023,11.4950008 8.17500023,11.4724998 8.17500023,11.4500007 C8.17500023,9.54500014 9.72000034,8 11.625,8 C13.5299998,8 15.0750009,9.54500014 15.0750009,11.4500008 C15.0750009,11.4724999 15.0750009,11.4950009 15.0750009,11.5175 L15.0750009,11.5175 L15.0750009,11.5249997 C15.0750009,11.8549996 15.3450014,12.1250002 15.6749994,12.1250002 L18,12.1250002 L18,6.5 L14.6250001,6.5 C14.415001,6.5 14.2500001,6.33500003 14.2500001,6.12500003 L14.2500001,1.62500001 C14.2500001,1.41500001 14.415001,1.25000001 14.6250001,1.25000001 L14.6250001,1.25000001 Z M3.56250001,7.62500003 C3.56250001,7.83500003 3.39750001,8.00000003 3.18750001,8.00000003 L1.1399999,8.00000003 C0.929999604,8.00000003 0.764999903,7.83500003 0.764999903,7.62500003 C0.764999903,7.59500033 0.772499603,7.55750083 0.779999503,7.52750023 L2.36249921,1.61749941 C2.42999931,1.35499961 2.66999911,1.1750002 2.93999911,1.1750002 L2.95499901,1.1750002 C3.28499891,1.1750002 3.55499891,1.44500071 3.55499891,1.77499961 L3.56250001,7.62500003 L3.56250001,7.62500003 Z M5.51249982,7.47500043 C5.51249982,7.80499943 5.24249932,8.07499983 4.91249992,8.07499983 C4.58250052,8.07499983 4.31250002,7.80499943 4.31250002,7.47500043 L4.31250002,1.77499961 C4.31250002,1.44500061 4.58250052,1.1750002 4.91249992,1.1750002 C5.24249932,1.1750002 5.51249982,1.44500071 5.51249982,1.77499961 L5.51249982,7.47500043 L5.51249982,7.47500043 Z M7.46249963,7.47500043 C7.46249963,7.80499943 7.19249913,8.07499983 6.86250023,8.07499983 C6.53250033,8.07499983 6.26249983,7.80499933 6.26249983,7.47500043 L6.26249983,1.77499961 C6.26249983,1.44500061 6.53250033,1.1750002 6.86250023,1.1750002 C7.19249923,1.1750002 7.46249963,1.44500071 7.46249963,1.77499961 L7.46249963,7.47500043 L7.46249963,7.47500043 Z M13.5000001,6.12500003 C13.5000001,6.33500003 13.3349992,6.50000003 13.1250001,6.50000003 L8.58749964,6.50000003 C8.37749963,6.50000003 8.21249963,6.33500003 8.21249963,6.12500003 L8.21249963,1.62500001 C8.21249963,1.41500001 8.37749963,1.25000001 8.58749964,1.25000001 L13.1250001,1.25000001 C13.3349992,1.25000001 13.5000001,1.41500001 13.5000001,1.62500001 L13.5000001,6.12500003 L13.5000001,6.12500003 Z"/>
      <path d="M11.6475,8.84749984 C10.1999998,8.84749984 9.02250004,10.0249996 9.02250004,11.4724998 C9.02250004,12.9199982 10.1999998,14.0974999 11.6475,14.0974999 C13.0950003,14.0974999 14.2724991,12.9199982 14.2724991,11.4724998 C14.2724991,10.0249996 13.0950013,8.84749984 11.6475,8.84749984 L11.6475,8.84749984 Z M11.6475,12.9125004 C10.8225002,12.9125004 10.1475,12.2374994 10.1475,11.4125004 C10.1475,10.5874996 10.8225002,9.91250044 11.6475,9.91250044 C12.4724999,9.91250044 13.1475,10.5874996 13.1475,11.4125004 C13.1475,12.2450009 12.4724999,12.9125004 11.6475,12.9125004 L11.6475,12.9125004 Z"/>
    </g>
  </g>
</svg>
