<svg xmlns="http://www.w3.org/2000/svg" width="24" height="24" viewBox="0 0 24 24">
  <g fill="none" fill-rule="evenodd">
    <path fill="#2D327D" d="M22.5,0 L1.5,0 C0.675000003,0 0,0.675000003 0,1.5 L0,22.5 C0,23.3250009 0.675000003,24 1.5,24 L22.5,24 C23.3250009,24 24,23.3250009 24,22.5 L24,1.5 C24,0.675000003 23.3250009,0 22.5,0 Z"/>
    <g fill="#FFF" fill-rule="nonzero" transform="translate(3 7)">
      <path d="M3.37500001,1.25000001 L0,1.25000001 L0,0.500000002 L15.0750009,0.500000002 L15.0750009,0.500000002 C15.682501,0.500000002 16.2225,0.912499904 16.3799993,1.49750041 L17.9550001,7.37000083 C17.9849988,7.48250013 18,7.60250093 18,7.72249983 L18,11.5249996 C18,11.8549995 17.7299996,12.1250002 17.3999997,12.1250002 L10.4250002,12.1250002 C10.0950003,12.1250002 9.82499984,11.8549995 9.82499984,11.5249996 C9.82499984,11.5174999 9.82499984,11.5174999 9.82499984,11.5174999 L9.82499984,11.5174999 C9.82499984,11.4950008 9.82499984,11.4724998 9.82499984,11.4500007 C9.82499984,9.54500014 8.27999973,8 6.37500003,8 C4.47000032,8 2.92500021,9.54500014 2.92500021,11.4500008 C2.92500021,11.4724999 2.92500021,11.4950009 2.92500021,11.5175 L2.92500021,11.5175 L2.92500021,11.5249997 C2.92500021,11.8549996 2.65500021,12.1250002 2.32499981,12.1250002 L0,12.1250002 L0,6.5 L3.37500001,6.5 C3.58500001,6.5 3.75000002,6.33500003 3.75000002,6.12500003 L3.75000002,1.62500001 C3.75000002,1.41500001 3.58500001,1.25000001 3.37500001,1.25000001 L3.37500001,1.25000001 Z M14.4375001,7.62500003 C14.4375001,7.83500003 14.602501,8.00000003 14.8125001,8.00000003 L16.8599988,8.00000003 C17.0699979,8.00000003 17.2349988,7.83500003 17.2349988,7.62500003 C17.2349988,7.59500033 17.2274991,7.55750083 17.2199975,7.52750023 L15.637497,1.61749941 C15.5699978,1.35499961 15.3299981,1.1750002 15.0599976,1.1750002 L15.0449963,1.1750002 C14.7149964,1.1750002 14.4449959,1.44500071 14.4449959,1.77499961 L14.4375001,7.62500003 L14.4375001,7.62500003 Z M12.4875003,7.47500043 C12.4875003,7.80499943 12.7575008,8.07499983 13.0874997,8.07499983 C13.4174996,8.07499983 13.6875001,7.80499933 13.6875001,7.47500043 L13.6875001,1.77499961 C13.6875001,1.44500061 13.4174996,1.1750002 13.0874997,1.1750002 C12.7575007,1.1750002 12.4875003,1.44500071 12.4875003,1.77499961 L12.4875003,7.47500043 L12.4875003,7.47500043 Z M10.5375004,7.47500043 C10.5375004,7.80499943 10.8075009,8.07499983 11.1374998,8.07499983 C11.4674997,8.07499983 11.7375002,7.80499933 11.7375002,7.47500043 L11.7375002,1.77499961 C11.7375002,1.44500061 11.4674997,1.1750002 11.1374998,1.1750002 C10.8075008,1.1750002 10.5375004,1.44500071 10.5375004,1.77499961 L10.5375004,7.47500043 L10.5375004,7.47500043 Z M4.50000002,6.12500003 C4.50000002,6.33500003 4.66500002,6.50000003 4.87500002,6.50000003 L9.41250044,6.50000003 C9.62250044,6.50000003 9.78750044,6.33500003 9.78750044,6.12500003 L9.78750044,1.62500001 C9.78750044,1.41500001 9.62250044,1.25000001 9.41250044,1.25000001 L4.87500002,1.25000001 C4.66500002,1.25000001 4.50000002,1.41500001 4.50000002,1.62500001 L4.50000002,6.12500003 L4.50000002,6.12500003 Z"/>
      <path d="M6.35250003,8.84749984 C7.80000023,8.84749984 8.97750004,10.0249996 8.97750004,11.4724998 C8.97750004,12.9199982 7.80000023,14.0974999 6.35250003,14.0974999 C4.90499982,14.0974999 3.72750002,12.9199982 3.72750002,11.4724998 C3.72750002,10.0249996 4.90499972,8.84749984 6.35250003,8.84749984 L6.35250003,8.84749984 Z M6.35250002,12.9125004 C7.17749983,12.9125004 7.85250002,12.2374994 7.85250002,11.4125004 C7.85250002,10.5874996 7.17749983,9.91250044 6.35250002,9.91250044 C5.52750022,9.91250044 4.85250002,10.5874996 4.85250002,11.4125004 C4.85250002,12.2450009 5.52000052,12.9125004 6.35250002,12.9125004 L6.35250002,12.9125004 Z"/>
    </g>
  </g>
</svg>
