<svg xmlns="http://www.w3.org/2000/svg" width="24" height="24" viewBox="0 0 24 24">
  <g fill="none" fill-rule="evenodd">
    <path fill="#2D327D" d="M22.5,0 L1.5,0 C0.675000003,0 0,0.675000003 0,1.5 L0,22.5 C0,23.3250009 0.675000003,24 1.5,24 L22.5,24 C23.3250009,24 24,23.3250009 24,22.5 L24,1.5 C24,0.675000003 23.3250009,0 22.5,0 Z"/>
    <g fill="#FFF" transform="translate(2 7)">
      <path fill-rule="nonzero" d="M18.2500001,1.25000001 L19.0000021,1.25000001 L19.0000021,0.500000002 L13.3374997,0.500000002 C13.1274997,0.500000002 12.9624997,0.665000003 12.9624997,0.875000004 C12.9624997,1.085 13.1274997,1.25000001 13.3374997,1.25000001 L13.8625003,1.25000001 L13.4875003,3.5 L8.87500004,3.5 L8.87500004,5.75000002 L10.1875,5.75000002 L9.81250004,8 L0.775000103,8 L3.02500011,12.2675 L4.62999962,11.9300003 C4.91500002,11.8924999 5.20749952,11.8700008 5.50000002,11.8624992 C5.79249952,11.8700008 6.07749943,11.8924999 6.37000083,11.9300003 L8.89000134,12.4624997 C9.25750074,12.5375005 9.62500104,12.5750008 10.000001,12.5750008 C10.375001,12.5750008 10.7425004,12.5375004 11.1100016,12.4624997 L13.6300022,11.9300003 C13.9225017,11.8924999 14.2075025,11.8700008 14.5000021,11.8624992 C14.7925016,11.8700008 15.0775034,11.8924999 15.3700029,11.9300003 L17.8900034,12.4624997 C18.2575037,12.5375005 18.6325037,12.5750008 19.0000021,12.5750008 L19.0000021,8 L18.2500021,8 C18.040003,8 17.8750021,7.83500003 17.8750021,7.62500003 L17.8750021,6.12500003 C17.8750021,5.92250062 18.040003,5.75000002 18.2500021,5.75000002 L19.0000021,5.75000002 L19.0000021,3.5 L18.2500021,3.5 C18.040003,3.5 17.8750021,3.32749941 17.8750021,3.12500001 L17.8750021,1.62500001 C17.8750001,1.41500001 18.040001,1.25000001 18.2500001,1.25000001 L18.2500001,1.25000001 Z M13.5249997,7.62500003 C13.5249997,7.82749943 13.3600007,8.00000003 13.1499997,8.00000003 L10.9375,8.00000003 C10.7275,8.00000003 10.5625,7.82749943 10.5625,7.62500003 C10.5625,7.60250003 10.5625,7.58749963 10.5700006,7.56499963 L10.817501,6.06499963 C10.8474998,5.88500022 11.0050011,5.75000002 11.1850004,5.75000002 L13.1499997,5.75000002 C13.3525,5.75000002 13.5249997,5.91500002 13.5249997,6.12500003 L13.5249997,7.62500003 L13.5249997,7.62500003 Z M17.2000009,7.62500003 C17.2000009,7.82749943 17.035,8.00000003 16.8250009,8.00000003 L14.5750009,8.00000003 C14.3650018,8.00000003 14.2000009,7.82749943 14.2000009,7.62500003 L14.2000009,6.12500003 C14.2000009,5.92250062 14.3650018,5.75000002 14.5750009,5.75000002 L16.8250009,5.75000002 C17.035,5.75000002 17.2000009,5.91500002 17.2000009,6.12500003 L17.2000009,7.62500003 L17.2000009,7.62500003 Z M17.2000009,3.12500001 C17.2000009,3.33500001 17.035,3.50000001 16.8250009,3.50000001 L14.6124994,3.50000001 C14.41,3.50000001 14.2374994,3.32749941 14.2374994,3.12500001 C14.2374994,3.10250001 14.2374994,3.08749961 14.245001,3.06499961 L14.4925005,1.56499961 C14.5224992,1.38500021 14.6800004,1.25000001 14.8599988,1.25000001 L16.8250009,1.25000001 C17.035,1.25000001 17.2000009,1.41500001 17.2000009,1.62500001 L17.2000009,3.12500001 L17.2000009,3.12500001 Z"/>
      <path d="M15.2500001,12.6349984 C15.0025006,12.6049996 14.7474996,12.5824986 14.5,12.5824986 C14.2525006,12.5899983 13.9975005,12.6049977 13.7500001,12.6349984 L11.2600002,13.1599999 C10.8474998,13.2500001 10.4274998,13.2875005 10,13.2875005 C9.57999994,13.2875005 9.15999984,13.2425004 8.73999984,13.16 L6.25000003,12.6349984 C6.00249963,12.6049996 5.74750042,12.5824986 5.5,12.5824986 C5.25249962,12.5899983 4.99750042,12.6049977 4.75000002,12.6349984 L2.26000021,13.1599999 C1.84750031,13.2500001 1.42750021,13.2875005 1,13.2875005 L1,14.0000001 C1.47250031,14.0000001 1.93750001,13.955 2.40249971,13.8575002 L4.86250022,13.3400003 C5.07250022,13.3175012 5.28250032,13.3025018 5.49249942,13.2950002 C5.70249992,13.3025018 5.91250002,13.3174993 6.12249953,13.3400003 L8.58249954,13.8575002 C9.04749874,13.955 9.51249894,14.0000001 9.98499874,14.0000001 C10.4574995,14.0000001 10.9299993,13.955 11.3874989,13.8575002 L13.847499,13.3400003 C14.057499,13.3175012 14.2675,13.3025018 14.4774991,13.2950002 C14.6874982,13.3025018 14.8974992,13.3174993 15.1074983,13.3400003 L17.5674974,13.8575002 C18.0324975,13.955 18.4974977,14.0000001 18.9699975,14.0000001 L18.9699975,13.2875005 C18.5499974,13.2875005 18.1224996,13.2425004 17.7099992,13.16 L15.2500001,12.6349984 L15.2500001,12.6349984 Z"/>
    </g>
  </g>
</svg>
