<svg xmlns="http://www.w3.org/2000/svg" width="24" height="24" viewBox="0 0 24 24">
  <g fill="none" fill-rule="evenodd">
    <path fill="#2D327D" d="M22.5,0 L1.5,0 C0.675000003,0 0,0.675000003 0,1.5 L0,22.5 C0,23.3250009 0.675000003,24 1.5,24 L22.5,24 C23.3250009,24 24,23.3250009 24,22.5 L24,1.5 C24,0.675000003 23.3250009,0 22.5,0 Z"/>
    <g fill="#FFF" transform="translate(3 7)">
      <path fill-rule="nonzero" d="M0.750000003,1.25000001 C0.960000304,1.25000001 1.125,1.41500001 1.125,1.62500001 L1.125,3.12500001 C1.125,3.33500001 0.960000304,3.5 0.750000003,3.5 L0,3.5 L0,5.75000002 L0.750000003,5.75000002 C0.960000304,5.75000002 1.125,5.91500002 1.125,6.12500003 L1.125,7.62500003 C1.125,7.83500003 0.960000304,8 0.750000003,8 L0,8 L0,12.5750009 C0.375000002,12.5750009 0.742500103,12.5375005 1.1100001,12.4624998 L3.62999962,11.9300004 C3.92249922,11.8924999 4.20749952,11.8700008 4.5,11.8624992 C4.79249952,11.8700008 5.07749942,11.8924999 5.37000082,11.9300003 L7.89000133,12.4624997 C8.25750073,12.5375005 8.62500104,12.5750009 9,12.5750009 C9.37500104,12.5750009 9.74250044,12.5375004 10.1100016,12.4624997 L12.6300022,11.9300003 C12.915002,11.8924999 13.2075025,11.8700008 13.5,11.8624992 C13.7925016,11.8700008 14.0775034,11.8924999 14.3700029,11.9300003 L15.9750024,12.2675 L18.2250024,8 L9.18750004,8 L8.81250004,5.75000002 L10.125,5.75000002 L10.125,3.5 L5.51249982,3.5 L5.13749982,1.25000001 L5.66250042,1.25000001 C5.87250042,1.25000001 6.03750043,1.085 6.03750043,0.875000004 C6.03750043,0.665000003 5.87250042,0.500000002 5.66250042,0.500000002 L0,0.500000002 L0,1.25000001 L0.750000003,1.25000001 L0.750000003,1.25000001 Z M5.47500042,7.62500003 L5.47500042,6.12500003 C5.47500042,5.92250062 5.63999942,5.75000002 5.85000042,5.75000002 L7.80750093,5.75000002 C7.98750033,5.75000002 8.14500053,5.88500022 8.17500033,6.06499963 L8.42250074,7.56499963 C8.42250074,7.58749963 8.43000044,7.60250003 8.43000044,7.62500003 C8.43000044,7.82749943 8.26500143,8.00000003 8.05500043,8.00000003 L5.85000042,8.00000003 C5.63999942,8.00000003 5.47500042,7.82749943 5.47500042,7.62500003 L5.47500042,7.62500003 Z M1.80000021,7.62500003 L1.80000021,6.12500003 C1.80000021,5.92250062 1.96499971,5.75000002 2.17500021,5.75000002 L4.42500022,5.75000002 C4.63500022,5.75000002 4.80000021,5.91500002 4.80000021,6.12500003 L4.80000021,7.62500003 C4.80000021,7.82749943 4.63500022,8.00000003 4.42500022,8.00000003 L2.17500021,8.00000003 C1.96499971,8.00000003 1.80000021,7.82749943 1.80000021,7.62500003 L1.80000021,7.62500003 Z M1.80000021,3.12500001 L1.80000021,1.62500001 C1.80000021,1.41500001 1.96499971,1.25000001 2.17500021,1.25000001 L4.13250072,1.25000001 C4.32000072,1.25000001 4.47000032,1.38500021 4.50000012,1.56499961 L4.74750052,3.06499961 C4.75500072,3.08749961 4.75500072,3.11000061 4.75500072,3.12500001 C4.75500072,3.33500001 4.59000122,3.50000001 4.38000072,3.50000001 L2.17500021,3.50000001 C1.96499971,3.50000001 1.80000021,3.33500001 1.80000021,3.12500001 L1.80000021,3.12500001 Z"/>
      <path d="M3.75000002,12.6349984 C3.99750042,12.6049996 4.25249962,12.5824986 4.50000002,12.5824986 C4.74750042,12.5899983 5.00249962,12.6049977 5.25000002,12.6349984 L7.73999983,13.1599999 C8.15250023,13.2500001 8.57250024,13.2875005 9.00000004,13.2875005 C9.42000014,13.2875005 9.84000024,13.2425004 10.2600002,13.16 L12.7500001,12.6349984 C12.9975005,12.6049996 13.2525006,12.5824986 13.5000001,12.5824986 C13.7474996,12.5899983 14.0025006,12.6049977 14.2500001,12.6349984 L16.7400018,13.1599999 C17.1525003,13.2500001 17.5725022,13.2875005 18.0000001,13.2875005 L18.0000001,14.0000001 C17.5275003,14.0000001 17.0625001,13.955 16.5974999,13.8575002 L14.1375008,13.3400003 C13.9275017,13.3175012 13.7174988,13.3025018 13.5074997,13.2950002 C13.2975006,13.3025018 13.0874996,13.3174993 12.8775005,13.3400003 L10.4175004,13.8575002 C9.95250134,13.955 9.48750114,14.0000001 9.01500134,14.0000001 C8.54250054,14.0000001 8.07000073,13.955 7.61250113,13.8575002 L5.15250112,13.3400003 C4.94250062,13.3175012 4.73250052,13.3025018 4.52250152,13.2950002 C4.31250102,13.3025018 4.10250092,13.3174993 3.89250192,13.3400003 L1.43250191,13.8575002 C0.967501904,13.955 0.502501502,14.0000001 0.0300019,14.0000001 L0.0300019,13.2875005 C0.450001702,13.2875005 0.877502004,13.2425004 1.29000191,13.16 L3.75000002,12.6349984 L3.75000002,12.6349984 Z"/>
    </g>
  </g>
</svg>
