<svg xmlns="http://www.w3.org/2000/svg" width="24" height="24" viewBox="0 0 24 24">
  <g fill="none" fill-rule="evenodd">
    <path fill="#2D327D" d="M22.5,0 L1.5,0 C0.675000003,0 0,0.675000003 0,1.5 L0,22.5 C0,23.3250009 0.675000003,24 1.5,24 L22.5,24 C23.3250009,24 24,23.3250009 24,22.5 L24,1.5 C24,0.675000003 23.3250009,0 22.5,0 Z"/>
    <g fill="#FFF" transform="translate(2 6)">
      <path fill-rule="nonzero" d="M6.36250023,8.01749993 C6.23500063,8.01749993 6.12999923,7.91250043 6.12999923,7.78499893 L6.12999923,6.13499933 C6.12999923,5.94749932 6.20500003,5.76749992 6.33249953,5.63999852 L6.33249953,5.63999852 L7.74249933,4.22999872 C7.87749953,4.09499852 8.05000013,4.02749842 8.23750013,4.02749842 L12.2875004,4.02749842 C12.4750004,4.02749842 12.6549998,4.10249922 12.7825003,4.22999872 L12.7825003,4.22999872 L14.4174996,5.86499892 L17.1625004,6.08999833 C17.2825012,6.09749893 17.3799992,6.20249853 17.3799992,6.32249933 L17.3799992,7.78499893 C17.3799992,7.91249853 17.2749997,8.01749993 17.1474991,8.01749993 L17.1474991,8.01749993 L16.8924999,8.01749993 L16.8924999,7.74749943 C16.8924999,6.96749973 16.2625007,6.33749863 15.4899978,6.33749863 C14.709999,6.33749863 14.079998,6.96749873 14.079998,7.74749943 L14.079998,8.01749993 L9.41499894,8.01749993 L9.41499894,7.74749943 C9.41499894,6.96749973 8.78499884,6.33749863 8.01249873,6.33749863 C7.23249903,6.33749863 6.60249893,6.96749873 6.60249893,7.74749943 L6.60249893,8.01749993 L6.36250023,8.01749993 L6.36250023,8.01749993 Z M10.5549994,4.70249942 L10.5549994,5.66250042 L10.5549994,5.66250042 C10.5549994,5.79000002 10.6599989,5.89500052 10.7875004,5.89500052 L13.5175,5.89500052 C13.5774995,5.89500052 13.6299992,5.84250072 13.6299992,5.78250032 C13.6299992,5.75250062 13.6149998,5.72249992 13.6000004,5.69999982 L12.4299994,4.52999972 L12.4299994,4.52999972 C12.3849993,4.48499872 12.3249999,4.46249962 12.2649994,4.46249962 L10.7875003,4.46249962 C10.6599998,4.46249962 10.5549994,4.56749922 10.5549994,4.70249942 L10.5549994,4.70249942 L10.5549994,4.70249942 Z M7.00000003,5.89500052 L9.87250044,5.89500052 C10,5.89500052 10.1050005,5.79000102 10.1050005,5.66250042 L10.1050005,4.70249942 C10.1050005,4.57499982 10.000001,4.46999932 9.87250044,4.46999932 L8.26000023,4.46999932 C8.19999983,4.46999932 8.13999943,4.49249932 8.09500023,4.53749852 L8.09500023,4.53749852 L6.92500013,5.69999982 C6.90250013,5.72249982 6.89500043,5.75249962 6.89500043,5.78250032 C6.88749983,5.84249972 6.93999963,5.89500052 7.00000003,5.89500052 L7.00000003,5.89500052 Z"/>
      <path d="M16.727501,13.290001 C16.2925015,13.1925012 15.8575002,13.1250001 15.4225007,13.0725022 L15.4225007,13.0725022 C15.0550023,13.0275002 14.687502,12.9975014 14.3199998,12.9975014 C13.4875003,12.9975014 12.6550008,13.1250019 11.8525009,13.3725014 C11.3200006,13.5375023 10.7650013,13.6200009 10.2025013,13.6200009 C10.1500015,13.6200009 10.0975018,13.6200009 10.0450001,13.6200009 C9.43000034,13.5975018 8.83000094,13.477501 8.25250063,13.2675 L8.25250063,13.2675 C7.30750093,12.9149991 6.31000143,12.7349988 5.30500082,12.7349988 C5.10250092,12.7349988 4.90750032,12.7425004 4.70500092,12.7574979 L4.70500092,12.7574979 C3.43750051,12.8249971 2.18500091,13.0874978 0.992500804,13.5224992 L0.992500804,7.51499853 L3.38500071,7.51499853 C3.59500121,7.51499853 3.76000072,7.34999853 3.76000072,7.13999853 C3.76000072,7.13249793 3.76000072,7.12499913 3.76000072,7.11749853 L3.67750072,5.69249832 L3.67750072,5.69249832 C3.66250132,5.49749772 3.50500061,5.33999832 3.30250071,5.33999832 L1,5.33999832 L1,3.76499842 L3.17500021,3.76499842 C3.38500021,3.76499842 3.55000021,3.59999841 3.55000021,3.38999841 C3.55000021,3.38249781 3.55000021,3.37499901 3.55000021,3.36749841 L3.46750021,1.97999861 L3.46750021,1.97999861 C3.45250031,1.78499801 3.29500011,1.62749861 3.09250021,1.62749861 L1,1.62749861 L1,0.750000003 L4.78749992,0.750000003 C4.95249992,0.750000003 5.08750012,0.885000204 5.08750012,1.0500002 L5.08750012,1.0875001 C5.08750012,1.29750011 4.92250012,1.47750001 4.71250012,1.50000001 L4.25500012,1.54500061 L5.46250012,8.38500033 L5.46250012,8.38500033 C5.52250002,8.74500094 5.83750012,9.00750074 6.19750023,9.00750074 L17.6275006,9.00750074 L18.8725014,5.93250092 L19.4350014,6.14250093 L16.727501,13.290001 L16.727501,13.290001 L16.727501,13.290001 Z"/>
      <path d="M1 14.0699998C2.19999981 13.6049996 3.46000001 13.3350011 4.74249942 13.2675L4.74249942 13.2675C4.92999942 13.2524987 5.11749942 13.2450009 5.30499942 13.2450009 6.25000003 13.2450009 7.17999943 13.4174996 8.06499963 13.7475014L8.06499963 13.7475014C8.69499974 13.9800015 9.35499964 14.1150017 10.0225001 14.1375027 10.0825005 14.1375027 10.1425009 14.1375027 10.2024995 14.1375027 10.8100005 14.1375027 11.4250003 14.0475006 12.0024998 13.8675022L12.0024998 13.8675022C12.7524998 13.6350021 13.5324995 13.522501 14.3125002 13.522501 14.6575014 13.522501 15.0025007 13.5450001 15.3475 13.5900002L15.3475 13.5900002C16.6074983 13.7325001 17.8374998 14.0775013 18.9925005 14.5950013L18.9925005 15.5475007 18.9925005 15.5475007C17.8149988 14.9625016 16.5474989 14.5950013 15.2425005 14.4449998 14.9349997 14.3999997 14.6274988 14.3850022 14.3125002 14.3850022 13.615 14.3850022 12.9250004 14.4900017 12.2575008 14.6925011L12.2575008 14.6925011C11.5900012 14.8950024 10.8999997 15.0000019 10.2025013 15.0000019 10.1350012 15.0000019 10.0675011 15.0000019 10 15.0000019L10 15.0000019C9.23500164 14.9775028 8.47750104 14.8275032 7.76500133 14.5575027L7.76500133 14.5575027C6.97750093 14.2650032 6.14500053 14.1150035 5.30500082 14.1150035 5.13250072 14.1150035 4.96750072 14.1225032 4.79500062 14.1300048L4.79500062 14.1300048C3.49000031 14.197504 2.20000081 14.4975032 1 15.0000037L1 14.0699998 1 14.0699998 1 14.0699998zM7.99750043 8.18999963C8.26750093 8.18999963 8.48500064 7.97249993 8.48500064 7.70249993 8.48500064 7.43249893 8.26750093 7.21500023 7.99750043 7.21500023 7.72749993 7.21500023 7.51000023 7.43249903 7.51000023 7.70249993 7.51000023 7.97249983 7.72750003 8.18999963 7.99750043 8.18999963L7.99750043 8.18999963zM7.99750043 6.63749983C8.59000014 6.63749983 9.06250004 7.11749933 9.06250004 7.70249943 9.06250004 8.28750043 8.58250054 8.76749994 7.99750043 8.76749994 7.41250033 8.76749994 6.93250083 8.28750043 6.93250083 7.70249943 6.93250083 7.11749943 7.41250043 6.63749983 7.99750043 6.63749983L7.99750043 6.63749983zM15.4749995 8.18999963C15.745001 8.18999963 15.9624997 7.97249993 15.9624997 7.70249993 15.9624997 7.43249893 15.7450009 7.21500023 15.4749995 7.21500023 15.2050001 7.21500023 14.9874994 7.43249903 14.9874994 7.70249993 14.9874994 7.97249983 15.205 8.18999963 15.4749995 8.18999963L15.4749995 8.18999963zM15.4750005 6.63749983C16.0599996 6.63749983 16.540001 7.11749933 16.540001 7.70249943 16.540001 8.28750043 16.0600015 8.76749994 15.4750005 8.76749994 14.8900014 8.76749994 14.41 8.28750043 14.41 7.70249943 14.41 7.11749943 14.8900014 6.63749983 15.4750005 6.63749983L15.4750005 6.63749983z"/>
    </g>
  </g>
</svg>
