<svg xmlns="http://www.w3.org/2000/svg" width="24" height="24" viewBox="0 0 24 24">
  <g fill="none" fill-rule="evenodd">
    <path fill="#2D327D" d="M22.5,0 L1.5,0 C0.675000003,0 0,0.675000003 0,1.5 L0,22.5 C0,23.3250009 0.675000003,24 1.5,24 L22.5,24 C23.3250009,24 24,23.3250009 24,22.5 L24,1.5 C24,0.675000003 23.3250009,0 22.5,0 Z"/>
    <g fill="#FFF" transform="translate(2 6)">
      <path fill-rule="nonzero" d="M13.6374999,8.01749993 C13.7649995,8.01749993 13.8700009,7.91250043 13.8700009,7.78499893 L13.8700009,6.13499933 C13.8700009,5.94749932 13.7950001,5.76749992 13.6675006,5.63999852 L13.6675006,5.63999852 L12.2575008,4.22999872 C12.1225006,4.09499852 11.9499999,4.02749842 11.7624999,4.02749842 L7.71249963,4.02749842 C7.52499963,4.02749842 7.34500023,4.10249922 7.21749973,4.22999872 L7.21749973,4.22999872 L5.58249952,5.86499892 L2.83749961,6.08999833 C2.71749971,6.09749893 2.61999941,6.20249853 2.61999941,6.32249933 L2.61999941,7.78499893 C2.61999941,7.91249853 2.72499941,8.01749993 2.85249901,8.01749993 L2.85249901,8.01749993 L3.10749911,8.01749993 L3.10749911,7.74749943 C3.10749911,6.96749973 3.73749922,6.33749863 4.50999932,6.33749863 C5.28999862,6.33749863 5.91999912,6.96749873 5.91999912,7.74749943 L5.91999912,8.01749993 L10.5849991,8.01749993 L10.5849991,7.74749943 C10.5849991,6.96749973 11.2149983,6.33749863 11.9874993,6.33749863 C12.7674982,6.33749863 13.3974992,6.96749873 13.3974992,7.74749943 L13.3974992,8.01749993 L13.6374999,8.01749993 L13.6374999,8.01749993 Z M9.44500064,4.70249942 L9.44500064,5.66250042 L9.44500064,5.66250042 C9.44500064,5.79000002 9.34000114,5.89500052 9.21249964,5.89500052 L6.48250013,5.89500052 C6.42250063,5.89500052 6.37000093,5.84250072 6.37000093,5.78250032 C6.37000093,5.75250062 6.38500033,5.72249992 6.39999973,5.69999982 L7.57000073,4.52999972 L7.57000073,4.52999972 C7.61500083,4.48499872 7.67500023,4.46249962 7.73500073,4.46249962 L9.21249974,4.46249962 C9.34000024,4.46249962 9.44500064,4.56749922 9.44500064,4.70249942 L9.44500064,4.70249942 L9.44500064,4.70249942 Z M13.0000001,5.89500052 L10.1274996,5.89500052 C10,5.89500052 9.89499954,5.79000102 9.89499954,5.66250042 L9.89499954,4.70249942 C9.89499954,4.57499982 9.99999904,4.46999932 10.1274996,4.46999932 L11.7399998,4.46999932 C11.8000002,4.46999932 11.8600006,4.49249932 11.9049998,4.53749852 L11.9049998,4.53749852 L13.075,5.69999982 C13.0975,5.72249982 13.1049997,5.75249962 13.1049997,5.78250032 C13.1125003,5.84249972 13.0600005,5.89500052 13.0000001,5.89500052 L13.0000001,5.89500052 Z"/>
      <path d="M3.27250001,13.290001 C3.69999982,13.1925012 4.14249992,13.1250001 4.57750032,13.0725022 L4.57750032,13.0725022 C4.94500062,13.0275002 5.31250002,12.9975014 5.68000072,12.9975014 C6.51250073,12.9975014 7.34500023,13.1250019 8.14750093,13.3725014 C8.68000214,13.5375023 9.23500154,13.6200009 9.79750154,13.6200009 C9.85000134,13.6200009 9.90250104,13.6200009 9.95500184,13.6200009 C10.5700016,13.5975018 11.170002,13.477501 11.7475013,13.2675 L11.7475013,13.2675 C12.692502,12.9149991 13.6900006,12.7349988 14.6949997,12.7349988 C14.897501,12.7349988 15.0924988,12.7425004 15.2950001,12.7574979 L15.2950001,12.7574979 C16.5625,12.8249971 17.8150006,13.0874978 19.0074997,13.5224992 L19.0074997,7.51499853 L16.6150017,7.51499853 C16.4050026,7.51499853 16.2400017,7.34999853 16.2400017,7.13999853 C16.2400017,7.13249793 16.2400017,7.12499913 16.2400017,7.11749853 L16.3225022,5.69249832 L16.3225022,5.69249832 C16.3375016,5.49749772 16.4950009,5.33999832 16.6975022,5.33999832 L19.0000001,5.33999832 L19.0000001,3.76499842 L16.8250009,3.76499842 C16.6150018,3.76499842 16.4500009,3.59999841 16.4500009,3.38999841 C16.4500009,3.38249781 16.4500009,3.37499901 16.4500009,3.36749841 L16.5325014,1.97999861 L16.5325014,1.97999861 C16.5475008,1.78499801 16.7050001,1.62749861 16.9075014,1.62749861 L19.0000001,1.62749861 L19.0000001,0.750000003 L15.2124997,0.750000003 C15.0474988,0.750000003 14.9125005,0.885000204 14.9125005,1.0500002 L14.9125005,1.0875001 C14.9125005,1.29750011 15.0775014,1.47750001 15.2875005,1.50000001 L15.745001,1.54500061 L14.5375005,8.38500033 L14.5375005,8.38500033 C14.477501,8.74500094 14.1625005,9.00750074 13.8024999,9.00750074 L2.37250041,9.00750074 L1.1275003,5.93250092 L0.565000302,6.14250093 L3.27250001,13.290001 L3.27250001,13.290001 L3.27250001,13.290001 Z"/>
      <path d="M19.0000001 14.0699998C17.7999993 13.6049996 16.540001 13.3350011 15.2574998 13.2675L15.2574998 13.2675C15.0699998 13.2524987 14.8824998 13.2450009 14.6949998 13.2450009 13.7500001 13.2450009 12.8200008 13.4174996 11.9350004 13.7475014L11.9350004 13.7475014C11.3050003 13.9800015 10.6450004 14.1150017 9.97749994 14.1375027 9.91749954 14.1375027 9.85749914 14.1375027 9.79750054 14.1375027 9.18999954 14.1375027 8.57499974 14.0475006 7.99750033 13.8675022L7.99750033 13.8675022C7.24750033 13.6350021 6.46750063 13.522501 5.68749992 13.522501 5.34249962 13.522501 4.99750032 13.5450001 4.65249962 13.5900002L4.65249962 13.5900002C3.39249941 13.7325001 2.16249981 14.0775013 1.0074999 14.5950013L1.0074999 15.5475007 1.0074999 15.5475007C2.18499941 14.9625016 3.45249981 14.5950013 4.75750062 14.4449998 5.06500102 14.3999997 5.37250042 14.3850022 5.68750002 14.3850022 6.38500023 14.3850022 7.07499983 14.4900017 7.74249943 14.6925011L7.74249943 14.6925011C8.40999894 14.8950024 9.10000044 15.0000019 9.79749884 15.0000019 9.86499894 15.0000019 9.93249904 15.0000019 9.99999914 15.0000019L9.99999914 15.0000019C10.7649985 14.9775028 11.5224991 14.8275032 12.2349989 14.5575027L12.2349989 14.5575027C13.0224993 14.2650032 13.8549997 14.1150035 14.694998 14.1150035 14.8674967 14.1150035 15.0324976 14.1225032 15.2049982 14.1300048L15.2049982 14.1300048C16.5099966 14.197504 17.7999975 14.4975032 19.0000001 15.0000037L19.0000001 14.0699998 19.0000001 14.0699998 19.0000001 14.0699998zM4.52499987 8.18999963C4.25500012 8.18999963 4.03749992 7.97249993 4.03749992 7.70249993 4.03749992 7.43249893 4.25500012 7.21500023 4.52499987 7.21500023 4.79500062 7.21500023 5.01249982 7.43249903 5.01249982 7.70249993 5.01249982 7.97249983 4.79500062 8.18999963 4.52499987 8.18999963L4.52499987 8.18999963zM4.52500012 6.63749983C3.93999962 6.63749983 3.46000001 7.11749933 3.46000001 7.70249943 3.46000001 8.28750043 3.94000052 8.76749994 4.52500012 8.76749994 5.10999972 8.76749994 5.58999972 8.28750043 5.58999972 7.70249943 5.58999972 7.11749943 5.11000012 6.63749983 4.52500012 6.63749983L4.52500012 6.63749983zM12.0024996 8.18999963C11.7324991 8.18999963 11.5149994 7.97249993 11.5149994 7.70249993 11.5149994 7.43249893 11.7324991 7.21500023 12.0024996 7.21500023 12.2725002 7.21500023 12.4899999 7.43249903 12.4899999 7.70249993 12.4899999 7.97249983 12.2725001 8.18999963 12.0024996 8.18999963L12.0024996 8.18999963zM12.0024997 6.63749983C11.4099999 6.63749983 10.9375 7.11749933 10.9375 7.70249943 10.9375 8.28750043 11.4174995 8.76749994 12.0024997 8.76749994 12.5874998 8.76749994 13.0674993 8.28750043 13.0674993 7.70249943 13.0674993 7.11749943 12.5874997 6.63749983 12.0024997 6.63749983L12.0024997 6.63749983z"/>
    </g>
  </g>
</svg>
