<svg xmlns="http://www.w3.org/2000/svg" width="24" height="24" viewBox="0 0 24 24">
  <g fill="none" fill-rule="evenodd">
    <path fill="#2D327D" d="M22.5,0 L1.5,0 C0.675000003,0 0,0.675000003 0,1.5 L0,22.5 C0,23.3250009 0.675000003,24 1.5,24 L22.5,24 C23.3250009,24 24,23.3250009 24,22.5 L24,1.5 C24,0.675000003 23.3250009,0 22.5,0 Z"/>
    <g fill="#FFF" transform="translate(3 7)">
      <path fill-rule="nonzero" d="M1.29000001,6.50750063 C1.29000001,5.56250002 2.05499941,4.79750062 2.99249941,4.79750062 C3.93750002,4.79750062 4.70249992,5.56250002 4.70249992,6.50750063 C4.70249992,7.45250123 3.93750002,8.21000003 2.99249941,8.21000003 C2.05500031,8.21749973 1.29000001,7.45249943 1.29000001,6.50750063 L1.29000001,6.50750063 Z M3.93750002,6.50750063 C3.93750002,5.99000072 3.51749991,5.57000062 3.00000001,5.57000062 C2.48250011,5.57000062 2.06250001,5.99000072 2.06250001,6.50750063 C2.06250001,7.02499963 2.48250011,7.44500063 3.00000001,7.44500063 C3.51749991,7.44500063 3.93750002,7.02499963 3.93750002,6.50750063 L3.93750002,6.50750063 Z"/>
      <path d="M15.7500001,11.5325012 C15.7500001,10.7600021 16.3799993,10.1225014 17.1599999,10.1225014 C17.4674988,10.1225014 17.7599984,10.2200012 18.0074978,10.4075012 L18.0074978,12.6575013 C17.767498,12.8374997 17.4674969,12.9424992 17.1599999,12.9424992 C16.3799993,12.9424992 15.7500001,12.3125001 15.7500001,11.5325012 L15.7500001,11.5325012 Z"/>
      <path fill-rule="nonzero" d="M0.330000201,3.13250061 L0.330000201,3.13250061 L2.58000001,0.882500604 C2.79000041,0.672500103 3.07499981,0.552500702 3.37500001,0.552500702 L9.86250024,0.552500702 C10.1625004,0.552500702 10.4475002,0.672501503 10.6575003,0.882500604 L10.6575003,0.882500604 L13.2749997,3.50000001 L17.6625005,3.86749942 C17.8575002,3.88249972 18.0074998,4.04749882 18.0074998,4.24249942 L18.0074998,6.57499993 C18.0074998,6.78499993 17.8424989,6.94999993 17.6324998,6.94999993 L17.2200013,6.94999993 L17.2200013,6.52250003 C17.2200013,5.27750012 16.2150002,4.27250002 14.9700013,4.27250002 C13.7250005,4.27250002 12.7200003,5.27750012 12.7200003,6.52250003 L12.7200003,6.52250003 L12.7200003,6.94999993 L5.25000002,6.94999993 L5.25000002,6.52250003 C5.25000002,5.27750012 4.24500042,4.27250002 3,4.27250002 C1.75499961,4.27250002 0.750000003,5.27750012 0.750000003,6.52250003 L0.750000003,6.94999993 L0.375000002,6.94999993 C0.164999701,6.94999993 0,6.78499983 0,6.57499983 L0,3.93500042 C0,3.63500022 0.1199999,3.35000041 0.330000201,3.13250061 L0.330000201,3.13250061 Z M7.08749963,3.18500041 C7.08749963,3.39500041 7.25249963,3.56000041 7.46249963,3.56000041 L11.7224998,3.56000041 C11.8500003,3.56000041 11.9475002,3.46249961 11.9475002,3.33500001 C11.9475002,3.27499961 11.9250002,3.21500011 11.880001,3.17749971 L10.0874996,1.38500021 L10.0874996,1.38500021 C10.0200014,1.31750101 9.92250154,1.27250001 9.82500074,1.27250001 L7.46250153,1.27250001 C7.25250053,1.27250001 7.08749963,1.43750001 7.08749963,1.64750001 L7.08749963,3.18500041 L7.08749963,3.18500041 Z M1.51499991,3.56000041 L6.00000003,3.56000041 C6.21000003,3.56000041 6.37500003,3.39500041 6.37500003,3.18500041 L6.37500003,1.64750001 C6.37500003,1.43750001 6.21000003,1.27250001 6.00000003,1.27250001 L3.41249991,1.27250001 C3.31499961,1.27250001 3.21750021,1.31000041 3.15000011,1.38500021 L1.35750011,3.17749971 C1.31250001,3.22249981 1.29000001,3.27499961 1.29000001,3.33500001 C1.29000001,3.45499991 1.38749981,3.56000041 1.51499991,3.56000041 L1.51499991,3.56000041 Z"/>
      <polygon points="0 8.6 18 8.6 18 9.763 0 9.763"/>
      <polygon points="0 13.25 18 13.25 18 13.962 0 13.962"/>
      <path d="M12.1875001 11.5249996C12.1875001 10.7450008 12.8174993 10.1150017 13.5900003 10.1150017 14.3700009 10.1150017 15.0000001 10.7450008 15.0000001 11.5249996 15.0000001 12.3050004 14.3700009 12.9349995 13.5900003 12.9349995 12.8174993 12.9349995 12.1875001 12.3050004 12.1875001 11.5249996L12.1875001 11.5249996zM4.92000062 11.5249996C4.92000062 10.7450008 5.55000022 10.1150017 6.32250033 10.1150017 7.09500043 10.1150017 7.73250013 10.7450009 7.73250013 11.5249996 7.73250013 12.3050004 7.10250093 12.9349995 6.32250033 12.9349995 5.55000022 12.9349995 4.92000062 12.3050004 4.92000062 11.5249996L4.92000062 11.5249996zM1.31250001 11.5249996C1.31250001 10.7450008 1.94250011 10.1150017 2.71499971 10.1150017 3.48750021 10.1150017 4.11749942 10.7450009 4.11749942 11.5249996 4.11749942 12.3050004 3.48749931 12.9349995 2.71499971 12.9349995 1.94250011 12.9349995 1.31250001 12.3050004 1.31250001 11.5249996L1.31250001 11.5249996z"/>
      <path fill-rule="nonzero" d="M13.2374993,6.50750063 C13.2374993,5.56250002 14.0025006,4.79750062 14.9474984,4.79750062 C15.8925,4.79750062 16.6499997,5.56250002 16.6499997,6.50750063 C16.6499997,7.45250123 15.8849984,8.21000003 14.9474984,8.21000003 C14.0025006,8.21749973 13.2374993,7.45249943 13.2374993,6.50750063 L13.2374993,6.50750063 Z M15.8849984,6.50750063 C15.8849984,5.99000072 15.4649983,5.57000062 14.9474984,5.57000062 C14.4300004,5.57000062 14.0099984,5.99000072 14.0099984,6.50750063 C14.0099984,7.02499963 14.4300004,7.44500063 14.9474984,7.44500063 C15.4649983,7.44500063 15.8849984,7.02499963 15.8849984,6.50750063 L15.8849984,6.50750063 Z"/>
    </g>
  </g>
</svg>
