<svg xmlns="http://www.w3.org/2000/svg" width="24" height="24" viewBox="0 0 24 24">
  <g fill="none" fill-rule="evenodd">
    <path fill="#2D327D" d="M22.5,0 L1.5,0 C0.675000003,0 0,0.675000003 0,1.5 L0,22.5 C0,23.3250009 0.675000003,24 1.5,24 L22.5,24 C23.3250009,24 24,23.3250009 24,22.5 L24,1.5 C24,0.675000003 23.3250009,0 22.5,0 Z"/>
    <g fill="#FFF" transform="translate(2 7)">
      <path d="M3.25000001,11.5325012 C3.25000001,10.7600021 2.61999991,10.1225014 1.83999971,10.1225014 C1.53249981,10.1225014 1.23999981,10.2200012 0.992499604,10.4075012 L0.992499604,12.6575013 C1.23249941,12.8374997 1.53249931,12.9424992 1.83999971,12.9424992 C2.61999991,12.9424992 3.25000001,12.3125001 3.25000001,11.5325012 L3.25000001,11.5325012 Z"/>
      <path fill-rule="nonzero" d="M18.6700002,3.13250061 L18.6700002,3.13250061 L16.4200002,0.882500604 C16.2100011,0.672500103 15.9249993,0.552500702 15.6250001,0.552500702 L9.13749984,0.552500702 C8.83749964,0.552500702 8.55249984,0.672501503 8.34249973,0.882500604 L8.34249973,0.882500604 L5.73250062,3.50000001 L1.34500081,3.86749942 C1.1500009,3.88249972 1.0000008,4.04749882 1.0000008,4.24249942 L1.0000008,6.57499993 C1.0000008,6.78499993 1.1650008,6.94999993 1.37500081,6.94999993 L1.78750091,6.94999993 L1.78750091,6.52250003 C1.78750091,5.27750012 2.79250081,4.27250002 4.03750072,4.27250002 C5.28250062,4.27250002 6.28750073,5.27750012 6.28750073,6.52250003 L6.28750073,6.52250003 L6.28750073,6.94999993 L13.7500001,6.94999993 L13.7500001,6.52250003 C13.7500001,5.27750012 14.7549993,4.27250002 16.0000008,4.27250002 C17.2450009,4.27250002 18.2500001,5.27750012 18.2500001,6.52250003 L18.2500001,6.94999993 L18.6250001,6.94999993 C18.8349992,6.94999993 19.0000008,6.78499983 19.0000008,6.57499983 L19.0000008,3.93500042 C19.0000008,3.63500022 18.8799993,3.35000041 18.6700002,3.13250061 L18.6700002,3.13250061 Z M11.9125004,3.18500041 C11.9125004,3.39500041 11.7475004,3.56000041 11.5375004,3.56000041 L7.27750023,3.56000041 C7.14999973,3.56000041 7.05249983,3.46249961 7.05249983,3.33500001 C7.05249983,3.27499961 7.07499983,3.21500011 7.11999903,3.17749971 L8.91249854,1.38500021 L8.91249854,1.38500021 C8.97999864,1.31750101 9.07749854,1.27250001 9.17499934,1.27250001 L11.5374985,1.27250001 C11.7474995,1.27250001 11.9125004,1.43750001 11.9125004,1.64750001 L11.9125004,3.18500041 L11.9125004,3.18500041 Z M17.4849988,3.56000041 L13.0000001,3.56000041 C12.7900001,3.56000041 12.6250001,3.39500041 12.6250001,3.18500041 L12.6250001,1.64750001 C12.6250001,1.43750001 12.7900001,1.27250001 13.0000001,1.27250001 L15.5874997,1.27250001 C15.6849995,1.27250001 15.7825013,1.31000041 15.8500005,1.38500021 L17.6425,3.17749971 C17.6875001,3.22249981 17.7099992,3.27499961 17.7099992,3.33500001 C17.7099992,3.45499991 17.6124993,3.56000041 17.4849988,3.56000041 L17.4849988,3.56000041 Z"/>
      <polygon points="1 8.6 19 8.6 19 9.763 1 9.763"/>
      <polygon points="1 13.288 19 13.288 19 14 1 14"/>
      <path d="M6.81250003 11.5249996C6.81250003 10.7450008 6.18250083 10.1150017 5.41000032 10.1150017 4.63000062 10.1150017 4.00000002 10.7450008 4.00000002 11.5249996 4.00000002 12.3050004 4.62999962 12.9349995 5.41000032 12.9349995 6.18250083 12.9349995 6.81250003 12.3050004 6.81250003 11.5249996L6.81250003 11.5249996zM14.08 11.5249996C14.08 10.7450008 13.4499999 10.1150017 12.6774998 10.1150017 11.9049996 10.1150017 11.2674999 10.7450009 11.2674999 11.5249996 11.2674999 12.3050004 11.8974991 12.9349995 12.6774998 12.9349995 13.4499999 12.9349995 14.08 12.3050004 14.08 11.5249996L14.08 11.5249996zM17.6875001 11.5249996C17.6875001 10.7450008 17.0575009 10.1150017 16.2849999 10.1150017 15.5125008 10.1150017 14.8824978 10.7450009 14.8824978 11.5249996 14.8824978 12.3050004 15.512497 12.9349995 16.2849999 12.9349995 17.0575009 12.9349995 17.6875001 12.3050004 17.6875001 11.5249996L17.6875001 11.5249996z"/>
      <path fill-rule="nonzero" d="M17.7099992 6.50750063C17.7099992 5.56250002 16.9449979 4.79750062 16.0074979 4.79750062 15.0624982 4.79750062 14.2974988 5.56250002 14.2974988 6.50750063 14.2974988 7.45250123 15.0625001 8.21000003 16.0074979 8.21000003 16.9449998 8.21749973 17.7099992 7.45249943 17.7099992 6.50750063L17.7099992 6.50750063zM15.0625001 6.50750063C15.0625001 5.99000072 15.4825002 5.57000062 16.0000001 5.57000062 16.5175 5.57000062 16.9375001 5.99000072 16.9375001 6.50750063 16.9375001 7.02499963 16.5175 7.44500063 16.0000001 7.44500063 15.4825002 7.44500063 15.0625001 7.02499963 15.0625001 6.50750063L15.0625001 6.50750063zM5.75499962 6.50750063C5.75499962 5.56250002 4.98999972 4.79750062 4.04499912 4.79750062 3.09999941 4.79750062 2.34249971 5.56250002 2.34249971 6.50750063 2.34249971 7.45250123 3.10749911 8.21000003 4.04499912 8.21000003 4.98999982 8.21749973 5.75499962 7.45249943 5.75499962 6.50750063L5.75499962 6.50750063zM3.11499981 6.50750063C3.11499981 5.99000072 3.53499991 5.57000062 4.05249982 5.57000062 4.56999972 5.57000062 4.98999982 5.99000072 4.98999982 6.50750063 4.98999982 7.02499963 4.56999972 7.44500063 4.05249982 7.44500063 3.53499991 7.44500063 3.11499981 7.02499963 3.11499981 6.50750063L3.11499981 6.50750063z"/>
    </g>
  </g>
</svg>
