<svg xmlns="http://www.w3.org/2000/svg" width="24" height="24" viewBox="0 0 24 24">
  <g fill="none" fill-rule="evenodd">
    <path fill="#2D327D" d="M22.5,0 L1.5,0 C0.675000003,0 0,0.675000003 0,1.5 L0,22.5 C0,23.3250009 0.675000003,24 1.5,24 L22.5,24 C23.3250009,24 24,23.3250009 24,22.5 L24,1.5 C24,0.675000003 23.3250009,0 22.5,0 Z"/>
    <g fill="#FFF" transform="translate(2 3)">
      <polygon points="8.5 0 8.5 7.5 16.75 7.5 16.75 10.425 19 10.425 19 0"/>
      <path fill-rule="nonzero" d="M5.87500002,8.92500024 C6.82000063,8.92500024 7.66749953,9.52499964 7.96749973,10.4250002 L10.9074993,10.4250002 C11.2150001,9.52499964 12.0549994,8.92500024 12.9999991,8.92500024 C13.9449997,8.92500024 14.7924996,9.52499964 15.0924988,10.4250002 L16.0000001,10.4250002 L16.0000001,8.17500023 L7.37500003,8.17500023 L7.37500003,2.25000001 L2.62749961,2.25000001 C2.10999971,2.25000001 1.65999961,2.60250001 1.53249981,3.10500001 L1.0300002,5.12250042 C1.0074999,5.21249962 0.992500104,5.30249982 0.992500104,5.39250092 L0.992500104,10.4250002 L3.77500012,10.4250002 C4.08250002,9.53250034 4.92999942,8.92500024 5.87500002,8.92500024 L5.87500002,8.92500024 Z M1.93750001,4.65000012 C1.93750001,4.62000042 1.93750001,4.58999972 1.94499991,4.56000042 L2.23000001,3.43500041 C2.30500031,3.13500021 2.57499981,2.92500021 2.88249971,2.92500021 L4.37500002,2.92500021 C4.58500002,2.92500021 4.75000002,3.08999971 4.75000002,3.30000021 L4.75000002,4.65000012 C4.75000002,4.86000012 4.58500002,5.02499962 4.37500002,5.02499962 L2.31250001,5.02499962 C2.10250001,5.02499962 1.93750001,4.86000012 1.93750001,4.65000012 L1.93750001,4.65000012 Z"/>
      <polygon points="1 13.2 19 13.2 19 14.325 1 14.325"/>
      <polygon points="1 17.325 19 17.325 19 18 1 18"/>
      <path fill-rule="nonzero" d="M13.0075007 9.46500024C12.0775013 9.46500024 11.3200006 10.2224999 11.3200006 11.1525002 11.3200006 12.0824997 12.0775013 12.8400003 13.0075007 12.8400003 13.9375001 12.8400003 14.6949997 12.0824997 14.6949997 11.1525002 14.6949997 10.2224998 13.9375001 9.46500024 13.0075007 9.46500024L13.0075007 9.46500024zM13.0075007 12.0900003C12.4900008 12.0900003 12.0700007 11.6699992 12.0700007 11.1525002 12.0700007 10.6350003 12.4900008 10.2150002 13.0075007 10.2150002 13.5249997 10.2150002 13.9450007 10.6350003 13.9450007 11.1525002 13.9450007 11.6700001 13.5249997 12.0900003 13.0075007 12.0900003L13.0075007 12.0900003zM5.81499962 9.46500024C4.88500022 9.46500024 4.12749962 10.2224999 4.12749962 11.1525002 4.12749962 12.0824997 4.88500022 12.8400003 5.81499962 12.8400003 6.74499903 12.8400003 7.50249963 12.0824997 7.50249963 11.1525002 7.50249963 10.2150002 6.74500083 9.46500024 5.81499962 9.46500024L5.81499962 9.46500024zM5.81499962 12.0900003C5.29750022 12.0900003 4.87749962 11.6699992 4.87749962 11.1525002 4.87749962 10.6350003 5.29750022 10.2150002 5.81499962 10.2150002 6.33249903 10.2150002 6.75249963 10.6350003 6.75249963 11.1525002 6.75249963 11.6700001 6.33250053 12.0900003 5.81499962 12.0900003L5.81499962 12.0900003z"/>
      <path d="M17.5150014 15.7724992C17.5150014 15.1724988 17.0275003 14.6849996 16.4275018 14.6849996 15.8275014 14.6849996 15.3400003 15.1724988 15.3400003 15.7724992 15.3400003 16.3724996 15.8275014 16.8599988 16.4275018 16.8599988 17.0275003 16.8599988 17.5150014 16.3724996 17.5150014 15.7724992L17.5150014 15.7724992zM14.6049996 15.7724992C14.6049996 15.1724988 14.1175004 14.6849996 13.5175 14.6849996 12.9174996 14.6849996 12.4299994 15.1724988 12.4299994 15.7724992 12.4299994 16.3724996 12.9174996 16.8599988 13.5175 16.8599988 14.1175004 16.8599988 14.6049996 16.3724996 14.6049996 15.7724992L14.6049996 15.7724992zM7.58500003 15.7724992C7.58500003 15.1724988 7.09749983 14.6849996 6.49750043 14.6849996 5.89750002 14.6849996 5.41000032 15.1724988 5.41000032 15.7724992 5.41000032 16.3724996 5.89750002 16.8599988 6.49750043 16.8599988 7.09749983 16.8599988 7.58500003 16.3724996 7.58500003 15.7724992L7.58500003 15.7724992zM4.67500022 15.7724992C4.67500022 15.1724988 4.18750002 14.6849996 3.58750011 14.6849996 2.98750021 14.6849996 2.50000001 15.1724988 2.50000001 15.7724992 2.50000001 16.3724996 2.98750021 16.8599988 3.58750011 16.8599988 4.18750002 16.8599988 4.67500022 16.3724996 4.67500022 15.7724992L4.67500022 15.7724992z"/>
    </g>
  </g>
</svg>
