<svg xmlns="http://www.w3.org/2000/svg" width="24" height="24" viewBox="0 0 24 24">
  <g fill="none" fill-rule="evenodd">
    <path fill="#2D327D" d="M22.5,0 L1.5,0 C0.675000003,0 0,0.675000003 0,1.5 L0,22.5 C0,23.3250009 0.675000003,24 1.5,24 L22.5,24 C23.3250009,24 24,23.3250009 24,22.5 L24,1.5 C24,0.675000003 23.3250009,0 22.5,0 Z"/>
    <g fill="#FFF" transform="translate(3 3)">
      <polygon points="10.5 0 10.5 7.5 2.25 7.5 2.25 10.425 0 10.425 0 0"/>
      <path fill-rule="nonzero" d="M13.1250001,8.92500024 C12.1799995,8.92500024 11.3325005,9.52499964 11.0325003,10.4250002 L8.09250073,10.4250002 C7.78499993,9.52499964 6.94500073,8.92500024 6.00000001,8.92500024 C5.05500042,8.92500024 4.20750152,9.52499964 3.90750172,10.4250002 L3.00000001,10.4250002 L3.00000001,8.17500023 L11.625,8.17500023 L11.625,2.25000001 L16.3724996,2.25000001 C16.8899995,2.25000001 17.3399984,2.60250001 17.4674989,3.10500001 L17.9700013,5.12250042 C17.9925004,5.21249962 18.0074998,5.30249982 18.0074998,5.39250092 L18.0074998,10.4250002 L15.2250005,10.4250002 C14.9174996,9.53250034 14.0699998,8.92500024 13.1250001,8.92500024 L13.1250001,8.92500024 Z M17.0625001,4.65000012 C17.0625001,4.62000042 17.0625001,4.58999972 17.0550004,4.56000042 L16.7700006,3.43500041 C16.6949998,3.13500021 16.4249994,2.92500021 16.1175004,2.92500021 L14.6250001,2.92500021 C14.4224988,2.92500021 14.2500001,3.08999971 14.2500001,3.30000021 L14.2500001,4.65000012 C14.2500001,4.86000012 14.415001,5.02499962 14.6250001,5.02499962 L16.6875001,5.02499962 C16.8974992,5.02499962 17.0625001,4.86000012 17.0625001,4.65000012 L17.0625001,4.65000012 Z"/>
      <polygon points="0 13.2 17.993 13.2 17.993 14.325 0 14.325"/>
      <polygon points="0 17.325 18 17.325 18 18 0 18"/>
      <path fill-rule="nonzero" d="M5.99249942 9.46500024C6.92249883 9.46500024 7.67999943 10.2224999 7.67999943 11.1525002 7.67999943 12.0824997 6.92249883 12.8400003 5.99249942 12.8400003 5.06250002 12.8400003 4.30499942 12.0824997 4.30499942 11.1525002 4.30499942 10.2224998 5.06250002 9.46500024 5.99249942 9.46500024L5.99249942 9.46500024zM5.99249942 12.0900003C6.50999933 12.0900003 6.92999943 11.6699992 6.92999943 11.1525002 6.92999943 10.6350003 6.50999933 10.2150002 5.99249942 10.2150002 5.47500042 10.2150002 5.05499942 10.6350003 5.05499942 11.1525002 5.05499942 11.6700001 5.47500042 12.0900003 5.99249942 12.0900003L5.99249942 12.0900003zM13.1849996 9.46500024C14.1150018 9.46500024 14.8724996 10.2224999 14.8724996 11.1525002 14.8724996 12.0824997 14.114998 12.8400003 13.1849996 12.8400003 12.2549993 12.8400003 11.4974995 12.0824997 11.4974995 11.1525002 11.4974995 10.2224998 12.2549993 9.46500024 13.1849996 9.46500024L13.1849996 9.46500024zM13.1849996 12.0900003C13.7025014 12.0900003 14.1224996 11.6699992 14.1224996 11.1525002 14.1224996 10.6350003 13.7024995 10.2150002 13.1849996 10.2150002 12.6674997 10.2150002 12.2474996 10.6350003 12.2474996 11.1525002 12.2474996 11.6700001 12.6674996 12.0900003 13.1849996 12.0900003L13.1849996 12.0900003z"/>
      <path d="M1.48500011 15.7724992C1.48500011 15.1724988 1.97250031 14.6849996 2.57250021 14.6849996 3.17250011 14.6849996 3.66000032 15.1724988 3.66000032 15.7724992 3.66000032 16.3724996 3.17250011 16.8599988 2.57250021 16.8599988 1.96499971 16.8599988 1.48500011 16.3724996 1.48500011 15.7724992L1.48500011 15.7724992zM4.39500052 15.7724992C4.39500052 15.1724988 4.88250072 14.6849996 5.48250012 14.6849996 6.08250053 14.6849996 6.57000073 15.1724988 6.57000073 15.7724992 6.57000073 16.3724996 6.08250053 16.8599988 5.48250012 16.8599988 4.88250062 16.8599988 4.39500052 16.3724996 4.39500052 15.7724992L4.39500052 15.7724992zM11.415 15.7724992C11.415 15.1724988 11.9025002 14.6849996 12.5024997 14.6849996 13.1024991 14.6849996 13.5900003 15.1724988 13.5900003 15.7724992 13.5900003 16.3724996 13.1025011 16.8599988 12.5025007 16.8599988 11.9025002 16.8599988 11.415 16.3724996 11.415 15.7724992L11.415 15.7724992zM14.3250009 15.7724992C14.3250009 15.1724988 14.8125001 14.6849996 15.4125005 14.6849996 16.0125009 14.6849996 16.5000001 15.1724988 16.5000001 15.7724992 16.5000001 16.3724996 16.0125009 16.8599988 15.4125005 16.8599988 14.8125001 16.8599988 14.3250009 16.3724996 14.3250009 15.7724992L14.3250009 15.7724992z"/>
    </g>
  </g>
</svg>
