<svg xmlns="http://www.w3.org/2000/svg" width="24" height="24" viewBox="0 0 24 24">
  <g fill="none" fill-rule="evenodd">
    <path fill="#2D327D" d="M22.5,0 L1.5,0 C0.675000003,0 0,0.675000003 0,1.5 L0,22.5 C0,23.3250009 0.675000003,24 1.5,24 L22.5,24 C23.3250009,24 24,23.3250009 24,22.5 L24,1.5 C24,0.675000003 23.3250009,0 22.5,0 Z"/>
    <g fill="#FFF" transform="translate(2 3)">
      <polygon points="1 0 1 .375 19 1.95 19 1.575"/>
      <path d="M9.31000044,14.8199998 L5.53749992,14.4900018 C5.77749972,15.3675023 6.57999993,15.9675027 7.48750023,15.9675027 C8.26000023,15.9675027 8.97249984,15.5249997 9.31000044,14.8199998 L9.31000044,14.8199998 Z"/>
      <path fill-rule="nonzero" d="M13.5700007,4.19999982 L9.63250064,1.44750021 L5.27500012,3.47250031 L7.34500033,5.15999982 L2.63500031,4.74750042 C2.60500011,4.74750042 2.58250051,4.73999982 2.55250031,4.73999982 C2.05000071,4.73999982 1.62250021,5.12999922 1.57750041,5.63249972 L0.940000404,12.9524985 C0.940000404,12.9599991 0.940000404,12.9749985 0.940000404,12.9824982 C0.940000404,13.1774979 1.0900005,13.3424969 1.28500041,13.3574982 L19.0000001,14.9174996 L19.0000001,10.6274995 L14.8824998,10.2674998 C14.6875001,10.2524995 14.5375005,10.0874995 14.5375005,9.89249984 C14.5375005,9.88499924 14.5375005,9.86999884 14.5375005,9.86250014 L14.7999994,6.87000073 C14.8150007,6.67500013 14.9799997,6.52499953 15.1749994,6.52499953 C15.182501,6.52499953 15.1974985,6.52499953 15.2050001,6.52499953 L18.9925005,6.85499943 L18.9925005,6.17999943 L11.222499,5.49749952 L13.5700007,4.19999982 L13.5700007,4.19999982 Z M4.56999972,5.97000032 L4.30749992,8.96249974 C4.29250002,9.15750034 4.12749962,9.30750094 3.93249992,9.30750094 C3.92500022,9.30750094 3.90999992,9.30750094 3.90249972,9.30750094 L2.29749971,9.16500104 L2.29749971,9.16500104 C2.10250001,9.15000164 1.95249991,8.98500164 1.95249991,8.79000104 C1.95249991,8.78250044 1.95249991,8.76750104 1.95249991,8.76000134 L2.21499971,5.76750192 C2.22999961,5.57250132 2.39500001,5.42250162 2.58999971,5.42250162 C2.59749991,5.42250162 2.61250021,5.42250162 2.61999991,5.42250162 L4.22499992,5.56500062 C4.42000012,5.58000092 4.56999972,5.74500092 4.56999972,5.94000062 C4.56999972,5.94750022 4.56999972,5.96249962 4.56999972,5.97000032 L4.56999972,5.97000032 Z M6.38500022,6.23999983 L6.01000023,10.5 C5.98750022,10.7924995 5.73999972,11.0100002 5.44750022,11.0100002 C5.13999982,11.0100002 4.88500022,10.755001 4.88500022,10.4475002 C4.88500022,10.4325008 4.88500022,10.4175005 4.88500022,10.3950004 L5.26000022,6.13500023 C5.28250032,5.84250072 5.53000072,5.62500002 5.82250022,5.62500002 C6.13000103,5.62500002 6.38500022,5.87999922 6.38500022,6.18750003 C6.39249993,6.21000003 6.39249993,6.22500043 6.38500022,6.23999983 L6.38500022,6.23999983 Z M8.18500043,6.39750003 L7.81000043,10.6575002 C7.78750043,10.9499997 7.53999993,11.1675004 7.24750043,11.1675004 C6.93999963,11.1675004 6.68500043,10.9125012 6.68500043,10.6050004 C6.68500043,10.590001 6.68500043,10.5750007 6.68500043,10.5525006 L7.06000043,6.29250043 C7.08250043,6.00000093 7.33000093,5.78250022 7.62250043,5.78250022 C7.93000033,5.78250022 8.18500043,6.03750033 8.18500043,6.34500023 C8.18500043,6.36749943 8.18500043,6.38250063 8.18500043,6.39750003 L8.18500043,6.39750003 Z M6.53499983,3.62999962 L9.56500054,2.21999931 L12.3025008,4.13249922 L10.0375013,5.39249992 L8.55250074,5.26499942 L6.53499983,3.62999962 L6.53499983,3.62999962 Z M13.7875005,6.40499973 C13.9825002,6.41999913 14.1324998,6.58499913 14.1324998,6.77999973 C14.1324998,6.78750033 14.1324998,6.80249973 14.1324998,6.80999943 L13.8700009,9.79499914 C13.8550006,9.98999974 13.6900006,10.1399994 13.4950009,10.1399994 C13.4875003,10.1399994 13.4724999,10.1399994 13.4650012,10.1399994 L8.94250114,9.74249944 C8.74750054,9.72750004 8.59749994,9.56250004 8.59749994,9.36749944 C8.59749994,9.35999884 8.59749994,9.34499944 8.59749994,9.33749974 L8.86000074,6.34500033 C8.87500004,6.14999963 9.04000004,6.00000003 9.23500064,6.00000003 C9.24250034,6.00000003 9.25750064,6.00000003 9.26499944,6.00000003 L13.7875005,6.40499973 L13.7875005,6.40499973 Z"/>
      <path d="M13.7875005,15.2099992 L10.0149994,14.8799993 C10.2549992,15.7574998 11.0574989,16.3575002 11.9650002,16.3575002 C12.7450009,16.3575002 13.4575006,15.915001 13.7875005,15.2099992 L13.7875005,15.2099992 Z"/>
      <polygon points="1 16.425 19 18 19 17.362 1 15.788"/>
    </g>
  </g>
</svg>
