<svg xmlns="http://www.w3.org/2000/svg" width="24" height="24" viewBox="0 0 24 24">
  <g fill="none" fill-rule="evenodd">
    <path fill="#2D327D" d="M22.5,0 L1.5,0 C0.675000003,0 0,0.675000003 0,1.5 L0,22.5 C0,23.3250009 0.675000003,24 1.5,24 L22.5,24 C23.3250009,24 24,23.3250009 24,22.5 L24,1.5 C24,0.675000003 23.3250009,0 22.5,0 Z"/>
    <g fill="#FFF" transform="translate(3 3)">
      <polygon points="18 0 18 .375 0 1.95 0 1.575"/>
      <path d="M9.68999964,14.8199998 L13.4624997,14.4900018 C13.2224999,15.3675023 12.4200002,15.9675027 11.5124998,15.9675027 C10.7399998,15.9675027 10.0275002,15.5249997 9.68999964,14.8199998 L9.68999964,14.8199998 Z"/>
      <path fill-rule="nonzero" d="M5.42999942,4.19999982 L9.36749944,1.44750021 L13.7250005,3.47250031 L11.6549998,5.15999982 L16.364998,4.74750042 C16.3949987,4.74750042 16.4174997,4.73999982 16.4474985,4.73999982 C16.9500009,4.73999982 17.3774988,5.12999922 17.4224989,5.63249972 L18.0599997,12.9524985 C18.0599997,12.9599991 18.0599997,12.9749985 18.0599997,12.9824982 C18.0599997,13.1774979 17.9100001,13.3424969 17.7149985,13.3574982 L0,14.9174996 L0,10.6274995 L4.11749942,10.2674998 C4.31250002,10.2524995 4.46250012,10.0874995 4.46250012,9.89249984 C4.46250012,9.88499924 4.46250012,9.86999884 4.46250012,9.86250014 L4.19999982,6.87000083 C4.18500042,6.67500023 4.02000042,6.52499963 3.82499982,6.52499963 C3.81749962,6.52499963 3.80249982,6.52499963 3.79500052,6.52499963 L0,6.85499953 L0,6.17999943 L7.77000053,5.49749952 L5.42999942,4.19999982 L5.42999942,4.19999982 Z M14.4300004,5.97000032 L14.6924993,8.96249974 C14.7075006,9.15750034 14.8724996,9.30750094 15.0674993,9.30750094 C15.0750009,9.30750094 15.0899984,9.30750094 15.0975,9.30750094 L16.7024995,9.16500104 L16.7024995,9.16500104 C16.8974992,9.15000164 17.0474988,8.98500164 17.0474988,8.79000104 C17.0474988,8.78250044 17.0474988,8.76750104 17.0474988,8.76000134 L16.7849999,5.76750192 C16.7699986,5.57250132 16.6049996,5.42250162 16.4099999,5.42250162 C16.4024983,5.42250162 16.3875008,5.42250162 16.3799992,5.42250162 L14.7749997,5.56500062 C14.58,5.58000092 14.4300004,5.74500092 14.4300004,5.94000062 C14.4300004,5.94750022 14.4300004,5.96249962 14.4300004,5.97000032 L14.4300004,5.97000032 Z M12.6149999,6.23999983 L12.9899999,10.5 C13.0125009,10.7924995 13.2599985,11.0100002 13.5525018,11.0100002 C13.8600007,11.0100002 14.1150018,10.755001 14.1150018,10.4475002 C14.1150018,10.4325008 14.1150018,10.4175005 14.1150018,10.3950004 L13.7400018,6.13500023 C13.7175027,5.84250072 13.4700013,5.62500002 13.1775018,5.62500002 C12.870001,5.62500002 12.6150008,5.87999922 12.6150008,6.18750003 C12.6075002,6.21000003 12.6075002,6.22500043 12.6149999,6.23999983 L12.6149999,6.23999983 Z M10.8149996,6.39750003 L11.1899996,10.6575002 C11.2124996,10.9499997 11.4600001,11.1675004 11.7524996,11.1675004 C12.0600005,11.1675004 12.3149996,10.9125012 12.3149996,10.6050004 C12.3149996,10.590001 12.3149996,10.5750007 12.3149996,10.5525006 L11.9399996,6.29250043 C11.9174996,6.00000093 11.6699991,5.78250022 11.3774996,5.78250022 C11.0699997,5.78250022 10.8149996,6.03750033 10.8149996,6.34500023 C10.8149996,6.36749943 10.8149996,6.38250063 10.8149996,6.39750003 L10.8149996,6.39750003 Z M12.4650003,3.62999962 L9.43499954,2.21999931 L6.69749933,4.13249922 L8.96249874,5.39249992 L10.4474993,5.26499942 L12.4650003,3.62999962 L12.4650003,3.62999962 Z M5.21249962,6.40499973 C5.01749992,6.41999913 4.86749932,6.58499913 4.86749932,6.77999973 C4.86749932,6.78750033 4.86749932,6.80249973 4.86749932,6.80999943 L5.12999912,9.79499914 C5.14499942,9.98999974 5.30999942,10.1399994 5.50499912,10.1399994 C5.51249972,10.1399994 5.52750012,10.1399994 5.53499882,10.1399994 L10.0574988,9.74249944 C10.2524994,9.72750004 10.4025,9.56250004 10.4025,9.36749944 C10.4025,9.35999884 10.4025,9.34499944 10.4025,9.33749974 L10.1399992,6.34500033 C10.125,6.14999963 9.96000004,6.00000003 9.76499944,6.00000003 C9.75749974,6.00000003 9.74249944,6.00000003 9.73500064,6.00000003 L5.21249962,6.40499973 L5.21249962,6.40499973 Z"/>
      <path d="M5.21249962,15.2099992 L8.98500064,14.8799993 C8.74500084,15.7574998 7.94250113,16.3575002 7.03499983,16.3575002 C6.25499923,16.3575002 5.54249952,15.915001 5.21249962,15.2099992 L5.21249962,15.2099992 Z"/>
      <polygon points="18 16.425 0 18 0 17.362 18 15.788"/>
    </g>
  </g>
</svg>
