<svg xmlns="http://www.w3.org/2000/svg" width="24" height="24" viewBox="0 0 24 24">
  <g fill="none" fill-rule="evenodd">
    <path fill="#2D327D" d="M22.5,0 L1.5,0 C0.675000003,0 0,0.675000003 0,1.5 L0,22.5 C0,23.3250009 0.675000003,24 1.5,24 L22.5,24 C23.3250009,24 24,23.3250009 24,22.5 L24,1.5 C24,0.675000003 23.3250009,0 22.5,0 Z"/>
    <g fill="#FFF" transform="translate(3 3)">
      <path fill-rule="nonzero" d="M17.6250001,14.1450006 C17.8349992,14.1450006 18.0000012,13.9799997 18.0000012,13.7700006 L18.0000012,5.01749992 C18.0000012,4.64249942 17.7450009,4.31250002 17.3775006,4.21499972 L1.0275011,0.0449998001 L1.0275011,0.0449998001 C0.960000804,0.0300002 0.892500604,0.0224996 0.825001203,0.0224996 C0.367501202,0.0224996 1.2e-06,0.389999902 1.2e-06,0.847499603 L1.2e-06,9.45750024 C1.2e-06,9.63000084 0.1200011,9.78000044 0.285001301,9.82499964 L17.5350014,14.1375007 L17.5350014,14.1375007 C17.5650006,14.1375009 17.5950013,14.1450006 17.6250001,14.1450006 L17.6250001,14.1450006 Z M4.31250002,2.02500011 L4.31250002,6.52499963 C4.31250002,6.73500063 4.14750002,6.89999963 3.93750002,6.89999963 L1.125,6.89999963 C0.914999704,6.89999963 0.750000003,6.73500063 0.750000003,6.52499963 L0.750000003,2.02500011 C0.750000003,1.81499961 0.914999704,1.65000011 1.125,1.65000011 L3.93750002,1.65000011 C4.14750002,1.65000011 4.31250002,1.81499961 4.31250002,2.02500011 L4.31250002,2.02500011 Z M8.62500004,3.12749961 L8.62500004,7.62749963 C8.62500004,7.83749963 8.46000004,8.00249963 8.25000003,8.00249963 L5.43750002,8.00249963 C5.22750002,8.00249963 5.06250002,7.83749963 5.06250002,7.62749963 L5.06250002,3.12749961 C5.06250002,2.91749961 5.22750002,2.75249961 5.43750002,2.75249961 L8.25000003,2.75249961 C8.46000004,2.75249961 8.62500004,2.91750001 8.62500004,3.12749961 L8.62500004,3.12749961 Z M12.9375001,4.22250032 L12.9375001,8.72249984 C12.9375001,8.93250084 12.7725001,9.09749984 12.5625001,9.09749984 L9.75000004,9.09749984 C9.54000004,9.09749984 9.37500004,8.93250084 9.37500004,8.72249984 L9.37500004,4.22250032 C9.37500004,4.01249982 9.54000004,3.84750032 9.75000004,3.84750032 L12.5625001,3.84750032 C12.7725001,3.84750032 12.9375001,4.02000052 12.9375001,4.22250032 L12.9375001,4.22250032 Z M17.2500001,5.32499982 L17.2500001,9.82499984 C17.2500001,10.0349998 17.0849992,10.1999998 16.8750001,10.1999998 L14.0625001,10.1999998 C13.852501,10.1999998 13.6875001,10.0349998 13.6875001,9.82499984 L13.6875001,5.32499982 C13.6875001,5.11499982 13.852501,4.94999982 14.0625001,4.94999982 L16.8750001,4.94999982 C17.0849992,4.94999982 17.2500001,5.11499982 17.2500001,5.32499982 L17.2500001,5.32499982 Z"/>
      <polygon points="0 12.728 18 17.228 18 18 0 13.5"/>
      <path d="M13.8224984 14.3999997C13.8224984 15.0000001 13.3349992 15.4874993 12.7349988 15.4874993 12.1349994 15.4874993 11.6474991 15.0000001 11.6474991 14.3999997 11.6474991 13.7999993 12.1349994 13.3125001 12.7349988 13.3125001 13.3349992 13.3125001 13.8224984 13.7999993 13.8224984 14.3999997L13.8224984 14.3999997zM16.5299989 15.1349984C16.5299989 15.7349988 16.0424997 16.2224999 15.4424993 16.2224999 14.8424989 16.2224999 14.3549997 15.7349988 14.3549997 15.1349984 14.3549997 14.5349999 14.8424989 14.0474988 15.4424993 14.0474988 16.0424997 14.0474988 16.5299989 14.5275003 16.5299989 15.1349984L16.5299989 15.1349984zM6.38250063 12.5400001C6.38250063 13.1399995 5.89500042 13.6275007 5.29500002 13.6275007 4.69500062 13.6275007 4.20750042 13.1400015 4.20750042 12.5400011 4.20750042 11.9400006 4.69500062 11.4525014 5.29500002 11.4525014 5.89500052 11.4525014 6.38250063 11.9399996 6.38250063 12.5400001L6.38250063 12.5400001zM3.62250042 11.8575001C3.62250042 12.4575006 3.13500021 12.9450008 2.53500031 12.9450008 1.93500041 12.9450008 1.44750021 12.4575006 1.44750021 11.8575001 1.44750021 11.2575007 1.93500041 10.7700005 2.53500031 10.7700005 3.13500021 10.7775002 3.62250042 11.2575006 3.62250042 11.8575001L3.62250042 11.8575001z"/>
    </g>
  </g>
</svg>
