<svg xmlns="http://www.w3.org/2000/svg" width="24" height="24" viewBox="0 0 24 24">
  <g fill="none" fill-rule="evenodd">
    <path fill="#2D327D" d="M22.5,0 L1.5,0 C0.675000003,0 0,0.675000003 0,1.5 L0,22.5 C0,23.3250009 0.675000003,24 1.5,24 L22.5,24 C23.3250009,24 24,23.3250009 24,22.5 L24,1.5 C24,0.675000003 23.3250009,0 22.5,0 Z"/>
    <g fill="#FFF" transform="translate(3 3)">
      <path fill-rule="nonzero" d="M0.375000002,14.1450006 C0.405000202,14.1450006 0.435000202,14.1375009 0.464999702,14.1299993 L0.464999702,14.1299993 L17.7149998,9.81749924 C17.8800012,9.77249914 17.9999988,9.62249954 17.9999988,9.44999984 L17.9999988,0.847500803 C17.9999988,0.390000802 17.6324998,0.0225008 17.1749993,0.0225008 C17.1075001,0.0225008 17.040001,0.0300007 16.9724999,0.0450011001 L16.9724999,0.0450011001 L0.622499003,4.21500112 C0.254998901,4.30500082 -1.2e-06,4.63500122 -1.2e-06,5.01750092 L-1.2e-06,13.7700006 C-1.2e-06,13.9799996 0.164999701,14.1450006 0.375000002,14.1450006 L0.375000002,14.1450006 Z M13.6875001,2.02500011 C13.6875001,1.81499961 13.852501,1.65000011 14.0625001,1.65000011 L16.8750001,1.65000011 C17.0849992,1.65000011 17.2500001,1.81499961 17.2500001,2.02500011 L17.2500001,6.52499963 C17.2500001,6.73500063 17.0849992,6.89999963 16.8750001,6.89999963 L14.0625001,6.89999963 C13.852501,6.89999963 13.6875001,6.73500063 13.6875001,6.52499963 L13.6875001,2.02500011 L13.6875001,2.02500011 Z M9.37500004,3.12749961 C9.37500004,2.91749961 9.54000004,2.75249961 9.75000004,2.75249961 L12.5625001,2.75249961 C12.7725001,2.75249961 12.9375001,2.91749961 12.9375001,3.12749961 L12.9375001,7.62749963 C12.9375001,7.83749963 12.7725001,8.00249963 12.5625001,8.00249963 L9.75000004,8.00249963 C9.54000004,8.00249963 9.37500004,7.83749963 9.37500004,7.62749963 L9.37500004,3.12749961 L9.37500004,3.12749961 Z M5.06250002,4.22250032 C5.06250002,4.01249982 5.22750002,3.84750032 5.43750002,3.84750032 L8.25000003,3.84750032 C8.46000004,3.84750032 8.62500004,4.01249982 8.62500004,4.22250032 L8.62500004,8.72249984 C8.62500004,8.93250084 8.46000004,9.09749984 8.25000003,9.09749984 L5.43750002,9.09749984 C5.22750002,9.09749984 5.06250002,8.93250084 5.06250002,8.72249984 L5.06250002,4.22250032 L5.06250002,4.22250032 Z M0.750000003,5.32499982 C0.750000003,5.11499982 0.914999704,4.94999982 1.125,4.94999982 L3.93750002,4.94999982 C4.14750002,4.94999982 4.31250002,5.11499982 4.31250002,5.32499982 L4.31250002,9.82499984 C4.31250002,10.0349998 4.14750002,10.1999998 3.93750002,10.1999998 L1.125,10.1999998 C0.914999704,10.1999998 0.750000003,10.0349998 0.750000003,9.82499984 L0.750000003,5.32499982 L0.750000003,5.32499982 Z"/>
      <polygon points="18 12.728 0 17.228 0 18 18 13.5"/>
      <path d="M4.17749982 14.3999997C4.17749982 15.0000001 4.66500002 15.4874993 5.26499942 15.4874993 5.86499982 15.4874993 6.35250003 15.0000001 6.35250003 14.3999997 6.35250003 13.7999993 5.86499982 13.3125001 5.26499942 13.3125001 4.66500002 13.3125001 4.17749982 13.7999993 4.17749982 14.3999997L4.17749982 14.3999997zM1.46999981 15.1349984C1.46999981 15.7349988 1.95750001 16.2224999 2.55749991 16.2224999 3.15749981 16.2224999 3.64500052 15.7349988 3.64500052 15.1349984 3.64500052 14.5349999 3.15750031 14.0474988 2.55750041 14.0474988 1.95750051 14.0474988 1.46999981 14.5275003 1.46999981 15.1349984L1.46999981 15.1349984zM11.6174994 12.5400001C11.6174994 13.1399995 12.1049997 13.6275007 12.7050001 13.6275007 13.3050005 13.6275007 13.7924997 13.1400015 13.7924997 12.5400011 13.7924997 11.9400006 13.3050005 11.4525014 12.7050001 11.4525014 12.1049996 11.4525014 11.6174994 11.9399996 11.6174994 12.5400001L11.6174994 12.5400001zM14.3775006 11.8575001C14.3775006 12.4575006 14.8650017 12.9450008 15.4650002 12.9450008 16.0650006 12.9450008 16.5525017 12.4575006 16.5525017 11.8575001 16.5525017 11.2575007 16.0650006 10.7700005 15.4650002 10.7700005 14.8650018 10.7775002 14.3775006 11.2575006 14.3775006 11.8575001L14.3775006 11.8575001z"/>
    </g>
  </g>
</svg>
