<svg xmlns="http://www.w3.org/2000/svg" width="24" height="24" viewBox="0 0 24 24">
  <g fill="none" fill-rule="evenodd">
    <path fill="#2D327D" d="M22.5,0 L1.5,0 C0.675000003,0 0,0.675000003 0,1.5 L0,22.5 C0,23.3250009 0.675000003,24 1.5,24 L22.5,24 C23.3250009,24 24,23.3250009 24,22.5 L24,1.5 C24,0.675000003 23.3250009,0 22.5,0 Z"/>
    <g fill="#FFF" transform="translate(3 2)">
      <path d="M12.2250005,3.43750001 L5.76000022,2.30500031 C5.43000032,2.24499991 5.18250082,1.96000031 5.18250082,1.62250021 C5.18250082,1.24000031 5.49000072,0.925000004 5.87250042,0.925000004 C5.90999982,0.925000004 5.95500092,0.925000004 5.99250032,0.932499904 L12.4575006,2.06499961 C12.7875005,2.12500001 13.0349999,2.40999981 13.0349999,2.74749951 C13.0349999,3.12999971 12.7275,3.43749961 12.3450003,3.43749961 C12.3000003,3.44499971 12.2624999,3.44499971 12.2250005,3.43750001 L12.2250005,3.43750001 Z"/>
      <polygon points="18 5.515 0 2.365 0 1.675 18 4.833"/>
      <path fill-rule="nonzero" d="M0.750000003,9.25000004 C0.337500101,9.25000004 0,9.58749964 0,10 L0,18.2500001 C0,18.6625005 0.337500101,19.0000001 0.750000003,19.0000001 L17.2500001,19.0000001 C17.6625005,19.0000001 18,18.6625005 18,18.2500001 L18,10 C18,9.58749964 17.6625005,9.25000004 17.2500001,9.25000004 L13.5375005,9.25000004 L11.1674996,4.69750022 L9.86250024,4.47250032 L12.3525001,9.25000004 L5.60999872,9.25000004 L8.28749853,4.19499972 L7.23749933,4.01499992 L4.46249872,9.25750074 L0.750000003,9.25000004 L0.750000003,9.25000004 Z M12.2475005,14.1250001 L12.2475005,10.375 C12.2475005,10.165 12.4125005,10 12.6225005,10 L16.8750001,10 C17.0849992,10 17.2500001,10.165 17.2500001,10.375 L17.2500001,14.1250001 C17.2500001,14.3349992 17.0849992,14.5 16.8750001,14.5 L12.6225005,14.5 C12.4200002,14.5 12.2475005,14.3349992 12.2475005,14.1250001 L12.2475005,14.1250001 Z M6.50249963,14.1250001 L6.50249963,10.375 C6.50249963,10.165 6.66749963,10 6.87749963,10 L11.1299992,10 C11.3400002,10 11.5049992,10.165 11.5049992,10.375 L11.5049992,14.1250001 C11.5049992,14.3349992 11.3400002,14.5 11.1299992,14.5 L6.87749963,14.5 C6.66749953,14.5 6.50249963,14.3349992 6.50249963,14.1250001 L6.50249963,14.1250001 Z M0.750000003,14.1250001 L0.750000003,10.375 C0.750000003,10.165 0.914999704,10 1.125,10 L5.37749962,10 C5.58749962,10 5.75249962,10.165 5.75249962,10.375 L5.75249962,14.1250001 C5.75249962,14.3349992 5.58749962,14.5 5.37749962,14.5 L1.125,14.5 C0.914999704,14.5 0.750000003,14.3349992 0.750000003,14.1250001 L0.750000003,14.1250001 Z"/>
    </g>
  </g>
</svg>
