<svg xmlns="http://www.w3.org/2000/svg" width="24" height="24" viewBox="0 0 24 24">
  <g fill="none" fill-rule="evenodd">
    <path fill="#2D327D" d="M22.5,0 L1.5,0 C0.675000003,0 0,0.675000003 0,1.5 L0,22.5 C0,23.3250009 0.675000003,24 1.5,24 L22.5,24 C23.3250009,24 24,23.3250009 24,22.5 L24,1.5 C24,0.675000003 23.3250009,0 22.5,0 Z"/>
    <g fill="#FFF" transform="translate(3 2)">
      <path d="M5.77499962,3.43750001 L12.2399999,2.30500031 C12.5699998,2.24499991 12.8174993,1.96000031 12.8174993,1.62250021 C12.8174993,1.24000031 12.5099994,0.925000004 12.1274997,0.925000004 C12.0900003,0.925000004 12.0449992,0.925000004 12.0074998,0.932499904 L5.54249952,2.06499961 C5.21249962,2.12500001 4.96499972,2.40999981 4.96499972,2.74749951 C4.96499972,3.12999971 5.27250012,3.43749961 5.65499982,3.43749961 C5.69999982,3.44499971 5.73750022,3.44499971 5.77499962,3.43750001 L5.77499962,3.43750001 Z"/>
      <polygon points="0 5.515 18 2.365 18 1.675 0 4.833"/>
      <path fill-rule="nonzero" d="M17.2500001,9.25000004 L13.5375005,9.25000004 L10.7624998,4.00749972 L9.71249964,4.18750002 L12.3899995,9.24249944 L5.64749912,9.24249944 L8.13749893,4.46499972 L6.83249953,4.68999962 L4.46250012,9.25000004 L0.750000003,9.25000004 C0.337500101,9.25000004 0,9.58749964 0,10 L0,18.2500001 C0,18.6625005 0.337500101,19.0000001 0.750000003,19.0000001 L17.2500001,19.0000001 C17.6625005,19.0000001 18,18.6625005 18,18.2500001 L18,10 C18,9.58749964 17.6625005,9.25000004 17.2500001,9.25000004 L17.2500001,9.25000004 Z M5.75249962,14.1250001 C5.75249962,14.3349992 5.58749962,14.5 5.37749962,14.5 L1.125,14.5 C0.914999704,14.5 0.750000003,14.3349992 0.750000003,14.1250001 L0.750000003,10.375 C0.750000003,10.165 0.914999704,10 1.125,10 L5.37749962,10 C5.58749962,10 5.75249962,10.165 5.75249962,10.375 L5.75249962,14.1250001 L5.75249962,14.1250001 Z M11.4975004,14.1250001 C11.4975004,14.3349992 11.3325004,14.5 11.1225004,14.5 L6.87000083,14.5 C6.65999983,14.5 6.49500083,14.3349992 6.49500083,14.1250001 L6.49500083,10.375 C6.49500083,10.165 6.65999983,10 6.87000083,10 L11.1225004,10 C11.3325004,10 11.4975004,10.165 11.4975004,10.375 L11.4975004,14.1250001 L11.4975004,14.1250001 Z M17.2500001,14.1250001 C17.2500001,14.3349992 17.0849992,14.5 16.8750001,14.5 L12.6225005,14.5 C12.4125005,14.5 12.2475005,14.3349992 12.2475005,14.1250001 L12.2475005,10.375 C12.2475005,10.165 12.4125005,10 12.6225005,10 L16.8750001,10 C17.0849992,10 17.2500001,10.165 17.2500001,10.375 L17.2500001,14.1250001 L17.2500001,14.1250001 Z"/>
    </g>
  </g>
</svg>
