<svg xmlns="http://www.w3.org/2000/svg" width="24" height="24" viewBox="0 0 24 24">
  <g fill="none" fill-rule="evenodd">
    <path fill="#2D327D" d="M22.5,0 L1.5,0 C0.675000003,0 0,0.675000003 0,1.5 L0,22.5 C0,23.3250009 0.675000003,24 1.5,24 L22.5,24 C23.3250009,24 24,23.3250009 24,22.5 L24,1.5 C24,0.675000003 23.3250009,0 22.5,0 Z"/>
    <g fill="#FFF" transform="translate(3 3)">
      <polygon points="2.287 2.618 0 3 0 3.683 2.287 3.3"/>
      <polygon points="3.713 2.377 3.713 3.068 18 .682 18 0"/>
      <path fill-rule="nonzero" d="M5.25000002,8.25000003 L3.33750011,8.25000003 L3.33750011,1.72499991 L2.66249991,1.72499991 L2.66249991,8.25000003 L0.750000003,8.25000003 C0.337500101,8.25000003 0,8.58749964 0,9.00000004 L0,13.3500005 C0,13.4474984 0.00749990003,13.5450002 0.0300002001,13.6425 L0.780000203,17.3925 C0.847500304,17.7450009 1.1550002,17.9925004 1.51500031,17.9925004 L4.48500012,17.9925004 C4.84500022,17.9925004 5.15250012,17.7374993 5.22000022,17.3925 L5.97000022,13.6425 C5.99250032,13.5450002 6,13.4474984 6,13.3500005 L6,9.00000004 C6,8.58749964 5.66250042,8.25000003 5.25000002,8.25000003 L5.25000002,8.25000003 Z M5.25,13.1250001 C5.25,13.3349992 5.08500002,13.5 4.87500002,13.5 L1.125,13.5 C0.922500104,13.5 0.750000003,13.3349992 0.750000003,13.1250001 L0.750000003,9.37500004 C0.750000003,9.16500004 0.914999704,9.00000004 1.125,9.00000004 L4.87500002,9.00000004 C5.08500002,9.00000004 5.25,9.16500004 5.25,9.37500004 L5.25,13.1250001 L5.25,13.1250001 Z"/>
    </g>
  </g>
</svg>
