<svg xmlns="http://www.w3.org/2000/svg" width="24" height="24" viewBox="0 0 24 24">
  <g fill="none" fill-rule="evenodd">
    <path fill="#2D327D" d="M22.5,0 L1.5,0 C0.675000003,0 0,0.675000003 0,1.5 L0,22.5 C0,23.3250009 0.675000003,24 1.5,24 L22.5,24 C23.3250009,24 24,23.3250009 24,22.5 L24,1.5 C24,0.675000003 23.3250009,0 22.5,0 Z"/>
    <g fill="#FFF" transform="translate(3 3)">
      <polygon points="12.788 2.13 0 0 0 .682 12.788 2.813"/>
      <polygon points="14.587 2.43 14.587 3.113 18 3.683 18 3"/>
      <path d="M16.2749997,14.0249997 L16.2749997,10.3125 C16.2749997,9.68999964 15.7724992,9.18750004 15.1499997,9.18750004 C14.7825013,9.18750004 14.4449998,9.36749944 14.2349988,9.65999984 L12.3749991,12.2849999 C12.3149987,12.3750001 12.2849989,12.4724999 12.2849989,12.5774994 C12.2849989,12.8549996 12.5099993,13.0874996 12.7874985,13.0874996 C12.9524985,13.0874996 13.1099987,13.0049991 13.1999989,12.8700008 L13.9500009,11.8125 L13.9500009,13.3875009 L11.8874998,13.3875009 C11.4750004,13.3875009 11.1374998,13.7250005 11.1374998,14.1375009 L11.1374998,17.3099996 C11.1374998,17.6924993 11.4450006,18.0000001 11.835,18.0000001 C12.2175007,18.0000001 12.5249997,17.6924993 12.5249997,17.3099996 L12.5249997,14.7749998 L15.5249997,14.7749998 C15.9375001,14.7749997 16.2749997,14.4375001 16.2749997,14.0249997 L16.2749997,14.0249997 Z"/>
      <polygon points="14.175 1.5 13.2 1.5 13.2 5.43 17.025 6.067 17.025 15.525 13.2 15.525 13.2 16.5 18 16.5 18 5.242 14.175 4.605"/>
      <path d="M15.0150014,8.77499964 C15.5925027,8.77499964 16.0650006,8.30249983 16.0650006,7.72500043 C16.0650006,7.14750013 15.5925027,6.67500023 15.0150014,6.67500023 C14.4375001,6.67500023 13.9650003,7.14750003 13.9650003,7.72500043 C13.9650003,8.31000043 14.4375001,8.77499964 15.0150014,8.77499964 L15.0150014,8.77499964 Z"/>
    </g>
  </g>
</svg>
