<svg xmlns="http://www.w3.org/2000/svg" width="24" height="24" viewBox="0 0 24 24">
  <g fill="none" fill-rule="evenodd">
    <path fill="#2D327D" d="M22.5,0 L1.5,0 C0.675000003,0 0,0.675000003 0,1.5 L0,22.5 C0,23.3250009 0.675000003,24 1.5,24 L22.5,24 C23.3250009,24 24,23.3250009 24,22.5 L24,1.5 C24,0.675000003 23.3250009,0 22.5,0 Z"/>
    <g fill="#FFF" transform="translate(3 3)">
      <polygon points="5.212 2.13 18 0 18 .682 5.212 2.813"/>
      <polygon points="3.412 2.43 3.412 3.113 0 3.683 0 3"/>
      <path d="M1.72499991,14.0249997 L1.72499991,10.3125 C1.72499991,9.68999964 2.22750001,9.18750004 2.84999991,9.18750004 C3.21750021,9.18750004 3.55500031,9.36749944 3.76499992,9.65999984 L5.62500002,12.2849999 C5.68500042,12.3750001 5.71500022,12.4724999 5.71500022,12.5774994 C5.71500022,12.8549996 5.48999982,13.0874996 5.21249972,13.0874996 C5.04750072,13.0874996 4.88999992,13.0049991 4.80000032,12.8700008 L4.05000032,11.8124999 L4.05000032,13.3875008 L6.11250033,13.3875008 C6.52499973,13.3875008 6.86250033,13.7250004 6.86250033,14.1375008 L6.86250033,17.3099995 C6.86250033,17.6924993 6.55499943,18.0000001 6.16500003,18.0000001 C5.78249942,18.0000001 5.47500042,17.6924993 5.47500042,17.3099996 L5.47500042,14.7749998 L2.47499991,14.7749998 C2.06250001,14.7749997 1.72499991,14.4375001 1.72499991,14.0249997 L1.72499991,14.0249997 Z"/>
      <polygon points="3.825 1.5 4.8 1.5 4.8 5.43 .975 6.067 .975 15.525 4.8 15.525 4.8 16.5 0 16.5 0 5.242 3.825 4.605"/>
      <path d="M2.98500011,8.77499964 C2.40750021,8.77499964 1.93500041,8.30249983 1.93500041,7.72500043 C1.93500041,7.14750013 2.40750021,6.67500023 2.98500011,6.67500023 C3.56250001,6.67500023 4.03500032,7.14750003 4.03500032,7.72500043 C4.03500032,8.31000043 3.56250001,8.77499964 2.98500011,8.77499964 L2.98500011,8.77499964 Z"/>
    </g>
  </g>
</svg>
