<svg xmlns="http://www.w3.org/2000/svg" width="24" height="24" viewBox="0 0 24 24">
  <g fill="none" fill-rule="evenodd">
    <path fill="#2D327D" d="M22.5,0 L1.5,0 C0.675000003,0 0,0.675000003 0,1.5 L0,22.5 C0,23.3250009 0.675000003,24 1.5,24 L22.5,24 C23.3250009,24 24,23.3250009 24,22.5 L24,1.5 C24,0.675000003 23.3250009,0 22.5,0 Z"/>
    <g fill="#FFF" transform="translate(2 3)">
      <polygon points="8.762 6.592 15.355 0 16.36 0 9.265 7.095"/>
      <path d="M5.87500002,4.22999952 L9.15250024,7.50749973 C9.25749974,7.61249923 9.31000054,7.74749953 9.31000054,7.88999943 C9.31000054,8.18999963 9.07000074,8.42999944 8.76249994,8.42999944 C8.62000094,8.42999944 8.47750014,8.36999903 8.37999933,8.27249913 L5.87500002,5.76749992 L5.87500002,4.22999952 L5.87500002,4.22999952 Z"/>
      <polygon points="6.738 9.623 6.235 9.12 7.465 7.89 7.967 8.392"/>
      <path d="M1.105 5.58749962L3.22000021 3.47250031C3.46750061 3.22499991 3.81250042 3.08250041 4.16500042 3.08250041 4.90000012 3.08250041 5.4925008 3.68250032 5.4925008 4.41750042L5.4925008 8.91750044 7.14250083 10.567501C7.21000003 10.6350002 7.25500113 10.7325001 7.25500113 10.8300009L7.25500113 15.0525018C7.25500113 15.4350015 6.94750033 15.7425023 6.56500063 15.7425023 6.18250093 15.7425023 5.86750082 15.4350015 5.86750082 15.0525018L5.86750082 11.625 2.94250061 8.81250004C2.86750081 8.73750024 2.83000091 8.64750004 2.83000091 8.54249954L2.83000091 5.34749892 2.08000091 6.09749893 2.08000091 8.87249954C2.08000091 9.17249874 1.84000091 9.41249854 1.53250051 9.41249854 1.23250051 9.41249854.992500804 9.17249874.992500804 8.87249954L.992500804 5.85749912C1 5.75249962 1.0374999 5.66250042 1.105 5.58749962L1.105 5.58749962zM14.2749997 14.2950002C14.4849988 14.1525003 14.6349984 13.9350015 14.6875001 13.6875001L15.5499993 13.6875001C15.5049992 14.0474988 15.3400002 14.3775006 15.0775014 14.6250001 14.6800023 14.9849988 14.2000009 15.2325002 13.6750012 15.3599988L1 18.0000001 1 17.3099996 13.1725007 14.7749998C13.5625001 14.6924993 13.9375001 14.5275003 14.2749997 14.2950002L14.2749997 14.2950002z"/>
      <path d="M3.95499992 11.4299994C3.95499992 11.1299992 4.19499972 10.8824997 4.50250052 10.8824997 4.80250072 10.8824997 5.04250052 11.1299992 5.04250052 11.4299994 5.04250052 11.7299996 4.80250072 11.9775 4.50250102 11.9775 4.20249992 11.9775 3.95499992 11.7299995 3.95499992 11.4299994L3.95499992 11.4299994zM4.15749982 2.83500001C3.51249981 2.83500001 2.99499991 2.31750011 2.99499991 1.67250011 2.99499991 1.0275001 3.51249981.510000202 4.15749982.510000202 4.80249982.510000202 5.32000072 1.0275001 5.32000072 1.67250011 5.32000072 2.31750011 4.80249982 2.83500001 4.15749982 2.83500001L4.15749982 2.83500001z"/>
    </g>
  </g>
</svg>
