<svg xmlns="http://www.w3.org/2000/svg" width="24" height="24" viewBox="0 0 24 24">
  <g fill="none" fill-rule="evenodd">
    <path fill="#2D327D" d="M22.5,0 L1.5,0 C0.675000003,0 0,0.675000003 0,1.5 L0,22.5 C0,23.3250009 0.675000003,24 1.5,24 L22.5,24 C23.3250009,24 24,23.3250009 24,22.5 L24,1.5 C24,0.675000003 23.3250009,0 22.5,0 Z"/>
    <g fill="#FFF" transform="translate(5 3)">
      <polygon points="8.238 6.592 1.645 0 .632 0 7.728 7.095"/>
      <path d="M11.125,4.22999952 L7.84749983,7.50749973 C7.74250033,7.61249923 7.68999953,7.74749953 7.68999953,7.88999943 C7.68999953,8.18999963 7.92999933,8.42999944 8.23750013,8.42999944 C8.37999913,8.42999944 8.52249994,8.36999903 8.62000074,8.27249913 L11.1324996,5.76749992 L11.1324996,4.22999952 L11.125,4.22999952 Z"/>
      <polygon points="10.262 9.623 10.765 9.12 9.535 7.89 9.033 8.392"/>
      <path d="M15.8950006 5.58749962L13.7799989 3.47250031C13.5325013 3.22499991 13.1875001 3.08250051 12.8349992 3.08250051 12.1000005 3.08250051 11.5074978 3.68250042 11.5074978 4.41750052L11.5074978 8.91750054 9.85749824 10.5675011C9.78999904 10.6350003 9.74499804 10.7325001 9.74499804 10.8300009L9.74499804 15.0525018C9.74499804 15.4350015 10.0524988 15.7425023 10.4349976 15.7425023 10.8174982 15.7425023 11.1324978 15.4350015 11.1324978 15.0525018L11.1324978 11.625 14.057499 8.81250004C14.1324979 8.73750024 14.1699982 8.64750004 14.1699982 8.54249954L14.1699982 5.34749892 14.9199982 6.09749893 14.9199982 8.87249954C14.9199982 9.17249874 15.1599999 9.41249854 15.4674969 9.41249854 15.767498 9.41249854 16.0074978 9.17249874 16.0074978 8.87249954L16.0074978 5.85749912C16.0000001 5.75249962 15.9624997 5.66250042 15.8950006 5.58749962L15.8950006 5.58749962zM2.72499991 14.2950002C2.51499991 14.1525003 2.36499981 13.9350015 2.31250001 13.6875001L1.44999981 13.6875001C1.49499991 14.0474988 1.66000031 14.3775006 1.92250011 14.6250001 2.32000061 14.9849988 2.80000021 15.2325002 3.32499981 15.3599988L16.0000001 18.0000001 16.0000001 17.3099996 3.82749942 14.7749997C3.43750001 14.6924993 3.06250001 14.5275003 2.72499991 14.2950002L2.72499991 14.2950002z"/>
      <path d="M13.0450002 11.4299994C13.0450002 11.1299992 12.8050004 10.8824997 12.4975015 10.8824997 12.1975023 10.8824997 11.9575005 11.1299992 11.9575005 11.4299994 11.9575005 11.7299996 12.1975022 11.9775 12.4975015 11.9775 12.7974988 11.9775 13.0450002 11.7299995 13.0450002 11.4299994L13.0450002 11.4299994zM12.8424989 2.83500001C13.4799997 2.83500001 14.0049993 2.31750011 14.0049993 1.67250011 14.0049993 1.0275001 13.4874994.510000202 12.8424989.510000202 12.1974984.510000202 11.6800003 1.0275001 11.6800003 1.67250011 11.6800003 2.31750011 12.1974984 2.83500001 12.8424989 2.83500001L12.8424989 2.83500001z"/>
    </g>
  </g>
</svg>
