<svg xmlns="http://www.w3.org/2000/svg" width="24" height="24" viewBox="0 0 24 24">
  <g fill="none" fill-rule="evenodd">
    <path fill="#2D327D" d="M22.5,0 L1.5,0 C0.675000003,0 0,0.675000003 0,1.5 L0,22.5 C0,23.3250009 0.675000003,24 1.5,24 L22.5,24 C23.3250009,24 24,23.3250009 24,22.5 L24,1.5 C24,0.675000003 23.3250009,0 22.5,0 Z"/>
    <g fill="#FFF" transform="translate(3 3)">
      <polygon points="9 8.64 9.75 8.64 9.75 10.14 9 10.14"/>
      <path fill-rule="nonzero" d="M2.57999991,10.7325001 C2.79000041,10.5225001 3.07499981,10.4025011 3.37500001,10.4025011 L9.86250024,10.4025011 C10.1625004,10.4025011 10.4475002,10.522501 10.6575003,10.7325001 L13.2749998,13.3500005 L17.6625006,13.7174989 C17.8575003,13.7325002 18.0074999,13.8974992 18.0074999,14.0924989 L18.0074999,16.4249994 C18.0074999,16.6349985 17.842499,16.7999994 17.6324999,16.7999994 L17.6324999,16.7999994 L17.2200014,16.7999994 L17.2200014,16.3650018 C17.2200014,15.120001 16.2150003,14.1150018 14.9700014,14.1150018 C13.7250006,14.1150018 12.7200004,15.120001 12.7200004,16.3650018 L12.7200004,16.7999994 L5.25000002,16.7999994 L5.25000002,16.3650018 C5.25000002,15.120001 4.24500042,14.1150018 3,14.1150018 C1.75499961,14.1150018 0.750000003,15.120001 0.750000003,16.3650018 L0.750000003,16.7999994 L0.375000002,16.7999994 C0.164999701,16.7999994 0,16.6349985 0,16.4249994 L0,13.785 C0,13.4849989 0.1199999,13.199999 0.330000201,12.989999 L2.57999991,10.7325001 L2.57999991,10.7325001 Z M7.08749963,11.4975004 L7.08749963,13.0349999 C7.08749963,13.2450009 7.25249963,13.4099999 7.46249963,13.4099999 L11.7224998,13.4099999 C11.8500003,13.4099999 11.9475002,13.3125001 11.9475002,13.1849995 C11.9475002,13.1249981 11.9250002,13.0649987 11.880001,13.0274983 L10.0874996,11.2349987 C10.0200014,11.1674995 9.92250154,11.1224995 9.82500074,11.1224995 L7.46250153,11.1224995 C7.25249963,11.1149998 7.08749963,11.2875004 7.08749963,11.4975004 L7.08749963,11.4975004 L7.08749963,11.4975004 Z M1.51499991,13.4025003 L6.00000003,13.4025003 C6.21000003,13.4025003 6.37500003,13.2374994 6.37500003,13.0275003 L6.37500003,11.4900008 C6.37500003,11.2800008 6.21000003,11.1150008 6.00000003,11.1150008 L3.41249991,11.1150008 C3.31499961,11.1150008 3.21750021,11.1525012 3.15000011,11.227501 L1.35750011,13.0200006 C1.31250001,13.0650006 1.29000001,13.1175004 1.29000001,13.1775018 C1.29000001,13.3050004 1.38749981,13.4025003 1.51499991,13.4025003 L1.51499991,13.4025003 Z"/>
      <path d="M2.98500011 17.3325006C3.50250051 17.3325006 3.92250012 16.9125005 3.92250012 16.3950006 3.92250012 15.8775007 3.50250051 15.4575006 2.98500011 15.4575006 2.46749971 15.4575006 2.04750011 15.8775007 2.04750011 16.3950006 2.04750011 16.9125005 2.46750021 17.3325006 2.98500011 17.3325006L2.98500011 17.3325006zM3.00749971 14.6775018C3.95249992 14.6775018 4.71749972 15.4425012 4.71749972 16.3875009 4.71749972 17.3325006 3.95249982 18.0975 3.00749921 18.0975 2.06249861 18.0975 1.29750011 17.3250009 1.29750011 16.3875009 1.29750011 15.4424993 2.06250001 14.6775018 3.00749971 14.6775018L3.00749971 14.6775018zM14.9624997 17.3325006C15.4799996 17.3325006 15.8999997 16.9125005 15.8999997 16.3950006 15.8999997 15.8775007 15.4799996 15.4575006 14.9624997 15.4575006 14.4449998 15.4575006 14.0249997 15.8775007 14.0249997 16.3950006 14.0249997 16.9125005 14.4449998 17.3325006 14.9624997 17.3325006L14.9624997 17.3325006zM14.9624997 14.6924993C15.9075013 14.6924993 16.665001 15.4575006 16.665001 16.4024984 16.665001 17.3475 15.8999997 18.1124975 14.9624997 18.1124975 14.0175 18.1124975 13.2525006 17.3474962 13.2525006 16.4024984 13.2525006 15.4575006 14.0175 14.6924993 14.9624997 14.6924993L14.9624997 14.6924993z"/>
      <polygon points="1.853 0 1.853 .412 1.17 .412 1.17 2.25 .682 2.25 .682 .412 0 .412 0 0"/>
      <path fill-rule="nonzero" d="M3.32999991,2.25000001 L2.87250041,2.25000001 C2.84999991,2.18249991 2.84250021,2.13000011 2.84250021,2.08500001 C2.69999981,2.22750041 2.52000001,2.30250021 2.30250021,2.30250021 C2.13000011,2.30250021 1.99500031,2.26500031 1.89750001,2.18250031 C1.78500031,2.09250071 1.73250061,1.96500021 1.73250061,1.80000071 C1.73250061,1.59000021 1.83000091,1.44750071 2.01750091,1.36500031 C2.09250071,1.33500001 2.23500061,1.30500031 2.44500061,1.27500061 C2.62500041,1.25250061 2.73000041,1.23000051 2.77500051,1.20750051 C2.82000061,1.1850005 2.84250061,1.1400004 2.84250061,1.0725003 C2.84250061,0.922500204 2.74500031,0.855000104 2.55000061,0.855000104 C2.44500061,0.855000104 2.37000031,0.870000004 2.32500071,0.907499904 C2.28000071,0.944999904 2.24250081,1.0050001 2.22750041,1.1025 L1.80750041,1.1025 C1.82250031,0.914999804 1.89000041,0.772499603 2.01750091,0.682499903 C2.14500051,0.584999602 2.32500081,0.539999702 2.55750041,0.539999702 C2.82000071,0.539999702 3.00750071,0.592499502 3.13500031,0.697499703 C3.19500071,0.749999503 3.23250061,0.802499703 3.24750051,0.854999504 C3.26249991,0.907499304 3.27750021,0.997499704 3.27750021,1.1249995 C3.27750021,1.1474995 3.27750021,1.25999971 3.27000051,1.46249961 C3.27000051,1.66499901 3.27000051,1.77749921 3.27000051,1.80749941 C3.27000051,1.92749931 3.27000051,2.01749941 3.27750021,2.07749941 C3.29250001,2.11499981 3.30749991,2.18249991 3.32999991,2.25000001 Z M2.84250021,1.43999961 C2.78249981,1.47750001 2.67750021,1.50749971 2.52750011,1.52249961 C2.42250011,1.53749951 2.34750031,1.55999951 2.29500051,1.58250001 C2.22750041,1.61999991 2.19750021,1.68000031 2.19750021,1.76249981 C2.19750021,1.82999991 2.22000021,1.88999991 2.26500031,1.92749981 C2.31000041,1.96499971 2.37000031,1.98750021 2.45250031,1.98750021 C2.58750051,1.98750021 2.69250011,1.94250011 2.76749991,1.85250001 C2.79750011,1.82249981 2.81250001,1.78499981 2.82750031,1.75499961 C2.84250061,1.72499941 2.84250021,1.67249961 2.84250021,1.61999941 L2.84250021,1.43999961 Z"/>
      <polygon points="5.13 .57 4.598 1.35 5.205 2.25 4.688 2.25 4.343 1.702 4.005 2.25 3.495 2.25 4.088 1.358 3.548 .57 4.058 .57 4.35 1.02 4.635 .57 5.13 .57"/>
      <path fill-rule="nonzero" d="M5.82000062,5.55111512e-17 L5.82000062,0.405000202 L5.37750052,0.405000202 L5.37750052,5.55111512e-17 L5.82000062,5.55111512e-17 Z M5.82000062,0.569999902 L5.82000062,2.25000001 L5.37750052,2.25000001 L5.37750052,0.569999902 L5.82000062,0.569999902 Z"/>
    </g>
  </g>
</svg>
