<svg xmlns="http://www.w3.org/2000/svg" width="24" height="24" viewBox="0 0 24 24">
  <g fill="none" fill-rule="evenodd">
    <path fill="#2D327D" d="M22.5,0 L1.5,0 C0.675000003,0 0,0.675000003 0,1.5 L0,22.5 C0,23.3250009 0.675000003,24 1.5,24 L22.5,24 C23.3250009,24 24,23.3250009 24,22.5 L24,1.5 C24,0.675000003 23.3250009,0 22.5,0 Z"/>
    <g fill="#FFF" transform="translate(3 3)">
      <polygon points="8.25 8.64 9 8.64 9 10.14 8.25 10.14"/>
      <path fill-rule="nonzero" d="M15.4200002,10.7325001 C15.2100011,10.5225001 14.9249994,10.4025011 14.6250001,10.4025011 L8.13749983,10.4025011 C7.83749963,10.4025011 7.55249983,10.522501 7.34249973,10.7325001 L4.73250052,13.3500005 L0.345000701,13.7174989 C0.150000801,13.7325002 7.00000002e-07,13.8974992 7.00000002e-07,14.0924989 L7.00000002e-07,16.4249994 C7.00000002e-07,16.6349985 0.165000701,16.7999994 0.375000702,16.7999994 L0.375000702,16.7999994 L0.787500803,16.7999994 L0.787500803,16.3650018 C0.787500803,15.120001 1.79250071,14.1150018 3.03750061,14.1150018 C4.28250052,14.1150018 5.28750062,15.120001 5.28750062,16.3650018 L5.28750062,16.7999994 L12.7500001,16.7999994 L12.7500001,16.3650018 C12.7500001,15.120001 13.7549993,14.1150018 15.0000007,14.1150018 C16.2450009,14.1150018 17.2500001,15.120001 17.2500001,16.3650018 L17.2500001,16.7999994 L17.6250001,16.7999994 C17.8349992,16.7999994 18.0000007,16.6349985 18.0000007,16.4249994 L18.0000007,13.785 C18.0000007,13.4849989 17.8799993,13.199999 17.6700002,12.989999 L15.4200002,10.7325001 L15.4200002,10.7325001 Z M10.9125004,11.4975004 L10.9125004,13.0349999 C10.9125004,13.2450009 10.7475004,13.4099999 10.5375004,13.4099999 L6.27750023,13.4099999 C6.14999973,13.4099999 6.05249983,13.3125001 6.05249983,13.1849995 C6.05249983,13.1249981 6.07499983,13.0649987 6.11999903,13.0274983 L7.91249853,11.2349987 C7.97999863,11.1674995 8.07749853,11.1224995 8.17499933,11.1224995 L10.5374985,11.1224995 C10.7475004,11.1149998 10.9125004,11.2875004 10.9125004,11.4975004 L10.9125004,11.4975004 L10.9125004,11.4975004 Z M16.4849988,13.4025003 L12.0000001,13.4025003 C11.79,13.4025003 11.625,13.2374994 11.625,13.0275003 L11.625,11.4900008 C11.625,11.2800008 11.79,11.1150008 12.0000001,11.1150008 L14.5874997,11.1150008 C14.6849995,11.1150008 14.7825013,11.1525012 14.8500005,11.227501 L16.6425,13.0200006 C16.6875001,13.0650007 16.7099992,13.1175004 16.7099992,13.1775018 C16.7099992,13.3050004 16.6124993,13.4025003 16.4849988,13.4025003 L16.4849988,13.4025003 Z"/>
      <path d="M15.0150014 17.3325006C14.4975015 17.3325006 14.0775014 16.9125005 14.0775014 16.3950006 14.0775014 15.8775007 14.4975015 15.4575006 15.0150014 15.4575006 15.5325013 15.4575006 15.9525014 15.8775007 15.9525014 16.3950006 15.9525014 16.9125005 15.5325013 17.3325006 15.0150014 17.3325006L15.0150014 17.3325006zM14.9925004 14.6775018C14.0474988 14.6775018 13.2825013 15.4425012 13.2825013 16.3875009 13.2825013 17.3325006 14.0475007 18.0975 14.9925004 18.0975 15.9374982 18.0975 16.7024995 17.3324987 16.7024995 16.3875009 16.7024995 15.4424993 15.9375001 14.6775018 14.9925004 14.6775018L14.9925004 14.6775018zM3.03749991 17.3325006C2.52000001 17.3325006 2.09999991 16.9125005 2.09999991 16.3950006 2.09999991 15.8775007 2.52000001 15.4575006 3.03749991 15.4575006 3.55499981 15.4575006 3.97499992 15.8775007 3.97499992 16.3950006 3.97499992 16.9125005 3.55500031 17.3325006 3.03749991 17.3325006L3.03749991 17.3325006zM3.03749991 14.6924993C2.09250021 14.6924993 1.33500001 15.4575006 1.33500001 16.4024984 1.33500001 17.3475 2.09999991 18.1124975 3.03749991 18.1124975 3.98250052 18.1124975 4.74750042 17.3474962 4.74750042 16.4024984 4.74750042 15.4575006 3.98250062 14.6924993 3.03749991 14.6924993L3.03749991 14.6924993z"/>
      <polygon points="1.853 0 1.853 .412 1.17 .412 1.17 2.25 .682 2.25 .682 .412 0 .412 0 0"/>
      <path fill-rule="nonzero" d="M3.32999991,2.25000001 L2.87250041,2.25000001 C2.84999991,2.18249991 2.84250021,2.13000011 2.84250021,2.08500001 C2.69999981,2.22750041 2.52000001,2.30250021 2.30250021,2.30250021 C2.13000011,2.30250021 1.99500031,2.26500031 1.89750001,2.18250031 C1.78500031,2.09250071 1.73250061,1.96500021 1.73250061,1.80000071 C1.73250061,1.59000021 1.83000091,1.44750071 2.01750091,1.36500031 C2.09250071,1.33500001 2.23500061,1.30500031 2.44500061,1.27500061 C2.62500041,1.25250061 2.73000041,1.23000051 2.77500051,1.20750051 C2.82000061,1.1850005 2.84250061,1.1400004 2.84250061,1.0725003 C2.84250061,0.922500204 2.74500031,0.855000104 2.55000061,0.855000104 C2.44500061,0.855000104 2.37000031,0.870000004 2.32500071,0.907499904 C2.28000071,0.944999904 2.24250081,1.0050001 2.22750041,1.1025 L1.80750041,1.1025 C1.82250031,0.914999804 1.89000041,0.772499603 2.01750091,0.682499903 C2.14500051,0.584999602 2.32500081,0.539999702 2.55750041,0.539999702 C2.82000071,0.539999702 3.00750071,0.592499502 3.13500031,0.697499703 C3.19500071,0.749999503 3.23250061,0.802499703 3.24750051,0.854999504 C3.26249991,0.907499304 3.27750021,0.997499704 3.27750021,1.1249995 C3.27750021,1.1474995 3.27750021,1.25999971 3.27000051,1.46249961 C3.27000051,1.66499901 3.27000051,1.77749921 3.27000051,1.80749941 C3.27000051,1.92749931 3.27000051,2.01749941 3.27750021,2.07749941 C3.29250001,2.11499981 3.30749991,2.18249991 3.32999991,2.25000001 Z M2.84250021,1.43999961 C2.78249981,1.47750001 2.67750021,1.50749971 2.52750011,1.52249961 C2.42250011,1.53749951 2.34750031,1.55999951 2.29500051,1.58250001 C2.22750041,1.61999991 2.19750021,1.68000031 2.19750021,1.76249981 C2.19750021,1.82999991 2.22000021,1.88999991 2.26500031,1.92749981 C2.31000041,1.96499971 2.37000031,1.98750021 2.45250031,1.98750021 C2.58750051,1.98750021 2.69250011,1.94250011 2.76749991,1.85250001 C2.79750011,1.82249981 2.81250001,1.78499981 2.82750031,1.75499961 C2.84250061,1.72499941 2.84250021,1.67249961 2.84250021,1.61999941 L2.84250021,1.43999961 Z"/>
      <polygon points="5.13 .57 4.598 1.35 5.205 2.25 4.688 2.25 4.343 1.702 4.005 2.25 3.495 2.25 4.088 1.358 3.548 .57 4.058 .57 4.35 1.02 4.635 .57 5.13 .57"/>
      <path fill-rule="nonzero" d="M5.82000062,5.55111512e-17 L5.82000062,0.405000202 L5.37750052,0.405000202 L5.37750052,5.55111512e-17 L5.82000062,5.55111512e-17 Z M5.82000062,0.569999902 L5.82000062,2.25000001 L5.37750052,2.25000001 L5.37750052,0.569999902 L5.82000062,0.569999902 Z"/>
    </g>
  </g>
</svg>
