<svg xmlns="http://www.w3.org/2000/svg" width="24" height="24" viewBox="0 0 24 24">
  <g fill="none" fill-rule="evenodd">
    <path fill="#2D327D" d="M22.5,0 L1.5,0 C0.675000003,0 0,0.675000003 0,1.5 L0,22.5 C0,23.3250009 0.675000003,24 1.5,24 L22.5,24 C23.3250009,24 24,23.3250009 24,22.5 L24,1.5 C24,0.675000003 23.3250009,0 22.5,0 Z"/>
    <g fill="#FFF" transform="translate(3 2)">
      <path fill-rule="nonzero" d="M2.57999991,11.7325001 L0.330000101,13.9825002 C0.1199999,14.1925012 0,14.477501 0,14.7775003 L0,17.4249994 C0,17.6349985 0.164999701,17.7999994 0.375000002,17.7999994 L0.750000003,17.7999994 L0.750000003,17.3650018 C0.750000003,16.120001 1.75500011,15.1150018 3,15.1150018 C4.24499992,15.1150018 5.25000002,16.120001 5.25000002,17.3650018 L5.25000002,17.7999994 L12.7124997,17.7999994 L12.7124997,17.3650018 C12.7124997,16.120001 13.7174989,15.1150018 14.9624997,15.1150018 C16.2075005,15.1150018 17.2124997,16.120001 17.2124997,17.3650018 L17.2124997,17.7999994 L17.6250001,17.7999994 L17.6250001,17.7999994 C17.8349992,17.7999994 18,17.6349985 18,17.4249994 L18,15.0849992 C18,14.8899995 17.8500005,14.7250005 17.6549989,14.7099992 L13.2675,14.3424989 L10.6499996,11.7250004 C10.4399996,11.5149994 10.1549997,11.3950005 9.85499954,11.3950005 L3.37500001,11.3950005 C3.07499981,11.4099998 2.79000001,11.5225 2.57999991,11.7325001 L2.57999991,11.7325001 Z M7.08749863,12.4975005 L7.08749863,12.4975005 C7.08749863,12.2875005 7.25249963,12.1225005 7.46249963,12.1225005 L9.82499984,12.1225005 C9.92250064,12.1225005 10.0200004,12.1599999 10.0874986,12.2350007 L11.8799991,14.0275002 C11.9250001,14.0725003 11.9474992,14.125 11.9474992,14.1849995 C11.9474992,14.3125 11.8499984,14.4099999 11.7224988,14.4099999 L7.46249863,14.4099999 C7.25249863,14.4099999 7.08749863,14.244999 7.08749863,14.0349999 L7.08749863,12.4975005 L7.08749863,12.4975005 Z M1.51499991,14.4100001 C1.38749981,14.4100001 1.29000001,14.3125001 1.29000001,14.1849996 C1.29000001,14.1249982 1.31250001,14.0649988 1.35750011,14.0274984 L3.15000011,12.2349989 C3.21750021,12.1674997 3.31499961,12.1224997 3.41249991,12.1224997 L6.00000003,12.1224997 C6.21000003,12.1224997 6.37500003,12.2874987 6.37500003,12.4974997 L6.37500003,14.0350001 C6.37500003,14.2449992 6.21000003,14.4100001 6.00000003,14.4100001 L1.51499991,14.4100001 L1.51499991,14.4100001 Z"/>
      <path d="M2.98500011 18.3325006C2.46750021 18.3325006 2.04750011 17.9125005 2.04750011 17.3950006 2.04750011 16.8775007 2.46750021 16.4575006 2.98500011 16.4575006 3.50250001 16.4575006 3.92250012 16.8775007 3.92250012 17.3950006 3.92250012 17.9200002 3.50249961 18.3325006 2.98500011 18.3325006L2.98500011 18.3325006zM3.00749971 15.6775018C2.06250001 15.6775018 1.29750011 16.4425012 1.29750011 17.3875009 1.29750011 18.3325006 2.06250001 19.0974999 3.00750061 19.0974999 3.95250122 19.0974999 4.71750062 18.3324986 4.71750062 17.3875008 4.71000002 16.4424993 3.94500062 15.6775018 3.00749971 15.6775018L3.00749971 15.6775018zM14.9624997 18.3325006C14.4449998 18.3325006 14.0249997 17.9125005 14.0249997 17.3950006 14.0249997 16.8775007 14.4449998 16.4575006 14.9624997 16.4575006 15.4799996 16.4575006 15.8999997 16.8775007 15.8999997 17.3950006 15.8999997 17.9125005 15.4799996 18.3325006 14.9624997 18.3325006L14.9624997 18.3325006zM14.9624997 15.6924993C14.0175 15.6924993 13.2525006 16.4575006 13.2525006 17.4024984 13.2525006 18.3475 14.0175019 19.1124975 14.9624997 19.1124975 15.9075013 19.1124975 16.665001 18.3474962 16.665001 17.4024984 16.665001 16.4575006 15.8999997 15.6924993 14.9624997 15.6924993L14.9624997 15.6924993zM2.21250011 2.38000011C2.19750021 2.61250021 2.11499981 2.81500051 1.98000001 2.98000001 1.80000021 3.19750021 1.53749991 3.30250021 1.2075 3.30250021.855000003 3.30250021.577499902 3.17500061.375000001 2.92750021.2024999 2.71000001.1199999 2.4475007.1199999 2.12500051.1199999 1.78750061.2175002 1.51000071.419999901 1.28500081.622499802 1.0600009.884999803.947500704 1.2224999.947500704 1.52999981.947500704 1.78499991 1.052501 1.97249991 1.25500061 2.10750011 1.39750081 2.18249991 1.56250051 2.19749981 1.75750041L1.70999961 1.75750041C1.67999941 1.63000061 1.62749961 1.53250051 1.53749951 1.46500041 1.44749981 1.39750031 1.34249971 1.36000011 1.2074995 1.36000011.997499004 1.36000011.832499303 1.45000001.727499203 1.63000011.644999202 1.76500031.607499302 1.93000011.607499302 2.13249971.607499302 2.33499961.652499102 2.50749971.734999103 2.64249991.839999103 2.81500051.997498904 2.90500021 1.2074994 2.90500021 1.35749901 2.90500021 1.46999921 2.86000011 1.55999891 2.77750011 1.64999861 2.68750041 1.70249931 2.56000041 1.72499891 2.39500041L2.21250011 2.38000011 2.21250011 2.38000011z"/>
      <path fill-rule="nonzero" d="M4.01249982,3.25000001 L3.55500031,3.25000001 C3.53249981,3.18249991 3.52500011,3.13000011 3.52500011,3.08500001 C3.38249971,3.22750041 3.20249991,3.30250021 2.98500011,3.30250021 C2.81250001,3.30250021 2.67750021,3.26500031 2.57999991,3.18250031 C2.46750021,3.09250071 2.41500041,2.96500021 2.41500041,2.80000071 C2.41500041,2.59000021 2.51250071,2.44750071 2.70000071,2.36500031 C2.77500061,2.33500001 2.91750051,2.30500031 3.12750051,2.27500061 C3.30750031,2.25250061 3.41250031,2.23000051 3.45750041,2.20750051 C3.50250051,2.18500051 3.52500051,2.14000041 3.52500051,2.07250031 C3.52500051,1.92250021 3.42750021,1.85500011 3.23250051,1.85500011 C3.12750051,1.85500011 3.05250021,1.87000001 3.00750061,1.90749991 C2.96250061,1.94499991 2.92500071,2.00500011 2.91000031,2.10250001 L2.49000021,2.10250001 C2.50500011,1.91499981 2.57250021,1.77249961 2.70000071,1.68249991 C2.82750031,1.58499961 3.00750061,1.53999971 3.24000021,1.53999971 C3.50250051,1.53999971 3.69000102,1.59249951 3.81750052,1.69749971 C3.87750092,1.74999951 3.91500041,1.80249971 3.93000072,1.85499951 C3.94500062,1.90749931 3.96000002,1.99749971 3.96000002,2.12499951 C3.96000002,2.14749951 3.96000002,2.25999971 3.95249982,2.46249961 C3.95249982,2.66499901 3.95249982,2.77749921 3.95249982,2.80749941 C3.95249982,2.92749931 3.95249982,3.01749941 3.96000002,3.07749941 C3.96749972,3.11499981 3.98250062,3.18249991 4.01249982,3.25000001 Z M3.51749991,2.43999961 C3.45750001,2.47750001 3.35250041,2.50749971 3.20250031,2.52249961 C3.09750031,2.53749941 3.02250001,2.55999951 2.97000031,2.58250001 C2.90250021,2.61999991 2.87250041,2.68000031 2.87250041,2.76249981 C2.87250041,2.82999991 2.89500041,2.88999991 2.94000051,2.92749981 C2.98500011,2.96499971 3.04500051,2.98750021 3.12750051,2.98750021 C3.26250071,2.98750021 3.36750031,2.94250011 3.44250011,2.85250001 C3.47250031,2.82249981 3.48750021,2.78499991 3.50250051,2.75499971 C3.51000021,2.71749981 3.51749991,2.67249971 3.51749991,2.61999951 L3.51749991,2.43999961 L3.51749991,2.43999961 Z"/>
      <path d="M5.34749982 1.53999971L5.34749982 1.97499991C5.27250002 1.96000031 5.22000022 1.95249991 5.17500012 1.95249991 5.01000012 1.95249991 4.88999982 2.02000001 4.80750032 2.16249991 4.76249982 2.23750021 4.74000072 2.37250041 4.74000072 2.55249981L4.74000072 3.25000001 4.29750162 3.25000001 4.29750162 1.56999991 4.72500142 1.56999991 4.72500142 1.87749981C4.84500182 1.65249971 5.02500162 1.53249981 5.25000102 1.53249981 5.27250002 1.53249981 5.31000042 1.53999971 5.34749982 1.53999971zM8.11499983 1.66750001L7.64999963 1.66750001C7.64249993 1.55500001 7.59749983 1.47250031 7.52999973 1.41249991 7.45499993 1.35249971 7.35749913 1.32250021 7.22249893 1.32250021 7.10999873 1.32250021 7.01999953 1.34500051 6.95249843 1.39000031 6.88499923 1.43500011 6.85499863 1.50250031 6.85499863 1.58500021 6.85499863 1.66000021 6.88499833 1.71250001 6.94499783 1.74250001 7.00499823 1.77250021 7.15499883 1.82500001 7.39499863 1.87750021 7.64999783 1.93750041 7.82999813 2.00500001 7.92749893 2.07250011 8.10749833 2.19250001 8.19749943 2.35750041 8.19749943 2.56750001 8.19749943 2.80000011 8.10749923 2.98750011 7.92749893 3.11500011 7.76999863 3.23500001 7.54499833 3.29500041 7.27499873 3.29500041 6.96749883 3.29500041 6.73499873 3.22750031 6.56249913 3.08499991 6.38999843 2.94250011 6.30749893 2.74750041 6.29999923 2.49250031L6.78749843 2.49250031C6.79499913 2.61999991 6.82499893 2.71000001 6.88499933 2.77000001 6.97499853 2.86750031 7.10999873 2.91249991 7.28999903 2.91249991 7.40999893 2.91249991 7.50749783 2.88999991 7.58249853 2.83750011 7.66499903 2.78500031 7.70249843 2.71000001 7.70249843 2.61250021 7.70249843 2.51499991 7.64249803 2.44750021 7.52999873 2.40249971 7.46999833 2.37999971 7.31999773 2.33499961 7.08749863 2.26749951 6.94499963 2.22999961 6.82499883 2.19249971 6.74249833 2.15499981 6.65999793 2.11749941 6.59249883 2.07999941 6.54749773 2.03499981 6.43499753 1.92999951 6.37499803 1.78749941 6.37499803 1.60749981 6.37499803 1.38999981 6.46499723 1.21750021 6.64499853 1.0974996 6.79499813.992499604 6.99749753.932499904 7.23749733.932499904 7.45499703.932499904 7.62749763.977499704 7.77749733 1.0599997 7.99500083 1.1949999 8.10000043 1.38999991 8.11499983 1.66750001zM8.93999964 1L8.93999964 1.80249981C8.99249944 1.71250011 9.06000044 1.64500001 9.14999964 1.59249951 9.23999984 1.53999971 9.33749964 1.51749951 9.44999984 1.51749951 9.67500024 1.51749951 9.83250044 1.59999951 9.92999934 1.75749931 9.98999974 1.84749921 10.0124998 1.98999941 10.0124998 2.18499911L10.0124998 3.25000001 9.57000064 3.25000001 9.57000064 2.26000021C9.57000064 2.14000031 9.55500034 2.05000021 9.51750084 2.00500011 9.46500104 1.93750001 9.39000124 1.90000011 9.28499984 1.90000011 9.14250084 1.90000011 9.04500004 1.96000031 8.98500064 2.08750011 8.97000034 2.12500001 8.95500094 2.17000011 8.94750024 2.21499971 8.93999964 2.25999981 8.93999964 2.33499961 8.93999964 2.43249991L8.93999964 3.25749971 8.49750044 3.25749971 8.49750044 1 8.93999964 1z"/>
      <path fill-rule="nonzero" d="M11.8799992,3.25000001 L11.4224987,3.25000001 C11.3999987,3.18249991 11.3924999,3.13000011 11.3924999,3.08500001 C11.25,3.22750041 11.0699997,3.30250021 10.8525,3.30250021 C10.6799994,3.30250021 10.5449992,3.26500031 10.4475003,3.18250031 C10.3350001,3.09250061 10.2825003,2.96500011 10.2825003,2.80000061 C10.2825003,2.59000011 10.3800011,2.44750061 10.5675011,2.36500021 C10.6425009,2.33500001 10.7849998,2.30500031 10.9950008,2.27500061 C11.1750002,2.25250061 11.2800006,2.23000051 11.3249998,2.20750051 C11.3700008,2.18500051 11.3924999,2.14000041 11.3924999,2.07250031 C11.3924999,1.92250021 11.2949991,1.85500011 11.1000004,1.85500011 C10.9950009,1.85500011 10.9200001,1.87000001 10.875,1.90749991 C10.8299999,1.94499991 10.7924995,2.00500011 10.7775002,2.10250001 L10.3574992,2.10250001 C10.3724995,1.91499981 10.4399997,1.77249961 10.5674992,1.68249991 C10.6949997,1.58499961 10.875,1.53999971 11.1074992,1.53999971 C11.369999,1.53999971 11.557499,1.59249951 11.6849995,1.69749971 C11.744999,1.74999951 11.7825003,1.80249971 11.7974987,1.85499951 C11.812499,1.90749931 11.8274984,1.99749971 11.8274984,2.12499951 C11.8274984,2.14749951 11.8274984,2.25999971 11.8199978,2.46249961 C11.8199978,2.66499901 11.8199978,2.77749921 11.8199978,2.80749941 C11.8199978,2.92749931 11.8199978,3.01749941 11.8274984,3.07749941 C11.8424997,3.11499981 11.8575001,3.18249991 11.8799992,3.25000001 Z M11.3924999,2.43999961 C11.3324995,2.47750001 11.2274999,2.50749971 11.0774994,2.52249961 C10.9724998,2.53749941 10.8975,2.55999951 10.8449993,2.58250001 C10.7775001,2.61999991 10.7474995,2.68000031 10.7474995,2.76249981 C10.7474995,2.82999991 10.7699995,2.88999991 10.8149987,2.92749981 C10.8599988,2.96499971 10.9199982,2.98750021 11.0024987,2.98750021 C11.1374989,2.98750021 11.2424985,2.94250011 11.3174983,2.85250001 C11.347498,2.82249981 11.3624993,2.78499991 11.3774987,2.75499971 C11.3849993,2.71749981 11.3924981,2.67249971 11.3924981,2.61999951 L11.3924999,2.43999961 L11.3924999,2.43999961 Z"/>
      <path d="M13.2150003,1.53999971 L13.2150003,1.97499991 C13.1400014,1.96000031 13.0875017,1.95249991 13.0425016,1.95249991 C12.8775007,1.95249991 12.7575008,2.02000001 12.6750013,2.16249991 C12.6300012,2.23750021 12.6075021,2.37250041 12.6075021,2.55249981 L12.6075021,3.25000001 L12.165002,3.25000001 L12.165002,1.56999991 L12.5925018,1.56999991 L12.5925018,1.87749981 C12.7125026,1.65249971 12.892502,1.53249981 13.1175024,1.53249981 C13.1475011,1.53249981 13.1774999,1.53999971 13.2150003,1.53999971 Z"/>
      <path fill-rule="nonzero" d="M13.8750001,1 L13.8750001,1.40500021 L13.4325009,1.40500021 L13.4325009,1 L13.8750001,1 Z M13.8750001,1.56999991 L13.8750001,3.25000001 L13.4325009,3.25000001 L13.4325009,1.56999991 L13.8750001,1.56999991 Z"/>
      <path d="M14.6549989,1.56999991 L14.6549989,1.80249971 C14.7075006,1.72749971 14.7524987,1.67500001 14.7974988,1.64500001 C14.9099999,1.56250001 15.0449983,1.51750021 15.1949979,1.51750021 C15.3299981,1.51750021 15.4499971,1.55500011 15.5474988,1.62250021 C15.6224996,1.67500001 15.6749993,1.75000001 15.705,1.83250051 C15.7349988,1.91500041 15.7500001,2.03500031 15.7500001,2.19250061 L15.7500001,3.25000001 L15.3075009,3.25000001 L15.3075009,2.29000001 C15.3075009,2.18499951 15.2999993,2.10250001 15.2775002,2.05000021 C15.2625008,2.00500011 15.2325001,1.96750021 15.1875,1.94499991 C15.1424999,1.91499971 15.0825005,1.90000011 15.0224991,1.90000011 C14.9549999,1.90000011 14.8949986,1.91499971 14.8349991,1.95249991 C14.7749996,1.98999981 14.7374993,2.02749971 14.7149983,2.08750011 C14.6849996,2.14750001 14.6699983,2.25249961 14.6699983,2.38749981 L14.6699983,3.25000001 L14.2274991,3.25000001 L14.2274991,1.56999991 L14.6549989,1.56999991 Z"/>
      <path fill-rule="nonzero" d="M17.6700002,1.56999991 L17.6700002,3.04750011 C17.6700002,3.18250031 17.6625005,3.28000021 17.6475011,3.36250021 C17.6325036,3.44499971 17.602501,3.51249981 17.5650006,3.57999991 C17.4375001,3.78249982 17.2050019,3.88749982 16.8675023,3.88749982 C16.4025002,3.88749982 16.1475011,3.71499972 16.102501,3.36250021 L16.5525018,3.36250021 C16.5825006,3.50500011 16.6949998,3.57250021 16.8750001,3.57250021 C17.0175,3.57250021 17.1150018,3.53500031 17.1749993,3.45250031 C17.2200013,3.39249991 17.2425004,3.28750031 17.2425004,3.14500041 L17.2425004,2.93500041 C17.1299993,3.11500021 16.9649983,3.19750021 16.7474996,3.19750021 C16.5375005,3.19750021 16.3724996,3.12250041 16.2449991,2.97250031 C16.1174967,2.82250021 16.0574991,2.62000031 16.0574991,2.36500021 C16.0574991,2.11000011 16.1174967,1.90750051 16.2449991,1.75000041 C16.3799974,1.59250061 16.552498,1.51000061 16.7699987,1.51000061 C16.8824979,1.51000061 16.9725,1.53250091 17.0474989,1.57000101 C17.1224997,1.61500081 17.1899988,1.68250101 17.2500002,1.78000101 L17.2500002,1.55500131 L17.6700002,1.56999991 L17.6700002,1.56999991 Z M16.8599988,1.88500021 C16.7324983,1.88500021 16.6425,1.93750001 16.5750009,2.04250001 C16.5224992,2.12500001 16.5000001,2.23000001 16.5000001,2.36500021 C16.5000001,2.53000021 16.5375005,2.65000051 16.6124993,2.74000021 C16.6800004,2.81500051 16.7625008,2.85250041 16.8675004,2.85250041 C17.0024987,2.85250041 17.1000005,2.80000061 17.1674996,2.68750041 C17.2200013,2.60500041 17.2425004,2.49250071 17.2425004,2.36500021 C17.2425004,2.20750041 17.205,2.08750051 17.1224996,1.99750011 C17.0625001,1.92250011 16.9724999,1.88500021 16.8599988,1.88500021 Z"/>
    </g>
  </g>
</svg>
