<svg xmlns="http://www.w3.org/2000/svg" width="24" height="24" viewBox="0 0 24 24">
  <g fill="none" fill-rule="evenodd">
    <path fill="#2D327D" d="M22.5,0 L1.5,0 C0.675000003,0 0,0.675000003 0,1.5 L0,22.5 C0,23.3250009 0.675000003,24 1.5,24 L22.5,24 C23.3250009,24 24,23.3250009 24,22.5 L24,1.5 C24,0.675000003 23.3250009,0 22.5,0 Z"/>
    <g fill="#FFF" transform="translate(3 3)">
      <path fill-rule="nonzero" d="M0.344999801,13.7174989 C0.150000101,13.7325002 0,13.8974992 0,14.0924989 L0,16.4249994 C0,16.6349985 0.164999701,16.7999994 0.375000002,16.7999994 L0.787499903,16.7999994 L0.787499903,16.3724996 C0.787499903,15.1274988 1.79250001,14.1224996 3.03749991,14.1224996 C4.28249982,14.1224996 5.28750042,15.1274988 5.28750042,16.3724996 L5.28750042,16.7999994 L12.7500001,16.7999994 L12.7500001,16.3724996 C12.7500001,15.1274988 13.7549993,14.1224996 15,14.1224996 C16.2374993,14.1224996 17.2500001,15.1274988 17.2500001,16.3724996 L17.2500001,16.7999994 L17.6250001,16.7999994 C17.8349992,16.7999994 18,16.6349985 18,16.4249994 L18,13.7775003 C18,13.4775011 17.8799993,13.1925012 17.6700002,12.9825002 L15.4200002,10.7325001 C15.2100011,10.5225001 14.9249994,10.4025011 14.6250001,10.4025011 L8.13749983,10.4025011 C7.83749963,10.4025011 7.55249983,10.522501 7.34249973,10.7325001 L4.73250052,13.3500005 L0.344999801,13.7174989 L0.344999801,13.7174989 Z M11.625,13.0349999 L11.625,11.4975004 C11.625,11.2875004 11.79,11.1225004 12,11.1225004 L14.5874997,11.1225004 C14.6849995,11.1225004 14.7825013,11.1599998 14.8500005,11.2350006 L16.6425,13.0275002 C16.6800004,13.0725003 16.7099992,13.125 16.7099992,13.1849995 C16.7099992,13.3125 16.6124994,13.4099999 16.4849988,13.4099999 L12,13.4099999 C11.7975006,13.4025003 11.625,13.2374993 11.625,13.0349999 L11.625,13.0349999 Z M6.27750023,13.4025003 C6.14999973,13.4025003 6.05249983,13.3050024 6.05249983,13.1775018 C6.05249983,13.1175004 6.07499983,13.057501 6.11999903,13.0200006 L7.91249853,11.227501 C7.97999863,11.1600018 8.07749853,11.1150008 8.17499933,11.1150008 L10.5374985,11.1150008 C10.7474995,11.1150008 10.9124985,11.2875014 10.9124985,11.4900008 L10.9124985,11.4900008 L10.9124985,13.0275003 C10.9124985,13.2300016 10.7474995,13.4025003 10.5374985,13.4025003 L6.27750023,13.4025003 L6.27750023,13.4025003 Z"/>
      <path d="M14.9925004 17.2200013C14.4750005 17.2200013 14.0550004 16.7999993 14.0550004 16.2825013 14.0550004 15.7650014 14.4750005 15.3450013 14.9925004 15.3450013 15.5099984 15.3450013 15.9300004 15.7650014 15.9300004 16.2825013 15.9300004 16.7999993 15.5099984 17.2200013 14.9925004 17.2200013L14.9925004 17.2200013zM14.9925004 14.58C14.0550004 14.58 13.2825013 15.3450013 13.2825013 16.2899991 13.2825013 17.2349988 14.0475007 17.9999982 14.9925004 17.9999982 15.9375001 17.9999982 16.7024995 17.2349969 16.7024995 16.2899991 16.7024995 15.3450013 15.9375001 14.58 14.9925004 14.58L14.9925004 14.58zM3.03749991 17.2200013C2.52000001 17.2200013 2.09999991 16.7999993 2.09999991 16.2825013 2.09999991 15.7650014 2.52000001 15.3450013 3.03749991 15.3450013 3.55499981 15.3450013 3.97499992 15.7650014 3.97499992 16.2825013 3.97499992 16.7999993 3.55500031 17.2200013 3.03749991 17.2200013L3.03749991 17.2200013zM3.03749991 14.58C2.09250021 14.58 1.32749991 15.3450013 1.32749991 16.2899991 1.32749991 17.2349988 2.09249981 17.9999982 3.03749991 17.9999982 3.98250002 17.9999982 4.74750042 17.2349969 4.74750042 16.2899991 4.73999982 15.3450013 3.97499992 14.58 3.03749991 14.58L3.03749991 14.58z"/>
      <polygon points="1.898 0 1.898 2.25 1.403 2.25 .465 .72 .472 2.25 0 2.25 0 0 .502 0 1.44 1.53 1.432 0"/>
      <path fill-rule="nonzero" d="M3.10500001,0.525000102 C3.35250041,0.525000102 3.54750011,0.607499803 3.70499942,0.764999903 C3.85499952,0.922499704 3.93750002,1.1399999 3.93750002,1.40249971 C3.93750002,1.67999941 3.85499952,1.89749961 3.68999962,2.06250001 C3.54000001,2.21250011 3.33750011,2.29500011 3.08999971,2.29500011 C2.82749991,2.29500011 2.61749941,2.21250011 2.46749981,2.04000001 C2.31749961,1.87500001 2.24249941,1.66500001 2.24249941,1.40999981 C2.24249941,1.1549996 2.31749971,0.952499804 2.45999961,0.787499403 C2.62500001,0.614999803 2.83500001,0.525000102 3.10500001,0.525000102 Z M3.08250001,0.869999904 C2.96250011,0.869999904 2.87249951,0.914999704 2.79749971,1.0124998 C2.72999961,1.1100001 2.69249971,1.23750021 2.69249971,1.41000031 C2.69249971,1.58250041 2.72999961,1.71750021 2.79749971,1.80750031 C2.87249951,1.89750001 2.96999981,1.95000071 3.08999971,1.95000071 C3.20249991,1.95000071 3.30000021,1.90500061 3.36749941,1.82250061 C3.44249971,1.72500031 3.47999961,1.59000101 3.47999961,1.41000071 C3.47999961,1.24500071 3.44249971,1.1100005 3.37499961,1.0200008 C3.31499961,0.922500104 3.21000001,0.869999904 3.08250001,0.869999904 Z"/>
      <polygon points="4.68 0 4.68 2.25 4.238 2.25 4.238 0"/>
      <path fill-rule="nonzero" d="M6.55499943 1.72499991C6.53249943 1.82250021 6.48750023 1.90500021 6.42749983 1.98750021 6.27750023 2.18999961 6.06749923 2.28749991 5.79000002 2.28749991 5.54249962 2.28749991 5.34000022 2.20499991 5.18999962 2.04750011 5.11499982 1.97250031 5.06250002 1.87500001 5.01749992 1.77000051 4.97249892 1.65750031 4.95749952 1.53000071 4.95749952 1.41000041 4.95749952 1.1625 5.02499872.960000404 5.16749952.795000603 5.32499982.607500603 5.52750012.517500702 5.77499962.517500702 5.97749992.517500702 6.14999963.577500902 6.29249953.705000703 6.39749903.795000603 6.46500013.907500604 6.51749993 1.0350009 6.56999973 1.1625014 6.58499913 1.32750091 6.58499913 1.53000081L5.41499902 1.53000081C5.42249872 1.61250081 5.42999842 1.68000091 5.45249842 1.73250071 5.51249892 1.88250061 5.62499902 1.95000081 5.79749872 1.95000081 5.87999922 1.95000081 5.94749932 1.93500091 5.99999902 1.89750101 6.05249883 1.86000061 6.09749883 1.80000071 6.12749863 1.72500041L6.55499943 1.72499991 6.55499943 1.72499991zM6.12749963 1.23000001C6.11999893 1.1475 6.09749983 1.0799999 6.07499983 1.0275002 6.04500013.975000604 6.00750063.930000104 5.95499992.900000604 5.90250022.870000404 5.84249972.855000703 5.78249932.855000703 5.68499952.855000703 5.60249992.885000704 5.53499892.952500804 5.46749972 1.0200009 5.42999942 1.1100006 5.42249872 1.2225008L6.12749963 1.2225008 6.12749963 1.23000001zM8.42250064.569999902L8.42250064 2.04750011C8.42250064 2.18250031 8.41500004 2.28000021 8.39999963 2.36250021 8.38500023 2.43750001 8.35499953 2.51249981 8.31749923 2.57999991 8.18999963 2.78249981 7.95749953 2.88749981 7.61999903 2.88749981 7.15499983 2.88749981 6.89999873 2.71499971 6.85499963 2.36250021L7.30499943 2.36250021C7.33499913 2.50500011 7.44749933 2.57250021 7.62749963 2.57250021 7.76999953 2.57250021 7.86749943 2.53500031 7.92749983 2.45250031 7.97249993 2.39249991 7.99499903 2.28750031 7.99499903 2.14500041L7.99499903 1.93500041C7.88249983 2.11500021 7.71749983 2.19750021 7.49999913 2.19750021 7.28999913 2.19750021 7.12499913 2.12250041 6.99749953 1.97250031 6.86999903 1.82250021 6.80999953 1.62000031 6.80999953 1.36500021 6.80999953 1.1100001 6.86999903.907500504 6.99749953.750000403 7.13249973.592500602 7.30499943.510000602 7.52249913.510000602 7.63499933.510000602 7.72499853.532500902 7.79999933.570001002 7.87499913.615000803 7.94249833.682501003 8.00249873.780001003L8.00249873.555001302 8.42250064.569999902 8.42250064.569999902zM7.61250023.885000204C7.48500063.885000204 7.39500053.937500004 7.32749943 1.0425 7.27499963 1.125 7.25249963 1.23000001 7.25249963 1.36500021 7.25249963 1.53000021 7.29000003 1.65000051 7.36499983 1.74000021 7.43249903 1.81500051 7.51499943 1.85250041 7.61999903 1.85250041 7.75499923 1.85250041 7.85250003 1.80000061 7.91999923 1.68750041 7.97249903 1.60500041 7.99499903 1.49250071 7.99499903 1.36500021 7.99499903 1.20750041 7.95749963 1.0875005 7.87499913.997500104 7.81499963.922500104 7.72500043.885000204 7.61250023.885000204zM10.3500004.569999902L10.3500004 2.04750011C10.3500004 2.18250031 10.3424998 2.28000021 10.3274994 2.36250021 10.3125 2.43750001 10.2824993 2.51249981 10.2449989 2.57999991 10.1174993 2.78249981 9.88499924 2.88749981 9.54749874 2.88749981 9.08249954 2.88749981 8.82749844 2.71499971 8.78249934 2.36250021L9.23249914 2.36250021C9.26249884 2.50500011 9.37499904 2.57250021 9.55499934 2.57250021 9.69749924 2.57250021 9.79499914 2.53500031 9.85499954 2.45250031 9.89999964 2.39249991 9.92249874 2.28750031 9.92249874 2.14500041L9.92249874 1.93500041C9.80999954 2.11500021 9.64499954 2.19750021 9.42749884 2.19750021 9.21749884 2.19750021 9.05249884 2.12250041 8.92499924 1.97250031 8.79749874 1.82250021 8.73749924 1.62000031 8.73749924 1.36500021 8.73749924 1.1100001 8.79749874.907500504 8.92499924.750000403 9.05999944.592500602 9.23249914.510000602 9.44999884.510000602 9.56249904.510000602 9.65249824.532500902 9.72749904.570001002 9.80249884.615000803 9.86999804.682501003 9.92999844.780001003L9.92999844.555001302 10.3500004.569999902 10.3500004.569999902zM9.54000004.885000204C9.41250044.885000204 9.32250034.937500004 9.25499924 1.0425 9.20249944 1.125 9.17999944 1.23000001 9.17999944 1.36500021 9.17999944 1.53000021 9.21749984 1.65000051 9.29249964 1.74000021 9.35999884 1.81500051 9.44249924 1.85250041 9.54749884 1.85250041 9.68249904 1.85250041 9.77999984 1.80000061 9.84749904 1.68750041 9.89999884 1.60500041 9.92249884 1.49250071 9.92249884 1.36500021 9.92249884 1.20750041 9.88499944 1.0875005 9.80249894.997500104 9.74249944.922500104 9.65250024.885000204 9.54000004.885000204zM11.1674995 5.55111512e-17L11.1674995.405000202 10.7250003.405000202 10.7250003 5.55111512e-17 11.1674995 5.55111512e-17zM11.1674995.569999902L11.1674995 2.25000001 10.7250003 2.25000001 10.7250003.569999902 11.1674995.569999902zM12.33.525000102C12.5774995.525000102 12.7724992.607499803 12.9299994.764999903 13.08.922499704 13.1625004 1.1399999 13.1625004 1.40249971 13.1625004 1.67999941 13.0799999 1.89749961 12.915 2.06250001 12.7649994 2.21250011 12.5625 2.29500011 12.3149996 2.29500011 12.0524998 2.29500011 11.8424997 2.21250011 11.6924991 2.04000001 11.5424995 1.87500001 11.4674997 1.66500001 11.4674997 1.40999991 11.4674997 1.1549998 11.5424995.952499904 11.6849994.787499503 11.8424997.614999803 12.0600005.525000102 12.33.525000102zM12.3075009.869999904C12.1875001.869999904 12.0974999.914999704 12.0225001 1.0124998 11.9550008 1.1100001 11.9175005 1.23750021 11.9175005 1.41000031 11.9175005 1.58250041 11.9550009 1.71750021 12.0225001 1.80750031 12.0974999 1.89750001 12.1950007 1.95000071 12.3149996 1.95000071 12.4274998 1.95000071 12.5249996 1.90500061 12.5924998 1.82250061 12.6674996 1.72500031 12.705 1.59000101 12.705 1.41000071 12.705 1.24500071 12.6674996 1.1100005 12.6000005 1.0200008 12.5325004.922500104 12.4350005.869999904 12.3075009.869999904z"/>
    </g>
  </g>
</svg>
