<svg xmlns="http://www.w3.org/2000/svg" width="24" height="24" viewBox="0 0 24 24">
  <g fill="none" fill-rule="evenodd">
    <path fill="#2D327D" d="M22.5,0 L1.5,0 C0.675000003,0 0,0.675000003 0,1.5 L0,22.5 C0,23.3250009 0.675000003,24 1.5,24 L22.5,24 C23.3250009,24 24,23.3250009 24,22.5 L24,1.5 C24,0.675000003 23.3250009,0 22.5,0 Z"/>
    <g fill="#FFF" transform="translate(2 3)">
      <path fill-rule="nonzero" d="M18.6549989,13.7174989 L14.2675,13.3500005 L11.6499996,10.7325001 C11.4399996,10.5225001 11.1549997,10.4025011 10.8549995,10.4025011 L4.37500002,10.4025011 C4.07499982,10.4025011 3.79000002,10.522501 3.57999991,10.7325001 L1.33000011,12.9825002 C1.1199999,13.1925012 1,13.477501 1,13.7775003 L1,16.4249994 C1,16.6349985 1.1725001,16.7999994 1.37500001,16.7999994 L1.75000001,16.7999994 L1.75000001,16.3724996 C1.75000001,15.1274988 2.76249981,14.1224996 4,14.1224996 C5.24500042,14.1224996 6.25000003,15.1274988 6.25000003,16.3724996 L6.25000003,16.7999994 L13.7124997,16.7999994 L13.7124997,16.3724996 C13.7124997,15.1274988 14.7174989,14.1224996 15.9624997,14.1224996 C17.2075005,14.1224996 18.2124997,15.1274988 18.2124997,16.3724996 L18.2124997,16.7999994 L18.6250001,16.7999994 C18.8349992,16.7999994 19,16.6349985 19,16.4249994 L19,14.0849992 C19,13.8900014 18.8500005,13.7325002 18.6549989,13.7174989 L18.6549989,13.7174989 Z M7.37500003,13.0349999 C7.37500003,13.2450009 7.21000003,13.4099999 7.00000003,13.4099999 L2.51499991,13.4099999 C2.38749981,13.4099999 2.29000001,13.3125001 2.29000001,13.1849996 C2.29000001,13.1249982 2.31250001,13.0649988 2.35750011,13.0274984 L4.15000012,11.2349988 C4.21750022,11.1674996 4.31499962,11.1224996 4.41249992,11.1224996 L7.00000003,11.1224996 C7.21000003,11.1224996 7.37500003,11.2949993 7.37500003,11.4974996 L7.37500003,13.0349999 L7.37500003,13.0349999 Z M12.7224999,13.4025003 L8.46249964,13.4025003 C8.25249963,13.4025003 8.08749963,13.2374994 8.08749963,13.0275003 L8.08749963,11.4900008 L8.08749963,11.4900008 C8.08749963,11.2800008 8.25249963,11.1150008 8.46249964,11.1150008 L10.8249998,11.1150008 C10.9225006,11.1150008 11.0200004,11.1525012 11.0874996,11.227501 L12.8799992,13.0200006 C12.9174996,13.0650007 12.9474993,13.1175004 12.9474993,13.1775018 C12.9474993,13.3050004 12.8424998,13.4025003 12.7224999,13.4025003 L12.7224999,13.4025003 Z"/>
      <path d="M4.00749972 17.2200013C3.48999981 17.2200013 3.06999971 16.7999993 3.06999971 16.2825013 3.06999971 15.7650014 3.48999981 15.3450013 4.00749972 15.3450013 4.52499962 15.3450013 4.94500072 15.7650014 4.94500072 16.2825013 4.94500072 16.7999993 4.52500012 17.2200013 4.00749972 17.2200013L4.00749972 17.2200013zM4.00749972 14.58C3.06250001 14.58 2.29750011 15.3450013 2.29750011 16.2899991 2.29750011 17.2349988 3.06250001 17.9999982 4.00750062 17.9999982 4.94500062 17.9999982 5.71750062 17.2349969 5.71750062 16.2899991 5.71000002 15.3450013 4.94500062 14.58 4.00749972 14.58L4.00749972 14.58zM15.9624997 17.2200013C15.4449998 17.2200013 15.0249997 16.7999993 15.0249997 16.2825013 15.0249997 15.7650014 15.4449998 15.3450013 15.9624997 15.3450013 16.4799996 15.3450013 16.8999997 15.7650014 16.8999997 16.2825013 16.8999997 16.7999993 16.4799996 17.2200013 15.9624997 17.2200013L15.9624997 17.2200013zM15.9624997 14.58C15.0175 14.58 14.2525006 15.3450013 14.2525006 16.2899991 14.2525006 17.2349988 15.0175019 17.9999982 15.9624997 17.9999982 16.9075013 17.9999982 17.6724988 17.2349969 17.6724988 16.2899991 17.6724988 15.3450013 16.9075013 14.58 15.9624997 14.58L15.9624997 14.58z"/>
      <polygon points="3.01 0 2.26 2.25 1.705 2.25 .97 0 1.48 0 1.982 1.688 2.493 0"/>
      <path fill-rule="nonzero" d="M4.57749992,1.72499991 C4.55499942,1.82250021 4.50999982,1.90500021 4.44999982,1.98750021 C4.30000022,2.18999961 4.08999972,2.28749991 3.81250002,2.28749991 C3.56499961,2.28749991 3.36250021,2.20499991 3.21250011,2.04750011 C3.13749981,1.97250031 3.08500001,1.87500001 3.04000001,1.77000051 C2.99499991,1.65750031 2.97999951,1.53000071 2.97999951,1.41000031 C2.97999951,1.1624999 3.04749961,0.960000304 3.18999951,0.795000503 C3.34749981,0.607500503 3.55000011,0.517500602 3.79749962,0.517500602 C3.99999952,0.517500602 4.17249962,0.577500802 4.30749982,0.705000603 C4.41249992,0.795000603 4.47999951,0.907500504 4.53249982,1.0350008 C4.57749992,1.1625004 4.59999992,1.32750081 4.59999992,1.53000071 L3.43000031,1.53000071 C3.43750001,1.61250071 3.44499971,1.68000081 3.46750021,1.73250061 C3.52750021,1.88250061 3.64000032,1.95000081 3.81250002,1.95000081 C3.89500002,1.95000081 3.96250012,1.93500091 4.01499992,1.89750101 C4.06749972,1.86000061 4.11250022,1.80000071 4.14249952,1.72500041 L4.57749992,1.72499991 L4.57749992,1.72499991 Z M4.15000012,1.23000001 C4.14249992,1.1475 4.11999992,1.0799999 4.09750032,1.0275002 C4.06750012,0.975000604 4.03000022,0.930000104 3.97750042,0.900000604 C3.92500072,0.870000404 3.86500022,0.855000703 3.80500032,0.855000703 C3.70750002,0.855000703 3.62500002,0.885000704 3.55749991,0.952500804 C3.48999981,1.0200009 3.45249991,1.1100006 3.44499971,1.2225008 L4.15000012,1.2225008 L4.15000012,1.23000001 Z"/>
      <path d="M5.91249992.539999702L5.91249992.974999904C5.83750012.960000304 5.78500032.952499904 5.73999982.952499904 5.57499982.952499904 5.45499952 1.02 5.37250042 1.1624999 5.32749992 1.23750021 5.30500082 1.37250041 5.30500082 1.55249981L5.30500082 2.25000001 4.86250112 2.25000001 4.86250112.569999902 5.29000092.569999902 5.29000092.877499804C5.41000132.652499703 5.59000112.532499802 5.81500102.532499802 5.84500032.532499802 5.87500002.539999702 5.91249992.539999702zM6.55000023.569999902L6.55000023.794999803C6.61000063.719999803 6.66250043.659999603 6.71500023.622499703 6.81250003.554999602 6.93249893.517499402 7.06749923.517499402 7.28499893.517499402 7.43499953.607499303 7.52499973.794999303 7.65999993.607499303 7.83250053.517499402 8.05750093.517499402 8.23000063.517499402 8.36500083.569999202 8.46249974.674999403 8.55999954.779999403 8.60499964.922499604 8.60499964 1.1174993L8.60499964 2.25000001 8.16250043 2.25000001 8.16250043 1.25249961C8.16250043 1.1474996 8.14750013 1.0724998 8.12500003 1.0274997 8.07999993.945000004 8.00499923.907499804 7.89999963.907499804 7.76499943.907499804 7.67500023.967500204 7.62250043 1.0799999 7.60000043 1.1324997 7.58500003 1.22250031 7.58500003 1.34999991L7.58500003 2.25000001 7.14250093 2.25000001 7.14250093 1.23000001C7.14250093 1.1324997 7.12750063 1.0574999 7.10500053 1.0124998 7.06750113.937500004 7.00000103.900000104 6.89500053.900000104 6.83500013.900000104 6.77499973.914999704 6.72249993.944999904 6.67000013.974999904 6.63250073 1.0199999 6.61000073 1.0724997 6.58749973 1.1249995 6.57250033 1.21499961 6.57250033 1.33499951L6.57250033 2.25000001 6.13000113 2.25000001 6.13000113.569999902 6.55000023.569999902z"/>
      <path fill-rule="nonzero" d="M9.42250064 5.55111512e-17L9.42250064.405000202 8.98000054.405000202 8.98000054 5.55111512e-17 9.42250064 5.55111512e-17zM9.42250064.569999902L9.42250064 2.25000001 8.98000054 2.25000001 8.98000054.569999902 9.42250064.569999902zM11.2975006 1.72499991C11.2749996 1.82250021 11.2300005 1.90500021 11.1700001 1.98750021 11.0200005 2.18999961 10.8100004 2.28749991 10.5325003 2.28749991 10.2849999 2.28749991 10.0825005 2.20499991 9.93250094 2.04750011 9.85750014 1.97250031 9.80500034 1.87500001 9.76000024 1.77000051 9.71500014 1.65750031 9.69999984 1.53000071 9.69999984 1.41000041 9.69999984 1.1625 9.76749994.960000404 9.90999984.795000603 10.067501.607500603 10.2700004.517500702 10.5175008.517500702 10.7200002.517500702 10.8925008.577500902 11.0349998.705000703 11.1399993.795000603 11.2075004.907500604 11.2600002 1.0350009 11.3125 1.1625014 11.3274994 1.32750091 11.3274994 1.53000081L10.1499996 1.53000081C10.1575003 1.61250071 10.165 1.68000081 10.1875 1.73250061 10.2475004 1.88250071 10.3600006 1.95000081 10.5325003 1.95000081 10.6150008 1.95000081 10.6825009 1.93500091 10.7350006 1.89750101 10.7875004 1.86000061 10.8325004 1.80000071 10.8625002 1.72500041L11.2975006 1.72499991 11.2975006 1.72499991zM10.8700008 1.23000001C10.8625002 1.1475 10.8400011 1.0799999 10.817501 1.0275001 10.7875013.975000604 10.7500009.930000004 10.6975002.900000504 10.6450005.870000404 10.585.855000703 10.5249996.855000703 10.4274998.855000703 10.3450002.885000704 10.2775001.952500804 10.21 1.0200009 10.1725006 1.1100006 10.1649999 1.2225008L10.8700008 1.2225008 10.8700008 1.23000001z"/>
      <path d="M12.4675007.562500002L12.4675007.877499803 12.1374999.877499803 12.1374999 1.66500001C12.1374999 1.76249981 12.1450005 1.82249981 12.1599999 1.84499981 12.1825009 1.88249971 12.2425004 1.89749961 12.3325005 1.89749961 12.3700009 1.89749961 12.415001 1.89749961 12.4675007 1.88999991L12.4675007 2.25000001C12.3700009 2.26499991 12.2725001 2.26499991 12.1900006 2.26499991 12.062501 2.26499991 11.9650011 2.25000001 11.897501 2.21999981 11.7925015 2.17500021 11.732502 2.09250021 11.7025013 1.96499971 11.6950007 1.91249991 11.687501 1.80749991 11.687501 1.64249951L11.687501.885000203 11.4175005.885000203 11.4175005.570000402 11.687501.570000402 11.687501.1800008 12.1300012.1800008 12.1300012.570000402 12.4675007.570000402 12.4675007.562500002 12.4675007.562500002zM14.2150003.569999902L14.2150003 2.25000001 13.7875015 2.25000001 13.7875015 2.00249961C13.6600019 2.19749981 13.4800007 2.29500011 13.2475015 2.29500011 13.0450021 2.29500011 12.8950015 2.22750001 12.790001 2.09250021 12.7525006 2.04000041 12.7225018 1.98000001 12.7075005 1.90500021 12.6925011 1.83750011 12.6850005 1.74000021 12.6850005 1.62750051L12.6850005.569999902 13.1274997.569999902 13.1274997 1.49250031C13.1274997 1.59000011 13.1274997 1.65749981 13.1350003 1.69499971 13.142501 1.73250011 13.1499997 1.77000001 13.1725007 1.80000021 13.2175008 1.87500001 13.3000003 1.91249991 13.4125005 1.91249991 13.5549995 1.91249991 13.6525003 1.85250001 13.7200004 1.72499991 13.7500001 1.66500001 13.7650014 1.55249981 13.7650014 1.39500001L13.7650014.569999902 14.2150003.569999902 14.2150003.569999902zM14.9799996.569999902L14.9799996.802499703C15.0325013.727499703 15.0774995.675000003 15.1224996.645000003 15.2349988.562500002 15.3699991.517500202 15.5199987.517500202 15.654997.517500202 15.7749979.555000102 15.8724996.622500203 15.9474984.675000003 16.0000001.750000003 16.0299989.832500503 16.0599996.915000504 16.0750009 1.0350004 16.0750009 1.1925006L16.0750009 2.25000001 15.6324998 2.25000001 15.6324998 1.29000001C15.6324998 1.1849995 15.6250001 1.1025 15.602501 1.0500002 15.5874997 1.0050001 15.5575009.967500204 15.5125008.944999904 15.4674988.914999704 15.4075013.900000104 15.3474999.900000104 15.2799988.900000104 15.2199975.914999704 15.1599999.952499904 15.1074982.982499904 15.0625001 1.0274997 15.0399991 1.0875001 15.0099984 1.1475 14.994999 1.25249961 14.994999 1.38749981L14.994999 2.25000001 14.5524979 2.25000001 14.5524979.569999902 14.9799996.569999902z"/>
      <path fill-rule="nonzero" d="M17.9950009,0.569999902 L17.9950009,2.04750011 C17.9950009,2.18250031 17.9874993,2.28000021 17.9725018,2.36250021 C17.9575024,2.44499971 17.9275017,2.51249981 17.8900013,2.57999991 C17.7625008,2.78249981 17.5300026,2.88749981 17.1925011,2.88749981 C16.7275009,2.88749981 16.4725018,2.71499971 16.4275017,2.36250021 L16.8775006,2.36250021 C16.9075013,2.50500011 17.0200005,2.57250021 17.2000008,2.57250021 C17.3424988,2.57250021 17.4400006,2.53500031 17.5,2.45250031 C17.5450001,2.39249991 17.5674992,2.28750031 17.5674992,2.14500041 L17.5674992,1.93500041 C17.455,2.11500021 17.289999,2.19750021 17.0724984,2.19750021 C16.8624993,2.19750021 16.6974984,2.12250041 16.5699979,1.97250031 C16.4424974,1.82250021 16.3824979,1.62000031 16.3824979,1.36500021 C16.3824979,1.1100001 16.4424974,0.907500504 16.5699979,0.750000403 C16.7049981,0.592500602 16.8774987,0.510000602 17.0949975,0.510000602 C17.2074986,0.510000602 17.2974988,0.532500902 17.3724996,0.570001002 C17.4474985,0.615000803 17.5149995,0.682501003 17.5750009,0.780001003 L17.5750009,0.555001302 L17.9950009,0.569999902 L17.9950009,0.569999902 Z M17.1849996,0.885000204 C17.0574991,0.885000204 16.9674989,0.937500004 16.8999998,1.0425 C16.8474999,1.125 16.8250009,1.23000001 16.8250009,1.36500021 C16.8250009,1.53000021 16.8624994,1.65000051 16.9375001,1.74000021 C17.0049993,1.81500051 17.0874997,1.85250041 17.1924993,1.85250041 C17.3274995,1.85250041 17.4249994,1.80000061 17.4925004,1.68750041 C17.5450002,1.60500041 17.5674993,1.49250071 17.5674993,1.36500021 C17.5674993,1.20750041 17.5299989,1.0875005 17.4474985,0.997500104 C17.3875009,0.922500104 17.2974988,0.885000204 17.1849996,0.885000204 Z"/>
    </g>
  </g>
</svg>
