<svg xmlns="http://www.w3.org/2000/svg" width="24" height="24" viewBox="0 0 24 24">
  <g fill="none" fill-rule="evenodd">
    <path fill="#2D327D" d="M22.5,0 L1.5,0 C0.675000003,0 0,0.675000003 0,1.5 L0,22.5 C0,23.3250009 0.675000003,24 1.5,24 L22.5,24 C23.3250009,24 24,23.3250009 24,22.5 L24,1.5 C24,0.675000003 23.3250009,0 22.5,0 Z"/>
    <g fill="#FFF" transform="translate(3 3)">
      <path fill-rule="nonzero" d="M17.6549989,13.7174989 L13.2675,13.3500005 L10.6499996,10.7325001 C10.4399996,10.5225001 10.1549997,10.4025011 9.85499954,10.4025011 L3.37500001,10.4025011 C3.07499981,10.4025011 2.79000001,10.522501 2.57999991,10.7325001 L0.330000101,12.9825002 C0.1199999,13.1925012 0,13.477501 0,13.7775003 L0,16.4249994 C0,16.6349985 0.172500101,16.7999994 0.375000002,16.7999994 L0.750000003,16.7999994 L0.750000003,16.3724996 C0.750000003,15.1274988 1.76249981,14.1224996 3,14.1224996 C4.24500042,14.1224996 5.25000002,15.1274988 5.25000002,16.3724996 L5.25000002,16.7999994 L12.7124997,16.7999994 L12.7124997,16.3724996 C12.7124997,15.1274988 13.7174989,14.1224996 14.9624997,14.1224996 C16.2075005,14.1224996 17.2124997,15.1274988 17.2124997,16.3724996 L17.2124997,16.7999994 L17.6250001,16.7999994 C17.8349992,16.7999994 18,16.6349985 18,16.4249994 L18,14.0849992 C18,13.8900014 17.8500005,13.7325002 17.6549989,13.7174989 L17.6549989,13.7174989 Z M6.37500003,13.0349999 C6.37500003,13.2450009 6.21000003,13.4099999 6.00000003,13.4099999 L1.51499991,13.4099999 C1.38749981,13.4099999 1.29000001,13.3125001 1.29000001,13.1849996 C1.29000001,13.1249982 1.31250001,13.0649988 1.35750011,13.0274984 L3.15000011,11.2349988 C3.21750021,11.1674996 3.31499961,11.1224996 3.41249991,11.1224996 L6.00000003,11.1224996 C6.21000003,11.1224996 6.37500003,11.2949993 6.37500003,11.4974996 L6.37500003,13.0349999 L6.37500003,13.0349999 Z M11.7224998,13.4025003 L7.46249963,13.4025003 C7.25249963,13.4025003 7.08749963,13.2374994 7.08749963,13.0275003 L7.08749963,11.4900008 L7.08749963,11.4900008 C7.08749963,11.2800008 7.25249963,11.1150008 7.46249963,11.1150008 L9.82499984,11.1150008 C9.92250064,11.1150008 10.0200004,11.1525012 10.0874996,11.227501 L11.8799991,13.0200006 C11.9174995,13.0650007 11.9474992,13.1175004 11.9474992,13.1775018 C11.9474992,13.3050004 11.8424997,13.4025003 11.7224998,13.4025003 L11.7224998,13.4025003 Z"/>
      <path d="M3.00749971 17.2200013C2.48999981 17.2200013 2.06999971 16.7999993 2.06999971 16.2825013 2.06999971 15.7650014 2.48999981 15.3450013 3.00749971 15.3450013 3.52499961 15.3450013 3.94500072 15.7650014 3.94500072 16.2825013 3.94500072 16.7999993 3.52500011 17.2200013 3.00749971 17.2200013L3.00749971 17.2200013zM3.00749971 14.58C2.06250001 14.58 1.29750011 15.3450013 1.29750011 16.2899991 1.29750011 17.2349988 2.06250001 17.9999982 3.00750061 17.9999982 3.94500062 17.9999982 4.71750062 17.2349969 4.71750062 16.2899991 4.71000002 15.3450013 3.94500062 14.58 3.00749971 14.58L3.00749971 14.58zM14.9624997 17.2200013C14.4449998 17.2200013 14.0249997 16.7999993 14.0249997 16.2825013 14.0249997 15.7650014 14.4449998 15.3450013 14.9624997 15.3450013 15.4799996 15.3450013 15.8999997 15.7650014 15.8999997 16.2825013 15.8999997 16.7999993 15.4799996 17.2200013 14.9624997 17.2200013L14.9624997 17.2200013zM14.9624997 14.58C14.0175 14.58 13.2525006 15.3450013 13.2525006 16.2899991 13.2525006 17.2349988 14.0175019 17.9999982 14.9624997 17.9999982 15.9075013 17.9999982 16.6724988 17.2349969 16.6724988 16.2899991 16.6724988 15.3450013 15.9075013 14.58 14.9624997 14.58L14.9624997 14.58z"/>
      <polygon points="1.59 1.83 1.59 2.243 0 2.243 0 0 .488 0 .488 1.83"/>
      <path fill-rule="nonzero" d="M2.62500001,0.525000102 C2.87250041,0.525000102 3.06750011,0.607499803 3.22499991,0.764999903 C3.37500001,0.922499704 3.45750001,1.1399999 3.45750001,1.40249971 C3.45750001,1.67999941 3.37500001,1.89749961 3.20999961,2.06250001 C3.05999951,2.21250011 2.85750011,2.29500011 2.60999971,2.29500011 C2.34749991,2.29500011 2.13749941,2.21250011 1.98749931,2.04000001 C1.83749961,1.87500001 1.76249931,1.66500001 1.76249931,1.40999981 C1.76249931,1.1549996 1.83749961,0.952499804 1.97999951,0.787499403 C2.13749981,0.614999803 2.35500001,0.525000102 2.62500001,0.525000102 Z M2.60250001,0.869999904 C2.48250011,0.869999904 2.39249951,0.914999704 2.31749971,1.0124998 C2.24999961,1.1100001 2.21249971,1.23750021 2.21249971,1.41000031 C2.21249971,1.58250041 2.24999961,1.71750021 2.31749971,1.80750031 C2.39249951,1.89750001 2.48999981,1.95000071 2.60999971,1.95000071 C2.72249991,1.95000071 2.81999971,1.90500061 2.88749941,1.82250061 C2.96249971,1.72500031 2.99999961,1.59000101 2.99999961,1.41000071 C2.99999961,1.24500071 2.96249971,1.1100005 2.89499961,1.0200008 C2.82749991,0.922500104 2.73000001,0.869999904 2.60250001,0.869999904 Z"/>
      <path d="M5.29500012,1.60500001 C5.27250002,1.77000001 5.22000032,1.91249991 5.13000112,2.0250001 C4.98750122,2.20499991 4.77750112,2.29500011 4.51500092,2.29500011 C4.24500042,2.29500011 4.02750122,2.20499991 3.87750112,2.01749991 C3.75000102,1.86000011 3.68250042,1.66500041 3.68250042,1.42500021 C3.68250042,1.1324997 3.76500092,0.907499804 3.93750002,0.742500103 C4.08750012,0.599999902 4.28250032,0.525000102 4.51499992,0.525000102 C4.73249922,0.525000102 4.91249992,0.585000302 5.04750062,0.697500203 C5.18250042,0.810000203 5.26499942,0.967500204 5.28000072,1.1624999 L4.84500032,1.1624999 C4.83000092,1.0725002 4.79250052,1.0050001 4.73250062,0.952499904 C4.67250022,0.900000104 4.60500052,0.877499904 4.51500092,0.877499904 C4.38750132,0.877499904 4.29750162,0.922499704 4.23000062,1.0200001 C4.16249992,1.1175003 4.12500102,1.24499991 4.12500102,1.41750001 C4.12500102,1.56750011 4.15500072,1.68750001 4.20750152,1.77750011 C4.27500112,1.89000031 4.37250152,1.94250011 4.50750172,1.94250011 C4.70250232,1.94250011 4.82250132,1.82999991 4.85250202,1.60500001 L5.29500012,1.60500001 Z"/>
      <path fill-rule="nonzero" d="M7.08749963,2.25000001 L6.62999923,2.25000001 C6.60749923,2.18249991 6.60000043,2.13000011 6.60000043,2.08500001 C6.45750053,2.22750041 6.27750023,2.30250021 6.06000043,2.30250021 C5.88749982,2.30250021 5.75249962,2.26500031 5.65500072,2.18250031 C5.54250052,2.09250061 5.49000072,1.96500011 5.49000072,1.80000061 C5.49000072,1.59000011 5.58750152,1.44750061 5.77500152,1.36500021 C5.85000132,1.33500001 5.99250032,1.30500031 6.20250133,1.27500061 C6.38250073,1.25250061 6.48750113,1.23000051 6.53250033,1.20750051 C6.57750133,1.1850005 6.60000043,1.1400004 6.60000043,1.0725003 C6.60000043,0.922500204 6.50249963,0.855000104 6.30750093,0.855000104 C6.20250143,0.855000104 6.12750063,0.870000004 6.08250053,0.907499904 C6.03750043,0.944999904 6.00000003,1.0050001 5.98500062,1.1025 L5.56499962,1.1025 C5.57999992,0.914999804 5.64750012,0.772499603 5.77499962,0.682499903 C5.90250012,0.584999602 6.08250043,0.539999702 6.31499963,0.539999702 C6.57749943,0.539999702 6.76499943,0.592499502 6.89249993,0.697499703 C6.95249943,0.749999503 6.99000072,0.802499703 7.00499913,0.854999504 C7.01999943,0.907499304 7.03499883,0.997499704 7.03499883,1.1249995 C7.03499883,1.1474995 7.03499883,1.25999971 7.02749823,1.46249961 C7.02749823,1.66499901 7.02749823,1.77749921 7.02749823,1.80749941 C7.02749823,1.92749931 7.02749823,2.01749941 7.03499883,2.07749941 C7.05000023,2.11499981 7.06499963,2.18249991 7.08749963,2.25000001 Z M6.60000043,1.43999961 C6.54000003,1.47750001 6.43500043,1.50749971 6.28499983,1.52249961 C6.18000033,1.53749941 6.10500053,1.55999951 6.05249983,1.58250001 C5.98500062,1.61999991 5.95499992,1.68000031 5.95499992,1.76249981 C5.95499992,1.82999991 5.97749992,1.88999991 6.02249913,1.92749981 C6.06749833,1.96499971 6.12749863,1.98750021 6.20999913,1.98750021 C6.34499933,1.98750021 6.44999893,1.94250011 6.52499873,1.85250001 C6.55499843,1.82249981 6.56999973,1.78499991 6.58499913,1.75499971 C6.59249973,1.71749981 6.59999853,1.67249971 6.59999853,1.61999951 L6.60000043,1.43999961 L6.60000043,1.43999961 Z"/>
      <path d="M8.28750043,0.562500002 L8.28750043,0.877499803 L7.94999983,0.877499803 L7.94999983,1.66500001 C7.94999983,1.76249981 7.95750043,1.82249981 7.97249983,1.84499981 C7.99500083,1.88249971 8.05500033,1.89749961 8.14500043,1.89749961 C8.18250083,1.89749961 8.22750093,1.89749961 8.28000063,1.88999991 L8.28000063,2.25000001 C8.18250083,2.26499991 8.08500003,2.26499991 8.00250053,2.26499991 C7.87500093,2.26499991 7.77750113,2.25000001 7.71000103,2.21999981 C7.60500153,2.17500021 7.54500203,2.09250021 7.51500133,1.96499971 C7.50750073,1.91249991 7.50000103,1.80749991 7.50000103,1.64249951 L7.50000103,0.885000203 L7.23000053,0.885000203 L7.23000053,0.570000402 L7.50000103,0.570000402 L7.50000103,0.1800008 L7.94250113,0.1800008 L7.94250113,0.570000402 L8.28750043,0.570000402 L8.28750043,0.562500002 L8.28750043,0.562500002 Z"/>
      <path fill-rule="nonzero" d="M8.98500064 5.55111512e-17L8.98500064.405000202 8.54250054.405000202 8.54250054 5.55111512e-17 8.98500064 5.55111512e-17zM8.98500064.569999902L8.98500064 2.25000001 8.54250054 2.25000001 8.54250054.569999902 8.98500064.569999902zM10.1475.525000102C10.3950004.525000102 10.5900001.607499803 10.7475004.764999903 10.8975.922499704 10.9800005 1.1399999 10.9800005 1.40249971 10.9800005 1.67999941 10.8975 1.89749961 10.7325001 2.06250001 10.5825005 2.21250011 10.3800011 2.29500011 10.1325007 2.29500011 9.87000094 2.29500011 9.65999994 2.21250011 9.51000034 2.04000001 9.36000074 1.87500001 9.28499994 1.66500001 9.28499994 1.40999991 9.28499994 1.1549998 9.36000074.952499904 9.50249964.787499503 9.66749954.614999803 9.87749964.525000102 10.1475.525000102zM10.125.869999904C10.0049992.869999904 9.91500004.914999704 9.84000024 1.0124998 9.77250004 1.1100001 9.73500064 1.23750021 9.73500064 1.41000031 9.73500064 1.58250041 9.77250004 1.71750021 9.84000014 1.80750031 9.91500004 1.89750001 10.0124998 1.95000081 10.1324997 1.95000081 10.2449989 1.95000081 10.3424997 1.90500071 10.4099989 1.82250071 10.4849987 1.72500041 10.5224991 1.59000111 10.5224991 1.41000081 10.5224991 1.24500081 10.4849987 1.1100006 10.4174996 1.0200009 10.3575001.922500104 10.2524996.869999904 10.125.869999904z"/>
      <path d="M11.6924992,0.569999902 L11.6924992,0.802499703 C11.7449989,0.727499703 11.79,0.675000003 11.8349991,0.645000003 C11.9474993,0.562500002 12.0824996,0.517500202 12.2324992,0.517500202 C12.3674994,0.517500202 12.4874993,0.555000102 12.5849992,0.622500203 C12.659999,0.675000003 12.7124988,0.750000003 12.7424995,0.832500503 C12.7724992,0.915000504 12.7875005,1.0350004 12.7875005,1.1925006 L12.7875005,2.25000001 L12.3450004,2.25000001 L12.3450004,1.29000001 C12.3450004,1.1849995 12.3374998,1.1025 12.3150007,1.0500002 C12.3000013,1.0050001 12.2700006,0.967500204 12.2250015,0.944999904 C12.1800005,0.914999704 12.120002,0.900000104 12.0600015,0.900000104 C11.9925022,0.900000104 11.9325018,0.914999704 11.8725014,0.952499904 C11.8200016,0.982499904 11.7750016,1.0274997 11.7525006,1.0875001 C11.7225018,1.1475 11.7075005,1.25249961 11.7075005,1.38749981 L11.7075005,2.25000001 L11.2650013,2.25000001 L11.2650013,0.569999902 L11.6924992,0.569999902 Z"/>
    </g>
  </g>
</svg>
