<svg xmlns="http://www.w3.org/2000/svg" width="24" height="24" viewBox="0 0 24 24">
  <g fill="none" fill-rule="evenodd">
    <path fill="#2D327D" d="M22.5,0 L1.5,0 C0.675000003,0 0,0.675000003 0,1.5 L0,22.5 C0,23.3250009 0.675000003,24 1.5,24 L22.5,24 C23.3250009,24 24,23.3250009 24,22.5 L24,1.5 C24,0.675000003 23.3250009,0 22.5,0 Z"/>
    <g fill="#FFF" transform="translate(3 11)">
      <path d="M7.01249983.797500602L5.20499992 1.42749981C5.16749952 1.44249921 5.12249942 1.44999981 5.08499912 1.44999981 4.95749952 1.44999981 4.84499932 1.3899994 4.77749872 1.2849998L4.37249902.685000402C4.34249972.632500602 4.31999922.580000902 4.31999922.520000401 4.31999922.355000401 4.45499942.2200002 4.61999942.2200002L6.92249873.2200002C7.08749873.2200002 7.22249893.355000401 7.22249893.520000401 7.21500023.639999402 7.13250063.752499602 7.01249983.797500602L7.01249983.797500602zM13.3500005.812500003L10.7250004.812500003 10.7250004.212499601 13.3500005.212499601C13.5150014.212499601 13.6499997.347499801 13.6499997.5124998 13.6499997.677499803 13.5150014.812500003 13.3500005.812500003L13.3500005.812500003zM13.3500005 1.78750041L12.9750005 1.78750041C12.8100005 1.78750041 12.6750003 1.65250021 12.6750003 1.4875002 12.6750003 1.32250021 12.8100005 1.1875 12.9750005 1.1875L13.3500005 1.1875C13.5150014 1.1875 13.6499997 1.32250021 13.6499997 1.4875002 13.6499997 1.65250021 13.5150014 1.78750041 13.3500005 1.78750041L13.3500005 1.78750041z"/>
      <path fill-rule="nonzero" d="M3.67500022,2.64999961 C1.64249991,2.64999961 0,4.29249952 0,6.32500083 C0,8.35000043 1.65000011,10 3.67500022,10 C5.57250022,10 7.16250043,8.55250174 7.33500003,6.66250043 L8.11499973,6.66250043 C8.27250003,7.00749973 8.61749934,7.22500043 9,7.22500043 C9.53999994,7.22500043 9.97500034,6.79000093 9.97500034,6.25000003 C9.97500034,6.03250123 9.89999954,5.82249832 9.76499934,5.64999962 L11.7299995,2.72500041 L12.1349993,3.37000091 C11.1974992,4.06750112 10.6499986,5.15500072 10.6499986,6.32500083 C10.6499987,8.35000043 12.2924987,10 14.3250009,10 C16.3575002,10 18,8.35000043 18,6.32500083 C18,4.29249962 16.3575002,2.64999971 14.3250009,2.64999971 C13.7400018,2.64999971 13.1625005,2.79249961 12.6450006,3.05499941 L11.9250002,1.89999971 L6.07499983,1.89999971 L5.35499952,3.05499941 C4.83750012,2.78499981 4.26000022,2.64999961 3.67500022,2.64999961 L3.67500022,2.64999961 Z M11.25,6.32500083 C11.25,5.36500172 11.6924992,4.46500022 12.4499999,3.88749982 L14.0699998,6.48250013 C14.1225015,6.57250213 14.2200013,6.62500003 14.3250009,6.62500003 C14.4900018,6.62500003 14.6250001,6.49000173 14.6250001,6.32500083 C14.6250001,6.26500133 14.6099988,6.21249973 14.58,6.16749963 L12.9599992,3.56499961 C13.3875009,3.35499961 13.8524991,3.25000001 14.3250009,3.25000001 C16.0200006,3.25000001 17.3999998,4.62999922 17.3999998,6.32500083 C17.3999998,8.02000053 16.0200006,9.39999974 14.3250009,9.39999974 C12.6299993,9.39999974 11.25,8.02000053 11.25,6.32500083 L11.25,6.32500083 Z M8.72999954,5.31250002 L6.84000023,2.50000001 L11.1599989,2.50000001 L9.26999954,5.31250002 C9.17999934,5.29000092 9.09000014,5.27499962 8.99999904,5.27499962 C8.90999984,5.27499962 8.82000064,5.29000092 8.72999954,5.31250002 L8.72999954,5.31250002 Z M7.34249973,6.06250003 C7.26749993,4.99750042 6.72749993,4.01499942 5.86499972,3.37000081 L6.26999943,2.72500031 L8.23499863,5.64999952 C8.13749883,5.77000032 8.07749833,5.91250032 8.04749863,6.06250003 L7.34249973,6.06250003 L7.34249973,6.06250003 Z M5.55000022,3.88749982 C6.23250013,4.41250042 6.66749963,5.20000082 6.74249943,6.06250003 L4.19249962,6.06250003 L5.55000022,3.88749982 L5.55000022,3.88749982 Z M3.67500022,9.39999964 C1.98000001,9.39999964 0.599999903,8.02000043 0.599999903,6.32500073 C0.599999903,4.62999922 1.98000001,3.25000001 3.67500022,3.25000001 C4.14750002,3.25000001 4.61250022,3.35499951 5.04000002,3.56499961 L3.69750032,5.72500042 C3.68999972,5.72500042 3.68250042,5.72500042 3.67500032,5.72500042 C3.34499991,5.72500042 3.07499991,5.99500092 3.07499991,6.32500083 C3.07499991,6.65499883 3.34499991,6.92499933 3.67500032,6.92499933 C3.87000052,6.92499933 4.05750052,6.82750143 4.17000072,6.66250043 L6.73500083,6.66250043 C6.56250003,8.22249983 5.24249942,9.39999964 3.67500022,9.39999964 L3.67500022,9.39999964 Z"/>
    </g>
  </g>
</svg>
