<svg xmlns="http://www.w3.org/2000/svg" width="24" height="24" viewBox="0 0 24 24">
  <g fill="none" fill-rule="evenodd">
    <path fill="#2D327D" d="M22.5,0 L1.5,0 C0.675000003,0 0,0.675000003 0,1.5 L0,22.5 C0,23.3250009 0.675000003,24 1.5,24 L22.5,24 C23.3250009,24 24,23.3250009 24,22.5 L24,1.5 C24,0.675000003 23.3250009,0 22.5,0 Z"/>
    <g fill="#FFF" transform="translate(3 3)">
      <g transform="translate(0 8)">
        <path d="M10.9875002.797500602L12.7950002 1.42749981C12.8325006 1.44249921 12.8775007 1.44999981 12.915001 1.44999981 13.0425015 1.44999981 13.1550008 1.3899994 13.2225018 1.2849998L13.6275006.685000402C13.6575013.632500602 13.6800023.580000902 13.6800023.520000401 13.6800023.355000401 13.5450021.2200002 13.3800012.2200002L11.0775023.2200002C10.9125023.2200002 10.7775021.355000401 10.7775021.520000401 10.7849998.639999402 10.8674994.752499602 10.9875002.797500602L10.9875002.797500602zM4.65000012.812500003L7.27499963.812500003 7.27499963.212499601 4.65000012.212499601C4.48500012.212499601 4.34999992.347499801 4.34999992.5124998 4.34999992.677499803 4.48500012.812500003 4.65000012.812500003L4.65000012.812500003zM4.65000012 1.78750041L5.02499962 1.78750041C5.18999962 1.78750041 5.32499982 1.65250021 5.32499982 1.4875002 5.32499982 1.32250021 5.18999962 1.1875 5.02499962 1.1875L4.65000012 1.1875C4.48500012 1.1875 4.34999992 1.32250021 4.34999992 1.4875002 4.34999992 1.65250021 4.48500012 1.78750041 4.65000012 1.78750041L4.65000012 1.78750041z"/>
        <path fill-rule="nonzero" d="M14.3250009,2.64999961 C13.7400018,2.64999961 13.1625005,2.79249951 12.6450006,3.05499931 L11.9250002,1.89999961 L6.07499983,1.89999961 L5.35499952,3.05499931 C4.83750012,2.78499881 4.25999922,2.64999961 3.67500012,2.64999961 C1.64249991,2.64999961 0,4.29249952 0,6.32500083 C0,8.35000043 1.64249991,10 3.67500022,10 C5.69999982,10 7.35000043,8.35000043 7.35000043,6.32500083 C7.35000043,5.16250042 6.80249983,4.06749922 5.86499982,3.37000091 L6.26999953,2.72500041 L8.23499873,5.64999962 C8.09999853,5.82249832 8.02499873,6.03250123 8.02499873,6.25000003 C8.02499873,6.79000093 8.45999914,7.22500043 9,7.22500043 C9.38249974,7.22500043 9.71999944,7.00749973 9.88499934,6.66250043 L10.664999,6.66250043 C10.8374987,8.55250174 12.4274989,10 14.324997,10 C16.3574982,10 18,8.35000043 18,6.32500083 C18,4.29249952 16.3500005,2.64999961 14.3250009,2.64999961 L14.3250009,2.64999961 Z M6.75000003,6.32500083 C6.75000003,8.02000053 5.37000082,9.39999974 3.67500022,9.39999974 C1.97999961,9.39999974 0.599999902,8.02000053 0.599999902,6.32500083 C0.599999902,4.62999922 1.98000001,3.25000001 3.67500022,3.25000001 C4.14750002,3.25000001 4.61250022,3.35499951 5.04000002,3.56499961 L3.42000011,6.16749963 C3.38999991,6.21249963 3.37500001,6.27249913 3.37500001,6.32500083 C3.37500001,6.49000173 3.51000021,6.62500003 3.67500022,6.62500003 C3.77999972,6.62500003 3.87749962,6.57249833 3.92999942,6.48250013 L5.55000022,3.88749982 C6.30750083,4.46500022 6.75000003,5.36500172 6.75000003,6.32500083 L6.75000003,6.32500083 Z M9.27000054,5.31250002 C9.18000034,5.29000092 9.09000114,5.27499962 9.00000004,5.27499962 C8.90999984,5.27499962 8.82000064,5.29000092 8.72999954,5.31250002 L6.84000023,2.50000001 L11.1599989,2.50000001 L9.27000054,5.31250002 L9.27000054,5.31250002 Z M10.6575003,6.06250003 L9.95250134,6.06250003 C9.92250164,5.91250042 9.85500054,5.77000052 9.76500134,5.64999962 L11.7300005,2.72500041 L12.1350003,3.37000091 C11.2725,4.00750062 10.7325001,4.98999982 10.6575003,6.06250003 L10.6575003,6.06250003 Z M12.4499999,3.88749982 L13.8075009,6.06250003 L11.2575006,6.06250003 C11.3325005,5.20000082 11.7674999,4.41250042 12.4499999,3.88749982 L12.4499999,3.88749982 Z M14.3250009,9.39999964 C12.7575008,9.39999964 11.4375,8.22249983 11.2649994,6.66250043 L13.83,6.66250043 C13.9424992,6.82750133 14.1299992,6.92499933 14.3250008,6.92499933 C14.6549988,6.92499933 14.9249993,6.65499883 14.9249993,6.32500083 C14.9249993,5.99500092 14.6549988,5.72500042 14.3250008,5.72500042 C14.3174992,5.72500042 14.3099995,5.72500042 14.3025017,5.72500042 L12.960001,3.56499961 C13.3800011,3.35499961 13.8525009,3.25000001 14.3250027,3.25000001 C16.0200024,3.25000001 17.4000016,4.62999922 17.4000016,6.32500083 C17.4000016,8.02000053 16.0200006,9.39999964 14.3250009,9.39999964 L14.3250009,9.39999964 Z"/>
      </g>
      <polygon points="1.59 1.83 1.59 2.243 0 2.243 0 0 .488 0 .488 1.83"/>
      <path fill-rule="nonzero" d="M2.62500001,0.525000102 C2.87250041,0.525000102 3.06750011,0.607499803 3.22499991,0.764999903 C3.37500001,0.922499704 3.45750001,1.1399999 3.45750001,1.40249971 C3.45750001,1.67999941 3.37500001,1.89749961 3.20999961,2.06250001 C3.05999951,2.21250011 2.85750011,2.29500011 2.60999971,2.29500011 C2.34749991,2.29500011 2.13749941,2.21250011 1.98749931,2.04000001 C1.83749961,1.87500001 1.76249931,1.66500001 1.76249931,1.40999981 C1.76249931,1.1549996 1.83749961,0.952499804 1.97999951,0.787499403 C2.13749981,0.614999803 2.35500001,0.525000102 2.62500001,0.525000102 Z M2.60250001,0.869999904 C2.48250011,0.869999904 2.39249951,0.914999704 2.31749971,1.0124998 C2.24999961,1.1100001 2.21249971,1.23750021 2.21249971,1.41000031 C2.21249971,1.58250041 2.24999961,1.71750021 2.31749971,1.80750031 C2.39249951,1.89750001 2.48999981,1.95000071 2.60999971,1.95000071 C2.72249991,1.95000071 2.81999971,1.90500061 2.88749941,1.82250061 C2.96249971,1.72500031 2.99999961,1.59000101 2.99999961,1.41000071 C2.99999961,1.24500071 2.96249971,1.1100005 2.89499961,1.0200008 C2.82749991,0.922500104 2.73000001,0.869999904 2.60250001,0.869999904 Z"/>
      <path d="M5.29500012,1.60500001 C5.27250002,1.77000001 5.22000032,1.91249991 5.13000112,2.0250001 C4.98750122,2.20499991 4.77750112,2.29500011 4.51500092,2.29500011 C4.24500042,2.29500011 4.02750122,2.20499991 3.87750112,2.01749991 C3.75000102,1.86000011 3.68250042,1.66500041 3.68250042,1.42500021 C3.68250042,1.1324997 3.76500092,0.907499804 3.93750002,0.742500103 C4.08750012,0.599999902 4.28250032,0.525000102 4.51499992,0.525000102 C4.73249922,0.525000102 4.91249992,0.585000302 5.04750062,0.697500203 C5.18250042,0.810000203 5.26499942,0.967500204 5.28000072,1.1624999 L4.84500032,1.1624999 C4.83000092,1.0725002 4.79250052,1.0050001 4.73250062,0.952499904 C4.67250022,0.900000104 4.60500052,0.877499904 4.51500092,0.877499904 C4.38750132,0.877499904 4.29750162,0.922499704 4.23000062,1.0200001 C4.16249992,1.1175003 4.12500102,1.24499991 4.12500102,1.41750001 C4.12500102,1.56750011 4.15500072,1.68750001 4.20750152,1.77750011 C4.27500112,1.89000031 4.37250152,1.94250011 4.50750172,1.94250011 C4.70250232,1.94250011 4.82250132,1.82999991 4.85250202,1.60500001 L5.29500012,1.60500001 Z"/>
      <path fill-rule="nonzero" d="M7.08749963,2.25000001 L6.62999923,2.25000001 C6.60749923,2.18249991 6.60000043,2.13000011 6.60000043,2.08500001 C6.45750053,2.22750041 6.27750023,2.30250021 6.06000043,2.30250021 C5.88749982,2.30250021 5.75249962,2.26500031 5.65500072,2.18250031 C5.54250052,2.09250061 5.49000072,1.96500011 5.49000072,1.80000061 C5.49000072,1.59000011 5.58750152,1.44750061 5.77500152,1.36500021 C5.85000132,1.33500001 5.99250032,1.30500031 6.20250133,1.27500061 C6.38250073,1.25250061 6.48750113,1.23000051 6.53250033,1.20750051 C6.57750133,1.1850005 6.60000043,1.1400004 6.60000043,1.0725003 C6.60000043,0.922500204 6.50249963,0.855000104 6.30750093,0.855000104 C6.20250143,0.855000104 6.12750063,0.870000004 6.08250053,0.907499904 C6.03750043,0.944999904 6.00000003,1.0050001 5.98500062,1.1025 L5.56499962,1.1025 C5.57999992,0.914999804 5.64750012,0.772499603 5.77499962,0.682499903 C5.90250012,0.584999602 6.08250043,0.539999702 6.31499963,0.539999702 C6.57749943,0.539999702 6.76499943,0.592499502 6.89249993,0.697499703 C6.95249943,0.749999503 6.99000072,0.802499703 7.00499913,0.854999504 C7.01999943,0.907499304 7.03499883,0.997499704 7.03499883,1.1249995 C7.03499883,1.1474995 7.03499883,1.25999971 7.02749823,1.46249961 C7.02749823,1.66499901 7.02749823,1.77749921 7.02749823,1.80749941 C7.02749823,1.92749931 7.02749823,2.01749941 7.03499883,2.07749941 C7.05000023,2.11499981 7.06499963,2.18249991 7.08749963,2.25000001 Z M6.60000043,1.43999961 C6.54000003,1.47750001 6.43500043,1.50749971 6.28499983,1.52249961 C6.18000033,1.53749941 6.10500053,1.55999951 6.05249983,1.58250001 C5.98500062,1.61999991 5.95499992,1.68000031 5.95499992,1.76249981 C5.95499992,1.82999991 5.97749992,1.88999991 6.02249913,1.92749981 C6.06749833,1.96499971 6.12749863,1.98750021 6.20999913,1.98750021 C6.34499933,1.98750021 6.44999893,1.94250011 6.52499873,1.85250001 C6.55499843,1.82249981 6.56999973,1.78499991 6.58499913,1.75499971 C6.59249973,1.71749981 6.59999853,1.67249971 6.59999853,1.61999951 L6.60000043,1.43999961 L6.60000043,1.43999961 Z"/>
      <path d="M8.28750043,0.562500002 L8.28750043,0.877499803 L7.94999983,0.877499803 L7.94999983,1.66500001 C7.94999983,1.76249981 7.95750043,1.82249981 7.97249983,1.84499981 C7.99500083,1.88249971 8.05500033,1.89749961 8.14500043,1.89749961 C8.18250083,1.89749961 8.22750093,1.89749961 8.28000063,1.88999991 L8.28000063,2.25000001 C8.18250083,2.26499991 8.08500003,2.26499991 8.00250053,2.26499991 C7.87500093,2.26499991 7.77750113,2.25000001 7.71000103,2.21999981 C7.60500153,2.17500021 7.54500203,2.09250021 7.51500133,1.96499971 C7.50750073,1.91249991 7.50000103,1.80749991 7.50000103,1.64249951 L7.50000103,0.885000203 L7.23000053,0.885000203 L7.23000053,0.570000402 L7.50000103,0.570000402 L7.50000103,0.1800008 L7.94250113,0.1800008 L7.94250113,0.570000402 L8.28750043,0.570000402 L8.28750043,0.562500002 L8.28750043,0.562500002 Z"/>
      <path fill-rule="nonzero" d="M8.98500064 5.55111512e-17L8.98500064.405000202 8.54250054.405000202 8.54250054 5.55111512e-17 8.98500064 5.55111512e-17zM8.98500064.569999902L8.98500064 2.25000001 8.54250054 2.25000001 8.54250054.569999902 8.98500064.569999902zM10.1475.525000102C10.3950004.525000102 10.5900001.607499803 10.7475004.764999903 10.8975.922499704 10.9800005 1.1399999 10.9800005 1.40249971 10.9800005 1.67999941 10.8975 1.89749961 10.7325001 2.06250001 10.5825005 2.21250011 10.3800011 2.29500011 10.1325007 2.29500011 9.87000094 2.29500011 9.65999994 2.21250011 9.51000034 2.04000001 9.36000074 1.87500001 9.28499994 1.66500001 9.28499994 1.40999991 9.28499994 1.1549998 9.36000074.952499904 9.50249964.787499503 9.66749954.614999803 9.87749964.525000102 10.1475.525000102zM10.125.869999904C10.0049992.869999904 9.91500004.914999704 9.84000024 1.0124998 9.77250004 1.1100001 9.73500064 1.23750021 9.73500064 1.41000031 9.73500064 1.58250041 9.77250004 1.71750021 9.84000014 1.80750031 9.91500004 1.89750001 10.0124998 1.95000081 10.1324997 1.95000081 10.2449989 1.95000081 10.3424997 1.90500071 10.4099989 1.82250071 10.4849987 1.72500041 10.5224991 1.59000111 10.5224991 1.41000081 10.5224991 1.24500081 10.4849987 1.1100006 10.4174996 1.0200009 10.3575001.922500104 10.2524996.869999904 10.125.869999904z"/>
      <path d="M11.6924992,0.569999902 L11.6924992,0.802499703 C11.7449989,0.727499703 11.79,0.675000003 11.8349991,0.645000003 C11.9474993,0.562500002 12.0824996,0.517500202 12.2324992,0.517500202 C12.3674994,0.517500202 12.4874993,0.555000102 12.5849992,0.622500203 C12.659999,0.675000003 12.7124988,0.750000003 12.7424995,0.832500503 C12.7724992,0.915000504 12.7875005,1.0350004 12.7875005,1.1925006 L12.7875005,2.25000001 L12.3450004,2.25000001 L12.3450004,1.29000001 C12.3450004,1.1849995 12.3374998,1.1025 12.3150007,1.0500002 C12.3000013,1.0050001 12.2700006,0.967500204 12.2250015,0.944999904 C12.1800005,0.914999704 12.120002,0.900000104 12.0600015,0.900000104 C11.9925022,0.900000104 11.9325018,0.914999704 11.8725014,0.952499904 C11.8200016,0.982499904 11.7750016,1.0274997 11.7525006,1.0875001 C11.7225018,1.1475 11.7075005,1.25249961 11.7075005,1.38749981 L11.7075005,2.25000001 L11.2650013,2.25000001 L11.2650013,0.569999902 L11.6924992,0.569999902 Z"/>
    </g>
  </g>
</svg>
