<svg xmlns="http://www.w3.org/2000/svg" xmlns:xlink="http://www.w3.org/1999/xlink" width="24" height="24" viewBox="0 0 24 24">
  <defs>
    <polygon id="3063_metro_r-a" points="0 0 24 0 24 24 0 24"/>
    <polygon id="3063_metro_r-c" points="0 24 24 24 24 0 0 0"/>
  </defs>
  <g fill="none" fill-rule="evenodd">
    <mask id="3063_metro_r-b" fill="#fff">
      <use xlink:href="#3063_metro_r-a"/>
    </mask>
    <path fill="#2D327D" d="M22.5,-0.0001 L1.5,-0.0001 C0.675,-0.0001 0,0.6749 0,1.4999 L0,22.4999 C0,23.3249 0.675,23.9999 1.5,23.9999 L22.5,23.9999 C23.325,23.9999 24,23.3249 24,22.4999 L24,1.4999 C24,0.6749 23.325,-0.0001 22.5,-0.0001" mask="url(#3063_metro_r-b)"/>
    <polygon fill="#FEFEFE" points="5.643 3 5.643 5.249 5.177 5.249 5.194 3.54 4.626 5.249 4.24 5.249 3.664 3.588 3.68 5.249 3.214 5.249 3.214 3 3.913 3 4.442 4.617 4.951 3"/>
    <path fill="#FEFEFE" d="M7.1177 4.2318C7.1097 4.1508 7.0907 4.0838 7.0617 4.0308 7.0337 3.9788 6.9927 3.9368 6.9397 3.9058 6.8877 3.8758 6.8287 3.8598 6.7667 3.8598 6.6677 3.8598 6.5857 3.8928 6.5207 3.9598 6.4557 4.0258 6.4177 4.1168 6.4057 4.2318L7.1177 4.2318zM7.5467 4.7258C7.5227 4.8198 7.4807 4.9088 7.4187 4.9918 7.2717 5.1938 7.0587 5.2948 6.7827 5.2948 6.5317 5.2948 6.3317 5.2158 6.1807 5.0578 6.1067 4.9808 6.0507 4.8878 6.0117 4.7798 5.9697 4.6638 5.9487 4.5428 5.9487 4.4168 5.9487 4.1728 6.0187 3.9678 6.1597 3.8008 6.3157 3.6158 6.5187 3.5228 6.7687 3.5228 6.9697 3.5228 7.1407 3.5848 7.2827 3.7088 7.3837 3.7978 7.4577 3.9078 7.5037 4.0388 7.5497 4.1698 7.5727 4.3338 7.5727 4.5318L6.4027 4.5318C6.4067 4.6138 6.4187 4.6818 6.4407 4.7368 6.5007 4.8828 6.6167 4.9568 6.7847 4.9568 6.8677 4.9568 6.9357 4.9388 6.9887 4.9018 7.0407 4.8658 7.0837 4.8068 7.1177 4.7258L7.5467 4.7258zM8.7139 3.5658L8.7139 3.8808 8.3809 3.8808 8.3809 4.6698C8.3809 4.7648 8.3889 4.8248 8.4059 4.8508 8.4319 4.8868 8.4889 4.9058 8.5789 4.9058 8.6129 4.9058 8.6589 4.9028 8.7139 4.8978L8.7139 5.2548C8.6129 5.2658 8.5209 5.2718 8.4369 5.2718 8.3099 5.2718 8.2129 5.2568 8.1469 5.2288 8.0429 5.1828 7.9789 5.0988 7.9529 4.9768 7.9419 4.9238 7.9359 4.8158 7.9359 4.6518L7.9359 3.8808 7.6639 3.8808 7.6639 3.5658 7.9359 3.5658 7.9359 3.1718 8.3809 3.1718 8.3809 3.5658 8.7139 3.5658zM10.0151 3.5414L10.0151 3.9734C9.9431 3.9604 9.8861 3.9534 9.8411 3.9534 9.6751 3.9534 9.5531 4.0234 9.4751 4.1634 9.4311 4.2404 9.4091 4.3714 9.4091 4.5534L9.4091 5.2494 8.9631 5.2494 8.9631 3.5694 9.3881 3.5694 9.3881 3.8754C9.5091 3.6474 9.6841 3.5334 9.9151 3.5334 9.9441 3.5334 9.9771 3.5364 10.0151 3.5414M10.981 3.8705C10.863 3.8705 10.77 3.9185 10.7 4.0135 10.629 4.1105 10.594 4.2415 10.594 4.4095 10.594 4.5825 10.628 4.7155 10.698 4.8075 10.77 4.9005 10.868 4.9475 10.992 4.9475 11.108 4.9475 11.2 4.9045 11.267 4.8195 11.344 4.7255 11.383 4.5885 11.383 4.4095 11.383 4.2405 11.349 4.1105 11.281 4.0165 11.21 3.9195 11.11 3.8705 10.981 3.8705M11.004 3.5225C11.248 3.5225 11.448 3.6035 11.603 3.7665 11.755 3.9265 11.832 4.1395 11.832 4.4055 11.832 4.6815 11.75 4.9015 11.587 5.0655 11.435 5.2185 11.235 5.2945 10.99 5.2945 10.729 5.2945 10.521 5.2095 10.366 5.0395 10.218 4.8775 10.145 4.6675 10.145 4.4095 10.145 4.1545 10.216 3.9485 10.36 3.7885 10.519 3.6115 10.733 3.5225 11.004 3.5225"/>
    <mask id="3063_metro_r-d" fill="#fff">
      <use xlink:href="#3063_metro_r-c"/>
    </mask>
    <polygon fill="#FEFEFE" points="3 21 21 21 21 20.25 3 20.25" mask="url(#3063_metro_r-d)"/>
    <path fill="#FEFEFE" d="M19.9487,14.5272 L16.0147,14.5592 C15.8067,14.5592 15.6387,14.3912 15.6387,14.1852 L15.6387,8.6262 C15.6387,8.4192 15.8067,8.2512 16.0147,8.2512 L19.4787,8.2512 C19.6847,8.2512 19.8267,8.3842 19.8527,8.6262 L20.2937,14.1562 C20.3147,14.3722 20.1557,14.5272 19.9487,14.5272 L19.9487,14.5272 Z M14.9797,14.1852 C14.9797,14.3912 14.8117,14.5592 14.6047,14.5592 L10.8067,14.5592 C10.5997,14.5592 10.4317,14.3912 10.4317,14.1852 L10.4317,8.6262 C10.4317,8.4192 10.5997,8.2512 10.8067,8.2512 L14.6047,8.2512 C14.8117,8.2512 14.9797,8.4192 14.9797,8.6262 L14.9797,14.1852 Z M9.6497,18.1722 C9.6497,18.4912 9.3917,18.7502 9.0727,18.7502 C8.7537,18.7502 8.4947,18.4912 8.4947,18.1722 L8.4947,8.7542 C8.4947,8.4352 8.7537,8.1762 9.0727,8.1762 C9.3917,8.1762 9.6497,8.4352 9.6497,8.7542 L9.6497,18.1722 Z M7.7137,18.1722 C7.7137,18.4912 7.4547,18.7502 7.1357,18.7502 C6.8167,18.7502 6.5577,18.4912 6.5577,18.1722 L6.5577,8.7542 C6.5577,8.4352 6.8167,8.1762 7.1357,8.1762 C7.4547,8.1762 7.7137,8.4352 7.7137,8.7542 L7.7137,18.1722 Z M20.4217,8.7552 C20.3557,8.0362 20.0577,7.5762 19.2207,7.5762 L13.8097,7.5762 L2.9997,7.5762 L2.9997,8.2512 L5.4017,8.2512 C5.6087,8.2512 5.7767,8.4192 5.7767,8.6262 L5.7767,14.1852 C5.7767,14.3912 5.6087,14.5592 5.4017,14.5592 L2.9997,14.5592 L2.9997,19.5002 L20.6237,19.5002 C20.8307,19.5002 20.9987,19.3322 20.9987,19.1252 L20.9987,14.8442 C20.9987,14.7842 20.4217,8.7552 20.4217,8.7552 L20.4217,8.7552 Z" mask="url(#3063_metro_r-d)"/>
  </g>
</svg>
