<?xml version="1.0" encoding="utf-8"?>
<!-- Generator: Adobe Illustrator 24.2.0, SVG Export Plug-In . SVG Version: 6.00 Build 0)  -->
<svg version="1.0" id="Ebene_1" xmlns="http://www.w3.org/2000/svg" xmlns:xlink="http://www.w3.org/1999/xlink" x="0px" y="0px"
	 viewBox="0 0 400 400" enable-background="new 0 0 400 400" xml:space="preserve">
<rect id="background-blue" fill="#2D327D" width="400" height="400"/>
<g id="content">
	<path id="frameWhite" fill="#FFFFFF" d="M340,40c11,0,20,9,20,20v280c0,11-9,20-20,20H60c-11,0-20-9-20-20V60c0-11,9-20,20-20H340
		 M340,35H60c-13.785,0-25,11.215-25,25v280c0,13.785,11.215,25,25,25h280c13.785,0,25-11.215,25-25V60
		C365,46.215,353.785,35,340,35L340,35z"/>
	<path fill="#FFFFFF" d="M314.154,174.526L138.72,238.385c-3.27,1.188-6.806,1.032-9.947-0.439c0,0-8.482-3.952-18.088-8.428
		l8.522,23.414c1.503,4.131,6.117,6.282,10.252,4.777l182.306-66.359c4.135-1.505,6.287-6.118,4.782-10.25L314.154,174.526z"/>
	<path fill="#FFFFFF" d="M79.317,201.497l2.318,6.373c0.699,1.925,2.133,3.587,4.139,4.521l45.111,21.024
		c1.856,0.871,4.046,1.027,6.126,0.271l177.313-64.542c4.135-1.505,6.287-6.116,4.784-10.249l-14.359-39.45L79.317,201.497z"/>
	<path fill="#FFFFFF" d="M239.037,255h8.742l-11.371-31.24l-28.199,10.257l12.244,33.635C223.389,260.253,230.604,255,239.037,255z"
		/>
	<path fill="#FFFFFF" d="M239.037,260c-8.285,0-15.002,6.715-15.002,15c-0.003,8.284,6.717,15,15.002,15h80.962v-30H239.037
		 M239.037,284.956c-5.523,0-10.001-4.477-10.001-9.999c0-5.523,4.477-10,10.001-10c5.521,0,9.998,4.477,9.998,10
		C249.035,280.479,244.558,284.956,239.037,284.956z"/>
	<g id="Ergaenzungstext">
		<path fill="#FFFFFF" d="M107.844,80l-9.967,29.982h-7.444L80.61,80h6.85l6.747,22.456L101.056,80H107.844z"/>
		<path fill="#FFFFFF" d="M116.314,80v5.353h-5.947V80H116.314z M116.314,87.629v22.354h-5.947V87.629H116.314z"/>
		<path fill="#FFFFFF" d="M142.195,80v29.982h-5.681v-2.933c-1.312,2.365-3.493,3.548-6.542,3.548c-3.035,0-5.448-1.114-7.239-3.343
			c-1.75-2.174-2.625-5.038-2.625-8.593c0-3.35,0.772-6.063,2.317-8.142c1.777-2.406,4.184-3.609,7.219-3.609
			c2.967,0,5.175,1.142,6.624,3.425V80H142.195z M131.182,91.792c-1.531,0-2.755,0.574-3.671,1.723
			c-0.943,1.203-1.415,2.898-1.415,5.086c0,2.133,0.465,3.828,1.395,5.086c0.889,1.203,2.153,1.805,3.794,1.805
			s2.912-0.595,3.814-1.784s1.354-2.864,1.354-5.024c0-2.256-0.479-3.979-1.436-5.168C134.074,92.366,132.796,91.792,131.182,91.792
			z"/>
		<path fill="#FFFFFF" d="M166.927,103.01c-0.314,1.258-0.882,2.44-1.702,3.548c-1.969,2.693-4.799,4.04-8.49,4.04
			c-3.336,0-6.009-1.053-8.019-3.158c-0.984-1.025-1.736-2.263-2.256-3.712c-0.561-1.545-0.841-3.158-0.841-4.84
			c0-3.254,0.937-5.988,2.81-8.203c2.092-2.475,4.799-3.712,8.121-3.712c2.68,0,4.963,0.827,6.85,2.481
			c1.354,1.189,2.338,2.656,2.953,4.399s0.923,3.934,0.923,6.573H151.67c0.055,1.094,0.226,2.003,0.513,2.728
			c0.807,1.955,2.338,2.933,4.594,2.933c1.107,0,2.01-0.243,2.707-0.728s1.271-1.268,1.723-2.348H166.927z M161.206,96.427
			c-0.109-1.08-0.355-1.976-0.738-2.687c-0.383-0.697-0.926-1.251-1.63-1.661s-1.474-0.615-2.308-0.615
			c-1.326,0-2.42,0.444-3.281,1.333s-1.374,2.099-1.538,3.63H161.206z"/>
		<path fill="#FFFFFF" d="M181.57,86.973c3.254,0,5.913,1.08,7.978,3.24c2.037,2.133,3.056,4.977,3.056,8.531
			c0,3.678-1.087,6.61-3.261,8.798c-2.037,2.037-4.689,3.056-7.957,3.056c-3.486,0-6.262-1.135-8.326-3.404
			c-1.969-2.16-2.953-4.963-2.953-8.408c0-3.391,0.957-6.146,2.871-8.265C175.096,88.155,177.961,86.973,181.57,86.973z
			 M181.262,91.607c-1.572,0-2.823,0.636-3.753,1.907c-0.943,1.285-1.415,3.042-1.415,5.271c0,2.311,0.465,4.081,1.395,5.312
			c0.957,1.244,2.263,1.866,3.917,1.866c1.545,0,2.769-0.567,3.671-1.702c1.025-1.258,1.538-3.083,1.538-5.476
			c0-2.242-0.451-3.985-1.354-5.229C184.318,92.257,182.985,91.607,181.262,91.607z"/>
	</g>
</g>
</svg>
