<?xml version="1.0" encoding="utf-8"?>
<!-- Generator: Adobe Illustrator 24.2.0, SVG Export Plug-In . SVG Version: 6.00 Build 0)  -->
<svg version="1.0" id="Ebene_1" xmlns="http://www.w3.org/2000/svg" xmlns:xlink="http://www.w3.org/1999/xlink" x="0px" y="0px"
	 viewBox="0 0 400 400.001" enable-background="new 0 0 400 400.001" xml:space="preserve">
<rect id="background-blue" fill="#2D327D" width="400" height="400"/>
<g id="content">
	<path id="frameWhite" fill="#FFFFFF" d="M340,40c11,0,20,9,20,20v280c0,11-9,20-20,20H60c-11,0-20-9-20-20V60c0-11,9-20,20-20H340
		 M340,35H60c-13.785,0-25,11.215-25,25v280c0,13.785,11.215,25,25,25h280c13.785,0,25-11.215,25-25V60
		C365,46.215,353.785,35,340,35L340,35z"/>
	<polygon fill="#FFFFFF" points="80,185 288,185 288,215 80,215 80,185 	"/>
	<path fill="#FFFFFF" d="M195.035,94.489v3c0,40.019,32.484,72.503,72.503,72.503h10.001v-15.003h-10.001
		c-31.74,0-57.499-25.76-57.499-57.5v-3H195.035L195.035,94.489z"/>
	<path fill="#FFFFFF" d="M277.501,124.996h-10.001c-15.179,0-27.502-12.32-27.502-27.499v-3h-15v3
		c0,23.461,19.045,42.499,42.502,42.499h10.001c15.179,0,27.499,12.32,27.499,27.502V170H320v-2.501
		C320,144.037,300.962,124.996,277.501,124.996L277.501,124.996z"/>
	<polygon fill="#FFFFFF" points="305,185 320,185 320,215 305,215 305,185 	"/>
</g>
</svg>
