<?xml version="1.0" encoding="utf-8"?>
<!-- Generator: Adobe Illustrator 24.2.0, SVG Export Plug-In . SVG Version: 6.00 Build 0)  -->
<svg version="1.0" id="Ebene_1" xmlns="http://www.w3.org/2000/svg" xmlns:xlink="http://www.w3.org/1999/xlink" x="0px" y="0px"
	 viewBox="0 0 400 400.001" enable-background="new 0 0 400 400.001" xml:space="preserve">
<rect id="background-blue" fill="#2D327D" width="400" height="400"/>
<g id="content">
	<path id="frameWhite" fill="#FFFFFF" d="M340,40c11,0,20,9,20,20v280c0,11-9,20-20,20H60c-11,0-20-9-20-20V60c0-11,9-20,20-20H340
		 M340,35H60c-13.785,0-25,11.215-25,25v280c0,13.785,11.215,25,25,25h280c13.785,0,25-11.215,25-25V60
		C365,46.215,353.785,35,340,35L340,35z"/>
	<path fill="#FFFFFF" d="M195.035,94.489v3c0,40.019,32.484,72.503,72.503,72.503h10.001v-15.003h-10.001
		c-31.74,0-57.499-25.76-57.499-57.5v-3H195.035L195.035,94.489z"/>
	<path fill="#FFFFFF" d="M277.539,124.989h-10.001c-15.179,0-27.502-12.32-27.502-27.499v-3h-15v3
		c0,23.461,19.045,42.499,42.502,42.499h10.001c15.179,0,27.499,12.32,27.499,27.502v2.501h15.001v-2.501
		C320.038,144.03,301,124.989,277.539,124.989L277.539,124.989z"/>
	<polygon fill="#FFFFFF" points="305.037,184.989 320.038,184.989 320.038,214.989 305.037,214.989 305.037,184.989 	"/>
	<polygon fill="#FFFFFF" points="320.672,306.31 229.351,214.989 288.036,214.989 288.036,184.989 199.35,184.989 89.444,75.084 
		75.302,89.225 171.066,184.989 80.037,184.989 80.037,214.989 201.066,214.989 306.532,320.455 	"/>
	<polygon fill="#EB0000" points="89.444,75.084 75.302,89.225 306.532,320.455 320.672,306.31 89.444,75.084 	"/>
</g>
</svg>
