<?xml version="1.0" encoding="utf-8"?>
<!-- Generator: Adobe Illustrator 24.2.0, SVG Export Plug-In . SVG Version: 6.00 Build 0)  -->
<svg version="1.0" id="Ebene_1" xmlns="http://www.w3.org/2000/svg" xmlns:xlink="http://www.w3.org/1999/xlink" x="0px" y="0px"
	 viewBox="0 0 400 400.001" enable-background="new 0 0 400 400.001" xml:space="preserve">
<rect id="background-blue" fill="#2D327D" width="400" height="400"/>
<g id="content">
	<path id="frameWhite" fill="#FFFFFF" d="M340,40c11,0,20,9,20,20v280c0,11-9,20-20,20H60c-11,0-20-9-20-20V60c0-11,9-20,20-20H340
		 M340,35H60c-13.785,0-25,11.215-25,25v280c0,13.785,11.215,25,25,25h280c13.785,0,25-11.215,25-25V60
		C365,46.215,353.785,35,340,35L340,35z"/>
	<path fill="#FFFFFF" d="M121.652,287.356c-8.968,0-16.251,7.279-16.251,16.242c0,8.976,7.283,16.255,16.251,16.255
		c8.968,0,16.24-7.28,16.24-16.255C137.892,294.636,130.62,287.356,121.652,287.356L121.652,287.356z"/>
	<path fill="#FFFFFF" d="M320.672,306.31l-28.169-28.169v-8.129h-8.13l-7.9-7.9c9.143-1.848,16.03-9.936,16.03-19.595v-62.521
		c0-11.043-8.957-19.993-20.006-19.993h-37.494v-10.017c0-5.509-4.486-9.977-10.008-9.977h-34.992
		c-5.526,0-10.008,4.468-10.008,9.977v10.017h-5.632L89.444,75.084L75.302,89.225l70.777,70.777h-3.581
		c-11.035,0-20.003,8.951-20.003,19.993v62.521c0,11.017,8.968,19.994,20.003,19.994h106.088l7.501,7.501H114.989V144.997
		c0-2.749-2.229-4.989-4.992-4.989H84.999c-2.761,0-5.002,2.239-5.002,4.989c0,2.761,2.241,4.988,5.002,4.988h20.006v130.017
		h161.074l7.667,7.667c-7.464,1.472-13.09,8.047-13.09,15.93c0,8.976,7.271,16.255,16.251,16.255
		c7.878,0,14.456-5.633,15.928-13.096l13.697,13.697L320.672,306.31z M190.003,149.985h34.992v10.017h-34.992V149.985z"/>
	<polygon fill="#EB0000" points="89.444,75.084 75.302,89.225 306.532,320.455 320.672,306.31 89.444,75.084 	"/>
</g>
</svg>
