<?xml version="1.0" encoding="utf-8"?>
<!-- Generator: Adobe Illustrator 24.2.0, SVG Export Plug-In . SVG Version: 6.00 Build 0)  -->
<svg version="1.0" id="Ebene_1" xmlns="http://www.w3.org/2000/svg" xmlns:xlink="http://www.w3.org/1999/xlink" x="0px" y="0px"
	 viewBox="0 0 400 400.001" enable-background="new 0 0 400 400.001" xml:space="preserve">
<rect id="background-blue" fill="#2D327D" width="400" height="400"/>
<g id="content">
	<path id="frameWhite" fill="#FFFFFF" d="M340,40c11,0,20,9,20,20v280c0,11-9,20-20,20H60c-11,0-20-9-20-20V60c0-11,9-20,20-20H340
		 M340,35H60c-13.785,0-25,11.215-25,25v280c0,13.785,11.215,25,25,25h280c13.785,0,25-11.215,25-25V60
		C365,46.215,353.785,35,340,35L340,35z"/>
	<path fill="#FFFFFF" d="M321.273,168.327c0-16.561-13.43-30.008-29.989-30.008h-53.002v-12.503c0-9.657-7.84-17.495-17.505-17.495
		h-39.002c-9.661,0-17.49,7.837-17.49,17.495v12.503H152.68L89.444,75.083L75.302,89.225l49.094,49.094H111.28
		c-16.561,0-30,13.446-30,30.008v120.011c0,16.539,13.44,29.983,30,29.983h180.004c3.89,0,7.603-0.75,11.013-2.099l4.234,4.234
		l14.14-14.145l-3.264-3.264c2.457-4.348,3.865-9.365,3.865-14.708V168.327z M178.281,122.326h46.004v15.993h-46.004V122.326z"/>
	<polygon fill="#EB0000" points="89.444,75.084 75.302,89.225 306.532,320.455 320.672,306.31 89.444,75.084 	"/>
</g>
</svg>
