<?xml version="1.0" encoding="utf-8"?>
<!-- Generator: Adobe Illustrator 24.2.0, SVG Export Plug-In . SVG Version: 6.00 Build 0)  -->
<svg version="1.0" id="Ebene_1" xmlns="http://www.w3.org/2000/svg" xmlns:xlink="http://www.w3.org/1999/xlink" x="0px" y="0px"
	 viewBox="0 0 400 400" enable-background="new 0 0 400 400" xml:space="preserve">
<polygon id="background-blue" fill="#2D327D" points="400,400 0,400 0,0 400,0 400,400 "/>
<g id="content">
	<path id="frameWhite" fill="#FFFFFF" d="M340,40c11,0,20,9,20,20v280c0,11-9,20-20,20H60c-11,0-20-9-20-20V60c0-11,9-20,20-20H340
		 M340,35H60c-13.785,0-25,11.215-25,25v280c0,13.785,11.215,25,25,25h280c13.785,0,25-11.215,25-25V60
		C365,46.215,353.785,35,340,35L340,35z"/>
	<path id="Hand_1_" fill="#FFFFFF" d="M83.479,255.759l-0.04,0.014c-2.361,5.59-3.384,11.807-3.421,17.09
		c-0.042,5.261,0,47.137,0,47.137l104.285,0c1.116-2.513,4.217-8.127,7.528-15.251c-2.672,1.182-5.701,1.875-8.981,1.967
		c-0.244,0.005-0.489,0.009-0.733,0.009c-4.002,0-8.133-0.915-11.944-2.647l-46.789-21.271c-6.717-3.052-11.888-8.361-14.187-14.569
		c-1.775-4.791-1.657-9.784,0.329-14.059l21.161-45.497l11.633-25.011c2.194-6.734,0.284-14.181-5.032-19.023
		c-0.751-0.685-1.626-1.251-2.594-1.658c-4.601-1.944-9.936,0.218-11.885,4.836L83.479,255.759z"/>
	<g>
		<path fill="#FFFFFF" d="M206.874,319.576c-5.93-0.069-10.676-4.935-10.618-10.86c0.073-5.931,4.931-10.688,10.86-10.612
			l19.705-0.013c5.926-0.072,10.789,4.675,10.865,10.615c0.069,5.926-4.675,10.795-10.612,10.858L206.874,319.576z"/>
	</g>
	<g>
		<path fill="#FFFFFF" d="M219.122,293.354c-5.93-0.069-10.677-4.925-10.619-10.849c0.072-5.931,4.932-10.7,10.861-10.624l19.703,0
			c5.926-0.072,10.791,4.675,10.867,10.615c0.069,5.926-4.675,10.795-10.612,10.858L219.122,293.354z"/>
	</g>
	<path fill="#FFFFFF" d="M322.682,308.536l-66.502-66.502l7.287,0c5.937-0.063,10.681-4.943,10.612-10.869
		c-0.076-5.94-4.941-10.688-10.867-10.615l-19.704,0c-2.487-0.032-4.779,0.796-6.616,2.197l-4.699-4.699l28.547-61.378
		c1.75-3.759,1.535-8.151-0.604-12.369c-2.175-4.284-6.07-7.87-10.968-10.095l-46.796-21.27c-3.218-1.463-6.687-2.234-10.032-2.234
		l-0.609,0.008c-6.589,0.183-11.895,3.242-14.195,8.183l-14.126,30.372L91.457,77.312L77.315,91.454l77.115,77.115l-40.725,87.56
		c-1.483,3.192-1.547,6.824-0.185,10.502c1.873,5.058,6.159,9.419,11.761,11.964l46.789,21.271c3.214,1.459,6.683,2.231,10.03,2.231
		l0.604-0.009c6.598-0.185,11.908-3.24,14.205-8.175l26.306-56.559l8.477,8.477h-0.218c-5.929-0.076-10.789,4.693-10.861,10.624
		c-0.058,5.924,4.689,10.78,10.619,10.849h20.201c0.541-0.006,1.068-0.064,1.586-0.147l55.523,55.522L322.682,308.536z
		 M186.353,127.256l61.573,27.684l-24.885,53.955l-50.876-50.876L186.353,127.256z M162.636,276.662
		c-1.591,3.294-5.608,4.657-8.969,3.048c-3.354-1.609-4.787-5.576-3.195-8.869c1.594-3.298,5.605-4.654,8.959-3.055
		C162.794,269.395,164.23,273.365,162.636,276.662z M194.291,271.228l-61.567-27.692l30.513-66.159l50.875,50.875L194.291,271.228z"
		/>
	
		<rect x="189.998" y="36.495" transform="matrix(0.7071 -0.7071 0.7071 0.7071 -82.8398 199.9974)" fill="#EB0000" width="20" height="327.001"/>
</g>
</svg>
