<?xml version="1.0" encoding="utf-8"?>
<!-- Generator: Adobe Illustrator 24.2.0, SVG Export Plug-In . SVG Version: 6.00 Build 0)  -->
<svg version="1.0" xmlns="http://www.w3.org/2000/svg" xmlns:xlink="http://www.w3.org/1999/xlink" x="0px" y="0px"
	 viewBox="0 0 400 400.001" enable-background="new 0 0 400 400.001" xml:space="preserve">
<rect id="background-blue" fill="#2D327D" width="400" height="400"/>
<g id="content">
	<path id="frameWhite" fill="#FFFFFF" d="M340,40c11,0,20,9,20,20v280c0,11-9,20-20,20H60c-11,0-20-9-20-20V60c0-11,9-20,20-20H340
		 M340,35H60c-13.785,0-25,11.215-25,25v280c0,13.785,11.215,25,25,25h280c13.785,0,25-11.215,25-25V60
		C365,46.215,353.785,35,340,35L340,35z"/>
	<path fill="#FFFFFF" d="M147.805,279.404c-5.193-2.69-11.58-4.28-18.492-4.28c-17.393,0-31.492,10.046-31.492,22.438
		c0,12.392,14.099,22.438,31.492,22.438c17.392,0,31.492-10.046,31.492-22.438l0-0.002V174.729l-13.001-13.001L147.805,279.404z"/>
	<polygon fill="#FFFFFF" points="253.181,128.681 253.181,238.82 266.181,251.82 266.181,80 147.805,125.634 147.805,133.444 
		173.22,158.859 	"/>
	<path fill="#FFFFFF" d="M203.197,269.562c0,12.392,14.099,22.438,31.492,22.438c13.273,0,24.62-5.854,29.254-14.133l-30.716-30.717
		C216.514,247.695,203.197,257.519,203.197,269.562z"/>
	<polygon fill="#EB0000" points="89.444,75.084 75.302,89.225 306.532,320.455 320.672,306.31 89.444,75.084 	"/>
</g>
</svg>
