<?xml version="1.0" encoding="utf-8"?>
<!-- Generator: Adobe Illustrator 24.2.0, SVG Export Plug-In . SVG Version: 6.00 Build 0)  -->
<svg version="1.0" id="Ebene_1" xmlns="http://www.w3.org/2000/svg" xmlns:xlink="http://www.w3.org/1999/xlink" x="0px" y="0px"
	 viewBox="0 0 400 400.001" enable-background="new 0 0 400 400.001" xml:space="preserve">
<rect id="background-blue" fill="#2D327D" width="400" height="400"/>
<g id="content">
	<path id="frameWhite" fill="#FFFFFF" d="M340,40c11,0,20,9,20,20v280c0,11-9,20-20,20H60c-11,0-20-9-20-20V60c0-11,9-20,20-20H340
		 M340,35H60c-13.785,0-25,11.215-25,25v280c0,13.785,11.215,25,25,25h280c13.785,0,25-11.215,25-25V60
		C365,46.215,353.785,35,340,35L340,35z"/>
	<path fill="#FFFFFF" d="M138.601,273.95c-3.076,3.603-6.784,6.635-10.959,8.952l22.81,32.609c2.237,3.192,6.637,3.968,9.831,1.735
		c3.19-2.236,3.967-6.637,1.732-9.829L138.601,273.95L138.601,273.95z"/>
	<path fill="#FFFFFF" d="M214.339,258.387L188.804,308.5c-1.771,3.473-0.389,7.721,3.082,9.488c3.471,1.771,7.723,0.391,9.49-3.08
		l28.803-56.52H214.339L214.339,258.387z"/>
	<path fill="#FFFFFF" d="M259.77,219.784l5.631-9.722l-32.812-32.987l-7.14,6.942c-2.208,2.147-6.536,3.904-9.616,3.904h-13.55
		L89.444,75.084L75.302,89.225l98.696,98.696h-65.028c-10.911,0-19.756-8.845-19.756-19.754c0-10.912,8.845-19.758,19.756-19.758
		c2.888,0,5.229-2.343,5.229-5.232c0-2.889-2.341-5.231-5.229-5.231c-16.691,0-30.22,13.528-30.22,30.221
		c0,16.69,13.529,30.219,30.22,30.219v50.139l-20.71,24.227v39.863c0,3.9,3.158,7.058,7.054,7.058c3.898,0,7.058-3.158,7.058-7.058
		l-0.007-29.369c-0.004-2.198,1.795-3.998,3.996-3.998c0,0,0.103,0,2.242,0c16.509,0,29.911-13.192,30.308-29.604h96.811l3.78,3.78
		l-0.007,58.967c-0.018,4.002,3.129,7.261,7.024,7.276c3.896,0.017,7.065-3.216,7.08-7.224l0.011-44.911l52.923,52.923l14.14-14.145
		l-60.902-60.901V219.784z"/>
	<path fill="#FFFFFF" d="M317.705,152.365h-14.03l-3.661-4.955c0,0-0.628-0.849-1.395-1.892c-0.767-1.038-2.436-1.888-3.704-1.888
		c0,0,0,0-3.27,0h-21.443c-1.769,0-4.287,1.043-5.598,2.32c-1.315,1.275-24.503,23.821-24.503,23.821l30.734,30.9l8.287-14.316
		c0.883-1.523,3.047-2.768,4.804-2.768h25.026l11.952-11.951v-16.072C320.904,153.805,319.463,152.365,317.705,152.365z"/>
	<polygon fill="#EB0000" points="89.444,75.084 75.302,89.225 306.532,320.455 320.672,306.31 89.444,75.084 	"/>
</g>
</svg>
