<?xml version="1.0" encoding="utf-8"?>
<!-- Generator: Adobe Illustrator 24.2.0, SVG Export Plug-In . SVG Version: 6.00 Build 0)  -->
<svg version="1.0" id="Ebene_1" xmlns="http://www.w3.org/2000/svg" xmlns:xlink="http://www.w3.org/1999/xlink" x="0px" y="0px"
	 viewBox="0 0 400 400.001" enable-background="new 0 0 400 400.001" xml:space="preserve">
<rect id="background-blue" fill="#2D327D" width="400" height="400"/>
<g id="content">
	<path id="frameWhite" fill="#FFFFFF" d="M340,40c11,0,20,9,20,20v280c0,11-9,20-20,20H60c-11,0-20-9-20-20V60c0-11,9-20,20-20H340
		 M340,35H60c-13.785,0-25,11.215-25,25v280c0,13.785,11.215,25,25,25h280c13.785,0,25-11.215,25-25V60
		C365,46.215,353.785,35,340,35L340,35z"/>
	<path fill="#FFFFFF" d="M240.466,129.461c0,10.28-8.331,18.611-18.609,18.611c-10.277,0-18.607-8.331-18.607-18.611
		c0-10.275,8.33-18.605,18.607-18.605C232.134,110.856,240.466,119.186,240.466,129.461L240.466,129.461z"/>
	<path fill="#FFFFFF" d="M260.9,202.001l-13.035-13.038h-20.525l22.883,22.887c1.283,1.594,3.225,2.628,5.428,2.628
		c3.866,0,7.363-3.495,7.363-7.365c0-1.992-0.838-3.777-2.175-5.051L260.9,202.001z"/>
	<rect x="155.538" y="239.267" fill="#FFFFFF" width="8.354" height="8.464"/>
	<path fill="#FFFFFF" d="M320.671,306.31l-58.58-58.58h46.991c5.521,0,10.013-4.588,10.013-10.231V89.496
		c0-5.643-4.492-10.233-10.013-10.233H93.624l-4.18-4.18L75.302,89.225l4.088,4.088v144.187c0,5.643,4.493,10.231,10.011,10.231
		h41.056v-8.464H89.401c-0.853,0-1.544-0.793-1.544-1.767v-50.996h48.125l5.041-4.998H87.857V101.78l68.475,68.475
		c-10.423,10.424-20.98,20.982-21.5,21.502c-1.041,1.039-1.834,2.431-1.834,4.016c0,1.587,0,114.873,0,114.873
		c0,5.527,4.475,10,10,10c5.523,0,10-4.473,10-10v-93.156l13.432,13.321v46.945c0,5.527,4.479,10,10,10c5.523,0,10-4.473,10-10
		l-0.028-50.501c0,0,0.391-3.251-1.883-5.525l-15.444-15.356l11.488-11.886l44.779,44.779H188.95c0,2.618,0,5.49,0.004,8.464h0.261
		h44.593l72.725,72.725L320.671,306.31z M206.994,148.086l-0.089,0.088c-3.387-3.286-8.538-5.385-14.307-5.385
		c-6.546,0-12.281,2.703-15.568,6.768c0,0-2.622,2.622-6.556,6.556l-68.382-68.382h206.992c0.851,0,1.546,0.793,1.546,1.765v92.009
		H197.605l-0.87,0.869l-2.271-2.271l11.805-12.215l11.015,11.02h20.529L206.994,148.086z M200.865,186.504h109.764v50.996
		c0,0.974-0.695,1.767-1.546,1.767h-55.455L200.865,186.504z"/>
	<polygon fill="#EB0000" points="89.444,75.084 75.302,89.225 306.532,320.455 320.672,306.31 89.444,75.084 	"/>
</g>
</svg>
