<?xml version="1.0" encoding="utf-8"?>
<!-- Generator: Adobe Illustrator 24.2.0, SVG Export Plug-In . SVG Version: 6.00 Build 0)  -->
<svg version="1.0" id="Ebene_1" xmlns="http://www.w3.org/2000/svg" xmlns:xlink="http://www.w3.org/1999/xlink" x="0px" y="0px"
	 viewBox="0 0 400 400.001" enable-background="new 0 0 400 400.001" xml:space="preserve">
<rect id="background-blue" fill="#2D327D" width="400" height="400"/>
<g id="content">
	<path id="frameWhite" fill="#FFFFFF" d="M340,40c11,0,20,9,20,20v280c0,11-9,20-20,20H60c-11,0-20-9-20-20V60c0-11,9-20,20-20H340
		 M340,35H60c-13.785,0-25,11.215-25,25v280c0,13.785,11.215,25,25,25h280c13.785,0,25-11.215,25-25V60
		C365,46.215,353.785,35,340,35L340,35z"/>
	<path fill="#FFFFFF" d="M80.852,259.094l28.369-27.977c1.661-1.645,4.346-1.627,5.994,0.037l3.071,3.114l-20.63,20.372l3.104,3.146
		l26.49-26.155c1.663-1.642,4.348-1.628,5.989,0.039l3.076,3.113l-29.499,29.133l3.099,3.141l35.241-34.791
		c1.663-1.641,4.348-1.628,5.996,0.042l3.073,3.112l-38.257,37.772l3.108,3.144l44.151-43.598c2.509-2.481,6.555-2.454,9.034,0.055
		c2.48,2.508,2.454,6.56-0.056,9.04l-47.369,46.818c-4.074,4.024-4.115,10.594-0.093,14.67c1.959,1.982,4.518,3.011,7.095,3.078
		l23.201,0.024l2.544,0.114c1.747,0.117,3.464,0.847,4.79,2.194c1.549,1.57,2.255,3.659,2.123,5.702l-0.007,1.19
		c0.043,1.192-0.391,2.398-1.305,3.304c-0.907,0.892-2.106,1.317-3.285,1.264l-79.036-0.006"/>
	<path fill="#FFFFFF" d="M322.245,307.43l-58.552-58.552h47.144c5.525,0,10.015-4.589,10.015-10.232v-148
		c0-5.643-4.49-10.234-10.015-10.234H95.226l-4.203-4.203L76.882,90.35l4.004,4.004v144.292c0,4.524,2.909,8.33,6.901,9.676
		l8.023-7.911h-4.911c-0.86,0-1.561-0.793-1.561-1.765v-51.02h60.247l5.004-4.998H89.338v-79.821l74.152,74.152l-12.712,12.735
		c-2.497,2.502-2.472,6.575,0.056,9.098l20.595,20.56c2.528,2.523,6.601,2.541,9.098,0.039l12.686-12.708l33.729,33.729H176.35
		c-0.458,1.269-1.188,2.435-2.175,3.411l-5.117,5.056h66.351l72.697,72.697L322.245,307.43z M207.343,192.528l9.074-9.09
		c10.531-10.549,8.749-26.811,14.8-32.873l-0.011-0.011c6.051-6.062,17.951-20.733,17.951-20.733l0.111,0.095
		c0.635,0.544,1.582,0.507,2.173-0.085l2.344-2.348c0.624-0.625,0.621-1.641-0.008-2.269l-9.106-9.09
		c-0.629-0.628-1.644-0.629-2.269-0.004l-2.333,2.337c-0.595,0.596-0.626,1.552-0.07,2.185l0.066,0.075
		c0,0-14.498,12.103-20.549,18.165c-6.051,6.062-22.316,4.308-32.847,14.857l-9.048,9.064l-73.927-73.926h207.144
		c0.866,0,1.566,0.793,1.566,1.767v91.982h-91.881l-5.002,4.998h96.883v51.02c0,0.972-0.7,1.765-1.566,1.765h-55.61L207.343,192.528
		z"/>
	<polygon fill="#EB0000" points="91.023,76.209 76.882,90.35 308.105,321.575 322.245,307.43 91.023,76.209 	"/>
</g>
</svg>
