<?xml version="1.0" encoding="utf-8"?>
<!-- Generator: Adobe Illustrator 24.2.0, SVG Export Plug-In . SVG Version: 6.00 Build 0)  -->
<svg version="1.0" id="Ebene_1" xmlns="http://www.w3.org/2000/svg" xmlns:xlink="http://www.w3.org/1999/xlink" x="0px" y="0px"
	 viewBox="0 0 400 400.001" enable-background="new 0 0 400 400.001" xml:space="preserve">
<rect id="background-blue" fill="#2D327D" width="400" height="400"/>
<g id="content">
	<path id="frameWhite" fill="#FFFFFF" d="M340,40c11,0,20,9,20,20v280c0,11-9,20-20,20H60c-11,0-20-9-20-20V60c0-11,9-20,20-20H340
		 M340,35H60c-13.785,0-25,11.215-25,25v280c0,13.785,11.215,25,25,25h280c13.785,0,25-11.215,25-25V60
		C365,46.215,353.785,35,340,35L340,35z"/>
	<path fill="#FFFFFF" d="M168.162,290.813c0,17.52,14.201,31.725,31.719,31.725c17.524,0,31.727-14.205,31.727-31.725v-31.726
		h-63.446V290.813L168.162,290.813z"/>
	<path fill="#FFFFFF" d="M322.564,308.415l-88.815-88.814l9.587-39.719c0.978-4.045,1.021-8.261,0.138-12.324l-16.242-74.821
		c-1.929-8.877-9.786-15.214-18.868-15.214h-16.957c-9.088,0-16.943,6.336-18.87,15.214l-11.703,53.949L91.34,77.192L77.198,91.334
		l78.864,78.865c-0.435,4.833,0.114,9.716,3.029,15.202c4.324,8.146,13.643,25.689,13.643,25.689l40.366,16.147l95.322,95.323
		L322.564,308.415z"/>
	<polygon fill="#EB0000" points="91.34,77.192 77.198,91.334 308.422,322.56 322.564,308.415 91.34,77.192 	"/>
</g>
</svg>
