<?xml version="1.0" encoding="utf-8"?>
<!-- Generator: Adobe Illustrator 24.2.0, SVG Export Plug-In . SVG Version: 6.00 Build 0)  -->
<svg version="1.0" id="Ebene_1" xmlns="http://www.w3.org/2000/svg" xmlns:xlink="http://www.w3.org/1999/xlink" x="0px" y="0px"
	 viewBox="0 0 400 400.001" enable-background="new 0 0 400 400.001" xml:space="preserve">
<rect id="background-blue" fill="#2D327D" width="400" height="400"/>
<g id="content">
	<path id="frameWhite" fill="#FFFFFF" d="M340,40c11,0,20,9,20,20v280c0,11-9,20-20,20H60c-11,0-20-9-20-20V60c0-11,9-20,20-20H340
		 M340,35H60c-13.785,0-25,11.215-25,25v280c0,13.785,11.215,25,25,25h280c13.785,0,25-11.215,25-25V60
		C365,46.215,353.785,35,340,35L340,35z"/>
	<path fill="#FFFFFF" d="M184.735,95.793c0-9.654-7.832-17.492-17.49-17.492c-9.656,0-17.494,7.838-17.494,17.492
		c0,9.655,7.838,17.492,17.494,17.492C176.903,113.285,184.735,105.447,184.735,95.793L184.735,95.793z"/>
	<path fill="#FFFFFF" d="M321.372,293.508l-13.501,0.002L206.317,191.956v-56.667c0-9.656-7.834-17.492-17.496-17.492h-42.416
		c-4.001,0-7.678,1.36-10.626,3.622l-35.133-35.133l32.716,0.014v31.945c0.579-0.442,1.179-0.856,1.801-1.239
		c0.019-0.012,0.034-0.021,0.052-0.033c0.611-0.374,1.238-0.717,1.886-1.03c0.023-0.01,0.045-0.021,0.067-0.033
		c0.654-0.311,1.32-0.588,2.006-0.835c0.015-0.007,0.03-0.011,0.045-0.019c0.7-0.251,1.415-0.464,2.149-0.641l0.008-36.135
		l-48.732,0.004l-3.2-3.2l-3.2,3.2l-4.869,0v4.868l-6.073,6.073l6.073,6.073v222.985h14v-32.002l45.993,0.019l0.008-56.577
		c-3.464,3.463-6.235,6.232-7.445,7.441c-0.248,0.246-0.443,0.444-0.553,0.555c0,2.896,0,23.698,0,23.698c0,0.004,0,0.007,0,0.015
		v16.87l-38.002-0.018v-8.219l12.073-12.075l-0.002-11.309l-12.071,12.071V109.298l33.537,33.537v45.285
		c0,3.44,2.792,6.234,6.233,6.234c3.441,0,6.231-2.794,6.231-6.234v-32.821l5.467,5.467v32.477l-35.427,35.424l0.032,32.749
		c0,4.952,4.017,8.965,8.97,8.965c4.946,0,8.961-4.013,8.961-8.965v-25.356l35.393-35.391h5.687v75.895
		c0,4.95,4.011,8.97,8.965,8.97c4.948,0,8.961-4.021,8.961-8.97v-74.255l91.203,91.204l-109.129,0.012v16.779l-62.243-0.018v7.999
		l70.239,0.016v-16.778l109.132-0.01l18.943,18.944l14.14-14.145l-4.801-4.801l5.501,0V293.508z M188.385,144.032h5.471v35.464
		l-5.471-5.471V144.032z"/>
	<polygon fill="#EB0000" points="89.444,75.084 75.302,89.225 306.532,320.455 320.672,306.31 89.444,75.084 	"/>
</g>
</svg>
