<?xml version="1.0" encoding="utf-8"?>
<!-- Generator: Adobe Illustrator 24.2.0, SVG Export Plug-In . SVG Version: 6.00 Build 0)  -->
<svg version="1.0" id="Ebene_1" xmlns="http://www.w3.org/2000/svg" xmlns:xlink="http://www.w3.org/1999/xlink" x="0px" y="0px"
	 viewBox="0 0 400 400.001" enable-background="new 0 0 400 400.001" xml:space="preserve">
<rect id="background-blue" fill="#2D327D" width="400" height="400"/>
<g id="content">
	<path id="frameWhite" fill="#FFFFFF" d="M340,40c11,0,20,9,20,20v280c0,11-9,20-20,20H60c-11,0-20-9-20-20V60c0-11,9-20,20-20H340
		 M340,35H60c-13.785,0-25,11.215-25,25v280c0,13.785,11.215,25,25,25h280c13.785,0,25-11.215,25-25V60
		C365,46.215,353.785,35,340,35L340,35z"/>
	<polygon fill="#FFFFFF" points="250.792,215.747 254.122,219.428 262.874,211.494 259.544,207.813 250.792,215.747 	"/>
	<path fill="#FFFFFF" d="M188.147,122.639c0-8.762-7.116-15.876-15.877-15.876s-15.877,7.115-15.877,15.876
		c0,8.765,7.116,15.877,15.877,15.877S188.147,131.404,188.147,122.639"/>
	<path fill="#FFFFFF" d="M227.987,105.054c-5.27,0-9.553,4.286-9.553,9.555v48.653c2.432,1.18,4.272,3.385,4.957,6.052V114.61
		c0-2.533,2.063-4.593,4.596-4.593c2.533,0,4.592,2.061,4.592,4.593v63.67c0,2.533-2.06,4.593-4.592,4.593
		c-2.533,0-4.596-2.06-4.596-4.593v-4.323c-0.618,2.38-2.16,4.464-4.332,5.722c0,0-0.175,0.103-0.473,0.273
		c0.797,4.473,4.704,7.883,9.4,7.883c5.266,0,9.553-4.287,9.553-9.555v-63.67C237.54,109.34,233.254,105.054,227.987,105.054
		L227.987,105.054z"/>
	<path fill="#FFFFFF" d="M256.166,114.61v63.67c0,5.268,4.283,9.555,9.553,9.555c5.266,0,9.553-4.287,9.553-9.555v-63.67
		c0-5.269-4.287-9.555-9.553-9.555C260.449,105.054,256.166,109.34,256.166,114.61 M261.124,178.28v-63.67
		c0-2.533,2.06-4.593,4.596-4.593c2.529,0,4.592,2.061,4.592,4.593v63.67c0,2.533-2.063,4.593-4.592,4.593
		C263.183,182.873,261.124,180.812,261.124,178.28L261.124,178.28z"/>
	<path fill="#FFFFFF" d="M183.668,137.898c-1.501,1.126-3.17,2.029-4.963,2.676l-0.002,9.586c0.358,0.513,0.702,1.035,1.019,1.583
		c0,0,1.732,2.986,3.942,6.798L183.668,137.898z"/>
	<path fill="#FFFFFF" d="M320.672,306.31l-11.81-11.81c1.009-1.109,1.817-2.416,2.355-3.872c3.002-8.145,4.521-16.674,4.521-25.347
		l-0.008-180.26h3.147v-4.966H175.566v4.966h3.142v19.683c1.795,0.646,3.46,1.552,4.961,2.675V85.022h22.974v80.346
		c1.847-1.072,3.08-1.789,3.084-1.791c0.596-0.344,1.225-0.601,1.873-0.805v-77.75h32.771V230.01L211.6,197.239v-13.231
		c-1.568,0.911-3.259,1.892-4.957,2.877v5.397l-5.757-5.757l16.569-9.613c1.881-1.09,3.039-3.104,3.039-5.282
		c0-3.369-2.734-6.103-6.101-6.103c-1.076,0-2.134,0.284-3.069,0.821l-19.371,11.244l-2.216-2.216l-12.783-22.027
		c-3.643-6.276-10.347-10.139-17.605-10.139c-0.568,0-1.134,0.032-1.698,0.08L89.444,75.083L75.302,89.225l63.012,63.013
		l-13.798,8.005c-1.864,1.083-3.223,2.866-3.78,4.951l-8.717,32.821c-0.129,0.478-0.192,0.968-0.192,1.464
		c0,3.147,2.551,5.698,5.698,5.698c2.587,0,4.845-1.739,5.508-4.236l8.225-30.96l13.94-8.091l-25.272,95.143l-35.209,20.43
		c-2.51,1.459-4.056,4.142-4.056,7.046c0,4.492,3.65,8.139,8.145,8.139c1.434,0,2.84-0.377,4.084-1.098l39.122-22.703
		c1.868-1.086,3.229-2.864,3.78-4.952l11.745-44.202l41.894,11.127l22.479,38.734v-0.003c1.456,2.511,4.138,4.055,7.039,4.055
		c4.495,0,8.142-3.646,8.142-8.139c0-1.439-0.38-2.846-1.102-4.085l-24.741-42.646c-1.086-1.865-2.864-3.228-4.953-3.779v-0.004
		l-33.352-8.858L169.077,183l9.626,9.626l-0.001,14.344c1.646,0.437,3.326,0.883,4.963,1.319v-10.702l22.978,22.978v1.088
		l4.957,8.549v-4.68l32.771,32.771v35.163H211.6v-19.39c-0.957-0.819-1.806-1.787-2.458-2.908c0,0-0.969-1.671-2.499-4.308v26.606
		h-12.239c-2.9,0-5.521-1.83-6.523-4.547c-2.801-7.59-4.218-15.542-4.218-23.628V232.6c-1.382-0.368-3.073-0.817-4.961-1.317v34
		c0,8.672,1.521,17.201,4.529,25.347c1.715,4.657,6.207,7.79,11.173,7.79h90.091l13.587,13.587H80.001v8.001h226.082l0.449,0.449
		l0.449-0.449h13.019v-8.001h-5.021L320.672,306.31z M310.774,85.022l0.007,180.26c0,8.086-1.419,16.038-4.22,23.628
		c-0.284,0.771-0.71,1.459-1.224,2.066l-18.277-18.277V85.022H310.774z M249.332,85.022H282.1v182.716l-32.768-32.767V85.022z
		 M249.332,293.458v-30.202l30.202,30.202H249.332z"/>
	<polygon fill="#EB0000" points="89.444,75.084 75.302,89.225 306.532,320.455 320.672,306.31 89.444,75.084 	"/>
</g>
</svg>
