<?xml version="1.0" encoding="utf-8"?>
<!-- Generator: Adobe Illustrator 24.2.0, SVG Export Plug-In . SVG Version: 6.00 Build 0)  -->
<svg version="1.0" xmlns="http://www.w3.org/2000/svg" xmlns:xlink="http://www.w3.org/1999/xlink" x="0px" y="0px"
	 viewBox="0 0 400 400" enable-background="new 0 0 400 400" xml:space="preserve">
<rect id="background-blue" fill="#2D327D" width="400" height="400"/>
<g id="content">
	<path id="frameWhite" fill="#FFFFFF" d="M340,40c11,0,20,9,20,20v280c0,11-9,20-20,20H60c-11,0-20-9-20-20V60c0-11,9-20,20-20H340
		 M340,35H60c-13.785,0-25,11.215-25,25v280c0,13.785,11.215,25,25,25h280c13.785,0,25-11.215,25-25V60
		C365,46.215,353.785,35,340,35L340,35z"/>
	<g>
		<path fill="#FFFFFF" d="M106.226,209.611c-3.423,0-6.198,2.775-6.198,6.197c0,3.423,2.775,6.198,6.198,6.198h101.932
			l-12.395-12.395H106.226z"/>
	</g>
	<g>
		<path fill="#FFFFFF" d="M253.788,222.006c3.423,0,6.198-2.775,6.198-6.198c0-3.423-2.775-6.197-6.198-6.197h-30.325l12.395,12.395
			H253.788z"/>
	</g>
	<polygon fill="#FFFFFF" points="248.779,183.387 229.672,183.387 225.54,157.287 214.09,157.287 198.369,184.517 219.464,205.611 
		235.948,205.611 	"/>
	<path fill="#FFFFFF" d="M231.24,150.611l4.134,26.102l17.259,0l4.936-8.549c7.64-13.234,1.575-28.869,5.965-36.473l-0.013-0.008
		c4.39-7.604,12.296-25.282,12.296-25.282l0.135,0.065c0.773,0.371,1.701,0.084,2.13-0.659l1.701-2.946
		c0.453-0.785,0.181-1.79-0.608-2.245l-11.423-6.595c-0.789-0.455-1.795-0.188-2.248,0.596l-1.693,2.932
		c-0.432,0.748-0.21,1.703,0.508,2.183l0.085,0.057c0,0-11.159,15.822-15.549,23.426c-4.39,7.604-20.964,10.169-28.604,23.402
		l-2.306,3.995L231.24,150.611z"/>
	<g>
		<path fill="#FFFFFF" d="M259.927,231.764c0.467-3.019-1.898-5.74-4.953-5.74h-15.097l17.203,17.202
			C258.353,239.557,259.314,235.729,259.927,231.764z"/>
	</g>
	<g>
		<path fill="#FFFFFF" d="M85,226.024c-2.761,0-5,2.239-5,5V315c0,2.761,2.239,5,5,5h49.267c12.207,0,22.984-6.096,29.473-15.405
			c0.168-0.254,0.34-0.505,0.514-0.755c6.484-9.321,17.265-15.426,29.481-15.426c0.085,0,0.168,0.006,0.253,0.006
			c21.907-0.956,41.263-11.218,53.412-27.172l-35.225-35.224H85z"/>
	</g>
	<path fill="#FFFFFF" d="M167.275,136.794l-16.632-0.003l18.612,18.612C166.85,149.418,166.181,143.016,167.275,136.794z"/>
	<path fill="#FFFFFF" d="M175.539,132.291c2.761-6.786,7.993-12.094,14.735-14.954l1.92,4.555l-17.5,28.753
		C172.854,144.623,173.133,138.204,175.539,132.291z"/>
	<path fill="#FFFFFF" d="M130.19,169.279l-32.201-7.671l-1.918-4.55C108.945,151.887,123.494,157.435,130.19,169.279z"/>
	<path fill="#FFFFFF" d="M87.522,136.782l5.932,14.072c8.31-3.372,17.44-3.372,25.764,0.015c8.438,3.433,15.04,9.936,18.603,18.315
		l12.319-5.193l-27.203-27.203L87.522,136.782z"/>
	<path fill="#FFFFFF" d="M178.799,90.117l-41.424,33.407l6.534,6.534l25.273,0.004c0.041-0.103,0.079-0.206,0.121-0.308
		c3.439-8.452,9.956-15.062,18.355-18.62L178.799,90.117z"/>
	<polygon fill="#FFFFFF" points="80.327,119.716 84.684,130.049 116.204,130.054 98.292,112.142 	"/>
	<polygon fill="#FFFFFF" points="176.077,83.663 174.533,80 117.778,103.927 132.587,118.736 	"/>
	<polygon fill="#EB0000" points="93.459,79.609 79.61,93.46 306.092,319.941 319.94,306.086 93.459,79.609 	"/>
</g>
</svg>
