<?xml version="1.0" encoding="utf-8"?>
<!-- Generator: Adobe Illustrator 24.2.0, SVG Export Plug-In . SVG Version: 6.00 Build 0)  -->
<svg version="1.0" id="Ebene_1" xmlns="http://www.w3.org/2000/svg" xmlns:xlink="http://www.w3.org/1999/xlink" x="0px" y="0px"
	 viewBox="0 0 400 400.001" enable-background="new 0 0 400 400.001" xml:space="preserve">
<rect id="background-blue" fill="#2D327D" width="400" height="400"/>
<g id="content">
	<path id="frameWhite" fill="#FFFFFF" d="M340,40c11,0,20,9,20,20v280c0,11-9,20-20,20H60c-11,0-20-9-20-20V60c0-11,9-20,20-20H340
		 M340,35H60c-13.785,0-25,11.215-25,25v280c0,13.785,11.215,25,25,25h280c13.785,0,25-11.215,25-25V60
		C365,46.215,353.785,35,340,35L340,35z"/>
	<path fill="#FFFFFF" d="M226.666,196.449l24.14,8.44c0.52,0.198,1.092,0.284,1.65,0.284c1.67,0,3.218-0.83,4.147-2.215l5.426-8.043
		c0.444-0.668,0.669-1.449,0.669-2.229c0-2.215-1.785-4.01-3.99-4.01h-30.716c-2.219,0-4.014,1.795-4.014,4.01
		C223.979,194.382,225.068,195.893,226.666,196.449L226.666,196.449z"/>
	<path fill="#FFFFFF" d="M142.202,209.679h5.002c2.205,0,4.003-1.795,4.003-4c0-2.215-1.798-4.008-4.003-4.008h-5.002
		c-2.205,0-3.99,1.793-3.99,4.008C138.212,207.884,139.997,209.679,142.202,209.679L142.202,209.679z"/>
	<path fill="#FFFFFF" d="M311.872,297.511c5.264-7.811,8.338-17.216,8.338-27.332c0-27.061-21.951-49.01-49.002-49.01
		c-7.793,0-15.483,1.857-22.408,5.42l-9.601-15.411h-13.661L89.444,75.084L75.302,89.225l99.45,99.45h-32.55
		c-2.205,0-3.99,1.795-3.99,4.01c0,2.205,1.785,4,3.99,4h35.003v-5.557l20.049,20.049h-36.053l-9.598,15.411
		c-6.925-3.564-14.604-5.42-22.396-5.42c-27.051,0-49,21.949-49,49.01c0,27.037,21.949,49,49,49c27.04,0,48.99-21.963,48.99-49
		c0-15.524-7.335-30.107-19.797-39.367l5.378-8.64l26.21,38.971c-1.809,2.29-2.787,5.113-2.787,8.034
		c0,7.167,5.832,12.998,12.991,12.998c5.054,0,9.65-2.934,11.793-7.502h10.431c2.316,25.217,23.471,44.506,48.79,44.506
		c9.698,0,18.733-2.835,26.344-7.702l8.98,8.98l14.14-14.145L311.872,297.511z M170.208,270.179
		c0,22.631-18.37,41.001-41.001,41.001s-41.01-18.371-41.01-41.001c0-22.641,18.38-41.002,41.01-41.002
		c6.305,0,12.509,1.449,18.159,4.234L125.8,268.062c-0.382,0.632-0.593,1.362-0.593,2.117c0,2.205,1.781,4,4,4
		c1.388,0,2.663-0.72,3.393-1.895l21.566-34.638C164.276,245.407,170.208,257.428,170.208,270.179z M236.626,222.171l0.156,0.25
		l-0.193-0.193L236.626,222.171z M203.788,256.672c-1.164-0.334-2.367-0.495-3.594-0.495c-1.199,0-2.402,0.161-3.565,0.495
		l-25.219-37.498h33.84l14.203,14.203L203.788,256.672z M222.329,266.675h-9.364c-0.396-2.017-1.26-3.924-2.538-5.533l14.791-22.001
		l4.689,4.689C225.575,250.625,222.923,258.455,222.329,266.675z M235.725,249.649l17.026,17.026h-22.396
		C230.873,260.605,232.741,254.807,235.725,249.649z M271.208,311.18c-20.909,0-38.462-15.735-40.766-36.508h30.307l30.985,30.985
		C285.696,309.163,278.689,311.18,271.208,311.18z M306.078,291.716l-44.353-44.353l-8.686-13.953
		c5.647-2.785,11.865-4.234,18.169-4.234c22.63,0,40.986,18.361,40.986,41.002C312.195,278.078,309.952,285.455,306.078,291.716z"/>
	<polygon fill="#EB0000" points="89.444,75.084 75.302,89.225 306.532,320.455 320.672,306.31 89.444,75.084 	"/>
</g>
</svg>
