<?xml version="1.0" encoding="utf-8"?>
<!-- Generator: Adobe Illustrator 24.2.0, SVG Export Plug-In . SVG Version: 6.00 Build 0)  -->
<svg version="1.0" id="Ebene_1" xmlns="http://www.w3.org/2000/svg" xmlns:xlink="http://www.w3.org/1999/xlink" x="0px" y="0px"
	 viewBox="0 0 400 400.001" enable-background="new 0 0 400 400.001" xml:space="preserve">
<rect id="background-blue" fill="#2D327D" width="400" height="400"/>
<g id="content">
	<path id="frameWhite" fill="#FFFFFF" d="M340,40c11,0,20,9,20,20v280c0,11-9,20-20,20H60c-11,0-20-9-20-20V60c0-11,9-20,20-20H340
		 M340,35H60c-13.785,0-25,11.215-25,25v280c0,13.785,11.215,25,25,25h280c13.785,0,25-11.215,25-25V60
		C365,46.215,353.785,35,340,35L340,35z"/>
	<path fill="#FFFFFF" d="M173.537,197.273l-24.141,8.443c-0.52,0.198-1.092,0.284-1.65,0.284c-1.67,0-3.218-0.83-4.147-2.215
		l-5.426-8.047c-0.444-0.668-0.669-1.448-0.669-2.229c0-2.215,1.785-4.01,3.99-4.01h30.716c2.219,0,4.014,1.795,4.014,4.01
		C176.224,195.207,175.135,196.717,173.537,197.273L173.537,197.273z"/>
	<path fill="#FFFFFF" d="M258.009,197.5H223v-8h35.009c2.206,0,3.991,1.793,3.991,4.005C262,195.707,260.215,197.5,258.009,197.5
		L258.009,197.5z"/>
	<path fill="#FFFFFF" d="M258.004,210.494H253c-2.206,0-4.004-1.793-4.004-3.995c0-2.212,1.798-4.005,4.004-4.005h5.004
		c2.206,0,3.991,1.793,3.991,4.005C261.996,208.701,260.21,210.494,258.004,210.494L258.004,210.494z"/>
	<path fill="#FFFFFF" d="M320.672,306.31l-8.606-8.606c5.011-7.686,7.935-16.855,7.935-26.704c0-27.06-21.948-49.009-48.999-49.009
		c-7.792,0-15.472,1.857-22.396,5.42L239.007,212h-12.646L89.444,75.084L75.302,89.225L198.077,212H161.01l-9.601,15.411
		c-6.925-3.563-14.614-5.42-22.407-5.42c-27.051,0-49.002,21.948-49.002,49.009c0,27.037,21.951,49,49.002,49
		c25.318,0,46.474-19.289,48.789-44.505h10.431c2.143,4.568,6.74,7.502,11.792,7.502c7.159,0,12.991-5.831,12.991-12.998
		c0-2.921-0.978-5.744-2.787-8.033l15.208-22.613l4.671,4.671c-5.21,7.907-8.087,17.258-8.087,26.978c0,27.037,21.949,49,48.989,49
		c9.965,0,19.232-2.988,26.97-8.105l8.561,8.561L320.672,306.31z M252.842,234.232c5.65-2.785,11.855-4.234,18.159-4.234
		c22.63,0,41.01,18.361,41.01,41.002c0,7.637-2.099,14.784-5.742,20.908l-46.424-46.424L252.842,234.232z M129.002,312
		c-22.63,0-40.986-18.37-40.986-41.001c0-22.641,18.356-41.002,40.986-41.002c6.304,0,12.522,1.449,18.169,4.234l-17.911,28.772
		c-0.072-0.014-0.172-0.014-0.258-0.014c-4.41,0-7.988,3.589-7.988,8.009c0,4.406,3.579,7.998,7.988,7.998
		c2.649,0,5.126-1.313,6.614-3.504h34.151C167.463,296.266,149.911,312,129.002,312z M135.889,267.496l18.072-29.029
		c9.14,7.007,14.913,17.543,15.893,29.029H135.889z M187.245,267.496h-9.364c-1.03-14.248-8.213-27.347-19.686-35.863l5.388-8.64
		l26.2,38.971C188.505,263.572,187.641,265.478,187.245,267.496z M203.58,257.494c-1.164-0.334-2.366-0.495-3.565-0.495
		c-1.226,0-2.429,0.16-3.593,0.495l-25.218-37.498h34.869l13.588,13.588L203.58,257.494z M271.001,312c-22.63,0-41-18.37-41-41.001
		c0-7.561,2.1-14.857,5.906-21.169l56.274,56.275C285.997,309.846,278.749,312,271.001,312z"/>
	<polygon fill="#EB0000" points="89.444,75.084 75.302,89.225 306.532,320.455 320.672,306.31 89.444,75.084 	"/>
</g>
</svg>
