<?xml version="1.0" encoding="utf-8"?>
<!-- Generator: Adobe Illustrator 24.2.0, SVG Export Plug-In . SVG Version: 6.00 Build 0)  -->
<svg version="1.0" id="Ebene_3" xmlns="http://www.w3.org/2000/svg" xmlns:xlink="http://www.w3.org/1999/xlink" x="0px" y="0px"
	 viewBox="0 0 400 400.001" enable-background="new 0 0 400 400.001" xml:space="preserve">
<rect id="background-blue" fill="#2D327D" width="400" height="400"/>
<g id="content">
	<path id="frameWhite" fill="#FFFFFF" d="M340,40c11,0,20,9,20,20v280c0,11-9,20-20,20H60c-11,0-20-9-20-20V60c0-11,9-20,20-20H340
		 M340,35H60c-13.785,0-25,11.215-25,25v280c0,13.785,11.215,25,25,25h280c13.785,0,25-11.215,25-25V60
		C365,46.215,353.785,35,340,35L340,35z"/>
	<path fill="#FFFFFF" d="M320,200c0,66.274-53.726,120-120,120S80,266.274,80,200c0-66.274,53.725-120,120-120S320,133.726,320,200z
		"/>
	<path fill="#EB0000" d="M200,80c-66.274,0-120,53.726-120,120c0,66.273,53.726,120,120,120s120-53.726,120-120
		C320,133.726,266.274,80,200,80z M200,290c-49.706,0-90-40.295-90-90c0-49.706,40.294-90,90-90s90,40.294,90,90
		C290,249.705,249.706,290,200,290z"/>
	<g>
		<path d="M264.351,150H135.648c-3.665,0-6.638,2.982-6.638,6.646c0,3.673,2.973,6.646,6.638,6.646h46.033v111.755
			c0,3.801,3.062,6.873,6.863,6.873c3.802,0,6.876-3.073,6.876-6.873v-58.909h9.156v58.909c0,3.801,3.088,6.873,6.875,6.873
			c3.792,0,6.855-3.073,6.855-6.873V163.293h46.043c3.654,0,6.639-2.973,6.639-6.646C270.99,152.982,268.004,150,264.351,150
			L264.351,150z"/>
		<path d="M199.993,143.75c7.582,0,13.757-6.14,13.757-13.745c0-7.58-6.175-13.755-13.757-13.755s-13.743,6.175-13.743,13.755
			C186.25,137.61,192.411,143.75,199.993,143.75L199.993,143.75z"/>
	</g>
</g>
</svg>
