<?xml version="1.0" encoding="utf-8"?>
<!-- Generator: Adobe Illustrator 24.2.0, SVG Export Plug-In . SVG Version: 6.00 Build 0)  -->
<svg version="1.0" id="Ebene_3" xmlns="http://www.w3.org/2000/svg" xmlns:xlink="http://www.w3.org/1999/xlink" x="0px" y="0px"
	 viewBox="0 0 400 400.001" enable-background="new 0 0 400 400.001" xml:space="preserve">
<rect id="background-blue" fill="#2D327D" width="400" height="400"/>
<g id="content">
	<path id="frameWhite" fill="#FFFFFF" d="M340,40c11,0,20,9,20,20v280c0,11-9,20-20,20H60c-11,0-20-9-20-20V60c0-11,9-20,20-20H340
		 M340,35H60c-13.785,0-25,11.215-25,25v280c0,13.785,11.215,25,25,25h280c13.785,0,25-11.215,25-25V60
		C365,46.215,353.785,35,340,35L340,35z"/>
	<path fill="#FFFFFF" d="M318.254,287.765L210.28,100.75c-2.201-3.662-5.779-6.278-10.256-6.291
		c-4.337-0.013-8.107,2.746-10.267,6.309L81.788,287.782c-2.07,3.739-2.548,8.145-0.321,12.03c2.158,3.762,6.431,5.644,10.598,5.736
		h215.942c4.272-0.08,8.328-1.866,10.576-5.737C320.763,296.061,320.256,291.417,318.254,287.765L318.254,287.765z"/>
	<path fill="#EB0000" d="M318.254,287.765L210.28,100.75c-2.201-3.662-5.779-6.278-10.256-6.291
		c-4.337-0.013-8.107,2.746-10.267,6.309L81.788,287.782c-2.07,3.739-2.548,8.145-0.321,12.03c2.158,3.762,6.431,5.644,10.598,5.736
		h215.942c4.272-0.08,8.328-1.866,10.576-5.737C320.763,296.061,320.256,291.417,318.254,287.765z M108.295,284.851l91.707-158.837
		l91.707,158.837H108.295z"/>
	<path d="M241.315,226.116C241.215,226.116,241.41,226.112,241.315,226.116c0,0-25.131-0.004-25.272-0.004
		c-0.875,0-1.628,0.493-2.018,1.209l-10.008,11.907l-13.297-7.739l10.36-2.574c1.088-0.184,1.918-1.123,1.918-2.264
		c0-0.078,0.007,0.075,0,0l0.015-19.972c0.004-0.095,0,0.097,0,0c0-2.616-2.095-4.732-4.709-4.732c-2.582,0-4.712,2.065-4.771,4.635
		v14.443l-13.771,3.424l0.016,0.048c-5.752,0.819-10.178,5.749-10.178,11.723c0,1.488,0.332,2.948,0.622,4.264
		c0,0,3.949,17.559,4.22,18.659c0.272,1.097,0.397,1.438,1.371,2.158c0,0,14.938,10.482,16.302,11.399
		c1.365,0.92,2.075,1.317,3.373,1.317c2.612,0,4.736-2.121,4.736-4.738c0-1.896-1.176-3.292-2.679-4.343
		c-1.5-1.052-14.343-10.032-14.343-10.032l-1.551-6.963c0.053-0.007,15.745,9.179,15.745,9.179h28.722v15.173
		c0.488,2.78,3,4.898,5.924,4.898c2.92,0,5.438-2.117,5.922-4.898v-22.158c-0.043-2.656-2.259-4.859-4.924-4.859h-18.635
		l6.151-7.315h21.324c3.14-0.149,5.641-2.721,5.641-5.892C247.52,228.798,244.583,226.116,241.315,226.116 M162.506,212.349
		c-5.536,0-10.023,4.488-10.023,10.023c0,5.538,4.487,10.024,10.023,10.024c5.533,0,10.022-4.486,10.022-10.024
		C172.529,216.837,168.04,212.349,162.506,212.349L162.506,212.349z"/>
</g>
</svg>
