<?xml version="1.0" encoding="utf-8"?>
<!-- Generator: Adobe Illustrator 24.2.0, SVG Export Plug-In . SVG Version: 6.00 Build 0)  -->
<svg version="1.0" id="_x3C_Ebene_x3E_" xmlns="http://www.w3.org/2000/svg" xmlns:xlink="http://www.w3.org/1999/xlink" x="0px"
	 y="0px" viewBox="0 0 400 400" enable-background="new 0 0 400 400" xml:space="preserve">
<rect id="background-blue" fill="#2D327D" width="400" height="400"/>
<g id="content">
	<path id="frameWhite" fill="#FFFFFF" d="M340,40c11,0,20,9,20,20v280c0,11-9,20-20,20H60c-11,0-20-9-20-20V60c0-11,9-20,20-20H340
		 M340,35H60c-13.785,0-25,11.215-25,25v280c0,13.785,11.215,25,25,25h280c13.785,0,25-11.215,25-25V60
		C365,46.215,353.785,35,340,35L340,35z"/>
	<path fill="#FFFFFF" d="M330.077,296.439L211.305,90.723c-2.421-4.028-6.356-6.905-11.282-6.921
		c-4.771-0.014-8.918,3.02-11.294,6.94L69.964,296.458c-2.277,4.113-2.802,8.96-0.353,13.233c2.374,4.138,7.074,6.209,11.658,6.309
		h237.537c4.699-0.088,9.161-2.052,11.633-6.311C332.837,305.565,332.279,300.456,330.077,296.439L330.077,296.439z"/>
	<g>
		<path fill="#EB0000" d="M200.023,103.182L313.658,300H86.394L200.023,103.182 M199.99,83.803c-4.757,0-8.89,3.029-11.261,6.94
			L69.964,296.458c-2.277,4.113-2.802,8.96-0.354,13.233c2.374,4.138,7.074,6.209,11.658,6.309h237.537
			c4.699-0.088,9.161-2.052,11.633-6.311c2.399-4.123,1.841-9.232-0.361-13.249L211.305,90.723
			c-2.421-4.028-6.356-6.905-11.282-6.921C200.012,83.803,200.001,83.803,199.99,83.803L199.99,83.803z"/>
	</g>
	<g>
		<path d="M245.419,233.108v14.697c0,0.852,0.691,1.543,1.542,1.543c0.852,0,1.543-0.691,1.543-1.543v-12.532h1.354v33.507
			c0,1.225,0.994,2.22,2.22,2.22c1.225,0,2.218-0.995,2.218-2.22v-19.487h1.407v19.487c0,1.225,0.994,2.22,2.221,2.22
			c1.225,0,2.219-0.995,2.219-2.22v-33.507h1.353v12.532c0,0.852,0.691,1.543,1.543,1.543c0.851,0,1.542-0.691,1.542-1.543l0,0
			v-14.697c0-2.391-1.94-4.331-4.331-4.331h-10.502C247.358,228.777,245.419,230.717,245.419,233.108L245.419,233.108z"/>
		<path d="M259.239,223.331c0-2.391-1.94-4.331-4.331-4.331c-2.39,0-4.33,1.94-4.33,4.331c0,2.39,1.941,4.331,4.33,4.331
			C257.299,227.662,259.239,225.721,259.239,223.331L259.239,223.331z"/>
	</g>
	<g>
		<polygon fill="#EB0000" points="240,275 215,275 210,275 210,280 210,295 215,295 215,280 240,280 		"/>
		<rect x="240" y="275" width="45" height="5"/>
	</g>
	<g>
		<polygon fill="#EB0000" points="210,200 210,202.121 212.121,200 		"/>
		<polygon fill="#EB0000" points="216.667,200 210,206.667 210,208.788 218.788,200 		"/>
		<polygon fill="#EB0000" points="223.333,200 210,213.333 210,215.455 225.455,200 		"/>
		<polygon fill="#EB0000" points="236.667,200 210,226.667 210,228.788 238.788,200 		"/>
		<polygon fill="#EB0000" points="240,203.333 210,233.333 210,235.455 240,205.455 		"/>
		<polygon fill="#EB0000" points="240,210 210,240 210,242.121 240,212.121 		"/>
		<polygon fill="#EB0000" points="240,216.667 210,246.667 210,248.788 240,218.788 		"/>
		<polygon fill="#EB0000" points="240,223.333 210,253.333 210,255.455 240,225.455 		"/>
		<polygon fill="#EB0000" points="240,230 210,260 210,262.121 240,232.121 		"/>
		<polygon fill="#EB0000" points="240,236.667 210,266.667 210,268.788 240,238.788 		"/>
		<polygon fill="#EB0000" points="240,243.333 213.333,270 215.455,270 240,245.455 		"/>
		<polygon fill="#EB0000" points="240,250 220,270 222.121,270 240,252.121 		"/>
		<polygon fill="#EB0000" points="240,256.667 226.667,270 228.788,270 240,258.788 		"/>
		<polygon fill="#EB0000" points="240,263.333 233.333,270 235.455,270 240,265.455 		"/>
		<polygon fill="#EB0000" points="230,200 210,220 210,222.121 232.121,200 		"/>
	</g>
	<rect x="190" y="287" width="5" height="8"/>
	<rect x="155" y="287" width="5" height="8"/>
	<path d="M203.586,208.586l-7.172-7.172C195.636,200.636,194.1,200,193,200h-36c-1.1,0-2.636,0.636-3.414,1.414l-7.172,7.172
		C145.636,209.364,145,210.9,145,212v61c0,1.1,0.402,2.805,0.894,3.789l3.211,6.422C149.598,284.195,150.9,285,152,285h46
		c1.1,0,2.402-0.805,2.894-1.789l3.211-6.422C204.598,275.805,205,274.1,205,273v-61C205,210.9,204.364,209.364,203.586,208.586z
		 M170,206h10v4h-10V206z M160,260h-10v-4h10V260z M200,260h-10v-4h10V260z M200,240h-50v-25h50V240z"/>
	<path d="M188.25,185h-26.5c-0.966,0-1.75,0.784-1.75,1.75s0.784,1.75,1.75,1.75h11.5v9.5h3.5v-9.5h11.5
		c0.966,0,1.75-0.784,1.75-1.75S189.216,185,188.25,185z"/>
</g>
</svg>
