<?xml version="1.0" encoding="utf-8"?>
<!-- Generator: Adobe Illustrator 24.2.0, SVG Export Plug-In . SVG Version: 6.00 Build 0)  -->
<svg version="1.0" id="_x3C_Ebene_x3E_" xmlns="http://www.w3.org/2000/svg" xmlns:xlink="http://www.w3.org/1999/xlink" x="0px"
	 y="0px" viewBox="0 0 400 400" enable-background="new 0 0 400 400" xml:space="preserve">
<rect id="background-blue" fill="#2D327D" width="400" height="400"/>
<g id="content">
	<path id="frameWhite" fill="#FFFFFF" d="M340,40c11,0,20,9,20,20v280c0,11-9,20-20,20H60c-11,0-20-9-20-20V60c0-11,9-20,20-20H340
		 M340,35H60c-13.785,0-25,11.215-25,25v280c0,13.785,11.215,25,25,25h280c13.785,0,25-11.215,25-25V60
		C365,46.215,353.785,35,340,35L340,35z"/>
	<path fill="#FFFFFF" d="M69.923,296.439L188.695,90.723c2.421-4.028,6.356-6.905,11.282-6.921c4.771-0.014,8.918,3.02,11.294,6.94
		l118.765,205.715c2.277,4.113,2.802,8.96,0.353,13.233c-2.374,4.138-7.074,6.209-11.658,6.309H81.195
		c-4.699-0.088-9.161-2.052-11.633-6.311C67.163,305.565,67.721,300.456,69.923,296.439L69.923,296.439z"/>
	<g>
		<path fill="#EB0000" d="M199.977,103.182L313.606,300H86.342L199.977,103.182 M200.01,83.803c-0.011,0-0.022,0-0.034,0
			c-4.925,0.015-8.86,2.892-11.282,6.921L69.923,296.44c-2.202,4.017-2.759,9.126-0.361,13.249
			c2.472,4.259,6.934,6.223,11.633,6.311h237.537c4.583-0.1,9.284-2.171,11.658-6.309c2.449-4.273,1.923-9.12-0.353-13.233
			L211.271,90.743C208.9,86.832,204.767,83.802,200.01,83.803L200.01,83.803z"/>
	</g>
	<g>
		<path d="M154.581,233.108v14.697c0,0.852-0.691,1.543-1.542,1.543c-0.852,0-1.543-0.691-1.543-1.543v-12.532h-1.354v33.507
			c0,1.225-0.994,2.22-2.22,2.22c-1.225,0-2.218-0.995-2.218-2.22v-19.487h-1.407v19.487c0,1.225-0.994,2.22-2.221,2.22
			c-1.225,0-2.219-0.995-2.219-2.22v-33.507h-1.353v12.532c0,0.852-0.691,1.543-1.543,1.543c-0.851,0-1.542-0.691-1.542-1.543l0,0
			v-14.697c0-2.391,1.94-4.331,4.331-4.331h10.502C152.642,228.777,154.581,230.717,154.581,233.108L154.581,233.108z"/>
		<path d="M140.761,223.331c0-2.391,1.94-4.331,4.331-4.331c2.39,0,4.33,1.94,4.33,4.331c0,2.39-1.941,4.331-4.33,4.331
			C142.701,227.662,140.761,225.721,140.761,223.331L140.761,223.331z"/>
	</g>
	<g>
		<polygon fill="#EB0000" points="160,275 185,275 190,275 190,280 190,295 185,295 185,280 160,280 		"/>
		<rect x="115" y="275" transform="matrix(-1 -4.488866e-11 4.488866e-11 -1 275 555)" width="45" height="5"/>
	</g>
	<g>
		<polygon fill="#EB0000" points="190,200 190,202.121 187.879,200 		"/>
		<polygon fill="#EB0000" points="183.333,200 190,206.667 190,208.788 181.212,200 		"/>
		<polygon fill="#EB0000" points="176.667,200 190,213.333 190,215.455 174.545,200 		"/>
		<polygon fill="#EB0000" points="163.333,200 190,226.667 190,228.788 161.212,200 		"/>
		<polygon fill="#EB0000" points="160,203.333 190,233.333 190,235.455 160,205.455 		"/>
		<polygon fill="#EB0000" points="160,210 190,240 190,242.121 160,212.121 		"/>
		<polygon fill="#EB0000" points="160,216.667 190,246.667 190,248.788 160,218.788 		"/>
		<polygon fill="#EB0000" points="160,223.333 190,253.333 190,255.455 160,225.455 		"/>
		<polygon fill="#EB0000" points="160,230 190,260 190,262.121 160,232.121 		"/>
		<polygon fill="#EB0000" points="160,236.667 190,266.667 190,268.788 160,238.788 		"/>
		<polygon fill="#EB0000" points="160,243.333 186.667,270 184.545,270 160,245.455 		"/>
		<polygon fill="#EB0000" points="160,250 180,270 177.879,270 160,252.121 		"/>
		<polygon fill="#EB0000" points="160,256.667 173.333,270 171.212,270 160,258.788 		"/>
		<polygon fill="#EB0000" points="160,263.333 166.667,270 164.545,270 160,265.455 		"/>
		<polygon fill="#EB0000" points="170,200 190,220 190,222.121 167.879,200 		"/>
	</g>
	<rect x="205" y="287" transform="matrix(-1 -4.492907e-11 4.492907e-11 -1 415 582)" width="5" height="8"/>
	<rect x="240" y="287" transform="matrix(-1 -4.492907e-11 4.492907e-11 -1 485 582)" width="5" height="8"/>
	<path d="M195,212v61c0,1.1,0.402,2.805,0.894,3.789l3.211,6.422C199.598,284.195,200.9,285,202,285h46
		c1.1,0,2.402-0.805,2.894-1.789l3.211-6.422C254.598,275.805,255,274.1,255,273v-61c0-1.1-0.636-2.636-1.414-3.414l-7.172-7.172
		C245.636,200.636,244.1,200,243,200h-36c-1.1,0-2.636,0.636-3.414,1.414l-7.172,7.172C195.636,209.364,195,210.9,195,212z M230,210
		h-10v-4h10V210z M240,256h10v4h-10V256z M200,256h10v4h-10V256z M200,215h50v25h-50V215z"/>
	<path d="M211.75,185h26.5c0.966,0,1.75,0.784,1.75,1.75s-0.784,1.75-1.75,1.75h-11.5v9.5h-3.5v-9.5h-11.5
		c-0.966,0-1.75-0.784-1.75-1.75S210.784,185,211.75,185z"/>
</g>
</svg>
