<?xml version="1.0" encoding="utf-8"?>
<!-- Generator: Adobe Illustrator 24.2.0, SVG Export Plug-In . SVG Version: 6.00 Build 0)  -->
<svg version="1.0" xmlns="http://www.w3.org/2000/svg" xmlns:xlink="http://www.w3.org/1999/xlink" x="0px" y="0px"
	 viewBox="0 0 400 400.001" enable-background="new 0 0 400 400.001" xml:space="preserve">
<rect id="background-blue" fill="#2D327D" width="400" height="400"/>
<g id="content">
	<path id="frameWhite" fill="#FFFFFF" d="M340,40c11,0,20,9,20,20v280c0,11-9,20-20,20H60c-11,0-20-9-20-20V60c0-11,9-20,20-20H340
		 M340,35H60c-13.785,0-25,11.215-25,25v280c0,13.785,11.215,25,25,25h280c13.785,0,25-11.215,25-25V60
		C365,46.215,353.785,35,340,35L340,35z"/>
	<path fill="#FFFFFF" d="M298.766,230.383c0,5.863,4.753,10.617,10.616,10.617c5.865,0,10.618-4.754,10.618-10.617v-10.618h-21.234
		V230.383L298.766,230.383z"/>
	<path fill="#FFFFFF" d="M295.407,186.326c-0.671,2.97-1.384,5.564,0.323,8.778c1.447,2.726,4.566,8.598,4.566,8.598l19.249,7.7
		l4.379-18.145c0.327-1.354,0.342-2.765,0.046-4.125l-5.436-25.041c-0.646-2.971-3.275-5.092-6.315-5.092h-5.675
		c-3.041,0-5.67,2.121-6.315,5.092L295.407,186.326L295.407,186.326z"/>
	<path fill="#FFFFFF" d="M261.234,230.383c0,5.863-4.753,10.617-10.616,10.617c-5.865,0-10.618-4.754-10.618-10.617v-10.618h21.234
		V230.383L261.234,230.383z"/>
	<path fill="#FFFFFF" d="M264.593,186.326c0.671,2.97,1.384,5.564-0.323,8.778c-1.447,2.726-4.566,8.598-4.566,8.598l-19.249,7.7
		l-4.379-18.145c-0.327-1.354-0.342-2.765-0.046-4.125l5.436-25.041c0.646-2.971,3.275-5.092,6.315-5.092h5.675
		c3.041,0,5.67,2.121,6.315,5.092L264.593,186.326L264.593,186.326z"/>
	<path fill="#FFFFFF" d="M128.766,310.383c0,5.863,4.753,10.617,10.616,10.617c5.865,0,10.618-4.754,10.618-10.617v-10.618h-21.234
		V310.383L128.766,310.383z"/>
	<path fill="#FFFFFF" d="M125.407,266.326c-0.671,2.97-1.384,5.564,0.323,8.778c1.447,2.726,4.566,8.598,4.566,8.598l19.249,7.7
		l4.379-18.145c0.327-1.354,0.342-2.765,0.046-4.125l-5.436-25.041c-0.646-2.971-3.275-5.092-6.315-5.092h-5.675
		c-3.041,0-5.67,2.121-6.315,5.092L125.407,266.326L125.407,266.326z"/>
	<path fill="#FFFFFF" d="M101.234,230.383c0,5.863-4.753,10.617-10.616,10.617C84.753,241,80,236.246,80,230.383v-10.618h21.234
		V230.383L101.234,230.383z"/>
	<path fill="#FFFFFF" d="M104.593,186.326c0.671,2.97,1.384,5.564-0.323,8.778c-1.447,2.726-4.566,8.598-4.566,8.598l-19.249,7.7
		l-4.379-18.145c-0.327-1.354-0.342-2.765-0.046-4.125l5.436-25.041C82.11,161.121,84.74,159,87.779,159h5.675
		c3.041,0,5.67,2.121,6.315,5.092L104.593,186.326L104.593,186.326z"/>
	<path fill="#FFFFFF" d="M128.766,150.383c0,5.863,4.753,10.617,10.616,10.617c5.865,0,10.618-4.754,10.618-10.617v-10.618h-21.234
		V150.383L128.766,150.383z"/>
	<path fill="#FFFFFF" d="M125.407,106.326c-0.671,2.97-1.384,5.564,0.323,8.778c1.447,2.726,4.566,8.598,4.566,8.598l19.249,7.7
		l4.379-18.145c0.327-1.354,0.342-2.765,0.046-4.125l-5.436-25.041C147.89,81.121,145.26,79,142.221,79h-5.675
		c-3.041,0-5.67,2.121-6.315,5.092L125.407,106.326L125.407,106.326z"/>
	<path fill="#FFFFFF" d="M200,321.489c-1.375,0-2.489-1.114-2.489-2.488V81c0-1.375,1.114-2.489,2.489-2.489
		c1.374,0,2.488,1.114,2.488,2.489v238C202.488,320.374,201.374,321.489,200,321.489z"/>
</g>
</svg>
