<?xml version="1.0" encoding="utf-8"?>
<!-- Generator: Adobe Illustrator 24.2.0, SVG Export Plug-In . SVG Version: 6.00 Build 0)  -->
<svg version="1.0" id="Ebene_1" xmlns="http://www.w3.org/2000/svg" xmlns:xlink="http://www.w3.org/1999/xlink" x="0px" y="0px"
	 viewBox="0 0 400 400.001" enable-background="new 0 0 400 400.001" xml:space="preserve">
<rect id="background-blue" fill="#2D327D" width="400" height="400"/>
<g id="content">
	<path id="frameWhite" fill="#FFFFFF" d="M340,40c11,0,20,9,20,20v280c0,11-9,20-20,20H60c-11,0-20-9-20-20V60c0-11,9-20,20-20H340
		 M340,35H60c-13.785,0-25,11.215-25,25v280c0,13.785,11.215,25,25,25h280c13.785,0,25-11.215,25-25V60
		C365,46.215,353.785,35,340,35L340,35z"/>
	<polygon fill="#FFFFFF" points="190.471,238.086 150.434,198.047 150.434,223.07 200.478,273.122 250.534,223.07 250.534,198.047 
		210.492,238.086 210.492,142.992 190.471,142.992 190.471,238.086 	"/>
	<polygon fill="#FFFFFF" points="320,320 80,320 80,300 320,300 320,320 	"/>
	<path fill="#FFFFFF" d="M116.232,80v29.982h-6.214l0.226-22.784l-7.567,22.784h-5.147l-7.69-22.148l0.226,22.148h-6.214V80h9.311
		l7.055,21.554L107.004,80H116.232z"/>
	<path fill="#FFFFFF" d="M141.662,109.982h-6.07c-0.26-0.875-0.39-1.62-0.39-2.235c-1.859,1.9-4.259,2.851-7.198,2.851
		c-2.297,0-4.088-0.533-5.373-1.6c-1.477-1.23-2.215-2.946-2.215-5.147c0-2.803,1.265-4.744,3.794-5.824
		c1.025-0.438,2.912-0.841,5.66-1.21c2.365-0.314,3.838-0.619,4.419-0.913s0.872-0.885,0.872-1.774c0-1.955-1.299-2.933-3.896-2.933
		c-1.381,0-2.389,0.246-3.025,0.738s-1.056,1.347-1.261,2.563h-5.619c0.178-2.488,1.114-4.365,2.81-5.629s4.108-1.897,7.239-1.897
		c3.459,0,6.016,0.704,7.67,2.112c0.766,0.656,1.275,1.36,1.528,2.112s0.379,1.941,0.379,3.568c0,0.342-0.021,1.846-0.062,4.512
		c-0.027,2.693-0.041,4.238-0.041,4.635c0,1.627,0.048,2.82,0.144,3.579S141.334,109.08,141.662,109.982z M135.12,99.175
		c-0.766,0.479-2.16,0.854-4.184,1.128c-1.422,0.219-2.447,0.499-3.076,0.841c-0.889,0.479-1.333,1.292-1.333,2.44
		c0,0.93,0.294,1.654,0.882,2.174s1.408,0.779,2.461,0.779c1.75,0,3.165-0.615,4.245-1.846c0.383-0.424,0.646-0.865,0.79-1.323
		s0.215-1.063,0.215-1.815V99.175z"/>
	<path fill="#FFFFFF" d="M165.697,87.588l-7.178,10.397l8.08,11.997h-6.87l-4.614-7.26l-4.512,7.26h-6.768l7.896-11.854
		l-7.198-10.541h6.829l3.896,6.009l3.794-6.009H165.697z"/>
	<path fill="#FFFFFF" d="M176.054,103.317v6.665h-6.809v-6.665H176.054z"/>
	<path fill="#FFFFFF" d="M212.639,104.814v5.168h-21.594c0-1.586,0.26-3.09,0.779-4.512s1.265-2.652,2.235-3.691
		c0.738-0.793,1.6-1.562,2.584-2.307s2.96-2.129,5.927-4.153c1.436-0.984,2.44-1.89,3.015-2.717s0.861-1.788,0.861-2.881
		c0-1.271-0.386-2.3-1.159-3.086s-1.788-1.179-3.045-1.179c-3.09,0-4.683,2.146-4.778,6.439h-5.763c0-0.273,0-0.485,0-0.636
		c0-3.514,1.019-6.234,3.056-8.162c1.982-1.887,4.553-2.83,7.711-2.83c2.762,0,5.086,0.766,6.973,2.297
		c2.037,1.668,3.055,3.91,3.055,6.727c0,2.461-0.813,4.58-2.44,6.357c-0.533,0.574-1.029,1.039-1.487,1.395
		s-1.685,1.196-3.681,2.522c-1.914,1.299-3.271,2.276-4.071,2.933s-1.548,1.429-2.246,2.317H212.639z"/>
	<path fill="#FFFFFF" d="M225.334,80.267c2.283,0,4.293,0.67,6.029,2.01s2.987,3.397,3.753,6.173
		c0.588,2.133,0.882,4.443,0.882,6.932c0,4.238-0.766,7.643-2.297,10.213c-0.943,1.572-2.133,2.772-3.568,3.599
		s-3.049,1.241-4.84,1.241c-2.447,0-4.539-0.711-6.275-2.133c-3.09-2.516-4.635-6.815-4.635-12.899c0-4.375,0.807-7.854,2.42-10.438
		c0.943-1.518,2.15-2.68,3.62-3.486S223.529,80.267,225.334,80.267z M225.108,85.127c-1.955,0-3.295,1.094-4.02,3.281
		c-0.561,1.695-0.841,4.122-0.841,7.28c0,2.775,0.287,4.983,0.861,6.624c0.738,2.174,2.105,3.261,4.102,3.261
		c1.654,0,2.885-0.837,3.691-2.512s1.21-4.242,1.21-7.701c0-2.926-0.287-5.25-0.861-6.973
		C228.512,86.214,227.131,85.127,225.108,85.127z"/>
	<path fill="#FFFFFF" d="M278.018,80l-11.751,11.854l12.858,18.129h-8.265l-9.105-13.453l-3.773,3.773v9.68h-6.542V80h6.542v12.407
		L269.733,80H278.018z"/>
	<path fill="#FFFFFF" d="M302.074,87.588v19.729c0,1.75-0.109,3.148-0.328,4.194s-0.595,2-1.128,2.861
		c-1.723,2.734-4.812,4.102-9.27,4.102c-6.207,0-9.604-2.345-10.192-7.034h5.988c0.41,1.873,1.853,2.81,4.327,2.81
		c1.887,0,3.206-0.533,3.958-1.6c0.588-0.848,0.882-2.215,0.882-4.102l0.021-2.769c-1.531,2.352-3.746,3.527-6.645,3.527
		c-2.803,0-5.038-0.984-6.706-2.953c-1.695-1.996-2.543-4.689-2.543-8.08s0.848-6.111,2.543-8.162
		c1.764-2.119,4.081-3.179,6.952-3.179c1.49,0,2.734,0.28,3.732,0.841s1.914,1.497,2.748,2.81v-2.994H302.074z M291.266,91.812
		c-1.668,0-2.933,0.697-3.794,2.092c-0.697,1.121-1.046,2.543-1.046,4.266c0,2.188,0.506,3.849,1.518,4.983
		c0.875,1.012,2.017,1.518,3.425,1.518c1.777,0,3.11-0.745,3.999-2.235c0.684-1.148,1.025-2.598,1.025-4.348
		c0-2.105-0.526-3.732-1.579-4.881C293.953,92.277,292.77,91.812,291.266,91.812z"/>
</g>
</svg>
