<?xml version="1.0" encoding="utf-8"?>
<!-- Generator: Adobe Illustrator 24.2.0, SVG Export Plug-In . SVG Version: 6.00 Build 0)  -->
<svg version="1.0" id="Inhalt" xmlns="http://www.w3.org/2000/svg" xmlns:xlink="http://www.w3.org/1999/xlink" x="0px" y="0px"
	 viewBox="0 0 400 400.001" enable-background="new 0 0 400 400.001" xml:space="preserve">
<rect id="background-blue" fill="#2D327D" width="400" height="400"/>
<g id="content">
	<path id="frameWhite" fill="#FFFFFF" d="M340,40c11,0,20,9,20,20v280c0,11-9,20-20,20H60c-11,0-20-9-20-20V60c0-11,9-20,20-20H340
		 M340,35H60c-13.785,0-25,11.215-25,25v280c0,13.785,11.215,25,25,25h280c13.785,0,25-11.215,25-25V60
		C365,46.215,353.785,35,340,35L340,35z"/>
	<path fill="#FFFFFF" d="M304.141,244.143c-7.778-7.778-19.523-8.762-26.099-2.185c-4.544,4.545-14.51,14.51-20.235,20.235
		L210,227.133V140c0-0.002,0-0.003,0-0.005c-0.008-6.455-3.132-12.787-8.906-16.636c-3.414-2.276-7.274-3.362-11.091-3.359
		c-0.001,0-0.002,0-0.003,0h-0.005c-0.053,0-0.106,0-0.159,0H145c-2.539,0-4.778,1.265-6.135,3.195c-0.002,0-0.004,0-0.006,0
		l-23.971,34.189l-1.931-1.416c-2.227-1.633-5.356-1.152-6.989,1.075c-1.633,2.227-1.152,5.356,1.075,6.989l2.103,1.542
		l-0.085,0.121c-2.378,3.392-1.556,8.069,1.835,10.447c1.31,0.918,2.812,1.36,4.299,1.36c2.309,0,4.581-1.066,6.045-3.058
		l10.579,7.758l5.552-8.329l-10.385-7.616L148.901,135h20.395l-35.937,53.906c-0.987,1.48-1.747,3.044-2.295,4.652
		c-0.013,0.039-0.029,0.077-0.042,0.116L93.3,306.838c-1.746,5.239,1.085,10.903,6.325,12.649c1.049,0.35,2.115,0.516,3.164,0.516
		c4.187,0,8.089-2.65,9.485-6.841l33.281-99.844l14.444,48.149V310c0,5.523,4.477,10,10,10c5.523,0,10-4.477,10-10v-49.839
		c0.003-0.221-0.001-0.444-0.013-0.667c-0.001-0.014-0.002-0.028-0.003-0.043c-0.008-0.145-0.019-0.289-0.033-0.435
		c-0.006-0.058-0.013-0.115-0.02-0.173c-0.012-0.098-0.023-0.196-0.037-0.294c-0.015-0.106-0.034-0.21-0.052-0.315
		c-0.009-0.05-0.017-0.099-0.027-0.149c-0.029-0.15-0.062-0.299-0.098-0.447c-0.002-0.007-0.003-0.014-0.005-0.02
		c-0.054-0.22-0.114-0.438-0.182-0.652l-13.501-45.005c0.21-0.282,0.415-0.571,0.612-0.867L195,168.555v47.578l-17.267-12.663
		l-5.552,8.329L195,228.534V235c0,4.142,3.358,7.5,7.5,7.5c2.762,0,5.169-1.498,6.471-3.721l41.403,30.362
		c-1.638,1.228-3.431,2.388-4.845,3.095l-11.056,5.528c-2.459,1.23-5.822,4.036-7.472,6.236l-27,36h120v-60L304.141,244.143z"/>
	<path fill="#FFFFFF" d="M219.999,130c11.046,0,20-8.954,20-20c0-11.046-8.954-20-20-20c-11.046,0-20,8.954-20,20
		C199.999,121.046,208.953,130,219.999,130z"/>
</g>
</svg>
