<?xml version="1.0" encoding="utf-8"?>
<!-- Generator: Adobe Illustrator 24.2.0, SVG Export Plug-In . SVG Version: 6.00 Build 0)  -->
<svg version="1.0" id="Ebene_1" xmlns="http://www.w3.org/2000/svg" xmlns:xlink="http://www.w3.org/1999/xlink" x="0px" y="0px"
	 viewBox="0 0 400 400.001" enable-background="new 0 0 400 400.001" xml:space="preserve">
<rect id="background-blue" fill="#2D327D" width="400" height="400"/>
<g id="content">
	<path id="frameWhite" fill="#FFFFFF" d="M340,40c11,0,20,9,20,20v280c0,11-9,20-20,20H60c-11,0-20-9-20-20V60c0-11,9-20,20-20H340
		 M340,35H60c-13.785,0-25,11.215-25,25v280c0,13.785,11.215,25,25,25h280c13.785,0,25-11.215,25-25V60
		C365,46.215,353.785,35,340,35L340,35z"/>
	<path fill="#FFFFFF" d="M289.993,140.001h-53.485v-12.008c0-9.929-8.075-18.001-18.01-18.001h-36.997
		c-9.936,0-17.999,8.072-17.999,18.001v12.008h-53.497c-16.561,0-30.014,13.432-30.014,29.996v119.996
		c0,16.564,13.453,29.996,30.014,29.996h179.988c16.574,0,30.014-13.432,30.014-29.996V169.998
		C320.007,153.434,306.568,140.001,289.993,140.001L289.993,140.001z M222.511,140.001h-45.012v-16.007h45.012V140.001
		L222.511,140.001z"/>
	<path fill="#EB0000" d="M170.29,158.996c-38.919,0-70.493,30.561-70.493,69.482C99.797,267.4,131.371,300,170.29,300
		c38.919,0,70.503-32.6,70.503-71.522C240.794,189.557,209.209,158.996,170.29,158.996L170.29,158.996z M170.29,281.265
		c-27.871,0-50.501-22.63-50.501-50.508c0-27.867,22.631-50.498,50.501-50.498c27.869,0,50.5,22.63,50.5,50.498
		C220.79,258.635,198.159,281.265,170.29,281.265L170.29,281.265z"/>
	<path d="M143.002,237.999h54.997c4.148,0,7.506-3.356,7.506-7.502c0-4.136-3.358-7.501-7.506-7.501h-54.997
		c-4.148,0-7.493,3.366-7.493,7.501C135.509,234.643,138.854,237.999,143.002,237.999L143.002,237.999z"/>
	<g id="Douane_F">
		<path d="M135.512,204.094h5.636c1.049,0,1.947,0.121,2.694,0.362s1.407,0.623,1.979,1.145c1.393,1.271,2.088,3.035,2.088,5.292
			c0,2.391-0.658,4.237-1.974,5.541c-0.579,0.578-1.23,0.99-1.955,1.234c-0.725,0.245-1.646,0.367-2.766,0.367h-5.702V204.094z
			 M138.554,206.668v8.793h2.346c0.718,0,1.291-0.072,1.716-0.215s0.798-0.386,1.116-0.729c0.738-0.801,1.106-1.974,1.106-3.519
			c0-1.425-0.342-2.502-1.025-3.233c-0.683-0.73-1.692-1.097-3.027-1.097H138.554z"/>
		<path d="M154.727,207.336c1.513,0,2.75,0.502,3.709,1.507c0.947,0.991,1.421,2.313,1.421,3.967c0,1.71-0.505,3.074-1.516,4.091
			c-0.947,0.947-2.181,1.421-3.7,1.421c-1.621,0-2.912-0.527-3.872-1.583c-0.916-1.004-1.373-2.308-1.373-3.909
			c0-1.577,0.445-2.858,1.335-3.844C151.716,207.886,153.048,207.336,154.727,207.336z M154.584,209.492
			c-0.731,0-1.313,0.296-1.745,0.887c-0.438,0.598-0.658,1.415-0.658,2.451c0,1.074,0.216,1.897,0.649,2.47
			c0.445,0.578,1.052,0.867,1.821,0.867c0.718,0,1.287-0.264,1.707-0.791c0.477-0.585,0.715-1.434,0.715-2.546
			c0-1.043-0.209-1.854-0.629-2.433C156.004,209.793,155.385,209.492,154.584,209.492z"/>
		<path d="M171.119,207.623v10.413h-2.632v-1.516c-0.795,1.201-1.907,1.802-3.338,1.802c-1.246,0-2.187-0.416-2.823-1.249
			c-0.242-0.324-0.415-0.706-0.52-1.145s-0.157-1.011-0.157-1.717v-6.589h2.765v5.731c0,0.598,0.018,1.02,0.053,1.268
			c0.035,0.248,0.106,0.458,0.214,0.63c0.292,0.464,0.792,0.696,1.497,0.696c0.871,0,1.503-0.385,1.898-1.154
			c0.19-0.375,0.286-1.052,0.286-2.031v-5.14H171.119z"/>
		<path d="M182.658,218.036h-2.823c-0.121-0.406-0.181-0.753-0.181-1.039c-0.865,0.884-1.98,1.325-3.347,1.325
			c-1.068,0-1.901-0.248-2.499-0.743c-0.687-0.572-1.03-1.37-1.03-2.394c0-1.304,0.588-2.206,1.764-2.709
			c0.477-0.203,1.354-0.391,2.632-0.562c1.1-0.146,1.785-0.287,2.055-0.424c0.27-0.137,0.405-0.412,0.405-0.825
			c0-0.909-0.604-1.363-1.812-1.363c-0.642,0-1.111,0.114-1.406,0.343c-0.296,0.229-0.491,0.626-0.587,1.192h-2.613
			c0.083-1.157,0.518-2.03,1.307-2.618c0.788-0.588,1.91-0.882,3.366-0.882c1.608,0,2.797,0.327,3.566,0.982
			c0.356,0.305,0.593,0.633,0.71,0.982s0.176,0.902,0.176,1.659c0,0.158-0.009,0.857-0.028,2.098
			c-0.013,1.252-0.019,1.971-0.019,2.155c0,0.757,0.022,1.311,0.066,1.664C182.406,217.23,182.505,217.617,182.658,218.036z
			 M179.616,213.01c-0.356,0.223-1.005,0.397-1.945,0.524c-0.662,0.102-1.138,0.232-1.431,0.392c-0.413,0.222-0.62,0.601-0.62,1.135
			c0,0.432,0.137,0.769,0.41,1.011c0.273,0.241,0.654,0.362,1.144,0.362c0.814,0,1.472-0.286,1.974-0.858
			c0.178-0.197,0.3-0.402,0.367-0.615c0.066-0.213,0.1-0.494,0.1-0.844V213.01z"/>
		<path d="M187.083,207.651v1.459c0.324-0.444,0.626-0.772,0.906-0.982c0.687-0.533,1.513-0.801,2.479-0.801
			c0.852,0,1.573,0.217,2.165,0.648c0.47,0.344,0.799,0.777,0.987,1.302s0.281,1.264,0.281,2.217v6.542h-2.756v-5.96
			c0-0.667-0.057-1.157-0.171-1.469c-0.108-0.273-0.292-0.489-0.553-0.648c-0.299-0.171-0.639-0.257-1.021-0.257
			c-0.419,0-0.801,0.102-1.144,0.305c-0.343,0.204-0.598,0.48-0.763,0.83c-0.184,0.394-0.276,1.008-0.276,1.84v5.359h-2.766v-10.385
			H187.083z"/>
		<path d="M205.43,214.793c-0.146,0.585-0.41,1.135-0.792,1.649c-0.915,1.253-2.231,1.879-3.948,1.879
			c-1.551,0-2.794-0.489-3.729-1.469c-0.458-0.477-0.807-1.052-1.049-1.726c-0.261-0.719-0.391-1.469-0.391-2.251
			c0-1.513,0.436-2.784,1.307-3.814c0.973-1.15,2.231-1.726,3.776-1.726c1.245,0,2.308,0.385,3.185,1.153
			c0.63,0.554,1.087,1.235,1.373,2.046s0.43,1.829,0.43,3.057h-7.257c0.025,0.509,0.104,0.932,0.238,1.269
			c0.375,0.909,1.087,1.363,2.136,1.363c0.515,0,0.935-0.113,1.259-0.339s0.591-0.59,0.801-1.092H205.43z M202.769,211.733
			c-0.051-0.503-0.165-0.919-0.343-1.25c-0.179-0.324-0.431-0.581-0.759-0.772c-0.327-0.19-0.685-0.286-1.072-0.286
			c-0.617,0-1.125,0.207-1.526,0.62c-0.4,0.413-0.639,0.977-0.715,1.688H202.769z"/>
	</g>
</g>
</svg>
