<?xml version="1.0" encoding="utf-8"?>
<!-- Generator: Adobe Illustrator 24.2.0, SVG Export Plug-In . SVG Version: 6.00 Build 0)  -->
<svg version="1.0" id="Ebene_1" xmlns="http://www.w3.org/2000/svg" xmlns:xlink="http://www.w3.org/1999/xlink" x="0px" y="0px"
	 viewBox="0 0 400 400.001" enable-background="new 0 0 400 400.001" xml:space="preserve">
<rect id="background-blue" fill="#2D327D" width="400" height="400"/>
<g id="content">
	<path id="frameWhite" fill="#FFFFFF" d="M340,40c11,0,20,9,20,20v280c0,11-9,20-20,20H60c-11,0-20-9-20-20V60c0-11,9-20,20-20H340
		 M340,35H60c-13.785,0-25,11.215-25,25v280c0,13.785,11.215,25,25,25h280c13.785,0,25-11.215,25-25V60
		C365,46.215,353.785,35,340,35L340,35z"/>
	<path fill="#FFFFFF" d="M289.993,140.001h-53.485v-12.008c0-9.929-8.075-18.001-18.01-18.001h-36.997
		c-9.936,0-17.999,8.072-17.999,18.001v12.008h-53.497c-16.561,0-30.014,13.432-30.014,29.996v119.996
		c0,16.564,13.453,29.996,30.014,29.996h179.988c16.574,0,30.014-13.432,30.014-29.996V169.998
		C320.007,153.434,306.568,140.001,289.993,140.001L289.993,140.001z M222.511,140.001h-45.012v-16.007h45.012V140.001
		L222.511,140.001z"/>
	<path fill="#EB0000" d="M170.29,158.996c-38.919,0-70.493,30.561-70.493,69.482C99.797,267.4,131.371,300,170.29,300
		c38.919,0,70.503-32.6,70.503-71.522C240.794,189.557,209.209,158.996,170.29,158.996L170.29,158.996z M170.29,281.265
		c-27.871,0-50.501-22.63-50.501-50.508c0-27.867,22.631-50.498,50.501-50.498c27.869,0,50.5,22.63,50.5,50.498
		C220.79,258.635,198.159,281.265,170.29,281.265L170.29,281.265z"/>
	<path d="M143.002,237.999h54.997c4.148,0,7.506-3.356,7.506-7.502c0-4.136-3.358-7.501-7.506-7.501h-54.997
		c-4.148,0-7.493,3.366-7.493,7.501C135.509,234.643,138.854,237.999,143.002,237.999L143.002,237.999z"/>
	<g id="Dogana_i">
		<path d="M135.512,204.093h5.636c1.049,0,1.947,0.121,2.694,0.362c0.747,0.242,1.407,0.623,1.979,1.145
			c1.393,1.271,2.088,3.036,2.088,5.293c0,2.391-0.658,4.237-1.974,5.54c-0.579,0.579-1.23,0.99-1.955,1.235
			c-0.725,0.244-1.646,0.367-2.766,0.367h-5.702V204.093z M138.554,206.668v8.792h2.346c0.718,0,1.291-0.071,1.716-0.215
			c0.426-0.143,0.798-0.386,1.116-0.729c0.738-0.801,1.106-1.974,1.106-3.519c0-1.424-0.342-2.501-1.025-3.232
			c-0.683-0.731-1.692-1.097-3.027-1.097H138.554z"/>
		<path d="M154.727,207.335c1.513,0,2.75,0.503,3.709,1.507c0.947,0.992,1.421,2.314,1.421,3.968c0,1.71-0.505,3.073-1.516,4.091
			c-0.947,0.947-2.181,1.421-3.7,1.421c-1.621,0-2.912-0.528-3.872-1.583c-0.916-1.005-1.373-2.308-1.373-3.91
			c0-1.576,0.445-2.857,1.335-3.843C151.716,207.886,153.048,207.335,154.727,207.335z M154.584,209.491
			c-0.731,0-1.313,0.296-1.745,0.887c-0.438,0.598-0.658,1.415-0.658,2.451c0,1.074,0.216,1.897,0.649,2.47
			c0.445,0.579,1.052,0.868,1.821,0.868c0.718,0,1.287-0.264,1.707-0.792c0.477-0.585,0.715-1.434,0.715-2.546
			c0-1.043-0.209-1.854-0.629-2.432C156.004,209.793,155.385,209.491,154.584,209.491z"/>
		<path d="M171.376,207.622v9.174c0,0.814-0.051,1.464-0.152,1.95c-0.102,0.486-0.277,0.93-0.524,1.33
			c-0.801,1.271-2.238,1.907-4.311,1.907c-2.886,0-4.466-1.09-4.739-3.271h2.785c0.19,0.871,0.861,1.307,2.012,1.307
			c0.877,0,1.491-0.248,1.841-0.744c0.273-0.395,0.41-1.029,0.41-1.907l0.01-1.287c-0.712,1.094-1.742,1.641-3.09,1.641
			c-1.303,0-2.343-0.458-3.118-1.374c-0.789-0.928-1.183-2.18-1.183-3.757c0-1.576,0.394-2.842,1.183-3.796
			c0.82-0.985,1.897-1.478,3.233-1.478c0.693,0,1.271,0.13,1.735,0.391c0.464,0.261,0.89,0.696,1.278,1.307v-1.393H171.376z
			 M166.351,209.586c-0.776,0-1.364,0.324-1.764,0.973c-0.324,0.521-0.486,1.183-0.486,1.983c0,1.018,0.235,1.79,0.706,2.317
			c0.407,0.471,0.938,0.706,1.593,0.706c0.826,0,1.446-0.347,1.859-1.04c0.318-0.534,0.477-1.208,0.477-2.021
			c0-0.979-0.245-1.735-0.734-2.27C167.6,209.802,167.05,209.586,166.351,209.586z"/>
		<path d="M183.011,218.036h-2.823c-0.121-0.407-0.181-0.754-0.181-1.04c-0.865,0.884-1.98,1.326-3.347,1.326
			c-1.068,0-1.901-0.248-2.499-0.744c-0.687-0.572-1.03-1.37-1.03-2.394c0-1.303,0.588-2.206,1.764-2.708
			c0.477-0.204,1.354-0.392,2.632-0.562c1.1-0.146,1.785-0.288,2.055-0.425c0.27-0.137,0.405-0.411,0.405-0.825
			c0-0.908-0.604-1.363-1.812-1.363c-0.642,0-1.111,0.114-1.406,0.344c-0.296,0.229-0.491,0.626-0.587,1.191h-2.613
			c0.083-1.157,0.518-2.029,1.307-2.617c0.788-0.588,1.91-0.883,3.366-0.883c1.608,0,2.797,0.328,3.566,0.982
			c0.356,0.306,0.593,0.633,0.71,0.982s0.176,0.902,0.176,1.659c0,0.159-0.009,0.858-0.028,2.098
			c-0.013,1.253-0.019,1.972-0.019,2.155c0,0.757,0.022,1.312,0.066,1.664C182.759,217.23,182.858,217.616,183.011,218.036z
			 M179.969,213.01c-0.356,0.223-1.005,0.397-1.945,0.524c-0.662,0.102-1.138,0.231-1.431,0.391c-0.413,0.223-0.62,0.601-0.62,1.135
			c0,0.433,0.137,0.77,0.41,1.011c0.273,0.242,0.654,0.362,1.144,0.362c0.814,0,1.472-0.286,1.974-0.858
			c0.178-0.196,0.3-0.401,0.367-0.614c0.066-0.213,0.1-0.495,0.1-0.845V213.01z"/>
		<path d="M187.436,207.651v1.459c0.324-0.445,0.626-0.772,0.906-0.982c0.687-0.534,1.513-0.801,2.479-0.801
			c0.852,0,1.573,0.216,2.165,0.648c0.47,0.343,0.799,0.777,0.987,1.302s0.281,1.263,0.281,2.217v6.542h-2.756v-5.96
			c0-0.668-0.057-1.157-0.171-1.469c-0.108-0.273-0.292-0.489-0.553-0.648c-0.299-0.172-0.639-0.258-1.021-0.258
			c-0.419,0-0.801,0.102-1.144,0.306c-0.343,0.203-0.598,0.479-0.763,0.829c-0.184,0.395-0.276,1.008-0.276,1.841v5.359h-2.766
			v-10.385H187.436z"/>
		<path d="M205.802,218.036h-2.823c-0.121-0.407-0.181-0.754-0.181-1.04c-0.865,0.884-1.98,1.326-3.347,1.326
			c-1.068,0-1.901-0.248-2.499-0.744c-0.687-0.572-1.03-1.37-1.03-2.394c0-1.303,0.588-2.206,1.764-2.708
			c0.477-0.204,1.354-0.392,2.632-0.562c1.1-0.146,1.784-0.288,2.055-0.425s0.405-0.411,0.405-0.825
			c0-0.908-0.604-1.363-1.812-1.363c-0.642,0-1.111,0.114-1.406,0.344c-0.296,0.229-0.491,0.626-0.587,1.191h-2.613
			c0.083-1.157,0.518-2.029,1.307-2.617c0.788-0.588,1.91-0.883,3.366-0.883c1.608,0,2.797,0.328,3.566,0.982
			c0.356,0.306,0.593,0.633,0.711,0.982c0.117,0.35,0.176,0.902,0.176,1.659c0,0.159-0.009,0.858-0.028,2.098
			c-0.013,1.253-0.019,1.972-0.019,2.155c0,0.757,0.021,1.312,0.066,1.664C205.55,217.23,205.648,217.616,205.802,218.036z
			 M202.76,213.01c-0.356,0.223-1.005,0.397-1.945,0.524c-0.662,0.102-1.138,0.231-1.431,0.391c-0.413,0.223-0.62,0.601-0.62,1.135
			c0,0.433,0.137,0.77,0.41,1.011c0.273,0.242,0.654,0.362,1.144,0.362c0.813,0,1.472-0.286,1.974-0.858
			c0.178-0.196,0.301-0.401,0.367-0.614s0.101-0.495,0.101-0.845V213.01z"/>
	</g>
</g>
</svg>
