<?xml version="1.0" encoding="utf-8"?>
<!-- Generator: Adobe Illustrator 24.2.0, SVG Export Plug-In . SVG Version: 6.00 Build 0)  -->
<svg version="1.0" id="Ebene_1" xmlns="http://www.w3.org/2000/svg" xmlns:xlink="http://www.w3.org/1999/xlink" x="0px" y="0px"
	 viewBox="0 0 400 400.001" enable-background="new 0 0 400 400.001" xml:space="preserve">
<rect id="background-blue" fill="#2D327D" width="400" height="400"/>
<g id="content">
	<path id="frameWhite" fill="#FFFFFF" d="M340,40c11,0,20,9,20,20v280c0,11-9,20-20,20H60c-11,0-20-9-20-20V60c0-11,9-20,20-20H340
		 M340,35H60c-13.785,0-25,11.215-25,25v280c0,13.785,11.215,25,25,25h280c13.785,0,25-11.215,25-25V60
		C365,46.215,353.785,35,340,35L340,35z"/>
	<path fill="#FFFFFF" d="M289.993,140.001h-53.485v-12.008c0-9.929-8.075-18.001-18.01-18.001h-36.997
		c-9.936,0-17.999,8.072-17.999,18.001v12.008h-53.497c-16.561,0-30.014,13.432-30.014,29.996v119.996
		c0,16.564,13.453,29.996,30.014,29.996h179.988c16.574,0,30.014-13.432,30.014-29.996V169.998
		C320.007,153.434,306.568,140.001,289.993,140.001L289.993,140.001z M222.511,140.001h-45.012v-16.007h45.012V140.001
		L222.511,140.001z"/>
	<path fill="#EB0000" d="M170.29,158.996c-38.919,0-70.493,30.561-70.493,69.482C99.797,267.4,131.371,300,170.29,300
		c38.919,0,70.503-32.6,70.503-71.522C240.794,189.557,209.209,158.996,170.29,158.996L170.29,158.996z M170.29,281.265
		c-27.871,0-50.501-22.63-50.501-50.508c0-27.867,22.631-50.498,50.501-50.498c27.869,0,50.5,22.63,50.5,50.498
		C220.79,258.635,198.159,281.265,170.29,281.265L170.29,281.265z"/>
	<path d="M143.002,237.999h54.997c4.148,0,7.506-3.356,7.506-7.502c0-4.136-3.358-7.501-7.506-7.501h-54.997
		c-4.148,0-7.493,3.366-7.493,7.501C135.509,234.643,138.854,237.999,143.002,237.999L143.002,237.999z"/>
	<g id="Zoll">
		<path d="M165.505,204.08v2.32l-7.57,9.059h7.818v2.577h-11.808v-2.443l7.503-8.936h-6.988v-2.577H165.505z"/>
		<path d="M172.254,207.326c1.514,0,2.752,0.503,3.713,1.508c0.948,0.993,1.422,2.316,1.422,3.972c0,1.712-0.506,3.076-1.518,4.095
			c-0.948,0.948-2.183,1.422-3.704,1.422c-1.623,0-2.915-0.527-3.875-1.584c-0.917-1.006-1.375-2.311-1.375-3.914
			c0-1.578,0.445-2.86,1.336-3.847C169.24,207.875,170.574,207.326,172.254,207.326z M172.111,209.483
			c-0.731,0-1.314,0.296-1.747,0.888c-0.439,0.599-0.659,1.416-0.659,2.453c0,1.075,0.216,1.899,0.649,2.473
			c0.445,0.579,1.053,0.868,1.823,0.868c0.719,0,1.289-0.264,1.709-0.792c0.477-0.585,0.716-1.435,0.716-2.549
			c0-1.044-0.21-1.854-0.63-2.435C173.533,209.785,172.913,209.483,172.111,209.483z"/>
		<path d="M182.028,204.08v13.956h-2.769V204.08H182.028z"/>
		<path d="M187.069,204.08v13.956H184.3V204.08H187.069z"/>
	</g>
</g>
</svg>
