<?xml version="1.0" encoding="utf-8"?>
<!-- Generator: Adobe Illustrator 24.2.0, SVG Export Plug-In . SVG Version: 6.00 Build 0)  -->
<svg version="1.0" id="Ebene_1" xmlns="http://www.w3.org/2000/svg" xmlns:xlink="http://www.w3.org/1999/xlink" x="0px" y="0px"
	 viewBox="0 0 400 400" enable-background="new 0 0 400 400" xml:space="preserve">
<rect id="background-yellow" fill="#F7B500" width="400" height="400"/>
<g id="content">
	<path id="frameWhite" d="M340,40c11,0,20,9,20,20v280c0,11-9,20-20,20H60c-11,0-20-9-20-20V60c0-11,9-20,20-20H340 M340,35H60
		c-13.785,0-25,11.215-25,25v280c0,13.785,11.215,25,25,25h280c13.785,0,25-11.215,25-25V60C365,46.215,353.785,35,340,35L340,35z"
		/>
	<path d="M227.049,253.968c0,13.864-11.24,25.103-25.101,25.103c-13.862,0-25.103-11.238-25.103-25.103
		c0-13.862,11.24-25.102,25.103-25.102C215.808,228.866,227.049,240.106,227.049,253.968L227.049,253.968z"/>
	<path d="M201.959,158.953c-53.088,0-101.128,31.443-122.377,80.087c21.235,48.647,69.274,80.089,122.377,80.089
		c53.088,0,101.128-31.442,122.379-80.089C303.103,190.396,255.06,158.953,201.959,158.953 M201.948,304.149v-0.089
		c-27.665,0-50.09-22.428-50.09-50.092c0-27.665,22.425-50.094,50.09-50.094s50.088,22.428,50.088,50.094h14.959
		c0-35.924-29.14-65.048-65.051-65.048c-35.903,0-65.042,29.124-65.042,65.048c0,13.985,4.43,26.935,11.942,37.553
		c-22.332-11.203-41.015-29.335-52.704-52.481h0.004c20.164-39.924,61.084-65.103,105.826-65.103
		c44.714,0,85.643,25.179,105.807,65.103h-0.002C287.612,278.968,246.69,304.149,201.948,304.149L201.948,304.149z"/>
</g>
</svg>
