<?xml version="1.0" encoding="utf-8"?>
<!-- Generator: Adobe Illustrator 25.3.1, SVG Export Plug-In . SVG Version: 6.00 Build 0)  -->
<svg version="1.0" xmlns="http://www.w3.org/2000/svg" xmlns:xlink="http://www.w3.org/1999/xlink" x="0px" y="0px"
	 viewBox="0 0 400 400" enable-background="new 0 0 400 400" xml:space="preserve">
<rect id="background-blue_1_" fill="#2D327D" width="400" height="400"/>
<g id="content">
	<path id="frameWhite_1_" fill="#FFFFFF" d="M340,40c11,0,20,9,20,20v280c0,11-9,20-20,20H60c-11,0-20-9-20-20V60c0-11,9-20,20-20
		H340 M340,35H60c-13.785,0-25,11.215-25,25v280c0,13.785,11.215,25,25,25h280c13.785,0,25-11.215,25-25V60
		C365,46.215,353.785,35,340,35L340,35z"/>
	<path fill="#FFFFFF" d="M220,115c0,11.046-8.954,20-20,20s-20-8.954-20-20s8.954-20,20-20S220,103.954,220,115z"/>
	<path fill="#FFFFFF" d="M220,205.639v-40.95c0-12.255-9.934-22.189-22.189-22.189h0c-7.927,0-15.253,4.229-19.216,11.094
		l-3.894,6.745L220,205.639z"/>
	<path fill="#FFFFFF" d="M164.347,178.271l-17.456,30.234c-2.071,3.587-0.842,8.174,2.745,10.245l0,0
		c3.587,2.071,8.174,0.842,10.245-2.745L175,189.818V225h-26.085c-7.145,0-13.748,3.812-17.32,10l-30.989,53.673
		c-2.416,4.185-0.982,9.536,3.203,11.953c4.185,2.416,9.536,0.982,11.953-3.203L146.028,245H210c5.523,0,10-4.477,10-10v-1.076
		L164.347,178.271z"/>
	<path fill="#FFFFFF" d="M260,245.639V210h55c2.761,0,5-2.239,5-5s-2.239-5-5-5h-60c-2.761,0-5,2.239-5,5v30.639L260,245.639z"/>
	<path fill="#FFFFFF" d="M241.076,255H170c-2.761,0-5,2.239-5,5v50H85c-2.761,0-5,2.239-5,5s2.239,5,5,5h85c2.761,0,5-2.239,5-5v-50
		h76.076L241.076,255z"/>
	
		<rect x="187.987" y="34.265" transform="matrix(0.7071 -0.7071 0.7071 0.7071 -81.8543 197.9209)" fill="#EB0000" width="20" height="327.006"/>
</g>
</svg>
