<?xml version="1.0" encoding="utf-8"?>
<!-- Generator: Adobe Illustrator 24.2.0, SVG Export Plug-In . SVG Version: 6.00 Build 0)  -->
<svg version="1.0" xmlns="http://www.w3.org/2000/svg" xmlns:xlink="http://www.w3.org/1999/xlink" x="0px" y="0px"
	 viewBox="0 0 400 400" enable-background="new 0 0 400 400" xml:space="preserve">
<polygon id="background-blue" fill="#2D327D" points="0,0 400,0 400,400 0,400 0,0 "/>
<g id="content">
	<path fill="#FFFFFF" d="M202.104,135.081c11.029,0,19.982-8.951,19.982-19.982c0-11.029-8.953-19.978-19.982-19.978
		c-11.03,0-19.978,8.949-19.978,19.978C182.125,126.13,191.074,135.081,202.104,135.081z"/>
	<path fill="#FFFFFF" d="M320,205.073c0-0.001,0-0.002,0-0.003l-0.001,0c-0.004-2.827-2.276-5.069-5.102-5.069h-56.409
		c-2.825,0-5.095,2.24-5.101,5.066h-0.001l0.001,0.001c0,0.001,0,0.002,0,0.003l-0.001,0c0,0.001,0,0.002,0,0.003
		c0,0.001,0,0.002,0,0.003c0,0.003,0,0.006,0.001,0.009c0,0.003-0.001,0.006-0.001,0.009c0,0.001,0,0.002,0,0.003
		c0,0.001,0,0.002,0,0.003l0.001,0c0,0.001,0,0.002,0,0.003l-0.001,0.001h0.001c0,0.205,0.037,0.399,0.061,0.597
		c-0.025,0.207-0.062,0.41-0.062,0.623v32.698l10.212,10.212v-39.065h51.299c2.825,0,5.095-2.24,5.101-5.066H320l-0.001-0.001
		c0-0.001,0-0.002,0-0.003l0,0h-0.002c0-0.009,0.003-0.017,0.003-0.026C320,205.076,320,205.074,320,205.073z"/>
	<path fill="#FFFFFF" d="M177.629,265.612l74.06,0l-10.172-10.172h-68.785c-1.428,0-2.712,0.575-3.636,1.506
		c-1.025,0.932-1.679,2.265-1.679,3.769v49.132l-0.037-0.018H85.102c-2.829,0-5.102,2.246-5.102,5.077
		c0,2.823,2.274,5.095,5.102,5.095l87.409,0c2.83,0,5.117-2.237,5.117-5.066l-0.004-0.002c0-0.012,0.004-0.023,0.004-0.035V265.612z
		"/>
	<path fill="#FFFFFF" d="M222.624,165.042c0-12.158-9.85-22.012-22.001-22.012c-0.138,0-0.268,0.018-0.404,0.022l0.005-0.022
		c-0.724,0.016-1.441,0.078-2.152,0.164c-5.061,0.614-9.729,2.958-13.221,6.619c-0.427,0.448-0.833,0.919-1.222,1.405
		c-0.438,0.546-0.855,1.112-1.243,1.703c-0.04,0.061-0.084,0.118-0.123,0.18l-5.796,9.005l46.156,46.156V165.042z"/>
	<path fill="#FFFFFF" d="M148.172,206.07c-0.907,1.405-1.376,3.083-1.338,4.776c0.047,2.082,0.844,3.968,2.123,5.415
		c1.597,1.806,3.946,2.925,6.547,2.866c2.817-0.064,5.418-1.531,6.935-3.891l15.182-23.631v33.776l0.045,0.025h-28.271
		c-0.534,0-1.062,0.03-1.589,0.071l0.021-0.097c-0.724,0.016-1.441,0.078-2.152,0.164c-5.061,0.614-9.729,2.958-13.221,6.619
		c-0.427,0.448-0.833,0.919-1.222,1.405c-0.438,0.546-0.854,1.112-1.243,1.703c-0.04,0.061-0.084,0.118-0.123,0.18l-35.388,55.008
		c-0.907,1.405-1.376,3.083-1.338,4.776c0.047,2.082,0.844,3.968,2.123,5.415c1.597,1.806,3.946,2.925,6.547,2.866
		c2.817-0.064,5.418-1.531,6.935-3.891l34.783-54.179l0.013-0.059l69.086,0h0.02c5.136,0,9.376-3.91,9.917-8.903l-57.171-57.171
		L148.172,206.07z"/>
	
		<rect x="187.987" y="34.265" transform="matrix(0.7071 -0.7071 0.7071 0.7071 -81.8543 197.9209)" fill="#EB0000" width="20" height="327.006"/>
	<path id="frameWhite" fill="#FFFFFF" d="M340,40c11,0,20,9,20,20v280c0,11-9,20-20,20H60c-11,0-20-9-20-20V60c0-11,9-20,20-20H340
		 M340,35H60c-13.785,0-25,11.215-25,25v280c0,13.785,11.215,25,25,25h280c13.785,0,25-11.215,25-25V60
		C365,46.215,353.785,35,340,35L340,35z"/>
</g>
</svg>
