<?xml version="1.0" encoding="utf-8"?>
<!-- Generator: Adobe Illustrator 25.3.1, SVG Export Plug-In . SVG Version: 6.00 Build 0)  -->
<svg version="1.0" xmlns="http://www.w3.org/2000/svg" xmlns:xlink="http://www.w3.org/1999/xlink" x="0px" y="0px"
	 viewBox="0 0 400 400" enable-background="new 0 0 400 400" xml:space="preserve">
<rect id="background-blue_1_" fill="#2D327D" width="400" height="400"/>
<g id="content">
	<path id="frameWhite_2_" fill="#FFFFFF" d="M60,40h280c11,0,20,9,20,20v280c0,11-9,20-20,20H60c-11,0-20-9-20-20V60
		C40,49,49,40,60,40 M60,35c-13.785,0-25,11.215-25,25v280c0,13.785,11.215,25,25,25h280c13.785,0,25-11.215,25-25V60
		c0-13.785-11.215-25-25-25H60L60,35z"/>
	<path fill="#FFFFFF" d="M200,95c11.046,0,20,8.954,20,20s-8.954,20-20,20s-20-8.954-20-20S188.954,95,200,95z"/>
	<path fill="#FFFFFF" d="M180,193.923V235c0,5.523,4.477,10,10,10h41.076L180,193.923z"/>
	<path fill="#FFFFFF" d="M239.361,225l55.06,55.06L268.405,235c-3.573-6.188-10.175-10-17.32-10H239.361z"/>
	<path fill="#FFFFFF" d="M225,210.639v-20.821l15.119,26.187c2.071,3.587,6.658,4.816,10.245,2.745l0,0
		c3.587-2.071,4.816-6.658,2.745-10.245l-31.704-54.91c-3.964-6.865-11.289-11.094-19.216-11.094h0
		c-12.255,0-22.189,9.934-22.189,22.189v0.95L225,210.639z"/>
	<path fill="#FFFFFF" d="M316.674,310.309L306.987,320H315c2.761,0,5-2.239,5-5C320,312.829,318.608,311,316.674,310.309z"/>
	<path fill="#FFFFFF" d="M296.076,310H235v-50c0-2.761-2.239-5-5-5h-80v-50c0-2.761-2.239-5-5-5H85c-2.761,0-5,2.239-5,5
		s2.239,5,5,5h55v50c0,2.761,2.239,5,5,5h80v50c0,2.761,2.239,5,5,5h76.076L296.076,310z"/>
	
		<rect x="187.987" y="34.265" transform="matrix(0.7071 -0.7071 0.7071 0.7071 -81.8543 197.9209)" fill="#EB0000" width="20" height="327.006"/>
</g>
</svg>
