<?xml version="1.0" encoding="utf-8"?>
<!-- Generator: Adobe Illustrator 24.2.0, SVG Export Plug-In . SVG Version: 6.00 Build 0)  -->
<svg version="1.0" id="_x3C_Ebene_x3E_" xmlns="http://www.w3.org/2000/svg" xmlns:xlink="http://www.w3.org/1999/xlink" x="0px"
	 y="0px" viewBox="0 0 400 400" enable-background="new 0 0 400 400" xml:space="preserve">
<rect id="background-blue" fill="#2D327D" width="400" height="400"/>
<g id="content">
	<g>
		<path fill="#FFFFFF" d="M234,165.562v-31.279c-7.405,1.353-13.032,7.828-13.032,15.639
			C220.968,157.725,226.595,164.207,234,165.562z"/>
	</g>
	<path fill="#FFFFFF" d="M138.537,258.866c-2.66,2.677-6.218,4.151-10.019,4.151H83.155c-1.086,0-2.139-0.134-3.155-0.367V320h80
		v-82.596L138.537,258.866z"/>
	<polygon fill="#FFFFFF" points="88.768,80 80,80 80,88.768 	"/>
	<path fill="#FFFFFF" d="M109.146,95H130c2.761,0,5,2.239,5,5v20.854l25,25V80H94.146L109.146,95z"/>
	<path fill="#FFFFFF" d="M139.136,189.57c0-3.148,1.227-6.097,3.435-8.283L154.862,169L135,149.139V215c0,2.761-2.239,5-5,5h-30
		c-2.761,0-5-2.239-5-5V109.139l-15-15v140.923c1.016-0.233,2.069-0.367,3.155-0.367h38.334l34.678-34.683
		c-1.628,0.827-3.439,1.265-5.315,1.265C144.392,201.276,139.136,196.025,139.136,189.57z"/>
	<g>
		<path fill="#FFFFFF" d="M185.028,170.883h8.748l-4.374,4.374l9.737,9.737l10.469,10.469l4.159-4.161v8.32l15.372,15.372l4.86,4.86
			v-11.816h-8.387v-28.573c0-11.259-9.136-20.41-20.422-20.41h-28.524c-1.006,0-1.992,0.195-2.915,0.55L185.028,170.883z"/>
	</g>
	<g>
		<path fill="#FFFFFF" d="M186.926,218.159l8.545-8.55l-14.121-14.121l-6.088-6.088l-51.287,51.294h-40.82
			c-4.509,0-8.155,3.648-8.155,8.172c0,4.497,3.646,8.152,8.155,8.152h45.363c2.161,0,4.232-0.839,5.763-2.38l32.427-32.426
			l30.737,30.72v44.897c0,4.507,3.661,8.171,8.168,8.171c4.507,0,8.155-3.664,8.155-8.171v-49.421c0-2.18-0.843-4.24-2.384-5.791
			L186.926,218.159z"/>
	</g>
	<g>
		<path fill="#FFFFFF" d="M150.853,195.276c1.521,0,2.966-0.595,4.049-1.667l12.279-12.29l-8.077-8.077l-12.291,12.287
			c-1.073,1.063-1.677,2.51-1.677,4.04C145.136,192.712,147.699,195.276,150.853,195.276z"/>
	</g>
	<polygon fill="#FFFFFF" points="240,254.139 240,320 305.861,320 	"/>
	<polygon fill="#FFFFFF" points="311.216,320 320,320 320,311.216 	"/>
	<path fill="#FFFFFF" d="M320,305.854V80h-80v145.854L320,305.854z M265,100c0-2.761,2.239-5,5-5h30c2.761,0,5,2.239,5,5v115
		c0,2.761-2.239,5-5,5h-30c-2.761,0-5-2.239-5-5V100z"/>
	<path id="frameWhite" fill="#FFFFFF" d="M340,40c11,0,20,9,20,20v280c0,11-9,20-20,20H60c-11,0-20-9-20-20V60c0-11,9-20,20-20H340
		 M340,35H60c-13.785,0-25,11.215-25,25v280c0,13.785,11.215,25,25,25h280c13.785,0,25-11.215,25-25V60
		C365,46.215,353.785,35,340,35L340,35z"/>
	<polygon fill="#EB0000" points="229.14,214.994 199.14,184.995 199.14,184.995 91.457,77.312 77.315,91.454 181.35,195.488 
		200.855,214.994 200.855,214.994 308.539,322.677 322.681,308.535 229.14,214.994 229.14,214.994 	"/>
</g>
</svg>
