<?xml version="1.0" encoding="utf-8"?>
<!-- Generator: Adobe Illustrator 24.2.0, SVG Export Plug-In . SVG Version: 6.00 Build 0)  -->
<svg version="1.0" xmlns="http://www.w3.org/2000/svg" xmlns:xlink="http://www.w3.org/1999/xlink" x="0px" y="0px"
	 viewBox="0 0 400 400" enable-background="new 0 0 400 400" xml:space="preserve">
<rect id="background-blue" fill="#2D327D" width="400" height="400"/>
<g id="content">
	<path fill="#FFFFFF" d="M257.409,181.267c2.229,2.207,3.456,5.155,3.456,8.303c0,6.455-5.256,11.706-11.717,11.706
		c-1.876,0-3.686-0.438-5.32-1.27l34.684,34.688h38.334c1.086,0,2.139,0.135,3.155,0.367V80h-80v83.863L257.409,181.267z M265,100
		c0-2.761,2.239-5,5-5h30c2.761,0,5,2.239,5,5v115c0,2.761-2.239,5-5,5h-30c-2.761,0-5-2.239-5-5V100z"/>
	<polygon fill="#FFFFFF" points="311.216,320 320,320 320,311.216 	"/>
	<path fill="#FFFFFF" d="M320,305.854V262.65c-1.016,0.233-2.069,0.367-3.155,0.367h-39.682L320,305.854z"/>
	<polygon fill="#FFFFFF" points="240,254.139 240,320 305.861,320 	"/>
	<path fill="#FFFFFF" d="M199.14,184.995l30,30l42.007,42.007c0.112,0.005,0.223,0.016,0.336,0.016h45.363
		c4.509,0,8.155-3.654,8.155-8.152c0-4.524-3.646-8.172-8.155-8.172h-40.82l-69.802-69.811h16.168l22.706,22.727
		c1.083,1.072,2.529,1.667,4.049,1.667c3.154,0,5.717-2.564,5.717-5.706c0-1.53-0.604-2.977-1.677-4.04l-24.082-24.075
		c-1.521-1.53-3.608-2.4-5.771-2.4h-28.524c-5.944,0-11.275,2.554-15.006,6.602L199.14,184.995z"/>
	<path fill="#FFFFFF" d="M208.548,222.686l-19.931,19.931c-1.541,1.551-2.384,3.612-2.384,5.791v49.421
		c0,4.507,3.648,8.171,8.155,8.171c4.507,0,8.168-3.664,8.168-8.171v-44.897l18.124-18.114L208.548,222.686z"/>
	<path fill="#FFFFFF" d="M186.233,200.371l-4.883-4.883l-6.963-6.963v19.512H166v12.248h14.106c3.381,0,6.127-2.739,6.127-6.128
		V200.371z"/>
	<path fill="#FFFFFF" d="M174.82,160.675c2.608-2.831,4.212-6.6,4.212-10.753c0-7.811-5.627-14.286-13.032-15.639v17.572
		L174.82,160.675z"/>
	<path fill="#FFFFFF" d="M109.146,95H130c2.761,0,5,2.239,5,5v20.854l25,25V80H94.146L109.146,95z"/>
	<path fill="#FFFFFF" d="M135,149.139V215c0,2.761-2.239,5-5,5h-30c-2.761,0-5-2.239-5-5V109.139l-15-15V320h80V174.139L135,149.139
		z"/>
	<polygon fill="#FFFFFF" points="88.768,80 80,80 80,88.768 	"/>
	<polygon fill="#EB0000" points="229.14,214.994 199.14,184.995 199.14,184.995 91.457,77.312 77.315,91.454 181.35,195.488 
		200.855,214.994 200.855,214.994 308.539,322.677 322.681,308.535 229.14,214.994 229.14,214.994 	"/>
	<path id="frameWhite" fill="#FFFFFF" d="M340,40c11,0,20,9,20,20v280c0,11-9,20-20,20H60c-11,0-20-9-20-20V60c0-11,9-20,20-20H340
		 M340,35H60c-13.785,0-25,11.215-25,25v280c0,13.785,11.215,25,25,25h280c13.785,0,25-11.215,25-25V60
		C365,46.215,353.785,35,340,35L340,35z"/>
</g>
</svg>
