<?xml version="1.0" encoding="utf-8"?>
<!-- Generator: Adobe Illustrator 28.0.0, SVG Export Plug-In . SVG Version: 6.00 Build 0)  -->
<svg version="1.0" xmlns="http://www.w3.org/2000/svg" xmlns:xlink="http://www.w3.org/1999/xlink" x="0px" y="0px"
	 viewBox="0 0 400 400" enable-background="new 0 0 400 400" xml:space="preserve">
<rect id="background-blue_00000012432962128958339780000018027828933874327169_" fill="#2D327D" width="400" height="400"/>
<g id="content">
	<path id="frameWhite_00000105402580040104239120000000418485625051934600_" fill="#FFFFFF" d="M340,40c11,0,20,9,20,20v280
		c0,11-9,20-20,20H60c-11,0-20-9-20-20V60c0-11,9-20,20-20H340 M340,35H60c-13.785,0-25,11.215-25,25v280c0,13.785,11.215,25,25,25
		h280c13.785,0,25-11.215,25-25V60C365,46.215,353.785,35,340,35L340,35z"/>
	<circle fill="#FFFFFF" cx="200" cy="200" r="40"/>
	<path fill="#FFFFFF" d="M304,130h-47l-4.624-6.584c0,0,0,0,0,0l-9.435-13.432c-0.868-1.236-2.373-1.984-3.989-1.984H200h-38.951
		c-1.617,0-3.121,0.748-3.989,1.984l-9.435,13.432c0,0,0,0,0,0L143,130H96c-8.837,0-16,7.163-16,16v108c0,8.837,7.163,16,16,16h208
		c8.837,0,16-7.163,16-16V146C320,137.163,312.837,130,304,130z M113,162c-5.523,0-10-4.477-10-10c0-5.523,4.477-10,10-10
		s10,4.477,10,10C123,157.523,118.523,162,113,162z M200,254c-29.823,0-54-24.177-54-54s24.177-54,54-54s54,24.177,54,54
		S229.823,254,200,254z"/>
	<path fill="#FFFFFF" d="M305,118c0-1.1-0.45-2.1-1.17-2.83c-0.73-0.72-1.73-1.17-2.83-1.17h-26c-2.21,0-4,1.79-4,4v4h34V118z"/>
	<polygon fill="#EB0000" points="89.444,75.084 75.302,89.225 306.532,320.455 320.672,306.31 89.444,75.084 	"/>
</g>
</svg>
