<?xml version="1.0" encoding="utf-8"?>
<!-- Generator: Adobe Illustrator 28.0.0, SVG Export Plug-In . SVG Version: 6.00 Build 0)  -->
<svg version="1.0" xmlns="http://www.w3.org/2000/svg" xmlns:xlink="http://www.w3.org/1999/xlink" x="0px" y="0px"
	 viewBox="0 0 400 400" enable-background="new 0 0 400 400" xml:space="preserve">
<rect id="background-blue_00000140013920227166899400000005186689394299108771_" fill="#2D327D" width="400" height="400"/>
<g id="content">
	<path id="frameWhite_00000106110835360643825320000014674488498432012719_" fill="#FFFFFF" d="M340,40c11,0,20,9,20,20v280
		c0,11-9,20-20,20H60c-11,0-20-9-20-20V60c0-11,9-20,20-20H340 M340,35H60c-13.785,0-25,11.215-25,25v280c0,13.785,11.215,25,25,25
		h280c13.785,0,25-11.215,25-25V60C365,46.215,353.785,35,340,35L340,35z"/>
	<rect x="80" y="316" fill="#FFFFFF" width="240" height="4"/>
	<path fill="#FFFFFF" d="M215,273h27.999c0.242,0,0.479-0.019,0.714-0.047L275.067,273c2.85,0,5.47-0.95,7.57-2.55
		c2.1-1.6,3.68-3.85,4.44-6.45L320,137h-20.004l-20.505,64.982l-48.492-0.5l-1.5,0.018c-4.694,0-8.5,3.806-8.5,8.5
		c0,4.694,3.805,8.5,8.5,8.5h1.5l43.096,0.5l-8.568,27h-22.529h-8H215c-3.3,0-6,2.7-6,6v15C209,270.3,211.7,273,215,273z
		 M212.995,252c0-1.084,0.916-2,2-2h20h8h22.53h2.927l0.885-2.79l8.568-27l1.633-5.147l-5.4-0.063l-43.145-0.5h-1.5
		c-2.481,0-4.5-2.019-4.5-4.5s2.019-4.5,4.548-4.5l1.455-0.017l48.45,0.5l2.964,0.031l0.892-2.827L302.928,141h11.903
		L283.22,262.931c-0.512,1.709-1.579,3.248-3.009,4.338c-1.487,1.133-3.267,1.732-5.14,1.732l-31.356-0.047l-0.243,0l-0.241,0.029
		c-0.126,0.015-0.198,0.018-0.237,0.018h-28c-1.084,0-2-0.916-2-2V252z"/>
	<path fill="#FFFFFF" d="M300.101,131H320V86.608c0-3.644-2.964-6.608-6.608-6.608h-19.784c-3.644,0-6.609,2.964-6.609,6.608v26.718
		c-0.006,2.158,0.151,3.64,2.383,5.982L300.101,131z M290.996,86.608c0-1.438,1.17-2.608,2.608-2.608h19.783
		c1.438,0,2.607,1.17,2.607,2.608V127h-14.139l-9.542-10.41l-0.028-0.03c-1.296-1.357-1.295-1.715-1.29-3.224V86.608z"/>
	<path fill="#FFFFFF" d="M123.107,199.157c-0.018-0.018-0.033-0.039-0.051-0.057l-31.403-31.465
		c-3.183-3.19-7.41-4.725-11.653-4.632v57.842l5.677,5.688l-0.014,0.014l39.005,38.999l32.444-32.391L123.107,199.157z"/>
	<path fill="#FFFFFF" d="M200,229.22l-1.979-1.976c-2.259-2.25-5.683-2.847-8.57-1.499l-33.544,15.653l-25.728,25.733l2.333,4.99
		c0.681,1.457,1.612,2.784,2.751,3.919l8.979,8.962l18.765-18.774l-4.939-4.927l18.489-8.628L200,229.22z"/>
	<polygon fill="#EB0000" points="89.444,75.084 75.302,89.225 306.532,320.455 320.672,306.31 89.444,75.084 	"/>
</g>
</svg>
