<svg xmlns="http://www.w3.org/2000/svg" width="24" height="24" viewBox="0 0 24 24">
  <g fill="none" fill-rule="evenodd">
    <path fill="#2D327D" d="M22.5,0 L1.5,0 C0.675000003,0 0,0.675000003 0,1.5 L0,22.5 C0,23.3250009 0.675000003,24 1.5,24 L22.5,24 C23.3250009,24 24,23.3250009 24,22.5 L24,1.5 C24,0.675000003 23.3250009,0 22.5,0 Z"/>
    <g fill="#FFF" transform="translate(3 3)">
      <path d="M14.7299996 2.63249971C15.4575005 2.63249971 16.0424996 2.04749971 16.0424996 1.31999971 16.0424996.592499702 15.4575005.0074999 14.7299996.0074999 14.0024987.0074999 13.4174996.592500202 13.4174996 1.31999971 13.4249993 2.04750011 14.0099984 2.63249971 14.7299996 2.63249971L14.7299996 2.63249971zM16.0499993 13.2075006L16.0499993 5.58749962 16.8750001 6.67500023 16.8750001 9.37500004C16.8750001 9.64500054 17.0924989 9.86250024 17.3624993 9.86250024 17.6324997 9.86250024 17.8500004 9.64500054 17.8500004 9.37500004L17.8500004 6.29249953C17.8500004 6.12749953 17.7974987 5.96999932 17.7000008 5.84249972L16.1250001 3.76499992 16.1250001 3.76499992C15.8400003 3.38999991 15.3974992 3.17249971 14.9325009 3.17249971 14.1075001 3.17249971 13.4325009 3.84749892 13.4325009 4.67249971L13.4325009 9.94499974 11.8874998 11.4899998 11.8874998 11.4899998C11.7450008 11.6324997 11.6700001 11.8199997 11.6700001 12.0225002L11.6700001 16.2675001C11.6700001 16.6499998 11.9775009 16.9575006 12.3600007 16.9575006 12.7425004 16.9575006 13.0575009 16.6499998 13.0575009 16.2675001L13.0575009 12.5024998 14.5575009 11.0024997 14.5575009 13.2374995C14.5575009 13.3799994 14.602501 13.5224993 14.6775017 13.6425002L17.0625001 17.3250009 17.0625001 17.3250009C17.1900006 17.5200006 17.4075013 17.6400014 17.6474992 17.6400014 18.0299989 17.6400014 18.3374997 17.3325006 18.3374997 16.9500009 18.3374997 16.8150007 18.2999993 16.6875001 18.2250005 16.5750009L16.0499993 13.2075006 16.0499993 13.2075006z"/>
      <path d="M11.7150002,8.60250004 C11.7749997,8.60250004 11.8350001,8.59499944 11.8874999,8.57250034 L12.7875005,8.25000003 L12.7875005,7.17000013 L11.5500002,7.62000093 C11.3474999,7.69500073 11.2124996,7.88250073 11.2124996,8.09250073 C11.2124996,8.37749963 11.4375,8.60250004 11.7150002,8.60250004 L11.7150002,8.60250004 Z"/>
      <polygon points="3.412 15.225 6.825 15.225 6.825 16.612 10.238 16.612 10.238 18 14.325 18 14.325 17.325 10.913 17.325 10.913 15.938 7.5 15.938 7.5 14.55 4.088 14.55 4.088 13.163 0 13.163 0 13.837 3.412 13.837"/>
    </g>
  </g>
</svg>
