<svg xmlns="http://www.w3.org/2000/svg" width="24" height="24" viewBox="0 0 24 24">
  <g fill="none" fill-rule="evenodd">
    <path fill="#2D327D" d="M22.5,0 L1.5,0 C0.675000003,0 0,0.675000003 0,1.5 L0,22.5 C0,23.3250009 0.675000003,24 1.5,24 L22.5,24 C23.3250009,24 24,23.3250009 24,22.5 L24,1.5 C24,0.675000003 23.3250009,0 22.5,0 Z"/>
    <g fill="#FFF" transform="translate(2 3)">
      <path d="M4.26249982 2.63249971C3.53500031 2.63249971 2.94999981 2.04749971 2.94999981 1.31999971 2.94999981.592499702 3.53500031.0074999 4.26249982.0074999 4.98999932.0074999 5.57499982.599999902 5.57499982 1.31999971 5.57499982 2.04750011 4.98999982 2.63249971 4.26249982 2.63249971L4.26249982 2.63249971zM2.94999981 13.2075006L2.94999981 5.58749962 2.12500001 6.67500023 2.12500001 9.37500004C2.12500001 9.64500054 1.90749981 9.86250024 1.63750001 9.86250024 1.36750021 9.86250024 1.15 9.64500054 1.15 9.37500004L1.15 6.29249953C1.15 6.12749953 1.20249981 5.96999932 1.29999991 5.84249972L2.87499991 3.76499982 2.87499991 3.76499982C3.16000021 3.38999981 3.60249992 3.17249961 4.06750002 3.17249961 4.89249932 3.17249961 5.56749952 3.84749882 5.56749952 4.67249961L5.56749952 9.94499964 7.11250013 11.4899997 7.11250013 11.4899997C7.25499913 11.6324996 7.32999983 11.8199996 7.32999983 12.0225001L7.32999983 16.2675C7.32999983 16.6499997 7.02249903 16.9575005 6.63999933 16.9575005 6.25750063 16.9575005 5.94999972 16.6499997 5.94999972 16.2675L5.94999972 12.5024997 4.44999972 11.0024996 4.44999972 13.2374994C4.44999972 13.3799993 4.40500012 13.5224992 4.32999982 13.6425001L1.94500031 17.3250009 1.94500031 17.3250009C1.81750051 17.5200006 1.60000051 17.6400014 1.36000001 17.6400014.977500304 17.6400014.670000403 17.3325006.670000403 16.9500009.670000403 16.8150007.707500303 16.6875001.782500403 16.5750009L2.94999981 13.2075006 2.94999981 13.2075006z"/>
      <path d="M7.27750023,8.60250004 C7.21749983,8.60250004 7.15749943,8.59499944 7.10499963,8.57250034 L6.20499993,8.25000003 L6.20499993,7.17000013 L7.44249913,7.62000093 C7.64499943,7.69500073 7.77999973,7.88250073 7.77999973,8.09250073 C7.78750043,8.37749963 7.56250003,8.60250004 7.27750023,8.60250004 L7.27750023,8.60250004 Z"/>
      <polygon points="15.587 15.225 12.175 15.225 12.175 16.612 8.762 16.612 8.762 18 4.675 18 4.675 17.325 8.087 17.325 8.087 15.938 11.5 15.938 11.5 14.55 14.913 14.55 14.913 13.163 19 13.163 19 13.837 15.587 13.837"/>
    </g>
  </g>
</svg>
