<svg xmlns="http://www.w3.org/2000/svg" width="24" height="24" viewBox="0 0 24 24">
  <g fill="none" fill-rule="evenodd">
    <path fill="#2D327D" d="M22.5,0 L1.5,0 C0.675000003,0 0,0.675000003 0,1.5 L0,22.5 C0,23.3250009 0.675000003,24 1.5,24 L22.5,24 C23.3250009,24 24,23.3250009 24,22.5 L24,1.5 C24,0.675000003 23.3250009,0 22.5,0 Z"/>
    <g fill="#FFF" transform="translate(2 3)">
      <polygon points="14.913 14.55 11.5 14.55 11.5 15.938 8.087 15.938 8.087 17.325 4.675 17.325 4.675 18 8.762 18 8.762 16.612 12.175 16.612 12.175 15.225 15.587 15.225 15.587 13.837 19 13.837 19 13.163 14.913 13.163"/>
      <path d="M1.52500011,8.56499964 C1.59250021,8.56499964 1.66000031,8.55000024 1.71999981,8.52750024 L2.26749991,8.29499923 L2.26749991,7.19999893 L1.32250021,7.58999833 C1.1350002,7.67249883 1.0150003,7.85249913 1.0150003,8.05499853 C1.0225003,8.33250053 1.24750021,8.56499964 1.52500011,8.56499964 L1.52500011,8.56499964 Z"/>
      <path d="M1.68999981 18.0000001C2.07249971 18.0000001 2.38749981 17.6924993 2.38749981 17.3025018L2.38749981 14.0249997 4.00000002 11.25 4.00000002 13.5974999C4.00000002 13.7324982 4.03749992 13.8675004 4.11250022 13.9874993L5.70249992 16.6049996 5.70249992 16.6049996C5.82999952 16.8149987 6.05499943 16.9349995 6.29499923 16.9349995 6.67749983 16.9349995 6.99249943 16.6274987 6.99249943 16.2374993 6.99249943 16.1099988 6.95500003 15.9825001 6.89499963 15.8775006L5.50000002 13.6049996 5.50000002 5.39249992 6.25000003 6.47999953 6.25000003 9.22500034C6.25000003 9.51749994 6.48250013 9.75000004 6.77499963 9.75000004 7.06749913 9.75000004 7.30000023 9.51749994 7.30000023 9.22500044L7.30000023 6.31499963C7.30000023 6.16500003 7.25499923 6.01499943 7.16500003 5.88749982L5.60499952 3.62999962C5.32749982 3.22499941 4.86250012 2.98499961 4.36749932 2.98499961 3.54249951 2.98499961 2.86749931 3.65999882 2.86749931 4.48499961L2.86749931 10.1999997 1.0899996 13.2525005 1.0899996 13.2525005C1.0224995 13.3650016.984999604 13.5.984999604 13.6275005L.984999604 17.3025016C1 17.6924993 1.30749991 18.0000001 1.68999981 18.0000001L1.68999981 18.0000001zM4.18000032 2.63249971C4.90750032 2.63249971 5.49249932 2.04749971 5.49249932 1.31999971 5.49249932.592499702 4.90749932.0074999 4.17999932.0074999 3.45249931.0074999 2.86749931.592500202 2.86749931 1.31999971 2.86749931 2.04750011 3.45249991 2.63249971 4.18000032 2.63249971L4.18000032 2.63249971z"/>
    </g>
  </g>
</svg>
