<svg xmlns="http://www.w3.org/2000/svg" width="24" height="24" viewBox="0 0 24 24">
  <g fill="none" fill-rule="evenodd">
    <path fill="#2D327D" d="M22.5,0 L1.5,0 C0.675000003,0 0,0.675000003 0,1.5 L0,22.5 C0,23.3250009 0.675000003,24 1.5,24 L22.5,24 C23.3250009,24 24,23.3250009 24,22.5 L24,1.5 C24,0.675000003 23.3250009,0 22.5,0 Z"/>
    <g fill="#FFF" transform="translate(3 3)">
      <polygon points="4.088 14.55 7.5 14.55 7.5 15.938 10.913 15.938 10.913 17.325 14.325 17.325 14.325 18 10.238 18 10.238 16.612 6.825 16.612 6.825 15.225 3.412 15.225 3.412 13.837 0 13.837 0 13.163 4.088 13.163"/>
      <path d="M17.4750005,8.56499964 C17.4075013,8.56499964 17.3400003,8.55000024 17.2799989,8.52750024 L16.7325002,8.29499923 L16.7325002,7.19999893 L17.6700002,7.58999833 C17.8575002,7.67249883 17.977501,7.85249913 17.977501,8.05499853 C17.977501,8.33250053 17.7525006,8.56499964 17.4750005,8.56499964 L17.4750005,8.56499964 Z"/>
      <path d="M17.3099996 18.0000001C16.927498 18.0000001 16.6124994 17.6924993 16.6124994 17.3025018L16.6124994 14.0249997 15.0000001 11.25 15.0000001 13.5974999C15.0000001 13.7324982 14.9624997 13.8675004 14.8875009 13.9874993L13.2974988 16.6049996 13.2974988 16.6049996C13.1700002 16.8149987 12.9449998 16.9349995 12.705 16.9349995 12.3224994 16.9349995 12.0074998 16.6274987 12.0074998 16.2374993 12.0074998 16.1099988 12.0449992 15.9825001 12.1049996 15.8775006L13.4925004 13.5975018 13.4925004 5.39249992 12.7424994 6.47999953 12.7424994 9.22500034C12.7424994 9.51749984 12.5099993 9.74999994 12.2174998 9.74999994 11.9250002 9.74999994 11.6924991 9.51749984 11.6924991 9.22500034L11.6924991 6.31499963C11.6924991 6.16500003 11.7375001 6.01499943 11.8274993 5.88749982L13.3875008 3.62999962C13.665001 3.22499941 14.1299992 2.98499961 14.625 2.98499961 15.4500008 2.98499961 16.125 3.65999882 16.125 4.48499961L16.125 10.1999997 17.9025002 13.2525005 17.9025002 13.2525005C17.9700013 13.3650016 18.0074997 13.5 18.0074997 13.6275005L18.0074997 17.3025016C18.0000001 17.6924993 17.6924991 18.0000001 17.3099996 18.0000001L17.3099996 18.0000001zM14.8275014 2.63249971C14.1000005 2.63249971 13.5150014 2.04749971 13.5150014 1.31999971 13.5150014.592499702 14.1000005.0074999 14.8275014.0074999 15.5550023.0074999 16.1400014.592500202 16.1400014 1.31999971 16.1400014 2.04750011 15.5474988 2.63249971 14.8275014 2.63249971L14.8275014 2.63249971z"/>
    </g>
  </g>
</svg>
