<svg xmlns="http://www.w3.org/2000/svg" width="24" height="24" viewBox="0 0 24 24">
  <g fill="none" fill-rule="evenodd">
    <path fill="#2D327D" d="M22.5,0 L1.5,0 C0.675000003,0 0,0.675000003 0,1.5 L0,22.5 C0,23.3250009 0.675000003,24 1.5,24 L22.5,24 C23.3250009,24 24,23.3250009 24,22.5 L24,1.5 C24,0.675000003 23.3250009,0 22.5,0 Z"/>
    <g fill="#FFF" transform="translate(3 3)">
      <path d="M14.7525006,2.62500001 C15.4800015,2.62500001 16.0650006,2.04000001 16.0650006,1.31250001 C16.0650006,0.585000002 15.4800015,0 14.7525006,0 C14.0249997,0 13.4400006,0.585000302 13.4400006,1.31250001 C13.4400006,2.03999971 14.0249997,2.62500001 14.7525006,2.62500001 L14.7525006,2.62500001 Z"/>
      <polygon points="0 18 14.325 18 14.325 17.34 0 15"/>
      <path d="M16.0499993,13.2075006 L16.0499993,5.51249982 L16.8750001,6.56250003 L16.8750001,9.37500004 C16.8750001,9.64500054 17.0924989,9.86250024 17.3624993,9.86250024 C17.6324997,9.86250024 17.8500004,9.64500054 17.8500004,9.37500004 L17.8500004,6.17999943 C17.8500004,6.01499943 17.7974987,5.85000042 17.6924992,5.71500022 L16.1099987,3.69750032 C15.8250008,3.33750021 15.3899994,3.12750061 14.9324989,3.12750061 C14.1074981,3.12750061 13.4324989,3.80250082 13.4324989,4.62750061 L13.4324989,9.67500034 L11.8874978,11.2200004 C11.7449979,11.3625003 11.6699981,11.5500003 11.6699981,11.7525007 L11.6699981,15.660002 C11.6699981,16.0425017 11.9774989,16.3500025 12.3599978,16.3500025 C12.7424984,16.3500025 13.0499974,16.0425017 13.0499974,15.660002 L13.0499974,12.2250006 L14.5499974,10.7250005 L14.5499974,13.2299998 C14.5499974,13.3799994 14.5949975,13.5224993 14.6774979,13.6425002 L17.0550003,17.3174994 C17.1825008,17.512501 17.3999996,17.6324999 17.6399994,17.6324999 C18.0224991,17.6324999 18.3299999,17.325001 18.3299999,16.9350016 C18.3299999,16.8000033 18.2924995,16.6725008 18.2174988,16.5600016 L16.0499993,13.2075006 L16.0499993,13.2075006 Z"/>
      <path d="M11.7224998,8.54249954 C11.7825002,8.54249954 11.8425006,8.53499894 11.8950004,8.51249984 L12.7950001,8.18999963 L12.7950001,7.11000063 L11.5575008,7.56000043 C11.3550005,7.63500023 11.2200002,7.82250023 11.2200002,8.03250023 C11.2124996,8.31749923 11.4375,8.54249954 11.7224998,8.54249954 L11.7224998,8.54249954 Z"/>
    </g>
  </g>
</svg>
