<svg xmlns="http://www.w3.org/2000/svg" width="24" height="24" viewBox="0 0 24 24">
  <g fill="none" fill-rule="evenodd">
    <path fill="#2D327D" d="M22.5,0 L1.5,0 C0.675000003,0 0,0.675000003 0,1.5 L0,22.5 C0,23.3250009 0.675000003,24 1.5,24 L22.5,24 C23.3250009,24 24,23.3250009 24,22.5 L24,1.5 C24,0.675000003 23.3250009,0 22.5,0 Z"/>
    <g fill="#FFF" transform="translate(2 3)">
      <path d="M4.24750042,2.62500001 C3.52000041,2.62500001 2.93500041,2.04000001 2.93500041,1.31250001 C2.93500041,0.585000002 3.52000051,0 4.24750042,0 C4.97500032,0 5.56000042,0.585000302 5.56000042,1.31250001 C5.56000042,2.03999971 4.96749972,2.62500001 4.24750042,2.62500001 L4.24750042,2.62500001 Z"/>
      <polygon points="19 18 4.675 18 4.675 17.34 19 15"/>
      <path d="M2.94999981,13.2075006 L2.94999981,5.51249982 L2.12500001,6.56250003 L2.12500001,9.37500004 C2.12500001,9.64500054 1.90749981,9.86250024 1.63750001,9.86250024 C1.36750021,9.86250024 1.15,9.64500054 1.15,9.37500004 L1.15,6.17999943 C1.15,6.01499943 1.20249981,5.85000042 1.30749981,5.71500022 L2.88999981,3.69750032 C3.17500011,3.33750021 3.60999962,3.12750061 4.06749962,3.12750061 C4.89249942,3.12750061 5.56749962,3.80250082 5.56749962,4.62750061 L5.56749962,9.67500034 L7.11250023,11.2200004 C7.25499923,11.3625003 7.32999993,11.5500003 7.32999993,11.7525007 L7.32999993,15.660002 C7.32999993,16.0425017 7.02249913,16.3500025 6.63999943,16.3500025 C6.25750073,16.3500025 5.94999982,16.0425017 5.94999982,15.660002 L5.94999982,12.2250006 L4.44999982,10.7250005 L4.44999982,13.2299998 C4.44999982,13.3799994 4.40500022,13.5224993 4.32250022,13.6425002 L1.94500041,17.3174994 C1.81750061,17.512501 1.60000061,17.6324999 1.36000011,17.6324999 C0.977500404,17.6324999 0.670000503,17.325001 0.670000503,16.9350016 C0.670000503,16.8000033 0.707500403,16.6725008 0.782500503,16.5600016 L2.94999981,13.2075006 L2.94999981,13.2075006 Z"/>
      <path d="M7.27750023,8.54249954 C7.21749983,8.54249954 7.15749943,8.53499894 7.10499963,8.51249984 L6.20500003,8.18999963 L6.20500003,7.11000063 L7.44249923,7.56000043 C7.64499953,7.63500023 7.77999983,7.82250023 7.77999983,8.03250023 C7.78750043,8.31749923 7.56250003,8.54249954 7.27750023,8.54249954 L7.27750023,8.54249954 Z"/>
    </g>
  </g>
</svg>
