<svg xmlns="http://www.w3.org/2000/svg" width="24" height="24" viewBox="0 0 24 24">
  <g fill="none" fill-rule="evenodd">
    <path fill="#2D327D" d="M22.5,0 L1.5,0 C0.675000003,0 0,0.675000003 0,1.5 L0,22.5 C0,23.3250009 0.675000003,24 1.5,24 L22.5,24 C23.3250009,24 24,23.3250009 24,22.5 L24,1.5 C24,0.675000003 23.3250009,0 22.5,0 Z"/>
    <g fill="#FFF" transform="translate(3 2)">
      <polygon points="0 19 14.25 19 14.25 18.4 0 16.075"/>
      <path d="M17.4825002,9.60250004 C17.7600023,9.60250004 17.9850007,9.37749964 17.9850007,9.09249984 C17.9850007,8.88999954 17.8650018,8.70249954 17.6775018,8.62749964 L16.7175027,8.22249993 L16.7175027,9.32499994 L17.2800027,9.56499974 C17.3474999,9.58749964 17.415001,9.60250004 17.4825002,9.60250004 L17.4825002,9.60250004 Z"/>
      <path d="M16.1250001 11.0500002L16.1250001 5.46250012C16.1250001 4.63749982 15.4500009 3.96250012 14.6250001 3.96250012 14.1375009 3.96250012 13.6800004 4.20249992 13.3950006 4.59999992L11.835 6.82000063C11.7450008 6.94750023 11.6999998 7.09749983 11.6999998 7.25500103L11.6999998 10.2475013C11.6999998 10.5250015 11.9250002 10.7575015 12.2100001 10.7575015 12.4875003 10.7575015 12.7200003 10.5325011 12.7200003 10.2475013L12.7200003 7.47250183 13.4325009 6.46000103 13.4325009 14.2000009 12.1125003 16.4575006C12.0450002 16.5699998 12.0149995 16.6900007 12.0149995 16.8174993 12.0149995 17.2075006 12.3374997 17.5299989 12.7275001 17.5299989 12.9824993 17.5299989 13.2150003 17.3950006 13.3424989 17.177498L14.8349992 14.6349985C14.9024984 14.5224993 14.9399987 14.3875009 14.9399987 14.2599985L14.9399987 11.972499 16.5899983 14.8149988 16.5899983 18.1000006C16.5899983 18.4900019 16.9124985 18.8125002 17.3024979 18.8125002 17.6924992 18.8125002 18.0149994 18.4900019 18.0149994 18.1000006L18.0149994 14.4775011C18.0149994 14.3425028 17.977499 14.2150003 17.9099999 14.1025011L16.1250001 11.0500002 16.1250001 11.0500002zM14.8349992 3.60250002C15.5625001 3.60250002 16.1474992 3.01749951 16.1474992 2.29000001 16.1474992 1.56250051 15.5625001.977499804 14.8349992.977499804 14.1074983.977499804 13.5224992 1.56250001 13.5224992 2.29000001 13.5299989 3.01749991 14.1150018 3.60250002 14.8349992 3.60250002L14.8349992 3.60250002z"/>
    </g>
  </g>
</svg>
