<svg xmlns="http://www.w3.org/2000/svg" width="24" height="24" viewBox="0 0 24 24">
  <g fill="none" fill-rule="evenodd">
    <path fill="#2D327D" d="M22.5,0 L1.5,0 C0.675000003,0 0,0.675000003 0,1.5 L0,22.5 C0,23.3250009 0.675000003,24 1.5,24 L22.5,24 C23.3250009,24 24,23.3250009 24,22.5 L24,1.5 C24,0.675000003 23.3250009,0 22.5,0 Z"/>
    <g fill="#FFF" transform="translate(3 2)">
      <polygon points="18 19 3.75 19 3.75 18.4 18 16.075"/>
      <path d="M0.517500202,9.60250004 C0.240000301,9.60250004 0.0150004,9.37749964 0.0150004,9.09249984 C0.0150004,8.88999954 0.1350003,8.70249954 0.322500301,8.62749964 L1.28250031,8.22249993 L1.28250031,9.32499994 L0.720000503,9.56499974 C0.652499703,9.58749964 0.585000302,9.60250004 0.517500202,9.60250004 L0.517500202,9.60250004 Z"/>
      <path d="M1.87500001 11.0500002L1.87500001 5.46250012C1.87500001 4.63749982 2.55000021 3.96250012 3.37500001 3.96250012 3.86250022 3.96250012 4.32000062 4.20249992 4.60499952 4.59999992L6.16500003 6.82000063C6.25499923 6.94750023 6.30000023 7.09749983 6.30000023 7.25500103L6.30000023 10.2475013C6.30000023 10.5250015 6.07499983 10.7575015 5.79000002 10.7575015 5.51249982 10.7575015 5.27999982 10.5325011 5.27999982 10.2475013L5.27999982 7.47250183 4.56749962 6.46000103 4.56749962 14.2000009 5.88749982 16.4575006C5.95499992 16.5699998 5.98500062 16.6900007 5.98500062 16.8174993 5.98500062 17.2075006 5.66250042 17.5299989 5.27250002 17.5299989 5.01750082 17.5299989 4.78500032 17.3950006 4.65750022 17.177498L3.16500041 14.6349985C3.09750031 14.5224993 3.06000041 14.3875009 3.06000041 14.2599985L3.06000041 11.972499 1.41000031 14.8149988 1.41000031 18.1000006C1.41000031 18.4900019 1.0875001 18.8125002.697500203 18.8125002.307500301 18.8125002 0 18.4900018 0 18.1000005L0 14.477501C0 14.3425027.0374999002 14.2150002.0975003004 14.102501L1.87500001 11.0500002 1.87500001 11.0500002zM3.16500001 3.60250002C2.43750001 3.60250002 1.85250001 3.01749951 1.85250001 2.29000001 1.85250001 1.56250051 2.43750001.977499804 3.16500001.977499804 3.89250002.977499804 4.47750002 1.56250001 4.47750002 2.29000001 4.47000032 3.01749991 3.88500022 3.60250002 3.16500001 3.60250002L3.16500001 3.60250002z"/>
    </g>
  </g>
</svg>
