<svg xmlns="http://www.w3.org/2000/svg" width="24" height="24" viewBox="0 0 24 24">
  <g fill="none" fill-rule="evenodd">
    <path fill="#2D327D" d="M22.5,0 L1.5,0 C0.675000003,0 0,0.675000003 0,1.5 L0,22.5 C0,23.3250009 0.675000003,24 1.5,24 L22.5,24 C23.3250009,24 24,23.3250009 24,22.5 L24,1.5 C24,0.675000003 23.3250009,0 22.5,0 Z"/>
    <g fill="#FFF" transform="translate(3 3)">
      <path d="M12.3750001 11.79L12.3750001 9.30000024C12.3750001 8.65499974 11.8575001 8.13749983 11.2124996 8.13749983 11.04 8.13749983 10.8674994 8.17500023 10.71 8.25000003L8.56499954 9.28499984 9.69750014 10.0275001 11.1525 9.32250024 11.3024996 9.63000104 10.0349997 10.2450008 12.3750001 11.79 12.3750001 11.79zM8.25000003 9.08250054L8.25000003 6.59250073C8.25000003 5.94750022 7.73250013 5.43000032 7.08749963 5.43000032 6.91500003 5.43000032 6.74249943 5.46750072 6.58500003 5.54250052L4.43999962 6.57750133 5.57250022 7.32000073 7.02750013 6.61500083 7.17749973 6.92250163 5.90999982 7.53750143 8.25000003 9.08250054 8.25000003 9.08250054z"/>
      <path d="M15.3750001 18.0000001C16.8224984 18.0000001 18 16.8224984 18 15.3750001 18 13.9275018 16.8224984 12.7500001 15.3750001 12.7500001L12.8100005 12.7500001C12.5925008 12.7500001 12.3750001 12.6825009 12.1950007 12.5625001L0 4.56000042 0 10.125 12 18.0000001 15.3750001 18.0000001 15.3750001 18.0000001zM4.12500002 6.37500003L4.12500002 3.88500022C4.12500002 3.24000021 3.60750062 2.72250031 2.96250011 2.72250031 2.79000001 2.72250031 2.61750031 2.76000021 2.46000001 2.83500001L.315000301 3.87000042 1.44750021 4.61250022 2.90250011 3.90750032 3.05250021 4.21500112 1.78500031 4.83000092 4.12500002 6.37500003 4.12500002 6.37500003zM3.94500062 1.48500011C3.94500062.945000404 3.51000021.510000202 2.97000021.510000202 2.43000021.510000202 1.99500041.945000404 1.99500041 1.48500011 1.99500041 2.02499981 2.43000081 2.46000001 2.97000031 2.46000001 3.50249961 2.46000001 3.94500062 2.02500011 3.94500062 1.48500011L3.94500062 1.48500011zM8.07000063 4.15499972C8.07000063 3.61499972 7.63500023 3.17999931 7.09500023 3.17999931 6.55500023 3.17999931 6.12000083 3.61499982 6.12000083 4.15499972 6.12000083 4.69499962 6.55500033 5.12999912 7.09500023 5.12999912 7.62749963 5.12999912 8.07000063 4.69500062 8.07000063 4.15499972L8.07000063 4.15499972zM12.1875001 6.82499983C12.1875001 6.28499983 11.7524996 5.85000042 11.2124996 5.85000042 10.6725006 5.85000042 10.2375002 6.28499993 10.2375002 6.82499983 10.2375002 7.36499973 10.6725006 7.80000023 11.2124996 7.80000023 11.7524996 7.80000023 12.1875001 7.36499983 12.1875001 6.82499983L12.1875001 6.82499983z"/>
    </g>
  </g>
</svg>
