<svg xmlns="http://www.w3.org/2000/svg" width="24" height="24" viewBox="0 0 24 24">
  <g fill="none" fill-rule="evenodd">
    <path fill="#2D327D" d="M22.5,0 L1.5,0 C0.675000003,0 0,0.675000003 0,1.5 L0,22.5 C0,23.3250009 0.675000003,24 1.5,24 L22.5,24 C23.3250009,24 24,23.3250009 24,22.5 L24,1.5 C24,0.675000003 23.3250009,0 22.5,0 Z"/>
    <g fill="#FFF" transform="translate(3 3)">
      <path d="M5.62500002 11.79L5.62500002 9.30000024C5.62500002 8.65499974 6.14249993 8.13749983 6.78750043 8.13749983 6.96000003 8.13749983 7.13250063 8.17500023 7.29000003 8.25000003L9.43500054 9.28499984 8.30249993 10.0275001 6.84750003 9.32250024 6.69750043 9.63000104 7.96500033 10.2450008 5.62500002 11.79 5.62500002 11.79zM9.75000004 9.08250054L9.75000004 6.59250073C9.75000004 5.94750022 10.2674999 5.43000032 10.9125004 5.43000032 11.0850001 5.43000032 11.2575007 5.46750072 11.415 5.54250052L13.5599996 6.57750133 12.427499 7.32000073 10.972499 6.61500083 10.8224994 6.92250163 12.0899985 7.53750143 9.75000004 9.08250054 9.75000004 9.08250054z"/>
      <path d="M2.62500001 18.0000001C1.1774998 18.0000001 0 16.8224984 0 15.3750001 0 13.9275018 1.1774998 12.7500001 2.62500001 12.7500001L5.18999962 12.7500001C5.40749932 12.7500001 5.62500002 12.6825009 5.80499942 12.5625001L18 4.56000042 18 10.125 6 18.0000001 2.62500001 18.0000001 2.62500001 18.0000001zM13.8750001 6.37500003L13.8750001 3.88500022C13.8750001 3.24000021 14.3925 2.72250031 15.0375005 2.72250031 15.2099992 2.72250031 15.3824998 2.76000021 15.540001 2.83500001L17.6850015 3.87000032 16.5525018 4.61250012 15.0975019 3.90750022 14.9475023 4.21500102 16.2150003 4.83000082 13.8750001 6.37500003 13.8750001 6.37500003zM14.0550004 1.48500011C14.0550004.945000404 14.489998.510000202 15.0299989.510000202 15.5699998.510000202 16.0049993.945000404 16.0049993 1.48500011 16.0049993 2.02499981 15.5699998 2.46000001 15.0299989 2.46000001 14.489998 2.46000001 14.0550004 2.02500011 14.0550004 1.48500011L14.0550004 1.48500011zM9.92999944 4.15499972C9.92999944 3.61499972 10.3649998 3.17999931 10.9049998 3.17999931 11.4449998 3.17999931 11.8799992 3.61499972 11.8799992 4.15499972 11.8799992 4.69499972 11.4449997 5.12999912 10.9049998 5.12999912 10.3725004 5.12999912 9.92999944 4.69500062 9.92999944 4.15499972L9.92999944 4.15499972zM5.80499942 6.82499983C5.80499942 6.28499983 6.23999983 5.85000042 6.77999983 5.85000042 7.31999983 5.85000042 7.75499923 6.28499993 7.75499923 6.82499983 7.75499923 7.36499973 7.31999973 7.80000023 6.77999983 7.80000023 6.23999993 7.80000023 5.80499942 7.36499983 5.80499942 6.82499983L5.80499942 6.82499983z"/>
    </g>
  </g>
</svg>
