<svg xmlns="http://www.w3.org/2000/svg" width="24" height="24" viewBox="0 0 24 24">
  <g fill="none" fill-rule="evenodd">
    <path fill="#2D327D" d="M22.5,0 L1.5,0 C0.675000003,0 0,0.675000003 0,1.5 L0,22.5 C0,23.3250009 0.675000003,24 1.5,24 L22.5,24 C23.3250009,24 24,23.3250009 24,22.5 L24,1.5 C24,0.675000003 23.3250009,0 22.5,0 Z"/>
    <path fill="#FFF" d="M7.90499973 1.98000001C7.36499973 1.98000001 6.92999933 1.54500011 6.92999933 1.0050001 6.92999933.465000102 7.36499973.0300002 7.90499973.0300002 8.44499974.0300002 8.87999914.465000402 8.87999914 1.0050001 8.87999914 1.54499981 8.44500064 1.98000001 7.90499973 1.98000001L7.90499973 1.98000001zM11.6700001 4.40249972C11.1300011 4.40249972 10.6950007 3.96749982 10.6950007 3.42749981 10.6950007 2.88749981 11.1300011 2.45249991 11.6700001 2.45249991 12.2100002 2.45249991 12.6450006 2.88749981 12.6450006 3.42749981 12.6450006 3.96749982 12.2100001 4.40249972 11.6700001 4.40249972L11.6700001 4.40249972zM15.4275018 4.94249962C15.9675027 4.94249962 16.4025003 5.37749952 16.4025003 5.91749952 16.4025003 6.45749953 15.9675027 6.89249993 15.4275018 6.89249993 14.8875009 6.89249993 14.4525014 6.45749953 14.4525014 5.91749952 14.4525014 5.37749952 14.8875009 4.94249962 15.4275018 4.94249962L15.4275018 4.94249962zM9.84749984 5.38500022C9.87000084 5.45249942 9.88500024 5.52000042 9.88500024 5.59500022 9.88500024 5.91750042 9.62250044 6.18000023 9.30000024 6.18000023 9.06000044 6.18000023 8.84249974 6.03000063 8.76000024 5.80500022L8.06250003 3.97500132 7.71000003 4.11000162 8.02499963 4.93500142 6.75000003 4.09500172 6.75000003 3.45750141C6.75000003 2.82750131 7.26000023 2.31750201 7.88999943 2.31750201 8.36250023 2.31750201 8.79000004 2.61000201 8.95499994 3.05250211L9.84749984 5.38500022 9.84749984 5.38500022zM13.5974999 7.85250003C13.619999 7.91999923 13.6349984 7.98750023 13.6349984 8.06250003 13.6349984 8.38500023 13.3724995 8.64750004 13.0499993 8.64750004 12.8099995 8.64750004 12.5924988 8.49750044 12.5099993 8.27250003L11.812499 6.44250103 11.459999 6.57750123 11.7749986 7.40250103 10.499999 6.56250103 10.499999 5.92500112C10.499999 5.29500192 11.0099992 4.78500122 11.6399984 4.78500122 12.1124993 4.78500122 12.5399991 5.07750122 12.7049981 5.52000132L13.5974999 7.85250003 13.5974999 7.85250003zM14.2500001 9.01499944L14.2500001 8.37749963C14.2500001 7.74750043 14.7599984 7.23750023 15.3900014 7.23750023 15.8624993 7.23750023 16.290001 7.52999973 16.4550019 7.97249993L17.3475018 10.3200007C17.3700009 10.3874999 17.3850022 10.4550009 17.3850022 10.5300007 17.3850022 10.8525009 17.1225014 11.1075001 16.8000031 11.1075001 16.5600014 11.1075001 16.3425026 10.9575005 16.2600022 10.7325001L15.562502 8.90250114 15.2100011 9.03750134 15.5250016 9.86250114 14.2500001 9.01499944 14.2500001 9.01499944zM2.62500001 9.75000004C1.1774998 9.75000004 0 8.57250024 0 7.12500003 0 5.67749982 1.1774998 4.50000002 2.62500001 4.50000002L5.61749942 4.50000002C5.83499912 4.50000002 6.05249983 4.56749962 6.23999983 4.68750002L18 12.4350005 18 18 5.47500042 9.75000004 2.62500001 9.75000004 2.62500001 9.75000004z" transform="translate(3 3)"/>
  </g>
</svg>
