<svg xmlns="http://www.w3.org/2000/svg" width="24" height="24" viewBox="0 0 24 24">
  <g fill="none" fill-rule="evenodd">
    <path fill="#2D327D" d="M22.5,0 L1.5,0 C0.675000003,0 0,0.675000003 0,1.5 L0,22.5 C0,23.3250009 0.675000003,24 1.5,24 L22.5,24 C23.3250009,24 24,23.3250009 24,22.5 L24,1.5 C24,0.675000003 23.3250009,0 22.5,0 Z"/>
    <path fill="#FFF" d="M10.0950003 1.98000001C10.6350003 1.98000001 11.0700007 1.54500011 11.0700007 1.0050001 11.0700007.465000102 10.6350003.0300002 10.0950003.0300002 9.55500034.0300002 9.12000094.465000402 9.12000094 1.0050001 9.12000094 1.54499981 9.55499944 1.98000001 10.0950003 1.98000001L10.0950003 1.98000001zM6.32999993 4.40249972C6.86999893 4.40249972 7.30499933 3.96749982 7.30499933 3.42749981 7.30499933 2.88749981 6.86999893 2.45249991 6.32999993 2.45249991 5.78999992 2.45249991 5.35499952 2.88749981 5.35499952 3.42749981 5.35499952 3.96749982 5.79000002 4.40249972 6.32999993 4.40249972L6.32999993 4.40249972zM2.57250021 4.94249962C2.03250021 4.94249962 1.59750031 5.37749952 1.59750031 5.91749952 1.59750031 6.45749953 2.03250021 6.89249993 2.57250021 6.89249993 3.11250021 6.89249993 3.54750011 6.45749953 3.54750011 5.91749952 3.54750011 5.37749952 3.11250021 4.94249962 2.57250021 4.94249962L2.57250021 4.94249962zM8.15250023 5.38500022C8.12999923 5.45249942 8.11499983 5.52000042 8.11499983 5.59500022 8.11499983 5.91750042 8.37749963 6.18000023 8.69999984 6.18000023 8.93999964 6.18000023 9.15750034 6.03000063 9.23999984 5.80500022L9.93750004 3.97500132 10.29 4.11000162 9.97500044 4.93500142 11.25 4.09500172 11.25 3.45750141C11.25 2.82750131 10.7399998 2.31750201 10.1100006 2.31750201 9.63749984 2.31750201 9.21000004 2.61000201 9.04500014 3.05250211L8.15250023 5.38500022 8.15250023 5.38500022zM4.40249972 7.85250003C4.37999972 7.91999923 4.36499982 7.98750023 4.36499982 8.06250003 4.36499982 8.38500023 4.62749962 8.64750004 4.94999982 8.64750004 5.18999962 8.64750004 5.40750032 8.49750044 5.48999982 8.27250003L6.18750003 6.44250113 6.54000003 6.57750133 6.22500043 7.40250113 7.50000003 6.56250103 7.50000003 5.92500112C7.50000003 5.29500192 6.98999983 4.78500122 6.36000063 4.78500122 5.88749982 4.78500122 5.46000002 5.07750122 5.29500012 5.52000132L4.40249972 7.85250003 4.40249972 7.85250003zM3.75000002 9.01499944L3.75000002 8.37749963C3.75000002 7.74750043 3.23999981 7.23750023 2.61000011 7.23750023 2.13749981 7.23750023 1.71000001 7.52999973 1.54500051 7.97249993L.652500303 10.3200007C.630000003 10.3874999.615000203 10.4550009.615000203 10.5300007.615000203 10.8525009.877500204 11.1075001 1.20000071 11.1075001 1.44000051 11.1075001 1.65750021 10.9575005 1.74000021 10.7325001L2.43750041 8.90250114 2.79000041 9.03750134 2.47500031 9.86250114 3.75000002 9.01499944 3.75000002 9.01499944zM15.3750001 9.75000004C16.8224984 9.75000004 18 8.57250024 18 7.12500003 18 5.67749982 16.8224984 4.50000002 15.3750001 4.50000002L12.3825007 4.50000002C12.165001 4.50000002 11.9475002 4.56749962 11.7600002 4.68750002L0 12.4350005 0 18 12.5249997 9.75000004 15.3750001 9.75000004 15.3750001 9.75000004z" transform="translate(3 3)"/>
  </g>
</svg>
