<svg xmlns="http://www.w3.org/2000/svg" width="24" height="24" viewBox="0 0 24 24">
  <g fill="none" fill-rule="evenodd">
    <path fill="#2D327D" d="M22.5,0 L1.5,0 C0.675000003,0 0,0.675000003 0,1.5 L0,22.5 C0,23.3250009 0.675000003,24 1.5,24 L22.5,24 C23.3250009,24 24,23.3250009 24,22.5 L24,1.5 C24,0.675000003 23.3250009,0 22.5,0 Z"/>
    <g fill="#FFF" transform="translate(3 2)">
      <polygon points="9.233 3.625 9.233 1.398 10.155 2.402 10.155 1.727 9 .573 7.845 1.727 7.845 2.402 8.767 1.398 8.767 3.625"/>
      <polygon points="8.767 16.375 8.767 18.603 7.845 17.597 7.845 18.272 9 19.428 10.155 18.272 10.155 17.597 9.233 18.603 9.233 16.375"/>
      <path fill-rule="nonzero" d="M14.9249993,4.07499982 L3.07499981,4.07499982 L3.07499981,15.9249993 L14.9249993,15.9249993 L14.9249993,4.07499982 L14.9249993,4.07499982 Z M14.1749993,15.1749993 L3.82499982,15.1749993 L3.82499982,4.82499982 L14.1749993,4.82499982 L14.1749993,15.1749993 L14.1749993,15.1749993 Z"/>
      <polygon points="15.75 1 18 1 18 19 15.75 19"/>
      <polygon points="0 1 2.25 1 2.25 19 0 19"/>
      <path d="M7.33500003 7.01499943C7.77000043 7.01499943 8.11499973 6.66250043 8.11499973 6.23500063 8.11499973 5.80000022 7.76249973 5.45500092 7.33500003 5.45500092 6.89999963 5.45500092 6.55500033 5.80750042 6.55500033 6.23500063 6.55500033 6.66250043 6.89999963 7.01499943 7.33500003 7.01499943L7.33500003 7.01499943zM5.87250042 11.0049992C6.03750043 11.0049992 6.16499993 10.869999 6.16499993 10.7124997L6.16499993 8.47000034 6.36000053 8.47000034 6.36000053 14.4849988C6.36000063 14.7024995 6.53250033 14.8750001 6.75000003 14.8750001 6.96749973 14.8750001 7.13999943 14.7025014 7.13999943 14.4849988L7.13999943 11.0049992 7.43249893 11.0049992 7.43249893 14.4849988C7.43249893 14.7024995 7.60499953 14.8750001 7.82249923 14.8750001 8.03999893 14.8750001 8.21249863 14.7025014 8.21249863 14.4849988L8.21249863 8.46999934 8.40749924 8.46999934 8.40749924 10.7124987C8.40749924 10.8774987 8.54249944 11.0049982 8.69999874 11.0049982 8.85749804 11.0049982 8.99249824 10.869998 8.99249824 10.7124987L8.99249824 8.07249933 8.99249824 8.07249933C8.99249824 7.63749893 8.63999824 7.29249963 8.21249853 7.29249963L6.35999853 7.29249963C5.92499902 7.29249963 5.57999972 7.64499963 5.57999972 8.07249933L5.57999972 10.7124987C5.57999972 10.8774996 5.71500022 11.0049992 5.87250042 11.0049992L5.87250042 11.0049992z"/>
    </g>
  </g>
</svg>
