<svg xmlns="http://www.w3.org/2000/svg" width="24" height="24" viewBox="0 0 24 24">
  <g fill="none" fill-rule="evenodd">
    <path fill="#2D327D" d="M22.5,0 L1.5,0 C0.675000003,0 0,0.675000003 0,1.5 L0,22.5 C0,23.3250009 0.675000003,24 1.5,24 L22.5,24 C23.3250009,24 24,23.3250009 24,22.5 L24,1.5 C24,0.675000003 23.3250009,0 22.5,0 Z"/>
    <g fill="#FFF" transform="translate(3 2)">
      <path fill-rule="nonzero" d="M3.27749971,5.50750062 L8.72999964,5.50750062 C9.74249944,5.50750062 10.6125002,5.62750102 11.3400002,5.86000012 C12.0600005,6.09250073 12.6975003,6.46000003 13.2525006,6.97000033 C14.602501,8.19999983 15.2700008,9.90999994 15.2700008,12.0925008 C15.2700008,14.4025003 14.6324997,16.1949998 13.3575001,17.4550019 C12.7950001,18.0175019 12.1650009,18.415001 11.4675006,18.6475011 C10.7625007,18.8875028 9.87750044,19.000002 8.79000084,19.000002 L3.27000081,19.000002 L3.27000081,5.50750062 L3.27749971,5.50750062 Z M6.21749973,8.00499923 L6.21749973,16.5099985 L8.48999974,16.5099985 C9.18749994,16.5099985 9.74249934,16.4424993 10.1475,16.2999994 C10.5600004,16.1650011 10.92,15.9249994 11.2274999,15.5950014 C11.9399995,14.8225023 12.3000002,13.682501 12.3000002,12.1900007 C12.3000002,10.8100014 11.9700002,9.76750094 11.3100003,9.06250104 C10.6499995,8.35750203 9.67500014,8.00499923 8.37750043,8.00499923 L6.21749973,8.00499923 L6.21749973,8.00499923 Z"/>
      <path d="M1.81499961,1.66750001 L1.34999991,1.66750001 C1.34250021,1.55500011 1.29750011,1.47250031 1.23000001,1.41249991 C1.1624999,1.35249971 1.0574999,1.32250021 0.922500104,1.32250021 C0.810000103,1.32250021 0.720000503,1.34500051 0.652500403,1.39000031 C0.585000302,1.43500011 0.555000102,1.50250031 0.555000102,1.58500021 C0.555000102,1.66000021 0.585000302,1.71250001 0.645000003,1.74250001 C0.705000203,1.77250021 0.855000004,1.82500001 1.0949998,1.87750021 C1.34999991,1.93750041 1.53000021,2.00500001 1.62749961,2.07250011 C1.80749991,2.19250001 1.89749961,2.35750041 1.89749961,2.56750001 C1.89749961,2.80000011 1.80749991,2.98750011 1.61999991,3.11500011 C1.46250011,3.23500011 1.23750021,3.29500061 0.967500204,3.29500061 C0.660000303,3.29500061 0.427500202,3.22750051 0.255000101,3.08500011 C0.0825000003,2.94250011 0,2.75500011 0,2.50000001 L0.487500002,2.50000001 C0.494999902,2.62749961 0.525000102,2.71750021 0.585000302,2.77749971 C0.675000003,2.87500001 0.810000203,2.92000011 0.990000204,2.92000011 C1.1100001,2.92000011 1.20750041,2.89749961 1.28250021,2.84499981 C1.36500021,2.79250001 1.40250011,2.71750021 1.40250011,2.61999991 C1.40250011,2.52249961 1.34250021,2.45499991 1.23000001,2.40999991 C1.1700001,2.38749931 1.02,2.34249971 0.787499903,2.27499961 C0.645000003,2.23749921 0.525000102,2.19999931 0.442500102,2.16249941 C0.360000102,2.12499951 0.292500001,2.08749961 0.247500201,2.04249951 C0.135000201,1.93749951 0.0750000003,1.79499941 0.0750000003,1.61499981 C0.0750000003,1.39749961 0.164999701,1.22499991 0.344999701,1.1049996 C0.494999802,0.999999604 0.697499703,0.939999904 0.937499904,0.939999904 C1.1550001,0.939999904 1.32749981,0.984999704 1.47749991,1.0674997 C1.68750001,1.1949999 1.80000021,1.38999991 1.81499961,1.66750001 Z"/>
      <path fill-rule="nonzero" d="M3.69750022,2.72499991 C3.67500022,2.82250021 3.63000062,2.90500021 3.57000061,2.98750021 C3.42000061,3.18999961 3.21000001,3.28749991 2.93250041,3.28749991 C2.68500051,3.28749991 2.48250061,3.20499991 2.33250051,3.04750011 C2.25750061,2.97250031 2.20500091,2.87500001 2.16000031,2.77000051 C2.11500021,2.65750031 2.09999991,2.53000071 2.09999991,2.41000031 C2.09999991,2.16249991 2.16750001,1.96000031 2.31000041,1.79500051 C2.46750021,1.60750051 2.67000051,1.51750061 2.91750001,1.51750061 C3.11999991,1.51750061 3.29250001,1.57750081 3.42750021,1.70500061 C3.53250021,1.79500051 3.59999991,1.90750051 3.65250112,2.03500081 C3.70500182,2.16250131 3.72000032,2.32750081 3.72000032,2.53000071 L2.55000021,2.53000071 C2.55749991,2.61250071 2.56499961,2.68000081 2.58750011,2.73250061 C2.64750001,2.88250061 2.76000021,2.95000081 2.93249991,2.95000081 C3.01499991,2.95000081 3.08250001,2.93500091 3.13499981,2.89750101 C3.18749961,2.86000061 3.23250011,2.80000071 3.26249941,2.72500041 L3.69750022,2.72499991 L3.69750022,2.72499991 Z M3.27000001,2.23000001 C3.26249981,2.14750001 3.23999981,2.07999991 3.21750021,2.02750021 C3.18750001,1.97500061 3.15000011,1.93000011 3.09750031,1.90000061 C3.04500051,1.87000111 2.98500011,1.85500071 2.92500021,1.85500071 C2.82749991,1.85500071 2.74499991,1.88500071 2.67749981,1.95250081 C2.60999971,2.02000091 2.57249981,2.11000061 2.56499961,2.22250081 L3.27000001,2.22250081 L3.27000001,2.23000001 Z"/>
      <path d="M5.55000022 2.60500001C5.52750022 2.77000001 5.47500042 2.91249991 5.38500022 3.02500011 5.24250032 3.20499991 5.03250022 3.29500011 4.77000042 3.29500011 4.49999992 3.29500011 4.28250022 3.20499991 4.13250062 3.01749991 4.00500062 2.86000011 3.93750002 2.66500041 3.93750002 2.42500021 3.93750002 2.13249971 4.02000052 1.90749981 4.19249962 1.74250011 4.34249972 1.59999991 4.53749992 1.52500011 4.76999952 1.52500011 4.98749882 1.52500011 5.16749952 1.58500031 5.30249982 1.69750021 5.43750002 1.81000011 5.51999952 1.96750021 5.53499992 2.16249991L5.10000042 2.16249991C5.08500012 2.07250021 5.04750062 2.00500011 4.98750022 1.95249991 4.92749982 1.89999941 4.86000012 1.87749991 4.77000052 1.87749991 4.64250092 1.87749991 4.55250082 1.92249971 4.48500022 2.02000011 4.41749962 2.11750051 4.38000062 2.24499991 4.38000062 2.41750001 4.38000062 2.56750011 4.41000032 2.68750001 4.46250112 2.77750011 4.53000072 2.89000031 4.62750112 2.94250011 4.76250132 2.94250011 4.95750152 2.94250011 5.07750142 2.82999991 5.10750202 2.60500001L5.55000022 2.60500001zM6.70500083 1.56250001L6.70500083 1.87749981 6.37500003 1.87749981 6.37500003 2.66500001C6.37500003 2.76249981 6.38250063 2.82249981 6.39750003 2.84499981 6.42000003 2.88249971 6.48000053 2.89749961 6.57000063 2.89749961 6.60750003 2.89749961 6.65250113 2.89749961 6.70500083 2.88999991L6.70500083 3.25000001C6.60750013 3.26499991 6.51000023 3.26499991 6.42750073 3.26499991 6.30000113 3.26499991 6.20250133 3.25000001 6.13500123 3.21999981 6.03000173 3.17500021 5.97000122 3.09250021 5.94000062 2.96499971 5.93250082 2.91249991 5.92500112 2.80749991 5.92500112 2.64249941L5.92500112 1.88500021 5.65500072 1.88500021 5.65500072 1.57000041 5.92500122 1.57000041 5.92500122 1.1800008 6.36750043 1.1800008 6.36750043 1.57000041 6.70500083 1.57000041 6.70500083 1.56250001 6.70500083 1.56250001z"/>
      <path fill-rule="nonzero" d="M8.43750004,2.72499991 C8.41500004,2.82250021 8.37000083,2.90500021 8.31000043,2.98750021 C8.15999983,3.18999961 7.94999983,3.28749991 7.67250063,3.28749991 C7.42500023,3.28749991 7.22249983,3.20499991 7.07250023,3.04750011 C6.99750043,2.97250031 6.94500063,2.87500001 6.89999963,2.77000051 C6.85499953,2.65750031 6.84000023,2.53000071 6.84000023,2.41000031 C6.84000023,2.16249991 6.90749943,1.96000031 7.05000023,1.79500051 C7.20750053,1.60750051 7.40999993,1.51750061 7.65750033,1.51750061 C7.86000063,1.51750061 8.03250033,1.57750081 8.17500023,1.70500061 C8.27999973,1.79500051 8.34749993,1.90750051 8.39999964,2.03500081 C8.45249944,2.16250131 8.46749974,2.32750081 8.46749974,2.53000071 L7.29749873,2.53000071 C7.30499933,2.61250071 7.31249903,2.68000081 7.33499913,2.73250061 C7.39499953,2.88250071 7.50749973,2.95000081 7.67999943,2.95000081 C7.76249993,2.95000081 7.83000003,2.93500091 7.88249973,2.89750101 C7.93499953,2.86000061 7.97999953,2.80000071 8.00999933,2.72500041 L8.43750004,2.72499991 L8.43750004,2.72499991 Z M8.01000023,2.23000001 C8.00249963,2.14750001 7.98000053,2.07999991 7.95750043,2.02750011 C7.92750073,1.97500061 7.89000123,1.93000001 7.83749963,1.90000051 C7.78499893,1.87000111 7.72500043,1.85500071 7.66500003,1.85500071 C7.56749923,1.85500071 7.48500063,1.88500071 7.41749963,1.95250081 C7.34999863,2.02000091 7.31250013,2.11000061 7.30499943,2.22250081 L8.01000033,2.22250081 L8.01000033,2.23000001 L8.01000023,2.23000001 Z"/>
      <path d="M10.2600002 1.56999991L10.2600002 3.25000001 9.83250044 3.25000001 9.83250044 3.00249961C9.70500084 3.19749981 9.52499964 3.29500011 9.29250044 3.29500011 9.09000104 3.29500011 8.94000044 3.22750001 8.83499994 3.09250021 8.79750054 3.04000041 8.76750074 2.98000001 8.75249944 2.90500021 8.73749914 2.82999991 8.72999944 2.74000021 8.72999944 2.62750051L8.72999944 1.56999991 9.17249864 1.56999991 9.17249864 2.49250031C9.17249864 2.59000011 9.17249864 2.65749981 9.17999924 2.69499971 9.18750004 2.73250011 9.19499974 2.77000001 9.21749974 2.80000021 9.26249984 2.87500001 9.34499934 2.91249991 9.45749954 2.91249991 9.59999854 2.91249991 9.69749934 2.85250001 9.76499944 2.72499991 9.79499914 2.66500001 9.81000044 2.55249981 9.81000044 2.39500001L9.81000044 1.56999991 10.2600002 1.56999991 10.2600002 1.56999991zM11.6475 1.53999971L11.6475 1.97499991C11.5725002 1.96000031 11.5200004 1.95249991 11.4750003 1.95249991 11.3100003 1.95249991 11.1899995 2.02000001 11.1075 2.16249991 11.0625 2.23750021 11.0400009 2.37250041 11.0400009 2.55249981L11.0400009 3.25000001 10.5975017 3.25000001 10.5975017 1.56999991 11.0250015 1.56999991 11.0250015 1.87749981C11.1450014 1.65249971 11.3250007 1.53249981 11.5500011 1.53249981 11.5725002 1.53249981 11.6100006 1.53999971 11.6475 1.53999971z"/>
    </g>
  </g>
</svg>
