<svg xmlns="http://www.w3.org/2000/svg" width="24" height="24" viewBox="0 0 24 24">
  <g fill="none" fill-rule="evenodd">
    <path fill="#2D327D" d="M22.5,0 L1.5,0 C0.700000003,0 0,0.700000003 0,1.5 L0,22.5 C0,23.2999993 0.700000003,24 1.5,24 L22.5,24 C23.2999993,24 24,23.2999993 24,22.5 L24,1.5 C24,0.700000003 23.2999993,0 22.5,0 Z"/>
    <g fill="#FFF" transform="translate(3 2)">
      <polygon points="13.7 7.8 13.7 19 11.2 19 11.2 14.1 6.7 14.1 6.7 19 4.2 19 4.2 7.8 6.7 7.8 6.7 12 11.3 12 11.3 7.8"/>
      <path d="M1.80000021,1.70000001 L1.30000021,1.70000001 C1.30000021,1.60000011 1.20000031,1.50000001 1.20000031,1.4000001 C1.20000031,1.4000001 1.0999999,1.29999991 0.900000104,1.29999991 C0.800000203,1.29999991 0.700000103,1.29999991 0.600000103,1.4000001 C0.5,1.49999971 0.599999902,1.50000001 0.599999902,1.59999991 C0.599999902,1.69999981 0.599999902,1.69999981 0.699999803,1.79999991 C0.799999703,1.79999991 0.899999804,1.9000001 1.0999999,1.9000001 C1.30000021,1.9000001 1.5,2.00000001 1.59999991,2.09999991 C1.79999971,2.19999981 1.90000011,2.4000001 1.90000011,2.59999991 C1.90000011,2.79999971 1.80000021,3.00000001 1.59999991,3.09999991 C1.5,3.19999981 1.1999998,3.30000021 1,3.30000021 C0.700000003,3.30000021 0.5,3.20000031 0.300000001,3.10000041 C0.0999999004,2.9000001 0,2.80000021 0,2.50000001 L0.5,2.50000001 C0.5,2.59999991 0.5,2.69999981 0.599999902,2.80000021 C0.700000003,2.9000001 0.800000003,2.9000001 1,2.9000001 C1.0999999,2.9000001 1.1999998,2.9000001 1.30000021,2.80000021 C1.40000011,2.70000031 1.40000011,2.70000031 1.40000011,2.60000041 C1.40000011,2.50000051 1.30000021,2.50000001 1.1999998,2.4000001 C1.1999998,2.4000001 1,2.30000021 0.799999903,2.30000021 C0.700000003,2.30000021 0.5,2.20000031 0.5,2.20000031 C0.5,2.20000031 0.300000001,2.09999991 0.200000001,2.00000001 C0.0999999004,1.9000001 0.0999999004,1.80000001 0.0999999004,1.59999991 C0.0999999004,1.4000001 0.199999801,1.1999998 0.399999902,1.0999999 C0.5,1 0.700000003,0.900000104 0.900000104,0.900000104 C1.0999999,0.900000104 1.30000021,0.900000104 1.40000011,1 C1.69999981,1.20000001 1.80000021,1.4000001 1.80000021,1.70000001 Z"/>
      <path fill-rule="nonzero" d="M3.69999982,2.69999981 C3.69999982,2.79999971 3.59999991,2.89999961 3.59999991,3.00000021 C3.40000011,3.19999981 3.19999981,3.30000021 2.90000011,3.30000021 C2.69999981,3.30000021 2.50000001,3.19999981 2.30000021,3.00000021 C2.30000021,3.00000021 2.19999981,2.90000011 2.19999981,2.80000021 C2.19999981,2.70000031 2.09999991,2.60000041 2.09999991,2.40000011 C2.09999991,2.20000031 2.19999981,1.90000011 2.29999971,1.80000021 C2.49999951,1.60000021 2.69999981,1.50000021 2.89999961,1.50000021 C3.09999991,1.50000021 3.29999971,1.60000011 3.39999961,1.70000021 C3.50000001,1.80000001 3.59999991,1.90000011 3.69999982,2.00000021 C3.79999972,2.09999991 3.79999972,2.30000021 3.79999972,2.50000021 L2.59999991,2.50000021 C2.59999991,2.59999991 2.59999991,2.69999981 2.59999991,2.69999981 C2.59999991,2.90000011 2.80000021,3.00000021 2.90000011,3.00000021 C3.00000001,3.00000021 3.09999991,3.00000021 3.09999991,2.90000011 C3.19999981,2.90000011 3.19999981,2.80000021 3.19999981,2.70000031 L3.69999982,2.69999981 L3.69999982,2.69999981 Z M3.30000021,2.19999981 C3.30000021,2.09999991 3.30000021,1.99999981 3.20000031,1.99999981 C3.20000031,1.89999991 3.10000041,1.89999991 3.10000041,1.89999991 C3.10000041,1.89999991 3.00000051,1.89999991 2.90000061,1.89999991 C2.80000071,1.89999991 2.70000081,1.89999991 2.70000081,1.99999981 C2.70000081,2.09999951 2.59999991,2.09999991 2.59999991,2.19999981 L3.30000021,2.19999981 L3.30000021,2.19999981 Z"/>
      <path d="M4.90000012 1.59999991L4.90000012 1.89999991 4.50000002 1.89999991 4.50000002 2.7C4.50000002 2.79999981 4.50000002 2.89999971 4.50000002 2.89999971 4.50000002 2.89999971 4.59999992 2.99999961 4.69999982 2.99999961L4.80000022 2.99999961 4.80000022 3.39999971C4.69999982 3.39999971 4.59999992 3.39999971 4.49999952 3.39999971 4.39999962 3.39999971 4.30000022 3.39999971 4.19999932 3.39999971 4.19999982 3.2 4.09999992 3.09999991 4.09999992 3.00000001 4.09999992 2.90000011 4.09999992 2.80000021 4.09999992 2.7L4.09999992 1.90000011 3.80000022 1.90000011 3.80000022 1.59999991 4.10000042 1.59999991 4.10000042 1.2 4.50000052 1.2 4.50000052 1.60000011 4.90000012 1.59999991 4.90000012 1.59999991zM6.10000043 1.59999991L6.10000043 1.89999991 5.69999982 1.89999991 5.69999982 2.7C5.69999982 2.79999981 5.69999982 2.89999971 5.69999982 2.89999971 5.69999982 2.89999971 5.80000022 2.99999961 5.89999962 2.99999961L6.00000002 2.99999961 6.00000002 3.39999971C5.89999962 3.39999971 5.80000022 3.39999971 5.69999982 3.39999971 5.59999942 3.39999971 5.50000002 3.39999971 5.39999962 3.39999971 5.39999962 3.2 5.30000022 3.10000001 5.30000022 3.00000011 5.30000022 2.90000021 5.30000022 2.80000031 5.30000022 2.7L5.30000022 1.90000011 5.00000002 1.90000011 5.00000002 1.59999991 5.30000022 1.59999991 5.30000022 1.2 5.69999982 1.2 5.69999982 1.60000011 6.10000043 1.59999991 6.10000043 1.59999991z"/>
      <path fill-rule="nonzero" d="M7.10000043,1.50000001 C7.30000023,1.50000001 7.50000003,1.59999991 7.69999983,1.70000001 C7.80000123,1.90000001 7.90000063,2.09999991 7.90000063,2.30000011 C7.90000063,2.60000031 7.80000023,2.80000011 7.69999983,3.00000001 C7.60000043,3.19999971 7.30000123,3.19999971 7.10000043,3.19999971 C6.80000023,3.30000011 6.60000043,3.19999971 6.39999963,3.00000001 C6.30000023,2.90000011 6.19999983,2.69999981 6.19999983,2.40000011 C6.19999983,2.10000041 6.30000023,2.00000001 6.39999963,1.80000001 C6.60000043,1.59999991 6.80000023,1.50000001 7.10000043,1.50000001 Z M7.00000003,1.90000011 C6.89999963,1.90000011 6.80000023,1.90000011 6.69999983,2.00000001 C6.69999983,2.09999991 6.69999983,2.19999981 6.69999983,2.40000011 C6.69999983,2.60000041 6.69999983,2.70000031 6.80000023,2.80000021 C6.80000023,2.90000011 6.89999963,3.00000001 7.00000003,3.00000001 C7.10000043,3.00000001 7.19999983,3.00000001 7.30000023,2.90000011 C7.40000063,2.80000021 7.40000063,2.70000031 7.40000063,2.50000001 C7.40000063,2.30000021 7.40000063,2.19999981 7.30000023,2.09999991 C7.30000023,1.90000011 7.19999983,1.90000011 7.00000003,1.90000011 Z"/>
      <path d="M9.19999984,1.50000001 L9.19999984,2.00000001 C9.09999944,2.00000001 9.09999944,2.00000001 9.00000003,2.00000001 C8.80000024,2.00000001 8.69999984,2.09999991 8.60000044,2.19999981 C8.60000044,2.29999971 8.50000003,2.39999961 8.50000003,2.59999991 L8.50000003,3.29999971 L8.00000003,3.29999971 L8.00000003,1.59999991 L8.39999963,1.59999991 L8.39999963,1.89999991 C8.50000003,1.69999991 8.69999984,1.59999991 8.89999964,1.59999991 C9.19999984,1.50000001 9.19999984,1.50000001 9.19999984,1.50000001 Z"/>
      <path fill-rule="nonzero" d="M10.8999996,2.69999981 C10.8999996,2.79999971 10.7999982,2.89999961 10.7999982,3.00000021 C10.6999988,3.19999981 10.3999996,3.30000021 10.1999988,3.30000021 C9.99999904,3.30000021 9.79999824,3.20000031 9.59999844,3.10000041 C9.49999804,3.00000021 9.49999804,2.90000061 9.39999864,2.80000021 C9.39999864,2.70000031 9.29999824,2.60000041 9.29999824,2.40000011 C9.29999824,2.20000031 9.39999864,1.90000011 9.49999804,1.80000021 C9.69999784,1.60000021 9.89999764,1.50000021 10.0999984,1.50000021 C10.2999982,1.50000021 10.499998,1.60000011 10.5999984,1.70000021 C10.6999988,1.80000011 10.7999982,1.90000021 10.7999982,2.00000021 C11,2.19999981 11,2.30000021 11,2.50000021 L9.79999824,2.50000021 C9.79999824,2.59999991 9.79999824,2.69999981 9.79999824,2.69999981 C9.89999964,2.90000011 10,3.00000021 10.1999998,3.00000021 C10.2999982,3.00000021 10.2999982,3.00000021 10.3999996,2.90000011 C10.5,2.90000011 10.5,2.80000021 10.5,2.70000031 L10.8999996,2.69999981 L10.8999996,2.69999981 Z M10.5,2.19999981 C10.5,2.09999986 10.5,1.99999981 10.3999996,1.99999981 C10.3999996,1.89999991 10.2999992,1.89999991 10.2999992,1.89999991 C10.2999992,1.89999991 10.1999988,1.89999991 10.0999994,1.89999991 C9.99999904,1.89999991 9.89999964,1.89999991 9.89999964,1.99999981 C9.79999924,2.09999986 9.79999924,2.19999981 9.79999924,2.29999981 L10.5,2.19999981 L10.5,2.19999981 Z"/>
    </g>
  </g>
</svg>
