<svg xmlns="http://www.w3.org/2000/svg" width="24" height="24" viewBox="0 0 24 24">
  <g fill="none" fill-rule="evenodd">
    <path fill="#2D327D" d="M22.5,0 L1.5,0 C0.675000003,0 0,0.675000003 0,1.5 L0,22.5 C0,23.3250009 0.675000003,24 1.5,24 L22.5,24 C23.3250009,24 24,23.3250009 24,22.5 L24,1.5 C24,0.675000003 23.3250009,0 22.5,0 Z"/>
    <g fill="#FFF" transform="translate(3 2)">
      <polygon points="14.7 5.508 14.7 19 11.752 19 11.752 13.12 6.233 13.12 6.233 19 3.285 19 3.285 5.508 6.233 5.508 6.233 10.63 11.753 10.63 11.753 5.508"/>
      <path d="M1.81499961,1.66750001 L1.34999991,1.66750001 C1.34250021,1.55500011 1.29750011,1.47250031 1.23000001,1.41249991 C1.1624999,1.35249971 1.0574999,1.32250021 0.922500104,1.32250021 C0.810000103,1.32250021 0.720000503,1.34500051 0.652500403,1.39000031 C0.585000302,1.43500011 0.555000102,1.50250031 0.555000102,1.58500021 C0.555000102,1.66000021 0.585000302,1.71250001 0.645000003,1.74250001 C0.705000203,1.77250021 0.855000004,1.82500001 1.0949998,1.87750021 C1.34999991,1.93750041 1.53000021,2.00500001 1.62749961,2.07250011 C1.80749991,2.19250001 1.89749961,2.35750041 1.89749961,2.56750001 C1.89749961,2.80000011 1.80749991,2.98750011 1.61999991,3.11500011 C1.46250011,3.23500011 1.23750021,3.29500061 0.967500204,3.29500061 C0.660000303,3.29500061 0.427500202,3.22750051 0.255000101,3.08500011 C0.0825000003,2.94250011 0,2.75500011 0,2.50000001 L0.487500002,2.50000001 C0.494999902,2.62749961 0.525000102,2.71750021 0.585000302,2.77749971 C0.675000003,2.87500001 0.810000203,2.92000011 0.990000204,2.92000011 C1.1100001,2.92000011 1.20750041,2.89749961 1.28250021,2.84499981 C1.36500021,2.79250001 1.40250011,2.71750021 1.40250011,2.61999991 C1.40250011,2.52249961 1.34250021,2.45499991 1.23000001,2.40999991 C1.1700001,2.38749931 1.02,2.34249971 0.787499903,2.27499961 C0.645000003,2.23749921 0.525000102,2.19999931 0.442500102,2.16249941 C0.360000102,2.12499951 0.292500001,2.08749961 0.247500201,2.04249951 C0.135000201,1.93749951 0.0750000003,1.79499941 0.0750000003,1.61499981 C0.0750000003,1.39749961 0.164999701,1.22499991 0.344999701,1.1049996 C0.494999802,0.999999604 0.697499703,0.939999904 0.937499904,0.939999904 C1.1550001,0.939999904 1.32749981,0.984999704 1.47749991,1.0674997 C1.68750001,1.1949999 1.80000021,1.38999991 1.81499961,1.66750001 Z"/>
      <path fill-rule="nonzero" d="M3.69750022,2.72499991 C3.67500022,2.82250021 3.63000062,2.90500021 3.57000061,2.98750021 C3.42000061,3.18999961 3.21000001,3.28749991 2.93250041,3.28749991 C2.68500051,3.28749991 2.48250061,3.20499991 2.33250051,3.04750011 C2.25750061,2.97250031 2.20500091,2.87500001 2.16000031,2.77000051 C2.11500021,2.65750031 2.09999991,2.53000071 2.09999991,2.41000031 C2.09999991,2.16249991 2.16750001,1.96000031 2.31000041,1.79500051 C2.46750021,1.60750051 2.67000051,1.51750061 2.91750001,1.51750061 C3.11999991,1.51750061 3.29250001,1.57750081 3.42750021,1.70500061 C3.53250021,1.79500051 3.59999991,1.90750051 3.65250112,2.03500081 C3.70500182,2.16250131 3.72000032,2.32750081 3.72000032,2.53000071 L2.55000021,2.53000071 C2.55749991,2.61250071 2.56499961,2.68000081 2.58750011,2.73250061 C2.64750001,2.88250061 2.76000021,2.95000081 2.93249991,2.95000081 C3.01499991,2.95000081 3.08250001,2.93500091 3.13499981,2.89750101 C3.18749961,2.86000061 3.23250011,2.80000071 3.26249941,2.72500041 L3.69750022,2.72499991 L3.69750022,2.72499991 Z M3.27000001,2.23000001 C3.26249981,2.14750001 3.23999981,2.07999991 3.21750021,2.02750021 C3.18750001,1.97500061 3.15000011,1.93000011 3.09750031,1.90000061 C3.04500051,1.87000111 2.98500011,1.85500071 2.92500021,1.85500071 C2.82749991,1.85500071 2.74499991,1.88500071 2.67749981,1.95250081 C2.60999971,2.02000091 2.57249981,2.11000061 2.56499961,2.22250081 L3.27000001,2.22250081 L3.27000001,2.23000001 Z"/>
      <polygon points="5.573 1.57 4.958 2.193 5.64 3.25 5.1 3.25 4.65 2.507 4.47 2.68 4.47 3.25 4.028 3.25 4.028 1 4.47 1 4.47 2.17 5.04 1.57 5.573 1.57"/>
      <path d="M6.76500123,1.56250001 L6.76500123,1.87749981 L6.43500043,1.87749981 L6.43500043,2.66500001 C6.43500043,2.76249981 6.44250103,2.82249981 6.45750043,2.84499981 C6.48000043,2.88249971 6.54000093,2.89749961 6.63000103,2.89749961 C6.66750043,2.89749961 6.71250153,2.89749961 6.76500123,2.88999991 L6.76500123,3.25000001 C6.66750053,3.26499991 6.57000063,3.26499991 6.48750113,3.26499991 C6.36000153,3.26499991 6.26250073,3.25000001 6.19500163,3.21999981 C6.09000213,3.17500021 6.03000163,3.09250021 6.00000103,2.96499971 C5.99250032,2.91249991 5.98500162,2.80749991 5.98500162,2.64249941 L5.98500162,1.88500021 L5.71500112,1.88500021 L5.71500112,1.57000041 L5.98500162,1.57000041 L5.98500162,1.1800008 L6.42750083,1.1800008 L6.42750083,1.57000041 L6.76500123,1.57000041 L6.76500123,1.56250001 L6.76500123,1.56250001 Z"/>
      <path fill-rule="nonzero" d="M7.77000053,1.52500011 C8.01750093,1.52500011 8.21249973,1.60749981 8.37000093,1.76499991 C8.52000054,1.92249971 8.60250104,2.13999991 8.60250104,2.40249971 C8.60250104,2.67999941 8.52000054,2.89749961 8.35500063,3.06250001 C8.20500103,3.21250011 8.00250063,3.29500011 7.75500123,3.29500011 C7.49250043,3.29500011 7.28250043,3.21250011 7.13250083,3.04000001 C6.98250013,2.87500001 6.90750033,2.66500001 6.90750033,2.40999981 C6.90750033,2.15499961 6.98250013,1.95249981 7.12500003,1.78749941 C7.28250033,1.61499981 7.50000003,1.52500011 7.77000053,1.52500011 Z M7.74750043,1.86999991 C7.62749963,1.86999991 7.53750043,1.91499971 7.46249963,2.01249981 C7.39500043,2.11000011 7.35750013,2.23750021 7.35750013,2.41000031 C7.35750013,2.58250041 7.39500053,2.71750021 7.46249963,2.80750031 C7.53750043,2.89750001 7.63500023,2.95000071 7.75499913,2.95000071 C7.86749933,2.95000071 7.96500013,2.90500061 8.03249933,2.82250061 C8.10749913,2.72500031 8.14499953,2.59000101 8.14499953,2.41000071 C8.14499953,2.24500071 8.10749913,2.11000051 8.04000003,2.02000081 C7.97249983,1.92250011 7.87500003,1.86999991 7.74750043,1.86999991 Z"/>
      <path d="M9.93750004,1.53999971 L9.93750004,1.97499991 C9.86250024,1.96000031 9.81000044,1.95249991 9.76499944,1.95249991 C9.60000044,1.95249991 9.47999964,2.02000001 9.39750004,2.16249991 C9.35250004,2.23750021 9.33000094,2.37250041 9.33000094,2.55249981 L9.33000094,3.25000001 L8.88750084,3.25000001 L8.88750084,1.56999991 L9.31500064,1.56999991 L9.31500064,1.87749981 C9.43500144,1.65249971 9.61500084,1.53249981 9.84000124,1.53249981 C9.86250024,1.53249981 9.89999964,1.53999971 9.93750004,1.53999971 Z"/>
    </g>
  </g>
</svg>
