<svg xmlns="http://www.w3.org/2000/svg" width="24" height="24" viewBox="0 0 24 24">
  <g fill="none" fill-rule="evenodd">
    <path fill="#2D327D" d="M22.5,0 L1.5,0 C0.675000003,0 0,0.675000003 0,1.5 L0,22.5 C0,23.3250009 0.675000003,24 1.5,24 L22.5,24 C23.3250009,24 24,23.3250009 24,22.5 L24,1.5 C24,0.675000003 23.3250009,0 22.5,0 Z"/>
    <g fill="#FFF" transform="translate(3 2)">
      <path d="M12.9450007 5.50750062L12.9450007 14.5900002C12.9450007 15.3775006 12.8850003 16.0075006 12.7650013 16.4800015 12.6450005 16.9525013 12.4350014 17.3875027 12.1350012 17.7850018 11.3550014 18.812502 10.1475009 19.3225022 8.52000134 19.3225022 6.60000123 19.3225022 5.28000152 18.6775017 4.56000132 17.3875027 4.19250202 16.7125016 4.00500202 15.7525025 4.00500202 14.5150033 4.00500202 14.3950025 4.00500202 14.2075025 4.01250222 13.9525033L6.74250223 13.9525033C6.74250223 14.1100045 6.74250223 14.2375031 6.74250223 14.3425046 6.74250223 15.2500039 6.81750203 15.8500043 6.96750163 16.1575051 7.21500203 16.675005 7.70250223 16.9300042 8.42250154 16.9300042 9.01500124 16.9300042 9.42750074 16.7650033 9.65250104 16.4350034 9.87750044 16.1050035 9.99750134 15.5200025 9.99750134 14.6875039L9.99750134 5.50750062 12.9450007 5.50750062zM1.81499961 1.66750001L1.34999991 1.66750001C1.34250021 1.55500011 1.29750011 1.47250031 1.23000001 1.41249991 1.1624999 1.35249971 1.0574999 1.32250021.922500104 1.32250021.810000103 1.32250021.720000503 1.34500051.652500403 1.39000031.585000302 1.43500011.555000102 1.50250031.555000102 1.58500021.555000102 1.66000021.585000302 1.71250001.645000003 1.74250001.705000203 1.77250021.855000004 1.82500001 1.0949998 1.87750021 1.34999991 1.93750041 1.53000021 2.00500001 1.62749961 2.07250011 1.80749991 2.19250001 1.89749961 2.35750041 1.89749961 2.56750001 1.89749961 2.80000011 1.80749991 2.98750011 1.61999991 3.11500011 1.46250011 3.23500011 1.23750021 3.29500061.967500204 3.29500061.660000303 3.29500061.427500202 3.22750051.255000101 3.08500011.0825000003 2.94250011 0 2.75500011 0 2.50000001L.487500002 2.50000001C.494999902 2.62749961.525000102 2.71750021.585000302 2.77749971.675000003 2.87500001.810000203 2.92000011.990000204 2.92000011 1.1100001 2.92000011 1.20750041 2.89749961 1.28250021 2.84499981 1.36500021 2.79250001 1.40250011 2.71750021 1.40250011 2.61999991 1.40250011 2.52249961 1.34250021 2.45499991 1.23000001 2.40999991 1.1700001 2.38749931 1.02 2.34249971.787499903 2.27499961.645000003 2.23749921.525000102 2.19999931.442500102 2.16249941.360000102 2.12499951.292500001 2.08749961.247500201 2.04249951.135000201 1.93749951.0750000003 1.79499941.0750000003 1.61499981.0750000003 1.39749961.164999701 1.22499991.344999701 1.1049996.494999802.999999604.697499703.939999904.937499904.939999904 1.1550001.939999904 1.32749981.984999704 1.47749991 1.0674997 1.68750001 1.1949999 1.80000021 1.38999991 1.81499961 1.66750001z"/>
      <path fill-rule="nonzero" d="M3.69750022,2.72499991 C3.67500022,2.82250021 3.63000062,2.90500021 3.57000061,2.98750021 C3.42000061,3.18999961 3.21000001,3.28749991 2.93250041,3.28749991 C2.68500051,3.28749991 2.48250061,3.20499991 2.33250051,3.04750011 C2.25750061,2.97250031 2.20500091,2.87500001 2.16000031,2.77000051 C2.11500021,2.65750031 2.09999991,2.53000071 2.09999991,2.41000031 C2.09999991,2.16249991 2.16750001,1.96000031 2.31000041,1.79500051 C2.46750021,1.60750051 2.67000051,1.51750061 2.91750001,1.51750061 C3.11999991,1.51750061 3.29250001,1.57750081 3.42750021,1.70500061 C3.53250021,1.79500051 3.59999991,1.90750051 3.65250112,2.03500081 C3.70500182,2.16250131 3.72000032,2.32750081 3.72000032,2.53000071 L2.55000021,2.53000071 C2.55749991,2.61250071 2.56499961,2.68000081 2.58750011,2.73250061 C2.64750001,2.88250061 2.76000021,2.95000081 2.93249991,2.95000081 C3.01499991,2.95000081 3.08250001,2.93500091 3.13499981,2.89750101 C3.18749961,2.86000061 3.23250011,2.80000071 3.26249941,2.72500041 L3.69750022,2.72499991 L3.69750022,2.72499991 Z M3.27000001,2.23000001 C3.26249981,2.14750001 3.23999981,2.07999991 3.21750021,2.02750021 C3.18750001,1.97500061 3.15000011,1.93000011 3.09750031,1.90000061 C3.04500051,1.87000111 2.98500011,1.85500071 2.92500021,1.85500071 C2.82749991,1.85500071 2.74499991,1.88500071 2.67749981,1.95250081 C2.60999971,2.02000091 2.57249981,2.11000061 2.56499961,2.22250081 L3.27000001,2.22250081 L3.27000001,2.23000001 Z"/>
      <path d="M4.86000152 1.56250001L4.86000152 1.87749981 4.53000072 1.87749981 4.53000072 2.66500001C4.53000072 2.76249981 4.53750132 2.82249981 4.55250072 2.84499981 4.57500122 2.88249971 4.63500122 2.89749961 4.72500132 2.89749961 4.76250122 2.89749961 4.80750182 2.89749961 4.86000152 2.88999991L4.86000152 3.25000001C4.76250122 3.26499991 4.66500092 3.26499991 4.58250142 3.26499991 4.45500182 3.26499991 4.35750152 3.25000001 4.29000192 3.21999981 4.18500232 3.17500021 4.12500242 3.09250021 4.09500172 2.96499971 4.08750102 2.91249991 4.08000182 2.80749991 4.08000182 2.64249941L4.08000182 1.88500021 3.81000142 1.88500021 3.81000142 1.57000041 4.08000192 1.57000041 4.08000192 1.1800008 4.52250152 1.1800008 4.52250152 1.57000041 4.86000152 1.57000041 4.86000152 1.56250001 4.86000152 1.56250001zM6.06000133 1.56250001L6.06000133 1.87749981 5.73000052 1.87749981 5.73000052 2.66500001C5.73000052 2.76249981 5.73750112 2.82249981 5.75250052 2.84499981 5.77500152 2.88249971 5.83500102 2.89749961 5.92500112 2.89749961 5.96250152 2.89749961 6.00750163 2.89749961 6.06000133 2.88999991L6.06000133 3.25000001C5.96250152 3.26499991 5.86500072 3.26499991 5.78250122 3.26499991 5.65500162 3.26499991 5.55750182 3.25000001 5.49000172 3.21999981 5.38500212 3.17500021 5.32500272 3.09250021 5.29500202 2.96499971 5.28750132 2.91249991 5.28000162 2.80749991 5.28000162 2.64249941L5.28000162 1.88500021 5.01000122 1.88500021 5.01000122 1.57000041 5.28000172 1.57000041 5.28000172 1.1800008 5.72250182 1.1800008 5.72250182 1.57000041 6.06000133 1.57000041 6.06000133 1.56250001 6.06000133 1.56250001z"/>
      <path fill-rule="nonzero" d="M7.06499963,1.52500011 C7.31250003,1.52500011 7.50749973,1.60749981 7.66500003,1.76499991 C7.81499963,1.92249971 7.89750013,2.13999991 7.89750013,2.40249971 C7.89750013,2.67999941 7.81499963,2.89749961 7.64999973,3.06250001 C7.50000003,3.21250011 7.29750063,3.29500011 7.05000023,3.29500011 C6.78750043,3.29500011 6.57749943,3.21250011 6.42749983,3.04000001 C6.27750023,2.87500001 6.20249943,2.66500001 6.20249943,2.40999981 C6.20249943,2.15499961 6.27750023,1.95249981 6.41999913,1.78749941 C6.57749943,1.61499981 6.79500013,1.52500011 7.06499963,1.52500011 Z M7.04249953,1.86999991 C6.92249873,1.86999991 6.83249953,1.91499971 6.75749973,2.01249981 C6.68999963,2.11000011 6.65250023,2.23750021 6.65250023,2.41000031 C6.65250023,2.58250041 6.68999963,2.71750021 6.75749973,2.80750031 C6.83249953,2.89750001 6.92999943,2.95000081 7.04999923,2.95000081 C7.16249843,2.95000081 7.25999923,2.90500071 7.32749843,2.82250071 C7.40249823,2.72500041 7.43999863,2.59000111 7.43999863,2.41000081 C7.43999863,2.24500081 7.40249823,2.11000061 7.33499913,2.02000091 C7.26749993,1.92250011 7.17000013,1.86999991 7.04249953,1.86999991 Z"/>
      <path d="M9.23250014,1.53999971 L9.23250014,1.97499991 C9.15750034,1.96000031 9.10500054,1.95249991 9.06000044,1.95249991 C8.89500044,1.95249991 8.77499964,2.02000001 8.69250104,2.16249991 C8.64750004,2.23750021 8.62500104,2.37250041 8.62500104,2.55249981 L8.62500104,3.25000001 L8.17500023,3.25000001 L8.17500023,1.56999991 L8.60250004,1.56999991 L8.60250004,1.87749981 C8.72249994,1.65249971 8.90250024,1.53249981 9.12749964,1.53249981 C9.15750034,1.53249981 9.19500064,1.53999971 9.23250014,1.53999971 Z"/>
      <path fill-rule="nonzero" d="M10.9424992,2.72499991 C10.9199992,2.82250021 10.875,2.90500021 10.8149996,2.98750021 C10.665,3.18999961 10.4549999,3.28749991 10.1774998,3.28749991 C9.92999944,3.28749991 9.72750004,3.20499991 9.57749944,3.04750011 C9.50249964,2.97250031 9.44999984,2.87500001 9.40499974,2.77000051 C9.35999874,2.65750031 9.34499934,2.53000071 9.34499934,2.41000041 C9.34499934,2.16250001 9.41249854,1.96000041 9.55499934,1.79500061 C9.71249964,1.60750061 9.91499994,1.51750071 10.1625003,1.51750071 C10.3649997,1.51750071 10.5375003,1.57750091 10.6799993,1.70500071 C10.7849988,1.79500061 10.8524999,1.90750061 10.9049997,2.03500091 C10.9574995,2.16250141 10.9724989,2.32750091 10.9724989,2.53000081 L9.80249884,2.53000081 C9.80999944,2.61250081 9.81749824,2.68000091 9.83999824,2.73250071 C9.89999864,2.88250081 10.0124988,2.95000091 10.1849994,2.95000091 C10.2674999,2.95000091 10.334999,2.93500101 10.3874988,2.89750111 C10.4399986,2.86000071 10.4849986,2.80000081 10.5149984,2.72500051 L10.9424992,2.72499991 L10.9424992,2.72499991 Z M10.5149994,2.23000001 C10.5074997,2.14750001 10.4850006,2.07999991 10.4624996,2.02750011 C10.4325008,1.97500061 10.3950004,1.93000001 10.3424997,1.90000051 C10.289999,1.87000101 10.2299995,1.85500071 10.1699991,1.85500071 C10.0724993,1.85500071 9.98999974,1.88500071 9.92249874,1.95250081 C9.85499864,2.02000091 9.81749924,2.11000061 9.80999954,2.22250081 L10.5149994,2.22250081 L10.5149994,2.23000001 L10.5149994,2.23000001 Z"/>
    </g>
  </g>
</svg>
