<svg xmlns="http://www.w3.org/2000/svg" width="24" height="24" viewBox="0 0 24 24">
  <g fill="none" fill-rule="evenodd">
    <path fill="#2D327D" d="M22.5,0 L1.5,0 C0.675000003,0 0,0.675000003 0,1.5 L0,22.5 C0,23.3250009 0.675000003,24 1.5,24 L22.5,24 C23.3250009,24 24,23.3250009 24,22.5 L24,1.5 C24,0.675000003 23.3250009,0 22.5,0 Z"/>
    <g fill="#FFF" transform="translate(2 3)">
      <path d="M4.13500022,12.2250005 C3.88749982,11.9399996 3.55750031,11.7749996 3.20499991,11.7150002 C3.15250011,11.4824992 3.04750011,11.2649994 2.88249971,11.0774994 C2.39500001,10.5299997 1.56999991,10.4549999 0.992499604,10.8899994 C1.0449994,10.6725006 1.1499994,10.4549999 1.32249981,10.2449989 C1.77999951,9.68249894 2.13999991,9.56999974 2.37999971,9.44999884 C1.99749981,9.23999884 1.45749931,9.11249924 1.1499994,9.14999864 C1.0449994,9.16499894 1.1124995,8.93249894 1.1274991,8.87249944 C1.1574993,8.78249924 1.20999911,8.63999844 1.41249941,8.66999914 C1.70499941,8.70749954 2.4924996,9.18749904 2.59749981,9.26999954 C2.75499961,9.04499914 2.88249961,8.67749984 3.54999921,8.25749973 C3.68499942,8.17499923 3.81999922,8.10749913 3.95499942,8.06249913 C3.59499931,8.57999804 3.60250002,9.27749824 4.01499992,9.74249844 C4.22499992,9.97499854 4.50249962,10.1174984 4.80249982,10.1549988 C4.77250002,10.6049986 4.91500002,11.0624991 5.23750022,11.4224977 C5.64249952,11.8799982 6.23500063,12.0674983 6.79750063,11.9774971 C6.78250033,12.1949969 6.73750023,12.3749982 6.66250043,12.4874974 C6.38500023,12.9149972 6.22750003,12.8774978 5.91249992,13.154997 C5.60499952,13.4399968 5.62749962,13.5899965 5.16249992,13.8224965 C4.99750042,13.904997 4.72750002,13.9199964 4.39750002,13.8749982 C4.63749982,13.3424989 4.55500032,12.6899997 4.13500022,12.2250005 Z"/>
      <polygon points="5.635 3.502 7.472 8.558 11.448 7.748 11.102 2.377"/>
      <path d="M12.5874997,11.3625002 L11.3874998,11.3625002 C10.6450004,12.6450006 9.70750044,14.2724992 9.18999964,15.165001 C8.97999964,15.5249997 9.10749914,15.9825002 9.47500044,16.1925012 L12.4299995,17.8950025 C12.7900001,18.1050016 13.2549993,17.9850046 13.4650003,17.625002 L15.2875005,14.4675027 L13.0149995,14.2950021 L12.5874997,11.3625002 Z"/>
      <path d="M18.9025003,4.74750042 L17.5975019,3.98999982 C17.5074998,3.93750002 17.3950006,3.96749982 17.3425027,4.05749942 L17.1475011,4.39499952 C17.0950013,4.47750002 17.125002,4.58999972 17.2075006,4.64249942 L17.2150003,4.65000002 C17.2150003,4.65000002 15.9400007,6.45750043 15.4375001,7.32749933 C14.9349996,8.19750013 13.0375005,8.48999974 12.1674996,10.0049991 C12.1224995,10.0799999 12.0774994,10.1625003 12.0249997,10.2524995 L13.5475007,10.2524995 L13.9825002,13.2599983 L15.8950006,13.4024982 L16.4275018,12.4724988 C17.2975007,10.9574993 16.6075002,9.17249854 17.1100007,8.30249863 L17.1100007,8.30249863 C17.6125031,7.43249783 18.5125028,5.41499882 18.5125028,5.41499882 L18.5275041,5.42249852 C18.6175043,5.46749952 18.7225038,5.42999912 18.7675039,5.34749872 L18.9625055,5.00999912 C19.0299989,4.92000062 18.9925004,4.80000022 18.9025003,4.74750042 Z"/>
      <polygon points="10.72 .615 10.36 .735 9.992 0 5.463 1.905 5.515 2.287 5.117 2.415 5.23 3.03 10.99 1.185"/>
    </g>
  </g>
</svg>
