<svg xmlns="http://www.w3.org/2000/svg" width="24" height="24" viewBox="0 0 24 24">
  <g fill="none" fill-rule="evenodd">
    <path fill="#2D327D" d="M22.5,0 L1.5,0 C0.675000003,0 0,0.675000003 0,1.5 L0,22.5 C0,23.3250009 0.675000003,24 1.5,24 L22.5,24 C23.3250009,24 24,23.3250009 24,22.5 L24,1.5 C24,0.675000003 23.3250009,0 22.5,0 Z"/>
    <g fill="#FFF" transform="translate(2 3)">
      <path d="M2.07999991 6.12000083C2.06500051 6.09749983 2.05000021 6.06750103 2.03500031 6.04500003 1.70500021 5.47500042 1.37500001 4.91249992 1.0450006 4.34250072.985000204 4.23750122.977500504 4.13250072 1.0450006 4.02750112 1.21750071 3.73500162 1.39000041 3.43500091 1.56250051 3.13500071 1.57000041 3.12750101 1.57000041 3.12000081 1.57750041 3.11250071 1.39750031 3.00750071 1.22500071 2.90250021 1.0450006 2.79750061L1.0450006 2.79000091C1.0525003 2.79000091 1.0600002 2.79000091 1.0750006 2.79000091 1.63750061 2.79000091 2.20000081 2.79000091 2.75500071 2.79000091 2.77000061 2.79000091 2.78500091 2.79000091 2.80000081 2.81250091 3.08500111 3.30750081 3.37750071 3.80250072 3.66250052 4.29000091 3.66250052 4.29750152 3.67000072 4.29750152 3.67750042 4.31250092 3.49000041 4.20750142 3.31750031 4.10250092 3.13750091 3.99750132 3.13000071 4.01250122 3.12250101 4.02000132 3.11500041 4.02750102 2.79250021 4.59000102 2.47000041 5.14500042 2.14750021 5.70750042 2.07999991 5.82750132 2.05000021 5.95500092 2.08750011 6.09000113 2.08750011 6.10499953 2.08750011 6.11250023 2.07999991 6.12000083 2.07999991 6.11250023 2.07999991 6.12000083 2.07999991 6.12000083zM7.07499983 1.0725002C7.25499923.967500204 7.42749983.870000304 7.61499983.765000303 7.60749913.780000203 7.60749913.787500603 7.60000043.795000603 7.32250023 1.28250031 7.03750043 1.77000051 6.76000023 2.25750071 6.75249963 2.27250011 6.74500083 2.28000071 6.72249983 2.28000071 6.15250013 2.28000071 5.58250042 2.28000071 5.01249982 2.28750041 5.00499962 2.28750041 5.00499962 2.28750041 4.98999982 2.28750041 5.16999922 2.18250041 5.34999992 2.07750041 5.52250012 1.97250081 5.51499992 1.95750091 5.50750062 1.95000081 5.50000002 1.93500091 5.18500042 1.38000061 4.86250022.825000503 4.54750012.270000501 4.47250032.142500601 4.37500002.0525002002 4.23250062.0150003001 4.22500042.0150003001 4.22500042.00750040003 4.21750072.00750040003 4.23250062.00750040003 4.24750092.00750040003 4.25500062.00750040003 4.90000112.00750040003 5.54500062.00750040003 6.19000053 5e-7 6.25000093 5e-7 6.31000133 5e-7 6.36250113.00750040003 6.44500163.0225003001 6.49750133.0750005003 6.54250053.142500601 6.71500113.450000502 6.88750083.750000403 7.06750113 1.0575003 7.06749923 1.0649996 7.06749923 1.0649996 7.07499983 1.0725002zM5.88250062 6.94500063C5.88250062 7.15500063 5.88250062 7.35750003 5.88250062 7.56000043L5.87500002 7.56000043C5.86749942 7.55249983 5.86749942 7.54500013 5.86000012 7.53750043 5.58250042 7.05000023 5.29750012 6.56250003 5.02000042 6.07499983 5.01249982 6.06000043 5.00500052 6.05249983 5.02000042 6.02999973 5.30500082 5.53499892 5.59000112 5.03249932 5.87500002 4.53749992 5.87500002 4.53749992 5.88250062 4.52999972 5.88250062 4.52250002 5.88250062 4.73250052 5.88250062 4.93500042 5.88250062 5.14500042 5.89750002 5.14500042 5.91249992 5.14500042 5.92000052 5.14500042 6.56500053 5.14500042 7.21000003 5.14500042 7.84749983 5.14500042 7.98999973 5.14500042 8.11750033 5.10000032 8.22249983 5.00250052 8.22249983 5.00250052 8.23000043 4.99500032 8.23750013 4.98750112 8.22999953 5.00250052 8.22249983 5.01750082 8.21500013 5.02500152 7.89249993 5.58750152 7.56999963 6.15000153 7.24750043 6.71250153 7.21750073 6.76500133 7.18750003 6.81000143 7.14999963 6.85500053 7.09749983 6.91500093 7.02999973 6.93750103 6.95499993 6.93750103 6.78249933 6.93750103 6.60999873 6.93750103 6.43750003 6.93750103 6.26499943 6.93750103 6.09249973 6.93750103 5.92000062 6.93750103 5.91249992 6.94500063 5.89750002 6.94500063 5.88250062 6.94500063z"/>
      <path d="M4.59250022 5.15250022C4.59250022 5.74499902 4.59250022 6.33749973 4.59250022 6.93750003 4.57750032 6.93750003 4.56999972 6.93750003 4.55500032 6.93750003 4.14249992 6.93750003 3.72250032 6.94500063 3.31000041 6.93750003 2.93500041 6.92250063 2.65000011 6.75000003 2.49250031 6.40499973 2.42500021 6.25499923 2.38749981 6.09749893 2.41750001 5.93249892 2.42500021 5.87999922 2.44000051 5.83499912 2.46250011 5.79000002 2.57499981 5.58749972 2.69499971 5.38500032 2.81499961 5.18249902 2.82249981 5.15999902 2.83750011 5.15999902 2.85999971 5.15999902 3.42999941 5.15999902 3.99249942 5.15999902 4.56250002 5.15999902 4.56999972 5.15250022 4.57749992 5.15250022 4.59250022 5.15250022zM6.19750023 3.31499961C6.70750043 3.01499991 7.22500043 2.72249991 7.73500063 2.42249971 7.74250033 2.43749961 7.75000003 2.44499971 7.75750063 2.45249991 7.96750063 2.81250001 8.18500043 3.16500001 8.38000103 3.52500011 8.52250004 3.77999972 8.54500004 4.05750042 8.42500114 4.32749992 8.34250063 4.51499992 8.21500113 4.66500002 8.03500173 4.76999952 7.96000103 4.81499962 7.87750053 4.83749872 7.79500203 4.83749872 7.57000163 4.83749872 7.33750153 4.83749872 7.11250123 4.83749872 7.09750183 4.83749872 7.08250153 4.83749872 7.07500083 4.81499872 6.79000093 4.31999832 6.50500113 3.82499892 6.22000123 3.32249831 6.20499993 3.32999991 6.20499993 3.32250021 6.19750023 3.31499961zM2.26000021 1.77000001C2.31250001 1.67249971 2.36500021 1.58250001 2.41750001 1.48499971 2.57499981 1.2075 2.73250011.929999603 2.89000031.652499702 3.03250031.412499901 3.24250031.27 3.52000051.2249999 3.73750072.1949999 3.94000062.2324998 4.13500032.337500101 4.21000002.382499901 4.27000052.435000201 4.30750042.510000201 4.42000062.705000102 4.53250032.907500503 4.65250112 1.1025004 4.66000132 1.1175003 4.66750052 1.1325006 4.65250112 1.1475 4.36750082 1.64249991 4.09000112 2.13749981 3.80500082 2.63250061 3.80500082 2.64000031 3.79750062 2.64750001 3.79000092 2.65500061 3.28749991 2.36250021 2.77000001 2.06999971 2.26000021 1.77000001zM12.6025001 4.87500002C12.5275003 4.93500042 12.4600001 5.01000022 12.4074994 5.09249972L7.47999953 13.619999 13.9750004 17.369999 18.9025002 8.85000034C18.9550019 8.76749994 18.9850007 8.67000014 19.0000001 8.57250024L12.6025001 4.87500002z"/>
      <path fill-rule="nonzero" d="M18.6849996,6.81000043 C18.6625005,6.70500093 18.5949975,6.61499983 18.5049993,6.55500033 L17.3575002,5.88750082 L17.3575002,5.88750082 L17.6425,5.40000162 C17.7474995,5.22000132 17.6875001,4.99500192 17.5074998,4.89000092 L16.5325013,4.32750092 C16.352501,4.22250142 16.1275006,4.28250032 16.0225011,4.46250112 L15.7375032,4.95000132 L14.5825025,4.28250182 C14.4925023,4.23000202 14.3725034,4.21500222 14.2750017,4.25250212 L13.4875023,4.52250262 L18.8500025,7.62000293 L18.6849996,6.81000043 Z M16.0599996,5.14500052 C16.2174989,4.87500002 16.5625001,4.78500032 16.8250009,4.94250062 C17.0874998,5.10000132 17.1849996,5.44500072 17.0275003,5.70750052 L17.0275003,5.70750052 L16.2925016,5.28000072 L16.0599996,5.14500052 Z"/>
      <path d="M7.82499983,15.4424993 C7.85499953,15.5249998 7.91500003,15.6000005 7.98999983,15.6450006 L11.9724989,17.9400007 C12.0474988,17.9850007 12.1449996,18.0000001 12.2274991,17.9850007 L13.2174989,17.790001 L7.48749743,14.4825002 L7.82499983,15.4424993 Z"/>
    </g>
  </g>
</svg>
