<svg xmlns="http://www.w3.org/2000/svg" width="24" height="24" viewBox="0 0 24 24">
  <g fill="none" fill-rule="evenodd">
    <path fill="#2D327D" d="M22.5,0 L1.5,0 C0.675000003,0 0,0.675000003 0,1.5 L0,22.5 C0,23.3250009 0.675000003,24 1.5,24 L22.5,24 C23.3250009,24 24,23.3250009 24,22.5 L24,1.5 C24,0.675000003 23.3250009,0 22.5,0 Z"/>
    <g fill="#FFF" transform="translate(2 3)">
      <path d="M10.4799995,9.60000044 L9.20499994,9.60000044 C8.24499893,11.2649994 6.98499873,13.4400007 6.36999893,14.5125009 C6.15999893,14.8724996 6.28749843,15.3300001 6.64749913,15.5400011 L10.7424994,17.9025003 C11.1025,18.1124993 11.5599995,17.9850007 11.7699995,17.6250001 L14.1024991,13.5900003 L11.0349989,13.3575002 L10.4799995,9.60000044 Z"/>
      <path d="M18.8799993 1.0124998L17.1924993.0374999001C17.0649988-.0225003001 16.8999998.0225003 16.8325006.150000101 16.8025018.202499901 16.7875005.262500101 16.7950002.314999801L16.7950002.314999801 16.7950002.322499701C16.8100015.449999302 16.727501.577499802 16.6075002.622499703L16.5625001.637499303C16.4950009.652499203 16.4275018.697499703 16.3900014.764999103 16.3675023.802499203 16.2999993.974999404 16.2925016.989999204 16.2550012 1.1024989 16.2925016 1.22999901 16.3975011 1.30499881 16.2175027 1.55999891 15.0325013 3.28499881 14.4400006 4.30499932 13.7950002 5.41500002 11.3950005 5.79749872 10.2775011 7.73249913 10.1725016 7.91999913 10.022501 8.17499923 9.84250074 8.48249914L11.4400005 8.48249914 11.9950008 12.3149987 14.7100011 12.5174981 15.6700002 10.852499C16.7875005 8.91749864 15.9174997 6.64499853 16.5625001 5.53499892L16.5625001 5.53499892C17.1549989 4.50749922 18.0474988 2.62499911 18.1825009 2.33999921 18.2950001 2.39249901 18.4300004 2.36249921 18.5049992 2.27249911 18.5200005 2.25749921 18.6324997 2.11499931 18.6549988 2.07749941 18.6924992 2.00999931 18.7000008 1.93499901 18.6849995 1.85999921L18.6774979 1.81499911C18.6549988 1.68749951 18.7224999 1.55249931 18.8425007 1.49999951L18.8500004 1.49999951 18.8500004 1.49999951C18.9025002 1.47749901 18.9474983 1.43999911 18.9775009 1.38749931 19.0375005 1.25249961 19.0000001 1.0949998 18.8799993 1.0124998zM2.07999991 6.12000083C2.06500051 6.09749983 2.05000021 6.06750103 2.03500031 6.04500003 1.70500021 5.47500042 1.37500001 4.91249992 1.0450006 4.34250072.985000204 4.23750122.977500504 4.13250072 1.0450006 4.02750112 1.21750071 3.73500162 1.39000041 3.43500091 1.56250051 3.13500071 1.57000041 3.12750101 1.57000041 3.12000081 1.57750041 3.11250071 1.39750031 3.00750071 1.22500071 2.90250021 1.0450006 2.79750061L1.0450006 2.79000091C1.0525003 2.79000091 1.0600002 2.79000091 1.0750006 2.79000091 1.63750061 2.79000091 2.20000081 2.79000091 2.75500071 2.79000091 2.77000061 2.79000091 2.78500091 2.79000091 2.80000081 2.81250091 3.08500111 3.30750081 3.37750071 3.80250072 3.66250052 4.29000091 3.66250052 4.29750152 3.67000072 4.29750152 3.67750042 4.31250092 3.49000041 4.20750142 3.31750031 4.10250092 3.13750091 3.99750132 3.13000071 4.01250122 3.12250101 4.02000132 3.11500041 4.02750102 2.79250021 4.59000102 2.47000041 5.14500042 2.14750021 5.70750042 2.07999991 5.82750132 2.05000021 5.95500092 2.08750011 6.09000113 2.08750011 6.10499953 2.08750011 6.11250023 2.07999991 6.12000083 2.07999991 6.11250023 2.07999991 6.12000083 2.07999991 6.12000083zM7.07499983 1.0725002C7.25499923.967500204 7.42749983.870000304 7.61499983.765000303 7.60749913.780000203 7.60749913.787500603 7.60000043.795000603 7.32250023 1.28250031 7.03750043 1.77000051 6.76000023 2.25750071 6.75249963 2.27250011 6.74500083 2.28000071 6.72249983 2.28000071 6.15250013 2.28000071 5.58250042 2.28000071 5.01249982 2.28750041 5.00499962 2.28750041 5.00499962 2.28750041 4.98999982 2.28750041 5.16999922 2.18250041 5.34999992 2.07750041 5.52250012 1.97250081 5.51499992 1.95750091 5.50750062 1.95000081 5.50000002 1.93500091 5.18500042 1.38000061 4.86250022.825000503 4.54750012.270000501 4.47250032.142500601 4.37500002.0525002002 4.23250062.0150003001 4.22500042.0150003001 4.22500042.00750040003 4.21750072.00750040003 4.23250062.00750040003 4.24750092.00750040003 4.25500062.00750040003 4.90000112.00750040003 5.54500062.00750040003 6.19000053 5e-7 6.25000093 5e-7 6.31000133 5e-7 6.36250113.00750040003 6.44500163.0225003001 6.49750133.0750005003 6.54250053.142500601 6.71500113.450000502 6.88750083.750000403 7.06750113 1.0575003 7.06749923 1.0649996 7.06749923 1.0649996 7.07499983 1.0725002zM5.88250062 6.94500063C5.88250062 7.15500063 5.88250062 7.35750003 5.88250062 7.56000043L5.87500002 7.56000043C5.86749942 7.55249983 5.86749942 7.54500013 5.86000012 7.53750043 5.58250042 7.05000023 5.29750012 6.56250003 5.02000042 6.07499983 5.01249982 6.06000043 5.00500052 6.05249983 5.02000042 6.02999973 5.30500082 5.53499892 5.59000112 5.03249932 5.87500002 4.53749992 5.87500002 4.53749992 5.88250062 4.52999972 5.88250062 4.52250002 5.88250062 4.73250052 5.88250062 4.93500042 5.88250062 5.14500042 5.89750002 5.14500042 5.91249992 5.14500042 5.92000052 5.14500042 6.56500053 5.14500042 7.21000003 5.14500042 7.84749983 5.14500042 7.98999973 5.14500042 8.11750033 5.10000032 8.22249983 5.00250052 8.22249983 5.00250052 8.23000043 4.99500032 8.23750013 4.98750112 8.22999953 5.00250052 8.22249983 5.01750082 8.21500013 5.02500152 7.89249993 5.58750152 7.56999963 6.15000153 7.24750043 6.71250153 7.21750073 6.76500133 7.18750003 6.81000143 7.14999963 6.85500053 7.09749983 6.91500093 7.02999973 6.93750103 6.95499993 6.93750103 6.78249933 6.93750103 6.60999873 6.93750103 6.43750003 6.93750103 6.26499943 6.93750103 6.09249973 6.93750103 5.92000062 6.93750103 5.91249992 6.94500063 5.89750002 6.94500063 5.88250062 6.94500063z"/>
      <path d="M4.59250022 5.15250022C4.59250022 5.74499902 4.59250022 6.33749973 4.59250022 6.93750003 4.57750032 6.93750003 4.56999972 6.93750003 4.55500032 6.93750003 4.14249992 6.93750003 3.72250032 6.94500063 3.31000041 6.93750003 2.93500041 6.92250063 2.65000011 6.75000003 2.49250031 6.40499973 2.42500021 6.25499923 2.38749981 6.09749893 2.41750001 5.93249892 2.42500021 5.87999922 2.44000051 5.83499912 2.46250011 5.79000002 2.57499981 5.58749972 2.69499971 5.38500032 2.81499961 5.18249902 2.82249981 5.15999902 2.83750011 5.15999902 2.85999971 5.15999902 3.42999941 5.15999902 3.99249942 5.15999902 4.56250002 5.15999902 4.56999972 5.15250022 4.57749992 5.15250022 4.59250022 5.15250022zM6.19750023 3.31499961C6.70750043 3.01499991 7.22500043 2.72249991 7.73500063 2.42249971 7.74250033 2.43749961 7.75000003 2.44499971 7.75750063 2.45249991 7.96750063 2.81250001 8.18500043 3.16500001 8.38000103 3.52500011 8.52250004 3.77999972 8.54500004 4.05750042 8.42500114 4.32749992 8.34250063 4.51499992 8.21500113 4.66500002 8.03500173 4.76999952 7.96000103 4.81499962 7.87750053 4.83749872 7.79500203 4.83749872 7.57000163 4.83749872 7.33750153 4.83749872 7.11250123 4.83749872 7.09750183 4.83749872 7.08250153 4.83749872 7.07500083 4.81499872 6.79000093 4.31999832 6.50500113 3.82499892 6.22000123 3.32249831 6.20499993 3.32999991 6.20499993 3.32250021 6.19750023 3.31499961zM2.26000021 1.77000001C2.31250001 1.67249971 2.36500021 1.58250001 2.41750001 1.48499971 2.57499981 1.2075 2.73250011.929999603 2.89000031.652499702 3.03250031.412499901 3.24250031.27 3.52000051.2249999 3.73750072.1949999 3.94000062.2324998 4.13500032.337500101 4.21000002.382499901 4.27000052.435000201 4.30750042.510000201 4.42000062.705000102 4.53250032.907500503 4.65250112 1.1025004 4.66000132 1.1175003 4.66750052 1.1325006 4.65250112 1.1475 4.36750082 1.64249991 4.09000112 2.13749981 3.80500082 2.63250061 3.80500082 2.64000031 3.79750062 2.64750001 3.79000092 2.65500061 3.28749991 2.36250021 2.77000001 2.06999971 2.26000021 1.77000001z"/>
    </g>
  </g>
</svg>
