<svg xmlns="http://www.w3.org/2000/svg" width="24" height="24" viewBox="0 0 24 24">
  <g fill="none" fill-rule="evenodd">
    <path fill="#2D327D" d="M22.5,0 L1.5,0 C0.675000003,0 0,0.675000003 0,1.5 L0,22.5 C0,23.3250009 0.675000003,24 1.5,24 L22.5,24 C23.3250009,24 24,23.3250009 24,22.5 L24,1.5 C24,0.675000003 23.3250009,0 22.5,0 Z"/>
    <g fill="#FFF" transform="translate(2 3)">
      <path d="M2.07999991 6.12000083C2.06500051 6.09749983 2.05000021 6.06750103 2.03500031 6.04500003 1.70500021 5.47500042 1.37500001 4.91249992 1.0450006 4.34250072.985000204 4.23750122.977500504 4.13250072 1.0450006 4.02750112 1.21750071 3.73500162 1.39000041 3.43500091 1.56250051 3.13500071 1.57000041 3.12750101 1.57000041 3.12000081 1.57750041 3.11250071 1.39750031 3.00750071 1.22500071 2.90250021 1.0450006 2.79750061L1.0450006 2.79000091C1.0525003 2.79000091 1.0600002 2.79000091 1.0750006 2.79000091 1.63750061 2.79000091 2.20000081 2.79000091 2.75500071 2.79000091 2.77000061 2.79000091 2.78500091 2.79000091 2.80000081 2.81250091 3.08500111 3.30750081 3.37750071 3.80250072 3.66250052 4.29000091 3.66250052 4.29750152 3.67000072 4.29750152 3.67750042 4.31250092 3.49000041 4.20750142 3.31750031 4.10250092 3.13750091 3.99750132 3.13000071 4.01250122 3.12250101 4.02000132 3.11500041 4.02750102 2.79250021 4.59000102 2.47000041 5.14500042 2.14750021 5.70750042 2.07999991 5.82750132 2.05000021 5.95500092 2.08750011 6.09000113 2.08750011 6.10499953 2.08750011 6.11250023 2.07999991 6.12000083 2.07999991 6.11250023 2.07999991 6.12000083 2.07999991 6.12000083zM7.07499983 1.0725002C7.25499923.967500204 7.42749983.870000304 7.61499983.765000303 7.60749913.780000203 7.60749913.787500603 7.60000043.795000603 7.32250023 1.28250031 7.03750043 1.77000051 6.76000023 2.25750071 6.75249963 2.27250011 6.74500083 2.28000071 6.72249983 2.28000071 6.15250013 2.28000071 5.58250042 2.28000071 5.01249982 2.28750041 5.00499962 2.28750041 5.00499962 2.28750041 4.98999982 2.28750041 5.16999922 2.18250041 5.34999992 2.07750041 5.52250012 1.97250081 5.51499992 1.95750091 5.50750062 1.95000081 5.50000002 1.93500091 5.18500042 1.38000061 4.86250022.825000503 4.54750012.270000501 4.47250032.142500601 4.37500002.0525002002 4.23250062.0150003001 4.22500042.0150003001 4.22500042.00750040003 4.21750072.00750040003 4.23250062.00750040003 4.24750092.00750040003 4.25500062.00750040003 4.90000112.00750040003 5.54500062.00750040003 6.19000053 5e-7 6.25000093 5e-7 6.31000133 5e-7 6.36250113.00750040003 6.44500163.0225003001 6.49750133.0750005003 6.54250053.142500601 6.71500113.450000502 6.88750083.750000403 7.06750113 1.0575003 7.06750113 1.0575004 7.06749923 1.0649996 7.07499983 1.0725002zM5.88250062 6.94500063C5.88250062 7.15500063 5.88250062 7.35750003 5.88250062 7.56000043L5.87500002 7.56000043C5.86749942 7.55249983 5.86749942 7.54500013 5.86000012 7.53750043 5.58250042 7.05000023 5.29750012 6.56250003 5.02000042 6.07499983 5.01249982 6.06000043 5.00500052 6.05249983 5.02000042 6.02999973 5.30500082 5.53499892 5.59000112 5.03249932 5.87500002 4.53749992 5.87500002 4.53749992 5.88250062 4.52999972 5.88250062 4.52250002 5.88250062 4.73250052 5.88250062 4.93500042 5.88250062 5.14500042 5.89750002 5.14500042 5.91249992 5.14500042 5.92000052 5.14500042 6.56500053 5.14500042 7.21000003 5.14500042 7.84749983 5.14500042 7.98999973 5.14500042 8.11750033 5.10000032 8.22249983 5.00250052 8.22249983 5.00250052 8.23000043 4.99500032 8.23750013 4.98750112 8.22999953 5.00250052 8.22249983 5.01750082 8.21500013 5.02500152 7.89249993 5.58750152 7.56999963 6.15000153 7.24750043 6.71250153 7.21750073 6.76500133 7.18750003 6.81000143 7.14999963 6.85500053 7.09749983 6.91500093 7.02999973 6.93750103 6.95499993 6.93750103 6.78249933 6.93750103 6.60999873 6.93750103 6.43750003 6.93750103 6.26499943 6.93750103 6.09249973 6.93750103 5.92000062 6.93750103 5.91249992 6.94500063 5.89750002 6.94500063 5.88250062 6.94500063z"/>
      <path d="M4.59250022 5.15250022C4.59250022 5.74499902 4.59250022 6.33749973 4.59250022 6.93750003 4.57750032 6.93750003 4.56999972 6.93750003 4.55500032 6.93750003 4.14249992 6.93750003 3.72250032 6.94500063 3.31000041 6.93750003 2.93500041 6.92250063 2.65000011 6.75000003 2.49250031 6.40499973 2.42500021 6.25499923 2.38749981 6.09749893 2.41750001 5.93249892 2.42500021 5.87999922 2.44000051 5.83499912 2.46250011 5.79000002 2.57499981 5.58749972 2.69499971 5.38500032 2.81499961 5.18249902 2.82249981 5.15999902 2.83750011 5.15999902 2.85999971 5.15999902 3.42999941 5.15999902 3.99249942 5.15999902 4.56250002 5.15999902 4.56999972 5.15250022 4.57749992 5.15250022 4.59250022 5.15250022zM6.19750023 3.31499961C6.70750043 3.01499991 7.22500043 2.72249991 7.73500063 2.42249971 7.74250033 2.43749961 7.75000003 2.44499971 7.75750063 2.45249991 7.96750063 2.81250001 8.18500043 3.16500001 8.38000103 3.52500011 8.52250004 3.77999972 8.54500004 4.05750042 8.42500114 4.32749992 8.34250063 4.51499992 8.21500113 4.66500002 8.03500173 4.76999952 7.96000103 4.81499962 7.87750053 4.83749872 7.79500203 4.83749872 7.57000163 4.83749872 7.33750153 4.83749872 7.11250123 4.83749872 7.09750183 4.83749872 7.08250153 4.83749872 7.07500083 4.81499872 6.79000093 4.31999832 6.50500113 3.82499892 6.22000123 3.32249831 6.20499993 3.32999991 6.20499993 3.32250021 6.19750023 3.31499961zM2.26000021 1.77000001C2.31250001 1.67249971 2.36500021 1.58250001 2.41750001 1.48499971 2.57499981 1.2075 2.73250011.929999603 2.89000031.652499702 3.03250031.412499901 3.24250031.27 3.52000051.2249999 3.73750072.1949999 3.94000062.2324998 4.13500032.337500101 4.21000002.382499901 4.27000052.435000201 4.30750042.510000201 4.42000062.705000102 4.53250032.907500503 4.65250112 1.1025004 4.66000132 1.1175003 4.66750052 1.1325006 4.65250112 1.1475 4.36750082 1.64249991 4.09000112 2.13749981 3.80500082 2.63250061 3.80500082 2.64000031 3.79750062 2.64750001 3.79000092 2.65500061 3.28749991 2.36250021 2.77000001 2.06999971 2.26000021 1.77000001zM18.9474984 2.72250031C19.0525018 2.54250001 18.9925004 2.31750011 18.8125001 2.21250011L17.0275003 1.1774998C16.8475019 1.0724998 16.6225015 1.1324997 16.517502 1.31250001L16.0525018 2.12250041 18.4900018 3.53250021 18.9474984 2.72250031zM9.11499984 10.7624998C9.08500004 10.8000002 9.06250004 10.8374996 9.04000004 10.8825006L9.04000004 10.8825006C9.04000004 10.8825006 6.95500003 14.4900017 6.93999963 14.5200005 6.70749953 14.9249993 6.84249983 15.4424992 7.24750043 15.6749993 7.49500083 15.8174992 7.79500013 15.8174992 8.03499983 15.705 8.08000083 15.3599988 8.09500023 14.9624997 8.07250023 14.5424996L8.81499964 14.5049992C8.85250004 15.2174988 8.80000024 15.8549996 8.67250064 16.3424988 8.81499964 16.5224991 8.98750024 16.6875 9.19750024 16.8075009 9.40750024 16.9275018 9.63250064 17.0025006 9.86499974 17.0325013 10.2250003 16.6725007 10.7499999 16.3125001 11.3874997 15.9900018L11.7250003 16.6499997C11.3500003 16.8374997 11.0049991 17.0550004 10.7350005 17.2650014 10.7575005 17.5350019 10.8999995 17.790001 11.1550006 17.9325009 11.5600003 18.165001 12.0775013 18.0299988 12.3100004 17.6250001 12.3249998 17.5950013 14.4099998 13.9874993 14.4099998 13.9874993L14.4099998 13.9874993C14.4324989 13.9500008 14.4549999 13.9049988 14.4699974 13.8675004 14.6124973 13.6049996 14.7174969 13.3500005 14.7924976 13.1024991L9.62499804 10.1174993C9.43750004 10.2975006 9.27250004 10.5149994 9.11499984 10.7624998zM16.6674996 9.41250044L11.8599987 6.63749983C11.6424999 7.77750013 11.0649986 8.81250004 10.1949997 9.57000064L14.9574987 12.3225003C15.1825009 11.1825008 15.7825013 10.1700001 16.6674996 9.41250044zM17.5750009 8.34749983C17.6049997 8.31000043 17.6275007 8.27250003 17.6499998 8.22749993 18.8199999 6.20249933 17.3650019 5.42999932 17.7250006 4.40999882 17.7400019 4.37999952 17.7474997 4.34999892 17.762501 4.31999912L17.762501 4.31999912C17.8675005 4.37999952 18.0099986 4.34249962 18.0699999 4.23749862 18.0775015 4.21499862 18.092499 4.19999872 18.092499 4.17749872L15.6775019 2.77500001C15.6625005 2.79000001 15.6475011 2.80500031 15.6400014 2.82749991 15.5800019 2.93249991 15.6175023 3.07499981 15.7225019 3.13499981L15.7225019 3.13499981C15.7000028 3.16500001 15.6850015 3.18749961 15.6625024 3.21749981 14.9575025 4.03499892 13.562502 3.16500001 12.3925019 5.18999962 12.3700019 5.22750002 12.3475019 5.27250002 12.3250028 5.31749922 12.2200033 5.51249982 12.1375028 5.69999982 12.062502 5.88749982L17.2000028 8.85000044C17.3349992 8.69999984 17.455 8.53499984 17.5750009 8.34749983z"/>
    </g>
  </g>
</svg>
