<svg xmlns="http://www.w3.org/2000/svg" width="24" height="24" viewBox="0 0 24 24">
  <g fill="none" fill-rule="evenodd">
    <path fill="#2D327D" d="M22.5,0 L1.5,0 C0.675000003,0 0,0.675000003 0,1.5 L0,22.5 C0,23.3250009 0.675000003,24 1.5,24 L22.5,24 C23.3250009,24 24,23.3250009 24,22.5 L24,1.5 C24,0.675000003 23.3250009,0 22.5,0 Z"/>
    <g fill="#FFF" transform="translate(3 6)">
      <path d="M3.03749991 8.89500054C2.36250021 7.89000133 1.33500001 7.20750053.150000101 6.97500043L0 7.77750023 3.79500062 11.8349991C3.89249942 10.7999992 3.62999962 9.77250004 3.03749991 8.89500054zM12.7649995 10.0049992C13.9950009 9.17999944 15.4725 8.87249954 16.9275018 9.13499934L17.415001 6.65999893 4.53000072 9.34499934C4.92750072 10.3349991 5.03250032 11.4224987 4.82250022 12.494999L10.3799991 13.5824986C10.6725006 12.1124993 11.5200005 10.8374996 12.7649995 10.0049992zM3.96000002 8.27999973C3.96750062 8.29499913 3.98250052 8.30999943 3.98999972 8.32499983L10.4399995 6.98250013 1.0949998 2.18999961.367500102 5.88749982C1.84499981 6.17999943 3.11999991 7.02750023 3.96000002 8.27999973z"/>
      <polygon points="17.647 5.475 18 3.66 1.44 .412 1.313 1.058 12.173 6.615"/>
      <path d="M11.5950003,13.3050004 L16.5599996,11.0174999 L16.7174989,10.2149982 C14.4599992,9.81749924 12.2775003,11.1674995 11.5950003,13.3050004 Z"/>
    </g>
  </g>
</svg>
