<?xml version="1.0" encoding="utf-8"?>
<!-- Generator: Adobe Illustrator 24.2.0, SVG Export Plug-In . SVG Version: 6.00 Build 0)  -->
<svg version="1.0" id="Ebene_1" xmlns="http://www.w3.org/2000/svg" xmlns:xlink="http://www.w3.org/1999/xlink" x="0px" y="0px"
	 viewBox="0 0 400 400" enable-background="new 0 0 400 400" xml:space="preserve">
<rect id="background-blue" fill="#2D327D" width="400" height="400"/>
<g id="content">
	<path id="frameWhite" fill="#FFFFFF" d="M340,40c11,0,20,9,20,20v280c0,11-9,20-20,20H60c-11,0-20-9-20-20V60c0-11,9-20,20-20H340
		 M340,35H60c-13.785,0-25,11.215-25,25v280c0,13.785,11.215,25,25,25h280c13.785,0,25-11.215,25-25V60
		C365,46.215,353.785,35,340,35L340,35z"/>
	<path fill="#FFFFFF" d="M81.185,139.79v180.001h79.999V139.79H81.185 M151.184,239.79c0,1.1-0.896,2.004-1.998,2.004H93.185
		c-1.097,0-2.004-0.903-2.004-2.004v-88c0-1.096,0.907-2,2.004-2h56.001c1.102,0,1.998,0.904,1.998,2V239.79L151.184,239.79z"/>
	<polygon fill="#FFFFFF" points="95.891,98.993 114.971,79.791 103.035,79.791 79.185,103.79 103.035,127.795 114.971,127.795 
		95.891,108.589 243.187,108.589 243.187,98.993 95.891,98.993 	"/>
	<polygon fill="#FFFFFF" points="243.187,149.79 167.184,149.79 167.184,309.792 243.187,309.792 243.187,149.79 	"/>
</g>
</svg>
