<?xml version="1.0" encoding="utf-8"?>
<!-- Generator: Adobe Illustrator 24.2.0, SVG Export Plug-In . SVG Version: 6.00 Build 0)  -->
<svg version="1.0" id="Ebene_1" xmlns="http://www.w3.org/2000/svg" xmlns:xlink="http://www.w3.org/1999/xlink" x="0px" y="0px"
	 viewBox="0 0 400 400" enable-background="new 0 0 400 400" xml:space="preserve">
<rect id="background-blue" fill="#2D327D" width="400" height="400"/>
<g id="content">
	<path id="frameWhite" fill="#FFFFFF" d="M340,40c11,0,20,9,20,20v280c0,11-9,20-20,20H60c-11,0-20-9-20-20V60c0-11,9-20,20-20H340
		 M340,35H60c-13.785,0-25,11.215-25,25v280c0,13.785,11.215,25,25,25h280c13.785,0,25-11.215,25-25V60
		C365,46.215,353.785,35,340,35L340,35z"/>
	<polygon fill="#FFFFFF" points="256.386,262.451 147.588,262.451 147.588,78.45 256.386,78.45 256.386,262.451 	"/>
	<path fill="#FFFFFF" d="M81.988,80.451v180.001h59.999V80.451H81.988 M129.986,210.452c0,4.401-3.601,7.997-8,7.997h-20
		c-4.402,0-8-3.596-8-7.997V106.451c0-4.4,3.598-7.999,8-7.999h20c4.399,0,8,3.6,8,7.999V210.452L129.986,210.452z"/>
	<path fill="#FFFFFF" d="M170.307,269.95c0,13.255-10.745,24-24,24H95.383l17.993-16.49h-11.995L80.388,298.45l20.993,20.993h11.995
		l-17.993-16.492l50.924,0.004c18.227,0,33.002-14.775,33.002-33.004H170.307L170.307,269.95z"/>
	<path fill="#FFFFFF" d="M261.98,80.451v180.001h60V80.451H261.98 M273.984,106.451c0-4.4,3.6-7.999,7.996-7.999h20.006
		c4.4,0,7.998,3.6,7.998,7.999v104.001c0,4.401-3.598,7.997-7.998,7.997H281.98c-4.397,0-7.996-3.596-7.996-7.997V106.451
		L273.984,106.451z"/>
	<path fill="#FFFFFF" d="M233.663,269.95c0,13.255,10.741,24,24,24h50.924l-17.993-16.49h11.993l20.995,20.989l-20.995,20.993
		h-11.993l17.993-16.492l-50.924,0.004c-18.227,0-33.002-14.775-33.002-33.004H233.663L233.663,269.95z"/>
</g>
</svg>
