<?xml version="1.0" encoding="utf-8"?>
<!-- Generator: Adobe Illustrator 24.2.0, SVG Export Plug-In . SVG Version: 6.00 Build 0)  -->
<svg version="1.0" id="Ebene_1" xmlns="http://www.w3.org/2000/svg" xmlns:xlink="http://www.w3.org/1999/xlink" x="0px" y="0px"
	 viewBox="0 0 400 400" enable-background="new 0 0 400 400" xml:space="preserve">
<rect id="background-blue" fill="#2D327D" width="400" height="400"/>
<g id="content">
	<path id="frameWhite" fill="#FFFFFF" d="M340,40c11,0,20,9,20,20v280c0,11-9,20-20,20H60c-11,0-20-9-20-20V60c0-11,9-20,20-20H340
		 M340,35H60c-13.785,0-25,11.215-25,25v280c0,13.785,11.215,25,25,25h280c13.785,0,25-11.215,25-25V60
		C365,46.215,353.785,35,340,35L340,35z"/>
	<g>
		<path fill="#FFFFFF" d="M278.61,221.24c-15.948,0-28.92,12.961-28.92,28.89v7.551c1.549-1.577,3.225-3.045,5.036-4.363l0.562-0.41
			l0.562,0.41c1.076,0.786,2.194,1.486,3.33,2.149v-5.337c0-10.704,8.715-19.412,19.43-19.412c10.715,0,19.434,8.708,19.434,19.412
			v5.335c1.136-0.663,2.253-1.362,3.326-2.147l0.562-0.41l0.562,0.41c1.81,1.318,3.486,2.786,5.032,4.361v-7.549
			C307.526,234.201,294.554,221.24,278.61,221.24z"/>
	</g>
	<g>
		<path fill="#FFFFFF" d="M317.161,69.824c-5.464-5.466-12.726-8.477-20.454-8.477h-0.007c-7.713,0-14.965,3.004-20.417,8.454
			l-11.039,11.043c-0.894,0.896-1.385,2.086-1.385,3.356l0,0c0,1.27,0.492,2.458,1.385,3.354c0.894,0.896,2.086,1.387,3.352,1.387
			c1.266,0,2.458-0.492,3.356-1.389l11.039-11.043c7.572-7.566,19.896-7.561,27.471,0.011c7.575,7.583,7.579,19.905,0.011,27.471
			l-4.67,4.672c2.373,2.147,4.466,4.551,6.253,7.158l5.125-5.127c5.453-5.451,8.458-12.7,8.458-20.417
			C325.638,82.552,322.629,75.288,317.161,69.824z"/>
	</g>
	<g>
		<path fill="#EB0000" d="M121.647,247.431c-21.386,0-38.721,17.337-38.721,38.723c0,21.386,17.335,38.723,38.721,38.723
			c21.386,0,38.723-17.337,38.723-38.723C160.37,264.768,143.033,247.431,121.647,247.431z"/>
	</g>
	<g>
		<path fill="#237F52" d="M121.647,100.074c-21.386,0-38.721,17.337-38.721,38.723c0,21.386,17.335,38.723,38.721,38.723
			c21.386,0,38.723-17.337,38.723-38.723C160.37,117.411,143.033,100.074,121.647,100.074z"/>
	</g>
	<g>
		<path fill="#FFFFFF" d="M217.149,136.052h-34.138v-6.909h34.138V136.052z M217.149,149.731h-34.138v-6.905h34.138V149.731z"/>
	</g>
	<g>
		<path fill="#FFFFFF" d="M217.149,282.411h-34.138v-6.913h34.138V282.411z M217.149,296.09h-34.138v-6.909h34.138V296.09z"/>
	</g>
	<g>
		<g>
			<path fill="#FFFFFF" d="M301.85,107.895c-6.849,4.801-14.853,7.378-23.24,7.378c-8.387,0-16.387-2.577-23.24-7.378
				c-9.68,7.296-15.464,18.786-15.464,30.902c0,21.343,17.363,38.704,38.704,38.704c21.341,0,38.704-17.361,38.704-38.704
				C317.314,126.683,311.53,115.195,301.85,107.895z M282.174,158.786v9.199c0,1.966-1.598,3.561-3.564,3.561
				c-1.966,0-3.56-1.594-3.56-3.561v-9.199c-1.59-1.117-2.633-2.965-2.633-5.058c0-3.423,2.771-6.197,6.194-6.197
				c3.423,0,6.194,2.775,6.194,6.197C284.803,155.821,283.761,157.668,282.174,158.786z"/>
		</g>
	</g>
	<path fill="#FFFFFF" d="M301.85,255.256c-6.845,4.799-14.849,7.378-23.24,7.378c-8.395,0-16.399-2.579-23.24-7.378
		c-9.68,7.296-15.464,18.786-15.464,30.902c0,21.341,17.363,38.704,38.704,38.704c21.341,0,38.704-17.363,38.704-38.704
		C317.314,274.042,311.534,262.554,301.85,255.256z M282.174,306.146v9.198c0,1.968-1.598,3.56-3.564,3.56
		c-1.966,0-3.56-1.592-3.56-3.56v-9.198c-1.59-1.119-2.633-2.966-2.633-5.06c0-3.423,2.771-6.196,6.194-6.196
		c3.423,0,6.194,2.773,6.194,6.196C284.803,303.181,283.761,305.027,282.174,306.146z"/>
</g>
</svg>
