<?xml version="1.0" encoding="utf-8"?>
<!-- Generator: Adobe Illustrator 26.5.0, SVG Export Plug-In . SVG Version: 6.00 Build 0)  -->
<svg version="1.0" xmlns="http://www.w3.org/2000/svg" xmlns:xlink="http://www.w3.org/1999/xlink" x="0px" y="0px"
	 viewBox="0 0 400 400" enable-background="new 0 0 400 400" xml:space="preserve">
<rect id="background-blue" fill="#2D327D" width="400" height="400"/>
<g id="content">
	<path id="frameWhite" fill="#FFFFFF" d="M340,40c11,0,20,9,20,20v280c0,11-9,20-20,20H60c-11,0-20-9-20-20V60c0-11,9-20,20-20H340
		 M340,35H60c-13.785,0-25,11.215-25,25v280c0,13.785,11.215,25,25,25h280c13.785,0,25-11.215,25-25V60
		C365,46.215,353.785,35,340,35L340,35z"/>
	<path fill="#FFFFFF" d="M115.147,289.853c-1.28,0-2.559-0.488-3.536-1.464c-1.953-1.953-1.953-5.119,0-7.071l21.213-21.213
		c1.953-1.952,5.118-1.952,7.071,0c1.953,1.953,1.953,5.119,0,7.071l-21.213,21.213
		C117.707,289.364,116.427,289.853,115.147,289.853z"/>
	<path fill="#FFFFFF" d="M284.853,289.853c-1.28,0-2.559-0.488-3.536-1.464l-21.213-21.213c-1.953-1.953-1.953-5.119,0-7.071
		c1.953-1.952,5.118-1.952,7.071,0l21.213,21.213c1.953,1.953,1.953,5.119,0,7.071C287.412,289.364,286.133,289.853,284.853,289.853
		z"/>
	<path fill="#FFFFFF" d="M110,205H80c-2.761,0-5-2.239-5-5s2.239-5,5-5h30c2.761,0,5,2.239,5,5S112.761,205,110,205z"/>
	<path fill="#FFFFFF" d="M320,205h-30c-2.761,0-5-2.239-5-5s2.239-5,5-5h30c2.761,0,5,2.239,5,5S322.761,205,320,205z"/>
	<path fill="#FFFFFF" d="M200,325c-2.761,0-5-2.239-5-5v-30c0-2.761,2.239-5,5-5s5,2.239,5,5v30C205,322.761,202.761,325,200,325z"
		/>
	<path fill="#FFFFFF" d="M232.99,135.745V130H167.01v5.742c0,8.136-3.369,15.857-9.159,21.572
		c-11.625,11.474-18.59,27.656-17.788,45.459c1.385,30.754,26.309,55.725,57.061,57.16C231.568,261.541,260,234.091,260,200
		c0-16.757-6.874-31.904-17.953-42.787C236.279,151.547,232.99,143.83,232.99,135.745z"/>
	<path fill="#FFFFFF" d="M233,120V90c0-5.523-4.477-10-10-10h-46c-5.523,0-10,4.477-10,10v30H233z"/>
</g>
</svg>
