<?xml version="1.0" encoding="utf-8"?>
<!-- Generator: Adobe Illustrator 26.5.0, SVG Export Plug-In . SVG Version: 6.00 Build 0)  -->
<svg version="1.0" xmlns="http://www.w3.org/2000/svg" xmlns:xlink="http://www.w3.org/1999/xlink" x="0px" y="0px"
	 viewBox="0 0 400 400" enable-background="new 0 0 400 400" xml:space="preserve">
<rect id="background-blue" fill="#2D327D" width="400" height="400"/>
<g id="content">
	<path id="frameWhite" fill="#FFFFFF" d="M340,40c11,0,20,9,20,20v280c0,11-9,20-20,20H60c-11,0-20-9-20-20V60c0-11,9-20,20-20H340
		 M340,35H60c-13.785,0-25,11.215-25,25v280c0,13.785,11.215,25,25,25h280c13.785,0,25-11.215,25-25V60
		C365,46.215,353.785,35,340,35L340,35z"/>
	<path fill="#FFFFFF" d="M281.995,255.788c-0.075-5.98-3.529-11.143-8.541-13.671c-0.126-0.061-0.252-0.123-0.381-0.187
		c-8.477-4.213-22.867-14.285-22.867-34.112c0-23.976-1.712-36.664-6.108-45.255c-4.875-9.527-13.224-13.867-26.98-14.033
		c0.204-3.556,0.326-11.278-4.502-16.853c-2.09-2.413-5.975-5.29-12.616-5.29c-6.64,0-10.526,2.876-12.616,5.29
		c-4.828,5.574-4.706,13.296-4.502,16.853c-13.756,0.165-22.106,4.505-26.98,14.033c-4.395,8.59-6.108,21.278-6.108,45.255
		c0,19.827-14.39,29.899-22.867,34.112c-0.128,0.064-0.255,0.126-0.381,0.187c-5.013,2.529-8.466,7.691-8.541,13.671L118,267.415
		h164L281.995,255.788z M193.596,137.059c1.429-1.65,3.523-2.452,6.404-2.452c2.88,0,4.975,0.802,6.404,2.452
		c2.732,3.155,2.536,8.985,2.492,11.457h-17.792C191.06,146.044,190.864,140.213,193.596,137.059z"/>
	<g>
		<path fill="#FFFFFF" d="M183.583,271.515c-0.43,1.498-0.666,3.079-0.666,4.715c0,9.435,7.648,17.083,17.083,17.083
			s17.083-7.648,17.083-17.083c0-1.637-0.237-3.217-0.666-4.715H183.583z"/>
	</g>
	<path fill="#FFFFFF" d="M275.445,203.294c-0.638,0-1.287-0.123-1.914-0.383c-2.551-1.058-3.761-3.983-2.703-6.534
		c2.768-6.674,4.171-13.757,4.171-21.051c0-14.691-5.721-28.502-16.109-38.891c-1.953-1.953-1.953-5.119,0-7.071
		c1.953-1.952,5.118-1.952,7.071,0C278.239,141.64,285,157.964,285,175.325c0,8.615-1.66,16.987-4.934,24.882
		C279.268,202.132,277.407,203.294,275.445,203.294z"/>
	<path fill="#FFFFFF" d="M303.169,214.778c-0.638,0-1.287-0.123-1.913-0.383c-2.551-1.058-3.761-3.983-2.704-6.534
		c4.278-10.318,6.448-21.264,6.448-32.536c0-22.705-8.841-44.05-24.896-60.104c-1.953-1.953-1.953-5.119,0-7.071
		c1.953-1.952,5.118-1.952,7.071,0C305.118,126.093,315,149.95,315,175.325c0,12.592-2.426,24.828-7.21,36.366
		C306.992,213.616,305.13,214.778,303.169,214.778z"/>
	<path fill="#FFFFFF" d="M124.555,203.294c-1.961,0-3.822-1.162-4.621-3.086c-3.274-7.896-4.934-16.267-4.934-24.882
		c0-17.362,6.761-33.685,19.038-45.962c1.953-1.952,5.118-1.952,7.071,0c1.953,1.953,1.953,5.119,0,7.071
		C130.721,146.823,125,160.635,125,175.325c0,7.294,1.403,14.377,4.171,21.051c1.058,2.551-0.152,5.477-2.703,6.534
		C125.842,203.171,125.193,203.294,124.555,203.294z"/>
	<path fill="#FFFFFF" d="M96.831,214.778c-1.961,0-3.823-1.162-4.621-3.086C87.426,200.153,85,187.918,85,175.325
		c0-25.375,9.882-49.232,27.825-67.175c1.953-1.952,5.118-1.952,7.071,0c1.953,1.953,1.953,5.119,0,7.071
		C103.841,131.276,95,152.621,95,175.325c0,11.271,2.169,22.218,6.448,32.536c1.058,2.551-0.153,5.476-2.704,6.534
		C98.118,214.655,97.469,214.778,96.831,214.778z"/>
</g>
</svg>
