<?xml version="1.0" encoding="utf-8"?>
<!-- Generator: Adobe Illustrator 24.2.0, SVG Export Plug-In . SVG Version: 6.00 Build 0)  -->
<svg version="1.0" id="Ebene_1" xmlns="http://www.w3.org/2000/svg" xmlns:xlink="http://www.w3.org/1999/xlink" x="0px" y="0px"
	 viewBox="0 0 400 400" enable-background="new 0 0 400 400" xml:space="preserve">
<rect id="background-blue" fill="#2D327D" width="400" height="400"/>
<g id="content">
	<path id="frameWhite" fill="#FFFFFF" d="M340,40c11,0,20,9,20,20v280c0,11-9,20-20,20H60c-11,0-20-9-20-20V60c0-11,9-20,20-20H340
		 M340,35H60c-13.785,0-25,11.215-25,25v280c0,13.785,11.215,25,25,25h280c13.785,0,25-11.215,25-25V60
		C365,46.215,353.785,35,340,35L340,35z"/>
	<path fill-rule="evenodd" clip-rule="evenodd" fill="#FFFFFF" d="M200,80c-66.274,0-120,53.726-120,120
		c0,66.274,53.726,120,120,120s120-53.726,120-120C320,133.726,266.274,80,200,80z M200,98.5c13.945,0,25.25,11.305,25.25,25.25
		c0,13.945-11.305,25.25-25.25,25.25c-13.945,0-25.25-11.305-25.25-25.25C174.75,109.805,186.055,98.5,200,98.5z M238.5,290h-77
		c-2.761,0-5-2.238-5-5c0-2.761,2.239-5,5-5h16V171h-16c-2.761,0-5-2.239-5-5c0-2.761,2.239-5,5-5H223v119h15.5c2.761,0,5,2.239,5,5
		C243.5,287.762,241.261,290,238.5,290z"/>
</g>
</svg>
