<?xml version="1.0" encoding="utf-8"?>
<!-- Generator: Adobe Illustrator 24.2.0, SVG Export Plug-In . SVG Version: 6.00 Build 0)  -->
<svg version="1.0" id="Ebene_1" xmlns="http://www.w3.org/2000/svg" xmlns:xlink="http://www.w3.org/1999/xlink" x="0px" y="0px"
	 viewBox="0 0 400 400" enable-background="new 0 0 400 400" xml:space="preserve">
<polygon id="background-blue" fill="#2D327D" points="400,0 0,0 0,400 400,400 400,0 "/>
<g id="content">
	<path id="frameWhite" fill="#FFFFFF" d="M340,40c11,0,20,9,20,20v280c0,11-9,20-20,20H60c-11,0-20-9-20-20V60c0-11,9-20,20-20H340
		 M340,35H60c-13.785,0-25,11.215-25,25v280c0,13.785,11.215,25,25,25h280c13.785,0,25-11.215,25-25V60
		C365,46.215,353.785,35,340,35L340,35z"/>
	<path fill-rule="evenodd" clip-rule="evenodd" fill="#FFFFFF" d="M140,80v50h70v20h30.001v10H210v10.001h30.001V180H210v80h50V80
		H140z M240,120h-5.992v-19.638h-2.134h-2.134h-2.073h-0.718v-4.35c1.464-0.041,2.658-0.191,3.581-0.451
		c0.923-0.26,1.768-0.684,2.534-1.272c1.108-0.848,1.854-2.278,2.236-4.289H240V120z"/>
	<path fill-rule="evenodd" clip-rule="evenodd" fill="#FFFFFF" d="M80,140v180h120.001V140H80z M179.999,240h-80v-10h80V240z
		 M179.999,220.001h-80V210h80V220.001z M180,180h-21.595c0-1.627,0.263-3.179,0.789-4.655c0.526-1.477,1.268-2.748,2.225-3.814
		c0.738-0.82,1.603-1.62,2.594-2.399c0.991-0.779,2.963-2.208,5.916-4.286c1.436-0.998,2.44-1.928,3.015-2.789
		c0.574-0.861,0.861-1.859,0.861-2.994c0-1.313-0.386-2.376-1.159-3.189c-0.772-0.814-1.788-1.22-3.045-1.22
		c-3.09,0-4.683,2.222-4.778,6.665h-5.763c0-0.287,0-0.506,0-0.656c0-3.637,1.019-6.453,3.056-8.449
		c1.982-1.941,4.546-2.912,7.69-2.912c2.789,0,5.12,0.793,6.993,2.379c2.037,1.723,3.056,4.04,3.056,6.952
		c0,2.543-0.813,4.73-2.44,6.562c-0.533,0.602-1.032,1.083-1.497,1.446c-0.465,0.362-1.688,1.234-3.671,2.615
		c-1.887,1.312-3.237,2.317-4.05,3.015c-0.814,0.697-1.569,1.497-2.266,2.399H180V180z"/>
</g>
</svg>
