<?xml version="1.0" encoding="utf-8"?>
<!-- Generator: Adobe Illustrator 24.2.0, SVG Export Plug-In . SVG Version: 6.00 Build 0)  -->
<svg version="1.0" id="Ebene_1" xmlns="http://www.w3.org/2000/svg" xmlns:xlink="http://www.w3.org/1999/xlink" x="0px" y="0px"
	 viewBox="0 0 400 400" enable-background="new 0 0 400 400" xml:space="preserve">
<polygon id="background-blue" fill="#2D327D" points="0,0 400,0 400,400 0,400 0,0 "/>
<g id="content">
	<path id="frameWhite" fill="#FFFFFF" d="M340,40c11,0,20,9,20,20v280c0,11-9,20-20,20H60c-11,0-20-9-20-20V60c0-11,9-20,20-20H340
		 M340,35H60c-13.785,0-25,11.215-25,25v280c0,13.785,11.215,25,25,25h280c13.785,0,25-11.215,25-25V60
		C365,46.215,353.785,35,340,35L340,35z"/>
	<path fill-rule="evenodd" clip-rule="evenodd" fill="#FFFFFF" d="M200.001,130v20.001h70v50H300V210h-29.999v10H300v10h-29.999v60
		h50V130H200.001z M300,170h-5.988v-19.638h-2.133h-2.133h-2.071h-0.718v-4.35c1.463-0.041,2.656-0.191,3.579-0.451
		c0.923-0.26,1.767-0.684,2.533-1.272c1.107-0.848,1.853-2.278,2.235-4.289H300V170z"/>
	<path fill-rule="evenodd" clip-rule="evenodd" fill="#FFFFFF" d="M140,160v160h120V160H140z M239.998,260h-79.999v-10h79.999V260z
		 M239.998,240.001h-79.999v-10H240L239.998,240.001z M240,210h-21.595c0-1.627,0.263-3.179,0.789-4.655
		c0.526-1.477,1.268-2.748,2.225-3.814c0.738-0.82,1.603-1.62,2.594-2.399c0.991-0.779,2.963-2.208,5.916-4.286
		c1.436-0.998,2.44-1.928,3.015-2.789c0.574-0.861,0.861-1.859,0.861-2.994c0-1.313-0.386-2.376-1.159-3.189
		c-0.772-0.814-1.788-1.22-3.045-1.22c-3.09,0-4.683,2.222-4.778,6.665h-5.763c0-0.287,0-0.506,0-0.656
		c0-3.637,1.019-6.453,3.056-8.449c1.982-1.941,4.546-2.912,7.69-2.912c2.789,0,5.12,0.793,6.993,2.379
		c2.037,1.723,3.056,4.04,3.056,6.952c0,2.543-0.813,4.73-2.44,6.562c-0.533,0.602-1.032,1.083-1.497,1.446
		c-0.465,0.362-1.688,1.234-3.671,2.615c-1.887,1.312-3.237,2.317-4.05,3.015c-0.814,0.697-1.569,1.497-2.266,2.399H240V210z"/>
	<g>
		<path fill="#FFFFFF" d="M97.78,79.939l11.382,30.044h-6.87l-2.379-6.727H88.777l-2.44,6.727H79.59l11.423-30.044H97.78z
			 M98.313,98.457l-3.979-11.3l-3.999,11.3H98.313z"/>
		<path fill="#FFFFFF" d="M131.434,87.588v22.395h-5.66v-3.261c-1.709,2.584-4.102,3.876-7.178,3.876
			c-2.68,0-4.703-0.896-6.07-2.687c-0.52-0.697-0.892-1.518-1.118-2.461s-0.338-2.174-0.338-3.691V87.588h5.947v12.325
			c0,1.285,0.038,2.194,0.113,2.728c0.075,0.533,0.229,0.984,0.461,1.354c0.629,0.998,1.702,1.497,3.22,1.497
			c1.873,0,3.233-0.827,4.081-2.481c0.41-0.807,0.615-2.263,0.615-4.368V87.588H131.434z"/>
		<path fill="#FFFFFF" d="M147.922,87.547v4.204h-4.45v10.521c0,1.258,0.116,2.058,0.349,2.399c0.342,0.492,1.107,0.738,2.297,0.738
			c0.465,0,1.066-0.034,1.805-0.103v4.758c-1.34,0.15-2.57,0.225-3.691,0.225c-1.695,0-2.987-0.191-3.876-0.574
			c-1.381-0.615-2.242-1.736-2.584-3.363c-0.15-0.697-0.226-2.14-0.226-4.327V91.751h-3.63v-4.204h3.63v-5.25h5.927v5.25H147.922z"
			/>
		<path fill="#FFFFFF" d="M161.334,86.973c3.254,0,5.913,1.08,7.977,3.24c2.037,2.133,3.056,4.977,3.056,8.531
			c0,3.678-1.087,6.61-3.261,8.798c-2.037,2.037-4.689,3.056-7.957,3.056c-3.486,0-6.262-1.135-8.326-3.404
			c-1.969-2.16-2.953-4.963-2.953-8.408c0-3.391,0.957-6.146,2.871-8.265C154.86,88.155,157.725,86.973,161.334,86.973z
			 M161.026,91.607c-1.572,0-2.823,0.636-3.753,1.907c-0.943,1.285-1.415,3.042-1.415,5.271c0,2.311,0.465,4.081,1.395,5.312
			c0.957,1.244,2.263,1.866,3.917,1.866c1.545,0,2.769-0.567,3.671-1.702c1.025-1.258,1.538-3.083,1.538-5.476
			c0-2.242-0.451-3.985-1.354-5.229C164.082,92.257,162.749,91.607,161.026,91.607z"/>
		<path fill="#FFFFFF" d="M182.067,87.649v2.974c0.752-1.025,1.497-1.784,2.235-2.276c1.326-0.916,2.885-1.374,4.676-1.374
			c2.898,0,4.929,1.23,6.091,3.691c1.75-2.461,4.129-3.691,7.137-3.691c2.324,0,4.129,0.694,5.414,2.082
			c1.285,1.388,1.928,3.346,1.928,5.875v15.053h-5.947v-13.31c0-1.436-0.157-2.44-0.472-3.015c-0.561-1.053-1.572-1.579-3.035-1.579
			c-1.777,0-3.015,0.752-3.712,2.256c-0.314,0.67-0.472,1.866-0.472,3.589v12.059h-5.927V96.427c0-1.326-0.157-2.283-0.472-2.871
			c-0.506-0.984-1.449-1.477-2.83-1.477c-0.848,0-1.61,0.212-2.287,0.636c-0.677,0.424-1.186,1.005-1.528,1.743
			c-0.342,0.738-0.513,1.894-0.513,3.466v12.059h-5.947V87.649H182.067z"/>
		<path fill="#FFFFFF" d="M234.547,109.982h-6.07c-0.26-0.875-0.39-1.62-0.39-2.235c-1.859,1.9-4.259,2.851-7.198,2.851
			c-2.297,0-4.088-0.533-5.373-1.6c-1.477-1.23-2.215-2.946-2.215-5.147c0-2.803,1.265-4.744,3.794-5.824
			c1.025-0.438,2.912-0.841,5.66-1.21c2.365-0.314,3.838-0.619,4.419-0.913c0.581-0.294,0.872-0.885,0.872-1.774
			c0-1.955-1.299-2.933-3.896-2.933c-1.381,0-2.389,0.246-3.025,0.738c-0.636,0.492-1.056,1.347-1.261,2.563h-5.619
			c0.178-2.488,1.114-4.365,2.81-5.629c1.695-1.265,4.108-1.897,7.239-1.897c3.459,0,6.016,0.704,7.67,2.112
			c0.766,0.656,1.275,1.36,1.528,2.112c0.253,0.752,0.379,1.941,0.379,3.568c0,0.342-0.021,1.846-0.062,4.512
			c-0.027,2.693-0.041,4.238-0.041,4.635c0,1.627,0.048,2.82,0.144,3.579C234.007,108.25,234.219,109.08,234.547,109.982z
			 M228.005,99.175c-0.766,0.479-2.16,0.854-4.184,1.128c-1.422,0.219-2.447,0.499-3.076,0.841c-0.889,0.479-1.333,1.292-1.333,2.44
			c0,0.93,0.294,1.654,0.882,2.174c0.588,0.52,1.408,0.779,2.461,0.779c1.75,0,3.165-0.615,4.245-1.846
			c0.383-0.424,0.646-0.865,0.79-1.323c0.144-0.458,0.215-1.063,0.215-1.815V99.175z"/>
		<path fill="#FFFFFF" d="M250.523,87.547v4.204h-4.45v10.521c0,1.258,0.116,2.058,0.349,2.399c0.342,0.492,1.107,0.738,2.297,0.738
			c0.465,0,1.066-0.034,1.805-0.103v4.758c-1.34,0.15-2.57,0.225-3.691,0.225c-1.695,0-2.987-0.191-3.876-0.574
			c-1.381-0.615-2.242-1.736-2.584-3.363c-0.15-0.697-0.226-2.14-0.226-4.327V91.751h-3.63v-4.204h3.63v-5.25h5.927v5.25H250.523z"
			/>
		<path fill="#FFFFFF" d="M273.614,103.01c-0.314,1.258-0.882,2.44-1.702,3.548c-1.969,2.693-4.799,4.04-8.49,4.04
			c-3.336,0-6.009-1.053-8.019-3.158c-0.984-1.025-1.736-2.263-2.256-3.712c-0.561-1.545-0.841-3.158-0.841-4.84
			c0-3.254,0.937-5.988,2.81-8.203c2.092-2.475,4.799-3.712,8.121-3.712c2.68,0,4.963,0.827,6.85,2.481
			c1.353,1.189,2.338,2.656,2.953,4.399c0.615,1.743,0.923,3.934,0.923,6.573h-15.606c0.055,1.094,0.226,2.003,0.513,2.728
			c0.807,1.955,2.338,2.933,4.594,2.933c1.107,0,2.01-0.243,2.707-0.728c0.697-0.485,1.272-1.268,1.723-2.348H273.614z
			 M267.893,96.427c-0.109-1.08-0.355-1.976-0.738-2.687c-0.383-0.697-0.926-1.251-1.63-1.661c-0.704-0.41-1.473-0.615-2.307-0.615
			c-1.326,0-2.42,0.444-3.281,1.333c-0.861,0.889-1.374,2.099-1.538,3.63H267.893z"/>
	</g>
</g>
</svg>
