<?xml version="1.0" encoding="utf-8"?>
<!-- Generator: Adobe Illustrator 24.2.0, SVG Export Plug-In . SVG Version: 6.00 Build 0)  -->
<svg version="1.0" xmlns="http://www.w3.org/2000/svg" xmlns:xlink="http://www.w3.org/1999/xlink" x="0px" y="0px"
	 viewBox="0 0 400 400" enable-background="new 0 0 400 400" xml:space="preserve">
<rect id="background-blue" x="-0.001" y="-0.001" fill="#2D327D" width="400" height="400"/>
<g id="content">
	<path fill="#FFFFFF" d="M79.999,79.999v120h21.129c1.235-5.439,3.446-10.507,6.454-15H94.999v-90h210v90H182.416
		c3.008,4.493,5.218,9.561,6.454,15h131.129v-120H79.999z"/>
	<path fill="#FFFFFF" d="M199.666,104.998c-19.33,0-35,15.67-35,35s15.67,35,35,35s35-15.67,35-35S218.996,104.998,199.666,104.998z
		 M188.269,148.08c-1.622,1.923-3.919,2.885-6.891,2.885c-3.163,0-5.624-1.116-7.383-3.35c-1.504-1.905-2.256-4.284-2.256-7.137
		c0-2.989,0.893-5.482,2.68-7.479c1.786-1.987,4.161-2.98,7.123-2.98c2.762,0,4.985,0.911,6.672,2.734
		c1.203,1.285,1.868,2.767,1.996,4.443h-4.307c-0.237-1.13-0.743-2.003-1.518-2.618c-0.775-0.615-1.755-0.923-2.939-0.923
		c-1.896,0-3.313,0.798-4.252,2.393c-0.702,1.212-1.053,2.698-1.053,4.457c0,1.805,0.369,3.309,1.107,4.512
		c0.939,1.54,2.329,2.311,4.17,2.311c1.312,0,2.358-0.388,3.138-1.162s1.26-1.905,1.442-3.391h4.348
		C190.201,144.845,189.508,146.612,188.269,148.08z M210.122,150.486h-4.361v-8.709h-8.176v8.709h-4.361v-19.988h4.361v7.588h8.176
		v-7.588h4.361V150.486z M226.799,138.824v3.432h-8.449v8.23h-4.361v-19.988h14.068v3.691h-9.707v4.635H226.799z"/>
	<path fill="#FFFFFF" d="M145.238,174.999c-19.33,0-35,15.67-35,35s15.67,35,35,35c19.33,0,35-15.67,35-35
		S164.568,174.999,145.238,174.999z M153.748,200.663c-1.859-1.294-3.432-2.196-4.717-2.707c-1.285-0.51-2.621-0.766-4.006-0.766
		c-3.683,0-6.298,2.635-7.848,7.902h14.875l-1.559,4.43h-14.109c-0.018,0.456-0.027,0.875-0.027,1.258
		c0,0.42,0.009,0.82,0.027,1.203h13.043l-1.668,4.43h-10.473c1.622,4.867,4.22,7.301,7.793,7.301c1.185,0,2.352-0.178,3.5-0.533
		c1.148-0.355,2.844-1.07,5.086-2.146v7.711c-4.175,1.239-7.191,1.859-9.051,1.859c-3.336,0-6.426-1.075-9.27-3.227
		c-3.19-2.388-5.341-6.043-6.453-10.965h-5.168l1.613-4.43h2.844c-0.037-0.802-0.055-1.357-0.055-1.668c0-0.182,0-0.446,0-0.793
		h-4.402l1.613-4.43h3.391c0.747-3.227,2.042-6.07,3.883-8.531c3.081-4.138,7.419-6.207,13.016-6.207
		c2.771,0,5.186,0.511,7.246,1.531c0.802,0.401,1.969,1.104,3.5,2.105L153.748,200.663z"/>
	<path fill="#FFFFFF" d="M199.999,249.999c-19.33,0-35,15.67-35,35c0,19.33,15.67,35,35,35s35-15.67,35-35
		C234.999,265.669,219.329,249.999,199.999,249.999z M212.235,304.798c-1.586,0.61-3.272,0.916-5.059,0.916
		c-1.058,0-1.969-0.073-2.734-0.219c-0.766-0.146-2.124-0.502-4.074-1.066c-2.06-0.583-3.755-0.875-5.086-0.875
		c-1.021,0-1.969,0.16-2.844,0.478c-0.875,0.319-1.923,0.889-3.145,1.709l-3.445-5.113c1.823-1.294,3.135-2.434,3.938-3.418
		c1.458-1.805,2.188-3.627,2.188-5.469c0-0.984-0.183-2.014-0.547-3.09h-5.797v-4.648h3.828c-0.347-0.838-0.62-1.458-0.82-1.859
		c-0.602-1.349-1.012-2.451-1.23-3.309c-0.219-0.856-0.328-1.822-0.328-2.898c0-2.789,1.02-5.141,3.062-7.055
		c2.534-2.352,6.061-3.527,10.582-3.527c4.43,0,7.861,1.104,10.295,3.309c2.434,2.206,3.687,5.342,3.76,9.406h-7.848
		c-0.037-1.859-0.474-3.263-1.312-4.211c-1.094-1.239-2.671-1.859-4.73-1.859c-1.513,0-2.762,0.415-3.746,1.244
		c-0.984,0.83-1.477,1.883-1.477,3.158c0,1.076,0.31,2.361,0.93,3.855c0.638,1.568,1.121,2.816,1.449,3.746h7.246v4.648h-5.742
		c0.164,0.82,0.246,1.623,0.246,2.406c0,1.331-0.351,2.57-1.053,3.719c-0.702,1.148-1.91,2.461-3.623,3.938
		c1.768-0.783,3.445-1.176,5.031-1.176c1.057,0,2.352,0.201,3.883,0.602c1.641,0.438,2.835,0.656,3.582,0.656
		c2.023,0,3.755-0.774,5.195-2.324l3.363,5.77C215.134,303.335,213.821,304.188,212.235,304.798z"/>
	<path fill="#FFFFFF" d="M290.263,250.046c-0.419-0.255-1.595-0.684-3.527-1.285v10.746c3.846-0.474,5.77-2.26,5.77-5.359
		C292.505,252.288,291.757,250.921,290.263,250.046z"/>
	<path fill="#FFFFFF" d="M278.204,235.882c0,1.295,0.383,2.293,1.148,2.994c0.766,0.702,2.124,1.29,4.074,1.764v-9.516
		C279.945,231.434,278.204,233.02,278.204,235.882z"/>
	<path fill="#FFFFFF" d="M284.999,209.999c-19.33,0-35,15.67-35,35s15.67,35,35,35s35-15.67,35-35S304.329,209.999,284.999,209.999z
		 M297.126,261.339c-1.312,1.404-2.767,2.43-4.361,3.076c-1.595,0.646-3.605,1.034-6.029,1.162v5.551h-3.309v-5.578
		c-3.847-0.219-6.854-1.193-9.023-2.926c-3.026-2.424-4.558-5.842-4.594-10.254h7.766c-0.037,4.339,1.914,6.718,5.852,7.137V247.94
		c-3.646-1.02-6.162-1.932-7.547-2.734c-1.769-1.02-3.062-2.229-3.883-3.623c-0.82-1.394-1.23-3.085-1.23-5.072
		c0-2.205,0.574-4.17,1.723-5.893c1.148-1.723,2.78-3.058,4.895-4.006c1.513-0.674,3.527-1.094,6.043-1.258v-4.922h3.309v4.922
		c3.883,0.201,6.868,1.281,8.955,3.24c2.087,1.96,3.167,4.689,3.24,8.189h-7.41c-0.073-3.317-1.668-5.177-4.785-5.578v10.199
		c0.255,0.073,0.975,0.256,2.16,0.547c3.919,1.021,6.69,2.27,8.312,3.746c2.005,1.842,3.008,4.348,3.008,7.52
		C300.216,256.444,299.185,259.151,297.126,261.339z"/>
	<path id="frameWhite" fill="#FFFFFF" d="M339.999,39.999c11,0,20,9,20,20v280c0,11-9,20-20,20h-280c-11,0-20-9-20-20v-280
		c0-11,9-20,20-20H339.999 M339.999,34.999h-280c-13.785,0-25,11.215-25,25v280c0,13.785,11.215,25,25,25h280
		c13.785,0,25-11.215,25-25v-280C364.999,46.214,353.784,34.999,339.999,34.999L339.999,34.999z"/>
</g>
</svg>
