<?xml version="1.0" encoding="utf-8"?>
<!-- Generator: Adobe Illustrator 24.2.0, SVG Export Plug-In . SVG Version: 6.00 Build 0)  -->
<svg version="1.0" id="Ebene_1" xmlns="http://www.w3.org/2000/svg" xmlns:xlink="http://www.w3.org/1999/xlink" x="0px" y="0px"
	 viewBox="0 0 400 400" enable-background="new 0 0 400 400" xml:space="preserve">
<polygon id="background-blue" fill="#2D327D" points="0,0 400,0 400,400 0,400 0,0 "/>
<g id="content">
	<path id="frameWhite" fill="#FFFFFF" d="M340,40c11,0,20,9,20,20v280c0,11-9,20-20,20H60c-11,0-20-9-20-20V60c0-11,9-20,20-20H340
		 M340,35H60c-13.785,0-25,11.215-25,25v280c0,13.785,11.215,25,25,25h280c13.785,0,25-11.215,25-25V60
		C365,46.215,353.785,35,340,35L340,35z"/>
	<path fill="#FFFFFF" d="M108.499,188c-2.212,0-3.993,1.801-3.993,4.007c0,5.679,4.141,10.503,9.753,11.358l32.292,4.954
		c1.429,0.203,2.47,1.429,2.47,2.856c0,1.615-1.302,2.914-2.897,2.914H87.189c-3.955,0-7.189,3.192-7.189,7.164
		c0,3.969,3.234,7.198,7.189,7.198h38.069c2.618,0,4.737,2.117,4.737,4.734c0,2.616-2.119,4.751-4.737,4.751H87.189
		c-3.955,0-7.189,3.208-7.189,7.181c0,3.969,3.234,7.182,7.189,7.182h38.069c2.618,0,4.737,2.131,4.737,4.747
		c0,2.617-2.119,4.733-4.737,4.733H87.189c-3.955,0-7.189,3.229-7.189,7.199c0,3.969,3.234,7.181,7.189,7.181h38.069
		c2.618,0,4.737,2.135,4.737,4.733c0,2.635-2.119,4.749-4.737,4.749H87.189c-3.955,0-7.189,3.228-7.189,7.202
		c0,3.951,3.234,7.16,7.189,7.16H240v-30.97c0-4.138-3.362-7.477-7.506-7.477H222.5c-4.145,0-7.506-3.377-7.506-7.494
		c0-4.159,3.362-7.498,7.506-7.498h9.994c4.144,0,7.506-3.377,7.506-7.497v-30.987l-130.888-20.021
		C108.909,188.017,108.706,188,108.499,188L108.499,188z"/>
	<path fill="#FFFFFF" d="M317.696,224.128l-13.928-13.926c-1.412-1.392-3.306-2.191-5.31-2.191h-6.053v-56.996h10.064
		c9.655,0,17.53-7.834,17.53-17.489c0-9.672-7.875-17.526-17.53-17.526h-7.465c-2.786,0-5.017,2.246-5.017,5.012
		c0,2.749,2.231,4.995,5.017,4.995h7.465c4.16,0,7.503,3.362,7.503,7.52c0,4.14-3.343,7.5-7.503,7.5h-42.564v-24.989L98.701,141.026
		H80v5.013v4.975h18.701l161.205,25.008v-25.008h27.485v56.996h-6.056c-1.966,0-3.898,0.8-5.31,2.191l-13.929,13.943
		c-1.373,1.391-2.19,3.324-2.19,5.291v83.062c0,4.123,3.378,7.502,7.5,7.502h44.98c4.16,0,7.503-3.379,7.503-7.502v-83.062
		c0-1.966-0.781-3.899-2.193-5.291V224.128z M295.669,300h-12.43v-12.235h12.43V300z M307.359,265.945
		c-1.48,2.104-4.39,4.676-8.728,7.715c-1.325,0.935-2.267,2.072-2.825,3.41c-0.559,1.338-0.864,3.202-0.916,5.591h-10.637
		c0.078-2.857,0.175-4.779,0.292-5.767c0.117-0.987,0.383-2.052,0.799-3.195c0.52-1.351,1.194-2.494,2.026-3.429
		c0.831-0.935,2.519-2.429,5.065-4.481c1.896-1.506,3.182-2.818,3.858-3.936c0.675-1.117,1.013-2.455,1.013-4.014
		c0-1.922-0.63-3.468-1.89-4.637c-1.26-1.169-2.916-1.753-4.968-1.753c-5.352,0-8.157,3.273-8.417,9.819H270.42
		c0.259-5.065,1.48-9.104,3.663-12.118c3.61-4.987,9.118-7.481,16.521-7.481c5.845,0,10.481,1.572,13.911,4.715
		c3.377,3.065,5.066,6.949,5.066,11.65C309.58,261.205,308.839,263.841,307.359,265.945z"/>
</g>
</svg>
