<?xml version="1.0" encoding="utf-8"?>
<!-- Generator: Adobe Illustrator 24.2.0, SVG Export Plug-In . SVG Version: 6.00 Build 0)  -->
<svg version="1.0" id="Ebene_1" xmlns="http://www.w3.org/2000/svg" xmlns:xlink="http://www.w3.org/1999/xlink" x="0px" y="0px"
	 viewBox="0 0 400 400" enable-background="new 0 0 400 400" xml:space="preserve">
<polygon id="background-blue" fill="#2D327D" points="400,400 0,400 0,0 400,0 400,400 "/>
<g id="content">
	<path id="frameWhite" fill="#FFFFFF" d="M340,40c11,0,20,9,20,20v280c0,11-9,20-20,20H60c-11,0-20-9-20-20V60c0-11,9-20,20-20H340
		 M340,35H60c-13.785,0-25,11.215-25,25v280c0,13.785,11.215,25,25,25h280c13.785,0,25-11.215,25-25V60
		C365,46.215,353.785,35,340,35L340,35z"/>
	<g>
		<path fill="#FFFFFF" d="M89.74,301h60.021l9.719-145.609c0.02-0.296,0.02-0.597,0.02-0.91c0-7.428-6.042-13.481-13.497-13.481
			h-52.49C86.038,141,80,147.053,80,154.481c0,0.313,0.018,0.613,0.018,0.91L89.74,301L89.74,301z M90.612,156.004
			c0-2.766,2.23-5.013,5.001-5.013h48.271c2.771,0,5.022,2.247,5.022,5.013c0,0.11,0,0.224-0.021,0.334L145.911,201H93.607
			l-2.995-44.662C90.612,156.228,90.612,156.114,90.612,156.004L90.612,156.004z"/>
		<polygon fill="#FFFFFF" points="142.919,162.615 139.424,160.628 134.479,169.3 137.939,171.305 142.919,162.615 		"/>
		<polygon fill="#FFFFFF" points="132.697,157.916 128.83,156.896 126.3,166.57 130.167,167.59 132.697,157.916 		"/>
		<polygon fill="#FFFFFF" points="117.752,156.004 121.765,156.004 121.765,165.995 117.752,165.995 117.752,156.004 		"/>
		<path fill="#FFFFFF" d="M117.157,196.004h5.204l-10.78-36.882c-0.334-1.057-1.303-1.781-2.416-1.781
			c-1.375,0-2.492,1.112-2.492,2.487c0,0.241,0.038,0.482,0.093,0.707L117.157,196.004L117.157,196.004z"/>
		<polygon fill="#FFFFFF" points="104.963,169.355 99.983,160.683 96.505,162.671 101.485,171.343 104.963,169.355 		"/>
	</g>
	<path fill="#FFFFFF" d="M305.007,201.002H270v-10.008c0-6.074-4.922-10.994-11-10.994h-27.998c-6.077,0-11,4.919-11,10.994v10.008
		h-35.006c-8.288,0-14.996,6.704-14.996,14.987v70.007c0,8.282,6.708,15.004,14.996,15.004h120.011
		c8.269,0,14.993-6.722,14.993-15.004v-70.007C320,207.706,313.275,201.002,305.007,201.002L305.007,201.002z M242.502,257.993
		c0,2.229-1.802,4.01-3.997,4.01h-27.013c-2.194,0-3.996-1.781-3.996-4.01v-34.631c0-1.061,0.428-2.081,1.171-2.826l8.806-8.802
		c0.483-0.461,1.116-0.723,1.768-0.723h3.249v4.979h5.02v-4.979h3.249c0.65,0,1.301,0.262,1.767,0.723l8.806,8.802
		c0.745,0.745,1.172,1.765,1.172,2.826V257.993L242.502,257.993z M260.989,201.002h-31.995v-12.013h31.995V201.002L260.989,201.002z
		"/>
	<polygon fill="#FFFFFF" points="80,311 319.857,311 319.857,320 80,320 80,311 	"/>
</g>
</svg>
