<?xml version="1.0" encoding="utf-8"?>
<!-- Generator: Adobe Illustrator 24.2.0, SVG Export Plug-In . SVG Version: 6.00 Build 0)  -->
<svg version="1.0" id="Ebene_1" xmlns="http://www.w3.org/2000/svg" xmlns:xlink="http://www.w3.org/1999/xlink" x="0px" y="0px"
	 viewBox="0 0 400 400" enable-background="new 0 0 400 400" xml:space="preserve">
<polygon id="background-blue" fill="#2D327D" points="400,400 0,400 0,0 400,0 400,400 "/>
<g id="content">
	<path id="frameWhite" fill="#FFFFFF" d="M340,40c11,0,20,9,20,20v280c0,11-9,20-20,20H60c-11,0-20-9-20-20V60c0-11,9-20,20-20H340
		 M340,35H60c-13.785,0-25,11.215-25,25v280c0,13.785,11.215,25,25,25h280c13.785,0,25-11.215,25-25V60
		C365,46.215,353.785,35,340,35L340,35z"/>
	<path fill="#FFFFFF" d="M113.753,168.761c0.792,0.792,1.882,1.239,3.011,1.239c2.339,0,4.247-1.907,4.247-4.248
		c0-1.126-0.446-2.216-1.239-3.008l-4.498-4.482l1.797-1.808l12.225,12.232c0.856,0.842,1.995,1.313,3.184,1.313
		c2.49,0,4.509-2.006,4.509-4.507c0-1.189-0.482-2.328-1.326-3.182L123.44,150.09l1.807-1.795l20.39,20.392
		c0.828,0.842,1.981,1.313,3.169,1.313c2.491,0,4.509-2.006,4.509-4.507c0-1.189-0.484-2.328-1.312-3.182l-20.401-20.392
		l1.809-1.795l28.477,28.489c0.892,0.891,2.105,1.387,3.37,1.387c2.613,0,4.744-2.13,4.744-4.755c0-1.251-0.508-2.463-1.4-3.355
		l-40.205-40.214c-0.844-0.841-1.313-1.993-1.313-3.182c0-2.489,2.019-4.506,4.496-4.506h15.916c3.319,0,6.008-2.675,6.008-5.993
		c0-0.297-0.014-0.583-0.062-0.855c-0.174-1.237-1.227-2.141-2.477-2.141H80v35.001h4.992L113.753,168.761L113.753,168.761z"/>
	<path fill="#FFFFFF" d="M230,285.997v-69.996c0-8.282-6.725-15.003-15-15.003h-35.003v-9.001c0-6.623-5.376-11.996-11.99-11.996
		h-26.013c-6.612,0-11.99,5.373-11.99,11.996v9.001H94.999c-8.287,0-14.999,6.721-14.999,15.003v69.996
		c0,8.282,6.712,15.003,14.999,15.003H215C223.275,301.001,230,294.279,230,285.997L230,285.997z M138.996,189.001h32.007v11.997
		h-32.007V189.001L138.996,189.001z M192.507,257.497c0,2.217-1.796,4.011-4.014,4.011h-26.99c-2.217,0-4.001-1.794-4.001-4.011
		V222.86c0-1.064,0.42-2.067,1.165-2.824h0.014l8.286-8.293c0.482-0.482,1.115-0.744,1.785-0.744h3.751v5.002h4.992v-5.002h3.765
		c0.658,0,1.302,0.262,1.761,0.744l8.31,8.293c0.756,0.757,1.178,1.759,1.178,2.824V257.497L192.507,257.497z"/>
	<polygon fill="#FFFFFF" points="170,311 320,311 320,320 170,320 170,311 	"/>
</g>
</svg>
