<?xml version="1.0" encoding="utf-8"?>
<!-- Generator: Adobe Illustrator 24.2.0, SVG Export Plug-In . SVG Version: 6.00 Build 0)  -->
<svg version="1.0" id="Ebene_1" xmlns="http://www.w3.org/2000/svg" xmlns:xlink="http://www.w3.org/1999/xlink" x="0px" y="0px"
	 viewBox="0 0 400 400" enable-background="new 0 0 400 400" xml:space="preserve">
<polygon id="background-blue" fill="#2D327D" points="400,400 0,400 0,0 400,0 400,400 "/>
<g id="content">
	<path id="frameWhite" fill="#FFFFFF" d="M340,40c11,0,20,9,20,20v280c0,11-9,20-20,20H60c-11,0-20-9-20-20V60c0-11,9-20,20-20H340
		 M340,35H60c-13.785,0-25,11.215-25,25v280c0,13.785,11.215,25,25,25h280c13.785,0,25-11.215,25-25V60
		C365,46.215,353.785,35,340,35L340,35z"/>
	<path fill="#FFFFFF" d="M290.011,139.997h-53.005v-12.504c0-9.654-7.84-17.492-17.504-17.492h-39.007
		c-9.66,0-17.49,7.838-17.49,17.492v12.504h-53.003C93.44,139.997,80,153.441,80,170.005v120.01C80,306.556,93.44,320,110.003,320
		h180.008C306.572,320,320,306.556,320,290.016v-120.01C320,153.441,306.572,139.997,290.011,139.997L290.011,139.997z
		 M223.01,139.997h-46.008v-15.994h46.008V139.997L223.01,139.997z"/>
</g>
</svg>
