<?xml version="1.0" encoding="utf-8"?>
<!-- Generator: Adobe Illustrator 24.2.0, SVG Export Plug-In . SVG Version: 6.00 Build 0)  -->
<svg version="1.0" id="Ebene_1" xmlns="http://www.w3.org/2000/svg" xmlns:xlink="http://www.w3.org/1999/xlink" x="0px" y="0px"
	 viewBox="0 0 400 400" enable-background="new 0 0 400 400" xml:space="preserve">
<polygon id="background-blue" fill="#2D327D" points="400,400 0,400 0,0 400,0 400,400 "/>
<g id="content">
	<path id="frameWhite" fill="#FFFFFF" d="M340,40c11,0,20,9,20,20v280c0,11-9,20-20,20H60c-11,0-20-9-20-20V60c0-11,9-20,20-20H340
		 M340,35H60c-13.785,0-25,11.215-25,25v280c0,13.785,11.215,25,25,25h280c13.785,0,25-11.215,25-25V60
		C365,46.215,353.785,35,340,35L340,35z"/>
	<polygon fill="#FFFFFF" points="80,140 89,140 89,155 80,155 80,140 	"/>
	<polygon fill="#FFFFFF" points="80,295 89,295 89,310 80,310 80,295 	"/>
	<polygon fill="#FFFFFF" points="99,130 113,130 113,320 99,320 99,130 	"/>
	<polygon fill="#FFFFFF" points="122,295.5 278,295.5 278,310 122,310 122,295.5 	"/>
	<path fill="#FFFFFF" d="M263.011,184.506h-39.006v-7.503c0-6.883-5.599-12.503-12.498-12.503h-23.016
		c-6.899,0-12.485,5.62-12.485,12.503v7.503h-39.006c-8.288,0-15.001,6.721-15.001,15.003v70.514
		c0,8.269,6.712,14.977,15.001,14.977h126.011c8.276,0,14.989-6.708,14.989-14.977v-70.514
		C278,191.227,271.287,184.506,263.011,184.506L263.011,184.506z M214.999,184.506h-30.001v-10.992h30.001V184.506L214.999,184.506z
		"/>
	<polygon fill="#FFFFFF" points="122,140 278,140 278,154.5 122,154.5 122,140 	"/>
	<polygon fill="#FFFFFF" points="287.001,130 301.001,130 301.001,320 287.001,320 287.001,130 	"/>
	<polygon fill="#FFFFFF" points="311,140 320,140 320,155 311,155 311,140 	"/>
	<polygon fill="#FFFFFF" points="311,295 320,295 320,310 311,310 311,295 	"/>
</g>
</svg>
