<?xml version="1.0" encoding="utf-8"?>
<!-- Generator: Adobe Illustrator 24.2.0, SVG Export Plug-In . SVG Version: 6.00 Build 0)  -->
<svg version="1.0" id="Ebene_1" xmlns="http://www.w3.org/2000/svg" xmlns:xlink="http://www.w3.org/1999/xlink" x="0px" y="0px"
	 viewBox="0 0 400 400" enable-background="new 0 0 400 400" xml:space="preserve">
<polygon id="background-blue" fill="#2D327D" points="400,400 0,400 0,0 400,0 400,400 "/>
<g id="content">
	<path id="frameWhite" fill="#FFFFFF" d="M340,40c11,0,20,9,20,20v280c0,11-9,20-20,20H60c-11,0-20-9-20-20V60c0-11,9-20,20-20H340
		 M340,35H60c-13.785,0-25,11.215-25,25v280c0,13.785,11.215,25,25,25h280c13.785,0,25-11.215,25-25V60
		C365,46.215,353.785,35,340,35L340,35z"/>
	<path fill="#FFFFFF" d="M80,145v175h240V145H80L80,145z M305,305H95V160h210V305L305,305z"/>
	<path fill="#FFFFFF" d="M134.999,295h129.988c8.286,0,15.013-6.709,15.013-15.002v-75.995c0-8.255-6.727-14.99-15.013-14.99
		h-40.984v-6.487c0-6.908-5.612-12.526-12.51-12.526h-23c-6.887,0-12.484,5.618-12.484,12.526v6.487h-41.011
		c-8.273,0-14.999,6.735-14.999,14.99v75.995C120,288.291,126.726,295,134.999,295L134.999,295z M185.001,179.012h29.997v10.001
		h-29.997V179.012L185.001,179.012z"/>
	<path id="Schlüssel" fill="#FFFFFF" d="M165,112.5l10,10l10-10l10,10l12.5-12.5L195,97.5h-57.181
		c-4.775-10.609-15.431-18-27.819-18c-16.845,0-30.5,13.655-30.5,30.5c0,16.845,13.655,30.5,30.5,30.5
		c12.389,0,23.044-7.391,27.819-18H155L165,112.5z M95,120c-5.523,0-10-4.477-10-10c0-5.523,4.477-10,10-10s10,4.477,10,10
		C105,115.523,100.523,120,95,120z"/>
</g>
</svg>
