<?xml version="1.0" encoding="utf-8"?>
<!-- Generator: Adobe Illustrator 24.2.0, SVG Export Plug-In . SVG Version: 6.00 Build 0)  -->
<svg version="1.0" id="Ebene_1" xmlns="http://www.w3.org/2000/svg" xmlns:xlink="http://www.w3.org/1999/xlink" x="0px" y="0px"
	 viewBox="0 0 400 400" enable-background="new 0 0 400 400" xml:space="preserve">
<polygon id="background-blue" fill="#2D327D" points="0,0 400,0 400,400 0,400 0,0 "/>
<g id="content">
	<path id="frameWhite" fill="#FFFFFF" d="M340,40c11,0,20,9,20,20v280c0,11-9,20-20,20H60c-11,0-20-9-20-20V60c0-11,9-20,20-20H340
		 M340,35H60c-13.785,0-25,11.215-25,25v280c0,13.785,11.215,25,25,25h280c13.785,0,25-11.215,25-25V60
		C365,46.215,353.785,35,340,35L340,35z"/>
	<path fill="#FFFFFF" d="M135.009,260H85.006c-2.763,0-5.006,2.241-5.006,4.988V320h9.997v-49.986h39.995V320h10.008v-55.012
		C139.999,262.241,137.758,260,135.009,260L135.009,260z"/>
	<path fill="#FFFFFF" d="M171.34,238.673c-0.656-4.977-4.892-8.678-9.922-8.678h-36.417v-35.257l17.837,26.393
		c1.573,2.329,4.212,3.74,7.035,3.74c4.695,0,8.497-3.802,8.497-8.492c0-1.697-0.508-3.368-1.449-4.755l-36.701-54.3
		c-4.089-6.065-10.914-9.681-18.221-9.681C89.85,147.643,80,157.498,80,169.655V240c0,5.508,4.485,10.003,9.998,10.003h62.181
		l8.151,61.182c0.681,5.101,5.016,8.902,10.156,8.902c5.648,0,10.256-4.594,10.256-10.25c0-0.446-0.024-0.905-0.1-1.351
		L171.34,238.673L171.34,238.673z"/>
	<path fill="#FFFFFF" d="M309.992,244.485H279.25v-5.992c0-4.679-3.814-8.493-8.51-8.493h-19.495c-4.682,0-8.496,3.814-8.496,8.493
		v5.992h-30.743c-5.525,0-10.007,4.506-10.007,10.016v55.497c0,5.522,4.482,10.002,10.007,10.002h97.985
		c5.525,0,10.008-4.48,10.008-10.002v-55.497C320,248.991,315.518,244.485,309.992,244.485L309.992,244.485z M272.253,244.485
		h-22.492v-7.478h22.492V244.485L272.253,244.485z"/>
	<g>
		<path fill="#FFFFFF" d="M280.508,161C303.421,161,322,142.407,322,119.506C322,96.581,303.421,78,280.508,78
			C257.591,78,239,96.581,239,119.506C239,142.407,257.591,161,280.508,161L280.508,161z M280.508,87.507
			c17.663,0,31.994,14.334,31.994,31.999c0,17.653-14.332,31.988-31.994,31.988c-17.665,0-32.008-14.335-32.008-31.988
			C248.5,101.841,262.843,87.507,280.508,87.507L280.508,87.507z"/>
		<path fill="#FFFFFF" d="M298.602,104.183c0.458-0.482,0.732-1.112,0.732-1.781c0-1.375-1.116-2.489-2.503-2.489
			c-0.67,0-1.289,0.26-1.773,0.73l-12.199,12.194l3.541,3.529L298.602,104.183L298.602,104.183z"/>
		<path fill="#FFFFFF" d="M279.343,123.448l3.518-3.542l-19.262-19.263c-0.458-0.47-1.103-0.73-1.771-0.73
			c-1.375,0-2.491,1.115-2.491,2.489c0,0.668,0.26,1.299,0.731,1.781L279.343,123.448L279.343,123.448z"/>
	</g>
	<path fill="#FFFFFF" d="M100.002,141c11.033,0,19.998-8.973,19.998-20.001c0-11.038-8.966-19.999-19.998-19.999
		C88.954,101,80,109.961,80,120.999C80,132.027,88.954,141,100.002,141L100.002,141z"/>
</g>
</svg>
