<?xml version="1.0" encoding="utf-8"?>
<!-- Generator: Adobe Illustrator 24.2.0, SVG Export Plug-In . SVG Version: 6.00 Build 0)  -->
<svg version="1.0" id="Ebene_1" xmlns="http://www.w3.org/2000/svg" xmlns:xlink="http://www.w3.org/1999/xlink" x="0px" y="0px"
	 viewBox="0 0 400 400" enable-background="new 0 0 400 400" xml:space="preserve">
<polygon id="background-blue" fill="#2D327D" points="0,0 400,0 400,400 0,400 0,0 "/>
<g id="content">
	<path id="frameWhite" fill="#FFFFFF" d="M340,40c11,0,20,9,20,20v280c0,11-9,20-20,20H60c-11,0-20-9-20-20V60c0-11,9-20,20-20H340
		 M340,35H60c-13.785,0-25,11.215-25,25v280c0,13.785,11.215,25,25,25h280c13.785,0,25-11.215,25-25V60
		C365,46.215,353.785,35,340,35L340,35z"/>
	<path fill="#FFFFFF" d="M284.834,201.327l35.165,35.185V320h-105.21c-4.645,0-8.385-3.762-8.385-8.368c0-0.198,0-0.396,0.01-0.605
		c0.014-0.745,0.15-1.476,0.41-2.155c1.957-5.335,7.035-8.876,12.708-8.876h0.248h29.207c3.591,0,6.515-2.921,6.515-6.499v-16.949
		c0-2.648-1.064-5.187-2.949-7.056l-54.478-54.5c-3.64-3.608-3.64-9.477-0.02-13.096c3.62-3.62,9.488-3.62,13.107,0l57.939,57.952
		l3.184-3.182l-51.789-51.784l3.52-3.554c1.51-1.485,3.543-2.327,5.66-2.327c2.131,0,4.161,0.842,5.66,2.327l46.326,46.337
		l3.171-3.193l-39.587-39.59l3.518-3.554c1.512-1.485,3.542-2.327,5.66-2.327c2.131,0,4.162,0.842,5.663,2.327l33.937,33.945
		l3.183-3.169l-27.211-27.223l3.517-3.554c1.512-1.485,3.543-2.327,5.662-2.327C281.303,199,283.335,199.842,284.834,201.327
		L284.834,201.327z"/>
	<path fill="#FFFFFF" d="M115.165,258.673l-35.165-35.184V140h105.21c4.646,0,8.385,3.762,8.385,8.368c0,0.198,0,0.396-0.01,0.606
		c-0.014,0.744-0.15,1.475-0.41,2.155c-1.956,5.334-7.035,8.876-12.708,8.876h-0.248h-29.207c-3.592,0-6.515,2.921-6.515,6.499
		v16.948c0,2.648,1.065,5.188,2.949,7.057l54.478,54.5c3.64,3.608,3.64,9.477,0.02,13.096c-3.619,3.62-9.488,3.62-13.107,0
		l-57.939-57.952l-3.184,3.183l51.788,51.784l-3.519,3.554c-1.511,1.485-3.543,2.327-5.661,2.327c-2.13,0-4.161-0.842-5.66-2.327
		l-46.326-46.337l-3.171,3.193l39.588,39.59l-3.518,3.554c-1.512,1.485-3.542,2.327-5.66,2.327c-2.131,0-4.162-0.842-5.662-2.327
		l-33.938-33.946l-3.183,3.17l27.212,27.223l-3.518,3.554c-1.512,1.485-3.542,2.327-5.661,2.327
		C118.696,261,116.664,260.158,115.165,258.673L115.165,258.673z"/>
	<g>
		<path fill="#FFFFFF" d="M105.143,88.88h-6.234c-0.123-1.463-0.666-2.581-1.63-3.353c-0.964-0.772-2.314-1.159-4.05-1.159
			c-1.545,0-2.745,0.304-3.599,0.913s-1.282,1.459-1.282,2.553c0,0.984,0.41,1.695,1.23,2.133c0.793,0.438,2.803,1.053,6.029,1.846
			c3.404,0.848,5.763,1.702,7.075,2.563c2.42,1.586,3.63,3.794,3.63,6.624c0,3.104-1.217,5.551-3.65,7.342
			c-2.146,1.572-5.052,2.358-8.716,2.358c-4.074,0-7.239-0.93-9.495-2.789c-2.256-1.859-3.425-4.505-3.507-7.937h6.521
			c0.096,1.668,0.526,2.905,1.292,3.712c1.203,1.285,3.015,1.928,5.435,1.928c1.641,0,2.939-0.321,3.896-0.964
			c1.08-0.738,1.62-1.743,1.62-3.015c0-1.271-0.759-2.201-2.276-2.789c-0.834-0.328-2.803-0.923-5.906-1.784
			c-1.941-0.533-3.459-1.039-4.553-1.518c-1.094-0.479-1.969-1.012-2.625-1.6c-1.531-1.367-2.297-3.254-2.297-5.66
			c0-2.885,1.196-5.168,3.589-6.85c2.037-1.436,4.683-2.153,7.937-2.153c2.857,0,5.25,0.567,7.178,1.702
			C103.529,82.611,104.992,85.243,105.143,88.88z"/>
		<path fill="#FFFFFF" d="M123.887,79.282c3.992,0,7.342,1.312,10.049,3.938c2.98,2.898,4.471,6.822,4.471,11.771
			c0,4.266-1.128,7.8-3.384,10.603c-2.762,3.404-6.535,5.106-11.32,5.106c-4.895,0-8.736-1.743-11.525-5.229
			c-2.201-2.762-3.302-6.241-3.302-10.438c0-4.977,1.429-8.853,4.286-11.628C115.977,80.656,119.553,79.282,123.887,79.282z
			 M123.559,84.737c-2.406,0-4.348,0.916-5.824,2.748c-1.504,1.846-2.256,4.334-2.256,7.465c0,3.24,0.738,5.763,2.215,7.567
			c0.697,0.861,1.579,1.531,2.646,2.01c1.066,0.479,2.201,0.718,3.404,0.718c2.393,0,4.279-0.834,5.66-2.502
			c1.6-1.914,2.399-4.519,2.399-7.813c0-3.117-0.731-5.599-2.194-7.444C128.159,85.653,126.143,84.737,123.559,84.737z"/>
		<path fill="#FFFFFF" d="M165.107,88.88h-6.234c-0.123-1.463-0.667-2.581-1.63-3.353c-0.964-0.772-2.314-1.159-4.05-1.159
			c-1.545,0-2.745,0.304-3.599,0.913c-0.855,0.608-1.282,1.459-1.282,2.553c0,0.984,0.41,1.695,1.23,2.133
			c0.793,0.438,2.803,1.053,6.029,1.846c3.404,0.848,5.763,1.702,7.075,2.563c2.42,1.586,3.63,3.794,3.63,6.624
			c0,3.104-1.217,5.551-3.65,7.342c-2.146,1.572-5.052,2.358-8.716,2.358c-4.074,0-7.239-0.93-9.495-2.789
			c-2.256-1.859-3.425-4.505-3.507-7.937h6.521c0.096,1.668,0.526,2.905,1.292,3.712c1.203,1.285,3.015,1.928,5.435,1.928
			c1.641,0,2.939-0.321,3.896-0.964c1.08-0.738,1.62-1.743,1.62-3.015c0-1.271-0.759-2.201-2.276-2.789
			c-0.834-0.328-2.803-0.923-5.906-1.784c-1.941-0.533-3.459-1.039-4.553-1.518c-1.094-0.479-1.969-1.012-2.625-1.6
			c-1.531-1.367-2.297-3.254-2.297-5.66c0-2.885,1.196-5.168,3.589-6.85c2.037-1.436,4.683-2.153,7.937-2.153
			c2.857,0,5.25,0.567,7.178,1.702C163.494,82.611,164.957,85.243,165.107,88.88z"/>
	</g>
</g>
</svg>
