<?xml version="1.0" encoding="utf-8"?>
<!-- Generator: Adobe Illustrator 24.2.0, SVG Export Plug-In . SVG Version: 6.00 Build 0)  -->
<svg version="1.0" id="Ebene_1" xmlns="http://www.w3.org/2000/svg" xmlns:xlink="http://www.w3.org/1999/xlink" x="0px" y="0px"
	 viewBox="0 0 400 400" enable-background="new 0 0 400 400" xml:space="preserve">
<polygon id="background-blue" fill="#2D327D" points="400,400 0,400 0,0 400,0 400,400 "/>
<g id="content">
	<path id="frameWhite" fill="#FFFFFF" d="M340,40c11,0,20,9,20,20v280c0,11-9,20-20,20H60c-11,0-20-9-20-20V60c0-11,9-20,20-20H340
		 M340,35H60c-13.785,0-25,11.215-25,25v280c0,13.785,11.215,25,25,25h280c13.785,0,25-11.215,25-25V60
		C365,46.215,353.785,35,340,35L340,35z"/>
	<path fill="#FFFFFF" d="M310.001,267.502l-29.825,22.371l-29.791-20.316l69.611-79.551l-17.488-10.003l-109.09,50.731
		l-64.348-43.86c-7.791-5.188-16.945-7.961-26.298-7.961c-4.62,0-9.216,0.668-13.638,2.005c-5.932,1.785-10.008,7.255-10.008,13.457
		c0,2.761,0.818,5.473,2.353,7.788v-0.012c4.039,6.079,9.215,11.328,15.248,15.438L220.93,302.24l69.006,17.851l32.467-43.279
		L310.001,267.502L310.001,267.502z"/>
	<g>
		<path fill="#FFFFFF" d="M109.511,98.416c-0.219,3.104-1.258,5.756-3.117,7.957c-2.434,2.885-5.879,4.327-10.336,4.327
			c-4.744,0-8.436-1.675-11.074-5.024c-2.256-2.857-3.384-6.426-3.384-10.705c0-4.484,1.34-8.224,4.02-11.218
			c2.68-2.98,6.241-4.471,10.685-4.471c4.143,0,7.479,1.367,10.008,4.102c1.805,1.928,2.803,4.149,2.994,6.665h-6.46
			c-0.356-1.695-1.114-3.004-2.276-3.927c-1.162-0.923-2.632-1.384-4.409-1.384c-2.844,0-4.97,1.196-6.378,3.589
			c-1.053,1.818-1.579,4.047-1.579,6.686c0,2.707,0.554,4.963,1.661,6.768c1.408,2.311,3.493,3.466,6.255,3.466
			c1.969,0,3.538-0.581,4.707-1.743c1.169-1.162,1.89-2.857,2.164-5.086H109.511z"/>
		<path fill="#FFFFFF" d="M119.375,80v10.664c0.656-1.176,1.589-2.095,2.799-2.758c1.21-0.663,2.546-0.995,4.009-0.995
			c2.994,0,5.141,1.06,6.439,3.179c0.752,1.23,1.128,3.117,1.128,5.66v14.232h-5.927V96.816c0-1.641-0.226-2.775-0.677-3.404
			c-0.67-0.93-1.716-1.395-3.138-1.395c-1.873,0-3.213,0.82-4.02,2.461c-0.246,0.506-0.41,1.06-0.492,1.661
			c-0.082,0.602-0.123,1.565-0.123,2.892v10.951h-5.947V80H119.375z"/>
		<path fill="#FFFFFF" d="M158.545,103.01c-0.314,1.258-0.882,2.44-1.702,3.548c-1.969,2.693-4.799,4.04-8.49,4.04
			c-3.336,0-6.009-1.053-8.018-3.158c-0.984-1.025-1.736-2.263-2.256-3.712c-0.561-1.545-0.841-3.158-0.841-4.84
			c0-3.254,0.936-5.988,2.81-8.203c2.092-2.475,4.799-3.712,8.121-3.712c2.68,0,4.963,0.827,6.85,2.481
			c1.354,1.189,2.338,2.656,2.953,4.399c0.615,1.743,0.923,3.934,0.923,6.573h-15.607c0.055,1.094,0.226,2.003,0.513,2.728
			c0.807,1.955,2.338,2.933,4.594,2.933c1.107,0,2.01-0.243,2.707-0.728c0.697-0.485,1.271-1.268,1.723-2.348H158.545z
			 M152.823,96.427c-0.109-1.08-0.355-1.976-0.738-2.687c-0.383-0.697-0.926-1.251-1.63-1.661c-0.704-0.41-1.473-0.615-2.307-0.615
			c-1.326,0-2.42,0.444-3.281,1.333c-0.861,0.889-1.374,2.099-1.538,3.63H152.823z"/>
		<path fill="#FFFFFF" d="M183.216,101.39c-0.287,2.229-1.032,4.088-2.235,5.578c-1.941,2.42-4.683,3.63-8.224,3.63
			c-3.637,0-6.467-1.244-8.49-3.732c-1.709-2.119-2.564-4.737-2.564-7.854c0-3.855,1.142-6.897,3.425-9.126
			c1.996-1.941,4.573-2.912,7.732-2.912c2.912,0,5.277,0.755,7.096,2.266c1.818,1.511,2.857,3.579,3.117,6.204h-5.845
			c-0.219-1.189-0.704-2.112-1.456-2.769c-0.752-0.656-1.702-0.984-2.851-0.984c-1.654,0-2.936,0.625-3.845,1.876
			s-1.364,3.004-1.364,5.26c0,1.996,0.362,3.603,1.087,4.819c0.889,1.49,2.222,2.235,3.999,2.235c2.625,0,4.163-1.497,4.614-4.491
			H183.216z"/>
		<path fill="#FFFFFF" d="M207.62,87.588l-8.183,8.265l9.126,14.13h-7.219l-5.988-9.905l-2.44,2.317v7.588h-5.947V80h5.947v15.565
			l7.629-7.978H207.62z"/>
		<path fill="#FFFFFF" d="M220.704,96.14v5.332h-11.402V96.14H220.704z"/>
		<path fill="#FFFFFF" d="M231.942,80v5.353h-5.947V80H231.942z M231.942,87.629v22.354h-5.947V87.629H231.942z"/>
		<path fill="#FFFFFF" d="M242.34,87.649v3.138c0.697-0.957,1.347-1.661,1.948-2.112c1.477-1.148,3.254-1.723,5.332-1.723
			c1.832,0,3.384,0.465,4.655,1.395c1.012,0.738,1.719,1.671,2.122,2.799c0.403,1.128,0.605,2.717,0.605,4.768v14.068h-5.927V97.165
			c0-1.435-0.123-2.488-0.369-3.158c-0.232-0.588-0.629-1.053-1.189-1.395c-0.643-0.369-1.374-0.554-2.194-0.554
			c-0.902,0-1.723,0.219-2.461,0.656c-0.738,0.438-1.285,1.032-1.641,1.784c-0.396,0.848-0.595,2.167-0.595,3.958v11.525h-5.947
			V87.649H242.34z"/>
	</g>
</g>
</svg>
