<?xml version="1.0" encoding="utf-8"?>
<!-- Generator: Adobe Illustrator 24.2.0, SVG Export Plug-In . SVG Version: 6.00 Build 0)  -->
<svg version="1.0" xmlns="http://www.w3.org/2000/svg" xmlns:xlink="http://www.w3.org/1999/xlink" x="0px" y="0px"
	 viewBox="0 0 400 400" enable-background="new 0 0 400 400" xml:space="preserve">
<rect id="background-blue" y="-0.001" fill="#2D327D" width="400" height="400"/>
<g id="content">
	<path id="frameWhite" fill="#FFFFFF" d="M339.999,39.999c11,0,20,9,20,20v280c0,11-9,20-20,20H60c-11,0-20-9-20-20v-280
		c0-11,9-20,20-20H339.999 M339.999,34.999H60c-13.785,0-25,11.215-25,25v280c0,13.785,11.215,25,25,25h280
		c13.785,0,25-11.215,25-25v-280C364.999,46.214,353.785,34.999,339.999,34.999L339.999,34.999z"/>
	<polyline fill="#FFFFFF" points="314.999,85 314.999,105 264.999,105 264.999,110 319.999,110 319.999,80 319.999,80 80,80 80,110 
		134.999,110 134.999,105 85,105 85,85 314.999,85 	"/>
	<path fill="#FFFFFF" d="M213.798,142.499c-2.92,0-9.759,0-9.759,5.032c0,4.945,6.839,4.945,9.759,4.945
		c3.159,0,9.998,0,9.998-4.945C223.796,142.499,216.958,142.499,213.798,142.499z"/>
	<path fill="#FFFFFF" d="M213.798,168.622c-2.92,0-9.759,0-9.759,5.032c0,4.945,6.839,4.945,9.759,4.945
		c3.159,0,9.998,0,9.998-4.945C223.796,168.622,216.958,168.622,213.798,168.622z"/>
	<polygon fill="#FFFFFF" points="176.192,220.477 150,220.477 150,225.477 176.192,225.477 176.192,220.609 	"/>
	<polygon fill="#FFFFFF" points="250,225.477 250,94.999 245,94.999 245,220.477 203.966,220.477 203.966,225.477 	"/>
	<rect x="160" y="230.477" fill="#FFFFFF" width="16.193" height="5"/>
	<polygon fill="#FFFFFF" points="260,94.999 255,94.999 255,230.477 203.966,230.477 203.966,235.477 260,235.477 	"/>
	<path fill="#FFFFFF" d="M187.575,204.043c1.074-0.407,2.215-0.627,3.391-0.655c0.253-0.011,0.494-0.012,0.734-0.012
		c6.702,0,12.159,5.413,12.257,12.101H240V95H140v120.477h36.91C178.442,210.29,182.344,205.97,187.575,204.043z M227.916,195.694
		h-18.156v7.635h-4.279c0.079-4.295-1.28-8.242-5.56-8.894v-4.901h27.995V195.694z M213.798,136.339
		c11.158,0,14.678,5.119,14.678,11.192c0,5.986-3.52,11.105-14.678,11.105c-10.918,0-14.438-5.119-14.438-11.105
		C199.361,141.458,202.88,136.339,213.798,136.339z M213.798,162.462c11.158,0,14.678,5.119,14.678,11.192
		c0,5.986-3.52,11.105-14.678,11.105c-10.918,0-14.438-5.119-14.438-11.105C199.361,167.581,202.88,162.462,213.798,162.462z"/>
	<path fill="#FFFFFF" d="M82.307,285.124l34.894,34.875h82.798V215.658c0-4.607-3.731-8.315-8.299-8.315c-0.196,0-0.393,0-0.6,0.01
		c-0.739,0.013-1.463,0.149-2.137,0.407c-5.291,1.94-8.803,6.977-8.803,12.603v0.246v28.966c0,3.561-2.897,6.461-6.445,6.461
		h-16.809c-2.626,0-5.145-1.056-6.998-2.925l-54.05-54.028c-3.579-3.61-9.398-3.61-12.988-0.02c-3.59,3.59-3.59,9.41,0,12.999
		l57.473,57.461l-3.155,3.157l-51.356-51.36l-3.525,3.49c-1.473,1.498-2.308,3.514-2.308,5.613c0,2.113,0.835,4.127,2.308,5.613
		l45.954,45.943l-3.167,3.145l-39.263-39.26l-3.525,3.489c-1.473,1.5-2.308,3.512-2.308,5.613c0,2.114,0.835,4.127,2.308,5.616
		l33.665,33.656l-3.142,3.156l-26.998-26.987l-3.525,3.488c-1.473,1.499-2.308,3.514-2.308,5.615
		C79.999,281.622,80.835,283.638,82.307,285.124L82.307,285.124z"/>
</g>
</svg>
