<?xml version="1.0" encoding="utf-8"?>
<!-- Generator: Adobe Illustrator 24.2.0, SVG Export Plug-In . SVG Version: 6.00 Build 0)  -->
<svg version="1.0" id="Pictogramm" xmlns="http://www.w3.org/2000/svg" xmlns:xlink="http://www.w3.org/1999/xlink" x="0px" y="0px"
	 viewBox="0 0 400 400" enable-background="new 0 0 400 400" xml:space="preserve">
<rect id="background-blue" fill="#2D327D" width="400" height="400"/>
<g id="content">
	<path id="frameWhite" fill="#FFFFFF" d="M340,40c11,0,20,9,20,20v280c0,11-9,20-20,20H60c-11,0-20-9-20-20V60c0-11,9-20,20-20H340
		 M340,35H60c-13.785,0-25,11.215-25,25v280c0,13.785,11.215,25,25,25h280c13.785,0,25-11.215,25-25V60
		C365,46.215,353.785,35,340,35L340,35z"/>
	<g>
		<g>
			<path fill="#FFFFFF" d="M173.107,164.461c0-13.12,10.635-23.755,23.755-23.755c13.119,0,23.754,10.635,23.754,23.755
				c0,13.12-10.635,23.755-23.754,23.755C183.742,188.216,173.107,177.581,173.107,164.461z"/>
			<path fill="#FFFFFF" d="M196.862,164.461"/>
		</g>
		<path fill="#FFFFFF" d="M159.976,321.336c-0.754,0.001-4.561-0.754-4.561-4.704c0-3.39,2.859-4.708,4.566-4.708l15.09-0.007
			V209.404l-15.095,0.024c-0.754,0.001-4.561-0.754-4.561-4.704c0-3.389,2.859-4.707,4.566-4.708l57.888-0.021l-0.001,111.922
			l14.997,0.008c1.707,0,4.566,1.318,4.566,4.708c0,3.95-3.807,4.705-4.561,4.704H159.976z"/>
	</g>
	<g id="Ergaenzungstext">
		<path fill="#FFFFFF" d="M106.184,80v5.537h-9.105v24.445h-6.542V85.537h-9.064V80H106.184z"/>
		<path fill="#FFFFFF" d="M116.438,86.973c3.254,0,5.913,1.08,7.978,3.24c2.037,2.133,3.056,4.977,3.056,8.531
			c0,3.678-1.087,6.61-3.261,8.798c-2.037,2.037-4.689,3.056-7.957,3.056c-3.486,0-6.262-1.135-8.326-3.404
			c-1.969-2.16-2.953-4.963-2.953-8.408c0-3.391,0.957-6.146,2.871-8.265C109.964,88.155,112.828,86.973,116.438,86.973z
			 M116.13,91.607c-1.572,0-2.823,0.636-3.753,1.907c-0.943,1.285-1.415,3.042-1.415,5.271c0,2.311,0.465,4.081,1.395,5.312
			c0.957,1.244,2.263,1.866,3.917,1.866c1.545,0,2.769-0.567,3.671-1.702c1.025-1.258,1.538-3.083,1.538-5.475
			c0-2.242-0.451-3.985-1.354-5.229C119.185,92.257,117.852,91.607,116.13,91.607z"/>
		<path fill="#FFFFFF" d="M151.69,87.588v22.395h-5.66v-3.261c-1.709,2.584-4.102,3.876-7.178,3.876c-2.68,0-4.703-0.896-6.07-2.687
			c-0.52-0.697-0.892-1.518-1.118-2.461c-0.226-0.943-0.338-2.174-0.338-3.691V87.588h5.947v12.325c0,1.285,0.038,2.194,0.113,2.728
			c0.075,0.533,0.229,0.984,0.462,1.354c0.629,0.998,1.702,1.497,3.22,1.497c1.873,0,3.233-0.827,4.081-2.481
			c0.41-0.807,0.615-2.263,0.615-4.368V87.588H151.69z"/>
		<path fill="#FFFFFF" d="M170.209,87.219v5.763c-0.957-0.178-1.73-0.267-2.317-0.267c-2.215,0-3.842,0.93-4.881,2.789
			c-0.588,1.039-0.882,2.775-0.882,5.209v9.27h-5.947V87.588h5.66v4.081c1.613-3.035,3.958-4.553,7.034-4.553
			C169.259,87.116,169.703,87.15,170.209,87.219z"/>
		<path fill="#FFFFFF" d="M178.966,80v5.353h-5.947V80H178.966z M178.966,87.629v22.354h-5.947V87.629H178.966z"/>
		<path fill="#FFFFFF" d="M201.955,94.13h-5.578c-0.109-0.766-0.321-1.347-0.636-1.743c-0.615-0.793-1.757-1.189-3.425-1.189
			c-1.053,0-1.866,0.191-2.44,0.574c-0.574,0.383-0.861,0.923-0.861,1.62c0,0.738,0.318,1.278,0.954,1.62
			c0.636,0.342,2.088,0.745,4.358,1.21c2.885,0.588,4.963,1.319,6.234,2.194c1.504,1.025,2.256,2.584,2.256,4.676
			c0,2.393-0.93,4.245-2.789,5.558c-1.832,1.299-4.259,1.948-7.28,1.948c-3.746,0-6.494-0.923-8.244-2.769
			c-1.176-1.258-1.832-2.974-1.969-5.147h5.701c0.109,1.012,0.369,1.777,0.779,2.297c0.766,0.93,2.03,1.395,3.794,1.395
			c1.23,0,2.208-0.25,2.933-0.749c0.725-0.499,1.087-1.172,1.087-2.02c0-0.766-0.311-1.336-0.933-1.712
			c-0.622-0.376-1.938-0.796-3.948-1.261c-1.941-0.451-3.316-0.803-4.122-1.056s-1.531-0.557-2.174-0.913
			c-0.834-0.479-1.483-1.148-1.948-2.01c-0.465-0.861-0.697-1.818-0.697-2.871c0-2.324,0.964-4.095,2.892-5.311
			c1.572-0.998,3.76-1.497,6.563-1.497c3.705,0,6.364,0.943,7.977,2.83C201.312,90.828,201.818,92.271,201.955,94.13z"/>
		<path fill="#FFFFFF" d="M218.32,87.547v4.204h-4.45v10.521c0,1.258,0.116,2.058,0.349,2.399c0.342,0.492,1.107,0.738,2.297,0.738
			c0.465,0,1.066-0.034,1.805-0.103v4.758c-1.34,0.15-2.57,0.226-3.691,0.226c-1.695,0-2.987-0.191-3.876-0.574
			c-1.381-0.615-2.242-1.736-2.584-3.363c-0.15-0.697-0.226-2.14-0.226-4.327V91.751h-3.63v-4.204h3.63v-5.25h5.927v5.25H218.32z"/>
	</g>
</g>
</svg>
