<?xml version="1.0" encoding="utf-8"?>
<!-- Generator: Adobe Illustrator 24.2.0, SVG Export Plug-In . SVG Version: 6.00 Build 0)  -->
<svg version="1.0" id="Ebene_1" xmlns="http://www.w3.org/2000/svg" xmlns:xlink="http://www.w3.org/1999/xlink" x="0px" y="0px"
	 viewBox="0 0 400 400.001" enable-background="new 0 0 400 400.001" xml:space="preserve">
<polygon id="background-blue" fill="#2D327D" points="0,0 400,0 400,400 0,400 0,0 "/>
<g id="content">
	<path id="frameWhite" fill="#FFFFFF" d="M340,40c11,0,20,9,20,20v280c0,11-9,20-20,20H60c-11,0-20-9-20-20V60c0-11,9-20,20-20H340
		 M340,35H60c-13.785,0-25,11.215-25,25v280c0,13.785,11.215,25,25,25h280c13.785,0,25-11.215,25-25V60
		C365,46.215,353.785,35,340,35L340,35z"/>
	<path fill="#FFFFFF" d="M199.999,144.166c-30.815,0-55.824,25.012-55.824,55.826c0,30.817,25.009,55.826,55.824,55.826
		c30.815,0,55.826-25.009,55.826-55.826C255.825,169.178,230.814,144.166,199.999,144.166L199.999,144.166z"/>
	<polygon fill="#FFFFFF" points="140.788,269.971 138.995,311.236 153.348,296.885 153.348,246.644 103.109,246.644 88.755,260.998 
		130.024,259.204 78.2,311.026 88.966,321.793 140.788,269.971 	"/>
	<polygon fill="#FFFFFF" points="88.755,138.989 103.109,153.344 153.348,153.344 153.348,103.102 138.995,88.748 140.788,130.016 
		88.966,78.195 78.2,88.958 130.024,140.783 88.755,138.989 	"/>
	<polygon fill="#FFFFFF" points="311.245,260.998 296.89,246.644 246.651,246.644 246.651,296.885 261.005,311.236 259.211,269.971 
		311.034,321.793 321.8,311.026 269.976,259.204 311.245,260.998 	"/>
	<polygon fill="#FFFFFF" points="259.211,130.016 261.005,88.748 246.651,103.102 246.651,153.344 296.89,153.344 311.245,138.989 
		269.976,140.783 321.8,88.958 311.034,78.195 259.211,130.016 	"/>
</g>
</svg>
