<?xml version="1.0" encoding="utf-8"?>
<!-- Generator: Adobe Illustrator 24.2.0, SVG Export Plug-In . SVG Version: 6.00 Build 0)  -->
<svg version="1.0" id="Ebene_1" xmlns="http://www.w3.org/2000/svg" xmlns:xlink="http://www.w3.org/1999/xlink" x="0px" y="0px"
	 viewBox="0 0 400 400.001" enable-background="new 0 0 400 400.001" xml:space="preserve">
<polygon id="background-blue" fill="#2D327D" points="0,0 400,0 400,400 0,400 0,0 "/>
<g id="content">
	<path id="frameWhite" fill="#FFFFFF" d="M340,40c11,0,20,9,20,20v280c0,11-9,20-20,20H60c-11,0-20-9-20-20V60c0-11,9-20,20-20H340
		 M340,35H60c-13.785,0-25,11.215-25,25v280c0,13.785,11.215,25,25,25h280c13.785,0,25-11.215,25-25V60
		C365,46.215,353.785,35,340,35L340,35z"/>
	<path fill="#FFFFFF" d="M182.504,89.999c-9.662,0-17.503,7.85-17.503,17.506v112.492h10.008v79.999
		c0,6.907,5.588,12.506,12.499,12.506c6.9,0,12.498-5.598,12.498-12.506V107.505C200.007,97.849,192.166,89.999,182.504,89.999
		L182.504,89.999z"/>
	<path fill="#FFFFFF" d="M136.252,89.999c-2.067,0-3.742,1.685-3.742,3.752v51.251h-7.505V93.751c0-2.067-1.685-3.752-3.753-3.752
		c-2.067,0-3.752,1.685-3.752,3.752v51.251h-7.495V93.751c0-2.067-1.684-3.752-3.753-3.752c-2.067,0-3.752,1.685-3.752,3.752v51.251
		h-7.495V93.751c0-2.067-1.685-3.752-3.754-3.752c-2.069,0-3.754,1.685-3.754,3.752v51.251c0,0.1,0,0.186,0,0.274
		c0,10.077,5.204,19.424,13.75,24.734v129.987c0,6.907,5.61,12.506,12.497,12.506c6.9,0,12.513-5.598,12.513-12.506V170.01
		c8.545-5.31,13.747-14.657,13.747-24.734c0-0.088,0-0.174,0-0.274V93.751C140.005,91.684,138.321,89.999,136.252,89.999
		L136.252,89.999z"/>
</g>
</svg>
