<?xml version="1.0" encoding="utf-8"?>
<!-- Generator: Adobe Illustrator 24.2.0, SVG Export Plug-In . SVG Version: 6.00 Build 0)  -->
<svg version="1.0" id="Ebene_1" xmlns="http://www.w3.org/2000/svg" xmlns:xlink="http://www.w3.org/1999/xlink" x="0px" y="0px"
	 viewBox="0 0 400 400.001" enable-background="new 0 0 400 400.001" xml:space="preserve">
<polygon id="background-blue" fill="#2D327D" points="400,0 0,0 0,400 400,400 400,0 "/>
<g id="content">
	<path id="frameWhite" fill="#FFFFFF" d="M340,40c11,0,20,9,20,20v280c0,11-9,20-20,20H60c-11,0-20-9-20-20V60c0-11,9-20,20-20H340
		 M340,35H60c-13.785,0-25,11.215-25,25v280c0,13.785,11.215,25,25,25h280c13.785,0,25-11.215,25-25V60
		C365,46.215,353.785,35,340,35L340,35z"/>
	<path fill="#FFFFFF" d="M180.001,309.997c0,5.519,4.48,9.998,9.999,9.998h120.001c5.519,0,9.999-4.479,9.999-9.998v-4.999h-140
		V309.997L180.001,309.997z"/>
	<path fill="#FFFFFF" d="M290.001,199.995h-75c-2.761,0-5,2.243-5,5.002v80.002c0,5.519,4.481,9.998,9.999,9.998h60.002
		c5.519,0,9.999-4.479,9.999-9.998v-25.005c16.561,0,30-13.436,30-30C320.001,213.438,306.561,199.995,290.001,199.995
		L290.001,199.995z M290.072,249.997c-0.024,0-0.047,0-0.071,0v-40.001c0.024,0,0.047,0,0.071,0c11.039,0,20,8.961,20,19.999
		C310.072,241.036,301.111,249.997,290.072,249.997L290.072,249.997z"/>
	<path fill="#FFFFFF" d="M165.001,139.995H85.001l0,0c-2.761,0-4.999,2.243-4.999,5.002v54.998c0,21.132,16.413,38.626,37.5,39.973
		v65.03H85.001l0,0c-2.761,0-4.999,2.239-4.999,4.999v4.999c0,2.76,2.238,4.999,4.999,4.999h80.001c2.76,0,4.999-2.239,4.999-4.999
		v-4.999c0-2.76-2.239-4.999-4.999-4.999H132.5v-65.03c21.087-1.347,37.5-18.841,37.5-39.973v-54.998
		C170,142.238,167.761,139.995,165.001,139.995L165.001,139.995z"/>
</g>
</svg>
