<?xml version="1.0" encoding="utf-8"?>
<!-- Generator: Adobe Illustrator 24.2.0, SVG Export Plug-In . SVG Version: 6.00 Build 0)  -->
<svg version="1.0" id="Ebene_1" xmlns="http://www.w3.org/2000/svg" xmlns:xlink="http://www.w3.org/1999/xlink" x="0px" y="0px"
	 viewBox="0 0 400 400.001" enable-background="new 0 0 400 400.001" xml:space="preserve">
<rect id="background-blue" fill="#2D327D" width="400" height="400"/>
<g id="content">
	<path id="frameWhite" fill="#FFFFFF" d="M340,40c11,0,20,9,20,20v280c0,11-9,20-20,20H60c-11,0-20-9-20-20V60c0-11,9-20,20-20H340
		 M340,35H60c-13.785,0-25,11.215-25,25v280c0,13.785,11.215,25,25,25h280c13.785,0,25-11.215,25-25V60
		C365,46.215,353.785,35,340,35L340,35z"/>
	<path fill="#FFFFFF" d="M223.95,307.923l-5.515-120.837c-0.275-6.191-5.371-11.072-11.572-11.072h-26.103v-7.202
		c0-15.905-12.894-28.8-28.8-28.8c-15.905,0-28.8,12.895-28.8,28.8v7.202H97.055c-6.198,0-11.301,4.881-11.571,11.072
		l-5.511,120.837c-0.14,3.157,1.017,6.233,3.203,8.515c2.181,2.284,5.206,3.575,8.366,3.575H212.38c3.158,0,6.18-1.291,8.363-3.575
		C222.928,314.156,224.089,311.08,223.95,307.923 M139.362,168.813c0-6.959,5.64-12.599,12.599-12.599
		c6.959,0,12.601,5.64,12.601,12.599v7.202h-25.2V168.813z M103.879,296.614l4.497-97.201h14.785v15.299
		c0,4.473,3.626,8.099,8.099,8.099c4.475,0,8.101-3.626,8.101-8.099v-15.299h25.2v15.299c0,4.473,3.626,8.099,8.099,8.099
		c4.473,0,8.1-3.626,8.1-8.099v-15.299h14.783l4.495,97.201H103.879z"/>
	<path fill="#FFFFFF" d="M106.143,88.88h-6.234c-0.123-1.463-0.667-2.581-1.63-3.353c-0.964-0.773-2.314-1.159-4.05-1.159
		c-1.545,0-2.745,0.304-3.599,0.913c-0.854,0.607-1.282,1.459-1.282,2.553c0,0.984,0.41,1.695,1.23,2.133
		c0.793,0.438,2.803,1.053,6.029,1.846c3.404,0.848,5.763,1.702,7.075,2.563c2.42,1.586,3.63,3.794,3.63,6.624
		c0,3.104-1.217,5.551-3.65,7.342c-2.146,1.572-5.052,2.358-8.716,2.358c-4.074,0-7.239-0.93-9.495-2.789s-3.425-4.505-3.507-7.937
		h6.521c0.096,1.668,0.526,2.905,1.292,3.712c1.203,1.285,3.015,1.928,5.435,1.928c1.641,0,2.939-0.321,3.896-0.964
		c1.08-0.738,1.62-1.743,1.62-3.015s-0.759-2.201-2.276-2.789c-0.834-0.328-2.803-0.923-5.906-1.784
		c-1.941-0.533-3.459-1.039-4.553-1.518s-1.969-1.012-2.625-1.6c-1.531-1.367-2.297-3.254-2.297-5.66
		c0-2.885,1.196-5.168,3.589-6.85c2.037-1.436,4.683-2.153,7.937-2.153c2.857,0,5.25,0.567,7.178,1.702
		C104.529,82.611,105.992,85.243,106.143,88.88z"/>
	<path fill="#FFFFFF" d="M117.176,80v10.664c0.656-1.176,1.589-2.096,2.799-2.758c1.21-0.664,2.546-0.995,4.009-0.995
		c2.994,0,5.141,1.06,6.439,3.179c0.752,1.23,1.128,3.117,1.128,5.66v14.232h-5.927V96.816c0-1.641-0.226-2.775-0.677-3.404
		c-0.67-0.93-1.716-1.395-3.138-1.395c-1.873,0-3.213,0.82-4.02,2.461c-0.246,0.506-0.41,1.06-0.492,1.661s-0.123,1.565-0.123,2.892
		v10.951h-5.947V80H117.176z"/>
	<path fill="#FFFFFF" d="M146.871,86.973c3.254,0,5.913,1.08,7.978,3.24c2.037,2.133,3.056,4.977,3.056,8.531
		c0,3.678-1.087,6.61-3.261,8.798c-2.037,2.037-4.689,3.056-7.957,3.056c-3.486,0-6.262-1.135-8.326-3.404
		c-1.969-2.16-2.953-4.963-2.953-8.408c0-3.391,0.957-6.146,2.871-8.265C140.397,88.155,143.262,86.973,146.871,86.973z
		 M146.563,91.607c-1.572,0-2.823,0.636-3.753,1.907c-0.943,1.285-1.415,3.042-1.415,5.271c0,2.311,0.465,4.081,1.395,5.312
		c0.957,1.244,2.263,1.866,3.917,1.866c1.545,0,2.769-0.567,3.671-1.702c1.025-1.258,1.538-3.083,1.538-5.476
		c0-2.242-0.451-3.985-1.354-5.229C149.619,92.257,148.286,91.607,146.563,91.607z"/>
	<path fill="#FFFFFF" d="M167.399,87.629v2.83c1.627-2.338,3.89-3.507,6.788-3.507c2.885,0,5.216,1.107,6.993,3.322
		c1.777,2.188,2.666,5.072,2.666,8.654c0,3.35-0.786,6.077-2.358,8.183c-1.75,2.365-4.115,3.548-7.096,3.548
		c-2.871,0-5.106-1.155-6.706-3.466v10.89h-5.947V87.629H167.399z M172.588,92.059c-1.559,0-2.803,0.602-3.732,1.805
		c-0.93,1.189-1.395,2.864-1.395,5.024c0,2.229,0.485,3.944,1.456,5.147c0.93,1.162,2.201,1.743,3.814,1.743
		c1.586,0,2.823-0.574,3.712-1.723c0.943-1.23,1.415-2.905,1.415-5.024c0-2.229-0.479-3.965-1.436-5.209
		C175.534,92.646,174.256,92.059,172.588,92.059z"/>
	<path fill="#FFFFFF" d="M193.055,87.629v2.83c1.627-2.338,3.89-3.507,6.788-3.507c2.885,0,5.216,1.107,6.993,3.322
		c1.777,2.188,2.666,5.072,2.666,8.654c0,3.35-0.786,6.077-2.358,8.183c-1.75,2.365-4.115,3.548-7.096,3.548
		c-2.871,0-5.106-1.155-6.706-3.466v10.89h-5.947V87.629H193.055z M198.243,92.059c-1.559,0-2.803,0.602-3.732,1.805
		c-0.93,1.189-1.395,2.864-1.395,5.024c0,2.229,0.485,3.944,1.456,5.147c0.93,1.162,2.201,1.743,3.814,1.743
		c1.586,0,2.823-0.574,3.712-1.723c0.943-1.23,1.415-2.905,1.415-5.024c0-2.229-0.479-3.965-1.436-5.209
		C201.189,92.646,199.911,92.059,198.243,92.059z"/>
	<path fill="#FFFFFF" d="M219.182,80v5.353h-5.947V80H219.182z M219.182,87.629v22.354h-5.947V87.629H219.182z"/>
	<path fill="#FFFFFF" d="M229.579,87.649v3.138c0.697-0.957,1.347-1.661,1.948-2.112c1.477-1.148,3.254-1.723,5.332-1.723
		c1.832,0,3.384,0.465,4.655,1.395c1.012,0.738,1.719,1.671,2.123,2.8c0.403,1.127,0.605,2.717,0.605,4.768v14.068h-5.927V97.165
		c0-1.436-0.123-2.488-0.369-3.158c-0.232-0.588-0.629-1.053-1.189-1.395c-0.643-0.369-1.374-0.554-2.194-0.554
		c-0.902,0-1.723,0.219-2.461,0.656s-1.285,1.032-1.641,1.784c-0.396,0.848-0.595,2.167-0.595,3.958v11.525h-5.947V87.649H229.579z"
		/>
	<path fill="#FFFFFF" d="M269.795,87.588v19.729c0,1.75-0.109,3.148-0.328,4.193c-0.219,1.047-0.595,2-1.128,2.861
		c-1.723,2.734-4.812,4.102-9.27,4.102c-6.207,0-9.604-2.345-10.192-7.034h5.988c0.41,1.873,1.853,2.81,4.327,2.81
		c1.887,0,3.206-0.533,3.958-1.6c0.588-0.848,0.882-2.215,0.882-4.102l0.021-2.769c-1.531,2.352-3.746,3.527-6.645,3.527
		c-2.803,0-5.038-0.984-6.706-2.953c-1.695-1.996-2.543-4.689-2.543-8.08s0.848-6.111,2.543-8.162
		c1.764-2.119,4.081-3.179,6.952-3.179c1.49,0,2.734,0.28,3.732,0.841s1.914,1.497,2.748,2.81v-2.994H269.795z M258.987,91.812
		c-1.668,0-2.933,0.697-3.794,2.092c-0.697,1.121-1.046,2.543-1.046,4.266c0,2.188,0.506,3.849,1.518,4.983
		c0.875,1.012,2.017,1.518,3.425,1.518c1.777,0,3.11-0.745,3.999-2.235c0.684-1.148,1.025-2.598,1.025-4.348
		c0-2.105-0.526-3.732-1.579-4.881C261.674,92.277,260.491,91.812,258.987,91.812z"/>
</g>
</svg>
