<?xml version="1.0" encoding="utf-8"?>
<!-- Generator: Adobe Illustrator 24.2.0, SVG Export Plug-In . SVG Version: 6.00 Build 0)  -->
<svg version="1.0" xmlns="http://www.w3.org/2000/svg" xmlns:xlink="http://www.w3.org/1999/xlink" x="0px" y="0px"
	 viewBox="0 0 400 400.001" enable-background="new 0 0 400 400.001" xml:space="preserve">
<rect id="background-blue" fill="#2D327D" width="400" height="400"/>
<g id="content">
	<path id="frameWhite" fill="#FFFFFF" d="M340,40c11,0,20,9,20,20v280c0,11-9,20-20,20H60c-11,0-20-9-20-20V60c0-11,9-20,20-20H340
		 M340,35H60c-13.785,0-25,11.215-25,25v280c0,13.785,11.215,25,25,25h280c13.785,0,25-11.215,25-25V60
		C365,46.215,353.785,35,340,35L340,35z"/>
	<path fill="#FFFFFF" d="M85.485,320h229.029c3.603,0,6.038-3.703,4.59-7.003c-12.648-28.833-35.462-52.186-63.902-65.547
		c-1.459-0.685-3.155-0.577-4.565,0.204c-14.829,8.219-32.149,12.949-50.638,12.949c-18.489,0-35.809-4.73-50.638-12.949
		c-1.41-0.781-3.106-0.89-4.565-0.204c-28.44,13.361-51.255,36.714-63.902,65.547C79.448,316.297,81.882,320,85.485,320z"/>
	<path fill="#FFFFFF" d="M320,120c0-22.091-17.909-40-40-40c-13.033,0-24.605,6.236-31.908,15.883
		C234.087,87.972,217.621,83.41,200,83.41c-17.621,0-34.087,4.562-48.092,12.473C144.605,86.236,133.032,80,120,80
		c-22.091,0-40,17.909-40,40c0,18.057,11.967,33.313,28.4,38.285c-0.442,3.381-0.675,6.821-0.675,10.311
		c0,47.047,41.313,85.187,92.275,85.187c50.962,0,92.274-38.14,92.274-85.187c0-3.491-0.233-6.931-0.675-10.311
		C308.033,153.313,320,138.057,320,120z M160.839,186.317c-5.872,0-10.632-4.76-10.632-10.632c0-5.872,4.76-10.632,10.632-10.632
		s10.632,4.76,10.632,10.632C171.47,181.557,166.71,186.317,160.839,186.317z M209.972,227.005c-3.71,0-7.255-0.854-9.972-2.376
		c-2.717,1.521-6.262,2.376-9.972,2.376c-8.5,0-15.093-6.208-15.093-11.549c0-1.224,0.992-2.215,2.215-2.215
		s2.215,0.991,2.215,2.215c0,2.801,4.579,7.119,10.663,7.119c2.909,0,5.717-0.659,7.757-1.788v-12.831
		c-5.792-0.747-10.189-4.359-10.189-8.711c0-4.893,5.553-8.86,12.404-8.86c6.85,0,12.404,3.967,12.404,8.86
		c0,4.352-4.397,7.964-10.189,8.711v12.831c2.04,1.129,4.848,1.788,7.757,1.788c6.085,0,10.664-4.318,10.664-7.119
		c0-1.224,0.991-2.215,2.215-2.215s2.215,0.991,2.215,2.215C225.065,220.797,218.473,227.005,209.972,227.005z M239.161,186.317
		c-5.872,0-10.632-4.76-10.632-10.632c0-5.872,4.76-10.632,10.632-10.632c5.872,0,10.632,4.76,10.632,10.632
		C249.793,181.557,245.033,186.317,239.161,186.317z"/>
</g>
</svg>
