<?xml version="1.0" encoding="utf-8"?>
<!-- Generator: Adobe Illustrator 24.2.0, SVG Export Plug-In . SVG Version: 6.00 Build 0)  -->
<svg version="1.0" id="Ebene_1" xmlns="http://www.w3.org/2000/svg" xmlns:xlink="http://www.w3.org/1999/xlink" x="0px" y="0px"
	 viewBox="0 0 400 400.001" enable-background="new 0 0 400 400.001" xml:space="preserve">
<polygon id="background-blue" fill="#2D327D" points="400,400 0,400 0,0 400,0 400,400 "/>
<g id="content">
	<path id="frameWhite" fill="#FFFFFF" d="M340,40c11,0,20,9,20,20v280c0,11-9,20-20,20H60c-11,0-20-9-20-20V60c0-11,9-20,20-20H340
		 M340,35H60c-13.785,0-25,11.215-25,25v280c0,13.785,11.215,25,25,25h280c13.785,0,25-11.215,25-25V60
		C365,46.215,353.785,35,340,35L340,35z"/>
	<g>
		<path fill="#FFFFFF" d="M143.702,89.45c-4.201-3.208-9.428-5.131-15.127-5.131c-5.015,0-9.671,1.491-13.587,4.029l-0.006-0.004
			l-35.211,20.33h63.93V89.45L143.702,89.45z"/>
		<path fill="#FFFFFF" d="M178.801,141.968c23.863-3.358,45.554-13.455,63.111-28.296h-63.111V141.968L178.801,141.968z"/>
		<path fill="#FFFFFF" d="M178.801,108.673h63.935l-35.211-20.33l-0.007,0.004c-3.911-2.538-8.573-4.029-13.588-4.029
			c-5.697,0-10.927,1.924-15.129,5.131V108.673L178.801,108.673z"/>
		<path fill="#FFFFFF" d="M143.702,113.672H80.596c17.553,14.841,39.248,24.938,63.107,28.296V113.672L143.702,113.672z"/>
	</g>
	<path fill="#FFFFFF" d="M251.276,174.191c-6.901,0-12.499,5.598-12.499,12.496v32.66h-5.009v-47.767
		c0-6.901-5.594-12.495-12.499-12.495c-6.905,0-12.499,5.594-12.499,12.495v38.005h-5.009v-47.977
		c0-6.905-5.593-12.497-12.498-12.497c-6.903,0-12.503,5.592-12.503,12.497v37.693h-5.006V92.226
		c0-6.905-5.592-12.502-12.501-12.502c-6.901,0-12.499,5.597-12.499,12.502v137.509h-5.008l-0.017,0.011v-32.107
		c0-7.937-4.991-15.003-12.48-17.648c-0.992-0.346-2.04-0.529-3.12-0.529c-5.152-0.003-9.347,4.195-9.347,9.353v60.317l-0.037,0.03
		c0,6.238,1.292,12.685,3.371,17.702C124.192,271.88,144.12,320,144.12,320l103.693-0.011l12.797-31.032
		c2.116-5.531,3.166-11.393,3.166-17.669c0-0.853,0-84.601,0-84.601C263.775,179.789,258.181,174.191,251.276,174.191z"/>
</g>
</svg>
