<?xml version="1.0" encoding="utf-8"?>
<!-- Generator: Adobe Illustrator 24.2.0, SVG Export Plug-In . SVG Version: 6.00 Build 0)  -->
<svg version="1.0" xmlns="http://www.w3.org/2000/svg" xmlns:xlink="http://www.w3.org/1999/xlink" x="0px" y="0px"
	 viewBox="0 0 400 400" enable-background="new 0 0 400 400" xml:space="preserve">
<rect id="background-blue" fill="#2D327D" width="400" height="400"/>
<g id="content">
	<path id="frameWhite" fill="#FFFFFF" d="M340,40c11,0,20,9,20,20v280c0,11-9,20-20,20H60c-11,0-20-9-20-20V60c0-11,9-20,20-20H340
		 M340,35H60c-13.785,0-25,11.215-25,25v280c0,13.785,11.215,25,25,25h280c13.785,0,25-11.215,25-25V60
		C365,46.215,353.785,35,340,35L340,35z"/>
	<path fill="#FFFFFF" d="M82.535,315.611"/>
	<path fill="#FFFFFF" d="M103.148,280.203"/>
	<path fill="#FFFFFF" d="M278.939,315.131"/>
	<path fill="#FFFFFF" d="M259.913,282.054"/>
	<path fill="#FFFFFF" d="M312.511,80.412h-32.693c-4.354,0-7.877,3.527-7.877,7.877v78.069c0,4.351,3.523,7.878,7.877,7.878h32.693
		c4.35,0,7.873-3.527,7.873-7.878V88.289C320.385,83.939,316.861,80.412,312.511,80.412z M296.09,169.74
		c-1.858-0.034-3.341-1.629-3.3-3.569c0.037-1.945,1.579-3.485,3.438-3.457c1.866,0.031,3.348,1.63,3.307,3.574
		C299.498,168.226,297.956,169.771,296.09,169.74z M314.001,156.67h-35.676V89.245h35.676V156.67z"/>
	<path fill="#FFFFFF" d="M125.166,237.659h6.404c2.204,0,3.48,1.164,3.48,3.194c0,2.084-1.277,3.272-3.48,3.272h-6.404V237.659
		 M121.541,247.082h9.507c5.364,0,7.624-2.522,7.624-5.766c0-2.814-1.362-4.784-3.884-5.337v-0.058
		c1.886-0.81,2.955-2.318,2.955-4.404c0-3.451-2.434-5.129-6.145-5.129h-10.057V247.082 M125.166,229.344h5.913
		c1.969,0,3.044,0.752,3.044,2.842c0,1.855-1.303,2.87-3.044,2.87h-5.913V229.344L125.166,229.344z"/>
	<path fill="#FFFFFF" d="M154.641,247.082h-3.247v-2.086h-0.057c-0.814,1.505-2.608,2.493-4.259,2.493
		c-3.915,0-5.594-1.974-5.594-5.885v-9.507h3.302v9.188c0,2.637,1.073,3.592,2.873,3.592c2.751,0,3.679-1.767,3.679-4.088v-8.693
		h3.304V247.082L154.641,247.082z"/>
	<path fill="#FFFFFF" d="M160.612,242.271c0.17,1.912,1.623,2.607,3.389,2.607c1.248,0,3.42-0.261,3.334-1.972
		c-0.087-1.737-2.493-1.94-4.898-2.49c-2.435-0.523-4.811-1.393-4.811-4.438c0-3.277,3.536-4.285,6.26-4.285
		c3.07,0,5.855,1.272,6.264,4.605h-3.454c-0.287-1.566-1.593-2-3.043-2c-0.954,0-2.721,0.233-2.721,1.538
		c0,1.618,2.433,1.855,4.867,2.404c2.407,0.553,4.84,1.419,4.84,4.374c0,3.572-3.593,4.873-6.695,4.873
		c-3.767,0-6.577-1.683-6.637-5.218H160.612L160.612,242.271z"/>
	<path fill="#FFFFFF" d="M173.248,232.098h3.305v14.983h-3.305V232.098 M173.248,226.389h3.305v3.128h-3.305V226.389
		L173.248,226.389z"/>
	<path fill="#FFFFFF" d="M180.147,232.098h3.128v2.201l0.061,0.058c0.985-1.655,2.693-2.663,4.662-2.663
		c3.25,0,5.305,1.738,5.305,5.099v10.289h-3.304v-9.423c-0.058-2.345-0.986-3.36-2.928-3.36c-2.202,0-3.62,1.738-3.62,3.942v8.84
		h-3.304V232.098L180.147,232.098z"/>
	<path fill="#FFFFFF" d="M199.36,238.27c0.088-2.233,1.656-3.97,3.943-3.97c2.233,0,3.65,1.885,3.769,3.97H199.36 M210.374,240.447
		c0.551-4.494-2.35-8.753-7.071-8.753c-4.465,0-7.246,3.65-7.246,7.909c0,4.609,2.634,7.886,7.33,7.886
		c3.279,0,6.058-1.829,6.786-5.102h-3.132c-0.581,1.653-1.739,2.492-3.654,2.492c-2.749,0-4.027-2.086-4.027-4.432H210.374
		L210.374,240.447z"/>
	<path fill="#FFFFFF" d="M215.388,242.271c0.175,1.912,1.622,2.607,3.395,2.607c1.24,0,3.419-0.261,3.328-1.972
		c-0.086-1.737-2.49-1.94-4.898-2.49c-2.434-0.523-4.81-1.393-4.81-4.438c0-3.277,3.54-4.285,6.261-4.285
		c3.075,0,5.853,1.272,6.263,4.605h-3.452c-0.289-1.566-1.59-2-3.043-2c-0.955,0-2.724,0.233-2.724,1.538
		c0,1.618,2.434,1.855,4.87,2.404c2.406,0.553,4.84,1.419,4.84,4.374c0,3.572-3.591,4.873-6.689,4.873
		c-3.771,0-6.583-1.683-6.644-5.218H215.388L215.388,242.271z"/>
	<path fill="#FFFFFF" d="M230.432,242.271c0.173,1.912,1.626,2.607,3.393,2.607c1.246,0,3.421-0.261,3.33-1.972
		c-0.088-1.737-2.493-1.94-4.899-2.49c-2.432-0.523-4.81-1.393-4.81-4.438c0-3.277,3.534-4.285,6.263-4.285
		c3.069,0,5.857,1.272,6.259,4.605h-3.451c-0.287-1.566-1.59-2-3.043-2c-0.955,0-2.719,0.233-2.719,1.538
		c0,1.618,2.43,1.855,4.862,2.404c2.408,0.553,4.844,1.419,4.844,4.374c0,3.572-3.592,4.873-6.696,4.873
		c-3.769,0-6.577-1.683-6.637-5.218H230.432L230.432,242.271z"/>
	<path fill="#FFFFFF" d="M281.567,313.561l-18.35-31.935c0-0.006,0-0.013,0-0.019v-88.474c0-2.475-2.009-4.489-4.484-4.489H103.319
		c-2.473,0-4.488,2.014-4.488,4.489v88.474c0,0.082,0.007,0.164,0.012,0.246l-18.851,32.2h-0.01c0,0,0.001,0.007,0.001,0.019
		l-0.014,0.024l0.019,0.009c0.06,0.559,0.716,6.09,3.27,6.131h195.198c2.806,0.011,3.145-6.674,3.145-6.674H281.567z
		 M104.56,194.372h152.933v85.993H104.56V194.372z M210.127,313.53h-55.655c-0.894,0-1.399-0.693-1.126-1.546l2.584-8.032
		c0.273-0.849,1.228-1.546,2.119-1.546h48.903c0.896,0,1.827,0.704,2.069,1.562l2.279,8.002
		C211.551,312.829,211.019,313.53,210.127,313.53z M264.686,298.473l-166.84,0.089c-0.887,0.004-1.265-0.637-0.839-1.419l5.22-9.6
		c0.425-0.784,1.501-1.426,2.388-1.426h153.286c0.89,0,1.966,0.642,2.397,1.423l5.224,9.512
		C265.95,297.837,265.574,298.473,264.686,298.473z"/>
</g>
</svg>
