<?xml version="1.0" encoding="utf-8"?>
<!-- Generator: Adobe Illustrator 25.3.1, SVG Export Plug-In . SVG Version: 6.00 Build 0)  -->
<svg version="1.0" xmlns="http://www.w3.org/2000/svg" xmlns:xlink="http://www.w3.org/1999/xlink" x="0px" y="0px"
	 viewBox="0 0 400 400" enable-background="new 0 0 400 400" xml:space="preserve">
<rect id="background-blue" fill="#2D327D" stroke="#2D327D" stroke-miterlimit="10" width="400" height="400"/>
<g id="content">
	<path id="frameWhite" fill="#FFFFFF" d="M340,40c11,0,20,9,20,20v280c0,11-9,20-20,20H60c-11,0-20-9-20-20V60c0-11,9-20,20-20H340
		 M340,35H60c-13.785,0-25,11.215-25,25v280c0,13.785,11.215,25,25,25h280c13.785,0,25-11.215,25-25V60
		C365,46.214,353.785,35,340,35L340,35z"/>
	<path fill="#FFFFFF" d="M312.778,194.988h-28.325c-3.772,0-6.825,3.056-6.825,6.825v67.639c0,3.77,3.053,6.826,6.825,6.826h28.325
		c3.769,0,6.822-3.056,6.822-6.826v-67.639C319.6,198.044,316.547,194.988,312.778,194.988z M298.551,272.382
		c-1.61-0.029-2.895-1.412-2.859-3.092c0.032-1.685,1.368-3.019,2.978-2.995c1.617,0.027,2.901,1.413,2.865,3.096
		C301.504,271.07,300.168,272.409,298.551,272.382z M314.069,261.058h-30.91v-58.416h30.91V261.058z"/>
	<path fill="#FFFFFF" d="M254.086,283.321c0-0.005,0-0.012,0-0.018v-84.05c0-2.351-1.909-4.264-4.26-4.264H104.637
		c-2.351,0-4.26,1.913-4.26,4.264v84.05c0,0.005,0,0.012,0,0.018l-17.465,30.338c0,0,0.322,6.351,2.988,6.34h182.662
		c2.666,0.01,2.988-6.34,2.988-6.34L254.086,283.321z M105.815,200.43h142.833v81.693H105.815V200.43z M203.651,313.629h-52.839
		c-0.847,0-1.353-0.665-1.115-1.481l2.165-7.602c0.23-0.816,1.115-1.484,1.966-1.484h46.806c0.851,0,1.736,0.669,1.966,1.484
		l2.165,7.602C205.004,312.964,204.498,313.629,203.651,313.629z M255.482,299.326H98.981c-0.844,0-1.201-0.605-0.794-1.35
		l4.962-9.037c0.409-0.741,1.431-1.352,2.277-1.352h143.611c0.846,0,1.868,0.61,2.277,1.352l4.962,9.037
		C256.683,298.721,256.326,299.326,255.482,299.326z"/>
	<path fill="#FFFFFF" d="M80,80h13.494c2.898,0,5.059,0.362,6.48,1.087c1.34,0.684,2.352,1.675,3.035,2.974
		c0.574,1.094,0.861,2.256,0.861,3.486c0,1.367-0.349,2.584-1.046,3.65s-1.709,1.907-3.035,2.522c1.148,0.383,2.01,0.786,2.584,1.21
		c1.941,1.422,2.912,3.493,2.912,6.214c0,1.613-0.359,3.062-1.077,4.348s-1.747,2.317-3.086,3.097
		c-1.586,0.93-3.726,1.395-6.419,1.395H80V80z M86.542,85.147v6.993h5.988c1.395,0,2.42-0.164,3.076-0.492
		c1.217-0.588,1.825-1.6,1.825-3.035c0-1.217-0.383-2.099-1.148-2.646s-2.017-0.82-3.753-0.82H86.542z M86.542,96.611v8.224h6.624
		c1.9,0,3.233-0.267,3.999-0.8c1.012-0.725,1.518-1.825,1.518-3.302c0-1.764-0.684-2.967-2.051-3.609
		c-0.752-0.342-2.017-0.513-3.794-0.513H86.542z"/>
	<path fill="#FFFFFF" d="M129.403,87.588v22.395h-5.66v-3.261c-1.709,2.584-4.102,3.876-7.178,3.876c-2.68,0-4.703-0.896-6.07-2.687
		c-0.52-0.697-0.892-1.518-1.118-2.461s-0.338-2.174-0.338-3.691V87.588h5.947v12.325c0,1.285,0.038,2.194,0.113,2.728
		s0.229,0.984,0.461,1.354c0.629,0.998,1.702,1.497,3.22,1.497c1.873,0,3.233-0.827,4.081-2.481c0.41-0.807,0.615-2.263,0.615-4.368
		V87.588H129.403z"/>
	<path fill="#FFFFFF" d="M152.208,94.13h-5.578c-0.109-0.766-0.321-1.347-0.636-1.743c-0.615-0.793-1.757-1.189-3.425-1.189
		c-1.053,0-1.866,0.191-2.44,0.574s-0.861,0.923-0.861,1.62c0,0.738,0.318,1.278,0.954,1.62s2.088,0.745,4.358,1.21
		c2.885,0.588,4.963,1.319,6.234,2.194c1.504,1.025,2.256,2.584,2.256,4.676c0,2.393-0.93,4.245-2.789,5.558
		c-1.832,1.299-4.259,1.948-7.28,1.948c-3.746,0-6.494-0.923-8.244-2.769c-1.176-1.258-1.832-2.974-1.969-5.147h5.701
		c0.109,1.012,0.369,1.777,0.779,2.297c0.766,0.93,2.03,1.395,3.794,1.395c1.23,0,2.208-0.25,2.933-0.749s1.087-1.172,1.087-2.02
		c0-0.766-0.311-1.336-0.933-1.712s-1.938-0.796-3.948-1.261c-1.941-0.451-3.315-0.803-4.122-1.056s-1.531-0.557-2.174-0.913
		c-0.834-0.479-1.483-1.148-1.948-2.01s-0.697-1.818-0.697-2.871c0-2.324,0.964-4.095,2.892-5.312
		c1.572-0.998,3.76-1.497,6.562-1.497c3.705,0,6.364,0.943,7.978,2.83C151.565,90.828,152.071,92.27,152.208,94.13z"/>
	<path fill="#FFFFFF" d="M162.605,80v5.353h-5.947V80H162.605z M162.605,87.629v22.354h-5.947V87.629H162.605z"/>
	<path fill="#FFFFFF" d="M173.003,87.649v3.138c0.697-0.957,1.347-1.661,1.948-2.112c1.477-1.148,3.254-1.723,5.332-1.723
		c1.832,0,3.384,0.465,4.655,1.395c1.012,0.738,1.719,1.671,2.123,2.799s0.605,2.717,0.605,4.768v14.068h-5.927V97.165
		c0-1.436-0.123-2.488-0.369-3.158c-0.232-0.588-0.629-1.053-1.189-1.395c-0.643-0.369-1.374-0.554-2.194-0.554
		c-0.902,0-1.723,0.219-2.461,0.656s-1.285,1.032-1.641,1.784c-0.396,0.848-0.595,2.167-0.595,3.958v11.525h-5.947V87.649H173.003z"
		/>
	<path fill="#FFFFFF" d="M212.46,103.01c-0.314,1.258-0.882,2.44-1.702,3.548c-1.969,2.693-4.799,4.04-8.49,4.04
		c-3.336,0-6.009-1.053-8.019-3.158c-0.984-1.025-1.736-2.263-2.256-3.712c-0.561-1.545-0.841-3.158-0.841-4.84
		c0-3.254,0.937-5.988,2.81-8.203c2.092-2.475,4.799-3.712,8.121-3.712c2.68,0,4.963,0.827,6.85,2.481
		c1.354,1.189,2.338,2.656,2.953,4.399s0.923,3.934,0.923,6.573h-15.606c0.055,1.094,0.226,2.003,0.513,2.728
		c0.807,1.955,2.338,2.933,4.594,2.933c1.107,0,2.01-0.243,2.707-0.728s1.271-1.268,1.723-2.348H212.46z M206.738,96.427
		c-0.109-1.08-0.355-1.976-0.738-2.687c-0.383-0.697-0.926-1.251-1.631-1.661c-0.703-0.41-1.473-0.615-2.307-0.615
		c-1.326,0-2.42,0.444-3.281,1.333s-1.374,2.099-1.538,3.63H206.738z"/>
	<path fill="#FFFFFF" d="M234.731,94.13h-5.578c-0.109-0.766-0.321-1.347-0.636-1.743c-0.615-0.793-1.757-1.189-3.425-1.189
		c-1.053,0-1.866,0.191-2.44,0.574s-0.861,0.923-0.861,1.62c0,0.738,0.318,1.278,0.953,1.62c0.637,0.342,2.089,0.745,4.358,1.21
		c2.885,0.588,4.963,1.319,6.234,2.194c1.504,1.025,2.256,2.584,2.256,4.676c0,2.393-0.93,4.245-2.789,5.558
		c-1.832,1.299-4.259,1.948-7.28,1.948c-3.746,0-6.494-0.923-8.244-2.769c-1.176-1.258-1.832-2.974-1.969-5.147h5.701
		c0.109,1.012,0.369,1.777,0.779,2.297c0.766,0.93,2.03,1.395,3.794,1.395c1.23,0,2.208-0.25,2.933-0.749s1.087-1.172,1.087-2.02
		c0-0.766-0.312-1.336-0.933-1.712c-0.623-0.376-1.938-0.796-3.948-1.261c-1.941-0.451-3.315-0.803-4.122-1.056
		s-1.531-0.557-2.174-0.913c-0.834-0.479-1.483-1.148-1.948-2.01s-0.697-1.818-0.697-2.871c0-2.324,0.964-4.095,2.892-5.312
		c1.572-0.998,3.76-1.497,6.562-1.497c3.705,0,6.364,0.943,7.978,2.83C234.089,90.828,234.595,92.27,234.731,94.13z"/>
	<path fill="#FFFFFF" d="M257.7,94.13h-5.578c-0.109-0.766-0.321-1.347-0.636-1.743c-0.615-0.793-1.757-1.189-3.425-1.189
		c-1.053,0-1.866,0.191-2.44,0.574s-0.861,0.923-0.861,1.62c0,0.738,0.318,1.278,0.953,1.62c0.637,0.342,2.089,0.745,4.358,1.21
		c2.885,0.588,4.963,1.319,6.234,2.194c1.504,1.025,2.256,2.584,2.256,4.676c0,2.393-0.93,4.245-2.789,5.558
		c-1.832,1.299-4.259,1.948-7.28,1.948c-3.746,0-6.494-0.923-8.244-2.769c-1.176-1.258-1.832-2.974-1.969-5.147h5.701
		c0.109,1.012,0.369,1.777,0.779,2.297c0.766,0.93,2.03,1.395,3.794,1.395c1.23,0,2.208-0.25,2.933-0.749s1.087-1.172,1.087-2.02
		c0-0.766-0.312-1.336-0.933-1.712c-0.623-0.376-1.938-0.796-3.948-1.261c-1.941-0.451-3.315-0.803-4.122-1.056
		s-1.531-0.557-2.174-0.913c-0.834-0.479-1.483-1.148-1.948-2.01s-0.697-1.818-0.697-2.871c0-2.324,0.964-4.095,2.892-5.312
		c1.572-0.998,3.76-1.497,6.562-1.497c3.705,0,6.364,0.943,7.978,2.83C257.058,90.828,257.563,92.27,257.7,94.13z"/>
</g>
</svg>
