<?xml version="1.0" encoding="utf-8"?>
<!-- Generator: Adobe Illustrator 24.2.0, SVG Export Plug-In . SVG Version: 6.00 Build 0)  -->
<svg version="1.0" id="Ebene_1" xmlns="http://www.w3.org/2000/svg" xmlns:xlink="http://www.w3.org/1999/xlink" x="0px" y="0px"
	 viewBox="0 0 399.999 400" enable-background="new 0 0 399.999 400" xml:space="preserve">
<polygon id="background-blue" fill="#2D327D" points="400,400 0,400 0,0 400,0 400,400 "/>
<g id="content">
	<path id="frameWhite" fill="#FFFFFF" d="M340,40c11,0,20,9,20,20v280c0,11-9,20-20,20H60c-11,0-20-9-20-20V60c0-11,9-20,20-20H340
		 M340,35H60c-13.785,0-25,11.215-25,25v280c0,13.785,11.215,25,25,25h280c13.785,0,25-11.215,25-25V60
		C365,46.215,353.785,35,340,35L340,35z"/>
	<path fill="#FFFFFF" d="M199.998,79.998c-66.274,0-120.001,53.727-120.001,120.002c0,66.272,53.727,120.001,120.001,120.001
		c66.276,0,120.005-53.729,120.005-120.001C320.003,133.725,266.274,79.998,199.998,79.998 M249.993,188.445
		c-13.721,0-24.853-11.127-24.853-24.85c0-1.226,0.089-2.432,0.261-3.608c-10.901,6.521-18.462,22.183-18.466,38.651l-0.004,60.599
		h15.412c2.76,0,4.998,2.238,4.998,4.998c0,2.76-2.238,5.009-4.998,5.009h-15.412l-45.408,0.019l-15.829-0.019
		c-2.763,0-4.996-2.25-4.996-5.009c0-2.76,2.233-4.998,4.996-4.998h15.829V150.445h-15.829c-2.763,0-4.996-2.238-4.996-4.995
		c0-2.769,2.233-5.002,4.996-5.002h61.241l0.004,25.177c7.088-10.3,21.065-26.888,43.054-26.888
		c13.728,0,24.857,11.129,24.857,24.857C274.85,177.318,263.721,188.445,249.993,188.445L249.993,188.445z"/>
</g>
</svg>
