<?xml version="1.0" encoding="utf-8"?>
<!-- Generator: Adobe Illustrator 24.2.0, SVG Export Plug-In . SVG Version: 6.00 Build 0)  -->
<svg version="1.0" id="Ebene_1" xmlns="http://www.w3.org/2000/svg" xmlns:xlink="http://www.w3.org/1999/xlink" x="0px" y="0px"
	 viewBox="0 0 400 400.001" enable-background="new 0 0 400 400.001" xml:space="preserve">
<polygon id="background-blue" fill="#2D327D" points="400,400 0,400 0,0 400,0 400,400 "/>
<g id="content">
	<path id="frameWhite" fill="#FFFFFF" d="M340,40c11,0,20,9,20,20v280c0,11-9,20-20,20H60c-11,0-20-9-20-20V60c0-11,9-20,20-20H340
		 M340,35H60c-13.785,0-25,11.215-25,25v280c0,13.785,11.215,25,25,25h280c13.785,0,25-11.215,25-25V60
		C365,46.215,353.785,35,340,35L340,35z"/>
	<path fill-rule="evenodd" clip-rule="evenodd" fill="#FFFFFF" d="M110.035,279.062c-1.095,0.109-1.991,1.095-1.991,2.194v37.53
		c0,1.102,0.899,2.001,2,2.001h45.391c1.097,0,2-0.899,2-2.001v-42.391c0-1.099-0.898-1.91-1.993-1.803L110.035,279.062
		L110.035,279.062z"/>
	<path fill-rule="evenodd" clip-rule="evenodd" fill="#FFFFFF" d="M172.953,250.321H157.67v-25.136c0-2.2-1.801-4-4.002-4H105.1
		l-5.203-17.397c-0.315-1.051-0.574-2.813-0.574-3.915v-26.271c0-1.099,0.899-2,2-2h3.497c2.201,0,3.998-1.799,3.998-3.999v-31.708
		c0-2.201-1.797-3.999-3.998-3.999H83.256c-2.201,0-4,1.798-4,3.999v66.913c0,1.102,0.259,2.864,0.574,3.917l18.421,61.594
		c1.263,4.215,5.877,7.314,10.255,6.882l48.855-4.808h15.592c2.199,0,4-1.803,4-3.999v-12.071
		C176.953,252.123,175.152,250.321,172.953,250.321 M146.968,251.253l-27.954,2.748c-2.19,0.216-4.497-1.332-5.129-3.441
		l-2.618-8.752l-3.004-10.037h36.704c1.099,0,2,0.901,2,2.001V251.253L146.968,251.253z"/>
	<path fill-rule="evenodd" clip-rule="evenodd" fill="#FFFFFF" d="M252.341,279.062c-1.095,0.109-1.993,1.095-1.993,2.194v37.53
		c0,1.102,0.901,2.001,2,2.001h45.39c1.102,0,2-0.899,2-2.001v-42.391c0-1.099-0.894-1.91-1.993-1.803L252.341,279.062
		L252.341,279.062z"/>
	<path fill-rule="evenodd" clip-rule="evenodd" fill="#FFFFFF" d="M315.258,250.321h-15.285v-25.136c0-2.2-1.799-4-4-4h-48.566
		l-5.203-17.397c-0.317-1.051-0.573-2.813-0.573-3.915v-26.271c0-1.099,0.901-2,2-2h3.497c2.197,0,4-1.799,4-3.999v-31.708
		c0-2.201-1.803-3.999-4-3.999h-21.564c-2.201,0-4,1.798-4,3.999v66.913c0,1.102,0.257,2.864,0.574,3.917l18.421,61.594
		c1.263,4.215,5.877,7.314,10.253,6.882l48.857-4.808h15.591c2.201,0,4-1.803,4-3.999v-12.071
		C319.258,252.123,317.459,250.321,315.258,250.321 M289.273,251.253l-27.952,2.748c-2.19,0.216-4.499-1.332-5.128-3.441
		l-2.618-8.752l-3.002-10.037h36.701c1.099,0,2,0.901,2,2.001V251.253L289.273,251.253z"/>
</g>
</svg>
