<?xml version="1.0" encoding="utf-8"?>
<!-- Generator: Adobe Illustrator 25.1.0, SVG Export Plug-In . SVG Version: 6.00 Build 0)  -->
<svg version="1.0" xmlns="http://www.w3.org/2000/svg" xmlns:xlink="http://www.w3.org/1999/xlink" x="0px" y="0px"
	 viewBox="0 0 400 400" enable-background="new 0 0 400 400" xml:space="preserve">
<rect id="background-blue" fill="#2D327D" width="400" height="400"/>
<g id="content">
	<path id="frameWhite" fill="#FFFFFF" d="M340,40c11,0,20,9,20,20v280c0,11-9,20-20,20H60c-11,0-20-9-20-20V60c0-11,9-20,20-20H340
		 M340,35H60c-13.785,0-25,11.215-25,25v280c0,13.785,11.215,25,25,25h280c13.785,0,25-11.215,25-25V60
		C365,46.215,353.785,35,340,35L340,35z"/>
	<rect x="80" y="316" fill-rule="evenodd" clip-rule="evenodd" fill="#FFFFFF" width="240" height="4"/>
	<path fill-rule="evenodd" clip-rule="evenodd" fill="#FFFFFF" d="M315,250h-50.783l-10.285-33H301.5c3.575,0,6.5-2.925,6.5-6.5
		s-2.925-6.5-6.5-6.5h-51.619L229,137h-18l32.89,127h0.01c1.51,5.2,6.31,9,12,9H315c2.75,0,5-2.25,5-5v-13
		C320,252.25,317.75,250,315,250z"/>
	<path fill-rule="evenodd" clip-rule="evenodd" fill="#FFFFFF" d="M240,119c2.11-2.21,2-3.26,2-5.29V85c0-2.75-2.25-5-5-5h-21
		c-2.75,0-5,2.25-5,5v46h18L240,119z"/>
	<path fill-rule="evenodd" clip-rule="evenodd" fill="#FFFFFF" d="M112.9,264c1.51,5.2,6.31,9,12,9H184c2.75,0,5-2.25,5-5v-13
		c0-2.75-2.25-5-5-5h-50.783l-10.285-33H170.5c3.575,0,6.5-2.925,6.5-6.5s-2.925-6.5-6.5-6.5h-51.619L98,137H80l32.89,127H112.9z"/>
	<path fill-rule="evenodd" clip-rule="evenodd" fill="#FFFFFF" d="M109,119c2.11-2.21,2-3.26,2-5.29V85c0-2.75-2.25-5-5-5H85
		c-2.75,0-5,2.25-5,5v46h18L109,119z"/>
</g>
</svg>
