<?xml version="1.0" encoding="utf-8"?>
<!-- Generator: Adobe Illustrator 24.2.0, SVG Export Plug-In . SVG Version: 6.00 Build 0)  -->
<svg version="1.0" id="Ebene_1" xmlns="http://www.w3.org/2000/svg" xmlns:xlink="http://www.w3.org/1999/xlink" x="0px" y="0px"
	 viewBox="0 0 400 400" enable-background="new 0 0 400 400" xml:space="preserve">
<rect id="background-blue" fill="#2D327D" width="400" height="400"/>
<g id="content">
	<path id="frameWhite" fill="#FFFFFF" d="M340,40c11,0,20,9,20,20v280c0,11-9,20-20,20H60c-11,0-20-9-20-20V60c0-11,9-20,20-20H340
		 M340,35H60c-13.785,0-25,11.215-25,25v280c0,13.785,11.215,25,25,25h280c13.785,0,25-11.215,25-25V60
		C365,46.215,353.785,35,340,35L340,35z"/>
	<polygon fill="#FFFFFF" points="320.97,319.147 80.973,319.147 80.973,315.148 320.97,315.148 320.97,319.147 	"/>
	<path fill="#FFFFFF" d="M198.829,184.707c-2.201,0-3.998,1.798-3.998,4.001v12.4c0,0.659,0.54,1.199,1.201,1.199h5.596
		c0.663,0,1.201-0.54,1.201-1.199v-12.4C202.829,186.505,201.028,184.707,198.829,184.707L198.829,184.707z"/>
	<path fill="#FFFFFF" d="M221.27,208.345c-0.248-2.22-2.25-4.037-4.449-4.037h-13.79c-0.661,0-1.201,0.542-1.201,1.2v101.209
		c0,0.66,0.54,1.199,1.201,1.199h13.79c2.199,0,4.201-1.817,4.449-4.036c0,0,2.091-18.776,2.091-47.769
		C223.362,227.124,221.27,208.345,221.27,208.345L221.27,208.345z"/>
	<path fill="#FFFFFF" d="M194.628,204.308h-13.79c-2.198,0-4.199,1.818-4.449,4.037c0,0-2.089,18.779-2.089,47.766
		c0,28.993,2.089,47.769,2.089,47.769c0.249,2.22,2.251,4.036,4.449,4.036h13.79c0.661,0,1.201-0.539,1.201-1.199V205.508
		C195.829,204.85,195.289,204.308,194.628,204.308L194.628,204.308z"/>
	<path fill="#FFFFFF" d="M186.678,79.152h-20.715c-3.523,0-6.4,2.881-6.4,6.401v31.199c0,1.324,0.803,3.12,1.786,4.001l9.883,8.846
		c0.985,0.881,1.786,2.679,1.786,4v1.776c0,1.319-0.341,3.425-0.767,4.674l-21.55,63.828c-0.421,1.251-1.847,2.275-3.166,2.275
		H95.371c-3.523,0-6.4,2.182-6.4,4.853c0,2.664,0,4.847,0,4.847s0,0.968,0,2.147c0,1.184,1.078,2.152,2.4,2.152h51.436
		c1.322,0,2.058,1.021,1.631,2.271l-3.082,9.139l-2.587,7.65c-0.415,1.239-0.758,3.326-0.765,4.644v3.561
		c0,0.633-0.24,1.166-0.669,1.473c-0.423,0.304-1.006,0.363-1.605,0.162l-3.414-1.158c-1.313-0.417-3.328-0.741-4.605-0.741H87.371
		c-3.521,0-6.402,2.881-6.402,6.4v15.197c0,3.522,2.881,6.402,6.402,6.402h61.161c3.518,0,7.169-2.778,8.112-6.167l5.145-18.527
		l30.65-110.368c0.35-1.274,0.642-3.395,0.642-4.712V85.553C193.082,82.033,190.201,79.152,186.678,79.152 M189.879,135.377
		c0,1.028-0.251,2.868-0.525,3.854L153.56,268.123c-0.555,2.006-2.952,3.824-5.028,3.824H87.371c-1.767,0-3.201-1.435-3.201-3.198
		v-15.197c0-1.764,1.434-3.197,3.201-3.197h40.341c0.95,0,2.633,0.267,3.603,0.579l3.387,1.149c1.594,0.535,3.233,0.318,4.505-0.597
		c1.268-0.915,2-2.394,2-4.07v-3.557c0.004-0.954,0.29-2.722,0.598-3.628l3.462-10.255l2.205-6.529
		c0.535-1.583,0.318-3.221-0.594-4.494c-0.914-1.27-2.397-2.004-4.071-2.004c0,0-49.088,0-50.636,0c0-0.546,0-1.097,0-1.097v-4.847
		c0-0.586,1.212-1.654,3.199-1.654h52.163c2.674,0,5.345-1.912,6.197-4.451l21.551-63.829c0.535-1.579,0.937-4.03,0.937-5.697
		v-1.776c0-2.219-1.203-4.904-2.855-6.384l-9.883-8.848c-0.305-0.271-0.723-1.207-0.723-1.616V85.553
		c0-1.764,1.434-3.197,3.203-3.197h20.715c1.767,0,3.201,1.434,3.201,3.197V135.377L189.879,135.377z"/>
	<path fill="#FFFFFF" d="M206.723,83.346v49.824c0,1.317,0.29,3.436,0.642,4.709l30.65,110.369l5.143,18.528
		c0.944,3.387,4.596,6.166,8.114,6.166h61.163c3.518,0,6.397-2.88,6.397-6.4v-15.199c0-3.518-2.879-6.399-6.397-6.399h-40.349
		c-1.277,0-3.289,0.323-4.6,0.741l-3.411,1.158c-0.602,0.199-1.188,0.141-1.611-0.161c-0.426-0.308-0.668-0.841-0.668-1.474v-3.562
		c-0.004-1.317-0.35-3.404-0.765-4.643l-2.587-7.65l-3.084-9.137c-0.421-1.251,0.311-2.272,1.631-2.272h51.442
		c1.32,0,2.4-0.968,2.4-2.153c0-1.178,0-2.147,0-2.147s0-2.185,0-4.848c0-2.67-2.881-4.852-6.401-4.852h-52.168
		c-1.318,0-2.741-1.024-3.164-2.275l-21.551-63.828c-0.421-1.249-0.765-3.354-0.765-4.673v-1.776c0-1.321,0.803-3.122,1.786-4.003
		l9.883-8.844c0.985-0.882,1.788-2.68,1.788-4.001V83.346c0-3.521-2.881-6.402-6.401-6.402h-20.715
		C209.602,76.943,206.723,79.825,206.723,83.346 M209.924,83.346c0-1.764,1.438-3.198,3.201-3.198h20.715
		c1.767,0,3.203,1.434,3.203,3.198v31.199c0,0.408-0.421,1.345-0.723,1.615l-9.885,8.846c-1.652,1.482-2.851,4.167-2.851,6.386
		v1.776c0,1.667,0.397,4.116,0.933,5.696l21.55,63.83c0.858,2.538,3.525,4.451,6.197,4.451h52.168c1.985,0,3.196,1.068,3.196,1.652
		v4.848c0,0,0,0.551,0,1.096c-1.547,0-50.637,0-50.637,0c-1.672,0-3.155,0.735-4.069,2.005c-0.911,1.274-1.127,2.912-0.594,4.495
		l2.205,6.529l3.466,10.254c0.302,0.907,0.59,2.672,0.598,3.626v3.559c0,1.674,0.73,3.155,2,4.069
		c1.268,0.918,2.909,1.132,4.499,0.6l3.391-1.151c0.968-0.311,2.654-0.579,3.599-0.579h40.349c1.76,0,3.198,1.433,3.198,3.196
		v15.199c0,1.765-1.438,3.199-3.198,3.199h-61.163c-2.078,0-4.471-1.819-5.032-3.823l-35.794-128.894
		c-0.27-0.986-0.523-2.826-0.523-3.854V83.346L209.924,83.346z"/>
</g>
</svg>
