<?xml version="1.0" encoding="utf-8"?>
<!-- Generator: Adobe Illustrator 25.1.0, SVG Export Plug-In . SVG Version: 6.00 Build 0)  -->
<svg version="1.0" xmlns="http://www.w3.org/2000/svg" xmlns:xlink="http://www.w3.org/1999/xlink" x="0px" y="0px"
	 viewBox="0 0 400 400" enable-background="new 0 0 400 400" xml:space="preserve">
<rect id="background-blue" fill="#2D327D" width="400" height="400"/>
<g id="content">
	<path id="frameWhite" fill="#FFFFFF" d="M340,40c11,0,20,9,20,20v280c0,11-9,20-20,20H60c-11,0-20-9-20-20V60c0-11,9-20,20-20H340
		 M340,35H60c-13.785,0-25,11.215-25,25v280c0,13.785,11.215,25,25,25h280c13.785,0,25-11.215,25-25V60
		C365,46.215,353.785,35,340,35L340,35z"/>
	<path fill="#FFFFFF" d="M197.32,203.391h5.596c0.663,0,1.201-0.54,1.201-1.199v-12.4c0-2.203-1.801-4.001-4-4.001
		c-2.201,0-3.998,1.798-3.998,4.001v12.4C196.119,202.851,196.659,203.391,197.32,203.391z"/>
	<path fill="#FFFFFF" d="M203.118,206.592v101.209c0,0.66,0.54,1.199,1.201,1.199h13.79c2.199,0,4.201-1.817,4.449-4.036
		c0,0,2.091-18.776,2.091-47.769c0.001-28.987-2.091-47.766-2.091-47.766c-0.248-2.22-2.25-4.037-4.449-4.037h-13.79
		C203.658,205.392,203.118,205.934,203.118,206.592z"/>
	<path fill="#FFFFFF" d="M177.677,209.429c0,0-2.089,18.779-2.089,47.766c0,28.993,2.089,47.769,2.089,47.769
		c0.249,2.22,2.251,4.036,4.449,4.036h13.79c0.661,0,1.201-0.539,1.201-1.199V206.592c0-0.658-0.54-1.2-1.201-1.2h-13.79
		C179.928,205.392,177.927,207.21,177.677,209.429z"/>
	<rect x="80" y="316" fill="#FFFFFF" width="240" height="4"/>
	<path fill="#FFFFFF" d="M246.365,270.45c2.1,1.6,4.72,2.55,7.57,2.55h60.07c3.3,0,6-2.7,6-6v-15c0-3.3-2.7-6-6-6h-50.53l-8.568-27
		l44.412,0.011c4.694,0,8.5-3.806,8.5-8.5c0-4.694-3.806-8.5-8.5-8.5l-49.808-0.029L229.005,137H209l32.925,127
		C242.685,266.6,244.265,268.85,246.365,270.45z M226.072,141l20.506,64.98l52.741,0.031c2.481,0,4.5,2.019,4.5,4.5
		c0,2.481-2.019,4.5-4.499,4.5l-49.879-0.013L260.548,250h53.457c1.084,0,2,0.916,2,2v15c0,1.084-0.916,2-2,2h-60.07
		c-1.879,0-3.659-0.599-5.146-1.732c-1.43-1.09-2.497-2.628-3.009-4.338L214.169,141H226.072z"/>
	<path fill="#FFFFFF" d="M228.899,131l10.704-11.678c2.244-2.351,2.403-3.834,2.397-5.997L242,86c0-3.309-2.691-6-6-6h-21
		c-3.309,0-6,2.691-6,6l0.001,45H228.899z M215,84h21c1.103,0,2,0.897,2,2l0,27.336c0.004,1.509,0.005,1.867-1.318,3.253L227.14,127
		h-14.139L213,86C213,84.897,213.897,84,215,84z"/>
	<path fill="#FFFFFF" d="M85.995,273h60.07c2.85,0,5.47-0.95,7.57-2.55c2.1-1.6,3.68-3.85,4.44-6.45L191,137h-20.005l-20.506,64.982
		l-49.808,0.029c-4.694,0-8.5,3.806-8.5,8.5c0,4.694,3.806,8.5,8.5,8.5L145.093,219l-8.568,27h-50.53c-3.3,0-6,2.7-6,6v15
		C79.995,270.3,82.695,273,85.995,273z M83.995,252c0-1.084,0.916-2,2-2h53.457l11.107-35.001l-49.879,0.013
		c-2.48,0-4.499-2.019-4.499-4.5c0-2.481,2.019-4.5,4.5-4.5l52.741-0.031L173.928,141h11.903L154.22,262.931
		c-0.512,1.709-1.579,3.248-3.009,4.338c-1.487,1.133-3.266,1.732-5.146,1.732h-60.07c-1.084,0-2-0.916-2-2V252z"/>
	<path fill="#FFFFFF" d="M171.101,131h19.898L191,86c0-3.309-2.691-6-6-6h-21c-3.309,0-6,2.691-6,6l0,27.326
		c-0.006,2.163,0.153,3.646,2.397,5.997L171.101,131z M162,86c0-1.103,0.897-2,2-2h21c1.103,0,2,0.897,2,2l-0.001,41H172.86
		l-9.543-10.41c-1.323-1.386-1.322-1.745-1.318-3.253L162,86z"/>
</g>
</svg>
