<?xml version="1.0" encoding="utf-8"?>
<!-- Generator: Adobe Illustrator 24.2.0, SVG Export Plug-In . SVG Version: 6.00 Build 0)  -->
<svg version="1.0" id="Ebene_1" xmlns="http://www.w3.org/2000/svg" xmlns:xlink="http://www.w3.org/1999/xlink" x="0px" y="0px"
	 viewBox="0 0 400 400" enable-background="new 0 0 400 400" xml:space="preserve">
<rect id="background-blue" fill="#2D327D" width="400" height="400"/>
<g id="content_1_">
	<path id="frameWhite" fill="#FFFFFF" d="M340,40c11,0,20,9,20,20v280c0,11-9,20-20,20H60c-11,0-20-9-20-20V60c0-11,9-20,20-20H340
		 M340,35H60c-13.785,0-25,11.215-25,25v280c0,13.785,11.215,25,25,25h280c13.785,0,25-11.215,25-25V60
		C365,46.215,353.785,35,340,35L340,35z"/>
	<path fill="#FFFFFF" stroke="#FFFFFF" stroke-miterlimit="10" d="M309.096,216.976c-0.026-0.02-73.759-34.582-73.759-34.582
		c-8.177-4.797-13.765-13.537-14.14-23.613v-22.834c0-11.684-9.557-21.247-21.244-21.247c-11.687,0-21.245,9.563-21.245,21.247
		v0.888c0,0.43,0.353,0.782,0.785,0.782h10.205c0.433,0,0.786-0.352,0.786-0.782v-0.888c0-5.222,4.246-9.467,9.469-9.467
		c5.218,0,9.468,4.245,9.468,9.467v69.113c0,5.237-4.244,9.475-9.476,9.475c-5.232,0-9.472-4.238-9.472-9.475
		c0-0.056,0.007-0.119,0.011-0.173v-46.859c0-0.432-0.35-0.785-0.783-0.788h-10.208c-0.432,0-0.785,0.354-0.785,0.788v0.746
		l-0.011,0.007c-0.379,10.076-5.963,18.816-14.141,23.613c0,0-73.905,34.562-73.937,34.582c-6.371,3.162-10.759,9.717-10.759,17.313
		c0,10.682,8.661,19.337,19.339,19.337h201.318c10.68,0,19.343-8.655,19.343-19.337C319.86,226.693,315.472,220.138,309.096,216.976
		z M308.424,234.289c0,4.32-3.529,7.851-7.851,7.851H99.32c-4.319,0-7.854-3.531-7.854-7.851l0,0c0-4.322,3.535-7.851,7.854-7.851
		h201.252C304.895,226.438,308.424,229.967,308.424,234.289L308.424,234.289z"/>
</g>
</svg>
