<?xml version="1.0" encoding="utf-8"?>
<!-- Generator: Adobe Illustrator 24.2.0, SVG Export Plug-In . SVG Version: 6.00 Build 0)  -->
<svg version="1.0" id="Ebene_1" xmlns="http://www.w3.org/2000/svg" xmlns:xlink="http://www.w3.org/1999/xlink" x="0px" y="0px"
	 viewBox="0 0 400 399.998" enable-background="new 0 0 400 399.998" xml:space="preserve">
<rect id="background-blue" fill="#2D327D" width="400" height="400"/>
<g id="content">
	<path id="frameWhite" fill="#FFFFFF" d="M340,40c11,0,20,9,20,20v280c0,11-9,20-20,20H60c-11,0-20-9-20-20V60c0-11,9-20,20-20H340
		 M340,35H60c-13.785,0-25,11.215-25,25v280c0,13.785,11.215,25,25,25h280c13.785,0,25-11.215,25-25V60
		C365,46.215,353.785,35,340,35L340,35z"/>
	<path fill="#FFFFFF" d="M93.755,263.931c5.618,0,10.179-4.549,10.179-10.176c0-5.618-4.561-10.176-10.179-10.176
		c-5.624,0-10.179,4.558-10.179,10.176C83.576,259.382,88.131,263.931,93.755,263.931L93.755,263.931z"/>
	<path fill="#FFFFFF" d="M167.871,263.931c5.62,0,10.175-4.549,10.175-10.176c0-5.618-4.555-10.176-10.175-10.176
		c-5.62,0-10.179,4.558-10.179,10.176C157.692,259.382,162.251,263.931,167.871,263.931L167.871,263.931z"/>
	<path fill="#FFFFFF" d="M93.254,155.651c5.618,0,10.175-4.557,10.175-10.179c0-5.623-4.557-10.179-10.175-10.179
		c-5.626,0-10.188,4.556-10.188,10.179C83.066,151.094,87.628,155.651,93.254,155.651L93.254,155.651z"/>
	<path fill="#FFFFFF" d="M167.566,155.651c5.616,0,10.179-4.557,10.179-10.179c0-5.623-4.562-10.179-10.179-10.179
		c-5.624,0-10.175,4.556-10.175,10.179C157.391,151.094,161.942,155.651,167.566,155.651L167.566,155.651z"/>
	<path fill="#FFFFFF" d="M144.556,322.277l8.525,5.695l-47.01-236.256l-0.052,0.012l-0.402-1.301
		c-0.51-1.549-1.061-2.256-2.73-5.019c-1.661-2.754-4.147-5.455-7.728-7.526c-3.592-2.074-8.272-2.644-8.272-2.644
		s-1.963,1.259-1.158,1.711c0.805,0.456,8.197,5.693,9.948,8.331c1.751,2.638,3.22,7.855,3.22,7.855l0.944-0.172l-0.909,0.183
		l20.101,100.94l-2.075,0.404l-2.525,2.223l-2.38,1.695l-1.348,4.455l-1.006,6.849l-7.378,10.806l-6.41,1.249l2.276,11.638
		l27.535-5.386"/>
	<path fill="#FFFFFF" d="M173.115,218.78l-2.272-11.632l-6.41,1.252l-10.905-7.229l-3.501-5.981l-2.931-3.612l-2.838-0.681
		l-3.177-1.106l-1.684,0.328L119.303,89.195l0.015-0.004c0,0-0.523-5.427,0.102-8.526c0.622-3.102,5.505-10.726,6.084-11.462
		c0.57-0.722-1.723-1.148-1.723-1.148s-4.119,2.293-6.659,5.555c-2.551,3.279-3.833,6.708-4.333,9.885
		c-0.516,3.185-0.754,4.052-0.642,5.673l0.108,1.497l-0.03,0.007l47.021,236.26l5.678-8.623l-18.769-94.262L173.115,218.78
		L173.115,218.78z"/>
</g>
</svg>
