<?xml version="1.0" encoding="utf-8"?>
<!-- Generator: Adobe Illustrator 24.2.0, SVG Export Plug-In . SVG Version: 6.00 Build 0)  -->
<svg version="1.0" id="WLAN" xmlns="http://www.w3.org/2000/svg" xmlns:xlink="http://www.w3.org/1999/xlink" x="0px" y="0px"
	 viewBox="0 0 400 400" enable-background="new 0 0 400 400" xml:space="preserve">
<rect id="background-blue" fill="#2D327D" stroke="#2D327D" stroke-miterlimit="10" width="400" height="400"/>
<g id="content">
	<path id="frameWhite" fill="#FFFFFF" d="M340,40c11,0,20,9,20,20v280c0,11-9,20-20,20H60c-11,0-20-9-20-20V60c0-11,9-20,20-20H340
		 M340,35H60c-13.785,0-25,11.215-25,25v280c0,13.785,11.215,25,25,25h280c13.785,0,25-11.215,25-25V60
		C365,46.215,353.785,35,340,35L340,35z"/>
	<path fill="#FFFFFF" d="M220,299.999c0,11.048-8.953,20.001-19.999,20.001C188.957,320,180,311.047,180,299.999
		c0-11.046,8.957-19.999,20.001-19.999C211.047,280,220,288.953,220,299.999z"/>
	<path fill="#FFFFFF" d="M250.915,250.353c-13.858-12.967-31.919-20.111-50.928-20.112c-19.071,0-37.04,7.129-50.901,20.099
		l19.006,19.093c8.776-7.925,19.988-12.311,31.895-12.311c11.877,0.001,23.152,4.389,31.927,12.318L250.915,250.353z"/>
	<path fill="#FFFFFF" d="M300.546,201.053l2.142-1.919l16.937-17.014c-30.754-33.766-74.439-53.126-120.122-53.126
		c-45.155,0-88.438,18.971-119.129,52.066l18.964,19.051c25.658-28.113,62.124-44.235,100.165-44.235
		C238.012,155.876,274.838,172.342,300.546,201.053z"/>
	<path fill="#FFFFFF" d="M284.455,214.863c-22.272-22.851-52.043-35.439-83.994-35.439c-32.027,0-62.835,13.264-84.915,36.416
		l18.961,19.049c17.056-18.167,41.031-28.583,65.954-28.583c24.766,0,47.835,9.804,65.035,27.602L284.455,214.863z"/>
</g>
</svg>
