<?xml version="1.0" encoding="utf-8"?>
<!-- Generator: Adobe Illustrator 24.2.0, SVG Export Plug-In . SVG Version: 6.00 Build 0)  -->
<svg version="1.0" id="Ebene_1" xmlns="http://www.w3.org/2000/svg" xmlns:xlink="http://www.w3.org/1999/xlink" x="0px" y="0px"
	 viewBox="0 0 400 400.001" enable-background="new 0 0 400 400.001" xml:space="preserve">
<rect id="background-blue" fill="#2D327D" width="400" height="400"/>
<g id="content">
	<path id="frameWhite" fill="#FFFFFF" d="M340,40c11,0,20,9,20,20v280c0,11-9,20-20,20H60c-11,0-20-9-20-20V60c0-11,9-20,20-20H340
		 M340,35H60c-13.785,0-25,11.215-25,25v280c0,13.785,11.215,25,25,25h280c13.785,0,25-11.215,25-25V60
		C365,46.215,353.785,35,340,35L340,35z"/>
	<path fill="#FFFFFF" d="M142.498,262.51h129.999c11.048,0,20.006-8.977,20.006-19.994v-62.521c0-11.043-8.957-19.993-20.006-19.993
		h-37.494v-10.017c0-5.509-4.486-9.977-10.008-9.977h-34.992c-5.526,0-10.008,4.468-10.008,9.977v10.017h-37.497
		c-11.035,0-20.003,8.951-20.003,19.993v62.521C122.496,253.534,131.463,262.51,142.498,262.51L142.498,262.51z M190.003,149.985
		h34.992v10.017h-34.992V149.985L190.003,149.985z"/>
	<path fill="#FFFFFF" d="M292.503,280.002v-9.991H114.989V144.997c0-2.749-2.229-4.989-4.992-4.989H84.999
		c-2.761,0-5.002,2.239-5.002,4.989c0,2.761,2.241,4.988,5.002,4.988h20.006v130.017H292.503L292.503,280.002z"/>
	<path fill="#FFFFFF" d="M276.907,287.356c-8.98,0-16.251,7.28-16.251,16.242c0,8.976,7.271,16.255,16.251,16.255
		c8.957,0,16.24-7.28,16.24-16.255C293.147,294.636,285.864,287.356,276.907,287.356L276.907,287.356z"/>
	<path fill="#FFFFFF" d="M121.652,287.356c-8.968,0-16.251,7.28-16.251,16.242c0,8.976,7.283,16.255,16.251,16.255
		c8.968,0,16.24-7.28,16.24-16.255C137.892,294.636,130.62,287.356,121.652,287.356L121.652,287.356z"/>
</g>
</svg>
