<?xml version="1.0" encoding="utf-8"?>
<!-- Generator: Adobe Illustrator 24.2.0, SVG Export Plug-In . SVG Version: 6.00 Build 0)  -->
<svg version="1.0" xmlns="http://www.w3.org/2000/svg" xmlns:xlink="http://www.w3.org/1999/xlink" x="0px" y="0px"
	 viewBox="0 0 400 400.001" enable-background="new 0 0 400 400.001" xml:space="preserve">
<rect id="background-blue" fill="#2D327D" width="400" height="400"/>
<g id="content">
	<path id="frameWhite" fill="#FFFFFF" d="M340,40c11,0,20,9,20,20v280c0,11-9,20-20,20H60c-11,0-20-9-20-20V60c0-11,9-20,20-20H340
		 M340,35H60c-13.785,0-25,11.215-25,25v280c0,13.785,11.215,25,25,25h280c13.785,0,25-11.215,25-25V60
		C365,46.215,353.785,35,340,35L340,35z"/>
	<path fill="#FFFFFF" d="M320,200.049c0-27.061-11.258-51.539-29.333-69.006c-1.863-1.8-4.812-1.835-6.755-0.121l-0.01,0.009
		c-2.183,1.926-2.267,5.304-0.174,7.327C299.912,153.903,310,175.814,310,200.049c0,24.187-10.05,46.059-26.178,61.698
		c-2.085,2.021-2.001,5.389,0.172,7.315l0.011,0.01c1.944,1.723,4.902,1.69,6.767-0.118C308.785,251.493,320,227.057,320,200.049z"
		/>
	<path fill="#FFFFFF" d="M288,200.066c0-20.238-8.638-38.491-22.416-51.282c-1.899-1.763-4.812-1.838-6.755-0.123l0,0
		c-2.237,1.974-2.23,5.425-0.043,7.455C270.594,167.078,278,182.72,278,200.066c0,17.281-7.351,32.869-19.083,43.826
		c-2.173,2.029-2.178,5.466,0.047,7.437l0.004,0.003c1.946,1.725,4.872,1.65,6.772-0.125C279.427,238.423,288,220.228,288,200.066z"
		/>
	<path fill="#FFFFFF" d="M255.999,200.083c0-13.516-5.996-25.651-15.461-33.905c-1.883-1.642-4.698-1.627-6.572,0.027l-0.017,0.015
		c-2.282,2.014-2.198,5.539,0.091,7.545c7.325,6.419,11.958,15.837,11.958,26.318c0,10.403-4.565,19.756-11.795,26.17
		c-2.264,2.009-2.339,5.51-0.074,7.517l0.02,0.018c1.88,1.666,4.715,1.68,6.598,0.017
		C250.092,225.555,255.999,213.499,255.999,200.083z"/>
	<path fill="#FFFFFF" d="M86.377,167.008c-1.691,0-3.313,0.671-4.509,1.868c-1.196,1.196-1.868,2.817-1.868,4.509v53.227
		c0,3.522,2.855,6.377,6.377,6.377h32.621V167.01L86.377,167.008z"/>
	<path fill="#FFFFFF" d="M183.985,123.351c-2.287-1.028-4.965-0.625-6.846,1.04l-48.141,42.619v65.979l48.141,42.617
		c1.191,1.052,2.7,1.602,4.227,1.602c0.887,0,1.779-0.184,2.618-0.562c2.287-1.031,3.759-3.307,3.759-5.816V129.167
		C187.744,126.658,186.271,124.383,183.985,123.351z"/>
</g>
</svg>
