<?xml version="1.0" encoding="utf-8"?>
<!-- Generator: Adobe Illustrator 24.2.0, SVG Export Plug-In . SVG Version: 6.00 Build 0)  -->
<svg version="1.0" id="Ebene_1" xmlns="http://www.w3.org/2000/svg" xmlns:xlink="http://www.w3.org/1999/xlink" x="0px" y="0px"
	 viewBox="0 0 400 400" enable-background="new 0 0 400 400" xml:space="preserve">
<rect id="background-blue" fill="#2D327D" width="400" height="400"/>
<g id="content">
	<path id="frameWhite" fill="#FFFFFF" d="M340,40c11,0,20,9,20,20v280c0,11-9,20-20,20H60c-11,0-20-9-20-20V60c0-11,9-20,20-20H340
		 M340,35H60c-13.785,0-25,11.215-25,25v280c0,13.785,11.215,25,25,25h280c13.785,0,25-11.215,25-25V60
		C365,46.215,353.785,35,340,35L340,35z"/>
	<path fill="#FFFFFF" d="M189.981,312.201L176.187,268.2c-0.784-2.501-3.102-4.203-5.724-4.203h-20.679l17.034,55.997h17.439
		c3.312,0,6-2.687,6-5.998C190.257,313.39,190.164,312.78,189.981,312.201L189.981,312.201L189.981,312.201z"/>
	<path fill="#FFFFFF" d="M184.257,79.998h-17.439l-17.034,56h20.679c2.622,0,4.94-1.705,5.724-4.207l13.794-44
		c0.183-0.582,0.276-1.185,0.276-1.795C190.257,82.686,187.57,79.998,184.257,79.998L184.257,79.998z"/>
	<path fill="#FFFFFF" d="M130.001,263.997c-5.97-20.812-9-42.354-9-64.003c0-21.646,3.03-43.188,9-63.996l0,0h12.466l17.034-56
		h-17.878c-8.793,0-17.144,3.855-22.844,10.552l0,0C92.78,121.088,78.5,159.887,78.5,199.995c0,40.111,14.28,78.906,40.278,109.451
		c5.7,6.694,14.051,10.549,22.844,10.549h17.878l-17.034-55.997H130.001L130.001,263.997z"/>
</g>
</svg>
