<?xml version="1.0" encoding="utf-8"?>
<!-- Generator: Adobe Illustrator 24.2.0, SVG Export Plug-In . SVG Version: 6.00 Build 0)  -->
<svg version="1.0" id="Ebene_3" xmlns="http://www.w3.org/2000/svg" xmlns:xlink="http://www.w3.org/1999/xlink" x="0px" y="0px"
	 viewBox="0 0 400 400" enable-background="new 0 0 400 400" xml:space="preserve">
<polygon id="background-blue" fill="#2D327D" points="400,400 0,400 0,0 400,0 400,400 "/>
<g id="content">
	<path id="frameWhite" fill="#FFFFFF" d="M340,40c11,0,20,9,20,20v280c0,11-9,20-20,20H60c-11,0-20-9-20-20V60c0-11,9-20,20-20H340
		 M340,35H60c-13.785,0-25,11.215-25,25v280c0,13.785,11.215,25,25,25h280c13.785,0,25-11.215,25-25V60
		C365,46.215,353.785,35,340,35L340,35z"/>
	<path id="Hand_1_" fill="#FFFFFF" d="M83.479,255.759l-0.04,0.014c-2.361,5.59-3.384,11.807-3.421,17.09
		c-0.042,5.261,0,47.137,0,47.137l104.285,0c1.116-2.513,4.217-8.127,7.528-15.251c-2.672,1.182-5.701,1.875-8.981,1.967
		c-0.244,0.005-0.489,0.009-0.733,0.009c-4.002,0-8.133-0.915-11.944-2.647l-46.789-21.271c-6.717-3.052-11.888-8.361-14.187-14.569
		c-1.775-4.791-1.657-9.784,0.329-14.059l21.161-45.497l11.633-25.011c2.194-6.734,0.284-14.181-5.032-19.023
		c-0.751-0.685-1.626-1.251-2.594-1.658c-4.601-1.944-9.936,0.218-11.885,4.836L83.479,255.759z"/>
	<g id="Finger_3_">
		<path fill="#FFFFFF" d="M206.874,319.565c-5.93-0.069-10.676-4.924-10.618-10.849c0.073-5.931,4.931-10.7,10.86-10.624l19.705,0
			c5.926-0.072,10.789,4.675,10.865,10.615c0.069,5.926-4.675,10.795-10.612,10.858L206.874,319.565z"/>
	</g>
	<g id="Finger_2_">
		<path fill="#FFFFFF" d="M219.122,293.354c-5.93-0.069-10.677-4.925-10.619-10.849c0.072-5.931,4.932-10.7,10.861-10.624l19.703,0
			c5.926-0.072,10.791,4.675,10.867,10.615c0.069,5.926-4.675,10.795-10.612,10.858L219.122,293.354z"/>
	</g>
	<g id="Finger_1_">
		<path fill="#FFFFFF" d="M231.231,267.303c-5.93-0.069-10.677-4.924-10.619-10.849c0.072-5.931,4.932-10.7,10.861-10.624l19.704,0
			c5.926-0.072,10.791,4.675,10.867,10.615c0.069,5.926-4.675,10.795-10.612,10.858H231.231z"/>
	</g>
	<g id="Finger">
		<path fill="#FFFFFF" d="M243.265,242.034c-5.93-0.069-10.677-4.935-10.619-10.86c0.073-5.931,4.932-10.701,10.861-10.625l19.704,0
			c5.926-0.073,10.791,4.675,10.867,10.615c0.069,5.926-4.675,10.806-10.612,10.869L243.265,242.034z"/>
	</g>
	<path id="Händy" fill="#FFFFFF" d="M260.136,144.3c-2.175-4.284-6.071-7.87-10.968-10.095l-46.796-21.27
		c-3.218-1.463-6.687-2.234-10.032-2.234l-0.609,0.008c-6.589,0.183-11.895,3.242-14.195,8.183l-63.83,137.237
		c-1.483,3.192-1.548,6.824-0.185,10.502c1.873,5.058,6.159,9.419,11.761,11.964l46.789,21.271c3.214,1.459,6.683,2.231,10.03,2.231
		l0.604-0.009c6.598-0.185,11.908-3.24,14.205-8.175l63.831-137.243C262.49,152.91,262.275,148.518,260.136,144.3z M162.636,276.662
		c-1.591,3.294-5.608,4.657-8.969,3.048c-3.354-1.609-4.787-5.576-3.195-8.869c1.594-3.298,5.605-4.653,8.96-3.055
		C162.794,269.395,164.23,273.365,162.636,276.662z M194.291,271.228l-61.567-27.692l53.629-116.28l61.573,27.684L194.291,271.228z"
		/>
	<g id="Ergaenzungstext">
		<path fill="#FFFFFF" d="M106.143,88.88h-6.234c-0.123-1.463-0.667-2.581-1.63-3.353s-2.314-1.159-4.05-1.159
			c-1.545,0-2.745,0.304-3.599,0.913s-1.282,1.459-1.282,2.553c0,0.984,0.41,1.695,1.23,2.133c0.793,0.438,2.803,1.053,6.029,1.846
			c3.404,0.848,5.763,1.702,7.075,2.563c2.42,1.586,3.63,3.794,3.63,6.624c0,3.104-1.217,5.551-3.65,7.342
			c-2.146,1.572-5.052,2.358-8.716,2.358c-4.074,0-7.239-0.93-9.495-2.789s-3.425-4.505-3.507-7.937h6.521
			c0.096,1.668,0.526,2.905,1.292,3.712c1.203,1.285,3.015,1.928,5.435,1.928c1.641,0,2.939-0.321,3.896-0.964
			c1.08-0.738,1.62-1.743,1.62-3.015s-0.759-2.201-2.276-2.789c-0.834-0.328-2.803-0.923-5.906-1.784
			c-1.941-0.533-3.459-1.039-4.553-1.518s-1.969-1.012-2.625-1.6c-1.531-1.367-2.297-3.254-2.297-5.66
			c0-2.885,1.196-5.168,3.589-6.85c2.037-1.436,4.683-2.153,7.937-2.153c2.857,0,5.25,0.567,7.178,1.702
			C104.529,82.611,105.992,85.243,106.143,88.88z"/>
		<path fill="#FFFFFF" d="M124.887,79.282c3.992,0,7.342,1.312,10.049,3.938c2.98,2.898,4.471,6.822,4.471,11.771
			c0,4.266-1.128,7.8-3.384,10.603c-2.762,3.404-6.535,5.106-11.32,5.106c-4.895,0-8.736-1.743-11.525-5.229
			c-2.201-2.762-3.302-6.241-3.302-10.438c0-4.977,1.429-8.853,4.286-11.628C116.978,80.656,120.553,79.282,124.887,79.282z
			 M124.559,84.737c-2.406,0-4.348,0.916-5.824,2.748c-1.504,1.846-2.256,4.334-2.256,7.465c0,3.24,0.738,5.763,2.215,7.567
			c0.697,0.861,1.579,1.531,2.646,2.01s2.201,0.718,3.404,0.718c2.393,0,4.279-0.834,5.66-2.502c1.6-1.914,2.399-4.519,2.399-7.813
			c0-3.117-0.731-5.599-2.194-7.444C129.159,85.653,127.143,84.737,124.559,84.737z"/>
		<path fill="#FFFFFF" d="M166.107,88.88h-6.234c-0.123-1.463-0.666-2.581-1.631-3.353c-0.963-0.772-2.313-1.159-4.05-1.159
			c-1.545,0-2.745,0.304-3.599,0.913c-0.855,0.608-1.282,1.459-1.282,2.553c0,0.984,0.41,1.695,1.23,2.133
			c0.793,0.438,2.803,1.053,6.029,1.846c3.404,0.848,5.763,1.702,7.075,2.563c2.42,1.586,3.63,3.794,3.63,6.624
			c0,3.104-1.217,5.551-3.65,7.342c-2.146,1.572-5.052,2.358-8.716,2.358c-4.074,0-7.239-0.93-9.495-2.789s-3.425-4.505-3.507-7.937
			h6.521c0.096,1.668,0.526,2.905,1.292,3.712c1.203,1.285,3.015,1.928,5.435,1.928c1.641,0,2.939-0.321,3.896-0.964
			c1.08-0.738,1.62-1.743,1.62-3.015s-0.759-2.201-2.276-2.789c-0.834-0.328-2.803-0.923-5.906-1.784
			c-1.941-0.533-3.459-1.039-4.553-1.518s-1.969-1.012-2.625-1.6c-1.531-1.367-2.297-3.254-2.297-5.66
			c0-2.885,1.196-5.168,3.589-6.85c2.037-1.436,4.683-2.153,7.937-2.153c2.857,0,5.25,0.567,7.178,1.702
			C164.494,82.611,165.957,85.243,166.107,88.88z"/>
	</g>
</g>
</svg>
