<?xml version="1.0" encoding="utf-8"?>
<!-- Generator: Adobe Illustrator 24.2.0, SVG Export Plug-In . SVG Version: 6.00 Build 0)  -->
<svg version="1.0" xmlns="http://www.w3.org/2000/svg" xmlns:xlink="http://www.w3.org/1999/xlink" x="0px" y="0px"
	 viewBox="0 0 400 400.001" enable-background="new 0 0 400 400.001" xml:space="preserve">
<rect id="background-blue" fill="#2D327D" width="400" height="400"/>
<g id="content">
	<path id="frameWhite" fill="#FFFFFF" d="M340,40c11,0,20,9,20,20v280c0,11-9,20-20,20H60c-11,0-20-9-20-20V60c0-11,9-20,20-20H340
		 M340,35H60c-13.785,0-25,11.215-25,25v280c0,13.785,11.215,25,25,25h280c13.785,0,25-11.215,25-25V60
		C365,46.215,353.785,35,340,35L340,35z"/>
	<path fill="#FFFFFF" d="M317.5,322.473h-235c-1.366,0-2.473-1.106-2.473-2.473s1.107-2.473,2.473-2.473h235
		c1.366,0,2.473,1.106,2.473,2.473S318.866,322.473,317.5,322.473z"/>
	<path fill="#FFFFFF" d="M321.589,157.44c-3.96-2.389-8.255-4.172-12.736-5.312c-9.076-2.309-18.642-1.879-27.482,1.232
		l-73.262,26.668l-93.319-76.154l-19.438,5.387l47.901,94.37l-33.923,12.347L85.919,186.92l-14.33,5.971l20.815,49.724l71.36,0
		l141.405-51.471c6.868-2.498,13.186-6.313,18.606-11.214l-0.003,0.011c2.061-1.867,3.524-4.296,4.206-6.975
		C329.508,166.95,326.904,160.636,321.589,157.44z"/>
</g>
</svg>
