<?xml version="1.0" encoding="utf-8"?>
<!-- Generator: Adobe Illustrator 24.2.0, SVG Export Plug-In . SVG Version: 6.00 Build 0)  -->
<svg version="1.0" xmlns="http://www.w3.org/2000/svg" xmlns:xlink="http://www.w3.org/1999/xlink" x="0px" y="0px"
	 viewBox="0 0 400 400.001" enable-background="new 0 0 400 400.001" xml:space="preserve">
<rect id="background-blue" fill="#2D327D" width="400" height="400"/>
<g id="content">
	<path id="frameWhite" fill="#FFFFFF" d="M340,40c11,0,20,9,20,20v280c0,11-9,20-20,20H60c-11,0-20-9-20-20V60c0-11,9-20,20-20H340
		 M340,35H60c-13.785,0-25,11.215-25,25v280c0,13.785,11.215,25,25,25h280c13.785,0,25-11.215,25-25V60
		C365,46.215,353.785,35,340,35L340,35z"/>
	<path fill="#FFFFFF" d="M316.922,322.473h-235c-1.366,0-2.473-1.106-2.473-2.473s1.107-2.473,2.473-2.473h235
		c1.366,0,2.473,1.106,2.473,2.473S318.288,322.473,316.922,322.473z"/>
	<path fill="#FFFFFF" d="M319.724,224.993c-2.235-4.049-5.063-7.74-8.374-10.969c-6.705-6.538-15.205-10.948-24.416-12.674
		l-76.781-13.535L165.678,85.053L146.15,80l-3.965,95.828l-35.551-6.269l-7.483-27.023l-15.396-1.994l-5.24,43.866l61.941,35.434
		l148.196,26.128c7.197,1.27,14.576,1.126,21.72-0.409l-0.008,0.008c2.718-0.586,5.2-1.958,7.13-3.938
		C321.827,237.189,322.729,230.419,319.724,224.993z"/>
	<circle fill="#FFFFFF" cx="278.143" cy="255.719" r="6.683"/>
	
		<ellipse transform="matrix(0.9286 -0.3711 0.3711 0.9286 -75.3419 88.8124)" fill="#FFFFFF" cx="193.074" cy="240.153" rx="7.241" ry="7.241"/>
	
		<ellipse transform="matrix(0.6331 -0.7741 0.7741 0.6331 -119.8608 220.0905)" fill="#FFFFFF" cx="172.227" cy="236.477" rx="7.241" ry="7.241"/>
</g>
</svg>
