<?xml version="1.0" encoding="utf-8"?>
<!-- Generator: Adobe Illustrator 24.2.0, SVG Export Plug-In . SVG Version: 6.00 Build 0)  -->
<svg version="1.0" xmlns="http://www.w3.org/2000/svg" xmlns:xlink="http://www.w3.org/1999/xlink" x="0px" y="0px"
	 viewBox="0 0 400 400.001" enable-background="new 0 0 400 400.001" xml:space="preserve">
<rect id="background-blue" fill="#2D327D" width="400" height="400"/>
<g id="content">
	<path id="frameWhite" fill="#FFFFFF" d="M340,40c11,0,20,9,20,20v280c0,11-9,20-20,20H60c-11,0-20-9-20-20V60c0-11,9-20,20-20H340
		 M340,35H60c-13.785,0-25,11.215-25,25v280c0,13.785,11.215,25,25,25h280c13.785,0,25-11.215,25-25V60
		C365,46.215,353.785,35,340,35L340,35z"/>
	<path fill="#FFFFFF" d="M83.078,322.473h235c1.366,0,2.473-1.106,2.473-2.473s-1.107-2.473-2.473-2.473h-235
		c-1.366,0-2.473,1.106-2.473,2.473S81.712,322.473,83.078,322.473z"/>
	<path fill="#FFFFFF" d="M80.276,224.993c2.235-4.049,5.063-7.74,8.374-10.969c6.705-6.538,15.205-10.948,24.416-12.674
		l76.781-13.535l44.476-102.762L253.85,80l3.965,95.828l35.551-6.269l7.483-27.023l15.396-1.994l5.24,43.866l-61.941,35.434
		l-148.196,26.128c-7.197,1.27-14.576,1.126-21.72-0.409l0.008,0.008c-2.718-0.586-5.2-1.958-7.13-3.938
		C78.173,237.189,77.271,230.419,80.276,224.993z"/>
	<circle fill="#FFFFFF" cx="121.857" cy="255.719" r="6.683"/>
	
		<ellipse transform="matrix(0.3711 -0.9286 0.9286 0.3711 -92.8746 343.1667)" fill="#FFFFFF" cx="206.926" cy="240.153" rx="7.241" ry="7.241"/>
	
		<ellipse transform="matrix(0.7741 -0.6331 0.6331 0.7741 -98.2514 197.6178)" fill="#FFFFFF" cx="227.773" cy="236.477" rx="7.241" ry="7.241"/>
</g>
</svg>
