<?xml version="1.0" encoding="utf-8"?>
<!-- Generator: Adobe Illustrator 26.0.3, SVG Export Plug-In . SVG Version: 6.00 Build 0)  -->
<svg version="1.0" xmlns="http://www.w3.org/2000/svg" xmlns:xlink="http://www.w3.org/1999/xlink" x="0px" y="0px"
	 viewBox="0 0 400 400" enable-background="new 0 0 400 400" xml:space="preserve">
<rect id="background-blue" fill="#2D327D" width="400" height="400"/>
<g id="content">
	<path id="frameWhite" fill="#FFFFFF" d="M340,40c11,0,20,9,20,20v280c0,11-9,20-20,20H60c-11,0-20-9-20-20V60c0-11,9-20,20-20H340
		 M340,35H60c-13.785,0-25,11.215-25,25v280c0,13.785,11.215,25,25,25h280c13.785,0,25-11.215,25-25V60
		C365,46.215,353.785,35,340,35L340,35z"/>
	<path fill="#FFFFFF" d="M233,241.25h-55.5c-16.542,0-30-13.458-30-30s13.458-30,30-30h15.019c8.271,0,15-6.729,15-15
		s-6.729-15-15-15H80v-15h112.519c16.542,0,30,13.458,30,30s-13.458,30-30,30H177.5c-8.271,0-15,6.729-15,15s6.729,15,15,15H233
		V241.25z"/>
	<path fill="#FFFFFF" d="M275,263.75h-15c-12.426,0-22.5-10.074-22.5-22.5v-15c0-12.426,10.074-22.5,22.5-22.5h15
		c4.142,0,7.5,3.358,7.5,7.5v45C282.5,260.392,279.142,263.75,275,263.75z"/>
	<path fill="#FFFFFF" d="M312.5,215H287v7.5h25.5c2.071,0,3.75-1.679,3.75-3.75S314.571,215,312.5,215z"/>
	<path fill="#FFFFFF" d="M312.5,245H287v7.5h25.5c2.071,0,3.75-1.679,3.75-3.75S314.571,245,312.5,245z"/>
</g>
</svg>
