<?xml version="1.0" encoding="utf-8"?>
<!-- Generator: Adobe Illustrator 24.2.0, SVG Export Plug-In . SVG Version: 6.00 Build 0)  -->
<svg version="1.0" id="Ebene_3" xmlns="http://www.w3.org/2000/svg" xmlns:xlink="http://www.w3.org/1999/xlink" x="0px" y="0px"
	 viewBox="0 0 400 400.002" enable-background="new 0 0 400 400.002" xml:space="preserve">
<rect id="background-blue" fill="#2D327D" width="400" height="400"/>
<g id="content">
	<path id="frameWhite" fill="#FFFFFF" d="M340,40c11,0,20,9,20,20v280c0,11-9,20-20,20H60c-11,0-20-9-20-20V60c0-11,9-20,20-20H340
		 M340,35H60c-13.785,0-25,11.215-25,25v280c0,13.785,11.215,25,25,25h280c13.785,0,25-11.215,25-25V60
		C365,46.215,353.785,35,340,35L340,35z"/>
	<path fill="#FFFFFF" d="M237.904,319.918H311.5c4.693,0,8.501-3.795,8.501-8.492v-43.028c0-4.674-3.808-8.488-8.501-8.488h-23.205
		v-3.669c0-3.918-3.177-7.095-7.08-7.095h-13.022c-3.899,0-7.071,3.177-7.071,7.095v3.669h-23.218c-4.682,0-8.49,3.814-8.49,8.488
		v43.028C229.414,316.123,233.222,319.918,237.904,319.918L237.904,319.918z M266.213,254.249h16.984v5.661h-16.984V254.249
		L266.213,254.249z"/>
	<path fill="#FFFFFF" d="M223.369,175.236c0,8.73,7.101,15.828,15.827,15.828c8.728,0,15.829-7.098,15.829-15.828
		c0-8.726-7.101-15.828-15.829-15.828C230.47,159.408,223.369,166.51,223.369,175.236 M227.939,175.236
		c0-6.209,5.052-11.26,11.257-11.26c6.207,0,11.257,5.05,11.257,11.26c0,6.206-5.05,11.259-11.257,11.259
		C232.991,186.495,227.939,181.442,227.939,175.236L227.939,175.236z"/>
	<path fill="#FFFFFF" d="M264.025,175.236c0,8.73,7.099,15.828,15.827,15.828c8.728,0,15.829-7.098,15.829-15.828
		c0-8.726-7.101-15.828-15.829-15.828C271.124,159.408,264.025,166.51,264.025,175.236 M268.595,175.236
		c0-6.209,5.052-11.26,11.257-11.26c6.207,0,11.259,5.05,11.259,11.26c0,6.206-5.052,11.259-11.259,11.259
		C273.647,186.495,268.595,181.442,268.595,175.236L268.595,175.236z"/>
	<path fill="#FFFFFF" d="M214.742,121.066c1.369,12.818,6.562,24.493,14.43,33.855h61.098c7.872-9.362,13.063-21.037,14.432-33.855
		H214.742L214.742,121.066z"/>
	<path fill="#FFFFFF" d="M253.694,116.55c2.484,0,3.499-1.758,2.257-3.909l-18.916-32.764c-12.82,7.42-21.639,20.988-22.416,36.673
		H253.694L253.694,116.55z"/>
	<path fill="#FFFFFF" d="M318.195,114.76h-27.084v3.611h27.084c0.994,0,1.806-0.813,1.806-1.804
		C320.001,115.574,319.19,114.76,318.195,114.76L318.195,114.76z"/>
	<path fill-rule="evenodd" clip-rule="evenodd" fill="#FFFFFF" d="M113.07,117.219l-0.13-32.002c0-2.996-1.99-5.443-4.426-5.443
		h-23.88c-2.437,0-4.429,2.447-4.429,5.443v50.039c0,0-0.243,1.778,1.345,8.273c1.588,6.496,33.056,119.309,33.056,119.309
		s2.815,11.259,8.228,11.475c5.413,0.218,21.87,0,21.87,0l-42.44-128.402c0,0-4.548-10.611-2.815-13.426
		c1.732-2.815,11.26-11.692,11.26-11.692S113.077,118.841,113.07,117.219z"/>
	<path fill-rule="evenodd" clip-rule="evenodd" fill="#FFFFFF" d="M164.966,262.445c2.13-1.825,0.812-7.814,0.812-7.814
		l-6.348-57.852c-0.229-2.99-2.401-5.276-4.83-5.09l-16.902,1.3c-2.429,0.187-4.227,2.779-3.998,5.768l5.417,43.198
		c0,0,6.958,22.254,9.701,30.237C148.818,272.192,162.835,264.268,164.966,262.445z"/>
	<path fill-rule="evenodd" clip-rule="evenodd" fill="#FFFFFF" d="M141.239,315.047c0,2.689-1.475,4.873-3.296,4.873h-14.83
		c-1.821,0-3.296-2.184-3.296-4.873v-30.665c0-2.689,1.475-4.872,3.296-4.872h14.83c1.821,0,3.296,2.182,3.296,4.872V315.047z"/>
	<path fill="#FFFFFF" d="M187.082,192.912h9.002c-0.767-24.151-20.132-43.683-44.219-44.707v-0.035h-1.398
		c-0.197-0.003-0.391-0.015-0.588-0.015v0.015h-7.981c-0.063-0.037-0.129-0.082-0.187-0.09l10.153-10.086h-11.687l-14.462,14.462
		l14.462,14.458h11.687l-9.878-9.811h7.893v0.015C169.934,157.118,186.295,173.047,187.082,192.912z"/>
</g>
</svg>
