<?xml version="1.0" encoding="utf-8"?>
<!-- Generator: Adobe Illustrator 25.1.0, SVG Export Plug-In . SVG Version: 6.00 Build 0)  -->
<svg version="1.0" xmlns="http://www.w3.org/2000/svg" xmlns:xlink="http://www.w3.org/1999/xlink" x="0px" y="0px"
	 viewBox="0 0 400 400" enable-background="new 0 0 400 400" xml:space="preserve">
<rect id="background-blue" x="0.028" fill="#2D327D" width="400" height="400"/>
<g id="content">
	<path id="frameWhite" fill="#FFFFFF" d="M340.028,40c11,0,20,9,20,20v280c0,11-9,20-20,20h-280c-11,0-20-9-20-20V60
		c0-11,9-20,20-20H340.028 M340,35H60c-13.785,0-25,11.215-25,25v280c0,13.785,11.215,25,25,25h280c13.785,0,25-11.215,25-25V60
		C365,46.215,353.785,35,340,35L340,35z"/>
	<rect x="80" y="316" fill="#FFFFFF" width="240" height="4"/>
	<path fill="#FFFFFF" d="M80,137l32.89,127h0.01c1.51,5.2,6.31,9,12,9h15.48L98,137H80z"/>
	<path fill="#FFFFFF" d="M153,193h-13c-2.75,0-5,2.25-5,5v44.28l9.57,30.72H148c5.5,0,10-4.5,10-10v-65
		C158,195.25,155.75,193,153,193z"/>
	<path fill="#FFFFFF" d="M109,119c2.11-2.21,2-3.26,2-5.29V85c0-2.75-2.25-5-5-5H85c-2.75,0-5,2.25-5,5v46h18L109,119z"/>
	<path fill="#FFFFFF" d="M162,148.999V149l-5.001-0.001l11.845-11.689h-7.988L146.167,152l14.689,14.689h7.988L156.999,155H162
		v-0.001c19.849,0,35.997,16.159,35.997,36.02h6C203.997,167.849,185.158,148.999,162,148.999z"/>
</g>
</svg>
