<svg xmlns="http://www.w3.org/2000/svg" width="24" height="24" viewBox="0 0 24 24">
  <g fill="none" fill-rule="evenodd">
    <path fill="#237F52" d="M22.5,0 L1.5,0 C0.675000003,0 0,0.675000003 0,1.5 L0,22.5 C0,23.3250009 0.675000003,24 1.5,24 L22.5,24 C23.3250009,24 24,23.3250009 24,22.5 L24,1.5 C24,0.675000003 23.3250009,0 22.5,0 Z"/>
    <g fill="#FFF" transform="translate(3 3)">
      <path d="M5.42250062.0225003001L4.19250062.397500302 4.19999982 4.72499972 5.66250042 4.27499992C5.85000042 4.21499952 5.97000032 4.05000002 5.97750002 3.85499932L6.00000003.442499602C6.00000003.397499502 5.99249942.352499701 5.98500062.314999801 5.90250022.0825000003 5.65499972-.0524998002 5.42250062.0225003001M8.93250084 13.3500005C8.82000064 13.1924993 8.62500004 13.1250001 8.43750004 13.1774999L6.97500043 13.6275007 9.38999944 17.2124998 10.6199989 16.8374998C10.8524999 16.7700006 10.9874992 16.5150015 10.9124984 16.2825014 10.897499 16.2374994 10.8824996 16.2000009 10.8524989 16.1625006L8.93250084 13.3500005z"/>
      <path d="M5.57250022,14.1974984 C4.70249982,12.8549996 4.02000042,11.3999986 3.54750011,9.86999894 C3.07499981,8.33999923 2.82750031,6.75000003 2.79750011,5.15249822 L3.68250032,4.88249822 L3.67500022,0.554998402 L2.41500001,0.937498304 C1.79249951,1.1324983 1.29000001,1.58249811 1.0274997,2.18249801 C-0.150000101,4.90499832 -0.315000301,7.95749863 0.554999602,10.784998 C1.42499921,13.6199991 3.26999951,16.0499975 5.77499992,17.6474992 C6.32250023,18.0000001 6.99750043,18.0899983 7.62000083,17.8949987 L8.88000104,17.5049974 L6.46500103,13.9199983 L5.57250022,14.1974984 Z"/>
      <path fill-rule="nonzero" d="M13.0575009,1.57499981 C13.0575009,0.982499804 13.2825013,0.502499802 13.8600007,0.502499802 C14.250002,0.502499802 14.6625024,0.817499603 14.6625024,1.57499981 C14.6625024,2.14500001 14.4000016,2.62500001 13.8600007,2.62500001 C13.2675,2.62500001 13.0575009,2.06999971 13.0575009,1.57499981 M12.4950009,1.56750011 C12.4950009,2.43000031 13.0050011,3.10500001 13.8675004,3.10500001 C14.6324998,3.10500001 15.2325002,2.52000001 15.2325002,1.57499981 C15.2325002,0.689999803 14.7075006,0 13.8675004,0 C13.0950013,0 12.4950009,0.592500202 12.4950009,1.56750011"/>
      <path d="M9.72750004 2.09250021C9.72750004 2.38500021 9.93750004 3.10500001 10.994999 3.10500001 11.9924994 3.10500001 12.1949999 2.51249981 12.1949999 2.14500001 12.1949999 1.65000011 11.8499986 1.38000011 11.4374992 1.31250001 11.347499 1.29750011 11.0999986 1.26000021 11.0099994 1.24499991 10.6874992 1.1999998 10.3949996 1.1925001 10.3949996.900000104 10.3949996.630000103 10.6425.487500002 10.9650002.487500002 11.2725001.487500002 11.58.607499902 11.6025.967500304L12.1799995.967500304C12.1650001.667500003 11.9474993.0074999 10.9724989.0074999 10.3574991.0074999 9.84749894.330000101 9.84749894.952499804 9.84749894 1.60499951 10.4549999 1.73250001 10.8674994 1.79249951 10.9574996 1.79999921 11.1599989 1.82999941 11.2124997 1.83749961 11.46 1.87499951 11.625 1.99499941 11.625 2.20499941 11.625 2.48999971 11.3024998 2.62499951 11.0249996 2.62499951 10.6725006 2.62499951 10.3274994 2.48249911 10.3274994 2.09999941L9.72750004 2.09250021 9.72750004 2.09250021zM15.540001 2.09250021C15.540001 2.38500021 15.7500001 3.10500001 16.7999993 3.10500001 17.7974988 3.10500001 18.0000001 2.51249981 18.0000001 2.14500001 18.0000001 1.65000011 17.6549989 1.38000011 17.2425004 1.31250001 17.1524983 1.29750011 16.9049989 1.26000021 16.8149987 1.24499991 16.4925004 1.1999998 16.199997 1.1925001 16.199997.900000104 16.199997.630000103 16.4474965.487500002 16.7699986.487500002 17.0774994.487500002 17.3849984.607499902 17.4074975.967500304L17.9849988.967500304C17.9699975.667500003 17.7524987.0074999 16.7774983.0074999 16.1624985.0074999 15.6524983.330000101 15.6524983.952499804 15.6524983 1.60499951 16.2599984 1.73250001 16.6724988 1.79249951 16.7625009 1.79999921 16.9649983 1.82999941 17.0175 1.83749961 17.2649995 1.87499951 17.4300004 1.99499941 17.4300004 2.20499941 17.4300004 2.48999971 17.1075002 2.62499951 16.83 2.62499951 16.4774991 2.62499951 16.1324998 2.48249911 16.1324998 2.09999941L15.540001 2.09250021 15.540001 2.09250021z"/>
    </g>
  </g>
</svg>
