<svg xmlns="http://www.w3.org/2000/svg" width="24" height="24" viewBox="0 0 24 24">
  <g fill="none" fill-rule="evenodd">
    <path fill="#237F52" d="M22.5,0 L1.5,0 C0.675000003,0 0,0.675000003 0,1.5 L0,22.5 C0,23.3250009 0.675000003,24 1.5,24 L22.5,24 C23.3250009,24 24,23.3250009 24,22.5 L24,1.5 C24,0.675000003 23.3250009,0 22.5,0 Z"/>
    <path fill="#FFF" fill-rule="nonzero" d="M4.18250082,0 L4.18250082,10.3200006 L1.0999999,10.3200006 C0.530000202,10.3200006 0.0649996,10.7849998 0.0649996,11.3550004 C0.0649996,11.925001 0.529999802,12.3900013 1.0999999,12.3900013 L4.18250082,12.3900013 L4.18250082,16.7550011 L2.94500061,18 L8.96750064,18 L9.95750044,16.9424993 C10.2124996,16.6649991 10.7600002,16.552498 11.1650009,16.6800004 C11.5775013,16.8075009 11.6975012,17.1375009 11.4425011,17.4149991 L10.8950005,18 L14.682501,18 L15.9275018,16.7549974 L15.9275018,0 L4.18250082,0 Z M14.1425,1.61250021 C14.8849984,1.61250021 15.4925004,2.21999981 15.4925004,2.96250011 C15.4925004,3.70499952 14.8849984,4.31250002 14.1425,4.31250002 C13.3999997,4.31250002 12.7924996,3.70499942 12.7924996,2.96250011 C12.7924996,2.21999981 13.3999997,1.61250021 14.1425,1.61250021 Z M15.1625005,8.93250084 L12.7025014,8.93250084 C12.4175016,8.93250084 12.1850015,8.69999984 12.1850015,8.41500094 L12.1850015,6.47250183 L9.90500174,8.75250064 L11.982502,10.8300009 C12.1100007,10.9650011 12.1850015,11.1375008 12.1850015,11.3250008 L12.1850015,15.517502 C12.1850015,15.9000017 11.8775006,16.2075025 11.4950018,16.2075025 C11.1125012,16.2075025 10.8050022,15.9000017 10.8050022,15.517502 L10.8050022,11.6999999 L8.19500163,9.09000024 L5.43500042,11.8500004 C5.30750082,11.9775 5.12749962,12.0524999 4.94750022,12.0524999 L1.0999999,12.0524999 C0.717500203,12.0524999 0.410000301,11.744999 0.410000301,11.3625002 C0.410000301,10.9799996 0.717500203,10.6725006 1.0999999,10.6725006 L4.56499962,10.6725006 L10.4899998,4.74750042 L9.11749944,4.74750042 L7.18999963,6.67500023 C7.10000043,6.76499943 6.97249993,6.81749923 6.84499933,6.81749923 C6.57499883,6.81749923 6.35749913,6.60000043 6.35749913,6.33000003 C6.35749913,6.20249953 6.4100003,6.07499993 6.49999903,5.98499882 L8.53999904,3.94499932 C8.66749864,3.81749972 8.84749894,3.74249942 9.02749824,3.74249942 L11.4499988,3.74249942 C12.4100003,3.74249942 13.182499,4.52249912 13.182499,5.47500042 L13.182499,7.89750003 L15.1549969,7.89750003 C15.4399967,7.89750003 15.6724968,8.13000103 15.6724968,8.41499994 C15.6800004,8.69999984 15.4474984,8.93250084 15.1625005,8.93250084 Z" transform="translate(4 3)"/>
  </g>
</svg>
