<svg xmlns="http://www.w3.org/2000/svg" width="24" height="24" viewBox="0 0 24 24">
  <g fill="none" fill-rule="evenodd">
    <path fill="#237F52" d="M22.5,0 L1.5,0 C0.675000003,0 0,0.675000003 0,1.5 L0,22.5 C0,23.3250009 0.675000003,24 1.5,24 L22.5,24 C23.3250009,24 24,23.3250009 24,22.5 L24,1.5 C24,0.675000003 23.3250009,0 22.5,0 Z"/>
    <path fill="#FFF" fill-rule="nonzero" d="M0.0649996,0 L0.0649996,16.7549993 L1.30999951,18 L5.09749892,18 L4.54999922,17.415001 C4.29499912,17.1375008 4.41499902,16.8075009 4.82749842,16.6800023 C5.23999882,16.5525018 5.77999872,16.6725007 6.03499892,16.9425012 L7.02499873,18 L13.0474988,18 L11.8099995,16.7550012 L11.8099995,12.3900024 L14.8925001,12.3900024 C15.4624998,12.3900024 15.927498,11.9250021 15.927498,11.3550015 C15.927498,10.7850018 15.4624978,10.3200017 14.8925001,10.3200017 L11.8099995,10.3200017 L11.8099995,0 L0.0649996,0 Z M3.20750051,2.96250011 C3.20750051,3.70499952 2.59999991,4.31250002 1.85750061,4.31250002 C1.1150003,4.31250002 0.507500702,3.70499942 0.507500702,2.96250011 C0.507500702,2.21999981 1.1150003,1.61250021 1.85750061,1.61250021 C2.59999991,1.61250021 3.20750051,2.21999981 3.20750051,2.96250011 Z M0.319999701,8.41500004 C0.319999701,8.12999923 0.552499802,7.89750013 0.837500103,7.89750013 L2.81000041,7.89750013 L2.81000041,5.47500042 C2.81000041,4.52250012 3.58250041,3.74249942 4.54250052,3.74249942 L6.96500113,3.74249942 C7.14500053,3.74249942 7.32500083,3.81749972 7.45250133,3.94499932 L9.49250034,5.98499882 C9.58250054,6.07499903 9.63500024,6.19499983 9.63500024,6.33000003 C9.63500024,6.60000053 9.41750054,6.81749923 9.14750004,6.81749923 C9.02000044,6.81749923 8.89250084,6.76499943 8.80249974,6.67500023 L6.87500003,4.74750042 L5.50249962,4.74750042 L11.4274998,10.6725006 L14.8999997,10.6725006 C15.2825013,10.6725006 15.5900002,10.9800005 15.5900002,11.3625002 C15.5900002,11.7450008 15.2825013,12.0524999 14.8999997,12.0524999 L11.0524998,12.0524999 C10.8725004,12.0524999 10.6924992,11.9850006 10.5649996,11.8500004 L7.81250003,9.09749984 L5.20249942,11.6999998 L5.20249942,15.5099984 C5.20249942,15.8925 4.89499952,16.2000008 4.51249982,16.2000008 C4.12999922,16.2000008 3.82250022,15.8925 3.82250022,15.5099984 L3.82250022,11.3174991 C3.82250022,11.1299991 3.89750002,10.9574994 4.02499962,10.8224992 L6.10250003,8.74499894 L3.82250022,6.46500023 L3.82250022,8.40749944 C3.82250022,8.69249924 3.58999961,8.92499934 3.30500081,8.92499934 L0.845000303,8.92499934 C0.552499802,8.93250084 0.319999701,8.69999984 0.319999701,8.41500004 Z" transform="translate(4 3)"/>
  </g>
</svg>
