<svg xmlns="http://www.w3.org/2000/svg" width="24" height="24" viewBox="0 0 24 24">
  <g fill="none" fill-rule="evenodd">
    <path fill="#237F52" d="M22.5,0 L1.5,0 C0.675000003,0 0,0.675000003 0,1.5 L0,22.5 C0,23.3250009 0.675000003,24 1.5,24 L22.5,24 C23.3250009,24 24,23.3250009 24,22.5 L24,1.5 C24,0.675000003 23.3250009,0 22.5,0 Z"/>
    <g fill="#FFF" transform="translate(3 3)">
      <polygon points="18 2.063 15.938 2.063 15.938 0 13.785 0 13.785 2.063 11.722 2.063 11.722 4.215 13.785 4.215 13.785 6.278 15.938 6.278 15.938 4.215 18 4.215"/>
      <path fill-rule="nonzero" d="M9.98250014,5.63250062 C7.56000043,5.40750022 6.73500063,7.53000063 6.73500063,7.53000063 L6.73500063,7.53000063 C6.73500063,7.53000063 5.90999982,5.40750022 3.48750021,5.63250062 C1.0649996,5.85750002 -0.419999802,7.96500113 0.1274998,10.5600004 C0.300000001,11.3925009 1.0424995,12.8550006 2.23499971,14.2425004 C3.71250012,15.9524995 5.76749992,17.5649987 6.74249943,18.0000001 L6.74249943,18.0000001 C7.70999913,17.5575009 9.77249914,15.9525014 11.25,14.2425004 C12.4424993,12.8625003 13.1849996,11.3924999 13.3575002,10.5599995 C13.8900014,7.96500023 12.4049998,5.85750012 9.98250014,5.63250062 Z M5.33250052,15.3599988 L6.60000043,12.2474996 L4.72499992,12.2474996 L8.30249983,8.25749973 L6.82499983,11.3999996 L8.72999954,11.3999996 L5.33250052,15.3599988 Z"/>
    </g>
  </g>
</svg>
