<svg xmlns="http://www.w3.org/2000/svg" width="24" height="24" viewBox="0 0 24 24">
  <g fill="none" fill-rule="evenodd">
    <path fill="#237F52" d="M22.5,0 L1.5,0 C0.675000003,0 0,0.675000003 0,1.5 L0,22.5 C0,23.3250009 0.675000003,24 1.5,24 L22.5,24 C23.3250009,24 24,23.3250009 24,22.5 L24,1.5 C24,0.675000003 23.3250009,0 22.5,0 Z"/>
    <g fill="#FFF" transform="translate(2 3)">
      <polygon points="4.18 2.7 4.173 .083 9.453 .09 9.513 1.613 10.473 2.677"/>
      <path d="M6.82000063 6.62999923C4.23250052 6.62999923 4.18750042 3.27749971 4.18750042 3.23999981L4.18750042 3.17249971 9.54250044 3.14999971 9.54250044 3.22499951C9.53499984 3.25500011 9.39999964 6.62999923 6.82000063 6.62999923zM10.0900002 17.9849988L3.65499972 17.9849988 3.65499972 7.16250043 8.90499974 7.16250043C8.91250034 7.16250043 8.91999914 7.16250043 8.92749974 7.16250043L17.8450012 7.16250043C18.4750004 7.16250043 18.9925003 7.67999943 18.9925003 8.31000043 18.9925003 8.93999964 18.4750004 9.45750044 17.8450012 9.45750044L10.09 9.45750044 10.09 17.9849988 10.0900002 17.9849988zM3.11500031 17.9849988L.992500104 17.9849988.992500104 9.84749984C.992500104 7.63500023 3.01000031 7.20750043 3.03250031 7.20750043L3.11500031 7.19250103 3.11500031 17.9849988zM12.4975005 4.97250032L12.1149999 4.73250052 12.1975004 4.60500042C12.4825002 4.18500032 12.6399996 3.69750012 12.6399996 3.19500061 12.6399996 2.68500041 12.4824993 2.18250031 12.1824991 1.75500051L12.0924999 1.63500061 12.4750005 1.39500081 12.5500003 1.50750101C12.9025003 2.01000061 13.0900003 2.59500111 13.0900003 3.19500101 13.0900003 3.78750122 12.91 4.36500062 12.5725004 4.85250082L12.4975005 4.97250032z"/>
      <path d="M13.4049998,5.45249942 L13.0375004,5.18999962 L13.1274996,5.06999972 C13.5625,4.52249912 13.7949991,3.86249882 13.7949991,3.17249921 C13.7949991,2.48999931 13.5699997,1.83749871 13.1424999,1.28999901 L13.0524997,1.1699991 L13.4199991,0.907499304 L13.5024996,1.0124993 C13.9899998,1.63499971 14.2525006,2.38499921 14.2525006,3.16499991 C14.2525006,3.95249982 13.9900008,4.70249982 13.4950009,5.33249942 L13.4049998,5.45249942 Z"/>
      <path d="M14.3575002,5.91749952 L13.9975005,5.64749902 L14.0950013,5.53499882 C14.6575013,4.86749932 14.9575005,4.06499852 14.9575005,3.20999901 C14.9575005,2.35499951 14.6425,1.51499931 14.0725003,0.854999004 L13.9750005,0.742498803 L14.3349992,0.464999102 L14.4249994,0.569999102 C15.0625002,1.31249941 15.4150011,2.24999941 15.4150011,3.20999901 C15.4150011,4.16999862 15.0850012,5.06999962 14.455002,5.81999962 L14.3575002,5.91749952 Z"/>
    </g>
  </g>
</svg>
