<svg xmlns="http://www.w3.org/2000/svg" width="24" height="24" viewBox="0 0 24 24">
  <g fill="none" fill-rule="evenodd">
    <path fill="#237F52" d="M22.5,0 L1.5,0 C0.675000003,0 0,0.675000003 0,1.5 L0,22.5 C0,23.3250009 0.675000003,24 1.5,24 L22.5,24 C23.3250009,24 24,23.3250009 24,22.5 L24,1.5 C24,0.675000003 23.3250009,0 22.5,0 Z"/>
    <g fill="#FFF" transform="translate(2 3)">
      <polygon points="3.88 13.305 5.808 11.37 5.808 12.585 3.392 15 .977 12.585 .977 11.37 2.912 13.305 2.912 8.715 3.88 8.715"/>
      <path d="M17.8299985,0 L17.8299985,2.88749981 L17.8299985,2.88749981 C17.8299985,3.29250001 17.5000001,3.62250042 17.0950013,3.62250042 L17.0049992,3.62250042 L15.4524994,3.62250042 L9.63999834,3.62250042 L7.72749903,3.62250042 C7.32249933,3.62250042 6.99249843,3.29250001 6.99249843,2.88749981 L6.99249843,2.88749981 L6.99249843,0.00749990003 L5.82999852,0.00749990003 L5.82999852,3.62999962 L5.82999852,8.81999974 C5.82999852,9.82499894 6.60249903,10.6349993 7.58499813,10.7099991 L7.58499813,9.53999904 C7.24749753,9.47249894 6.99249843,9.17249874 6.99249843,8.81999784 L6.99249843,5.52749822 C6.99249843,5.12249942 7.32249833,4.79249852 7.72749903,4.79249852 L17.1024991,4.79249852 C17.5074979,4.79249852 17.8374978,5.12249752 17.8374978,5.52749822 L17.8374978,8.81999774 C17.8374978,9.17999834 17.574997,9.47999854 17.2299977,9.54749774 L17.2299977,10.7174987 C18.2199975,10.6499986 18.9999982,9.83249854 18.9999982,8.81999774 L18.9999982,3.62999822 L18.9999982,0 L17.8299985,0 Z"/>
      <path d="M16.1724988,8.22000033 C15.7374993,8.22000033 15.392502,8.57250034 15.392502,9.00000004 L15.392502,11.0475006 L15.0774995,11.0475006 L15.0774995,8.05499933 C15.0774995,7.61999893 14.7249986,7.27499963 14.2974988,7.27499963 C13.8624993,7.27499963 13.5175,7.62749963 13.5175,8.05499933 L13.5175,10.4324989 L13.2024995,10.4324989 L13.2024995,7.43249893 C13.2024995,6.99749943 12.8500005,6.65250013 12.4225007,6.65250013 C11.9875002,6.65250013 11.6425009,7.00499913 11.6425009,7.43249893 L11.6425009,9.79499914 L11.3275013,9.79499914 L11.3275013,7.76999953 C11.3275013,7.33499913 10.9750013,6.98999983 10.5475016,6.98999983 C10.1125012,6.98999983 9.76750194,7.34249983 9.76750194,7.76999953 L9.76750194,11.6999998 L9.45250234,11.6999998 L9.45250234,11.6999998 L9.45250234,9.68999964 C9.45250234,9.19499974 9.13750274,8.75249964 8.67250264,8.58749964 C8.61250224,8.56499964 8.54500304,8.55750084 8.47750204,8.55750084 C8.15500183,8.55750084 7.89250203,8.82000064 7.89250203,9.14250084 L7.89250203,12.9150009 L7.89250203,12.9150009 C7.89250203,13.3050022 7.97500253,13.710001 8.10250203,14.0249996 C8.23000163,14.3400001 9.48250214,17.3474998 9.48250214,17.3474998 L15.9700033,17.3474998 L16.7725031,15.4049987 C16.9075033,15.0599994 16.9675047,14.6924991 16.9675047,14.3024978 C16.9675047,14.249998 16.9675047,9.00749764 16.9675047,9.00749764 C16.9525014,8.57250024 16.6000005,8.22000033 16.1724988,8.22000033 Z"/>
    </g>
  </g>
</svg>
