<svg xmlns="http://www.w3.org/2000/svg" width="24" height="24" viewBox="0 0 24 24">
  <g fill="none" fill-rule="evenodd">
    <path fill="#237F52" d="M22.5,0 L1.5,0 C0.675000003,0 0,0.675000003 0,1.5 L0,22.5 C0,23.3250009 0.675000003,24 1.5,24 L22.5,24 C23.3250009,24 24,23.3250009 24,22.5 L24,1.5 C24,0.675000003 23.3250009,0 22.5,0 Z"/>
    <g transform="translate(3 6)">
      <g fill="#FFF">
        <path d="M14.977501,6.17999943 C14.7975007,5.92500022 14.5800019,5.76750002 14.5800019,5.76750002 L13.8450032,5.33249962 L12.6600028,4.64250002 C12.607503,4.62749972 12.562502,4.61999902 12.5175029,4.61999902 C12.3900033,4.61999902 12.2925035,4.67999942 12.2250034,4.78499902 C12.1950037,4.83749882 12.1800033,4.92749892 12.1725036,4.94249932 C12.1125032,5.19749942 12.2775031,5.49749962 12.4950038,5.63249982 L13.4550038,6.20249953 L13.7550049,6.38249983 L11.617504,10.0874997 C12.1200037,10.4025002 12.1650047,10.3950005 12.1800041,10.3950005 C12.3825035,10.5 12.5775041,10.6124993 12.8025045,10.6124993 L14.8050041,10.619999 L18.0000038,12.5175001 L18.0000038,9.09749904 L16.2675037,8.07749853 C16.2675,8.09249973 15.0825006,6.32999993 14.977501,6.17999943 Z"/>
        <path d="M17.6400014,12.5699998 L17.6400014,13.2000009 C17.6400014,13.3349992 17.5275003,13.4474985 17.3925019,13.4474985 L0.607499803,13.4474985 C0.472499602,13.4474985 0.359999601,13.3349993 0.359999601,13.2000009 L0.359999601,0.607500603 C0.359999601,0.472500402 0.472499602,0.360000201 0.607499803,0.360000201 L17.3924997,0.360000201 C17.527498,0.360000201 17.6399992,0.472500402 17.6399992,0.607500603 L17.6399992,8.65500124 L18,8.86500124 L18,0.607500603 C18,0.270000501 17.7299974,5e-07 17.3924978,5e-07 L0.607499803,5e-07 C0.270000001,5e-07 0,0.270000501 0,0.607500603 L0,13.2000014 C0,13.537501 0.270000001,13.8075015 0.607499803,13.8075015 L17.3924997,13.8075015 C17.7299996,13.8075015 18,13.5375005 18,13.2000009 L18,12.7799989 L17.8875009,12.7124997 L17.6400014,12.5699998 Z"/>
        <path d="M16.2675,8.09249973 C16.2675,8.09249973 15.0825005,6.32999993 14.9774991,6.18750003 C14.7974988,5.93250082 14.58,5.77499962 14.58,5.77499962 L13.8450013,5.34000012 L12.6599999,4.64999962 C12.6075001,4.63500022 12.5625001,4.62749962 12.5175009,4.62749962 C12.3900013,4.62749962 12.2925005,4.68750002 12.2250014,4.79249962 C12.1950017,4.84499942 12.1800004,4.93499952 12.1725016,4.94999992 C12.1125012,5.20500002 12.2775011,5.50499932 12.4950018,5.63999952 L13.4550018,6.21000013 L13.755001,6.38999953 L11.617502,10.0950013 C12.1200017,10.4100018 12.1650018,10.4025002 12.1800021,10.4025002 C12.3825015,10.5074997 12.5775021,10.6200009 12.8025016,10.6200009 L14.8050021,10.6274996 L17.6400012,12.3150007 L18.0000001,12.5249997 L18.0000001,9.10499954 L17.6400014,8.89499954 L16.2675,8.09249973 Z"/>
        <polygon points="13.83 5.077 14.138 5.258 14.842 4.028 16.26 4.837 17.115 3.36 14.475 1.845 12.21 2.512 13.643 3.345 12.945 4.567 12.945 4.567"/>
      </g>
      <polygon fill="#FFF" points="10.785 10.342 11.123 10.538 11.123 10.538"/>
      <path fill="#FFF" d="M12.8325006,6.08250053 L12.6450006,5.97000032 C12.6675006,6.11250023 12.6450006,6.26249983 12.5700008,6.39000133 C12.4800006,6.54000093 12.330001,6.64500053 12.1650011,6.68250083 C12.1950008,6.72000023 12.2175009,6.75750063 12.2400009,6.80250073 C12.3225014,6.98250013 12.307501,7.20000073 12.2100012,7.36500073 C12.1050017,7.54500013 11.9175016,7.65750023 11.7075015,7.67250153 C11.7075015,7.68000213 11.7150021,7.68750093 11.7150021,7.68750093 C11.7975026,7.86750033 11.7825013,8.07750123 11.6850024,8.25000093 C11.5800029,8.43000034 11.3850022,8.54250044 11.1825028,8.55750174 C11.1900034,8.57250114 11.1975022,8.58750144 11.2050028,8.60250184 C11.2875033,8.78250124 11.2725029,8.99250214 11.1750031,9.17250244 C11.0625039,9.36000244 10.8600035,9.48000324 10.6350041,9.48000324 C10.5225039,9.48000324 10.4175044,9.45000354 10.3200036,9.39000304 L10.2150041,9.33000264 L9.92250464,9.83250224 L10.8000051,10.3425024 L11.1375047,10.5375021 L13.4625056,6.45000253 L12.8325006,6.08250053 Z"/>
      <polygon fill="#FFF" points="5.295 2.317 3.037 2.317 3.037 1.958 5.212 1.958 6.525 1.298 7.965 1.68 7.867 2.025 6.563 1.68"/>
      <polygon fill="#FFF" points="11.55 3.18 10.755 2.317 10.028 2.317 10.028 1.958 10.913 1.958 11.813 2.94"/>
      <polygon fill="#FFF" points="4.965 3.33 4.83 2.992 6.398 2.363 7.14 2.663 7.898 2.31 8.048 2.64 7.148 3.052 6.398 2.752"/>
      <polygon fill="#FFF" points="8.19 7.403 7.552 5.677 8.49 4.47 8.663 3.135 9.015 3.188 8.835 4.613 7.958 5.738 8.528 7.275"/>
      <path fill="#FFF" d="M11.3400002 7.59000023L11.2350007 7.52999983 11.2200004 7.52249923 11.0325004 7.40999903 10.4850007 7.08000003C10.4175006 7.04249963 10.3425008 7.01999963 10.2749997 7.01999963 10.1399995 7.01999963 10.0049992 7.08749883 9.92999944 7.21500023 9.85499964 7.33500013 9.85499964 7.47750003 9.90749944 7.59749993 9.93749914 7.67250073 9.99749964 7.73250013 10.0649997 7.77750023L10.6199991 8.10749923 10.8074991 8.21999943 10.8300001 8.23499883 10.9349996 8.29499923C11.0024988 8.33249963 11.0699998 8.34749903 11.137499 8.34749903 11.2799989 8.34749903 11.4149992 8.27249923 11.489999 8.14499963 11.5574982 8.02499883 11.5649988 7.88999953 11.512499 7.77750023 11.4750004 7.70249943 11.415 7.63500023 11.3400002 7.59000023zM11.0625 7.17000013L10.875 7.05750093 10.3200006 6.72750103C10.2450008 6.68250093 10.192501 6.61500083 10.1625003 6.54750163 10.1100005 6.42750083 10.1174993 6.28500183 10.1850003 6.16500103 10.2600001 6.03750143 10.3950003 5.97000042 10.5300006 5.97000042 10.6050004 5.97000042 10.6800002 5.99250042 10.7400006 6.03000083L11.2875012 6.36000073 11.4750012 6.47249993 11.737501 6.63000113 11.8575018 6.69750033C11.9325016 6.74250043 11.992502 6.81000053 12.0225009 6.88500033 12.0750007 6.99750053 12.0675019 7.13999953 12.0000009 7.25249973 11.925001 7.37999933 11.7900008 7.45500003 11.6475008 7.45500003 11.5800016 7.45500003 11.5050018 7.43999973 11.4450014 7.40250023L11.3325014 7.33500003 11.0625 7.17000013zM11.8200006 6.42749983L11.7600002 6.38999943 11.5725002 6.27750023 11.0175008 5.94750032C10.942501 5.90250022 10.8900012 5.83500012 10.8600005 5.76750092 10.8075007 5.64750012 10.8149995 5.50500112 10.8825005 5.38500032 10.9575003 5.25750072 11.0925005 5.18999972 11.2275008 5.18999972 11.3025006 5.18999972 11.3775004 5.21249972 11.4375008 5.25000012L11.9850014 5.58000002 12.1725015 5.69249922 12.2250013 5.72249892C12.2325019 5.72999952 12.2400007 5.73749922 12.2475013 5.73749922 12.3075017 5.78249932 12.3600015 5.84249872 12.3900012 5.90999892 12.442501 6.02249913 12.4350013 6.16499903 12.3675002 6.27749833 12.2925004 6.40499883 12.1575002 6.47999863 12.0150012 6.47999863 11.9550007 6.47999863 11.9025009 6.46499833 11.8425005 6.44249823 11.8424997 6.43500043 11.835 6.43500043 11.8200006 6.42749983zM10.9724998 9.06749924C10.8975 9.19499974 10.7624998 9.26999954 10.6200008 9.26999954 10.5525007 9.26999954 10.4775009 9.25499924 10.4175005 9.21749974L10.312501 9.14999964 10.2975016 9.14249994 10.1100016 9.02999974 9.96750174 8.94749924C9.89250194 8.90249824 9.84000214 8.83499904 9.81000144 8.76749984 9.75750164 8.64749904 9.76500134 8.50499904 9.83250144 8.38499923 9.90750124 8.25749963 10.0425014 8.18999863 10.1775017 8.18999863 10.2525025 8.18999863 10.3275023 8.21249863 10.3875027 8.24999903L10.5225029 8.33249953 10.7100029 8.44499974 10.7175026 8.44499974 10.8300028 8.51249894C10.9050026 8.55749904 10.965003 8.62499914 10.9950028 8.69999894 11.0475006 8.81250004 11.04 8.94750024 10.9724998 9.06749924z"/>
      <path fill="#EB0000" d="M9.59249974,2.13749981 C9.59249974,1.80000021 9.31499954,1.52250001 8.97749994,1.52250001 C8.63999934,1.52250001 8.36250013,1.80000021 8.36250013,2.13749981 C8.36250013,2.47500041 8.63999934,2.75249961 8.97749994,2.75249961 C9.31499964,2.76000021 9.59249974,2.48250011 9.59249974,2.13749981 Z"/>
    </g>
  </g>
</svg>
