<svg xmlns="http://www.w3.org/2000/svg" width="24" height="24" viewBox="0 0 24 24">
  <g fill="none" fill-rule="evenodd">
    <path fill="#237F52" d="M22.5,0 L1.5,0 C0.675000003,0 0,0.675000003 0,1.5 L0,22.5 C0,23.3250009 0.675000003,24 1.5,24 L22.5,24 C23.3250009,24 24,23.3250009 24,22.5 L24,1.5 C24,0.675000003 23.3250009,0 22.5,0 Z"/>
    <g transform="translate(3 6)">
      <polygon fill="#FFF" points="7.733 8.76 7.095 7.035 8.033 5.827 8.205 4.5 8.565 4.545 8.377 5.97 7.5 7.095 8.07 8.64"/>
      <polygon fill="#FFF" points="4.838 3.683 2.58 3.683 2.58 3.323 4.755 3.323 6.067 2.655 7.508 3.038 7.417 3.383 6.105 3.038"/>
      <polygon fill="#FFF" points="11.092 4.545 10.298 3.683 9.57 3.683 9.57 3.323 10.455 3.323 11.355 4.298"/>
      <polygon fill="#FFF" points="4.508 4.688 4.373 4.358 5.94 3.72 6.683 4.02 7.44 3.675 7.59 3.998 6.698 4.41 5.94 4.11"/>
      <path fill="#FFF" d="M13.4099999 5.08500002C13.3274994 5.01000022 13.2224999 4.96500012 13.1099988 4.96500012L13.1024991 4.96500012C12.9899989 4.96500012 12.8774987 5.01749992 12.8024989 5.10000032L12.6749993 5.23500052 13.9799996 6.48000043 13.8374997 6.63000103 12.2399999 5.10000032C12.1574994 5.02499952 12.0524999 4.97999952 11.9399996 4.97999952L11.932499 4.97999952C11.8199998 4.97999952 11.7074996 5.03249932 11.6324998 5.11499972L11.4974995 5.25000002 13.4024984 7.06499963 13.2599985 7.21500023 11.0624991 5.12250052C10.9799986 5.04750072 10.8749991 5.00249972 10.7624989 5.00249972L10.7549983 5.00249972C10.6424981 5.00249972 10.5299989 5.05499952 10.4549981 5.13749992L10.3199978 5.27250002 12.824998 7.66500003 12.6824981 7.81499963 9.83249864 5.10000042C9.74999814 5.01749992 9.63749804 4.97999962 9.52499784 4.97999962 9.51749724 4.97999962 9.51749724 4.97999962 9.50999844 4.97999962 9.26249804 4.98750022 9.06749834 5.18999962 9.07499804 5.43750012 9.07499804 5.55750092 9.12749784 5.67000022 9.20999824 5.74500092L11.9174977 8.32499993C12.007497 8.41500014 12.0599968 8.53499994 12.0674974 8.65499984L12.0824968 9.41250044C12.0899974 9.60000044 11.9399977 9.75000004 11.7599965 9.75000004L10.4099971 9.77999974C10.1099969 9.78750034 9.83999654 9.98249914 9.74999634 10.2749996 9.73499694 10.3125 9.73499694 10.3500004 9.73499694 10.3950004 9.74249754 10.5900001 9.89999694 10.7400016 10.0949975 10.7400016L10.1024972 10.7400016 14.047497 10.6425018 14.797497 10.6275005 17.9924967 12.5249997 17.9924967 9.10499954 16.2599966 8.08499903 13.4099999 5.08500002zM.607499803 13.4474984L1.38749981 13.4474984 2.73000001 11.8199978 3.44999981 11.6174965 7.25249963 10.5599976C7.43999963 10.5074959 7.55249983 10.3124981 7.50000003 10.1174965 7.49249943 10.079998 7.47000033 10.0424976 7.44750023 10.0049973 7.31250003 9.80999674 7.09500023 9.70499714 6.86250023 9.70499714 6.79500013 9.70499714 6.73500063 9.71249774 6.66749963 9.73499684L5.36250022 10.0949974C5.33250052 10.1024971 5.30249982 10.1099968 5.27250002 10.1099968 5.13000102 10.1099968 4.99500032 10.012497 4.94999982 9.86999704L4.74750042 9.14249704C4.71000002 9.02249724 4.73250062 8.88749794 4.79250052 8.78249744L6.63000113 5.52749632C6.69000063 5.42249682 6.70500093 5.30249592 6.66750053 5.18999672 6.61500073 4.99499612 6.43500043 4.86749652 6.24000073 4.86749652 6.20250133 4.86749652 6.15750023 4.87499622 6.12000083 4.88249592 6.00750063 4.91249562 5.90999982 4.98749542 5.85000032 5.09249592L3.91500002 8.51999574 3.73500022 8.42249594 5.43750002 5.40749552 5.27250002 5.31749632C5.20500082 5.27999592 5.13749982 5.26499652 5.06250002 5.26499652 5.02499962 5.26499652 4.98750022 5.27249712 4.94999982 5.27999592 4.83750012 5.30999562 4.74750042 5.38499542 4.69500062 5.48249622L3.20250031 8.12999623 3.02250001 8.03249553 4.31250002 5.73749542 4.14750002 5.64749522C4.08000082 5.60999582 4.01249982 5.59499542 3.93750002 5.59499542 3.90000012 5.59499542 3.86250022 5.60249602 3.82499982 5.60999572 3.71250012 5.63999542 3.62250042 5.71499522 3.56999971 5.81249512L2.48999981 7.73249613 2.30999951 7.62749663 3.19499971 6.05999653 3.03000021 5.96999732C2.96250011 5.93249702 2.89500001 5.91749762 2.81999971 5.91749762 2.78249981 5.91749762 2.74499991 5.92499732 2.70750001 5.93249702 2.59499981 5.96249672 2.50500011 6.03749653 2.45249991 6.13499643L.367499602 9.86999704.367499602 13.2224961C.360000102 13.3349992.472500302 13.4474984.607499803 13.4474984z"/>
      <path fill="#FFF" d="M.360000102 9.40499974L.360000102 2.39999961 15.3374992 2.39999961C15.5849987 2.39999961 15.8325 2.61000061 15.8775001 2.85000041L16.8675018 8.19750023 17.2725011 8.43750004 16.2300016 2.78250031C16.1550027 2.37000091 15.7500021 2.04000091 15.3375017 2.04000091L.360000102 2.04000091.360000102.607500603C.360000102.472500402.472500302.360000201.607500503.360000201L17.3925024.360000201C17.5275007.360000201 17.6400019.472500402 17.6400019.607500603L17.6400019 8.65500124 18 8.86500074 18 .607500603C18 .270000501 17.7299996 5e-7 17.3925 5e-7L.607499803 5e-7C.270000001 5e-7 0 .270000501 0 .607500603L0 10.042502.1199999 9.82500134.360000102 9.40499974zM17.6400014 12.5699998L17.6400014 13.2000009C17.6400014 13.3349992 17.5275003 13.4474985 17.3925019 13.4474985L1.66500001 13.4474985 1.37249951 13.8074991 17.3925001 13.8074991C17.7299996 13.8074991 18.0000001 13.5374986 18.0000001 13.199997L18.0000001 12.7799969 17.8875009 12.7124977 17.6400014 12.5699998z"/>
      <path fill="#FFF" d="M7.50000003,10.125 C7.49249943,10.0874996 7.47000033,10.0499992 7.44750023,10.0125008 C7.31250003,9.81749924 7.09500023,9.71249974 6.86250023,9.71249974 C6.79500013,9.71249974 6.73500063,9.72000034 6.66749963,9.74249944 L5.36250022,10.102499 C5.33250052,10.1100006 5.30249982,10.1175003 5.27250002,10.1175003 C5.13000102,10.1175003 4.99500032,10.0199985 4.94999982,9.87749964 L4.74750042,9.14999964 C4.71000002,9.02999974 4.73250062,8.89500054 4.79250052,8.79000004 L6.63000113,5.53499892 C6.69000063,5.42999942 6.70500093,5.30999952 6.66750053,5.19749932 C6.61500073,5.00249872 6.43500043,4.87499912 6.24000073,4.87499912 C6.20250133,4.87499912 6.15750023,4.88249972 6.12000083,4.88999852 C6.0074999,4.91999822 5.90999982,4.99499802 5.85000032,5.09999852 L3.91500002,8.52749824 L3.73500022,8.42999844 L5.43750002,5.41499902 L5.27250002,5.32499882 C5.20500082,5.28749842 5.13749982,5.27249902 5.06250002,5.27249902 C5.02499962,5.27249902 4.98750022,5.27999962 4.94999982,5.28749842 C4.83750012,5.31749812 4.74750042,5.39249792 4.69500062,5.48999872 L3.20250031,8.13749873 L3.02250001,8.03999903 L4.31250002,5.74499802 L4.14750002,5.65499882 C4.08000082,5.61749842 4.01249982,5.60249902 3.93750002,5.60249902 C3.90000012,5.60249902 3.86250022,5.60999872 3.82499982,5.61749842 C3.71250012,5.64749812 3.62250042,5.72249792 3.56999971,5.81999782 L2.48999981,7.73999883 L2.30999951,7.63499933 L3.19499971,6.06749923 L3.03000021,5.97750002 C2.96250011,5.93999962 2.89500001,5.92500022 2.81999971,5.92500022 C2.78249981,5.92500022 2.74499991,5.93250082 2.70750001,5.93999962 C2.59499981,5.96999932 2.50500011,6.04499913 2.45249991,6.14249993 L0.367499601,9.87749964 L0.314999801,9.96749984 L0.0074999,10.5224992 L0.0074999,11.2949983 L0.0074999,12.4424975 L0.0074999,13.200001 C0.0074999,13.5375006 0.277499601,13.8075011 0.614999703,13.8075011 L0.750000003,13.8075011 L0.862500004,13.8075011 L1.0949998,13.8075011 L1.38749981,13.4475024 L2.73000001,11.8199997 L3.44999981,11.6175003 L7.25249963,10.5599995 C7.43999963,10.5150013 7.55249983,10.3125 7.50000003,10.125 Z"/>
      <path fill="#EB0000" d="M9.13500024,3.50249961 C9.13500024,3.16500001 8.85750004,2.88749981 8.52000044,2.88749981 C8.18250083,2.88749981 7.90500073,3.16500001 7.90500073,3.50249961 C7.90500073,3.84000022 8.18250093,4.11749942 8.52000054,4.11749942 C8.85750014,4.11749942 9.13500024,3.84000022 9.13500024,3.50249961 Z"/>
    </g>
  </g>
</svg>
