<svg xmlns="http://www.w3.org/2000/svg" width="24" height="24" viewBox="0 0 24 24">
  <g fill="none" fill-rule="evenodd">
    <path fill="#237F52" d="M22.5,0 L1.5,0 C0.675000003,0 0,0.675000003 0,1.5 L0,22.5 C0,23.3250009 0.675000003,24 1.5,24 L22.5,24 C23.3250009,24 24,23.3250009 24,22.5 L24,1.5 C24,0.675000003 23.3250009,0 22.5,0 Z"/>
    <path fill="#FFF" fill-rule="nonzero" d="M7.37500003,0 C7.16500003,0 7.00000003,0.164999701 7.00000003,0.375000002 L7.00000003,1.31250001 L1,1.31250001 L1,0.375000002 C1,0.164999701 0.835000003,0 0.625000003,0 C0.415000002,0 0.250000001,0.164999701 0.250000001,0.375000002 L0.250000001,17.6250001 C0.250000001,17.8349992 0.415000002,18 0.625000003,18 C0.835000003,18 1,17.8349992 1,17.6250001 L1,16.6875001 L7.00000003,16.6875001 L7.00000003,17.6250001 C7.00000003,17.8349992 7.16500003,18 7.37500003,18 C7.58500003,18 7.75,17.8349992 7.75,17.6250001 L7.75,0.375000002 C7.75,0.164999701 7.58500003,0 7.37500003,0 Z M7,16.3125001 L1,16.3125001 L1,13.6875001 L7,13.6875001 L7,16.3125001 Z M7,13.3125001 L1,13.3125001 L1,10.6875 L7,10.6875 L7,13.3125001 Z M7,10.3125 L1,10.3125 L1,7.68750003 L7,7.68750003 L7,10.3125 Z M7,7.31250003 L1,7.31250003 L1,4.68750002 L7,4.68750002 L7,7.31250003 Z M7,4.31250002 L1,4.31250002 L1,1.68750001 L7,1.68750001 L7,4.31250002 Z" transform="translate(8 3)"/>
  </g>
</svg>
