<svg xmlns="http://www.w3.org/2000/svg" width="24" height="24" viewBox="0 0 24 24">
  <g fill="none" fill-rule="evenodd">
    <path fill="#2D327D" d="M22.5,0 L1.5,0 C0.675000003,0 0,0.675000003 0,1.5 L0,22.5 C0,23.3250009 0.675000003,24 1.5,24 L22.5,24 C23.3250009,24 24,23.3250009 24,22.5 L24,1.5 C24,0.675000003 23.3250009,0 22.5,0 Z"/>
    <path fill="#FFF" fill-rule="nonzero" d="M0,0.500000002 L5.44500062,0.500000002 C6.36000063,0.500000002 7.08749963,0.560000402 7.61250013,0.672500103 C8.13749973,0.785000303 8.61749934,0.987500204 9.03750034,1.28000071 C10.2150001,2.06750111 10.8000001,3.25250051 10.8000001,4.84250072 C10.8000001,6.25250053 10.3124999,7.36250023 9.33749954,8.16500093 C8.92500014,8.51000124 8.45249934,8.75750064 7.92749973,8.90750034 C7.39499943,9.05750094 6.74249933,9.13249974 5.96999922,9.13249974 L2.93999911,9.13249974 L2.93999911,14 L0,14 L0,0.500000002 Z M2.94750021,2.98999981 L2.94750021,6.81499963 L5.57999992,6.81499963 C6.35999873,6.81499963 6.92249873,6.67999943 7.26749993,6.40250023 C7.69499973,6.05749903 7.90499973,5.54750072 7.90499973,4.87999922 C7.90499973,4.20500002 7.65749933,3.69499972 7.16999913,3.36499981 C6.80999943,3.11749941 6.23249913,2.99750041 5.42249872,2.99750041 L2.94750021,2.98999981 L2.94750021,2.98999981 Z" transform="translate(3 7)"/>
  </g>
</svg>
