<svg xmlns="http://www.w3.org/2000/svg" width="24" height="24" viewBox="0 0 24 24">
  <g fill="none" fill-rule="evenodd">
    <path fill="#2D327D" d="M22.5,0 L1.5,0 C0.675000003,0 0,0.675000003 0,1.5 L0,22.5 C0,23.3250009 0.675000003,24 1.5,24 L22.5,24 C23.3250009,24 24,23.3250009 24,22.5 L24,1.5 C24,0.675000003 23.3250009,0 22.5,0 Z"/>
    <g fill="#FFF" transform="translate(3 7)">
      <polygon points="18 5.488 18 4.25 9 .125 0 4.25 0 5.488 9 1.363"/>
      <path fill-rule="nonzero" d="M6.03750043,4.32499982 L9.94500074,4.32499982 C10.6050005,4.32499982 11.1225005,4.36250022 11.4975005,4.44500062 C11.8725005,4.52750102 12.2175009,4.67000002 12.5175011,4.88000102 C13.3575003,5.44250102 13.785002,6.29750053 13.785002,7.43749993 C13.785002,8.44999974 13.4400008,9.24500074 12.7425025,9.82249824 C12.450003,10.0699977 12.1125024,10.2499999 11.7300016,10.3549994 C11.3475019,10.4599989 10.8825018,10.5200003 10.3275024,10.5200003 L8.16000293,10.5200003 L8.16000293,14.0000001 L6.05250193,14.0000001 L6.05250193,4.32499982 L6.03750043,4.32499982 Z M8.14500053,6.11000063 L8.14500053,8.84749984 L10.0275011,8.84749984 C10.5900011,8.84749984 10.9950008,8.75000004 11.2350016,8.54750064 C11.5425015,8.30000023 11.6925021,7.93999963 11.6925021,7.45249943 C11.6925021,6.96500023 11.5125027,6.60499963 11.1600018,6.36499983 C10.9050016,6.18500043 10.4850016,6.10250003 9.90750124,6.10250003 L8.14500053,6.11000063 L8.14500053,6.11000063 Z"/>
    </g>
  </g>
</svg>
