<svg xmlns="http://www.w3.org/2000/svg" width="24" height="24" viewBox="0 0 24 24">
  <g fill="none" fill-rule="evenodd">
    <path fill="#2D327D" d="M22.5,0 L1.5,0 C0.675000003,0 0,0.675000003 0,1.5 L0,22.5 C0,23.3250009 0.675000003,24 1.5,24 L22.5,24 C23.3250009,24 24,23.3250009 24,22.5 L24,1.5 C24,0.675000003 23.3250009,0 22.5,0 Z"/>
    <g fill="#FFF" transform="translate(3 7)">
      <path d="M16.6124993.500000002L1.38749981.500000002C.622500203.500000002 0 1.1225004 0 1.88749981L18 1.88749981C18 1.1225004 17.3775006.500000002 16.6124993.500000002L16.6124993.500000002zM11.6475 11L13.1700001 11 13.1700001 7.63250063 14.3700009 7.63250063C15.33 7.63250063 15.8624993 7.81250003 16.0275002 9.04999924 16.1100007 9.70250134 16.2150002 10.4900016 16.3950005 11L18.0000001 11C17.7450009 10.5424995 17.6775018 9.76250084 17.5874997 9.10249904 17.4449998 8.05249983 17.2799989 7.21999933 15.9674989 7.01749993L16.08 7.00999933C16.5375005 7.00999933 17.8125001 6.59749893 17.8125001 5.14249992 17.8125001 3.53750041 16.7549993 2.75749971 15.5025006 2.75749971L11.6550007 2.75749971 11.6475 11 11.6475 11zM13.1849996 4.00249962L15.0674993 4.00249962C15.9750005 4.00249962 16.2675001 4.60250002 16.2675001 5.21000012 16.2675001 5.89250092 15.8399984 6.38000113 14.8199999 6.38000113L13.1849996 6.38000113 13.1849996 4.00249962 13.1849996 4.00249962z"/>
      <polygon points="9.472 9.763 9.472 8.038 11.137 8.038 11.137 6.688 9.472 6.688 9.472 5.188 7.972 5.188 7.972 6.688 6.3 6.688 6.3 8 7.972 8 7.972 9.763"/>
      <path d="M0 11L1.53749991 11 1.53749991 8.02999973 3.70499942 8.02999973C5.38499922 8.02999973 6.14999963 6.77750013 6.14999963 5.44999982 6.14999963 4.20499992 5.42999932 2.75750061 3.53999991 2.75750061L0 2.75750061 0 11 0 11zM1.53000021 4.04000002L3.41249991 4.04000002C3.87749962 4.04000002 4.63500022 4.35499962 4.63500022 5.44999982 4.63500022 6.37250043 4.04250052 6.77000043 3.39750001 6.77000043L1.53000021 6.77000043 1.53000021 4.04000002 1.53000021 4.04000002zM1.38749981 14.0000001L16.6124993 14.0000001C17.3775006 14.0000001 18 13.3775006 18 12.6124993L0 12.6124993C0 13.3775006.622500203 14.0000001 1.38749981 14.0000001L1.38749981 14.0000001z"/>
    </g>
  </g>
</svg>
