<svg xmlns="http://www.w3.org/2000/svg" width="24" height="24" viewBox="0 0 24 24">
  <g fill="none" fill-rule="evenodd">
    <path fill="#2D327D" d="M22.5,0 L1.5,0 C0.675000003,0 0,0.675000003 0,1.5 L0,22.5 C0,23.3250009 0.675000003,24 1.5,24 L22.5,24 C23.3250009,24 24,23.3250009 24,22.5 L24,1.5 C24,0.675000003 23.3250009,0 22.5,0 Z"/>
    <g fill="#FFF" transform="translate(3 3)">
      <path fill-rule="nonzero" d="M15.7124997,11.1750002 L15.7124997,11.1000004 C15.7124997,10.9724999 15.6150018,10.875 15.4874993,10.875 L12.4499999,10.875 L10.4250002,13.8750001 L9.67500024,13.8750001 L6.37500003,9.00000004 L4.52999972,9.00000004 C4.34249972,9.00000004 4.19249962,9.14999964 4.19249962,9.33749964 C4.19249962,9.40499974 4.21499962,9.47249984 4.25249952,9.52499964 L4.91249992,10.5 L5.58749962,10.5 L5.07000062,11.3024998 C4.59000112,11.0699997 4.05750032,10.9424992 3.52500051,10.9424992 C1.58250041,10.9424992 4e-07,12.5249998 4e-07,14.4674989 C4e-07,16.409998 1.58250041,17.9925004 3.52500051,17.9925004 C5.46750062,17.9925004 7.05000013,16.4099999 7.05000013,14.4674989 C7.05000013,13.41 6.57749933,12.4125005 5.76749982,11.744999 L6.17999923,11.1074992 L8.18249893,14.0625001 L8.18249893,15 C8.18249893,15.4125005 8.51999954,15.7500001 8.93249894,15.7500001 L11.1974992,15.7500001 C11.7224988,17.1075002 13.0274983,18 14.4824982,18 C16.4249974,18 18.0074978,16.4174996 18.0074978,14.4750005 C18.0000004,13.0049993 17.0849992,11.6924992 15.7124997,11.1750002 L15.7124997,11.1750002 Z M6.11250023,14.4750005 C6.11250023,15.9075013 4.94999982,17.0625001 3.52500011,17.0625001 C2.10000041,17.0625001 0.937500004,15.8999997 0.937500004,14.4750005 C0.937500004,13.0499994 2.09999991,11.8874998 3.52500011,11.8874998 C3.87749962,11.8874998 4.22999952,11.9624996 4.56000042,12.1049996 L3.18000031,14.2500001 C3.13500021,14.3174993 3.11250021,14.3925 3.11250021,14.4750005 C3.11250021,14.7000009 3.30000021,14.8874998 3.52500011,14.8874998 C3.66749952,14.8874998 3.79500062,14.8125001 3.87000042,14.7000009 L5.25000002,12.5549995 C5.79750062,13.0424996 6.11250023,13.7400018 6.11250023,14.4750005 L6.11250023,14.4750005 Z M14.4750005,17.0625001 C13.5450002,17.0625001 12.682501,16.5599996 12.2250005,15.7500001 L15.0000001,15.7500001 C15.4125005,15.7500001 15.7500001,15.4125005 15.7500001,15.0000001 L15.7500001,12.2250005 C16.5599996,12.682501 17.0625001,13.5450002 17.0625001,14.4750005 C17.0625001,15.8999997 15.8999997,17.0625001 14.4750005,17.0625001 L14.4750005,17.0625001 Z"/>
      <path d="M12.1875001 10.5L15.7500001 10.5 15.7500001 9.75000004C15.7500001 9.58500004 15.6150018 9.44999984 15.4500009 9.44999984L12.0375005 9.44999984C11.8725004 9.44999984 11.7375002 9.58500004 11.7375002 9.75000004 11.7375002 9.81000044 11.7600002 9.87000084 11.79 9.91500004L12.1875001 10.5 12.1875001 10.5zM4.27500012 8.58749964L6.93750002 8.58749964 6.93750002 7.91250043 4.27500012 7.91250043C4.08750012 7.91250043 3.93750002 8.06250003 3.93750002 8.25000003 3.93750002 8.43750004 4.08750012 8.58749964 4.27500012 8.58749964L4.27500012 8.58749964z"/>
      <path fill-rule="nonzero" d="M0,0 L1.81499961,0 C2.12249951,0 2.36250021,0.0225003001 2.53499991,0.0600002003 C2.70750001,0.0975003004 2.87249951,0.165000401 3.00749971,0.262500001 C3.39749961,0.525000002 3.59250021,0.922500104 3.59250021,1.44750021 C3.59250021,1.92000051 3.42750021,2.28749991 3.10500001,2.55750031 C2.96999981,2.67000061 2.81250001,2.75250051 2.63249971,2.80500081 C2.45249991,2.85750101 2.23499971,2.88000061 1.98000001,2.88000061 L0.982499804,2.88000061 L0.982499804,4.5 L0,4.5 L0,0 Z M0.982499804,0.832500003 L0.982499804,2.10750011 L1.85999961,2.10750011 C2.12249941,2.10750011 2.30999941,2.06250001 2.42249961,1.97249991 C2.56499951,1.85999971 2.63249961,1.68749961 2.63249961,1.46249971 C2.63249961,1.23749931 2.55000011,1.0649992 2.38499971,0.959999604 C2.26499991,0.877499804 2.06999971,0.839999703 1.79999921,0.839999703 L0.982499804,0.832500003 L0.982499804,0.832500003 Z"/>
    </g>
  </g>
</svg>
