<svg xmlns="http://www.w3.org/2000/svg" width="24" height="24" viewBox="0 0 24 24">
  <g fill="none" fill-rule="evenodd">
    <path fill="#2D327D" d="M22.5,0 L1.5,0 C0.675000003,0 0,0.675000003 0,1.5 L0,22.5 C0,23.3250009 0.675000003,24 1.5,24 L22.5,24 C23.3250009,24 24,23.3250009 24,22.5 L24,1.5 C24,0.675000003 23.3250009,0 22.5,0 Z"/>
    <g fill="#FFF" transform="translate(3 3)">
      <g transform="translate(0 7)">
        <path fill-rule="nonzero" d="M2.28749991,4.17500022 C0.914999704,4.69249922 0,6.00499923 0,7.47500043 C0,9.41749954 1.58250001,11 3.52500011,11 C4.97999952,11 6.28499993,10.1075001 6.81000043,8.75000004 L9.07499984,8.75000004 C9.48750024,8.75000004 9.82499984,8.41250044 9.82499984,8.00000003 L9.82499984,7.06999973 L11.8274994,4.11500072 L12.2399999,4.75250052 C11.4225006,5.42000002 10.9574995,6.41750143 10.9574995,7.47500033 C10.9574995,9.41749954 12.5400001,11 14.4824983,11 C16.4249965,11 18.0074979,9.41749954 18.0074979,7.47500043 C18.0074979,5.53250132 16.4249974,3.94999982 14.4824983,3.94999982 C13.9499971,3.94999982 13.4174978,4.07000062 12.9374982,4.31000042 L12.4199983,3.50750061 L13.0949975,3.50750061 L13.7549973,2.53250021 C13.7924977,2.48000041 13.8149968,2.41250031 13.8149968,2.34500021 C13.8149968,2.15750021 13.6649972,2.00750061 13.4774972,2.00750061 L11.625,2.00750061 L8.32499983,6.88249963 L7.57499983,6.88249963 L5.55000022,3.88250062 L2.51249981,3.88250062 C2.38500021,3.88250062 2.28749991,3.98000042 2.28749991,4.10750002 L2.28749991,4.17500022 L2.28749991,4.17500022 Z M11.8874998,7.47500043 C11.8874998,6.74000173 12.2024995,6.04249963 12.7500001,5.54750062 L14.1299993,7.69249923 C14.2050001,7.81250003 14.3399984,7.87999922 14.4750005,7.87999922 C14.7000009,7.87999922 14.8874998,7.69249923 14.8874998,7.46749883 C14.8874998,7.39249993 14.8650018,7.30999953 14.8199998,7.24250033 L13.4400006,5.09749892 C13.7625008,4.95499992 14.1150017,4.87999922 14.4750004,4.87999922 C15.8999996,4.87999922 17.0625,6.04249963 17.0625,7.46749883 C17.0625,8.89999964 15.8999996,10.0550367 14.4750004,10.0550367 C13.0499993,10.0625 11.8874998,8.90750124 11.8874998,7.47500043 L11.8874998,7.47500043 Z M3.52500011,10.0625 C2.09250021,10.0625 0.937500004,8.89999964 0.937500004,7.47500043 C0.937500004,6.54500013 1.43999961,5.68250092 2.25000001,5.22500042 L2.25000001,8.00000003 C2.25000001,8.41250044 2.58750011,8.75000004 3.00000001,8.75000004 L5.77499962,8.75000004 C5.31749922,9.55999954 4.45499942,10.0625 3.52500011,10.0625 L3.52500011,10.0625 Z"/>
        <path d="M5.81250002 3.50000001L2.25000001 3.50000001 2.25000001 2.75000001C2.25000001 2.58500001 2.38500021 2.44999981 2.55000021 2.44999981L5.96249962 2.44999981C6.12749963 2.44999981 6.26249983 2.58500001 6.26249983 2.75000001 6.26249983 2.81000041 6.23999983 2.87000081 6.21000003 2.92250061L5.81250002 3.50000001 5.81250002 3.50000001zM13.7250005 1.58749961L11.0625 1.58749961 11.0625.912500404 13.7250005.912500404C13.9125005.912500404 14.0625 1.0625 14.0625 1.25 14.0625 1.43750001 13.9125005 1.58749961 13.7250005 1.58749961L13.7250005 1.58749961z"/>
      </g>
      <path fill-rule="nonzero" d="M0,0 L1.81499961,0 C2.12249951,0 2.36250021,0.0225003001 2.53499991,0.0600002003 C2.70750001,0.0975003004 2.87249951,0.165000401 3.00749971,0.262500001 C3.39749961,0.525000002 3.59250021,0.922500104 3.59250021,1.44750021 C3.59250021,1.92000051 3.42750021,2.28749991 3.10500001,2.55750031 C2.96999981,2.67000061 2.81250001,2.75250051 2.63249971,2.80500081 C2.45249991,2.85750101 2.23499971,2.88000061 1.98000001,2.88000061 L0.982499804,2.88000061 L0.982499804,4.5 L0,4.5 L0,0 Z M0.982499804,0.832500003 L0.982499804,2.10750011 L1.85999961,2.10750011 C2.12249941,2.10750011 2.30999941,2.06250001 2.42249961,1.97249991 C2.56499951,1.85999971 2.63249961,1.68749961 2.63249961,1.46249971 C2.63249961,1.23749931 2.55000011,1.0649992 2.38499971,0.959999604 C2.26499991,0.877499804 2.06999971,0.839999703 1.79999921,0.839999703 L0.982499804,0.832500003 L0.982499804,0.832500003 Z"/>
    </g>
  </g>
</svg>
