<svg xmlns="http://www.w3.org/2000/svg" width="24" height="24" viewBox="0 0 24 24">
  <g fill="none" fill-rule="evenodd">
    <path fill="#2D327D" d="M22.5,0 L1.5,0 C0.675000003,0 0,0.675000003 0,1.5 L0,22.5 C0,23.3250009 0.675000003,24 1.5,24 L22.5,24 C23.3250009,24 24,23.3250009 24,22.5 L24,1.5 C24,0.675000003 23.3250009,0 22.5,0 Z"/>
    <g fill="#FFF" transform="translate(3 3)">
      <path fill-rule="nonzero" d="M0,0 L1.81499961,0 C2.12249951,0 2.36250021,0.0225003001 2.53499991,0.0600002003 C2.70750001,0.0975003004 2.87249951,0.165000401 3.00749971,0.262500001 C3.39749961,0.525000002 3.59250021,0.922500104 3.59250021,1.44750021 C3.59250021,1.92000051 3.42750021,2.28749991 3.10500001,2.55750031 C2.96999981,2.67000061 2.81250001,2.75250051 2.63249971,2.80500081 C2.45249991,2.85750101 2.23499971,2.88000061 1.98000001,2.88000061 L0.982499804,2.88000061 L0.982499804,4.5 L0,4.5 L0,0 Z M0.982499804,0.832500003 L0.982499804,2.10750011 L1.85999961,2.10750011 C2.12249941,2.10750011 2.30999941,2.06250001 2.42249961,1.97249991 C2.56499951,1.85999971 2.63249961,1.68749961 2.63249961,1.46249971 C2.63249961,1.23749931 2.55000011,1.0649992 2.38499971,0.959999604 C2.26499991,0.877499804 2.06999971,0.839999703 1.79999921,0.839999703 L0.982499804,0.832500003 L0.982499804,0.832500003 Z"/>
      <g transform="translate(0 8)">
        <path d="M10.9875002.797500602L12.7950002 1.42749981C12.8325006 1.44249921 12.8775007 1.44999981 12.915001 1.44999981 13.0425015 1.44999981 13.1550008 1.3899994 13.2225018 1.2849998L13.6275006.685000402C13.6575013.632500602 13.6800023.580000902 13.6800023.520000401 13.6800023.355000401 13.5450021.2200002 13.3800012.2200002L11.0775023.2200002C10.9125023.2200002 10.7775021.355000401 10.7775021.520000401 10.7849998.639999402 10.8674994.752499602 10.9875002.797500602L10.9875002.797500602zM4.65000012.812500003L7.27499963.812500003 7.27499963.212499601 4.65000012.212499601C4.48500012.212499601 4.34999992.347499801 4.34999992.5124998 4.34999992.677499803 4.48500012.812500003 4.65000012.812500003L4.65000012.812500003zM4.65000012 1.78750041L5.02499962 1.78750041C5.18999962 1.78750041 5.32499982 1.65250021 5.32499982 1.4875002 5.32499982 1.32250021 5.18999962 1.1875 5.02499962 1.1875L4.65000012 1.1875C4.48500012 1.1875 4.34999992 1.32250021 4.34999992 1.4875002 4.34999992 1.65250021 4.48500012 1.78750041 4.65000012 1.78750041L4.65000012 1.78750041z"/>
        <path fill-rule="nonzero" d="M14.3250009,2.64999961 C13.7400018,2.64999961 13.1625005,2.79249951 12.6450006,3.05499931 L11.9250002,1.89999961 L6.07499983,1.89999961 L5.35499952,3.05499931 C4.83750012,2.78499881 4.25999922,2.64999961 3.67500012,2.64999961 C1.64249991,2.64999961 0,4.29249952 0,6.32500083 C0,8.35000043 1.64249991,10 3.67500022,10 C5.69999982,10 7.35000043,8.35000043 7.35000043,6.32500083 C7.35000043,5.16250042 6.80249983,4.06749922 5.86499982,3.37000091 L6.26999953,2.72500041 L8.23499873,5.64999962 C8.09999853,5.82249832 8.02499873,6.03250123 8.02499873,6.25000003 C8.02499873,6.79000093 8.45999914,7.22500043 9,7.22500043 C9.38249974,7.22500043 9.71999944,7.00749973 9.88499934,6.66250043 L10.664999,6.66250043 C10.8374987,8.55250174 12.4274989,10 14.324997,10 C16.3574982,10 18,8.35000043 18,6.32500083 C18,4.29249952 16.3500005,2.64999961 14.3250009,2.64999961 L14.3250009,2.64999961 Z M6.75000003,6.32500083 C6.75000003,8.02000053 5.37000082,9.39999974 3.67500022,9.39999974 C1.97999961,9.39999974 0.599999902,8.02000053 0.599999902,6.32500083 C0.599999902,4.62999922 1.98000001,3.25000001 3.67500022,3.25000001 C4.14750002,3.25000001 4.61250022,3.35499951 5.04000002,3.56499961 L3.42000011,6.16749963 C3.38999991,6.21249963 3.37500001,6.27249913 3.37500001,6.32500083 C3.37500001,6.49000173 3.51000021,6.62500003 3.67500022,6.62500003 C3.77999972,6.62500003 3.87749962,6.57249833 3.92999942,6.48250013 L5.55000022,3.88749982 C6.30750083,4.46500022 6.75000003,5.36500172 6.75000003,6.32500083 L6.75000003,6.32500083 Z M9.27000054,5.31250002 C9.18000034,5.29000092 9.09000114,5.27499962 9.00000004,5.27499962 C8.90999984,5.27499962 8.82000064,5.29000092 8.72999954,5.31250002 L6.84000023,2.50000001 L11.1599989,2.50000001 L9.27000054,5.31250002 L9.27000054,5.31250002 Z M10.6575003,6.06250003 L9.95250134,6.06250003 C9.92250164,5.91250042 9.85500054,5.77000052 9.76500134,5.64999962 L11.7300005,2.72500041 L12.1350003,3.37000091 C11.2725,4.00750062 10.7325001,4.98999982 10.6575003,6.06250003 L10.6575003,6.06250003 Z M12.4499999,3.88749982 L13.8075009,6.06250003 L11.2575006,6.06250003 C11.3325005,5.20000082 11.7674999,4.41250042 12.4499999,3.88749982 L12.4499999,3.88749982 Z M14.3250009,9.39999964 C12.7575008,9.39999964 11.4375,8.22249983 11.2649994,6.66250043 L13.83,6.66250043 C13.9424992,6.82750133 14.1299992,6.92499933 14.3250008,6.92499933 C14.6549988,6.92499933 14.9249993,6.65499883 14.9249993,6.32500083 C14.9249993,5.99500092 14.6549988,5.72500042 14.3250008,5.72500042 C14.3174992,5.72500042 14.3099995,5.72500042 14.3025017,5.72500042 L12.960001,3.56499961 C13.3800011,3.35499961 13.8525009,3.25000001 14.3250027,3.25000001 C16.0200024,3.25000001 17.4000016,4.62999922 17.4000016,6.32500083 C17.4000016,8.02000053 16.0200006,9.39999964 14.3250009,9.39999964 L14.3250009,9.39999964 Z"/>
      </g>
    </g>
  </g>
</svg>
