<svg xmlns="http://www.w3.org/2000/svg" width="24" height="24" viewBox="0 0 24 24">
  <g fill="none" fill-rule="evenodd">
    <path fill="#2D327D" d="M22.5,0 L1.5,0 C0.675000003,0 0,0.675000003 0,1.5 L0,22.5 C0,23.3250009 0.675000003,24 1.5,24 L22.5,24 C23.3250009,24 24,23.3250009 24,22.5 L24,1.5 C24,0.675000003 23.3250009,0 22.5,0 Z"/>
    <g fill="#FFF" transform="translate(2 2)">
      <path fill-rule="nonzero" d="M7.37500003,3.43750001 L8.12500003,4.18750002 L8.87500004,3.43750001 L9.62500004,4.18750002 L10.5625,3.25000001 L9.62500004,2.31250001 L5.33500002,2.31250001 C4.97499992,1.51750021 4.18000032,0.962500104 3.25000001,0.962500104 C1.98999981,0.962500104 0.962500104,1.98999981 0.962500104,3.25000001 C0.962500104,4.51000022 1.98999981,5.53749992 3.25000001,5.53749992 C4.18000032,5.53749992 4.97499992,4.98250052 5.33500002,4.18750002 L6.62500003,4.18750002 L7.37500003,3.43750001 Z M2.12500001,4.00000001 C1.71250011,4.00000001 1.37500001,3.66249992 1.37500001,3.25000001 C1.37500001,2.83750011 1.71250011,2.50000001 2.12500001,2.50000001 C2.53749991,2.50000001 2.87500001,2.83750011 2.87500001,3.25000001 C2.87500001,3.66249992 2.53749991,4.00000001 2.12500001,4.00000001 Z"/>
      <polygon points="19 10.488 19 9.25 10 5.125 1 9.25 1 10.488 10 6.363"/>
      <g transform="translate(2 10)">
        <path d="M9.73999984.945000604L11.3225002 1.50000001C11.3600006 1.51499941 11.3975 1.51499941 11.4274997 1.51499941 11.5399999 1.51499941 11.6374997 1.46249961 11.6975002 1.37250041L12.0499993.847499804C12.08.802499703 12.0950013.750000003 12.0950013.705000803 12.0950013.562500902 11.9750004.442501002 11.8325004.442501002L9.81500054.442501002C9.67250154.442501002 9.55250074.562500902 9.55250074.705000803 9.56000044.810000403 9.63500024.907500304 9.73999984.945000604L9.73999984.945000604zM4.18999962.960000003L6.48500063.960000003 6.48500063.435000401 4.18999962.435000401C4.04750062.435000401 3.92749982.555000301 3.92749982.6975002 3.93500042.840000203 4.04750062.960000003 4.18999962.960000003L4.18999962.960000003zM4.18999962 1.81499961L4.51999952 1.81499961C4.66249852 1.81499961 4.78249932 1.69499971 4.78249932 1.5524998 4.78249932 1.40999991 4.66249852 1.29000001 4.51999952 1.29000001L4.18999962 1.29000001C4.04750062 1.29000001 3.92749982 1.40999991 3.92749982 1.5524998 3.93500042 1.69500061 4.04750062 1.81499961 4.18999962 1.81499961L4.18999962 1.81499961z"/>
        <path fill-rule="nonzero" d="M12.6575013,2.56499961 C12.1475011,2.56499961 11.6450004,2.68500041 11.1875,2.91749961 L10.5575008,1.90499981 L5.44250112,1.90499981 L4.81250102,2.91749951 C4.35500052,2.68499941 3.85250102,2.56499951 3.34250071,2.56499951 C1.56500101,2.56499951 0.1250005,4.00499912 0.1250005,5.78250112 C0.1250005,7.56000143 1.56500101,9.00000004 3.34250071,9.00000004 C5.12000042,9.00000004 6.56000143,7.55999953 6.56000143,5.78250122 C6.56000143,4.76250072 6.08000192,3.81000042 5.26250082,3.20250131 L5.61500082,2.63250071 L7.33250053,5.19000062 C7.21249973,5.34000022 7.15250113,5.52750022 7.15250113,5.71500022 C7.15250113,6.18750003 7.53500173,6.56999973 8.00750063,6.56999973 C8.33749963,6.56999973 8.63749984,6.37500003 8.78000064,6.07500083 L9.46250144,6.07500083 C9.61250104,7.73250013 11.0000008,8.99250034 12.6650009,8.99250034 C14.4425011,8.99250034 15.8824997,7.55249793 15.8824997,5.77499962 C15.8750001,4.00499922 14.4349996,2.56499961 12.6575013,2.56499961 L12.6575013,2.56499961 Z M6.02750022,5.78250122 C6.02750022,7.26749993 4.81999972,8.47500044 3.33499911,8.47500044 C1.84999851,8.47500044 0.642499002,7.26749993 0.642499002,5.78250122 C0.642499002,4.29750062 1.84999901,3.09000111 3.33499911,3.09000111 C3.74749902,3.09000111 4.15249832,3.18750091 4.52749832,3.36750031 L3.10999921,5.64000132 C3.08749871,5.68500142 3.07249931,5.73000152 3.07249931,5.78250122 C3.07249931,5.92499922 3.19249971,6.04500013 3.33499911,6.04500013 C3.42499881,6.04500013 3.50749921,6.00000002 3.55999901,5.91749962 L4.97749902,3.64499962 C5.64500052,4.15499882 6.02750022,4.95000082 6.02750022,5.78250122 L6.02750022,5.78250122 Z M8.23250013,4.89749912 C8.15750033,4.87500002 8.07499983,4.86750032 8.00000003,4.86750032 C7.91749953,4.86750032 7.84249973,4.87500002 7.76749993,4.89749912 L6.10999872,2.43749911 L9.88999844,2.43749911 L8.23250013,4.89749912 L8.23250013,4.89749912 Z M9.45499994,5.55750082 L8.84000014,5.55750082 C8.81749914,5.42250062 8.75749964,5.30250162 8.67500014,5.19750212 L10.3924998,2.64000131 L10.7449988,3.21000101 C9.98750024,3.75750062 9.52250004,4.62000082 9.45499994,5.55750082 L9.45499994,5.55750082 Z M11.0225,3.65250022 L12.2075005,5.55750092 L9.98000044,5.55750092 C10.04,4.79999922 10.4225006,4.11000062 11.0225,3.65250022 L11.0225,3.65250022 Z M12.6575013,8.47500044 C11.2849998,8.47500044 10.130001,7.44000063 9.98000054,6.08250053 L12.2225019,6.08250053 C12.3199998,6.22500043 12.4850008,6.31500063 12.6575014,6.31500063 C12.9500009,6.31500063 13.182501,6.08250053 13.182501,5.79000102 C13.182501,5.49750152 12.9500009,5.26500142 12.6575014,5.26500142 C12.6499998,5.26500142 12.6425001,5.26500142 12.6425001,5.26500142 L11.4650002,3.37500001 C11.8324996,3.19500061 12.245001,3.09749981 12.6575014,3.09749981 C14.1425001,3.09749981 15.3500006,4.30500032 15.3500006,5.79000092 C15.3500006,7.26749993 14.1425,8.47500044 12.6575013,8.47500044 L12.6575013,8.47500044 Z"/>
      </g>
    </g>
  </g>
</svg>
