<svg xmlns="http://www.w3.org/2000/svg" width="24" height="24" viewBox="0 0 24 24">
  <g fill="none" fill-rule="evenodd">
    <path fill="#2D327D" d="M22.5,0 L1.5,0 C0.675000003,0 0,0.675000003 0,1.5 L0,22.5 C0,23.3250009 0.675000003,24 1.5,24 L22.5,24 C23.3250009,24 24,23.3250009 24,22.5 L24,1.5 C24,0.675000003 23.3250009,0 22.5,0 Z"/>
    <g fill="#FFF" transform="translate(2 2)">
      <path fill-rule="nonzero" d="M7.37500003,3.43750001 L8.12500003,4.18750002 L8.87500004,3.43750001 L9.62500004,4.18750002 L10.5625,3.25000001 L9.62500004,2.31250001 L5.33500002,2.31250001 C4.97499992,1.51750021 4.18000032,0.962500104 3.25000001,0.962500104 C1.98999981,0.962500104 0.962500104,1.98999981 0.962500104,3.25000001 C0.962500104,4.51000022 1.98999981,5.53749992 3.25000001,5.53749992 C4.18000032,5.53749992 4.97499992,4.98250052 5.33500002,4.18750002 L6.62500003,4.18750002 L7.37500003,3.43750001 Z M2.12500001,4.00000001 C1.71250011,4.00000001 1.37500001,3.66249992 1.37500001,3.25000001 C1.37500001,2.83750011 1.71250011,2.50000001 2.12500001,2.50000001 C2.53749991,2.50000001 2.87500001,2.83750011 2.87500001,3.25000001 C2.87500001,3.66249992 2.53749991,4.00000001 2.12500001,4.00000001 Z"/>
      <polygon points="19 10.488 19 9.25 10 5.125 1 9.25 1 10.488 10 6.363"/>
      <g transform="translate(2 10)">
        <path d="M6.26000023.945000604L4.67749982 1.50000001C4.63999942 1.51499941 4.60250002 1.51499941 4.57250022 1.51499941 4.46000002 1.51499941 4.36250022 1.46249961 4.30249972 1.37250041L3.94999972.847499804C3.92000062.802499803 3.90499972.750000003 3.90499972.705000903 3.90499972.562501002 4.02499962.442501102 4.16749952.442501102L6.18499943.442501102C6.32749843.442501102 6.44749923.562501002 6.44749923.705000903 6.43999963.810000403 6.36499983.907500304 6.26000023.945000604L6.26000023.945000604zM11.8100004.960000003L9.51499944.960000003 9.51499944.435000401 11.8100004.435000401C11.9524994.435000401 12.0725003.555000301 12.0725003.6975002 12.0650006.840000203 11.9524994.960000003 11.8100004.960000003L11.8100004.960000003zM11.8100004 1.81499961L11.4800005 1.81499961C11.3375015 1.81499961 11.2175007 1.69499971 11.2175007 1.5524998 11.2175007 1.40999991 11.3375015 1.29000001 11.4800005 1.29000001L11.8100004 1.29000001C11.9524994 1.29000001 12.0725003 1.40999991 12.0725003 1.5524998 12.0650006 1.69500061 11.9524994 1.81499961 11.8100004 1.81499961L11.8100004 1.81499961z"/>
        <path fill-rule="nonzero" d="M3.34249971,2.56499961 C1.56499951,2.56499961 0.1249995,4.00499922 0.1249995,5.78250122 C0.1249995,7.56000143 1.56499961,9.00000004 3.34249971,9.00000004 C5.00749972,9.00000004 6.39499953,7.73250013 6.54499913,6.08250053 L7.22750003,6.08250053 C7.36999903,6.38249973 7.66999923,6.57750133 8.00000003,6.57750133 C8.47249983,6.57750133 8.85499954,6.19499973 8.85499954,5.72250182 C8.85499954,5.52750022 8.78750034,5.34750182 8.67500014,5.19750222 L10.3924998,2.64000141 L10.7449988,3.21000111 C9.92749964,3.81750212 9.44749914,4.77750032 9.44749914,5.79000102 C9.44749914,7.56750123 10.8874987,9.00749984 12.6649989,9.00749984 C14.442499,9.00749984 15.8824977,7.56749933 15.8824977,5.79000102 C15.8824977,4.01250082 14.4424972,2.57250131 12.6649989,2.57250131 C12.1549987,2.57250131 11.652498,2.69250211 11.1949976,2.92500131 L10.5649984,1.91250151 L5.44999892,1.91250151 L4.81999972,2.92500131 C4.35499952,2.69249921 3.85250002,2.56499961 3.34249971,2.56499961 L3.34249971,2.56499961 Z M9.97249984,5.78250122 C9.97249984,4.94249912 10.3625001,4.15500072 11.0225,3.64500042 L12.4400006,5.91749952 C12.4850007,5.99250032 12.5750008,6.04500003 12.665001,6.04500003 C12.8075009,6.04500003 12.9275018,5.92499922 12.9275018,5.78250112 C12.9275018,5.72999942 12.9125005,5.68500132 12.8900014,5.64000122 L11.4650002,3.37500001 C11.8324996,3.19500061 12.245001,3.09749981 12.6575014,3.09749981 C14.1425001,3.09749981 15.3500006,4.30500032 15.3500006,5.79000092 C15.3500006,7.27499963 14.1425001,8.48250014 12.6575014,8.48250014 C11.1725006,8.47500044 9.97249984,7.26749993 9.97249984,5.78250122 L9.97249984,5.78250122 Z M7.76749993,4.89749912 L6.10999872,2.43749911 L9.88999844,2.43749911 L8.23249813,4.89749912 C8.15749833,4.87500002 8.07499783,4.86750032 7.99999803,4.86750032 C7.91749953,4.86750032 7.84249973,4.87500002 7.76749993,4.89749912 L7.76749993,4.89749912 Z M6.54500013,5.55750082 C6.47750093,4.62000082 6.00500112,3.76500132 5.25500112,3.20250131 L5.60750012,2.63250071 L7.32499983,5.19000062 C7.24249933,5.29500012 7.18250083,5.42250072 7.15999983,5.54999932 L6.54500003,5.54999932 L6.54500003,5.55750082 L6.54500013,5.55750082 Z M4.97750002,3.65250022 C5.57749942,4.11000062 5.96000002,4.80750082 6.01999952,5.55750082 L3.79249952,5.55750082 L4.97750002,3.65250022 L4.97750002,3.65250022 Z M3.34249971,8.47500044 C1.85749911,8.47500044 0.649999602,7.26749993 0.649999602,5.78250122 C0.649999602,4.29750062 1.85749911,3.09000111 3.34249971,3.09000111 C3.75499962,3.09000111 4.16749952,3.18750091 4.53499892,3.36750031 L3.35749911,5.25749972 C3.34999891,5.25749972 3.34999891,5.25749972 3.34249971,5.25749972 C3.05000021,5.25749972 2.81749961,5.49000172 2.81749961,5.78250122 C2.81749961,6.07500073 3.05000021,6.30750083 3.34249971,6.30750083 C3.51499981,6.30750083 3.67999931,6.22500033 3.77749962,6.07500073 L6.01999942,6.07500073 C5.86250022,7.44000053 4.71500022,8.47500044 3.34249971,8.47500044 L3.34249971,8.47500044 Z"/>
      </g>
    </g>
  </g>
</svg>
