<svg xmlns="http://www.w3.org/2000/svg" width="24" height="24" viewBox="0 0 24 24">
  <g fill="none" fill-rule="evenodd">
    <path fill="#2D327D" d="M22.5,0 L1.5,0 C0.675000003,0 0,0.675000003 0,1.5 L0,22.5 C0,23.3250009 0.675000003,24 1.5,24 L22.5,24 C23.3250009,24 24,23.3250009 24,22.5 L24,1.5 C24,0.675000003 23.3250009,0 22.5,0 Z"/>
    <g fill="#FFF" transform="translate(3 3)">
      <path d="M7.01249983 8.79750064L5.20499992 9.42749984C5.16749952 9.44249924 5.12249942 9.44999984 5.08499912 9.44999984 4.95749952 9.44999984 4.84499932 9.38999944 4.77749872 9.28499984L4.37249902 8.68500044C4.34249972 8.63250064 4.31999922 8.58000094 4.31999922 8.52000044 4.31999922 8.35500043 4.45499942 8.22000023 4.61999942 8.22000023L6.92249873 8.22000023C7.08749873 8.22000023 7.22249893 8.35500043 7.22249893 8.52000044 7.21500023 8.63999944 7.13250063 8.75249964 7.01249983 8.79750064L7.01249983 8.79750064zM13.3500005 8.81250004L10.7250004 8.81250004 10.7250004 8.21249963 13.3500005 8.21249963C13.5150014 8.21249963 13.6499997 8.34749983 13.6499997 8.51249983 13.6499997 8.67749984 13.5150014 8.81250004 13.3500005 8.81250004L13.3500005 8.81250004zM13.3500005 9.78750044L12.9750005 9.78750044C12.8100005 9.78750044 12.6750003 9.65250024 12.6750003 9.48750024 12.6750003 9.32250024 12.8100005 9.18750004 12.9750005 9.18750004L13.3500005 9.18750004C13.5150014 9.18750004 13.6499997 9.32250024 13.6499997 9.48750024 13.6499997 9.65250024 13.5150014 9.78750044 13.3500005 9.78750044L13.3500005 9.78750044z"/>
      <path fill-rule="nonzero" d="M3.67500022 10.6499996C1.64249991 10.6499996 0 12.2924996 0 14.3250009 0 16.3500005 1.65000011 18.0000001 3.67500022 18.0000001 5.57250022 18.0000001 7.16250043 16.5525018 7.33500003 14.6625005L8.11499973 14.6625005C8.27250003 15.0074998 8.61749934 15.2250005 9 15.2250005 9.53999994 15.2250005 9.97500034 14.790001 9.97500034 14.2500001 9.97500034 14.0325013 9.89999954 13.8224984 9.76499934 13.6499997L11.7299995 10.7250004 12.1349993 11.3700009C11.1974992 12.0675012 10.6499986 13.1550008 10.6499986 14.3250009 10.6499987 16.3500005 12.2924987 18.0000001 14.3250009 18.0000001 16.3575002 18.0000001 18 16.3500005 18 14.3250009 18 12.2924997 16.3575002 10.6499997 14.3250009 10.6499997 13.7400018 10.6499997 13.1625005 10.7924996 12.6450006 11.0549994L11.9250002 9.89999974 6.07499983 9.89999974 5.35499952 11.0549994C4.83750012 10.7849998 4.26000022 10.6499996 3.67500022 10.6499996L3.67500022 10.6499996zM11.25 14.3250009C11.25 13.3650018 11.6924992 12.4650003 12.4499999 11.8874998L14.0699998 14.4825002C14.1225015 14.5725022 14.2200013 14.6250001 14.3250009 14.6250001 14.4900018 14.6250001 14.6250001 14.4900018 14.6250001 14.3250009 14.6250001 14.2650014 14.6099988 14.2124998 14.58 14.1674997L12.9599992 11.5649996C13.3875009 11.3549996 13.8524991 11.25 14.3250009 11.25 16.0200006 11.25 17.3999998 12.6299993 17.3999998 14.3250009 17.3999998 16.0200006 16.0200006 17.3999998 14.3250009 17.3999998 12.6299993 17.3999998 11.25 16.0200006 11.25 14.3250009L11.25 14.3250009zM8.72999954 13.3125001L6.84000023 10.5 11.1599989 10.5 9.26999954 13.3125001C9.17999934 13.290001 9.09000014 13.2749997 8.99999904 13.2749997 8.90999984 13.2749997 8.82000064 13.290001 8.72999954 13.3125001L8.72999954 13.3125001zM7.34249973 14.0625001C7.26749993 12.9975005 6.72749993 12.0149995 5.86499972 11.3700008L6.26999943 10.7250003 8.23499863 13.6499996C8.13749883 13.7700004 8.07749833 13.9125004 8.04749863 14.0625001L7.34249973 14.0625001 7.34249973 14.0625001zM5.55000022 11.8874998C6.23250013 12.4125005 6.66749963 13.2000009 6.74249943 14.0625001L4.19249962 14.0625001 5.55000022 11.8874998 5.55000022 11.8874998zM3.67500022 17.3999997C1.98000001 17.3999997.599999903 16.0200005.599999903 14.3250008.599999903 12.6299993 1.98000001 11.25 3.67500022 11.25 4.14750002 11.25 4.61250022 11.3549995 5.04000002 11.5649996L3.69750032 13.7250005C3.68999972 13.7250005 3.68250042 13.7250005 3.67500032 13.7250005 3.34499991 13.7250005 3.07499991 13.995001 3.07499991 14.3250009 3.07499991 14.6549989 3.34499991 14.9249994 3.67500032 14.9249994 3.87000052 14.9249994 4.05750052 14.8275015 4.17000072 14.6625005L6.73500083 14.6625005C6.56250003 16.2224999 5.24249942 17.3999997 3.67500022 17.3999997L3.67500022 17.3999997zM3.37500001 0C1.50749971 0 0 1.50749971 0 3.37500001 0 5.24250032 1.50749971 6.75000003 3.37500001 6.75000003 5.24250032 6.75000003 6.75000003 5.24249942 6.75000003 3.37500001 6.75000003 1.50750061 5.24249942 0 3.37500001 0L3.37500001 0zM4.86749942 2.99250031C4.48499922 2.99250031 4.16999922 2.67750021 4.16999922 2.29500011 4.16999922 2.25749971 4.16999922 2.22750001 4.17749982 2.18999961 3.86999942 2.36999991 3.66000032 2.81250001 3.66000032 3.27749971L3.66000032 4.97999962 4.09500022 4.97999962C4.17000052 4.97999962 4.23750012 5.04000002 4.23750012 5.12249952 4.23750012 5.19749932 4.17749972 5.26499852 4.09500022 5.26499852L3.66000032 5.26499852 2.38500021 5.26499852 1.94250011 5.26499852C1.86750031 5.26499852 1.80000021 5.20499812 1.80000021 5.12249952 1.80000021 5.04749872 1.86000011 4.97999962 1.94250011 4.97999962L2.38500021 4.97999962 2.38500021 1.91999911 1.94250011 1.91999911C1.86750031 1.91999911 1.80000021 1.85999921 1.80000021 1.77749921 1.80000021 1.70249941 1.86000011 1.63499931 1.94250011 1.63499931L3.66749952 1.63499931 3.66749952 2.33999921C3.86999942 2.04749921 4.25999932 1.58249951 4.87500002 1.58249951 5.25750062 1.58249951 5.57250022 1.89749911 5.57250022 2.27999971 5.56499962 2.67749981 5.25000002 2.99250031 4.86749942 2.99250031L4.86749942 2.99250031z"/>
    </g>
  </g>
</svg>
