<svg xmlns="http://www.w3.org/2000/svg" width="24" height="24" viewBox="0 0 24 24">
  <g fill="none" fill-rule="evenodd">
    <path fill="#2D327D" d="M22.5,0 L1.5,0 C0.675000003,0 0,0.675000003 0,1.5 L0,22.5 C0,23.3250009 0.675000003,24 1.5,24 L22.5,24 C23.3250009,24 24,23.3250009 24,22.5 L24,1.5 C24,0.675000003 23.3250009,0 22.5,0 Z"/>
    <g fill="#FFF" transform="translate(3 3)">
      <g transform="translate(0 8)">
        <path d="M10.9875002.797500602L12.7950002 1.42749981C12.8325006 1.44249921 12.8775007 1.44999981 12.915001 1.44999981 13.0425015 1.44999981 13.1550008 1.3899994 13.2225018 1.2849998L13.6275006.685000402C13.6575013.632500602 13.6800023.580000902 13.6800023.520000401 13.6800023.355000401 13.5450021.2200002 13.3800012.2200002L11.0775023.2200002C10.9125023.2200002 10.7775021.355000401 10.7775021.520000401 10.7849998.639999402 10.8674994.752499602 10.9875002.797500602L10.9875002.797500602zM4.65000012.812500003L7.27499963.812500003 7.27499963.212499601 4.65000012.212499601C4.48500012.212499601 4.34999992.347499801 4.34999992.5124998 4.34999992.677499803 4.48500012.812500003 4.65000012.812500003L4.65000012.812500003zM4.65000012 1.78750041L5.02499962 1.78750041C5.18999962 1.78750041 5.32499982 1.65250021 5.32499982 1.4875002 5.32499982 1.32250021 5.18999962 1.1875 5.02499962 1.1875L4.65000012 1.1875C4.48500012 1.1875 4.34999992 1.32250021 4.34999992 1.4875002 4.34999992 1.65250021 4.48500012 1.78750041 4.65000012 1.78750041L4.65000012 1.78750041z"/>
        <path fill-rule="nonzero" d="M14.3250009,2.64999961 C13.7400018,2.64999961 13.1625005,2.79249951 12.6450006,3.05499931 L11.9250002,1.89999961 L6.07499983,1.89999961 L5.35499952,3.05499931 C4.83750012,2.78499881 4.25999922,2.64999961 3.67500012,2.64999961 C1.64249991,2.64999961 0,4.29249952 0,6.32500083 C0,8.35000043 1.64249991,10 3.67500022,10 C5.69999982,10 7.35000043,8.35000043 7.35000043,6.32500083 C7.35000043,5.16250042 6.80249983,4.06749922 5.86499982,3.37000091 L6.26999953,2.72500041 L8.23499873,5.64999962 C8.09999853,5.82249832 8.02499873,6.03250123 8.02499873,6.25000003 C8.02499873,6.79000093 8.45999914,7.22500043 9,7.22500043 C9.38249974,7.22500043 9.71999944,7.00749973 9.88499934,6.66250043 L10.664999,6.66250043 C10.8374987,8.55250174 12.4274989,10 14.324997,10 C16.3574982,10 18,8.35000043 18,6.32500083 C18,4.29249952 16.3500005,2.64999961 14.3250009,2.64999961 L14.3250009,2.64999961 Z M6.75000003,6.32500083 C6.75000003,8.02000053 5.37000082,9.39999974 3.67500022,9.39999974 C1.97999961,9.39999974 0.599999902,8.02000053 0.599999902,6.32500083 C0.599999902,4.62999922 1.98000001,3.25000001 3.67500022,3.25000001 C4.14750002,3.25000001 4.61250022,3.35499951 5.04000002,3.56499961 L3.42000011,6.16749963 C3.38999991,6.21249963 3.37500001,6.27249913 3.37500001,6.32500083 C3.37500001,6.49000173 3.51000021,6.62500003 3.67500022,6.62500003 C3.77999972,6.62500003 3.87749962,6.57249833 3.92999942,6.48250013 L5.55000022,3.88749982 C6.30750083,4.46500022 6.75000003,5.36500172 6.75000003,6.32500083 L6.75000003,6.32500083 Z M9.27000054,5.31250002 C9.18000034,5.29000092 9.09000114,5.27499962 9.00000004,5.27499962 C8.90999984,5.27499962 8.82000064,5.29000092 8.72999954,5.31250002 L6.84000023,2.50000001 L11.1599989,2.50000001 L9.27000054,5.31250002 L9.27000054,5.31250002 Z M10.6575003,6.06250003 L9.95250134,6.06250003 C9.92250164,5.91250042 9.85500054,5.77000052 9.76500134,5.64999962 L11.7300005,2.72500041 L12.1350003,3.37000091 C11.2725,4.00750062 10.7325001,4.98999982 10.6575003,6.06250003 L10.6575003,6.06250003 Z M12.4499999,3.88749982 L13.8075009,6.06250003 L11.2575006,6.06250003 C11.3325005,5.20000082 11.7674999,4.41250042 12.4499999,3.88749982 L12.4499999,3.88749982 Z M14.3250009,9.39999964 C12.7575008,9.39999964 11.4375,8.22249983 11.2649994,6.66250043 L13.83,6.66250043 C13.9424992,6.82750133 14.1299992,6.92499933 14.3250008,6.92499933 C14.6549988,6.92499933 14.9249993,6.65499883 14.9249993,6.32500083 C14.9249993,5.99500092 14.6549988,5.72500042 14.3250008,5.72500042 C14.3174992,5.72500042 14.3099995,5.72500042 14.3025017,5.72500042 L12.960001,3.56499961 C13.3800011,3.35499961 13.8525009,3.25000001 14.3250027,3.25000001 C16.0200024,3.25000001 17.4000016,4.62999922 17.4000016,6.32500083 C17.4000016,8.02000053 16.0200006,9.39999964 14.3250009,9.39999964 L14.3250009,9.39999964 Z"/>
      </g>
      <path fill-rule="nonzero" d="M3.37500001,0 C1.50749971,0 0,1.50749971 0,3.37500001 C0,5.24250032 1.50749971,6.75000003 3.37500001,6.75000003 C5.24250032,6.75000003 6.75000003,5.24249942 6.75000003,3.37500001 C6.75000003,1.50750061 5.24249942,0 3.37500001,0 L3.37500001,0 Z M4.86749942,2.99250031 C4.48499922,2.99250031 4.16999922,2.67750021 4.16999922,2.29500011 C4.16999922,2.25749971 4.16999922,2.22750001 4.17749982,2.18999961 C3.86999942,2.36999991 3.66000032,2.81250001 3.66000032,3.27749971 L3.66000032,4.97999962 L4.09500022,4.97999962 C4.17000052,4.97999962 4.23750012,5.04000002 4.23750012,5.12249952 C4.23750012,5.19749932 4.17749972,5.26499852 4.09500022,5.26499852 L3.66000032,5.26499852 L2.38500021,5.26499852 L1.94250011,5.26499852 C1.86750031,5.26499852 1.80000021,5.20499812 1.80000021,5.12249952 C1.80000021,5.04749872 1.86000011,4.97999962 1.94250011,4.97999962 L2.38500021,4.97999962 L2.38500021,1.91999911 L1.94250011,1.91999911 C1.86750031,1.91999911 1.80000021,1.85999921 1.80000021,1.77749921 C1.80000021,1.70249941 1.86000011,1.63499931 1.94250011,1.63499931 L3.66749952,1.63499931 L3.66749952,2.33999921 C3.86999942,2.04749921 4.25999932,1.58249951 4.87500002,1.58249951 C5.25750062,1.58249951 5.57250022,1.89749911 5.57250022,2.27999971 C5.56499962,2.67749981 5.25000002,2.99250031 4.86749942,2.99250031 L4.86749942,2.99250031 Z"/>
    </g>
  </g>
</svg>
