<svg xmlns="http://www.w3.org/2000/svg" width="24" height="24" viewBox="0 0 24 24">
  <g fill="none" fill-rule="evenodd">
    <path fill="#9B2423" d="M22.5,0 L1.5,0 C0.675000003,0 0,0.675000003 0,1.5 L0,22.5 C0,23.3250009 0.675000003,24 1.5,24 L22.5,24 C23.3250009,24 24,23.3250009 24,22.5 L24,1.5 C24,0.675000003 23.3250009,0 22.5,0 Z"/>
    <g fill="#FFF" transform="translate(3 3)">
      <path fill-rule="nonzero" d="M6.28499983,3.54000001 L6.28499983,2.17500021 L6.91500003,2.15249971 L7.54499923,1.94249971 L7.54499923,1.0574999 L6.93749903,0.802499803 L6.02249913,0.825000003 L6.02249913,0 L4.24499942,0 L4.24499942,0.652499703 L3.32999941,0.652499703 L1.24499941,2.50499971 C1.24499941,2.50499971 1.0124993,2.66999921 0.892499404,3.58499961 C0.772499503,4.5 0.892499404,4.96499972 0.892499404,4.96499972 L1.64249941,4.94249972 L1.68749951,3.79499922 L2.62499951,2.83499921 L3.93750002,2.32499891 L3.93750002,3.53249891 C3.92250012,3.53249891 3.90750032,3.53249891 3.89249942,3.53249891 C2.97750001,3.55499891 2.10749911,4.25999932 2.10749911,5.38499932 L2.10749911,18 L8.15254765,18 L8.15254765,5.39249992 C8.15999983,4.56749962 7.31250003,3.54000001 6.28499983,3.54000001 Z M7.47750003,9.56250004 L2.79000001,9.56250004 L2.79000001,6.77250003 L7.47750003,6.77250003 L7.47750003,9.56250004 Z"/>
      <path d="M17.1000005 9.08250054L17.1000005 6.79500013C17.1000005 6.79500013 16.5825006 6.66750053 16.0424997 5.97750092 15.5924989 5.40750032 14.932501 3.55500081 14.932501 3.55500081 14.932501 3.55500081 14.3549997 5.46750072 15.120001 6.93000033 15.9825002 8.59500034 17.1000005 9.08250054 17.1000005 9.08250054zM12.6075002 6.11250023C12.8249999 6.99750043 13.2525007 8.57999994 14.1900007 9.41250044 15.6450006 10.71 17.1300012 10.1025 17.1300012 10.1025 17.1300012 10.1025 16.0125028 9.70500004 15.3600007 8.58749974 14.7075005 7.47000033 14.3250028 5.94750032 13.5450002 5.25750072 12.4650012 4.30500082 11.6100006 4.65750032 11.6100006 4.65750032 11.6100006 4.65750032 12.3600007 5.09249972 12.6075002 6.11250023z"/>
      <path d="M12.2475005 8.01749993C12.2475005 8.01749993 11.7600002 9.73499874 13.3050004 11.4899997 15.052498 13.4775009 17.1075002 13.6124993 17.1075002 13.6124993L17.1075002 11.3249998C17.1075002 11.3249998 15.7574998 11.2049999 14.4975015 10.3500004 12.8024999 9.20249944 12.2475005 8.01749993 12.2475005 8.01749993zM14.6250001 15.352501C16.3875009 15.5925027 17.1000005 14.6700002 17.1000005 14.6700002 17.1000005 14.6700002 16.3050004 14.5950013 15.2549993 13.9350015 14.4974996 13.455002 13.4399988 11.8950014 12.2250005 11.8950014 10.8225002 11.8950014 10.5825005 12.4350015 10.5825005 12.4350015 10.5825005 12.4350015 11.2350007 12.5625011 11.8425007 13.0200025 12.7200004 13.6800004 13.1774999 15.1499997 14.6250001 15.352501z"/>
      <path d="M14.7974988,15.9750005 C13.5599996,15.8624994 12.1499988,14.745001 12.1499988,14.745001 C12.1499988,14.745001 12.1574994,15.8624994 13.1099988,16.9350015 C14.0625001,18.0074998 15.2324983,17.9925023 15.614998,18.000002 C15.9674989,18.0075036 17.0999986,17.9775029 17.0999986,17.9775029 L17.0774995,15.7875024 C17.0774995,15.7875024 16.0275003,16.0874997 14.7974988,15.9750005 Z"/>
    </g>
  </g>
</svg>
