<?xml version="1.0" encoding="utf-8"?>
<!-- Generator: Adobe Illustrator 24.2.0, SVG Export Plug-In . SVG Version: 6.00 Build 0)  -->
<svg version="1.0" id="Ebene_1" xmlns="http://www.w3.org/2000/svg" xmlns:xlink="http://www.w3.org/1999/xlink" x="0px" y="0px"
	 viewBox="0 0 400 400" enable-background="new 0 0 400 400" xml:space="preserve">
<polygon id="background-blue" fill="#2D327D" points="0,0 400,0 400,400 0,400 0,0 "/>
<g id="content">
	<path id="frameWhite" fill="#FFFFFF" d="M340,40c11,0,20,9,20,20v280c0,11.001-9,20.001-20,20.001H60c-11,0-20-9-20-20.001V60
		c0-11,9-20,20-20H340 M340,35H60c-13.785,0-25,11.215-25,25v280c0,13.785,11.215,25,25,25h280c13.785,0,25-11.215,25-25V60
		C365,46.215,353.785,35,340,35L340,35z"/>
	<path fill="#FFFFFF" d="M83.837,291.499c-2.761,0-5-2.241-5-4.999c0-0.238,0.017-0.474,0.05-0.708l0,0l4.258-29.809l51.856,0.032
		v35.484H83.837L83.837,291.499z"/>
	<path fill="#FFFFFF" d="M204.876,149.247l115.125,0.001v-9.25h-93.999l29.5-20l-55.5-31.501l-55.171,31.501h-0.331l29.501,20
		h-61.276l0,0c-7.465,0-13.794,5.488-14.85,12.879l-13.373,93.621h235.5V197H204.876l0,0c-2.691,0-4.874-2.185-4.874-4.875
		c0-2.692,2.184-4.877,4.874-4.877h115.125v-9.25H204.876l0,0c-2.691,0-4.874-2.184-4.874-4.875c0-2.691,2.184-4.875,4.874-4.875
		h115.125v-9.25H204.876c-2.691,0-4.874-2.182-4.874-4.875C200.002,151.433,202.186,149.247,204.876,149.247L204.876,149.247z
		 M138.002,191.999c0,2.76-2.241,5.001-5.001,5.001h-26.067c-2.761,0-5.001-2.241-5.001-5.001c0-0.238,0.017-0.474,0.05-0.708l0,0
		l5.394-37.75c0.351-2.461,2.461-4.293,4.95-4.293h20.674c2.76,0,5.001,2.241,5.001,4.999V191.999L138.002,191.999z
		 M190.931,139.998l-28.329-19.206l37.414-21.361l37.503,21.284l-28.446,19.284H190.931L190.931,139.998z"/>
	<path fill="#FFFFFF" d="M256.115,280.276c0-14.075-11.424-25.499-25.501-25.499c-14.073,0-25.497,11.424-25.497,25.499
		c0,14.079,11.424,25.501,25.497,25.501C244.691,305.777,256.115,294.355,256.115,280.276L256.115,280.276z"/>
	<path fill="#FFFFFF" d="M195.999,280.276c0-14.075-11.424-25.499-25.501-25.499c-14.075,0-25.499,11.424-25.499,25.499
		c0,14.079,11.423,25.501,25.499,25.501C184.574,305.777,195.999,294.355,195.999,280.276L195.999,280.276z"/>
	<polygon fill="#FFFFFF" points="80,80 80,85 320,85 320,80 80,80 	"/>
	<polygon fill="#FFFFFF" points="320.001,320 320.001,310.5 80.001,310.5 80.001,320 320.001,320 	"/>
	<polygon fill="#FFFFFF" points="320,257.501 320,256 265,256 265,291.5 320,291.5 320,257.501 	"/>
</g>
</svg>
