<?xml version="1.0" encoding="utf-8"?>
<!-- Generator: Adobe Illustrator 24.2.0, SVG Export Plug-In . SVG Version: 6.00 Build 0)  -->
<svg version="1.0" id="Ebene_1" xmlns="http://www.w3.org/2000/svg" xmlns:xlink="http://www.w3.org/1999/xlink" x="0px" y="0px"
	 viewBox="0 0 400 400" enable-background="new 0 0 400 400" xml:space="preserve">
<polygon id="background-blue" fill="#2D327D" points="0,0 400,0 400,400 0,400 0,0 "/>
<g id="content">
	<path id="frameWhite" fill="#FFFFFF" d="M340,40c11,0,20,9,20,20v280c0,11.001-9,20.001-20,20.001H60c-11,0-20-9-20-20.001V60
		c0-11,9-20,20-20H340 M340,35H60c-13.785,0-25,11.215-25,25v280c0,13.785,11.215,25,25,25h280c13.785,0,25-11.215,25-25V60
		C365,46.215,353.785,35,340,35L340,35z"/>
	<path fill="#FFFFFF" d="M316.152,291.499c2.762,0,5-2.241,5-4.999c0-0.238-0.017-0.474-0.05-0.708l0,0l-4.258-29.809l-51.855,0
		v35.517H316.152L316.152,291.499z"/>
	<path fill="#FFFFFF" d="M195.114,149.247l-115.125,0.001v-9.25h93.999l-29.501-20l55.501-31.501l55.169,31.501h0.331l-29.501,20
		h61.276l0,0c7.466,0,13.794,5.488,14.851,12.879l13.374,93.621H79.989V197h115.125l0,0c2.691,0,4.875-2.185,4.875-4.875
		c0-2.692-2.184-4.877-4.875-4.877H79.989v-9.25h115.125l0,0c2.691,0,4.875-2.184,4.875-4.875c0-2.691-2.184-4.875-4.875-4.875
		H79.989v-9.25h115.125c2.691,0,4.875-2.182,4.875-4.875C199.989,151.433,197.805,149.247,195.114,149.247L195.114,149.247z
		 M261.989,191.999c0,2.76,2.241,5.001,5,5.001h26.068c2.761,0,5.001-2.241,5.001-5.001c0-0.238-0.018-0.474-0.05-0.708l0,0
		l-5.394-37.75c-0.351-2.461-2.461-4.293-4.95-4.293h-20.675c-2.759,0-5,2.241-5,4.999V191.999L261.989,191.999z M209.06,139.998
		l28.329-19.206l-37.414-21.361l-37.503,21.284l28.446,19.284H209.06L209.06,139.998z"/>
	<path fill="#FFFFFF" d="M143.875,280.276c0-14.075,11.424-25.499,25.501-25.499c14.073,0,25.497,11.424,25.497,25.499
		c0,14.079-11.424,25.501-25.497,25.501C155.299,305.777,143.875,294.355,143.875,280.276L143.875,280.276z"/>
	<path fill="#FFFFFF" d="M203.992,280.276c0-14.075,11.424-25.499,25.501-25.499c14.075,0,25.499,11.424,25.499,25.499
		c0,14.079-11.424,25.501-25.499,25.501C215.415,305.777,203.992,294.355,203.992,280.276L203.992,280.276z"/>
	<polygon fill="#FFFFFF" points="320,80 320,85 80,85 80,80 320,80 	"/>
	<polygon fill="#FFFFFF" points="80,320 80,310.5 320,310.5 320,320 80,320 	"/>
	<polygon fill="#FFFFFF" points="80,257.501 80,256 135,256 135,291.5 80,291.5 80,257.501 	"/>
</g>
</svg>
