<?xml version="1.0" encoding="utf-8"?>
<!-- Generator: Adobe Illustrator 24.2.0, SVG Export Plug-In . SVG Version: 6.00 Build 0)  -->
<svg version="1.0" id="Ebene_1" xmlns="http://www.w3.org/2000/svg" xmlns:xlink="http://www.w3.org/1999/xlink" x="0px" y="0px"
	 viewBox="0 0 400 400" enable-background="new 0 0 400 400" xml:space="preserve">
<polygon id="background-blue" fill="#2D327D" points="400,0 0,0 0,400 400,400 400,0 "/>
<g id="content">
	<path id="frameWhite" fill="#FFFFFF" d="M340,40c11,0,20,9,20,20v280c0,11.001-9,20.001-20,20.001H60c-11,0-20-9-20-20.001V60
		c0-11,9-20,20-20H340 M340,35H60c-13.785,0-25,11.215-25,25v280c0,13.785,11.215,25,25,25h280c13.785,0,25-11.215,25-25V60
		C365,46.215,353.785,35,340,35L340,35z"/>
	<path fill="#FFFFFF" d="M178.94,95.812c-0.868-0.868-1.354-2.045-1.354-3.269c0-2.555,2.07-4.625,4.626-4.625
		c1.227,0,2.401,0.486,3.269,1.354l51.745,51.744h41.152c7.366,0,13.868,4.814,16.022,11.86l25.25,82.708
		c0.231,0.756,0.348,1.544,0.348,2.335v36.085c0,2.761-2.239,5-5,5H80.015v-58.996h48.496c2.763,0,5.002-2.239,5.002-4.998v-59.995
		c0-2.759-2.239-5-5.002-5H80.015v-9h144.13L178.94,95.812L178.94,95.812z M270.003,235.007c0,2.761,2.239,5.001,4.998,5.001h29.576
		c2.761,0,5-2.24,5-5.001c0-0.494-0.074-0.985-0.219-1.458l-24.186-79.224l0,0c-0.964-3.154-3.875-5.309-7.172-5.309h-0.498
		c-4.14,0-7.499,3.358-7.499,7.499V235.007L270.003,235.007z M245.755,233.509c0,4.139,3.358,7.5,7.497,7.5
		c4.141,0,7.5-3.361,7.5-7.5v-76.993c0-4.141-3.359-7.499-7.5-7.499c-4.139,0-7.497,3.358-7.497,7.499V233.509L245.755,233.509z
		 M212.506,155.016c0-2.759-2.239-5-4.999-5h-59.995c-2.763,0-5.002,2.241-5.002,5v59.995c0,2.759,2.239,4.998,5.002,4.998h59.995
		c2.759,0,4.999-2.239,4.999-4.998V155.016L212.506,155.016z M221.504,156.516v76.993c0,4.139,3.362,7.5,7.499,7.5
		c4.14,0,7.499-3.361,7.499-7.5v-76.993c0-4.141-3.359-7.499-7.499-7.499C224.866,149.017,221.504,152.375,221.504,156.516
		L221.504,156.516z"/>
	<path fill="#FFFFFF" d="M204.652,289.004h50.392c-4.149,10.272-14.117,16.999-25.197,16.999
		C218.769,306.003,208.799,299.277,204.652,289.004L204.652,289.004z"/>
	<path fill="#FFFFFF" d="M144.654,289.004h0.003h50.391c-4.148,10.272-14.117,16.999-25.195,16.999
		C158.774,306.003,148.805,299.277,144.654,289.004L144.654,289.004z"/>
	<polygon fill="#FFFFFF" points="320,311 80,311 80,320 320,320 320,311 	"/>
	<polygon fill="#FFFFFF" points="320,80 80,80 80,85 320,85 320,80 	"/>
</g>
</svg>
