<?xml version="1.0" encoding="utf-8"?>
<!-- Generator: Adobe Illustrator 24.2.0, SVG Export Plug-In . SVG Version: 6.00 Build 0)  -->
<svg version="1.0" id="Ebene_1" xmlns="http://www.w3.org/2000/svg" xmlns:xlink="http://www.w3.org/1999/xlink" x="0px" y="0px"
	 viewBox="0 0 400 400" enable-background="new 0 0 400 400" xml:space="preserve">
<polygon id="background-blue" fill="#2D327D" points="400,0 0,0 0,400 400,400 400,0 "/>
<g id="content">
	<path id="frameWhite" fill="#FFFFFF" d="M340,40c11,0,20,9,20,20v280c0,11-9,20-20,20H60c-11,0-20-9-20-20V60c0-11,9-20,20-20H340
		 M340,35H60c-13.785,0-25,11.215-25,25v280c0,13.785,11.215,25,25,25h280c13.785,0,25-11.215,25-25V60
		C365,46.215,353.785,35,340,35L340,35z"/>
	<path fill="#FFFFFF" d="M125.003,149.999H80V140h200.991l0,0c8.145,0,15.272,5.467,17.384,13.332l21.012,78.26
		c0.41,1.521,0.617,3.09,0.617,4.665V287c0,4.416-3.583,8-7.999,8h-93.013c-4.417,0-7.999-3.584-7.999-8c0-0.051,0-0.099,0-0.148
		l0,0c0.007-0.284,0.011-0.567,0.011-0.853c0-25.391-20.608-46-46.002-46c-25.391,0-45.999,20.609-45.999,46
		c0,0.285,0.003,0.568,0.007,0.853l0,0c0.004,0.05,0.004,0.098,0.004,0.148c0,4.416-3.586,8-8.003,8H80v-75.001h45.003
		c2.76,0,4.999-2.24,4.999-5.001v-60C130.002,152.239,127.763,149.999,125.003,149.999L125.003,149.999z M272.503,235
		c0,2.76,2.239,4.999,5.002,4.999h27.268c2.76,0,4.999-2.239,4.999-4.999c0-0.439-0.059-0.874-0.172-1.298l-21.149-78.778
		c-0.937-3.495-4.107-5.926-7.728-5.926h-0.22c-4.413,0-8,3.585-8,8.002V235L272.503,235z M246.502,233.001
		c0,4.414,3.587,7.999,8,7.999c4.417,0,8.003-3.585,8.003-7.999V157c0-4.417-3.586-8.002-8.003-8.002c-4.413,0-8,3.585-8,8.002
		V233.001L246.502,233.001z M220.502,233.001c0,4.414,3.586,7.999,7.999,7.999c4.416,0,8.003-3.585,8.003-7.999V157
		c0-4.417-3.586-8.002-8.003-8.002c-4.413,0-7.999,3.585-7.999,8.002V233.001L220.502,233.001z M140.003,214.998
		c0,2.761,2.24,5.001,4.999,5.001h60.5c2.759,0,5.002-2.24,5.002-5.001v-60c0-2.759-2.243-4.999-5.002-4.999h-60.5
		c-2.759,0-4.999,2.24-4.999,4.999V214.998L140.003,214.998z"/>
	<path fill="#FFFFFF" d="M164.686,251.296c19.32,0,35.002,15.68,35.002,34.998c0,19.32-15.682,35.002-35.002,35.002
		c-19.32,0-34.998-15.682-34.998-35.002C129.688,266.976,145.366,251.296,164.686,251.296L164.686,251.296z M164.686,305.544
		c11.041,0,20.003-8.961,20.003-20.001c0-11.039-8.961-19.999-20.003-19.999c-11.038,0-19.999,8.96-19.999,19.999
		C144.687,296.583,153.648,305.544,164.686,305.544L164.686,305.544z"/>
</g>
</svg>
