<?xml version="1.0" encoding="utf-8"?>
<!-- Generator: Adobe Illustrator 24.2.0, SVG Export Plug-In . SVG Version: 6.00 Build 0)  -->
<svg version="1.0" id="Ebene_1" xmlns="http://www.w3.org/2000/svg" xmlns:xlink="http://www.w3.org/1999/xlink" x="0px" y="0px"
	 viewBox="0 0 400 400" enable-background="new 0 0 400 400" xml:space="preserve">
<polygon id="background-blue" fill="#2D327D" points="400,0 0,0 0,400.001 400,400.001 400,0 "/>
<g id="content">
	<path id="frameWhite" fill="#FFFFFF" d="M340,40c11,0,20,9,20,20v280c0,11-9,20-20,20H60c-11,0-20-9-20-20V60c0-11,9-20,20-20H340
		 M340,35H60c-13.785,0-25,11.215-25,25v280c0,13.785,11.215,25,25,25h280c13.785,0,25-11.215,25-25V60
		C365,46.215,353.785,35,340,35L340,35z"/>
	<path fill="#FFFFFF" d="M274.998,150h45.003v-10h-200.99l0,0c-8.144,0-15.272,5.467-17.383,13.333l-21.012,78.258
		c-0.41,1.521-0.616,3.09-0.616,4.667v50.741c0,4.417,3.582,8.001,7.999,8.001h93.011c4.417,0,7.999-3.584,7.999-8.001
		c0-0.05,0-0.098,0-0.148l0,0c-0.007-0.285-0.01-0.567-0.01-0.853c0-25.391,20.608-45.999,46.002-45.999
		c25.39,0,45.998,20.608,45.998,45.999c0,0.286-0.003,0.568-0.007,0.853l0,0c-0.003,0.05-0.003,0.098-0.003,0.148
		c0,4.417,3.586,8.001,8.003,8.001h31.009v-75.002h-45.003c-2.759,0-4.999-2.239-4.999-5.001v-59.999
		C269.999,152.239,272.238,150,274.998,150L274.998,150z M127.5,235c0,2.76-2.24,4.999-5.002,4.999H95.23
		c-2.76,0-4.999-2.24-4.999-4.999c0-0.439,0.058-0.875,0.172-1.299l21.148-78.776c0.938-3.495,4.107-5.926,7.728-5.926h0.22
		c4.414,0,8,3.584,8,8.001V235L127.5,235z M153.499,233c0,4.415-3.586,8-7.999,8c-4.417,0-8.003-3.585-8.003-8v-76
		c0-4.417,3.586-8.001,8.003-8.001c4.413,0,7.999,3.584,7.999,8.001V233L153.499,233z M179.501,233c0,4.415-3.586,8-8,8
		c-4.416,0-8.003-3.585-8.003-8v-76c0-4.417,3.587-8.001,8.003-8.001c4.413,0,8,3.584,8,8.001V233L179.501,233z M259.998,214.997
		c0,2.762-2.239,5.001-4.999,5.001h-60.498c-2.759,0-5.002-2.239-5.002-5.001v-59.999c0-2.759,2.243-4.998,5.002-4.998h60.498
		c2.759,0,4.999,2.239,4.999,4.998V214.997L259.998,214.997z"/>
	<path fill="#FFFFFF" d="M235.31,251.295c-19.32,0-35.001,15.68-35.001,34.999c0,19.32,15.681,35.001,35.001,35.001
		s34.999-15.681,34.999-35.001C270.308,266.976,254.63,251.295,235.31,251.295L235.31,251.295z M235.31,305.544
		c-11.042,0-20.003-8.96-20.003-20c0-11.04,8.961-19.999,20.003-19.999c11.038,0,19.999,8.96,19.999,19.999
		C255.309,296.584,246.348,305.544,235.31,305.544L235.31,305.544z"/>
</g>
</svg>
