<?xml version="1.0" encoding="utf-8"?>
<!-- Generator: Adobe Illustrator 24.2.0, SVG Export Plug-In . SVG Version: 6.00 Build 0)  -->
<svg version="1.0" id="Ebene_1" xmlns="http://www.w3.org/2000/svg" xmlns:xlink="http://www.w3.org/1999/xlink" x="0px" y="0px"
	 viewBox="0 0 400 400" enable-background="new 0 0 400 400" xml:space="preserve">
<polygon id="background-blue" fill="#2D327D" points="400,0 0,0 0,400 400,400 400,0 "/>
<g id="content">
	<path id="frameWhite" fill="#FFFFFF" d="M340,40c11,0,20,9,20,20v280c0,11-9,20-20,20H60c-11,0-20-9-20-20V60c0-11,9-20,20-20H340
		 M340,35H60c-13.785,0-25,11.215-25,25v280c0,13.785,11.215,25,25,25h280c13.785,0,25-11.215,25-25V60
		C365,46.215,353.785,35,340,35L340,35z"/>
	<path fill="#FFFFFF" d="M310.005,150.002H320V140h-75.491c-2.762,0-5.003,2.241-5.003,5.002c0,2.76,2.242,5,5.003,5h6.999
		l-5.004,30.007h-61.496v29.994h17.501l-5.003,29.995H77.016l30,56.893l21.415-4.518c3.825-0.495,7.69-0.793,11.567-0.879
		c3.878,0.086,7.741,0.384,11.568,0.879l33.604,7.093c4.879,1.014,9.847,1.523,14.825,1.535c4.979-0.012,9.946-0.52,14.814-1.535
		l33.602-7.093c3.853-0.495,7.716-0.793,11.581-0.879c3.864,0.086,7.729,0.384,11.58,0.879l33.591,7.093
		c4.892,1.014,9.859,1.523,14.837,1.535v-61.002h-9.995c-2.761,0-5.004-2.243-5.004-5.002v-20.004c0-2.749,2.243-4.988,5.004-4.988
		H320v-29.994h-9.995c-2.761,0-5.004-2.253-5.004-5.013v-19.994C305.001,152.243,307.244,150.002,310.005,150.002L310.005,150.002z
		 M247,234.996c0,2.749-2.243,5.002-4.992,5.002h-29.479c-2.761,0-5.003-2.253-5.003-5.002c0-0.272,0.038-0.544,0.075-0.816
		l3.332-20.005c0.408-2.414,2.49-4.171,4.93-4.171h26.146c2.749,0,4.992,2.239,4.992,4.988V234.996L247,234.996z M296.01,234.996
		c0,2.749-2.243,5.002-5.003,5.002h-30c-2.761,0-5.004-2.253-5.004-5.002v-20.004c0-2.749,2.243-4.988,5.004-4.988h30
		c2.76,0,5.003,2.239,5.003,4.988V234.996L296.01,234.996z M296.01,174.997c0,2.759-2.243,5.013-5.003,5.013h-29.48
		c-2.749,0-4.99-2.253-4.99-5.013c0-0.274,0.012-0.545,0.062-0.83l3.331-19.992c0.409-2.401,2.49-4.172,4.942-4.172h26.135
		c2.76,0,5.003,2.241,5.003,5V174.997L296.01,174.997z"/>
	<path fill="#FFFFFF" d="M269.996,301.758c-3.331-0.422-6.665-0.668-10.008-0.744c-3.344,0.076-6.688,0.322-9.996,0.744
		l-33.233,7.006c-5.524,1.164-11.136,1.734-16.772,1.745c-5.636-0.01-11.247-0.58-16.771-1.745l-33.221-7.006
		c-3.331-0.422-6.665-0.668-10.008-0.744c-3.345,0.076-6.677,0.322-9.996,0.744l-33.233,7.006
		c-5.512,1.164-11.124,1.734-16.759,1.745v9.497c6.279-0.012,12.547-0.644,18.704-1.931l32.849-6.933
		c2.799-0.334,5.61-0.544,8.435-0.632c2.823,0.088,5.636,0.298,8.447,0.632l32.837,6.933c6.157,1.287,12.423,1.919,18.716,1.931
		c6.292-0.012,12.561-0.644,18.717-1.931l32.849-6.933c2.787-0.334,5.61-0.544,8.435-0.632c2.824,0.088,5.637,0.298,8.448,0.632
		l32.836,6.933c6.169,1.287,12.436,1.919,18.728,1.931v-9.497c-5.634-0.01-11.258-0.58-16.783-1.745L269.996,301.758
		L269.996,301.758z"/>
</g>
</svg>
