<?xml version="1.0" encoding="utf-8"?>
<!-- Generator: Adobe Illustrator 24.2.0, SVG Export Plug-In . SVG Version: 6.00 Build 0)  -->
<svg version="1.0" id="Ebene_1" xmlns="http://www.w3.org/2000/svg" xmlns:xlink="http://www.w3.org/1999/xlink" x="0px" y="0px"
	 viewBox="0 0 400 399.999" enable-background="new 0 0 400 399.999" xml:space="preserve">
<polygon id="background-blue" fill="#2D327D" points="0,0 400,0 400,400 0,400 0,0 "/>
<g id="content">
	<path id="frameWhite" fill="#FFFFFF" d="M340,40c11,0,20,9,20,20v280c0,11-9,20-20,20H60c-11,0-20-9-20-20V60c0-11,9-20,20-20H340
		 M340,35H60c-13.785,0-25,11.215-25,25v280c0,13.785,11.215,25,25,25h280c13.785,0,25-11.215,25-25V60
		C365,46.215,353.785,35,340,35L340,35z"/>
	<path fill="#FFFFFF" d="M89.996,150.002c2.761,0,5.004,2.241,5.004,5v19.994c0,2.759-2.243,5.013-5.004,5.013H80v29.995h9.996
		c2.761,0,5.004,2.239,5.004,4.988v20.005c0,2.759-2.243,5.001-5.004,5.001H80V301c4.979-0.012,9.946-0.521,14.838-1.535
		l33.591-7.093c3.851-0.494,7.717-0.793,11.58-0.878c3.865,0.086,7.729,0.384,11.581,0.878l33.601,7.093
		c4.868,1.014,9.835,1.522,14.814,1.535c4.978-0.012,9.945-0.521,14.825-1.535l33.604-7.093c3.827-0.494,7.69-0.793,11.568-0.878
		c3.876,0.086,7.742,0.384,11.568,0.878l21.415,4.518l30-56.893h-120.49l-5.003-29.994h17.501v-29.995h-61.496l-5.004-30.007h6.998
		c2.762,0,5.004-2.241,5.004-5c0-2.761-2.242-5.002-5.004-5.002H80v10.002H89.996L89.996,150.002z M153.001,234.997v-20.005
		c0-2.749,2.242-4.988,4.992-4.988h26.146c2.44,0,4.521,1.757,4.93,4.171l3.333,20.004c0.037,0.273,0.074,0.544,0.074,0.817
		c0,2.748-2.242,5.001-5.004,5.001h-29.479C155.243,239.998,153.001,237.745,153.001,234.997L153.001,234.997z M103.991,234.997
		v-20.005c0-2.749,2.243-4.988,5.004-4.988h30c2.761,0,5.004,2.239,5.004,4.988v20.005c0,2.748-2.243,5.001-5.004,5.001h-30
		C106.234,239.998,103.991,237.745,103.991,234.997L103.991,234.997z M103.991,174.997v-19.994c0-2.759,2.243-5,5.004-5h26.135
		c2.453,0,4.533,1.771,4.941,4.171l3.332,19.993c0.05,0.284,0.062,0.556,0.062,0.83c0,2.759-2.241,5.013-4.99,5.013h-29.48
		C106.234,180.009,103.991,177.756,103.991,174.997L103.991,174.997z"/>
	<path fill="#FFFFFF" d="M130.004,301.758c3.332-0.422,6.665-0.668,10.008-0.744c3.345,0.076,6.689,0.322,9.996,0.744l33.232,7.006
		c5.524,1.164,11.137,1.735,16.773,1.745c5.636-0.01,11.247-0.58,16.771-1.745l33.221-7.006c3.331-0.422,6.664-0.668,10.008-0.744
		c3.345,0.076,6.677,0.322,9.996,0.744l33.233,7.006c5.512,1.164,11.124,1.735,16.758,1.745v9.497
		c-6.278-0.012-12.547-0.644-18.703-1.931l-32.849-6.933c-2.799-0.334-5.61-0.544-8.435-0.632c-2.823,0.088-5.637,0.298-8.447,0.632
		l-32.837,6.933c-6.156,1.287-12.423,1.919-18.715,1.931c-6.292-0.012-12.561-0.644-18.717-1.931l-32.849-6.933
		c-2.788-0.334-5.611-0.544-8.436-0.632c-2.823,0.088-5.636,0.298-8.448,0.632l-32.837,6.933
		c-6.168,1.287-12.435,1.919-18.728,1.931v-9.497c5.635-0.01,11.26-0.58,16.783-1.745L130.004,301.758L130.004,301.758z"/>
</g>
</svg>
