<?xml version="1.0" encoding="utf-8"?>
<!-- Generator: Adobe Illustrator 24.2.0, SVG Export Plug-In . SVG Version: 6.00 Build 0)  -->
<svg version="1.0" id="Ebene_1" xmlns="http://www.w3.org/2000/svg" xmlns:xlink="http://www.w3.org/1999/xlink" x="0px" y="0px"
	 viewBox="0 0 400 400" enable-background="new 0 0 400 400" xml:space="preserve">
<polygon id="background-blue" fill="#2D327D" points="0,0 400,0 400,400 0,400 0,0 "/>
<g id="content">
	<path id="frameWhite" fill="#FFFFFF" d="M340,40c11,0,20,9,20,20v280c0,11-9,20-20,20H60c-11,0-20-9-20-20V60c0-11,9-20,20-20H340
		 M340,35H60c-13.785,0-25,11.215-25,25v280c0,13.785,11.215,25,25,25h280c13.785,0,25-11.215,25-25V60
		C365,46.215,353.785,35,340,35L340,35z"/>
	<path fill="#FFFFFF" d="M151.453,226.877c-1.726,0-3.125-1.399-3.125-3.124v-22.029c0-2.487,0.985-4.872,2.746-6.629l0,0
		l18.755-18.755c1.753-1.756,4.141-2.746,6.628-2.746h54.033c2.488,0,4.869,0.989,6.628,2.746l0,0l21.781,21.784l36.564,3.032
		c1.619,0.134,2.866,1.488,2.866,3.114v19.483c0,1.725-1.403,3.124-3.125,3.124l0,0h-3.438v-3.593
		c0-10.353-8.398-18.752-18.749-18.752c-10.352,0-18.752,8.399-18.752,18.752v3.593h-62.188v-3.593
		c0-10.353-8.399-18.752-18.749-18.752c-10.353,0-18.752,8.399-18.752,18.752v3.593H151.453L151.453,226.877z M207.367,182.662
		l0.021,12.812l0,0c0,1.723,1.398,3.121,3.121,3.121l36.405-0.003c0.826,0,1.499-0.669,1.499-1.499c0-0.397-0.159-0.779-0.441-1.059
		l-15.587-15.589h0.004c-0.589-0.585-1.381-0.913-2.212-0.913h-19.685c-1.723,0-3.125,1.399-3.125,3.125V182.662L207.367,182.662z
		 M160.031,198.592l38.279,0.003c1.726,0,3.124-1.398,3.124-3.124v-12.812c0-1.726-1.398-3.125-3.124-3.125h-21.543
		c-0.827,0-1.623,0.328-2.208,0.913l0,0l-15.589,15.589c-0.279,0.279-0.438,0.662-0.438,1.059
		C158.532,197.924,159.204,198.592,160.031,198.592L160.031,198.592z"/>
	<path fill="#FFFFFF" d="M289.668,297.171c-5.75-1.275-11.562-2.25-17.411-2.921l0,0c-4.861-0.647-9.76-0.972-14.663-0.972
		c-11.148,0-22.227,1.671-32.881,4.954c-7.121,2.191-14.531,3.308-21.98,3.308c-0.717,0-1.438-0.007-2.15-0.028
		c-8.169-0.258-16.237-1.86-23.889-4.733l0,0c-12.554-4.716-25.856-7.131-39.268-7.131c-2.653,0-5.306,0.096-7.952,0.282l0,0
		c-16.905,0.916-33.584,4.354-49.476,10.205L80.027,220h31.896c2.759,0,4.999-2.239,4.999-4.999c0-0.097-0.003-0.193-0.007-0.286
		l-1.099-19.003l0,0c-0.152-2.645-2.339-4.713-4.992-4.713H80.021v-20.998h29.012c2.763,0,5.002-2.24,5.002-4.999
		c0-0.1-0.004-0.193-0.007-0.29l-1.071-18.501l0,0c-0.151-2.646-2.339-4.71-4.988-4.71H80.021v-11.503h50.502
		c2.208,0,4,1.792,4,4.003v0.469c0,2.845-2.174,5.222-5.009,5.477l-6.139,0.551l16.068,91.234l0,0
		c0.84,4.782,4.996,8.265,9.847,8.265h152.403l16.591-40.998l7.483,2.832L289.668,297.171L289.668,297.171L289.668,297.171z"/>
	<path fill="#FFFFFF" d="M80.003,307.612c15.973-6.165,32.818-9.772,49.914-10.695l0,0c2.498-0.179,5.005-0.269,7.51-0.269
		c12.57,0,25.033,2.263,36.8,6.682l0,0c8.371,3.146,17.2,4.892,26.135,5.174c0.786,0.024,1.574,0.038,2.364,0.038
		c8.146,0,16.252-1.223,24.037-3.62l0,0c9.982-3.08,20.368-4.64,30.816-4.64c4.616,0,9.228,0.303,13.803,0.913l0,0
		c16.803,1.925,33.204,6.455,48.619,13.42v12.718l0,0c-15.704-7.761-32.631-12.746-50.034-14.726
		c-4.106-0.551-8.243-0.83-12.387-0.83c-9.301,0-18.543,1.395-27.427,4.133l0,0c-8.887,2.735-18.133,4.127-27.426,4.127
		c-0.906,0-1.805-0.014-2.708-0.038l0,0c-10.204-0.32-20.279-2.314-29.832-5.904h-0.003c-10.472-3.934-21.567-5.949-32.756-5.949
		c-2.263,0-4.526,0.083-6.786,0.248l0,0c-17.423,0.927-34.558,4.857-50.641,11.615L80.003,307.612L80.003,307.612L80.003,307.612z"
		/>
	<path fill-rule="evenodd" clip-rule="evenodd" fill="#FFFFFF" d="M173.319,229.23c3.593,0,6.504-2.915,6.504-6.501
		c0-3.59-2.911-6.504-6.504-6.504c-3.586,0-6.501,2.915-6.501,6.504C166.818,226.315,169.732,229.23,173.319,229.23L173.319,229.23z
		 M173.317,208.507c7.852,0,14.222,6.37,14.222,14.222c0,7.848-6.37,14.217-14.222,14.217c-7.848,0-14.215-6.369-14.215-14.217
		C159.102,214.877,165.469,208.507,173.317,208.507L173.317,208.507z"/>
	<path fill-rule="evenodd" clip-rule="evenodd" fill="#FFFFFF" d="M273,229.23c3.59,0,6.505-2.915,6.505-6.501
		c0-3.59-2.915-6.504-6.505-6.504s-6.504,2.915-6.504,6.504C266.496,226.315,269.41,229.23,273,229.23L273,229.23z M273,208.507
		c7.849,0,14.219,6.37,14.219,14.222c0,7.848-6.37,14.217-14.219,14.217c-7.848,0-14.218-6.369-14.218-14.217
		C258.782,214.877,265.152,208.507,273,208.507L273,208.507z"/>
</g>
</svg>
