<?xml version="1.0" encoding="utf-8"?>
<!-- Generator: Adobe Illustrator 24.2.0, SVG Export Plug-In . SVG Version: 6.00 Build 0)  -->
<svg version="1.0" id="Ebene_1" xmlns="http://www.w3.org/2000/svg" xmlns:xlink="http://www.w3.org/1999/xlink" x="0px" y="0px"
	 viewBox="0 0 400 400" enable-background="new 0 0 400 400" xml:space="preserve">
<polygon id="background-blue" fill="#2D327D" points="400,0 0,0 0,400 400,400 400,0 "/>
<g id="content">
	<path id="frameWhite" fill="#FFFFFF" d="M340,40c11,0,20,9,20,20v280c0,11-9,20-20,20H60c-11,0-20-9-20-20V60c0-11,9-20,20-20H340
		 M340,35H60c-13.785,0-25,11.215-25,25v280c0,13.785,11.215,25,25,25h280c13.785,0,25-11.215,25-25V60
		C365,46.215,353.785,35,340,35L340,35z"/>
	<path fill="#FFFFFF" d="M248.54,226.877c1.726,0,3.125-1.399,3.125-3.124v-22.029c0-2.487-0.985-4.872-2.746-6.629l0,0
		l-18.755-18.755c-1.753-1.756-4.141-2.746-6.629-2.746h-54.033c-2.488,0-4.868,0.989-6.629,2.746l0,0l-21.78,21.784l-36.564,3.032
		c-1.62,0.134-2.867,1.488-2.867,3.114v19.483c0,1.725,1.402,3.124,3.125,3.124l0,0h3.438v-3.593
		c0-10.353,8.399-18.752,18.748-18.752c10.353,0,18.752,8.399,18.752,18.752v3.593h62.188v-3.593c0-10.353,8.4-18.752,18.748-18.752
		c10.353,0,18.752,8.399,18.752,18.752v3.593H248.54L248.54,226.877z M192.625,182.662l-0.02,12.812l0,0
		c0,1.723-1.399,3.121-3.121,3.121l-36.405-0.003c-0.827,0-1.498-0.669-1.498-1.499c0-0.397,0.159-0.779,0.441-1.059l15.586-15.589
		h-0.003c0.589-0.585,1.381-0.913,2.212-0.913h19.686c1.722,0,3.124,1.399,3.124,3.125V182.662L192.625,182.662z M239.961,198.592
		l-38.279,0.003c-1.726,0-3.124-1.398-3.124-3.124v-12.812c0-1.726,1.398-3.125,3.124-3.125h21.542c0.827,0,1.623,0.328,2.209,0.913
		l0,0l15.589,15.589c0.279,0.279,0.438,0.662,0.438,1.059C241.46,197.924,240.788,198.592,239.961,198.592L239.961,198.592z"/>
	<path fill="#FFFFFF" d="M110.332,297.171c5.749-1.275,11.562-2.25,17.412-2.921l0,0c4.861-0.647,9.76-0.972,14.662-0.972
		c11.149,0,22.228,1.671,32.881,4.954c7.121,2.191,14.531,3.308,21.979,3.308c0.717,0,1.437-0.007,2.15-0.028
		c8.168-0.258,16.236-1.86,23.889-4.733l0,0c12.554-4.716,25.855-7.131,39.267-7.131c2.653,0,5.306,0.096,7.952,0.282l0,0
		c16.905,0.916,33.582,4.354,49.476,10.205L319.973,220h-31.896c-2.76,0-4.999-2.239-4.999-4.999c0-0.097,0.004-0.193,0.007-0.286
		l1.099-19.003l0,0c0.152-2.645,2.339-4.713,4.992-4.713h30.802v-20.998h-29.011c-2.763,0-5.003-2.24-5.003-4.999
		c0-0.1,0.003-0.193,0.007-0.29l1.071-18.501l0,0c0.152-2.646,2.339-4.71,4.989-4.71h27.946v-11.503h-50.501
		c-2.209,0-4.001,1.792-4.001,4.003v0.469c0,2.845,2.174,5.222,5.009,5.477l6.139,0.551l-16.067,91.234l0,0
		c-0.841,4.782-4.996,8.265-9.847,8.265H98.308l-16.591-40.998l-7.483,2.832L110.332,297.171L110.332,297.171L110.332,297.171z"/>
	<path fill="#FFFFFF" d="M319.997,307.612c-15.973-6.165-32.818-9.772-49.913-10.695l0,0c-2.499-0.179-5.006-0.269-7.51-0.269
		c-12.57,0-25.033,2.263-36.8,6.682l0,0c-8.37,3.146-17.199,4.892-26.134,5.174c-0.786,0.024-1.574,0.038-2.364,0.038
		c-8.146,0-16.252-1.223-24.037-3.62l0,0c-9.982-3.08-20.368-4.64-30.816-4.64c-4.616,0-9.229,0.303-13.802,0.913l0,0
		c-16.804,1.925-33.204,6.455-48.619,13.42v12.718l0,0c15.704-7.761,32.632-12.746,50.034-14.726
		c4.106-0.551,8.243-0.83,12.387-0.83c9.301,0,18.543,1.395,27.427,4.133l0,0c8.888,2.735,18.134,4.127,27.427,4.127
		c0.906,0,1.805-0.014,2.708-0.038l0,0c10.203-0.32,20.278-2.314,29.83-5.904h0.004c10.472-3.934,21.567-5.949,32.755-5.949
		c2.263,0,4.527,0.083,6.787,0.248l0,0c17.423,0.927,34.557,4.857,50.64,11.615L319.997,307.612L319.997,307.612L319.997,307.612z"
		/>
	<path fill-rule="evenodd" clip-rule="evenodd" fill="#FFFFFF" d="M126.992,229.23c-3.59,0-6.504-2.915-6.504-6.501
		c0-3.59,2.914-6.504,6.504-6.504c3.59,0,6.504,2.915,6.504,6.504C133.497,226.315,130.582,229.23,126.992,229.23L126.992,229.23z
		 M126.992,208.507c-7.848,0-14.218,6.37-14.218,14.222c0,7.848,6.37,14.217,14.218,14.217c7.848,0,14.218-6.369,14.218-14.217
		C141.21,214.877,134.84,208.507,126.992,208.507L126.992,208.507z"/>
	<path fill-rule="evenodd" clip-rule="evenodd" fill="#FFFFFF" d="M226.674,229.23c-3.594,0-6.505-2.915-6.505-6.501
		c0-3.59,2.911-6.504,6.505-6.504c3.587,0,6.5,2.915,6.5,6.504C233.174,226.315,230.26,229.23,226.674,229.23L226.674,229.23z
		 M226.675,208.507c-7.851,0-14.222,6.37-14.222,14.222c0,7.848,6.371,14.217,14.222,14.217c7.848,0,14.215-6.369,14.215-14.217
		C240.89,214.877,234.523,208.507,226.675,208.507L226.675,208.507z"/>
</g>
</svg>
