<?xml version="1.0" encoding="utf-8"?>
<!-- Generator: Adobe Illustrator 24.2.0, SVG Export Plug-In . SVG Version: 6.00 Build 0)  -->
<svg version="1.0" id="Ebene_1" xmlns="http://www.w3.org/2000/svg" xmlns:xlink="http://www.w3.org/1999/xlink" x="0px" y="0px"
	 viewBox="0 0 400 400" enable-background="new 0 0 400 400" xml:space="preserve">
<polygon id="background-blue" fill="#2D327D" points="400,0 0,0 0,400 400,400 400,0 "/>
<g id="content">
	<path id="frameWhite" fill="#FFFFFF" d="M340,40c11,0,20,9,20,20v280c0,11-9,20-20,20H60c-11,0-20-9-20-20V60c0-11,9-20,20-20H340
		 M340,35H60c-13.785,0-25,11.215-25,25v280c0,13.785,11.215,25,25,25h280c13.785,0,25-11.215,25-25V60
		C365,46.215,353.785,35,340,35L340,35z"/>
	<path fill="#FFFFFF" d="M97.237,220.141c0-12.56,10.194-22.751,22.748-22.751c12.561,0,22.751,10.192,22.751,22.751
		c0,12.557-10.19,22.749-22.751,22.749C107.432,242.891,97.237,232.698,97.237,220.141L97.237,220.141z M132.488,220.141
		c0-6.902-5.598-12.502-12.502-12.502c-6.897,0-12.495,5.601-12.495,12.502c0,6.899,5.598,12.499,12.495,12.499
		C126.89,232.64,132.488,227.04,132.488,220.141L132.488,220.141z"/>
	<path fill="#FFFFFF" d="M289.984,287.123c0-10.349,8.402-18.75,18.751-18.75c4.059,0,8.006,1.318,11.252,3.751v29.997
		c-3.246,2.436-7.193,3.752-11.252,3.752C298.387,305.873,289.984,297.473,289.984,287.123L289.984,287.123z"/>
	<path fill="#FFFFFF" d="M84.393,175.149L84.393,175.149l30.007-30.005c2.814-2.814,6.628-4.395,10.607-4.395h86.452
		c3.979,0,7.793,1.58,10.604,4.395l0,0l34.851,34.851l58.502,4.853c2.594,0.215,4.585,2.382,4.585,4.983v31.17
		c0,2.76-2.239,4.998-5.002,4.998h-5.499v-5.749c0-16.559-13.439-30-30-30c-16.557,0-29.999,13.441-29.999,30l0,0v5.749h-99.498
		v-5.749c0-16.559-13.439-30-30.003-30c-16.557,0-30,13.441-30,30v5.749h-4.999c-2.76,0-4.999-2.238-4.999-4.998v-35.244
		C80,181.778,81.578,177.962,84.393,175.149L84.393,175.149z M174.492,175.757c0.007,2.758,2.243,4.992,5.002,4.992h56.793
		c1.657,0,2.997-1.342,2.997-2.999c0-0.796-0.313-1.559-0.878-2.121l-23.913-23.914l0,0c-0.937-0.939-2.212-1.466-3.535-1.466
		h-31.464c-2.759,0-5.002,2.241-5.002,4.999V175.757L174.492,175.757z M100.178,180.75h59.794c2.759,0,4.999-2.239,4.999-4.999
		v-20.502c0-2.758-2.24-4.999-4.999-4.999h-34.465c-1.326,0-2.597,0.527-3.538,1.466L98.056,175.63
		c-0.562,0.562-0.879,1.325-0.879,2.121C97.177,179.408,98.521,180.75,100.178,180.75L100.178,180.75z"/>
	<polygon fill="#FFFFFF" points="80,248 320,248 320,263.501 80,263.501 80,248 	"/>
	<polygon fill="#FFFFFF" points="80,310 320,310 320,319.5 80,319.5 80,310 	"/>
	<path fill="#FFFFFF" d="M242.511,287.045c0-10.351,8.403-18.75,18.748-18.75c10.353,0,18.752,8.399,18.752,18.75
		c0,10.351-8.399,18.75-18.752,18.75C250.914,305.795,242.511,297.396,242.511,287.045L242.511,287.045z"/>
	<path fill="#FFFFFF" d="M145.576,287.045c0-10.351,8.396-18.75,18.748-18.75c10.349,0,18.752,8.399,18.752,18.75
		c0,10.351-8.403,18.75-18.752,18.75C153.971,305.795,145.576,297.396,145.576,287.045L145.576,287.045z"/>
	<path fill="#FFFFFF" d="M97.482,287.045c0-10.351,8.396-18.75,18.749-18.75c10.349,0,18.749,8.399,18.749,18.75
		c0,10.351-8.399,18.75-18.749,18.75C105.878,305.795,97.482,297.396,97.482,287.045L97.482,287.045z"/>
	<path fill="#FFFFFF" d="M256.546,220.141c0-12.56,10.194-22.751,22.751-22.751c12.558,0,22.748,10.192,22.748,22.751
		c0,12.557-10.19,22.749-22.748,22.749C266.74,242.891,256.546,232.698,256.546,220.141L256.546,220.141z M291.796,220.141
		c0-6.902-5.598-12.502-12.499-12.502c-6.9,0-12.499,5.601-12.499,12.502c0,6.899,5.598,12.499,12.499,12.499
		C286.198,232.64,291.796,227.04,291.796,220.141L291.796,220.141z"/>
</g>
</svg>
