<?xml version="1.0" encoding="utf-8"?>
<!-- Generator: Adobe Illustrator 24.2.0, SVG Export Plug-In . SVG Version: 6.00 Build 0)  -->
<svg version="1.0" id="Ebene_1" xmlns="http://www.w3.org/2000/svg" xmlns:xlink="http://www.w3.org/1999/xlink" x="0px" y="0px"
	 viewBox="0 0 400 400" enable-background="new 0 0 400 400" xml:space="preserve">
<polygon id="background-blue" fill="#2D327D" points="400,0 0,0 0,400 400,400 400,0 "/>
<g id="content">
	<path id="frameWhite" fill="#FFFFFF" d="M340,40c11,0,20,9,20,20v280c0,11-9,20-20,20H60c-11,0-20-9-20-20V60c0-11,9-20,20-20H340
		 M340,35H60c-13.785,0-25,11.215-25,25v280c0,13.785,11.215,25,25,25h280c13.785,0,25-11.215,25-25V60
		C365,46.215,353.785,35,340,35L340,35z"/>
	<path fill="#FFFFFF" d="M110.006,287.123c0-10.349-8.403-18.75-18.752-18.75c-4.058,0-8.006,1.318-11.251,3.751v29.997
		c3.245,2.436,7.193,3.752,11.251,3.752C101.603,305.873,110.006,297.473,110.006,287.123L110.006,287.123z"/>
	<path fill="#FFFFFF" d="M315.608,175.149L315.608,175.149l-30.007-30.005c-2.815-2.814-6.629-4.395-10.608-4.395h-86.451
		c-3.979,0-7.793,1.58-10.604,4.395l0,0l-34.851,34.851l-58.501,4.853C81.991,185.063,80,187.23,80,189.831v31.17
		c0,2.76,2.239,4.998,5.002,4.998h5.498v-5.749c0-16.559,13.439-30,30-30c16.557,0,30,13.441,30,30l0,0v5.749h99.498v-5.749
		c0-16.559,13.438-30,30.003-30c16.558,0,30,13.441,30,30v5.749h4.999c2.76,0,4.999-2.238,4.999-4.998v-35.244
		C320,181.778,318.422,177.962,315.608,175.149L315.608,175.149z M225.507,175.757c-0.007,2.758-2.243,4.992-5.002,4.992h-56.792
		c-1.657,0-2.997-1.342-2.997-2.999c0-0.796,0.313-1.559,0.878-2.121l23.912-23.914l0,0c0.937-0.939,2.212-1.466,3.535-1.466h31.464
		c2.759,0,5.002,2.241,5.002,4.999V175.757L225.507,175.757z M299.822,180.75h-59.794c-2.759,0-4.999-2.239-4.999-4.999v-20.502
		c0-2.758,2.24-4.999,4.999-4.999h34.464c1.327,0,2.598,0.527,3.538,1.466l23.913,23.914c0.561,0.562,0.879,1.325,0.879,2.121
		C302.823,179.408,301.479,180.75,299.822,180.75L299.822,180.75z"/>
	<polygon fill="#FFFFFF" points="80,248 320,248 320,263.501 80,263.501 80,248 	"/>
	<polygon fill="#FFFFFF" points="80,310.501 320,310.501 320,320.001 80,320.001 80,310.501 	"/>
	<path fill="#FFFFFF" d="M157.48,287.045c0-10.351-8.402-18.75-18.749-18.75c-10.352,0-18.752,8.399-18.752,18.75
		c0,10.351,8.399,18.75,18.752,18.75C149.077,305.795,157.48,297.396,157.48,287.045L157.48,287.045z"/>
	<path fill="#FFFFFF" d="M254.414,287.045c0-10.351-8.395-18.75-18.748-18.75c-10.349,0-18.751,8.399-18.751,18.75
		c0,10.351,8.402,18.75,18.751,18.75C246.02,305.795,254.414,297.396,254.414,287.045L254.414,287.045z"/>
	<path fill="#FFFFFF" d="M302.508,287.045c0-10.351-8.395-18.75-18.748-18.75c-10.349,0-18.749,8.399-18.749,18.75
		c0,10.351,8.399,18.75,18.749,18.75C294.113,305.795,302.508,297.396,302.508,287.045L302.508,287.045z"/>
	<path fill="#FFFFFF" d="M302.753,220.141c0-12.56-10.194-22.751-22.749-22.751c-12.561,0-22.751,10.192-22.751,22.751
		c0,12.557,10.191,22.749,22.751,22.749C292.559,242.891,302.753,232.698,302.753,220.141L302.753,220.141z M267.502,220.141
		c0-6.902,5.598-12.502,12.502-12.502c6.897,0,12.496,5.601,12.496,12.502c0,6.899-5.599,12.499-12.496,12.499
		C273.101,232.64,267.502,227.04,267.502,220.141L267.502,220.141z"/>
	<path fill="#FFFFFF" d="M143.444,220.141c0-12.56-10.194-22.751-22.751-22.751c-12.558,0-22.749,10.192-22.749,22.751
		c0,12.557,10.191,22.749,22.749,22.749C133.25,242.891,143.444,232.698,143.444,220.141L143.444,220.141z M108.194,220.141
		c0-6.902,5.598-12.502,12.499-12.502c6.9,0,12.499,5.601,12.499,12.502c0,6.899-5.598,12.499-12.499,12.499
		C113.792,232.64,108.194,227.04,108.194,220.141L108.194,220.141z"/>
</g>
</svg>
