<?xml version="1.0" encoding="utf-8"?>
<!-- Generator: Adobe Illustrator 24.2.0, SVG Export Plug-In . SVG Version: 6.00 Build 0)  -->
<svg version="1.0" id="Ebene_1" xmlns="http://www.w3.org/2000/svg" xmlns:xlink="http://www.w3.org/1999/xlink" x="0px" y="0px"
	 viewBox="0 0 400 400" enable-background="new 0 0 400 400" xml:space="preserve">
<polygon id="background-blue" fill="#2D327D" points="400,0 0,0 0,400 400,400 400,0 "/>
<g id="content">
	<path id="frameWhite" fill="#FFFFFF" d="M340,40c11,0,20,9,20,20v280c0,11-9,20-20,20H60c-11,0-20-9-20-20V60c0-11,9-20,20-20H340
		 M340,35H60c-13.785,0-25,11.215-25,25v280c0,13.785,11.215,25,25,25h280c13.785,0,25-11.215,25-25V60
		C365,46.215,353.785,35,340,35L340,35z"/>
	<polygon fill="#FFFFFF" points="179.999,79.997 179.999,180.012 289.993,180.012 289.993,219.008 320.008,219.008 320.008,79.997 
		179.999,79.997 	"/>
	<path fill="#FFFFFF" d="M144.997,199.002c12.633,0,23.857,8.048,27.93,20.006h39.157c4.062-11.958,15.282-20.006,27.919-20.006
		c12.633,0,23.868,8.048,27.919,20.006h12.089v-30.007H164.999v-79.008h-63.283c-6.886,0-12.881,4.692-14.552,11.363l-6.701,26.865
		c-0.31,1.188-0.458,2.401-0.458,3.628v67.159h37.072C121.14,207.05,132.36,199.002,144.997,199.002L144.997,199.002z
		 M92.466,142.006c0-0.408,0.048-0.816,0.148-1.213l3.751-14.979c0.993-4.012,4.596-6.809,8.72-6.809h19.919
		c2.75,0,4.992,2.241,4.992,5.001v18c0,2.75-2.242,4.988-4.992,4.988H97.468C94.706,146.995,92.466,144.756,92.466,142.006
		L92.466,142.006z"/>
	<polygon fill="#FFFFFF" points="80.005,255.998 320.008,255.998 320.008,271.002 80.005,271.002 80.005,255.998 	"/>
	<polygon fill="#FFFFFF" points="80.005,311.002 320.008,311.002 320.008,320 80.005,320 80.005,311.002 	"/>
	<path fill="#FFFFFF" d="M240.074,206.171c-12.423,0-22.493,10.077-22.493,22.493c0,12.416,10.07,22.506,22.493,22.506
		c12.423,0,22.497-10.09,22.497-22.506C262.571,216.248,252.498,206.171,240.074,206.171L240.074,206.171z M240.074,241.168
		c-6.897,0-12.509-5.596-12.509-12.504c0-6.896,5.612-12.492,12.509-12.492c6.901,0,12.513,5.596,12.513,12.492
		C252.587,235.572,246.975,241.168,240.074,241.168L240.074,241.168z"/>
	<path fill="#FFFFFF" d="M144.177,206.171c-12.41,0-22.493,10.077-22.493,22.493c0,12.416,10.083,22.506,22.493,22.506
		c12.426,0,22.506-10.09,22.506-22.506C166.684,216.248,156.603,206.171,144.177,206.171L144.177,206.171z M144.177,241.168
		c-6.897,0-12.485-5.596-12.485-12.504c0-6.896,5.588-12.492,12.485-12.492c6.914,0,12.512,5.596,12.512,12.492
		C156.689,235.572,151.091,241.168,144.177,241.168L144.177,241.168z"/>
	<path fill="#FFFFFF" d="M300.236,290.265c0-7.997-6.491-14.484-14.505-14.484c-8.002,0-14.493,6.487-14.493,14.484
		c0,8.01,6.491,14.51,14.493,14.51C293.745,304.775,300.236,298.275,300.236,290.265L300.236,290.265z"/>
	<path fill="#FFFFFF" d="M261.431,290.265c0-7.997-6.504-14.484-14.504-14.484c-8.003,0-14.507,6.487-14.507,14.484
		c0,8.01,6.504,14.51,14.507,14.51C254.926,304.775,261.431,298.275,261.431,290.265L261.431,290.265z"/>
	<path fill="#FFFFFF" d="M167.814,290.265c0-7.997-6.491-14.484-14.494-14.484s-14.504,6.487-14.504,14.484
		c0,8.01,6.501,14.51,14.504,14.51S167.814,298.275,167.814,290.265L167.814,290.265z"/>
	<path fill="#FFFFFF" d="M129.005,290.265c0-7.997-6.491-14.484-14.504-14.484c-8.003,0-14.493,6.487-14.493,14.484
		c0,8.01,6.49,14.51,14.493,14.51C122.514,304.775,129.005,298.275,129.005,290.265L129.005,290.265z"/>
</g>
</svg>
