<?xml version="1.0" encoding="utf-8"?>
<!-- Generator: Adobe Illustrator 24.3.0, SVG Export Plug-In . SVG Version: 6.00 Build 0)  -->
<svg version="1.0" xmlns="http://www.w3.org/2000/svg" xmlns:xlink="http://www.w3.org/1999/xlink" x="0px" y="0px"
	 viewBox="0 0 400 400" enable-background="new 0 0 400 400" xml:space="preserve">
<rect id="background-blue" x="0.028" fill="#2D327D" width="400" height="400"/>
<g id="content">
	<path id="frameWhite" fill="#FFFFFF" d="M340.028,40c11,0,20,9,20,20v280c0,11-9,20-20,20h-280c-11,0-20-9-20-20V60
		c0-11,9-20,20-20H340.028 M340.028,35h-280c-13.785,0-25,11.215-25,25v280c0,13.785,11.215,25,25,25h280c13.785,0,25-11.215,25-25
		V60C365.028,46.215,353.813,35,340.028,35L340.028,35z"/>
	<path fill="#FFFFFF" d="M128.002,220c0,7.62,2.75,14.6,7.32,20c5.68,6.73,14.18,11,23.68,11s18-4.27,23.68-11
		c4.57-5.4,7.32-12.38,7.32-20c0-17.12-13.88-31-31-31S128.002,202.88,128.002,220z M143.002,220c0-8.84,7.16-16,16-16
		s16,7.16,16,16c0,8.84-7.16,16-16,16S143.002,228.84,143.002,220z"/>
	<rect x="204.982" y="208" fill="#FFFFFF" width="115" height="20"/>
	<path fill="#FFFFFF" d="M79.992,149l0.01,74c0,2.761,2.239,5,5,5h26c2.761,0,5-2.239,5-5v-3v-0.15c0.08-23.68,19.3-42.85,43-42.85
		c12.2,0,23.21,5.08,31.03,13.23L189.992,98h-82.98c-8.15,0-15.28,5.47-17.39,13.33l-9.01,33.01
		C80.202,145.86,79.992,147.43,79.992,149z M159.992,107c2.76,0,5,2.24,5,5v29c0,2.76-2.24,5-5,5h-64c-2.76,0-5-2.24-5-5
		c0-0.44,0.06-0.87,0.17-1.3l7.15-26.77c0.94-3.5,4.068-5.93,7.688-5.93H159.992z"/>
	<polygon fill="#FFFFFF" points="320.002,255.998 80,255.998 80,271.002 320.002,271.002 320.002,255.998 	"/>
	<polygon fill="#FFFFFF" points="79.998,311.002 320,311.002 320,320 79.998,320 79.998,311.002 	"/>
	<path fill="#FFFFFF" d="M99.974,290.49c0-7.997,6.491-14.484,14.505-14.484c8.002,0,14.493,6.487,14.493,14.484
		c0,8.01-6.491,14.51-14.493,14.51C106.465,305,99.974,298.5,99.974,290.49L99.974,290.49z"/>
	<path fill="#FFFFFF" d="M138.961,290.49c0-7.997,6.504-14.484,14.504-14.484c8.003,0,14.507,6.487,14.507,14.484
		c0,8.01-6.504,14.51-14.507,14.51C145.465,305,138.961,298.5,138.961,290.49L138.961,290.49z"/>
	<path fill="#FFFFFF" d="M231.974,290.49c0-7.997,6.491-14.484,14.505-14.484c8.002,0,14.493,6.487,14.493,14.484
		c0,8.01-6.491,14.51-14.493,14.51C238.465,305,231.974,298.5,231.974,290.49L231.974,290.49z"/>
	<path fill="#FFFFFF" d="M270.961,290.49c0-7.997,6.504-14.484,14.504-14.484c8.003,0,14.507,6.487,14.507,14.484
		c0,8.01-6.504,14.51-14.507,14.51C277.465,305,270.961,298.5,270.961,290.49L270.961,290.49z"/>
	<path fill="#FFFFFF" d="M320,137h-76c-2.761,0-5-2.239-5-5s2.239-5,5-5h76v-10h-76c-2.761,0-5-2.239-5-5s2.239-5,5-5h76l0.002-27
		h-110c-2.761,0-5,2.239-5,5c0,35,0,113,0,113l115-0.056L320,137z"/>
</g>
</svg>
