<?xml version="1.0" encoding="utf-8"?>
<!-- Generator: Adobe Illustrator 24.2.0, SVG Export Plug-In . SVG Version: 6.00 Build 0)  -->
<svg version="1.0" id="Ebene_1" xmlns="http://www.w3.org/2000/svg" xmlns:xlink="http://www.w3.org/1999/xlink" x="0px" y="0px"
	 viewBox="0 0 400 400" enable-background="new 0 0 400 400" xml:space="preserve">
<polygon id="background-blue" fill="#2D327D" points="400,0 0,0 0,400 400,400 400,0 "/>
<g id="content">
	<path id="frameWhite" fill="#FFFFFF" d="M340,40c11,0,20,9,20,20v280c0,11-9,20-20,20H60c-11,0-20-9-20-20V60c0-11,9-20,20-20H340
		 M340,35H60c-13.785,0-25,11.215-25,25v280c0,13.785,11.215,25,25,25h280c13.785,0,25-11.215,25-25V60
		C365,46.215,353.785,35,340,35L340,35z"/>
	<polygon fill="#FFFFFF" points="219.997,80 219.997,180.008 110.011,180.008 110.011,219 80,219 80,80 219.997,80 	"/>
	<path fill="#FFFFFF" d="M254.993,199.002c-12.633,0-23.857,8.048-27.929,20.006h-39.157c-4.062-11.958-15.282-20.006-27.919-20.006
		c-12.633,0-23.868,8.048-27.919,20.006H119.98v-30.007h115.011v-79.008h63.282c6.887,0,12.881,4.692,14.552,11.363l6.701,26.865
		c0.31,1.188,0.458,2.401,0.458,3.628v67.159h-37.072C278.851,207.05,267.63,199.002,254.993,199.002L254.993,199.002z
		 M307.524,142.006c0-0.408-0.048-0.816-0.148-1.213l-3.752-14.979c-0.992-4.012-4.596-6.809-8.72-6.809h-19.919
		c-2.749,0-4.991,2.241-4.991,5.001v18c0,2.75,2.242,4.988,4.991,4.988h27.537C305.285,146.995,307.524,144.756,307.524,142.006
		L307.524,142.006z"/>
	<polygon fill="#FFFFFF" points="80,256 319.922,256 319.922,271 80,271 80,256 	"/>
	<polygon fill="#FFFFFF" points="80,311 320.039,311 320.039,320 80,320 80,311 	"/>
	<path fill="#FFFFFF" d="M159.916,206.171c12.423,0,22.493,10.077,22.493,22.493c0,12.416-10.07,22.506-22.493,22.506
		c-12.423,0-22.497-10.09-22.497-22.506C137.419,216.248,147.493,206.171,159.916,206.171L159.916,206.171z M159.916,241.168
		c6.897,0,12.509-5.596,12.509-12.504c0-6.896-5.612-12.492-12.509-12.492c-6.9,0-12.513,5.596-12.513,12.492
		C147.403,235.572,153.016,241.168,159.916,241.168L159.916,241.168z"/>
	<path fill="#FFFFFF" d="M255.813,206.171c12.409,0,22.493,10.077,22.493,22.493c0,12.416-10.084,22.506-22.493,22.506
		c-12.426,0-22.506-10.09-22.506-22.506C233.307,216.248,243.387,206.171,255.813,206.171L255.813,206.171z M255.813,241.168
		c6.897,0,12.485-5.596,12.485-12.504c0-6.896-5.588-12.492-12.485-12.492c-6.914,0-12.512,5.596-12.512,12.492
		C243.301,235.572,248.899,241.168,255.813,241.168L255.813,241.168z"/>
	<path fill="#FFFFFF" d="M99.754,290.265c0-7.997,6.491-14.484,14.504-14.484c8.003,0,14.494,6.487,14.494,14.484
		c0,8.01-6.491,14.51-14.494,14.51C106.245,304.775,99.754,298.275,99.754,290.265L99.754,290.265z"/>
	<path fill="#FFFFFF" d="M138.56,290.265c0-7.997,6.505-14.484,14.504-14.484c8.002,0,14.507,6.487,14.507,14.484
		c0,8.01-6.505,14.51-14.507,14.51C145.064,304.775,138.56,298.275,138.56,290.265L138.56,290.265z"/>
	<path fill="#FFFFFF" d="M232.176,290.265c0-7.997,6.491-14.484,14.494-14.484c8.003,0,14.504,6.487,14.504,14.484
		c0,8.01-6.501,14.51-14.504,14.51C238.667,304.775,232.176,298.275,232.176,290.265L232.176,290.265z"/>
	<path fill="#FFFFFF" d="M270.985,290.265c0-7.997,6.491-14.484,14.504-14.484c8.003,0,14.493,6.487,14.493,14.484
		c0,8.01-6.49,14.51-14.493,14.51C277.477,304.775,270.985,298.275,270.985,290.265L270.985,290.265z"/>
</g>
</svg>
