<?xml version="1.0" encoding="utf-8"?>
<!-- Generator: Adobe Illustrator 24.3.0, SVG Export Plug-In . SVG Version: 6.00 Build 0)  -->
<svg version="1.0" xmlns="http://www.w3.org/2000/svg" xmlns:xlink="http://www.w3.org/1999/xlink" x="0px" y="0px"
	 viewBox="0 0 400 400" enable-background="new 0 0 400 400" xml:space="preserve">
<rect id="background-blue" x="0.028" fill="#2D327D" width="400" height="400"/>
<g id="content">
	<path id="frameWhite" fill="#FFFFFF" d="M340.028,40c11,0,20,9,20,20v280c0,11-9,20-20,20h-280c-11,0-20-9-20-20V60
		c0-11,9-20,20-20H340.028 M340.028,35h-280c-13.785,0-25,11.215-25,25v280c0,13.785,11.215,25,25,25h280c13.785,0,25-11.215,25-25
		V60C365.028,46.215,353.813,35,340.028,35L340.028,35z"/>
	<path fill="#FFFFFF" d="M240.998,189c-17.12,0-31,13.88-31,31c0,7.62,2.75,14.6,7.32,20c5.68,6.73,14.18,11,23.68,11
		s18-4.27,23.68-11c4.57-5.4,7.32-12.38,7.32-20C271.998,202.88,258.118,189,240.998,189z M240.998,236c-8.84,0-16-7.16-16-16
		c0-8.84,7.16-16,16-16s16,7.16,16,16C256.998,228.84,249.838,236,240.998,236z"/>
	<rect x="80.018" y="208" fill="#FFFFFF" width="115" height="20"/>
	<path fill="#FFFFFF" d="M319.388,144.34l-9.01-33.01c-2.11-7.86-9.24-13.33-17.39-13.33h-82.98l-0.04,92.23
		c7.82-8.15,18.83-13.23,31.03-13.23c23.7,0,42.92,19.17,43,42.85V220v3c0,2.761,2.239,5,5,5h26c2.761,0,5-2.239,5-5l0.01-3v-71
		C320.008,147.43,319.798,145.86,319.388,144.34z M294,107c3.62,0,6.748,2.43,7.688,5.93l7.15,26.77c0.11,0.43,0.17,0.86,0.17,1.3
		c0,2.76-2.24,5-5,5h-64c-2.76,0-5-2.24-5-5v-29c0-2.76,2.24-5,5-5H294z"/>
	<polygon fill="#FFFFFF" points="79.998,255.998 320,255.998 320,271.002 79.998,271.002 79.998,255.998 	"/>
	<polygon fill="#FFFFFF" points="79.998,311.002 320,311.002 320,320 79.998,320 79.998,311.002 	"/>
	<path fill="#FFFFFF" d="M300.026,290.49c0-7.997-6.491-14.484-14.505-14.484c-8.002,0-14.493,6.487-14.493,14.484
		c0,8.01,6.491,14.51,14.493,14.51C293.535,305,300.026,298.5,300.026,290.49L300.026,290.49z"/>
	<path fill="#FFFFFF" d="M261.039,290.49c0-7.997-6.504-14.484-14.504-14.484c-8.003,0-14.507,6.487-14.507,14.484
		c0,8.01,6.504,14.51,14.507,14.51C254.535,305,261.039,298.5,261.039,290.49L261.039,290.49z"/>
	<path fill="#FFFFFF" d="M168.026,290.49c0-7.997-6.491-14.484-14.505-14.484c-8.002,0-14.493,6.487-14.493,14.484
		c0,8.01,6.491,14.51,14.493,14.51C161.535,305,168.026,298.5,168.026,290.49L168.026,290.49z"/>
	<path fill="#FFFFFF" d="M129.039,290.49c0-7.997-6.504-14.484-14.504-14.484c-8.003,0-14.507,6.487-14.507,14.484
		c0,8.01,6.504,14.51,14.507,14.51C122.535,305,129.039,298.5,129.039,290.49L129.039,290.49z"/>
	<path fill="#FFFFFF" d="M79.998,197.944l115,0.056c0,0,0-78,0-113c0-2.761-2.239-5-5-5h-110L80,107h76c2.761,0,5,2.239,5,5
		s-2.239,5-5,5H80v10h76c2.761,0,5,2.239,5,5s-2.239,5-5,5H80L79.998,197.944z"/>
</g>
</svg>
