<?xml version="1.0" encoding="utf-8"?>
<!-- Generator: Adobe Illustrator 24.2.0, SVG Export Plug-In . SVG Version: 6.00 Build 0)  -->
<svg version="1.0" id="Ebene_1" xmlns="http://www.w3.org/2000/svg" xmlns:xlink="http://www.w3.org/1999/xlink" x="0px" y="0px"
	 viewBox="0 0 400 400" enable-background="new 0 0 400 400" xml:space="preserve">
<polygon id="background-blue" fill="#2D327D" points="400,0 0,0 0,400 400,400 400,0 "/>
<g id="content">
	<path id="frameWhite" fill="#FFFFFF" d="M340,40c11,0,20,9,20,20v280c0,11-9,20-20,20H60c-11,0-20-9-20-20V60c0-11,9-20,20-20H340
		 M340,35H60c-13.785,0-25,11.215-25,25v280c0,13.785,11.215,25,25,25h280c13.785,0,25-11.215,25-25V60
		C365,46.215,353.785,35,340,35L340,35z"/>
	<polygon fill="#FFFFFF" points="79.993,79.997 79.993,85.011 320,106.02 320,100.994 79.993,79.997 	"/>
	<path fill="#FFFFFF" d="M190.767,277.583l-50.303-4.408c3.246,11.662,13.874,19.733,25.975,19.733
		C176.819,292.908,186.295,286.954,190.767,277.583L190.767,277.583z"/>
	<path fill="#FFFFFF" d="M247.575,135.98l-52.496-36.707l-58.083,27.038l27.647,22.495l-62.764-5.485
		c-0.372-0.038-0.744-0.061-1.128-0.061c-6.737,0-12.361,5.162-12.956,11.872l-8.535,97.629c-0.024,0.148-0.024,0.285-0.024,0.433
		c0,2.587,1.981,4.754,4.57,4.99L320,278.858v-57.233l-54.898-4.791c-2.588-0.236-4.559-2.403-4.559-4.99
		c0-0.148,0.014-0.284,0.014-0.433l3.492-39.864c0.224-2.576,2.378-4.556,4.979-4.556c0.148,0,0.298,0,0.434,0.025l50.538,4.42
		v-9.039l-103.554-9.062L247.575,135.98L247.575,135.98z M127.557,159.613l-3.479,39.85c-0.224,2.587-2.391,4.568-4.98,4.568
		c-0.148,0-0.284-0.012-0.434-0.024l-21.417-1.869h-0.012c-2.575-0.236-4.558-2.39-4.558-4.991c0-0.147,0.012-0.284,0.012-0.432
		l3.494-39.852c0.222-2.574,2.391-4.554,4.98-4.554c0.148,0,0.296,0,0.446,0.012l21.403,1.881c2.589,0.224,4.572,2.389,4.572,4.976
		C127.583,159.329,127.583,159.477,127.557,159.613L127.557,159.613z M151.849,163.241l-4.98,56.786
		c-0.334,3.875-3.58,6.846-7.469,6.846c-4.138,0-7.495-3.355-7.495-7.49c0-0.223,0-0.446,0.025-0.669l4.966-56.774
		c0.348-3.874,3.579-6.846,7.469-6.846c4.137,0,7.507,3.354,7.507,7.502C151.873,162.807,151.861,163.03,151.849,163.241
		L151.849,163.241z M175.755,165.332l-4.98,56.787c-0.334,3.876-3.567,6.847-7.469,6.847c-4.138,0-7.493-3.355-7.493-7.502
		c0-0.224,0.012-0.433,0.024-0.656l4.98-56.775c0.322-3.876,3.567-6.847,7.457-6.847c4.15,0,7.506,3.356,7.506,7.504
		C175.779,164.912,175.767,165.122,175.755,165.332L175.755,165.332z M153.83,128.403l40.356-18.779l36.455,25.501l-30.175,16.813
		l-19.844-1.733L153.83,128.403L153.83,128.403z M250.534,165.358c2.589,0.222,4.559,2.39,4.559,4.977c0,0.148,0,0.296-0.012,0.444
		l-3.494,39.84c-0.222,2.587-2.377,4.568-4.978,4.568c-0.149,0-0.298,0-0.434-0.025l-60.275-5.273
		c-2.575-0.224-4.558-2.39-4.558-4.977c0-0.149,0.012-0.297,0.012-0.433l3.493-39.851c0.224-2.587,2.379-4.568,4.98-4.568
		c0.148,0,0.296,0.012,0.433,0.024L250.534,165.358L250.534,165.358z"/>
	<path fill="#FFFFFF" d="M250.546,282.805l-50.315-4.394c3.246,11.662,13.874,19.734,25.989,19.734
		C236.598,298.146,246.062,292.179,250.546,282.805L250.546,282.805z"/>
	<polygon fill="#FFFFFF" points="79.993,299 320,320.008 320,311.466 79.993,290.469 79.993,299 	"/>
</g>
</svg>
