<?xml version="1.0" encoding="utf-8"?>
<!-- Generator: Adobe Illustrator 24.2.0, SVG Export Plug-In . SVG Version: 6.00 Build 0)  -->
<svg version="1.0" id="Ebene_1" xmlns="http://www.w3.org/2000/svg" xmlns:xlink="http://www.w3.org/1999/xlink" x="0px" y="0px"
	 viewBox="0 0 400 400" enable-background="new 0 0 400 400" xml:space="preserve">
<polygon id="background-blue" fill="#2D327D" points="0,0 400,0 400,400 0,400 0,0 "/>
<g id="content">
	<path id="frameWhite" fill="#FFFFFF" d="M340,40c11,0,20,9,20,20v280c0,11-9,20-20,20H60c-11,0-20-9-20-20V60c0-11,9-20,20-20H340
		 M340,35H60c-13.785,0-25,11.215-25,25v280c0,13.785,11.215,25,25,25h280c13.785,0,25-11.215,25-25V60
		C365,46.215,353.785,35,340,35L340,35z"/>
	<polygon fill="#FFFFFF" points="320.008,79.997 320.008,85.011 80.001,106.02 80.001,100.994 320.008,79.997 	"/>
	<path fill="#FFFFFF" d="M209.233,277.583l50.302-4.408c-3.245,11.662-13.873,19.733-25.975,19.733
		C223.181,292.908,213.705,286.954,209.233,277.583L209.233,277.583z"/>
	<path fill="#FFFFFF" d="M152.425,135.98l52.496-36.707l58.082,27.038l-27.647,22.495l62.764-5.485
		c0.372-0.038,0.744-0.061,1.128-0.061c6.737,0,12.362,5.162,12.957,11.872l8.535,97.629c0.024,0.148,0.024,0.285,0.024,0.433
		c0,2.587-1.981,4.754-4.57,4.99L80.001,278.858v-57.233l54.897-4.791c2.589-0.236,4.56-2.403,4.56-4.99
		c0-0.148-0.014-0.284-0.014-0.433l-3.492-39.864c-0.224-2.576-2.378-4.556-4.979-4.556c-0.148,0-0.298,0-0.435,0.025l-50.537,4.42
		v-9.039l103.554-9.062L152.425,135.98L152.425,135.98z M272.443,159.613l3.48,39.85c0.224,2.587,2.391,4.568,4.98,4.568
		c0.148,0,0.284-0.012,0.434-0.024l21.417-1.869h0.012c2.575-0.236,4.558-2.39,4.558-4.991c0-0.147-0.013-0.284-0.013-0.432
		l-3.493-39.852c-0.223-2.574-2.391-4.554-4.98-4.554c-0.148,0-0.296,0-0.445,0.012l-21.403,1.881
		c-2.589,0.224-4.572,2.389-4.572,4.976C272.417,159.329,272.417,159.477,272.443,159.613L272.443,159.613z M248.151,163.241
		l4.98,56.786c0.334,3.875,3.58,6.846,7.469,6.846c4.138,0,7.496-3.355,7.496-7.49c0-0.223,0-0.446-0.026-0.669l-4.966-56.774
		c-0.348-3.874-3.58-6.846-7.469-6.846c-4.138,0-7.508,3.354-7.508,7.502C248.127,162.807,248.139,163.03,248.151,163.241
		L248.151,163.241z M224.246,165.332l4.979,56.787c0.334,3.876,3.568,6.847,7.47,6.847c4.138,0,7.493-3.355,7.493-7.502
		c0-0.224-0.013-0.433-0.025-0.656l-4.98-56.775c-0.323-3.876-3.568-6.847-7.456-6.847c-4.15,0-7.506,3.356-7.506,7.504
		C224.221,164.912,224.233,165.122,224.246,165.332L224.246,165.332z M246.17,128.403l-40.357-18.779l-36.455,25.501l30.175,16.813
		l19.844-1.733L246.17,128.403L246.17,128.403z M149.466,165.358c-2.589,0.222-4.558,2.39-4.558,4.977c0,0.148,0,0.296,0.012,0.444
		l3.494,39.84c0.222,2.587,2.377,4.568,4.979,4.568c0.149,0,0.298,0,0.434-0.025l60.275-5.273c2.575-0.224,4.558-2.39,4.558-4.977
		c0-0.149-0.013-0.297-0.013-0.433l-3.493-39.851c-0.224-2.587-2.378-4.568-4.98-4.568c-0.148,0-0.296,0.012-0.433,0.024
		L149.466,165.358L149.466,165.358z"/>
	<path fill="#FFFFFF" d="M149.454,282.805l50.315-4.394c-3.246,11.662-13.874,19.734-25.989,19.734
		C163.402,298.146,153.938,292.179,149.454,282.805L149.454,282.805z"/>
	<polygon fill="#FFFFFF" points="320.008,299 80.001,320.008 80.001,311.466 320.008,290.469 320.008,299 	"/>
</g>
</svg>
