<?xml version="1.0" encoding="utf-8"?>
<!-- Generator: Adobe Illustrator 24.2.0, SVG Export Plug-In . SVG Version: 6.00 Build 0)  -->
<svg version="1.0" id="Ebene_1" xmlns="http://www.w3.org/2000/svg" xmlns:xlink="http://www.w3.org/1999/xlink" x="0px" y="0px"
	 viewBox="0 0 400 400" enable-background="new 0 0 400 400" xml:space="preserve">
<polygon id="background-blue" fill="#2D327D" points="0,0 400,0 400,400 0,400 0,0 "/>
<g id="content">
	<path id="frameWhite" fill="#FFFFFF" d="M340,40c11,0,20,9,20,20v280c0,11-9,20-20,20H60c-11,0-20-9-20-20V60c0-11,9-20,20-20H340
		 M340,35H60c-13.785,0-25,11.215-25,25v280c0,13.785,11.215,25,25,25h280c13.785,0,25-11.215,25-25V60
		C365,46.215,353.785,35,340,35L340,35z"/>
	<path fill="#FFFFFF" d="M84.999,268.597c0.41,0,0.816-0.052,1.212-0.152l0,0l230.001-57.498c2.226-0.555,3.786-2.556,3.786-4.851
		V91.288c0-6.073-4.926-11-10.997-11c-0.92,0-1.833,0.114-2.722,0.341l0,0L88.28,136.233c-4.871,1.244-8.28,5.633-8.28,10.659
		v116.703C80,266.355,82.239,268.597,84.999,268.597L84.999,268.597z M262.5,107.002c0-2.76,2.239-4.999,4.999-4.999h37.499
		c2.763,0,5.003,2.239,5.003,4.999v60c0,2.759-2.239,4.998-5.003,4.998H267.5c-2.76,0-4.999-2.239-4.999-4.998V107.002
		L262.5,107.002z M205.002,121.688c0-2.76,2.239-5.002,4.999-5.002h37.5c2.76,0,4.999,2.243,4.999,5.002v60
		c0,2.76-2.239,4.999-4.999,4.999h-37.5c-2.759,0-4.999-2.239-4.999-4.999V121.688L205.002,121.688z M147.499,136.333
		c0-2.759,2.239-5.002,5.001-5.002h37.501c2.76,0,4.999,2.243,4.999,5.002v60c0,2.76-2.239,4.999-4.999,4.999H152.5
		c-2.761,0-5.001-2.239-5.001-4.999V136.333L147.499,136.333z M89.999,151.002c0-2.76,2.24-5.002,4.999-5.002h37.5
		c2.761,0,5.003,2.243,5.003,5.002v59.996c0,2.759-2.241,5.002-5.003,5.002h-37.5c-2.759,0-4.999-2.243-4.999-5.002V151.002
		L89.999,151.002z"/>
	<polygon fill="#FFFFFF" points="319.999,249.69 80,309.69 80,320.002 319.999,260.002 319.999,249.69 	"/>
	<path fill="#FFFFFF" d="M135.713,271.98c0,8.003,6.498,14.501,14.501,14.501c8.005,0,14.501-6.498,14.501-14.501
		c0-8.006-6.496-14.5-14.501-14.5C142.211,257.48,135.713,263.974,135.713,271.98L135.713,271.98z"/>
	<path fill="#FFFFFF" d="M99.643,281.751c0,8.006,6.498,14.5,14.501,14.5c8.005,0,14.5-6.494,14.5-14.5
		c0-8.003-6.496-14.497-14.5-14.497C106.141,267.253,99.643,273.748,99.643,281.751L99.643,281.751z"/>
	<path fill="#FFFFFF" d="M234.908,247.172c0,8.006,6.494,14.501,14.501,14.501c8.002,0,14.499-6.494,14.499-14.501
		c0-8.003-6.498-14.501-14.499-14.501C241.402,232.671,234.908,239.169,234.908,247.172L234.908,247.172z"/>
	<path fill="#FFFFFF" d="M271.729,238.149c0,8.006,6.494,14.504,14.501,14.504c8.003,0,14.499-6.497,14.499-14.504
		c0-7.999-6.497-14.497-14.499-14.497C278.223,223.652,271.729,230.15,271.729,238.149L271.729,238.149z"/>
</g>
</svg>
