<?xml version="1.0" encoding="utf-8"?>
<!-- Generator: Adobe Illustrator 24.2.0, SVG Export Plug-In . SVG Version: 6.00 Build 0)  -->
<svg version="1.0" id="Ebene_1" xmlns="http://www.w3.org/2000/svg" xmlns:xlink="http://www.w3.org/1999/xlink" x="0px" y="0px"
	 viewBox="0 0 400 400" enable-background="new 0 0 400 400" xml:space="preserve">
<polygon id="background-blue" fill="#2D327D" points="400,0 0,0 0,400 400,400 400,0 "/>
<g id="content">
	<path id="frameWhite" fill="#FFFFFF" d="M340,40c11,0,20,9,20,20v280c0,11-9,20-20,20H60c-11,0-20-9-20-20V60c0-11,9-20,20-20H340
		 M340,35H60c-13.785,0-25,11.215-25,25v280c0,13.785,11.215,25,25,25h280c13.785,0,25-11.215,25-25V60
		C365,46.215,353.785,35,340,35L340,35z"/>
	<path fill="#FFFFFF" d="M315,268.597c2.759,0,4.999-2.243,4.999-5.003V146.892c0-5.026-3.409-9.415-8.28-10.659L93.718,80.629l0,0
		c-0.889-0.228-1.802-0.341-2.722-0.341c-6.07,0-10.997,4.927-10.997,11v114.808c0,2.294,1.561,4.296,3.786,4.851l230.001,57.498
		l0,0C314.184,268.545,314.59,268.597,315,268.597L315,268.597z M137.499,107.002v60c0,2.759-2.239,4.998-4.999,4.998H95
		c-2.763,0-5.002-2.239-5.002-4.998v-60c0-2.76,2.239-4.999,5.002-4.999h37.499C135.259,102.003,137.499,104.242,137.499,107.002
		L137.499,107.002z M194.997,121.688v60c0,2.76-2.239,4.999-4.999,4.999h-37.5c-2.76,0-4.999-2.239-4.999-4.999v-60
		c0-2.76,2.239-5.002,4.999-5.002h37.5C192.758,116.686,194.997,118.928,194.997,121.688L194.997,121.688z M252.499,136.333v60
		c0,2.76-2.239,4.999-5.001,4.999h-37.502c-2.759,0-4.999-2.239-4.999-4.999v-60c0-2.759,2.239-5.002,4.999-5.002h37.502
		C250.26,131.331,252.499,133.574,252.499,136.333L252.499,136.333z M310,151.002v59.996c0,2.759-2.24,5.002-4.999,5.002h-37.5
		c-2.762,0-5.003-2.243-5.003-5.002v-59.996c0-2.76,2.241-5.002,5.003-5.002h37.5C307.76,146,310,148.243,310,151.002L310,151.002z"
		/>
	<polygon fill="#FFFFFF" points="80,249.69 319.999,309.69 319.999,320.002 80,260.002 80,249.69 	"/>
	<path fill="#FFFFFF" d="M264.287,271.98c0,8.003-6.497,14.501-14.5,14.501c-8.005,0-14.501-6.498-14.501-14.501
		c0-8.006,6.496-14.5,14.501-14.5C257.789,257.48,264.287,263.974,264.287,271.98L264.287,271.98z"/>
	<path fill="#FFFFFF" d="M300.357,281.751c0,8.006-6.497,14.5-14.5,14.5c-8.005,0-14.5-6.494-14.5-14.5
		c0-8.003,6.495-14.497,14.5-14.497C293.859,267.253,300.357,273.748,300.357,281.751L300.357,281.751z"/>
	<path fill="#FFFFFF" d="M165.092,247.172c0,8.006-6.494,14.501-14.501,14.501c-8.002,0-14.499-6.494-14.499-14.501
		c0-8.003,6.498-14.501,14.499-14.501C158.598,232.671,165.092,239.169,165.092,247.172L165.092,247.172z"/>
	<path fill="#FFFFFF" d="M128.27,238.149c0,8.006-6.494,14.504-14.5,14.504c-8.003,0-14.499-6.497-14.499-14.504
		c0-7.999,6.497-14.497,14.499-14.497C121.777,223.652,128.27,230.15,128.27,238.149L128.27,238.149z"/>
</g>
</svg>
