<?xml version="1.0" encoding="utf-8"?>
<!-- Generator: Adobe Illustrator 29.6.1, SVG Export Plug-In . SVG Version: 9.03 Build 0)  -->
<svg version="1.0" xmlns="http://www.w3.org/2000/svg" xmlns:xlink="http://www.w3.org/1999/xlink" x="0px" y="0px"
	 viewBox="0 0 400 400" enable-background="new 0 0 400 400" xml:space="preserve">
<rect id="background-blue" fill="#2D327D" width="400" height="400"/>
<g id="content">
	<path id="frameWhite" fill="#FFFFFF" d="M340,40c11,0,20,9,20,20v280c0,11-9,20-20,20H60c-11,0-20-9-20-20V60c0-11,9-20,20-20H340
		 M340,35H60c-13.785,0-25,11.215-25,25v280c0,13.785,11.215,25,25,25h280c13.785,0,25-11.215,25-25V60
		C365,46.215,353.785,35,340,35L340,35z"/>
	<polygon fill="#FFFFFF" points="79.94,239.639 319.939,309.639 319.939,319.951 79.94,249.951 	"/>
	<path fill="#FFFFFF" d="M200.068,251.579c1.074,11.028,8.732,20.301,19.358,23.435c10.625,3.135,22.091-0.494,28.976-9.172
		l-48.33-14.263L200.068,251.579L200.068,251.579z"/>
	<path fill="#FFFFFF" d="M143.754,235.104c1.074,11.028,8.732,20.301,19.359,23.435c10.625,3.135,22.091-0.494,28.976-9.172
		l-48.33-14.262L143.754,235.104L143.754,235.104z"/>
	<path fill="#FFFFFF" d="M277.076,124.237l42.784,12.448v-11.039L162.365,79.82c-10.946-3.181-22.36,3.288-25.255,14.313
		l-20.835,79.346c-0.555,2.115-0.765,4.306-0.62,6.487l2.009,30.304c0.281,4.241,3.179,7.855,7.257,9.052L319.86,276.26v-41.34
		l-43.663-12.629c-2.167-0.627-3.659-2.611-3.659-4.867v-89.783C272.539,125.279,274.807,123.577,277.076,124.237z M192.009,193.224
		c0,2.361-2.264,4.063-4.532,3.407l-49.526-14.324c-6.649-1.923-10.522-8.827-8.699-15.504l18.935-69.338
		c1.492-5.462,7.169-8.641,12.605-7.06l27.565,8.02c2.163,0.629,3.651,2.612,3.651,4.865V193.224z M262.43,213.592
		c0,2.361-2.264,4.063-4.532,3.407l-52.123-15.076c-2.167-0.627-3.659-2.611-3.659-4.867v-89.903c0-2.363,2.268-4.065,4.537-3.405
		l52.125,15.166c2.163,0.629,3.651,2.612,3.651,4.865V213.592z"/>
</g>
</svg>
