<?xml version="1.0" encoding="utf-8"?>
<!-- Generator: Adobe Illustrator 29.6.1, SVG Export Plug-In . SVG Version: 9.03 Build 0)  -->
<svg version="1.0" xmlns="http://www.w3.org/2000/svg" xmlns:xlink="http://www.w3.org/1999/xlink" x="0px" y="0px"
	 viewBox="0 0 400 400" enable-background="new 0 0 400 400" xml:space="preserve">
<rect id="background-blue" fill="#2D327D" width="400" height="400"/>
<g id="content">
	<path id="frameWhite" fill="#FFFFFF" d="M340,40c11,0,20,9,20,20v280c0,11-9,20-20,20H60c-11,0-20-9-20-20V60c0-11,9-20,20-20H340
		 M340,35H60c-13.785,0-25,11.215-25,25v280c0,13.785,11.215,25,25,25h280c13.785,0,25-11.215,25-25V60
		C365,46.215,353.785,35,340,35L340,35z"/>
	<polygon fill="#FFFFFF" points="319.939,249.951 79.94,319.951 79.94,309.639 319.939,239.639 	"/>
	<path fill="#FFFFFF" d="M199.812,251.579l-0.004,0.001l-48.33,14.263c6.885,8.678,18.351,12.307,28.976,9.172
		C191.079,271.88,198.738,262.607,199.812,251.579L199.812,251.579z"/>
	<path fill="#FFFFFF" d="M256.126,235.104l-0.004,0.001l-48.33,14.262c6.885,8.678,18.351,12.307,28.976,9.172
		C247.393,255.405,255.052,246.132,256.126,235.104L256.126,235.104z"/>
	<path fill="#FFFFFF" d="M283.605,173.479L262.77,94.133c-2.895-11.025-14.31-17.494-25.255-14.313L80.02,125.646v11.039
		l42.784-12.448c2.269-0.66,4.537,1.042,4.537,3.405v89.783c0,2.256-1.492,4.24-3.659,4.867L80.02,234.92v41.34l194.939-56.938
		c4.078-1.197,6.976-4.811,7.257-9.052l2.009-30.304C284.37,177.784,284.16,175.593,283.605,173.479z M197.763,197.057
		c0,2.256-1.492,4.24-3.659,4.867l-52.123,15.076c-2.268,0.656-4.532-1.046-4.532-3.407v-89.814c0-2.253,1.488-4.235,3.651-4.865
		l52.125-15.166c2.269-0.66,4.537,1.042,4.537,3.405V197.057z M261.929,182.306l-49.526,14.324
		c-2.268,0.656-4.532-1.046-4.532-3.407v-89.935c0-2.253,1.488-4.235,3.651-4.865l27.565-8.02c5.436-1.582,11.114,1.598,12.605,7.06
		l18.935,69.338C272.451,173.479,268.577,180.383,261.929,182.306z"/>
</g>
</svg>
