<?xml version="1.0" encoding="utf-8"?>
<!-- Generator: Adobe Illustrator 29.6.1, SVG Export Plug-In . SVG Version: 9.03 Build 0)  -->
<svg version="1.0" xmlns="http://www.w3.org/2000/svg" xmlns:xlink="http://www.w3.org/1999/xlink" x="0px" y="0px"
	 viewBox="0 0 400 400" enable-background="new 0 0 400 400" xml:space="preserve">
<rect id="background-blue" fill="#2D327D" width="400" height="400"/>
<g id="content">
	<path id="frameWhite" fill="#FFFFFF" d="M340,40c11,0,20,9,20,20v280c0,11-9,20-20,20H60c-11,0-20-9-20-20V60c0-11,9-20,20-20H340
		 M340,35H60c-13.785,0-25,11.215-25,25v280c0,13.785,11.215,25,25,25h280c13.785,0,25-11.215,25-25V60
		C365,46.215,353.785,35,340,35L340,35z"/>
	<path fill="#FFFFFF" d="M156.988,111.676c-0.527,0.093-1.061,0.141-1.595,0.142c-5.105,0-9.25-4.145-9.25-9.25
		c0-4.492,3.228-8.337,7.655-9.112l86.187-15.098c0.527-0.092,1.06-0.14,1.595-0.14c5.105,0,9.25,4.144,9.25,9.252
		c0,4.49-3.229,8.335-7.652,9.11L156.988,111.676L156.988,111.676z"/>
	<polygon fill="#FFFFFF" points="79.963,140.213 319.965,98.172 319.965,89.036 79.963,131.076 	"/>
	<path fill="#FFFFFF" d="M303.077,195.011c-1.775-3.108-5.089-5.011-8.667-5.011H105.593c-3.572,0-6.88,1.896-8.658,4.994
		C91.31,204.797,79.928,227.972,79.928,255c0,27.028,11.382,50.203,17.008,60.006c1.778,3.098,5.086,4.994,8.658,4.994h188.816
		c3.579,0,6.892-1.904,8.667-5.011C308.681,305.176,320,282.012,320,255C320,227.988,308.681,204.824,303.077,195.011z
		 M156.964,274.999c0,2.761-2.239,5-5,5H96.951c-2.387,0-4.422-1.69-4.906-4.027c-1.339-6.463-2.081-13.543-2.081-20.972
		c0-24.498,9.914-45.255,13.751-52.37c0.874-1.621,2.561-2.628,4.402-2.628h43.847c2.761,0,5,2.239,5,5V274.999z M232.964,274.999
		c0,2.761-2.239,5-5,5h-56c-2.761,0-5-2.239-5-5v-69.998c0-2.761,2.239-5,5-5h56c2.761,0,5,2.239,5,5V274.999z M302.77,279.999
		h-54.806c-2.761,0-5-2.239-5-5v-69.998c0-2.761,2.239-5,5-5h43.273c1.821,0,3.493,0.988,4.376,2.581
		c3.919,7.07,14.143,27.865,14.143,52.418c0,7.429-0.742,14.509-2.081,20.972C307.192,278.309,305.156,279.999,302.77,279.999z"/>
	<polygon fill="#FFFFFF" points="204.919,123.524 240.223,185.225 255.673,185.225 218.95,121.043 	"/>
	<polygon fill="#FFFFFF" points="176.848,128.435 144.355,185.225 159.805,185.225 194.038,125.396 	"/>
</g>
</svg>
