<?xml version="1.0" encoding="utf-8"?>
<!-- Generator: Adobe Illustrator 24.2.0, SVG Export Plug-In . SVG Version: 6.00 Build 0)  -->
<svg version="1.0" id="Ebene_1" xmlns="http://www.w3.org/2000/svg" xmlns:xlink="http://www.w3.org/1999/xlink" x="0px" y="0px"
	 viewBox="0 0 400 400" enable-background="new 0 0 400 400" xml:space="preserve">
<polygon id="background-blue" fill="#2D327D" points="400,0 0,0 0,400 400,400 400,0 "/>
<g id="content">
	<path id="frameWhite" fill="#FFFFFF" d="M340,40c11,0,20,9,20,20v280c0,11-9,20-20,20H60c-11,0-20-9-20-20V60c0-11,9-20,20-20H340
		 M340,35H60c-13.785,0-25,11.215-25,25v280c0,13.785,11.215,25,25,25h280c13.785,0,25-11.215,25-25V60
		C365,46.215,353.785,35,340,35L340,35z"/>
	<g>
		<path fill="#FFFFFF" d="M157.015,112.507l86.19-15.096c4.423-0.775,7.652-4.62,7.652-9.11c0-5.108-4.145-9.252-9.25-9.252
			c-0.535,0-1.068,0.048-1.595,0.14l-86.187,15.098c-4.427,0.775-7.655,4.62-7.655,9.112c0,5.105,4.145,9.25,9.25,9.25
			C155.954,112.648,156.488,112.6,157.015,112.507L157.015,112.507z"/>
		<polygon fill="#FFFFFF" points="79.99,140.213 319.992,98.172 319.992,89.036 79.99,131.076 79.99,140.213 		"/>
		<path fill="#FFFFFF" d="M309.999,190.001H260.5l-37.037-69.872l-13.98,2.446l35.739,67.426h-89.942l33.177-63.743l-17.363,3.043
			l-31.595,60.701H90.001c-5.519,0-10.001,4.479-10.001,10.002v109.997C80,315.522,84.482,320,90.001,320h219.998
			c5.519,0,10.001-4.478,10.001-10.001V200.002C320,194.48,315.518,190.001,309.999,190.001L309.999,190.001z M156.669,255.002
			c0,2.757-2.239,4.999-4.999,4.999H94.999c-2.759,0-4.998-2.242-4.998-4.999v-50.001c0-2.759,2.239-4.999,4.998-4.999h56.671
			c2.759,0,4.999,2.239,4.999,4.999V255.002L156.669,255.002z M233.337,255.002c0,2.757-2.243,4.999-5.002,4.999h-56.668
			c-2.76,0-5.002-2.242-5.002-4.999v-50.001c0-2.759,2.243-4.999,5.002-4.999h56.668c2.759,0,5.002,2.239,5.002,4.999V255.002
			L233.337,255.002z M309.999,255.002c0,2.757-2.239,4.999-4.999,4.999h-56.671c-2.759,0-4.999-2.242-4.999-4.999v-50.001
			c0-2.759,2.24-4.999,4.999-4.999H305c2.759,0,4.999,2.239,4.999,4.999V255.002L309.999,255.002z"/>
	</g>
</g>
</svg>
