<?xml version="1.0" encoding="utf-8"?>
<!-- Generator: Adobe Illustrator 24.2.0, SVG Export Plug-In . SVG Version: 6.00 Build 0)  -->
<svg version="1.0" id="Ebene_1" xmlns="http://www.w3.org/2000/svg" xmlns:xlink="http://www.w3.org/1999/xlink" x="0px" y="0px"
	 viewBox="0 0 400 400" enable-background="new 0 0 400 400" xml:space="preserve">
<polygon id="background-blue" fill="#2D327D" points="400,0 0,0 0,400 400,400 400,0 "/>
<g id="content">
	<path id="frameWhite" fill="#FFFFFF" d="M340,40c11,0,20,9,20,20v280c0,11-9,20-20,20H60c-11,0-20-9-20-20V60c0-11,9-20,20-20H340
		 M340,35H60c-13.785,0-25,11.215-25,25v280c0,13.785,11.215,25,25,25h280c13.785,0,25-11.215,25-25V60
		C365,46.215,353.785,35,340,35L340,35z"/>
	<path fill="#FFFFFF" d="M242.985,112.507l-86.19-15.096c-4.423-0.775-7.652-4.62-7.652-9.11c0-5.108,4.145-9.252,9.25-9.252
		c0.535,0,1.068,0.048,1.595,0.14l86.187,15.098c4.427,0.775,7.655,4.62,7.655,9.112c0,5.105-4.145,9.25-9.25,9.25
		C244.046,112.648,243.512,112.6,242.985,112.507L242.985,112.507z"/>
	<polygon fill="#FFFFFF" points="320.01,140.213 80.008,98.172 80.008,89.036 320.01,131.076 320.01,140.213 	"/>
	<path fill="#FFFFFF" d="M90.001,190.001c-5.519,0-10.001,4.479-10.001,10.002v109.997C80,315.522,84.482,320,90.001,320h219.998
		c5.519,0,10.001-4.478,10.001-10.001V200.002c0-5.523-4.482-10.002-10.001-10.002H260.5L228.905,129.3l-17.363-3.043l33.177,63.743
		h-89.942l35.739-67.426l-13.98-2.446l-37.037,69.872H90.001L90.001,190.001z M243.331,255.002v-50.001
		c0-2.759,2.239-4.999,4.999-4.999H305c2.759,0,4.999,2.239,4.999,4.999v50.001c0,2.757-2.239,4.999-4.999,4.999h-56.671
		C245.57,260.001,243.331,257.759,243.331,255.002L243.331,255.002z M166.663,255.002v-50.001c0-2.759,2.243-4.999,5.002-4.999
		h56.668c2.76,0,5.002,2.239,5.002,4.999v50.001c0,2.757-2.243,4.999-5.002,4.999h-56.668
		C168.906,260.001,166.663,257.759,166.663,255.002L166.663,255.002z M90.001,255.002v-50.001c0-2.759,2.239-4.999,4.998-4.999
		h56.671c2.759,0,4.999,2.239,4.999,4.999v50.001c0,2.757-2.24,4.999-4.999,4.999H94.999
		C92.24,260.001,90.001,257.759,90.001,255.002L90.001,255.002z"/>
</g>
</svg>
