<?xml version="1.0" encoding="utf-8"?>
<!-- Generator: Adobe Illustrator 29.6.1, SVG Export Plug-In . SVG Version: 9.03 Build 0)  -->
<svg version="1.0" xmlns="http://www.w3.org/2000/svg" xmlns:xlink="http://www.w3.org/1999/xlink" x="0px" y="0px"
	 viewBox="0 0 400 400" enable-background="new 0 0 400 400" xml:space="preserve">
<rect id="background-blue" fill="#2D327D" width="400" height="400"/>
<g id="content">
	<path id="frameWhite" fill="#FFFFFF" d="M340,40c11,0,20,9,20,20v280c0,11-9,20-20,20H60c-11,0-20-9-20-20V60c0-11,9-20,20-20H340
		 M340,35H60c-13.785,0-25,11.215-25,25v280c0,13.785,11.215,25,25,25h280c13.785,0,25-11.215,25-25V60
		C365,46.215,353.785,35,340,35L340,35z"/>
	<path fill="#FFFFFF" d="M242.94,111.676L156.75,96.58c-4.423-0.775-7.652-4.62-7.652-9.11c0-5.108,4.145-9.252,9.25-9.252
		c0.535,0,1.068,0.048,1.595,0.14l86.187,15.098c4.427,0.775,7.655,4.62,7.655,9.112c0,5.105-4.145,9.25-9.25,9.25
		C244.001,111.817,243.467,111.769,242.94,111.676L242.94,111.676z"/>
	<polygon fill="#FFFFFF" points="319.965,131.076 79.963,89.036 79.963,98.172 319.965,140.213 	"/>
	<path fill="#FFFFFF" d="M302.992,194.994c-1.778-3.098-5.086-4.994-8.658-4.994H105.519c-3.579,0-6.892,1.904-8.667,5.011
		c-5.604,9.813-16.923,32.976-16.923,59.989c0,27.012,11.319,50.176,16.923,59.989c1.775,3.108,5.089,5.011,8.667,5.011h188.816
		c3.572,0,6.88-1.896,8.658-4.994C308.618,305.203,320,282.028,320,255C320,227.972,308.618,204.797,302.992,194.994z
		 M156.964,274.999c0,2.761-2.239,5-5,5H97.158c-2.387,0-4.422-1.69-4.906-4.027c-1.339-6.463-2.081-13.543-2.081-20.972
		c0-24.553,10.224-45.348,14.143-52.418c0.883-1.593,2.555-2.581,4.376-2.581h43.273c2.761,0,5,2.239,5,5V274.999z M232.964,274.999
		c0,2.761-2.239,5-5,5h-56c-2.761,0-5-2.239-5-5v-69.998c0-2.761,2.239-5,5-5h56c2.761,0,5,2.239,5,5V274.999z M302.977,279.999
		h-55.013c-2.761,0-5-2.239-5-5v-69.998c0-2.761,2.239-5,5-5h43.847c1.841,0,3.529,1.008,4.402,2.628
		c3.836,7.115,13.751,27.872,13.751,52.37c0,7.429-0.742,14.509-2.081,20.972C307.399,278.309,305.364,279.999,302.977,279.999z"/>
	<polygon fill="#FFFFFF" points="180.978,121.043 144.255,185.225 159.705,185.225 195.008,123.524 	"/>
	<polygon fill="#FFFFFF" points="205.89,125.396 240.123,185.225 255.573,185.225 223.08,128.435 	"/>
</g>
</svg>
