<?xml version="1.0" encoding="utf-8"?>
<!-- Generator: Adobe Illustrator 29.6.1, SVG Export Plug-In . SVG Version: 9.03 Build 0)  -->
<svg version="1.0" xmlns="http://www.w3.org/2000/svg" xmlns:xlink="http://www.w3.org/1999/xlink" x="0px" y="0px"
	 viewBox="0 0 400 400" enable-background="new 0 0 400 400" xml:space="preserve">
<rect id="background-blue" fill="#2D327D" width="400" height="400"/>
<g id="content">
	<path id="frameWhite" fill="#FFFFFF" d="M340,40c11,0,20,9,20,20v280c0,11-9,20-20,20H60c-11,0-20-9-20-20V60c0-11,9-20,20-20H340
		 M340,35H60c-13.785,0-25,11.215-25,25v280c0,13.785,11.215,25,25,25h280c13.785,0,25-11.215,25-25V60
		C365,46.215,353.785,35,340,35L340,35z"/>
	<polygon fill="#FFFFFF" points="249.871,108.18 249.871,117.305 79.871,89.132 79.871,79.997 	"/>
	<path fill="#FFFFFF" d="M303.205,195.014c-1.775-3.108-5.089-5.011-8.667-5.011h-78.816c-3.572,0-6.88,1.896-8.657,4.994
		c-5.625,9.803-17.008,32.978-17.008,60.006s11.382,50.203,17.008,60.006c1.778,3.098,5.086,4.994,8.657,4.994h78.816
		c3.579,0,6.893-1.904,8.667-5.011c5.604-9.813,16.923-32.977,16.923-59.989C320.129,227.99,308.809,204.826,303.205,195.014z
		 M302.846,279.876h-95.819c-2.387,0-4.422-1.689-4.906-4.026c-1.338-6.46-2.081-13.535-2.081-20.961
		c0-24.486,9.914-45.233,13.75-52.345c0.874-1.62,2.561-2.628,4.402-2.628h73.122c1.821,0,3.493,0.988,4.376,2.58
		c3.92,7.067,14.143,27.852,14.143,52.392c0,7.425-0.742,14.501-2.081,20.961C307.268,278.187,305.233,279.876,302.846,279.876z"/>
	<path fill="#FFFFFF" d="M224.675,184.767h22.683c9.649,0,17.499-7.85,17.499-17.499v-67.224h-10v67.224
		c0,4.135-3.364,7.499-7.499,7.499h-22.683V184.767z"/>
	<polygon fill="#FFFFFF" points="269.871,121.029 319.871,129.118 319.871,120.006 269.871,111.905 	"/>
</g>
</svg>
