<?xml version="1.0" encoding="utf-8"?>
<!-- Generator: Adobe Illustrator 24.2.0, SVG Export Plug-In . SVG Version: 6.00 Build 0)  -->
<svg version="1.0" id="Ebene_1" xmlns="http://www.w3.org/2000/svg" xmlns:xlink="http://www.w3.org/1999/xlink" x="0px" y="0px"
	 viewBox="0 0 400 400" enable-background="new 0 0 400 400" xml:space="preserve">
<polygon id="background-blue" fill="#2D327D" points="400,0 0,0 0,400 400,400 400,0 "/>
<g id="content">
	<path id="frameWhite" fill="#FFFFFF" d="M340,40c11,0,20,9,20,20v280c0,11-9,20-20,20H60c-11,0-20-9-20-20V60c0-11,9-20,20-20H340
		 M340,35H60c-13.785,0-25,11.215-25,25v280c0,13.785,11.215,25,25,25h280c13.785,0,25-11.215,25-25V60
		C365,46.215,353.785,35,340,35L340,35z"/>
	<polygon fill="#FFFFFF" points="289.504,114.918 320,120.004 320,129.116 289.504,124.042 289.504,114.918 	"/>
	<polygon fill="#FFFFFF" points="270.5,111.752 270.5,120.877 80,89.135 80,80 270.5,111.752 	"/>
	<path fill="#FFFFFF" d="M250.008,190.015c-5.525,0-10.008,4.482-10.008,10v58.019c0,1.312,0.124,2.625,0.396,3.911l9.995,50.022
		c0.942,4.68,5.042,8.033,9.809,8.033h39.599c4.768,0,8.879-3.353,9.808-8.033l10.007-50.022c0.248-1.286,0.386-2.599,0.386-3.911
		v-58.019c0-5.518-4.472-10-9.997-10H284.5v-86.997h-9.003v86.997H250.008L250.008,190.015z M250.008,255.015v-49.997
		c0-2.76,2.228-5.003,4.991-5.003h50.003c2.749,0,4.991,2.243,4.991,5.003v49.997c0,2.761-2.242,4.988-4.991,4.988h-50.003
		C252.236,260.002,250.008,257.775,250.008,255.015L250.008,255.015z"/>
</g>
</svg>
