<?xml version="1.0" encoding="utf-8"?>
<!-- Generator: Adobe Illustrator 29.6.1, SVG Export Plug-In . SVG Version: 9.03 Build 0)  -->
<svg version="1.0" xmlns="http://www.w3.org/2000/svg" xmlns:xlink="http://www.w3.org/1999/xlink" x="0px" y="0px"
	 viewBox="0 0 400 400" enable-background="new 0 0 400 400" xml:space="preserve">
<rect id="background-blue" fill="#2D327D" width="400" height="400"/>
<g id="content">
	<path id="frameWhite" fill="#FFFFFF" d="M340,40c11,0,20,9,20,20v280c0,11-9,20-20,20H60c-11,0-20-9-20-20V60c0-11,9-20,20-20H340
		 M340,35H60c-13.785,0-25,11.215-25,25v280c0,13.785,11.215,25,25,25h280c13.785,0,25-11.215,25-25V60
		C365,46.215,353.785,35,340,35L340,35z"/>
	<polygon fill="#FFFFFF" points="320.129,79.997 320.129,89.132 150.129,117.305 150.129,108.18 	"/>
	<path fill="#FFFFFF" d="M192.935,194.997c-1.778-3.098-5.086-4.994-8.657-4.994h-78.816c-3.579,0-6.893,1.904-8.667,5.011
		c-5.604,9.813-16.923,32.976-16.923,59.989c0,27.012,11.319,50.176,16.923,59.989c1.775,3.108,5.089,5.011,8.667,5.011h78.816
		c3.572,0,6.88-1.896,8.657-4.994c5.625-9.803,17.008-32.978,17.008-60.006S198.561,204.8,192.935,194.997z M192.973,279.876H97.154
		c-2.387,0-4.422-1.689-4.906-4.026c-1.338-6.46-2.081-13.535-2.081-20.961c0-24.541,10.223-45.325,14.143-52.392
		c0.883-1.593,2.555-2.58,4.376-2.58h73.122c1.841,0,3.528,1.007,4.402,2.628c3.836,7.112,13.75,27.859,13.75,52.345
		c0,7.425-0.742,14.501-2.081,20.961C197.395,278.187,195.36,279.876,192.973,279.876z"/>
	<path fill="#FFFFFF" d="M175.325,174.767h-22.683c-4.135,0-7.499-3.364-7.499-7.499v-67.224h-10v67.224
		c0,9.649,7.85,17.499,17.499,17.499h22.683V174.767z"/>
	<polygon fill="#FFFFFF" points="130.129,111.905 80.129,120.006 80.129,129.118 130.129,121.029 	"/>
</g>
</svg>
