<?xml version="1.0" encoding="utf-8"?>
<!-- Generator: Adobe Illustrator 24.2.0, SVG Export Plug-In . SVG Version: 6.00 Build 0)  -->
<svg version="1.0" id="Ebene_1" xmlns="http://www.w3.org/2000/svg" xmlns:xlink="http://www.w3.org/1999/xlink" x="0px" y="0px"
	 viewBox="0 0 400 400" enable-background="new 0 0 400 400" xml:space="preserve">
<polygon id="background-blue" fill="#2D327D" points="0,0 400,0 400,400 0,400 0,0 "/>
<g id="content">
	<path id="frameWhite" fill="#FFFFFF" d="M340,40c11,0,20,9,20,20v280c0,11-9,20-20,20H60c-11,0-20-9-20-20V60c0-11,9-20,20-20H340
		 M340,35H60c-13.785,0-25,11.215-25,25v280c0,13.785,11.215,25,25,25h280c13.785,0,25-11.215,25-25V60
		C365,46.215,353.785,35,340,35L340,35z"/>
	<polygon fill="#FFFFFF" points="110.496,114.918 80,120.004 80,129.116 110.496,124.042 110.496,114.918 	"/>
	<polygon fill="#FFFFFF" points="129.5,111.747 129.5,120.872 320,89.13 320,79.995 129.5,111.747 	"/>
	<path fill="#FFFFFF" d="M149.993,190.015h-25.491v-86.997h-9.003v86.997H89.997c-5.526,0-9.997,4.482-9.997,10v58.019
		c0,1.312,0.138,2.625,0.386,3.911l10.007,50.022c0.929,4.68,5.04,8.033,9.808,8.033H139.8c4.767,0,8.867-3.353,9.809-8.033
		l9.995-50.022c0.272-1.286,0.396-2.599,0.396-3.911v-58.019C160,194.497,155.517,190.015,149.993,190.015L149.993,190.015z
		 M149.993,255.015c0,2.761-2.229,4.988-4.992,4.988H94.999c-2.749,0-4.991-2.227-4.991-4.988v-49.997
		c0-2.76,2.242-5.003,4.991-5.003h50.002c2.763,0,4.992,2.243,4.992,5.003V255.015L149.993,255.015z"/>
</g>
</svg>
