<?xml version="1.0" encoding="utf-8"?>
<!-- Generator: Adobe Illustrator 24.2.0, SVG Export Plug-In . SVG Version: 6.00 Build 0)  -->
<svg version="1.0" id="Ebene_1" xmlns="http://www.w3.org/2000/svg" xmlns:xlink="http://www.w3.org/1999/xlink" x="0px" y="0px"
	 viewBox="0 0 400 400" enable-background="new 0 0 400 400" xml:space="preserve">
<polygon id="background-blue" fill="#2D327D" points="400,0 0,0 0,400 400,400 400,0 "/>
<g id="content">
	<path id="frameWhite" fill="#FFFFFF" d="M340,40c11,0,20,9,20,20v280c0,11-9,20-20,20H60c-11,0-20-9-20-20V60c0-11,9-20,20-20H340
		 M340,35H60c-13.785,0-25,11.215-25,25v280c0,13.785,11.215,25,25,25h280c13.785,0,25-11.215,25-25V60
		C365,46.215,353.785,35,340,35L340,35z"/>
	<polygon fill="#FFFFFF" points="149.5,108.421 320.001,79.999 320.001,89.122 149.5,117.546 149.5,108.421 	"/>
	<polygon fill="#FFFFFF" points="125.486,112.421 125.486,121.544 80,129.133 80,119.997 125.486,112.421 	"/>
	<path fill="#FFFFFF" d="M102.994,267.007v-49.458c0-8.268,6.729-14.991,15-14.991c4.868,0,9.425,2.353,12.24,6.327l24.784,34.961
		c0.806,1.151,1.24,2.512,1.24,3.91c0,3.729-3.025,6.76-6.739,6.76c-2.194,0-4.251-1.077-5.512-2.859l-10.021-14.126v20.97h27.499
		c5.536,0,10.008,4.482,10.008,10.005v42.251c0,5.113-4.137,9.248-9.253,9.248c-5.092,0-9.24-4.135-9.24-9.248v-33.747h-39.998
		C107.48,277.009,102.994,272.516,102.994,267.007L102.994,267.007z"/>
	<polygon fill="#FFFFFF" points="130.984,100 143.989,100 143.989,152.414 92.995,160.92 92.995,286.995 143.989,286.995 
		143.989,299.994 80,299.994 80,149.902 130.984,141.41 130.984,100 	"/>
	<path fill="#FFFFFF" d="M119.817,197.036c-7.731,0-13.998-6.277-13.998-14.001c0-7.737,6.267-14.003,13.998-14.003
		c7.728,0,13.997,6.265,13.997,14.003C133.814,190.759,127.544,197.036,119.817,197.036L119.817,197.036z"/>
</g>
</svg>
