<?xml version="1.0" encoding="utf-8"?>
<!-- Generator: Adobe Illustrator 29.6.1, SVG Export Plug-In . SVG Version: 9.03 Build 0)  -->
<svg version="1.0" xmlns="http://www.w3.org/2000/svg" xmlns:xlink="http://www.w3.org/1999/xlink" x="0px" y="0px"
	 viewBox="0 0 400 400" enable-background="new 0 0 400 400" xml:space="preserve">
<rect id="background-blue" fill="#2D327D" width="400" height="400"/>
<g id="content">
	<path id="frameWhite" fill="#FFFFFF" d="M340,40c11,0,20,9,20,20v280c0,11-9,20-20,20H60c-11,0-20-9-20-20V60c0-11,9-20,20-20H340
		 M340,35H60c-13.785,0-25,11.215-25,25v280c0,13.785,11.215,25,25,25h280c13.785,0,25-11.215,25-25V60
		C365,46.215,353.785,35,340,35L340,35z"/>
	<path fill="#FFFFFF" d="M123.829,199.303c-7.731,0-13.998-6.277-13.998-14.001c0-7.737,6.267-14.003,13.998-14.003
		c7.728,0,13.997,6.265,13.997,14.003C137.826,193.026,131.556,199.303,123.829,199.303L123.829,199.303z"/>
	<path fill="#FFFFFF" d="M116.943,300.027c-7.471,0-13.96-5.309-15.438-12.636L80.098,180.46c-1.453-7.205,2.12-14.555,8.689-17.867
		l0.1-0.049l57.09-27.198c2.581-1.321,4.022-3.937,4.022-6.839V95h10v33.507c0,6.717-3.566,12.768-9.564,15.791l-0.1,0.049
		l-57.089,27.197c-2.534,1.301-3.908,4.15-3.344,6.946l21.407,106.931c0.538,2.668,2.907,4.606,5.634,4.606c0.004,0,0.008,0,0.013,0
		l43.193-0.09l0.021,10l-43.192,0.09C116.966,300.027,116.955,300.027,116.943,300.027z"/>
	<polygon fill="#FFFFFF" points="165,105.051 165,114.176 319.992,89.373 319.992,80.25 	"/>
	<polygon fill="#FFFFFF" points="145,108.656 79.991,120.248 79.991,129.384 145,117.782 	"/>
	<path fill="#FFFFFF" d="M187.95,271.04c-0.077-5.522-4.611-9.942-10.147-9.864c0,0-26.788,0.043-29.36,0.029
		c-0.019-0.104-0.025-0.208-0.046-0.312l-5.442-27.236l16.183,14.411c1.334,1.188,2.997,1.772,4.653,1.772
		c1.928,0,3.847-0.792,5.23-2.345c2.571-2.887,2.315-7.312-0.572-9.883c0,0-34.109-30.365-34.154-30.402
		c-3.412-2.878-8.048-4.24-12.766-3.297h0c-8.223,1.643-13.556,9.641-11.913,17.863l9.749,48.386
		c1.358,5.827,6.028,9.675,12.325,9.587c0,0,38-0.025,38,0c0,0-0.009,31.47-0.009,31.613c0,5.061,4.103,9.164,9.164,9.164
		c5.061,0,9.164-4.103,9.164-9.164C188.01,311.203,187.95,271.04,187.95,271.04z"/>
</g>
</svg>
