<?xml version="1.0" encoding="utf-8"?>
<!-- Generator: Adobe Illustrator 24.2.0, SVG Export Plug-In . SVG Version: 6.00 Build 0)  -->
<svg version="1.0" id="Ebene_1" xmlns="http://www.w3.org/2000/svg" xmlns:xlink="http://www.w3.org/1999/xlink" x="0px" y="0px"
	 viewBox="0 0 400 400" enable-background="new 0 0 400 400" xml:space="preserve">
<polygon id="background-blue" fill="#2D327D" points="400,0 0,0 0,400 400,400 400,0 "/>
<g id="content">
	<path id="frameWhite" fill="#FFFFFF" d="M340,40c11,0,20,9,20,20v280c0,11-9,20-20,20H60c-11,0-20-9-20-20V60c0-11,9-20,20-20H340
		 M340,35H60c-13.785,0-25,11.215-25,25v280c0,13.785,11.215,25,25,25h280c13.785,0,25-11.215,25-25V60
		C365,46.215,353.785,35,340,35L340,35z"/>
	<polygon fill="#FFFFFF" points="250.5,108.421 79.998,79.999 79.998,89.122 250.5,117.546 250.5,108.421 	"/>
	<polygon fill="#FFFFFF" points="274.514,112.421 274.514,121.544 320,129.133 320,119.997 274.514,112.421 	"/>
	<path fill="#FFFFFF" d="M297.006,267.007v-49.458c0-8.268-6.728-14.991-15-14.991c-4.868,0-9.425,2.353-12.24,6.327l-24.785,34.961
		c-0.806,1.151-1.24,2.512-1.24,3.91c0,3.729,3.025,6.76,6.739,6.76c2.195,0,4.252-1.077,5.512-2.859l10.022-14.126v20.97h-27.499
		c-5.536,0-10.008,4.482-10.008,10.005v42.251c0,5.113,4.138,9.248,9.253,9.248c5.092,0,9.241-4.135,9.241-9.248v-33.747h39.997
		C292.521,277.009,297.006,272.516,297.006,267.007L297.006,267.007z"/>
	<polygon fill="#FFFFFF" points="269.016,100 256.01,100 256.01,152.414 307.005,160.92 307.005,286.995 256.01,286.995 
		256.01,299.994 320,299.994 320,149.902 269.016,141.41 269.016,100 	"/>
	<path fill="#FFFFFF" d="M280.183,197.036c7.73,0,13.998-6.277,13.998-14.001c0-7.737-6.268-14.003-13.998-14.003
		c-7.727,0-13.997,6.265-13.997,14.003C266.186,190.759,272.456,197.036,280.183,197.036L280.183,197.036z"/>
</g>
</svg>
