<?xml version="1.0" encoding="utf-8"?>
<!-- Generator: Adobe Illustrator 24.2.0, SVG Export Plug-In . SVG Version: 6.00 Build 0)  -->
<svg version="1.0" id="Ebene_1" xmlns="http://www.w3.org/2000/svg" xmlns:xlink="http://www.w3.org/1999/xlink" x="0px" y="0px"
	 viewBox="0 0 400 400" enable-background="new 0 0 400 400" xml:space="preserve">
<polygon id="background-blue" fill="#2D327D" points="400,0 0,0 0,400 400,400 400,0 "/>
<g id="content">
	<path id="frameWhite" fill="#FFFFFF" d="M340,40c11,0,20,9,20,20v280c0,11-9,20-20,20H60c-11,0-20-9-20-20V60c0-11,9-20,20-20H340
		 M340,35H60c-13.785,0-25,11.215-25,25v280c0,13.785,11.215,25,25,25h280c13.785,0,25-11.215,25-25V60
		C365,46.215,353.785,35,340,35L340,35z"/>
	<polygon fill="#FFFFFF" points="216.455,167.884 128.584,80 115.145,80 209.74,174.593 216.455,167.884 	"/>
	<path fill="#FFFFFF" d="M255.002,136.412l-43.701,43.711c-1.374,1.35-2.129,3.207-2.129,5.126c0,3.998,3.246,7.242,7.259,7.242
		c1.907,0,3.751-0.754,5.116-2.117l33.455-33.45V136.412L255.002,136.412z"/>
	<polygon fill="#FFFFFF" points="243.481,208.324 250.196,201.615 233.783,185.211 227.069,191.922 243.481,208.324 	"/>
	<path fill="#FFFFFF" d="M318.552,154.534l-28.229-28.238c-3.345-3.329-7.853-5.198-12.561-5.198
		c-9.798,0-17.749,7.96-17.749,17.752v60.027l-22.035,22.036c-0.942,0.943-1.462,2.217-1.462,3.54v56.291
		c0,5.114,4.136,9.248,9.24,9.248c5.116,0,9.266-4.134,9.266-9.248v-45.756l38.955-37.46c0.98-0.952,1.537-2.241,1.537-3.602
		v-42.636l9.996,10.003v36.954c0,3.999,3.245,7.242,7.259,7.242c4,0,7.232-3.243,7.232-7.242v-40.172
		C320,156.738,319.48,155.477,318.552,154.534L318.552,154.534z"/>
	<path fill="#FFFFFF" d="M143.045,270.644c-2.823-1.895-4.806-4.828-5.522-8.146h-11.506c0.606,4.767,2.835,9.173,6.328,12.479
		c5.312,4.766,11.717,8.133,18.666,9.816L320,320v-9.196l-162.263-33.809C152.461,275.881,147.469,273.726,143.045,270.644
		L143.045,270.644z"/>
	<path fill="#FFFFFF" d="M280.567,232.402c0-3.999-3.245-7.254-7.259-7.254c-3.989,0-7.235,3.255-7.235,7.254
		c0,4,3.246,7.254,7.235,7.254C277.322,239.657,280.567,236.402,280.567,232.402L280.567,232.402z"/>
	<path fill="#FFFFFF" d="M277.891,117.843c8.55,0,15.489-6.945,15.489-15.5c0-8.568-6.94-15.5-15.489-15.5
		c-8.56,0-15.511,6.932-15.511,15.5C262.38,110.898,269.331,117.843,277.891,117.843L277.891,117.843z"/>
</g>
</svg>
