<?xml version="1.0" encoding="utf-8"?>
<!-- Generator: Adobe Illustrator 24.2.0, SVG Export Plug-In . SVG Version: 6.00 Build 0)  -->
<svg version="1.0" id="Ebene_1" xmlns="http://www.w3.org/2000/svg" xmlns:xlink="http://www.w3.org/1999/xlink" x="0px" y="0px"
	 viewBox="0 0 400 400" enable-background="new 0 0 400 400" xml:space="preserve">
<polygon id="background-blue" fill="#2D327D" points="400,0 0,0 0,400 400,400 400,0 "/>
<g id="content">
	<path id="frameWhite" fill="#FFFFFF" d="M340,40c11,0,20,9,20,20v280c0,11-9,20-20,20H60c-11,0-20-9-20-20V60c0-11,9-20,20-20H340
		 M340,35H60c-13.785,0-25,11.215-25,25v280c0,13.785,11.215,25,25,25h280c13.785,0,25-11.215,25-25V60
		C365,46.215,353.785,35,340,35L340,35z"/>
	<polygon fill="#FFFFFF" points="183.536,167.884 271.406,80 284.846,80 190.25,174.593 183.536,167.884 	"/>
	<path fill="#FFFFFF" d="M144.988,136.412l43.701,43.711c1.374,1.35,2.129,3.207,2.129,5.126c0,3.998-3.246,7.242-7.259,7.242
		c-1.907,0-3.751-0.754-5.116-2.117l-33.456-33.45V136.412L144.988,136.412z"/>
	<polygon fill="#FFFFFF" points="156.509,208.324 149.794,201.615 166.207,185.211 172.921,191.922 156.509,208.324 	"/>
	<path fill="#FFFFFF" d="M81.449,154.534l28.229-28.238c3.345-3.329,7.853-5.198,12.561-5.198c9.798,0,17.749,7.96,17.749,17.752
		v60.027l22.035,22.036c0.942,0.943,1.462,2.217,1.462,3.54v56.291c0,5.114-4.135,9.248-9.239,9.248
		c-5.116,0-9.266-4.134-9.266-9.248v-45.756l-38.955-37.46c-0.98-0.952-1.537-2.241-1.537-3.602v-42.636l-9.996,10.003v36.954
		c0,3.999-3.245,7.242-7.259,7.242c-4,0-7.233-3.243-7.233-7.242v-40.172C80,156.738,80.52,155.477,81.449,154.534L81.449,154.534z"
		/>
	<path fill="#FFFFFF" d="M256.955,270.644c2.823-1.895,4.806-4.828,5.522-8.146h11.507c-0.607,4.767-2.836,9.173-6.329,12.479
		c-5.312,4.766-11.717,8.133-18.666,9.816L80,320v-9.196l162.263-33.809C247.54,275.881,252.532,273.726,256.955,270.644
		L256.955,270.644z"/>
	<path fill="#FFFFFF" d="M119.423,232.402c0-3.999,3.245-7.254,7.259-7.254c3.989,0,7.235,3.255,7.235,7.254
		c0,4-3.246,7.254-7.235,7.254C122.668,239.657,119.423,236.402,119.423,232.402L119.423,232.402z"/>
	<path fill="#FFFFFF" d="M122.1,117.843c-8.55,0-15.489-6.945-15.489-15.5c0-8.568,6.938-15.5,15.489-15.5
		c8.56,0,15.511,6.932,15.511,15.5C137.611,110.898,130.659,117.843,122.1,117.843L122.1,117.843z"/>
</g>
</svg>
