<?xml version="1.0" encoding="utf-8"?>
<!-- Generator: Adobe Illustrator 24.2.0, SVG Export Plug-In . SVG Version: 6.00 Build 0)  -->
<svg version="1.0" id="Ebene_1" xmlns="http://www.w3.org/2000/svg" xmlns:xlink="http://www.w3.org/1999/xlink" x="0px" y="0px"
	 viewBox="0 0 400 400" enable-background="new 0 0 400 400" xml:space="preserve">
<polygon id="background-blue" fill="#2D327D" points="400,0 0,0 0,400 400,400 400,0 "/>
<g id="content">
	<path id="frameWhite" fill="#FFFFFF" d="M340,40c11,0,20,9,20,20v280c0,11-9,20-20,20H60c-11,0-20-9-20-20V60c0-11,9-20,20-20H340
		 M340,35H60c-13.785,0-25,11.215-25,25v280c0,13.785,11.215,25,25,25h280c13.785,0,25-11.215,25-25V60
		C365,46.215,353.785,35,340,35L340,35z"/>
	<polygon fill="#FFFFFF" points="200,195.25 210,195.25 210,215.25 200,215.25 200,195.25 	"/>
	<path fill="#FFFFFF" d="M114.399,223.143c2.815-2.815,6.628-4.393,10.607-4.393h86.454c3.976,0,7.792,1.578,10.604,4.393
		l34.854,34.851l58.497,4.854c2.592,0.214,4.585,2.381,4.585,4.982v31.171c0,2.757-2.239,4.999-5,4.999l0,0h-5.499v-5.75
		c0-16.561-13.441-30-30.001-30c-16.56,0-29.999,13.439-29.999,30V304H150v-5.75c0-16.561-13.439-30-29.999-30
		c-16.561,0-30,13.439-30,30V304h-4.999c-2.759,0-5.002-2.243-5.002-4.999v-35.247c0-3.979,1.581-7.793,4.396-10.607
		L114.399,223.143L114.399,223.143z M174.464,233.254l0.031,20.501c0.003,2.76,2.239,4.993,4.999,4.993h56.792
		c1.657,0,3.002-1.343,3.002-2.997c0-0.799-0.316-1.561-0.88-2.123l-23.912-23.915c-0.937-0.938-2.212-1.464-3.538-1.464h-31.495
		c-2.76,0-4.999,2.239-4.999,5.003V233.254L174.464,233.254z M100.178,258.748h59.796c2.759,0,4.998-2.239,4.998-4.998v-20.499
		c0-2.763-2.239-5.003-4.998-5.003h-34.468c-1.326,0-2.598,0.527-3.535,1.464l-23.912,23.915c-0.565,0.562-0.882,1.324-0.882,2.123
		C97.177,257.405,98.524,258.748,100.178,258.748L100.178,258.748z"/>
	<path fill-rule="evenodd" clip-rule="evenodd" fill="#FFFFFF" d="M119.8,311.15c6.901,0,12.499-5.599,12.499-12.5
		s-5.598-12.499-12.499-12.499c-6.9,0-12.499,5.598-12.499,12.499S112.9,311.15,119.8,311.15L119.8,311.15z M120.081,275.712
		c12.558,0,22.752,10.194,22.752,22.752c0,12.561-10.194,22.752-22.752,22.752c-12.558,0-22.752-10.191-22.752-22.752
		C97.329,285.907,107.523,275.712,120.081,275.712L120.081,275.712z"/>
	<path fill-rule="evenodd" clip-rule="evenodd" fill="#FFFFFF" d="M279.5,311.15c6.899,0,12.499-5.599,12.499-12.5
		s-5.601-12.499-12.499-12.499c-6.9,0-12.501,5.598-12.501,12.499S272.599,311.15,279.5,311.15L279.5,311.15z M279.5,275.899
		c12.558,0,22.749,10.194,22.749,22.751c0,12.561-10.191,22.752-22.749,22.752c-12.559,0-22.751-10.19-22.751-22.752
		C256.749,286.093,266.941,275.899,279.5,275.899L279.5,275.899z"/>
	<g>
		<path fill="#FFFFFF" d="M104.712,80v5.537h-9.105v24.445h-6.542V85.537H80V80H104.712z"/>
		<path fill="#FFFFFF" d="M124.399,109.982h-6.07c-0.26-0.875-0.39-1.62-0.39-2.235c-1.859,1.9-4.259,2.851-7.198,2.851
			c-2.297,0-4.088-0.533-5.373-1.6c-1.477-1.23-2.215-2.946-2.215-5.147c0-2.803,1.265-4.744,3.794-5.824
			c1.025-0.438,2.912-0.841,5.66-1.21c2.365-0.314,3.838-0.619,4.42-0.913c0.581-0.294,0.871-0.885,0.871-1.774
			c0-1.955-1.299-2.933-3.896-2.933c-1.381,0-2.389,0.246-3.025,0.738c-0.636,0.492-1.056,1.347-1.261,2.563h-5.619
			c0.178-2.488,1.114-4.365,2.809-5.629c1.695-1.265,4.108-1.897,7.239-1.897c3.459,0,6.016,0.704,7.67,2.112
			c0.766,0.656,1.275,1.36,1.528,2.112c0.253,0.752,0.379,1.941,0.379,3.568c0,0.342-0.021,1.846-0.062,4.512
			c-0.027,2.693-0.041,4.238-0.041,4.635c0,1.627,0.048,2.82,0.144,3.579C123.859,108.25,124.071,109.08,124.399,109.982z
			 M117.857,99.175c-0.766,0.479-2.16,0.854-4.184,1.128c-1.422,0.219-2.447,0.499-3.076,0.841c-0.889,0.479-1.333,1.292-1.333,2.44
			c0,0.93,0.294,1.654,0.882,2.174s1.408,0.779,2.461,0.779c1.75,0,3.165-0.615,4.245-1.846c0.383-0.424,0.646-0.865,0.79-1.323
			c0.144-0.458,0.215-1.063,0.215-1.815V99.175z"/>
		<path fill="#FFFFFF" d="M148.435,87.588l-7.178,10.397l8.08,11.997h-6.87l-4.614-7.26l-4.512,7.26h-6.768l7.896-11.854
			l-7.198-10.541h6.829l3.896,6.009l3.794-6.009H148.435z"/>
		<path fill="#FFFFFF" d="M157.622,80v5.353h-5.947V80H157.622z M157.622,87.629v22.354h-5.947V87.629H157.622z"/>
	</g>
</g>
</svg>
