<?xml version="1.0" encoding="utf-8"?>
<!-- Generator: Adobe Illustrator 24.2.0, SVG Export Plug-In . SVG Version: 6.00 Build 0)  -->
<svg version="1.0" id="Ebene_1" xmlns="http://www.w3.org/2000/svg" xmlns:xlink="http://www.w3.org/1999/xlink" x="0px" y="0px"
	 viewBox="0 0 400 400" enable-background="new 0 0 400 400" xml:space="preserve">
<polygon id="background-blue" fill="#2D327D" points="400,0 0,0 0,400 400,400 400,0 "/>
<g id="content">
	<path id="frameWhite" fill="#FFFFFF" d="M340,40c11,0,20,9,20,20v280c0,11-9,20-20,20H60c-11,0-20-9-20-20V60c0-11,9-20,20-20H340
		 M340,35H60c-13.785,0-25,11.215-25,25v280c0,13.785,11.215,25,25,25h280c13.785,0,25-11.215,25-25V60
		C365,46.215,353.785,35,340,35L340,35z"/>
	<polygon fill="#FFFFFF" points="190,195.25 200,195.25 200,215.25 190,215.25 190,195.25 	"/>
	<path fill="#FFFFFF" d="M285.601,223.143c-2.815-2.815-6.628-4.393-10.607-4.393H188.54c-3.975,0-7.793,1.578-10.604,4.393
		l-34.854,34.851l-58.497,4.854C81.993,263.062,80,265.229,80,267.83v31.171c0,2.757,2.239,4.999,5.001,4.999l0,0h5.498v-5.75
		c0-16.561,13.441-30,30.002-30c16.56,0,29.999,13.439,29.999,30V304h99.5v-5.75c0-16.561,13.439-30,29.999-30
		c16.561,0,30,13.439,30,30V304h4.999c2.759,0,5.003-2.243,5.003-4.999v-35.247c0-3.979-1.582-7.793-4.396-10.607L285.601,223.143
		L285.601,223.143z M225.536,233.254l-0.031,20.501c-0.003,2.76-2.238,4.993-4.999,4.993h-56.792c-1.657,0-3.002-1.343-3.002-2.997
		c0-0.799,0.315-1.561,0.88-2.123l23.913-23.915c0.937-0.938,2.212-1.464,3.538-1.464h31.495c2.76,0,4.999,2.239,4.999,5.003
		V233.254L225.536,233.254z M299.822,258.748h-59.795c-2.759,0-4.999-2.239-4.999-4.998v-20.499c0-2.763,2.239-5.003,4.999-5.003
		h34.468c1.326,0,2.597,0.527,3.534,1.464l23.912,23.915c0.565,0.562,0.882,1.324,0.882,2.123
		C302.823,257.405,301.476,258.748,299.822,258.748L299.822,258.748z"/>
	<path fill-rule="evenodd" clip-rule="evenodd" fill="#FFFFFF" d="M280.22,311.15c-6.901,0-12.5-5.599-12.5-12.5
		s5.598-12.499,12.5-12.499c6.9,0,12.498,5.598,12.498,12.499S287.121,311.15,280.22,311.15L280.22,311.15z M279.94,275.712
		c-12.558,0-22.752,10.194-22.752,22.752c0,12.561,10.195,22.752,22.752,22.752c12.557,0,22.751-10.191,22.751-22.752
		C302.691,285.907,292.497,275.712,279.94,275.712L279.94,275.712z"/>
	<path fill-rule="evenodd" clip-rule="evenodd" fill="#FFFFFF" d="M120.521,311.15c-6.899,0-12.499-5.599-12.499-12.5
		s5.6-12.499,12.499-12.499c6.901,0,12.501,5.598,12.501,12.499S127.421,311.15,120.521,311.15L120.521,311.15z M120.52,275.899
		c-12.558,0-22.748,10.194-22.748,22.751c0,12.561,10.19,22.752,22.748,22.752c12.559,0,22.752-10.19,22.752-22.752
		C143.271,286.093,133.079,275.899,120.52,275.899L120.52,275.899z"/>
	<g>
		<path fill="#FFFFFF" d="M104.712,80v5.537h-9.105v24.445h-6.542V85.537H80V80H104.712z"/>
		<path fill="#FFFFFF" d="M124.399,109.982h-6.07c-0.26-0.875-0.39-1.62-0.39-2.235c-1.859,1.9-4.259,2.851-7.198,2.851
			c-2.297,0-4.088-0.533-5.373-1.6c-1.477-1.23-2.215-2.946-2.215-5.147c0-2.803,1.265-4.744,3.794-5.824
			c1.025-0.438,2.912-0.841,5.66-1.21c2.365-0.314,3.838-0.619,4.42-0.913c0.581-0.294,0.871-0.885,0.871-1.774
			c0-1.955-1.299-2.933-3.896-2.933c-1.381,0-2.389,0.246-3.025,0.738c-0.636,0.492-1.056,1.347-1.261,2.563h-5.619
			c0.178-2.488,1.114-4.365,2.809-5.629c1.695-1.265,4.108-1.897,7.239-1.897c3.459,0,6.016,0.704,7.67,2.112
			c0.766,0.656,1.275,1.36,1.528,2.112c0.253,0.752,0.379,1.941,0.379,3.568c0,0.342-0.021,1.846-0.062,4.512
			c-0.027,2.693-0.041,4.238-0.041,4.635c0,1.627,0.048,2.82,0.144,3.579C123.859,108.25,124.071,109.08,124.399,109.982z
			 M117.857,99.175c-0.766,0.479-2.16,0.854-4.184,1.128c-1.422,0.219-2.447,0.499-3.076,0.841c-0.889,0.479-1.333,1.292-1.333,2.44
			c0,0.93,0.294,1.654,0.882,2.174s1.408,0.779,2.461,0.779c1.75,0,3.165-0.615,4.245-1.846c0.383-0.424,0.646-0.865,0.79-1.323
			c0.144-0.458,0.215-1.063,0.215-1.815V99.175z"/>
		<path fill="#FFFFFF" d="M148.435,87.588l-7.178,10.397l8.08,11.997h-6.87l-4.614-7.26l-4.512,7.26h-6.768l7.896-11.854
			l-7.198-10.541h6.829l3.896,6.009l3.794-6.009H148.435z"/>
		<path fill="#FFFFFF" d="M157.622,80v5.353h-5.947V80H157.622z M157.622,87.629v22.354h-5.947V87.629H157.622z"/>
	</g>
</g>
</svg>
