<?xml version="1.0" encoding="utf-8"?>
<!-- Generator: Adobe Illustrator 24.2.0, SVG Export Plug-In . SVG Version: 6.00 Build 0)  -->
<svg version="1.0" id="Ebene_1" xmlns="http://www.w3.org/2000/svg" xmlns:xlink="http://www.w3.org/1999/xlink" x="0px" y="0px"
	 viewBox="0 0 400 400" enable-background="new 0 0 400 400" xml:space="preserve">
<polygon id="background-blue" fill="#2D327D" points="400,0 0,0 0,400 400,400 400,0 "/>
<g id="content">
	<path id="frameWhite" fill="#FFFFFF" d="M340,40c11,0,20,9,20,20v280c0,11-9,20-20,20H60c-11,0-20-9-20-20V60c0-11,9-20,20-20H340
		 M340,35H60c-13.785,0-25,11.215-25,25v280c0,13.785,11.215,25,25,25h280c13.785,0,25-11.215,25-25V60
		C365,46.215,353.785,35,340,35L340,35z"/>
	<path fill="#FFFFFF" d="M285.601,223.143c-2.815-2.814-6.628-4.393-10.607-4.393H188.54c-3.975,0-7.792,1.578-10.604,4.393
		l-34.854,34.851l-58.497,4.855c-2.592,0.213-4.585,2.38-4.585,4.981v31.172c0,2.755,2.239,4.998,5.001,4.998l0,0h5.498v-5.749
		c0-16.561,13.441-30.001,30.002-30.001c16.56,0,29.999,13.44,29.999,30.001V304H250v-5.749c0-16.561,13.439-30.001,29.999-30.001
		c16.561,0,30,13.44,30,30.001V304h4.999c2.76,0,5.002-2.243,5.002-4.998v-35.248c0-3.979-1.582-7.794-4.396-10.608L285.601,223.143
		L285.601,223.143z M225.537,233.254l-0.031,20.502c-0.003,2.76-2.239,4.992-4.999,4.992h-56.792c-1.657,0-3.002-1.344-3.002-2.997
		c0-0.799,0.315-1.561,0.88-2.122l23.912-23.917c0.937-0.937,2.211-1.464,3.538-1.464h31.494c2.76,0,5,2.24,5,5.003V233.254
		L225.537,233.254z M299.822,258.749h-59.796c-2.759,0-4.998-2.24-4.998-5v-20.498c0-2.763,2.239-5.003,4.998-5.003h34.468
		c1.326,0,2.597,0.527,3.535,1.464l23.912,23.917c0.565,0.561,0.882,1.323,0.882,2.122
		C302.823,257.404,301.476,258.749,299.822,258.749L299.822,258.749z"/>
	<path fill-rule="evenodd" clip-rule="evenodd" fill="#FFFFFF" d="M280.22,311.149c-6.901,0-12.499-5.598-12.499-12.499
		c0-6.9,5.598-12.499,12.499-12.499c6.901,0,12.499,5.598,12.499,12.499C292.719,305.551,287.121,311.149,280.22,311.149
		L280.22,311.149z M279.939,275.712c-12.557,0-22.752,10.194-22.752,22.751c0,12.561,10.195,22.751,22.752,22.751
		c12.558,0,22.752-10.19,22.752-22.751C302.691,285.907,292.497,275.712,279.939,275.712L279.939,275.712z"/>
	<path fill-rule="evenodd" clip-rule="evenodd" fill="#FFFFFF" d="M120.521,311.149c-6.899,0-12.499-5.598-12.499-12.499
		c0-6.9,5.6-12.499,12.499-12.499c6.901,0,12.501,5.598,12.501,12.499C133.021,305.551,127.421,311.149,120.521,311.149
		L120.521,311.149z M120.52,275.899c-12.558,0-22.748,10.194-22.748,22.752c0,12.561,10.19,22.751,22.748,22.751
		c12.559,0,22.752-10.19,22.752-22.751C143.271,286.093,133.079,275.899,120.52,275.899L120.52,275.899z"/>
	<g>
		<path fill="#FFFFFF" d="M109.511,98.416c-0.219,3.104-1.258,5.756-3.117,7.957c-2.434,2.885-5.879,4.327-10.336,4.327
			c-4.744,0-8.436-1.675-11.074-5.024c-2.256-2.857-3.384-6.426-3.384-10.705c0-4.484,1.34-8.224,4.02-11.218
			c2.68-2.98,6.241-4.471,10.685-4.471c4.143,0,7.479,1.367,10.008,4.102c1.805,1.928,2.803,4.149,2.994,6.665h-6.46
			c-0.356-1.695-1.114-3.004-2.276-3.927c-1.162-0.923-2.632-1.384-4.409-1.384c-2.844,0-4.97,1.196-6.378,3.589
			c-1.053,1.818-1.579,4.047-1.579,6.685c0,2.707,0.554,4.963,1.661,6.768c1.408,2.311,3.493,3.466,6.255,3.466
			c1.969,0,3.538-0.581,4.707-1.743c1.169-1.162,1.89-2.857,2.164-5.086H109.511z"/>
		<path fill="#FFFFFF" d="M133.464,109.982h-6.07c-0.26-0.875-0.39-1.62-0.39-2.235c-1.859,1.9-4.259,2.851-7.198,2.851
			c-2.297,0-4.088-0.533-5.373-1.6c-1.477-1.23-2.215-2.946-2.215-5.147c0-2.803,1.265-4.744,3.794-5.824
			c1.025-0.438,2.912-0.841,5.66-1.21c2.365-0.314,3.838-0.619,4.419-0.913c0.581-0.294,0.872-0.885,0.872-1.774
			c0-1.955-1.299-2.933-3.896-2.933c-1.381,0-2.389,0.246-3.025,0.738c-0.636,0.492-1.056,1.347-1.261,2.563h-5.619
			c0.178-2.488,1.114-4.365,2.81-5.629c1.695-1.265,4.108-1.897,7.239-1.897c3.459,0,6.016,0.704,7.67,2.112
			c0.766,0.656,1.275,1.36,1.528,2.112c0.253,0.752,0.379,1.941,0.379,3.568c0,0.342-0.02,1.846-0.061,4.512
			c-0.027,2.693-0.041,4.238-0.041,4.635c0,1.627,0.048,2.82,0.143,3.579C132.924,108.25,133.136,109.08,133.464,109.982z
			 M126.922,99.175c-0.766,0.479-2.16,0.854-4.184,1.128c-1.422,0.219-2.447,0.499-3.076,0.841c-0.889,0.479-1.333,1.292-1.333,2.44
			c0,0.93,0.294,1.654,0.882,2.174s1.408,0.779,2.461,0.779c1.75,0,3.165-0.615,4.245-1.846c0.383-0.424,0.646-0.865,0.789-1.323
			c0.144-0.458,0.215-1.063,0.215-1.815V99.175z"/>
		<path fill="#FFFFFF" d="M151.285,87.219v5.763c-0.957-0.178-1.73-0.267-2.317-0.267c-2.215,0-3.842,0.93-4.881,2.789
			c-0.588,1.039-0.882,2.775-0.882,5.209v9.27h-5.947V87.588h5.66v4.081c1.613-3.035,3.958-4.553,7.034-4.553
			C150.335,87.116,150.779,87.15,151.285,87.219z"/>
		<path fill="#FFFFFF" d="M188.179,88.88h-6.234c-0.123-1.463-0.667-2.581-1.63-3.353c-0.964-0.772-2.314-1.159-4.05-1.159
			c-1.545,0-2.745,0.304-3.599,0.913c-0.854,0.608-1.282,1.459-1.282,2.553c0,0.984,0.41,1.695,1.23,2.133
			c0.793,0.438,2.803,1.053,6.029,1.846c3.404,0.848,5.763,1.702,7.075,2.563c2.42,1.586,3.63,3.794,3.63,6.624
			c0,3.104-1.217,5.551-3.65,7.342c-2.146,1.572-5.052,2.358-8.716,2.358c-4.074,0-7.239-0.93-9.495-2.789
			c-2.256-1.859-3.425-4.505-3.507-7.937h6.521c0.096,1.668,0.526,2.905,1.292,3.712c1.203,1.285,3.015,1.928,5.434,1.928
			c1.641,0,2.94-0.321,3.896-0.964c1.08-0.738,1.62-1.743,1.62-3.015c0-1.271-0.759-2.201-2.276-2.789
			c-0.834-0.328-2.803-0.923-5.906-1.784c-1.941-0.533-3.459-1.039-4.553-1.518c-1.094-0.479-1.969-1.012-2.625-1.6
			c-1.531-1.367-2.297-3.254-2.297-5.66c0-2.885,1.196-5.168,3.589-6.85c2.037-1.436,4.683-2.153,7.937-2.153
			c2.857,0,5.25,0.567,7.178,1.702C186.565,82.611,188.028,85.243,188.179,88.88z"/>
		<path fill="#FFFFFF" d="M199.212,80v10.664c0.656-1.176,1.589-2.095,2.799-2.758c1.21-0.663,2.546-0.995,4.009-0.995
			c2.994,0,5.141,1.06,6.44,3.179c0.752,1.23,1.128,3.117,1.128,5.66v14.232h-5.927V96.816c0-1.641-0.226-2.775-0.677-3.404
			c-0.67-0.93-1.716-1.395-3.138-1.395c-1.873,0-3.213,0.82-4.02,2.461c-0.246,0.506-0.41,1.06-0.492,1.661
			c-0.082,0.602-0.123,1.565-0.123,2.892v10.951h-5.947V80H199.212z"/>
		<path fill="#FFFFFF" d="M238.423,109.982h-6.07c-0.26-0.875-0.39-1.62-0.39-2.235c-1.859,1.9-4.259,2.851-7.198,2.851
			c-2.297,0-4.088-0.533-5.373-1.6c-1.477-1.23-2.215-2.946-2.215-5.147c0-2.803,1.265-4.744,3.794-5.824
			c1.025-0.438,2.912-0.841,5.66-1.21c2.365-0.314,3.838-0.619,4.419-0.913c0.581-0.294,0.872-0.885,0.872-1.774
			c0-1.955-1.299-2.933-3.896-2.933c-1.381,0-2.389,0.246-3.025,0.738c-0.636,0.492-1.056,1.347-1.261,2.563h-5.619
			c0.178-2.488,1.114-4.365,2.81-5.629c1.695-1.265,4.108-1.897,7.239-1.897c3.459,0,6.016,0.704,7.67,2.112
			c0.766,0.656,1.275,1.36,1.528,2.112c0.253,0.752,0.379,1.941,0.379,3.568c0,0.342-0.02,1.846-0.061,4.512
			c-0.027,2.693-0.041,4.238-0.041,4.635c0,1.627,0.048,2.82,0.143,3.579C237.883,108.25,238.095,109.08,238.423,109.982z
			 M231.881,99.175c-0.766,0.479-2.16,0.854-4.184,1.128c-1.422,0.219-2.447,0.499-3.076,0.841c-0.889,0.479-1.333,1.292-1.333,2.44
			c0,0.93,0.294,1.654,0.882,2.174c0.588,0.52,1.408,0.779,2.461,0.779c1.75,0,3.165-0.615,4.245-1.846
			c0.383-0.424,0.646-0.865,0.789-1.323c0.144-0.458,0.215-1.063,0.215-1.815V99.175z"/>
		<path fill="#FFFFFF" d="M256.244,87.219v5.763c-0.957-0.178-1.73-0.267-2.317-0.267c-2.215,0-3.842,0.93-4.881,2.789
			c-0.588,1.039-0.882,2.775-0.882,5.209v9.27h-5.947V87.588h5.66v4.081c1.613-3.035,3.958-4.553,7.034-4.553
			C255.294,87.116,255.738,87.15,256.244,87.219z"/>
		<path fill="#FFFFFF" d="M265.001,80v5.353h-5.947V80H265.001z M265.001,87.629v22.354h-5.947V87.629H265.001z"/>
		<path fill="#FFFFFF" d="M275.398,87.649v3.138c0.697-0.957,1.347-1.661,1.948-2.112c1.477-1.148,3.254-1.723,5.332-1.723
			c1.832,0,3.384,0.465,4.655,1.395c1.012,0.738,1.719,1.671,2.122,2.799c0.403,1.128,0.605,2.717,0.605,4.768v14.068h-5.927V97.165
			c0-1.435-0.123-2.488-0.369-3.158c-0.232-0.588-0.629-1.053-1.189-1.395c-0.643-0.369-1.374-0.554-2.194-0.554
			c-0.902,0-1.723,0.219-2.461,0.656s-1.285,1.032-1.641,1.784c-0.396,0.848-0.595,2.167-0.595,3.958v11.525h-5.947V87.649H275.398z
			"/>
		<path fill="#FFFFFF" d="M315.614,87.588v19.729c0,1.75-0.109,3.148-0.328,4.194c-0.219,1.046-0.595,1.999-1.128,2.861
			c-1.723,2.734-4.812,4.102-9.27,4.102c-6.207,0-9.604-2.345-10.192-7.034h5.988c0.41,1.873,1.853,2.809,4.327,2.809
			c1.887,0,3.206-0.533,3.958-1.6c0.588-0.848,0.882-2.215,0.882-4.102l0.021-2.769c-1.531,2.352-3.746,3.527-6.645,3.527
			c-2.803,0-5.038-0.984-6.706-2.953c-1.695-1.996-2.543-4.689-2.543-8.08c0-3.391,0.848-6.111,2.543-8.162
			c1.764-2.119,4.081-3.179,6.952-3.179c1.49,0,2.734,0.28,3.732,0.841c0.998,0.56,1.914,1.497,2.748,2.809v-2.994H315.614z
			 M304.807,91.813c-1.668,0-2.933,0.697-3.794,2.092c-0.697,1.121-1.046,2.543-1.046,4.266c0,2.188,0.506,3.849,1.518,4.983
			c0.875,1.012,2.017,1.518,3.425,1.518c1.777,0,3.11-0.745,3.999-2.235c0.684-1.148,1.025-2.598,1.025-4.348
			c0-2.105-0.526-3.732-1.579-4.881C307.493,92.277,306.31,91.813,304.807,91.813z"/>
	</g>
</g>
</svg>
