<?xml version="1.0" encoding="utf-8"?>
<!-- Generator: Adobe Illustrator 24.2.0, SVG Export Plug-In . SVG Version: 6.00 Build 0)  -->
<svg version="1.0" id="Ebene_1" xmlns="http://www.w3.org/2000/svg" xmlns:xlink="http://www.w3.org/1999/xlink" x="0px" y="0px"
	 viewBox="0 0 400 400" enable-background="new 0 0 400 400" xml:space="preserve">
<polygon id="background-blue" fill="#2D327D" points="400,400 400,0 0,0 0,400 400,400 "/>
<g id="content">
	<path id="frameWhite" fill="#FFFFFF" d="M340,40c11,0,20,9,20,20v280c0,11-9,20-20,20H60c-11,0-20-9-20-20V60c0-11,9-20,20-20H340
		 M340,35H60c-13.785,0-25,11.215-25,25v280c0,13.785,11.215,25,25,25h280c13.785,0,25-11.215,25-25V60
		C365,46.215,353.785,35,340,35L340,35z"/>
	<path fill="#FFFFFF" d="M84.595,262.855c-2.601,0.212-4.595,2.377-4.595,4.976V299c0,2.76,2.243,5,5.019,5h5.499v-5.742
		c0-16.562,13.424-30.008,29.987-30.008c16.56,0,29.998,13.445,29.998,30.008V304h99.495v-5.742
		c0-16.562,13.439-30.008,29.998-30.008c16.546,0,29.998,13.445,29.998,30.008V304h4.992c2.763,0,5.015-2.24,5.015-5v-35.254
		c0-3.96-1.598-7.786-4.395-10.596l-30.012-30.003c-2.812-2.811-6.628-4.396-10.604-4.396h-86.452c-3.976,0-7.789,1.585-10.6,4.396
		l-34.855,34.856L84.595,262.855L84.595,262.855z M235.022,253.757V233.26c0-2.762,2.243-5.014,5.002-5.014h34.46
		c1.326,0,2.601,0.533,3.541,1.473l23.918,23.914c0.544,0.557,0.868,1.325,0.868,2.118c0,1.658-1.34,2.994-3,2.994h-59.786
		C237.265,258.745,235.022,256.519,235.022,253.757L235.022,253.757z M163.717,258.745c-1.66,0-3.01-1.336-3.01-2.994
		c0-0.793,0.333-1.561,0.881-2.118l23.914-23.914c0.944-0.94,2.218-1.473,3.545-1.473h31.483c2.763,0,5.004,2.252,5.004,5.014
		c0,0,0,0,0,0.01l-0.038,20.5c0,2.749-2.228,4.975-4.991,4.975H163.717L163.717,258.745z"/>
	<path fill-rule="evenodd" clip-rule="evenodd" fill="#FFFFFF" d="M279.939,309.629c-6.901,0-12.499-5.597-12.499-12.504
		c0-6.909,5.598-12.503,12.499-12.503c6.897,0,12.499,5.595,12.499,12.503C292.437,304.032,286.835,309.629,279.939,309.629
		L279.939,309.629z M279.939,274.371c-12.547,0-22.755,10.189-22.755,22.753c0,12.554,10.208,22.755,22.755,22.755
		c12.56,0,22.755-10.201,22.755-22.755C302.693,284.56,292.499,274.371,279.939,274.371L279.939,274.371z"/>
	<path fill-rule="evenodd" clip-rule="evenodd" fill="#FFFFFF" d="M120.458,309.629c-6.901,0-12.485-5.597-12.485-12.504
		c0-6.909,5.584-12.503,12.485-12.503c6.911,0,12.509,5.595,12.509,12.503C132.967,304.032,127.369,309.629,120.458,309.629
		L120.458,309.629z M120.47,274.371c-12.56,0-22.755,10.189-22.755,22.753c0,12.554,10.195,22.755,22.755,22.755
		c12.561,0,22.755-10.201,22.755-22.755C143.225,284.56,133.03,274.371,120.47,274.371L120.47,274.371z"/>
	<g>
		<path fill="#FFFFFF" d="M105.348,80v29.982h-6.583L86.214,89.557l0.082,20.426H80V80h6.665l12.469,20.385L99.052,80H105.348z"/>
		<path fill="#FFFFFF" d="M121.426,86.973c3.254,0,5.913,1.08,7.978,3.24c2.037,2.133,3.056,4.977,3.056,8.531
			c0,3.678-1.087,6.61-3.261,8.798c-2.037,2.037-4.689,3.056-7.957,3.056c-3.486,0-6.262-1.135-8.326-3.404
			c-1.969-2.16-2.953-4.963-2.953-8.408c0-3.391,0.957-6.146,2.871-8.265C114.952,88.155,117.816,86.973,121.426,86.973z
			 M121.118,91.607c-1.572,0-2.823,0.636-3.753,1.907c-0.943,1.285-1.415,3.042-1.415,5.271c0,2.311,0.465,4.081,1.395,5.312
			c0.957,1.244,2.263,1.866,3.917,1.866c1.545,0,2.769-0.567,3.671-1.702c1.025-1.258,1.538-3.083,1.538-5.476
			c0-2.242-0.451-3.985-1.354-5.229C124.174,92.257,122.841,91.607,121.118,91.607z"/>
		<path fill="#FFFFFF" d="M142.426,80v29.982h-5.947V80H142.426z"/>
		<path fill="#FFFFFF" d="M167.384,103.01c-0.314,1.258-0.882,2.44-1.702,3.548c-1.969,2.693-4.799,4.04-8.49,4.04
			c-3.336,0-6.009-1.053-8.019-3.158c-0.984-1.025-1.736-2.263-2.256-3.712c-0.561-1.545-0.841-3.158-0.841-4.84
			c0-3.254,0.936-5.988,2.809-8.203c2.092-2.475,4.799-3.712,8.121-3.712c2.68,0,4.963,0.827,6.85,2.481
			c1.354,1.189,2.338,2.656,2.953,4.399c0.615,1.743,0.923,3.934,0.923,6.573h-15.606c0.055,1.094,0.226,2.003,0.513,2.728
			c0.807,1.955,2.338,2.933,4.594,2.933c1.107,0,2.01-0.243,2.707-0.728c0.697-0.485,1.271-1.268,1.723-2.348H167.384z
			 M161.662,96.427c-0.109-1.08-0.355-1.976-0.738-2.687c-0.383-0.697-0.926-1.251-1.63-1.661c-0.704-0.41-1.473-0.615-2.307-0.615
			c-1.326,0-2.42,0.444-3.281,1.333c-0.861,0.889-1.374,2.099-1.538,3.63H161.662z"/>
		<path fill="#FFFFFF" d="M192.301,87.588v19.729c0,1.75-0.109,3.148-0.328,4.194c-0.219,1.046-0.595,1.999-1.128,2.861
			c-1.723,2.734-4.812,4.102-9.27,4.102c-6.207,0-9.604-2.345-10.192-7.034h5.988c0.41,1.873,1.853,2.809,4.327,2.809
			c1.887,0,3.206-0.533,3.958-1.6c0.588-0.848,0.882-2.215,0.882-4.102l0.02-2.769c-1.531,2.352-3.746,3.527-6.645,3.527
			c-2.803,0-5.038-0.984-6.706-2.953c-1.695-1.996-2.543-4.689-2.543-8.08c0-3.391,0.848-6.111,2.543-8.162
			c1.764-2.119,4.081-3.179,6.952-3.179c1.49,0,2.734,0.28,3.732,0.841c0.998,0.56,1.914,1.497,2.748,2.809v-2.994H192.301z
			 M181.493,91.813c-1.668,0-2.933,0.697-3.794,2.092c-0.697,1.121-1.046,2.543-1.046,4.266c0,2.188,0.506,3.849,1.518,4.983
			c0.875,1.012,2.017,1.518,3.425,1.518c1.777,0,3.11-0.745,3.999-2.235c0.684-1.148,1.025-2.598,1.025-4.348
			c0-2.105-0.526-3.732-1.579-4.881C184.18,92.277,182.997,91.813,181.493,91.813z"/>
		<path fill="#FFFFFF" d="M218.038,87.588v19.729c0,1.75-0.109,3.148-0.328,4.194c-0.219,1.046-0.595,1.999-1.128,2.861
			c-1.723,2.734-4.812,4.102-9.27,4.102c-6.207,0-9.605-2.345-10.192-7.034h5.988c0.41,1.873,1.853,2.809,4.327,2.809
			c1.887,0,3.206-0.533,3.958-1.6c0.588-0.848,0.882-2.215,0.882-4.102l0.02-2.769c-1.531,2.352-3.746,3.527-6.645,3.527
			c-2.803,0-5.038-0.984-6.706-2.953c-1.695-1.996-2.543-4.689-2.543-8.08c0-3.391,0.848-6.111,2.543-8.162
			c1.764-2.119,4.081-3.179,6.952-3.179c1.49,0,2.734,0.28,3.732,0.841c0.998,0.56,1.914,1.497,2.748,2.809v-2.994H218.038z
			 M207.23,91.813c-1.668,0-2.933,0.697-3.794,2.092c-0.697,1.121-1.046,2.543-1.046,4.266c0,2.188,0.506,3.849,1.518,4.983
			c0.875,1.012,2.017,1.518,3.425,1.518c1.777,0,3.11-0.745,3.999-2.235c0.684-1.148,1.025-2.598,1.025-4.348
			c0-2.105-0.526-3.732-1.579-4.881C209.917,92.277,208.734,91.813,207.23,91.813z"/>
		<path fill="#FFFFFF" d="M228.887,80v5.353h-5.947V80H228.887z M228.887,87.629v22.354h-5.947V87.629H228.887z"/>
		<path fill="#FFFFFF" d="M244.37,86.973c3.254,0,5.913,1.08,7.978,3.24c2.037,2.133,3.056,4.977,3.056,8.531
			c0,3.678-1.087,6.61-3.261,8.798c-2.037,2.037-4.689,3.056-7.957,3.056c-3.486,0-6.262-1.135-8.326-3.404
			c-1.969-2.16-2.953-4.963-2.953-8.408c0-3.391,0.957-6.146,2.871-8.265C237.896,88.155,240.761,86.973,244.37,86.973z
			 M244.062,91.607c-1.572,0-2.823,0.636-3.753,1.907c-0.943,1.285-1.415,3.042-1.415,5.271c0,2.311,0.465,4.081,1.395,5.312
			c0.957,1.244,2.263,1.866,3.917,1.866c1.545,0,2.768-0.567,3.671-1.702c1.025-1.258,1.538-3.083,1.538-5.476
			c0-2.242-0.451-3.985-1.354-5.229C247.118,92.257,245.785,91.607,244.062,91.607z"/>
	</g>
</g>
</svg>
