<?xml version="1.0" encoding="utf-8"?>
<!-- Generator: Adobe Illustrator 24.2.0, SVG Export Plug-In . SVG Version: 6.00 Build 0)  -->
<svg version="1.0" id="Ebene_1" xmlns="http://www.w3.org/2000/svg" xmlns:xlink="http://www.w3.org/1999/xlink" x="0px" y="0px"
	 viewBox="0 0 400 400" enable-background="new 0 0 400 400" xml:space="preserve">
<polygon id="background-blue" fill="#2D327D" points="0,400 0,0 400,0 400,400 0,400 "/>
<g id="content">
	<path id="frameWhite" fill="#FFFFFF" d="M340,40c11,0,20,9,20,20v280c0,11-9,20-20,20H60c-11,0-20-9-20-20V60c0-11,9-20,20-20H340
		 M340,35H60c-13.785,0-25,11.215-25,25v280c0,13.785,11.215,25,25,25h280c13.785,0,25-11.215,25-25V60
		C365,46.215,353.785,35,340,35L340,35z"/>
	<path fill="#FFFFFF" d="M315.405,262.855l-58.487-4.852l-34.855-34.856c-2.812-2.811-6.624-4.396-10.6-4.396h-86.452
		c-3.975,0-7.792,1.585-10.603,4.396l-30.012,30.003C81.599,255.96,80,259.785,80,263.746V299c0,2.76,2.253,5,5.016,5h4.992v-5.742
		c0-16.562,13.452-30.008,29.998-30.008c16.56,0,29.998,13.445,29.998,30.008V304h99.495v-5.742
		c0-16.562,13.439-30.008,29.998-30.008c16.563,0,29.987,13.445,29.987,30.008V304h5.499c2.776,0,5.019-2.24,5.019-5v-31.169
		C320,265.231,318.006,263.067,315.405,262.855L315.405,262.855z M164.978,253.757c0,2.762-2.243,4.988-5.001,4.988H100.19
		c-1.661,0-3-1.336-3-2.994c0-0.793,0.324-1.561,0.868-2.118l23.918-23.914c0.94-0.94,2.215-1.473,3.541-1.473h34.459
		c2.758,0,5.001,2.252,5.001,5.014V253.757L164.978,253.757z M236.283,258.745h-56.788c-2.764,0-4.992-2.226-4.992-4.975
		l-0.038-20.5c0-0.01,0-0.01,0-0.01c0-2.762,2.242-5.014,5.006-5.014h31.482c1.327,0,2.601,0.533,3.545,1.473l23.914,23.914
		c0.548,0.557,0.881,1.325,0.881,2.118C239.294,257.408,237.943,258.745,236.283,258.745L236.283,258.745z"/>
	<path fill-rule="evenodd" clip-rule="evenodd" fill="#FFFFFF" d="M120.062,309.629c-6.897,0-12.498-5.597-12.498-12.504
		c0-6.909,5.602-12.503,12.498-12.503c6.901,0,12.499,5.595,12.499,12.503C132.561,304.032,126.962,309.629,120.062,309.629
		L120.062,309.629z M120.062,274.371c-12.561,0-22.755,10.189-22.755,22.753c0,12.554,10.194,22.755,22.755,22.755
		c12.547,0,22.755-10.201,22.755-22.755C142.816,284.56,132.609,274.371,120.062,274.371L120.062,274.371z"/>
	<path fill-rule="evenodd" clip-rule="evenodd" fill="#FFFFFF" d="M279.542,309.629c-6.911,0-12.509-5.597-12.509-12.504
		c0-6.909,5.598-12.503,12.509-12.503c6.901,0,12.485,5.595,12.485,12.503C292.027,304.032,286.443,309.629,279.542,309.629
		L279.542,309.629z M279.53,274.371c-12.561,0-22.755,10.189-22.755,22.753c0,12.554,10.194,22.755,22.755,22.755
		c12.56,0,22.755-10.201,22.755-22.755C302.285,284.56,292.091,274.371,279.53,274.371L279.53,274.371z"/>
	<g>
		<path fill="#FFFFFF" d="M101.205,104.445v5.537H80V80h6.542v24.445H101.205z"/>
		<path fill="#FFFFFF" d="M114.966,86.973c3.254,0,5.913,1.08,7.978,3.24c2.037,2.133,3.056,4.977,3.056,8.531
			c0,3.678-1.087,6.61-3.261,8.798c-2.037,2.037-4.689,3.056-7.957,3.056c-3.486,0-6.262-1.135-8.326-3.404
			c-1.969-2.16-2.953-4.963-2.953-8.408c0-3.391,0.957-6.146,2.871-8.265C108.492,88.155,111.356,86.973,114.966,86.973z
			 M114.658,91.607c-1.572,0-2.823,0.636-3.753,1.907c-0.943,1.285-1.415,3.042-1.415,5.271c0,2.311,0.465,4.081,1.395,5.312
			c0.957,1.244,2.263,1.866,3.917,1.866c1.545,0,2.768-0.567,3.671-1.702c1.025-1.258,1.538-3.083,1.538-5.476
			c0-2.242-0.451-3.985-1.353-5.229C117.714,92.257,116.381,91.607,114.658,91.607z"/>
		<path fill="#FFFFFF" d="M150.649,101.39c-0.287,2.229-1.032,4.088-2.235,5.578c-1.941,2.42-4.683,3.63-8.224,3.63
			c-3.637,0-6.467-1.244-8.49-3.732c-1.709-2.119-2.563-4.737-2.563-7.854c0-3.855,1.142-6.897,3.425-9.126
			c1.996-1.941,4.573-2.912,7.732-2.912c2.912,0,5.277,0.755,7.096,2.266c1.818,1.511,2.857,3.579,3.117,6.204h-5.845
			c-0.219-1.189-0.704-2.112-1.456-2.769c-0.752-0.656-1.702-0.984-2.851-0.984c-1.654,0-2.936,0.625-3.845,1.876
			c-0.909,1.251-1.364,3.004-1.364,5.26c0,1.996,0.362,3.603,1.087,4.819c0.889,1.49,2.222,2.235,3.999,2.235
			c2.625,0,4.163-1.497,4.614-4.491H150.649z"/>
		<path fill="#FFFFFF" d="M174.5,109.982h-6.07c-0.26-0.875-0.39-1.62-0.39-2.235c-1.859,1.9-4.259,2.851-7.198,2.851
			c-2.297,0-4.088-0.533-5.373-1.6c-1.477-1.23-2.215-2.946-2.215-5.147c0-2.803,1.265-4.744,3.794-5.824
			c1.025-0.438,2.912-0.841,5.66-1.21c2.365-0.314,3.838-0.619,4.419-0.913c0.581-0.294,0.872-0.885,0.872-1.774
			c0-1.955-1.299-2.933-3.896-2.933c-1.381,0-2.389,0.246-3.025,0.738c-0.636,0.492-1.056,1.347-1.261,2.563h-5.619
			c0.178-2.488,1.114-4.365,2.81-5.629c1.695-1.265,4.108-1.897,7.239-1.897c3.459,0,6.016,0.704,7.67,2.112
			c0.766,0.656,1.275,1.36,1.528,2.112c0.253,0.752,0.379,1.941,0.379,3.568c0,0.342-0.02,1.846-0.061,4.512
			c-0.027,2.693-0.041,4.238-0.041,4.635c0,1.627,0.048,2.82,0.144,3.579C173.96,108.25,174.172,109.08,174.5,109.982z
			 M167.958,99.175c-0.766,0.479-2.16,0.854-4.184,1.128c-1.422,0.219-2.447,0.499-3.076,0.841c-0.889,0.479-1.333,1.292-1.333,2.44
			c0,0.93,0.294,1.654,0.882,2.174s1.408,0.779,2.461,0.779c1.75,0,3.165-0.615,4.245-1.846c0.383-0.424,0.646-0.865,0.79-1.323
			c0.143-0.458,0.215-1.063,0.215-1.815V99.175z"/>
		<path fill="#FFFFFF" d="M190.476,87.547v4.204h-4.45v10.521c0,1.258,0.116,2.058,0.349,2.399c0.342,0.492,1.107,0.738,2.297,0.738
			c0.465,0,1.066-0.034,1.805-0.103v4.758c-1.34,0.15-2.57,0.225-3.691,0.225c-1.695,0-2.987-0.191-3.876-0.574
			c-1.381-0.615-2.242-1.736-2.584-3.363c-0.15-0.697-0.226-2.14-0.226-4.327V91.751h-3.63v-4.204h3.63v-5.25h5.927v5.25H190.476z"
			/>
		<path fill="#FFFFFF" d="M199.848,80v5.353H193.9V80H199.848z M199.848,87.629v22.354H193.9V87.629H199.848z"/>
		<path fill="#FFFFFF" d="M215.331,86.973c3.254,0,5.913,1.08,7.977,3.24c2.037,2.133,3.056,4.977,3.056,8.531
			c0,3.678-1.087,6.61-3.261,8.798c-2.037,2.037-4.689,3.056-7.957,3.056c-3.486,0-6.262-1.135-8.326-3.404
			c-1.969-2.16-2.953-4.963-2.953-8.408c0-3.391,0.957-6.146,2.871-8.265C208.857,88.155,211.722,86.973,215.331,86.973z
			 M215.023,91.607c-1.572,0-2.823,0.636-3.753,1.907c-0.943,1.285-1.415,3.042-1.415,5.271c0,2.311,0.465,4.081,1.395,5.312
			c0.957,1.244,2.263,1.866,3.917,1.866c1.545,0,2.768-0.567,3.671-1.702c1.025-1.258,1.538-3.083,1.538-5.476
			c0-2.242-0.451-3.985-1.354-5.229C218.079,92.257,216.746,91.607,215.023,91.607z"/>
		<path fill="#FFFFFF" d="M235.9,87.649v3.138c0.697-0.957,1.347-1.661,1.948-2.112c1.477-1.148,3.254-1.723,5.332-1.723
			c1.832,0,3.384,0.465,4.655,1.395c1.012,0.738,1.719,1.671,2.123,2.799c0.403,1.128,0.605,2.717,0.605,4.768v14.068h-5.927V97.165
			c0-1.435-0.123-2.488-0.369-3.158c-0.232-0.588-0.629-1.053-1.189-1.395c-0.643-0.369-1.374-0.554-2.194-0.554
			c-0.902,0-1.723,0.219-2.461,0.656c-0.738,0.438-1.285,1.032-1.641,1.784c-0.396,0.848-0.595,2.167-0.595,3.958v11.525h-5.947
			V87.649H235.9z"/>
	</g>
</g>
</svg>
