<?xml version="1.0" encoding="utf-8"?>
<!-- Generator: Adobe Illustrator 24.2.0, SVG Export Plug-In . SVG Version: 6.00 Build 0)  -->
<svg version="1.0" id="Ebene_1" xmlns="http://www.w3.org/2000/svg" xmlns:xlink="http://www.w3.org/1999/xlink" x="0px" y="0px"
	 viewBox="0 0 400 400" enable-background="new 0 0 400 400" xml:space="preserve">
<polygon id="background-blue" fill="#2D327D" points="0,400 0,0 400,0 400,400 0,400 "/>
<g id="content">
	<path id="frameWhite" fill="#FFFFFF" d="M340,40c11,0,20,9,20,20v280c0,11-9,20-20,20H60c-11,0-20-9-20-20V60c0-11,9-20,20-20H340
		 M340,35H60c-13.785,0-25,11.215-25,25v280c0,13.785,11.215,25,25,25h280c13.785,0,25-11.215,25-25V60
		C365,46.215,353.785,35,340,35L340,35z"/>
	<g>
		<path fill="#FFFFFF" d="M105.348,80v29.982h-6.583L86.214,89.557l0.082,20.426H80V80h6.665l12.469,20.385L99.052,80H105.348z"/>
		<path fill="#FFFFFF" d="M121.426,86.973c3.254,0,5.913,1.08,7.978,3.24c2.037,2.133,3.056,4.977,3.056,8.531
			c0,3.678-1.087,6.61-3.261,8.798c-2.037,2.037-4.689,3.056-7.957,3.056c-3.486,0-6.262-1.135-8.326-3.404
			c-1.969-2.16-2.953-4.963-2.953-8.408c0-3.391,0.957-6.146,2.871-8.265C114.952,88.155,117.816,86.973,121.426,86.973z
			 M121.118,91.607c-1.572,0-2.823,0.636-3.753,1.907c-0.943,1.285-1.415,3.042-1.415,5.271c0,2.311,0.465,4.081,1.395,5.312
			c0.957,1.244,2.263,1.866,3.917,1.866c1.545,0,2.769-0.567,3.671-1.702c1.025-1.258,1.538-3.083,1.538-5.476
			c0-2.242-0.451-3.985-1.354-5.229C124.174,92.257,122.841,91.607,121.118,91.607z"/>
		<path fill="#FFFFFF" d="M142.426,80v29.982h-5.947V80H142.426z"/>
		<path fill="#FFFFFF" d="M167.384,103.01c-0.314,1.258-0.882,2.44-1.702,3.548c-1.969,2.693-4.799,4.04-8.49,4.04
			c-3.336,0-6.009-1.053-8.019-3.158c-0.984-1.025-1.736-2.263-2.256-3.712c-0.561-1.545-0.841-3.158-0.841-4.84
			c0-3.254,0.936-5.988,2.809-8.203c2.092-2.475,4.799-3.712,8.121-3.712c2.68,0,4.963,0.827,6.85,2.481
			c1.354,1.189,2.338,2.656,2.953,4.399c0.615,1.743,0.923,3.934,0.923,6.573h-15.606c0.055,1.094,0.226,2.003,0.513,2.728
			c0.807,1.955,2.338,2.933,4.594,2.933c1.107,0,2.01-0.243,2.707-0.728c0.697-0.485,1.271-1.268,1.723-2.348H167.384z
			 M161.662,96.427c-0.109-1.08-0.355-1.976-0.738-2.687c-0.383-0.697-0.926-1.251-1.63-1.661c-0.704-0.41-1.473-0.615-2.307-0.615
			c-1.326,0-2.42,0.444-3.281,1.333c-0.861,0.889-1.374,2.099-1.538,3.63H161.662z"/>
		<path fill="#FFFFFF" d="M192.301,87.588v19.729c0,1.75-0.109,3.148-0.328,4.194c-0.219,1.046-0.595,1.999-1.128,2.861
			c-1.723,2.734-4.812,4.102-9.27,4.102c-6.207,0-9.604-2.345-10.192-7.034h5.988c0.41,1.873,1.853,2.809,4.327,2.809
			c1.887,0,3.206-0.533,3.958-1.6c0.588-0.848,0.882-2.215,0.882-4.102l0.02-2.769c-1.531,2.352-3.746,3.527-6.645,3.527
			c-2.803,0-5.038-0.984-6.706-2.953c-1.695-1.996-2.543-4.689-2.543-8.08c0-3.391,0.848-6.111,2.543-8.162
			c1.764-2.119,4.081-3.179,6.952-3.179c1.49,0,2.734,0.28,3.732,0.841c0.998,0.56,1.914,1.497,2.748,2.809v-2.994H192.301z
			 M181.493,91.813c-1.668,0-2.933,0.697-3.794,2.092c-0.697,1.121-1.046,2.543-1.046,4.266c0,2.188,0.506,3.849,1.518,4.983
			c0.875,1.012,2.017,1.518,3.425,1.518c1.777,0,3.11-0.745,3.999-2.235c0.684-1.148,1.025-2.598,1.025-4.348
			c0-2.105-0.526-3.732-1.579-4.881C184.18,92.277,182.997,91.813,181.493,91.813z"/>
		<path fill="#FFFFFF" d="M218.038,87.588v19.729c0,1.75-0.109,3.148-0.328,4.194c-0.219,1.046-0.595,1.999-1.128,2.861
			c-1.723,2.734-4.812,4.102-9.27,4.102c-6.207,0-9.605-2.345-10.192-7.034h5.988c0.41,1.873,1.853,2.809,4.327,2.809
			c1.887,0,3.206-0.533,3.958-1.6c0.588-0.848,0.882-2.215,0.882-4.102l0.02-2.769c-1.531,2.352-3.746,3.527-6.645,3.527
			c-2.803,0-5.038-0.984-6.706-2.953c-1.695-1.996-2.543-4.689-2.543-8.08c0-3.391,0.848-6.111,2.543-8.162
			c1.764-2.119,4.081-3.179,6.952-3.179c1.49,0,2.734,0.28,3.732,0.841c0.998,0.56,1.914,1.497,2.748,2.809v-2.994H218.038z
			 M207.23,91.813c-1.668,0-2.933,0.697-3.794,2.092c-0.697,1.121-1.046,2.543-1.046,4.266c0,2.188,0.506,3.849,1.518,4.983
			c0.875,1.012,2.017,1.518,3.425,1.518c1.777,0,3.11-0.745,3.999-2.235c0.684-1.148,1.025-2.598,1.025-4.348
			c0-2.105-0.526-3.732-1.579-4.881C209.917,92.277,208.734,91.813,207.23,91.813z"/>
		<path fill="#FFFFFF" d="M228.887,80v5.353h-5.947V80H228.887z M228.887,87.629v22.354h-5.947V87.629H228.887z"/>
		<path fill="#FFFFFF" d="M244.37,86.973c3.254,0,5.913,1.08,7.978,3.24c2.037,2.133,3.056,4.977,3.056,8.531
			c0,3.678-1.087,6.61-3.261,8.798c-2.037,2.037-4.689,3.056-7.957,3.056c-3.486,0-6.262-1.135-8.326-3.404
			c-1.969-2.16-2.953-4.963-2.953-8.408c0-3.391,0.957-6.146,2.871-8.265C237.896,88.155,240.761,86.973,244.37,86.973z
			 M244.062,91.607c-1.572,0-2.823,0.636-3.753,1.907c-0.943,1.285-1.415,3.042-1.415,5.271c0,2.311,0.465,4.081,1.395,5.312
			c0.957,1.244,2.263,1.866,3.917,1.866c1.545,0,2.768-0.567,3.671-1.702c1.025-1.258,1.538-3.083,1.538-5.476
			c0-2.242-0.451-3.985-1.354-5.229C247.118,92.257,245.785,91.607,244.062,91.607z"/>
	</g>
	<g>
		<path fill="#FFFFFF" d="M226.463,197.273l24.141,8.443c0.52,0.198,1.092,0.284,1.65,0.284c1.67,0,3.218-0.83,4.148-2.215
			l5.426-8.047c0.444-0.668,0.669-1.448,0.669-2.229c0-2.215-1.785-4.01-3.99-4.01H227.79c-2.219,0-4.014,1.795-4.014,4.01
			C223.776,195.207,224.865,196.717,226.463,197.273L226.463,197.273z"/>
		<path fill="#FFFFFF" d="M141.991,197.5H177v-8h-35.009c-2.206,0-3.991,1.793-3.991,4.005C138,195.707,139.785,197.5,141.991,197.5
			L141.991,197.5z"/>
		<path fill="#FFFFFF" d="M141.999,210.504h5.003c2.205,0,4.003-1.795,4.003-4c0-2.215-1.798-4.01-4.003-4.01h-5.003
			c-2.205,0-3.99,1.795-3.99,4.01C138.009,208.709,139.794,210.504,141.999,210.504L141.999,210.504z"/>
		<path fill="#FFFFFF" d="M270.998,221.991c-7.793,0-15.482,1.857-22.407,5.42L238.99,212h-77.997l-9.598,15.411
			c-6.924-3.563-14.604-5.42-22.396-5.42C101.948,221.991,80,243.939,80,271c0,27.037,21.948,48.999,48.999,48.999
			c27.04,0,48.989-21.963,48.989-48.999c0-15.523-7.335-30.106-19.796-39.366l5.378-8.64l26.21,38.971
			c-1.809,2.289-2.787,5.112-2.787,8.033c0,7.168,5.832,12.999,12.991,12.999c5.053,0,9.649-2.934,11.792-7.502h10.431
			c2.316,25.216,23.471,44.505,48.789,44.505C298.049,319.999,320,298.036,320,271C320,243.939,298.049,221.991,270.998,221.991
			L270.998,221.991z M169.999,271c0,22.631-18.37,41.001-41,41.001c-22.63,0-41.01-18.37-41.01-41.001
			c0-22.641,18.379-41.002,41.01-41.002c6.304,0,12.509,1.449,18.159,4.234l-21.566,34.651c-0.382,0.631-0.592,1.362-0.592,2.116
			c0,2.205,1.781,4,3.999,4c1.388,0,2.663-0.72,3.393-1.895l21.566-34.638C164.067,246.229,169.999,258.25,169.999,271L169.999,271z
			 M203.578,257.494c-1.164-0.334-2.367-0.495-3.593-0.495c-1.199,0-2.401,0.16-3.565,0.495l-25.219-37.498h57.595L203.578,257.494
			L203.578,257.494z M222.119,267.496h-9.364c-0.396-2.018-1.26-3.924-2.539-5.532l26.2-38.971l5.388,8.64
			C230.332,240.149,223.149,253.248,222.119,267.496L222.119,267.496z M246.039,238.467l18.072,29.029h-33.965
			C231.126,256.009,236.899,245.474,246.039,238.467L246.039,238.467z M270.998,312.001c-20.909,0-38.461-15.734-40.766-36.507
			h34.151c1.488,2.191,3.965,3.504,6.614,3.504c4.41,0,7.988-3.592,7.988-7.998c0-4.42-3.579-8.009-7.988-8.009
			c-0.086,0-0.186,0-0.258,0.014l-17.911-28.772c5.646-2.785,11.865-4.234,18.169-4.234c22.63,0,40.986,18.361,40.986,41.002
			C311.984,293.63,293.628,312.001,270.998,312.001L270.998,312.001z"/>
	</g>
</g>
</svg>
