<?xml version="1.0" encoding="utf-8"?>
<!-- Generator: Adobe Illustrator 24.2.0, SVG Export Plug-In . SVG Version: 6.00 Build 0)  -->
<svg version="1.0" id="Ebene_1" xmlns="http://www.w3.org/2000/svg" xmlns:xlink="http://www.w3.org/1999/xlink" x="0px" y="0px"
	 viewBox="0 0 400 400" enable-background="new 0 0 400 400" xml:space="preserve">
<polygon id="background-blue" fill="#2D327D" points="0,400 0,0 400,0 400,400 0,400 "/>
<g id="content">
	<path id="frameWhite" fill="#FFFFFF" d="M340,40c11,0,20,9,20,20v280c0,11-9,20-20,20H60c-11,0-20-9-20-20V60c0-11,9-20,20-20H340
		 M340,35H60c-13.785,0-25,11.215-25,25v280c0,13.785,11.215,25,25,25h280c13.785,0,25-11.215,25-25V60
		C365,46.215,353.785,35,340,35L340,35z"/>
	<g>
		<path fill="#FFFFFF" d="M226.463,197.273l24.141,8.443c0.52,0.198,1.092,0.284,1.65,0.284c1.67,0,3.218-0.83,4.148-2.215
			l5.426-8.047c0.444-0.668,0.669-1.448,0.669-2.229c0-2.215-1.785-4.01-3.99-4.01H227.79c-2.219,0-4.014,1.795-4.014,4.01
			C223.776,195.207,224.865,196.717,226.463,197.273L226.463,197.273z"/>
		<path fill="#FFFFFF" d="M141.991,197.5H177v-8h-35.009c-2.206,0-3.991,1.793-3.991,4.005C138,195.707,139.785,197.5,141.991,197.5
			L141.991,197.5z"/>
		<path fill="#FFFFFF" d="M141.999,210.504h5.003c2.205,0,4.003-1.795,4.003-4c0-2.215-1.798-4.01-4.003-4.01h-5.003
			c-2.205,0-3.99,1.795-3.99,4.01C138.009,208.709,139.794,210.504,141.999,210.504L141.999,210.504z"/>
		<path fill="#FFFFFF" d="M270.998,221.991c-7.793,0-15.482,1.857-22.407,5.42L238.99,212h-77.997l-9.598,15.411
			c-6.924-3.563-14.604-5.42-22.396-5.42C101.948,221.991,80,243.939,80,271c0,27.037,21.948,48.999,48.999,48.999
			c27.04,0,48.989-21.963,48.989-48.999c0-15.523-7.335-30.106-19.796-39.366l5.378-8.64l26.21,38.971
			c-1.809,2.289-2.787,5.112-2.787,8.033c0,7.168,5.832,12.999,12.991,12.999c5.053,0,9.649-2.934,11.792-7.502h10.431
			c2.316,25.216,23.471,44.505,48.789,44.505C298.049,319.999,320,298.036,320,271C320,243.939,298.049,221.991,270.998,221.991
			L270.998,221.991z M169.999,271c0,22.631-18.37,41.001-41,41.001c-22.63,0-41.01-18.37-41.01-41.001
			c0-22.641,18.379-41.002,41.01-41.002c6.304,0,12.509,1.449,18.159,4.234l-21.566,34.651c-0.382,0.631-0.592,1.362-0.592,2.116
			c0,2.205,1.781,4,3.999,4c1.388,0,2.663-0.72,3.393-1.895l21.566-34.638C164.067,246.229,169.999,258.25,169.999,271L169.999,271z
			 M203.578,257.494c-1.164-0.334-2.367-0.495-3.593-0.495c-1.199,0-2.401,0.16-3.565,0.495l-25.219-37.498h57.595L203.578,257.494
			L203.578,257.494z M222.119,267.496h-9.364c-0.396-2.018-1.26-3.924-2.539-5.532l26.2-38.971l5.388,8.64
			C230.332,240.149,223.149,253.248,222.119,267.496L222.119,267.496z M246.039,238.467l18.072,29.029h-33.965
			C231.126,256.009,236.899,245.474,246.039,238.467L246.039,238.467z M270.998,312.001c-20.909,0-38.461-15.734-40.766-36.507
			h34.151c1.488,2.191,3.965,3.504,6.614,3.504c4.41,0,7.988-3.592,7.988-7.998c0-4.42-3.579-8.009-7.988-8.009
			c-0.086,0-0.186,0-0.258,0.014l-17.911-28.772c5.646-2.785,11.865-4.234,18.169-4.234c22.63,0,40.986,18.361,40.986,41.002
			C311.984,293.63,293.628,312.001,270.998,312.001L270.998,312.001z"/>
	</g>
	<g id="Ergaenzungstext">
		<path fill="#FFFFFF" d="M101.205,104.445v5.537H80V80h6.542v24.445H101.205z"/>
		<path fill="#FFFFFF" d="M114.966,86.973c3.254,0,5.913,1.08,7.978,3.24c2.037,2.133,3.056,4.977,3.056,8.531
			c0,3.678-1.087,6.61-3.261,8.798c-2.037,2.037-4.689,3.056-7.957,3.056c-3.486,0-6.262-1.135-8.326-3.404
			c-1.969-2.16-2.953-4.963-2.953-8.408c0-3.391,0.957-6.146,2.871-8.265C108.492,88.155,111.356,86.973,114.966,86.973z
			 M114.658,91.607c-1.572,0-2.823,0.636-3.753,1.907c-0.943,1.285-1.415,3.042-1.415,5.271c0,2.311,0.465,4.081,1.395,5.312
			c0.957,1.244,2.263,1.866,3.917,1.866c1.545,0,2.768-0.567,3.671-1.702c1.025-1.258,1.538-3.083,1.538-5.476
			c0-2.242-0.451-3.985-1.353-5.229C117.714,92.257,116.381,91.607,114.658,91.607z"/>
		<path fill="#FFFFFF" d="M150.649,101.39c-0.287,2.229-1.032,4.088-2.235,5.578c-1.941,2.42-4.683,3.63-8.224,3.63
			c-3.637,0-6.467-1.244-8.49-3.732c-1.709-2.119-2.563-4.737-2.563-7.854c0-3.855,1.142-6.897,3.425-9.126
			c1.996-1.941,4.573-2.912,7.732-2.912c2.912,0,5.277,0.755,7.096,2.266c1.818,1.511,2.857,3.579,3.117,6.204h-5.845
			c-0.219-1.189-0.704-2.112-1.456-2.769c-0.752-0.656-1.702-0.984-2.851-0.984c-1.654,0-2.936,0.625-3.845,1.876
			c-0.909,1.251-1.364,3.004-1.364,5.26c0,1.996,0.362,3.603,1.087,4.819c0.889,1.49,2.222,2.235,3.999,2.235
			c2.625,0,4.163-1.497,4.614-4.491H150.649z"/>
		<path fill="#FFFFFF" d="M174.5,109.982h-6.07c-0.26-0.875-0.39-1.62-0.39-2.235c-1.859,1.9-4.259,2.851-7.198,2.851
			c-2.297,0-4.088-0.533-5.373-1.6c-1.477-1.23-2.215-2.946-2.215-5.147c0-2.803,1.265-4.744,3.794-5.824
			c1.025-0.438,2.912-0.841,5.66-1.21c2.365-0.314,3.838-0.619,4.419-0.913c0.581-0.294,0.872-0.885,0.872-1.774
			c0-1.955-1.299-2.933-3.896-2.933c-1.381,0-2.389,0.246-3.025,0.738c-0.636,0.492-1.056,1.347-1.261,2.563h-5.619
			c0.178-2.488,1.114-4.365,2.81-5.629c1.695-1.265,4.108-1.897,7.239-1.897c3.459,0,6.016,0.704,7.67,2.112
			c0.766,0.656,1.275,1.36,1.528,2.112c0.253,0.752,0.379,1.941,0.379,3.568c0,0.342-0.02,1.846-0.061,4.512
			c-0.027,2.693-0.041,4.238-0.041,4.635c0,1.627,0.048,2.82,0.144,3.579C173.96,108.25,174.172,109.08,174.5,109.982z
			 M167.958,99.175c-0.766,0.479-2.16,0.854-4.184,1.128c-1.422,0.219-2.447,0.499-3.076,0.841c-0.889,0.479-1.333,1.292-1.333,2.44
			c0,0.93,0.294,1.654,0.882,2.174s1.408,0.779,2.461,0.779c1.75,0,3.165-0.615,4.245-1.846c0.383-0.424,0.646-0.865,0.79-1.323
			c0.143-0.458,0.215-1.063,0.215-1.815V99.175z"/>
		<path fill="#FFFFFF" d="M190.476,87.547v4.204h-4.45v10.521c0,1.258,0.116,2.058,0.349,2.399c0.342,0.492,1.107,0.738,2.297,0.738
			c0.465,0,1.066-0.034,1.805-0.103v4.758c-1.34,0.15-2.57,0.225-3.691,0.225c-1.695,0-2.987-0.191-3.876-0.574
			c-1.381-0.615-2.242-1.736-2.584-3.363c-0.15-0.697-0.226-2.14-0.226-4.327V91.751h-3.63v-4.204h3.63v-5.25h5.927v5.25H190.476z"
			/>
		<path fill="#FFFFFF" d="M199.848,80v5.353H193.9V80H199.848z M199.848,87.629v22.354H193.9V87.629H199.848z"/>
		<path fill="#FFFFFF" d="M215.331,86.973c3.254,0,5.913,1.08,7.977,3.24c2.037,2.133,3.056,4.977,3.056,8.531
			c0,3.678-1.087,6.61-3.261,8.798c-2.037,2.037-4.689,3.056-7.957,3.056c-3.486,0-6.262-1.135-8.326-3.404
			c-1.969-2.16-2.953-4.963-2.953-8.408c0-3.391,0.957-6.146,2.871-8.265C208.857,88.155,211.722,86.973,215.331,86.973z
			 M215.023,91.607c-1.572,0-2.823,0.636-3.753,1.907c-0.943,1.285-1.415,3.042-1.415,5.271c0,2.311,0.465,4.081,1.395,5.312
			c0.957,1.244,2.263,1.866,3.917,1.866c1.545,0,2.768-0.567,3.671-1.702c1.025-1.258,1.538-3.083,1.538-5.476
			c0-2.242-0.451-3.985-1.354-5.229C218.079,92.257,216.746,91.607,215.023,91.607z"/>
		<path fill="#FFFFFF" d="M235.9,87.649v3.138c0.697-0.957,1.347-1.661,1.948-2.112c1.477-1.148,3.254-1.723,5.332-1.723
			c1.832,0,3.384,0.465,4.655,1.395c1.012,0.738,1.719,1.671,2.123,2.799c0.403,1.128,0.605,2.717,0.605,4.768v14.068h-5.927V97.165
			c0-1.435-0.123-2.488-0.369-3.158c-0.232-0.588-0.629-1.053-1.189-1.395c-0.643-0.369-1.374-0.554-2.194-0.554
			c-0.902,0-1.723,0.219-2.461,0.656c-0.738,0.438-1.285,1.032-1.641,1.784c-0.396,0.848-0.595,2.167-0.595,3.958v11.525h-5.947
			V87.649H235.9z"/>
	</g>
</g>
</svg>
