<?xml version="1.0" encoding="utf-8"?>
<!-- Generator: Adobe Illustrator 24.2.0, SVG Export Plug-In . SVG Version: 6.00 Build 0)  -->
<svg version="1.0" id="Ebene_1" xmlns="http://www.w3.org/2000/svg" xmlns:xlink="http://www.w3.org/1999/xlink" x="0px" y="0px"
	 viewBox="0 0 400 400" enable-background="new 0 0 400 400" xml:space="preserve">
<polygon id="background-blue" fill="#2D327D" points="0,400 0,0 400,0 400,400 0,400 "/>
<g id="content">
	<path id="frameWhite" fill="#FFFFFF" d="M340,40c11,0,20,9,20,20v280c0,11-9,20-20,20H60c-11,0-20-9-20-20V60c0-11,9-20,20-20H340
		 M340,35H60c-13.785,0-25,11.215-25,25v280c0,13.785,11.215,25,25,25h280c13.785,0,25-11.215,25-25V60
		C365,46.215,353.785,35,340,35L340,35z"/>
	<g>
		<path fill="#FFFFFF" d="M173.537,197.273l-24.141,8.443c-0.52,0.198-1.092,0.284-1.65,0.284c-1.67,0-3.218-0.83-4.147-2.215
			l-5.426-8.047c-0.444-0.668-0.669-1.448-0.669-2.229c0-2.215,1.785-4.01,3.99-4.01h30.716c2.219,0,4.014,1.795,4.014,4.01
			C176.224,195.207,175.135,196.717,173.537,197.273L173.537,197.273z"/>
		<path fill="#FFFFFF" d="M258.009,197.5H223v-8h35.009c2.206,0,3.991,1.793,3.991,4.005C262,195.707,260.215,197.5,258.009,197.5
			L258.009,197.5z"/>
		<path fill="#FFFFFF" d="M258.004,210.494H253c-2.206,0-4.004-1.793-4.004-3.995c0-2.212,1.798-4.005,4.004-4.005h5.004
			c2.206,0,3.991,1.793,3.991,4.005C261.996,208.701,260.21,210.494,258.004,210.494L258.004,210.494z"/>
		<path fill="#FFFFFF" d="M129.002,221.991C101.951,221.991,80,243.939,80,271c0,27.037,21.951,48.999,49.002,48.999
			c25.318,0,46.474-19.289,48.79-44.505h10.431c2.143,4.568,6.74,7.502,11.792,7.502c7.159,0,12.991-5.831,12.991-12.999
			c0-2.921-0.978-5.744-2.787-8.033l26.21-38.971l5.378,8.64c-12.461,9.26-19.796,23.843-19.796,39.366
			c0,27.037,21.949,48.999,48.989,48.999C298.052,319.999,320,298.036,320,271c0-27.061-21.948-49.009-48.999-49.009
			c-7.793,0-15.472,1.857-22.396,5.42L239.007,212H161.01l-9.601,15.411C144.484,223.848,136.795,221.991,129.002,221.991
			L129.002,221.991z M230.001,271c0-12.75,5.932-24.771,16.04-32.533l21.566,34.638c0.73,1.175,2.005,1.895,3.393,1.895
			c2.218,0,3.999-1.795,3.999-4c0-0.754-0.21-1.485-0.592-2.116l-21.566-34.651c5.65-2.785,11.855-4.234,18.159-4.234
			c22.63,0,41.01,18.361,41.01,41.002c0,22.631-18.379,41.001-41.01,41.001C248.371,312.001,230.001,293.63,230.001,271L230.001,271
			z M196.422,257.494l-25.218-37.498h57.595l-25.219,37.498c-1.164-0.334-2.366-0.495-3.565-0.495
			C198.789,257,197.586,257.16,196.422,257.494L196.422,257.494z M177.881,267.496c-1.03-14.249-8.213-27.347-19.686-35.863
			l5.388-8.64l26.2,38.971c-1.278,1.608-2.143,3.515-2.539,5.532H177.881L177.881,267.496z M153.961,238.467
			c9.14,7.007,14.913,17.542,15.893,29.029h-33.965L153.961,238.467L153.961,238.467z M129.002,312.001
			c-22.63,0-40.986-18.37-40.986-41.001c0-22.641,18.356-41.002,40.986-41.002c6.304,0,12.522,1.449,18.169,4.234l-17.911,28.772
			c-0.072-0.014-0.172-0.014-0.258-0.014c-4.41,0-7.988,3.589-7.988,8.009c0,4.406,3.579,7.998,7.988,7.998
			c2.649,0,5.126-1.313,6.614-3.504h34.151C167.463,296.266,149.911,312.001,129.002,312.001L129.002,312.001z"/>
	</g>
	<g>
		<path fill="#FFFFFF" d="M105.348,80v29.982h-6.583L86.214,89.557l0.082,20.426H80V80h6.665l12.469,20.385L99.052,80H105.348z"/>
		<path fill="#FFFFFF" d="M121.426,86.973c3.254,0,5.913,1.08,7.978,3.24c2.037,2.133,3.056,4.977,3.056,8.531
			c0,3.678-1.087,6.61-3.261,8.798c-2.037,2.037-4.689,3.056-7.957,3.056c-3.486,0-6.262-1.135-8.326-3.404
			c-1.969-2.16-2.953-4.963-2.953-8.408c0-3.391,0.957-6.146,2.871-8.265C114.952,88.155,117.816,86.973,121.426,86.973z
			 M121.118,91.607c-1.572,0-2.823,0.636-3.753,1.907c-0.943,1.285-1.415,3.042-1.415,5.271c0,2.311,0.465,4.081,1.395,5.312
			c0.957,1.244,2.263,1.866,3.917,1.866c1.545,0,2.769-0.567,3.671-1.702c1.025-1.258,1.538-3.083,1.538-5.476
			c0-2.242-0.451-3.985-1.354-5.229C124.174,92.257,122.841,91.607,121.118,91.607z"/>
		<path fill="#FFFFFF" d="M142.426,80v29.982h-5.947V80H142.426z"/>
		<path fill="#FFFFFF" d="M167.384,103.01c-0.314,1.258-0.882,2.44-1.702,3.548c-1.969,2.693-4.799,4.04-8.49,4.04
			c-3.336,0-6.009-1.053-8.019-3.158c-0.984-1.025-1.736-2.263-2.256-3.712c-0.561-1.545-0.841-3.158-0.841-4.84
			c0-3.254,0.936-5.988,2.809-8.203c2.092-2.475,4.799-3.712,8.121-3.712c2.68,0,4.963,0.827,6.85,2.481
			c1.354,1.189,2.338,2.656,2.953,4.399c0.615,1.743,0.923,3.934,0.923,6.573h-15.606c0.055,1.094,0.226,2.003,0.513,2.728
			c0.807,1.955,2.338,2.933,4.594,2.933c1.107,0,2.01-0.243,2.707-0.728c0.697-0.485,1.271-1.268,1.723-2.348H167.384z
			 M161.662,96.427c-0.109-1.08-0.355-1.976-0.738-2.687c-0.383-0.697-0.926-1.251-1.63-1.661c-0.704-0.41-1.473-0.615-2.307-0.615
			c-1.326,0-2.42,0.444-3.281,1.333c-0.861,0.889-1.374,2.099-1.538,3.63H161.662z"/>
		<path fill="#FFFFFF" d="M192.301,87.588v19.729c0,1.75-0.109,3.148-0.328,4.194c-0.219,1.046-0.595,1.999-1.128,2.861
			c-1.723,2.734-4.812,4.102-9.27,4.102c-6.207,0-9.604-2.345-10.192-7.034h5.988c0.41,1.873,1.853,2.809,4.327,2.809
			c1.887,0,3.206-0.533,3.958-1.6c0.588-0.848,0.882-2.215,0.882-4.102l0.02-2.769c-1.531,2.352-3.746,3.527-6.645,3.527
			c-2.803,0-5.038-0.984-6.706-2.953c-1.695-1.996-2.543-4.689-2.543-8.08c0-3.391,0.848-6.111,2.543-8.162
			c1.764-2.119,4.081-3.179,6.952-3.179c1.49,0,2.734,0.28,3.732,0.841c0.998,0.56,1.914,1.497,2.748,2.809v-2.994H192.301z
			 M181.493,91.813c-1.668,0-2.933,0.697-3.794,2.092c-0.697,1.121-1.046,2.543-1.046,4.266c0,2.188,0.506,3.849,1.518,4.983
			c0.875,1.012,2.017,1.518,3.425,1.518c1.777,0,3.11-0.745,3.999-2.235c0.684-1.148,1.025-2.598,1.025-4.348
			c0-2.105-0.526-3.732-1.579-4.881C184.18,92.277,182.997,91.813,181.493,91.813z"/>
		<path fill="#FFFFFF" d="M218.038,87.588v19.729c0,1.75-0.109,3.148-0.328,4.194c-0.219,1.046-0.595,1.999-1.128,2.861
			c-1.723,2.734-4.812,4.102-9.27,4.102c-6.207,0-9.605-2.345-10.192-7.034h5.988c0.41,1.873,1.853,2.809,4.327,2.809
			c1.887,0,3.206-0.533,3.958-1.6c0.588-0.848,0.882-2.215,0.882-4.102l0.02-2.769c-1.531,2.352-3.746,3.527-6.645,3.527
			c-2.803,0-5.038-0.984-6.706-2.953c-1.695-1.996-2.543-4.689-2.543-8.08c0-3.391,0.848-6.111,2.543-8.162
			c1.764-2.119,4.081-3.179,6.952-3.179c1.49,0,2.734,0.28,3.732,0.841c0.998,0.56,1.914,1.497,2.748,2.809v-2.994H218.038z
			 M207.23,91.813c-1.668,0-2.933,0.697-3.794,2.092c-0.697,1.121-1.046,2.543-1.046,4.266c0,2.188,0.506,3.849,1.518,4.983
			c0.875,1.012,2.017,1.518,3.425,1.518c1.777,0,3.11-0.745,3.999-2.235c0.684-1.148,1.025-2.598,1.025-4.348
			c0-2.105-0.526-3.732-1.579-4.881C209.917,92.277,208.734,91.813,207.23,91.813z"/>
		<path fill="#FFFFFF" d="M228.887,80v5.353h-5.947V80H228.887z M228.887,87.629v22.354h-5.947V87.629H228.887z"/>
		<path fill="#FFFFFF" d="M244.37,86.973c3.254,0,5.913,1.08,7.978,3.24c2.037,2.133,3.056,4.977,3.056,8.531
			c0,3.678-1.087,6.61-3.261,8.798c-2.037,2.037-4.689,3.056-7.957,3.056c-3.486,0-6.262-1.135-8.326-3.404
			c-1.969-2.16-2.953-4.963-2.953-8.408c0-3.391,0.957-6.146,2.871-8.265C237.896,88.155,240.761,86.973,244.37,86.973z
			 M244.062,91.607c-1.572,0-2.823,0.636-3.753,1.907c-0.943,1.285-1.415,3.042-1.415,5.271c0,2.311,0.465,4.081,1.395,5.312
			c0.957,1.244,2.263,1.866,3.917,1.866c1.545,0,2.768-0.567,3.671-1.702c1.025-1.258,1.538-3.083,1.538-5.476
			c0-2.242-0.451-3.985-1.354-5.229C247.118,92.257,245.785,91.607,244.062,91.607z"/>
	</g>
</g>
</svg>
