<?xml version="1.0" encoding="utf-8"?>
<!-- Generator: Adobe Illustrator 26.0.1, SVG Export Plug-In . SVG Version: 6.00 Build 0)  -->
<svg version="1.0" xmlns="http://www.w3.org/2000/svg" xmlns:xlink="http://www.w3.org/1999/xlink" x="0px" y="0px"
	 viewBox="0 0 400 400" enable-background="new 0 0 400 400" xml:space="preserve">
<rect id="background-blue" fill="#2D327D" width="400" height="400"/>
<g id="content">
	<path id="frameWhite" fill="#FFFFFF" d="M340,40c11,0,20,9,20,20v280c0,11-9,20-20,20H60c-11,0-20-9-20-20V60c0-11,9-20,20-20H340
		 M340,35H60c-13.785,0-25,11.215-25,25v280c0,13.785,11.215,25,25,25h280c13.785,0,25-11.215,25-25V60
		C365,46.215,353.785,35,340,35L340,35z"/>
	<path fill="#FFFFFF" d="M115.232,80v29.982h-6.214l0.226-22.784l-7.567,22.784h-5.147l-7.69-22.148l0.226,22.148h-6.214V80h9.311
		l7.055,21.554L106.004,80H115.232z"/>
	<path fill="#FFFFFF" d="M140.621,103.01c-0.314,1.258-0.882,2.44-1.702,3.548c-1.969,2.693-4.799,4.04-8.49,4.04
		c-3.336,0-6.009-1.053-8.019-3.158c-0.984-1.025-1.736-2.263-2.256-3.712c-0.561-1.545-0.841-3.158-0.841-4.84
		c0-3.254,0.937-5.988,2.81-8.203c2.092-2.475,4.799-3.712,8.121-3.712c2.68,0,4.963,0.827,6.85,2.481
		c1.354,1.189,2.338,2.656,2.953,4.399s0.923,3.934,0.923,6.573h-15.606c0.055,1.094,0.226,2.003,0.513,2.728
		c0.807,1.955,2.338,2.933,4.594,2.933c1.107,0,2.01-0.243,2.707-0.728s1.271-1.268,1.723-2.348H140.621z M134.899,96.427
		c-0.109-1.08-0.355-1.976-0.738-2.687c-0.383-0.697-0.926-1.251-1.63-1.661s-1.473-0.615-2.307-0.615
		c-1.326,0-2.42,0.444-3.281,1.333s-1.374,2.099-1.538,3.63H134.899z"/>
	<path fill="#FFFFFF" d="M156.187,87.547v4.204h-4.45v10.521c0,1.258,0.116,2.058,0.349,2.399c0.342,0.492,1.107,0.738,2.297,0.738
		c0.465,0,1.066-0.034,1.805-0.103v4.758c-1.34,0.15-2.57,0.226-3.691,0.226c-1.695,0-2.987-0.191-3.876-0.574
		c-1.381-0.615-2.242-1.736-2.584-3.363c-0.15-0.697-0.226-2.14-0.226-4.327V91.751h-3.63v-4.204h3.63v-5.25h5.927v5.25H156.187z"/>
	<path fill="#FFFFFF" d="M173.536,87.219v5.763c-0.957-0.178-1.729-0.267-2.317-0.267c-2.215,0-3.842,0.93-4.881,2.789
		c-0.588,1.039-0.882,2.775-0.882,5.209v9.27h-5.947V87.588h5.66v4.081c1.613-3.035,3.958-4.553,7.034-4.553
		C172.586,87.116,173.03,87.15,173.536,87.219z"/>
	<path fill="#FFFFFF" d="M186.723,86.973c3.254,0,5.913,1.08,7.978,3.24c2.037,2.133,3.056,4.977,3.056,8.531
		c0,3.678-1.087,6.61-3.261,8.798c-2.037,2.037-4.689,3.056-7.957,3.056c-3.486,0-6.262-1.135-8.326-3.404
		c-1.969-2.16-2.953-4.963-2.953-8.408c0-3.391,0.957-6.146,2.871-8.265C180.249,88.155,183.113,86.973,186.723,86.973z
		 M186.415,91.607c-1.572,0-2.823,0.636-3.753,1.907c-0.943,1.285-1.415,3.042-1.415,5.271c0,2.311,0.465,4.081,1.395,5.312
		c0.957,1.244,2.263,1.866,3.917,1.866c1.545,0,2.769-0.567,3.671-1.702c1.025-1.258,1.538-3.083,1.538-5.476
		c0-2.242-0.451-3.985-1.354-5.229C189.471,92.257,188.138,91.607,186.415,91.607z"/>
	<rect x="80" y="310" fill="#FFFFFF" width="240" height="10"/>
	<path fill="#FFFFFF" d="M80,237.919v57.084c0,2.761,2.239,5,5,5h234.982v-65.875h-32.015c-2.763,0-5.002-2.239-5.002-4.998v-74.115
		c0-2.76,2.239-5,5.002-5h32.015v-9h-144.13h-72.142c-11.171,0-15.14,6.131-16.022,15.715C87.687,156.73,80,237.129,80,237.919z
		 M257.14,156.722c0-4.251,3.448-7.699,7.699-7.699c4.248,0,7.7,3.448,7.7,7.699v125.577c0,4.249-3.452,7.7-7.7,7.7
		c-4.251,0-7.699-3.45-7.699-7.7V156.722z M231.315,156.722c0-4.251,3.448-7.699,7.699-7.699c4.248,0,7.7,3.448,7.7,7.699v125.577
		c0,4.249-3.452,7.7-7.7,7.7c-4.251,0-7.699-3.45-7.699-7.7V156.722z M160.252,155.015c0-2.76,2.239-5,4.999-5h50.637
		c2.763,0,5.002,2.241,5.002,5v74.115c0,2.759-2.239,4.998-5.002,4.998H165.25c-2.759,0-4.999-2.239-4.999-4.998V155.015z
		 M89.4,228.747l5.872-73.731c0.353-3.224,2.239-5,4.999-5h46.186c2.763,0,5.002,2.241,5.002,5v74.115
		c0,2.759-2.239,4.998-5.002,4.998l-52.459-0.429C91.238,233.699,89.124,231.632,89.4,228.747z"/>
</g>
</svg>
