<?xml version="1.0" encoding="utf-8"?>
<!-- Generator: Adobe Illustrator 24.2.0, SVG Export Plug-In . SVG Version: 6.00 Build 0)  -->
<svg version="1.0" xmlns="http://www.w3.org/2000/svg" xmlns:xlink="http://www.w3.org/1999/xlink" x="0px" y="0px"
	 viewBox="0 0 400 400" enable-background="new 0 0 400 400" xml:space="preserve">
<rect id="background-blue" fill="#2D327D" width="400" height="400"/>
<g id="content">
	<path id="frameWhite" fill="#FFFFFF" d="M340,40c11,0,20,9,20,20v280c0,11-9,20-20,20H60c-11,0-20-9-20-20V60c0-11,9-20,20-20H340
		 M340,35H60c-13.785,0-25,11.215-25,25v280c0,13.785,11.215,25,25,25h280c13.785,0,25-11.215,25-25V60
		C365,46.215,353.785,35,340,35L340,35z"/>
	<path fill="#FFFFFF" d="M87.619,254.051c0,2.734,0,32.719,0,32.719c0,4.983,4.042,9.027,9.026,9.027h79.91
		c5.834,0,8.65-3.258,8.65-8.586c0.935-22.246,18.836-41.724,43.199-41.724c22.502,0,43.2,18.651,43.2,41.724
		c0,6.226,3.411,8.586,8.564,8.586H320v-65.026H172.418c-2.728,0-4.939-2.211-4.939-4.939c0-2.728,2.211-4.939,4.939-4.939H320
		v-9.069H172.418c-2.728,0-4.939-2.211-4.939-4.939s2.211-4.939,4.939-4.939H320v-20.294h-42.253c-2.809,0-5.086-2.277-5.086-5.086
		v-56.187c0-2.809,2.277-5.086,5.086-5.086H320v-0.662V103.35H133.15c-8.704,0-17.756,7.878-19.326,15.156
		c0,0-18.284,82.045-25.739,129.406C87.93,248.896,87.619,251.317,87.619,254.051z M165.15,172.53l25.392-51.13
		c1.572-2.844,3.855-6.106,7.957-6.106h56.05c3.372,0,6.106,2.734,6.106,6.106v54.148c0,3.372-2.734,6.106-6.106,6.106h-84.6
		C166.578,181.654,162.951,177.986,165.15,172.53z M103.3,227.466l22.154-104.111c1.512-5.469,4.406-8.451,9.699-8.451l36.587-0.133
		c3.097,0,5.31,3.88,4.62,7.122c-0.124,0.58-0.333,1.138-0.622,1.658l-55.175,110.282c-1.921,3.462-5.878,5.263-9.749,4.438
		l-0.584-0.125C105.368,237.111,102.264,232.327,103.3,227.466z"/>
	<path fill="#FFFFFF" d="M71.581,172.792l3.649-26.315l0.056-0.326c1.088-5.24,2.806-11.118,7.302-14.983
		c3.787-3.256,8.942-4.708,16.713-4.708h5.903l-1.865,9.878h-4.038c-6.79,0-9.115,1.324-10.274,2.32
		c-1.747,1.502-2.995,4.387-4.037,9.342l-3.626,26.148c-0.343,2.472-2.459,4.261-4.886,4.261c-0.226,0-0.455-0.016-0.685-0.047
		C73.093,177.988,71.206,175.494,71.581,172.792z"/>
	<path fill="#FFFFFF" d="M197.09,288.686c0-17.266,14.048-31.312,31.315-31.312c17.266,0,31.313,14.047,31.313,31.312
		c0,17.267-14.047,31.314-31.313,31.314C211.138,320,197.09,305.952,197.09,288.686z M212.198,288.108
		c0,8.937,7.271,16.207,16.209,16.207c8.935,0,16.204-7.27,16.204-16.207c0-8.936-7.269-16.205-16.204-16.205
		C219.469,271.903,212.198,279.172,212.198,288.108z"/>
</g>
</svg>
