<?xml version="1.0" encoding="utf-8"?>
<!-- Generator: Adobe Illustrator 24.2.0, SVG Export Plug-In . SVG Version: 6.00 Build 0)  -->
<svg version="1.0" xmlns="http://www.w3.org/2000/svg" xmlns:xlink="http://www.w3.org/1999/xlink" x="0px" y="0px"
	 viewBox="0 0 400 400" enable-background="new 0 0 400 400" xml:space="preserve">
<rect id="background-blue" fill="#2D327D" width="400" height="400"/>
<g id="content">
	<path id="frameWhite" fill="#FFFFFF" d="M340,40c11,0,20,9,20,20v280c0,11-9,20-20,20H60c-11,0-20-9-20-20V60c0-11,9-20,20-20H340
		 M340,35H60c-13.785,0-25,11.215-25,25v280c0,13.785,11.215,25,25,25h280c13.785,0,25-11.215,25-25V60
		C365,46.215,353.785,35,340,35L340,35z"/>
	<path fill="#FFFFFF" d="M311.915,247.912c-7.456-47.361-25.739-129.406-25.739-129.406c-1.57-7.278-10.622-15.156-19.326-15.156H80
		v11.282v0.662h42.253c2.809,0,5.086,2.277,5.086,5.086v56.187c0,2.809-2.277,5.086-5.086,5.086H80v20.294h147.582
		c2.728,0,4.939,2.211,4.939,4.939s-2.211,4.939-4.939,4.939H80v9.069h147.582c2.728,0,4.939,2.211,4.939,4.939
		c0,2.728-2.211,4.939-4.939,4.939H80v65.026h39.832c5.152,0,8.564-2.36,8.564-8.586c0-23.073,20.698-41.724,43.2-41.724
		c24.364,0,42.265,19.479,43.199,41.724c0,5.328,2.815,8.586,8.65,8.586h79.91c4.983,0,9.026-4.044,9.026-9.027
		c0,0,0-29.984,0-32.719S312.07,248.896,311.915,247.912z M230.05,181.654h-84.6c-3.372,0-6.106-2.734-6.106-6.106V121.4
		c0-3.372,2.734-6.106,6.106-6.106h56.05c4.103,0,6.385,3.261,7.957,6.106l25.392,51.13
		C237.049,177.986,233.422,181.654,230.05,181.654z M289.771,238.147l-0.584,0.125c-3.871,0.825-7.828-0.976-9.749-4.438
		l-55.175-110.282c-0.289-0.52-0.499-1.078-0.622-1.658c-0.691-3.242,1.522-7.122,4.62-7.122l36.587,0.133
		c5.293,0,8.187,2.982,9.699,8.451L296.7,227.466C297.736,232.327,294.632,237.111,289.771,238.147z"/>
	<path fill="#FFFFFF" d="M328.419,172.792l-3.649-26.315l-0.056-0.326c-1.088-5.24-2.806-11.118-7.302-14.983
		c-3.787-3.256-8.942-4.708-16.713-4.708h-5.903l1.865,9.878h4.038c6.79,0,9.115,1.324,10.274,2.32
		c1.747,1.502,2.995,4.387,4.037,9.342l3.626,26.148c0.343,2.472,2.459,4.261,4.886,4.261c0.226,0,0.455-0.016,0.685-0.047
		C326.907,177.988,328.794,175.494,328.419,172.792z"/>
	<path fill="#FFFFFF" d="M171.594,320c-17.266,0-31.313-14.048-31.313-31.314c0-17.266,14.047-31.312,31.313-31.312
		c17.267,0,31.315,14.047,31.315,31.312C202.91,305.952,188.862,320,171.594,320z M171.594,271.903
		c-8.935,0-16.204,7.269-16.204,16.205c0,8.937,7.269,16.207,16.204,16.207c8.938,0,16.209-7.27,16.209-16.207
		C187.802,279.172,180.531,271.903,171.594,271.903z"/>
</g>
</svg>
