<?xml version="1.0" encoding="utf-8"?>
<!-- Generator: Adobe Illustrator 24.2.0, SVG Export Plug-In . SVG Version: 6.00 Build 0)  -->
<svg version="1.0" id="_x3C_Ebene_x3E_" xmlns="http://www.w3.org/2000/svg" xmlns:xlink="http://www.w3.org/1999/xlink" x="0px"
	 y="0px" viewBox="0 0 400 400" enable-background="new 0 0 400 400" xml:space="preserve">
<rect id="background-blue" fill="#2D327D" width="400" height="400"/>
<g id="content_1_">
	<path id="frameWhite" fill="#FFFFFF" d="M340,40c11,0,20,9,20,20v280c0,11-9,20-20,20H60c-11,0-20-9-20-20V60c0-11,9-20,20-20H340
		 M340,35H60c-13.785,0-25,11.215-25,25v280c0,13.785,11.215,25,25,25h280c13.785,0,25-11.215,25-25V60
		C365,46.215,353.785,35,340,35L340,35z"/>
	<g>
		<path fill="#FFFFFF" d="M280.001,282.5c-11.04,0-20.001,8.96-20.001,19.999c0,11.04,8.961,20.001,20.001,20.001
			c11.04,0,19.999-8.961,19.999-20.001C300,291.46,291.041,282.5,280.001,282.5L280.001,282.5z"/>
	</g>
	<g>
		<path fill="#FFFFFF" d="M120.001,282.5c-11.04,0-20.001,8.96-20.001,19.999c0,11.04,8.961,20.001,20.001,20.001
			c11.04,0,19.999-8.961,19.999-20.001C140,291.46,131.041,282.5,120.001,282.5L120.001,282.5z"/>
	</g>
	<path fill="#FFFFFF" d="M145.226,300h109.596l0.966-3.753c2.451-9.521,10.292-16.739,19.976-18.39l5.011-0.854l-22.11-117.924
		c-0.509-2.714-3.118-4.502-5.836-3.993c-2.714,0.509-4.502,3.122-3.993,5.836l20.306,108.296
		c-10.008,3.261-18.072,10.909-21.843,20.782h-94.432c-4.992-13.68-17.989-22.93-32.866-22.93c-2.761,0-5,2.239-5,5s2.239,5,5,5
		c11.591,0,21.584,7.856,24.301,19.104L145.226,300z"/>
	<g>
		<circle fill="#FFFFFF" cx="250" cy="140" r="10"/>
	</g>
	<g>
		<path fill="#FFFFFF" d="M106.845,80l-9.967,29.982h-7.444L79.61,80h6.85l6.747,22.456L100.057,80H106.845z"/>
		<path fill="#FFFFFF" d="M127.681,103.01c-0.314,1.258-0.882,2.44-1.702,3.548c-1.969,2.693-4.799,4.04-8.49,4.04
			c-3.336,0-6.009-1.053-8.019-3.158c-0.984-1.025-1.736-2.263-2.256-3.712c-0.561-1.545-0.841-3.158-0.841-4.84
			c0-3.254,0.937-5.988,2.81-8.203c2.092-2.475,4.799-3.712,8.121-3.712c2.68,0,4.963,0.827,6.85,2.481
			c1.354,1.189,2.338,2.656,2.953,4.399s0.923,3.934,0.923,6.573h-15.606c0.055,1.094,0.226,2.003,0.513,2.728
			c0.807,1.955,2.338,2.933,4.594,2.933c1.107,0,2.01-0.243,2.707-0.728s1.271-1.268,1.723-2.348H127.681z M121.959,96.427
			c-0.109-1.08-0.355-1.976-0.738-2.687c-0.383-0.697-0.926-1.251-1.63-1.661s-1.473-0.615-2.307-0.615
			c-1.326,0-2.42,0.444-3.281,1.333s-1.374,2.099-1.538,3.63H121.959z"/>
		<path fill="#FFFFFF" d="M145.543,87.219v5.763c-0.957-0.178-1.729-0.267-2.317-0.267c-2.215,0-3.842,0.93-4.881,2.789
			c-0.588,1.039-0.882,2.775-0.882,5.209v9.27h-5.947V87.588h5.66v4.081c1.613-3.035,3.958-4.553,7.034-4.553
			C144.593,87.116,145.037,87.15,145.543,87.219z"/>
		<path fill="#FFFFFF" d="M154.033,87.649v2.974c0.752-1.025,1.497-1.784,2.235-2.276c1.326-0.916,2.885-1.374,4.676-1.374
			c2.898,0,4.929,1.23,6.091,3.691c1.75-2.461,4.129-3.691,7.137-3.691c2.324,0,4.129,0.694,5.414,2.082s1.928,3.346,1.928,5.875
			v15.053h-5.947v-13.31c0-1.436-0.157-2.44-0.472-3.015c-0.561-1.053-1.572-1.579-3.035-1.579c-1.777,0-3.015,0.752-3.712,2.256
			c-0.314,0.67-0.472,1.866-0.472,3.589v12.059h-5.927V96.427c0-1.326-0.157-2.283-0.472-2.871c-0.506-0.984-1.449-1.477-2.83-1.477
			c-0.848,0-1.61,0.212-2.287,0.636s-1.186,1.005-1.528,1.743s-0.513,1.894-0.513,3.466v12.059h-5.947V87.649H154.033z"/>
		<path fill="#FFFFFF" d="M192.342,80v5.353h-5.947V80H192.342z M192.342,87.629v22.354h-5.947V87.629H192.342z"/>
		<path fill="#FFFFFF" d="M217.3,103.01c-0.314,1.258-0.882,2.44-1.702,3.548c-1.969,2.693-4.799,4.04-8.49,4.04
			c-3.336,0-6.009-1.053-8.019-3.158c-0.984-1.025-1.736-2.263-2.256-3.712c-0.561-1.545-0.841-3.158-0.841-4.84
			c0-3.254,0.937-5.988,2.81-8.203c2.092-2.475,4.799-3.712,8.121-3.712c2.68,0,4.963,0.827,6.85,2.481
			c1.354,1.189,2.338,2.656,2.953,4.399s0.923,3.934,0.923,6.573h-15.606c0.055,1.094,0.226,2.003,0.513,2.728
			c0.807,1.955,2.338,2.933,4.594,2.933c1.107,0,2.01-0.243,2.707-0.728s1.271-1.268,1.723-2.348H217.3z M211.578,96.427
			c-0.109-1.08-0.355-1.976-0.738-2.687c-0.383-0.697-0.926-1.251-1.63-1.661s-1.473-0.615-2.307-0.615
			c-1.326,0-2.42,0.444-3.281,1.333s-1.374,2.099-1.538,3.63H211.578z"/>
		<path fill="#FFFFFF" d="M232.865,87.547v4.204h-4.45v10.521c0,1.258,0.116,2.058,0.349,2.399c0.342,0.492,1.107,0.738,2.297,0.738
			c0.465,0,1.066-0.034,1.805-0.103v4.758c-1.34,0.15-2.57,0.226-3.691,0.226c-1.695,0-2.987-0.191-3.876-0.574
			c-1.381-0.615-2.242-1.736-2.584-3.363c-0.15-0.697-0.226-2.14-0.226-4.327V91.751h-3.63v-4.204h3.63v-5.25h5.927v5.25H232.865z"
			/>
		<path fill="#FFFFFF" d="M256.203,87.588v22.395h-5.66v-3.261c-1.709,2.584-4.102,3.876-7.178,3.876
			c-2.68,0-4.703-0.896-6.07-2.687c-0.52-0.697-0.892-1.518-1.118-2.461s-0.338-2.174-0.338-3.691V87.588h5.947v12.325
			c0,1.285,0.038,2.194,0.113,2.728s0.229,0.984,0.461,1.354c0.629,0.998,1.702,1.497,3.22,1.497c1.873,0,3.233-0.827,4.081-2.481
			c0.41-0.807,0.615-2.263,0.615-4.368V87.588H256.203z"/>
		<path fill="#FFFFFF" d="M266.416,87.649v3.138c0.697-0.957,1.347-1.661,1.948-2.112c1.477-1.148,3.254-1.723,5.332-1.723
			c1.832,0,3.384,0.465,4.655,1.395c1.012,0.738,1.719,1.671,2.123,2.799s0.605,2.717,0.605,4.768v14.068h-5.927V97.165
			c0-1.436-0.123-2.488-0.369-3.158c-0.232-0.588-0.629-1.053-1.189-1.395c-0.643-0.369-1.374-0.554-2.194-0.554
			c-0.902,0-1.723,0.219-2.461,0.656s-1.285,1.032-1.641,1.784c-0.396,0.848-0.595,2.167-0.595,3.958v11.525h-5.947V87.649H266.416z
			"/>
		<path fill="#FFFFFF" d="M306.632,87.588v19.729c0,1.75-0.109,3.148-0.328,4.194s-0.595,2-1.128,2.861
			c-1.723,2.734-4.812,4.102-9.27,4.102c-6.207,0-9.604-2.345-10.192-7.034h5.988c0.41,1.873,1.853,2.81,4.327,2.81
			c1.887,0,3.206-0.533,3.958-1.6c0.588-0.848,0.882-2.215,0.882-4.102l0.021-2.769c-1.531,2.352-3.746,3.527-6.645,3.527
			c-2.803,0-5.038-0.984-6.706-2.953c-1.695-1.996-2.543-4.689-2.543-8.08s0.848-6.111,2.543-8.162
			c1.764-2.119,4.081-3.179,6.952-3.179c1.49,0,2.734,0.28,3.732,0.841s1.914,1.497,2.748,2.81v-2.994H306.632z M295.824,91.812
			c-1.668,0-2.933,0.697-3.794,2.092c-0.697,1.121-1.046,2.543-1.046,4.266c0,2.188,0.506,3.849,1.518,4.983
			c0.875,1.012,2.017,1.518,3.425,1.518c1.777,0,3.11-0.745,3.999-2.235c0.684-1.148,1.025-2.598,1.025-4.348
			c0-2.105-0.526-3.732-1.579-4.881C298.511,92.277,297.328,91.812,295.824,91.812z"/>
	</g>
</g>
</svg>
