<?xml version="1.0" encoding="utf-8"?>
<!-- Generator: Adobe Illustrator 24.3.0, SVG Export Plug-In . SVG Version: 6.00 Build 0)  -->
<svg version="1.0" xmlns="http://www.w3.org/2000/svg" xmlns:xlink="http://www.w3.org/1999/xlink" x="0px" y="0px"
	 viewBox="0 0 400 400" enable-background="new 0 0 400 400" xml:space="preserve">
<rect id="background-blue" x="0.028" fill="#2D327D" width="400" height="400"/>
<g id="content">
	<path id="frameWhite" fill="#FFFFFF" d="M340.028,40c11,0,20,9,20,20v280c0,11-9,20-20,20h-280c-11,0-20-9-20-20V60
		c0-11,9-20,20-20H340.028 M340.028,35h-280c-13.785,0-25,11.215-25,25v280c0,13.785,11.215,25,25,25h280c13.785,0,25-11.215,25-25
		V60C365.028,46.215,353.813,35,340.028,35L340.028,35z"/>
	<path fill="#FFFFFF" d="M240.998,258c-17.12,0-31,13.88-31,31c0,7.62,2.75,14.6,7.32,20c5.68,6.73,14.18,11,23.68,11
		s18-4.27,23.68-11c4.57-5.4,7.32-12.38,7.32-20C271.998,271.88,258.118,258,240.998,258z M240.998,305c-8.84,0-16-7.16-16-16
		c0-8.84,7.16-16,16-16s16,7.16,16,16C256.998,297.84,249.838,305,240.998,305z"/>
	<rect x="80.018" y="277" fill="#FFFFFF" width="115" height="20"/>
	<path fill="#FFFFFF" d="M319.388,213.34l-9.01-33.01c-2.11-7.86-9.24-13.33-17.39-13.33h-82.98l-0.04,92.23
		c7.82-8.15,18.83-13.23,31.03-13.23c23.7,0,42.92,19.17,43,42.85V289v3c0,2.761,2.239,5,5,5h26c2.761,0,5-2.239,5-5l0.01-3v-71
		C320.008,216.43,319.798,214.86,319.388,213.34z M294,176c3.62,0,6.748,2.43,7.688,5.93l7.15,26.77c0.11,0.43,0.17,0.86,0.17,1.3
		c0,2.76-2.24,5-5,5h-64c-2.76,0-5-2.24-5-5v-29c0-2.76,2.24-5,5-5H294z"/>
	<path fill="#FFFFFF" d="M79.998,266.944l115,0.056c0,0,0-78,0-113c0-2.761-2.239-5-5-5h-110L80,176h76c2.761,0,5,2.239,5,5
		s-2.239,5-5,5H80v10h76c2.761,0,5,2.239,5,5s-2.239,5-5,5H80L79.998,266.944z"/>
</g>
</svg>
