<?xml version="1.0" encoding="utf-8"?>
<!-- Generator: Adobe Illustrator 25.0.0, SVG Export Plug-In . SVG Version: 6.00 Build 0)  -->
<svg version="1.0" xmlns="http://www.w3.org/2000/svg" xmlns:xlink="http://www.w3.org/1999/xlink" x="0px" y="0px"
	 viewBox="0 0 400 400" enable-background="new 0 0 400 400" xml:space="preserve">
<rect id="background-blue" x="0.028" fill="#2D327D" width="400" height="400"/>
<g id="content">
	<path id="frameWhite" fill="#FFFFFF" d="M340,40c11,0,20,9,20,20v280c0,11-9,20-20,20H60c-11,0-20-9-20-20V60c0-11,9-20,20-20H340
		 M340,35H60c-13.785,0-25,11.215-25,25v280c0,13.785,11.215,25,25,25h280c13.785,0,25-11.215,25-25V60
		C365,46.215,353.785,35,340,35L340,35z"/>
	<path fill="#FFFFFF" d="M126.96,202.97l0.04,10.07c-0.03,2.2,1.8,3.94,4,3.96h1.36l6.86-17.99H131
		C128.8,199,126.98,200.78,126.96,202.97z"/>
	<path fill="#FFFFFF" d="M80,285c0,19.33,15.67,35,35,35s35-15.67,35-35c0-13.517-7.667-25.235-18.885-31.067L157.375,185h24.123
		c2.49,0,4.502-2.02,4.502-4.508c0-2.477-2.012-4.497-4.502-4.497h-26.482v0.016c-1.617-0.006-3.144,0.964-3.754,2.565
		l-27.62,72.502c-2.765-0.702-5.66-1.078-8.643-1.078C95.67,250,80,265.67,80,285z M95,285c0-11.05,8.95-20,20-20
		c1.103,0,2.177,0.112,3.231,0.284l-6.968,18.292c-0.787,2.064,0.25,4.375,2.314,5.162c0.468,0.179,0.95,0.263,1.423,0.263
		c1.612,0,3.131-0.981,3.739-2.577l6.971-18.298c5.58,3.548,9.292,9.769,9.292,16.874c0,11.05-8.95,20-20,20S95,296.05,95,285z"/>
	<path fill="#FFFFFF" d="M250,218c0-4.971,4.029-9,9-9h51v9H250z"/>
	<path fill="#FFFFFF" d="M140.42,240.79c14.09,8.1,23.93,22.74,25.39,39.78v0.28c0,4.501,3.649,8.15,8.15,8.15H227l23.235,0.004
		c2.067,18.136,17.987,32.066,36.922,30.931c17.385-1.043,31.544-15.052,32.755-32.426C321.339,267.045,305.16,250,285,250
		c-17.977,0-32.78,13.555-34.766,31h-16.066c2.035-26.297,24.004-47,50.831-47h25v-12c0,0-70.59,0-91,0c-2.38,0-4.98-0.74-7.4-2.66
		c-1.87-1.47-17.09-13.35-23.66-18.48c-1.52-1.17-3.42-1.86-5.48-1.86h-26.12L140.42,240.79z M265.402,289.007l19.6,0.004
		c1.388-0.004,2.671-0.712,3.4-1.892c1.166-1.89,0.571-4.349-1.308-5.508c-0.641-0.398-1.372-0.603-2.11-0.61h-19.584
		c1.855-9.145,9.943-16.02,19.642-16c10.496,0.022,19.371,8.425,19.928,18.906C305.585,295.453,296.413,305,285,305
		C275.323,305,267.257,298.135,265.402,289.007z"/>
</g>
</svg>
