<?xml version="1.0" encoding="utf-8"?>
<!-- Generator: Adobe Illustrator 24.2.0, SVG Export Plug-In . SVG Version: 6.00 Build 0)  -->
<svg version="1.0" id="Ebene_3" xmlns="http://www.w3.org/2000/svg" xmlns:xlink="http://www.w3.org/1999/xlink" x="0px" y="0px"
	 viewBox="0 0 400 399.998" enable-background="new 0 0 400 399.998" xml:space="preserve">
<rect id="background-red" fill="#9B2423" width="400" height="400"/>
<g id="content">
	<path id="frameWhite" fill="#FFFFFF" d="M340,40c11,0,20,9,20,20v280c0,11-9,20-20,20H60c-11,0-20-9-20-20V60c0-11,9-20,20-20H340
		 M340,35H60c-13.785,0-25,11.215-25,25v280c0,13.785,11.215,25,25,25h280c13.785,0,25-11.215,25-25V60
		C365,46.215,353.785,35,340,35L340,35z"/>
	<path fill="#FFFFFF" d="M163.778,127.189v-18.147l8.448-0.298l8.434-2.82V94.059l-8.137-3.439l-12.186,0.256V80.001h-23.744v8.745
		h-12.196l-27.795,24.697c0,0-3.142,2.183-4.697,14.375c-1.566,12.183,0,18.425,0,18.425l10.01-0.299l0.619-15.325l12.5-12.789
		l17.497-6.805v16.144c-0.202,0-0.405,0.02-0.626,0.02c-12.197,0.331-23.753,9.681-23.753,24.697v168.116h80.62V151.886
		C188.776,140.939,177.517,127.189,163.778,127.189z M179.711,207.476H117.23v-37.168h62.481V207.476z"/>
	<path fill="#FFFFFF" d="M308.01,201.099v-30.463c0,0-6.896-1.744-14.069-10.853c-5.979-7.619-14.803-32.273-14.803-32.273
		s-7.713,25.5,2.475,45C293.139,194.615,308.01,201.099,308.01,201.099z"/>
	<path fill="#FFFFFF" d="M248.136,161.453c2.92,11.765,8.633,32.907,21.119,44.008c19.447,17.296,39.224,9.194,39.224,9.194
		s-14.931-5.302-23.606-20.2c-8.7-14.897-13.754-35.223-24.233-44.376c-14.441-12.697-25.818-7.958-25.818-7.958
		S244.794,147.93,248.136,161.453z"/>
	<path fill="#FFFFFF" d="M243.289,186.899c0,0-6.538,22.897,14.062,46.335c23.289,26.496,50.66,28.259,50.66,28.259v-30.462
		c0,0-18.028-1.637-34.797-13.021C250.654,202.675,243.289,186.899,243.289,186.899z"/>
	<path fill="#FFFFFF" d="M275.001,284.667c23.531,3.229,33.01-9.09,33.01-9.09s-10.613-1.006-24.576-9.827
		c-10.097-6.402-24.177-27.153-40.419-27.153c-18.687,0-21.926,7.218-21.926,7.218s8.689,1.713,16.803,7.797
		C249.574,262.372,255.734,282.011,275.001,284.667z"/>
	<path fill="#FFFFFF" d="M277.275,292.985c-16.473-1.533-35.295-16.36-35.295-16.36s0.082,14.875,12.801,29.17
		c12.739,14.274,28.294,14.084,33.414,14.183c4.656,0.125,19.827-0.287,19.827-0.287l-0.315-29.171
		C307.707,290.52,293.718,294.538,277.275,292.985z"/>
</g>
</svg>
